<svg width="44" height="45" viewBox="0 0 44 45" fill="none" xmlns="http://www.w3.org/2000/svg">
<path fill-rule="evenodd" clip-rule="evenodd" d="M22 14.5974C17.582 14.5974 14 18.1794 14 22.5974C14 27.0154 17.582 30.5974 22 30.5974C26.418 30.5974 30 27.0154 30 22.5974C30 18.1794 26.418 14.5974 22 14.5974ZM22 12.5974C24.652 12.5974 27.195 13.6504 29.071 15.5264C30.946 17.4014 32 19.9454 32 22.5974C32 28.1204 27.522 32.5974 22 32.5974C16.478 32.5974 12 28.1204 12 22.5974C12 17.0744 16.478 12.5974 22 12.5974ZM18.7071 22.8903C18.3166 22.4998 17.6834 22.4998 17.2929 22.8903C16.9024 23.2808 16.9024 23.914 17.2929 24.3045L19.7929 26.8045C20.1834 27.195 20.8166 27.195 21.2071 26.8045L26.7071 21.3045C27.0976 20.914 27.0976 20.2808 26.7071 19.8903C26.3166 19.4998 25.6834 19.4998 25.2929 19.8903L20.5 24.6832L18.7071 22.8903Z" fill="#8B3D99"/>
</svg>
