<svg id="Icon" xmlns="http://www.w3.org/2000/svg" viewBox="0 0 24 24"><defs><style>.cls-1{fill:#ff6b00;}.cls-2{fill:#fff;}</style></defs><path class="cls-1" d="M4.54,15.69l6.83,6.2a1,1,0,0,0,1.34,0l6.75-6.11A23.68,23.68,0,0,1,12,17,22.62,22.62,0,0,1,4.54,15.69Z"/><path class="cls-1" d="M22,11.52a2,2,0,0,1-1.45,1.92A26.55,26.55,0,0,1,12,15,25.52,25.52,0,0,1,3.4,13.34,2,2,0,0,1,2,11.43v-6A2,2,0,0,1,3.44,3.55,26.56,26.56,0,0,1,12,2a26.44,26.44,0,0,1,8.57,1.56A2,2,0,0,1,22,5.48Z"/><path class="cls-2" d="M5.67,8.37c.24-.49.24-1.17-.08-1.34s-.65.22-.67.24a1.66,1.66,0,0,0-.22.32l.17.1a2.83,2.83,0,0,1,.8.68"/><path class="cls-2" d="M8.16,9.57l.2-.88h.27c.38,0,.7.11.69.46s-.41.57-.86.57h-.2c-.12,0-.1-.14-.1-.14m2-.4a.72.72,0,0,0-.67-.77c.38-.07.88-.35.88-.86S9.85,6.7,9,6.7A7.06,7.06,0,0,0,8,6.78l-.6,2.64s-.2.69.38.83a2.22,2.22,0,0,0,.46.06c1.55.09,2-.61,2-1.14M8.67,7.31l.36,0c.31,0,.53.11.53.37s-.32.48-.77.48H8.61c-.13,0-.09-.15-.09-.15Z"/><path class="cls-2" d="M14,10.32a.45.45,0,0,0,.44-.41c.07-.29.18-.78.18-.78a2.5,2.5,0,0,0,.33,0c1.33,0,1.8-.86,1.8-1.44s-.44-1-1.41-1a4.92,4.92,0,0,0-1.05.08l-.79,3.52Zm1.07-3,.34,0c.31,0,.57.09.57.46a.77.77,0,0,1-.85.75H15c-.25,0-.18-.21-.18-.21Z"/><path class="cls-2" d="M11.54,8.77a1.35,1.35,0,0,1,1.23-1.43,1.43,1.43,0,0,1,.85.26l.11-.41c0-.12,0-.32-.39-.43a1.91,1.91,0,0,0-.68-.12,2,2,0,0,0-2,2.18,1.42,1.42,0,0,0,1.56,1.54,1.71,1.71,0,0,0,.65-.1A.4.4,0,0,0,13.1,10l.13-.6a1.23,1.23,0,0,1-.81.29.83.83,0,0,1-.88-.91"/><path class="cls-2" d="M6.89,7.92a.79.79,0,0,1,.05.9A4.06,4.06,0,0,1,5.49,10a.71.71,0,0,1-.83-.21,1.08,1.08,0,0,1-.16-.23,3.39,3.39,0,0,0,1.26-1C6.09,8,6.15,7.26,5.82,7h0s0,0,0,0a3.94,3.94,0,0,1,.61.43,4.74,4.74,0,0,1,.47.49"/><path class="cls-2" d="M19.32,7.92a.77.77,0,0,1,.06.9A4.06,4.06,0,0,1,17.93,10a.73.73,0,0,1-.84-.21,1,1,0,0,1-.15-.23,3.39,3.39,0,0,0,1.26-1c.33-.56.39-1.33.06-1.57h0s0,0,0,0a3.94,3.94,0,0,1,.61.43,3.32,3.32,0,0,1,.46.49"/><path class="cls-2" d="M18.11,8.37c.23-.49.24-1.17-.08-1.34s-.66.22-.67.24a1.66,1.66,0,0,0-.22.32l.16.1a2.72,2.72,0,0,1,.81.68"/></svg>