<svg width="134" height="40" viewBox="0 0 134 40" fill="none" xmlns="http://www.w3.org/2000/svg">
<g clip-path="url(#clip0_6_254)">
<path d="M123.928 0H8.33067C8.02933 0 7.728 0 7.424 0C6.761 0.00964053 6.09963 0.0684687 5.44533 0.176C4.79527 0.286098 4.16581 0.49472 3.57867 0.794667C2.98808 1.0966 2.44825 1.48888 1.97867 1.95733C1.50917 2.42602 1.11676 2.96603 0.816 3.55733C0.512411 4.15282 0.301964 4.79136 0.192 5.45067C0.0814807 6.10368 0.0226315 6.7644 0.016 7.42667C0 7.73333 0 8.032 0 8.336V31.6667C0 31.9733 0 32.272 0.016 32.5787C0.022863 33.2409 0.0817104 33.9016 0.192 34.5547C0.301012 35.2046 0.508745 35.8341 0.808 36.4213C1.41291 37.6157 2.37986 38.5882 3.57067 39.2C4.15806 39.5005 4.78733 39.7108 5.43733 39.824C6.09169 39.9307 6.75306 39.9886 7.416 39.9973C7.72 39.9973 8.02133 39.9973 8.32267 39.9973H124.989C125.291 39.9973 125.597 39.9973 125.899 39.9973C126.56 39.9892 127.22 39.9312 127.872 39.824C128.528 39.7104 129.163 39.5001 129.757 39.2C130.35 38.9012 130.89 38.5086 131.357 38.0373C131.829 37.5694 132.223 37.0293 132.525 36.4373C132.822 35.8494 133.028 35.2201 133.136 34.5707C133.246 33.9175 133.308 33.257 133.32 32.5947C133.32 32.288 133.32 31.9893 133.32 31.6827C133.32 31.3253 133.32 30.968 133.32 30.616V9.41333C133.32 9.05067 133.32 8.69333 133.32 8.34667C133.32 8.04267 133.32 7.73867 133.32 7.43733C133.308 6.775 133.247 6.11449 133.136 5.46133C133.027 4.81217 132.821 4.183 132.525 3.59467C131.921 2.39685 130.956 1.41924 129.765 0.8C129.171 0.50313 128.535 0.297275 127.88 0.189333C127.228 0.0812174 126.568 0.0223844 125.907 0.0133333C125.605 0.0133333 125.299 0.0133333 124.997 0.0133333L123.928 0Z" fill="#B6B6B6"/>
<path d="M8.33601 39.136C8.03468 39.136 7.74135 39.136 7.44268 39.136C6.82448 39.128 6.2077 39.0745 5.59735 38.976C5.02922 38.8795 4.47842 38.6998 3.96268 38.4427C2.93804 37.9175 2.10347 37.0848 1.57601 36.0613C1.31644 35.5457 1.13662 34.9936 1.04268 34.424C0.940715 33.8122 0.88633 33.1935 0.880014 32.5733C0.880014 32.3653 0.864014 31.672 0.864014 31.672V8.336C0.864014 8.336 0.864014 7.65334 0.880014 7.45334C0.884626 6.83232 0.938124 6.21262 1.04001 5.6C1.13273 5.02839 1.3126 4.47439 1.57335 3.95734C1.83255 3.44855 2.172 2.98483 2.57868 2.584C2.98484 2.17742 3.45175 1.83645 3.96268 1.57333C4.47727 1.31572 5.02727 1.13598 5.59468 1.04C6.20661 0.939369 6.82525 0.884992 7.44535 0.877335H8.33601H124.992H125.893C126.508 0.882594 127.122 0.936092 127.728 1.03733C128.301 1.13134 128.857 1.31114 129.376 1.57067C130.403 2.10042 131.237 2.94014 131.76 3.97067C132.019 4.48379 132.199 5.03311 132.293 5.6C132.396 6.21722 132.453 6.84111 132.464 7.46667C132.464 7.74667 132.464 8.048 132.464 8.34667C132.464 8.71734 132.464 9.06934 132.464 9.41334V30.5867C132.464 30.9467 132.464 31.296 132.464 31.6533C132.464 32.0107 132.464 32.2693 132.464 32.5733C132.454 33.1865 132.398 33.798 132.296 34.4027C132.205 34.9763 132.025 35.5323 131.763 36.0507C131.233 37.0703 130.4 37.9004 129.379 38.4267C128.86 38.6865 128.306 38.8663 127.733 38.96C127.123 39.0591 126.506 39.1126 125.888 39.12C125.6 39.12 125.296 39.12 125.003 39.12H8.33601V39.136Z" fill="black"/>
<path d="M49.4906 27.0027H44.8L43.6613 30.1333H41.6L46.1866 18.4373H48.1333L52.824 30.1333H50.6666L49.4906 27.0027ZM45.3973 25.4027H48.8906L47.64 22.0533C47.4693 21.592 47.2986 21.08 47.1333 20.52C46.9813 21.016 46.816 21.52 46.64 22.0373L45.3973 25.4027Z" fill="white"/>
<path d="M53.6534 23.5547C53.6534 22.9093 53.632 22.1982 53.5894 21.4213H55.456C55.5262 21.787 55.5742 22.1566 55.6 22.528C55.9266 22.1366 56.3341 21.8205 56.7944 21.6014C57.2547 21.3822 57.7569 21.2653 58.2667 21.2587C58.8644 21.2492 59.4513 21.4182 59.9525 21.7441C60.4536 22.07 60.8462 22.5379 61.08 23.088C61.4081 23.8443 61.5638 24.6641 61.536 25.488C61.5563 26.3864 61.374 27.2777 61.0027 28.096C60.692 28.7751 60.1849 29.3455 59.5467 29.7333C58.8901 30.1128 58.1422 30.3055 57.384 30.2907C56.7874 30.2903 56.1951 30.1893 55.632 29.992V33.6L53.6374 33.7707L53.6534 23.5547ZM58.896 28C59.3014 27.4667 59.5067 26.6667 59.5067 25.6C59.5067 24.6276 59.3378 23.9164 59 23.4667C58.8474 23.2576 58.6464 23.0887 58.4141 22.9745C58.1819 22.8602 57.9254 22.804 57.6667 22.8107C57.294 22.8057 56.9265 22.8976 56.6 23.0773C56.2532 23.2738 55.9377 23.521 55.664 23.8107V28.4773C55.885 28.5815 56.1178 28.6585 56.3574 28.7067C56.615 28.7624 56.8778 28.791 57.1414 28.792C57.4761 28.812 57.8107 28.7504 58.1164 28.6125C58.4221 28.4745 58.6896 28.2643 58.896 28Z" fill="white"/>
<path d="M62.7493 23.5547C62.7493 22.9093 62.728 22.1982 62.6853 21.4213H64.552C64.6243 21.7867 64.6733 22.1564 64.6986 22.528C65.4755 21.6818 66.3644 21.2587 67.3653 21.2587C67.963 21.2492 68.5499 21.4182 69.0511 21.7441C69.5522 22.07 69.9448 22.5379 70.1786 23.088C70.5067 23.8443 70.6624 24.6641 70.6346 25.488C70.6591 26.3853 70.4814 27.2767 70.1146 28.096C69.8033 28.7755 69.2951 29.3459 68.656 29.7333C67.9995 30.1131 67.2516 30.3059 66.4933 30.2907C65.8967 30.2903 65.3044 30.1893 64.7413 29.992V33.6L62.7466 33.7707L62.7493 23.5547ZM68 28C68.4053 27.4542 68.608 26.6542 68.608 25.6C68.608 24.6276 68.44 23.9164 68.104 23.4667C67.9513 23.2576 67.7503 23.0887 67.5181 22.9745C67.2858 22.8602 67.0294 22.804 66.7706 22.8107C66.398 22.8062 66.0306 22.898 65.704 23.0773C65.3572 23.2738 65.0417 23.521 64.768 23.8107V28.4773C64.9893 28.5807 65.222 28.6577 65.4613 28.7067C65.7189 28.7624 65.9817 28.791 66.2453 28.792C66.58 28.8116 66.9145 28.7498 67.2201 28.6118C67.5256 28.4739 67.7932 28.264 68 28Z" fill="white"/>
<path d="M74.3013 29.5813C73.4491 29.114 72.757 28.4014 72.3146 27.536C71.8311 26.5581 71.5932 25.4772 71.6213 24.3867C71.5867 23.2199 71.8628 22.065 72.4213 21.04C72.9256 20.1505 73.6831 19.4312 74.5973 18.9733C75.5581 18.5039 76.616 18.2673 77.6853 18.2827C78.3338 18.2798 78.9802 18.3551 79.6106 18.5067C80.2003 18.6455 80.7727 18.8494 81.3173 19.1147L80.8 20.648C79.8567 20.1722 78.8189 19.9134 77.7626 19.8907C77.0171 19.8782 76.2813 20.0622 75.6293 20.424C75.0106 20.7791 74.5134 21.3126 74.2026 21.9547C73.8452 22.7162 73.6716 23.5511 73.696 24.392C73.6827 25.1496 73.8149 25.9028 74.0853 26.6107C74.3308 27.2372 74.7627 27.7733 75.3226 28.1467C75.9605 28.5458 76.7041 28.7428 77.456 28.712C77.8456 28.711 78.2345 28.678 78.6186 28.6133C78.9904 28.5542 79.3556 28.4596 79.7093 28.3307V25.952H77.0053V24.4027H81.648V29.3333C80.9744 29.6472 80.269 29.8877 79.544 30.0507C78.825 30.2163 78.0897 30.3004 77.352 30.3013C76.2902 30.3268 75.2397 30.0789 74.3013 29.5813Z" fill="white"/>
<path d="M88.7334 30.1333C88.6579 29.7525 88.6116 29.3665 88.5947 28.9787C88.2616 29.3663 87.8545 29.6835 87.3974 29.912C86.8812 30.1734 86.3092 30.3052 85.7307 30.296C85.2573 30.302 84.7888 30.2008 84.36 30C83.9522 29.8087 83.6112 29.4994 83.3814 29.112C83.1266 28.673 83 28.1713 83.016 27.664C83.0011 27.2792 83.076 26.8962 83.2347 26.5453C83.3935 26.1945 83.6318 25.8854 83.9307 25.6427C84.5387 25.1378 85.5529 24.8862 86.9734 24.888C87.5025 24.8878 88.0309 24.9252 88.5547 25V24.8293C88.5547 24.0613 88.3911 23.5191 88.064 23.2027C87.673 22.8662 87.1655 22.6967 86.6507 22.7307C86.1896 22.7363 85.731 22.799 85.2854 22.9173C84.8439 23.0238 84.4135 23.172 84 23.36L83.6854 21.9093C84.1376 21.7163 84.6073 21.5672 85.088 21.464C85.6927 21.3273 86.3108 21.2593 86.9307 21.2613C87.5875 21.2434 88.241 21.3605 88.8507 21.6053C89.387 21.8424 89.8236 22.2593 90.0854 22.784C90.4126 23.4865 90.5654 24.2577 90.5307 25.032V28.4987C90.5307 28.8542 90.552 29.4 90.5947 30.136L88.7334 30.1333ZM87.5387 28.5333C87.9231 28.3547 88.2684 28.1019 88.5547 27.7893V26.1893C88.1121 26.137 87.667 26.1076 87.2214 26.1013C86.3983 26.1013 85.8285 26.2347 85.512 26.5013C85.3577 26.6317 85.235 26.7955 85.1532 26.9803C85.0714 27.1651 85.0327 27.3661 85.04 27.568C85.0256 27.7425 85.0488 27.918 85.1082 28.0827C85.1675 28.2475 85.2616 28.3975 85.384 28.5227C85.644 28.7419 85.9779 28.8535 86.3174 28.8347C86.7421 28.8282 87.1597 28.7252 87.5387 28.5333Z" fill="white"/>
<path d="M92.072 28.0427V17.7493L94.056 17.5893V27.688C94.0278 27.9683 94.0945 28.25 94.2454 28.488C94.3216 28.5699 94.4155 28.6334 94.5199 28.6736C94.6243 28.7138 94.7365 28.7297 94.848 28.72C95.0289 28.7122 95.2081 28.6817 95.3814 28.6293L95.616 30.0587C95.3927 30.143 95.1613 30.2037 94.9254 30.24C94.6708 30.2841 94.413 30.3073 94.1547 30.3093C92.7662 30.3004 92.072 29.5449 92.072 28.0427Z" fill="white"/>
<path d="M97.0347 28.0427V17.7493L99.0213 17.5893V27.688C98.9931 27.9683 99.0598 28.25 99.2107 28.488C99.2869 28.5699 99.3808 28.6334 99.4852 28.6736C99.5896 28.7138 99.7018 28.7297 99.8133 28.72C99.9942 28.7122 100.173 28.6817 100.347 28.6293L100.579 30.0587C100.356 30.143 100.126 30.2038 99.8907 30.24C99.6352 30.2843 99.3766 30.3075 99.1173 30.3093C97.7307 30.3004 97.0364 29.5449 97.0347 28.0427Z" fill="white"/>
<path d="M108.739 26.032H103.04C103.131 27.8578 104 28.7707 105.648 28.7707C106.071 28.7685 106.492 28.7184 106.904 28.6213C107.325 28.5235 107.736 28.3897 108.133 28.2213L108.571 29.5867C107.544 30.0705 106.42 30.3132 105.285 30.296C104.472 30.3195 103.667 30.1359 102.944 29.7627C102.318 29.4243 101.816 28.8958 101.509 28.2533C101.171 27.509 101.007 26.6973 101.029 25.88C101.007 25.0235 101.181 24.1734 101.539 23.3947C101.843 22.7338 102.336 22.1773 102.955 21.7947C103.589 21.421 104.315 21.2309 105.051 21.2453C105.781 21.2195 106.502 21.4218 107.112 21.824C107.662 22.206 108.089 22.741 108.339 23.3627C108.613 24.0399 108.749 24.7653 108.739 25.496V26.032ZM106.795 24.7653C106.798 24.1992 106.611 23.6484 106.261 23.2027C106.105 23.0274 105.912 22.8887 105.695 22.7965C105.479 22.7044 105.246 22.6609 105.011 22.6693C104.774 22.6645 104.54 22.7094 104.322 22.8013C104.104 22.8932 103.908 23.03 103.747 23.2027C103.371 23.6407 103.14 24.1851 103.088 24.76L106.795 24.7653Z" fill="white"/>
<path d="M110.248 23.6107C110.248 23.1333 110.224 22.4027 110.181 21.424H112.048C112.08 21.6667 112.109 21.9573 112.141 22.2907C112.173 22.624 112.189 22.9013 112.2 23.112C112.401 22.7721 112.629 22.4493 112.883 22.1467C113.103 21.8881 113.369 21.672 113.667 21.5093C113.98 21.3401 114.332 21.2547 114.688 21.2613C114.958 21.2547 115.228 21.288 115.488 21.36L115.237 23.088C114.925 22.9976 114.597 22.9746 114.275 23.0206C113.954 23.0666 113.645 23.1805 113.371 23.3547C112.929 23.6827 112.545 24.0809 112.232 24.5333V30.1333H110.248V23.6107Z" fill="white"/>
<path d="M116.597 33.6987C116.354 33.6593 116.114 33.6014 115.88 33.5253L116.243 32.072C116.41 32.1172 116.58 32.1536 116.752 32.1813C116.944 32.2154 117.138 32.2333 117.333 32.2347C118.222 32.2347 118.884 31.6667 119.317 30.5307L119.448 30.208L116.235 21.424H118.368L120 26.3333C120.209 26.9648 120.378 27.6087 120.507 28.2613C120.659 27.632 120.835 27.0027 121.04 26.3733L122.667 21.424H124.675L121.475 30.248C121.233 30.9588 120.904 31.6368 120.496 32.2667C120.185 32.7424 119.759 33.1329 119.259 33.4027C118.722 33.6646 118.13 33.7927 117.533 33.776C117.22 33.7772 116.907 33.7513 116.597 33.6987Z" fill="white"/>
<path fill-rule="evenodd" clip-rule="evenodd" d="M26.9333 7.33333H15.864C10.6453 7.33333 8.73596 9.24266 8.73596 14.4613V25.5387C8.73596 30.7573 10.6453 32.6667 15.864 32.6667H26.9333C32.152 32.6667 34.064 30.7573 34.064 25.5387V14.4613C34.0693 9.24266 32.16 7.33333 26.9333 7.33333Z" fill="#C8102E"/>
<path d="M13.752 20H14.424V23.3147H13.752V21.968H12.2347V23.3147H11.5627V20H12.2347V21.3333H13.752V20ZM17.5387 21.896C17.5387 22.4293 17.272 22.7227 16.7867 22.7227C16.3013 22.7227 16.0293 22.4293 16.0293 21.8667V20H15.3573V21.8933C15.3573 22.824 15.8747 23.3573 16.776 23.3573C17.6773 23.3573 18.2107 22.824 18.2107 21.864V20H17.5387V21.896ZM25.304 22.2773L24.552 20H24L23.2533 22.28L22.52 20H21.8053L22.96 23.3147H23.5173L24.2667 21.1387L25.0187 23.3147H25.5813L26.736 20H26.0373L25.304 22.2773ZM27.9387 21.8853H29.1627V21.2853H27.9387V20.608H29.7147V20H27.2773V23.3067H29.7787V22.7093H27.9387V21.8853ZM30.5787 23.3067H31.2427V20H30.5787V23.3067ZM19.5387 22.6213L19.2373 23.3093H18.552L20 20H20.592L22.0453 23.3093H21.352L21.0667 22.624L19.5387 22.6213ZM19.7893 22.024H20.8L20.2933 20.84L19.7893 22.024Z" fill="white"/>
<path d="M21.4026 15.784C20.2847 15.7833 19.2128 15.3389 18.4223 14.5484C17.6318 13.7579 17.1874 12.6859 17.1866 11.568H17.7813C17.7813 12.5284 18.1628 13.4495 18.842 14.1287C19.5211 14.8078 20.4422 15.1893 21.4026 15.1893C22.3631 15.1893 23.2842 14.8078 23.9633 14.1287C24.6424 13.4495 25.024 12.5284 25.024 11.568H25.6186C25.6179 12.6859 25.1735 13.7579 24.383 14.5484C23.5925 15.3389 22.5206 15.7833 21.4026 15.784Z" fill="white"/>
<path d="M45.5 15H43.7045V9.18182H45.5795C46.1439 9.18182 46.6269 9.2983 47.0284 9.53125C47.4299 9.76231 47.7377 10.0947 47.9517 10.5284C48.1657 10.9602 48.2727 11.4773 48.2727 12.0795C48.2727 12.6856 48.1648 13.2074 47.9489 13.6449C47.733 14.0805 47.4186 14.4157 47.0057 14.6506C46.5928 14.8835 46.0909 15 45.5 15ZM44.4091 14.375H45.4545C45.9356 14.375 46.3343 14.2822 46.6506 14.0966C46.9669 13.911 47.2027 13.6468 47.358 13.304C47.5133 12.9612 47.5909 12.553 47.5909 12.0795C47.5909 11.6098 47.5142 11.2055 47.3608 10.8665C47.2074 10.5256 46.9782 10.2642 46.6733 10.0824C46.3684 9.89867 45.9886 9.80682 45.5341 9.80682H44.4091V14.375ZM51.1932 15.0909C50.7727 15.0909 50.41 14.9981 50.1051 14.8125C49.8021 14.625 49.5682 14.3636 49.4034 14.0284C49.2405 13.6913 49.1591 13.2992 49.1591 12.8523C49.1591 12.4053 49.2405 12.0114 49.4034 11.6705C49.5682 11.3277 49.7973 11.0606 50.0909 10.8693C50.3864 10.6761 50.7311 10.5795 51.125 10.5795C51.3523 10.5795 51.5767 10.6174 51.7983 10.6932C52.0199 10.7689 52.2216 10.892 52.4034 11.0625C52.5852 11.2311 52.7301 11.4545 52.8381 11.733C52.946 12.0114 53 12.3542 53 12.7614V13.0455H49.6364V12.4659H52.3182C52.3182 12.2197 52.2689 12 52.1705 11.8068C52.0739 11.6136 51.9356 11.4612 51.7557 11.3494C51.5777 11.2377 51.3674 11.1818 51.125 11.1818C50.858 11.1818 50.6269 11.2481 50.4318 11.3807C50.2386 11.5114 50.09 11.6818 49.9858 11.892C49.8816 12.1023 49.8295 12.3277 49.8295 12.5682V12.9545C49.8295 13.2841 49.8864 13.5634 50 13.7926C50.1155 14.0199 50.2756 14.1932 50.4801 14.3125C50.6847 14.4299 50.9223 14.4886 51.1932 14.4886C51.3693 14.4886 51.5284 14.464 51.6705 14.4148C51.8144 14.3636 51.9384 14.2879 52.0426 14.1875C52.1468 14.0852 52.2273 13.9583 52.2841 13.8068L52.9318 13.9886C52.8636 14.2083 52.7491 14.4015 52.5881 14.5682C52.4271 14.733 52.2282 14.8617 51.9915 14.9545C51.7547 15.0455 51.4886 15.0909 51.1932 15.0909ZM57.1108 11.6136L56.5085 11.7841C56.4706 11.6837 56.4148 11.5862 56.3409 11.4915C56.2689 11.3949 56.1705 11.3153 56.0455 11.2528C55.9205 11.1903 55.7604 11.1591 55.5653 11.1591C55.2983 11.1591 55.0758 11.2206 54.8977 11.3438C54.7216 11.465 54.6335 11.6193 54.6335 11.8068C54.6335 11.9735 54.6941 12.1051 54.8153 12.2017C54.9366 12.2983 55.1259 12.3788 55.3835 12.4432L56.0312 12.6023C56.4214 12.697 56.7121 12.8419 56.9034 13.0369C57.0947 13.2301 57.1903 13.4792 57.1903 13.7841C57.1903 14.0341 57.1184 14.2576 56.9744 14.4545C56.8324 14.6515 56.6335 14.8068 56.3778 14.9205C56.1222 15.0341 55.8248 15.0909 55.4858 15.0909C55.0407 15.0909 54.6723 14.9943 54.3807 14.8011C54.089 14.608 53.9044 14.3258 53.8267 13.9545L54.4631 13.7955C54.5237 14.0303 54.6383 14.2064 54.8068 14.3239C54.9773 14.4413 55.1998 14.5 55.4744 14.5C55.7869 14.5 56.035 14.4337 56.2188 14.3011C56.4044 14.1667 56.4972 14.0057 56.4972 13.8182C56.4972 13.6667 56.4441 13.5398 56.3381 13.4375C56.232 13.3333 56.0691 13.2557 55.8494 13.2045L55.1222 13.0341C54.7225 12.9394 54.429 12.7926 54.2415 12.5938C54.0559 12.393 53.9631 12.142 53.9631 11.8409C53.9631 11.5947 54.0322 11.3769 54.1705 11.1875C54.3106 10.9981 54.5009 10.8494 54.7415 10.7415C54.9839 10.6335 55.2585 10.5795 55.5653 10.5795C55.9972 10.5795 56.3362 10.6742 56.5824 10.8636C56.8305 11.053 57.0066 11.303 57.1108 11.6136ZM59.9723 15.0909C59.5632 15.0909 59.2109 14.9943 58.9155 14.8011C58.62 14.608 58.3928 14.3419 58.2337 14.0028C58.0746 13.6638 57.995 13.2765 57.995 12.8409C57.995 12.3977 58.0765 12.0066 58.2393 11.6676C58.4041 11.3267 58.6333 11.0606 58.9268 10.8693C59.2223 10.6761 59.567 10.5795 59.9609 10.5795C60.2678 10.5795 60.5443 10.6364 60.7905 10.75C61.0367 10.8636 61.2384 11.0227 61.3956 11.2273C61.5528 11.4318 61.6503 11.6705 61.6882 11.9432H61.0178C60.9666 11.7443 60.853 11.5682 60.6768 11.4148C60.5026 11.2595 60.2678 11.1818 59.9723 11.1818C59.7109 11.1818 59.4818 11.25 59.2848 11.3864C59.0897 11.5208 58.9373 11.7112 58.8274 11.9574C58.7195 12.2017 58.6655 12.4886 58.6655 12.8182C58.6655 13.1553 58.7185 13.4489 58.8246 13.6989C58.9325 13.9489 59.084 14.143 59.2791 14.2812C59.4761 14.4195 59.7071 14.4886 59.9723 14.4886C60.1465 14.4886 60.3047 14.4583 60.4467 14.3977C60.5888 14.3371 60.709 14.25 60.8075 14.1364C60.906 14.0227 60.9761 13.8864 61.0178 13.7273H61.6882C61.6503 13.9848 61.5566 14.2169 61.407 14.4233C61.2592 14.6278 61.0632 14.7907 60.8189 14.9119C60.5765 15.0312 60.2943 15.0909 59.9723 15.0909ZM63.9524 15.1023C63.6759 15.1023 63.425 15.0502 63.1996 14.946C62.9742 14.84 62.7952 14.6875 62.6626 14.4886C62.5301 14.2879 62.4638 14.0455 62.4638 13.7614C62.4638 13.5114 62.513 13.3087 62.6115 13.1534C62.71 12.9962 62.8416 12.8731 63.0064 12.7841C63.1712 12.6951 63.353 12.6288 63.5518 12.5852C63.7526 12.5398 63.9543 12.5038 64.157 12.4773C64.4221 12.4432 64.6371 12.4176 64.8018 12.4006C64.9685 12.3816 65.0897 12.3504 65.1655 12.3068C65.2431 12.2633 65.282 12.1875 65.282 12.0795V12.0568C65.282 11.7765 65.2053 11.5587 65.0518 11.4034C64.9003 11.2481 64.6702 11.1705 64.3615 11.1705C64.0414 11.1705 63.7905 11.2405 63.6087 11.3807C63.4268 11.5208 63.299 11.6705 63.2251 11.8295L62.5888 11.6023C62.7024 11.3371 62.8539 11.1307 63.0433 10.983C63.2346 10.8333 63.4429 10.7292 63.6683 10.6705C63.8956 10.6098 64.1191 10.5795 64.3388 10.5795C64.4789 10.5795 64.6399 10.5966 64.8217 10.6307C65.0054 10.6629 65.1825 10.7301 65.353 10.8324C65.5253 10.9347 65.6683 11.089 65.782 11.2955C65.8956 11.5019 65.9524 11.7784 65.9524 12.125V15H65.282V14.4091H65.2479C65.2024 14.5038 65.1267 14.6051 65.0206 14.7131C64.9145 14.821 64.7734 14.9129 64.5973 14.9886C64.4212 15.0644 64.2062 15.1023 63.9524 15.1023ZM64.0547 14.5C64.3198 14.5 64.5433 14.4479 64.7251 14.3438C64.9089 14.2396 65.0471 14.1051 65.1399 13.9403C65.2346 13.7756 65.282 13.6023 65.282 13.4205V12.8068C65.2536 12.8409 65.1911 12.8722 65.0945 12.9006C64.9998 12.9271 64.8899 12.9508 64.7649 12.9716C64.6418 12.9905 64.5215 13.0076 64.4041 13.0227C64.2886 13.036 64.1948 13.0473 64.1229 13.0568C63.9486 13.0795 63.7857 13.1165 63.6342 13.1676C63.4846 13.2169 63.3634 13.2917 63.2706 13.392C63.1797 13.4905 63.1342 13.625 63.1342 13.7955C63.1342 14.0284 63.2204 14.2045 63.3928 14.3239C63.567 14.4413 63.7876 14.5 64.0547 14.5ZM64.0774 10.0455L64.7706 8.72727H65.5547L64.6683 10.0455H64.0774ZM67.1761 15V10.6364H67.8239V11.2955H67.8693C67.9489 11.0795 68.0928 10.9044 68.3011 10.7699C68.5095 10.6354 68.7443 10.5682 69.0057 10.5682C69.0549 10.5682 69.1165 10.5691 69.1903 10.571C69.2642 10.5729 69.3201 10.5758 69.358 10.5795V11.2614C69.3352 11.2557 69.2831 11.2472 69.2017 11.2358C69.1222 11.2225 69.0379 11.2159 68.9489 11.2159C68.7367 11.2159 68.5473 11.2604 68.3807 11.3494C68.2159 11.4366 68.0852 11.5578 67.9886 11.7131C67.8939 11.8665 67.8466 12.0417 67.8466 12.2386V15H67.1761ZM71.7812 16.7273C71.4574 16.7273 71.179 16.6856 70.946 16.6023C70.7131 16.5208 70.5189 16.4129 70.3636 16.2784C70.2102 16.1458 70.0881 16.0038 69.9972 15.8523L70.5312 15.4773C70.5919 15.5568 70.6686 15.6477 70.7614 15.75C70.8542 15.8542 70.9811 15.9441 71.142 16.0199C71.3049 16.0975 71.518 16.1364 71.7812 16.1364C72.1335 16.1364 72.4242 16.0511 72.6534 15.8807C72.8826 15.7102 72.9972 15.4432 72.9972 15.0795V14.1932H72.9403C72.8911 14.2727 72.821 14.3712 72.7301 14.4886C72.6411 14.6042 72.5123 14.7074 72.3438 14.7983C72.1771 14.8873 71.9517 14.9318 71.6676 14.9318C71.3153 14.9318 70.9991 14.8485 70.7188 14.6818C70.4403 14.5152 70.2197 14.2727 70.0568 13.9545C69.8958 13.6364 69.8153 13.25 69.8153 12.7955C69.8153 12.3485 69.8939 11.9593 70.0511 11.6278C70.2083 11.2945 70.4271 11.0369 70.7074 10.8551C70.9877 10.6714 71.3116 10.5795 71.679 10.5795C71.9631 10.5795 72.1884 10.6269 72.3551 10.7216C72.5237 10.8144 72.6525 10.9205 72.7415 11.0398C72.8324 11.1572 72.9025 11.2538 72.9517 11.3295H73.0199V10.6364H73.6676V15.125C73.6676 15.5 73.5824 15.8049 73.4119 16.0398C73.2434 16.2765 73.0161 16.4498 72.7301 16.5597C72.446 16.6714 72.1297 16.7273 71.7812 16.7273ZM71.7585 14.3295C72.0275 14.3295 72.2547 14.268 72.4403 14.1449C72.6259 14.0218 72.767 13.8447 72.8636 13.6136C72.9602 13.3826 73.0085 13.1061 73.0085 12.7841C73.0085 12.4697 72.9612 12.1922 72.8665 11.9517C72.7718 11.7112 72.6316 11.5227 72.446 11.3864C72.2604 11.25 72.0313 11.1818 71.7585 11.1818C71.4744 11.1818 71.2377 11.2538 71.0483 11.3977C70.8608 11.5417 70.7197 11.7348 70.625 11.9773C70.5322 12.2197 70.4858 12.4886 70.4858 12.7841C70.4858 13.0871 70.5331 13.3551 70.6278 13.5881C70.7244 13.8191 70.8665 14.0009 71.054 14.1335C71.2434 14.2642 71.4782 14.3295 71.7585 14.3295ZM76.179 15.1023C75.9025 15.1023 75.6515 15.0502 75.4261 14.946C75.2008 14.84 75.0218 14.6875 74.8892 14.4886C74.7566 14.2879 74.6903 14.0455 74.6903 13.7614C74.6903 13.5114 74.7396 13.3087 74.8381 13.1534C74.9366 12.9962 75.0682 12.8731 75.233 12.7841C75.3977 12.6951 75.5795 12.6288 75.7784 12.5852C75.9792 12.5398 76.1809 12.5038 76.3835 12.4773C76.6487 12.4432 76.8636 12.4176 77.0284 12.4006C77.1951 12.3816 77.3163 12.3504 77.392 12.3068C77.4697 12.2633 77.5085 12.1875 77.5085 12.0795V12.0568C77.5085 11.7765 77.4318 11.5587 77.2784 11.4034C77.1269 11.2481 76.8968 11.1705 76.5881 11.1705C76.268 11.1705 76.017 11.2405 75.8352 11.3807C75.6534 11.5208 75.5256 11.6705 75.4517 11.8295L74.8153 11.6023C74.929 11.3371 75.0805 11.1307 75.2699 10.983C75.4612 10.8333 75.6695 10.7292 75.8949 10.6705C76.1222 10.6098 76.3456 10.5795 76.5653 10.5795C76.7055 10.5795 76.8665 10.5966 77.0483 10.6307C77.232 10.6629 77.4091 10.7301 77.5795 10.8324C77.7519 10.9347 77.8949 11.089 78.0085 11.2955C78.1222 11.5019 78.179 11.7784 78.179 12.125V15H77.5085V14.4091H77.4744C77.429 14.5038 77.3532 14.6051 77.2472 14.7131C77.1411 14.821 77 14.9129 76.8239 14.9886C76.6477 15.0644 76.4328 15.1023 76.179 15.1023ZM76.2812 14.5C76.5464 14.5 76.7699 14.4479 76.9517 14.3438C77.1354 14.2396 77.2737 14.1051 77.3665 13.9403C77.4612 13.7756 77.5085 13.6023 77.5085 13.4205V12.8068C77.4801 12.8409 77.4176 12.8722 77.321 12.9006C77.2263 12.9271 77.1165 12.9508 76.9915 12.9716C76.8684 12.9905 76.7481 13.0076 76.6307 13.0227C76.5152 13.036 76.4214 13.0473 76.3494 13.0568C76.1752 13.0795 76.0123 13.1165 75.8608 13.1676C75.7112 13.2169 75.59 13.2917 75.4972 13.392C75.4063 13.4905 75.3608 13.625 75.3608 13.7955C75.3608 14.0284 75.447 14.2045 75.6193 14.3239C75.7936 14.4413 76.0142 14.5 76.2812 14.5ZM80.0732 9.18182V15H79.4027V9.18182H80.0732ZM82.5852 15.1023C82.3087 15.1023 82.0578 15.0502 81.8324 14.946C81.607 14.84 81.428 14.6875 81.2955 14.4886C81.1629 14.2879 81.0966 14.0455 81.0966 13.7614C81.0966 13.5114 81.1458 13.3087 81.2443 13.1534C81.3428 12.9962 81.4744 12.8731 81.6392 12.7841C81.804 12.6951 81.9858 12.6288 82.1847 12.5852C82.3854 12.5398 82.5871 12.5038 82.7898 12.4773C83.0549 12.4432 83.2699 12.4176 83.4347 12.4006C83.6013 12.3816 83.7225 12.3504 83.7983 12.3068C83.8759 12.2633 83.9148 12.1875 83.9148 12.0795V12.0568C83.9148 11.7765 83.8381 11.5587 83.6847 11.4034C83.5331 11.2481 83.303 11.1705 82.9943 11.1705C82.6742 11.1705 82.4233 11.2405 82.2415 11.3807C82.0597 11.5208 81.9318 11.6705 81.858 11.8295L81.2216 11.6023C81.3352 11.3371 81.4867 11.1307 81.6761 10.983C81.8674 10.8333 82.0758 10.7292 82.3011 10.6705C82.5284 10.6098 82.7519 10.5795 82.9716 10.5795C83.1117 10.5795 83.2727 10.5966 83.4545 10.6307C83.6383 10.6629 83.8153 10.7301 83.9858 10.8324C84.1581 10.9347 84.3011 11.089 84.4148 11.2955C84.5284 11.5019 84.5852 11.7784 84.5852 12.125V15H83.9148V14.4091H83.8807C83.8352 14.5038 83.7595 14.6051 83.6534 14.7131C83.5473 14.821 83.4063 14.9129 83.2301 14.9886C83.054 15.0644 82.839 15.1023 82.5852 15.1023ZM82.6875 14.5C82.9527 14.5 83.1761 14.4479 83.358 14.3438C83.5417 14.2396 83.6799 14.1051 83.7727 13.9403C83.8674 13.7756 83.9148 13.6023 83.9148 13.4205V12.8068C83.8864 12.8409 83.8239 12.8722 83.7273 12.9006C83.6326 12.9271 83.5227 12.9508 83.3977 12.9716C83.2746 12.9905 83.1544 13.0076 83.0369 13.0227C82.9214 13.036 82.8277 13.0473 82.7557 13.0568C82.5814 13.0795 82.4186 13.1165 82.267 13.1676C82.1174 13.2169 81.9962 13.2917 81.9034 13.392C81.8125 13.4905 81.767 13.625 81.767 13.7955C81.767 14.0284 81.8532 14.2045 82.0256 14.3239C82.1998 14.4413 82.4205 14.5 82.6875 14.5ZM89.8885 15.0909C89.468 15.0909 89.1054 14.9981 88.8004 14.8125C88.4974 14.625 88.2635 14.3636 88.0987 14.0284C87.9358 13.6913 87.8544 13.2992 87.8544 12.8523C87.8544 12.4053 87.9358 12.0114 88.0987 11.6705C88.2635 11.3277 88.4927 11.0606 88.7862 10.8693C89.0817 10.6761 89.4264 10.5795 89.8203 10.5795C90.0476 10.5795 90.272 10.6174 90.4936 10.6932C90.7152 10.7689 90.9169 10.892 91.0987 11.0625C91.2805 11.2311 91.4254 11.4545 91.5334 11.733C91.6413 12.0114 91.6953 12.3542 91.6953 12.7614V13.0455H88.3317V12.4659H91.0135C91.0135 12.2197 90.9643 12 90.8658 11.8068C90.7692 11.6136 90.6309 11.4612 90.451 11.3494C90.273 11.2377 90.0627 11.1818 89.8203 11.1818C89.5533 11.1818 89.3222 11.2481 89.1271 11.3807C88.9339 11.5114 88.7853 11.6818 88.6811 11.892C88.5769 12.1023 88.5249 12.3277 88.5249 12.5682V12.9545C88.5249 13.2841 88.5817 13.5634 88.6953 13.7926C88.8108 14.0199 88.9709 14.1932 89.1754 14.3125C89.38 14.4299 89.6177 14.4886 89.8885 14.4886C90.0646 14.4886 90.2237 14.464 90.3658 14.4148C90.5097 14.3636 90.6338 14.2879 90.7379 14.1875C90.8421 14.0852 90.9226 13.9583 90.9794 13.8068L91.6271 13.9886C91.5589 14.2083 91.4444 14.4015 91.2834 14.5682C91.1224 14.733 90.9235 14.8617 90.6868 14.9545C90.45 15.0455 90.1839 15.0909 89.8885 15.0909ZM93.3857 12.375V15H92.7152V10.6364H93.3629V11.3182H93.4197C93.522 11.0966 93.6773 10.9186 93.8857 10.7841C94.094 10.6477 94.3629 10.5795 94.6925 10.5795C94.9879 10.5795 95.2464 10.6402 95.468 10.7614C95.6896 10.8807 95.862 11.0625 95.9851 11.3068C96.1082 11.5492 96.1697 11.8561 96.1697 12.2273V15H95.4993V12.2727C95.4993 11.9299 95.4103 11.6629 95.2322 11.4716C95.0542 11.2784 94.8099 11.1818 94.4993 11.1818C94.2853 11.1818 94.094 11.2282 93.9254 11.321C93.7588 11.4138 93.6271 11.5492 93.5305 11.7273C93.4339 11.9053 93.3857 12.1212 93.3857 12.375Z" fill="white"/>
</g>
<defs>
<clipPath id="clip0_6_254">
<rect width="133.333" height="40" fill="white"/>
</clipPath>
</defs>
</svg>
