<svg width="120" height="40" viewBox="0 0 120 40" fill="none" xmlns="http://www.w3.org/2000/svg">
<g clip-path="url(#clip0_6_250)">
<path d="M110.135 -7.3291e-06H9.53468C9.16798 -7.3291e-06 8.80568 -7.32904e-06 8.43995 0.00199267C8.1338 0.00399267 7.83009 0.00980267 7.521 0.0146927C6.84951 0.0225945 6.17961 0.0816689 5.5171 0.191403C4.85552 0.303525 4.21467 0.514908 3.61622 0.818403C3.0185 1.12446 2.47235 1.52216 1.99757 1.99706C1.5203 2.47063 1.12246 3.01801 0.81935 3.61815C0.5154 4.2171 0.304641 4.85893 0.19435 5.52147C0.0830109 6.18318 0.0230984 6.85251 0.01515 7.52347C0.00587 7.83007 0.00489 8.13769 0 8.44433V31.5586C0.00489 31.8691 0.00587 32.1699 0.01515 32.4805C0.0231008 33.1514 0.0830134 33.8207 0.19435 34.4824C0.304336 35.1453 0.515108 35.7875 0.81935 36.3867C1.12233 36.9849 1.52022 37.5301 1.99757 38.001C2.47054 38.478 3.01705 38.876 3.61622 39.1797C4.21467 39.484 4.85545 39.6966 5.5171 39.8105C6.17972 39.9193 6.84956 39.9784 7.521 39.9873C7.83009 39.9941 8.1338 39.998 8.43995 39.998C8.80567 40 9.168 40 9.53468 40H110.135C110.494 40 110.859 40 111.219 39.998C111.523 39.998 111.836 39.9941 112.141 39.9873C112.811 39.9789 113.479 39.9198 114.141 39.8105C114.804 39.6958 115.448 39.4833 116.049 39.1797C116.647 38.8758 117.193 38.4778 117.666 38.001C118.142 37.5282 118.541 36.9834 118.848 36.3867C119.15 35.7871 119.358 35.1449 119.467 34.4824C119.578 33.8206 119.64 33.1515 119.652 32.4805C119.656 32.1699 119.656 31.8691 119.656 31.5586C119.664 31.1953 119.664 30.834 119.664 30.4648V9.53612C119.664 9.16991 119.664 8.80663 119.656 8.44433C119.656 8.13769 119.656 7.83007 119.652 7.52343C119.64 6.85242 119.578 6.18323 119.467 5.52143C119.358 4.85927 119.149 4.2175 118.848 3.61811C118.23 2.41519 117.252 1.43602 116.049 0.818313C115.448 0.51556 114.804 0.304233 114.141 0.191313C113.48 0.0810955 112.811 0.0220004 112.141 0.0145527C111.836 0.00967267 111.523 0.00381267 111.219 0.00186267C110.859 -0.000137329 110.494 -0.000137329 110.135 -0.000137329V-7.3291e-06Z" fill="#A6A6A6"/>
<path d="M8.44487 39.125C8.14019 39.125 7.84287 39.1211 7.54058 39.1143C6.91436 39.1061 6.2896 39.0516 5.67144 38.9512C5.09503 38.8519 4.53664 38.6673 4.0147 38.4033C3.49754 38.1415 3.02585 37.7983 2.6177 37.3867C2.20364 36.98 1.85891 36.5082 1.59719 35.9902C1.33258 35.4688 1.14945 34.9099 1.05419 34.333C0.951311 33.7131 0.895651 33.0863 0.887687 32.458C0.881347 32.2471 0.873047 31.5449 0.873047 31.5449V8.44434C0.873047 8.44434 0.881887 7.75293 0.887737 7.5498C0.895363 6.92248 0.950699 6.29665 1.05327 5.67773C1.14871 5.09925 1.33197 4.53875 1.59673 4.01563C1.85749 3.49794 2.2003 3.02586 2.61187 2.61768C3.02297 2.20562 3.49617 1.8606 4.01421 1.59521C4.53495 1.33209 5.09228 1.14873 5.66753 1.05127C6.28772 0.949836 6.91465 0.894996 7.54304 0.88721L8.44536 0.875H111.214L112.127 0.8877C112.75 0.895099 113.371 0.94945 113.985 1.05029C114.566 1.14898 115.13 1.33362 115.656 1.59814C116.694 2.13299 117.539 2.97916 118.071 4.01807C118.332 4.53758 118.512 5.09351 118.607 5.66699C118.71 6.29099 118.768 6.92174 118.78 7.5542C118.783 7.8374 118.783 8.1416 118.783 8.44434C118.791 8.81934 118.791 9.17627 118.791 9.53613V30.4648C118.791 30.8281 118.791 31.1826 118.783 31.54C118.783 31.8652 118.783 32.1631 118.779 32.4697C118.768 33.0909 118.711 33.7104 118.608 34.3232C118.515 34.9043 118.333 35.4675 118.068 35.9932C117.805 36.5056 117.462 36.9733 117.053 37.3789C116.644 37.7927 116.172 38.1379 115.653 38.4014C115.128 38.6674 114.566 38.8527 113.985 38.9512C113.367 39.0522 112.742 39.1067 112.116 39.1143C111.823 39.1211 111.517 39.125 111.219 39.125L110.135 39.127L8.44487 39.125Z" fill="black"/>
<path d="M24.7689 20.3007C24.7796 19.466 25.0013 18.6476 25.4134 17.9217C25.8254 17.1957 26.4143 16.5858 27.1254 16.1486C26.6737 15.5034 26.0777 14.9725 25.3849 14.598C24.6921 14.2234 23.9215 14.0156 23.1343 13.9909C21.455 13.8147 19.8271 14.9958 18.9714 14.9958C18.0991 14.9958 16.7816 14.0084 15.3629 14.0376C14.4452 14.0673 13.5509 14.3341 12.767 14.8122C11.9831 15.2902 11.3364 15.9632 10.89 16.7655C8.95595 20.1139 10.3985 25.035 12.2511 27.7416C13.178 29.0669 14.2613 30.5474 15.6788 30.4949C17.0658 30.4373 17.5839 29.6104 19.2582 29.6104C20.9169 29.6104 21.403 30.4949 22.8492 30.4615C24.3376 30.4373 25.2753 29.1302 26.1697 27.7923C26.8357 26.848 27.3481 25.8043 27.6881 24.6998C26.8234 24.3341 26.0855 23.7219 25.5664 22.9396C25.0472 22.1573 24.7699 21.2395 24.7689 20.3007Z" fill="white"/>
<path d="M22.0372 12.2109C22.8487 11.2367 23.2485 9.98449 23.1517 8.72026C21.9119 8.85048 20.7666 9.44304 19.9441 10.3799C19.542 10.8375 19.234 11.37 19.0378 11.9467C18.8415 12.5235 18.7609 13.1333 18.8004 13.7413C19.4206 13.7476 20.0341 13.6132 20.5947 13.3481C21.1554 13.0831 21.6486 12.6942 22.0372 12.2109Z" fill="white"/>
<path d="M42.3022 27.1396H37.5688L36.4321 30.4961H34.4272L38.9106 18.0781H40.9936L45.477 30.4961H43.438L42.3022 27.1396ZM38.0591 25.5908H41.8111L39.9615 20.1435H39.9097L38.0591 25.5908Z" fill="white"/>
<path d="M55.1597 25.9697C55.1597 28.7832 53.6538 30.5908 51.3814 30.5908C50.8057 30.6209 50.2332 30.4883 49.7294 30.2082C49.2256 29.928 48.8109 29.5117 48.5327 29.0068H48.4897V33.4912H46.6313V21.4424H48.4302V22.9482H48.4644C48.7553 22.4458 49.1771 22.0316 49.6847 21.7497C50.1923 21.4679 50.7669 21.3289 51.3472 21.3476C53.645 21.3477 55.1597 23.1641 55.1597 25.9697ZM53.2495 25.9697C53.2495 24.1367 52.3023 22.9316 50.857 22.9316C49.437 22.9316 48.482 24.1621 48.482 25.9697C48.482 27.7939 49.437 29.0156 50.857 29.0156C52.3023 29.0156 53.2495 27.8193 53.2495 25.9697Z" fill="white"/>
<path d="M65.1245 25.9697C65.1245 28.7832 63.6187 30.5908 61.3462 30.5908C60.7706 30.6209 60.1981 30.4883 59.6943 30.2082C59.1905 29.928 58.7758 29.5117 58.4976 29.0068H58.4546V33.4912H56.5962V21.4424H58.395V22.9482H58.4292C58.7201 22.4458 59.1419 22.0316 59.6495 21.7497C60.1571 21.4679 60.7317 21.3289 61.312 21.3477C63.6099 21.3477 65.1245 23.1641 65.1245 25.9697ZM63.2144 25.9697C63.2144 24.1367 62.2671 22.9316 60.8218 22.9316C59.4019 22.9316 58.4468 24.1621 58.4468 25.9697C58.4468 27.7939 59.4019 29.0156 60.8218 29.0156C62.2671 29.0156 63.2144 27.8193 63.2144 25.9697H63.2144Z" fill="white"/>
<path d="M71.7105 27.0361C71.8482 28.2676 73.0445 29.0761 74.6792 29.0761C76.2456 29.0761 77.3726 28.2675 77.3726 27.1572C77.3726 26.1933 76.6929 25.6162 75.0835 25.2207L73.4742 24.833C71.1939 24.2822 70.1353 23.2158 70.1353 21.4853C70.1353 19.3427 72.0025 17.871 74.6538 17.871C77.2778 17.871 79.0767 19.3427 79.1372 21.4853H77.2612C77.1489 20.246 76.1245 19.498 74.6274 19.498C73.1304 19.498 72.106 20.2548 72.106 21.3564C72.106 22.2343 72.7603 22.7509 74.3608 23.1464L75.729 23.4823C78.2769 24.0849 79.3355 25.1083 79.3355 26.9247C79.3355 29.248 77.4849 30.703 74.5415 30.703C71.7876 30.703 69.9282 29.2821 69.8081 27.036L71.7105 27.0361Z" fill="white"/>
<path d="M83.3462 19.2998V21.4424H85.0679V22.914H83.3462V27.9053C83.3462 28.6806 83.6909 29.042 84.4477 29.042C84.6521 29.0384 84.8562 29.0241 85.0591 28.999V30.4619C84.7188 30.5254 84.3729 30.5542 84.0268 30.5478C82.1938 30.5478 81.479 29.8593 81.479 28.1035V22.914H80.1626V21.4424H81.479V19.2998H83.3462Z" fill="white"/>
<path d="M86.0649 25.9697C86.0649 23.1211 87.7427 21.3311 90.3589 21.3311C92.9839 21.3311 94.6538 23.1211 94.6538 25.9697C94.6538 28.8262 92.9927 30.6084 90.3589 30.6084C87.726 30.6084 86.0649 28.8262 86.0649 25.9697ZM92.7602 25.9697C92.7602 24.0156 91.8647 22.8623 90.3589 22.8623C88.853 22.8623 87.9585 24.0244 87.9585 25.9697C87.9585 27.9316 88.853 29.0762 90.3589 29.0762C91.8647 29.0762 92.7602 27.9316 92.7602 25.9697H92.7602Z" fill="white"/>
<path d="M96.186 21.4424H97.9585V22.9834H98.0015C98.1214 22.5021 98.4034 22.0768 98.8 21.7789C99.1966 21.481 99.6836 21.3287 100.179 21.3476C100.393 21.3469 100.607 21.3701 100.816 21.417V23.1552C100.546 23.0726 100.264 23.0347 99.981 23.0429C99.711 23.032 99.4418 23.0796 99.192 23.1825C98.9421 23.2854 98.7175 23.4411 98.5335 23.639C98.3496 23.8369 98.2106 24.0722 98.1262 24.3289C98.0417 24.5856 98.0139 24.8575 98.0444 25.1259V30.4961H96.186L96.186 21.4424Z" fill="white"/>
<path d="M109.384 27.8369C109.134 29.4804 107.534 30.6084 105.486 30.6084C102.852 30.6084 101.217 28.8437 101.217 26.0127C101.217 23.1728 102.861 21.331 105.408 21.331C107.913 21.331 109.488 23.0517 109.488 25.7969V26.4336H103.093V26.5459C103.064 26.8791 103.105 27.2147 103.216 27.5306C103.326 27.8464 103.502 28.1352 103.732 28.3778C103.963 28.6203 104.242 28.8111 104.552 28.9374C104.861 29.0637 105.195 29.1226 105.529 29.1103C105.968 29.1515 106.409 29.0498 106.785 28.8203C107.162 28.5909 107.455 28.246 107.62 27.8369L109.384 27.8369ZM103.102 25.1347H107.628C107.645 24.8352 107.6 24.5353 107.495 24.2541C107.39 23.9729 107.229 23.7164 107.02 23.5006C106.812 23.2849 106.561 23.1145 106.283 23.0003C106.006 22.8861 105.708 22.8305 105.408 22.8369C105.105 22.8351 104.805 22.8932 104.525 23.008C104.245 23.1227 103.99 23.2918 103.776 23.5054C103.562 23.7191 103.392 23.973 103.276 24.2527C103.16 24.5323 103.101 24.8321 103.102 25.1348V25.1347Z" fill="white"/>
<path d="M38.5 15H36.7045V9.18182H38.5795C39.1439 9.18182 39.6269 9.2983 40.0284 9.53125C40.4299 9.76231 40.7377 10.0947 40.9517 10.5284C41.1657 10.9602 41.2727 11.4773 41.2727 12.0795C41.2727 12.6856 41.1648 13.2074 40.9489 13.6449C40.733 14.0805 40.4186 14.4157 40.0057 14.6506C39.5928 14.8835 39.0909 15 38.5 15ZM37.4091 14.375H38.4545C38.9356 14.375 39.3343 14.2822 39.6506 14.0966C39.9669 13.911 40.2027 13.6468 40.358 13.304C40.5133 12.9612 40.5909 12.553 40.5909 12.0795C40.5909 11.6098 40.5142 11.2055 40.3608 10.8665C40.2074 10.5256 39.9782 10.2642 39.6733 10.0824C39.3684 9.89867 38.9886 9.80682 38.5341 9.80682H37.4091V14.375ZM44.1932 15.0909C43.7727 15.0909 43.41 14.9981 43.1051 14.8125C42.8021 14.625 42.5682 14.3636 42.4034 14.0284C42.2405 13.6913 42.1591 13.2992 42.1591 12.8523C42.1591 12.4053 42.2405 12.0114 42.4034 11.6705C42.5682 11.3277 42.7973 11.0606 43.0909 10.8693C43.3864 10.6761 43.7311 10.5795 44.125 10.5795C44.3523 10.5795 44.5767 10.6174 44.7983 10.6932C45.0199 10.7689 45.2216 10.892 45.4034 11.0625C45.5852 11.2311 45.7301 11.4545 45.8381 11.733C45.946 12.0114 46 12.3542 46 12.7614V13.0455H42.6364V12.4659H45.3182C45.3182 12.2197 45.2689 12 45.1705 11.8068C45.0739 11.6136 44.9356 11.4612 44.7557 11.3494C44.5777 11.2377 44.3674 11.1818 44.125 11.1818C43.858 11.1818 43.6269 11.2481 43.4318 11.3807C43.2386 11.5114 43.09 11.6818 42.9858 11.892C42.8816 12.1023 42.8295 12.3277 42.8295 12.5682V12.9545C42.8295 13.2841 42.8864 13.5634 43 13.7926C43.1155 14.0199 43.2756 14.1932 43.4801 14.3125C43.6847 14.4299 43.9223 14.4886 44.1932 14.4886C44.3693 14.4886 44.5284 14.464 44.6705 14.4148C44.8144 14.3636 44.9384 14.2879 45.0426 14.1875C45.1468 14.0852 45.2273 13.9583 45.2841 13.8068L45.9318 13.9886C45.8636 14.2083 45.7491 14.4015 45.5881 14.5682C45.4271 14.733 45.2282 14.8617 44.9915 14.9545C44.7547 15.0455 44.4886 15.0909 44.1932 15.0909ZM50.1108 11.6136L49.5085 11.7841C49.4706 11.6837 49.4148 11.5862 49.3409 11.4915C49.2689 11.3949 49.1705 11.3153 49.0455 11.2528C48.9205 11.1903 48.7604 11.1591 48.5653 11.1591C48.2983 11.1591 48.0758 11.2206 47.8977 11.3438C47.7216 11.465 47.6335 11.6193 47.6335 11.8068C47.6335 11.9735 47.6941 12.1051 47.8153 12.2017C47.9366 12.2983 48.1259 12.3788 48.3835 12.4432L49.0312 12.6023C49.4214 12.697 49.7121 12.8419 49.9034 13.0369C50.0947 13.2301 50.1903 13.4792 50.1903 13.7841C50.1903 14.0341 50.1184 14.2576 49.9744 14.4545C49.8324 14.6515 49.6335 14.8068 49.3778 14.9205C49.1222 15.0341 48.8248 15.0909 48.4858 15.0909C48.0407 15.0909 47.6723 14.9943 47.3807 14.8011C47.089 14.608 46.9044 14.3258 46.8267 13.9545L47.4631 13.7955C47.5237 14.0303 47.6383 14.2064 47.8068 14.3239C47.9773 14.4413 48.1998 14.5 48.4744 14.5C48.7869 14.5 49.035 14.4337 49.2188 14.3011C49.4044 14.1667 49.4972 14.0057 49.4972 13.8182C49.4972 13.6667 49.4441 13.5398 49.3381 13.4375C49.232 13.3333 49.0691 13.2557 48.8494 13.2045L48.1222 13.0341C47.7225 12.9394 47.429 12.7926 47.2415 12.5938C47.0559 12.393 46.9631 12.142 46.9631 11.8409C46.9631 11.5947 47.0322 11.3769 47.1705 11.1875C47.3106 10.9981 47.5009 10.8494 47.7415 10.7415C47.9839 10.6335 48.2585 10.5795 48.5653 10.5795C48.9972 10.5795 49.3362 10.6742 49.5824 10.8636C49.8305 11.053 50.0066 11.303 50.1108 11.6136ZM52.9723 15.0909C52.5632 15.0909 52.2109 14.9943 51.9155 14.8011C51.62 14.608 51.3928 14.3419 51.2337 14.0028C51.0746 13.6638 50.995 13.2765 50.995 12.8409C50.995 12.3977 51.0765 12.0066 51.2393 11.6676C51.4041 11.3267 51.6333 11.0606 51.9268 10.8693C52.2223 10.6761 52.567 10.5795 52.9609 10.5795C53.2678 10.5795 53.5443 10.6364 53.7905 10.75C54.0367 10.8636 54.2384 11.0227 54.3956 11.2273C54.5528 11.4318 54.6503 11.6705 54.6882 11.9432H54.0178C53.9666 11.7443 53.853 11.5682 53.6768 11.4148C53.5026 11.2595 53.2678 11.1818 52.9723 11.1818C52.7109 11.1818 52.4818 11.25 52.2848 11.3864C52.0897 11.5208 51.9373 11.7112 51.8274 11.9574C51.7195 12.2017 51.6655 12.4886 51.6655 12.8182C51.6655 13.1553 51.7185 13.4489 51.8246 13.6989C51.9325 13.9489 52.084 14.143 52.2791 14.2812C52.4761 14.4195 52.7071 14.4886 52.9723 14.4886C53.1465 14.4886 53.3047 14.4583 53.4467 14.3977C53.5888 14.3371 53.709 14.25 53.8075 14.1364C53.906 14.0227 53.9761 13.8864 54.0178 13.7273H54.6882C54.6503 13.9848 54.5566 14.2169 54.407 14.4233C54.2592 14.6278 54.0632 14.7907 53.8189 14.9119C53.5765 15.0312 53.2943 15.0909 52.9723 15.0909ZM56.9524 15.1023C56.6759 15.1023 56.425 15.0502 56.1996 14.946C55.9742 14.84 55.7952 14.6875 55.6626 14.4886C55.5301 14.2879 55.4638 14.0455 55.4638 13.7614C55.4638 13.5114 55.513 13.3087 55.6115 13.1534C55.71 12.9962 55.8416 12.8731 56.0064 12.7841C56.1712 12.6951 56.353 12.6288 56.5518 12.5852C56.7526 12.5398 56.9543 12.5038 57.157 12.4773C57.4221 12.4432 57.6371 12.4176 57.8018 12.4006C57.9685 12.3816 58.0897 12.3504 58.1655 12.3068C58.2431 12.2633 58.282 12.1875 58.282 12.0795V12.0568C58.282 11.7765 58.2053 11.5587 58.0518 11.4034C57.9003 11.2481 57.6702 11.1705 57.3615 11.1705C57.0414 11.1705 56.7905 11.2405 56.6087 11.3807C56.4268 11.5208 56.299 11.6705 56.2251 11.8295L55.5888 11.6023C55.7024 11.3371 55.8539 11.1307 56.0433 10.983C56.2346 10.8333 56.4429 10.7292 56.6683 10.6705C56.8956 10.6098 57.1191 10.5795 57.3388 10.5795C57.4789 10.5795 57.6399 10.5966 57.8217 10.6307C58.0054 10.6629 58.1825 10.7301 58.353 10.8324C58.5253 10.9347 58.6683 11.089 58.782 11.2955C58.8956 11.5019 58.9524 11.7784 58.9524 12.125V15H58.282V14.4091H58.2479C58.2024 14.5038 58.1267 14.6051 58.0206 14.7131C57.9145 14.821 57.7734 14.9129 57.5973 14.9886C57.4212 15.0644 57.2062 15.1023 56.9524 15.1023ZM57.0547 14.5C57.3198 14.5 57.5433 14.4479 57.7251 14.3438C57.9089 14.2396 58.0471 14.1051 58.1399 13.9403C58.2346 13.7756 58.282 13.6023 58.282 13.4205V12.8068C58.2536 12.8409 58.1911 12.8722 58.0945 12.9006C57.9998 12.9271 57.8899 12.9508 57.7649 12.9716C57.6418 12.9905 57.5215 13.0076 57.4041 13.0227C57.2886 13.036 57.1948 13.0473 57.1229 13.0568C56.9486 13.0795 56.7857 13.1165 56.6342 13.1676C56.4846 13.2169 56.3634 13.2917 56.2706 13.392C56.1797 13.4905 56.1342 13.625 56.1342 13.7955C56.1342 14.0284 56.2204 14.2045 56.3928 14.3239C56.567 14.4413 56.7876 14.5 57.0547 14.5ZM57.0774 10.0455L57.7706 8.72727H58.5547L57.6683 10.0455H57.0774ZM60.1761 15V10.6364H60.8239V11.2955H60.8693C60.9489 11.0795 61.0928 10.9044 61.3011 10.7699C61.5095 10.6354 61.7443 10.5682 62.0057 10.5682C62.0549 10.5682 62.1165 10.5691 62.1903 10.571C62.2642 10.5729 62.3201 10.5758 62.358 10.5795V11.2614C62.3352 11.2557 62.2831 11.2472 62.2017 11.2358C62.1222 11.2225 62.0379 11.2159 61.9489 11.2159C61.7367 11.2159 61.5473 11.2604 61.3807 11.3494C61.2159 11.4366 61.0852 11.5578 60.9886 11.7131C60.8939 11.8665 60.8466 12.0417 60.8466 12.2386V15H60.1761ZM64.7812 16.7273C64.4574 16.7273 64.179 16.6856 63.946 16.6023C63.7131 16.5208 63.5189 16.4129 63.3636 16.2784C63.2102 16.1458 63.0881 16.0038 62.9972 15.8523L63.5312 15.4773C63.5919 15.5568 63.6686 15.6477 63.7614 15.75C63.8542 15.8542 63.9811 15.9441 64.142 16.0199C64.3049 16.0975 64.518 16.1364 64.7812 16.1364C65.1335 16.1364 65.4242 16.0511 65.6534 15.8807C65.8826 15.7102 65.9972 15.4432 65.9972 15.0795V14.1932H65.9403C65.8911 14.2727 65.821 14.3712 65.7301 14.4886C65.6411 14.6042 65.5123 14.7074 65.3438 14.7983C65.1771 14.8873 64.9517 14.9318 64.6676 14.9318C64.3153 14.9318 63.9991 14.8485 63.7188 14.6818C63.4403 14.5152 63.2197 14.2727 63.0568 13.9545C62.8958 13.6364 62.8153 13.25 62.8153 12.7955C62.8153 12.3485 62.8939 11.9593 63.0511 11.6278C63.2083 11.2945 63.4271 11.0369 63.7074 10.8551C63.9877 10.6714 64.3116 10.5795 64.679 10.5795C64.9631 10.5795 65.1884 10.6269 65.3551 10.7216C65.5237 10.8144 65.6525 10.9205 65.7415 11.0398C65.8324 11.1572 65.9025 11.2538 65.9517 11.3295H66.0199V10.6364H66.6676V15.125C66.6676 15.5 66.5824 15.8049 66.4119 16.0398C66.2434 16.2765 66.0161 16.4498 65.7301 16.5597C65.446 16.6714 65.1297 16.7273 64.7812 16.7273ZM64.7585 14.3295C65.0275 14.3295 65.2547 14.268 65.4403 14.1449C65.6259 14.0218 65.767 13.8447 65.8636 13.6136C65.9602 13.3826 66.0085 13.1061 66.0085 12.7841C66.0085 12.4697 65.9612 12.1922 65.8665 11.9517C65.7718 11.7112 65.6316 11.5227 65.446 11.3864C65.2604 11.25 65.0313 11.1818 64.7585 11.1818C64.4744 11.1818 64.2377 11.2538 64.0483 11.3977C63.8608 11.5417 63.7197 11.7348 63.625 11.9773C63.5322 12.2197 63.4858 12.4886 63.4858 12.7841C63.4858 13.0871 63.5331 13.3551 63.6278 13.5881C63.7244 13.8191 63.8665 14.0009 64.054 14.1335C64.2434 14.2642 64.4782 14.3295 64.7585 14.3295ZM69.179 15.1023C68.9025 15.1023 68.6515 15.0502 68.4261 14.946C68.2008 14.84 68.0218 14.6875 67.8892 14.4886C67.7566 14.2879 67.6903 14.0455 67.6903 13.7614C67.6903 13.5114 67.7396 13.3087 67.8381 13.1534C67.9366 12.9962 68.0682 12.8731 68.233 12.7841C68.3977 12.6951 68.5795 12.6288 68.7784 12.5852C68.9792 12.5398 69.1809 12.5038 69.3835 12.4773C69.6487 12.4432 69.8636 12.4176 70.0284 12.4006C70.1951 12.3816 70.3163 12.3504 70.392 12.3068C70.4697 12.2633 70.5085 12.1875 70.5085 12.0795V12.0568C70.5085 11.7765 70.4318 11.5587 70.2784 11.4034C70.1269 11.2481 69.8968 11.1705 69.5881 11.1705C69.268 11.1705 69.017 11.2405 68.8352 11.3807C68.6534 11.5208 68.5256 11.6705 68.4517 11.8295L67.8153 11.6023C67.929 11.3371 68.0805 11.1307 68.2699 10.983C68.4612 10.8333 68.6695 10.7292 68.8949 10.6705C69.1222 10.6098 69.3456 10.5795 69.5653 10.5795C69.7055 10.5795 69.8665 10.5966 70.0483 10.6307C70.232 10.6629 70.4091 10.7301 70.5795 10.8324C70.7519 10.9347 70.8949 11.089 71.0085 11.2955C71.1222 11.5019 71.179 11.7784 71.179 12.125V15H70.5085V14.4091H70.4744C70.429 14.5038 70.3532 14.6051 70.2472 14.7131C70.1411 14.821 70 14.9129 69.8239 14.9886C69.6477 15.0644 69.4328 15.1023 69.179 15.1023ZM69.2812 14.5C69.5464 14.5 69.7699 14.4479 69.9517 14.3438C70.1354 14.2396 70.2737 14.1051 70.3665 13.9403C70.4612 13.7756 70.5085 13.6023 70.5085 13.4205V12.8068C70.4801 12.8409 70.4176 12.8722 70.321 12.9006C70.2263 12.9271 70.1165 12.9508 69.9915 12.9716C69.8684 12.9905 69.7481 13.0076 69.6307 13.0227C69.5152 13.036 69.4214 13.0473 69.3494 13.0568C69.1752 13.0795 69.0123 13.1165 68.8608 13.1676C68.7112 13.2169 68.59 13.2917 68.4972 13.392C68.4063 13.4905 68.3608 13.625 68.3608 13.7955C68.3608 14.0284 68.447 14.2045 68.6193 14.3239C68.7936 14.4413 69.0142 14.5 69.2812 14.5ZM73.0732 9.18182V15H72.4027V9.18182H73.0732ZM75.5852 15.1023C75.3087 15.1023 75.0578 15.0502 74.8324 14.946C74.607 14.84 74.428 14.6875 74.2955 14.4886C74.1629 14.2879 74.0966 14.0455 74.0966 13.7614C74.0966 13.5114 74.1458 13.3087 74.2443 13.1534C74.3428 12.9962 74.4744 12.8731 74.6392 12.7841C74.804 12.6951 74.9858 12.6288 75.1847 12.5852C75.3854 12.5398 75.5871 12.5038 75.7898 12.4773C76.0549 12.4432 76.2699 12.4176 76.4347 12.4006C76.6013 12.3816 76.7225 12.3504 76.7983 12.3068C76.8759 12.2633 76.9148 12.1875 76.9148 12.0795V12.0568C76.9148 11.7765 76.8381 11.5587 76.6847 11.4034C76.5331 11.2481 76.303 11.1705 75.9943 11.1705C75.6742 11.1705 75.4233 11.2405 75.2415 11.3807C75.0597 11.5208 74.9318 11.6705 74.858 11.8295L74.2216 11.6023C74.3352 11.3371 74.4867 11.1307 74.6761 10.983C74.8674 10.8333 75.0758 10.7292 75.3011 10.6705C75.5284 10.6098 75.7519 10.5795 75.9716 10.5795C76.1117 10.5795 76.2727 10.5966 76.4545 10.6307C76.6383 10.6629 76.8153 10.7301 76.9858 10.8324C77.1581 10.9347 77.3011 11.089 77.4148 11.2955C77.5284 11.5019 77.5852 11.7784 77.5852 12.125V15H76.9148V14.4091H76.8807C76.8352 14.5038 76.7595 14.6051 76.6534 14.7131C76.5473 14.821 76.4063 14.9129 76.2301 14.9886C76.054 15.0644 75.839 15.1023 75.5852 15.1023ZM75.6875 14.5C75.9527 14.5 76.1761 14.4479 76.358 14.3438C76.5417 14.2396 76.6799 14.1051 76.7727 13.9403C76.8674 13.7756 76.9148 13.6023 76.9148 13.4205V12.8068C76.8864 12.8409 76.8239 12.8722 76.7273 12.9006C76.6326 12.9271 76.5227 12.9508 76.3977 12.9716C76.2746 12.9905 76.1544 13.0076 76.0369 13.0227C75.9214 13.036 75.8277 13.0473 75.7557 13.0568C75.5814 13.0795 75.4186 13.1165 75.267 13.1676C75.1174 13.2169 74.9962 13.2917 74.9034 13.392C74.8125 13.4905 74.767 13.625 74.767 13.7955C74.767 14.0284 74.8532 14.2045 75.0256 14.3239C75.1998 14.4413 75.4205 14.5 75.6875 14.5ZM82.8885 15.0909C82.468 15.0909 82.1054 14.9981 81.8004 14.8125C81.4974 14.625 81.2635 14.3636 81.0987 14.0284C80.9358 13.6913 80.8544 13.2992 80.8544 12.8523C80.8544 12.4053 80.9358 12.0114 81.0987 11.6705C81.2635 11.3277 81.4927 11.0606 81.7862 10.8693C82.0817 10.6761 82.4264 10.5795 82.8203 10.5795C83.0476 10.5795 83.272 10.6174 83.4936 10.6932C83.7152 10.7689 83.9169 10.892 84.0987 11.0625C84.2805 11.2311 84.4254 11.4545 84.5334 11.733C84.6413 12.0114 84.6953 12.3542 84.6953 12.7614V13.0455H81.3317V12.4659H84.0135C84.0135 12.2197 83.9643 12 83.8658 11.8068C83.7692 11.6136 83.6309 11.4612 83.451 11.3494C83.273 11.2377 83.0627 11.1818 82.8203 11.1818C82.5533 11.1818 82.3222 11.2481 82.1271 11.3807C81.9339 11.5114 81.7853 11.6818 81.6811 11.892C81.5769 12.1023 81.5249 12.3277 81.5249 12.5682V12.9545C81.5249 13.2841 81.5817 13.5634 81.6953 13.7926C81.8108 14.0199 81.9709 14.1932 82.1754 14.3125C82.38 14.4299 82.6177 14.4886 82.8885 14.4886C83.0646 14.4886 83.2237 14.464 83.3658 14.4148C83.5097 14.3636 83.6338 14.2879 83.7379 14.1875C83.8421 14.0852 83.9226 13.9583 83.9794 13.8068L84.6271 13.9886C84.5589 14.2083 84.4444 14.4015 84.2834 14.5682C84.1224 14.733 83.9235 14.8617 83.6868 14.9545C83.45 15.0455 83.1839 15.0909 82.8885 15.0909ZM86.3857 12.375V15H85.7152V10.6364H86.3629V11.3182H86.4197C86.522 11.0966 86.6773 10.9186 86.8857 10.7841C87.094 10.6477 87.3629 10.5795 87.6925 10.5795C87.9879 10.5795 88.2464 10.6402 88.468 10.7614C88.6896 10.8807 88.862 11.0625 88.9851 11.3068C89.1082 11.5492 89.1697 11.8561 89.1697 12.2273V15H88.4993V12.2727C88.4993 11.9299 88.4103 11.6629 88.2322 11.4716C88.0542 11.2784 87.8099 11.1818 87.4993 11.1818C87.2853 11.1818 87.094 11.2282 86.9254 11.321C86.7588 11.4138 86.6271 11.5492 86.5305 11.7273C86.4339 11.9053 86.3857 12.1212 86.3857 12.375Z" fill="white"/>
</g>
<defs>
<clipPath id="clip0_6_250">
<rect width="119.664" height="40" fill="white"/>
</clipPath>
</defs>
</svg>
