<svg id="Icon" xmlns="http://www.w3.org/2000/svg" viewBox="0 0 24 24"><defs><style>.cls-1{fill:#ff2846;}.cls-2{fill:#fff;}</style></defs><path class="cls-1" d="M4.54,15.69l6.83,6.2a1,1,0,0,0,1.34,0l6.75-6.11A23.68,23.68,0,0,1,12,17,22.62,22.62,0,0,1,4.54,15.69Z"/><path class="cls-1" d="M22,11.52a2,2,0,0,1-1.45,1.92A26.55,26.55,0,0,1,12,15,25.52,25.52,0,0,1,3.4,13.34,2,2,0,0,1,2,11.43v-6A2,2,0,0,1,3.44,3.55,26.56,26.56,0,0,1,12,2a26.44,26.44,0,0,1,8.57,1.56A2,2,0,0,1,22,5.48Z"/><path class="cls-2" d="M16.2,10.3h-.6a.6.6,0,0,1,0-1.2h.6a.6.6,0,0,0,.6-.6V6.1a.6.6,0,0,0-.6-.6H7.8a.6.6,0,0,0-.6.6V8.5a.6.6,0,0,0,.6.6h.6a.6.6,0,0,1,0,1.2H7.8A1.81,1.81,0,0,1,6,8.5V6.1A1.81,1.81,0,0,1,7.8,4.3h8.4A1.81,1.81,0,0,1,18,6.1V8.5A1.81,1.81,0,0,1,16.2,10.3Z"/><path class="cls-2" d="M11.61,9.17A.24.24,0,0,0,11.67,9c0-.15-.08-.22-.24-.22h-.32v.45h.32A.24.24,0,0,0,11.61,9.17Z"/><path class="cls-2" d="M11.48,9.49h-.37V10h.37a.23.23,0,0,0,.26-.26.24.24,0,0,0-.07-.19A.22.22,0,0,0,11.48,9.49Z"/><path class="cls-2" d="M14.4,6.12H9.6v6a.6.6,0,0,0,.6.6h3.6a.6.6,0,0,0,.6-.6Zm-2.49,4a.58.58,0,0,1-.43.15H11a.16.16,0,0,1-.11,0,.15.15,0,0,1,0-.11V8.65a.13.13,0,0,1,0-.1A.16.16,0,0,1,11,8.5h.48a.62.62,0,0,1,.25,0,.35.35,0,0,1,.17.1.34.34,0,0,1,.09.15A.47.47,0,0,1,12,9a.43.43,0,0,1-.05.23.38.38,0,0,1-.14.14.35.35,0,0,1,.21.16.42.42,0,0,1,.07.26A.5.5,0,0,1,11.91,10.14Zm1.15.08a.61.61,0,0,1-.35.1.67.67,0,0,1-.28-.06.44.44,0,0,1-.18-.13.1.1,0,0,1,0-.08.13.13,0,0,1,0-.09.12.12,0,0,1,.09,0,.11.11,0,0,1,.08,0,.48.48,0,0,0,.3.11c.13,0,.19,0,.19-.11a.19.19,0,0,0,0-.07l-.08,0-.1,0-.12,0-.12,0-.1-.07a.2.2,0,0,1-.08-.1.32.32,0,0,1,0-.14.3.3,0,0,1,.13-.26.53.53,0,0,1,.32-.09.69.69,0,0,1,.25,0,.41.41,0,0,1,.18.12.19.19,0,0,1,0,.07.1.1,0,0,1,0,.09.09.09,0,0,1-.08,0l-.1,0a.35.35,0,0,0-.23-.09.21.21,0,0,0-.12,0,.07.07,0,0,0,0,.07.08.08,0,0,0,0,.07.19.19,0,0,0,.09,0l.13,0,.14,0,.12.07a.24.24,0,0,1,.09.11.27.27,0,0,1,0,.16A.34.34,0,0,1,13.06,10.22Z"/></svg>