<svg width="2133" height="1001" viewBox="0 0 2133 1001" fill="none" xmlns="http://www.w3.org/2000/svg">
<g clip-path="url(#clip0_1357_6474)">
<rect width="2133" height="1000" transform="translate(0 0.5)" fill="white"/>
<g clip-path="url(#clip1_1357_6474)">
<rect width="2133" height="1000" transform="translate(0 0.5)" fill="url(#paint0_linear_1357_6474)"/>
<g opacity="0.1" filter="url(#filter0_f_1357_6474)">
<circle cx="960.8" cy="503.698" r="322.012" stroke="url(#paint1_linear_1357_6474)" stroke-width="51.2"/>
<circle cx="960.801" cy="503.696" r="443.467" stroke="url(#paint2_linear_1357_6474)" stroke-width="51.2"/>
<circle cx="960.8" cy="503.697" r="573.298" stroke="url(#paint3_linear_1357_6474)" stroke-width="51.2"/>
<circle cx="960.8" cy="503.696" r="705.223" stroke="url(#paint4_linear_1357_6474)" stroke-width="51.2"/>
<circle cx="960.799" cy="503.698" r="839.242" stroke="url(#paint5_linear_1357_6474)" stroke-width="51.2"/>
<circle cx="960.799" cy="503.701" r="978.465" stroke="url(#paint6_linear_1357_6474)" stroke-width="51.2"/>
<circle cx="960.8" cy="503.698" r="1119.2" stroke="url(#paint7_linear_1357_6474)" stroke-width="51.2"/>
</g>
</g>
<g clip-path="url(#clip2_1357_6474)">
<path d="M1154.95 432.088L1176.33 420.5C1223.2 395.118 1263.14 326.507 1270.98 277.055L1249.59 288.643C1241.75 338.095 1201.8 406.718 1154.95 432.088Z" fill="#008C7B"/>
<path d="M1270.98 277.055C1317.17 314.431 1410.75 347.767 1464.01 330.838C1466.17 330.153 1468.26 329.387 1470.28 328.527C1474.74 342.507 1559.49 608.091 1448.65 713.777C1287.03 694.642 1161.02 442.178 1154.39 428.883C1156.56 428.407 1158.73 427.815 1160.88 427.13C1214.15 410.201 1262.28 331.848 1270.98 277.032V277.055ZM1435.82 682.229C1507.2 605.572 1475.36 436.466 1457.56 364.696C1406.89 371.315 1337.23 349.207 1287.96 318.786C1271.89 369.968 1234.11 426.213 1190.27 449.621C1228.21 514.888 1325.55 663.28 1435.82 682.229Z" fill="#10CBB4"/>
<path d="M1287.96 318.797C1271.89 369.98 1234.11 426.224 1190.27 449.633C1228.21 514.899 1325.55 663.291 1435.82 682.241C1507.2 605.583 1475.36 436.477 1457.56 364.708C1406.89 371.326 1337.23 349.219 1287.96 318.797Z" fill="#12DEC4"/>
<path d="M1154.39 428.907L1133 440.495C1139.63 453.778 1265.65 706.253 1427.26 725.388L1448.66 713.8C1287.05 694.665 1161.03 442.202 1154.4 428.907H1154.39Z" fill="#008C7B"/>
<path d="M1416.57 422.544C1419.29 422.323 1422.21 423.647 1424.74 426.596C1429.87 432.553 1431.58 442.991 1428.58 450.19L1376.27 573.606C1374.28 578.355 1371.05 581.49 1367.56 582.605C1364.28 583.65 1360.66 582.918 1357.52 580.143L1300 529.123C1292.59 522.47 1290.55 509.106 1295.57 499.608C1298.15 494.661 1302.05 491.747 1306.19 491.062C1309.93 490.446 1313.88 491.642 1317.26 494.801L1360.64 535.51L1409.43 428.384C1411.09 424.75 1413.7 422.788 1416.56 422.555L1416.57 422.544Z" fill="white"/>
</g>
<g clip-path="url(#clip3_1357_6474)">
<path d="M1772.49 320.539C1771.33 320.632 1770.17 320.759 1768.99 320.899C1768.61 320.945 1768.22 321.015 1767.83 321.061C1767.04 321.166 1766.27 321.282 1765.48 321.409C1765.01 321.491 1764.54 321.572 1764.07 321.665C1763.36 321.793 1762.64 321.92 1761.93 322.071C1761.44 322.176 1760.92 322.292 1760.43 322.396C1759.95 322.501 1759.49 322.594 1759.01 322.698C1758.86 322.733 1758.7 322.78 1758.54 322.814C1756.99 323.186 1755.43 323.581 1753.88 324.034C1753.66 324.103 1753.44 324.173 1753.2 324.231C1751.84 324.626 1750.47 325.055 1749.12 325.52C1748.9 325.59 1748.67 325.648 1748.45 325.729C1748.2 325.822 1747.93 325.915 1747.68 326.008C1746.83 326.298 1745.98 326.611 1745.15 326.925C1744.63 327.111 1744.12 327.308 1743.61 327.505C1742.71 327.854 1741.8 328.225 1740.9 328.597C1740.55 328.736 1740.21 328.864 1739.86 329.015C1739.77 329.061 1739.66 329.108 1739.57 329.143C1738.76 329.491 1737.95 329.862 1737.13 330.222C1736.67 330.431 1736.22 330.629 1735.75 330.838C1734.74 331.302 1733.74 331.79 1732.74 332.289C1732.5 332.405 1732.26 332.521 1732.01 332.649C1732 332.649 1731.98 332.661 1731.97 332.672C1730.74 333.288 1729.52 333.926 1728.3 334.577C1728.16 334.646 1728.03 334.728 1727.89 334.809C1726.81 335.389 1725.74 335.993 1724.67 336.609C1724.65 336.609 1724.64 336.632 1724.62 336.643C1724.23 336.864 1723.86 337.096 1723.48 337.328C1722.68 337.793 1721.89 338.269 1721.1 338.757C1720.62 339.047 1720.16 339.349 1719.68 339.651C1718.97 340.092 1718.27 340.533 1717.57 340.998C1717.51 341.032 1717.45 341.067 1717.41 341.102C1717.02 341.346 1716.65 341.613 1716.28 341.868C1715.52 342.368 1714.78 342.879 1714.04 343.39C1713.56 343.726 1713.1 344.063 1712.62 344.4C1711.94 344.887 1711.25 345.375 1710.58 345.874C1710.45 345.967 1710.32 346.06 1710.2 346.153C1709.88 346.385 1709.58 346.629 1709.28 346.861C1708.51 347.442 1707.75 348.034 1706.98 348.626C1706.53 348.986 1706.07 349.346 1705.62 349.718C1704.9 350.298 1704.18 350.89 1703.47 351.483C1703.23 351.692 1702.96 351.889 1702.72 352.11C1702.54 352.249 1702.39 352.4 1702.22 352.551C1701.12 353.503 1700.02 354.467 1698.96 355.442C1698.79 355.581 1698.63 355.721 1698.48 355.872C1697.27 356.986 1696.09 358.124 1694.93 359.274C1694.81 359.39 1694.69 359.494 1694.58 359.599C1694.28 359.901 1693.99 360.214 1693.68 360.516C1693.15 361.062 1692.62 361.608 1692.09 362.153C1691.66 362.606 1691.25 363.059 1690.83 363.512C1690.32 364.069 1689.82 364.615 1689.32 365.172C1688.9 365.637 1688.49 366.101 1688.1 366.577C1687.61 367.135 1687.14 367.692 1686.67 368.261C1686.28 368.737 1685.88 369.213 1685.5 369.689C1685.05 370.258 1684.59 370.827 1684.14 371.396C1683.94 371.651 1683.73 371.907 1683.54 372.162C1683.4 372.336 1683.28 372.522 1683.14 372.696C1682.34 373.753 1681.56 374.833 1680.81 375.901C1680.66 376.122 1680.49 376.331 1680.35 376.54C1679.48 377.817 1678.65 379.106 1677.83 380.395C1677.63 380.731 1677.42 381.08 1677.22 381.428C1676.62 382.427 1676.03 383.437 1675.47 384.447C1675.26 384.83 1675.04 385.213 1674.84 385.585C1674.13 386.909 1673.45 388.244 1672.82 389.579L1651.65 434.677L1689.56 489.749L1710.73 444.651C1711.36 443.316 1712.04 441.981 1712.75 440.657C1712.96 440.274 1713.17 439.891 1713.38 439.519C1713.93 438.509 1714.53 437.499 1715.13 436.5C1715.34 436.152 1715.54 435.815 1715.75 435.467C1716.55 434.166 1717.38 432.877 1718.27 431.612C1718.42 431.391 1718.57 431.182 1718.72 430.973C1719.47 429.893 1720.25 428.825 1721.05 427.768C1721.38 427.327 1721.71 426.898 1722.05 426.468C1722.49 425.899 1722.94 425.318 1723.41 424.761C1723.79 424.285 1724.19 423.809 1724.58 423.333C1725.05 422.764 1725.53 422.207 1726.01 421.649C1726.42 421.185 1726.82 420.72 1727.23 420.256C1727.73 419.699 1728.23 419.141 1728.74 418.596C1729.16 418.143 1729.57 417.69 1730 417.237C1730.53 416.691 1731.06 416.146 1731.59 415.6C1732 415.182 1732.42 414.764 1732.84 414.346C1734 413.196 1735.18 412.058 1736.39 410.944C1736.55 410.804 1736.72 410.654 1736.87 410.514C1737.93 409.539 1739.03 408.575 1740.13 407.623C1740.55 407.263 1740.97 406.915 1741.38 406.566C1742.09 405.974 1742.81 405.382 1743.53 404.801C1743.98 404.441 1744.44 404.07 1744.89 403.71C1745.64 403.118 1746.41 402.526 1747.19 401.945C1747.62 401.62 1748.05 401.283 1748.49 400.958C1749.16 400.459 1749.85 399.971 1750.53 399.483C1751.01 399.147 1751.47 398.798 1751.95 398.473C1752.69 397.951 1753.45 397.452 1754.19 396.952C1754.62 396.662 1755.05 396.372 1755.49 396.081C1756.19 395.629 1756.9 395.176 1757.6 394.734C1758.08 394.433 1758.54 394.131 1759.02 393.84C1759.81 393.353 1760.61 392.888 1761.4 392.424C1761.81 392.192 1762.2 391.948 1762.6 391.716C1763.67 391.1 1764.73 390.508 1765.81 389.916C1765.95 389.846 1766.08 389.765 1766.22 389.684C1767.44 389.033 1768.66 388.395 1769.89 387.779C1770.14 387.652 1770.41 387.524 1770.67 387.396C1771.67 386.909 1772.66 386.421 1773.66 385.945C1774.13 385.736 1774.58 385.538 1775.04 385.329C1775.86 384.969 1776.66 384.598 1777.47 384.25C1777.91 384.064 1778.35 383.89 1778.81 383.704C1779.71 383.332 1780.62 382.961 1781.52 382.612C1782.03 382.415 1782.54 382.229 1783.06 382.032C1783.9 381.718 1784.74 381.405 1785.59 381.114C1786.06 380.952 1786.55 380.789 1787.03 380.627C1788.39 380.174 1789.76 379.744 1791.11 379.338C1791.33 379.268 1791.56 379.199 1791.79 379.141C1793.34 378.699 1794.9 378.293 1796.46 377.921C1797.08 377.77 1797.71 377.631 1798.34 377.492C1798.84 377.387 1799.35 377.271 1799.85 377.167C1800.57 377.027 1801.27 376.888 1801.99 376.76C1802.46 376.679 1802.93 376.586 1803.4 376.505C1804.19 376.377 1804.98 376.261 1805.77 376.156C1806.15 376.098 1806.55 376.04 1806.93 375.994C1808.1 375.843 1809.26 375.727 1810.42 375.634C1817.72 375.03 1824.26 375.471 1830 376.795C1831.92 377.236 1833.73 377.782 1835.46 378.421C1838.05 379.373 1840.42 380.546 1842.56 381.916C1846.14 384.191 1849.09 387.025 1851.35 390.322L1813.44 335.25C1806.19 324.707 1791.95 318.959 1772.52 320.562L1772.49 320.539Z" fill="#8B3D99"/>
<path d="M1856.38 305.653C1857.07 306.652 1857.7 307.673 1858.32 308.73C1858.4 308.858 1858.47 308.997 1858.54 309.125C1859.1 310.112 1859.63 311.122 1860.12 312.155C1860.18 312.271 1860.22 312.399 1860.28 312.515C1860.62 313.247 1860.92 313.99 1861.22 314.745C1861.48 315.383 1861.73 316.033 1861.97 316.684C1862.17 317.276 1862.37 317.88 1862.57 318.483C1862.78 319.157 1862.98 319.83 1863.16 320.515C1863.42 321.479 1863.68 322.443 1863.89 323.441C1863.89 323.441 1863.89 323.453 1863.89 323.465C1864.16 324.719 1864.37 325.984 1864.54 327.285C1864.56 327.378 1864.58 327.482 1864.59 327.575C1864.75 328.794 1864.87 330.025 1864.95 331.279C1864.96 331.476 1864.98 331.685 1865 331.883C1865.07 333.114 1865.1 334.356 1865.1 335.622C1865.1 335.854 1865.1 336.098 1865.1 336.33C1865.09 337.607 1865.04 338.884 1864.96 340.196C1864.95 340.429 1864.93 340.661 1864.9 340.893C1864.82 342.031 1864.71 343.192 1864.56 344.353C1864.52 344.678 1864.47 345.004 1864.44 345.329C1864.25 346.687 1864.04 348.046 1863.78 349.427C1863.73 349.66 1863.68 349.903 1863.64 350.136C1863.43 351.192 1863.19 352.261 1862.93 353.34C1862.73 354.188 1862.51 355.036 1862.29 355.883C1862.08 356.673 1861.86 357.474 1861.63 358.275C1861.37 359.134 1861.11 360.005 1860.82 360.876C1860.56 361.689 1860.29 362.502 1860 363.314C1859.69 364.197 1859.36 365.079 1859.03 365.973C1858.71 366.798 1858.4 367.622 1858.06 368.458C1857.7 369.352 1857.31 370.258 1856.92 371.175C1856.43 372.313 1855.94 373.451 1855.41 374.601L1834.24 419.699L1872.15 474.771L1893.32 429.673C1893.59 429.081 1893.86 428.488 1894.13 427.908C1894.38 427.35 1894.59 426.805 1894.83 426.247C1895.22 425.342 1895.62 424.436 1895.98 423.53C1896.31 422.694 1896.63 421.87 1896.94 421.046C1897.28 420.151 1897.61 419.269 1897.91 418.387C1898.2 417.574 1898.46 416.761 1898.73 415.948C1899.01 415.077 1899.28 414.207 1899.54 413.347C1899.77 412.546 1899.99 411.745 1900.2 410.955C1900.42 410.108 1900.64 409.26 1900.84 408.413C1900.92 408.076 1901.03 407.727 1901.1 407.379C1901.26 406.648 1901.4 405.928 1901.54 405.208C1901.58 404.976 1901.64 404.732 1901.68 404.5C1901.93 403.118 1902.15 401.748 1902.34 400.389C1902.38 400.064 1902.42 399.751 1902.45 399.425C1902.59 398.253 1902.71 397.103 1902.8 395.954C1902.81 395.721 1902.85 395.489 1902.86 395.257C1902.86 395.152 1902.88 395.048 1902.88 394.943C1902.95 393.748 1902.99 392.563 1903 391.39C1903 391.158 1903 390.914 1903 390.682C1903 389.417 1902.97 388.174 1902.9 386.943C1902.88 386.734 1902.86 386.537 1902.85 386.328C1902.81 385.887 1902.79 385.434 1902.76 385.004C1902.69 384.203 1902.59 383.414 1902.49 382.624C1902.48 382.531 1902.45 382.427 1902.44 382.334C1902.27 381.045 1902.05 379.768 1901.78 378.514C1901.78 378.514 1901.78 378.514 1901.78 378.502C1901.63 377.805 1901.48 377.12 1901.3 376.447C1901.24 376.156 1901.13 375.866 1901.05 375.576C1900.86 374.891 1900.67 374.217 1900.46 373.556C1900.27 372.952 1900.07 372.348 1899.85 371.756C1899.62 371.106 1899.37 370.455 1899.11 369.817C1898.97 369.48 1898.85 369.12 1898.72 368.783C1898.54 368.377 1898.36 367.994 1898.17 367.599C1898.11 367.483 1898.07 367.355 1898.01 367.239C1897.52 366.206 1896.99 365.195 1896.43 364.209C1896.35 364.069 1896.28 363.941 1896.2 363.802C1895.79 363.105 1895.37 362.42 1894.94 361.735C1894.72 361.399 1894.5 361.062 1894.27 360.725L1856.36 305.653H1856.38Z" fill="#8B3D99"/>
<path d="M1790.57 282.024C1728.46 287.133 1656.5 336.969 1630.17 393.097L1609 438.195L1651.62 434.689L1672.78 389.591C1689.16 354.687 1733.89 323.708 1772.5 320.539C1811.11 317.357 1829.2 343.169 1812.83 378.072L1791.66 423.17L1834.26 419.664L1855.43 374.566C1881.76 318.425 1852.68 276.904 1790.58 282.013L1790.57 282.024Z" fill="#BD77C7"/>
<path d="M1698.4 478.463C1697.27 478.556 1696.13 478.707 1695 478.893C1694.61 478.951 1694.23 479.044 1693.85 479.125C1693.18 479.253 1692.52 479.357 1691.85 479.52C1691.73 479.543 1691.62 479.578 1691.51 479.613C1691.27 479.671 1691.01 479.74 1690.77 479.81C1689.92 480.031 1689.06 480.275 1688.22 480.542C1687.93 480.634 1687.63 480.716 1687.34 480.82C1687.15 480.89 1686.95 480.936 1686.75 481.006C1686.42 481.122 1686.07 481.273 1685.73 481.401C1684.91 481.703 1684.08 482.005 1683.26 482.341C1683.04 482.434 1682.82 482.504 1682.6 482.597C1682.28 482.736 1681.97 482.899 1681.64 483.038C1680.97 483.34 1680.3 483.642 1679.62 483.967C1679.36 484.095 1679.08 484.211 1678.81 484.338C1678.52 484.489 1678.24 484.652 1677.95 484.803C1677.34 485.128 1676.73 485.453 1676.12 485.79C1675.83 485.952 1675.52 486.092 1675.25 486.266C1674.98 486.417 1674.72 486.591 1674.46 486.754C1673.85 487.114 1673.26 487.473 1672.67 487.857C1672.37 488.042 1672.06 488.217 1671.76 488.414C1671.53 488.565 1671.31 488.739 1671.08 488.902C1670.45 489.32 1669.83 489.761 1669.22 490.202C1668.92 490.423 1668.59 490.62 1668.29 490.852C1668.12 490.98 1667.94 491.131 1667.77 491.27C1667.02 491.839 1666.29 492.42 1665.57 493.024C1665.28 493.267 1664.98 493.488 1664.69 493.732C1664.55 493.848 1664.42 493.976 1664.28 494.092C1664.08 494.278 1663.87 494.463 1663.66 494.649C1662.93 495.288 1662.22 495.95 1661.53 496.612C1661.36 496.774 1661.18 496.937 1661.02 497.099C1660.94 497.18 1660.85 497.262 1660.78 497.343C1660.45 497.668 1660.16 498.005 1659.84 498.342C1659.29 498.899 1658.76 499.468 1658.24 500.037C1657.85 500.466 1657.5 500.896 1657.14 501.326C1656.67 501.895 1656.19 502.452 1655.74 503.033C1655.65 503.16 1655.53 503.276 1655.44 503.404C1654.89 504.112 1654.38 504.832 1653.88 505.564C1653.81 505.668 1653.74 505.773 1653.67 505.877C1653.13 506.678 1652.62 507.503 1652.14 508.316C1652 508.559 1651.86 508.803 1651.72 509.047C1651.2 509.976 1650.7 510.905 1650.26 511.845C1650.17 512.043 1650.08 512.229 1649.99 512.426C1649.92 512.589 1649.86 512.74 1649.79 512.902C1649.68 513.169 1649.56 513.448 1649.46 513.715C1649.35 513.97 1649.26 514.214 1649.17 514.47C1649.06 514.737 1648.97 515.004 1648.88 515.259C1648.8 515.503 1648.71 515.747 1648.63 515.991C1648.55 516.246 1648.47 516.513 1648.39 516.769C1648.32 517.013 1648.25 517.256 1648.19 517.489C1648.12 517.744 1648.06 517.999 1648.01 518.243C1647.98 518.348 1647.95 518.464 1647.92 518.568C1647.9 518.661 1647.89 518.754 1647.88 518.847C1647.79 519.288 1647.7 519.718 1647.65 520.148C1647.62 520.287 1647.6 520.438 1647.58 520.577C1647.49 521.134 1647.45 521.68 1647.41 522.214C1647.41 522.238 1647.41 522.261 1647.41 522.284C1647.41 522.412 1647.41 522.528 1647.41 522.656C1647.4 522.981 1647.39 523.306 1647.39 523.631C1647.39 523.805 1647.39 523.991 1647.4 524.165C1647.4 524.455 1647.43 524.734 1647.45 525.024C1647.45 525.106 1647.45 525.187 1647.46 525.256C1647.46 525.373 1647.49 525.477 1647.51 525.593C1647.53 525.825 1647.56 526.058 1647.6 526.29C1647.63 526.476 1647.66 526.673 1647.69 526.859C1647.74 527.079 1647.79 527.3 1647.83 527.521C1647.85 527.614 1647.87 527.718 1647.89 527.823C1647.91 527.915 1647.95 527.997 1647.97 528.078C1648.03 528.287 1648.09 528.484 1648.14 528.682C1648.2 528.868 1648.26 529.042 1648.32 529.216C1648.39 529.413 1648.47 529.611 1648.54 529.796C1648.59 529.901 1648.62 530.005 1648.66 530.11C1648.69 530.18 1648.73 530.249 1648.75 530.307C1648.83 530.505 1648.92 530.691 1649.03 530.876C1649.11 531.039 1649.19 531.201 1649.28 531.364C1649.39 531.55 1649.49 531.724 1649.61 531.91C1649.67 532.014 1649.72 532.119 1649.79 532.223C1649.86 532.328 1649.93 532.432 1650 532.525L1654.07 538.435L1633.97 581.281C1633.92 581.374 1633.89 581.455 1633.85 581.548C1633.76 581.757 1633.69 581.954 1633.61 582.152C1633.49 582.43 1633.38 582.697 1633.28 582.964C1633.2 583.208 1633.13 583.44 1633.06 583.673C1632.98 583.928 1632.9 584.195 1632.84 584.451C1632.83 584.497 1632.81 584.555 1632.79 584.602C1632.77 584.706 1632.77 584.811 1632.75 584.915C1632.67 585.356 1632.6 585.774 1632.56 586.192C1632.56 586.285 1632.53 586.378 1632.53 586.471C1632.53 586.564 1632.53 586.645 1632.53 586.738C1632.53 587.04 1632.53 587.319 1632.53 587.609C1632.53 587.725 1632.53 587.853 1632.53 587.969C1632.53 588.027 1632.55 588.085 1632.56 588.143C1632.59 588.387 1632.63 588.619 1632.68 588.851C1632.7 588.979 1632.71 589.13 1632.75 589.258C1632.75 589.304 1632.78 589.339 1632.79 589.385C1632.85 589.594 1632.93 589.803 1633 590.001C1633.05 590.14 1633.09 590.279 1633.14 590.407C1633.15 590.442 1633.18 590.477 1633.2 590.512C1633.29 590.721 1633.41 590.906 1633.51 591.104C1633.58 591.22 1633.64 591.359 1633.71 591.475C1633.75 591.522 1633.78 591.58 1633.82 591.626L1671.73 646.699C1671.61 646.536 1671.53 646.35 1671.43 646.176C1671.32 645.979 1671.2 645.793 1671.11 645.584C1671.04 645.421 1670.98 645.247 1670.91 645.073C1670.84 644.876 1670.76 644.667 1670.71 644.458C1670.66 644.283 1670.62 644.098 1670.59 643.923C1670.54 643.691 1670.5 643.459 1670.47 643.215C1670.45 643.041 1670.45 642.855 1670.44 642.681C1670.43 642.402 1670.42 642.112 1670.44 641.81C1670.44 641.636 1670.46 641.45 1670.47 641.276C1670.51 640.858 1670.58 640.428 1670.66 639.999C1670.69 639.848 1670.71 639.697 1670.75 639.534C1670.81 639.279 1670.89 639.012 1670.97 638.756C1671.04 638.524 1671.1 638.28 1671.19 638.048C1671.29 637.781 1671.4 637.502 1671.52 637.235C1671.63 636.945 1671.74 636.666 1671.88 636.365L1692.7 591.998L1685.54 581.606C1685.53 581.525 1685.52 581.455 1685.51 581.374C1685.48 581.141 1685.45 580.921 1685.42 580.689C1685.39 580.503 1685.37 580.305 1685.36 580.108C1685.34 579.829 1685.32 579.539 1685.31 579.26C1685.31 579.086 1685.3 578.912 1685.3 578.726C1685.3 578.413 1685.3 578.088 1685.32 577.763C1685.32 577.612 1685.32 577.461 1685.34 577.31C1685.37 576.776 1685.43 576.23 1685.5 575.672C1685.52 575.533 1685.54 575.382 1685.57 575.243C1685.64 574.813 1685.71 574.384 1685.8 573.954C1685.85 573.745 1685.88 573.548 1685.94 573.339C1686 573.083 1686.07 572.828 1686.14 572.572C1686.2 572.328 1686.26 572.096 1686.33 571.852C1686.42 571.597 1686.5 571.33 1686.58 571.074C1686.66 570.831 1686.74 570.587 1686.82 570.343C1686.91 570.076 1687.01 569.82 1687.11 569.553C1687.21 569.298 1687.3 569.054 1687.4 568.799C1687.51 568.532 1687.62 568.265 1687.74 567.997C1687.89 567.649 1688.04 567.301 1688.2 566.941C1688.64 566 1689.14 565.071 1689.67 564.143C1689.81 563.899 1689.95 563.655 1690.08 563.411C1690.57 562.587 1691.08 561.774 1691.62 560.973C1691.69 560.868 1691.76 560.764 1691.83 560.659C1692.41 559.8 1693.05 558.964 1693.7 558.128C1694.15 557.547 1694.62 556.99 1695.1 556.421C1695.46 555.991 1695.81 555.55 1696.19 555.132C1696.7 554.552 1697.25 553.994 1697.79 553.437C1698.19 553.031 1698.57 552.601 1698.98 552.206C1699.14 552.044 1699.32 551.881 1699.49 551.718C1700.19 551.045 1700.89 550.395 1701.61 549.756C1701.82 549.57 1702.03 549.385 1702.24 549.199C1702.66 548.839 1703.1 548.491 1703.53 548.142C1704.25 547.55 1704.98 546.958 1705.73 546.389C1706.2 546.029 1706.69 545.681 1707.18 545.332C1707.79 544.891 1708.41 544.45 1709.03 544.032C1709.56 543.684 1710.09 543.335 1710.63 542.998C1711.22 542.627 1711.81 542.255 1712.41 541.895C1712.96 541.57 1713.52 541.245 1714.07 540.932C1714.68 540.595 1715.29 540.258 1715.91 539.945C1716.47 539.654 1717.02 539.376 1717.58 539.109C1718.25 538.784 1718.93 538.47 1719.6 538.18C1720.13 537.948 1720.67 537.704 1721.21 537.483C1722.04 537.146 1722.86 536.833 1723.69 536.543C1724.22 536.345 1724.76 536.148 1725.3 535.962C1725.59 535.869 1725.88 535.776 1726.17 535.683C1727.02 535.416 1727.88 535.172 1728.73 534.952C1728.97 534.894 1729.23 534.813 1729.47 534.754C1730.25 534.569 1731.03 534.418 1731.8 534.267C1732.19 534.197 1732.57 534.104 1732.95 534.035C1734.09 533.849 1735.23 533.698 1736.36 533.605C1742.22 533.117 1747.11 534.023 1750.8 536.008C1753.02 537.204 1754.81 538.784 1756.12 540.688L1718.21 485.616C1714.7 480.53 1707.84 477.766 1698.44 478.533L1698.4 478.463Z" fill="#5E186C"/>
<path d="M1855.58 425.005C1855.74 425.284 1855.91 425.562 1856.03 425.853C1856.14 426.085 1856.22 426.34 1856.31 426.584C1856.42 426.874 1856.53 427.165 1856.61 427.478C1856.68 427.734 1856.73 427.989 1856.78 428.244C1856.85 428.581 1856.9 428.918 1856.95 429.255C1857.01 429.731 1857.04 430.218 1857.04 430.718C1857.04 430.799 1857.04 430.869 1857.04 430.95C1857.04 431.461 1857 431.972 1856.94 432.506C1856.93 432.61 1856.92 432.726 1856.9 432.831C1856.82 433.4 1856.72 433.969 1856.58 434.561C1856.5 434.933 1856.37 435.304 1856.26 435.687C1856.16 436.024 1856.08 436.361 1855.95 436.709C1855.81 437.092 1855.65 437.487 1855.49 437.882C1855.31 438.3 1855.16 438.706 1854.96 439.136L1767.71 625.113L1805.62 680.185L1892.88 494.208C1892.93 494.08 1892.99 493.953 1893.05 493.825C1893.18 493.523 1893.27 493.244 1893.4 492.954C1893.56 492.559 1893.72 492.164 1893.86 491.781C1893.98 491.433 1894.07 491.096 1894.18 490.759C1894.29 490.388 1894.41 490.005 1894.49 489.633C1894.5 489.563 1894.54 489.494 1894.55 489.424C1894.66 488.913 1894.74 488.402 1894.81 487.915C1894.83 487.81 1894.84 487.694 1894.85 487.59C1894.88 487.311 1894.92 487.021 1894.94 486.742C1894.95 486.498 1894.95 486.266 1894.97 486.034C1894.97 485.952 1894.97 485.883 1894.97 485.801C1894.97 485.395 1894.95 484.989 1894.92 484.594C1894.92 484.501 1894.88 484.42 1894.87 484.338C1894.84 483.99 1894.77 483.653 1894.7 483.317C1894.66 483.131 1894.65 482.922 1894.61 482.736C1894.59 482.666 1894.56 482.608 1894.54 482.55C1894.45 482.248 1894.34 481.958 1894.23 481.656C1894.16 481.47 1894.12 481.261 1894.04 481.076C1894.01 481.029 1893.98 480.983 1893.96 480.925C1893.83 480.634 1893.65 480.356 1893.5 480.077C1893.4 479.903 1893.33 479.717 1893.21 479.543C1893.17 479.473 1893.12 479.392 1893.06 479.322L1855.15 424.25C1855.31 424.494 1855.44 424.75 1855.58 425.005Z" fill="#742384"/>
<path d="M1494.42 668.748C1487.69 669.306 1482.74 667.297 1480.21 663.628L1518.12 718.7C1520.65 722.369 1525.59 724.378 1532.33 723.82L1770.95 704.197L1733.03 649.125L1494.42 668.748Z" fill="#742384"/>
<path d="M1804.12 682.937C1804.66 682.031 1805.18 681.114 1805.6 680.185L1767.69 625.113C1767.26 626.042 1766.75 626.959 1766.21 627.865C1766.05 628.132 1765.88 628.388 1765.71 628.643C1765.27 629.328 1764.8 630.001 1764.3 630.675C1764.12 630.919 1763.94 631.174 1763.75 631.418C1763.42 631.836 1763.08 632.242 1762.74 632.649C1762.47 632.962 1762.23 633.276 1761.95 633.578C1761.57 633.996 1761.19 634.391 1760.8 634.797C1760.53 635.076 1760.27 635.354 1760 635.633C1759.18 636.434 1758.35 637.212 1757.46 637.955C1757.2 638.187 1756.93 638.396 1756.65 638.617C1756.13 639.047 1755.6 639.476 1755.05 639.894C1754.71 640.15 1754.36 640.405 1754.02 640.649C1753.56 640.974 1753.12 641.288 1752.66 641.601C1752.29 641.857 1751.9 642.1 1751.52 642.344C1751.09 642.623 1750.65 642.89 1750.22 643.145C1749.82 643.378 1749.43 643.61 1749.02 643.83C1748.58 644.074 1748.14 644.318 1747.69 644.55C1747.29 644.759 1746.89 644.957 1746.49 645.154C1746 645.386 1745.52 645.619 1745.03 645.828C1744.65 646.002 1744.26 646.164 1743.87 646.327C1743.28 646.571 1742.67 646.791 1742.08 647.012C1741.75 647.128 1741.42 647.256 1741.09 647.372C1740.01 647.732 1738.93 648.045 1737.86 648.301C1737.33 648.429 1736.8 648.533 1736.27 648.626C1736.01 648.672 1735.73 648.742 1735.46 648.788C1734.65 648.928 1733.84 649.032 1733.02 649.09L1770.93 704.163C1771.73 704.093 1772.55 703.988 1773.37 703.861C1773.64 703.814 1773.92 703.756 1774.18 703.698C1774.66 703.605 1775.13 703.524 1775.6 703.419C1775.66 703.408 1775.72 703.385 1775.78 703.373C1776.86 703.118 1777.92 702.804 1779 702.444C1779.08 702.421 1779.17 702.398 1779.25 702.374C1779.49 702.293 1779.75 702.177 1779.99 702.084C1780.58 701.863 1781.19 701.643 1781.78 701.399C1781.93 701.341 1782.08 701.283 1782.24 701.225C1782.48 701.12 1782.71 701.004 1782.94 700.9C1783.43 700.679 1783.92 700.459 1784.4 700.226C1784.59 700.133 1784.79 700.052 1784.97 699.959C1785.18 699.855 1785.39 699.727 1785.61 699.623C1786.06 699.39 1786.5 699.146 1786.95 698.903C1787.15 698.786 1787.36 698.682 1787.56 698.566C1787.76 698.45 1787.94 698.322 1788.14 698.206C1788.58 697.939 1789.01 697.672 1789.44 697.405C1789.65 697.265 1789.87 697.149 1790.08 697.01C1790.25 696.894 1790.41 696.778 1790.58 696.662C1791.03 696.348 1791.49 696.035 1791.94 695.71C1792.16 695.547 1792.39 695.408 1792.6 695.245C1792.73 695.152 1792.84 695.048 1792.97 694.955C1793.52 694.537 1794.05 694.107 1794.57 693.678C1794.78 693.503 1795 693.352 1795.2 693.178C1795.26 693.12 1795.32 693.074 1795.38 693.016C1796.25 692.261 1797.09 691.495 1797.91 690.693C1797.95 690.647 1798 690.612 1798.05 690.566C1798.28 690.334 1798.49 690.09 1798.72 689.857C1799.1 689.451 1799.5 689.056 1799.87 688.638C1800.15 688.336 1800.39 688.023 1800.66 687.709C1801.01 687.303 1801.34 686.897 1801.67 686.479C1801.74 686.386 1801.83 686.293 1801.9 686.2C1802.02 686.049 1802.11 685.886 1802.23 685.735C1802.73 685.062 1803.19 684.389 1803.63 683.703C1803.79 683.448 1803.97 683.181 1804.13 682.926L1804.12 682.937Z" fill="#742384"/>
<path d="M1840.94 419.13C1854.33 418.027 1860.64 427.037 1854.95 439.136L1767.69 625.113C1762.02 637.212 1746.41 648.022 1733.02 649.125L1494.41 668.748C1481.02 669.851 1474.71 660.853 1480.4 648.742L1567.66 462.765C1573.33 450.666 1588.94 439.856 1602.33 438.753L1609 438.207L1651.62 434.7L1791.66 423.182L1834.26 419.675L1840.95 419.13H1840.94ZM1688.55 534.069C1701.13 527.962 1712.55 517.535 1717.86 506.226C1725.78 489.354 1717.06 476.93 1698.4 478.463C1679.73 479.996 1658.18 494.916 1650.27 511.787C1644.96 523.097 1647.13 532.397 1654.75 536.856L1633.93 581.223C1629.98 589.629 1634.36 595.876 1643.66 595.11C1652.95 594.343 1663.79 586.842 1667.73 578.436L1688.55 534.069Z" fill="#A35AAD"/>
<path d="M1595.64 411.651L1623.58 392.303L1694.63 494.914C1698.74 500.843 1697.26 508.985 1691.33 513.09L1684.88 517.559C1678.95 521.663 1670.81 520.184 1666.7 514.255L1595.65 411.644L1595.64 411.651Z" fill="#F7D163"/>
<path d="M1595.29 293.693L1577.64 295.098C1583.9 294.599 1589.95 297.723 1595.14 305.177C1595.88 306.245 1596.58 307.279 1597.24 308.289C1597.45 308.614 1597.65 308.927 1597.86 309.252C1598.29 309.926 1598.72 310.599 1599.11 311.261C1599.33 311.621 1599.54 311.981 1599.75 312.341C1600.1 312.933 1600.43 313.525 1600.76 314.106C1600.96 314.466 1601.15 314.814 1601.34 315.163C1601.67 315.766 1601.97 316.37 1602.26 316.951C1602.38 317.195 1602.51 317.45 1602.63 317.694C1603.02 318.518 1603.4 319.331 1603.72 320.121C1603.86 320.446 1603.96 320.759 1604.09 321.084C1604.3 321.607 1604.52 322.141 1604.7 322.663C1604.72 322.745 1604.74 322.826 1604.78 322.907C1605.01 323.581 1605.22 324.254 1605.39 324.904C1605.44 325.067 1605.47 325.218 1605.52 325.38C1605.69 326.054 1605.86 326.727 1605.98 327.378C1605.98 327.436 1606.01 327.494 1606.02 327.552C1606.15 328.248 1606.25 328.922 1606.33 329.584C1606.33 329.63 1606.33 329.688 1606.34 329.735C1606.41 330.397 1606.46 331.035 1606.47 331.662C1606.47 331.732 1606.47 331.802 1606.47 331.871C1606.48 332.498 1606.47 333.114 1606.44 333.717C1606.44 333.799 1606.43 333.88 1606.41 333.95C1606.38 334.426 1606.32 334.902 1606.26 335.366C1606.23 335.633 1606.19 335.889 1606.15 336.144C1606.09 336.504 1606.02 336.864 1605.94 337.212C1605.89 337.456 1605.83 337.688 1605.78 337.932C1605.68 338.292 1605.58 338.664 1605.47 339.024C1605.4 339.244 1605.35 339.465 1605.28 339.686C1605.15 340.08 1605.01 340.464 1604.86 340.847C1604.79 341.032 1604.73 341.218 1604.65 341.392C1604.42 341.961 1604.17 342.519 1603.92 343.076C1603.52 343.912 1603.08 344.736 1602.62 345.561C1602.51 345.747 1602.42 345.921 1602.32 346.107C1601.85 346.908 1601.36 347.709 1600.84 348.51C1600.67 348.777 1600.48 349.056 1600.29 349.335C1600.09 349.648 1599.89 349.962 1599.67 350.275C1599.47 350.577 1599.26 350.867 1599.05 351.169C1598.84 351.483 1598.62 351.784 1598.4 352.098C1598.18 352.411 1597.96 352.725 1597.73 353.05C1597.5 353.375 1597.28 353.689 1597.04 354.014C1596.77 354.397 1596.49 354.792 1596.21 355.187C1595.87 355.651 1595.55 356.115 1595.21 356.58C1594.93 356.963 1594.66 357.346 1594.38 357.729C1594.15 358.055 1593.92 358.38 1593.7 358.705C1593.43 359.076 1593.18 359.448 1592.91 359.819C1592.68 360.145 1592.45 360.481 1592.23 360.818C1591.96 361.201 1591.7 361.573 1591.44 361.968C1591.2 362.316 1590.97 362.664 1590.73 363.024C1590.47 363.419 1590.2 363.802 1589.95 364.209C1589.86 364.359 1589.75 364.499 1589.66 364.65C1589.54 364.836 1589.43 365.033 1589.31 365.219C1588.99 365.73 1588.66 366.252 1588.34 366.775C1588.13 367.123 1587.91 367.471 1587.7 367.82C1587.37 368.365 1587.05 368.911 1586.72 369.48C1586.51 369.828 1586.32 370.188 1586.12 370.548C1585.77 371.164 1585.43 371.802 1585.08 372.452C1584.91 372.778 1584.74 373.091 1584.57 373.416C1584.06 374.392 1583.56 375.402 1583.08 376.435L1582.85 376.9C1575.63 392.18 1572.47 409.632 1568.07 418.956C1567.83 419.466 1567.59 419.942 1567.34 420.395C1567.26 420.546 1567.18 420.674 1567.1 420.825C1566.92 421.115 1566.76 421.417 1566.59 421.696C1566.54 421.765 1566.49 421.823 1566.45 421.893C1566.18 422.3 1565.91 422.671 1565.64 423.008C1565.51 423.17 1565.37 423.321 1565.24 423.472C1565.12 423.6 1565.02 423.728 1564.9 423.832C1564.69 424.041 1564.49 424.227 1564.28 424.401C1564.24 424.436 1564.2 424.471 1564.16 424.506C1563.91 424.703 1563.64 424.877 1563.36 425.028C1563.31 425.051 1563.26 425.086 1563.21 425.109C1562.94 425.249 1562.66 425.365 1562.38 425.446C1562.34 425.458 1562.3 425.469 1562.26 425.481C1561.95 425.562 1561.65 425.632 1561.33 425.655L1578.98 424.25C1578.98 424.25 1579.01 424.25 1579.03 424.25C1579.23 424.239 1579.42 424.204 1579.6 424.169C1579.71 424.146 1579.8 424.111 1579.91 424.088C1579.95 424.076 1579.99 424.064 1580.03 424.053C1580.07 424.053 1580.1 424.041 1580.14 424.03C1580.32 423.972 1580.5 423.902 1580.67 423.821C1580.73 423.786 1580.8 423.751 1580.86 423.716C1580.9 423.693 1580.96 423.658 1581.01 423.635C1581.07 423.6 1581.14 423.577 1581.19 423.53C1581.39 423.414 1581.58 423.287 1581.78 423.136C1581.78 423.136 1581.8 423.112 1581.81 423.112C1581.84 423.078 1581.89 423.043 1581.93 423.008C1582.09 422.88 1582.25 422.741 1582.4 422.59C1582.45 422.543 1582.49 422.485 1582.55 422.427C1582.67 422.311 1582.79 422.183 1582.89 422.067C1582.98 421.974 1583.06 421.882 1583.16 421.777C1583.2 421.719 1583.24 421.649 1583.28 421.603C1583.56 421.255 1583.83 420.883 1584.1 420.488C1584.13 420.43 1584.17 420.395 1584.2 420.337C1584.2 420.326 1584.22 420.302 1584.22 420.291C1584.4 420.024 1584.56 419.722 1584.74 419.42C1584.82 419.281 1584.9 419.141 1584.98 419.002C1585.22 418.549 1585.47 418.061 1585.71 417.562C1590.12 408.238 1593.27 390.787 1600.49 375.506L1600.71 375.042C1601.2 374.008 1601.7 372.998 1602.21 372.023C1602.38 371.698 1602.55 371.384 1602.72 371.059C1603.07 370.409 1603.41 369.77 1603.76 369.155C1603.95 368.795 1604.16 368.447 1604.36 368.098C1604.68 367.541 1605.01 366.972 1605.33 366.438C1605.54 366.09 1605.75 365.741 1605.97 365.393C1606.3 364.87 1606.62 364.348 1606.95 363.837C1607.17 363.5 1607.38 363.163 1607.6 362.827C1607.85 362.432 1608.12 362.037 1608.38 361.642C1608.61 361.294 1608.85 360.934 1609.08 360.586C1609.34 360.203 1609.61 359.819 1609.86 359.448C1610.09 359.111 1610.33 358.774 1610.56 358.438C1610.83 358.055 1611.09 357.683 1611.35 357.311C1611.57 356.998 1611.8 356.673 1612.02 356.359C1612.31 355.953 1612.6 355.547 1612.89 355.152C1613.22 354.699 1613.53 354.258 1613.85 353.816C1614.14 353.422 1614.41 353.015 1614.7 352.632C1614.94 352.307 1615.17 351.982 1615.39 351.668C1615.61 351.355 1615.84 351.03 1616.06 350.716C1616.28 350.403 1616.5 350.078 1616.72 349.764C1616.92 349.474 1617.13 349.172 1617.33 348.882C1617.55 348.557 1617.76 348.243 1617.97 347.93C1618.12 347.697 1618.28 347.453 1618.43 347.221C1618.45 347.186 1618.47 347.152 1618.49 347.128C1619.01 346.316 1619.5 345.514 1619.96 344.713C1620.07 344.539 1620.16 344.353 1620.27 344.179C1620.73 343.355 1621.17 342.519 1621.57 341.694C1621.83 341.137 1622.08 340.568 1622.3 340.011C1622.37 339.825 1622.44 339.651 1622.51 339.465C1622.66 339.082 1622.8 338.687 1622.93 338.304C1622.99 338.083 1623.06 337.863 1623.12 337.63C1623.23 337.27 1623.33 336.91 1623.42 336.551C1623.48 336.307 1623.54 336.074 1623.59 335.831C1623.63 335.645 1623.68 335.459 1623.71 335.273C1623.75 335.111 1623.76 334.937 1623.8 334.762C1623.84 334.507 1623.88 334.24 1623.91 333.973C1623.94 333.822 1623.96 333.683 1623.98 333.532C1624.02 333.206 1624.04 332.881 1624.06 332.556C1624.06 332.475 1624.07 332.405 1624.09 332.324C1624.09 332.289 1624.09 332.266 1624.09 332.231C1624.11 331.86 1624.12 331.476 1624.12 331.093C1624.12 330.896 1624.12 330.687 1624.12 330.478C1624.12 330.408 1624.12 330.339 1624.12 330.269C1624.12 330.211 1624.12 330.141 1624.12 330.083C1624.11 329.746 1624.09 329.41 1624.06 329.073C1624.04 328.829 1624.02 328.585 1623.99 328.353C1623.99 328.307 1623.99 328.248 1623.98 328.202C1623.98 328.156 1623.98 328.121 1623.97 328.074C1623.92 327.726 1623.88 327.366 1623.82 327.006C1623.77 326.727 1623.73 326.449 1623.67 326.17C1623.67 326.112 1623.65 326.054 1623.63 326.008C1623.63 325.961 1623.62 325.926 1623.61 325.891C1623.53 325.473 1623.44 325.044 1623.33 324.614C1623.29 324.417 1623.23 324.219 1623.17 324.022C1623.12 323.859 1623.09 323.708 1623.04 323.546C1622.99 323.395 1622.97 323.256 1622.93 323.105C1622.77 322.594 1622.6 322.071 1622.43 321.537C1622.4 321.456 1622.38 321.386 1622.36 321.305C1622.36 321.282 1622.36 321.27 1622.34 321.259C1622.17 320.759 1621.95 320.225 1621.75 319.714C1621.62 319.401 1621.52 319.099 1621.39 318.774C1621.39 318.774 1621.39 318.75 1621.39 318.739C1621.07 317.961 1620.7 317.16 1620.31 316.347C1620.2 316.103 1620.07 315.848 1619.94 315.604C1619.76 315.244 1619.59 314.884 1619.4 314.512C1619.28 314.28 1619.14 314.048 1619.01 313.816C1618.83 313.467 1618.63 313.107 1618.43 312.759C1618.12 312.179 1617.77 311.598 1617.42 310.994C1617.21 310.634 1617 310.286 1616.78 309.914C1616.39 309.264 1615.96 308.591 1615.53 307.906C1615.32 307.58 1615.13 307.267 1614.91 306.942C1614.25 305.932 1613.55 304.898 1612.81 303.83C1607.62 296.376 1601.57 293.252 1595.31 293.751L1595.29 293.693Z" fill="#C39820"/>
<path d="M1553.23 420.36C1552.85 419.71 1552.48 419.048 1552.12 418.363C1551.86 417.887 1551.62 417.4 1551.38 416.912C1551.2 416.564 1551.03 416.215 1550.85 415.867C1550.58 415.286 1550.32 414.706 1550.05 414.114C1549.91 413.788 1549.76 413.475 1549.62 413.15C1549.52 412.906 1549.43 412.651 1549.32 412.395C1548.88 411.327 1548.46 410.224 1548.07 409.109C1547.94 408.749 1547.81 408.389 1547.68 408.018C1547.34 406.984 1547 405.939 1546.67 404.871C1546.6 404.65 1546.53 404.441 1546.48 404.221C1546.12 402.978 1545.78 401.724 1545.47 400.447C1545.37 400.087 1545.3 399.727 1545.22 399.367C1545 398.45 1544.8 397.521 1544.61 396.569C1544.51 396.116 1544.42 395.652 1544.34 395.187C1544.17 394.282 1544 393.376 1543.85 392.447C1543.78 391.994 1543.7 391.53 1543.63 391.077C1543.46 389.916 1543.3 388.731 1543.14 387.547C1543.12 387.315 1543.07 387.083 1543.05 386.839C1542.88 385.364 1542.74 383.878 1542.62 382.38C1542.59 381.997 1542.56 381.614 1542.54 381.219C1542.45 379.918 1542.38 378.618 1542.32 377.294C1542.31 376.911 1542.29 376.528 1542.27 376.145C1542.22 374.392 1542.19 372.627 1542.19 370.839C1542.19 370.513 1542.19 370.177 1542.2 369.852C1542.23 367.75 1542.29 365.648 1542.4 363.523C1542.42 363.047 1542.46 362.56 1542.49 362.084C1542.55 361.224 1542.6 360.354 1542.67 359.494C1542.71 358.937 1542.77 358.38 1542.82 357.811C1542.89 356.998 1542.97 356.185 1543.05 355.384C1543.1 354.954 1543.16 354.513 1543.2 354.083C1543.36 352.679 1543.55 351.262 1543.75 349.857C1543.81 349.474 1543.85 349.091 1543.91 348.707C1544.17 347.024 1544.46 345.329 1544.77 343.657C1544.86 343.134 1544.98 342.6 1545.08 342.077C1545.25 341.253 1545.41 340.429 1545.58 339.604C1545.71 339.024 1545.84 338.455 1545.97 337.874C1546.15 337.085 1546.33 336.283 1546.52 335.494C1546.66 334.913 1546.81 334.333 1546.96 333.741C1547.16 332.963 1547.37 332.185 1547.58 331.407C1547.74 330.826 1547.9 330.246 1548.07 329.677C1548.29 328.899 1548.52 328.132 1548.76 327.366C1548.94 326.797 1549.11 326.228 1549.3 325.659C1549.54 324.893 1549.81 324.126 1550.06 323.36C1550.25 322.814 1550.44 322.257 1550.63 321.711C1550.91 320.922 1551.21 320.132 1551.5 319.354C1551.7 318.843 1551.89 318.332 1552.09 317.833C1552.42 316.974 1552.77 316.126 1553.13 315.279C1553.3 314.861 1553.47 314.443 1553.65 314.025C1554.2 312.771 1554.76 311.528 1555.34 310.297C1555.93 309.043 1556.54 307.836 1557.16 306.64C1557.34 306.28 1557.54 305.932 1557.73 305.572C1558.18 304.724 1558.63 303.9 1559.09 303.087C1559.3 302.727 1559.49 302.355 1559.7 302.007C1560.22 301.113 1560.76 300.242 1561.29 299.383C1561.42 299.174 1561.55 298.965 1561.68 298.767C1562.31 297.769 1562.98 296.794 1563.64 295.853C1563.8 295.632 1563.95 295.4 1564.11 295.18C1564.74 294.297 1565.38 293.426 1566.03 292.602C1566.08 292.544 1566.12 292.474 1566.18 292.405C1566.83 291.58 1567.48 290.791 1568.14 290.024C1568.53 289.571 1568.92 289.142 1569.3 288.712C1569.71 288.259 1570.12 287.818 1570.52 287.388C1570.92 286.982 1571.31 286.587 1571.71 286.193C1572.14 285.763 1572.57 285.345 1573.01 284.939C1573.3 284.671 1573.59 284.416 1573.88 284.149C1574.37 283.719 1574.87 283.29 1575.35 282.895C1575.64 282.651 1575.95 282.419 1576.24 282.187C1576.83 281.722 1577.43 281.269 1578.04 280.851C1578.19 280.747 1578.34 280.631 1578.48 280.526C1579.24 280.004 1580 279.516 1580.76 279.063C1580.93 278.97 1581.09 278.877 1581.25 278.785C1581.88 278.425 1582.51 278.088 1583.15 277.774C1583.32 277.681 1583.51 277.589 1583.68 277.507C1584.42 277.159 1585.17 276.834 1585.91 276.544C1586.06 276.486 1586.2 276.439 1586.35 276.381C1586.85 276.195 1587.35 276.044 1587.85 275.882C1588.49 275.684 1589.12 275.51 1589.75 275.359C1590.09 275.278 1590.43 275.185 1590.77 275.127C1591.44 274.999 1592.11 274.906 1592.77 274.825C1593.11 274.79 1593.44 274.721 1593.78 274.697L1576.13 276.102C1576.02 276.102 1575.9 276.126 1575.8 276.137C1575.57 276.16 1575.34 276.218 1575.12 276.242C1574.46 276.323 1573.79 276.416 1573.12 276.544C1573.01 276.567 1572.89 276.567 1572.78 276.602C1572.56 276.648 1572.34 276.729 1572.11 276.787C1571.48 276.938 1570.84 277.113 1570.2 277.31C1570.01 277.368 1569.83 277.403 1569.65 277.461C1569.34 277.565 1569.03 277.693 1568.7 277.809C1568.55 277.867 1568.41 277.914 1568.26 277.972C1567.62 278.216 1566.98 278.483 1566.36 278.773C1566.25 278.819 1566.13 278.877 1566.03 278.935C1565.84 279.017 1565.67 279.11 1565.48 279.203C1564.86 279.516 1564.23 279.853 1563.6 280.213C1563.44 280.306 1563.28 280.399 1563.1 280.491C1563.02 280.538 1562.93 280.584 1562.85 280.631C1562.16 281.037 1561.49 281.478 1560.82 281.943C1560.67 282.047 1560.51 282.163 1560.38 282.268C1559.95 282.57 1559.5 282.872 1559.07 283.208C1558.91 283.336 1558.75 283.475 1558.58 283.603C1558.29 283.835 1557.98 284.079 1557.69 284.311C1557.19 284.718 1556.71 285.136 1556.22 285.566C1555.93 285.821 1555.64 286.088 1555.35 286.355C1555.19 286.506 1555.03 286.634 1554.87 286.785C1554.59 287.04 1554.33 287.342 1554.05 287.609C1553.65 288.004 1553.26 288.387 1552.86 288.805C1552.46 289.235 1552.05 289.687 1551.64 290.129C1551.25 290.558 1550.87 290.988 1550.48 291.441C1550.35 291.592 1550.23 291.719 1550.1 291.87C1549.57 292.497 1549.04 293.159 1548.51 293.821C1548.46 293.879 1548.42 293.949 1548.36 294.018C1547.71 294.855 1547.07 295.714 1546.44 296.596C1546.28 296.817 1546.13 297.037 1545.97 297.27C1545.34 298.164 1544.72 299.081 1544.11 300.022C1544.07 300.068 1544.04 300.126 1544.02 300.184C1543.89 300.381 1543.76 300.602 1543.63 300.799C1543.1 301.659 1542.56 302.53 1542.04 303.424C1541.83 303.784 1541.62 304.144 1541.43 304.503C1540.96 305.316 1540.51 306.141 1540.07 306.988C1539.88 307.348 1539.68 307.697 1539.5 308.056C1538.88 309.252 1538.27 310.46 1537.68 311.714C1537.09 312.945 1536.54 314.187 1535.99 315.441C1535.82 315.859 1535.64 316.277 1535.47 316.707C1535.12 317.554 1534.76 318.402 1534.42 319.25C1534.23 319.761 1534.04 320.272 1533.84 320.782C1533.55 321.56 1533.25 322.35 1532.97 323.14C1532.78 323.685 1532.59 324.231 1532.4 324.788C1532.14 325.555 1531.88 326.321 1531.64 327.087C1531.45 327.656 1531.28 328.225 1531.1 328.794C1530.87 329.561 1530.64 330.327 1530.41 331.105C1530.24 331.685 1530.07 332.266 1529.92 332.847C1529.71 333.624 1529.5 334.391 1529.3 335.169C1529.15 335.749 1529 336.33 1528.86 336.922C1528.67 337.712 1528.48 338.513 1528.31 339.302C1528.18 339.871 1528.04 340.452 1527.92 341.021C1527.75 341.845 1527.57 342.681 1527.41 343.506C1527.33 343.924 1527.24 344.33 1527.16 344.748C1527.13 344.853 1527.12 344.957 1527.1 345.073C1526.78 346.757 1526.49 348.44 1526.24 350.136C1526.18 350.519 1526.13 350.902 1526.08 351.285C1525.87 352.69 1525.69 354.107 1525.53 355.512C1525.5 355.767 1525.46 356.034 1525.43 356.29C1525.4 356.464 1525.39 356.638 1525.38 356.812C1525.29 357.625 1525.22 358.438 1525.15 359.239C1525.1 359.796 1525.04 360.365 1525 360.922C1524.93 361.793 1524.87 362.653 1524.82 363.523C1524.8 363.953 1524.75 364.383 1524.73 364.801C1524.73 364.847 1524.73 364.905 1524.73 364.952C1524.61 367.076 1524.55 369.178 1524.53 371.28C1524.53 371.477 1524.52 371.674 1524.51 371.86C1524.51 372 1524.51 372.127 1524.51 372.267C1524.51 374.043 1524.53 375.808 1524.59 377.561C1524.59 377.689 1524.59 377.828 1524.59 377.956C1524.59 378.212 1524.62 378.467 1524.64 378.723C1524.69 380.035 1524.76 381.335 1524.86 382.636C1524.88 382.891 1524.88 383.146 1524.9 383.402C1524.9 383.541 1524.93 383.669 1524.94 383.808C1525.05 385.306 1525.2 386.792 1525.37 388.267C1525.37 388.302 1525.37 388.348 1525.38 388.383C1525.4 388.58 1525.44 388.766 1525.46 388.964C1525.6 390.148 1525.76 391.332 1525.95 392.493C1525.97 392.668 1525.99 392.853 1526.02 393.028C1526.06 393.306 1526.12 393.585 1526.17 393.864C1526.32 394.781 1526.48 395.698 1526.66 396.604C1526.7 396.871 1526.75 397.15 1526.81 397.417C1526.84 397.602 1526.89 397.788 1526.94 397.974C1527.13 398.914 1527.34 399.843 1527.55 400.772C1527.62 401.051 1527.67 401.341 1527.74 401.62C1527.76 401.701 1527.78 401.771 1527.79 401.852C1528.11 403.129 1528.44 404.395 1528.8 405.626C1528.82 405.672 1528.83 405.719 1528.84 405.753C1528.89 405.928 1528.96 406.102 1529 406.276C1529.32 407.344 1529.65 408.389 1530.01 409.423C1530.07 409.585 1530.12 409.771 1530.17 409.934C1530.24 410.131 1530.33 410.317 1530.4 410.514C1530.79 411.629 1531.21 412.732 1531.65 413.8C1531.72 413.974 1531.78 414.148 1531.85 414.323C1531.88 414.404 1531.92 414.474 1531.95 414.555C1532.09 414.88 1532.24 415.205 1532.38 415.519C1532.64 416.111 1532.9 416.703 1533.18 417.272C1533.34 417.62 1533.52 417.969 1533.69 418.317C1533.87 418.654 1534.02 419.002 1534.19 419.339C1534.27 419.49 1534.35 419.617 1534.44 419.768C1534.8 420.442 1535.17 421.104 1535.55 421.754C1535.72 422.067 1535.9 422.381 1536.08 422.683C1536.65 423.623 1537.25 424.54 1537.85 425.411C1545.06 435.757 1554.07 440.309 1563.42 439.565L1581.07 438.16C1571.72 438.904 1562.71 434.352 1555.5 424.006C1554.88 423.124 1554.3 422.207 1553.73 421.278C1553.55 420.976 1553.37 420.662 1553.2 420.349L1553.23 420.36Z" fill="#F9DD8F"/>
<path d="M1555.36 310.332C1537.72 347.651 1537.8 398.555 1555.54 424.018C1570.66 445.708 1593.71 441.934 1611.12 417.283L1626.28 385.213C1636.84 350.728 1634.54 310.576 1619.43 288.875C1601.69 263.411 1573.01 273.014 1555.37 310.332H1555.36ZM1621.55 341.671C1617.14 350.995 1607.92 359.727 1600.7 375.019L1600.48 375.483C1593.26 390.763 1590.1 408.215 1585.7 417.539C1581.21 427.049 1575.41 428.105 1562.67 409.817C1548.72 389.788 1551.18 353.12 1564.81 324.277L1565.03 323.813C1578.66 294.971 1598.84 283.731 1612.8 303.76C1625.54 322.036 1626.05 332.161 1621.55 341.659V341.671Z" fill="#F4C12A"/>
<path d="M1656.3 439.055C1656.05 440.076 1655.69 441.145 1655.16 442.259C1651.22 450.585 1640.54 457.981 1631.31 458.782C1630.04 458.887 1628.87 458.852 1627.8 458.712C1626.23 465.342 1630.51 469.848 1638.51 469.163C1647.74 468.373 1658.42 460.965 1662.36 452.64C1665.76 445.452 1663.03 439.925 1656.3 439.043V439.055Z" fill="#F4C12A"/>
<path d="M1642.68 419.385C1642.43 420.407 1642.07 421.475 1641.54 422.59C1637.6 430.915 1626.92 438.311 1617.69 439.113C1616.42 439.217 1615.25 439.182 1614.18 439.043C1612.61 445.673 1616.89 450.178 1624.89 449.493C1634.12 448.704 1644.8 441.296 1648.74 432.97C1652.14 425.783 1649.41 420.256 1642.68 419.374V419.385Z" fill="#F4C12A"/>
</g>
</g>
<defs>
<filter id="filter0_f_1357_6474" x="-200" y="-657.102" width="2321.6" height="2321.6" filterUnits="userSpaceOnUse" color-interpolation-filters="sRGB">
<feFlood flood-opacity="0" result="BackgroundImageFix"/>
<feBlend mode="normal" in="SourceGraphic" in2="BackgroundImageFix" result="shape"/>
<feGaussianBlur stdDeviation="8" result="effect1_foregroundBlur_1357_6474"/>
</filter>
<linearGradient id="paint0_linear_1357_6474" x1="105.662" y1="37.5" x2="830.442" y2="1603.03" gradientUnits="userSpaceOnUse">
<stop stop-color="#9D2EC5"/>
<stop offset="1" stop-color="#3F0D4A"/>
</linearGradient>
<linearGradient id="paint1_linear_1357_6474" x1="960.8" y1="156.086" x2="960.8" y2="851.31" gradientUnits="userSpaceOnUse">
<stop stop-color="#A59FB2"/>
<stop offset="1" stop-color="#69607B"/>
</linearGradient>
<linearGradient id="paint2_linear_1357_6474" x1="960.801" y1="34.6289" x2="960.801" y2="972.763" gradientUnits="userSpaceOnUse">
<stop stop-color="#A59FB2"/>
<stop offset="1" stop-color="#69607B"/>
</linearGradient>
<linearGradient id="paint3_linear_1357_6474" x1="960.8" y1="-95.2012" x2="960.8" y2="1102.59" gradientUnits="userSpaceOnUse">
<stop stop-color="#A59FB2"/>
<stop offset="1" stop-color="#69607B"/>
</linearGradient>
<linearGradient id="paint4_linear_1357_6474" x1="960.8" y1="-227.127" x2="960.8" y2="1234.52" gradientUnits="userSpaceOnUse">
<stop stop-color="#A59FB2"/>
<stop offset="1" stop-color="#69607B"/>
</linearGradient>
<linearGradient id="paint5_linear_1357_6474" x1="960.799" y1="-361.145" x2="960.799" y2="1368.54" gradientUnits="userSpaceOnUse">
<stop stop-color="#A59FB2"/>
<stop offset="1" stop-color="#69607B"/>
</linearGradient>
<linearGradient id="paint6_linear_1357_6474" x1="960.799" y1="-500.363" x2="960.799" y2="1507.77" gradientUnits="userSpaceOnUse">
<stop stop-color="#A59FB2"/>
<stop offset="1" stop-color="#69607B"/>
</linearGradient>
<linearGradient id="paint7_linear_1357_6474" x1="960.8" y1="-641.102" x2="960.8" y2="1648.5" gradientUnits="userSpaceOnUse">
<stop stop-color="#A59FB2"/>
<stop offset="1" stop-color="#69607B"/>
</linearGradient>
<clipPath id="clip0_1357_6474">
<rect width="2133" height="1000" fill="white" transform="translate(0 0.5)"/>
</clipPath>
<clipPath id="clip1_1357_6474">
<rect width="2133" height="1000" fill="white" transform="translate(0 0.5)"/>
</clipPath>
<clipPath id="clip2_1357_6474">
<rect width="372.453" height="448.357" fill="white" transform="translate(1133 277.032)"/>
</clipPath>
<clipPath id="clip3_1357_6474">
<rect width="424.696" height="449.279" fill="white" transform="translate(1478.3 274.633)"/>
</clipPath>
</defs>
</svg>
