<svg width="2133" height="1001" viewBox="0 0 2133 1001" fill="none" xmlns="http://www.w3.org/2000/svg">
<g clip-path="url(#clip0_1357_6468)">
<rect width="2133" height="1000" transform="translate(0 0.5)" fill="white"/>
<g clip-path="url(#clip1_1357_6468)">
<rect width="2133" height="1000" transform="translate(0 0.5)" fill="url(#paint0_linear_1357_6468)"/>
<path opacity="0.3" d="M2179.54 1172.72L2179.54 708.981C2179.54 708.224 2178.89 707.602 2178.09 707.602H2160.14C2159.35 707.602 2158.69 706.979 2158.69 706.222V684.779C2158.69 684.022 2158.04 683.4 2157.25 683.4H2152.35C2151.56 683.4 2150.91 682.777 2150.91 682.02V662.401C2150.91 661.644 2150.26 661.022 2149.46 661.022H2105.45C2104.65 661.022 2104 661.644 2104 662.401V682.02C2104 682.777 2103.35 683.4 2102.55 683.4H2097.66C2096.87 683.4 2096.21 682.777 2096.21 682.02V636.508C2096.21 635.752 2095.56 635.129 2094.77 635.129H2068.24C2067.44 635.129 2066.79 634.506 2066.79 633.75V628.678C2066.79 627.922 2066.14 627.299 2065.34 627.299H2037.97C2037.55 627.299 2037.18 627.477 2036.9 627.744L2029.95 634.729C2029.67 634.996 2029.3 635.174 2028.88 635.174H2010.28C2009.48 635.174 2008.83 635.796 2008.83 636.553V683.933C2008.83 684.69 2008.18 685.313 2007.39 685.313H2000.49C1999.69 685.313 1999.04 684.69 1999.04 683.933V611.105C1999.04 610.349 1998.39 609.726 1997.59 609.726H1990.13C1989.34 609.726 1988.69 609.103 1988.69 608.347V605.41C1988.69 604.654 1988.04 604.031 1987.24 604.031H1974.56C1973.77 604.031 1973.11 603.408 1973.11 602.652V600.25C1973.11 599.493 1972.46 598.871 1971.67 598.871H1960.9C1960.1 598.871 1959.45 599.493 1959.45 600.25V602.652C1959.45 603.408 1958.8 604.031 1958.01 604.031H1956.28C1955.49 604.031 1954.84 604.654 1954.84 605.41V608.347C1954.84 609.103 1954.18 609.726 1953.39 609.726H1921.26C1920.47 609.726 1919.82 610.349 1919.82 611.105V729.89C1919.82 730.647 1919.17 731.27 1918.37 731.27H1911.94C1911.15 731.27 1910.49 730.647 1910.49 729.89V702.174C1910.49 701.418 1911.15 700.795 1911.94 700.795H1912.12C1913.2 700.795 1913.9 699.727 1913.48 698.837L1911.89 695.501C1911.66 695.011 1911.15 694.7 1910.54 694.7H1866.94C1866.15 694.7 1865.5 694.077 1865.5 693.321V661.867C1865.5 661.111 1866.15 660.488 1866.94 660.488C1867.73 660.488 1868.39 659.865 1868.39 659.109V655.772C1868.39 655.016 1867.73 654.393 1866.94 654.393H1859.62C1858.83 654.393 1858.18 653.77 1858.18 653.014V649.677C1858.18 648.921 1857.52 648.298 1856.73 648.298H1814.62C1813.83 648.298 1813.18 648.921 1813.18 649.677V653.014C1813.18 653.77 1812.53 654.393 1811.73 654.393H1804.41C1803.62 654.393 1802.97 655.016 1802.97 655.772V659.109C1802.97 659.865 1803.62 660.488 1804.41 660.488C1805.21 660.488 1805.86 661.111 1805.86 661.867V706.356C1805.86 707.112 1805.21 707.735 1804.41 707.735H1794.29C1793.5 707.735 1792.85 707.112 1792.85 706.356V623.384C1792.85 622.628 1792.2 622.005 1791.4 622.005H1779.93C1779.51 622.005 1779.09 621.827 1778.81 621.515L1762.91 603.586C1762.31 602.919 1761.28 602.919 1760.68 603.586L1744.78 621.515C1744.5 621.827 1744.08 622.005 1743.66 622.005H1710.88C1710.08 622.005 1709.43 622.628 1709.43 623.384V664.091C1709.43 664.848 1708.78 665.471 1707.99 665.471H1684.3C1683.51 665.471 1682.85 666.093 1682.85 666.85V690.607C1682.85 691.363 1682.2 691.986 1681.41 691.986H1658.28C1657.49 691.986 1656.83 692.609 1656.83 693.365V720.37C1656.83 721.126 1656.18 721.749 1655.39 721.749H1648.02C1647.23 721.749 1646.58 721.126 1646.58 720.37V607.991C1646.58 607.234 1645.92 606.612 1645.13 606.612H1636.97C1636.36 606.612 1635.85 606.256 1635.62 605.766L1630.68 594.288C1630.44 593.754 1629.93 593.443 1629.32 593.443H1574.12C1573.51 593.443 1573 593.799 1572.76 594.288L1567.82 605.766C1567.59 606.3 1567.08 606.612 1566.47 606.612H1558.31C1557.52 606.612 1556.86 607.234 1556.86 607.991V683.933C1556.86 684.69 1556.21 685.313 1555.42 685.313H1548.84C1548.05 685.313 1547.4 684.69 1547.4 683.933V643.048C1547.4 642.648 1547.21 642.247 1546.89 641.98L1527.21 626.053C1526.88 625.786 1526.7 625.386 1526.7 624.986V616.444C1526.7 615.687 1526.04 615.065 1525.25 615.065H1500.58C1499.79 615.065 1499.14 614.442 1499.14 613.685V600.65C1499.14 600.25 1498.95 599.894 1498.67 599.627L1481.7 584.234C1481.42 583.967 1481.05 583.833 1480.67 583.833H1458.52C1457.73 583.833 1457.08 584.456 1457.08 585.212V720.325C1457.08 721.082 1456.43 721.705 1455.63 721.705H1449.57C1448.78 721.705 1448.13 721.082 1448.13 720.325V701.907C1448.13 701.151 1447.47 700.528 1446.68 700.528H1432.27C1431.48 700.528 1430.83 699.905 1430.83 699.149V689.939C1430.83 689.406 1430.5 688.916 1429.99 688.694L1413.34 681.175C1412.83 680.953 1412.5 680.463 1412.5 679.929V640.423C1412.5 639.667 1411.85 639.044 1411.06 639.044H1395.2C1394.41 639.044 1393.76 638.421 1393.76 637.665V633.705C1393.76 633.083 1393.34 632.549 1392.69 632.371L1376.6 628.1C1376.6 628.1 1376.32 628.055 1376.23 628.055H1338.88C1338.08 628.055 1337.43 628.678 1337.43 629.434V637.665C1337.43 638.421 1336.78 639.044 1335.99 639.044H1320.13C1319.34 639.044 1318.69 639.667 1318.69 640.423V729.49C1318.69 730.246 1318.03 730.869 1317.24 730.869H1312.44C1311.65 730.869 1310.99 730.246 1310.99 729.49V695.056C1310.99 694.299 1310.34 693.676 1309.55 693.676H1294.67C1293.88 693.676 1293.23 694.299 1293.23 695.056V742.214C1293.23 742.97 1292.57 743.593 1291.78 743.593H1285.86C1285.07 743.593 1284.41 742.97 1284.41 742.214V621.249C1284.41 620.715 1284.09 620.225 1283.62 620.003L1265.67 611.505C1265.16 611.283 1264.88 610.794 1264.88 610.26L1264.74 597.536C1264.74 596.468 1263.57 595.845 1262.59 596.335L1216.43 619.958C1215.96 620.181 1215.64 620.67 1215.64 621.204V706.311C1215.64 707.068 1214.99 707.69 1214.19 707.69H1209.16C1208.36 707.69 1207.71 707.068 1207.71 706.311V644.872C1207.71 644.116 1207.06 643.493 1206.27 643.493H1188.45C1188.03 643.493 1187.66 643.315 1187.38 643.048L1180.71 636.33C1180.43 636.063 1180.06 635.885 1179.64 635.885H1153.44C1152.64 635.885 1151.99 636.508 1151.99 637.265V642.025C1151.99 642.781 1151.34 643.404 1150.54 643.404H1125.18C1124.39 643.404 1123.73 644.027 1123.73 644.783V688.427C1123.73 689.183 1123.08 689.806 1122.29 689.806H1117.67C1116.88 689.806 1116.23 689.183 1116.23 688.427V669.697C1116.23 668.941 1115.57 668.318 1114.78 668.318H1072.58C1071.79 668.318 1071.14 668.941 1071.14 669.697V688.427C1071.14 689.183 1070.48 689.806 1069.69 689.806H1065.08C1064.28 689.806 1063.63 690.429 1063.63 691.185L1063.63 706.602C1063.63 707.154 1063.18 707.602 1062.63 707.602H1047.07C1046.27 707.602 1045.62 706.979 1045.62 706.222V684.779C1045.62 684.022 1044.97 683.4 1044.17 683.4H1039.28C1038.49 683.4 1037.83 682.777 1037.83 682.02V662.401C1037.83 661.644 1037.18 661.022 1036.39 661.022H992.37C991.578 661.022 990.925 661.644 990.925 662.401V682.02C990.925 682.777 990.272 683.4 989.479 683.4H984.583C983.791 683.4 983.138 682.777 983.138 682.02V636.508C983.138 635.752 982.485 635.129 981.693 635.129H955.161C954.368 635.129 953.716 634.506 953.716 633.75V628.678C953.716 627.922 953.063 627.299 952.27 627.299H924.899C924.479 627.299 924.106 627.477 923.827 627.744L916.879 634.729C916.599 634.996 916.226 635.174 915.806 635.174H897.202C896.409 635.174 895.756 635.796 895.756 636.553V683.933C895.756 684.69 895.103 685.313 894.311 685.313H887.41C886.617 685.313 885.964 684.69 885.964 683.933V611.105C885.964 610.349 885.312 609.726 884.519 609.726H877.058C876.266 609.726 875.613 609.103 875.613 608.347V605.41C875.613 604.654 874.96 604.031 874.167 604.031H861.485C860.692 604.031 860.039 603.408 860.039 602.652V600.25C860.039 599.493 859.386 598.871 858.593 598.871H847.822C847.03 598.871 846.377 599.493 846.377 600.25V602.652C846.377 603.408 845.724 604.031 844.931 604.031H843.206C842.414 604.031 841.761 604.654 841.761 605.41V608.347C841.761 609.103 841.108 609.726 840.315 609.726H808.188C807.396 609.726 806.743 610.349 806.743 611.105V729.89C806.743 730.647 806.09 731.27 805.297 731.27H798.863C798.07 731.27 797.417 730.647 797.417 729.89V702.174C797.417 701.418 798.07 700.795 798.863 700.795H799.049C800.122 700.795 800.821 699.727 800.401 698.837L798.816 695.501C798.583 695.011 798.07 694.7 797.464 694.7H753.866C753.074 694.7 752.421 694.077 752.421 693.321V661.867C752.421 661.111 753.074 660.488 753.866 660.488C754.659 660.488 755.312 659.865 755.312 659.109V655.772C755.312 655.016 754.659 654.393 753.866 654.393H746.546C745.753 654.393 745.1 653.77 745.1 653.014V649.677C745.1 648.921 744.448 648.298 743.655 648.298H701.549C700.757 648.298 700.104 648.921 700.104 649.677V653.014C700.104 653.77 699.451 654.393 698.659 654.393H691.338C690.545 654.393 689.892 655.016 689.892 655.772V659.109C689.892 659.865 690.545 660.488 691.338 660.488C692.131 660.488 692.783 661.111 692.783 661.867V706.356C692.783 707.112 692.131 707.735 691.338 707.735H681.22C680.427 707.735 679.774 707.112 679.774 706.356V623.384C679.774 622.628 679.121 622.005 678.329 622.005H666.858C666.438 622.005 666.019 621.827 665.739 621.515L649.839 603.586C649.233 602.919 648.207 602.919 647.601 603.586L631.7 621.515C631.421 621.827 631.001 622.005 630.581 622.005H597.802C597.009 622.005 596.356 622.628 596.356 623.384V664.091C596.356 664.848 595.703 665.471 594.911 665.471H571.224C570.431 665.471 569.778 666.093 569.778 666.85V690.607C569.778 691.363 569.125 691.986 568.332 691.986H545.205C544.412 691.986 543.759 692.609 543.759 693.365V720.37C543.759 721.126 543.107 721.749 542.314 721.749H534.947C534.154 721.749 533.501 721.126 533.501 720.37V607.991C533.501 607.234 532.848 606.612 532.056 606.612H523.896C523.29 606.612 522.777 606.256 522.544 605.766L517.601 594.288C517.368 593.754 516.855 593.443 516.249 593.443H461.041C460.435 593.443 459.922 593.799 459.689 594.288L454.746 605.766C454.513 606.3 454 606.612 453.394 606.612H445.234C444.441 606.612 443.788 607.234 443.788 607.991V683.933C443.788 684.69 443.136 685.313 442.343 685.313H435.768C434.976 685.313 434.323 684.69 434.323 683.933V643.048C434.323 642.648 434.137 642.247 433.81 641.98L414.133 626.053C413.807 625.786 413.62 625.386 413.62 624.986V616.444C413.62 615.687 412.967 615.065 412.175 615.065H387.508C386.715 615.065 386.063 614.442 386.063 613.685V600.65C386.063 600.25 385.876 599.894 385.597 599.627L368.624 584.234C368.344 583.967 367.971 583.833 367.598 583.833H345.449C344.657 583.833 344.004 584.456 344.004 585.212V720.325C344.004 721.082 343.351 721.705 342.559 721.705H336.497C335.704 721.705 335.051 721.082 335.051 720.325V701.907C335.051 701.151 334.399 700.528 333.606 700.528H319.198C318.405 700.528 317.752 699.905 317.752 699.149V689.939C317.752 689.406 317.426 688.916 316.913 688.694L300.267 681.175C299.754 680.953 299.427 680.463 299.427 679.929V640.423C299.427 639.667 298.775 639.044 297.982 639.044H282.128C281.336 639.044 280.683 638.421 280.683 637.665V633.705C280.683 633.083 280.263 632.549 279.61 632.371L263.524 628.1C263.524 628.1 263.244 628.055 263.151 628.055H225.801C225.009 628.055 224.356 628.678 224.356 629.434V637.665C224.356 638.421 223.703 639.044 222.91 639.044H207.057C206.264 639.044 205.611 639.667 205.611 640.423V729.49C205.611 730.246 204.959 730.869 204.166 730.869H199.363C198.571 730.869 197.918 730.246 197.918 729.49V695.056C197.918 694.299 197.265 693.676 196.472 693.676H181.598C180.805 693.676 180.152 694.299 180.152 695.056V742.214C180.152 742.97 179.499 743.593 178.707 743.593H172.785C171.992 743.593 171.339 742.97 171.339 742.214V621.249C171.339 620.715 171.013 620.225 170.547 620.003L152.595 611.505C152.082 611.283 151.802 610.794 151.802 610.26L151.662 597.536C151.662 596.468 150.497 595.845 149.518 596.335L103.355 619.958C102.889 620.181 102.563 620.67 102.563 621.204V706.311C102.563 707.068 101.91 707.69 101.117 707.69H96.0814C95.2887 707.69 94.6359 707.068 94.6359 706.311V644.872C94.6359 644.116 93.9832 643.493 93.1905 643.493H75.3784C74.9588 643.493 74.5859 643.315 74.3061 643.048L67.6383 636.33C67.3585 636.063 66.9854 635.885 66.5658 635.885H40.3607C39.568 635.885 38.9152 636.508 38.9152 637.265V642.025C38.9152 642.781 38.2625 643.404 37.4698 643.404H12.1039C11.3112 643.404 10.6584 644.027 10.6584 644.783V688.427C10.6584 689.183 10.0057 689.806 9.21298 689.806H4.59676C3.80408 689.806 3.15129 689.183 3.15129 688.427V669.697C3.15129 668.941 2.49851 668.318 1.70583 668.318H-40.4928C-41.2854 668.318 -41.9382 668.941 -41.9382 669.697V688.427C-41.9382 689.183 -42.591 689.806 -43.3837 689.806H-47.9999C-48.7926 689.806 -49.4454 690.429 -49.4454 691.185C-49.4454 708.883 -49.4456 743.719 -49.4459 787.066C-49.4468 915.955 -49.4481 1120.1 -49.4454 1172.72H2179.54Z" fill="#5E186C"/>
<path opacity="0.5" d="M1097.71 812.336V893.121C1097.71 893.673 1098.16 894.121 1098.71 894.121H1099.32C1099.87 894.121 1100.3 894.63 1100.69 895.02C1100.94 895.261 1101.28 895.414 1101.67 895.414H1102.88V891.882C1102.88 891.186 1103.46 890.589 1104.24 890.589H1109.98C1110.71 890.589 1111.33 890.042 1111.33 889.295V830.544C1111.33 829.847 1110.76 829.25 1109.98 829.25H1109.51C1108.78 829.25 1108.15 828.703 1108.15 827.957V823.778C1108.15 823.082 1108.72 822.485 1109.51 822.485H1118.11C1118.84 822.485 1119.47 821.938 1119.47 821.191V817.013C1119.47 816.316 1120.04 815.719 1120.82 815.719H1168.13C1168.86 815.719 1169.48 816.266 1169.48 817.013V821.191C1169.48 821.888 1170.06 822.485 1170.84 822.485H1179.44C1180.17 822.485 1180.8 823.032 1180.8 823.778V827.957C1180.8 828.654 1180.23 829.25 1179.44 829.25H1178.97C1178.24 829.25 1177.62 829.798 1177.62 830.544V865.964C1177.62 866.66 1178.19 867.257 1178.97 867.257H1227.84C1228.36 867.257 1228.88 867.606 1229.09 868.053L1231.07 872.232C1231.49 873.078 1230.81 874.073 1229.82 874.073H1229.04C1228.31 874.073 1227.68 874.62 1227.68 875.366V910.339C1227.68 911.035 1228.26 911.632 1229.04 911.632H1235.45C1236.19 911.632 1236.81 911.085 1236.81 910.339V772.041C1236.81 771.345 1237.38 770.748 1238.17 770.748H1261.84C1262.57 770.748 1263.2 770.2 1263.2 769.454V765.773C1263.2 765.076 1263.77 764.48 1264.56 764.48H1266.96C1267.69 764.48 1268.31 763.932 1268.31 763.186V760.102C1268.31 759.405 1268.88 758.808 1269.67 758.808H1282.03C1282.76 758.808 1283.38 759.356 1283.38 760.102V763.186C1283.38 763.883 1283.96 764.48 1284.74 764.48H1299.24C1299.97 764.48 1300.59 765.027 1300.59 765.773V769.454C1300.59 770.151 1301.17 770.748 1301.95 770.748H1310.71C1311.44 770.748 1312.07 771.295 1312.07 772.041V864.82C1312.07 865.516 1312.64 866.113 1313.42 866.113H1323.18C1323.91 866.113 1324.53 865.566 1324.53 864.82V755.227C1324.53 754.53 1323.96 753.933 1323.18 753.933H1322.13C1321.4 753.933 1320.78 753.386 1320.78 752.64V749.058C1320.78 748.361 1321.35 747.764 1322.13 747.764H1328.5C1329.23 747.764 1329.85 747.217 1329.85 746.471V746.222C1329.85 745.526 1330.43 744.929 1331.21 744.929H1335.12C1335.85 744.929 1336.47 744.382 1336.47 743.635V733.686C1336.47 733.089 1335.95 732.641 1335.38 732.641C1334.75 732.641 1334.28 732.144 1334.28 731.597V728.96C1334.28 728.263 1334.86 727.667 1335.64 727.667H1346.59C1347.32 727.667 1347.95 727.119 1347.95 726.373V726.224C1347.95 725.527 1348.52 724.93 1349.3 724.93C1350.03 724.93 1350.66 724.383 1350.66 723.637V723.09C1350.66 722.393 1351.23 721.796 1352.02 721.796H1365.52C1366.25 721.796 1366.88 722.344 1366.88 723.09V723.637C1366.88 724.333 1367.45 724.93 1368.24 724.93C1368.97 724.93 1369.59 725.478 1369.59 726.224V726.373C1369.59 727.07 1370.17 727.667 1370.95 727.667H1381.9C1382.63 727.667 1383.26 728.214 1383.26 728.96V731.597C1383.26 732.194 1382.73 732.641 1382.16 732.641C1381.53 732.641 1381.07 733.139 1381.07 733.686V743.635C1381.07 744.332 1381.64 744.929 1382.42 744.929H1386.33C1387.06 744.929 1387.69 745.476 1387.69 746.222V746.471C1387.69 747.167 1388.26 747.764 1389.04 747.764H1395.41C1396.14 747.764 1396.76 748.312 1396.76 749.058V752.64C1396.76 753.336 1396.19 753.933 1395.41 753.933H1394.36C1393.63 753.933 1393.01 754.48 1393.01 755.227V898.399C1393.01 899.096 1393.58 899.693 1394.36 899.693H1402.03C1402.76 899.693 1403.39 899.145 1403.39 898.399V807.809C1403.39 807.113 1403.96 806.516 1404.74 806.516H1412.77C1413.3 806.516 1413.82 806.168 1414.03 805.72L1418.82 795.522C1419.03 795.024 1419.55 794.726 1420.08 794.726H1473.84C1474.37 794.726 1474.89 795.074 1475.1 795.522L1479.89 805.72C1480.1 806.217 1480.62 806.516 1481.15 806.516H1489.18C1489.91 806.516 1490.53 807.063 1490.53 807.809V916.01C1490.53 916.706 1491.11 917.303 1491.89 917.303H1495.85C1496.58 917.303 1497.21 916.756 1497.21 916.01V886.559C1497.21 885.863 1497.78 885.266 1498.57 885.266H1501.9C1502.63 885.266 1503.26 884.719 1503.26 883.972V869.098C1503.26 868.402 1503.83 867.805 1504.61 867.805H1538.57C1539.3 867.805 1539.92 868.352 1539.92 869.098V883.972C1539.92 884.669 1540.5 885.266 1541.28 885.266H1544.62C1545.35 885.266 1545.97 884.719 1545.97 883.972V848.801C1545.97 848.105 1546.55 847.508 1547.33 847.508H1567.62C1568.35 847.508 1568.97 846.961 1568.97 846.214V842.682C1568.97 841.986 1569.55 841.389 1570.33 841.389H1591.4C1591.76 841.389 1592.13 841.538 1592.39 841.787L1597.71 847.11C1597.97 847.358 1598.33 847.508 1598.7 847.508H1612.94C1613.67 847.508 1614.29 848.055 1614.29 848.801V890.937C1614.29 891.634 1614.87 892.231 1615.65 892.231H1620.76C1621.49 892.231 1622.11 891.634 1622.11 890.887L1621.18 847.259C1621.12 846.513 1621.75 845.916 1622.53 845.916H1626.39C1627.12 845.916 1627.75 845.369 1627.75 844.622V838.802C1627.75 838.105 1628.32 837.509 1629.1 837.509H1631.03C1631.76 837.509 1632.39 836.961 1632.39 836.215V827.012C1632.39 826.664 1632.55 826.315 1632.81 826.067L1657.94 802.735C1658.47 802.238 1659.35 802.238 1659.87 802.735L1685.06 826.067C1685.32 826.315 1685.48 826.664 1685.48 827.012V836.215C1685.48 836.912 1686.05 837.509 1686.84 837.509H1688.77C1689.5 837.509 1690.12 838.056 1690.12 838.802V844.622C1690.12 845.319 1690.7 845.916 1691.48 845.916H1695.39C1696.12 845.916 1696.75 846.463 1696.75 847.16L1697.63 867.705C1697.63 868.402 1698.26 868.949 1698.99 868.949H1705.98C1706.71 868.949 1707.33 868.402 1707.33 867.655V813.033C1707.33 812.336 1706.76 811.739 1705.98 811.739H1705.66C1704.93 811.739 1704.31 811.192 1704.31 810.446V805.521C1704.31 804.825 1704.88 804.228 1705.66 804.228H1714.48C1715.21 804.228 1715.83 803.68 1715.83 802.934V799.651C1715.83 798.954 1716.41 798.357 1717.19 798.357H1750.62C1751.35 798.357 1751.98 798.905 1751.98 799.651V802.934C1751.98 803.631 1752.55 804.228 1753.33 804.228H1781.6C1782.33 804.228 1782.95 804.775 1782.95 805.521V810.446C1782.95 811.142 1782.38 811.739 1781.6 811.739H1781.28C1780.55 811.739 1779.93 812.287 1779.93 813.033V916.01C1779.93 916.706 1780.5 917.303 1781.28 917.303H1786.66C1787.39 917.303 1788.01 916.756 1788.01 916.01V888.002C1788.01 887.306 1787.44 886.709 1786.66 886.709H1786.5C1785.51 886.709 1784.83 885.763 1785.25 884.868L1786.76 881.684C1786.97 881.187 1787.49 880.888 1788.01 880.888H1829.21C1829.94 880.888 1830.57 880.341 1830.57 879.595V849.896C1830.57 849.199 1830 848.602 1829.21 848.602C1828.48 848.602 1827.86 848.055 1827.86 847.309V844.125C1827.86 843.428 1828.43 842.831 1829.21 842.831H1836.1C1836.83 842.831 1837.45 842.284 1837.45 841.538V838.354C1837.45 837.658 1838.03 837.061 1838.81 837.061H1878.6C1879.33 837.061 1879.96 837.608 1879.96 838.354V841.538C1879.96 842.235 1880.53 842.831 1881.31 842.831H1888.2C1888.93 842.831 1889.55 843.379 1889.55 844.125V847.309C1889.55 848.005 1888.98 848.602 1888.2 848.602C1887.47 848.602 1886.84 849.149 1886.84 849.896V876.361C1886.84 877.058 1887.42 877.655 1888.2 877.655H1898.21C1898.94 877.655 1899.57 877.107 1899.57 876.361V801.939C1899.57 801.044 1900.51 800.397 1901.39 800.696L1972.74 822.684C1973.31 822.833 1973.68 823.38 1973.68 823.928V886.211C1973.68 886.908 1974.25 887.505 1975.03 887.505H1980.87C1981.6 887.505 1982.23 886.957 1982.23 886.211V863.526C1982.23 862.83 1982.8 862.233 1983.59 862.233H2002.2C2002.93 862.233 2003.56 862.78 2003.56 863.526V903.772C2003.56 904.468 2004.13 905.065 2004.92 905.065H2010.18C2010.91 905.065 2011.54 904.518 2011.54 903.772V800.546C2011.54 799.85 2012.11 799.253 2012.89 799.253H2031.77C2032.5 799.253 2033.13 798.706 2033.13 797.959V787.91C2033.13 787.214 2033.7 786.617 2034.49 786.617H2078.24L2097.02 791.592C2097.59 791.791 2098.01 792.288 2098.01 792.885V797.959C2098.01 798.656 2098.58 799.253 2099.36 799.253H2118.24C2118.97 799.253 2119.6 799.8 2119.6 800.546V846.513C2119.6 847.01 2119.91 847.508 2120.38 847.707L2139.89 856.562C2140.36 856.761 2140.67 857.258 2140.67 857.756V868.849C2140.67 869.546 2141.24 870.143 2142.03 870.143H2159.24C2159.97 870.143 2160.59 870.69 2160.59 871.436V890.887C2160.59 891.584 2161.17 892.181 2161.95 892.181H2168.68C2169.41 892.181 2170.03 891.634 2170.03 890.887V798.805C2170.03 798.109 2170.6 797.512 2171.39 797.512H2224.9C2225.63 797.512 2226.25 796.964 2226.25 796.218V784.378C2226.25 783.682 2226.83 783.085 2227.61 783.085H2256.5C2257.23 783.085 2257.86 783.632 2257.86 784.378V796.218C2257.86 796.915 2258.43 797.512 2259.21 797.512H2264.64C2265.37 797.512 2265.99 798.059 2265.99 798.805V912.279C2265.99 912.975 2266.57 913.572 2267.35 913.572H2274.75C2275.48 913.572 2276.11 913.025 2276.11 912.279V812.336C2276.11 811.64 2276.68 811.043 2277.47 811.043H2283.78C2284.51 811.043 2285.13 810.496 2285.13 809.75V807.411C2285.13 806.715 2285.71 806.118 2286.49 806.118H2297.34C2298.07 806.118 2298.69 805.571 2298.69 804.825V802.934C2298.69 802.238 2299.27 801.641 2300.05 801.641H2309.23C2309.96 801.641 2310.58 802.188 2310.58 802.934V804.825C2310.58 805.521 2311.16 806.118 2311.94 806.118H2313.24C2313.97 806.118 2314.6 806.665 2314.6 807.411V809.75C2314.6 810.446 2315.17 811.043 2315.95 811.043H2343.7C2344.43 811.043 2345.06 811.59 2345.06 812.336V894.121H2347.66C2347.66 894.817 2348.24 895.414 2349.02 895.414H2351.73C2352.46 895.414 2353.09 895.962 2353.09 896.708V1004.06C2353.09 1004.76 2352.51 1104.2 2351.73 1104.2H-143.106C-143.837 1104.2 -144.462 1004.81 -144.462 1004.06V891.882C-144.462 891.186 -143.889 890.589 -143.106 890.589H-137.37C-136.639 890.589 -136.014 890.042 -136.014 889.295V830.544C-136.014 829.847 -136.587 829.25 -137.37 829.25H-137.839C-138.569 829.25 -139.195 828.703 -139.195 827.957V823.778C-139.195 823.082 -138.621 822.485 -137.839 822.485H-129.234C-128.504 822.485 -127.878 821.938 -127.878 821.191V817.013C-127.878 816.316 -127.304 815.719 -126.522 815.719H-79.2194C-78.4893 815.719 -77.8635 816.266 -77.8635 817.013V821.191C-77.8635 821.888 -77.2898 822.485 -76.5075 822.485H-67.9023C-67.1722 822.485 -66.5463 823.032 -66.5463 823.778V827.957C-66.5463 828.654 -67.12 829.25 -67.9023 829.25H-68.3717C-69.1018 829.25 -69.7276 829.798 -69.7276 830.544V865.964C-69.7276 866.66 -69.154 867.257 -68.3717 867.257H-19.5046C-18.9831 867.257 -18.4616 867.606 -18.253 868.053L-16.2712 872.232C-15.854 873.078 -16.5319 874.073 -17.5228 874.073H-18.3051C-19.0352 874.073 -19.6611 874.62 -19.6611 875.366V910.339C-19.6611 911.035 -19.0873 911.632 -18.3051 911.632H-11.8904C-11.1602 911.632 -10.5343 911.085 -10.5343 910.339V772.041C-10.5343 771.345 -9.96063 770.748 -9.17834 770.748H14.4989C15.229 770.748 15.8549 770.2 15.8549 769.454V765.773C15.8549 765.076 16.4286 764.48 17.2109 764.48H19.6099C20.34 764.48 20.9659 763.932 20.9659 763.186V760.102C20.9659 759.405 21.5395 758.808 22.3218 758.808H34.6821C35.4122 758.808 36.0379 759.356 36.0379 760.102V763.186C36.0379 763.883 36.6117 764.48 37.394 764.48H51.8924C52.6225 764.48 53.2484 765.027 53.2484 765.773V769.454C53.2484 770.151 53.822 770.748 54.6043 770.748H63.3661C64.0962 770.748 64.7219 771.295 64.7219 772.041V864.82C64.7219 865.516 65.2957 866.113 66.0779 866.113H75.8305C76.5606 866.113 77.1865 865.566 77.1865 864.82V755.227C77.1865 754.53 76.6128 753.933 75.8305 753.933H74.7875C74.0574 753.933 73.4315 753.386 73.4315 752.64V749.058C73.4315 748.361 74.0052 747.764 74.7875 747.764H81.1501C81.8803 747.764 82.506 747.217 82.506 746.471V746.222C82.506 745.526 83.0797 744.929 83.862 744.929H87.7735C88.5036 744.929 89.1295 744.382 89.1295 743.635V733.686C89.1295 733.089 88.6078 732.641 88.0342 732.641C87.4083 732.641 86.939 732.144 86.939 731.597V728.96C86.939 728.263 87.5127 727.667 88.295 727.667H99.247C99.9771 727.667 100.603 727.119 100.603 726.373V726.224C100.603 725.527 101.177 724.93 101.959 724.93C102.689 724.93 103.315 724.383 103.315 723.637V723.09C103.315 722.393 103.889 721.796 104.671 721.796H118.178C118.909 721.796 119.534 722.344 119.534 723.09V723.637C119.534 724.333 120.108 724.93 120.89 724.93C121.621 724.93 122.246 725.478 122.246 726.224V726.373C122.246 727.07 122.82 727.667 123.602 727.667H134.554C135.285 727.667 135.91 728.214 135.91 728.96V731.597C135.91 732.194 135.389 732.641 134.815 732.641C134.189 732.641 133.72 733.139 133.72 733.686V743.635C133.72 744.332 134.294 744.929 135.076 744.929H138.987C139.718 744.929 140.343 745.476 140.343 746.222V746.471C140.343 747.167 140.917 747.764 141.699 747.764H148.062C148.792 747.764 149.418 748.312 149.418 749.058V752.64C149.418 753.336 148.844 753.933 148.062 753.933H147.019C146.289 753.933 145.663 754.48 145.663 755.227V898.399C145.663 899.096 146.237 899.693 147.019 899.693H154.685C155.415 899.693 156.041 899.145 156.041 898.399V807.809C156.041 807.113 156.615 806.516 157.397 806.516H165.429C165.95 806.516 166.472 806.168 166.681 805.72L171.478 795.522C171.687 795.024 172.209 794.726 172.73 794.726H226.5C227.021 794.726 227.543 795.074 227.751 795.522L232.549 805.72C232.758 806.217 233.279 806.516 233.801 806.516H241.833C242.563 806.516 243.188 807.063 243.188 807.809V916.01C243.188 916.706 243.762 917.303 244.544 917.303H248.508C249.238 917.303 249.864 916.756 249.864 916.01V886.559C249.864 885.863 250.438 885.266 251.22 885.266H254.558C255.288 885.266 255.914 884.719 255.914 883.972V869.098C255.914 868.402 256.487 867.805 257.27 867.805H291.221C291.951 867.805 292.577 868.352 292.577 869.098V883.972C292.577 884.669 293.151 885.266 293.933 885.266H297.271C298.001 885.266 298.627 884.719 298.627 883.972V848.801C298.627 848.105 299.2 847.508 299.983 847.508H320.27C321 847.508 321.626 846.961 321.626 846.214V842.682C321.626 841.986 322.2 841.389 322.982 841.389H344.052C344.417 841.389 344.782 841.538 345.043 841.787L350.362 847.11C350.623 847.358 350.988 847.508 351.353 847.508H365.591C366.321 847.508 366.947 848.055 366.947 848.801V890.937C366.947 891.634 367.52 892.231 368.303 892.231H373.414C374.144 892.231 374.77 891.634 374.77 890.887L373.831 847.259C373.779 846.513 374.405 845.916 375.187 845.916H379.046C379.776 845.916 380.402 845.369 380.402 844.622V838.802C380.402 838.105 380.976 837.509 381.758 837.509H383.688C384.418 837.509 385.044 836.961 385.044 836.215V827.012C385.044 826.664 385.2 826.315 385.461 826.067L410.599 802.735C411.12 802.238 412.007 802.238 412.528 802.735L437.718 826.067C437.979 826.315 438.135 826.664 438.135 827.012V836.215C438.135 836.912 438.709 837.509 439.491 837.509H441.421C442.151 837.509 442.777 838.056 442.777 838.802V844.622C442.777 845.319 443.35 845.916 444.133 845.916H448.044C448.774 845.916 449.4 846.463 449.4 847.16L450.287 867.705C450.287 868.402 450.912 868.949 451.643 868.949H458.631C459.361 868.949 459.987 868.402 459.987 867.655V813.033C459.987 812.336 459.413 811.739 458.631 811.739H458.318C457.588 811.739 456.962 811.192 456.962 810.446V805.521C456.962 804.825 457.536 804.228 458.318 804.228H467.132C467.862 804.228 468.488 803.68 468.488 802.934V799.651C468.488 798.954 469.062 798.357 469.844 798.357H503.274C504.004 798.357 504.63 798.905 504.63 799.651V802.934C504.63 803.631 505.203 804.228 505.986 804.228H534.252C534.983 804.228 535.609 804.775 535.609 805.521V810.446C535.609 811.142 535.035 811.739 534.252 811.739H533.94C533.209 811.739 532.584 812.287 532.584 813.033V916.01C532.584 916.706 533.157 917.303 533.94 917.303H539.311C540.041 917.303 540.667 916.756 540.667 916.01V888.002C540.667 887.306 540.094 886.709 539.311 886.709H539.155C538.164 886.709 537.486 885.763 537.903 884.868L539.416 881.684C539.624 881.187 540.146 880.888 540.667 880.888H581.868C582.598 880.888 583.224 880.341 583.224 879.595V849.896C583.224 849.199 582.65 848.602 581.868 848.602C581.138 848.602 580.512 848.055 580.512 847.309V844.125C580.512 843.428 581.086 842.831 581.868 842.831H588.752C589.482 842.831 590.108 842.284 590.108 841.538V838.354C590.108 837.658 590.682 837.061 591.464 837.061H631.257C631.987 837.061 632.612 837.608 632.612 838.354V841.538C632.612 842.235 633.186 842.831 633.969 842.831H640.853C641.583 842.831 642.209 843.379 642.209 844.125V847.309C642.209 848.005 641.635 848.602 640.853 848.602C640.122 848.602 639.497 849.149 639.497 849.896V876.361C639.497 877.058 640.07 877.655 640.853 877.655H650.866C651.596 877.655 652.222 877.107 652.222 876.361V801.939C652.222 801.044 653.161 800.397 654.047 800.696L725.392 822.684C725.966 822.833 726.331 823.38 726.331 823.928V886.211C726.331 886.908 726.904 887.505 727.687 887.505H733.528C734.258 887.505 734.884 886.957 734.884 886.211V863.526C734.884 862.83 735.458 862.233 736.24 862.233H754.858C755.589 862.233 756.214 862.78 756.214 863.526V903.772C756.214 904.468 756.788 905.065 757.57 905.065H762.838C763.568 905.065 764.194 904.518 764.194 903.772V800.546C764.194 799.85 764.767 799.253 765.55 799.253H784.429C785.159 799.253 785.785 798.706 785.785 797.959V787.91C785.785 787.214 786.359 786.617 787.141 786.617H830.897L849.672 791.592C850.246 791.791 850.663 792.288 850.663 792.885V797.959C850.663 798.656 851.237 799.253 852.019 799.253H870.898C871.628 799.253 872.254 799.8 872.254 800.546V846.513C872.254 847.01 872.567 847.508 873.036 847.707L892.541 856.562C893.011 856.761 893.324 857.258 893.324 857.756V868.849C893.324 869.546 893.897 870.143 894.68 870.143H911.89C912.62 870.143 913.246 870.69 913.246 871.436V890.887C913.246 891.584 913.82 892.181 914.602 892.181H921.33C922.06 892.181 922.686 891.634 922.686 890.887V798.805C922.686 798.109 923.259 797.512 924.042 797.512H977.55C978.28 797.512 978.906 796.964 978.906 796.218V784.378C978.906 783.682 979.48 783.085 980.262 783.085H1009.15C1009.89 783.085 1010.51 783.632 1010.51 784.378V796.218C1010.51 796.915 1011.08 797.512 1011.87 797.512H1017.29C1018.02 797.512 1018.65 798.059 1018.65 798.805V912.279C1018.65 912.975 1019.22 913.572 1020 913.572H1027.41C1028.14 913.572 1028.76 913.025 1028.76 912.279V812.336C1028.76 811.64 1029.34 811.043 1030.12 811.043H1036.43C1037.16 811.043 1037.79 810.496 1037.79 809.75V807.411C1037.79 806.715 1038.36 806.118 1039.14 806.118H1049.99C1050.72 806.118 1051.35 805.571 1051.35 804.825V802.934C1051.35 802.238 1051.92 801.641 1052.7 801.641H1061.88C1062.61 801.641 1063.24 802.188 1063.24 802.934V804.825C1063.24 805.521 1063.81 806.118 1064.59 806.118H1065.9C1066.63 806.118 1067.25 806.665 1067.25 807.411V809.75C1067.25 810.446 1067.83 811.043 1068.61 811.043H1096.35C1097.08 811.043 1097.71 811.59 1097.71 812.336Z" fill="#5E186C"/>
</g>
<path d="M1437.14 305.513C1554.53 305.449 1540.87 393.026 1671.87 413.996C1802.86 434.967 1903 466.769 1903 592.475C1903 709.094 1799.8 782.967 1683.94 782.967C1568.08 782.967 1133.9 854.789 1133.25 672.745C1132.69 518.262 1238.46 539.209 1270.82 474.376C1303.19 409.544 1315.17 305.584 1437.14 305.513Z" fill="#8B3D99"/>
<mask id="mask0_1357_6468" style="mask-type:alpha" maskUnits="userSpaceOnUse" x="1133" y="260" width="770" height="537">
<path d="M1903 260.574C1903 333.781 1903 463.526 1903 592.476C1903 709.095 1799.8 782.968 1683.94 782.968C1568.08 782.968 1133.9 854.791 1133.25 672.746C1132.69 517.16 1133.25 335.234 1133.25 260.577C1386.81 260.58 1646.09 260.574 1903 260.574Z" fill="#8B3D99"/>
</mask>
<g mask="url(#mask0_1357_6468)">
<path d="M1694.63 759.568C1665.23 759.719 1640.75 747.725 1623.51 727.529C1582.16 679.151 1589.3 593.903 1593.97 535.259C1595.81 512.177 1616.04 494.95 1639.11 496.795C1662.19 498.64 1679.42 518.837 1677.57 541.935C1675.81 563.927 1672.81 591.588 1674.47 621.262C1676.52 657.797 1684.79 670.143 1687.27 673.045C1688.68 674.689 1689.62 675.427 1692.75 675.645C1696.73 675.93 1698.29 675.142 1700.32 673.297C1722.31 653.251 1724.24 580.433 1725.25 553.862C1726.12 530.713 1745.68 512.697 1768.74 513.536C1791.89 514.408 1809.94 533.884 1809.07 557.032C1809.02 558.307 1808.98 560.001 1808.93 562.031C1807.64 617.203 1800.83 695.187 1756.8 735.295C1739.42 751.131 1718.05 759.434 1694.62 759.568H1694.63Z" fill="#FCDABA"/>
<path d="M1767.17 597.392C1790.33 597.392 1809.1 578.616 1809.1 555.455C1809.1 532.294 1790.33 513.519 1767.17 513.519C1744.01 513.519 1725.23 532.294 1725.23 555.455C1725.23 578.616 1744.01 597.392 1767.17 597.392Z" fill="#FCDABA"/>
<path d="M1757.96 499.814L1737.36 525.966L1796.97 584.962L1839.78 584.727L1839.35 499.378L1757.96 499.814Z" fill="#FCDABA"/>
<path d="M1725.23 555.673C1725.06 548.863 1725.35 538.429 1727.93 526.1C1731.35 509.845 1736.25 502.649 1740.09 489.699C1742.49 481.563 1744.77 470.174 1744.42 455.429C1744.27 449.239 1749.13 444.089 1755.32 444.005C1761.04 443.938 1765.92 448.249 1766.46 453.953C1767.47 464.722 1767.43 475.776 1766.23 487.015C1769.85 490.538 1777.36 498.841 1780.01 511.691C1784.88 535.242 1769.11 553.325 1767.17 555.455L1725.23 555.673Z" fill="#FCDABA"/>
<path d="M1756.71 564.782C1760.02 560.538 1770.08 546.565 1770.22 526.05C1770.35 506.474 1761.39 492.836 1758.17 488.374C1759.75 487.2 1762.52 484.801 1764.6 480.826C1766.73 476.766 1767.08 473.026 1767.13 471.063C1767.06 474.267 1766.91 477.572 1766.7 480.994C1766.56 483.04 1766.39 485.053 1766.21 487.016C1780.79 494.749 1789.73 509.93 1789.06 525.882C1788.28 544.066 1775.15 560.069 1756.71 564.799V564.782Z" fill="#DCAC82"/>
<g clip-path="url(#clip2_1357_6468)">
<path d="M1851.67 581.107V417.33C1851.67 413.651 1848.67 410.67 1844.98 410.67H1772.37C1768.68 410.67 1765.68 413.651 1765.68 417.33V581.107C1765.68 584.785 1768.68 587.767 1772.37 587.767H1844.98C1848.67 587.767 1851.67 584.785 1851.67 581.107Z" fill="#403556"/>
<path d="M1851.67 575.97V412.193C1851.67 408.515 1848.67 405.533 1844.98 405.533H1772.37C1768.68 405.533 1765.68 408.515 1765.68 412.193V575.97C1765.68 579.649 1768.68 582.63 1772.37 582.63H1844.98C1848.67 582.63 1851.67 579.649 1851.67 575.97Z" fill="#2C2044"/>
<path d="M1847.49 568.643V419.521C1847.49 417.696 1846.01 416.217 1844.18 416.217H1773.16C1771.33 416.217 1769.84 417.696 1769.84 419.521V568.643C1769.84 570.468 1771.33 571.947 1773.16 571.947H1844.18C1846.01 571.947 1847.49 570.468 1847.49 568.643Z" fill="#742384"/>
<path d="M1800.01 412.81H1817.33C1818.33 412.81 1819.15 411.997 1819.15 410.995V410.772C1819.15 409.77 1818.33 408.957 1817.33 408.957H1800.01C1799 408.957 1798.19 409.77 1798.19 410.772V410.995C1798.19 411.997 1799 412.81 1800.01 412.81Z" fill="#544A69"/>
<path d="M1829.58 507.352C1824.46 507.447 1818.65 508.001 1813.28 508.677C1813.88 506.511 1814.48 504.373 1814.48 504.373C1814.48 504.373 1815.09 505.699 1816.83 505.565C1819.29 505.373 1822.29 502.969 1823.74 498.563C1825.28 493.883 1825.14 488.568 1822 488.122C1819.45 487.761 1818.24 490.015 1818.06 490.464C1818.06 490.464 1818.6 488.417 1816.99 488.774C1815.44 489.117 1815.16 489.808 1814.78 491.045C1814.71 491.262 1813.4 496.125 1812.04 501.25C1812.02 501.284 1812 501.322 1811.99 501.365C1811.65 502.524 1810.99 502.912 1810.5 502.942C1808.94 503.044 1812.3 492.72 1812.55 491.937C1812.89 490.905 1813.09 490.122 1811.95 489.691C1811.18 489.4 1810.13 489.505 1809.82 490.331C1809.69 490.677 1809.6 490.932 1809.6 490.932C1809.6 490.932 1808.72 489.627 1806.79 489.804C1804.85 489.982 1802.4 492.347 1800.78 496.498C1799.16 500.649 1798.46 506.603 1802.3 507.196C1804.25 507.497 1805.89 506.378 1806.74 504.536C1806.74 504.536 1806.59 505.77 1807.88 506.374C1808.38 506.612 1809.64 506.519 1810.82 505.85C1810.51 507.02 1810.21 508.128 1809.95 509.117C1801.66 510.267 1795.13 511.552 1795.13 511.552C1795.13 511.546 1799.68 496.132 1800.7 492.74C1801.56 489.9 1799.94 490.518 1798.75 490.866C1797.48 491.236 1796.87 492.311 1796.24 494.264C1793.45 502.793 1791.26 505.448 1789.67 504.876C1788.21 504.351 1792.8 495.294 1791.7 494.098C1790.75 493.061 1788.78 493.116 1788.41 493.728C1788.03 494.339 1788.59 494.897 1788.35 495.762C1788.11 496.627 1786.27 501.308 1786.08 502.358C1785.89 503.405 1784.29 509.216 1788.51 508.966C1791 508.817 1792.71 506.927 1792.89 506.402C1792.11 508.659 1791 512.303 1791 512.303C1791 512.303 1785.9 513.582 1781.83 517.849C1778.61 521.236 1776.32 528.533 1781.14 529.696C1788.64 531.503 1792.18 520.031 1794 515.716C1800.07 514.359 1804.71 513.459 1808.99 512.788C1808.93 513.039 1808.88 513.209 1808.87 513.28C1808.48 515.076 1808.57 515.795 1809.96 515.622C1811.47 515.435 1811.66 514.659 1812.15 512.781C1812.19 512.652 1812.23 512.493 1812.28 512.308C1817.36 511.621 1822.34 511.19 1829.2 510.616C1831.34 510.437 1831.31 510.08 1831.52 508.803C1831.76 507.355 1830.09 507.344 1829.58 507.352ZM1816.5 497.453C1817.53 494.092 1818.47 492.746 1819.36 492.367C1821.47 491.459 1821.87 494.118 1820.24 498.156C1818.35 502.827 1816.15 502.721 1815.3 501.799C1815.3 501.799 1815.42 501.001 1816.5 497.453ZM1807.07 499.481C1806.16 501.674 1805.31 503.218 1804.15 503.227C1802.47 503.239 1802.52 500.715 1803.71 497.54C1804.71 494.871 1806.53 493.19 1807.52 492.999C1808.51 492.809 1809.65 493.223 1807.07 499.481ZM1784.93 525.007C1780.94 528.573 1781.95 523.689 1783.43 521.58C1786.24 517.575 1789.71 516.562 1789.71 516.562C1787.95 521.738 1785.74 524.276 1784.93 525.007Z" fill="white"/>
<path d="M1834.88 494.439C1836.38 492.691 1837.07 488.967 1834.55 487.597C1831.49 485.939 1827.51 488.47 1825.86 493.923C1824.4 498.772 1823.85 504.736 1828.81 504.516C1831.26 504.407 1833.37 502.642 1834.13 501.331C1834.5 500.695 1834.65 499.693 1834.59 499.248C1834.41 497.999 1833.64 497.817 1832.35 499.457C1832.03 499.819 1829.49 502.092 1828.24 500.742C1827.34 499.766 1828.1 497.851 1828.13 497.849C1829.76 497.73 1832.62 497.069 1834.88 494.439ZM1831.23 490.205C1832.6 488.92 1833.91 490.457 1832.32 492.669C1830.72 494.9 1828.85 494.843 1828.83 494.914C1829.03 494.041 1829.73 491.607 1831.23 490.205Z" fill="white"/>
<path d="M1807.87 475.182C1807.57 474.989 1807.12 474.893 1806.53 474.893H1804.75V477.363H1806.58C1807.74 477.363 1808.32 476.946 1808.32 476.112C1808.32 475.683 1808.17 475.374 1807.87 475.182Z" fill="#10CBB4"/>
<path d="M1808.82 463.687C1803.45 463.935 1799.06 468.26 1798.73 473.642C1798.51 477.285 1800.12 480.56 1802.72 482.636C1802.99 482.85 1803.15 483.173 1803.15 483.516V485.863C1803.15 486.043 1803.25 486.209 1803.41 486.292L1803.47 486.327C1803.62 486.407 1803.81 486.393 1803.95 486.292L1805.95 484.841C1806.22 484.651 1806.55 484.585 1806.86 484.66C1807.65 484.848 1808.47 484.948 1809.32 484.948C1815.17 484.948 1819.92 480.186 1819.92 474.311C1819.92 468.272 1814.9 463.406 1808.82 463.687ZM1809.69 477.515C1809.44 477.894 1809.12 478.174 1808.71 478.355C1808.45 478.463 1808.15 478.538 1807.82 478.583C1807.49 478.627 1807.1 478.649 1806.65 478.649H1804.08C1803.7 478.649 1803.44 478.566 1803.28 478.398C1803.12 478.231 1803.04 477.964 1803.04 477.599V471.24C1803.04 470.867 1803.12 470.598 1803.28 470.435C1803.45 470.271 1803.71 470.19 1804.08 470.19H1806.81C1807.21 470.19 1807.56 470.215 1807.85 470.264C1808.15 470.314 1808.41 470.411 1808.65 470.553C1808.85 470.672 1809.02 470.823 1809.18 471.006C1809.33 471.189 1809.45 471.391 1809.53 471.612C1809.61 471.833 1809.65 472.066 1809.65 472.313C1809.65 473.16 1809.23 473.778 1808.38 474.171C1809.49 474.525 1810.04 475.213 1810.04 476.236C1810.05 476.71 1809.93 477.136 1809.69 477.515ZM1815.68 477.849C1815.47 478.158 1815.16 478.394 1814.75 478.553C1814.34 478.713 1813.84 478.793 1813.24 478.793C1812.68 478.793 1812.2 478.707 1811.8 478.534C1811.39 478.361 1811.09 478.145 1810.9 477.885C1810.71 477.626 1810.62 477.366 1810.62 477.104C1810.62 476.931 1810.68 476.782 1810.8 476.659C1810.92 476.536 1811.08 476.475 1811.27 476.475C1811.43 476.475 1811.56 476.515 1811.65 476.595C1811.73 476.676 1811.82 476.789 1811.9 476.936C1812.06 477.217 1812.25 477.427 1812.48 477.565C1812.7 477.704 1813.01 477.773 1813.39 477.773C1813.71 477.773 1813.97 477.703 1814.17 477.563C1814.37 477.423 1814.47 477.262 1814.47 477.08C1814.47 476.803 1814.36 476.601 1814.16 476.475C1813.95 476.347 1813.6 476.227 1813.12 476.112C1812.58 475.977 1812.14 475.836 1811.8 475.687C1811.46 475.539 1811.19 475.344 1810.99 475.101C1810.79 474.859 1810.68 474.561 1810.68 474.207C1810.68 473.891 1810.78 473.593 1810.97 473.313C1811.15 473.032 1811.43 472.809 1811.8 472.641C1812.16 472.474 1812.61 472.39 1813.12 472.39C1813.53 472.39 1813.9 472.433 1814.22 472.518C1814.54 472.602 1814.81 472.716 1815.03 472.859C1815.25 473.002 1815.41 473.158 1815.52 473.331C1815.64 473.505 1815.69 473.674 1815.69 473.839C1815.69 474.019 1815.63 474.167 1815.51 474.284C1815.39 474.399 1815.22 474.457 1815 474.457C1814.84 474.457 1814.7 474.411 1814.59 474.318C1814.47 474.225 1814.34 474.087 1814.2 473.902C1814.08 473.749 1813.94 473.625 1813.78 473.534C1813.62 473.441 1813.4 473.395 1813.12 473.395C1812.84 473.395 1812.6 473.456 1812.41 473.577C1812.23 473.697 1812.13 473.848 1812.13 474.03C1812.13 474.195 1812.2 474.331 1812.34 474.437C1812.48 474.543 1812.66 474.63 1812.9 474.699C1813.13 474.769 1813.45 474.853 1813.86 474.953C1814.35 475.072 1814.75 475.215 1815.06 475.38C1815.37 475.545 1815.6 475.74 1815.76 475.966C1815.92 476.191 1816 476.448 1816 476.737C1816 477.168 1815.9 477.54 1815.68 477.849Z" fill="#10CBB4"/>
<path d="M1807.3 473.543C1807.53 473.463 1807.71 473.309 1807.83 473.082C1807.93 472.92 1807.98 472.74 1807.98 472.54C1807.98 472.113 1807.82 471.829 1807.52 471.689C1807.22 471.549 1806.76 471.478 1806.13 471.478H1804.75V473.665H1806.31C1806.74 473.664 1807.07 473.624 1807.3 473.543Z" fill="#10CBB4"/>
</g>
<path d="M1859.25 481.009C1864.67 479.042 1867.48 473.048 1865.51 467.622C1863.54 462.196 1857.55 459.393 1852.12 461.36L1842.41 464.882C1836.98 466.85 1834.18 472.843 1836.14 478.269C1838.11 483.695 1844.11 486.499 1849.53 484.531L1859.25 481.009Z" fill="#FCDABA"/>
<path d="M1860.26 510.824C1865.93 509.749 1869.66 504.281 1868.59 498.61C1867.51 492.94 1862.04 489.214 1856.37 490.288L1844.24 492.587C1838.57 493.661 1834.85 499.13 1835.92 504.8C1837 510.471 1842.46 514.197 1848.13 513.122L1860.26 510.824Z" fill="#FCDABA"/>
<path d="M1861.13 539.49C1866.88 538.928 1871.08 533.816 1870.52 528.071C1869.95 522.327 1864.84 518.126 1859.1 518.689L1847.18 519.855C1841.43 520.417 1837.23 525.53 1837.8 531.274C1838.36 537.018 1843.47 541.219 1849.21 540.657L1861.13 539.49Z" fill="#FCDABA"/>
<path d="M1857.77 568.034C1863.51 567.472 1867.71 562.36 1867.15 556.615C1866.59 550.871 1861.48 546.67 1855.73 547.232L1845.4 548.244C1839.65 548.806 1835.45 553.919 1836.01 559.663C1836.58 565.407 1841.69 569.608 1847.43 569.046L1857.77 568.034Z" fill="#FCDABA"/>
<path d="M1687.12 619.282C1674.97 623.107 1656.72 627.317 1634.36 626.881C1614.58 626.495 1598.33 622.637 1586.96 618.98C1586.64 602.357 1587.34 583.855 1589.82 563.859C1590.93 554.986 1592.29 546.514 1593.83 538.496C1621.78 538.58 1649.74 538.664 1677.69 538.748C1680.83 565.587 1683.98 592.443 1687.12 619.282Z" fill="#10CBB4"/>
<path d="M1635.75 580.55C1658.91 580.55 1677.69 561.775 1677.69 538.614C1677.69 515.453 1658.91 496.677 1635.75 496.677C1612.59 496.677 1593.82 515.453 1593.82 538.614C1593.82 561.775 1612.59 580.55 1635.75 580.55Z" fill="#10CBB4"/>
<path d="M1638.1 496.749L1353.36 481.179C1330.23 479.914 1310.46 497.636 1309.19 520.763C1307.93 543.889 1325.65 563.662 1348.78 564.926L1633.52 580.497C1656.64 581.761 1676.42 564.039 1677.68 540.913C1678.95 517.786 1661.22 498.014 1638.1 496.749Z" fill="#10CBB4"/>
<path d="M1441.86 327.976C1441.13 340.993 1439.54 353.91 1430.68 362.062C1417.1 374.593 1424.96 382.812 1431.29 375.331C1431.29 375.331 1425.01 397.255 1429.9 401.583C1434.22 405.424 1441.12 397.205 1441.12 397.205C1441.12 397.205 1441.54 405.995 1439.99 410.675C1433.95 428.858 1444.25 429.949 1454.27 415.657C1450.91 422.92 1445.83 432.247 1451.32 435.283C1455.09 437.38 1464.7 433.136 1469.08 423.105L1464.69 326.919L1441.86 327.959V327.976Z" fill="#2C2044"/>
<path d="M1358.32 781.191V852.063L1474.53 868.838H1491.74L1607.97 852.063V781.191H1358.32Z" fill="#002649"/>
<path d="M1532.51 474.602L1536.8 396.03L1465.11 392.105L1460.81 470.677C1455.44 470.694 1450.14 470.761 1444.96 470.912C1451.06 493.155 1470.77 509.627 1494.56 510.919C1518.35 512.227 1539.74 498.002 1548.24 476.565C1543.11 475.86 1537.84 475.206 1532.51 474.602Z" fill="#FCDABA"/>
<path d="M1535.09 427.28L1533.33 459.337C1520.88 460.008 1500.94 458.884 1485.34 447.745C1472.92 438.872 1469.55 428.086 1468.51 423.64L1535.07 427.28H1535.09Z" fill="#DCAC82"/>
<path d="M1274.03 726.841C1297.19 726.841 1315.96 708.065 1315.96 684.904C1315.96 661.744 1297.19 642.968 1274.03 642.968C1250.87 642.968 1232.09 661.744 1232.09 684.904C1232.09 708.065 1250.87 726.841 1274.03 726.841Z" fill="#FCDABA"/>
<path d="M1226.47 895.039C1206.06 890.292 1191.98 870.901 1194.35 849.563C1201.09 788.94 1214.54 728.954 1234.35 671.284C1254.82 611.684 1282.11 554.332 1315.49 500.871C1327.76 481.228 1353.62 475.24 1373.26 487.502C1392.91 499.764 1398.9 525.63 1386.63 545.29C1356.62 593.383 1332.07 644.931 1313.66 698.542C1295.87 750.392 1283.76 804.339 1277.7 858.856C1275.13 881.871 1254.4 898.461 1231.39 895.895C1229.71 895.71 1228.06 895.425 1226.45 895.056L1226.47 895.039Z" fill="#FCDABA"/>
<path d="M1356.96 618.511C1344.48 615.978 1326.48 610.812 1307.11 599.606C1290 589.709 1277.65 578.437 1269.46 569.731C1277.23 555.036 1286.81 539.185 1298.65 522.896C1303.92 515.667 1309.2 508.923 1314.44 502.633C1338.86 516.237 1363.27 529.858 1387.69 543.462C1377.44 568.473 1367.19 593.484 1356.94 618.495L1356.96 618.511Z" fill="#10CBB4"/>
<path d="M1351.07 565.018C1374.23 565.018 1393.01 546.242 1393.01 523.081C1393.01 499.92 1374.23 481.145 1351.07 481.145C1327.91 481.145 1309.14 499.92 1309.14 523.081C1309.14 546.242 1327.91 565.018 1351.07 565.018Z" fill="#10CBB4"/>
<path d="M1444.79 355.554L1454.84 355.093L1456.53 391.959L1446.48 392.419C1439.07 392.758 1432.8 387.033 1432.46 379.627L1432 369.573C1431.66 362.166 1437.38 355.892 1444.79 355.554Z" fill="#FCDABA"/>
<path fill-rule="evenodd" clip-rule="evenodd" d="M1442.22 368.568C1442.45 368.168 1442.97 368.032 1443.37 368.265L1451.55 373.029C1451.8 373.172 1451.96 373.431 1451.97 373.715C1451.98 374 1451.85 374.272 1451.62 374.437L1443.9 379.939C1443.53 380.208 1443 380.12 1442.73 379.743C1442.46 379.366 1442.55 378.842 1442.93 378.573L1449.59 373.825L1442.52 369.715C1442.12 369.482 1441.99 368.969 1442.22 368.568Z" fill="#DCAC82"/>
<path d="M1549.65 350.789L1559.7 350.336C1567.09 350.001 1573.38 355.721 1573.72 363.135L1574.17 373.183C1574.51 380.581 1568.79 386.871 1561.37 387.207L1551.33 387.659L1549.65 350.789Z" fill="#DCAC82"/>
<path d="M1501.56 274.855L1509.94 274.472C1537.69 273.202 1561.24 294.693 1562.51 322.442L1565.96 397.849C1567.02 420.974 1549.11 440.6 1525.99 441.658L1509.23 442.425C1481.48 443.695 1457.93 422.204 1456.66 394.455L1453.59 327.427C1452.32 299.677 1473.81 276.125 1501.56 274.855Z" fill="#FCDABA"/>
<path d="M1501.8 370.712C1504.03 370.61 1505.73 368.126 1505.59 365.165C1505.46 362.203 1503.54 359.885 1501.31 359.987C1499.08 360.09 1497.38 362.573 1497.52 365.534C1497.65 368.496 1499.57 370.814 1501.8 370.712Z" fill="#2C2044"/>
<path d="M1550.43 368.492C1552.66 368.39 1554.36 365.906 1554.22 362.945C1554.09 359.983 1552.17 357.665 1549.94 357.768C1547.71 357.87 1546.01 360.353 1546.14 363.315C1546.28 366.276 1548.2 368.594 1550.43 368.492Z" fill="#2C2044"/>
<path d="M1489.55 351.678C1489.28 351.678 1488.99 351.544 1488.84 351.293C1488.59 350.907 1488.71 350.387 1489.09 350.135C1491.17 348.81 1494.61 347.2 1499.07 347.132C1503.12 347.049 1506.17 348.256 1508.1 349.263C1508.52 349.481 1508.67 349.984 1508.45 350.387C1508.23 350.806 1507.73 350.957 1507.33 350.739C1505.6 349.85 1502.85 348.793 1499.36 348.793C1499.27 348.793 1499.19 348.793 1499.11 348.793C1495.03 348.86 1491.91 350.32 1490.02 351.527C1489.88 351.611 1489.71 351.662 1489.56 351.662L1489.55 351.678Z" fill="#2C2044"/>
<path d="M1544.03 349.179C1543.79 349.179 1543.54 349.078 1543.38 348.877C1543.09 348.524 1543.14 347.988 1543.49 347.702C1544.94 346.511 1547.32 345.052 1550.45 344.784C1554.01 344.482 1556.85 345.824 1558.61 347.015C1558.99 347.266 1559.09 347.786 1558.84 348.172C1558.59 348.558 1558.05 348.659 1557.68 348.407C1556.16 347.367 1553.69 346.209 1550.61 346.461C1547.89 346.696 1545.82 347.971 1544.55 349.011C1544.4 349.145 1544.2 349.195 1544.01 349.195L1544.03 349.179Z" fill="#2C2044"/>
<path d="M1559.51 307.511C1550.81 310.178 1539.79 312.677 1526.89 313.617C1509 314.925 1493.96 312.778 1483.26 310.379C1473.01 323.514 1471.83 336.245 1470.42 354.395L1443.11 355.637L1441.86 327.976C1440.58 300.214 1462.07 276.679 1489.83 275.404L1512.07 274.398C1533.56 273.408 1553.02 286.995 1559.51 307.511Z" fill="#2C2044"/>
<path d="M1490.98 381.794C1494.21 381.646 1496.76 380.071 1496.68 378.275C1496.6 376.48 1493.91 375.144 1490.68 375.292C1487.45 375.44 1484.9 377.015 1484.98 378.81C1485.06 380.606 1487.75 381.941 1490.98 381.794Z" fill="#FBCCA1"/>
<path d="M1559.22 378.677C1562.45 378.529 1565 376.954 1564.92 375.158C1564.84 373.363 1562.15 372.027 1558.92 372.175C1555.69 372.323 1553.14 373.898 1553.22 375.693C1553.31 377.489 1555.99 378.825 1559.22 378.677Z" fill="#FBCCA1"/>
<path d="M1505.75 274.682C1524.2 273.844 1526.11 296.573 1526.94 314.388C1514.91 309.221 1514.22 342.77 1499.51 346.763C1493.62 348.44 1498.12 338.879 1501.1 326.566C1492.36 342.686 1488.22 356.089 1480.94 356.76C1474.72 357.347 1478.19 344.297 1480.2 327.136C1470.09 347.434 1469.55 371.136 1459.49 371.589C1455.83 371.757 1452.78 358.622 1451.75 328.176C1451.06 307.728 1450.7 277.182 1505.75 274.666V274.682Z" fill="#2C2044"/>
<path d="M1524.72 275.522C1525.21 286.324 1526.11 296.59 1526.92 314.405C1538.83 307.628 1538.81 341.664 1550.29 344.448C1554.88 345.656 1552.53 335.843 1549.28 323.816C1557.87 341.714 1567.9 349.766 1573 347.552C1577.65 345.539 1571.36 341.244 1563.82 312.946C1558.84 294.729 1543.41 277.585 1524.72 275.522Z" fill="#2C2044"/>
<path d="M1523.75 396.785C1521.52 396.885 1519.29 396.835 1517.07 396.617C1508.84 395.828 1505.33 398.177 1506.24 403.293C1507.19 408.695 1510.75 415.153 1524.55 414.549C1538.34 413.911 1541.3 407.151 1541.77 401.683C1542.2 396.499 1538.51 394.487 1530.38 396.013C1528.19 396.432 1525.98 396.684 1523.75 396.785Z" fill="#6B222F"/>
<path d="M1537.47 410.54C1534.9 412.687 1530.86 414.247 1524.55 414.549C1518.25 414.817 1514.09 413.626 1511.34 411.731C1514.04 408.46 1518.72 406.195 1524.15 405.944C1529.59 405.692 1534.47 407.537 1537.45 410.54H1537.47Z" fill="#DE4A65"/>
<path d="M1537.27 395.694L1536.05 398.579C1535.59 399.636 1534.64 400.374 1533.51 400.575C1528.82 401.38 1523.1 402.101 1516.52 402.403C1512.78 402.571 1509.31 402.588 1506.14 402.487C1505.75 397.941 1509.29 395.878 1517.07 396.633C1519.29 396.834 1521.52 396.901 1523.75 396.801C1525.98 396.7 1528.21 396.432 1530.38 396.029C1533.21 395.492 1535.51 395.392 1537.29 395.694H1537.27Z" fill="white"/>
<path d="M1637.92 496.76C1628.49 609.854 1619.04 722.932 1609.62 836.025L1358.45 837.267C1358.4 818.58 1358.35 799.893 1358.3 781.19C1359.79 624.566 1360.01 584.475 1359.88 579.224C1359.88 579.006 1359.63 568.556 1359.63 568.556C1359.17 552.704 1358.34 536.181 1357.01 519.054C1356 506.02 1354.76 493.389 1353.35 481.16C1366.5 478.644 1380.61 476.396 1395.61 474.635C1413.1 472.572 1429.63 471.414 1444.96 470.894C1451.1 493.087 1470.79 509.492 1494.53 510.784C1518.26 512.076 1539.63 497.918 1548.14 476.547C1582.95 481.563 1613.16 489.095 1637.92 496.744V496.76Z" fill="#10CBB4"/>
<path d="M1424.24 836.949C1418.66 836.983 1413.07 837 1407.47 837.033C1408.98 767.553 1407.45 697.318 1402.96 628.073C1399.67 577.347 1394.69 526.151 1388.16 475.609C1390.63 475.274 1393.11 474.972 1395.62 474.67C1398.73 474.301 1401.78 473.965 1404.82 473.663C1411.38 524.49 1416.37 575.988 1419.7 626.982C1424.23 696.546 1425.75 767.117 1424.24 836.949Z" fill="#002649"/>
<path d="M1606.82 488.089C1604.33 538.429 1601.13 589.172 1597.25 639.227C1592.17 704.665 1585.85 770.84 1578.38 836.177C1572.75 836.211 1567.11 836.244 1561.47 836.261C1569.02 770.488 1575.41 703.843 1580.51 637.936C1584.46 587.008 1587.73 535.393 1590.21 484.197C1595.91 485.438 1601.45 486.747 1606.82 488.089Z" fill="#002649"/>
</g>
<path d="M1607.39 288.369C1626 288.369 1641.1 273.279 1641.1 254.665C1641.1 236.052 1626 220.962 1607.39 220.962C1588.78 220.962 1573.69 236.052 1573.69 254.665C1573.69 273.279 1588.78 288.369 1607.39 288.369Z" fill="#E3B2EB"/>
<path d="M1587.07 255.113C1587.07 243.641 1596.37 234.341 1607.84 234.341C1619.32 234.341 1628.62 243.641 1628.62 255.113C1628.62 266.584 1619.32 275.884 1607.84 275.884C1596.37 275.884 1587.07 266.584 1587.07 255.113ZM1607.84 231.394C1594.74 231.394 1584.12 242.013 1584.12 255.113C1584.12 268.212 1594.74 278.831 1607.84 278.831C1620.94 278.831 1631.56 268.212 1631.56 255.113C1631.56 242.013 1620.94 231.394 1607.84 231.394Z" fill="white"/>
<path d="M1587.32 245.564C1586.51 245.564 1585.85 246.223 1585.85 247.037C1585.85 247.851 1586.51 248.511 1587.32 248.511H1628.36C1629.17 248.511 1629.83 247.851 1629.83 247.037C1629.83 246.223 1629.17 245.564 1628.36 245.564H1587.32Z" fill="white"/>
<path d="M1628.36 262.249L1587.32 262.257C1586.51 262.257 1585.85 262.917 1585.85 263.731C1585.85 264.545 1586.51 265.204 1587.32 265.204L1628.36 265.196C1629.17 265.196 1629.83 264.536 1629.83 263.722C1629.83 262.909 1629.17 262.249 1628.36 262.249Z" fill="white"/>
<path d="M1616.03 233.119C1615.51 232.485 1614.59 232.386 1613.95 232.897C1613.32 233.407 1613.22 234.335 1613.73 234.968C1617.21 239.279 1619.6 246.623 1619.6 255.114C1619.6 263.605 1617.21 270.949 1613.73 275.259C1613.22 275.892 1613.32 276.82 1613.95 277.331C1614.59 277.842 1615.51 277.742 1616.03 277.109C1620.04 272.13 1622.54 264.065 1622.54 255.114C1622.54 246.162 1620.04 238.097 1616.03 233.119Z" fill="white"/>
<path d="M1601.96 234.968C1602.47 234.335 1602.37 233.407 1601.74 232.897C1601.1 232.386 1600.18 232.485 1599.66 233.119C1595.65 238.097 1593.15 246.162 1593.15 255.114C1593.15 264.065 1595.65 272.13 1599.66 277.109C1600.18 277.742 1601.1 277.842 1601.74 277.331C1602.37 276.82 1602.47 275.892 1601.96 275.259C1598.48 270.949 1596.09 263.605 1596.09 255.114C1596.09 246.623 1598.48 239.279 1601.96 234.968Z" fill="white"/>
<path d="M1609.31 232.868C1609.31 232.054 1608.65 231.394 1607.84 231.394C1607.03 231.394 1606.37 232.054 1606.37 232.868V277.358C1606.37 278.172 1607.03 278.831 1607.84 278.831C1608.65 278.831 1609.31 278.172 1609.31 277.358V232.868Z" fill="white"/>
<path d="M1787.41 349.314C1809.75 349.314 1827.86 331.207 1827.86 308.87C1827.86 286.534 1809.75 268.426 1787.41 268.426C1765.08 268.426 1746.97 286.534 1746.97 308.87C1746.97 331.207 1765.08 349.314 1787.41 349.314Z" fill="#F4C12A"/>
<path d="M1794.09 323.707H1782.14C1780.94 323.707 1780.14 322.91 1780.14 321.715V320.719C1780.14 317.931 1778.95 315.143 1776.76 312.952C1773.57 309.766 1771.98 305.584 1772.18 301.202C1772.58 292.838 1779.55 286.067 1787.91 285.867H1788.11C1796.87 285.867 1804.04 293.037 1804.04 301.8C1804.04 305.982 1802.45 310.164 1799.26 313.152C1797.07 315.143 1796.08 317.931 1796.08 320.719V321.715C1796.08 322.91 1795.28 323.707 1794.09 323.707ZM1784.13 319.724H1792.09C1792.29 316.139 1793.89 312.952 1796.48 310.164C1798.87 307.974 1800.06 304.986 1800.06 301.8C1800.06 295.228 1794.68 289.851 1788.11 289.851H1787.91C1781.74 290.05 1776.36 295.028 1776.16 301.402C1775.96 304.588 1777.36 307.774 1779.55 310.164C1782.33 312.952 1783.93 316.338 1784.13 319.724Z" fill="white"/>
<path d="M1788.11 333.665C1783.73 333.665 1780.15 330.08 1780.15 325.699V321.716C1780.15 320.521 1780.95 319.724 1782.14 319.724H1794.09C1795.28 319.724 1796.08 320.521 1796.08 321.716V325.699C1796.08 330.08 1792.5 333.665 1788.11 333.665ZM1784.13 323.707V325.699C1784.13 327.889 1785.92 329.682 1788.11 329.682C1790.31 329.682 1792.1 327.889 1792.1 325.699V323.707H1784.13ZM1782.14 303.791C1780.95 303.791 1780.15 302.995 1780.15 301.8C1780.15 297.419 1783.73 293.834 1788.11 293.834C1789.31 293.834 1790.11 294.63 1790.11 295.825C1790.11 297.02 1789.31 297.817 1788.11 297.817C1785.92 297.817 1784.13 299.609 1784.13 301.8C1784.13 302.995 1783.33 303.791 1782.14 303.791Z" fill="white"/>
<path d="M1710.78 279.481C1731.26 279.481 1747.86 262.882 1747.86 242.407C1747.86 221.932 1731.26 205.333 1710.78 205.333C1690.31 205.333 1673.71 221.932 1673.71 242.407C1673.71 262.882 1690.31 279.481 1710.78 279.481Z" fill="#10CBB4"/>
<path d="M1719.51 220.501H1702.16C1700.88 220.501 1699.64 221.012 1698.73 221.923C1697.82 222.834 1697.31 224.069 1697.31 225.358V259.458C1697.31 260.746 1697.82 261.981 1698.73 262.892C1699.64 263.803 1700.88 264.315 1702.16 264.315H1719.51C1720.8 264.315 1722.04 263.803 1722.95 262.892C1723.86 261.981 1724.37 260.746 1724.37 259.458V225.358C1724.37 224.069 1723.86 222.834 1722.95 221.923C1722.04 221.012 1720.8 220.501 1719.51 220.501ZM1720.76 259.458C1720.76 259.786 1720.63 260.102 1720.39 260.334C1720.16 260.566 1719.84 260.697 1719.51 260.697H1702.16C1701.84 260.697 1701.52 260.566 1701.29 260.334C1701.06 260.102 1700.92 259.786 1700.92 259.458V225.358C1700.92 225.029 1701.06 224.714 1701.29 224.481C1701.52 224.249 1701.84 224.118 1702.16 224.118H1719.51C1719.84 224.118 1720.16 224.249 1720.39 224.481C1720.63 224.714 1720.76 225.029 1720.76 225.358V259.458Z" fill="white"/>
<path d="M1712.51 255.672H1709.16C1708.68 255.672 1708.22 255.863 1707.88 256.202C1707.54 256.541 1707.35 257.002 1707.35 257.481C1707.35 257.961 1707.54 258.421 1707.88 258.76C1708.22 259.1 1708.68 259.29 1709.16 259.29H1712.51C1712.99 259.29 1713.45 259.1 1713.79 258.76C1714.13 258.421 1714.32 257.961 1714.32 257.481C1714.32 257.002 1714.13 256.541 1713.79 256.202C1713.45 255.863 1712.99 255.672 1712.51 255.672Z" fill="white"/>
<path d="M1830 447.577C1854.2 447.577 1873.82 427.961 1873.82 403.762C1873.82 379.565 1854.2 359.949 1830 359.949C1805.81 359.949 1786.19 379.565 1786.19 403.762C1786.19 427.961 1805.81 447.577 1830 447.577Z" fill="#48A3F3"/>
<path d="M1853.55 398.926C1852.81 395.793 1846.72 385.22 1843.14 379.174L1843.03 378.985C1842.97 378.889 1842.91 378.797 1842.84 378.711C1842.67 378.504 1841.76 377.469 1840.28 377.394C1839.58 377.359 1838.53 377.532 1837.5 378.56C1837.3 378.761 1837.24 378.821 1834.85 382.954C1834.06 384.326 1833.03 386.121 1831.98 388.003C1830.68 385.744 1829.31 383.385 1827.87 380.949C1827.77 380.787 1827.71 380.68 1827.68 380.637C1827.63 380.537 1827.56 380.441 1827.49 380.351C1827.29 380.108 1826.21 378.89 1824.48 378.804C1823.67 378.765 1822.46 378.967 1821.25 380.162C1821 380.388 1820.9 380.558 1818.78 384.201C1817.62 386.187 1815.85 389.235 1814.03 392.479C1807.05 404.942 1806.38 407.569 1806.19 408.435C1804.7 413.939 1805.95 419.972 1809.54 424.587C1813.05 429.095 1818.21 431.652 1823.76 431.652C1823.9 431.652 1824.05 431.652 1824.19 431.647H1824.37C1829.16 431.759 1833.73 429.958 1837.24 426.566C1840.17 423.735 1842.13 419.953 1842.77 415.986C1846.17 415.387 1849.22 413.469 1851.34 410.559C1853.82 407.141 1854.63 402.903 1853.55 398.924L1853.55 398.926ZM1824.45 427.578C1824.43 427.578 1824.41 427.578 1824.4 427.578H1824.17C1824.15 427.578 1824.13 427.578 1824.11 427.578C1819.69 427.685 1815.54 425.686 1812.73 422.08C1809.92 418.462 1808.94 413.749 1810.11 409.47C1810.11 409.439 1810.12 409.411 1810.13 409.38C1810.99 405.564 1821.72 387.079 1824.22 382.946C1824.25 382.924 1824.28 382.907 1824.29 382.895C1824.3 382.898 1824.3 382.902 1824.31 382.907C1824.33 382.946 1824.36 382.986 1824.38 383.03C1826.28 386.236 1828.06 389.313 1829.7 392.191C1829.66 392.264 1829.62 392.335 1829.59 392.408C1829.56 392.465 1829.53 392.525 1829.5 392.581C1829.45 392.676 1829.4 392.767 1829.35 392.861C1829.33 392.901 1829.31 392.942 1829.29 392.981C1829.22 393.11 1829.15 393.237 1829.09 393.361C1829.07 393.412 1829.04 393.461 1829.01 393.512C1828.98 393.585 1828.94 393.659 1828.9 393.731C1828.87 393.788 1828.85 393.843 1828.82 393.899C1828.79 393.96 1828.76 394.021 1828.73 394.08C1828.7 394.139 1828.67 394.197 1828.64 394.255C1828.61 394.309 1828.58 394.363 1828.56 394.418C1828.53 394.472 1828.5 394.526 1828.48 394.579C1828.45 394.633 1828.42 394.687 1828.4 394.742C1828.37 394.794 1828.35 394.845 1828.32 394.896C1828.3 394.947 1828.27 394.998 1828.25 395.047C1828.22 395.098 1828.2 395.149 1828.17 395.198C1828.15 395.245 1828.13 395.291 1828.11 395.337C1828.08 395.386 1828.06 395.435 1828.04 395.484C1828.01 395.528 1827.99 395.573 1827.97 395.615C1827.95 395.661 1827.93 395.708 1827.91 395.752C1827.89 395.796 1827.87 395.839 1827.85 395.88C1827.83 395.922 1827.81 395.966 1827.79 396.008C1827.77 396.051 1827.75 396.092 1827.73 396.134C1827.71 396.173 1827.69 396.214 1827.68 396.253C1827.66 396.293 1827.64 396.334 1827.62 396.373C1827.6 396.41 1827.59 396.448 1827.57 396.485C1827.55 396.524 1827.54 396.561 1827.52 396.6C1827.51 396.636 1827.49 396.67 1827.47 396.704C1827.46 396.745 1827.44 396.782 1827.42 396.821C1827.41 396.851 1827.4 396.882 1827.39 396.911C1827.36 396.962 1827.34 397.009 1827.32 397.058C1827.31 397.08 1827.3 397.102 1827.29 397.124C1827.27 397.18 1827.25 397.236 1827.22 397.289C1827.21 397.313 1827.21 397.336 1827.2 397.36C1827.18 397.396 1827.17 397.431 1827.15 397.465C1827.14 397.489 1827.14 397.513 1827.13 397.537C1827.11 397.569 1827.1 397.599 1827.09 397.63C1827.08 397.654 1827.07 397.677 1827.06 397.699C1827.05 397.728 1827.04 397.757 1827.03 397.786C1827.02 397.808 1827.01 397.83 1827 397.85C1826.99 397.878 1826.98 397.905 1826.97 397.932C1826.96 397.952 1826.96 397.972 1826.95 397.993C1826.94 398.018 1826.93 398.044 1826.92 398.069C1826.92 398.088 1826.91 398.106 1826.9 398.125C1826.9 398.151 1826.89 398.174 1826.88 398.2C1826.87 398.217 1826.87 398.234 1826.86 398.249C1826.85 398.274 1826.85 398.298 1826.84 398.322C1826.83 398.337 1826.83 398.352 1826.82 398.366C1826.81 398.39 1826.81 398.413 1826.8 398.436C1826.8 398.449 1826.79 398.463 1826.79 398.475C1826.78 398.498 1826.77 398.522 1826.77 398.546C1826.76 398.556 1826.76 398.566 1826.76 398.576C1826.75 398.602 1826.75 398.625 1826.74 398.649C1826.74 398.656 1826.73 398.664 1826.73 398.671C1826.72 398.698 1826.72 398.726 1826.71 398.751C1826.71 398.754 1826.71 398.758 1826.71 398.759C1826.69 398.819 1826.68 398.875 1826.67 398.926C1825.56 403.02 1826.49 407.504 1829.16 410.932C1829.3 411.108 1829.44 411.278 1829.58 411.446C1829.6 411.468 1829.62 411.49 1829.64 411.512C1829.77 411.67 1829.91 411.824 1830.06 411.975C1830.08 412.002 1830.11 412.029 1830.13 412.056C1830.28 412.206 1830.42 412.35 1830.57 412.491C1830.59 412.514 1830.62 412.536 1830.64 412.558C1830.79 412.703 1830.95 412.843 1831.11 412.981C1831.12 412.991 1831.13 413.001 1831.15 413.011C1831.31 413.147 1831.47 413.279 1831.63 413.406C1831.65 413.417 1831.66 413.428 1831.68 413.439C1831.84 413.566 1832.01 413.688 1832.18 413.807C1832.21 413.825 1832.23 413.844 1832.26 413.861C1832.43 413.976 1832.59 414.087 1832.77 414.193C1832.79 414.21 1832.82 414.227 1832.85 414.244C1833.02 414.351 1833.2 414.456 1833.38 414.555C1833.4 414.565 1833.42 414.573 1833.43 414.583C1833.81 414.79 1834.2 414.977 1834.6 415.145C1834.62 415.153 1834.64 415.16 1834.65 415.169C1834.85 415.248 1835.04 415.325 1835.23 415.396C1835.26 415.404 1835.28 415.413 1835.31 415.423C1835.5 415.493 1835.7 415.559 1835.9 415.62C1835.92 415.625 1835.94 415.632 1835.96 415.637C1836.38 415.762 1836.81 415.869 1837.25 415.952C1837.25 415.952 1837.26 415.956 1837.27 415.956C1837.48 415.996 1837.69 416.03 1837.9 416.059C1837.93 416.062 1837.95 416.066 1837.97 416.069C1838.18 416.096 1838.39 416.12 1838.6 416.139C1838.61 416.139 1838.62 416.142 1838.63 416.142C1837.21 422.775 1831.25 427.746 1824.45 427.575L1824.45 427.578ZM1848.07 408.161C1846.33 410.555 1843.7 411.995 1840.86 412.111C1840.85 412.111 1840.85 412.111 1840.84 412.111C1840.75 412.116 1840.65 412.117 1840.55 412.119C1840.45 412.119 1840.35 412.119 1840.24 412.116C1840.22 412.116 1840.2 412.116 1840.19 412.116H1840.02C1840 412.116 1839.99 412.116 1839.97 412.116C1837.01 412.189 1834.23 410.845 1832.34 408.425C1830.45 405.996 1829.79 402.833 1830.57 399.965C1830.58 399.936 1830.59 399.906 1830.6 399.877C1830.62 399.774 1830.67 399.604 1830.77 399.333C1830.8 399.251 1830.83 399.158 1830.88 399.058C1830.92 398.934 1830.98 398.795 1831.05 398.641C1831.07 398.588 1831.09 398.534 1831.12 398.476C1831.22 398.244 1831.34 397.976 1831.48 397.671C1831.53 397.577 1831.57 397.479 1831.62 397.377C1831.7 397.218 1831.78 397.048 1831.87 396.868C1831.92 396.753 1831.98 396.636 1832.04 396.512C1832.05 396.5 1832.05 396.488 1832.06 396.477C1832.06 396.477 1832.06 396.477 1832.06 396.475C1832.17 396.246 1832.29 396.002 1832.42 395.744C1832.51 395.581 1832.59 395.415 1832.68 395.24C1832.71 395.191 1832.73 395.142 1832.76 395.091C1833.06 394.506 1833.4 393.855 1833.79 393.127C1836.11 388.821 1838.92 384.007 1840.1 382.011C1845.51 391.192 1849.22 398.164 1849.61 399.877C1849.62 399.908 1849.62 399.938 1849.63 399.967C1850.39 402.755 1849.82 405.742 1848.06 408.162L1848.07 408.161Z" fill="white"/>
<g clip-path="url(#clip3_1357_6468)">
<path fill-rule="evenodd" clip-rule="evenodd" d="M1198.67 458.512C1200.63 462.75 1204.29 466.123 1208.89 467.928C1214.75 470.231 1223.12 473.526 1229.8 476.151C1233.88 477.757 1233.88 483.078 1229.8 484.684L1208.89 492.907C1204.29 494.713 1200.63 498.086 1198.67 502.323C1196.17 507.721 1192.59 515.435 1189.74 521.587C1187.99 525.347 1182.22 525.347 1180.47 521.587C1177.62 515.435 1174.05 507.721 1171.55 502.323C1169.59 498.086 1165.92 494.713 1161.32 492.907C1155.46 490.604 1147.09 487.309 1140.41 484.684C1136.33 483.078 1136.33 477.757 1140.41 476.151C1147.09 473.526 1155.46 470.231 1161.32 467.928C1165.92 466.123 1169.59 462.743 1171.55 458.512C1174.05 453.114 1177.62 445.401 1180.47 439.248C1182.22 435.488 1187.99 435.488 1189.74 439.248C1192.59 445.401 1196.17 453.114 1198.67 458.512Z" fill="#12DEC4"/>
<path fill-rule="evenodd" clip-rule="evenodd" d="M1251.7 307.24C1252.88 309.796 1255.09 311.831 1257.87 312.92C1261.4 314.309 1266.45 316.298 1270.48 317.881C1272.95 318.85 1272.94 322.06 1270.48 323.029L1257.87 327.99C1255.09 329.079 1252.88 331.114 1251.7 333.671C1250.19 336.928 1248.03 341.581 1246.31 345.293C1245.26 347.562 1241.78 347.562 1240.72 345.293C1239 341.581 1236.85 336.928 1235.34 333.671C1234.15 331.114 1231.94 329.079 1229.17 327.99C1225.63 326.601 1220.58 324.613 1216.55 323.029C1214.09 322.06 1214.09 318.85 1216.55 317.881C1220.58 316.298 1225.63 314.309 1229.17 312.92C1231.95 311.831 1234.15 309.792 1235.34 307.24C1236.85 303.983 1239 299.329 1240.72 295.617C1241.78 293.349 1245.26 293.349 1246.31 295.617C1248.03 299.329 1250.19 303.983 1251.7 307.24Z" fill="#12DEC4"/>
<path fill-rule="evenodd" clip-rule="evenodd" d="M1355.97 408.466C1356.65 409.936 1357.92 411.107 1359.52 411.734C1361.55 412.533 1364.46 413.677 1366.78 414.588C1368.2 415.146 1368.19 416.993 1366.78 417.55L1359.52 420.404C1357.92 421.031 1356.65 422.202 1355.97 423.673C1355.1 425.546 1353.86 428.224 1352.87 430.359C1352.27 431.665 1350.26 431.665 1349.66 430.359C1348.67 428.224 1347.43 425.546 1346.56 423.673C1345.88 422.202 1344.6 421.031 1343.01 420.404C1340.98 419.605 1338.07 418.461 1335.75 417.55C1334.33 416.993 1334.33 415.146 1335.75 414.588C1338.07 413.677 1340.98 412.533 1343.01 411.734C1344.61 411.107 1345.88 409.934 1346.56 408.466C1347.43 406.592 1348.67 403.914 1349.66 401.779C1350.26 400.474 1352.27 400.474 1352.87 401.779C1353.86 403.914 1355.1 406.592 1355.97 408.466Z" fill="#12DEC4"/>
</g>
<g clip-path="url(#clip4_1357_6468)">
<path fill-rule="evenodd" clip-rule="evenodd" d="M1872.15 645.155C1873.49 648.297 1876 650.798 1879.13 652.137C1883.14 653.844 1888.86 656.288 1893.42 658.234C1896.21 659.425 1896.2 663.37 1893.42 664.561L1879.13 670.658C1875.99 671.997 1873.49 674.498 1872.15 677.639C1870.44 681.642 1868 687.361 1866.05 691.923C1864.86 694.711 1860.92 694.711 1859.73 691.923C1857.78 687.361 1855.34 681.642 1853.63 677.639C1852.29 674.498 1849.79 671.997 1846.65 670.658C1842.65 668.951 1836.93 666.507 1832.36 664.561C1829.58 663.37 1829.58 659.425 1832.36 658.234C1836.93 656.288 1842.65 653.844 1846.65 652.137C1849.79 650.798 1852.29 648.292 1853.63 645.155C1855.34 641.153 1857.78 635.434 1859.73 630.872C1860.92 628.084 1864.86 628.084 1866.05 630.872C1868 635.434 1870.44 641.153 1872.15 645.155Z" fill="#12DEC4"/>
</g>
<g clip-path="url(#clip5_1357_6468)">
<path fill-rule="evenodd" clip-rule="evenodd" d="M1669.65 396.506C1670.22 397.832 1671.27 398.888 1672.6 399.454C1674.29 400.174 1676.7 401.206 1678.63 402.028C1679.81 402.531 1679.8 404.196 1678.63 404.699L1672.6 407.273C1671.27 407.839 1670.22 408.895 1669.65 410.221C1668.93 411.911 1667.9 414.326 1667.08 416.252C1666.57 417.429 1664.91 417.429 1664.4 416.252C1663.58 414.326 1662.55 411.911 1661.83 410.221C1661.26 408.895 1660.21 407.839 1658.88 407.273C1657.19 406.553 1654.78 405.521 1652.85 404.699C1651.67 404.196 1651.67 402.531 1652.85 402.028C1654.78 401.206 1657.19 400.174 1658.88 399.454C1660.21 398.888 1661.26 397.83 1661.83 396.506C1662.55 394.816 1663.58 392.401 1664.4 390.475C1664.91 389.298 1666.57 389.298 1667.08 390.475C1667.9 392.401 1668.93 394.816 1669.65 396.506Z" fill="#12DEC4"/>
</g>
</g>
<defs>
<linearGradient id="paint0_linear_1357_6468" x1="-213.3" y1="1370.37" x2="162.425" y2="207.813" gradientUnits="userSpaceOnUse">
<stop stop-color="#DE4A65"/>
<stop offset="1" stop-color="#742384"/>
</linearGradient>
<clipPath id="clip0_1357_6468">
<rect width="2133" height="1000" fill="white" transform="translate(0 0.5)"/>
</clipPath>
<clipPath id="clip1_1357_6468">
<rect width="2133" height="1000" fill="white" transform="translate(0 0.5)"/>
</clipPath>
<clipPath id="clip2_1357_6468">
<rect width="85.9833" height="182.233" fill="white" transform="translate(1765.68 405.533)"/>
</clipPath>
<clipPath id="clip3_1357_6468">
<rect width="230.491" height="230.491" fill="white" transform="translate(1137.35 293.916)"/>
</clipPath>
<clipPath id="clip4_1357_6468">
<rect width="65.2334" height="65.2334" fill="white" transform="translate(1830.27 628.781)"/>
</clipPath>
<clipPath id="clip5_1357_6468">
<rect width="27.543" height="27.543" fill="white" transform="translate(1651.97 389.592)"/>
</clipPath>
</defs>
</svg>
