<svg width="1000" height="1881" viewBox="0 0 1000 1881" fill="none" xmlns="http://www.w3.org/2000/svg">
<g clip-path="url(#clip0_1357_6465)">
<rect width="1000" height="1881" fill="white"/>
<g clip-path="url(#clip1_1357_6465)">
<rect width="1000" height="1881" fill="url(#paint0_linear_1357_6465)"/>
<path opacity="0.3" d="M1099.11 1359.92C1099.11 1358.91 1098.32 1358.08 1097.37 1358.08H1075.81C1074.85 1358.08 1074.07 1357.26 1074.07 1356.25V1327.69C1074.07 1326.68 1073.29 1325.85 1072.33 1325.85H1066.45C1065.5 1325.85 1064.72 1325.03 1064.72 1324.02V1297.89C1064.72 1296.88 1063.93 1296.05 1062.98 1296.05H1010.11C1009.15 1296.05 1008.37 1296.88 1008.37 1297.89V1324.02C1008.37 1325.03 1007.59 1325.85 1006.63 1325.85H1000.75C999.801 1325.85 999.017 1325.03 999.017 1324.02V1263.41C999.017 1262.4 998.233 1261.57 997.281 1261.57H965.411C964.459 1261.57 963.675 1260.74 963.675 1259.73V1252.98C963.675 1251.97 962.89 1251.14 961.938 1251.14H929.06C928.556 1251.14 928.108 1251.38 927.772 1251.74L919.426 1261.04C919.09 1261.39 918.642 1261.63 918.138 1261.63H895.79C894.838 1261.63 894.054 1262.46 894.054 1263.47V1326.57C894.054 1327.57 893.27 1328.4 892.317 1328.4H884.028C883.076 1328.4 882.292 1327.57 882.292 1326.57V1229.58C882.292 1228.57 881.508 1227.74 880.556 1227.74H871.594C870.642 1227.74 869.858 1226.91 869.858 1225.9V1221.99C869.858 1220.99 869.073 1220.16 868.121 1220.16H852.887C851.934 1220.16 851.15 1219.33 851.15 1218.32V1215.12C851.15 1214.11 850.366 1213.28 849.414 1213.28H836.475C835.523 1213.28 834.739 1214.11 834.739 1215.12V1218.32C834.739 1219.33 833.955 1220.16 833.003 1220.16H830.931C829.978 1220.16 829.194 1220.99 829.194 1221.99V1225.9C829.194 1226.91 828.41 1227.74 827.458 1227.74H788.867C787.915 1227.74 787.131 1228.57 787.131 1229.58V1387.77C787.131 1388.78 786.347 1389.6 785.394 1389.6H777.665C776.713 1389.6 775.929 1388.78 775.929 1387.77V1350.86C775.929 1349.85 776.713 1349.02 777.665 1349.02H777.889C779.177 1349.02 780.018 1347.6 779.513 1346.41L777.609 1341.97C777.329 1341.32 776.713 1340.9 775.985 1340.9H723.615C722.663 1340.9 721.879 1340.07 721.879 1339.07V1297.18C721.879 1296.17 722.663 1295.34 723.615 1295.34C724.568 1295.34 725.352 1294.51 725.352 1293.51V1289.06C725.352 1288.05 724.568 1287.23 723.615 1287.23H714.822C713.87 1287.23 713.086 1286.4 713.086 1285.39V1280.95C713.086 1279.94 712.301 1279.11 711.349 1279.11H660.772C659.82 1279.11 659.036 1279.94 659.036 1280.95V1285.39C659.036 1286.4 658.252 1287.23 657.3 1287.23H648.506C647.554 1287.23 646.77 1288.05 646.77 1289.06V1293.51C646.77 1294.51 647.554 1295.34 648.506 1295.34C649.458 1295.34 650.242 1296.17 650.242 1297.18V1356.43C650.242 1357.43 649.458 1358.26 648.506 1358.26H636.352C635.4 1358.26 634.616 1357.43 634.616 1356.43V1245.93C634.616 1244.92 633.831 1244.09 632.879 1244.09H619.101C618.597 1244.09 618.093 1243.86 617.757 1243.44L598.657 1219.57C597.929 1218.68 596.697 1218.68 595.969 1219.57L576.869 1243.44C576.533 1243.86 576.029 1244.09 575.525 1244.09H536.15C535.198 1244.09 534.414 1244.92 534.414 1245.93V1300.14C534.414 1301.15 533.63 1301.98 532.677 1301.98H504.224C503.272 1301.98 502.488 1302.81 502.488 1303.81V1335.45C502.488 1336.46 501.704 1337.29 500.752 1337.29H472.971C472.018 1337.29 471.234 1338.12 471.234 1339.13V1375.09C471.234 1376.1 470.45 1376.93 469.498 1376.93H460.649C459.696 1376.93 458.912 1376.1 458.912 1375.09V1225.43C458.912 1224.42 458.128 1223.59 457.176 1223.59H447.374C446.646 1223.59 446.03 1223.12 445.75 1222.47L439.813 1207.18C439.533 1206.47 438.917 1206.06 438.189 1206.06H371.873C371.145 1206.06 370.528 1206.53 370.248 1207.18L364.311 1222.47C364.031 1223.18 363.415 1223.59 362.687 1223.59H352.885C351.933 1223.59 351.149 1224.42 351.149 1225.43V1326.57C351.149 1327.57 350.365 1328.4 349.413 1328.4H341.515C340.563 1328.4 339.779 1327.57 339.779 1326.57V1272.12C339.779 1271.58 339.555 1271.05 339.163 1270.7L315.527 1249.48C315.135 1249.13 314.911 1248.6 314.911 1248.06V1236.69C314.911 1235.68 314.126 1234.85 313.174 1234.85H283.545C282.593 1234.85 281.809 1234.02 281.809 1233.01V1215.65C281.809 1215.12 281.585 1214.65 281.249 1214.29L260.861 1193.79C260.525 1193.44 260.077 1193.26 259.629 1193.26H233.024C232.072 1193.26 231.288 1194.09 231.288 1195.1V1375.03C231.288 1376.04 230.504 1376.87 229.551 1376.87H222.27C221.318 1376.87 220.534 1376.04 220.534 1375.03V1350.5C220.534 1349.49 219.75 1348.66 218.797 1348.66H201.49C200.538 1348.66 199.754 1347.84 199.754 1346.83V1334.56C199.754 1333.85 199.362 1333.2 198.746 1332.9L178.75 1322.89C178.134 1322.6 177.742 1321.94 177.742 1321.23V1268.62C177.742 1267.61 176.958 1266.79 176.006 1266.79H156.962C156.01 1266.79 155.226 1265.96 155.226 1264.95V1259.68C155.226 1258.85 154.722 1258.14 153.938 1257.9L134.614 1252.21C134.614 1252.21 134.278 1252.15 134.166 1252.15H89.3023C88.3502 1252.15 87.566 1252.98 87.566 1253.99V1264.95C87.566 1265.96 86.7819 1266.79 85.8297 1266.79H66.7864C65.8342 1266.79 65.0501 1267.61 65.0501 1268.62V1387.23C65.0501 1388.24 64.266 1389.07 63.3138 1389.07H57.5448C56.5926 1389.07 55.8085 1388.24 55.8085 1387.23V1341.38C55.8085 1340.37 55.0242 1339.54 54.072 1339.54H36.2049C35.2527 1339.54 34.4684 1340.37 34.4684 1341.38V1404.18C34.4684 1405.19 33.6843 1406.02 32.7321 1406.02H25.6189C24.6668 1406.02 23.8826 1405.19 23.8826 1404.18V1243.09C23.8826 1242.38 23.4905 1241.72 22.9304 1241.43L1.36668 1230.11C0.750565 1229.81 0.414429 1229.16 0.414429 1228.45L0.246414 1211.51C0.246414 1210.09 -1.15378 1209.26 -2.33 1209.91L-57.78 1241.37C-58.3401 1241.66 -58.7321 1242.32 -58.7321 1243.03V1356.37C-58.7321 1357.37 -59.5162 1358.2 -60.4684 1358.2H-66.5176C-67.4697 1358.2 -68.2539 1357.37 -68.2539 1356.37V1274.55C-68.2539 1273.54 -69.038 1272.71 -69.9902 1272.71H-91.386C-91.8901 1272.71 -92.3381 1272.47 -92.6741 1272.12L-100.684 1263.17C-101.02 1262.82 -101.468 1262.58 -101.972 1262.58H-133.449C-134.402 1262.58 -135.186 1263.41 -135.186 1264.42V1270.75C-135.186 1271.76 -135.97 1272.59 -136.922 1272.59H-167.392C-168.344 1272.59 -169.128 1273.42 -169.128 1274.43V1332.55C-169.128 1333.56 -169.912 1334.39 -170.864 1334.39H-176.409C-177.361 1334.39 -178.145 1333.56 -178.145 1332.55V1307.61C-178.145 1306.6 -178.93 1305.77 -179.882 1305.77H-230.571C-231.523 1305.77 -232.307 1306.6 -232.307 1307.61V1332.55C-232.307 1333.56 -233.091 1334.39 -234.043 1334.39H-239.588C-240.541 1334.39 -241.325 1335.22 -241.325 1336.22C-241.325 1429.87 -241.329 1883.85 -241.325 1977.5C-241.325 1977.5 1046.05 1977.5 1099.11 1977.5C1099.11 1969.02 1099.11 1388.03 1099.11 1359.92Z" fill="#5E186C"/>
<path opacity="0.5" d="M1334.46 1599.33V1490.53C1334.46 1489.54 1333.71 1488.81 1332.83 1488.81H1299.5C1298.56 1488.81 1297.87 1488.02 1297.87 1487.09V1483.98C1297.87 1482.99 1297.12 1482.26 1296.24 1482.26H1294.67C1293.73 1482.26 1293.05 1481.47 1293.05 1480.54V1478.03C1293.05 1477.03 1292.29 1476.31 1291.42 1476.31H1280.39C1279.45 1476.31 1278.76 1477.1 1278.76 1478.03V1480.54C1278.76 1481.53 1278.01 1482.26 1277.13 1482.26H1264.1C1263.16 1482.26 1262.47 1483.06 1262.47 1483.98V1487.09C1262.47 1488.09 1261.72 1488.81 1260.84 1488.81H1253.26C1252.32 1488.81 1251.63 1489.61 1251.63 1490.53V1623.48C1251.63 1624.47 1250.88 1625.2 1250 1625.2H1241.11C1240.17 1625.2 1239.48 1624.41 1239.48 1623.48V1472.53C1239.48 1471.54 1238.73 1470.81 1237.85 1470.81H1231.33C1230.39 1470.81 1229.71 1470.02 1229.71 1469.09V1453.34C1229.71 1452.35 1228.95 1451.62 1228.08 1451.62H1193.37C1192.43 1451.62 1191.74 1452.42 1191.74 1453.34V1469.09C1191.74 1470.09 1190.99 1470.81 1190.11 1470.81H1125.83C1124.89 1470.81 1124.2 1471.61 1124.2 1472.53V1595.03C1124.2 1596.02 1123.45 1596.75 1122.57 1596.75H1114.49C1113.55 1596.75 1112.86 1595.95 1112.86 1595.03V1569.15C1112.86 1568.16 1112.11 1567.43 1111.23 1567.43H1090.56C1089.62 1567.43 1088.93 1566.64 1088.93 1565.71V1550.95C1088.93 1550.29 1088.55 1549.63 1087.99 1549.36L1064.56 1537.58C1063.99 1537.32 1063.62 1536.66 1063.62 1536V1474.85C1063.62 1473.86 1062.87 1473.13 1061.99 1473.13H1039.31C1038.37 1473.13 1037.68 1472.34 1037.68 1471.41V1464.66C1037.68 1463.86 1037.18 1463.2 1036.49 1462.94L1013.94 1456.32C1013.94 1456.32 1013.62 1456.32 1013.5 1456.32H961.371C960.432 1456.32 959.742 1457.11 959.742 1458.04V1471.41C959.742 1472.4 958.99 1473.13 958.113 1473.13H935.434C934.494 1473.13 933.805 1473.92 933.805 1474.85V1612.17C933.805 1613.16 933.053 1613.89 932.176 1613.89H925.848C924.908 1613.89 924.219 1613.09 924.219 1612.17V1558.63C924.219 1557.64 923.468 1556.91 922.59 1556.91H900.224C899.284 1556.91 898.595 1557.7 898.595 1558.63V1588.81C898.595 1589.8 897.843 1590.53 896.966 1590.53H889.949C889.009 1590.53 888.32 1589.73 888.32 1588.81V1505.95C888.32 1505.22 887.882 1504.5 887.193 1504.3L801.486 1475.05C800.421 1474.65 799.294 1475.51 799.294 1476.7V1575.7C799.294 1576.69 798.542 1577.42 797.665 1577.42H785.635C784.696 1577.42 784.007 1576.63 784.007 1575.7V1540.5C784.007 1539.5 784.758 1538.78 785.635 1538.78C786.575 1538.78 787.264 1537.98 787.264 1537.06V1532.82C787.264 1531.83 786.513 1531.1 785.635 1531.1H777.366C776.426 1531.1 775.737 1530.31 775.737 1529.38V1525.14C775.737 1524.15 774.985 1523.42 774.108 1523.42H726.305C725.365 1523.42 724.676 1524.22 724.676 1525.14V1529.38C724.676 1530.37 723.924 1531.1 723.047 1531.1H714.777C713.838 1531.1 713.148 1531.89 713.148 1532.82V1537.06C713.148 1538.05 713.9 1538.78 714.777 1538.78C715.717 1538.78 716.406 1539.57 716.406 1540.5V1580C716.406 1581 715.654 1581.72 714.777 1581.72H665.283C664.657 1581.72 664.03 1582.12 663.78 1582.78L661.963 1587.02C661.461 1588.21 662.276 1589.47 663.466 1589.47H663.654C664.594 1589.47 665.283 1590.26 665.283 1591.19V1628.44C665.283 1629.44 664.531 1630.17 663.654 1630.17H657.201C656.261 1630.17 655.572 1629.37 655.572 1628.44V1491.46C655.572 1490.47 656.324 1489.74 657.201 1489.74H657.577C658.517 1489.74 659.206 1488.95 659.206 1488.02V1481.47C659.206 1480.47 658.454 1479.75 657.577 1479.75H623.62C622.681 1479.75 621.991 1478.95 621.991 1478.03V1473.66C621.991 1472.67 621.239 1471.94 620.362 1471.94H580.203C579.263 1471.94 578.574 1472.73 578.574 1473.66V1478.03C578.574 1479.02 577.822 1479.75 576.945 1479.75H566.357C565.418 1479.75 564.729 1480.54 564.729 1481.47V1488.02C564.729 1489.01 565.48 1489.74 566.357 1489.74H566.733C567.673 1489.74 568.362 1490.53 568.362 1491.46V1564.12C568.362 1565.11 567.61 1565.84 566.733 1565.84H558.338C557.461 1565.84 556.709 1565.11 556.709 1564.19L555.644 1536.86C555.644 1535.93 554.892 1535.2 554.015 1535.2H549.316C548.376 1535.2 547.687 1534.41 547.687 1533.48V1525.74C547.687 1524.75 546.936 1524.02 546.058 1524.02H543.74C542.801 1524.02 542.111 1523.22 542.111 1522.3V1510.06C542.111 1509.59 541.924 1509.13 541.61 1508.8L511.35 1477.76C510.723 1477.1 509.658 1477.1 509.032 1477.76L478.834 1508.8C478.521 1509.13 478.333 1509.59 478.333 1510.06V1522.3C478.333 1523.29 477.581 1524.02 476.704 1524.02H474.386C473.446 1524.02 472.757 1524.81 472.757 1525.74V1533.48C472.757 1534.47 472.005 1535.2 471.128 1535.2H466.492C465.552 1535.2 464.8 1536 464.863 1536.99L465.991 1595.03C465.991 1596.02 465.239 1596.81 464.362 1596.81H458.222C457.282 1596.81 456.593 1596.02 456.593 1595.09V1539.04C456.593 1538.05 455.841 1537.32 454.964 1537.32H437.86C437.422 1537.32 436.983 1537.12 436.67 1536.79L430.279 1529.71C429.966 1529.38 429.528 1529.18 429.089 1529.18H403.778C402.839 1529.18 402.149 1529.97 402.149 1530.9V1535.6C402.149 1536.59 401.397 1537.32 400.52 1537.32H376.149C375.209 1537.32 374.52 1538.11 374.52 1539.04V1585.83C374.52 1586.82 373.768 1587.55 372.891 1587.55H368.882C367.942 1587.55 367.253 1586.75 367.253 1585.83V1566.04C367.253 1565.05 366.501 1564.32 365.624 1564.32H324.838C323.898 1564.32 323.209 1565.11 323.209 1566.04V1585.83C323.209 1586.82 322.457 1587.55 321.58 1587.55H317.571C316.631 1587.55 315.942 1588.34 315.942 1589.27V1628.44C315.942 1629.44 315.19 1630.17 314.313 1630.17H309.551C308.612 1630.17 307.922 1629.37 307.922 1628.44V1484.51C307.922 1483.52 307.171 1482.79 306.293 1482.79H296.645C296.019 1482.79 295.392 1482.39 295.142 1481.73L289.378 1468.17C289.127 1467.57 288.501 1467.11 287.874 1467.11H223.281C222.655 1467.11 222.028 1467.5 221.777 1468.17L216.014 1481.73C215.763 1482.33 215.136 1482.79 214.51 1482.79H204.862C203.922 1482.79 203.233 1483.59 203.233 1484.51V1605.02C203.233 1606.01 202.481 1606.74 201.604 1606.74H192.394C191.454 1606.74 190.765 1605.94 190.765 1605.02V1414.56C190.765 1413.57 191.517 1412.84 192.394 1412.84H193.647C194.587 1412.84 195.276 1412.05 195.276 1411.12V1406.36C195.276 1405.36 194.524 1404.64 193.647 1404.64H186.004C185.064 1404.64 184.375 1403.84 184.375 1402.92V1402.59C184.375 1401.59 183.623 1400.86 182.746 1400.86H178.047C177.107 1400.86 176.418 1400.07 176.418 1399.14V1385.91C176.418 1385.18 176.982 1384.52 177.734 1384.52C178.423 1384.52 179.049 1383.92 179.049 1383.13V1379.62C179.049 1378.63 178.298 1377.9 177.421 1377.9H164.264C163.324 1377.9 162.635 1377.11 162.635 1376.18V1375.98C162.635 1374.99 161.883 1374.26 161.006 1374.26C160.066 1374.26 159.377 1373.47 159.377 1372.54V1371.81C159.377 1370.82 158.625 1370.09 157.748 1370.09H141.521C140.582 1370.09 139.893 1370.89 139.893 1371.81V1372.54C139.893 1373.53 139.141 1374.26 138.264 1374.26C137.324 1374.26 136.635 1375.06 136.635 1375.98V1376.18C136.635 1377.17 135.883 1377.9 135.006 1377.9H121.849C120.909 1377.9 120.22 1378.7 120.22 1379.62V1383.13C120.22 1383.86 120.784 1384.52 121.536 1384.52C122.225 1384.52 122.852 1385.11 122.852 1385.91V1399.14C122.852 1400.14 122.1 1400.86 121.223 1400.86H116.524C115.584 1400.86 114.895 1401.66 114.895 1402.59V1402.92C114.895 1403.91 114.143 1404.64 113.266 1404.64H105.623C104.683 1404.64 103.994 1405.43 103.994 1406.36V1411.12C103.994 1412.11 104.746 1412.84 105.623 1412.84H106.876C107.815 1412.84 108.505 1413.64 108.505 1414.56V1560.35C108.505 1561.34 107.753 1562.07 106.876 1562.07H95.1599C94.2201 1562.07 93.5309 1561.28 93.5309 1560.35V1436.93C93.5309 1435.94 92.7792 1435.21 91.9021 1435.21H81.3766C80.4368 1435.21 79.7478 1434.42 79.7478 1433.49V1428.59C79.7478 1427.6 78.9959 1426.87 78.1188 1426.87H60.7018C59.7621 1426.87 59.0729 1426.08 59.0729 1425.15V1421.05C59.0729 1420.06 58.3212 1419.33 57.4441 1419.33H42.5956C41.6559 1419.33 40.9669 1420.12 40.9669 1421.05V1425.15C40.9669 1426.14 40.215 1426.87 39.3379 1426.87H36.456C35.5162 1426.87 34.827 1427.67 34.827 1428.59V1433.49C34.827 1434.48 34.0751 1435.21 33.198 1435.21H4.75464C3.81487 1435.21 3.12566 1436 3.12566 1436.93V1620.9C3.12566 1621.89 2.37378 1622.62 1.49666 1622.62H-6.20927C-7.14903 1622.62 -7.83826 1621.83 -7.83826 1620.9V1574.38C-7.83826 1573.39 -7.0864 1572.66 -6.20927 1572.66H-5.26955C-4.07918 1572.66 -3.26479 1571.33 -3.76599 1570.21L-6.14676 1564.65C-6.39735 1564.06 -7.0238 1563.59 -7.65031 1563.59H-66.3542C-67.294 1563.59 -67.9831 1562.8 -67.9831 1561.87V1514.75C-67.9831 1513.76 -67.2313 1513.03 -66.3542 1513.03H-65.7904C-64.8506 1513.03 -64.1614 1512.24 -64.1614 1511.31V1505.75C-64.1614 1504.76 -64.9132 1504.03 -65.7904 1504.03H-76.1277C-77.0675 1504.03 -77.7567 1503.24 -77.7567 1502.31V1496.75C-77.7567 1495.76 -78.5085 1495.03 -79.3856 1495.03H-136.21C-137.15 1495.03 -137.839 1495.83 -137.839 1496.75V1502.31C-137.839 1503.31 -138.591 1504.03 -139.468 1504.03H-149.805C-150.745 1504.03 -151.434 1504.83 -151.434 1505.75V1511.31C-151.434 1512.31 -150.682 1513.03 -149.805 1513.03H-149.241C-148.302 1513.03 -147.612 1513.83 -147.612 1514.75V1592.91C-147.612 1593.9 -148.364 1594.63 -149.241 1594.63H-156.133C-157.073 1594.63 -157.762 1595.42 -157.762 1596.35V1745.58C-157.762 1746.57 -157.01 1878.79 -156.133 1878.79H1342.48C1343.42 1878.79 1344.11 1746.5 1344.11 1745.58V1602.77C1344.11 1601.78 1343.35 1601.05 1342.48 1601.05H1339.22C1338.28 1601.05 1337.59 1600.25 1337.59 1599.33H1334.46Z" fill="#5E186C"/>
</g>
<path d="M429.64 580.336C531.787 580.28 519.902 656.483 633.884 674.73C747.865 692.978 834.998 720.65 834.998 830.03C834.998 931.504 745.199 995.783 644.387 995.783C543.576 995.783 165.783 1058.28 165.214 899.875C164.732 765.455 256.766 783.682 284.925 727.269C313.084 670.856 323.511 580.397 429.64 580.336Z" fill="#8B3D99"/>
<mask id="mask0_1357_6465" style="mask-type:alpha" maskUnits="userSpaceOnUse" x="165" y="541" width="670" height="467">
<path d="M834.998 541.234C834.998 604.933 835 717.828 835 830.031C835 931.505 745.201 995.784 644.389 995.784C543.578 995.784 165.785 1058.28 165.216 899.876C164.73 764.497 165.216 606.197 165.216 541.236C385.848 541.238 611.451 541.234 834.998 541.234Z" fill="#8B3D99"/>
</mask>
<g mask="url(#mask0_1357_6465)">
<path d="M653.693 975.423C628.106 975.554 606.81 965.118 591.806 947.545C555.826 905.45 562.044 831.273 566.102 780.245C567.708 760.161 585.31 745.171 605.38 746.776C625.464 748.382 640.454 765.955 638.849 786.054C637.316 805.19 634.703 829.258 636.148 855.079C637.929 886.869 645.125 897.612 647.285 900.137C648.511 901.567 649.329 902.209 652.058 902.399C655.517 902.647 656.875 901.961 658.641 900.356C677.776 882.913 679.455 819.552 680.331 796.432C681.09 776.289 698.108 760.613 718.178 761.343C738.321 762.102 754.026 779.048 753.267 799.191C753.223 800.3 753.194 801.774 753.15 803.54C752.026 851.546 746.1 919.403 707.786 954.302C692.664 968.081 674.069 975.306 653.678 975.423H653.693Z" fill="#FCDABA"/>
<path d="M716.806 834.308C736.959 834.308 753.297 817.971 753.297 797.818C753.297 777.665 736.959 761.328 716.806 761.328C696.654 761.328 680.316 777.665 680.316 797.818C680.316 817.971 696.654 834.308 716.806 834.308Z" fill="#FCDABA"/>
<path d="M708.793 749.403L690.869 772.158L742.743 823.493L779.992 823.288L779.613 749.024L708.793 749.403Z" fill="#FCDABA"/>
<path d="M680.316 798.008C680.17 792.082 680.418 783.003 682.666 772.275C685.644 758.132 689.906 751.87 693.248 740.602C695.335 733.523 697.32 723.612 697.014 710.782C696.882 705.396 701.115 700.915 706.501 700.842C711.478 700.784 715.726 704.535 716.193 709.498C717.069 718.868 717.04 728.487 715.989 738.267C719.141 741.332 725.68 748.557 727.987 759.737C732.219 780.23 718.499 795.965 716.806 797.818L680.316 798.008Z" fill="#FCDABA"/>
<path d="M707.713 805.934C710.588 802.241 719.346 790.083 719.463 772.232C719.579 755.198 711.785 743.332 708.983 739.449C710.355 738.427 712.763 736.34 714.573 732.881C716.427 729.349 716.733 726.094 716.777 724.386C716.719 727.174 716.587 730.049 716.398 733.027C716.281 734.808 716.135 736.559 715.974 738.267C728.658 744.996 736.438 758.205 735.854 772.086C735.183 787.908 723.754 801.832 707.713 805.949V805.934Z" fill="#DCAC82"/>
<g clip-path="url(#clip2_1357_6465)">
<path d="M790.334 820.138V677.631C790.334 674.43 787.73 671.836 784.519 671.836H721.332C718.121 671.836 715.517 674.43 715.517 677.631V820.138C715.517 823.339 718.121 825.933 721.332 825.933H784.519C787.73 825.933 790.334 823.339 790.334 820.138Z" fill="#403556"/>
<path d="M790.334 815.669V673.162C790.334 669.961 787.73 667.367 784.519 667.367H721.332C718.121 667.367 715.517 669.961 715.517 673.162V815.669C715.517 818.87 718.121 821.464 721.332 821.464H784.519C787.73 821.464 790.334 818.87 790.334 815.669Z" fill="#2C2044"/>
<path d="M786.701 809.293V679.538C786.701 677.95 785.41 676.663 783.816 676.663H722.02C720.426 676.663 719.135 677.95 719.135 679.538V809.293C719.135 810.881 720.426 812.168 722.02 812.168H783.816C785.41 812.168 786.701 810.881 786.701 809.293Z" fill="#742384"/>
<path d="M745.384 673.698H760.452C761.327 673.698 762.036 672.991 762.036 672.119V671.925C762.036 671.053 761.327 670.346 760.452 670.346H745.384C744.509 670.346 743.799 671.053 743.799 671.925V672.119C743.799 672.991 744.509 673.698 745.384 673.698Z" fill="#544A69"/>
<path d="M771.117 755.963C766.661 756.045 761.604 756.527 756.931 757.115C757.454 755.231 757.974 753.37 757.974 753.37C757.974 753.37 758.509 754.524 760.018 754.407C762.161 754.241 764.769 752.148 766.031 748.315C767.373 744.242 767.253 739.618 764.515 739.229C762.303 738.916 761.247 740.877 761.094 741.267C761.094 741.267 761.564 739.486 760.159 739.797C758.812 740.095 758.566 740.697 758.233 741.773C758.174 741.962 757.04 746.194 755.852 750.653C755.834 750.682 755.82 750.716 755.809 750.753C755.516 751.761 754.935 752.099 754.515 752.125C753.158 752.213 756.076 743.231 756.297 742.549C756.589 741.651 756.764 740.97 755.774 740.595C755.107 740.341 754.192 740.433 753.924 741.152C753.811 741.453 753.729 741.675 753.729 741.675C753.729 741.675 752.967 740.539 751.281 740.693C749.594 740.848 747.465 742.906 746.056 746.518C744.647 750.13 744.035 755.31 747.377 755.826C749.074 756.088 750.497 755.115 751.243 753.512C751.243 753.512 751.113 754.585 752.23 755.111C752.669 755.319 753.76 755.238 754.788 754.655C754.518 755.673 754.263 756.638 754.036 757.498C746.819 758.499 741.14 759.616 741.14 759.616C741.141 759.612 745.095 746.2 745.986 743.248C746.732 740.777 745.326 741.314 744.287 741.617C743.18 741.939 742.656 742.875 742.101 744.574C739.679 751.995 737.772 754.306 736.389 753.808C735.121 753.351 739.11 745.47 738.153 744.429C737.323 743.527 735.614 743.576 735.288 744.107C734.962 744.639 735.447 745.125 735.239 745.878C735.031 746.63 733.433 750.704 733.265 751.616C733.096 752.528 731.71 757.585 735.378 757.366C737.546 757.237 739.031 755.592 739.188 755.135C738.511 757.1 737.544 760.27 737.544 760.27C737.544 760.27 733.106 761.383 729.569 765.096C726.76 768.043 724.774 774.392 728.969 775.404C735.489 776.977 738.571 766.994 740.153 763.24C745.439 762.06 749.47 761.276 753.199 760.692C753.143 760.91 753.106 761.059 753.093 761.12C752.754 762.683 752.83 763.309 754.046 763.158C755.358 762.995 755.523 762.32 755.952 760.686C755.981 760.574 756.018 760.435 756.061 760.275C760.48 759.677 764.818 759.302 770.787 758.802C772.642 758.647 772.622 758.336 772.804 757.225C773.008 755.965 771.557 755.955 771.117 755.963ZM759.736 747.349C760.628 744.424 761.448 743.254 762.218 742.923C764.057 742.133 764.405 744.447 762.987 747.96C761.344 752.025 759.427 751.932 758.692 751.131C758.691 751.131 758.793 750.436 759.736 747.349ZM751.526 749.113C750.738 751.022 749.999 752.365 748.983 752.373C747.527 752.383 747.565 750.188 748.601 747.425C749.473 745.102 751.062 743.639 751.921 743.473C752.778 743.308 753.776 743.668 751.526 749.113ZM732.262 771.325C728.796 774.427 729.67 770.178 730.958 768.342C733.405 764.857 736.427 763.976 736.427 763.976C734.891 768.48 732.972 770.688 732.262 771.325Z" fill="white"/>
<path d="M775.726 744.726C777.036 743.205 777.633 739.965 775.437 738.772C772.779 737.33 769.31 739.532 767.878 744.277C766.604 748.497 766.128 753.686 770.448 753.494C772.576 753.4 774.412 751.864 775.077 750.723C775.399 750.169 775.528 749.298 775.471 748.91C775.314 747.824 774.651 747.666 773.527 749.093C773.25 749.407 771.032 751.385 769.948 750.21C769.164 749.361 769.823 747.695 769.854 747.694C771.273 747.59 773.756 747.015 775.726 744.726ZM772.547 741.042C773.74 739.924 774.881 741.261 773.502 743.186C772.11 745.128 770.479 745.078 770.466 745.14C770.633 744.38 771.247 742.262 772.547 741.042Z" fill="white"/>
<path d="M752.221 727.97C751.961 727.802 751.572 727.719 751.055 727.719H749.509V729.868H751.105C752.109 729.868 752.612 729.505 752.612 728.779C752.612 728.406 752.482 728.137 752.221 727.97Z" fill="#10CBB4"/>
<path d="M753.047 717.968C748.375 718.184 744.56 721.947 744.274 726.63C744.081 729.8 745.48 732.65 747.744 734.456C747.977 734.642 748.113 734.923 748.113 735.222V737.264C748.113 737.42 748.201 737.565 748.339 737.638L748.396 737.668C748.529 737.738 748.689 737.726 748.81 737.638L750.557 736.375C750.786 736.21 751.074 736.152 751.349 736.217C752.034 736.381 752.748 736.468 753.483 736.468C758.579 736.468 762.71 732.324 762.71 727.212C762.71 721.957 758.342 717.723 753.047 717.968ZM753.804 730.001C753.593 730.33 753.309 730.573 752.952 730.731C752.729 730.825 752.471 730.89 752.182 730.929C751.892 730.968 751.553 730.987 751.166 730.987H748.923C748.6 730.987 748.369 730.915 748.23 730.769C748.091 730.623 748.022 730.391 748.022 730.073V724.54C748.022 724.216 748.093 723.982 748.235 723.84C748.376 723.697 748.606 723.626 748.922 723.626H751.299C751.649 723.626 751.953 723.648 752.211 723.691C752.468 723.735 752.698 723.819 752.901 723.942C753.074 724.046 753.228 724.177 753.361 724.336C753.495 724.496 753.597 724.672 753.667 724.863C753.736 725.056 753.771 725.259 753.771 725.474C753.771 726.21 753.404 726.748 752.67 727.091C753.634 727.398 754.116 727.998 754.116 728.887C754.119 729.3 754.014 729.67 753.804 730.001ZM759.024 730.291C758.84 730.56 758.57 730.765 758.21 730.904C757.852 731.042 757.415 731.112 756.901 731.112C756.41 731.112 755.989 731.038 755.64 730.887C755.29 730.736 755.03 730.548 754.864 730.323C754.697 730.097 754.614 729.87 754.614 729.642C754.614 729.492 754.667 729.363 754.774 729.255C754.881 729.148 755.016 729.095 755.179 729.095C755.322 729.095 755.433 729.13 755.51 729.2C755.587 729.27 755.66 729.369 755.73 729.496C755.87 729.741 756.038 729.923 756.232 730.044C756.427 730.165 756.694 730.225 757.031 730.225C757.305 730.225 757.528 730.163 757.704 730.042C757.879 729.92 757.966 729.78 757.966 729.622C757.966 729.381 757.875 729.205 757.693 729.095C757.512 728.984 757.212 728.879 756.795 728.779C756.325 728.662 755.941 728.539 755.647 728.41C755.351 728.281 755.115 728.111 754.939 727.9C754.762 727.689 754.673 727.43 754.673 727.122C754.673 726.847 754.755 726.588 754.918 726.344C755.082 726.099 755.323 725.905 755.642 725.759C755.961 725.613 756.345 725.541 756.795 725.541C757.148 725.541 757.467 725.578 757.748 725.652C758.031 725.726 758.265 725.824 758.454 725.949C758.643 726.073 758.786 726.209 758.885 726.36C758.983 726.511 759.032 726.658 759.032 726.801C759.032 726.958 758.98 727.087 758.875 727.188C758.77 727.288 758.62 727.339 758.427 727.339C758.286 727.339 758.167 727.299 758.068 727.219C757.97 727.138 757.857 727.017 757.73 726.857C757.627 726.723 757.506 726.616 757.365 726.536C757.224 726.455 757.034 726.415 756.794 726.415C756.547 726.415 756.342 726.468 756.178 726.573C756.015 726.678 755.933 726.81 755.933 726.968C755.933 727.111 755.993 727.229 756.113 727.322C756.234 727.414 756.395 727.49 756.599 727.55C756.802 727.61 757.082 727.684 757.439 727.771C757.863 727.875 758.209 727.999 758.478 728.142C758.746 728.286 758.951 728.456 759.089 728.652C759.227 728.848 759.297 729.072 759.297 729.323C759.299 729.698 759.208 730.022 759.024 730.291Z" fill="#10CBB4"/>
<path d="M751.728 726.544C751.93 726.474 752.084 726.341 752.191 726.143C752.274 726.002 752.316 725.845 752.316 725.671C752.316 725.3 752.184 725.053 751.921 724.931C751.657 724.809 751.255 724.748 750.715 724.748H749.509V726.651H750.87C751.24 726.649 751.526 726.614 751.728 726.544Z" fill="#10CBB4"/>
</g>
<path d="M796.928 733.04C801.649 731.329 804.089 726.113 802.377 721.392C800.665 716.671 795.45 714.231 790.729 715.943L782.276 719.008C777.555 720.72 775.115 725.935 776.827 730.656C778.539 735.378 783.754 737.817 788.476 736.105L796.928 733.04Z" fill="#FCDABA"/>
<path d="M797.814 758.983C802.749 758.048 805.991 753.29 805.056 748.356C804.121 743.421 799.363 740.179 794.428 741.114L783.874 743.114C778.939 744.049 775.697 748.808 776.632 753.742C777.567 758.676 782.325 761.918 787.26 760.983L797.814 758.983Z" fill="#FCDABA"/>
<path d="M798.571 783.927C803.569 783.437 807.225 778.989 806.735 773.991C806.246 768.993 801.798 765.337 796.8 765.826L786.428 766.842C781.429 767.331 777.774 771.779 778.263 776.777C778.752 781.776 783.201 785.431 788.199 784.942L798.571 783.927Z" fill="#FCDABA"/>
<path d="M795.641 808.763C800.639 808.274 804.295 803.826 803.805 798.828C803.316 793.829 798.868 790.174 793.87 790.663L784.878 791.543C779.879 792.033 776.224 796.481 776.713 801.479C777.203 806.478 781.651 810.133 786.649 809.644L795.641 808.763Z" fill="#FCDABA"/>
<path d="M647.153 853.356C636.586 856.684 620.705 860.348 601.249 859.968C584.04 859.632 569.896 856.275 560 853.093C559.723 838.629 560.336 822.529 562.496 805.131C563.46 797.41 564.642 790.039 565.985 783.062C590.302 783.135 614.633 783.208 638.95 783.281C641.68 806.634 644.424 830.002 647.153 853.356Z" fill="#10CBB4"/>
<path d="M602.46 819.654C622.613 819.654 638.95 803.317 638.95 783.164C638.95 763.011 622.613 746.674 602.46 746.674C582.307 746.674 565.97 763.011 565.97 783.164C565.97 803.317 582.307 819.654 602.46 819.654Z" fill="#10CBB4"/>
<path d="M604.501 746.736L356.739 733.188C336.616 732.087 319.411 747.508 318.311 767.631C317.211 787.754 332.631 804.959 352.754 806.059L600.516 819.608C620.639 820.708 637.844 805.287 638.944 785.164C640.045 765.041 624.624 747.837 604.501 746.736Z" fill="#10CBB4"/>
<path d="M433.744 599.882C433.117 611.208 431.73 622.447 424.023 629.541C412.2 640.444 419.046 647.596 424.549 641.086C424.549 641.086 419.09 660.163 423.337 663.929C427.103 667.272 433.102 660.12 433.102 660.12C433.102 660.12 433.467 667.768 432.124 671.84C426.869 687.662 435.831 688.611 444.545 676.175C441.626 682.495 437.203 690.611 441.976 693.253C445.26 695.077 453.624 691.384 457.434 682.656L453.609 598.962L433.744 599.867V599.882Z" fill="#2C2044"/>
<path d="M361.056 994.238V1055.91L462.177 1070.5H477.153L578.289 1055.91V994.238H361.056Z" fill="#002649"/>
<path d="M512.621 727.465L516.358 659.098L453.975 655.682L450.238 724.05C445.567 724.064 440.955 724.123 436.445 724.254C441.758 743.609 458.908 757.942 479.605 759.066C500.302 760.204 518.912 747.827 526.312 729.173C521.846 728.56 517.263 727.991 512.621 727.465Z" fill="#FCDABA"/>
<path d="M514.869 686.289L513.337 714.182C502.507 714.766 485.152 713.788 471.578 704.097C460.776 696.375 457.843 686.99 456.938 683.122L514.855 686.289H514.869Z" fill="#DCAC82"/>
<path d="M287.711 946.946C307.864 946.946 324.201 930.609 324.201 910.456C324.201 890.303 307.864 873.966 287.711 873.966C267.558 873.966 251.221 890.303 251.221 910.456C251.221 930.609 267.558 946.946 287.711 946.946Z" fill="#FCDABA"/>
<path d="M246.332 1093.3C228.568 1089.17 216.322 1072.3 218.38 1053.73C224.248 1000.98 235.954 948.785 253.192 898.604C270.999 846.744 294.747 796.84 323.793 750.323C334.463 733.231 356.97 728.02 374.062 738.69C391.153 749.36 396.364 771.867 385.695 788.973C359.582 830.82 338.214 875.674 322.202 922.322C306.715 967.439 296.177 1014.38 290.908 1061.82C288.675 1081.84 270.634 1096.28 250.608 1094.04C249.149 1093.88 247.718 1093.64 246.317 1093.31L246.332 1093.3Z" fill="#FCDABA"/>
<path d="M359.874 852.685C349.014 850.481 333.353 845.986 316.494 836.235C301.607 827.624 290.864 817.815 283.741 810.24C290.499 797.454 298.833 783.661 309.138 769.488C313.721 763.197 318.319 757.329 322.873 751.856C344.125 763.693 365.362 775.545 386.614 787.383C377.696 809.145 368.777 830.908 359.859 852.671L359.874 852.685Z" fill="#10CBB4"/>
<path d="M354.751 806.139C374.904 806.139 391.241 789.802 391.241 769.649C391.241 749.496 374.904 733.159 354.751 733.159C334.598 733.159 318.261 749.496 318.261 769.649C318.261 789.802 334.598 806.139 354.751 806.139Z" fill="#10CBB4"/>
<path d="M436.296 623.878L445.045 623.477L446.513 655.555L437.764 655.955C431.32 656.25 425.861 651.269 425.566 644.825L425.166 636.076C424.871 629.631 429.852 624.173 436.296 623.878Z" fill="#FCDABA"/>
<path fill-rule="evenodd" clip-rule="evenodd" d="M434.062 635.202C434.265 634.854 434.712 634.736 435.06 634.939L442.183 639.084C442.397 639.208 442.533 639.433 442.545 639.681C442.556 639.928 442.441 640.165 442.24 640.309L435.525 645.096C435.197 645.33 434.742 645.254 434.508 644.926C434.274 644.598 434.35 644.142 434.678 643.908L440.472 639.777L434.326 636.2C433.978 635.997 433.86 635.551 434.062 635.202Z" fill="#DCAC82"/>
<path d="M527.538 619.732L536.281 619.338C542.718 619.046 548.192 624.023 548.483 630.475L548.878 639.218C549.17 645.655 544.192 651.128 537.741 651.42L528.998 651.814L527.538 619.732Z" fill="#DCAC82"/>
<path d="M485.696 553.66L492.986 553.326C517.132 552.221 537.625 570.921 538.73 595.067L541.732 660.68C542.653 680.802 527.07 697.879 506.948 698.8L492.368 699.467C468.222 700.572 447.729 681.872 446.624 657.727L443.955 599.404C442.85 575.258 461.55 554.765 485.696 553.66Z" fill="#FCDABA"/>
<path d="M485.904 637.067C487.844 636.979 489.322 634.818 489.204 632.241C489.086 629.664 487.417 627.647 485.477 627.736C483.536 627.825 482.058 629.986 482.176 632.562C482.294 635.139 483.963 637.156 485.904 637.067Z" fill="#2C2044"/>
<path d="M528.216 635.136C530.157 635.047 531.635 632.886 531.517 630.309C531.399 627.732 529.73 625.715 527.789 625.804C525.849 625.893 524.371 628.054 524.489 630.631C524.607 633.208 526.276 635.225 528.216 635.136Z" fill="#2C2044"/>
<path d="M475.241 620.506C475.007 620.506 474.759 620.389 474.628 620.17C474.409 619.834 474.511 619.382 474.847 619.163C476.657 618.01 479.649 616.609 483.531 616.55C487.049 616.477 489.706 617.528 491.384 618.404C491.749 618.594 491.88 619.032 491.691 619.382C491.501 619.747 491.063 619.878 490.713 619.689C489.209 618.915 486.816 617.995 483.78 617.995C483.707 617.995 483.634 617.995 483.561 617.995C480.014 618.054 477.299 619.324 475.65 620.375C475.533 620.447 475.387 620.491 475.256 620.491L475.241 620.506Z" fill="#2C2044"/>
<path d="M522.649 618.331C522.445 618.331 522.226 618.243 522.08 618.068C521.832 617.761 521.875 617.294 522.182 617.046C523.437 616.01 525.51 614.74 528.239 614.506C531.334 614.244 533.8 615.411 535.333 616.448C535.669 616.667 535.756 617.119 535.537 617.455C535.318 617.791 534.851 617.878 534.53 617.659C533.202 616.754 531.056 615.747 528.371 615.966C526.006 616.17 524.211 617.28 523.101 618.185C522.97 618.301 522.795 618.345 522.634 618.345L522.649 618.331Z" fill="#2C2044"/>
<path d="M536.121 582.074C528.546 584.395 518.956 586.57 507.732 587.387C492.172 588.526 479.08 586.657 469.768 584.57C460.849 595.999 459.828 607.077 458.602 622.87L434.839 623.95L433.745 599.881C432.635 575.725 451.333 555.247 475.489 554.137L494.843 553.262C513.541 552.401 530.472 564.223 536.121 582.074Z" fill="#2C2044"/>
<path d="M476.487 646.71C479.298 646.581 481.518 645.211 481.446 643.648C481.375 642.086 479.039 640.924 476.228 641.053C473.418 641.181 471.197 642.552 471.269 644.114C471.34 645.676 473.677 646.839 476.487 646.71Z" fill="#FBCCA1"/>
<path d="M535.868 643.998C538.678 643.869 540.898 642.499 540.827 640.936C540.755 639.374 538.419 638.212 535.609 638.341C532.798 638.469 530.578 639.84 530.649 641.402C530.721 642.964 533.057 644.127 535.868 643.998Z" fill="#FBCCA1"/>
<path d="M489.34 553.509C505.396 552.78 507.06 572.557 507.775 588.058C497.31 583.563 496.711 612.755 483.911 616.229C478.787 617.688 482.699 609.368 485.297 598.655C477.693 612.682 474.088 624.344 467.753 624.928C462.338 625.439 465.359 614.083 467.111 599.151C458.309 616.812 457.842 637.437 449.085 637.831C445.903 637.977 443.246 626.548 442.356 600.056C441.757 582.264 441.436 555.684 489.34 553.495V553.509Z" fill="#2C2044"/>
<path d="M505.849 554.24C506.272 563.639 507.06 572.572 507.761 588.073C518.124 582.176 518.11 611.792 528.093 614.215C532.093 615.266 530.049 606.727 527.218 596.262C534.691 611.836 543.419 618.842 547.856 616.915C551.899 615.163 546.426 611.427 539.872 586.803C535.537 570.952 522.109 556.035 505.849 554.24Z" fill="#2C2044"/>
<path d="M505.002 659.754C503.061 659.842 501.12 659.798 499.193 659.608C492.027 658.922 488.976 660.966 489.764 665.417C490.596 670.117 493.69 675.737 505.703 675.211C517.701 674.657 520.27 668.775 520.678 664.016C521.058 659.506 517.847 657.755 510.768 659.083C508.87 659.448 506.944 659.667 505.002 659.754Z" fill="#6B222F"/>
<path d="M516.942 671.723C514.709 673.591 511.191 674.949 505.703 675.212C500.215 675.445 496.595 674.409 494.201 672.759C496.551 669.913 500.624 667.943 505.353 667.724C510.082 667.505 514.329 669.11 516.927 671.723H516.942Z" fill="#DE4A65"/>
<path d="M516.767 658.805L515.702 661.315C515.307 662.235 514.475 662.877 513.498 663.052C509.411 663.753 504.433 664.381 498.712 664.643C495.457 664.789 492.435 664.804 489.677 664.716C489.341 660.761 492.421 658.965 499.193 659.622C501.12 659.797 503.061 659.856 505.003 659.768C506.944 659.681 508.885 659.447 510.768 659.097C513.235 658.63 515.234 658.542 516.782 658.805H516.767Z" fill="white"/>
<path d="M604.343 746.746C596.14 845.153 587.922 943.544 579.719 1041.95L361.173 1043.03C361.129 1026.77 361.085 1010.51 361.041 994.236C362.34 857.953 362.53 823.069 362.413 818.5C362.413 818.31 362.195 809.217 362.195 809.217C361.8 795.424 361.071 781.047 359.918 766.144C359.042 754.803 357.962 743.812 356.736 733.172C368.179 730.982 380.454 729.027 393.503 727.494C408.727 725.699 423.104 724.692 436.444 724.239C441.787 743.55 458.922 757.825 479.576 758.948C500.229 760.072 518.824 747.753 526.225 729.158C556.511 733.522 582.799 740.076 604.343 746.732V746.746Z" fill="#10CBB4"/>
<path d="M418.418 1042.75C413.558 1042.78 408.697 1042.8 403.822 1042.83C405.136 982.371 403.808 921.257 399.896 861.005C397.035 816.867 392.7 772.319 387.022 728.342C389.168 728.05 391.328 727.787 393.518 727.524C396.218 727.203 398.874 726.911 401.516 726.648C407.223 770.874 411.573 815.684 414.463 860.056C418.404 920.586 419.732 981.991 418.418 1042.75Z" fill="#002649"/>
<path d="M577.282 739.201C575.121 783.003 572.334 827.156 568.962 870.711C564.539 927.65 559.037 985.231 552.541 1042.08C547.637 1042.11 542.733 1042.14 537.829 1042.16C544.397 984.925 549.958 926.935 554.395 869.587C557.825 825.273 560.671 780.361 562.832 735.814C567.794 736.894 572.611 738.033 577.282 739.201Z" fill="#002649"/>
</g>
<path d="M577.781 565.418C593.978 565.418 607.109 552.288 607.109 536.092C607.109 519.896 593.978 506.766 577.781 506.766C561.585 506.766 548.456 519.896 548.456 536.092C548.456 552.288 561.585 565.418 577.781 565.418Z" fill="#E3B2EB"/>
<path d="M560.102 536.481C560.102 526.499 568.194 518.407 578.175 518.407C588.158 518.407 596.25 526.499 596.25 536.481C596.25 546.463 588.158 554.555 578.175 554.555C568.194 554.555 560.102 546.463 560.102 536.481ZM578.175 515.843C566.778 515.843 557.537 525.083 557.537 536.481C557.537 547.879 566.778 557.119 578.175 557.119C589.574 557.119 598.813 547.879 598.813 536.481C598.813 525.083 589.574 515.843 578.175 515.843Z" fill="white"/>
<path d="M560.32 528.172C559.612 528.172 559.039 528.746 559.039 529.454C559.039 530.162 559.612 530.736 560.32 530.736H596.027C596.735 530.736 597.31 530.162 597.31 529.454C597.31 528.746 596.735 528.172 596.027 528.172H560.32Z" fill="white"/>
<path d="M596.027 542.691L560.32 542.698C559.612 542.698 559.039 543.272 559.039 543.98C559.039 544.688 559.612 545.262 560.32 545.262L596.027 545.255C596.735 545.255 597.31 544.681 597.31 543.973C597.31 543.265 596.735 542.691 596.027 542.691Z" fill="white"/>
<path d="M585.296 517.343C584.85 516.792 584.043 516.706 583.491 517.15C582.942 517.595 582.854 518.402 583.299 518.953C586.324 522.704 588.402 529.094 588.402 536.482C588.402 543.87 586.324 550.26 583.299 554.011C582.854 554.562 582.942 555.369 583.491 555.814C584.043 556.258 584.85 556.172 585.296 555.621C588.79 551.288 590.965 544.271 590.965 536.482C590.965 528.693 588.79 521.676 585.296 517.343Z" fill="white"/>
<path d="M573.055 518.953C573.498 518.402 573.412 517.595 572.861 517.15C572.309 516.706 571.503 516.792 571.058 517.343C567.564 521.676 565.387 528.693 565.387 536.482C565.387 544.271 567.564 551.288 571.058 555.621C571.503 556.172 572.309 556.258 572.861 555.814C573.412 555.369 573.498 554.562 573.055 554.011C570.03 550.26 567.952 543.87 567.952 536.482C567.952 529.094 570.03 522.704 573.055 518.953Z" fill="white"/>
<path d="M579.453 517.125C579.453 516.417 578.88 515.843 578.171 515.843C577.463 515.843 576.89 516.417 576.89 517.125V555.837C576.89 556.545 577.463 557.119 578.171 557.119C578.88 557.119 579.453 556.545 579.453 555.837V517.125Z" fill="white"/>
<path d="M734.424 618.449C753.859 618.449 769.616 602.693 769.616 583.257C769.616 563.822 753.859 548.066 734.424 548.066C714.988 548.066 699.231 563.822 699.231 583.257C699.231 602.693 714.988 618.449 734.424 618.449Z" fill="#F4C12A"/>
<path d="M740.231 596.167H729.833C728.793 596.167 728.1 595.474 728.1 594.434V593.568C728.1 591.142 727.059 588.716 725.154 586.809C722.382 584.037 720.994 580.398 721.168 576.585C721.515 569.307 727.58 563.415 734.858 563.242H735.032C742.656 563.242 748.895 569.48 748.895 577.105C748.895 580.744 747.509 584.383 744.735 586.983C742.829 588.716 741.962 591.142 741.962 593.568V594.434C741.962 595.474 741.269 596.167 740.231 596.167ZM731.565 592.701H738.497C738.671 589.582 740.057 586.809 742.31 584.383C744.389 582.477 745.429 579.878 745.429 577.105C745.429 571.386 740.75 566.708 735.032 566.708H734.858C729.486 566.881 724.807 571.213 724.635 576.758C724.461 579.531 725.673 582.304 727.58 584.383C730.005 586.809 731.391 589.755 731.565 592.701Z" fill="white"/>
<path d="M735.034 604.832C731.223 604.832 728.103 601.713 728.103 597.9V594.434C728.103 593.395 728.796 592.701 729.835 592.701H740.232C741.273 592.701 741.966 593.395 741.966 594.434V597.9C741.966 601.713 738.846 604.832 735.034 604.832ZM731.568 596.167V597.9C731.568 599.806 733.128 601.366 735.034 601.366C736.941 601.366 738.5 599.806 738.5 597.9V596.167H731.568ZM729.835 578.838C728.796 578.838 728.103 578.145 728.103 577.105C728.103 573.293 731.223 570.174 735.034 570.174C736.074 570.174 736.767 570.867 736.767 571.906C736.767 572.946 736.074 573.639 735.034 573.639C733.128 573.639 731.568 575.199 731.568 577.105C731.568 578.145 730.875 578.838 729.835 578.838Z" fill="white"/>
<path d="M667.747 557.684C685.564 557.684 700.007 543.242 700.007 525.426C700.007 507.61 685.564 493.167 667.747 493.167C649.932 493.167 635.489 507.61 635.489 525.426C635.489 543.242 649.932 557.684 667.747 557.684Z" fill="#10CBB4"/>
<path d="M675.344 506.364H660.247C659.126 506.364 658.051 506.809 657.259 507.602C656.466 508.395 656.021 509.47 656.021 510.59V540.262C656.021 541.383 656.466 542.458 657.259 543.25C658.051 544.043 659.126 544.488 660.247 544.488H675.344C676.465 544.488 677.541 544.043 678.334 543.25C679.126 542.458 679.571 541.383 679.571 540.262V510.59C679.571 509.47 679.126 508.395 678.334 507.602C677.541 506.809 676.465 506.364 675.344 506.364ZM676.423 540.262C676.423 540.548 676.31 540.822 676.108 541.024C675.906 541.227 675.631 541.34 675.344 541.34H660.247C659.96 541.34 659.687 541.227 659.485 541.024C659.282 540.822 659.168 540.548 659.168 540.262V510.59C659.168 510.304 659.282 510.03 659.485 509.828C659.687 509.626 659.96 509.512 660.247 509.512H675.344C675.631 509.512 675.906 509.626 676.108 509.828C676.31 510.03 676.423 510.304 676.423 510.59V540.262Z" fill="white"/>
<path d="M669.25 536.968H666.336C665.918 536.968 665.518 537.134 665.223 537.429C664.926 537.724 664.761 538.125 664.761 538.542C664.761 538.96 664.926 539.36 665.223 539.655C665.518 539.95 665.918 540.116 666.336 540.116H669.25C669.668 540.116 670.068 539.95 670.363 539.655C670.658 539.36 670.823 538.96 670.823 538.542C670.823 538.125 670.658 537.724 670.363 537.429C670.068 537.134 669.668 536.968 669.25 536.968Z" fill="white"/>
<path d="M771.484 703.95C792.54 703.95 809.608 686.882 809.608 665.825C809.608 644.771 792.54 627.703 771.484 627.703C750.429 627.703 733.361 644.771 733.361 665.825C733.361 686.882 750.429 703.95 771.484 703.95Z" fill="#48A3F3"/>
<path d="M791.973 661.617C791.324 658.891 786.026 649.691 782.913 644.43L782.816 644.266C782.768 644.182 782.713 644.103 782.652 644.027C782.505 643.847 781.711 642.947 780.423 642.882C779.813 642.851 778.9 643.002 778.009 643.896C777.834 644.072 777.783 644.123 775.701 647.72C775.009 648.914 774.116 650.475 773.202 652.113C772.074 650.147 770.877 648.095 769.624 645.975C769.54 645.834 769.486 645.741 769.464 645.704C769.414 645.617 769.358 645.533 769.293 645.454C769.121 645.243 768.186 644.184 766.678 644.109C765.976 644.075 764.917 644.25 763.865 645.291C763.652 645.487 763.565 645.635 761.714 648.804C760.705 650.533 759.168 653.185 757.588 656.008C751.509 666.852 750.93 669.138 750.759 669.892C749.462 674.681 750.554 679.93 753.68 683.946C756.734 687.868 761.224 690.094 766.049 690.094C766.174 690.094 766.301 690.094 766.426 690.089H766.583C770.753 690.187 774.729 688.619 777.782 685.668C780.329 683.205 782.038 679.914 782.594 676.462C785.547 675.941 788.208 674.272 790.048 671.739C792.209 668.766 792.91 665.078 791.974 661.616L791.973 661.617ZM766.649 686.549C766.634 686.549 766.619 686.549 766.605 686.549H766.404C766.389 686.549 766.374 686.549 766.359 686.549C762.51 686.642 758.901 684.902 756.456 681.764C754.004 678.617 753.151 674.515 754.169 670.792C754.176 670.765 754.182 670.74 754.188 670.714C754.936 667.393 764.275 651.309 766.453 647.712C766.478 647.693 766.499 647.678 766.515 647.668C766.52 647.671 766.524 647.674 766.53 647.678C766.55 647.712 766.571 647.748 766.593 647.786C768.243 650.575 769.796 653.252 771.219 655.757C771.185 655.82 771.153 655.882 771.121 655.946C771.094 655.996 771.068 656.048 771.041 656.096C770.999 656.179 770.956 656.259 770.915 656.34C770.897 656.375 770.878 656.411 770.861 656.445C770.802 656.557 770.745 656.667 770.69 656.775C770.667 656.819 770.645 656.862 770.623 656.906C770.59 656.97 770.557 657.035 770.526 657.097C770.501 657.147 770.476 657.194 770.452 657.243C770.426 657.296 770.398 657.349 770.373 657.401C770.347 657.453 770.322 657.503 770.297 657.553C770.273 657.6 770.248 657.647 770.226 657.695C770.203 657.742 770.179 657.789 770.156 657.835C770.132 657.882 770.109 657.929 770.085 657.976C770.063 658.022 770.041 658.066 770.019 658.111C769.997 658.155 769.976 658.199 769.954 658.242C769.932 658.286 769.912 658.331 769.891 658.373C769.872 658.415 769.851 658.455 769.832 658.494C769.812 658.537 769.791 658.58 769.771 658.623C769.752 658.661 769.734 658.7 769.716 658.736C769.697 658.776 769.678 658.818 769.659 658.856C769.641 658.894 769.624 658.931 769.606 658.967C769.589 659.004 769.571 659.042 769.555 659.079C769.537 659.116 769.521 659.151 769.505 659.188C769.489 659.222 769.472 659.257 769.458 659.291C769.442 659.327 769.425 659.362 769.411 659.396C769.396 659.429 769.381 659.461 769.367 659.493C769.352 659.527 769.337 659.56 769.323 659.594C769.309 659.625 769.295 659.654 769.283 659.684C769.268 659.719 769.254 659.752 769.239 659.786C769.227 659.812 769.215 659.839 769.205 659.864C769.186 659.908 769.168 659.95 769.151 659.992C769.142 660.011 769.135 660.031 769.126 660.05C769.105 660.099 769.085 660.147 769.066 660.193C769.057 660.214 769.049 660.234 769.041 660.255C769.027 660.286 769.016 660.317 769.004 660.346C768.995 660.367 768.988 660.388 768.979 660.408C768.969 660.437 768.957 660.463 768.947 660.49C768.938 660.51 768.93 660.531 768.923 660.55C768.913 660.575 768.904 660.6 768.894 660.625C768.886 660.645 768.879 660.664 768.873 660.681C768.864 660.705 768.855 660.729 768.847 660.752C768.839 660.77 768.833 660.788 768.828 660.805C768.819 660.828 768.811 660.85 768.804 660.872C768.798 660.888 768.792 660.904 768.786 660.921C768.779 660.943 768.772 660.963 768.764 660.985C768.76 661 768.754 661.015 768.75 661.028C768.742 661.05 768.735 661.071 768.729 661.092C768.725 661.105 768.72 661.118 768.716 661.13C768.709 661.151 768.703 661.171 768.697 661.191C768.694 661.202 768.689 661.214 768.686 661.225C768.681 661.245 768.673 661.266 768.667 661.287C768.664 661.295 768.662 661.304 768.66 661.313C768.654 661.335 768.648 661.356 768.642 661.377C768.641 661.382 768.638 661.39 768.637 661.396C768.629 661.419 768.623 661.443 768.617 661.465C768.617 661.468 768.617 661.471 768.616 661.473C768.603 661.524 768.59 661.573 768.579 661.617C767.617 665.18 768.426 669.082 770.749 672.064C770.868 672.218 770.991 672.365 771.115 672.511C771.131 672.53 771.147 672.55 771.163 672.569C771.282 672.706 771.404 672.84 771.529 672.972C771.551 672.995 771.573 673.019 771.595 673.043C771.72 673.172 771.846 673.298 771.974 673.42C771.995 673.441 772.017 673.46 772.037 673.479C772.171 673.605 772.306 673.727 772.446 673.847C772.456 673.856 772.466 673.865 772.477 673.873C772.616 673.991 772.757 674.107 772.901 674.217C772.913 674.226 772.925 674.236 772.938 674.245C773.082 674.356 773.227 674.462 773.376 674.566C773.399 674.582 773.421 674.598 773.445 674.613C773.59 674.713 773.737 674.809 773.887 674.902C773.911 674.917 773.936 674.932 773.959 674.946C774.112 675.039 774.266 675.131 774.422 675.216C774.438 675.225 774.453 675.233 774.469 675.241C774.799 675.421 775.137 675.584 775.481 675.73C775.497 675.737 775.513 675.743 775.529 675.751C775.697 675.82 775.864 675.886 776.035 675.948C776.055 675.956 776.077 675.963 776.098 675.972C776.268 676.032 776.44 676.09 776.615 676.143C776.631 676.148 776.647 676.153 776.665 676.158C777.032 676.267 777.406 676.36 777.785 676.432C777.79 676.432 777.796 676.435 777.802 676.435C777.986 676.471 778.171 676.5 778.357 676.525C778.377 676.528 778.397 676.531 778.416 676.534C778.597 676.558 778.779 676.578 778.961 676.595C778.972 676.595 778.982 676.598 778.992 676.598C777.751 682.369 772.566 686.695 766.655 686.546L766.649 686.549ZM787.2 669.653C785.685 671.736 783.399 672.989 780.928 673.09C780.924 673.09 780.921 673.09 780.917 673.09C780.833 673.094 780.748 673.096 780.66 673.097C780.571 673.097 780.482 673.097 780.391 673.094C780.375 673.094 780.36 673.094 780.344 673.094H780.2C780.185 673.094 780.17 673.094 780.156 673.094C777.579 673.158 775.159 671.989 773.518 669.883C771.871 667.77 771.297 665.017 771.98 662.522C771.988 662.497 771.993 662.47 771.999 662.445C772.02 662.355 772.061 662.207 772.149 661.971C772.176 661.9 772.206 661.819 772.242 661.732C772.284 661.625 772.334 661.503 772.392 661.369C772.411 661.323 772.431 661.276 772.453 661.226C772.541 661.024 772.646 660.791 772.771 660.525C772.809 660.444 772.848 660.358 772.891 660.27C772.957 660.131 773.028 659.983 773.104 659.827C773.153 659.727 773.202 659.625 773.255 659.517C773.261 659.507 773.266 659.496 773.27 659.486C773.27 659.486 773.27 659.486 773.27 659.485C773.368 659.285 773.476 659.073 773.589 658.849C773.661 658.707 773.734 658.562 773.814 658.41C773.836 658.367 773.858 658.325 773.881 658.28C774.144 657.771 774.442 657.205 774.782 656.571C776.794 652.824 779.243 648.636 780.269 646.899C784.976 654.888 788.206 660.955 788.543 662.445C788.548 662.472 788.554 662.498 788.562 662.523C789.226 664.949 788.729 667.548 787.198 669.654L787.2 669.653Z" fill="white"/>
<g clip-path="url(#clip3_1357_6465)">
<path fill-rule="evenodd" clip-rule="evenodd" d="M222.137 713.465C223.843 717.152 227.035 720.087 231.032 721.658C236.131 723.662 243.418 726.53 249.23 728.814C252.782 730.211 252.776 734.841 249.23 736.238L231.032 743.393C227.029 744.964 223.843 747.899 222.137 751.586C219.962 756.283 216.849 762.995 214.369 768.349C212.852 771.62 207.826 771.62 206.309 768.349C203.829 762.995 200.716 756.283 198.541 751.586C196.835 747.899 193.643 744.964 189.646 743.393C184.547 741.39 177.26 738.522 171.448 736.238C167.896 734.841 167.896 730.211 171.448 728.814C177.26 726.53 184.547 723.662 189.646 721.658C193.649 720.087 196.835 717.147 198.541 713.465C200.716 708.768 203.829 702.056 206.309 696.703C207.826 693.431 212.852 693.431 214.369 696.703C216.849 702.056 219.962 708.768 222.137 713.465Z" fill="#12DEC4"/>
<path fill-rule="evenodd" clip-rule="evenodd" d="M268.283 581.838C269.312 584.063 271.238 585.833 273.649 586.781C276.725 587.99 281.121 589.72 284.628 591.098C286.771 591.941 286.767 594.734 284.628 595.577L273.649 599.894C271.234 600.842 269.312 602.613 268.283 604.837C266.97 607.671 265.092 611.72 263.596 614.95C262.681 616.924 259.649 616.924 258.733 614.95C257.237 611.72 255.359 607.671 254.047 604.837C253.018 602.613 251.092 600.842 248.681 599.894C245.604 598.685 241.208 596.955 237.702 595.577C235.559 594.734 235.559 591.941 237.702 591.098C241.208 589.72 245.604 587.99 248.681 586.781C251.095 585.833 253.018 584.059 254.047 581.838C255.359 579.005 257.237 574.955 258.733 571.725C259.649 569.752 262.681 569.752 263.596 571.725C265.092 574.955 266.97 579.005 268.283 581.838Z" fill="#12DEC4"/>
<path fill-rule="evenodd" clip-rule="evenodd" d="M359.013 669.918C359.605 671.198 360.714 672.217 362.101 672.762C363.871 673.457 366.4 674.453 368.418 675.246C369.65 675.731 369.648 677.338 368.418 677.823L362.101 680.306C360.711 680.852 359.605 681.87 359.013 683.15C358.258 684.781 357.178 687.11 356.317 688.969C355.791 690.104 354.046 690.104 353.519 688.969C352.659 687.11 351.578 684.781 350.823 683.15C350.231 681.87 349.123 680.852 347.736 680.306C345.965 679.611 343.436 678.615 341.419 677.823C340.186 677.338 340.186 675.731 341.419 675.246C343.436 674.453 345.965 673.457 347.736 672.762C349.125 672.217 350.231 671.196 350.823 669.918C351.578 668.288 352.659 665.958 353.519 664.1C354.046 662.964 355.791 662.964 356.317 664.1C357.178 665.958 358.258 668.288 359.013 669.918Z" fill="#12DEC4"/>
</g>
<g clip-path="url(#clip4_1357_6465)">
<path fill-rule="evenodd" clip-rule="evenodd" d="M808.158 875.869C809.323 878.603 811.503 880.779 814.233 881.944C817.716 883.429 822.693 885.556 826.662 887.249C829.088 888.285 829.084 891.718 826.662 892.754L814.233 898.059C811.499 899.224 809.323 901.401 808.158 904.134C806.672 907.617 804.546 912.593 802.853 916.563C801.816 918.989 798.384 918.989 797.348 916.563C795.654 912.593 793.528 907.617 792.042 904.134C790.877 901.401 788.697 899.224 785.967 898.059C782.484 896.574 777.508 894.448 773.538 892.754C771.112 891.718 771.112 888.285 773.538 887.249C777.508 885.556 782.484 883.429 785.967 881.944C788.701 880.779 790.877 878.599 792.042 875.869C793.528 872.386 795.654 867.41 797.348 863.44C798.384 861.014 801.816 861.014 802.853 863.44C804.546 867.41 806.672 872.386 808.158 875.869Z" fill="#12DEC4"/>
</g>
<g clip-path="url(#clip5_1357_6465)">
<path fill-rule="evenodd" clip-rule="evenodd" d="M631.955 659.511C632.447 660.666 633.368 661.585 634.52 662.076C635.991 662.704 638.092 663.601 639.768 664.316C640.792 664.754 640.791 666.203 639.768 666.641L634.52 668.881C633.366 669.373 632.447 670.291 631.955 671.446C631.328 672.916 630.43 675.017 629.715 676.693C629.278 677.718 627.828 677.718 627.391 676.693C626.676 675.017 625.778 672.916 625.151 671.446C624.659 670.291 623.738 669.373 622.586 668.881C621.115 668.254 619.014 667.356 617.338 666.641C616.314 666.203 616.314 664.754 617.338 664.316C619.014 663.601 621.115 662.704 622.586 662.076C623.74 661.585 624.659 660.664 625.151 659.511C625.778 658.041 626.676 655.94 627.391 654.264C627.828 653.24 629.278 653.24 629.715 654.264C630.43 655.94 631.328 658.041 631.955 659.511Z" fill="#12DEC4"/>
</g>
</g>
<defs>
<linearGradient id="paint0_linear_1357_6465" x1="-100" y1="2577.67" x2="1067.95" y2="1676.95" gradientUnits="userSpaceOnUse">
<stop stop-color="#DE4A65"/>
<stop offset="1" stop-color="#742384"/>
</linearGradient>
<clipPath id="clip0_1357_6465">
<rect width="1000" height="1881" fill="white"/>
</clipPath>
<clipPath id="clip1_1357_6465">
<rect width="1000" height="1881" fill="white"/>
</clipPath>
<clipPath id="clip2_1357_6465">
<rect width="74.8167" height="158.567" fill="white" transform="translate(715.517 667.367)"/>
</clipPath>
<clipPath id="clip3_1357_6465">
<rect width="200.557" height="200.557" fill="white" transform="translate(168.784 570.245)"/>
</clipPath>
<clipPath id="clip4_1357_6465">
<rect width="56.7615" height="56.7615" fill="white" transform="translate(771.719 861.621)"/>
</clipPath>
<clipPath id="clip5_1357_6465">
<rect width="23.966" height="23.966" fill="white" transform="translate(616.57 653.496)"/>
</clipPath>
</defs>
</svg>
