<svg width="495" height="406" xmlns="http://www.w3.org/2000/svg">
    <path d="M361.443 12.343c39.99 16.607 67.58 52.547 91.45 90.965 24.181 38.419 44.642 79.068 41.852 119.47-2.79 40.401-29.14 80.307-65.721 111.537-36.58 31.23-83.702 53.539-134.232 64.197-50.53 10.658-104.472 9.666-155.932-1.24C87.399 386.614 38.728 366.29 16.718 333.82c-22.01-32.222-17.05-76.59-13.95-115.504 3.1-38.914 4.34-72.376 17.67-104.102 13.02-31.478 38.13-61.47 72.541-80.06 34.72-18.341 79.361-25.281 127.722-30.238 48.36-4.958 100.751-7.932 140.742 8.427z" fill="#F7EBF9" fill-rule="evenodd"/>
</svg>
