<svg width="1000" height="1881" viewBox="0 0 1000 1881" fill="none" xmlns="http://www.w3.org/2000/svg">
<g clip-path="url(#clip0_1357_6471)">
<rect width="1000" height="1881" fill="white"/>
<g clip-path="url(#clip1_1357_6471)">
<rect width="1000" height="1881" fill="url(#paint0_linear_1357_6471)"/>
<g opacity="0.1" filter="url(#filter0_f_1357_6471)">
<circle cx="407.5" cy="901.498" r="285.974" stroke="url(#paint1_linear_1357_6471)" stroke-width="32"/>
<circle cx="407.5" cy="901.503" r="391.484" stroke="url(#paint2_linear_1357_6471)" stroke-width="32"/>
<circle cx="407.5" cy="901.5" r="504.269" stroke="url(#paint3_linear_1357_6471)" stroke-width="32"/>
<circle cx="407.5" cy="901.499" r="618.874" stroke="url(#paint4_linear_1357_6471)" stroke-width="32"/>
<circle cx="407.5" cy="901.497" r="735.298" stroke="url(#paint5_linear_1357_6471)" stroke-width="32"/>
<circle cx="407.499" cy="901.499" r="856.242" stroke="url(#paint6_linear_1357_6471)" stroke-width="32"/>
<circle cx="407.5" cy="901.5" r="978.5" stroke="url(#paint7_linear_1357_6471)" stroke-width="32"/>
</g>
</g>
<g clip-path="url(#clip2_1357_6471)">
<path d="M184.096 690.473L202.706 680.39C243.483 658.304 278.238 598.604 285.058 555.574L266.448 565.657C259.628 608.687 224.862 668.397 184.096 690.473Z" fill="#008C7B"/>
<path d="M285.058 555.574C325.248 588.096 406.681 617.103 453.025 602.372C454.904 601.776 456.723 601.109 458.48 600.362C462.36 612.526 536.104 843.618 439.658 935.579C299.03 918.928 189.379 699.253 183.61 687.684C185.5 687.27 187.389 686.755 189.258 686.159C235.612 671.428 277.49 603.251 285.058 555.553V555.574ZM428.494 908.128C490.599 841.426 462.896 694.282 447.407 631.833C403.317 637.592 342.707 618.356 299.839 591.885C285.856 636.42 252.98 685.361 214.83 705.729C247.847 762.519 332.543 891.639 428.494 908.128Z" fill="#10CBB4"/>
<path d="M299.839 591.895C285.856 636.43 252.98 685.371 214.83 705.739C247.847 762.529 332.543 891.649 428.494 908.138C490.599 841.436 462.896 694.292 447.407 631.843C403.317 637.602 342.707 618.366 299.839 591.895Z" fill="#12DEC4"/>
<path d="M183.61 687.705L165 697.788C170.769 709.346 280.42 929.032 421.048 945.682L439.668 935.599C299.04 918.949 189.389 699.273 183.62 687.705H183.61Z" fill="#008C7B"/>
<path d="M411.743 682.168C414.107 681.976 416.653 683.128 418.856 685.694C423.312 690.877 424.807 699.96 422.19 706.224L376.675 813.612C374.947 817.744 372.138 820.472 369.097 821.442C366.248 822.351 363.096 821.715 360.358 819.3L310.316 774.906C303.86 769.117 302.092 757.488 306.457 749.224C308.7 744.92 312.095 742.384 315.701 741.788C318.955 741.252 322.39 742.293 325.33 745.041L363.076 780.463L405.53 687.25C406.975 684.088 409.248 682.38 411.733 682.178L411.743 682.168Z" fill="white"/>
</g>
<g clip-path="url(#clip3_1357_6471)">
<path d="M721.439 593.41C720.429 593.491 719.418 593.602 718.398 593.723C718.064 593.764 717.721 593.824 717.387 593.865C716.7 593.956 716.023 594.057 715.336 594.168C714.932 594.239 714.518 594.309 714.114 594.39C713.498 594.501 712.871 594.613 712.255 594.744C711.821 594.835 711.376 594.936 710.942 595.027C710.527 595.118 710.123 595.199 709.709 595.289C709.578 595.32 709.436 595.36 709.305 595.39C707.951 595.714 706.597 596.057 705.243 596.451C705.051 596.512 704.859 596.573 704.657 596.623C703.475 596.967 702.283 597.34 701.101 597.745C700.909 597.805 700.717 597.856 700.525 597.926C700.303 598.007 700.07 598.088 699.848 598.169C699.111 598.421 698.373 598.694 697.646 598.967C697.201 599.129 696.757 599.3 696.312 599.472C695.524 599.775 694.736 600.099 693.948 600.422C693.645 600.543 693.352 600.654 693.049 600.786C692.968 600.826 692.877 600.866 692.796 600.897C692.089 601.2 691.382 601.523 690.674 601.836C690.27 602.018 689.876 602.19 689.472 602.372C688.593 602.776 687.724 603.2 686.855 603.635C686.643 603.736 686.431 603.837 686.219 603.948C686.209 603.948 686.188 603.958 686.178 603.968C685.107 604.504 684.047 605.059 682.986 605.625C682.865 605.686 682.753 605.756 682.632 605.827C681.693 606.332 680.763 606.858 679.834 607.393C679.813 607.393 679.803 607.413 679.783 607.424C679.45 607.615 679.126 607.818 678.793 608.02C678.096 608.424 677.409 608.838 676.722 609.262C676.307 609.515 675.903 609.778 675.489 610.04C674.873 610.424 674.257 610.808 673.65 611.212C673.6 611.243 673.549 611.273 673.509 611.303C673.175 611.515 672.852 611.748 672.529 611.97C671.872 612.404 671.226 612.849 670.579 613.294C670.165 613.587 669.761 613.88 669.346 614.173C668.75 614.597 668.154 615.021 667.568 615.456C667.457 615.536 667.346 615.617 667.235 615.698C666.962 615.9 666.699 616.112 666.437 616.314C665.77 616.82 665.103 617.335 664.436 617.85C664.042 618.163 663.648 618.477 663.254 618.8C662.628 619.305 662.001 619.82 661.385 620.336C661.173 620.517 660.94 620.689 660.728 620.881C660.577 621.002 660.445 621.134 660.294 621.265C659.334 622.093 658.384 622.932 657.455 623.781C657.313 623.902 657.172 624.023 657.041 624.155C655.99 625.124 654.959 626.115 653.949 627.115C653.848 627.216 653.747 627.307 653.646 627.398C653.383 627.66 653.131 627.933 652.868 628.196C652.403 628.671 651.938 629.146 651.484 629.62C651.11 630.014 650.746 630.408 650.382 630.803C649.938 631.287 649.503 631.762 649.069 632.247C648.705 632.651 648.352 633.056 648.008 633.47C647.584 633.955 647.17 634.44 646.765 634.935C646.422 635.349 646.078 635.763 645.745 636.177C645.351 636.673 644.957 637.168 644.563 637.663C644.391 637.885 644.209 638.107 644.038 638.329C643.916 638.481 643.815 638.643 643.694 638.794C642.997 639.714 642.32 640.653 641.663 641.583C641.532 641.775 641.39 641.957 641.269 642.138C640.512 643.25 639.784 644.371 639.077 645.493C638.895 645.786 638.713 646.089 638.541 646.392C638.016 647.261 637.511 648.14 637.016 649.019C636.834 649.352 636.642 649.686 636.47 650.009C635.854 651.161 635.258 652.323 634.712 653.484L616.294 692.726L649.281 740.645L667.699 701.404C668.245 700.242 668.841 699.081 669.457 697.929C669.639 697.595 669.821 697.262 670.003 696.939C670.488 696.06 671.003 695.181 671.529 694.312C671.71 694.009 671.882 693.716 672.064 693.413C672.761 692.281 673.489 691.16 674.257 690.058C674.388 689.866 674.519 689.685 674.651 689.503C675.307 688.563 675.984 687.634 676.681 686.714C676.964 686.33 677.257 685.956 677.55 685.583C677.934 685.088 678.328 684.582 678.732 684.097C679.066 683.683 679.409 683.269 679.753 682.855C680.157 682.36 680.581 681.875 680.995 681.39C681.349 680.986 681.703 680.581 682.056 680.177C682.491 679.692 682.925 679.207 683.37 678.733C683.733 678.339 684.097 677.944 684.471 677.55C684.926 677.076 685.39 676.601 685.855 676.126C686.209 675.762 686.572 675.398 686.936 675.035C687.946 674.035 688.977 673.044 690.028 672.074C690.169 671.953 690.311 671.822 690.442 671.701C691.372 670.852 692.321 670.013 693.281 669.185C693.645 668.872 694.008 668.569 694.372 668.266C694.988 667.75 695.615 667.235 696.241 666.73C696.635 666.417 697.029 666.093 697.423 665.78C698.08 665.265 698.747 664.75 699.424 664.244C699.798 663.962 700.171 663.669 700.555 663.386C701.141 662.951 701.737 662.527 702.334 662.103C702.748 661.81 703.152 661.506 703.566 661.224C704.213 660.769 704.869 660.334 705.516 659.9C705.89 659.647 706.264 659.395 706.648 659.142C707.254 658.748 707.87 658.354 708.486 657.97C708.901 657.708 709.305 657.445 709.719 657.192C710.406 656.768 711.103 656.364 711.79 655.96C712.144 655.758 712.487 655.545 712.831 655.343C713.76 654.808 714.69 654.293 715.63 653.777C715.751 653.717 715.862 653.646 715.983 653.575C717.044 653.01 718.105 652.454 719.176 651.918C719.398 651.807 719.63 651.696 719.853 651.585C720.722 651.161 721.59 650.736 722.459 650.322C722.863 650.14 723.257 649.968 723.662 649.787C724.369 649.473 725.066 649.15 725.773 648.847C726.157 648.685 726.541 648.534 726.935 648.372C727.723 648.049 728.511 647.726 729.299 647.422C729.744 647.251 730.188 647.089 730.633 646.917C731.37 646.644 732.098 646.372 732.835 646.119C733.25 645.978 733.674 645.836 734.088 645.695C735.27 645.301 736.462 644.927 737.645 644.573C737.837 644.513 738.028 644.452 738.231 644.402C739.584 644.018 740.938 643.664 742.292 643.341C742.838 643.209 743.383 643.088 743.929 642.967C744.363 642.876 744.808 642.775 745.242 642.684C745.869 642.563 746.485 642.442 747.111 642.33C747.515 642.26 747.93 642.179 748.334 642.108C749.021 641.997 749.708 641.896 750.395 641.805C750.728 641.754 751.072 641.704 751.405 641.664C752.426 641.532 753.436 641.431 754.446 641.35C760.791 640.825 766.489 641.209 771.48 642.361C773.148 642.745 774.724 643.219 776.229 643.775C778.482 644.604 780.543 645.624 782.412 646.816C785.524 648.796 788.09 651.262 790.06 654.131L757.073 606.211C750.759 597.037 738.372 592.036 721.469 593.43L721.439 593.41Z" fill="#8B3D99"/>
<path d="M794.435 580.458C795.032 581.327 795.587 582.216 796.123 583.135C796.193 583.246 796.254 583.368 796.315 583.479C796.8 584.337 797.264 585.216 797.689 586.116C797.739 586.217 797.78 586.328 797.83 586.429C798.123 587.065 798.386 587.712 798.648 588.369C798.871 588.924 799.093 589.49 799.295 590.056C799.477 590.571 799.649 591.097 799.82 591.622C800.002 592.208 800.174 592.794 800.336 593.39C800.558 594.229 800.79 595.067 800.972 595.936C800.972 595.936 800.972 595.946 800.972 595.956C801.205 597.047 801.386 598.149 801.538 599.28C801.548 599.361 801.568 599.452 801.578 599.533C801.72 600.594 801.821 601.665 801.892 602.756C801.902 602.928 801.922 603.109 801.932 603.281C801.993 604.352 802.023 605.433 802.023 606.534C802.023 606.736 802.023 606.949 802.023 607.151C802.013 608.262 801.973 609.373 801.902 610.515C801.892 610.717 801.871 610.919 801.851 611.121C801.781 612.111 801.679 613.122 801.548 614.132C801.518 614.415 801.477 614.698 801.447 614.981C801.285 616.163 801.104 617.345 800.871 618.547C800.831 618.749 800.79 618.961 800.75 619.164C800.568 620.083 800.356 621.012 800.134 621.952C799.962 622.69 799.77 623.427 799.578 624.165C799.396 624.852 799.204 625.549 799.002 626.246C798.78 626.994 798.547 627.751 798.295 628.509C798.073 629.216 797.84 629.924 797.588 630.631C797.315 631.399 797.032 632.166 796.739 632.944C796.466 633.662 796.193 634.379 795.9 635.107C795.587 635.884 795.244 636.673 794.9 637.471C794.476 638.461 794.051 639.451 793.587 640.451L775.168 679.692L808.156 727.612L826.574 688.371C826.816 687.856 827.049 687.341 827.281 686.835C827.504 686.35 827.685 685.876 827.887 685.391C828.231 684.603 828.574 683.814 828.888 683.026C829.181 682.299 829.453 681.582 829.726 680.864C830.019 680.086 830.312 679.319 830.575 678.551C830.827 677.843 831.05 677.136 831.282 676.429C831.525 675.671 831.767 674.913 831.989 674.166C832.191 673.469 832.383 672.772 832.565 672.085C832.757 671.347 832.949 670.609 833.121 669.872C833.192 669.579 833.283 669.276 833.343 668.973C833.485 668.336 833.606 667.71 833.727 667.083C833.768 666.881 833.818 666.669 833.848 666.467C834.071 665.265 834.263 664.073 834.424 662.891C834.465 662.608 834.495 662.335 834.525 662.052C834.647 661.032 834.748 660.031 834.828 659.031C834.838 658.829 834.869 658.627 834.879 658.425C834.879 658.334 834.899 658.243 834.899 658.152C834.96 657.111 834.99 656.081 835 655.061C835 654.858 835 654.646 835 654.444C835 653.343 834.97 652.262 834.909 651.191C834.899 651.009 834.879 650.837 834.869 650.655C834.838 650.272 834.818 649.878 834.788 649.504C834.727 648.807 834.647 648.12 834.556 647.433C834.545 647.352 834.525 647.261 834.515 647.18C834.364 646.058 834.172 644.947 833.939 643.856C833.939 643.856 833.939 643.856 833.939 643.846C833.808 643.24 833.677 642.644 833.525 642.058C833.464 641.805 833.374 641.552 833.303 641.3C833.141 640.704 832.969 640.118 832.788 639.542C832.626 639.016 832.454 638.491 832.262 637.976C832.06 637.41 831.838 636.844 831.616 636.289C831.494 635.996 831.393 635.682 831.272 635.389C831.12 635.036 830.959 634.702 830.797 634.359C830.747 634.258 830.706 634.147 830.656 634.046C830.231 633.146 829.767 632.267 829.282 631.409C829.211 631.287 829.15 631.176 829.08 631.055C828.726 630.449 828.362 629.853 827.988 629.257C827.796 628.964 827.605 628.671 827.402 628.378L794.415 580.458H794.435Z" fill="#8B3D99"/>
<path d="M737.17 559.898C683.128 564.343 620.518 607.706 597.603 656.546L579.185 695.787L616.264 692.736L634.682 653.494C648.928 623.124 687.856 596.168 721.449 593.41C755.043 590.642 770.784 613.102 756.538 643.472L738.12 682.713L775.189 679.662L793.607 640.421C816.521 591.571 791.213 555.442 737.18 559.888L737.17 559.898Z" fill="#BD77C7"/>
<path d="M656.97 730.825C655.99 730.906 655 731.037 654.01 731.199C653.676 731.249 653.343 731.33 653.009 731.401C652.433 731.512 651.858 731.603 651.272 731.745C651.171 731.765 651.07 731.795 650.979 731.825C650.766 731.876 650.544 731.936 650.332 731.997C649.594 732.189 648.847 732.401 648.109 732.634C647.857 732.714 647.604 732.785 647.351 732.876C647.18 732.937 647.008 732.977 646.836 733.038C646.543 733.139 646.24 733.27 645.947 733.381C645.23 733.644 644.512 733.907 643.795 734.2C643.603 734.28 643.411 734.341 643.219 734.422C642.946 734.543 642.674 734.685 642.391 734.806C641.805 735.068 641.219 735.331 640.633 735.614C640.4 735.725 640.158 735.826 639.926 735.937C639.673 736.069 639.43 736.21 639.178 736.341C638.642 736.624 638.117 736.907 637.582 737.2C637.329 737.342 637.066 737.463 636.824 737.615C636.591 737.746 636.369 737.897 636.137 738.039C635.611 738.352 635.096 738.665 634.581 738.999C634.318 739.16 634.056 739.312 633.793 739.484C633.591 739.615 633.399 739.767 633.197 739.908C632.651 740.272 632.116 740.656 631.58 741.04C631.318 741.232 631.035 741.403 630.772 741.605C630.62 741.716 630.469 741.848 630.317 741.969C629.671 742.464 629.034 742.969 628.408 743.495C628.155 743.707 627.893 743.899 627.64 744.111C627.519 744.212 627.408 744.323 627.286 744.424C627.104 744.586 626.923 744.747 626.741 744.909C626.104 745.465 625.488 746.041 624.892 746.617C624.74 746.758 624.589 746.899 624.447 747.041C624.377 747.112 624.296 747.182 624.235 747.253C623.952 747.536 623.7 747.829 623.417 748.122C622.942 748.607 622.477 749.102 622.023 749.597C621.689 749.971 621.386 750.345 621.073 750.718C620.659 751.214 620.244 751.698 619.85 752.204C619.77 752.315 619.668 752.416 619.588 752.527C619.113 753.143 618.668 753.77 618.234 754.406C618.173 754.497 618.113 754.588 618.052 754.679C617.577 755.376 617.133 756.093 616.718 756.801C616.597 757.013 616.476 757.225 616.355 757.437C615.9 758.245 615.465 759.054 615.082 759.872C615.001 760.044 614.93 760.205 614.849 760.377C614.789 760.519 614.738 760.65 614.677 760.791C614.576 761.024 614.475 761.266 614.384 761.499C614.293 761.721 614.213 761.933 614.132 762.155C614.041 762.388 613.96 762.62 613.879 762.842C613.809 763.055 613.738 763.267 613.667 763.479C613.596 763.701 613.526 763.934 613.455 764.156C613.394 764.368 613.334 764.58 613.283 764.782C613.223 765.005 613.172 765.227 613.122 765.439C613.101 765.53 613.071 765.631 613.051 765.722C613.031 765.803 613.02 765.884 613.01 765.964C612.93 766.348 612.859 766.722 612.808 767.096C612.788 767.217 612.768 767.349 612.748 767.47C612.677 767.955 612.637 768.43 612.606 768.894C612.606 768.914 612.606 768.935 612.606 768.955C612.606 769.066 612.606 769.167 612.606 769.278C612.596 769.561 612.586 769.844 612.586 770.127C612.586 770.278 612.586 770.44 612.596 770.592C612.596 770.844 612.616 771.087 612.637 771.339C612.637 771.41 612.637 771.481 612.647 771.541C612.647 771.642 612.677 771.733 612.687 771.834C612.707 772.036 612.738 772.238 612.768 772.441C612.798 772.602 612.818 772.774 612.849 772.936C612.889 773.128 612.93 773.32 612.97 773.511C612.99 773.592 613 773.683 613.021 773.774C613.041 773.855 613.071 773.926 613.091 773.996C613.142 774.178 613.192 774.35 613.243 774.522C613.293 774.683 613.344 774.835 613.394 774.987C613.455 775.158 613.526 775.33 613.586 775.492C613.627 775.583 613.657 775.674 613.687 775.765C613.718 775.825 613.748 775.886 613.768 775.936C613.839 776.108 613.92 776.27 614.011 776.431C614.081 776.573 614.152 776.714 614.233 776.856C614.324 777.017 614.415 777.169 614.516 777.331C614.566 777.421 614.617 777.512 614.677 777.603C614.738 777.694 614.799 777.785 614.859 777.866L618.395 783.009L600.907 820.29C600.866 820.371 600.836 820.441 600.806 820.522C600.725 820.704 600.664 820.876 600.593 821.047C600.492 821.29 600.391 821.522 600.311 821.755C600.24 821.967 600.179 822.169 600.119 822.371C600.048 822.593 599.977 822.826 599.927 823.048C599.917 823.088 599.896 823.139 599.886 823.179C599.866 823.27 599.866 823.361 599.846 823.452C599.775 823.836 599.714 824.2 599.684 824.563C599.684 824.644 599.654 824.725 599.654 824.806C599.654 824.887 599.654 824.957 599.654 825.038C599.654 825.301 599.654 825.543 599.654 825.796C599.654 825.897 599.654 826.008 599.654 826.109C599.654 826.16 599.674 826.21 599.684 826.261C599.704 826.473 599.745 826.675 599.785 826.877C599.805 826.988 599.815 827.12 599.846 827.231C599.846 827.271 599.876 827.301 599.886 827.342C599.937 827.524 600.007 827.706 600.068 827.877C600.108 827.999 600.139 828.12 600.189 828.231C600.199 828.261 600.22 828.292 600.24 828.322C600.321 828.504 600.422 828.665 600.513 828.837C600.573 828.938 600.624 829.059 600.684 829.16C600.715 829.201 600.745 829.251 600.775 829.292L633.763 877.212C633.661 877.07 633.591 876.909 633.5 876.757C633.409 876.585 633.308 876.424 633.227 876.242C633.166 876.1 633.116 875.949 633.055 875.797C632.995 875.625 632.924 875.444 632.873 875.262C632.833 875.11 632.803 874.949 632.772 874.797C632.732 874.595 632.692 874.393 632.671 874.181C632.651 874.029 632.651 873.867 632.641 873.716C632.631 873.473 632.621 873.221 632.641 872.958C632.641 872.807 632.661 872.645 632.671 872.493C632.702 872.13 632.762 871.756 632.833 871.382C632.863 871.251 632.873 871.119 632.914 870.978C632.964 870.756 633.035 870.523 633.106 870.301C633.166 870.099 633.217 869.887 633.298 869.685C633.379 869.452 633.48 869.21 633.581 868.977C633.682 868.725 633.773 868.482 633.894 868.22L652.009 829.615L645.785 820.573C645.775 820.502 645.765 820.441 645.755 820.371C645.725 820.168 645.705 819.977 645.674 819.774C645.654 819.613 645.634 819.441 645.624 819.269C645.604 819.027 645.593 818.774 645.583 818.532C645.583 818.38 645.573 818.229 645.573 818.067C645.573 817.794 645.573 817.511 645.594 817.228C645.594 817.097 645.594 816.966 645.604 816.834C645.634 816.37 645.684 815.895 645.745 815.41C645.765 815.289 645.785 815.157 645.806 815.036C645.866 814.662 645.927 814.288 646.008 813.915C646.048 813.733 646.078 813.561 646.129 813.379C646.179 813.157 646.24 812.935 646.301 812.712C646.351 812.5 646.412 812.298 646.472 812.086C646.543 811.864 646.614 811.631 646.685 811.409C646.755 811.197 646.826 810.985 646.897 810.772C646.978 810.54 647.058 810.318 647.149 810.085C647.23 809.863 647.311 809.651 647.402 809.429C647.493 809.196 647.594 808.964 647.695 808.732C647.826 808.428 647.958 808.125 648.099 807.812C648.483 806.994 648.917 806.186 649.372 805.377C649.493 805.165 649.615 804.953 649.736 804.741C650.16 804.023 650.605 803.316 651.069 802.619C651.13 802.528 651.191 802.437 651.251 802.346C651.756 801.599 652.312 800.871 652.878 800.144C653.272 799.639 653.686 799.154 654.1 798.659C654.414 798.285 654.717 797.901 655.05 797.537C655.495 797.032 655.97 796.547 656.444 796.062C656.788 795.708 657.121 795.335 657.475 794.991C657.616 794.85 657.768 794.708 657.92 794.567C658.526 793.981 659.142 793.415 659.768 792.859C659.95 792.698 660.132 792.536 660.314 792.374C660.678 792.061 661.062 791.758 661.435 791.455C662.062 790.94 662.698 790.424 663.345 789.929C663.759 789.616 664.184 789.313 664.608 789.01C665.143 788.626 665.679 788.242 666.224 787.878C666.679 787.575 667.144 787.272 667.609 786.979C668.124 786.656 668.639 786.333 669.165 786.019C669.639 785.736 670.124 785.454 670.609 785.181C671.135 784.888 671.67 784.595 672.206 784.322C672.69 784.069 673.175 783.827 673.66 783.595C674.246 783.312 674.832 783.039 675.418 782.786C675.883 782.584 676.348 782.372 676.823 782.18C677.54 781.887 678.257 781.614 678.975 781.362C679.44 781.19 679.904 781.018 680.379 780.857C680.632 780.776 680.884 780.695 681.137 780.614C681.874 780.382 682.622 780.17 683.36 779.978C683.572 779.927 683.794 779.856 684.006 779.806C684.683 779.644 685.36 779.513 686.037 779.382C686.37 779.321 686.704 779.24 687.037 779.179C688.027 779.018 689.017 778.886 689.997 778.806C695.1 778.381 699.353 779.169 702.566 780.897C704.496 781.938 706.052 783.312 707.193 784.969L674.206 737.049C671.155 732.623 665.184 730.219 657.01 730.886L656.97 730.825Z" fill="#5E186C"/>
<path d="M793.738 684.31C793.88 684.552 794.021 684.794 794.132 685.047C794.223 685.249 794.294 685.471 794.375 685.684C794.465 685.936 794.567 686.189 794.637 686.462C794.698 686.684 794.738 686.906 794.779 687.128C794.839 687.421 794.89 687.714 794.93 688.007C794.981 688.422 795.011 688.846 795.011 689.28C795.011 689.351 795.011 689.412 795.011 689.482C795.011 689.927 794.971 690.372 794.92 690.836C794.91 690.927 794.9 691.028 794.89 691.119C794.819 691.614 794.728 692.109 794.607 692.625C794.536 692.948 794.425 693.271 794.334 693.605C794.243 693.898 794.173 694.191 794.061 694.494C793.94 694.827 793.799 695.171 793.657 695.514C793.506 695.878 793.374 696.231 793.203 696.605L717.276 858.43L750.264 906.35L826.19 744.525C826.24 744.414 826.291 744.303 826.341 744.192C826.452 743.929 826.533 743.687 826.644 743.434C826.786 743.09 826.927 742.747 827.049 742.414C827.15 742.11 827.23 741.817 827.321 741.524C827.422 741.201 827.523 740.868 827.594 740.544C827.604 740.484 827.635 740.423 827.645 740.363C827.746 739.918 827.816 739.474 827.877 739.049C827.887 738.958 827.897 738.857 827.907 738.766C827.938 738.524 827.968 738.271 827.988 738.029C827.998 737.817 827.998 737.615 828.008 737.412C828.008 737.342 828.008 737.281 828.008 737.21C828.008 736.857 827.998 736.503 827.968 736.16C827.968 736.079 827.938 736.008 827.928 735.937C827.897 735.634 827.837 735.341 827.776 735.048C827.746 734.887 827.736 734.705 827.695 734.543C827.685 734.482 827.655 734.432 827.635 734.381C827.564 734.119 827.463 733.866 827.372 733.603C827.311 733.442 827.271 733.26 827.2 733.098C827.18 733.058 827.15 733.017 827.129 732.967C827.018 732.714 826.867 732.472 826.735 732.229C826.644 732.078 826.584 731.916 826.483 731.765C826.442 731.704 826.402 731.633 826.351 731.573L793.364 683.653C793.506 683.865 793.617 684.087 793.738 684.31Z" fill="#742384"/>
<path d="M479.486 896.398C473.626 896.883 469.322 895.135 467.119 891.942L500.106 939.862C502.309 943.055 506.603 944.803 512.473 944.318L720.095 927.243L687.108 879.323L479.486 896.398Z" fill="#742384"/>
<path d="M748.961 908.744C749.435 907.956 749.88 907.158 750.254 906.35L717.267 858.43C716.893 859.238 716.448 860.036 715.973 860.824C715.832 861.056 715.69 861.279 715.539 861.501C715.155 862.097 714.751 862.683 714.316 863.269C714.155 863.481 714.003 863.704 713.831 863.916C713.549 864.279 713.256 864.633 712.952 864.987C712.72 865.259 712.508 865.532 712.265 865.795C711.942 866.159 711.609 866.502 711.265 866.856C711.033 867.098 710.811 867.341 710.568 867.583C709.861 868.28 709.133 868.957 708.366 869.604C708.133 869.806 707.901 869.988 707.658 870.18C707.204 870.554 706.739 870.927 706.264 871.291C705.971 871.513 705.668 871.736 705.365 871.948C704.971 872.231 704.587 872.503 704.183 872.776C703.859 872.999 703.526 873.211 703.193 873.423C702.819 873.665 702.435 873.898 702.061 874.12C701.718 874.322 701.374 874.524 701.02 874.716C700.637 874.928 700.253 875.14 699.859 875.343C699.515 875.524 699.161 875.696 698.818 875.868C698.394 876.07 697.969 876.272 697.545 876.454C697.212 876.605 696.878 876.747 696.535 876.888C696.019 877.1 695.494 877.292 694.979 877.484C694.696 877.585 694.403 877.697 694.12 877.798C693.18 878.111 692.241 878.384 691.311 878.606C690.846 878.717 690.382 878.808 689.927 878.889C689.695 878.929 689.452 878.99 689.22 879.03C688.513 879.151 687.805 879.242 687.098 879.293L720.085 927.213C720.782 927.152 721.49 927.061 722.207 926.95C722.439 926.91 722.682 926.859 722.914 926.809C723.328 926.728 723.733 926.657 724.147 926.566C724.197 926.556 724.248 926.536 724.298 926.526C725.238 926.304 726.168 926.031 727.107 925.717C727.178 925.697 727.249 925.677 727.319 925.657C727.532 925.586 727.754 925.485 727.966 925.404C728.481 925.212 729.007 925.02 729.522 924.808C729.653 924.758 729.785 924.707 729.926 924.657C730.128 924.566 730.33 924.465 730.532 924.374C730.957 924.182 731.381 923.99 731.805 923.788C731.967 923.707 732.139 923.636 732.3 923.555C732.482 923.464 732.664 923.353 732.856 923.262C733.25 923.06 733.634 922.848 734.018 922.636C734.2 922.535 734.382 922.444 734.553 922.343C734.725 922.242 734.887 922.131 735.058 922.03C735.442 921.797 735.816 921.565 736.19 921.333C736.372 921.211 736.564 921.11 736.746 920.989C736.897 920.888 737.029 920.787 737.18 920.686C737.574 920.413 737.968 920.14 738.362 919.858C738.554 919.716 738.756 919.595 738.938 919.453C739.049 919.373 739.15 919.282 739.261 919.201C739.736 918.837 740.201 918.463 740.656 918.09C740.837 917.938 741.03 917.807 741.201 917.655C741.252 917.605 741.302 917.564 741.353 917.514C742.111 916.857 742.848 916.19 743.555 915.493C743.596 915.453 743.636 915.422 743.677 915.382C743.879 915.18 744.06 914.968 744.263 914.766C744.596 914.412 744.939 914.068 745.263 913.705C745.505 913.442 745.717 913.169 745.95 912.896C746.253 912.543 746.546 912.189 746.829 911.825C746.889 911.745 746.97 911.664 747.031 911.583C747.132 911.452 747.213 911.31 747.314 911.179C747.748 910.593 748.152 910.007 748.536 909.411C748.678 909.189 748.829 908.956 748.971 908.734L748.961 908.744Z" fill="#742384"/>
<path d="M780.998 679.197C792.647 678.237 798.143 686.078 793.193 696.605L717.267 858.43C712.326 868.957 698.747 878.363 687.098 879.323L479.475 896.398C467.826 897.358 462.33 889.528 467.281 878.99L543.207 717.165C548.147 706.638 561.726 697.232 573.375 696.272L579.185 695.797L616.264 692.746L738.12 682.723L775.189 679.672L781.008 679.197H780.998ZM648.402 779.21C659.344 773.895 669.286 764.823 673.903 754.982C680.794 740.302 673.206 729.491 656.97 730.825C640.724 732.159 621.972 745.141 615.092 759.822C610.475 769.662 612.364 777.755 618.992 781.635L600.877 820.239C597.441 827.554 601.25 832.99 609.343 832.323C617.426 831.656 626.852 825.129 630.287 817.814L648.402 779.21Z" fill="#A35AAD"/>
<path d="M567.558 672.69L591.871 655.855L653.695 745.14C657.266 750.298 655.979 757.383 650.821 760.955L645.205 764.843C640.047 768.415 632.962 767.127 629.39 761.969L567.566 672.684L567.558 672.69Z" fill="#F7D163"/>
<path d="M567.253 570.051L551.896 571.274C557.341 570.84 562.605 573.557 567.121 580.044C567.768 580.973 568.374 581.872 568.95 582.751C569.132 583.034 569.304 583.307 569.486 583.59C569.859 584.176 570.233 584.762 570.577 585.338C570.769 585.651 570.951 585.964 571.132 586.277C571.436 586.793 571.729 587.308 572.011 587.813C572.183 588.126 572.355 588.429 572.517 588.732C572.799 589.258 573.062 589.783 573.315 590.288C573.426 590.501 573.537 590.723 573.638 590.935C573.982 591.652 574.305 592.36 574.588 593.047C574.709 593.329 574.8 593.602 574.911 593.885C575.093 594.34 575.285 594.805 575.436 595.259C575.457 595.33 575.477 595.401 575.507 595.471C575.709 596.057 575.891 596.643 576.043 597.209C576.083 597.351 576.113 597.482 576.154 597.623C576.305 598.209 576.447 598.795 576.558 599.361C576.558 599.412 576.578 599.462 576.588 599.513C576.699 600.119 576.79 600.705 576.861 601.281C576.861 601.321 576.861 601.372 576.871 601.412C576.932 601.988 576.972 602.544 576.982 603.089C576.982 603.15 576.982 603.21 576.982 603.271C576.992 603.817 576.982 604.352 576.952 604.877C576.952 604.948 576.942 605.019 576.932 605.08C576.901 605.494 576.851 605.908 576.8 606.312C576.77 606.545 576.74 606.767 576.699 606.989C576.649 607.302 576.588 607.615 576.518 607.919C576.477 608.131 576.427 608.333 576.376 608.545C576.295 608.858 576.204 609.181 576.113 609.495C576.053 609.687 576.002 609.879 575.942 610.071C575.83 610.414 575.709 610.748 575.578 611.081C575.517 611.243 575.467 611.404 575.396 611.556C575.194 612.051 574.982 612.536 574.76 613.021C574.416 613.748 574.032 614.466 573.628 615.183C573.537 615.345 573.456 615.496 573.365 615.658C572.961 616.355 572.537 617.052 572.082 617.749C571.931 617.981 571.769 618.224 571.607 618.466C571.425 618.739 571.254 619.012 571.062 619.285C570.89 619.547 570.708 619.8 570.526 620.063C570.344 620.336 570.152 620.598 569.96 620.871C569.769 621.144 569.577 621.417 569.374 621.699C569.172 621.982 568.98 622.255 568.778 622.538C568.536 622.871 568.293 623.215 568.051 623.558C567.758 623.963 567.475 624.367 567.182 624.771C566.94 625.104 566.707 625.438 566.465 625.771C566.263 626.054 566.061 626.337 565.869 626.62C565.636 626.943 565.414 627.266 565.182 627.59C564.98 627.873 564.777 628.166 564.586 628.459C564.353 628.792 564.131 629.115 563.899 629.459C563.696 629.762 563.494 630.065 563.282 630.378C563.06 630.722 562.828 631.055 562.605 631.409C562.524 631.54 562.434 631.661 562.353 631.793C562.252 631.954 562.151 632.126 562.05 632.288C561.767 632.732 561.484 633.187 561.201 633.642C561.019 633.945 560.827 634.248 560.645 634.551C560.362 635.026 560.079 635.501 559.797 635.996C559.615 636.299 559.443 636.612 559.271 636.925C558.968 637.461 558.675 638.016 558.372 638.582C558.22 638.865 558.069 639.138 557.927 639.421C557.483 640.269 557.048 641.148 556.624 642.047L556.432 642.452C550.148 655.748 547.4 670.933 543.571 679.046C543.359 679.49 543.146 679.905 542.934 680.299C542.863 680.43 542.793 680.541 542.722 680.672C542.57 680.925 542.429 681.188 542.277 681.43C542.237 681.491 542.197 681.541 542.156 681.602C541.924 681.955 541.691 682.279 541.449 682.572C541.338 682.713 541.217 682.845 541.105 682.976C541.004 683.087 540.913 683.198 540.812 683.289C540.631 683.471 540.449 683.633 540.267 683.784C540.237 683.814 540.196 683.845 540.166 683.875C539.944 684.047 539.711 684.198 539.469 684.33C539.428 684.35 539.378 684.38 539.337 684.4C539.105 684.522 538.863 684.623 538.62 684.693C538.58 684.704 538.549 684.714 538.509 684.724C538.246 684.795 537.984 684.855 537.701 684.875L553.058 683.653C553.058 683.653 553.088 683.653 553.108 683.653C553.28 683.643 553.442 683.612 553.603 683.582C553.694 683.562 553.775 683.532 553.866 683.511C553.906 683.501 553.937 683.491 553.977 683.481C554.007 683.481 554.038 683.471 554.068 683.461C554.23 683.41 554.381 683.35 554.533 683.279C554.583 683.249 554.644 683.218 554.694 683.188C554.735 683.168 554.785 683.138 554.826 683.117C554.876 683.087 554.937 683.067 554.987 683.026C555.159 682.925 555.321 682.814 555.493 682.683C555.493 682.683 555.513 682.663 555.523 682.663C555.553 682.632 555.594 682.602 555.624 682.572C555.765 682.461 555.907 682.339 556.038 682.208C556.079 682.168 556.119 682.117 556.169 682.067C556.27 681.966 556.372 681.854 556.462 681.753C556.543 681.673 556.614 681.592 556.695 681.501C556.735 681.45 556.766 681.39 556.806 681.349C557.048 681.046 557.281 680.723 557.513 680.379C557.544 680.329 557.574 680.299 557.604 680.248C557.604 680.238 557.624 680.218 557.624 680.208C557.776 679.975 557.917 679.713 558.069 679.45C558.14 679.329 558.21 679.207 558.281 679.086C558.493 678.692 558.705 678.268 558.918 677.833C562.757 669.72 565.495 654.535 571.779 641.239L571.971 640.835C572.395 639.936 572.83 639.057 573.274 638.208C573.426 637.925 573.567 637.653 573.719 637.37C574.022 636.804 574.315 636.248 574.618 635.713C574.79 635.4 574.972 635.096 575.143 634.793C575.426 634.308 575.709 633.813 575.992 633.349C576.174 633.045 576.356 632.742 576.548 632.439C576.831 631.985 577.114 631.53 577.396 631.085C577.588 630.792 577.77 630.499 577.962 630.206C578.185 629.863 578.417 629.519 578.639 629.176C578.841 628.873 579.053 628.56 579.255 628.257C579.478 627.923 579.71 627.59 579.932 627.266C580.134 626.973 580.337 626.68 580.539 626.387C580.771 626.054 581.003 625.731 581.226 625.407C581.418 625.135 581.62 624.852 581.812 624.579C582.064 624.225 582.317 623.872 582.569 623.528C582.852 623.134 583.125 622.75 583.398 622.366C583.65 622.023 583.893 621.669 584.145 621.336C584.348 621.053 584.55 620.77 584.742 620.497C584.934 620.224 585.136 619.941 585.328 619.669C585.52 619.396 585.711 619.113 585.903 618.84C586.075 618.588 586.257 618.325 586.429 618.072C586.621 617.789 586.803 617.517 586.985 617.244C587.116 617.042 587.257 616.83 587.389 616.628C587.409 616.597 587.419 616.567 587.439 616.547C587.894 615.84 588.318 615.142 588.722 614.445C588.813 614.294 588.894 614.132 588.985 613.981C589.389 613.263 589.773 612.536 590.116 611.818C590.349 611.333 590.561 610.838 590.753 610.353C590.814 610.192 590.874 610.04 590.935 609.879C591.066 609.545 591.187 609.202 591.299 608.868C591.359 608.676 591.42 608.484 591.47 608.282C591.561 607.969 591.652 607.656 591.733 607.343C591.784 607.131 591.834 606.928 591.875 606.716C591.915 606.555 591.955 606.393 591.986 606.231C592.016 606.09 592.026 605.938 592.056 605.787C592.097 605.565 592.127 605.332 592.157 605.1C592.178 604.968 592.198 604.847 592.218 604.716C592.248 604.433 592.269 604.15 592.289 603.867C592.289 603.796 592.299 603.736 592.309 603.665C592.309 603.635 592.309 603.615 592.309 603.584C592.329 603.261 592.339 602.928 592.339 602.594C592.339 602.422 592.339 602.241 592.339 602.059C592.339 601.998 592.339 601.937 592.339 601.877C592.339 601.826 592.339 601.766 592.339 601.715C592.329 601.422 592.309 601.129 592.289 600.836C592.269 600.624 592.248 600.412 592.228 600.21C592.228 600.169 592.228 600.119 592.218 600.078C592.218 600.038 592.218 600.008 592.208 599.967C592.167 599.664 592.127 599.351 592.077 599.038C592.036 598.795 591.996 598.553 591.945 598.31C591.945 598.26 591.925 598.209 591.915 598.169C591.915 598.128 591.905 598.098 591.895 598.068C591.824 597.704 591.743 597.33 591.652 596.957C591.612 596.785 591.561 596.613 591.511 596.441C591.47 596.3 591.44 596.168 591.4 596.027C591.359 595.896 591.339 595.774 591.299 595.643C591.167 595.199 591.016 594.744 590.864 594.279C590.844 594.208 590.824 594.148 590.804 594.077C590.804 594.057 590.804 594.047 590.793 594.037C590.642 593.602 590.45 593.137 590.278 592.693C590.167 592.42 590.076 592.157 589.965 591.875C589.965 591.875 589.965 591.854 589.965 591.844C589.682 591.167 589.359 590.47 589.025 589.763C588.924 589.551 588.813 589.329 588.702 589.116C588.54 588.803 588.399 588.49 588.227 588.167C588.126 587.965 588.005 587.763 587.894 587.56C587.732 587.257 587.56 586.944 587.389 586.641C587.116 586.136 586.813 585.631 586.51 585.105C586.328 584.792 586.146 584.489 585.954 584.166C585.61 583.6 585.237 583.014 584.863 582.418C584.681 582.135 584.519 581.862 584.327 581.579C583.751 580.7 583.145 579.801 582.499 578.872C577.982 572.385 572.719 569.668 567.273 570.102L567.253 570.051Z" fill="#C39820"/>
<path d="M530.659 680.268C530.325 679.702 530.002 679.127 529.689 678.53C529.466 678.116 529.254 677.692 529.042 677.268C528.891 676.964 528.739 676.661 528.587 676.358C528.345 675.853 528.123 675.348 527.89 674.833C527.769 674.55 527.638 674.277 527.517 673.994C527.426 673.782 527.345 673.56 527.254 673.337C526.87 672.408 526.506 671.448 526.163 670.478C526.052 670.165 525.94 669.852 525.829 669.528C525.526 668.629 525.233 667.72 524.95 666.79C524.89 666.598 524.829 666.417 524.778 666.225C524.465 665.144 524.172 664.052 523.9 662.941C523.819 662.628 523.758 662.315 523.687 662.001C523.495 661.203 523.324 660.395 523.152 659.567C523.071 659.173 522.99 658.768 522.92 658.364C522.768 657.576 522.626 656.788 522.495 655.98C522.435 655.586 522.364 655.182 522.303 654.788C522.152 653.777 522.01 652.747 521.879 651.716C521.859 651.514 521.818 651.312 521.798 651.1C521.646 649.817 521.525 648.524 521.424 647.22C521.394 646.887 521.374 646.554 521.353 646.21C521.273 645.078 521.212 643.947 521.161 642.795C521.151 642.462 521.131 642.128 521.121 641.795C521.071 640.269 521.05 638.734 521.05 637.178C521.05 636.895 521.05 636.602 521.06 636.319C521.081 634.49 521.131 632.662 521.232 630.813C521.252 630.398 521.283 629.974 521.313 629.56C521.364 628.812 521.404 628.054 521.465 627.307C521.505 626.822 521.556 626.337 521.596 625.842C521.657 625.135 521.727 624.427 521.798 623.73C521.838 623.356 521.889 622.972 521.929 622.599C522.071 621.376 522.232 620.144 522.404 618.921C522.455 618.588 522.495 618.254 522.546 617.921C522.768 616.456 523.021 614.981 523.293 613.526C523.374 613.071 523.475 612.606 523.566 612.152C523.708 611.435 523.849 610.717 524.001 610C524.112 609.495 524.223 609 524.334 608.494C524.496 607.807 524.647 607.11 524.819 606.423C524.94 605.918 525.071 605.413 525.203 604.898C525.375 604.221 525.556 603.544 525.738 602.867C525.88 602.362 526.021 601.857 526.163 601.362C526.355 600.685 526.557 600.018 526.769 599.351C526.92 598.856 527.072 598.361 527.234 597.866C527.446 597.199 527.678 596.532 527.9 595.865C528.062 595.39 528.224 594.906 528.395 594.431C528.638 593.744 528.901 593.057 529.153 592.38C529.325 591.935 529.487 591.491 529.658 591.056C529.951 590.309 530.254 589.571 530.568 588.833C530.719 588.47 530.861 588.106 531.022 587.742C531.497 586.651 531.982 585.57 532.487 584.499C533.003 583.408 533.538 582.357 534.074 581.317C534.235 581.003 534.407 580.7 534.569 580.387C534.963 579.65 535.357 578.932 535.751 578.225C535.933 577.912 536.104 577.588 536.286 577.285C536.741 576.507 537.206 575.75 537.67 575.002C537.781 574.82 537.893 574.638 538.004 574.467C538.559 573.598 539.135 572.749 539.711 571.931C539.853 571.739 539.984 571.537 540.125 571.345C540.671 570.577 541.227 569.819 541.792 569.102C541.833 569.051 541.873 568.991 541.924 568.93C542.49 568.213 543.055 567.526 543.631 566.859C543.965 566.465 544.308 566.091 544.642 565.717C544.995 565.323 545.349 564.939 545.702 564.565C546.046 564.212 546.389 563.868 546.733 563.525C547.107 563.151 547.481 562.787 547.865 562.434C548.117 562.201 548.37 561.979 548.622 561.747C549.047 561.373 549.481 560.999 549.905 560.655C550.158 560.443 550.421 560.241 550.673 560.039C551.188 559.635 551.714 559.241 552.239 558.877C552.371 558.786 552.502 558.685 552.623 558.594C553.29 558.14 553.947 557.715 554.614 557.321C554.755 557.24 554.896 557.16 555.038 557.079C555.583 556.766 556.129 556.473 556.685 556.2C556.836 556.119 556.998 556.038 557.149 555.967C557.796 555.664 558.443 555.381 559.089 555.129C559.221 555.078 559.342 555.038 559.473 554.987C559.908 554.826 560.342 554.694 560.777 554.553C561.332 554.381 561.888 554.23 562.433 554.098C562.726 554.028 563.019 553.947 563.323 553.896C563.898 553.785 564.484 553.704 565.06 553.634C565.353 553.603 565.646 553.543 565.939 553.522L550.582 554.745C550.481 554.745 550.38 554.765 550.289 554.775C550.097 554.795 549.895 554.846 549.703 554.866C549.127 554.937 548.541 555.018 547.966 555.129C547.865 555.149 547.764 555.149 547.662 555.179C547.471 555.22 547.279 555.291 547.087 555.341C546.531 555.472 545.975 555.624 545.42 555.796C545.258 555.846 545.096 555.877 544.945 555.927C544.672 556.018 544.399 556.129 544.116 556.23C543.985 556.281 543.864 556.321 543.732 556.372C543.177 556.584 542.621 556.816 542.075 557.069C541.984 557.109 541.883 557.16 541.792 557.21C541.631 557.281 541.479 557.362 541.318 557.443C540.772 557.715 540.226 558.008 539.681 558.322C539.539 558.402 539.398 558.483 539.246 558.564C539.176 558.604 539.095 558.645 539.024 558.685C538.428 559.039 537.842 559.423 537.256 559.827C537.125 559.918 536.993 560.019 536.872 560.11C536.498 560.372 536.114 560.635 535.741 560.928C535.599 561.039 535.458 561.161 535.306 561.272C535.054 561.474 534.791 561.686 534.538 561.888C534.104 562.242 533.68 562.605 533.255 562.979C533.003 563.201 532.75 563.434 532.497 563.666C532.356 563.797 532.225 563.909 532.083 564.04C531.841 564.262 531.608 564.525 531.366 564.757C531.022 565.101 530.679 565.434 530.335 565.798C529.982 566.172 529.628 566.566 529.274 566.95C528.931 567.324 528.598 567.697 528.264 568.091C528.153 568.223 528.042 568.334 527.931 568.465C527.466 569.011 527.011 569.587 526.547 570.163C526.506 570.213 526.466 570.274 526.415 570.334C525.849 571.062 525.294 571.809 524.748 572.577C524.607 572.769 524.475 572.961 524.334 573.163C523.788 573.941 523.253 574.739 522.717 575.558C522.687 575.598 522.657 575.649 522.637 575.699C522.525 575.871 522.414 576.063 522.303 576.235C521.838 576.982 521.374 577.74 520.919 578.518C520.737 578.831 520.555 579.144 520.384 579.458C519.979 580.165 519.585 580.882 519.201 581.62C519.04 581.933 518.868 582.236 518.706 582.549C518.171 583.59 517.635 584.641 517.12 585.732C516.615 586.803 516.13 587.884 515.655 588.975C515.504 589.339 515.352 589.702 515.201 590.076C514.897 590.814 514.584 591.551 514.291 592.289C514.12 592.733 513.958 593.178 513.786 593.622C513.534 594.299 513.271 594.986 513.028 595.673C512.857 596.148 512.695 596.623 512.533 597.108C512.301 597.775 512.079 598.442 511.866 599.108C511.705 599.604 511.553 600.099 511.402 600.594C511.2 601.26 510.998 601.927 510.796 602.604C510.654 603.109 510.503 603.615 510.371 604.12C510.189 604.797 510.008 605.463 509.836 606.14C509.704 606.646 509.573 607.151 509.452 607.666C509.28 608.353 509.118 609.05 508.967 609.737C508.856 610.232 508.734 610.737 508.633 611.232C508.482 611.95 508.33 612.677 508.189 613.395C508.118 613.758 508.037 614.112 507.967 614.476C507.946 614.567 507.936 614.657 507.916 614.758C507.643 616.223 507.391 617.688 507.168 619.164C507.118 619.497 507.078 619.83 507.027 620.164C506.845 621.386 506.694 622.619 506.552 623.841C506.522 624.064 506.492 624.296 506.461 624.518C506.441 624.67 506.431 624.821 506.421 624.973C506.34 625.68 506.279 626.387 506.219 627.085C506.178 627.569 506.128 628.065 506.087 628.549C506.027 629.307 505.976 630.055 505.936 630.813C505.916 631.186 505.875 631.56 505.855 631.924C505.855 631.964 505.855 632.015 505.855 632.055C505.754 633.904 505.703 635.733 505.683 637.562C505.683 637.733 505.673 637.905 505.663 638.067C505.663 638.188 505.663 638.299 505.663 638.42C505.663 639.966 505.683 641.502 505.734 643.027C505.734 643.139 505.734 643.26 505.734 643.371C505.734 643.593 505.764 643.816 505.774 644.038C505.825 645.179 505.885 646.311 505.966 647.443C505.986 647.665 505.986 647.887 506.007 648.109C506.007 648.231 506.027 648.342 506.037 648.463C506.138 649.766 506.269 651.06 506.411 652.343C506.411 652.373 506.411 652.413 506.421 652.444C506.441 652.616 506.471 652.777 506.492 652.949C506.613 653.979 506.754 655.01 506.916 656.02C506.936 656.172 506.956 656.334 506.977 656.485C507.017 656.728 507.067 656.97 507.108 657.213C507.239 658.011 507.381 658.809 507.532 659.597C507.573 659.829 507.613 660.072 507.664 660.304C507.694 660.466 507.734 660.627 507.775 660.789C507.946 661.607 508.128 662.416 508.31 663.224C508.371 663.466 508.411 663.719 508.472 663.962C508.492 664.032 508.512 664.093 508.522 664.164C508.795 665.275 509.088 666.376 509.401 667.447C509.411 667.488 509.421 667.528 509.432 667.558C509.472 667.71 509.533 667.861 509.573 668.013C509.846 668.942 510.139 669.852 510.452 670.751C510.503 670.892 510.543 671.054 510.593 671.195C510.654 671.367 510.725 671.529 510.785 671.701C511.129 672.671 511.493 673.63 511.877 674.56C511.937 674.711 511.988 674.863 512.048 675.015C512.079 675.085 512.109 675.146 512.139 675.217C512.261 675.499 512.392 675.782 512.513 676.055C512.735 676.57 512.968 677.086 513.21 677.581C513.352 677.884 513.503 678.187 513.655 678.49C513.806 678.783 513.938 679.086 514.089 679.379C514.16 679.51 514.231 679.622 514.301 679.753C514.615 680.339 514.938 680.915 515.271 681.481C515.423 681.753 515.574 682.026 515.736 682.289C516.231 683.107 516.746 683.905 517.272 684.663C523.546 693.665 531.386 697.626 539.519 696.979L554.876 695.757C546.743 696.403 538.903 692.443 532.629 683.441C532.093 682.673 531.588 681.875 531.093 681.066C530.931 680.804 530.78 680.531 530.628 680.258L530.659 680.268Z" fill="#F9DD8F"/>
<path d="M532.508 584.529C517.161 617.001 517.231 661.294 532.669 683.451C545.824 702.324 565.879 699.04 581.024 677.591L594.218 649.686C603.402 619.679 601.402 584.742 588.258 565.859C572.82 543.702 547.865 552.057 532.518 584.529H532.508ZM590.106 611.798C586.267 619.911 578.245 627.509 571.961 640.815L571.769 641.219C565.485 654.515 562.737 669.7 558.907 677.813C554.997 686.088 549.956 687.007 538.873 671.094C526.728 653.666 528.87 621.76 540.732 596.663L540.924 596.259C552.785 571.163 570.344 561.383 582.489 578.811C593.572 594.714 594.016 603.524 590.106 611.788V611.798Z" fill="#F4C12A"/>
<path d="M620.335 696.534C620.123 697.424 619.81 698.353 619.345 699.323C615.92 706.567 606.625 713.003 598.593 713.7C597.492 713.791 596.471 713.761 595.542 713.639C594.178 719.408 597.896 723.328 604.857 722.732C612.889 722.045 622.184 715.599 625.609 708.355C628.569 702.101 626.195 697.292 620.335 696.524V696.534Z" fill="#F4C12A"/>
<path d="M608.484 679.42C608.272 680.309 607.959 681.238 607.494 682.208C604.069 689.452 594.774 695.888 586.742 696.585C585.641 696.676 584.62 696.646 583.691 696.524C582.327 702.293 586.045 706.213 593.006 705.617C601.038 704.93 610.333 698.484 613.758 691.24C616.718 684.986 614.344 680.177 608.484 679.409V679.42Z" fill="#F4C12A"/>
</g>
</g>
<defs>
<filter id="filter0_f_1357_6471" x="-597" y="-103" width="2009" height="2009" filterUnits="userSpaceOnUse" color-interpolation-filters="sRGB">
<feFlood flood-opacity="0" result="BackgroundImageFix"/>
<feBlend mode="normal" in="SourceGraphic" in2="BackgroundImageFix" result="shape"/>
<feGaussianBlur stdDeviation="5" result="effect1_foregroundBlur_1357_6471"/>
</filter>
<linearGradient id="paint0_linear_1357_6471" x1="49.537" y1="70.5375" x2="1542.09" y2="874.077" gradientUnits="userSpaceOnUse">
<stop stop-color="#9D2EC5"/>
<stop offset="1" stop-color="#3F0D4A"/>
</linearGradient>
<linearGradient id="paint1_linear_1357_6471" x1="407.5" y1="599.523" x2="407.5" y2="1203.47" gradientUnits="userSpaceOnUse">
<stop stop-color="#A59FB2"/>
<stop offset="1" stop-color="#69607B"/>
</linearGradient>
<linearGradient id="paint2_linear_1357_6471" x1="407.5" y1="494.02" x2="407.5" y2="1308.99" gradientUnits="userSpaceOnUse">
<stop stop-color="#A59FB2"/>
<stop offset="1" stop-color="#69607B"/>
</linearGradient>
<linearGradient id="paint3_linear_1357_6471" x1="407.5" y1="381.23" x2="407.5" y2="1421.77" gradientUnits="userSpaceOnUse">
<stop stop-color="#A59FB2"/>
<stop offset="1" stop-color="#69607B"/>
</linearGradient>
<linearGradient id="paint4_linear_1357_6471" x1="407.5" y1="266.625" x2="407.5" y2="1536.37" gradientUnits="userSpaceOnUse">
<stop stop-color="#A59FB2"/>
<stop offset="1" stop-color="#69607B"/>
</linearGradient>
<linearGradient id="paint5_linear_1357_6471" x1="407.5" y1="150.199" x2="407.5" y2="1652.79" gradientUnits="userSpaceOnUse">
<stop stop-color="#A59FB2"/>
<stop offset="1" stop-color="#69607B"/>
</linearGradient>
<linearGradient id="paint6_linear_1357_6471" x1="407.499" y1="29.2578" x2="407.499" y2="1773.74" gradientUnits="userSpaceOnUse">
<stop stop-color="#A59FB2"/>
<stop offset="1" stop-color="#69607B"/>
</linearGradient>
<linearGradient id="paint7_linear_1357_6471" x1="407.5" y1="-93" x2="407.5" y2="1896" gradientUnits="userSpaceOnUse">
<stop stop-color="#A59FB2"/>
<stop offset="1" stop-color="#69607B"/>
</linearGradient>
<clipPath id="clip0_1357_6471">
<rect width="1000" height="1881" fill="white"/>
</clipPath>
<clipPath id="clip1_1357_6471">
<rect width="1000" height="1881" fill="white"/>
</clipPath>
<clipPath id="clip2_1357_6471">
<rect width="324.082" height="390.128" fill="white" transform="translate(165 555.553)"/>
</clipPath>
<clipPath id="clip3_1357_6471">
<rect width="369.541" height="390.931" fill="white" transform="translate(465.459 553.467)"/>
</clipPath>
</defs>
</svg>
