<svg xmlns="http://www.w3.org/2000/svg" width="500" height="500" style="width:100%;height:100%"><defs><clipPath id="g"><path d="M0 0h500v500H0z"/></clipPath><clipPath id="b"><path d="M0 0h500v500H0z"/></clipPath><clipPath id="c"><path d="M0 0h500v500H0z"/></clipPath><clipPath id="f"><path d="M0 0h500v500H0z"/></clipPath><mask id="i"><g filter="url(#a)"><g clip-path="url(#b)" display="block"><g display="block"><path stroke-linecap="round" stroke-linejoin="round" fill-opacity="0" stroke="#121331" stroke-width="0" d="M172.412 205.107l19.864 19.865 19.871-19.865h25.609a5.864 5.864 0 005.864-5.865v-70.293a5.868 5.868 0 00-5.868-5.868H146.48a5.868 5.868 0 00-5.868 5.868v70.293a5.864 5.864 0 005.864 5.865h25.936z"/><path fill="red" d="M-19.704 51.99L.16 71.855 20.031 51.99H45.64a5.864 5.864 0 005.864-5.865v-70.293a5.868 5.868 0 00-5.868-5.868h-91.272a5.868 5.868 0 00-5.868 5.868v70.293a5.864 5.864 0 005.864 5.865h25.936z" transform="translate(192.116 153.117)"/></g><g display="block"><path stroke-linecap="round" stroke-linejoin="round" fill-opacity="0" stroke="#121331" stroke-width="0" d="M284.412 329.107l19.864 19.865 19.871-19.865h25.609a5.864 5.864 0 005.864-5.865v-70.293a5.868 5.868 0 00-5.868-5.868H258.48a5.868 5.868 0 00-5.868 5.868v70.293a5.864 5.864 0 005.864 5.865h25.936z"/><path fill="red" d="M-19.704 51.99L.16 71.855 20.031 51.99H45.64a5.864 5.864 0 005.864-5.865v-70.293a5.868 5.868 0 00-5.868-5.868h-91.272a5.868 5.868 0 00-5.868 5.868v70.293a5.864 5.864 0 005.864 5.865h25.936z" transform="translate(304.116 277.117)"/></g></g></g></mask><mask id="h"><g clip-path="url(#c)" display="block"><g mask="url(#d)" display="block"><path stroke-linecap="round" stroke-linejoin="round" fill-opacity="0" stroke="#121331" stroke-width="0" d="M90.881 250c0 88.431 71.688 160.119 160.119 160.119S411.119 338.431 411.119 250 339.431 89.881 251 89.881 90.881 161.569 90.881 250z"/><path fill="red" d="M-160.119 0c0 88.431 71.688 160.119 160.119 160.119S160.119 88.431 160.119 0 88.431-160.119 0-160.119-160.119-88.431-160.119 0z" transform="translate(251 250)"/></g></g></mask><mask id="d"><g filter="url(#e)"><g clip-path="url(#f)" display="block"><g display="block"><path stroke-linecap="round" stroke-linejoin="round" fill-opacity="0" stroke="#121331" stroke-width="0" d="M172.412 205.107l19.864 19.865 19.871-19.865h25.609a5.864 5.864 0 005.864-5.865v-70.293a5.868 5.868 0 00-5.868-5.868H146.48a5.868 5.868 0 00-5.868 5.868v70.293a5.864 5.864 0 005.864 5.865h25.936z"/><path fill="red" d="M-19.704 51.99L.16 71.855 20.031 51.99H45.64a5.864 5.864 0 005.864-5.865v-70.293a5.868 5.868 0 00-5.868-5.868h-91.272a5.868 5.868 0 00-5.868 5.868v70.293a5.864 5.864 0 005.864 5.865h25.936z" transform="translate(192.116 153.117)"/></g><g display="block"><path stroke-linecap="round" stroke-linejoin="round" fill-opacity="0" stroke="#121331" stroke-width="0" d="M284.412 329.107l19.864 19.865 19.871-19.865h25.609a5.864 5.864 0 005.864-5.865v-70.293a5.868 5.868 0 00-5.868-5.868H258.48a5.868 5.868 0 00-5.868 5.868v70.293a5.864 5.864 0 005.864 5.865h25.936z"/><path fill="red" d="M-19.704 51.99L.16 71.855 20.031 51.99H45.64a5.864 5.864 0 005.864-5.865v-70.293a5.868 5.868 0 00-5.868-5.868h-91.272a5.868 5.868 0 00-5.868 5.868v70.293a5.864 5.864 0 005.864 5.865h25.936z" transform="translate(304.116 277.117)"/></g></g></g></mask><filter id="a" filterUnits="objectBoundingBox" x="0%" y="0%" width="100%" height="100%"><feComponentTransfer in="SourceGraphic"><feFuncA type="table" tableValues="1.0 0.0"/></feComponentTransfer></filter><filter id="e" filterUnits="objectBoundingBox" x="0%" y="0%" width="100%" height="100%"><feComponentTransfer in="SourceGraphic"><feFuncA type="table" tableValues="1.0 0.0"/></feComponentTransfer></filter></defs><g clip-path="url(#g)"><g mask="url(#h)" display="block"><path stroke-linecap="round" stroke-linejoin="round" stroke="#2FC8E8" stroke-width="12.04" d="M358.58 324.694l-8.66 32.792-41.477 59.007s-.764 18.284-1.194 22.801c-7.823-1.802-12.583-7.088-14.444-15.161 0 0-1.025-40.4-10.167-59.384-2.439-5.065-10.976-13.669-17.611-19.911a22.86 22.86 0 01-7.044-19.277l1.385-11.974 30.062-27.361s30.475 23.78 69.15 38.468zM261.625 262.625l-19.561 16.945-51.522-28.121-12.061-68.553s24.512-25.487 12.357-41.504c-6.504-8.571-10.476-11.444-19.499-7.239l-28.242-.423-7.033-28.359 17.837-17.618 155.685-.361 10.344 21.158-36.483 23.425L303.602 147l27.153-2.313s9.296 12.627 9.692 15.905c1.125 9.315-5.226 26.868-5.226 26.868l-44.538 1.686-13.817 27.326-26.914-20.095s-26.137 3.99-22.71 22.347l20.178 14.708 14.205 29.193zM503.49 123.056l-27.17 13.208c-4.823 2.975-26.501 17.638-26.501 17.638l32.805 1.254 50.839 18.336-12.877 30.298s-13.976 6.168-22.856-.519c-4.854-3.655-15.679-11.632-21.726-12.235-9.748-.972-47.548 19.559-47.548 19.559-22.044 17.346 2.29 34.405 16.337 51.087l27.141-2.8c1.695 1.889 7.363 46.441-.665 70.525 4.389 17.993 22.513 35.042 29.582 35.042 12.086 0 60.525-94.801 65.999-109.429l-27.329-4.171 20.622-34.78 8.811-31.339c11.542 9.548 38.972 27.517 48.007 53.822l12.999 1.187s5.32-33.039 22.605-33.48c4.475-.114 36.405 34.188 36.405 34.188s7.031-3.482 10.704-7.155c4.471-4.47-2.973-26.849-2.973-26.849s12.804-71.886 27.439-72.672l34.181-1.87c3.538 1.616 23.577-29.546 20.61-31.217-41.65-23.44-71.806-3.102-176.08-15.222-6.613-.769-17.382 17.854-17.382 17.854l-38.898 10.704-11.161-31.915-41.719-2.839c-7.698 4.212-28.06 22.752-28.06 22.752l37.859 21.038zM315.4 54.399s29.427 4.588 42.033 16.424c12.606 11.836 8.393 30.921 11.842 32.409 9.577 4.133 23.503-34.031 23.503-34.031l60.651-27.491S325.573 27.253 315.4 54.399zM803.912 365.511l-22.172-23.956-42.679 32.91c-13.879 2.83-28.668 14.7-29.379 28.847l-1.34 26.678 55.048-12.743 10.71 15.404a24.46 24.46 0 0021.695 10.444l13.214-.872 27.336-37.452a12.949 12.949 0 00.681-14.234l-11.961-20.183-2.803-30.073-18.35 25.23z" fill="none"/><path stroke-linecap="round" stroke-linejoin="round" stroke="#2FC8E8" stroke-width="12.04" d="M658.141 258.037l-5.097 8.41 27.015 36.954 56.323 17.33 18.859-1.274-64.478-24.976-32.622-36.444z" fill="none"/><g><path stroke-linecap="round" stroke-linejoin="round" stroke="#2FC8E8" stroke-width="12.04" d="M1154.58 324.694l-8.66 32.792-41.477 59.007s-.764 18.284-1.194 22.801c-7.823-1.802-12.583-7.088-14.444-15.161 0 0-1.025-40.4-10.167-59.384-2.439-5.065-10.976-13.669-17.611-19.911a22.86 22.86 0 01-7.044-19.277l1.385-11.974 30.062-27.361s30.475 23.78 69.15 38.468zM1057.625 262.625l-19.561 16.945-51.522-28.121-12.061-68.553s24.512-25.487 12.357-41.504c-6.504-8.571-10.476-11.444-19.499-7.239l-28.242-.423-7.033-28.359 17.837-17.618 155.685-.361 10.344 21.158-36.483 23.425L1099.602 147l27.153-2.313s9.296 12.627 9.692 15.905c1.125 9.315-5.226 26.868-5.226 26.868l-44.538 1.686-13.817 27.326-26.914-20.095s-26.137 3.99-22.71 22.347l20.178 14.708 14.205 29.193zM1299.49 123.056l-27.17 13.208c-4.823 2.975-26.501 17.638-26.501 17.638l32.805 1.254 50.839 18.336-12.877 30.298s-13.976 6.168-22.856-.519c-4.854-3.655-15.679-11.632-21.726-12.235-9.748-.972-47.548 19.559-47.548 19.559-22.044 17.346 2.29 34.405 16.337 51.087l27.141-2.8c1.695 1.889 7.363 46.441-.665 70.525 4.389 17.993 22.513 35.042 29.582 35.042 12.086 0 60.525-94.801 65.999-109.429l-27.329-4.171 20.622-34.78 8.811-31.339c11.542 9.548 38.972 27.517 48.007 53.822l12.999 1.187s5.32-33.039 22.605-33.48c4.475-.114 36.405 34.188 36.405 34.188s7.031-3.482 10.704-7.155c4.471-4.47-2.973-26.849-2.973-26.849s12.804-71.886 27.439-72.672l34.181-1.87c3.538 1.616 23.577-29.546 20.61-31.217-41.65-23.44-71.806-3.102-176.08-15.222-6.613-.769-17.382 17.854-17.382 17.854l-38.898 10.704-11.161-31.915-41.719-2.839c-7.698 4.212-28.06 22.752-28.06 22.752l37.859 21.038zM1111.4 54.399s29.427 4.588 42.033 16.424c12.606 11.836 8.393 30.921 11.842 32.409 9.577 4.133 23.503-34.031 23.503-34.031l60.651-27.491S1121.573 27.253 1111.4 54.399zM1599.912 365.511l-22.172-23.956-42.679 32.91c-13.879 2.83-28.668 14.7-29.379 28.847l-1.34 26.678 55.048-12.743 10.71 15.404a24.46 24.46 0 0021.695 10.444l13.214-.872 27.336-37.452a12.949 12.949 0 00.681-14.234l-11.961-20.183-2.803-30.073-18.35 25.23z" fill="none"/><path stroke-linecap="round" stroke-linejoin="round" stroke="#2FC8E8" stroke-width="12.04" d="M1454.141 258.037l-5.097 8.41 27.015 36.954 56.323 17.33 18.859-1.274-64.478-24.976-32.622-36.444z" fill="none"/></g></g><g mask="url(#i)" display="block"><path stroke-linecap="round" stroke-linejoin="round" stroke="#121331" stroke-width="12.04" d="M90.881 250c0 88.431 71.688 160.119 160.119 160.119S411.119 338.431 411.119 250 339.431 89.881 251 89.881 90.881 161.569 90.881 250z" fill="none"/></g><path stroke-linecap="round" stroke-linejoin="round" stroke="#121331" stroke-width="12.04" d="M172.412 205.107l19.864 19.865 19.871-19.865h25.609a5.864 5.864 0 005.864-5.865v-70.293a5.868 5.868 0 00-5.868-5.868H146.48a5.868 5.868 0 00-5.868 5.868v70.293a5.864 5.864 0 005.864 5.865h25.936zm42.917-19.49h-46.426m11.269-1v-18.894m23.888 18.894v-18.946m-11.944-1h-22.769l-.001-10.24 22.77-12.868 22.77 12.868-.001 10.24h-22.769zM284.412 329.107l19.864 19.865 19.871-19.865h25.609a5.864 5.864 0 005.864-5.865v-70.293a5.868 5.868 0 00-5.868-5.868H258.48a5.868 5.868 0 00-5.868 5.868v70.293a5.864 5.864 0 005.864 5.865h25.936zm42.917-19.49h-46.426m11.269-1v-18.894m23.888 18.894v-18.946m-11.944-1h-22.769l-.001-10.24 22.77-12.868 22.77 12.868-.001 10.24h-22.769z" fill="none" display="block"/></g></svg>