<svg id="visual" viewBox="0 0 960 540" width="960" height="540" xmlns="http://www.w3.org/2000/svg" xmlns:xlink="http://www.w3.org/1999/xlink" version="1.1"><rect x="0" y="0" width="960" height="540" fill="#3b60bd"></rect><defs><linearGradient id="grad1_0" x1="43.8%" y1="0%" x2="100%" y2="100%"><stop offset="14.444444444444446%" stop-color="#4ab6d4" stop-opacity="1"></stop><stop offset="85.55555555555554%" stop-color="#4ab6d4" stop-opacity="1"></stop></linearGradient></defs><defs><linearGradient id="grad1_1" x1="43.8%" y1="0%" x2="100%" y2="100%"><stop offset="14.444444444444446%" stop-color="#4ab6d4" stop-opacity="1"></stop><stop offset="85.55555555555554%" stop-color="#19a3d4" stop-opacity="1"></stop></linearGradient></defs><defs><linearGradient id="grad1_2" x1="43.8%" y1="0%" x2="100%" y2="100%"><stop offset="14.444444444444446%" stop-color="#008fd1" stop-opacity="1"></stop><stop offset="85.55555555555554%" stop-color="#19a3d4" stop-opacity="1"></stop></linearGradient></defs><defs><linearGradient id="grad1_3" x1="43.8%" y1="0%" x2="100%" y2="100%"><stop offset="14.444444444444446%" stop-color="#008fd1" stop-opacity="1"></stop><stop offset="85.55555555555554%" stop-color="#0b78ca" stop-opacity="1"></stop></linearGradient></defs><defs><linearGradient id="grad1_4" x1="43.8%" y1="0%" x2="100%" y2="100%"><stop offset="14.444444444444446%" stop-color="#3b60bd" stop-opacity="1"></stop><stop offset="85.55555555555554%" stop-color="#0b78ca" stop-opacity="1"></stop></linearGradient></defs><defs><linearGradient id="grad2_0" x1="0%" y1="0%" x2="56.3%" y2="100%"><stop offset="14.444444444444446%" stop-color="#4ab6d4" stop-opacity="1"></stop><stop offset="85.55555555555554%" stop-color="#4ab6d4" stop-opacity="1"></stop></linearGradient></defs><defs><linearGradient id="grad2_1" x1="0%" y1="0%" x2="56.3%" y2="100%"><stop offset="14.444444444444446%" stop-color="#19a3d4" stop-opacity="1"></stop><stop offset="85.55555555555554%" stop-color="#4ab6d4" stop-opacity="1"></stop></linearGradient></defs><defs><linearGradient id="grad2_2" x1="0%" y1="0%" x2="56.3%" y2="100%"><stop offset="14.444444444444446%" stop-color="#19a3d4" stop-opacity="1"></stop><stop offset="85.55555555555554%" stop-color="#008fd1" stop-opacity="1"></stop></linearGradient></defs><defs><linearGradient id="grad2_3" x1="0%" y1="0%" x2="56.3%" y2="100%"><stop offset="14.444444444444446%" stop-color="#0b78ca" stop-opacity="1"></stop><stop offset="85.55555555555554%" stop-color="#008fd1" stop-opacity="1"></stop></linearGradient></defs><defs><linearGradient id="grad2_4" x1="0%" y1="0%" x2="56.3%" y2="100%"><stop offset="14.444444444444446%" stop-color="#0b78ca" stop-opacity="1"></stop><stop offset="85.55555555555554%" stop-color="#3b60bd" stop-opacity="1"></stop></linearGradient></defs><g transform="translate(960, 0)"><path d="M0 513C-45.3 474.9 -90.5 436.7 -135 415.6C-179.5 394.5 -223.3 390.4 -273.9 377C-324.5 363.7 -382 341.1 -415 301.5C-448 262 -456.6 205.4 -468.9 152.3C-481.1 99.3 -497.1 49.6 -513 0L0 0Z" fill="#286dc5"></path><path d="M0 410.4C-36.2 379.9 -72.4 349.4 -108 332.5C-143.6 315.6 -178.6 312.3 -219.1 301.6C-259.6 290.9 -305.6 272.9 -332 241.2C-358.4 209.6 -365.3 164.3 -375.1 121.9C-384.9 79.4 -397.6 39.7 -410.4 0L0 0Z" fill="#0084ce"></path><path d="M0 307.8C-27.2 284.9 -54.3 262 -81 249.4C-107.7 236.7 -134 234.2 -164.3 226.2C-194.7 218.2 -229.2 204.7 -249 180.9C-268.8 157.2 -274 123.3 -281.3 91.4C-288.7 59.6 -298.2 29.8 -307.8 0L0 0Z" fill="#0099d3"></path><path d="M0 205.2C-18.1 189.9 -36.2 174.7 -54 166.2C-71.8 157.8 -89.3 156.1 -109.6 150.8C-129.8 145.5 -152.8 136.4 -166 120.6C-179.2 104.8 -182.6 82.2 -187.5 60.9C-192.4 39.7 -198.8 19.9 -205.2 0L0 0Z" fill="#34add4"></path><path d="M0 102.6C-9.1 95 -18.1 87.3 -27 83.1C-35.9 78.9 -44.7 78.1 -54.8 75.4C-64.9 72.7 -76.4 68.2 -83 60.3C-89.6 52.4 -91.3 41.1 -93.8 30.5C-96.2 19.9 -99.4 9.9 -102.6 0L0 0Z" fill="#4ab6d4"></path></g><g transform="translate(0, 540)"><path d="M0 -513C49.9 -494.6 99.8 -476.2 148 -455.6C196.3 -434.9 242.9 -412.1 274.5 -377.8C306.1 -343.6 322.6 -297.9 360.8 -262.2C399 -226.4 458.9 -200.6 487.9 -158.5C516.9 -116.5 514.9 -58.2 513 0L0 0Z" fill="#286dc5"></path><path d="M0 -410.4C39.9 -395.7 79.8 -381 118.4 -364.4C157 -347.9 194.3 -329.7 219.6 -302.2C244.9 -274.8 258.1 -238.3 288.7 -209.7C319.2 -181.1 367.1 -160.5 390.3 -126.8C413.5 -93.2 411.9 -46.6 410.4 0L0 0Z" fill="#0084ce"></path><path d="M0 -307.8C29.9 -296.8 59.9 -285.7 88.8 -273.3C117.8 -261 145.7 -247.2 164.7 -226.7C183.6 -206.1 193.6 -178.7 216.5 -157.3C239.4 -135.8 275.3 -120.3 292.7 -95.1C310.1 -69.9 309 -34.9 307.8 0L0 0Z" fill="#0099d3"></path><path d="M0 -205.2C20 -197.8 39.9 -190.5 59.2 -182.2C78.5 -174 97.2 -164.8 109.8 -151.1C122.4 -137.4 129 -119.2 144.3 -104.9C159.6 -90.6 183.6 -80.2 195.2 -63.4C206.7 -46.6 206 -23.3 205.2 0L0 0Z" fill="#34add4"></path><path d="M0 -102.6C10 -98.9 20 -95.2 29.6 -91.1C39.3 -87 48.6 -82.4 54.9 -75.6C61.2 -68.7 64.5 -59.6 72.2 -52.4C79.8 -45.3 91.8 -40.1 97.6 -31.7C103.4 -23.3 103 -11.6 102.6 0L0 0Z" fill="#4ab6d4"></path></g></svg>