<svg width="1440" height="496" viewBox="0 0 1440 496" fill="none" xmlns="http://www.w3.org/2000/svg">
<rect width="1440" height="496" fill="#742384"/>
<g clip-path="url(#clip0_10984_2835)">
<mask id="mask0_10984_2835" style="mask-type:luminance" maskUnits="userSpaceOnUse" x="760" y="73" width="482" height="356">
<path d="M1241.81 209.312C1241.81 318.68 1163.69 428.378 1001 428.378C867.989 428.378 760.192 339.76 760.192 230.309C760.192 169.384 785.24 95.2317 849.555 76.8797C913.952 58.5277 920.069 119.536 989.179 119.536C1058.29 119.536 1100.45 80.269 1169.81 97.2984C1222.22 110.112 1241.81 156.818 1241.81 209.312Z" fill="white"/>
</mask>
<g mask="url(#mask0_10984_2835)">
<path d="M1392.1 -92.2563H719.603V454.749H1392.1V-92.2563Z" fill="url(#paint0_linear_10984_2835)"/>
<path opacity="0.3" d="M1406.81 454.749V301.733C1406.81 301.485 1406.65 301.237 1406.31 301.237H1400.69C1400.45 301.237 1400.2 301.072 1400.2 300.741V293.632C1400.2 293.384 1400.03 293.136 1399.7 293.136H1398.13C1397.88 293.136 1397.63 292.97 1397.63 292.64V286.192C1397.63 285.944 1397.47 285.696 1397.14 285.696H1383.25C1383 285.696 1382.75 285.861 1382.75 286.192V292.64C1382.75 292.888 1382.59 293.136 1382.26 293.136H1380.69C1380.44 293.136 1380.19 292.97 1380.19 292.64V277.76C1380.19 277.512 1379.94 277.264 1379.7 277.264H1371.35C1371.1 277.264 1370.85 277.098 1370.85 276.768V275.114C1370.85 274.866 1370.69 274.618 1370.35 274.618H1361.76C1361.59 274.618 1361.51 274.701 1361.43 274.784L1359.28 277.098C1359.19 277.181 1359.03 277.264 1358.95 277.264H1353.08C1352.83 277.264 1352.58 277.429 1352.58 277.76V293.466C1352.58 293.714 1352.42 293.962 1352.09 293.962H1349.94C1349.69 293.962 1349.44 293.797 1349.44 293.466V269.41C1349.44 269.162 1349.27 268.914 1348.94 268.914H1346.63C1346.38 268.914 1346.13 268.749 1346.13 268.418V267.426C1346.13 267.178 1345.89 266.93 1345.64 266.93H1341.67C1341.42 266.93 1341.17 266.765 1341.17 266.434V265.608C1341.17 265.36 1341.01 265.112 1340.68 265.112H1337.29C1337.04 265.112 1336.79 265.277 1336.79 265.608V266.434C1336.79 266.682 1336.63 266.93 1336.3 266.93H1335.72C1335.47 266.93 1335.22 267.096 1335.22 267.426V268.418C1335.22 268.666 1335.06 268.914 1334.73 268.914H1324.56C1324.31 268.914 1324.06 269.08 1324.06 269.41V308.594C1324.06 308.842 1323.9 309.09 1323.57 309.09H1321.5C1321.25 309.09 1321 308.925 1321 308.594V299.418C1321 299.17 1321.25 298.922 1321.5 298.922H1321.58C1321.91 298.922 1322.16 298.592 1321.99 298.261L1321.5 297.186C1321.42 297.021 1321.25 296.938 1321.09 296.938H1307.36C1307.11 296.938 1306.87 296.773 1306.87 296.442V286.026C1306.87 285.778 1307.11 285.53 1307.36 285.53C1307.61 285.53 1307.86 285.365 1307.86 285.034V283.96C1307.86 283.712 1307.61 283.464 1307.36 283.464H1305.05C1304.8 283.464 1304.55 283.298 1304.55 282.968V281.893C1304.55 281.645 1304.39 281.397 1304.06 281.397H1290.75C1290.5 281.397 1290.25 281.562 1290.25 281.893V282.968C1290.25 283.216 1290.09 283.464 1289.75 283.464H1287.44C1287.19 283.464 1286.94 283.629 1286.94 283.96V285.034C1286.94 285.282 1287.11 285.53 1287.44 285.53C1287.69 285.53 1287.94 285.696 1287.94 286.026V300.741C1287.94 300.989 1287.77 301.237 1287.44 301.237H1284.22C1283.97 301.237 1283.72 301.072 1283.72 300.741V273.378C1283.72 273.13 1283.47 272.882 1283.22 272.882H1279.59C1279.42 272.882 1279.34 272.8 1279.26 272.717L1274.21 266.765C1274.05 266.517 1273.72 266.517 1273.47 266.765L1268.43 272.717C1268.34 272.8 1268.18 272.882 1268.1 272.882H1257.76C1257.51 272.882 1257.27 273.048 1257.27 273.378V286.853C1257.27 287.101 1257.02 287.349 1256.77 287.349H1249.33C1249.08 287.349 1248.83 287.514 1248.83 287.845V295.698C1248.83 295.946 1248.67 296.194 1248.34 296.194H1241.06C1240.82 296.194 1240.57 296.36 1240.57 296.69V305.618C1240.57 305.866 1240.32 306.114 1240.07 306.114H1237.76C1237.51 306.114 1237.26 305.949 1237.26 305.618V268.501C1237.26 268.253 1237.01 268.005 1236.77 268.005H1234.2C1234.04 268.005 1233.87 267.922 1233.79 267.757L1232.22 263.954C1232.14 263.789 1231.97 263.706 1231.81 263.706H1215.93C1215.77 263.706 1215.6 263.789 1215.52 263.954L1213.95 267.757C1213.87 267.922 1213.7 268.005 1213.54 268.005H1210.97C1210.73 268.005 1210.48 268.17 1210.48 268.501V293.466C1210.48 293.714 1210.23 293.962 1209.98 293.962H1207.91C1207.67 293.962 1207.42 293.797 1207.42 293.466V279.992C1207.42 279.826 1207.34 279.744 1207.25 279.661L1201.05 274.37C1200.97 274.288 1200.89 274.122 1200.89 274.04V271.146C1200.89 270.898 1200.72 270.65 1200.39 270.65H1192.62C1192.37 270.65 1192.13 270.485 1192.13 270.154V265.856C1192.13 265.69 1192.04 265.608 1191.96 265.525L1186.59 260.482C1186.5 260.4 1186.42 260.317 1186.26 260.317H1179.31C1179.06 260.317 1178.82 260.482 1178.82 260.813V305.453C1178.82 305.701 1178.57 305.949 1178.32 305.949H1176.42C1176.17 305.949 1175.92 305.784 1175.92 305.453V299.336C1175.92 299.088 1175.76 298.84 1175.43 298.84H1170.88C1170.63 298.84 1170.38 298.674 1170.38 298.344V295.285C1170.38 295.12 1170.3 294.954 1170.14 294.872L1164.93 292.392C1164.76 292.309 1164.68 292.144 1164.68 291.978V278.917C1164.68 278.669 1164.51 278.421 1164.18 278.421H1159.22C1158.98 278.421 1158.73 278.256 1158.73 277.925V276.602C1158.73 276.437 1158.56 276.189 1158.4 276.189L1153.35 274.784H1153.27H1141.53C1141.29 274.784 1141.04 274.949 1141.04 275.28V278.008C1141.04 278.256 1140.87 278.504 1140.54 278.504H1135.58C1135.33 278.504 1135.09 278.669 1135.09 279V308.429C1135.09 308.677 1134.84 308.925 1134.59 308.925H1133.1C1132.85 308.925 1132.61 308.76 1132.61 308.429V297.021C1132.61 296.773 1132.44 296.525 1132.11 296.525H1127.4C1127.15 296.525 1126.9 296.69 1126.9 297.021V312.562C1126.9 312.81 1126.74 313.058 1126.41 313.058H1125C1124.75 313.058 1124.5 312.893 1124.5 312.562V272.634C1124.5 272.469 1124.42 272.304 1124.26 272.221L1118.63 269.41C1118.47 269.328 1118.39 269.162 1118.39 268.997L1118.3 264.781C1118.3 264.45 1117.97 264.202 1117.64 264.368L1103.09 272.138C1102.93 272.221 1102.85 272.386 1102.85 272.552V300.658C1102.85 300.906 1102.68 301.154 1102.35 301.154H1100.78C1100.53 301.154 1100.28 300.989 1100.28 300.658V280.405C1100.28 280.157 1100.03 279.909 1099.79 279.909H1094.17C1094 279.909 1093.92 279.826 1093.83 279.744L1091.77 277.512C1091.69 277.429 1091.6 277.346 1091.44 277.346H1083.17C1082.92 277.346 1082.67 277.512 1082.67 277.842V279.413C1082.67 279.661 1082.43 279.909 1082.18 279.909H1074.16C1073.91 279.909 1073.66 280.074 1073.66 280.405V294.789C1073.66 295.037 1073.5 295.285 1073.17 295.285H1071.68C1071.43 295.285 1071.18 295.12 1071.18 294.789V288.589C1071.18 288.341 1071.02 288.093 1070.69 288.093H1057.38C1057.13 288.093 1056.88 288.258 1056.88 288.589V294.789C1056.88 295.037 1056.72 295.285 1056.39 295.285H1054.9C1054.65 295.285 1054.4 295.45 1054.4 295.781V300.906C1054.4 301.072 1054.24 301.237 1054.07 301.237H1049.77C1049.53 301.237 1049.28 301.072 1049.28 300.741V293.632C1049.28 293.384 1049.11 293.136 1048.78 293.136H1047.29C1047.05 293.136 1046.8 292.97 1046.8 292.64V286.192C1046.8 285.944 1046.63 285.696 1046.3 285.696H1032.41C1032.17 285.696 1031.92 285.861 1031.92 286.192V292.64C1031.92 292.888 1031.75 293.136 1031.42 293.136H1029.85C1029.6 293.136 1029.35 292.97 1029.35 292.64V277.76C1029.35 277.512 1029.19 277.264 1028.86 277.264H1020.51C1020.26 277.264 1020.01 277.098 1020.01 276.768V275.114C1020.01 274.866 1019.85 274.618 1019.52 274.618H1010.92C1010.75 274.618 1010.67 274.701 1010.59 274.784L1008.44 277.098C1008.36 277.181 1008.27 277.264 1008.11 277.264H1002.24C1001.99 277.264 1001.74 277.429 1001.74 277.76V293.466C1001.74 293.714 1001.58 293.962 1001.25 293.962H999.099C998.851 293.962 998.603 293.797 998.603 293.466V269.41C998.603 269.162 998.437 268.914 998.107 268.914H995.792C995.544 268.914 995.296 268.749 995.296 268.418V267.426C995.296 267.178 995.131 266.93 994.8 266.93H990.832C990.584 266.93 990.336 266.765 990.336 266.434V265.608C990.336 265.36 990.171 265.112 989.84 265.112H986.947C986.699 265.112 986.451 265.277 986.451 265.608V266.434C986.451 266.682 986.285 266.93 985.955 266.93H985.376C985.128 266.93 984.88 267.096 984.88 267.426V268.418C984.88 268.666 984.715 268.914 984.384 268.914H974.216C973.968 268.914 973.72 269.08 973.72 269.41V308.594C973.72 308.842 973.555 309.09 973.224 309.09H971.157C970.909 309.09 970.661 308.925 970.661 308.594V299.418C970.661 299.17 970.827 298.922 971.157 298.922H971.24C971.571 298.922 971.819 298.592 971.653 298.261L971.157 297.186C971.075 297.021 970.909 296.938 970.744 296.938H957.021C956.773 296.938 956.525 296.773 956.525 296.442V286.026C956.525 285.778 956.691 285.53 957.021 285.53C957.269 285.53 957.517 285.365 957.517 285.034V283.96C957.517 283.712 957.352 283.464 957.021 283.464H954.707C954.459 283.464 954.211 283.298 954.211 282.968V281.893C954.211 281.645 954.045 281.397 953.715 281.397H940.405C940.157 281.397 939.909 281.562 939.909 281.893V282.968C939.909 283.216 939.744 283.464 939.413 283.464H937.099C936.851 283.464 936.603 283.629 936.603 283.96V285.034C936.603 285.282 936.768 285.53 937.099 285.53C937.347 285.53 937.595 285.696 937.595 286.026V300.741C937.595 300.989 937.429 301.237 937.099 301.237H933.875C933.627 301.237 933.379 301.072 933.379 300.741V273.378C933.379 273.13 933.213 272.882 932.883 272.882H929.907C929.741 272.882 929.659 272.8 929.576 272.717L924.533 266.765C924.368 266.517 924.037 266.517 923.789 266.765L918.747 272.717C918.664 272.8 918.499 272.882 918.416 272.882H908.083C907.835 272.882 907.587 273.048 907.587 273.378V286.853C907.587 287.101 907.421 287.349 907.091 287.349H899.651C899.403 287.349 899.155 287.514 899.155 287.845V295.698C899.155 295.946 898.989 296.194 898.659 296.194H891.384C891.136 296.194 890.888 296.36 890.888 296.69V305.618C890.888 305.866 890.723 306.114 890.392 306.114H888.077C887.829 306.114 887.581 305.949 887.581 305.618V268.501C887.581 268.253 887.416 268.005 887.085 268.005H884.523C884.357 268.005 884.192 267.922 884.109 267.757L882.539 263.954C882.456 263.789 882.291 263.706 882.125 263.706H864.683C864.517 263.706 864.352 263.789 864.269 263.954L862.699 267.757C862.616 267.922 862.451 268.005 862.285 268.005H859.723C859.475 268.005 859.227 268.17 859.227 268.501V293.466C859.227 293.714 859.061 293.962 858.731 293.962H856.664C856.416 293.962 856.168 293.797 856.168 293.466V279.992C856.168 279.826 856.085 279.744 856.003 279.661L849.803 274.37C849.72 274.288 849.637 274.122 849.637 274.04V271.146C849.637 270.898 849.472 270.65 849.141 270.65H841.371C841.123 270.65 840.875 270.485 840.875 270.154V265.856C840.875 265.69 840.792 265.608 840.709 265.525L835.336 260.482C835.253 260.4 835.171 260.317 835.005 260.317H828.061C827.813 260.317 827.565 260.482 827.565 260.813V305.453C827.565 305.701 827.4 305.949 827.069 305.949H825.747C825.499 305.949 825.251 305.784 825.251 305.453V299.336C825.251 299.088 825.085 298.84 824.755 298.84H820.208C819.96 298.84 819.712 298.674 819.712 298.344V295.285C819.712 295.12 819.629 294.954 819.464 294.872L814.256 292.392C814.091 292.309 814.008 292.144 814.008 291.978V278.917C814.008 278.669 813.843 278.421 813.512 278.421H808.552C808.304 278.421 808.056 278.256 808.056 277.925V276.602C808.056 276.437 807.891 276.189 807.725 276.189L802.683 274.784H802.6H790.861C790.613 274.784 790.365 274.949 790.365 275.28V278.008C790.365 278.256 790.2 278.504 789.869 278.504H784.909C784.661 278.504 784.413 278.669 784.413 279V308.429C784.413 308.677 784.248 308.925 783.917 308.925H782.429C782.181 308.925 781.933 308.76 781.933 308.429V297.021C781.933 296.773 781.768 296.525 781.437 296.525H776.725C776.477 296.525 776.229 296.69 776.229 297.021V312.562C776.229 312.81 776.064 313.058 775.733 313.058H773.832C773.584 313.058 773.336 312.893 773.336 312.562V272.634C773.336 272.469 773.253 272.304 773.088 272.221L767.467 269.41C767.301 269.328 767.219 269.162 767.219 268.997L767.136 264.781C767.136 264.45 766.805 264.202 766.475 264.368L751.925 272.138C751.76 272.221 751.677 272.386 751.677 272.552V300.658C751.677 300.906 751.512 301.154 751.181 301.154H749.611C749.363 301.154 749.115 300.989 749.115 300.658V280.405C749.115 280.157 748.949 279.909 748.619 279.909H742.997C742.832 279.909 742.749 279.826 742.667 279.744L740.6 277.512C740.517 277.429 740.435 277.346 740.269 277.346H732.003C731.755 277.346 731.507 277.512 731.507 277.842V279.413C731.507 279.661 731.341 279.909 731.011 279.909H722.992C722.744 279.909 722.496 280.074 722.496 280.405V294.789C722.496 295.037 722.331 295.285 722 295.285H720.512C720.264 295.285 720.016 295.12 720.016 294.789V288.589C720.016 288.341 719.851 288.093 719.52 288.093H706.211C705.963 288.093 705.715 288.258 705.715 288.589V294.789C705.715 295.037 705.549 295.285 705.219 295.285H703.731C703.483 295.285 703.235 295.45 703.235 295.781C703.235 301.65 703.235 313.141 703.235 327.442C703.235 370.016 703.235 437.389 703.235 454.749H1406.81Z" fill="#5E186C"/>
<path opacity="0.5" d="M1065.73 335.792V362.493C1065.73 362.658 1065.89 362.824 1066.06 362.824H1066.31C1066.47 362.824 1066.64 362.989 1066.72 363.072C1066.8 363.154 1066.89 363.237 1067.05 363.237H1067.46V362.08C1067.46 361.832 1067.63 361.666 1067.88 361.666H1069.7C1069.94 361.666 1070.11 361.501 1070.11 361.253V341.826C1070.11 341.578 1069.94 341.413 1069.7 341.413H1069.53C1069.28 341.413 1069.12 341.248 1069.12 341V339.594C1069.12 339.346 1069.28 339.181 1069.53 339.181H1072.26C1072.51 339.181 1072.67 339.016 1072.67 338.768V337.362C1072.67 337.114 1072.84 336.949 1073.09 336.949H1087.97C1088.21 336.949 1088.38 337.114 1088.38 337.362V338.768C1088.38 339.016 1088.54 339.181 1088.79 339.181H1091.52C1091.77 339.181 1091.93 339.346 1091.93 339.594V341C1091.93 341.248 1091.77 341.413 1091.52 341.413H1091.35C1091.11 341.413 1090.94 341.578 1090.94 341.826V353.482C1090.94 353.73 1091.11 353.896 1091.35 353.896H1106.73C1106.9 353.896 1107.06 353.978 1107.14 354.144L1107.81 355.549C1107.97 355.797 1107.72 356.128 1107.39 356.128H1107.14C1106.9 356.128 1106.73 356.293 1106.73 356.541V368.114C1106.73 368.362 1106.9 368.528 1107.14 368.528H1109.13C1109.38 368.528 1109.54 368.362 1109.54 368.114V322.482C1109.54 322.234 1109.71 322.069 1109.95 322.069H1117.39C1117.64 322.069 1117.81 321.904 1117.81 321.656V320.416C1117.81 320.168 1117.97 320.002 1118.22 320.002H1118.97C1119.21 320.002 1119.38 319.837 1119.38 319.589V318.597C1119.38 318.349 1119.54 318.184 1119.79 318.184H1123.68C1123.93 318.184 1124.09 318.349 1124.09 318.597V319.589C1124.09 319.837 1124.26 320.002 1124.5 320.002H1129.05C1129.3 320.002 1129.46 320.168 1129.46 320.416V321.656C1129.46 321.904 1129.63 322.069 1129.88 322.069H1132.61C1132.85 322.069 1133.02 322.234 1133.02 322.482V353.152C1133.02 353.4 1133.18 353.565 1133.43 353.565H1136.49C1136.74 353.565 1136.9 353.4 1136.9 353.152V316.944C1136.9 316.696 1136.74 316.53 1136.49 316.53H1136.16C1135.91 316.53 1135.75 316.365 1135.75 316.117V314.96C1135.75 314.712 1135.91 314.546 1136.16 314.546H1138.14C1138.39 314.546 1138.56 314.381 1138.56 314.133V314.05C1138.56 313.802 1138.72 313.637 1138.97 313.637H1140.21C1140.46 313.637 1140.62 313.472 1140.62 313.224V309.917C1140.62 309.752 1140.46 309.586 1140.29 309.586C1140.13 309.586 1139.96 309.421 1139.96 309.256V308.346C1139.96 308.098 1140.13 307.933 1140.38 307.933H1143.85C1144.1 307.933 1144.26 307.768 1144.26 307.52V307.437C1144.26 307.189 1144.43 307.024 1144.67 307.024C1144.92 307.024 1145.09 306.858 1145.09 306.61V306.445C1145.09 306.197 1145.25 306.032 1145.5 306.032H1149.8C1150.05 306.032 1150.21 306.197 1150.21 306.445V306.61C1150.21 306.858 1150.38 307.024 1150.63 307.024C1150.87 307.024 1151.04 307.189 1151.04 307.437V307.52C1151.04 307.768 1151.21 307.933 1151.45 307.933H1154.93C1155.17 307.933 1155.34 308.098 1155.34 308.346V309.256C1155.34 309.421 1155.17 309.586 1155.01 309.586C1154.84 309.586 1154.68 309.752 1154.68 309.917V313.224C1154.68 313.472 1154.84 313.637 1155.09 313.637H1156.33C1156.58 313.637 1156.74 313.802 1156.74 314.05V314.133C1156.74 314.381 1156.91 314.546 1157.16 314.546H1159.14C1159.39 314.546 1159.55 314.712 1159.55 314.96V316.117C1159.55 316.365 1159.39 316.53 1159.14 316.53H1158.81C1158.56 316.53 1158.4 316.696 1158.4 316.944V364.229C1158.4 364.477 1158.56 364.642 1158.81 364.642H1161.21C1161.46 364.642 1161.62 364.477 1161.62 364.229V334.304C1161.62 334.056 1161.79 333.89 1162.03 333.89H1164.6C1164.76 333.89 1164.93 333.808 1165.01 333.642L1166.5 330.253C1166.58 330.088 1166.75 330.005 1166.91 330.005H1183.86C1184.02 330.005 1184.19 330.088 1184.27 330.253L1185.76 333.642C1185.84 333.808 1186.01 333.89 1186.17 333.89H1188.74C1188.98 333.89 1189.15 334.056 1189.15 334.304V370.016C1189.15 370.264 1189.31 370.429 1189.56 370.429H1190.8C1191.05 370.429 1191.22 370.264 1191.22 370.016V360.261C1191.22 360.013 1191.38 359.848 1191.63 359.848H1192.7C1192.95 359.848 1193.12 359.682 1193.12 359.434V354.557C1193.12 354.309 1193.28 354.144 1193.53 354.144H1204.19C1204.44 354.144 1204.61 354.309 1204.61 354.557V359.434C1204.61 359.682 1204.77 359.848 1205.02 359.848H1206.1C1206.34 359.848 1206.51 359.682 1206.51 359.434V347.861C1206.51 347.613 1206.67 347.448 1206.92 347.448H1213.29C1213.54 347.448 1213.7 347.282 1213.7 347.034V345.877C1213.7 345.629 1213.87 345.464 1214.11 345.464H1220.73C1220.81 345.464 1220.98 345.546 1221.06 345.629L1222.71 347.365C1222.79 347.448 1222.88 347.53 1223.04 347.53H1227.51C1227.75 347.53 1227.92 347.696 1227.92 347.944V361.832C1227.92 362.08 1228.09 362.245 1228.33 362.245H1229.9C1230.15 362.245 1230.32 362.08 1230.32 361.832L1229.99 347.448C1229.99 347.2 1230.15 347.034 1230.4 347.034H1231.64C1231.89 347.034 1232.05 346.869 1232.05 346.621V344.72C1232.05 344.472 1232.22 344.306 1232.47 344.306H1233.05C1233.29 344.306 1233.46 344.141 1233.46 343.893V340.834C1233.46 340.752 1233.54 340.586 1233.62 340.504L1241.56 332.816C1241.73 332.65 1241.97 332.65 1242.14 332.816L1250.07 340.504C1250.16 340.586 1250.24 340.669 1250.24 340.834V343.893C1250.24 344.141 1250.41 344.306 1250.65 344.306H1251.23C1251.48 344.306 1251.65 344.472 1251.65 344.72V346.621C1251.65 346.869 1251.81 347.034 1252.06 347.034H1253.3C1253.55 347.034 1253.71 347.2 1253.71 347.448L1253.96 354.226C1253.96 354.474 1254.13 354.64 1254.37 354.64H1256.61C1256.85 354.64 1257.02 354.474 1257.02 354.226V336.205C1257.02 335.957 1256.85 335.792 1256.61 335.792H1256.52C1256.27 335.792 1256.11 335.626 1256.11 335.378V333.725C1256.11 333.477 1256.27 333.312 1256.52 333.312H1259.33C1259.58 333.312 1259.75 333.146 1259.75 332.898V331.824C1259.75 331.576 1259.91 331.41 1260.16 331.41H1270.66C1270.91 331.41 1271.07 331.576 1271.07 331.824V332.898C1271.07 333.146 1271.24 333.312 1271.49 333.312H1280.41C1280.66 333.312 1280.83 333.477 1280.83 333.725V335.378C1280.83 335.626 1280.66 335.792 1280.41 335.792H1281.24C1280.99 335.792 1280.83 335.957 1280.83 336.205V370.181C1280.83 370.429 1280.99 370.594 1281.24 370.594H1282.89C1283.14 370.594 1283.31 370.429 1283.31 370.181V360.922C1283.31 360.674 1283.14 360.509 1282.89 360.509C1282.56 360.509 1282.4 360.178 1282.48 359.93L1282.98 358.856C1283.06 358.69 1283.22 358.608 1283.39 358.608H1296.37C1296.62 358.608 1296.78 358.442 1296.78 358.194V348.357C1296.78 348.109 1296.62 347.944 1296.37 347.944C1296.12 347.944 1295.95 347.778 1295.95 347.53V346.456C1295.95 346.208 1296.12 346.042 1296.37 346.042H1298.52C1298.77 346.042 1298.93 345.877 1298.93 345.629V344.554C1298.93 344.306 1299.1 344.141 1299.34 344.141H1311.91C1312.16 344.141 1312.32 344.306 1312.32 344.554V345.629C1312.32 345.877 1312.49 346.042 1312.74 346.042H1314.89C1315.13 346.042 1315.3 346.208 1315.3 346.456V347.53C1315.3 347.778 1315.13 347.944 1314.89 347.944C1314.64 347.944 1314.47 348.109 1314.47 348.357V357.12C1314.47 357.368 1314.64 357.533 1314.89 357.533H1318.03C1318.27 357.533 1318.44 357.368 1318.44 357.12V332.568C1318.44 332.237 1318.77 332.072 1319.02 332.154L1341.5 339.429C1341.67 339.512 1341.83 339.677 1341.83 339.842V360.426C1341.83 360.674 1342 360.84 1342.25 360.84H1344.07C1344.31 360.84 1344.48 360.674 1344.48 360.426V352.904C1344.48 352.656 1344.65 352.49 1344.89 352.49H1350.76C1351.01 352.49 1351.18 352.656 1351.18 352.904V366.213C1351.18 366.461 1351.34 366.626 1351.59 366.626H1353.24C1353.49 366.626 1353.66 366.461 1353.66 366.213V332.154C1353.66 331.906 1353.82 331.741 1354.07 331.741H1360.02C1360.27 331.741 1360.43 331.576 1360.43 331.328V328.021C1360.43 327.773 1360.6 327.608 1360.85 327.608H1374.65L1380.61 329.261C1380.77 329.344 1380.94 329.509 1380.94 329.674V331.328C1380.94 331.576 1381.1 331.741 1381.35 331.741H1387.3C1387.55 331.741 1387.71 331.906 1387.71 332.154V347.365C1387.71 347.53 1387.8 347.696 1387.96 347.778L1394.08 350.672C1394.25 350.754 1394.33 350.92 1394.33 351.085V354.722C1394.33 354.97 1394.49 355.136 1394.74 355.136H1400.2C1400.45 355.136 1400.61 355.301 1400.61 355.549V361.997C1400.61 362.245 1400.78 362.41 1401.02 362.41H1403.17C1403.42 362.41 1403.59 362.245 1403.59 361.997V331.576C1403.59 331.328 1403.75 331.162 1404 331.162H1420.86C1421.11 331.162 1421.28 330.997 1421.28 330.749V326.864C1421.28 326.616 1421.44 326.45 1421.69 326.45H1430.78C1431.03 326.45 1431.2 326.616 1431.2 326.864V330.749C1431.2 330.997 1431.36 331.162 1431.61 331.162H1433.35C1433.59 331.162 1433.76 331.328 1433.76 331.576V369.024C1433.76 369.272 1433.93 369.437 1434.17 369.437H1436.49C1436.74 369.437 1436.9 369.272 1436.9 369.024V336.04C1436.9 335.792 1437.07 335.626 1437.31 335.626H1439.3C1439.55 335.626 1439.71 335.461 1439.71 335.213V334.469C1439.71 334.221 1439.88 334.056 1440.13 334.056H1443.51C1443.76 334.056 1443.93 333.89 1443.93 333.642V332.981C1443.93 332.733 1444.09 332.568 1444.34 332.568H1447.23C1447.48 332.568 1447.65 332.733 1447.65 332.981V333.642C1447.65 333.89 1447.81 334.056 1448.06 334.056H1448.47C1448.72 334.056 1448.89 334.221 1448.89 334.469V335.213C1448.89 335.461 1449.05 335.626 1449.3 335.626H1458.06C1458.31 335.626 1458.48 335.792 1458.48 336.04V363.072H1459.3C1459.3 363.32 1459.47 363.485 1459.72 363.485H1460.54C1460.79 363.485 1460.96 363.65 1460.96 363.898V399.362C1460.96 399.61 1460.79 432.429 1460.54 432.429H674.549C674.301 432.429 674.136 399.61 674.136 399.362V362.08C674.136 361.832 674.301 361.666 674.549 361.666H676.368C676.616 361.666 676.781 361.501 676.781 361.253V341.826C676.781 341.578 676.616 341.413 676.368 341.413H676.203C675.955 341.413 675.789 341.248 675.789 341V339.594C675.789 339.346 675.955 339.181 676.203 339.181H678.931C679.179 339.181 679.344 339.016 679.344 338.768V337.362C679.344 337.114 679.509 336.949 679.757 336.949H694.637C694.885 336.949 695.051 337.114 695.051 337.362V338.768C695.051 339.016 695.216 339.181 695.464 339.181H698.192C698.44 339.181 698.605 339.346 698.605 339.594V341C698.605 341.248 698.44 341.413 698.192 341.413H698.027C697.779 341.413 697.613 341.578 697.613 341.826V353.482C697.613 353.73 697.779 353.896 698.027 353.896H713.403C713.568 353.896 713.733 353.978 713.816 354.144L714.477 355.549C714.643 355.797 714.395 356.128 714.064 356.128H713.816C713.568 356.128 713.403 356.293 713.403 356.541V368.114C713.403 368.362 713.568 368.528 713.816 368.528H715.8C716.048 368.528 716.213 368.362 716.213 368.114V322.482C716.213 322.234 716.379 322.069 716.627 322.069H724.067C724.315 322.069 724.48 321.904 724.48 321.656V320.416C724.48 320.168 724.645 320.002 724.893 320.002H725.637C725.885 320.002 726.051 319.837 726.051 319.589V318.597C726.051 318.349 726.216 318.184 726.464 318.184H730.349C730.597 318.184 730.763 318.349 730.763 318.597V319.589C730.763 319.837 730.928 320.002 731.176 320.002H735.723C735.971 320.002 736.136 320.168 736.136 320.416V321.656C736.136 321.904 736.301 322.069 736.549 322.069H739.277C739.525 322.069 739.691 322.234 739.691 322.482V353.152C739.691 353.4 739.856 353.565 740.104 353.565H743.163C743.411 353.565 743.576 353.4 743.576 353.152V316.944C743.576 316.696 743.411 316.53 743.163 316.53H742.832C742.584 316.53 742.419 316.365 742.419 316.117V314.96C742.419 314.712 742.584 314.546 742.832 314.546H744.816C745.064 314.546 745.229 314.381 745.229 314.133V314.05C745.229 313.802 745.395 313.637 745.643 313.637H746.883C747.131 313.637 747.296 313.472 747.296 313.224V309.917C747.296 309.752 747.131 309.586 746.965 309.586C746.8 309.586 746.635 309.421 746.635 309.256V308.346C746.635 308.098 746.8 307.933 747.048 307.933H750.52C750.768 307.933 750.933 307.768 750.933 307.52V307.437C750.933 307.189 751.099 307.024 751.347 307.024C751.595 307.024 751.76 306.858 751.76 306.61V306.445C751.76 306.197 751.925 306.032 752.173 306.032H756.472C756.72 306.032 756.885 306.197 756.885 306.445V306.61C756.885 306.858 757.051 307.024 757.299 307.024C757.547 307.024 757.712 307.189 757.712 307.437V307.52C757.712 307.768 757.877 307.933 758.125 307.933H762.093C762.341 307.933 762.507 308.098 762.507 308.346V309.256C762.507 309.421 762.341 309.586 762.176 309.586C762.011 309.586 761.845 309.752 761.845 309.917V313.224C761.845 313.472 762.011 313.637 762.259 313.637H763.499C763.747 313.637 763.912 313.802 763.912 314.05V314.133C763.912 314.381 764.077 314.546 764.325 314.546H766.309C766.557 314.546 766.723 314.712 766.723 314.96V316.117C766.723 316.365 766.557 316.53 766.309 316.53H765.979C765.731 316.53 765.565 316.696 765.565 316.944V364.229C765.565 364.477 765.731 364.642 765.979 364.642H768.376C768.624 364.642 768.789 364.477 768.789 364.229V334.304C768.789 334.056 768.955 333.89 769.203 333.89H771.765C771.931 333.89 772.096 333.808 772.179 333.642L773.667 330.253C773.749 330.088 773.915 330.005 774.08 330.005H791.027C791.192 330.005 791.357 330.088 791.44 330.253L792.928 333.642C793.011 333.808 793.176 333.89 793.341 333.89H795.904C796.152 333.89 796.317 334.056 796.317 334.304V370.016C796.317 370.264 796.483 370.429 796.731 370.429H797.971C798.219 370.429 798.384 370.264 798.384 370.016V360.261C798.384 360.013 798.549 359.848 798.797 359.848H799.872C800.12 359.848 800.285 359.682 800.285 359.434V354.557C800.285 354.309 800.451 354.144 800.699 354.144H811.363C811.611 354.144 811.776 354.309 811.776 354.557V359.434C811.776 359.682 811.941 359.848 812.189 359.848H813.347C813.595 359.848 813.76 359.682 813.76 359.434V347.861C813.76 347.613 813.925 347.448 814.173 347.448H820.539C820.787 347.448 820.952 347.282 820.952 347.034V345.877C820.952 345.629 821.117 345.464 821.365 345.464H827.979C828.061 345.464 828.227 345.546 828.309 345.629L829.963 347.365C830.045 347.448 830.128 347.53 830.293 347.53H834.757C835.005 347.53 835.171 347.696 835.171 347.944V361.832C835.171 362.08 835.336 362.245 835.584 362.245H837.155C837.403 362.245 837.568 362.08 837.568 361.832L837.237 347.448C837.237 347.2 837.403 347.034 837.651 347.034H838.891C839.139 347.034 839.304 346.869 839.304 346.621V344.72C839.304 344.472 839.469 344.306 839.717 344.306H840.296C840.544 344.306 840.709 344.141 840.709 343.893V340.834C840.709 340.752 840.792 340.586 840.875 340.504L848.811 332.816C848.976 332.65 849.224 332.65 849.389 332.816L857.325 340.504C857.408 340.586 857.491 340.669 857.491 340.834V343.893C857.491 344.141 857.656 344.306 857.904 344.306H858.483C858.731 344.306 858.896 344.472 858.896 344.72V346.621C858.896 346.869 859.061 347.034 859.309 347.034H860.549C860.797 347.034 860.963 347.2 860.963 347.448L861.211 354.226C861.211 354.474 861.376 354.64 861.624 354.64H863.856C864.104 354.64 864.269 354.474 864.269 354.226V336.205C864.269 335.957 864.104 335.792 863.856 335.792H863.773C863.525 335.792 863.36 335.626 863.36 335.378V333.725C863.36 333.477 863.525 333.312 863.773 333.312H866.584C866.832 333.312 866.997 333.146 866.997 332.898V331.824C866.997 331.576 867.163 331.41 867.411 331.41H877.909C878.157 331.41 878.323 331.576 878.323 331.824V332.898C878.323 333.146 878.488 333.312 878.736 333.312H887.664C887.912 333.312 888.077 333.477 888.077 333.725V335.378C888.077 335.626 887.912 335.792 887.664 335.792H887.581C887.333 335.792 887.168 335.957 887.168 336.205V370.181C887.168 370.429 887.333 370.594 887.581 370.594H889.235C889.483 370.594 889.648 370.429 889.648 370.181V360.922C889.648 360.674 889.483 360.509 889.235 360.509H889.152C888.821 360.509 888.656 360.178 888.739 359.93L889.235 358.856C889.317 358.69 889.483 358.608 889.648 358.608H902.627C902.875 358.608 903.04 358.442 903.04 358.194V348.357C903.04 348.109 902.875 347.944 902.627 347.944C902.379 347.944 902.213 347.778 902.213 347.53V346.456C902.213 346.208 902.379 346.042 902.627 346.042H904.776C905.024 346.042 905.189 345.877 905.189 345.629V344.554C905.189 344.306 905.355 344.141 905.603 344.141H918.168C918.416 344.141 918.581 344.306 918.581 344.554V345.629C918.581 345.877 918.747 346.042 918.995 346.042H921.144C921.392 346.042 921.557 346.208 921.557 346.456V347.53C921.557 347.778 921.392 347.944 921.144 347.944C920.896 347.944 920.731 348.109 920.731 348.357V357.12C920.731 357.368 920.896 357.533 921.144 357.533H924.285C924.533 357.533 924.699 357.368 924.699 357.12V332.568C924.699 332.237 925.029 332.072 925.277 332.154L947.763 339.429C947.928 339.512 948.093 339.677 948.093 339.842V360.426C948.093 360.674 948.259 360.84 948.507 360.84H950.325C950.573 360.84 950.739 360.674 950.739 360.426V352.904C950.739 352.656 950.904 352.49 951.152 352.49H957.021C957.269 352.49 957.435 352.656 957.435 352.904V366.213C957.435 366.461 957.6 366.626 957.848 366.626H959.501C959.749 366.626 959.915 366.461 959.915 366.213V332.154C959.915 331.906 960.08 331.741 960.328 331.741H966.28C966.528 331.741 966.693 331.576 966.693 331.328V328.021C966.693 327.773 966.859 327.608 967.107 327.608H980.912L986.864 329.261C987.029 329.344 987.195 329.509 987.195 329.674V331.328C987.195 331.576 987.36 331.741 987.608 331.741H993.56C993.808 331.741 993.973 331.906 993.973 332.154V347.365C993.973 347.53 994.056 347.696 994.221 347.778L1000.34 350.672C1000.5 350.754 1000.59 350.92 1000.59 351.085V354.722C1000.59 354.97 1000.75 355.136 1001 355.136H1006.46C1006.7 355.136 1006.87 355.301 1006.87 355.549V361.997C1006.87 362.245 1007.03 362.41 1007.28 362.41H1009.43C1009.68 362.41 1009.85 362.245 1009.85 361.997V331.576C1009.85 331.328 1010.01 331.162 1010.26 331.162H1027.12C1027.37 331.162 1027.54 330.997 1027.54 330.749V326.864C1027.54 326.616 1027.7 326.45 1027.95 326.45H1037.04C1037.29 326.45 1037.46 326.616 1037.46 326.864V330.749C1037.46 330.997 1037.62 331.162 1037.87 331.162H1039.61C1039.85 331.162 1040.02 331.328 1040.02 331.576V369.024C1040.02 369.272 1040.18 369.437 1040.43 369.437H1042.75C1042.99 369.437 1043.16 369.272 1043.16 369.024V336.04C1043.16 335.792 1043.33 335.626 1043.57 335.626H1045.56C1045.81 335.626 1045.97 335.461 1045.97 335.213V334.469C1045.97 334.221 1046.14 334.056 1046.38 334.056H1049.77C1050.02 334.056 1050.19 333.89 1050.19 333.642V332.981C1050.19 332.733 1050.35 332.568 1050.6 332.568H1053.49C1053.74 332.568 1053.91 332.733 1053.91 332.981V333.642C1053.91 333.89 1054.07 334.056 1054.32 334.056H1054.73C1054.98 334.056 1055.15 334.221 1055.15 334.469V335.213C1055.15 335.461 1055.31 335.626 1055.56 335.626H1064.32C1065.48 335.378 1065.73 335.544 1065.73 335.792Z" fill="#5E186C"/>
</g>
<mask id="mask1_10984_2835" style="mask-type:luminance" maskUnits="userSpaceOnUse" x="809" y="67" width="43" height="43">
<path d="M851.373 67.6211H809.875V109.12H851.373V67.6211Z" fill="white"/>
</mask>
<g mask="url(#mask1_10984_2835)">
<path fill-rule="evenodd" clip-rule="evenodd" d="M836.576 78.0369C837.403 80.0209 839.056 81.5916 841.04 82.5009C843.603 83.5756 847.24 85.1463 850.133 86.3863C851.869 87.1303 851.869 89.6929 850.133 90.4369L841.04 94.3223C839.056 95.1489 837.485 96.8023 836.576 98.7863C835.501 101.349 833.931 104.986 832.691 107.88C831.947 109.616 829.384 109.616 828.64 107.88C827.4 104.986 825.829 101.349 824.755 98.7863C823.928 96.8023 822.275 95.2316 820.291 94.3223C817.728 93.2476 814.091 91.6769 811.197 90.4369C809.461 89.6929 809.461 87.1303 811.197 86.3863C814.091 85.1463 817.728 83.5756 820.291 82.5009C822.275 81.6743 823.845 80.0209 824.755 78.0369C825.829 75.4743 827.4 71.8369 828.64 68.9436C829.384 67.2076 831.947 67.2076 832.691 68.9436C833.931 71.8369 835.419 75.4743 836.576 78.0369Z" fill="#10CBB4"/>
</g>
<mask id="mask2_10984_2835" style="mask-type:luminance" maskUnits="userSpaceOnUse" x="1174" y="82" width="42" height="42">
<path d="M1215.93 82.2529H1174.43V123.752H1215.93V82.2529Z" fill="white"/>
</mask>
<g mask="url(#mask2_10984_2835)">
<path fill-rule="evenodd" clip-rule="evenodd" d="M1201.14 92.6688C1201.96 94.6528 1203.62 96.2234 1205.6 97.1328C1208.16 98.2074 1211.8 99.7781 1214.69 101.018C1216.43 101.762 1216.43 104.325 1214.69 105.069L1205.6 108.954C1203.62 109.781 1202.05 111.434 1201.14 113.418C1200.06 115.981 1198.49 119.618 1197.25 122.511C1196.51 124.247 1193.94 124.247 1193.2 122.511C1191.96 119.618 1190.39 115.981 1189.31 113.418C1188.49 111.434 1186.83 109.863 1184.85 108.954C1182.29 107.879 1178.65 106.309 1175.76 105.069C1174.02 104.325 1174.02 101.762 1175.76 101.018C1178.65 99.7781 1182.29 98.2074 1184.85 97.1328C1186.83 96.3061 1188.41 94.6528 1189.31 92.6688C1190.39 90.1061 1191.96 86.4688 1193.2 83.5754C1193.94 81.8394 1196.51 81.8394 1197.25 83.5754C1198.49 86.4688 1200.06 90.1061 1201.14 92.6688Z" fill="#10CBB4"/>
</g>
<mask id="mask3_10984_2835" style="mask-type:luminance" maskUnits="userSpaceOnUse" x="1079" y="132" width="23" height="23">
<path d="M1101.27 132.597H1079.62V154.256H1101.27V132.597Z" fill="white"/>
</mask>
<g mask="url(#mask3_10984_2835)">
<path fill-rule="evenodd" clip-rule="evenodd" d="M1093.5 138.053C1093.92 139.128 1094.74 139.955 1095.82 140.368C1097.14 140.947 1099.04 141.773 1100.53 142.435C1101.44 142.848 1101.44 144.171 1100.53 144.501L1095.82 146.568C1094.74 146.981 1093.92 147.808 1093.5 148.883C1092.93 150.205 1092.1 152.107 1091.52 153.595C1091.11 154.504 1089.78 154.504 1089.45 153.595C1088.79 152.107 1087.97 150.205 1087.39 148.883C1086.97 147.808 1086.15 146.981 1085.07 146.568C1083.75 145.989 1081.85 145.163 1080.36 144.501C1079.45 144.088 1079.45 142.765 1080.36 142.435C1081.85 141.773 1083.75 140.947 1085.07 140.368C1086.15 139.955 1086.97 139.128 1087.39 138.053C1087.97 136.731 1088.79 134.829 1089.45 133.341C1089.87 132.432 1091.19 132.432 1091.52 133.341C1092.1 134.829 1092.93 136.731 1093.5 138.053Z" fill="#10CBB4"/>
</g>
<mask id="mask4_10984_2835" style="mask-type:luminance" maskUnits="userSpaceOnUse" x="1209" y="158" width="18" height="18">
<path d="M1226.76 158.141H1209.9V175.005H1226.76V158.141Z" fill="white"/>
</mask>
<g mask="url(#mask4_10984_2835)">
<path fill-rule="evenodd" clip-rule="evenodd" d="M1220.65 162.44C1220.98 163.266 1221.64 163.928 1222.46 164.258C1223.54 164.672 1224.94 165.333 1226.18 165.829C1226.93 166.16 1226.93 167.152 1226.18 167.482L1222.46 169.053C1221.64 169.384 1220.98 170.045 1220.65 170.872C1220.23 171.946 1219.57 173.352 1219.07 174.592C1218.74 175.336 1217.75 175.336 1217.42 174.592C1216.93 173.434 1216.26 171.946 1215.85 170.872C1215.52 170.045 1214.86 169.384 1214.03 169.053C1212.96 168.64 1211.55 167.978 1210.31 167.482C1209.57 167.152 1209.57 166.16 1210.31 165.829C1211.47 165.333 1212.96 164.672 1214.03 164.258C1214.86 163.928 1215.52 163.266 1215.85 162.44C1216.26 161.365 1216.93 159.96 1217.42 158.72C1217.75 157.976 1218.74 157.976 1219.07 158.72C1219.57 159.877 1220.23 161.365 1220.65 162.44Z" fill="#10CBB4"/>
</g>
<mask id="mask5_10984_2835" style="mask-type:luminance" maskUnits="userSpaceOnUse" x="773" y="171" width="23" height="22">
<path d="M795.408 171.12H773.749V192.778H795.408V171.12Z" fill="white"/>
</mask>
<g mask="url(#mask5_10984_2835)">
<path fill-rule="evenodd" clip-rule="evenodd" d="M787.637 176.576C788.051 177.65 788.877 178.477 789.952 178.89C791.275 179.469 793.176 180.296 794.664 180.957C795.573 181.37 795.573 182.693 794.664 183.024L789.952 185.09C788.877 185.504 788.051 186.33 787.637 187.405C787.059 188.728 786.232 190.629 785.571 192.117C785.157 193.026 783.835 193.026 783.504 192.117C782.843 190.629 782.016 188.728 781.437 187.405C781.024 186.33 780.197 185.504 779.123 185.09C777.8 184.512 775.899 183.685 774.411 183.024C773.501 182.61 773.501 181.288 774.411 180.957C775.899 180.296 777.8 179.469 779.123 178.89C780.197 178.477 781.024 177.65 781.437 176.576C782.016 175.253 782.843 173.352 783.504 171.864C783.917 170.954 785.24 170.954 785.571 171.864C786.315 173.352 787.141 175.253 787.637 176.576Z" fill="#10CBB4"/>
</g>
<mask id="mask6_10984_2835" style="mask-type:luminance" maskUnits="userSpaceOnUse" x="760" y="73" width="482" height="356">
<path d="M1241.81 209.312C1241.81 318.68 1163.69 428.378 1001 428.378C867.989 428.378 760.192 339.76 760.192 230.309C760.192 169.384 785.24 95.2317 849.555 76.8797C913.952 58.5277 920.069 119.536 989.179 119.536C1058.29 119.536 1100.45 80.269 1169.81 97.2984C1222.22 110.112 1241.81 156.818 1241.81 209.312Z" fill="white"/>
</mask>
<g mask="url(#mask6_10984_2835)">
<mask id="mask7_10984_2835" style="mask-type:luminance" maskUnits="userSpaceOnUse" x="981" y="107" width="299" height="532">
<path d="M1279.83 107.632H981.325V638.352H1279.83V107.632Z" fill="white"/>
</mask>
<g mask="url(#mask7_10984_2835)">
<path d="M1072.26 310.744C1063.17 310.744 1050.19 307.685 1039.61 292.888C1032.41 282.802 1027.45 268.914 1024.56 250.48C1023.24 242.213 1028.94 234.442 1037.21 233.202C1045.47 231.88 1053.25 237.584 1054.57 245.85C1057.87 267.178 1064.65 280.405 1072.18 280.405C1081.6 280.405 1091.19 263.872 1091.19 232.293C1091.19 223.944 1097.97 217.165 1106.4 217.165C1114.83 217.165 1121.61 223.944 1121.61 232.293C1121.61 255.688 1117.39 274.453 1108.96 288.176C1100.12 302.808 1087.06 310.744 1072.26 310.744Z" fill="#FCDABA"/>
<path d="M1168.4 372.083C1192.21 372.083 1211.47 352.821 1211.47 329.013C1211.47 305.205 1192.21 285.944 1168.4 285.944C1144.59 285.944 1125.33 305.205 1125.33 329.013C1125.33 352.821 1144.59 372.083 1168.4 372.083Z" fill="#002649"/>
<path d="M1199.23 415.979C1213.95 415.979 1225.85 404.075 1225.85 389.36C1225.85 374.645 1213.95 362.741 1199.23 362.741C1184.52 362.741 1172.62 374.645 1172.62 389.36C1172.53 403.992 1184.52 415.979 1199.23 415.979Z" fill="#002649"/>
<path d="M1137.73 415.979C1152.45 415.979 1164.35 404.075 1164.35 389.36C1164.35 374.645 1152.45 362.741 1137.73 362.741C1123.02 362.741 1111.11 374.645 1111.11 389.36C1111.11 403.992 1123.02 415.979 1137.73 415.979Z" fill="#002649"/>
<path d="M1172.53 389.442L1225.85 389.277C1227.26 357.285 1217.26 336.784 1211.47 329.096C1182.37 329.757 1153.27 330.418 1124.17 331.08C1120.12 348.192 1116.15 365.304 1112.1 382.416C1129.55 384.813 1146.99 387.128 1164.43 389.525L1172.53 389.442Z" fill="#002649"/>
<path d="M1172.53 389.442H1225.85L1224.61 489.469H1173.77L1172.53 389.442Z" fill="#002649"/>
<path d="M1163.36 396.552L1112.02 382.333L1086.56 479.053L1135.58 492.61L1163.36 396.552Z" fill="#002649"/>
<path d="M1182.45 203.112C1183.11 198.069 1182.87 166.16 1181.3 157.066C1163.44 158.885 1145.09 160.952 1127.23 162.605C1128.47 174.178 1128.06 182.776 1122.69 188.562C1116.15 195.672 1110.86 203.442 1106.98 211.957C1102.1 222.704 1102.35 232.872 1107.31 243.04C1118.47 265.856 1149.47 263.789 1165.59 245.685C1179.97 229.565 1179.89 222.869 1182.45 203.112Z" fill="#2C2044"/>
<path d="M1039.85 263.128C1048.2 263.128 1054.98 256.349 1054.98 248C1054.98 239.65 1048.2 232.872 1039.85 232.872C1031.5 232.872 1024.73 239.65 1024.73 248C1024.73 256.349 1031.5 263.128 1039.85 263.128Z" fill="#FCDABA"/>
<path d="M1043.24 227.912L1050.68 237.336L1029.19 258.664L1013.73 258.581L1013.9 227.747L1043.24 227.912Z" fill="#FCDABA"/>
<path d="M1054.98 248.083C1055.06 245.603 1054.9 241.883 1053.99 237.419C1052.75 231.549 1051.01 228.987 1049.61 224.275C1048.78 221.299 1047.95 217.248 1048.04 211.875C1048.12 209.643 1046.3 207.741 1044.07 207.741C1042 207.741 1040.27 209.312 1040.02 211.296C1039.69 215.181 1039.69 219.149 1040.1 223.2C1038.78 224.44 1036.05 227.499 1035.14 232.128C1033.4 240.643 1039.11 247.173 1039.77 247.917L1054.98 248.083Z" fill="#FCDABA"/>
<path d="M1043.66 251.306C1042.5 249.736 1038.86 244.693 1038.78 237.336C1038.7 230.309 1042 225.349 1043.16 223.696C1042.58 223.282 1041.59 222.373 1040.85 220.968C1040.1 219.48 1039.94 218.157 1039.94 217.413C1039.94 218.57 1040.02 219.728 1040.1 220.968C1040.18 221.712 1040.18 222.456 1040.27 223.117C1034.98 225.928 1031.75 231.384 1032 237.17C1032.25 243.866 1036.96 249.653 1043.66 251.306Z" fill="#DCAC82"/>
<mask id="mask8_10984_2835" style="mask-type:luminance" maskUnits="userSpaceOnUse" x="1009" y="193" width="32" height="67">
<path d="M1009.82 193.731L1009.19 259.286L1039.78 259.577L1040.4 194.023L1009.82 193.731Z" fill="white"/>
</mask>
<g mask="url(#mask8_10984_2835)">
<path d="M1039.77 257.176L1040.35 198.317C1040.35 196.995 1039.27 195.92 1037.95 195.92L1012.08 195.672C1010.75 195.672 1009.68 196.747 1009.68 198.069L1009.1 256.928C1009.1 258.251 1010.18 259.325 1011.5 259.325L1037.37 259.573C1038.7 259.573 1039.77 258.499 1039.77 257.176Z" fill="#403556"/>
<path d="M1039.85 255.357L1040.43 196.498C1040.43 195.176 1039.36 194.101 1038.03 194.101L1012.16 193.853C1010.84 193.853 1009.76 194.928 1009.76 196.25L1009.18 255.109C1009.18 256.432 1010.26 257.506 1011.58 257.506L1037.46 257.754C1038.7 257.754 1039.77 256.68 1039.85 255.357Z" fill="#2C2044"/>
<path d="M1038.37 252.712L1038.86 199.061C1038.86 198.4 1038.37 197.904 1037.7 197.821L1012.41 197.573C1011.75 197.573 1011.25 198.069 1011.25 198.731L1010.75 252.381C1010.75 253.043 1011.25 253.539 1011.91 253.621L1037.21 253.869C1037.79 253.869 1038.37 253.373 1038.37 252.712Z" fill="#742384"/>
<path d="M1022 196.499L1028.2 196.581C1028.53 196.581 1028.86 196.333 1028.86 195.92V195.837C1028.86 195.507 1028.61 195.176 1028.2 195.176L1022 195.093C1021.67 195.093 1021.34 195.341 1021.34 195.755V195.837C1021.34 196.168 1021.58 196.499 1022 196.499Z" fill="#544A69"/>
<path d="M1031.83 229.896C1030.18 229.896 1028.28 230.144 1026.54 230.309C1026.71 229.565 1026.96 228.904 1026.96 228.904C1026.96 228.904 1027.12 229.317 1027.7 229.317C1028.53 229.234 1029.44 228.408 1029.93 227.002C1030.43 225.432 1030.35 223.613 1029.35 223.53C1028.53 223.448 1028.11 224.192 1028.11 224.274C1028.11 224.274 1028.28 223.613 1027.78 223.696C1027.29 223.778 1027.21 224.026 1027.04 224.44C1027.04 224.522 1026.63 226.176 1026.13 227.829C1026.05 228.242 1025.8 228.325 1025.63 228.325C1025.14 228.325 1026.21 224.936 1026.3 224.605C1026.38 224.274 1026.46 224.026 1026.13 223.861C1025.88 223.778 1025.55 223.778 1025.47 224.109C1025.39 224.192 1025.39 224.274 1025.39 224.274C1025.39 224.274 1025.14 223.861 1024.48 223.861C1023.82 223.944 1023.07 224.688 1022.58 226.093C1022.08 227.498 1021.83 229.482 1023.07 229.648C1023.73 229.73 1024.23 229.4 1024.48 228.738C1024.48 228.738 1024.39 229.152 1024.81 229.317C1024.97 229.4 1025.39 229.4 1025.72 229.152C1025.63 229.565 1025.55 229.896 1025.47 230.226C1022.82 230.64 1020.67 231.053 1020.67 231.053C1020.67 231.053 1022.16 225.845 1022.49 224.77C1022.74 223.778 1022.25 224.026 1021.83 224.109C1021.42 224.192 1021.25 224.605 1021.01 225.266C1020.1 228.16 1019.43 228.986 1018.86 228.821C1018.36 228.656 1019.85 225.597 1019.52 225.184C1019.19 224.853 1018.61 224.853 1018.44 225.101C1018.36 225.266 1018.53 225.514 1018.44 225.762C1018.36 226.093 1017.78 227.581 1017.7 227.994C1017.62 228.325 1017.12 230.309 1018.44 230.226C1019.27 230.144 1019.77 229.565 1019.85 229.4C1019.6 230.144 1019.27 231.384 1019.27 231.384C1019.27 231.384 1017.62 231.797 1016.29 233.202C1015.22 234.36 1014.47 236.757 1016.05 237.17C1018.44 237.749 1019.6 233.946 1020.18 232.458C1022.16 232.045 1023.65 231.714 1025.06 231.466C1025.06 231.549 1025.06 231.632 1025.06 231.632C1024.89 232.21 1024.97 232.458 1025.39 232.376C1025.88 232.293 1025.97 232.045 1026.13 231.384C1026.13 231.301 1026.13 231.301 1026.13 231.218C1027.78 230.97 1029.35 230.805 1031.59 230.64C1032.25 230.557 1032.25 230.474 1032.33 230.061C1032.58 229.896 1032 229.896 1031.83 229.896ZM1027.62 226.589C1027.95 225.432 1028.28 225.018 1028.53 224.853C1029.19 224.522 1029.35 225.432 1028.78 226.754C1028.2 228.325 1027.45 228.325 1027.21 227.994C1027.21 228.077 1027.29 227.746 1027.62 226.589ZM1024.56 227.25C1024.23 227.994 1023.98 228.49 1023.65 228.49C1023.07 228.49 1023.15 227.664 1023.49 226.589C1023.82 225.68 1024.39 225.101 1024.73 225.101C1025.06 225.018 1025.39 225.184 1024.56 227.25ZM1017.45 235.848C1016.13 237.005 1016.46 235.434 1016.95 234.69C1017.86 233.368 1019.02 233.037 1019.02 233.037C1018.36 234.69 1017.7 235.6 1017.45 235.848Z" fill="white"/>
<path d="M1033.57 225.597C1034.07 225.018 1034.31 223.778 1033.49 223.282C1032.5 222.704 1031.17 223.613 1030.68 225.432C1030.18 227.085 1030.02 229.069 1031.67 228.986C1032.5 228.986 1033.16 228.325 1033.41 227.912C1033.49 227.664 1033.57 227.333 1033.57 227.25C1033.49 226.837 1033.24 226.754 1032.83 227.333C1032.74 227.416 1031.92 228.242 1031.5 227.746C1031.17 227.416 1031.42 226.754 1031.5 226.754C1031.92 226.671 1032.83 226.424 1033.57 225.597ZM1032.41 224.192C1032.83 223.778 1033.24 224.274 1032.74 225.018C1032.25 225.762 1031.59 225.762 1031.59 225.762C1031.67 225.432 1031.92 224.605 1032.41 224.192Z" fill="white"/>
<path d="M1024.81 219.149C1024.73 219.066 1024.56 219.066 1024.39 219.066H1023.82V219.893H1024.39C1024.81 219.893 1024.97 219.728 1024.97 219.48C1024.97 219.314 1024.89 219.149 1024.81 219.149Z" fill="#10CBB4"/>
<path d="M1025.14 215.264C1023.4 215.346 1022 216.834 1021.91 218.57C1021.83 219.81 1022.33 220.885 1023.24 221.546C1023.32 221.629 1023.4 221.712 1023.4 221.877V222.704C1023.4 222.786 1023.4 222.786 1023.49 222.869C1023.57 222.869 1023.57 222.869 1023.65 222.869L1024.31 222.373C1024.39 222.29 1024.48 222.29 1024.64 222.29C1024.89 222.373 1025.14 222.373 1025.47 222.373C1027.37 222.373 1028.86 220.802 1028.86 218.818C1028.69 216.834 1027.12 215.181 1025.14 215.264ZM1025.39 219.893C1025.3 220.058 1025.22 220.141 1025.06 220.141C1024.97 220.141 1024.89 220.224 1024.81 220.224C1024.73 220.224 1024.56 220.224 1024.39 220.224H1023.57C1023.49 220.224 1023.4 220.224 1023.32 220.141C1023.24 220.058 1023.24 219.976 1023.24 219.893V217.744C1023.24 217.578 1023.24 217.496 1023.32 217.496C1023.4 217.413 1023.49 217.413 1023.57 217.413H1024.48C1024.64 217.413 1024.73 217.413 1024.81 217.413C1024.89 217.413 1024.97 217.496 1025.06 217.496C1025.14 217.496 1025.14 217.578 1025.22 217.661C1025.3 217.744 1025.3 217.826 1025.3 217.826C1025.3 217.909 1025.3 217.992 1025.3 218.074C1025.3 218.322 1025.14 218.57 1024.89 218.736C1025.22 218.818 1025.39 219.066 1025.39 219.397C1025.55 219.645 1025.47 219.81 1025.39 219.893ZM1027.37 219.976C1027.29 220.058 1027.21 220.141 1027.04 220.224C1026.87 220.306 1026.71 220.306 1026.54 220.306C1026.38 220.306 1026.21 220.306 1026.05 220.224C1025.88 220.141 1025.8 220.058 1025.8 219.976C1025.72 219.893 1025.72 219.81 1025.72 219.728C1025.72 219.645 1025.72 219.645 1025.8 219.562C1025.8 219.48 1025.88 219.48 1025.97 219.48C1026.05 219.48 1026.05 219.48 1026.05 219.48L1026.13 219.562C1026.21 219.645 1026.21 219.728 1026.3 219.81C1026.38 219.893 1026.46 219.893 1026.63 219.893C1026.71 219.893 1026.79 219.893 1026.87 219.81C1026.96 219.728 1026.96 219.728 1026.96 219.645C1026.96 219.562 1026.96 219.48 1026.87 219.48C1026.79 219.397 1026.71 219.397 1026.54 219.397C1026.38 219.314 1026.21 219.314 1026.13 219.232C1026.05 219.149 1025.97 219.149 1025.88 219.066C1025.8 218.984 1025.8 218.901 1025.8 218.736C1025.8 218.653 1025.8 218.57 1025.88 218.405C1025.97 218.322 1026.05 218.24 1026.13 218.157C1026.21 218.074 1026.38 218.074 1026.54 218.074C1026.71 218.074 1026.79 218.074 1026.87 218.157C1026.96 218.157 1027.04 218.24 1027.12 218.24C1027.21 218.322 1027.21 218.322 1027.29 218.405C1027.29 218.488 1027.37 218.488 1027.37 218.57C1027.37 218.653 1027.37 218.653 1027.29 218.736C1027.29 218.736 1027.21 218.818 1027.12 218.818C1027.04 218.818 1027.04 218.818 1026.96 218.736C1026.96 218.736 1026.87 218.653 1026.79 218.57C1026.79 218.488 1026.71 218.488 1026.63 218.488C1026.54 218.488 1026.54 218.405 1026.38 218.405C1026.3 218.405 1026.21 218.405 1026.13 218.488C1026.05 218.488 1026.05 218.57 1026.05 218.653C1026.05 218.736 1026.05 218.736 1026.13 218.818C1026.21 218.818 1026.21 218.901 1026.3 218.901C1026.38 218.901 1026.46 218.984 1026.63 218.984C1026.79 218.984 1026.87 219.066 1027.04 219.149C1027.12 219.232 1027.21 219.232 1027.29 219.314C1027.37 219.397 1027.37 219.48 1027.37 219.562C1027.45 219.81 1027.45 219.893 1027.37 219.976Z" fill="#10CBB4"/>
<path d="M1024.64 218.571C1024.73 218.571 1024.81 218.488 1024.81 218.405C1024.81 218.323 1024.89 218.323 1024.89 218.24C1024.89 218.075 1024.81 217.992 1024.73 217.992C1024.64 217.909 1024.48 217.909 1024.31 217.909H1023.9V218.653H1024.39C1024.48 218.571 1024.56 218.571 1024.64 218.571Z" fill="#10CBB4"/>
</g>
<path d="M1010.18 222.373C1012.16 223.117 1014.31 222.042 1014.97 220.141C1015.71 218.157 1014.64 216.008 1012.74 215.346L1009.27 214.106C1007.28 213.362 1005.13 214.437 1004.47 216.338C1003.73 218.322 1004.8 220.472 1006.7 221.133L1010.18 222.373Z" fill="#FCDABA"/>
<path d="M1010.67 232.707C1012.74 233.12 1014.72 231.715 1015.05 229.731C1015.47 227.664 1014.06 225.68 1012.08 225.349L1007.7 224.523C1005.63 224.109 1003.64 225.515 1003.31 227.499C1002.9 229.565 1004.31 231.549 1006.29 231.88L1010.67 232.707Z" fill="#FCDABA"/>
<path d="M1010.26 242.626C1012.33 242.792 1014.14 241.304 1014.39 239.237C1014.56 237.17 1013.07 235.352 1011 235.104L1006.7 234.69C1004.64 234.525 1002.82 236.013 1002.57 238.08C1002.41 240.146 1003.89 241.965 1005.96 242.213L1010.26 242.626Z" fill="#FCDABA"/>
<path d="M1010.92 252.877C1012.99 253.042 1014.81 251.554 1015.05 249.488C1015.3 247.421 1013.73 245.602 1011.66 245.354L1007.94 245.024C1005.88 244.858 1004.06 246.346 1003.81 248.413C1003.65 250.48 1005.13 252.298 1007.2 252.546L1010.92 252.877Z" fill="#FCDABA"/>
<path d="M1111.44 250.645L1219.41 240.229C1229.66 239.237 1237.18 230.144 1236.27 219.811C1235.28 209.56 1226.18 202.037 1215.85 202.947L1107.89 213.363C1097.64 214.355 1090.11 223.448 1091.02 233.781C1091.93 244.115 1101.19 251.637 1111.44 250.645Z" fill="#DE4A65"/>
<path d="M1144.1 202.864L1140.71 167.648L1172.7 164.589L1176.09 199.805C1178.49 199.723 1180.88 199.64 1183.2 199.64C1180.88 209.725 1172.37 217.496 1161.7 218.571C1151.04 219.563 1141.2 213.611 1137.07 204.104C1139.38 203.608 1141.78 203.277 1144.1 202.864Z" fill="#FCDABA"/>
<path d="M1082.51 257.176C1086.56 259.325 1092.76 262.053 1100.78 263.376C1107.81 264.533 1113.84 264.285 1118.14 263.706C1119.38 257.837 1120.37 251.224 1120.78 243.949C1120.95 240.725 1121.03 237.666 1121.03 234.69C1111.11 232.872 1101.19 231.053 1091.19 229.234C1088.38 238.493 1085.4 247.834 1082.51 257.176Z" fill="#DE4A65"/>
<path d="M1109.79 250.893C1120.21 250.893 1128.64 242.544 1128.64 232.293C1128.64 222.043 1120.21 213.693 1109.79 213.693C1099.37 213.693 1090.94 222.043 1090.94 232.293C1090.94 242.544 1099.46 250.893 1109.79 250.893Z" fill="#DE4A65"/>
<path d="M1109.21 232.211C1108.55 237.088 1107.72 243.867 1106.9 251.968C1105.49 266.352 1105.66 269.576 1106.4 272.8C1107.31 276.933 1109.71 283.795 1116.98 291.152C1119.3 304.544 1121.61 317.853 1123.93 331.245C1133.27 334.552 1148.23 338.52 1166.83 338.189C1186.34 337.859 1201.71 333.064 1211.14 329.261C1212.87 299.749 1214.69 270.155 1216.43 240.643C1216.43 240.643 1215.6 216.835 1215.52 203.112C1204.11 201.541 1198.49 199.557 1182.87 199.805C1180.55 209.808 1172.12 217.579 1161.54 218.571C1150.96 219.563 1141.2 213.611 1137.07 204.269C1121.69 207.08 1106.65 213.693 1106.65 213.693C1107.56 219.811 1108.38 226.011 1109.21 232.211Z" fill="#DE4A65"/>
<path d="M1246.44 372.826C1243.13 372.826 1239.82 372 1236.85 370.181C1228 364.89 1225.11 353.4 1230.4 344.554C1240.9 327.112 1244.54 312.314 1241.31 300.741C1240.24 296.856 1238.67 294.293 1232.8 284.952C1230.98 282.141 1228.99 278.917 1226.6 275.032C1217.59 260.4 1209.07 245.437 1201.14 230.557C1196.34 221.464 1199.81 210.138 1208.91 205.261C1218 200.384 1229.32 203.938 1234.2 213.032C1241.72 227.168 1249.83 241.469 1258.42 255.44C1260.74 259.16 1262.72 262.301 1264.46 265.112C1271.07 275.693 1274.79 281.48 1277.35 290.738C1283.47 312.645 1278.51 337.197 1262.56 363.898C1259 369.52 1252.8 372.826 1246.44 372.826Z" fill="#FCDABA"/>
<path d="M1212.71 264.037C1218.33 263.211 1226.43 261.392 1235.36 256.845C1243.21 252.877 1249 248.165 1252.89 244.445C1249.83 237.749 1245.94 230.392 1241.06 222.869C1238.91 219.48 1236.68 216.421 1234.53 213.445C1223.29 218.901 1212.13 224.357 1200.89 229.813C1204.77 241.304 1208.74 252.629 1212.71 264.037Z" fill="#DE4A65"/>
<path d="M1217.67 240.395C1228 240.395 1236.35 232.045 1236.35 221.712C1236.35 211.379 1228 203.029 1217.67 203.029C1207.34 203.029 1198.99 211.379 1198.99 221.712C1198.9 232.045 1207.34 240.395 1217.67 240.395Z" fill="#DE4A65"/>
<path d="M1246.44 372.826C1256.77 372.826 1265.12 364.477 1265.12 354.144C1265.12 343.81 1256.77 335.461 1246.44 335.461C1236.1 335.461 1227.75 343.81 1227.75 354.144C1227.75 364.394 1236.1 372.826 1246.44 372.826Z" fill="#FCDABA"/>
<path d="M1207.09 359.848C1208 361.832 1210.15 362.989 1212.3 362.576C1213.54 362.328 1214.86 361.997 1216.35 361.501C1218.58 360.757 1220.48 359.848 1222.05 359.021C1220.31 361.336 1218.25 363.733 1215.69 366.213C1212.46 369.355 1209.24 371.752 1206.34 373.653C1201.63 376.712 1206.67 382.912 1211.3 381.093C1206.76 384.235 1210.48 390.352 1214.94 390.021C1216.26 393.493 1220.73 394.981 1223.87 392.914C1224.78 396.056 1228.83 399.032 1232.47 396.221C1237.92 391.922 1243.79 386.632 1249.66 380.267C1253.96 375.555 1260.66 366.379 1260.66 366.379L1232.38 341.909C1232.38 341.909 1225.61 346.952 1220.89 349.267C1217.09 351.085 1213.45 352.491 1210.06 353.565C1207.34 354.227 1205.93 357.285 1207.09 359.848Z" fill="#FCDABA"/>
<path d="M1214.94 390.434C1214.86 390.434 1214.69 390.352 1214.61 390.269C1214.53 390.104 1214.53 389.856 1214.69 389.773C1217.26 387.872 1219.74 385.805 1222.13 383.738C1224.94 381.258 1227.59 378.53 1230.15 375.72C1230.32 375.554 1230.57 375.554 1230.65 375.72C1230.81 375.885 1230.81 376.133 1230.65 376.216C1228.17 379.026 1225.44 381.754 1222.63 384.317C1220.23 386.466 1217.75 388.533 1215.11 390.434C1215.11 390.352 1215.02 390.434 1214.94 390.434Z" fill="#DCAC82"/>
<path d="M1211.3 381.424C1211.22 381.424 1211.06 381.341 1210.97 381.258C1210.89 381.093 1210.89 380.845 1211.06 380.762C1212.96 379.44 1214.86 378.034 1216.68 376.629C1219.24 374.562 1221.64 372.413 1223.95 370.181C1224.12 370.016 1224.36 370.016 1224.45 370.181C1224.61 370.346 1224.61 370.594 1224.45 370.677C1222.13 372.992 1219.65 375.141 1217.09 377.208C1215.27 378.696 1213.37 380.101 1211.39 381.424C1211.47 381.424 1211.39 381.424 1211.3 381.424Z" fill="#DCAC82"/>
<path d="M1223.87 393.245C1223.79 393.245 1223.62 393.162 1223.54 393.08C1223.46 392.914 1223.46 392.666 1223.62 392.584C1225.11 391.509 1226.68 390.352 1228.09 389.194C1231.06 386.714 1233.87 384.069 1236.43 381.176C1236.6 381.01 1236.85 381.01 1236.93 381.176C1237.1 381.341 1237.1 381.589 1236.93 381.672C1234.37 384.565 1231.47 387.293 1228.5 389.773C1227.01 390.93 1225.52 392.088 1224.03 393.245C1224.03 393.245 1223.95 393.245 1223.87 393.245Z" fill="#DCAC82"/>
<path d="M1142.11 182.032L1143.6 197.739C1149.72 197.821 1159.55 196.829 1166.99 191.043C1172.95 186.413 1174.35 181.04 1174.77 178.891L1142.11 182.032Z" fill="#FBCCA1"/>
<path d="M1125.58 154.338L1129.96 153.264L1134.01 169.218L1129.63 170.293C1126.41 171.12 1123.18 169.136 1122.35 165.994L1121.28 161.613C1120.37 158.389 1122.35 155.165 1125.58 154.338Z" fill="#FCDABA"/>
<path d="M1127.15 165.168C1127.07 165.168 1126.9 165.168 1126.82 165.085C1126.65 164.92 1126.65 164.672 1126.82 164.589L1129.3 161.944L1125.83 160.786C1125.66 160.704 1125.5 160.538 1125.58 160.29C1125.66 160.125 1125.83 159.96 1126.07 160.042L1130.04 161.365C1130.13 161.365 1130.29 161.53 1130.29 161.613C1130.29 161.696 1130.29 161.861 1130.21 161.944L1127.31 165.002C1127.23 165.168 1127.23 165.168 1127.15 165.168Z" fill="#DCAC82"/>
<path d="M1170.88 142.848L1175.26 141.773C1178.48 140.946 1181.71 142.93 1182.54 146.072L1183.61 150.453C1184.44 153.677 1182.45 156.901 1179.31 157.728L1174.93 158.802L1170.88 142.848Z" fill="#DCAC82"/>
<path d="M1143.1 113.997L1146.74 113.088C1158.73 110.029 1170.96 117.304 1174.02 129.373L1182.29 162.026C1184.85 172.029 1178.73 182.197 1168.73 184.76L1161.46 186.578C1149.47 189.637 1137.23 182.362 1134.18 170.293L1126.82 141.277C1123.84 129.29 1131.12 117.056 1143.1 113.997Z" fill="#FCDABA"/>
<path d="M1149.88 156.323C1150.87 156.075 1151.37 154.835 1151.04 153.595C1150.71 152.272 1149.63 151.445 1148.73 151.693C1147.73 151.941 1147.24 153.181 1147.57 154.421C1147.9 155.744 1148.89 156.571 1149.88 156.323Z" fill="#2C2044"/>
<path d="M1172.12 150.701C1173.11 150.453 1173.61 149.213 1173.28 147.973C1172.95 146.65 1171.87 145.824 1170.96 146.072C1169.97 146.32 1169.47 147.56 1169.81 148.8C1170.14 150.122 1171.13 150.949 1172.12 150.701Z" fill="#2C2044"/>
<path d="M1142.44 147.56C1142.36 147.56 1142.19 147.56 1142.11 147.477C1141.95 147.312 1141.95 147.064 1142.11 146.981C1142.94 146.237 1144.26 145.245 1146.16 144.749C1147.9 144.336 1149.39 144.584 1150.3 144.915C1150.46 144.997 1150.63 145.163 1150.54 145.411C1150.46 145.576 1150.3 145.741 1150.05 145.659C1149.22 145.411 1147.9 145.163 1146.25 145.576C1144.51 145.989 1143.27 146.899 1142.53 147.56C1142.53 147.477 1142.44 147.56 1142.44 147.56Z" fill="#2C2044"/>
<path d="M1167.16 141.277C1167.08 141.277 1166.91 141.277 1166.83 141.194C1166.66 141.029 1166.66 140.864 1166.75 140.698C1167.24 140.037 1168.15 139.21 1169.56 138.797C1171.13 138.384 1172.45 138.714 1173.36 139.045C1173.53 139.128 1173.61 139.376 1173.53 139.541C1173.44 139.706 1173.19 139.789 1173.03 139.706C1172.29 139.376 1171.05 139.128 1169.81 139.458C1168.65 139.789 1167.82 140.533 1167.41 141.112C1167.33 141.277 1167.24 141.277 1167.16 141.277Z" fill="#2C2044"/>
<path d="M1146.16 162.192C1147.57 161.861 1148.56 160.952 1148.31 160.125C1148.15 159.381 1146.82 158.968 1145.42 159.381C1144.01 159.712 1143.02 160.621 1143.27 161.448C1143.43 162.192 1144.76 162.522 1146.16 162.192Z" fill="#FBCCA1"/>
<path d="M1177.58 154.173C1178.98 153.843 1179.97 152.933 1179.73 152.107C1179.56 151.363 1178.24 150.949 1176.83 151.363C1175.43 151.693 1174.43 152.603 1174.68 153.429C1174.93 154.256 1176.17 154.587 1177.58 154.173Z" fill="#FBCCA1"/>
<path d="M1132.03 172.194C1133.27 172.194 1134.34 171.202 1134.34 169.88C1134.34 168.64 1133.35 167.565 1132.03 167.565C1130.79 167.565 1129.71 168.557 1129.71 169.88C1129.71 171.12 1130.7 172.194 1132.03 172.194Z" fill="#64C846"/>
<path d="M1146.74 113.088L1137.98 115.32C1125.99 118.378 1118.72 130.53 1121.69 142.6L1124.75 154.586L1136.57 151.61C1136.24 148.882 1135.91 146.402 1135.83 144.088C1146 140.616 1153.93 134.002 1158.65 125.653C1161.46 127.472 1166.83 130.282 1174.43 131.274C1174.27 130.282 1174.02 129.29 1173.69 128.381C1170.3 116.808 1158.4 110.194 1146.74 113.088Z" fill="#2C2044"/>
<path d="M1164.43 165.25C1163.44 165.498 1162.45 165.664 1161.54 165.746C1157.9 166.16 1156.58 167.482 1157.41 169.632C1158.31 171.946 1160.46 174.426 1166.42 172.938C1172.37 171.45 1173.11 168.226 1172.78 165.746C1172.53 163.432 1170.71 162.853 1167.33 164.258C1166.33 164.754 1165.42 165.002 1164.43 165.25Z" fill="#4D1822"/>
<path d="M1171.62 170.045C1170.71 171.203 1169.06 172.277 1166.33 172.939C1163.6 173.6 1161.7 173.517 1160.3 172.856C1161.21 171.203 1163.03 169.797 1165.34 169.219C1167.82 168.64 1170.05 169.053 1171.62 170.045Z" fill="#DE4A65"/>
<path d="M1170.22 163.597L1169.97 165.003C1169.89 165.499 1169.47 165.912 1169.06 166.077C1167.08 166.821 1164.68 167.648 1161.79 168.392C1160.13 168.805 1158.64 169.136 1157.24 169.384C1156.66 167.4 1158.07 166.243 1161.46 165.829C1162.45 165.747 1163.44 165.581 1164.35 165.333C1165.34 165.085 1166.25 164.755 1167.16 164.424C1168.48 163.845 1169.47 163.597 1170.22 163.597Z" fill="white"/>
</g>
</g>
<mask id="mask9_10984_2835" style="mask-type:luminance" maskUnits="userSpaceOnUse" x="760" y="73" width="482" height="356">
<path d="M1241.81 209.312C1241.81 318.68 1163.69 428.378 1001 428.378C867.989 428.378 760.192 339.76 760.192 230.309C760.192 169.384 785.24 95.2317 849.555 76.8797C913.952 58.5277 920.069 119.536 989.179 119.536C1058.29 119.536 1100.45 80.269 1169.81 97.2984C1222.22 110.112 1241.81 156.818 1241.81 209.312Z" fill="white"/>
</mask>
<g mask="url(#mask9_10984_2835)">
<path d="M937.347 339.594C935.859 339.429 934.371 339.098 932.883 338.685C921.888 335.378 913.869 325.872 908.992 310.248C905.437 298.674 903.288 283.298 902.461 263.21C902.131 254.448 908.909 247.09 917.589 246.76C926.352 246.429 933.709 253.208 934.04 261.888C935.363 293.962 940.075 304.626 942.059 307.685C945.283 306.197 954.293 300.328 971.075 276.85C976.2 269.741 986.037 268.17 993.147 273.213C1000.26 278.338 1001.83 288.176 996.784 295.285C980.664 317.77 959.667 342.488 937.347 339.594Z" fill="#DCAC82"/>
<path d="M944.539 293.549C939.165 295.781 931.064 298.509 920.896 299.336C911.885 299.997 904.363 299.005 898.989 297.848C898.08 290.325 897.584 281.893 897.832 272.717C897.915 268.666 898.163 264.698 898.576 261.061C911.307 259.904 923.955 258.664 936.685 257.506C939.331 269.41 941.976 281.48 944.539 293.549Z" fill="#10CBB4"/>
<path d="M917.672 278.256C928.253 278.256 936.85 269.658 936.85 259.077C936.85 248.496 928.253 239.898 917.672 239.898C907.09 239.898 898.493 248.496 898.493 259.077C898.576 269.658 907.173 278.256 917.672 278.256Z" fill="#10CBB4"/>
<path d="M983.97 301.899C992.733 301.899 999.76 294.789 999.76 286.109C999.76 277.429 992.65 270.32 983.97 270.32C975.208 270.32 968.181 277.429 968.181 286.109C968.181 294.789 975.208 301.899 983.97 301.899Z" fill="#DCAC82"/>
<path d="M989.261 258.002L972.645 275.032L995.296 297.104L1011.91 280.074L989.261 258.002Z" fill="#DCAC82"/>
<mask id="mask10_10984_2835" style="mask-type:luminance" maskUnits="userSpaceOnUse" x="948" y="217" width="77" height="77">
<path d="M989.471 217.57L948.902 254.423L983.976 293.033L1024.54 256.181L989.471 217.57Z" fill="white"/>
</mask>
<g mask="url(#mask10_10984_2835)">
<path d="M965.949 248.248L983.392 278.752C983.971 279.826 985.293 280.157 986.368 279.578L1001.25 271.064C1002.32 270.485 1002.65 269.162 1002.07 268.088L984.632 237.584C984.053 236.509 982.731 236.178 981.656 236.757L966.776 245.272C965.701 245.85 965.371 247.173 965.949 248.248Z" fill="#12DEC4"/>
<path fill-rule="evenodd" clip-rule="evenodd" d="M970.331 245.685L980.664 239.815C981.573 240.559 982.813 240.89 983.888 240.725L998.603 266.599C997.776 267.674 997.445 269.079 997.859 270.485L987.856 276.189C986.781 275.031 985.128 274.535 983.64 274.949L969.091 249.405C970.083 248.495 970.496 247.09 970.331 245.685Z" fill="#00AD97"/>
<path d="M979.92 247.834C979.507 247.008 978.515 246.76 977.688 247.173C976.944 247.586 976.613 248.578 977.109 249.405C977.523 250.232 978.515 250.48 979.341 250.066C980.168 249.653 980.416 248.661 979.92 247.834Z" fill="#12DEC4"/>
<path d="M990.584 266.434C990.171 265.608 989.179 265.36 988.352 265.773C987.608 266.186 987.277 267.178 987.773 268.005C988.187 268.832 989.179 269.08 990.005 268.666C990.749 268.253 990.997 267.261 990.584 266.434Z" fill="#12DEC4"/>
<path fill-rule="evenodd" clip-rule="evenodd" d="M978.597 260.648C976.944 257.754 977.936 254.117 980.747 252.464C983.557 250.81 987.195 251.885 988.848 254.778C990.501 257.672 989.509 261.309 986.699 262.962C983.888 264.533 980.251 263.541 978.597 260.648Z" fill="#12DEC4"/>
<path fill-rule="evenodd" clip-rule="evenodd" d="M985.211 256.679C985.459 256.679 985.707 256.762 985.872 256.927C986.037 257.01 986.12 257.175 986.203 257.341C986.285 257.506 986.451 257.671 986.533 257.919L987.277 259.242C987.36 259.407 987.443 259.573 987.36 259.738C987.36 259.903 987.195 259.986 987.029 260.069L983.888 261.887C983.723 261.97 983.557 262.053 983.392 261.97C983.227 261.97 983.144 261.805 983.061 261.639L982.317 260.317C982.235 260.151 982.152 259.903 982.069 259.738C981.987 259.573 981.987 259.407 981.987 259.242C981.987 259.077 981.987 258.994 982.069 258.829C982.152 258.663 982.152 258.581 982.235 258.498C982.317 258.415 982.4 258.333 982.565 258.25C982.979 258.002 983.392 258.085 983.888 258.333C983.723 257.671 983.971 257.175 984.467 256.927C984.715 256.679 984.88 256.679 985.211 256.679ZM983.888 258.994C983.805 258.911 983.64 258.829 983.475 258.829C983.392 258.829 983.227 258.829 983.144 258.911C982.896 258.994 982.813 259.159 982.813 259.407C982.813 259.573 982.896 259.821 983.144 260.151L983.557 260.813L984.632 260.151L984.219 259.407C984.136 259.242 983.971 259.077 983.888 258.994ZM983.64 253.538C983.888 253.538 984.053 253.621 984.219 253.786C984.384 253.951 984.632 254.199 984.797 254.447C984.963 254.695 985.045 255.026 985.045 255.274C985.045 255.522 985.045 255.77 984.963 255.935C984.88 256.101 984.797 256.266 984.632 256.266C984.549 256.349 984.467 256.349 984.384 256.266C984.301 256.266 984.219 256.183 984.136 256.101C984.053 256.018 984.053 255.935 984.053 255.853C984.053 255.77 984.136 255.687 984.136 255.605C984.219 255.439 984.301 255.274 984.301 255.109C984.301 254.943 984.219 254.778 984.136 254.613C984.053 254.447 983.971 254.365 983.805 254.282C983.64 254.199 983.557 254.199 983.475 254.282C983.309 254.365 983.227 254.447 983.227 254.613C983.227 254.778 983.227 254.943 983.309 255.191C983.392 255.522 983.475 255.77 983.475 255.935C983.475 256.183 983.475 256.349 983.392 256.514C983.309 256.679 983.227 256.845 983.061 256.927C982.896 257.01 982.731 257.093 982.565 257.01C982.4 257.01 982.152 256.927 981.987 256.762C981.821 256.597 981.656 256.431 981.491 256.183C981.408 256.018 981.325 255.77 981.243 255.605C981.16 255.439 981.16 255.274 981.16 255.109C981.16 254.943 981.16 254.861 981.243 254.695C981.325 254.613 981.325 254.53 981.408 254.447C981.491 254.365 981.573 254.365 981.656 254.447C981.739 254.447 981.821 254.53 981.904 254.695C981.987 254.778 981.987 254.861 981.987 254.943C981.987 255.026 981.904 255.109 981.904 255.274C981.821 255.357 981.821 255.522 981.821 255.605C981.821 255.687 981.821 255.853 981.904 255.935C981.987 256.101 982.069 256.183 982.235 256.266C982.317 256.349 982.483 256.349 982.565 256.266C982.648 256.183 982.731 256.183 982.731 256.018C982.731 255.935 982.731 255.77 982.731 255.687C982.731 255.522 982.648 255.357 982.565 255.109C982.483 254.861 982.483 254.613 982.4 254.365C982.4 254.199 982.4 253.951 982.483 253.869C982.565 253.703 982.648 253.621 982.813 253.538C983.227 253.621 983.392 253.538 983.64 253.538ZM984.797 258.994C984.632 258.663 984.549 258.415 984.549 258.25C984.549 258.085 984.632 257.919 984.88 257.754C985.293 257.506 985.707 257.671 986.037 258.25L986.533 259.159L985.293 259.903L984.797 258.994Z" fill="#00AD97"/>
<path fill-rule="evenodd" clip-rule="evenodd" d="M978.597 260.648C976.944 257.754 977.936 254.117 980.747 252.464C983.557 250.81 987.195 251.885 988.848 254.778C990.501 257.672 989.509 261.309 986.699 262.962C983.888 264.533 980.251 263.541 978.597 260.648Z" fill="#12DEC4"/>
<path fill-rule="evenodd" clip-rule="evenodd" d="M979.672 256.018L979.755 256.184C979.92 256.432 980.085 256.514 980.251 256.432L985.541 255.357C985.872 255.274 985.955 255.109 985.789 254.778L985.707 254.613C985.541 254.365 985.376 254.282 985.211 254.365L979.92 255.44C979.589 255.522 979.507 255.77 979.672 256.018ZM981.656 260.648C982.317 261.722 983.392 262.218 984.384 261.64C986.037 260.73 984.549 258.416 985.293 258.002C985.459 257.92 985.789 258.002 985.955 258.333C986.203 258.829 986.203 259.242 986.203 259.49C986.203 259.821 986.285 259.986 986.616 259.986L987.112 260.069C987.525 260.152 987.608 259.904 987.608 259.656C987.691 259.242 987.608 258.416 987.112 257.672C986.451 256.432 985.293 256.184 984.384 256.68C982.731 257.589 984.301 259.904 983.475 260.317C983.309 260.4 982.979 260.317 982.813 259.904C982.648 259.573 982.565 259.242 982.565 258.912C982.565 258.664 982.483 258.416 982.069 258.416H981.656C981.408 258.416 981.243 258.581 981.16 258.829C981.243 259.325 981.325 259.986 981.656 260.648Z" fill="#00AD97"/>
<path fill-rule="evenodd" clip-rule="evenodd" d="M978.597 260.648C976.944 257.754 977.936 254.117 980.747 252.464C983.557 250.81 987.195 251.885 988.848 254.778C990.501 257.672 989.509 261.309 986.699 262.962C983.888 264.533 980.251 263.541 978.597 260.648Z" fill="#12DEC4"/>
<path fill-rule="evenodd" clip-rule="evenodd" d="M980.581 259.077L981.16 258.746C980.995 258.333 980.995 258.002 980.995 257.671C981.077 257.258 981.325 256.927 981.656 256.679C981.739 256.597 981.821 256.679 981.904 256.762L982.235 257.423C982.235 257.506 982.235 257.589 982.235 257.589C982.069 257.754 981.987 257.837 981.987 258.085C981.987 258.167 981.987 258.25 981.987 258.333L983.144 257.671C983.061 257.341 982.979 257.093 982.979 257.01C982.979 256.845 982.896 256.679 982.896 256.597C982.896 256.349 982.979 256.101 983.061 255.935C983.144 255.77 983.392 255.605 983.64 255.439C984.136 255.191 984.632 255.109 985.045 255.274C985.376 255.439 985.707 255.687 986.037 256.101L986.616 255.77C986.699 255.687 986.781 255.77 986.864 255.853L987.112 256.266C987.195 256.349 987.112 256.431 987.029 256.514L986.451 256.845C986.616 257.258 986.699 257.671 986.616 258.085C986.533 258.498 986.285 258.911 985.872 259.159C985.789 259.242 985.707 259.159 985.624 259.077L985.211 258.415C985.211 258.333 985.211 258.25 985.211 258.25C985.376 258.085 985.459 257.919 985.541 257.671C985.541 257.589 985.541 257.423 985.541 257.341L984.301 258.085C984.467 258.581 984.549 258.911 984.467 259.159C984.467 259.407 984.384 259.573 984.219 259.738C984.053 259.903 983.888 260.069 983.64 260.234C983.144 260.482 982.731 260.565 982.317 260.399C981.987 260.234 981.656 259.986 981.408 259.655L980.829 259.986C980.747 260.069 980.664 259.986 980.581 259.903L980.333 259.49C980.499 259.242 980.499 259.077 980.581 259.077ZM984.219 257.01L985.293 256.349C985.211 256.183 985.045 256.101 984.963 256.018C984.797 255.935 984.632 255.935 984.384 256.101C984.219 256.266 984.136 256.514 984.219 257.01ZM983.475 258.333L982.4 258.911C982.483 258.994 982.565 259.159 982.731 259.159C982.896 259.242 983.061 259.242 983.309 259.077C983.475 259.077 983.557 258.746 983.475 258.333Z" fill="#00AD97"/>
<path d="M953.963 257.258L981.987 284.951C982.979 285.943 984.467 285.943 985.459 284.951L999.016 271.229C999.925 270.237 999.925 268.749 998.933 267.757L970.909 240.063C969.917 239.071 968.429 239.071 967.437 240.063L953.88 253.786C952.971 254.778 952.971 256.266 953.963 257.258Z" fill="#5FF7E4"/>
<path fill-rule="evenodd" clip-rule="evenodd" d="M957.931 253.207L967.355 243.701C968.595 244.197 969.917 244.197 971.157 243.701L994.883 267.178C994.304 268.583 994.469 270.237 995.213 271.559L986.12 280.818C984.549 279.909 982.648 279.909 981.16 280.818L957.683 257.671C958.509 256.266 958.592 254.613 957.931 253.207Z" fill="#12DEC4"/>
<path d="M968.925 252.629C968.181 251.885 967.024 251.885 966.363 252.629C965.701 253.373 965.701 254.53 966.445 255.191C967.189 255.935 968.347 255.935 969.008 255.191C969.669 254.447 969.669 253.29 968.925 252.629Z" fill="#5FF7E4"/>
<path d="M986.037 269.493C985.293 268.749 984.136 268.749 983.475 269.493C982.813 270.237 982.813 271.394 983.557 272.056C984.301 272.8 985.459 272.8 986.12 272.056C986.781 271.394 986.781 270.237 986.037 269.493Z" fill="#5FF7E4"/>
<path fill-rule="evenodd" clip-rule="evenodd" d="M971.323 266.847C968.677 264.202 968.595 259.986 971.157 257.341C973.72 254.695 977.936 254.778 980.664 257.423C983.309 260.069 983.392 264.285 980.829 266.93C978.267 269.493 974.051 269.493 971.323 266.847Z" fill="#5FF7E4"/>
<path fill-rule="evenodd" clip-rule="evenodd" d="M977.275 260.565C977.523 260.482 977.853 260.482 978.101 260.647C978.267 260.73 978.432 260.813 978.597 260.978C978.763 261.143 978.928 261.309 979.176 261.474L980.333 262.631C980.499 262.797 980.581 262.962 980.581 263.127C980.581 263.293 980.499 263.458 980.333 263.623L977.44 266.517C977.275 266.682 977.109 266.765 976.944 266.765C976.779 266.765 976.613 266.682 976.448 266.517L975.208 265.277C975.043 265.111 974.877 264.946 974.795 264.781C974.712 264.615 974.629 264.45 974.547 264.285C974.547 264.119 974.464 263.954 974.547 263.871C974.547 263.706 974.629 263.541 974.629 263.458C974.712 263.293 974.795 263.21 974.877 263.045C975.291 262.631 975.704 262.549 976.283 262.797C975.952 262.135 975.952 261.557 976.448 261.061C976.779 260.73 977.027 260.647 977.275 260.565ZM976.613 263.458C976.448 263.375 976.283 263.375 976.2 263.458C976.117 263.458 975.952 263.541 975.869 263.623C975.704 263.789 975.621 264.037 975.704 264.202C975.787 264.367 975.952 264.615 976.283 264.946L976.944 265.607L977.936 264.615L977.192 263.871C976.861 263.623 976.696 263.541 976.613 263.458ZM974.712 257.671C974.96 257.589 975.208 257.671 975.456 257.754C975.704 257.837 975.952 258.085 976.283 258.333C976.531 258.581 976.696 258.829 976.861 259.077C976.944 259.325 977.027 259.573 976.944 259.738C976.944 259.903 976.861 260.069 976.696 260.234C976.613 260.317 976.531 260.317 976.448 260.317C976.365 260.317 976.2 260.234 976.117 260.151C976.035 260.069 976.035 259.986 976.035 259.903C976.035 259.821 976.035 259.738 976.035 259.655C976.117 259.49 976.117 259.242 976.035 259.077C976.035 258.911 975.869 258.746 975.704 258.581C975.539 258.415 975.373 258.333 975.291 258.333C975.125 258.333 975.043 258.333 974.96 258.415C974.795 258.581 974.795 258.663 974.795 258.829C974.795 258.994 974.96 259.159 975.125 259.49C975.291 259.821 975.456 260.069 975.539 260.317C975.621 260.565 975.704 260.73 975.621 260.978C975.621 261.143 975.539 261.391 975.373 261.557C975.208 261.722 975.043 261.805 974.877 261.805C974.629 261.887 974.464 261.805 974.216 261.722C973.968 261.639 973.72 261.474 973.472 261.226C973.307 261.061 973.141 260.895 973.059 260.647C972.976 260.482 972.893 260.317 972.811 260.151C972.811 259.986 972.811 259.821 972.811 259.738C972.811 259.573 972.893 259.49 972.976 259.407C973.059 259.325 973.141 259.325 973.224 259.325C973.307 259.325 973.472 259.407 973.555 259.49C973.637 259.573 973.637 259.655 973.72 259.738C973.72 259.821 973.72 259.986 973.72 260.069C973.72 260.234 973.72 260.317 973.72 260.399C973.72 260.482 973.803 260.647 973.968 260.73C974.133 260.895 974.216 260.978 974.381 260.978C974.547 260.978 974.629 260.978 974.712 260.895C974.795 260.813 974.795 260.73 974.795 260.647C974.795 260.565 974.712 260.399 974.629 260.234C974.547 260.069 974.464 259.903 974.299 259.655C974.133 259.407 974.051 259.159 973.968 258.911C973.885 258.663 973.885 258.498 973.885 258.333C973.885 258.167 973.968 258.002 974.133 257.837C974.216 257.837 974.464 257.754 974.712 257.671ZM977.523 263.21C977.275 262.962 977.109 262.714 977.027 262.466C976.944 262.218 977.027 262.053 977.275 261.805C977.688 261.391 978.101 261.474 978.597 262.053L979.424 262.879L978.267 264.037L977.523 263.21Z" fill="#12DEC4"/>
<path fill-rule="evenodd" clip-rule="evenodd" d="M971.323 266.847C968.677 264.202 968.595 259.986 971.157 257.341C973.72 254.695 977.936 254.778 980.664 257.423C983.309 260.069 983.392 264.285 980.829 266.93C978.267 269.493 974.051 269.493 971.323 266.847Z" fill="#5FF7E4"/>
<path fill-rule="evenodd" clip-rule="evenodd" d="M971.075 261.557L971.24 261.722C971.405 261.887 971.653 261.97 971.901 261.805L977.275 259.077C977.605 258.911 977.605 258.663 977.357 258.415L977.192 258.25C977.027 258.085 976.779 258.002 976.531 258.167L971.157 260.895C970.909 261.061 970.827 261.309 971.075 261.557ZM974.712 265.855C975.704 266.847 977.027 267.013 977.936 266.103C979.424 264.615 977.109 262.549 977.771 261.887C977.936 261.722 978.267 261.722 978.597 262.053C979.011 262.466 979.093 262.962 979.176 263.21C979.259 263.541 979.424 263.706 979.755 263.623L980.251 263.541C980.664 263.458 980.747 263.21 980.664 262.962C980.581 262.466 980.251 261.639 979.589 260.895C978.515 259.821 977.192 259.903 976.365 260.647C974.877 262.135 977.192 264.202 976.531 264.863C976.365 265.029 976.035 265.029 975.621 264.698C975.291 264.367 975.208 264.037 975.043 263.706C974.96 263.458 974.795 263.21 974.381 263.293L973.885 263.458C973.555 263.541 973.472 263.706 973.472 264.119C973.803 264.615 974.133 265.359 974.712 265.855Z" fill="#12DEC4"/>
<path fill-rule="evenodd" clip-rule="evenodd" d="M971.323 266.847C968.677 264.202 968.595 259.986 971.157 257.341C973.72 254.695 977.936 254.778 980.664 257.423C983.309 260.069 983.392 264.285 980.829 266.93C978.267 269.493 974.051 269.493 971.323 266.847Z" fill="#5FF7E4"/>
<path fill-rule="evenodd" clip-rule="evenodd" d="M973.059 264.533L973.637 263.954C973.389 263.624 973.224 263.21 973.141 262.797C973.141 262.384 973.224 261.888 973.555 261.557C973.637 261.474 973.72 261.474 973.803 261.557L974.381 262.136C974.464 262.218 974.464 262.301 974.381 262.384C974.216 262.549 974.216 262.797 974.216 262.962C974.216 263.045 974.216 263.128 974.299 263.21L975.373 262.136C975.208 261.805 975.043 261.557 974.96 261.474C974.877 261.309 974.795 261.144 974.795 260.978C974.712 260.73 974.712 260.482 974.795 260.234C974.877 259.986 975.043 259.738 975.208 259.49C975.621 259.077 976.117 258.829 976.696 258.912C977.109 258.912 977.523 259.16 978.019 259.49L978.597 258.912C978.68 258.829 978.763 258.829 978.845 258.912L979.176 259.242C979.259 259.325 979.259 259.408 979.176 259.49L978.597 260.069C978.928 260.482 979.093 260.896 979.176 261.309C979.259 261.805 979.093 262.301 978.763 262.714C978.68 262.797 978.597 262.797 978.515 262.714L977.936 262.136C977.853 262.053 977.853 261.97 977.936 261.888C978.101 261.64 978.101 261.392 978.101 261.226C978.101 261.144 978.019 260.978 977.936 260.813L976.779 261.97C977.109 262.466 977.275 262.797 977.357 263.128C977.44 263.376 977.357 263.624 977.275 263.872C977.192 264.12 977.027 264.368 976.779 264.533C976.365 264.946 975.869 265.112 975.373 265.112C974.96 265.112 974.547 264.864 974.133 264.533L973.555 265.112C973.472 265.194 973.389 265.194 973.307 265.112L972.976 264.781C972.976 264.698 972.976 264.616 973.059 264.533ZM976.365 261.226L977.357 260.234C977.192 260.069 977.027 260.069 976.861 259.986C976.613 259.986 976.448 259.986 976.283 260.234C976.117 260.4 976.117 260.73 976.365 261.226ZM975.952 262.88L975.043 263.872C975.208 263.954 975.291 264.037 975.456 264.037C975.704 264.037 975.869 263.954 976.035 263.789C976.117 263.624 976.117 263.293 975.952 262.88Z" fill="#12DEC4"/>
</g>
<path d="M983.971 286.109L972.893 297.434C969.256 293.714 967.685 289.994 967.024 287.928C964.957 281.562 966.032 274.37 968.429 268.253C969.587 265.277 970.165 264.946 971.984 260.482C973.059 257.837 973.803 255.44 974.381 253.373C974.96 251.306 976.944 250.149 979.011 250.48C981.16 250.893 982.731 252.877 982.317 255.109C982.152 256.349 981.821 257.672 981.408 259.077C980.747 261.474 979.92 263.541 979.093 265.194C979.755 265.69 986.864 271.146 986.285 279.33C986.12 282.306 984.88 284.704 983.971 286.109Z" fill="#DCAC82"/>
<path d="M993.395 253.786L986.037 261.309C984.549 262.88 984.549 265.36 986.12 266.93C987.691 268.418 990.171 268.418 991.741 266.848L999.099 259.325C1000.59 257.754 1000.59 255.274 999.016 253.704C997.363 252.216 994.883 252.216 993.395 253.786Z" fill="#DCAC82"/>
<path d="M999.016 259.325L991.659 266.848C990.171 268.419 990.171 270.899 991.741 272.469C993.312 273.957 995.792 273.957 997.363 272.387L1004.72 264.864C1006.21 263.293 1006.21 260.813 1004.64 259.243C1003.07 257.755 1000.59 257.755 999.016 259.325Z" fill="#DCAC82"/>
<path d="M1004.72 264.864L997.363 272.386C995.875 273.957 995.875 276.437 997.445 278.008C999.016 279.496 1001.5 279.496 1003.07 277.925L1010.42 270.402C1011.91 268.832 1011.91 266.352 1010.34 264.781C1008.69 263.21 1006.21 263.293 1004.72 264.864Z" fill="#DCAC82"/>
<path d="M1010.34 270.32L1002.98 277.843C1001.5 279.413 1001.5 281.893 1003.07 283.464C1004.64 284.952 1007.12 284.952 1008.69 283.381L1016.05 275.859C1017.53 274.288 1017.53 271.808 1015.96 270.237C1014.39 268.749 1011.91 268.749 1010.34 270.32Z" fill="#DCAC82"/>
<path d="M997.528 272.634L1005.22 264.698C1005.3 264.533 1005.3 264.368 1005.22 264.285C1005.13 264.12 1004.89 264.202 1004.8 264.285L997.115 272.221C995.709 273.626 993.395 273.709 991.989 272.304C990.584 270.898 990.501 268.584 991.907 267.178L999.595 259.242C999.677 259.077 999.677 258.912 999.595 258.829C999.512 258.664 999.264 258.746 999.181 258.829L991.493 266.765C990.088 268.17 987.773 268.253 986.368 266.848C984.963 265.442 984.88 263.128 986.285 261.722C986.368 261.557 986.368 261.392 986.285 261.309C986.203 261.144 985.955 261.226 985.872 261.309C984.219 262.962 984.301 265.69 985.955 267.344C987.195 268.584 989.096 268.832 990.667 268.17C990.005 269.741 990.336 271.56 991.659 272.8C992.899 274.04 994.8 274.288 996.371 273.626C995.709 275.197 996.04 277.016 997.363 278.256C998.603 279.496 1000.5 279.744 1002.07 279.082C1001.41 280.653 1001.74 282.472 1003.07 283.712C1004.72 285.365 1007.45 285.365 1009.1 283.629C1009.18 283.464 1009.18 283.298 1009.1 283.216C1009.02 283.05 1008.77 283.133 1008.69 283.216C1007.28 284.621 1004.97 284.704 1003.56 283.298C1002.16 281.893 1002.07 279.578 1003.48 278.173L1011.17 270.237C1011.25 270.072 1011.25 269.906 1011.17 269.824C1011.09 269.658 1010.84 269.741 1010.75 269.824L1003.07 277.76C1001.66 279.165 999.347 279.248 997.941 277.842C996.205 276.272 996.205 274.04 997.528 272.634Z" fill="#9F7554"/>
<path d="M847.323 173.683C846.827 177.568 846.661 182.776 846.083 186.331C845.504 189.885 845.835 190.299 843.355 193.275C838.56 199.061 831.037 202.699 831.12 212.288C831.285 226.837 845.587 233.037 860.549 236.096C875.512 239.155 895.021 237.915 902.379 221.877C906.925 211.957 902.544 206.253 900.477 195.755C899.981 193.357 900.312 190.795 900.395 186.744C900.477 182.693 900.395 178.064 900.147 173.848C882.704 172.939 864.765 176.245 847.323 173.683Z" fill="#2C2044"/>
<path d="M920.235 240.146L810.123 225.68C799.624 224.274 790.035 231.714 788.629 242.13C787.224 252.546 794.664 262.218 805.08 263.624L915.109 278.09C925.608 279.496 935.197 272.056 936.603 261.64C938.091 251.141 930.651 241.552 920.235 240.146Z" fill="#10CBB4"/>
<path d="M818.555 444.664C833.6 444.664 845.835 432.429 845.835 417.384C845.835 402.338 833.6 390.104 818.555 390.104C803.509 390.104 791.275 402.338 791.275 417.384C791.275 432.512 803.509 444.664 818.555 444.664Z" fill="#002649"/>
<path d="M881.464 444.664C896.509 444.664 908.744 432.429 908.744 417.384C908.744 402.338 896.509 390.104 881.464 390.104C866.418 390.104 854.184 402.338 854.184 417.384C854.184 432.512 866.418 444.664 881.464 444.664Z" fill="#002649"/>
<path d="M845.835 417.549L791.275 417.384C789.787 384.648 800.12 363.65 805.989 355.797H893.947C899.816 363.65 910.149 384.73 908.661 417.384L854.101 417.549H845.835Z" fill="#002649"/>
<path d="M845.835 417.549H791.275L792.515 519.973H844.595L845.835 417.549Z" fill="#002649"/>
<path d="M854.184 417.549H908.744L907.504 519.973H855.424L854.184 417.549Z" fill="#002649"/>
<path d="M918.003 259.16C920.896 274.205 919.656 285.944 918.251 293.301C916.515 302.312 913.208 310.165 906.512 325.458C901.304 337.445 896.592 347.117 893.285 353.648C895.187 357.202 897.088 360.674 898.907 364.146C886.341 366.461 871.213 368.197 854.184 368.28C833.6 368.362 815.744 365.965 801.443 363.072C803.261 356.541 805.08 350.093 806.899 343.562C807.229 317.026 807.477 290.408 807.808 263.872C808.139 259.242 808.469 254.613 808.717 249.984C809.213 242.13 809.792 232.624 810.04 225.597C821.779 224.44 827.565 222.621 843.603 223.365C845.587 233.698 854.019 241.882 864.765 243.288C875.512 244.693 885.763 238.989 890.392 229.482C906.016 232.872 921.227 240.229 921.227 240.229C920.235 246.594 919.16 252.877 918.003 259.16Z" fill="#10CBB4"/>
<path d="M883.448 228.16L888.16 192.531L855.672 188.232L850.96 223.861C848.48 223.696 846.083 223.531 843.768 223.448C845.752 233.781 854.184 241.965 864.931 243.371C875.677 244.776 885.928 239.072 890.557 229.565C888.16 229.069 885.845 228.573 883.448 228.16Z" fill="#DCAC82"/>
<path d="M886.259 206.666L884.357 221.216C878.653 221.05 869.643 219.893 862.947 214.272C857.573 209.808 856.416 204.765 856.085 202.698L886.259 206.666Z" fill="#9F7554"/>
<path d="M846.661 171.12H851.291V187.984H846.661C843.272 187.984 840.544 185.256 840.544 181.866V177.237C840.544 173.93 843.355 171.12 846.661 171.12Z" fill="#DCAC82"/>
<path d="M845.587 182.28C845.504 182.28 845.339 182.197 845.256 182.114C845.173 181.949 845.173 181.701 845.339 181.618L848.48 179.552L845.339 177.568C845.173 177.485 845.091 177.237 845.256 177.072C845.339 176.906 845.587 176.824 845.752 176.989L849.389 179.304C849.472 179.386 849.555 179.469 849.555 179.634C849.555 179.8 849.472 179.882 849.389 179.965L845.752 182.28C845.752 182.28 845.669 182.28 845.587 182.28Z" fill="#9F7554"/>
<path d="M894.608 171.037H899.237C902.627 171.037 905.355 173.765 905.355 177.154V181.784C905.355 185.173 902.627 187.901 899.237 187.901H894.608V171.037Z" fill="#9F7554"/>
<path d="M874.189 135.49H877.992C890.64 135.49 900.973 145.741 900.973 158.389L901.056 192.861C901.056 203.442 892.541 212.04 881.96 212.04H874.272C861.624 212.04 851.291 201.789 851.291 189.141L851.208 158.554C851.291 145.824 861.541 135.49 874.189 135.49Z" fill="#DCAC82"/>
<path d="M870.387 179.221C871.379 179.221 872.205 178.147 872.205 176.741C872.205 175.419 871.379 174.261 870.387 174.261C869.395 174.261 868.568 175.336 868.568 176.741C868.568 178.147 869.395 179.221 870.387 179.221Z" fill="#2C2044"/>
<path d="M893.864 179.138C894.856 179.138 895.683 178.064 895.683 176.658C895.683 175.336 894.856 174.178 893.864 174.178C892.872 174.178 892.045 175.253 892.045 176.658C891.963 178.064 892.789 179.138 893.864 179.138Z" fill="#2C2044"/>
<path d="M865.179 167.647C865.013 167.647 864.931 167.565 864.848 167.482C864.765 167.317 864.765 167.069 865.013 166.986C866.005 166.407 867.576 165.746 869.643 165.829C871.461 165.911 872.867 166.49 873.693 166.986C873.859 167.069 873.941 167.317 873.859 167.482C873.776 167.647 873.528 167.73 873.363 167.647C872.536 167.234 871.296 166.655 869.643 166.573C867.741 166.49 866.336 167.151 865.427 167.647C865.344 167.647 865.261 167.647 865.179 167.647Z" fill="#2C2044"/>
<path d="M891.301 167.647C891.218 167.647 891.053 167.565 890.97 167.482C890.805 167.317 890.888 167.069 891.053 166.986C891.714 166.49 892.872 165.829 894.277 165.829C895.93 165.746 897.17 166.407 897.914 166.986C898.08 167.151 898.162 167.317 897.997 167.482C897.832 167.647 897.666 167.647 897.501 167.565C896.84 167.069 895.765 166.49 894.277 166.49C893.037 166.573 892.045 167.069 891.466 167.565C891.466 167.647 891.384 167.647 891.301 167.647Z" fill="#2C2044"/>
<path d="M865.179 184.016C866.667 184.016 867.824 183.354 867.824 182.528C867.824 181.701 866.667 181.04 865.179 181.04C863.691 181.04 862.533 181.701 862.533 182.528C862.533 183.354 863.691 184.016 865.179 184.016Z" fill="#BE906A"/>
<path d="M898.411 184.016C899.899 184.016 901.056 183.354 901.056 182.528C901.056 181.701 899.899 181.04 898.411 181.04C896.923 181.04 895.765 181.701 895.765 182.528C895.765 183.354 896.923 184.016 898.411 184.016Z" fill="#BE906A"/>
<path d="M890.061 135.16C877.165 128.629 863.029 136.565 861.459 137.474C852.779 136.4 843.933 144.584 845.091 156.736C845.421 160.538 845.752 165.581 845.917 169.301V171.202H858.4C858.565 169.218 858.813 166.904 859.309 164.506C860.549 158.968 862.616 154.586 864.435 151.362C868.403 152.602 870.304 155.826 874.603 157.232C880.885 159.298 888.408 157.48 890.475 156.24C890.227 156.901 888.904 157.81 887.499 158.802C885.763 160.042 885.432 161.2 885.845 161.778C887.499 164.093 897.749 159.216 899.32 155.578C899.568 155.826 899.816 156.157 900.064 156.488C900.56 157.149 900.808 157.893 901.056 158.472C901.8 156.488 902.792 152.685 901.8 148.386C899.899 140.202 892.376 136.4 890.061 135.16Z" fill="#2C2044"/>
<path d="M849.224 190.464C850.547 190.464 851.539 189.389 851.539 188.149C851.539 186.909 850.464 185.834 849.224 185.834C847.901 185.834 846.909 186.909 846.909 188.149C846.909 189.389 847.984 190.464 849.224 190.464Z" fill="#57B43C"/>
<path d="M875.512 193.44C875.016 193.357 874.603 193.77 874.685 194.266C875.099 196.994 877.496 199.144 881.795 199.144C886.093 199.144 888.491 197.077 888.904 194.266C888.987 193.77 888.573 193.357 888.077 193.44C886.259 193.688 884.109 193.853 881.795 193.853C879.48 193.853 877.331 193.688 875.512 193.44Z" fill="white"/>
<path d="M886.672 264.203L862.781 258.581C861.128 258.168 859.557 259.243 859.144 260.813L845.421 318.845C845.008 320.499 846.083 322.069 847.653 322.483L871.544 328.104C873.197 328.517 874.768 327.443 875.181 325.872L888.904 267.84C889.317 266.269 888.325 264.616 886.672 264.203Z" fill="#2C2044"/>
<path d="M863.36 266.682C864.456 266.682 865.344 265.794 865.344 264.698C865.344 263.603 864.456 262.714 863.36 262.714C862.264 262.714 861.376 263.603 861.376 264.698C861.376 265.794 862.264 266.682 863.36 266.682Z" fill="#7D758D"/>
<path d="M868.072 267.178C868.757 267.178 869.312 266.623 869.312 265.938C869.312 265.253 868.757 264.698 868.072 264.698C867.387 264.698 866.832 265.253 866.832 265.938C866.832 266.623 867.387 267.178 868.072 267.178Z" fill="#544A69"/>
<path d="M837.733 322.813C848.315 322.813 856.912 314.216 856.912 303.634C856.912 293.053 848.315 284.456 837.733 284.456C827.152 284.456 818.555 293.053 818.555 303.634C818.555 314.216 827.152 322.813 837.733 322.813Z" fill="#DCAC82"/>
<path d="M827.979 287.184C831.699 285.034 834.923 283.712 837.072 282.885C848.48 278.504 853.936 279.082 860.301 271.229C864.269 266.269 871.709 271.725 868.403 276.933C866.832 279.33 861.624 283.877 855.92 288.92C855.755 289.912 854.763 294.706 850.299 298.013C849.803 298.426 844.76 301.898 838.643 300.328C832.856 298.84 828.64 293.632 827.979 287.184Z" fill="#DCAC82"/>
<path d="M884.688 304.378C890.144 299.418 888.325 291.73 883.944 290.077C883.365 292.64 880.803 294.21 878.24 293.549L845.504 285.778L836.659 323.061L869.56 330.832C873.528 331.658 876.587 325.789 874.437 322.648C878.405 324.797 882.787 319.506 882.125 315.125C886.92 314.133 887.333 306.693 884.688 304.378Z" fill="#DCAC82"/>
<path d="M749.611 315.455C745.808 308.263 741.013 293.135 752.091 273.047C760.027 258.663 775.072 243.783 796.896 228.821L818.472 260.399C790.448 279.578 784.083 292.639 783.504 296.773C786.976 297.434 799.128 298.178 830.789 285.861L844.677 321.49C820.043 331.079 800.947 335.626 786.232 335.378C770.608 335.13 756.968 329.261 749.611 315.455Z" fill="#DCAC82"/>
<path d="M783.504 296.773C782.76 295.946 781.933 294.789 781.189 293.466C778.792 288.754 779.453 284.125 779.784 282.141C775.403 278.338 769.947 272.965 764.904 265.608C763.499 263.624 762.341 261.64 761.267 259.738C764.821 255.522 768.955 251.224 773.584 247.008L796.152 278.338C786.645 287.762 783.917 294.128 783.504 296.773Z" fill="#9F7554"/>
<path d="M793.837 286.026C788.96 282.802 782.264 277.594 775.981 269.493C770.443 262.384 767.136 255.522 765.152 250.397C770.939 245.52 777.717 240.394 785.488 235.6C788.96 233.45 792.349 231.466 795.656 229.73C803.675 239.65 811.693 249.57 819.712 259.49C811.032 268.336 802.435 277.181 793.837 286.026Z" fill="#10CBB4"/>
<path d="M807.643 263.789C818.224 263.789 826.821 255.192 826.821 244.61C826.821 234.029 818.224 225.432 807.643 225.432C797.061 225.432 788.464 234.029 788.464 244.61C788.547 255.192 797.061 263.789 807.643 263.789Z" fill="#10CBB4"/>
</g>
</g>
<defs>
<linearGradient id="paint0_linear_10984_2835" x1="659.228" y1="901.966" x2="1103.86" y2="94.0916" gradientUnits="userSpaceOnUse">
<stop stop-color="#CF3C74"/>
<stop offset="1" stop-color="#920BC1"/>
</linearGradient>
<clipPath id="clip0_10984_2835">
<rect width="496" height="496" fill="white" transform="translate(753)"/>
</clipPath>
</defs>
</svg>
