<svg width="40" height="40" viewBox="0 0 40 40" fill="none" xmlns="http://www.w3.org/2000/svg">
<path d="M13.05 31C15.4469 31 17.39 29.0569 17.39 26.66C17.39 24.2631 15.4469 22.32 13.05 22.32C10.6531 22.32 8.70999 24.2631 8.70999 26.66C8.70999 29.0569 10.6531 31 13.05 31Z" fill="#10CBB4"/>
<path d="M28.28 12.91H29.52C29.96 12.91 30.31 13.26 30.31 13.7V16.69C30.31 17.13 29.96 17.48 29.52 17.48H28.28C27.02 17.48 26 16.46 26 15.2C26 13.94 27.02 12.92 28.28 12.92V12.91Z" fill="#742384"/>
<path d="M16.01 7.87H6.58C5.70739 7.87 5 8.57739 5 9.45V17.98C5 18.8526 5.70739 19.56 6.58 19.56H16.01C16.8826 19.56 17.59 18.8526 17.59 17.98V9.45C17.59 8.57739 16.8826 7.87 16.01 7.87Z" fill="#E3B2EB"/>
<path d="M26.23 13.94C25.99 13.42 25.52 13.06 24.98 12.95C24.9 12.93 24.81 12.91 24.72 12.91H21.01C20.49 12.91 20.06 13.33 20.06 13.86C20.06 14.38 20.48 14.81 21.01 14.81H22.87C22.87 14.88 22.88 14.95 22.9 15.02L24.27 21.91C24.46 22.89 23.72 23.8 22.72 23.8H19.67C18.8 23.8 18.09 23.09 18.09 22.22V21.15C18.09 20.28 17.38 19.57 16.51 19.57H11.32C8.69999 19.57 6.57999 21.69 6.57999 24.31V24.94C6.57999 25.9 7.35999 26.68 8.31999 26.68H30.66V23.62L26.23 13.96V13.94Z" fill="#742384"/>
<path d="M30.66 31C33.0569 31 35 29.0569 35 26.66C35 24.2631 33.0569 22.32 30.66 22.32C28.2631 22.32 26.32 24.2631 26.32 26.66C26.32 29.0569 28.2631 31 30.66 31Z" fill="#10CBB4"/>
</svg>
