<svg width="72" height="72" viewBox="0 0 72 72" fill="none" xmlns="http://www.w3.org/2000/svg">
<path d="M32.7257 12.8795L9.27264 22.9523C11.0123 22.2059 13.0258 23.0113 13.7721 24.7456L24.8973 50.6417C25.3644 51.7317 26.6262 52.2364 27.7162 51.7693L47.2228 43.3932C48.3128 42.926 48.8175 41.6643 48.3504 40.5743L37.2252 14.6728C36.4789 12.9331 34.4654 12.1331 32.7257 12.8795Z" fill="#E3B2EB"/>
<path d="M9.27271 22.9522C7.53306 23.6985 6.73303 25.712 7.47937 27.4517L9.81501 32.8961C10.164 33.7123 11.1144 34.0935 11.9305 33.7391L16.7414 31.6719L13.7668 24.7509C13.0205 23.0113 11.007 22.2112 9.26734 22.9576L9.27271 22.9522Z" fill="#A35AAD"/>
<path fill-rule="evenodd" clip-rule="evenodd" d="M41.816 36.236L26.2504 42.9208C25.692 43.1624 25.0477 42.9047 24.8061 42.3463C24.5644 41.7879 24.8222 41.1436 25.3806 40.902L40.9462 34.2172C41.5046 33.9756 42.1489 34.2333 42.3905 34.7917C42.6321 35.3501 42.3744 35.9944 41.816 36.236Z" fill="#A35AAD"/>
<path fill-rule="evenodd" clip-rule="evenodd" d="M33.8533 41.7447L42.5677 38.0023C43.1261 37.7607 43.7704 38.0185 44.0121 38.5769C44.2537 39.1353 43.9959 39.7796 43.4375 40.0212L34.7232 43.7636C34.1648 44.0052 33.5205 43.7475 33.2788 43.1891C33.0372 42.6307 33.2949 41.9864 33.8533 41.7447Z" fill="#A35AAD"/>
<path d="M29.93 43.4304L26.9747 44.6995C26.4325 44.9323 26.1817 45.5607 26.4145 46.1029L26.44 46.1621C26.6728 46.7043 27.3011 46.9551 27.8434 46.7223L30.7986 45.4532C31.3408 45.2204 31.5916 44.592 31.3588 44.0498L31.3334 43.9906C31.1005 43.4484 30.4722 43.1976 29.93 43.4304Z" fill="#A35AAD"/>
<path fill-rule="evenodd" clip-rule="evenodd" d="M63.8721 41.4384C66.5075 34.8866 63.3371 27.4417 56.7952 24.8062C50.2532 22.1708 42.7984 25.3412 40.1581 31.8929C37.6601 38.0963 40.5801 41.7034 41.0856 45.2811C41.277 46.6357 40.6783 48.0491 40.6783 48.0491L52.3537 52.7458C52.3537 52.7458 52.9034 51.3225 53.9683 50.4637C57.124 47.9166 61.6096 47.0675 63.8721 41.4384Z" fill="#F4C12A"/>
<path fill-rule="evenodd" clip-rule="evenodd" d="M39.2354 55.1851C39.0244 57.2512 40.3348 59.3615 42.5383 60.2498C44.7419 61.1381 47.1565 60.5198 48.4325 58.8855L39.2305 55.1802L39.2354 55.1851Z" fill="#918AA0"/>
<path d="M40.6744 48.0438L38.0013 54.6865L49.6613 59.3785L52.3344 52.7359L40.6744 48.0438Z" fill="#918AA0"/>
<path d="M40.6814 48.0516C39.9195 47.745 39.0538 48.1131 38.7477 48.8737C38.4416 49.6344 38.8111 50.4995 39.573 50.8061L51.2148 55.4908C51.9767 55.7974 52.8424 55.4293 53.1485 54.6687C53.4546 53.908 53.0851 53.0429 52.3232 52.7363L40.6814 48.0516Z" fill="#544A69"/>
<path fill-rule="evenodd" clip-rule="evenodd" d="M50.7636 56.6276L39.1176 51.9408C38.3569 51.6365 37.4932 52.0046 37.184 52.7652C36.8748 53.5259 37.2478 54.3897 38.0085 54.6989L49.6545 59.3857C50.4152 59.69 51.2789 59.3219 51.5881 58.5612C51.8973 57.8005 51.5243 56.9368 50.7636 56.6276Z" fill="#544A69"/>
<path d="M55.7793 38.5233C55.1364 38.2632 54.3855 38.3712 53.7229 38.8178C53.0604 39.2644 52.5009 40.03 52.0985 41.0312L51.4163 42.7341C50.9501 42.5869 50.425 42.4004 49.836 42.1599C49.2962 41.944 48.776 41.7231 48.2901 41.4925L48.9821 39.7797C49.3845 38.7785 49.5072 37.8363 49.3404 37.0559C49.1735 36.2707 48.7073 35.6769 48.0644 35.4168C46.9896 34.9849 45.4927 35.564 44.7075 37.5173C43.829 39.7012 45.0265 41.1342 46.5577 42.1109L43.6818 49.2614L44.9627 49.7767L47.7797 42.7783C48.3294 43.0384 48.8643 43.2544 49.3207 43.4408C49.3207 43.4408 49.3207 43.4408 49.3256 43.4408C49.3306 43.4408 49.3256 43.4408 49.3306 43.4408C49.7821 43.6224 50.3219 43.8384 50.8961 44.0298L48.0791 51.0281L49.36 51.5435L52.2359 44.3929C54.0223 44.7512 55.8774 44.5451 56.7559 42.3611C57.5411 40.4128 56.8639 38.9552 55.7891 38.5184L55.7793 38.5233ZM47.0779 40.8054C46.0424 40.0938 45.4976 39.2251 45.9786 38.0277C46.4203 36.9283 47.1172 36.521 47.5442 36.6928C47.7601 36.7811 47.9171 37.0118 47.9908 37.3455C48.0693 37.6988 48.0791 38.3221 47.7012 39.2595L47.0779 40.8054ZM52.761 43.0679L53.3745 41.5416C53.7524 40.5993 54.1892 40.1625 54.4935 39.9564C54.7781 39.765 55.0529 39.7061 55.264 39.7944C55.6909 39.9662 55.9118 40.7416 55.4701 41.8409C55.1315 42.6801 54.6358 43.382 52.761 43.063V43.0679Z" fill="#AA841B"/>
<path d="M28.0885 35.2288L24.7114 36.6713C24.224 36.8796 23.8286 36.9207 23.5252 36.7948C23.2247 36.6617 22.9725 36.3564 22.7685 35.879L19.22 27.5721C19.0118 27.0847 18.9681 26.6903 19.089 26.3891C19.2128 26.0807 19.5134 25.8245 19.9908 25.6206L23.5714 24.0911C24.099 23.8656 24.5703 23.703 24.9852 23.603C25.4 23.503 25.8004 23.4805 26.1864 23.5355C26.5143 23.5797 26.8303 23.6794 27.1343 23.8348C27.4362 23.9851 27.7022 24.1835 27.9322 24.4299C28.1601 24.6712 28.3428 24.9527 28.4802 25.2743C28.9524 26.3799 28.7453 27.4251 27.8587 28.41C29.5085 28.2519 30.6189 28.8413 31.1899 30.178C31.454 30.7961 31.534 31.4216 31.4299 32.0543C31.3237 32.682 31.0522 33.2289 30.6153 33.6947C30.3387 33.9793 29.9947 34.2451 29.5833 34.4922C29.1697 34.7342 28.6714 34.9797 28.0885 35.2288ZM25.8264 30.3923L23.4971 31.3873L24.8753 34.6136L27.2799 33.5864C28.7926 32.9403 29.316 32.0719 28.8501 30.9814C28.6119 30.4236 28.2431 30.1028 27.7437 30.019C27.2444 29.9351 26.6053 30.0596 25.8264 30.3923ZM21.5908 26.9248L22.8113 29.7817L24.8616 28.9059C25.4194 28.6676 25.8265 28.4313 26.083 28.1969C26.3444 27.9605 26.4923 27.6596 26.5264 27.2944C26.5619 27.0297 26.5238 26.7667 26.4122 26.5054C26.1739 25.9475 25.8176 25.663 25.3433 25.6517C24.8669 25.6353 24.2216 25.801 23.4075 26.1488L21.5908 26.9248Z" fill="#A35AAD"/>
<path d="M39.8944 27.2262C40.137 27.7941 40.207 28.3406 40.1045 28.8657C39.9998 29.3858 39.7212 29.8673 39.2686 30.3102C38.8189 30.746 38.2071 31.1291 37.4332 31.4597C36.6945 31.7753 36.013 31.9327 35.3887 31.932C34.7645 31.9312 34.2548 31.8162 33.8597 31.5868C33.4625 31.3524 33.1908 31.0644 33.0449 30.7227C32.9483 30.4965 32.946 30.2687 33.0381 30.0392C33.1303 29.8097 33.2994 29.6423 33.5457 29.5372C33.7618 29.4448 33.9501 29.4268 34.1108 29.4829C34.2715 29.5391 34.4454 29.6401 34.6325 29.786C35.0002 30.0627 35.3685 30.2292 35.7373 30.2856C36.111 30.3399 36.5517 30.2586 37.0593 30.0418C37.4713 29.8658 37.7694 29.6315 37.9534 29.3389C38.1404 29.0392 38.1834 28.7713 38.0825 28.5351C37.9279 28.1732 37.677 27.9684 37.3298 27.9207C36.9876 27.8708 36.4702 27.9046 35.7776 28.0222C34.9939 28.149 34.3376 28.2124 33.8088 28.2125C33.2828 28.2054 32.8191 28.1005 32.4175 27.8977C32.0159 27.6948 31.7163 27.3623 31.5188 26.8999C31.3428 26.4879 31.2996 26.0458 31.3891 25.5738C31.4786 25.1017 31.7159 24.6557 32.101 24.2356C32.489 23.8084 33.0222 23.4499 33.7007 23.1601C34.2333 22.9326 34.7344 22.7839 35.2037 22.7142C35.6781 22.6423 36.0957 22.6392 36.4566 22.7049C36.8224 22.7685 37.1265 22.8822 37.3689 23.0461C37.6162 23.2078 37.7861 23.3967 37.8784 23.6128C37.9793 23.849 37.9815 24.0768 37.8851 24.2963C37.7937 24.5136 37.6023 24.6845 37.3108 24.809C37.0998 24.8992 36.8931 24.9162 36.6908 24.8599C36.4936 24.8016 36.2479 24.6926 35.9539 24.533C35.7123 24.3985 35.4601 24.316 35.1976 24.2856C34.935 24.2551 34.6228 24.3172 34.2609 24.4718C33.8891 24.6306 33.6144 24.843 33.4368 25.109C33.2571 25.37 33.2177 25.6186 33.3186 25.8548C33.4109 26.0709 33.5776 26.2106 33.8186 26.2741C34.0575 26.3325 34.3495 26.3414 34.6947 26.3009C35.0399 26.2604 35.5092 26.1907 36.1028 26.0916C36.8075 25.9748 37.4071 25.9385 37.9014 25.9829C38.4008 26.0251 38.8168 26.1505 39.1495 26.3589C39.4851 26.5602 39.7334 26.8493 39.8944 27.2262Z" fill="#A35AAD"/>
</svg>
