<svg width="252" height="56" viewBox="0 0 252 56" fill="none" xmlns="http://www.w3.org/2000/svg">
<path d="M0 8C0 3.58172 3.58172 0 8 0H244C248.418 0 252 3.58172 252 8V48C252 52.4183 248.418 56 244 56H8C3.58172 56 0 52.4183 0 48V8Z" fill="#8B3D99"/>
<path d="M40.69 19H29.36C28.06 19 27 20.06 27 21.36V34.63C27 35.94 28.06 37 29.36 37H40.69C42 37 43.05 35.94 43.05 34.64V21.36C43.05 20.06 42 19 40.69 19ZM34.22 23.47L32.3 25.39C32.14 25.55 31.92 25.64 31.69 25.64C31.46 25.64 31.24 25.55 31.08 25.38L30.28 24.58C29.94 24.25 29.94 23.69 30.28 23.36C30.6 23.04 31.18 23.04 31.5 23.36L31.69 23.55L33 22.25C33.32 21.92 33.9 21.92 34.22 22.25C34.38 22.41 34.47 22.63 34.47 22.86C34.47 23.09 34.39 23.31 34.22 23.47ZM34.47 27.42C34.47 27.65 34.39 27.86 34.23 28.03L32.31 29.95C32.15 30.11 31.93 30.2 31.7 30.2C31.47 30.2 31.25 30.11 31.09 29.95L30.29 29.15C29.96 28.82 29.96 28.26 30.29 27.93C30.61 27.61 31.19 27.61 31.51 27.93L31.69 28.11L33 26.81C33.32 26.48 33.9 26.48 34.22 26.81C34.38 26.97 34.47 27.19 34.47 27.42ZM30.28 32.17C30.6 31.85 31.18 31.85 31.5 32.17L31.69 32.36L33 31.05C33.32 30.73 33.9 30.73 34.22 31.05C34.38 31.22 34.47 31.43 34.47 31.66C34.47 31.89 34.39 32.1 34.22 32.27L32.3 34.19C32.13 34.35 31.92 34.44 31.69 34.44C31.46 34.44 31.24 34.35 31.08 34.19L30.28 33.39C29.94 33.06 29.94 32.5 30.28 32.17ZM39.4 33.49H35.86C35.38 33.49 34.99 33.1 34.99 32.62C34.99 32.14 35.38 31.75 35.86 31.75H39.4C39.87 31.75 40.26 32.14 40.26 32.62C40.27 33.1 39.88 33.49 39.4 33.49ZM35.86 27.51H39.37C39.85 27.51 40.24 27.9 40.24 28.38C40.24 28.86 39.85 29.25 39.37 29.25H35.86C35.39 29.25 34.99 28.86 34.99 28.38C34.99 27.89 35.38 27.51 35.86 27.51ZM34.99 24.14C34.99 23.66 35.38 23.27 35.86 23.27H39.37C39.85 23.27 40.24 23.66 40.24 24.14C40.24 24.62 39.85 25.01 39.37 25.01H35.86C35.39 25.01 34.99 24.62 34.99 24.14Z" fill="white"/>
<path d="M61.2844 21.625V33H59.3391V21.625H61.2844ZM64.8547 21.625V23.1875H55.8V21.625H64.8547ZM69.2938 33.1562C68.6688 33.1562 68.1036 33.0547 67.5984 32.8516C67.0984 32.6432 66.6714 32.3542 66.3172 31.9844C65.9682 31.6146 65.7 31.1797 65.5125 30.6797C65.325 30.1797 65.2313 29.6406 65.2313 29.0625V28.75C65.2313 28.0885 65.3276 27.4896 65.5203 26.9531C65.713 26.4167 65.9813 25.9583 66.325 25.5781C66.6688 25.1927 67.075 24.8984 67.5438 24.6953C68.0125 24.4922 68.5203 24.3906 69.0672 24.3906C69.6714 24.3906 70.2 24.4922 70.6531 24.6953C71.1063 24.8984 71.4813 25.1849 71.7781 25.5547C72.0802 25.9193 72.3042 26.3542 72.45 26.8594C72.601 27.3646 72.6766 27.9219 72.6766 28.5312V29.3359H66.1453V27.9844H70.8172V27.8359C70.8068 27.4974 70.7391 27.1797 70.6141 26.8828C70.4943 26.5859 70.3094 26.3464 70.0594 26.1641C69.8094 25.9818 69.476 25.8906 69.0594 25.8906C68.7469 25.8906 68.4682 25.9583 68.2234 26.0938C67.9839 26.224 67.7833 26.4141 67.6219 26.6641C67.4604 26.9141 67.3354 27.2161 67.2469 27.5703C67.1635 27.9193 67.1219 28.3125 67.1219 28.75V29.0625C67.1219 29.4323 67.1714 29.776 67.2703 30.0938C67.3745 30.4062 67.5255 30.6797 67.7234 30.9141C67.9214 31.1484 68.1609 31.3333 68.4422 31.4688C68.7234 31.599 69.0438 31.6641 69.4031 31.6641C69.8563 31.6641 70.2599 31.5729 70.6141 31.3906C70.9682 31.2083 71.2755 30.9505 71.5359 30.6172L72.5281 31.5781C72.3458 31.8438 72.1089 32.099 71.8172 32.3438C71.5255 32.5833 71.1688 32.7786 70.7469 32.9297C70.3302 33.0807 69.8458 33.1562 69.2938 33.1562ZM67.9813 23.3516L69.5047 21H71.6297L69.5047 23.3516H67.9813ZM76.1859 26.1562V33H74.3031V24.5469H76.1L76.1859 26.1562ZM78.7719 24.4922L78.7563 26.2422C78.6417 26.2214 78.5167 26.2057 78.3813 26.1953C78.251 26.1849 78.1208 26.1797 77.9906 26.1797C77.6677 26.1797 77.3839 26.2266 77.1391 26.3203C76.8943 26.4089 76.6885 26.5391 76.5219 26.7109C76.3604 26.8776 76.2354 27.0807 76.1469 27.3203C76.0583 27.5599 76.0063 27.8281 75.9906 28.125L75.5609 28.1562C75.5609 27.625 75.613 27.1328 75.7172 26.6797C75.8214 26.2266 75.9776 25.8281 76.1859 25.4844C76.3995 25.1406 76.6651 24.8724 76.9828 24.6797C77.3057 24.487 77.6781 24.3906 78.1 24.3906C78.2146 24.3906 78.337 24.401 78.4672 24.4219C78.6026 24.4427 78.7042 24.4661 78.7719 24.4922ZM81.9844 26.2656V33H80.1016V24.5469H81.875L81.9844 26.2656ZM81.6797 28.4609L81.0391 28.4531C81.0391 27.8698 81.112 27.3307 81.2578 26.8359C81.4036 26.3411 81.6172 25.9115 81.8984 25.5469C82.1797 25.1771 82.5286 24.8932 82.9453 24.6953C83.3672 24.4922 83.8542 24.3906 84.4063 24.3906C84.7917 24.3906 85.1432 24.4479 85.4609 24.5625C85.7839 24.6719 86.0625 24.8464 86.2969 25.0859C86.5365 25.3255 86.7188 25.6328 86.8438 26.0078C86.974 26.3828 87.0391 26.8359 87.0391 27.3672V33H85.1563V27.5312C85.1563 27.1198 85.0938 26.7969 84.9688 26.5625C84.849 26.3281 84.6745 26.1615 84.4453 26.0625C84.2214 25.9583 83.9531 25.9062 83.6406 25.9062C83.2865 25.9062 82.9844 25.974 82.7344 26.1094C82.4896 26.2448 82.2891 26.4297 82.1328 26.6641C81.9766 26.8984 81.862 27.1693 81.7891 27.4766C81.7161 27.7839 81.6797 28.112 81.6797 28.4609ZM86.9219 27.9609L86.0391 28.1562C86.0391 27.6458 86.1094 27.1641 86.25 26.7109C86.3958 26.2526 86.6068 25.8516 86.8828 25.5078C87.1641 25.1589 87.5104 24.8854 87.9219 24.6875C88.3333 24.4896 88.8047 24.3906 89.3359 24.3906C89.7682 24.3906 90.1536 24.4505 90.4922 24.5703C90.8359 24.6849 91.1276 24.8672 91.3672 25.1172C91.6068 25.3672 91.7891 25.6927 91.9141 26.0938C92.0391 26.4896 92.1016 26.9688 92.1016 27.5312V33H90.2109V27.5234C90.2109 27.0964 90.1484 26.7656 90.0234 26.5312C89.9036 26.2969 89.7318 26.1354 89.5078 26.0469C89.2839 25.9531 89.0156 25.9062 88.7031 25.9062C88.4115 25.9062 88.1536 25.9609 87.9297 26.0703C87.7109 26.1745 87.526 26.3229 87.375 26.5156C87.224 26.7031 87.1094 26.9193 87.0313 27.1641C86.9583 27.4089 86.9219 27.6745 86.9219 27.9609ZM96.2047 24.5469V33H94.3141V24.5469H96.2047ZM94.1891 22.3281C94.1891 22.0417 94.2828 21.8047 94.4703 21.6172C94.663 21.4245 94.9286 21.3281 95.2672 21.3281C95.6005 21.3281 95.8635 21.4245 96.0563 21.6172C96.249 21.8047 96.3453 22.0417 96.3453 22.3281C96.3453 22.6094 96.249 22.8438 96.0563 23.0312C95.8635 23.2188 95.6005 23.3125 95.2672 23.3125C94.9286 23.3125 94.663 23.2188 94.4703 23.0312C94.2828 22.8438 94.1891 22.6094 94.1891 22.3281ZM100.284 26.3516V33H98.4016V24.5469H100.175L100.284 26.3516ZM99.9484 28.4609L99.3391 28.4531C99.3443 27.8542 99.4276 27.3047 99.5891 26.8047C99.7557 26.3047 99.9849 25.875 100.277 25.5156C100.573 25.1562 100.928 24.8802 101.339 24.6875C101.751 24.4896 102.209 24.3906 102.714 24.3906C103.12 24.3906 103.488 24.4479 103.816 24.5625C104.149 24.6719 104.433 24.8516 104.667 25.1016C104.907 25.3516 105.089 25.6771 105.214 26.0781C105.339 26.474 105.402 26.9609 105.402 27.5391V33H103.511V27.5312C103.511 27.125 103.451 26.8047 103.331 26.5703C103.217 26.3307 103.047 26.1615 102.823 26.0625C102.605 25.9583 102.331 25.9062 102.003 25.9062C101.68 25.9062 101.391 25.974 101.136 26.1094C100.881 26.2448 100.665 26.4297 100.488 26.6641C100.316 26.8984 100.183 27.1693 100.089 27.4766C99.9953 27.7839 99.9484 28.112 99.9484 28.4609ZM107.114 28.8672V28.6875C107.114 28.0781 107.203 27.513 107.38 26.9922C107.557 26.4661 107.812 26.0104 108.145 25.625C108.484 25.2344 108.895 24.9323 109.38 24.7188C109.869 24.5 110.421 24.3906 111.036 24.3906C111.656 24.3906 112.208 24.5 112.692 24.7188C113.182 24.9323 113.596 25.2344 113.934 25.625C114.273 26.0104 114.531 26.4661 114.708 26.9922C114.885 27.513 114.973 28.0781 114.973 28.6875V28.8672C114.973 29.4766 114.885 30.0417 114.708 30.5625C114.531 31.0833 114.273 31.5391 113.934 31.9297C113.596 32.3151 113.184 32.6172 112.7 32.8359C112.216 33.0495 111.666 33.1562 111.052 33.1562C110.432 33.1562 109.877 33.0495 109.388 32.8359C108.903 32.6172 108.492 32.3151 108.153 31.9297C107.815 31.5391 107.557 31.0833 107.38 30.5625C107.203 30.0417 107.114 29.4766 107.114 28.8672ZM108.997 28.6875V28.8672C108.997 29.2474 109.036 29.6068 109.114 29.9453C109.192 30.2839 109.315 30.5807 109.481 30.8359C109.648 31.0911 109.861 31.2917 110.122 31.4375C110.382 31.5833 110.692 31.6562 111.052 31.6562C111.401 31.6562 111.703 31.5833 111.958 31.4375C112.218 31.2917 112.432 31.0911 112.598 30.8359C112.765 30.5807 112.888 30.2839 112.966 29.9453C113.049 29.6068 113.091 29.2474 113.091 28.8672V28.6875C113.091 28.3125 113.049 27.9583 112.966 27.625C112.888 27.2865 112.763 26.987 112.591 26.7266C112.424 26.4661 112.21 26.263 111.95 26.1172C111.695 25.9661 111.39 25.8906 111.036 25.8906C110.682 25.8906 110.374 25.9661 110.114 26.1172C109.859 26.263 109.648 26.4661 109.481 26.7266C109.315 26.987 109.192 27.2865 109.114 27.625C109.036 27.9583 108.997 28.3125 108.997 28.6875ZM121.444 30.7109C121.444 30.5234 121.397 30.3542 121.303 30.2031C121.209 30.0469 121.03 29.9062 120.764 29.7812C120.504 29.6562 120.118 29.5417 119.608 29.4375C119.16 29.3385 118.748 29.2214 118.373 29.0859C118.004 28.9453 117.686 28.776 117.42 28.5781C117.155 28.3802 116.949 28.1458 116.803 27.875C116.657 27.6042 116.584 27.2917 116.584 26.9375C116.584 26.5938 116.66 26.2682 116.811 25.9609C116.962 25.6536 117.178 25.3828 117.459 25.1484C117.741 24.9141 118.082 24.7292 118.483 24.5938C118.889 24.4583 119.342 24.3906 119.842 24.3906C120.551 24.3906 121.157 24.5104 121.663 24.75C122.173 24.9844 122.564 25.3047 122.834 25.7109C123.105 26.112 123.241 26.5651 123.241 27.0703H121.358C121.358 26.8464 121.301 26.638 121.186 26.4453C121.077 26.2474 120.91 26.0885 120.686 25.9688C120.462 25.8438 120.181 25.7812 119.842 25.7812C119.519 25.7812 119.251 25.8333 119.038 25.9375C118.829 26.0365 118.673 26.1667 118.569 26.3281C118.47 26.4896 118.42 26.6667 118.42 26.8594C118.42 27 118.446 27.1276 118.498 27.2422C118.556 27.3516 118.649 27.4531 118.78 27.5469C118.91 27.6354 119.087 27.7188 119.311 27.7969C119.54 27.875 119.827 27.9505 120.17 28.0234C120.816 28.1589 121.371 28.3333 121.834 28.5469C122.303 28.7552 122.663 29.026 122.913 29.3594C123.163 29.6875 123.288 30.1042 123.288 30.6094C123.288 30.9844 123.207 31.3281 123.045 31.6406C122.889 31.9479 122.66 32.2161 122.358 32.4453C122.056 32.6693 121.694 32.8438 121.272 32.9688C120.855 33.0938 120.386 33.1562 119.866 33.1562C119.1 33.1562 118.452 33.0208 117.92 32.75C117.389 32.474 116.985 32.1224 116.709 31.6953C116.439 31.263 116.303 30.8151 116.303 30.3516H118.123C118.144 30.7005 118.241 30.9792 118.413 31.1875C118.59 31.3906 118.808 31.5391 119.069 31.6328C119.334 31.7214 119.608 31.7656 119.889 31.7656C120.228 31.7656 120.511 31.7214 120.741 31.6328C120.97 31.5391 121.144 31.4141 121.264 31.2578C121.384 31.0964 121.444 30.9141 121.444 30.7109ZM131.673 32.0781L133.97 24.5469H135.986L132.595 34.2891C132.517 34.4974 132.416 34.724 132.291 34.9688C132.166 35.2135 132.002 35.4453 131.798 35.6641C131.601 35.888 131.353 36.0677 131.056 36.2031C130.759 36.3438 130.4 36.4141 129.978 36.4141C129.811 36.4141 129.65 36.3984 129.494 36.3672C129.343 36.3411 129.199 36.3125 129.064 36.2812L129.056 34.8438C129.108 34.849 129.171 34.8542 129.244 34.8594C129.322 34.8646 129.384 34.8672 129.431 34.8672C129.744 34.8672 130.004 34.8281 130.213 34.75C130.421 34.6771 130.59 34.5573 130.72 34.3906C130.856 34.224 130.97 34 131.064 33.7188L131.673 32.0781ZM130.377 24.5469L132.384 30.875L132.72 32.8594L131.416 33.1953L128.345 24.5469H130.377ZM144.802 31.6562C145.109 31.6562 145.385 31.5964 145.63 31.4766C145.88 31.3516 146.08 31.1797 146.231 30.9609C146.388 30.7422 146.473 30.4896 146.489 30.2031H148.263C148.252 30.75 148.091 31.2474 147.778 31.6953C147.466 32.1432 147.052 32.5 146.536 32.7656C146.02 33.026 145.45 33.1562 144.825 33.1562C144.179 33.1562 143.617 33.0469 143.138 32.8281C142.658 32.6042 142.26 32.2969 141.942 31.9062C141.624 31.5156 141.385 31.0651 141.223 30.5547C141.067 30.0443 140.989 29.4974 140.989 28.9141V28.6406C140.989 28.0573 141.067 27.5104 141.223 27C141.385 26.4844 141.624 26.0312 141.942 25.6406C142.26 25.25 142.658 24.9453 143.138 24.7266C143.617 24.5026 144.177 24.3906 144.817 24.3906C145.494 24.3906 146.088 24.526 146.598 24.7969C147.109 25.0625 147.51 25.4349 147.802 25.9141C148.098 26.388 148.252 26.9401 148.263 27.5703H146.489C146.473 27.2578 146.395 26.9766 146.255 26.7266C146.119 26.4714 145.927 26.2682 145.677 26.1172C145.432 25.9661 145.138 25.8906 144.794 25.8906C144.414 25.8906 144.098 25.9688 143.848 26.125C143.598 26.276 143.403 26.4844 143.263 26.75C143.122 27.0104 143.02 27.3047 142.958 27.6328C142.901 27.9557 142.872 28.2917 142.872 28.6406V28.9141C142.872 29.263 142.901 29.6016 142.958 29.9297C143.015 30.2578 143.114 30.5521 143.255 30.8125C143.401 31.0677 143.598 31.2734 143.848 31.4297C144.098 31.5807 144.416 31.6562 144.802 31.6562ZM149.498 28.8672V28.6875C149.498 28.0781 149.587 27.513 149.764 26.9922C149.941 26.4661 150.196 26.0104 150.53 25.625C150.868 25.2344 151.28 24.9323 151.764 24.7188C152.254 24.5 152.806 24.3906 153.42 24.3906C154.04 24.3906 154.592 24.5 155.077 24.7188C155.566 24.9323 155.98 25.2344 156.319 25.625C156.657 26.0104 156.915 26.4661 157.092 26.9922C157.269 27.513 157.358 28.0781 157.358 28.6875V28.8672C157.358 29.4766 157.269 30.0417 157.092 30.5625C156.915 31.0833 156.657 31.5391 156.319 31.9297C155.98 32.3151 155.569 32.6172 155.084 32.8359C154.6 33.0495 154.051 33.1562 153.436 33.1562C152.816 33.1562 152.261 33.0495 151.772 32.8359C151.288 32.6172 150.876 32.3151 150.538 31.9297C150.199 31.5391 149.941 31.0833 149.764 30.5625C149.587 30.0417 149.498 29.4766 149.498 28.8672ZM151.381 28.6875V28.8672C151.381 29.2474 151.42 29.6068 151.498 29.9453C151.577 30.2839 151.699 30.5807 151.866 30.8359C152.032 31.0911 152.246 31.2917 152.506 31.4375C152.767 31.5833 153.077 31.6562 153.436 31.6562C153.785 31.6562 154.087 31.5833 154.342 31.4375C154.603 31.2917 154.816 31.0911 154.983 30.8359C155.149 30.5807 155.272 30.2839 155.35 29.9453C155.433 29.6068 155.475 29.2474 155.475 28.8672V28.6875C155.475 28.3125 155.433 27.9583 155.35 27.625C155.272 27.2865 155.147 26.987 154.975 26.7266C154.808 26.4661 154.595 26.263 154.334 26.1172C154.079 25.9661 153.774 25.8906 153.42 25.8906C153.066 25.8906 152.759 25.9661 152.498 26.1172C152.243 26.263 152.032 26.4661 151.866 26.7266C151.699 26.987 151.577 27.2865 151.498 27.625C151.42 27.9583 151.381 28.3125 151.381 28.6875ZM160.953 26.3516V33H159.07V24.5469H160.844L160.953 26.3516ZM160.617 28.4609L160.008 28.4531C160.013 27.8542 160.096 27.3047 160.258 26.8047C160.424 26.3047 160.654 25.875 160.945 25.5156C161.242 25.1562 161.596 24.8802 162.008 24.6875C162.419 24.4896 162.878 24.3906 163.383 24.3906C163.789 24.3906 164.156 24.4479 164.484 24.5625C164.818 24.6719 165.102 24.8516 165.336 25.1016C165.576 25.3516 165.758 25.6771 165.883 26.0781C166.008 26.474 166.07 26.9609 166.07 27.5391V33H164.18V27.5312C164.18 27.125 164.12 26.8047 164 26.5703C163.885 26.3307 163.716 26.1615 163.492 26.0625C163.273 25.9583 163 25.9062 162.672 25.9062C162.349 25.9062 162.06 25.974 161.805 26.1094C161.549 26.2448 161.333 26.4297 161.156 26.6641C160.984 26.8984 160.852 27.1693 160.758 27.4766C160.664 27.7839 160.617 28.112 160.617 28.4609ZM173.298 31.25V21H175.189V33H173.478L173.298 31.25ZM167.798 28.8672V28.7031C167.798 28.0625 167.874 27.4792 168.025 26.9531C168.176 26.4219 168.395 25.9661 168.681 25.5859C168.968 25.2005 169.317 24.9062 169.728 24.7031C170.14 24.4948 170.603 24.3906 171.119 24.3906C171.629 24.3906 172.077 24.4896 172.463 24.6875C172.848 24.8854 173.176 25.1693 173.447 25.5391C173.718 25.9036 173.934 26.3411 174.095 26.8516C174.257 27.3568 174.371 27.9193 174.439 28.5391V29.0625C174.371 29.6667 174.257 30.2188 174.095 30.7188C173.934 31.2188 173.718 31.651 173.447 32.0156C173.176 32.3802 172.845 32.6615 172.455 32.8594C172.069 33.0573 171.619 33.1562 171.103 33.1562C170.593 33.1562 170.132 33.0495 169.72 32.8359C169.314 32.6224 168.968 32.3229 168.681 31.9375C168.395 31.5521 168.176 31.099 168.025 30.5781C167.874 30.0521 167.798 29.4818 167.798 28.8672ZM169.681 28.7031V28.8672C169.681 29.2526 169.715 29.612 169.783 29.9453C169.856 30.2786 169.968 30.5729 170.119 30.8281C170.27 31.0781 170.465 31.276 170.705 31.4219C170.949 31.5625 171.241 31.6328 171.58 31.6328C172.007 31.6328 172.358 31.5391 172.634 31.3516C172.91 31.1641 173.127 30.9115 173.283 30.5938C173.444 30.2708 173.554 29.9115 173.611 29.5156V28.1016C173.58 27.7943 173.515 27.5078 173.416 27.2422C173.322 26.9766 173.194 26.7448 173.033 26.5469C172.871 26.3438 172.671 26.1875 172.431 26.0781C172.197 25.9635 171.918 25.9062 171.595 25.9062C171.252 25.9062 170.96 25.9792 170.72 26.125C170.481 26.2708 170.283 26.4714 170.127 26.7266C169.976 26.9818 169.864 27.2786 169.791 27.6172C169.718 27.9557 169.681 28.3177 169.681 28.7031ZM179.323 24.5469V33H177.433V24.5469H179.323ZM177.308 22.3281C177.308 22.0417 177.402 21.8047 177.589 21.6172C177.782 21.4245 178.047 21.3281 178.386 21.3281C178.719 21.3281 178.982 21.4245 179.175 21.6172C179.368 21.8047 179.464 22.0417 179.464 22.3281C179.464 22.6094 179.368 22.8438 179.175 23.0312C178.982 23.2188 178.719 23.3125 178.386 23.3125C178.047 23.3125 177.782 23.2188 177.589 23.0312C177.402 22.8438 177.308 22.6094 177.308 22.3281ZM184.989 31.6562C185.296 31.6562 185.572 31.5964 185.817 31.4766C186.067 31.3516 186.268 31.1797 186.419 30.9609C186.575 30.7422 186.661 30.4896 186.677 30.2031H188.45C188.44 30.75 188.278 31.2474 187.966 31.6953C187.653 32.1432 187.239 32.5 186.723 32.7656C186.208 33.026 185.638 33.1562 185.013 33.1562C184.367 33.1562 183.804 33.0469 183.325 32.8281C182.846 32.6042 182.447 32.2969 182.13 31.9062C181.812 31.5156 181.572 31.0651 181.411 30.5547C181.255 30.0443 181.177 29.4974 181.177 28.9141V28.6406C181.177 28.0573 181.255 27.5104 181.411 27C181.572 26.4844 181.812 26.0312 182.13 25.6406C182.447 25.25 182.846 24.9453 183.325 24.7266C183.804 24.5026 184.364 24.3906 185.005 24.3906C185.682 24.3906 186.276 24.526 186.786 24.7969C187.296 25.0625 187.697 25.4349 187.989 25.9141C188.286 26.388 188.44 26.9401 188.45 27.5703H186.677C186.661 27.2578 186.583 26.9766 186.442 26.7266C186.307 26.4714 186.114 26.2682 185.864 26.1172C185.619 25.9661 185.325 25.8906 184.981 25.8906C184.601 25.8906 184.286 25.9688 184.036 26.125C183.786 26.276 183.591 26.4844 183.45 26.75C183.309 27.0104 183.208 27.3047 183.145 27.6328C183.088 27.9557 183.059 28.2917 183.059 28.6406V28.9141C183.059 29.263 183.088 29.6016 183.145 29.9297C183.203 30.2578 183.302 30.5521 183.442 30.8125C183.588 31.0677 183.786 31.2734 184.036 31.4297C184.286 31.5807 184.604 31.6562 184.989 31.6562ZM192.061 24.5469V33H190.17V24.5469H192.061ZM190.045 22.3281C190.045 22.0417 190.139 21.8047 190.327 21.6172C190.519 21.4245 190.785 21.3281 191.123 21.3281C191.457 21.3281 191.72 21.4245 191.913 21.6172C192.105 21.8047 192.202 22.0417 192.202 22.3281C192.202 22.6094 192.105 22.8438 191.913 23.0312C191.72 23.2188 191.457 23.3125 191.123 23.3125C190.785 23.3125 190.519 23.2188 190.327 23.0312C190.139 22.8438 190.045 22.6094 190.045 22.3281ZM193.914 28.8672V28.6875C193.914 28.0781 194.003 27.513 194.18 26.9922C194.357 26.4661 194.612 26.0104 194.945 25.625C195.284 25.2344 195.695 24.9323 196.18 24.7188C196.669 24.5 197.221 24.3906 197.836 24.3906C198.456 24.3906 199.008 24.5 199.492 24.7188C199.982 24.9323 200.396 25.2344 200.734 25.625C201.073 26.0104 201.331 26.4661 201.508 26.9922C201.685 27.513 201.773 28.0781 201.773 28.6875V28.8672C201.773 29.4766 201.685 30.0417 201.508 30.5625C201.331 31.0833 201.073 31.5391 200.734 31.9297C200.396 32.3151 199.984 32.6172 199.5 32.8359C199.016 33.0495 198.466 33.1562 197.852 33.1562C197.232 33.1562 196.677 33.0495 196.188 32.8359C195.703 32.6172 195.292 32.3151 194.953 31.9297C194.615 31.5391 194.357 31.0833 194.18 30.5625C194.003 30.0417 193.914 29.4766 193.914 28.8672ZM195.797 28.6875V28.8672C195.797 29.2474 195.836 29.6068 195.914 29.9453C195.992 30.2839 196.115 30.5807 196.281 30.8359C196.448 31.0911 196.661 31.2917 196.922 31.4375C197.182 31.5833 197.492 31.6562 197.852 31.6562C198.201 31.6562 198.503 31.5833 198.758 31.4375C199.018 31.2917 199.232 31.0911 199.398 30.8359C199.565 30.5807 199.688 30.2839 199.766 29.9453C199.849 29.6068 199.891 29.2474 199.891 28.8672V28.6875C199.891 28.3125 199.849 27.9583 199.766 27.625C199.688 27.2865 199.562 26.987 199.391 26.7266C199.224 26.4661 199.01 26.263 198.75 26.1172C198.495 25.9661 198.19 25.8906 197.836 25.8906C197.482 25.8906 197.174 25.9661 196.914 26.1172C196.659 26.263 196.448 26.4661 196.281 26.7266C196.115 26.987 195.992 27.2865 195.914 27.625C195.836 27.9583 195.797 28.3125 195.797 28.6875ZM205.369 26.3516V33H203.486V24.5469H205.259L205.369 26.3516ZM205.033 28.4609L204.423 28.4531C204.429 27.8542 204.512 27.3047 204.673 26.8047C204.84 26.3047 205.069 25.875 205.361 25.5156C205.658 25.1562 206.012 24.8802 206.423 24.6875C206.835 24.4896 207.293 24.3906 207.798 24.3906C208.205 24.3906 208.572 24.4479 208.9 24.5625C209.233 24.6719 209.517 24.8516 209.752 25.1016C209.991 25.3516 210.173 25.6771 210.298 26.0781C210.423 26.474 210.486 26.9609 210.486 27.5391V33H208.595V27.5312C208.595 27.125 208.535 26.8047 208.416 26.5703C208.301 26.3307 208.132 26.1615 207.908 26.0625C207.689 25.9583 207.416 25.9062 207.088 25.9062C206.765 25.9062 206.476 25.974 206.22 26.1094C205.965 26.2448 205.749 26.4297 205.572 26.6641C205.4 26.8984 205.267 27.1693 205.173 27.4766C205.08 27.7839 205.033 28.112 205.033 28.4609ZM216.284 33.1562C215.659 33.1562 215.094 33.0547 214.589 32.8516C214.089 32.6432 213.662 32.3542 213.308 31.9844C212.959 31.6146 212.691 31.1797 212.503 30.6797C212.316 30.1797 212.222 29.6406 212.222 29.0625V28.75C212.222 28.0885 212.318 27.4896 212.511 26.9531C212.704 26.4167 212.972 25.9583 213.316 25.5781C213.659 25.1927 214.066 24.8984 214.534 24.6953C215.003 24.4922 215.511 24.3906 216.058 24.3906C216.662 24.3906 217.191 24.4922 217.644 24.6953C218.097 24.8984 218.472 25.1849 218.769 25.5547C219.071 25.9193 219.295 26.3542 219.441 26.8594C219.592 27.3646 219.667 27.9219 219.667 28.5312V29.3359H213.136V27.9844H217.808V27.8359C217.797 27.4974 217.73 27.1797 217.605 26.8828C217.485 26.5859 217.3 26.3464 217.05 26.1641C216.8 25.9818 216.467 25.8906 216.05 25.8906C215.738 25.8906 215.459 25.9583 215.214 26.0938C214.974 26.224 214.774 26.4141 214.613 26.6641C214.451 26.9141 214.326 27.2161 214.238 27.5703C214.154 27.9193 214.113 28.3125 214.113 28.75V29.0625C214.113 29.4323 214.162 29.776 214.261 30.0938C214.365 30.4062 214.516 30.6797 214.714 30.9141C214.912 31.1484 215.152 31.3333 215.433 31.4688C215.714 31.599 216.034 31.6641 216.394 31.6641C216.847 31.6641 217.251 31.5729 217.605 31.3906C217.959 31.2083 218.266 30.9505 218.527 30.6172L219.519 31.5781C219.336 31.8438 219.099 32.099 218.808 32.3438C218.516 32.5833 218.159 32.7786 217.738 32.9297C217.321 33.0807 216.836 33.1562 216.284 33.1562ZM226.028 30.7109C226.028 30.5234 225.981 30.3542 225.887 30.2031C225.794 30.0469 225.614 29.9062 225.348 29.7812C225.088 29.6562 224.703 29.5417 224.192 29.4375C223.744 29.3385 223.333 29.2214 222.958 29.0859C222.588 28.9453 222.27 28.776 222.005 28.5781C221.739 28.3802 221.533 28.1458 221.387 27.875C221.242 27.6042 221.169 27.2917 221.169 26.9375C221.169 26.5938 221.244 26.2682 221.395 25.9609C221.546 25.6536 221.762 25.3828 222.044 25.1484C222.325 24.9141 222.666 24.7292 223.067 24.5938C223.473 24.4583 223.927 24.3906 224.427 24.3906C225.135 24.3906 225.742 24.5104 226.247 24.75C226.757 24.9844 227.148 25.3047 227.419 25.7109C227.69 26.112 227.825 26.5651 227.825 27.0703H225.942C225.942 26.8464 225.885 26.638 225.77 26.4453C225.661 26.2474 225.494 26.0885 225.27 25.9688C225.046 25.8438 224.765 25.7812 224.427 25.7812C224.104 25.7812 223.835 25.8333 223.622 25.9375C223.414 26.0365 223.257 26.1667 223.153 26.3281C223.054 26.4896 223.005 26.6667 223.005 26.8594C223.005 27 223.031 27.1276 223.083 27.2422C223.14 27.3516 223.234 27.4531 223.364 27.5469C223.494 27.6354 223.671 27.7188 223.895 27.7969C224.124 27.875 224.411 27.9505 224.755 28.0234C225.401 28.1589 225.955 28.3333 226.419 28.5469C226.887 28.7552 227.247 29.026 227.497 29.3594C227.747 29.6875 227.872 30.1042 227.872 30.6094C227.872 30.9844 227.791 31.3281 227.63 31.6406C227.473 31.9479 227.244 32.2161 226.942 32.4453C226.64 32.6693 226.278 32.8438 225.856 32.9688C225.44 33.0938 224.971 33.1562 224.45 33.1562C223.684 33.1562 223.036 33.0208 222.505 32.75C221.973 32.474 221.57 32.1224 221.294 31.6953C221.023 31.263 220.887 30.8151 220.887 30.3516H222.708C222.729 30.7005 222.825 30.9792 222.997 31.1875C223.174 31.3906 223.393 31.5391 223.653 31.6328C223.919 31.7214 224.192 31.7656 224.473 31.7656C224.812 31.7656 225.096 31.7214 225.325 31.6328C225.554 31.5391 225.729 31.4141 225.848 31.2578C225.968 31.0964 226.028 30.9141 226.028 30.7109Z" fill="white"/>
</svg>
