<svg width="328" height="45" viewBox="0 0 328 45" fill="none" xmlns="http://www.w3.org/2000/svg">
<path d="M0 8.66895C0 4.25067 3.58172 0.668945 8 0.668945H320C324.418 0.668945 328 4.25067 328 8.66895V36.6689C328 41.0872 324.418 44.6689 320 44.6689H7.99999C3.58171 44.6689 0 41.0872 0 36.6689V8.66895Z" fill="#8B3D99"/>
<path d="M91.2416 15.1689H81.7999C80.7166 15.1689 79.8333 16.0523 79.8333 17.1356V28.1939C79.8333 29.2856 80.7166 30.1689 81.7999 30.1689H91.2416C92.3333 30.1689 93.2083 29.2856 93.2083 28.2023V17.1356C93.2083 16.0523 92.3333 15.1689 91.2416 15.1689ZM85.8499 18.8939L84.2499 20.4939C84.1166 20.6273 83.9333 20.7023 83.7416 20.7023C83.5499 20.7023 83.3666 20.6273 83.2333 20.4856L82.5666 19.8189C82.2833 19.5439 82.2833 19.0773 82.5666 18.8023C82.8333 18.5356 83.3166 18.5356 83.5833 18.8023L83.7416 18.9606L84.8333 17.8773C85.0999 17.6023 85.5833 17.6023 85.8499 17.8773C85.9833 18.0106 86.0583 18.1939 86.0583 18.3856C86.0583 18.5773 85.9916 18.7606 85.8499 18.8939ZM86.0583 22.1856C86.0583 22.3773 85.9916 22.5523 85.8583 22.6939L84.2583 24.2939C84.1249 24.4273 83.9416 24.5023 83.7499 24.5023C83.5583 24.5023 83.3749 24.4273 83.2416 24.2939L82.5749 23.6273C82.2999 23.3523 82.2999 22.8856 82.5749 22.6106C82.8416 22.3439 83.3249 22.3439 83.5916 22.6106L83.7416 22.7606L84.8333 21.6773C85.0999 21.4023 85.5833 21.4023 85.8499 21.6773C85.9833 21.8106 86.0583 21.9939 86.0583 22.1856ZM82.5666 26.1439C82.8333 25.8773 83.3166 25.8773 83.5833 26.1439L83.7416 26.3023L84.8333 25.2106C85.0999 24.9439 85.5833 24.9439 85.8499 25.2106C85.9833 25.3523 86.0583 25.5273 86.0583 25.7189C86.0583 25.9106 85.9916 26.0856 85.8499 26.2273L84.2499 27.8273C84.1083 27.9606 83.9333 28.0356 83.7416 28.0356C83.5499 28.0356 83.3666 27.9606 83.2333 27.8273L82.5666 27.1606C82.2833 26.8856 82.2833 26.4189 82.5666 26.1439ZM90.1666 27.2439H87.2166C86.8166 27.2439 86.4916 26.9189 86.4916 26.5189C86.4916 26.1189 86.8166 25.7939 87.2166 25.7939H90.1666C90.5583 25.7939 90.8833 26.1189 90.8833 26.5189C90.8916 26.9189 90.5666 27.2439 90.1666 27.2439ZM87.2166 22.2606H90.1416C90.5416 22.2606 90.8666 22.5856 90.8666 22.9856C90.8666 23.3856 90.5416 23.7106 90.1416 23.7106H87.2166C86.8249 23.7106 86.4916 23.3856 86.4916 22.9856C86.4916 22.5773 86.8166 22.2606 87.2166 22.2606ZM86.4916 19.4523C86.4916 19.0523 86.8166 18.7273 87.2166 18.7273H90.1416C90.5416 18.7273 90.8666 19.0523 90.8666 19.4523C90.8666 19.8523 90.5416 20.1773 90.1416 20.1773H87.2166C86.8249 20.1773 86.4916 19.8523 86.4916 19.4523Z" fill="white"/>
<path d="M105.702 17.7158V27.6689H104V17.7158H105.702ZM108.826 17.7158V19.083H100.903V17.7158H108.826ZM112.679 27.8057C112.132 27.8057 111.638 27.7168 111.196 27.5391C110.758 27.3568 110.384 27.1038 110.074 26.7803C109.769 26.4567 109.534 26.0762 109.37 25.6387C109.206 25.2012 109.124 24.7295 109.124 24.2236V23.9502C109.124 23.3714 109.209 22.8473 109.377 22.3779C109.546 21.9085 109.78 21.5075 110.081 21.1748C110.382 20.8376 110.737 20.5801 111.148 20.4023C111.558 20.2246 112.002 20.1357 112.481 20.1357C113.009 20.1357 113.472 20.2246 113.868 20.4023C114.265 20.5801 114.593 20.8307 114.853 21.1543C115.117 21.4733 115.313 21.8538 115.441 22.2959C115.573 22.738 115.639 23.2256 115.639 23.7588V24.4629H109.924V23.2803H114.012V23.1504C114.003 22.8542 113.944 22.5762 113.834 22.3164C113.729 22.0566 113.568 21.847 113.349 21.6875C113.13 21.528 112.838 21.4482 112.474 21.4482C112.2 21.4482 111.957 21.5075 111.742 21.626C111.533 21.7399 111.357 21.9062 111.216 22.125C111.075 22.3438 110.965 22.6081 110.888 22.918C110.815 23.2233 110.779 23.5674 110.779 23.9502V24.2236C110.779 24.5472 110.822 24.848 110.908 25.126C111 25.3994 111.132 25.6387 111.305 25.8438C111.478 26.0488 111.688 26.2106 111.934 26.3291C112.18 26.443 112.46 26.5 112.775 26.5C113.171 26.5 113.524 26.4202 113.834 26.2607C114.144 26.1012 114.413 25.8757 114.641 25.584L115.509 26.4248C115.349 26.6572 115.142 26.8805 114.887 27.0947C114.632 27.3044 114.32 27.4753 113.95 27.6074C113.586 27.7396 113.162 27.8057 112.679 27.8057ZM111.53 19.2266L112.863 17.1689H114.723L112.863 19.2266H111.53ZM118.678 21.6807V27.6689H117.031V20.2725H118.603L118.678 21.6807ZM120.941 20.2246L120.927 21.7559C120.827 21.7376 120.718 21.724 120.599 21.7148C120.485 21.7057 120.371 21.7012 120.257 21.7012C119.975 21.7012 119.726 21.7422 119.512 21.8242C119.298 21.9017 119.118 22.0156 118.972 22.166C118.831 22.3118 118.722 22.4896 118.644 22.6992C118.567 22.9089 118.521 23.1436 118.507 23.4033L118.131 23.4307C118.131 22.9658 118.177 22.5352 118.268 22.1387C118.359 21.7422 118.496 21.3936 118.678 21.0928C118.865 20.792 119.098 20.5573 119.376 20.3887C119.658 20.2201 119.984 20.1357 120.353 20.1357C120.453 20.1357 120.56 20.1449 120.674 20.1631C120.793 20.1813 120.882 20.2018 120.941 20.2246ZM123.721 21.7764V27.6689H122.073V20.2725H123.625L123.721 21.7764ZM123.454 23.6973L122.894 23.6904C122.894 23.18 122.957 22.7083 123.085 22.2754C123.213 21.8424 123.399 21.4665 123.646 21.1475C123.892 20.8239 124.197 20.5755 124.562 20.4023C124.931 20.2246 125.357 20.1357 125.84 20.1357C126.177 20.1357 126.485 20.1859 126.763 20.2861C127.045 20.3818 127.289 20.5345 127.494 20.7441C127.704 20.9538 127.863 21.2227 127.973 21.5508C128.087 21.8789 128.144 22.2754 128.144 22.7402V27.6689H126.496V22.8838C126.496 22.5238 126.441 22.2412 126.332 22.0361C126.227 21.8311 126.075 21.6852 125.874 21.5986C125.678 21.5075 125.443 21.4619 125.17 21.4619C124.86 21.4619 124.596 21.5212 124.377 21.6396C124.163 21.7581 123.987 21.9199 123.851 22.125C123.714 22.3301 123.614 22.5671 123.55 22.8359C123.486 23.1048 123.454 23.3919 123.454 23.6973ZM128.041 23.2598L127.269 23.4307C127.269 22.984 127.33 22.5625 127.453 22.166C127.581 21.765 127.765 21.4141 128.007 21.1133C128.253 20.8079 128.556 20.5687 128.916 20.3955C129.276 20.2223 129.688 20.1357 130.153 20.1357C130.532 20.1357 130.869 20.1882 131.165 20.293C131.466 20.3932 131.721 20.5527 131.931 20.7715C132.14 20.9902 132.3 21.2751 132.409 21.626C132.519 21.9723 132.573 22.3916 132.573 22.8838V27.6689H130.919V22.877C130.919 22.5033 130.864 22.2139 130.755 22.0088C130.65 21.8037 130.5 21.6624 130.304 21.585C130.108 21.5029 129.873 21.4619 129.6 21.4619C129.344 21.4619 129.119 21.5098 128.923 21.6055C128.731 21.6966 128.57 21.8265 128.437 21.9951C128.305 22.1592 128.205 22.3483 128.137 22.5625C128.073 22.7767 128.041 23.0091 128.041 23.2598ZM136.132 20.2725V27.6689H134.478V20.2725H136.132ZM134.369 18.3311C134.369 18.0804 134.451 17.873 134.615 17.709C134.783 17.5404 135.016 17.4561 135.312 17.4561C135.604 17.4561 135.834 17.5404 136.002 17.709C136.171 17.873 136.255 18.0804 136.255 18.3311C136.255 18.5771 136.171 18.7822 136.002 18.9463C135.834 19.1104 135.604 19.1924 135.312 19.1924C135.016 19.1924 134.783 19.1104 134.615 18.9463C134.451 18.7822 134.369 18.5771 134.369 18.3311ZM139.671 21.8516V27.6689H138.023V20.2725H139.575L139.671 21.8516ZM139.377 23.6973L138.844 23.6904C138.848 23.1663 138.921 22.6855 139.062 22.248C139.208 21.8105 139.409 21.4346 139.664 21.1201C139.924 20.8057 140.234 20.5641 140.594 20.3955C140.954 20.2223 141.355 20.1357 141.797 20.1357C142.152 20.1357 142.473 20.1859 142.761 20.2861C143.052 20.3818 143.301 20.5391 143.506 20.7578C143.715 20.9766 143.875 21.2614 143.984 21.6123C144.094 21.9587 144.148 22.3848 144.148 22.8906V27.6689H142.494V22.8838C142.494 22.5283 142.442 22.248 142.337 22.043C142.236 21.8333 142.088 21.6852 141.892 21.5986C141.701 21.5075 141.462 21.4619 141.175 21.4619C140.892 21.4619 140.639 21.5212 140.416 21.6396C140.193 21.7581 140.003 21.9199 139.848 22.125C139.698 22.3301 139.582 22.5671 139.5 22.8359C139.418 23.1048 139.377 23.3919 139.377 23.6973ZM145.615 24.0527V23.8955C145.615 23.3623 145.693 22.8678 145.848 22.4121C146.003 21.9518 146.226 21.5531 146.518 21.2158C146.814 20.874 147.174 20.6097 147.598 20.4229C148.026 20.2314 148.509 20.1357 149.047 20.1357C149.589 20.1357 150.072 20.2314 150.496 20.4229C150.925 20.6097 151.287 20.874 151.583 21.2158C151.879 21.5531 152.105 21.9518 152.26 22.4121C152.415 22.8678 152.492 23.3623 152.492 23.8955V24.0527C152.492 24.5859 152.415 25.0804 152.26 25.5361C152.105 25.9919 151.879 26.3906 151.583 26.7324C151.287 27.0697 150.927 27.334 150.503 27.5254C150.079 27.7122 149.598 27.8057 149.061 27.8057C148.518 27.8057 148.033 27.7122 147.605 27.5254C147.181 27.334 146.821 27.0697 146.525 26.7324C146.228 26.3906 146.003 25.9919 145.848 25.5361C145.693 25.0804 145.615 24.5859 145.615 24.0527ZM147.263 23.8955V24.0527C147.263 24.3854 147.297 24.6999 147.365 24.9961C147.434 25.2923 147.541 25.5521 147.687 25.7754C147.833 25.9987 148.019 26.1742 148.247 26.3018C148.475 26.4294 148.746 26.4932 149.061 26.4932C149.366 26.4932 149.63 26.4294 149.854 26.3018C150.082 26.1742 150.268 25.9987 150.414 25.7754C150.56 25.5521 150.667 25.2923 150.736 24.9961C150.808 24.6999 150.845 24.3854 150.845 24.0527V23.8955C150.845 23.5674 150.808 23.2575 150.736 22.9658C150.667 22.6696 150.558 22.4076 150.407 22.1797C150.262 21.9518 150.075 21.7741 149.847 21.6465C149.624 21.5143 149.357 21.4482 149.047 21.4482C148.737 21.4482 148.468 21.5143 148.24 21.6465C148.017 21.7741 147.833 21.9518 147.687 22.1797C147.541 22.4076 147.434 22.6696 147.365 22.9658C147.297 23.2575 147.263 23.5674 147.263 23.8955ZM158.123 25.666C158.123 25.502 158.082 25.3538 158 25.2217C157.918 25.085 157.76 24.9619 157.528 24.8525C157.3 24.7432 156.963 24.6429 156.516 24.5518C156.124 24.4652 155.764 24.3626 155.436 24.2441C155.113 24.1211 154.835 23.973 154.602 23.7998C154.37 23.6266 154.19 23.4215 154.062 23.1846C153.935 22.9476 153.871 22.6742 153.871 22.3643C153.871 22.0635 153.937 21.7786 154.069 21.5098C154.201 21.2409 154.39 21.0039 154.636 20.7988C154.882 20.5938 155.181 20.432 155.532 20.3135C155.887 20.195 156.284 20.1357 156.721 20.1357C157.341 20.1357 157.872 20.2406 158.314 20.4502C158.761 20.6553 159.102 20.9355 159.339 21.291C159.576 21.6419 159.695 22.0384 159.695 22.4805H158.047C158.047 22.2845 157.997 22.1022 157.897 21.9336C157.801 21.7604 157.656 21.6214 157.46 21.5166C157.264 21.4072 157.018 21.3525 156.721 21.3525C156.439 21.3525 156.204 21.3981 156.017 21.4893C155.835 21.5758 155.698 21.6898 155.607 21.8311C155.52 21.9723 155.477 22.1273 155.477 22.2959C155.477 22.4189 155.5 22.5306 155.546 22.6309C155.596 22.7266 155.678 22.8154 155.792 22.8975C155.906 22.9749 156.06 23.0479 156.256 23.1162C156.457 23.1846 156.708 23.2507 157.008 23.3145C157.574 23.4329 158.059 23.5856 158.464 23.7725C158.875 23.9548 159.189 24.1917 159.408 24.4834C159.627 24.7705 159.736 25.1351 159.736 25.5771C159.736 25.9053 159.665 26.2061 159.524 26.4795C159.387 26.7484 159.187 26.9831 158.922 27.1836C158.658 27.3796 158.341 27.5322 157.972 27.6416C157.608 27.751 157.198 27.8057 156.742 27.8057C156.072 27.8057 155.504 27.6872 155.04 27.4502C154.575 27.2087 154.222 26.901 153.98 26.5273C153.743 26.1491 153.625 25.7572 153.625 25.3516H155.217C155.236 25.6569 155.32 25.9007 155.47 26.083C155.625 26.2607 155.817 26.3906 156.045 26.4727C156.277 26.5501 156.516 26.5889 156.762 26.5889C157.059 26.5889 157.307 26.5501 157.507 26.4727C157.708 26.3906 157.861 26.2812 157.965 26.1445C158.07 26.0033 158.123 25.8438 158.123 25.666ZM167.011 26.8623L169.021 20.2725H170.785L167.818 28.7969C167.749 28.9792 167.661 29.1774 167.551 29.3916C167.442 29.6058 167.298 29.8086 167.121 30C166.947 30.196 166.731 30.3532 166.471 30.4717C166.211 30.5947 165.897 30.6562 165.528 30.6562C165.382 30.6562 165.241 30.6426 165.104 30.6152C164.972 30.5924 164.846 30.5674 164.728 30.54L164.721 29.2822C164.767 29.2868 164.821 29.2913 164.885 29.2959C164.954 29.3005 165.008 29.3027 165.049 29.3027C165.323 29.3027 165.551 29.2686 165.733 29.2002C165.915 29.1364 166.063 29.0316 166.177 28.8857C166.296 28.7399 166.396 28.5439 166.478 28.2979L167.011 26.8623ZM165.876 20.2725L167.633 25.8096L167.927 27.5459L166.786 27.8398L164.099 20.2725H165.876ZM178.436 26.4932C178.705 26.4932 178.946 26.4408 179.16 26.3359C179.379 26.2266 179.555 26.0762 179.687 25.8848C179.823 25.6934 179.899 25.4723 179.912 25.2217H181.464C181.455 25.7002 181.314 26.1354 181.04 26.5273C180.767 26.9193 180.404 27.2314 179.953 27.4639C179.502 27.6917 179.003 27.8057 178.456 27.8057C177.891 27.8057 177.399 27.71 176.98 27.5186C176.56 27.3226 176.212 27.0537 175.934 26.7119C175.656 26.3701 175.446 25.9759 175.305 25.5293C175.168 25.0827 175.1 24.6042 175.1 24.0938V23.8545C175.1 23.3441 175.168 22.8656 175.305 22.4189C175.446 21.9678 175.656 21.5713 175.934 21.2295C176.212 20.8877 176.56 20.6211 176.98 20.4297C177.399 20.2337 177.889 20.1357 178.449 20.1357C179.042 20.1357 179.561 20.2542 180.008 20.4912C180.455 20.7236 180.806 21.0495 181.061 21.4688C181.321 21.8835 181.455 22.3665 181.464 22.918H179.912C179.899 22.6445 179.83 22.3984 179.707 22.1797C179.589 21.9564 179.42 21.7786 179.201 21.6465C178.987 21.5143 178.73 21.4482 178.429 21.4482C178.096 21.4482 177.821 21.5166 177.602 21.6533C177.383 21.7855 177.212 21.9678 177.089 22.2002C176.966 22.4281 176.877 22.6855 176.822 22.9727C176.772 23.2552 176.747 23.5492 176.747 23.8545V24.0938C176.747 24.3991 176.772 24.6953 176.822 24.9824C176.873 25.2695 176.959 25.527 177.082 25.7549C177.21 25.9782 177.383 26.1582 177.602 26.2949C177.821 26.4271 178.098 26.4932 178.436 26.4932ZM182.514 24.0527V23.8955C182.514 23.3623 182.592 22.8678 182.747 22.4121C182.902 21.9518 183.125 21.5531 183.417 21.2158C183.713 20.874 184.073 20.6097 184.497 20.4229C184.925 20.2314 185.408 20.1357 185.946 20.1357C186.488 20.1357 186.971 20.2314 187.395 20.4229C187.823 20.6097 188.186 20.874 188.482 21.2158C188.778 21.5531 189.004 21.9518 189.159 22.4121C189.314 22.8678 189.391 23.3623 189.391 23.8955V24.0527C189.391 24.5859 189.314 25.0804 189.159 25.5361C189.004 25.9919 188.778 26.3906 188.482 26.7324C188.186 27.0697 187.826 27.334 187.402 27.5254C186.978 27.7122 186.497 27.8057 185.96 27.8057C185.417 27.8057 184.932 27.7122 184.504 27.5254C184.08 27.334 183.72 27.0697 183.423 26.7324C183.127 26.3906 182.902 25.9919 182.747 25.5361C182.592 25.0804 182.514 24.5859 182.514 24.0527ZM184.162 23.8955V24.0527C184.162 24.3854 184.196 24.6999 184.264 24.9961C184.333 25.2923 184.44 25.5521 184.586 25.7754C184.731 25.9987 184.918 26.1742 185.146 26.3018C185.374 26.4294 185.645 26.4932 185.96 26.4932C186.265 26.4932 186.529 26.4294 186.753 26.3018C186.98 26.1742 187.167 25.9987 187.313 25.7754C187.459 25.5521 187.566 25.2923 187.634 24.9961C187.707 24.6999 187.744 24.3854 187.744 24.0527V23.8955C187.744 23.5674 187.707 23.2575 187.634 22.9658C187.566 22.6696 187.457 22.4076 187.306 22.1797C187.16 21.9518 186.974 21.7741 186.746 21.6465C186.522 21.5143 186.256 21.4482 185.946 21.4482C185.636 21.4482 185.367 21.5143 185.139 21.6465C184.916 21.7741 184.731 21.9518 184.586 22.1797C184.44 22.4076 184.333 22.6696 184.264 22.9658C184.196 23.2575 184.162 23.5674 184.162 23.8955ZM192.506 21.8516V27.6689H190.858V20.2725H192.41L192.506 21.8516ZM192.212 23.6973L191.679 23.6904C191.683 23.1663 191.756 22.6855 191.897 22.248C192.043 21.8105 192.244 21.4346 192.499 21.1201C192.759 20.8057 193.069 20.5641 193.429 20.3955C193.789 20.2223 194.19 20.1357 194.632 20.1357C194.987 20.1357 195.309 20.1859 195.596 20.2861C195.887 20.3818 196.136 20.5391 196.341 20.7578C196.55 20.9766 196.71 21.2614 196.819 21.6123C196.929 21.9587 196.983 22.3848 196.983 22.8906V27.6689H195.329V22.8838C195.329 22.5283 195.277 22.248 195.172 22.043C195.072 21.8333 194.924 21.6852 194.728 21.5986C194.536 21.5075 194.297 21.4619 194.01 21.4619C193.727 21.4619 193.474 21.5212 193.251 21.6396C193.028 21.7581 192.839 21.9199 192.684 22.125C192.533 22.3301 192.417 22.5671 192.335 22.8359C192.253 23.1048 192.212 23.3919 192.212 23.6973ZM203.277 26.1377V17.1689H204.931V27.6689H203.434L203.277 26.1377ZM198.464 24.0527V23.9092C198.464 23.3486 198.53 22.8382 198.662 22.3779C198.795 21.9131 198.986 21.5143 199.237 21.1816C199.487 20.8444 199.793 20.5869 200.153 20.4092C200.513 20.2269 200.918 20.1357 201.37 20.1357C201.816 20.1357 202.208 20.2223 202.545 20.3955C202.883 20.5687 203.17 20.8171 203.407 21.1406C203.644 21.4596 203.833 21.8424 203.974 22.2891C204.115 22.7311 204.216 23.2233 204.275 23.7656V24.2236C204.216 24.7523 204.115 25.2354 203.974 25.6729C203.833 26.1104 203.644 26.4886 203.407 26.8076C203.17 27.1266 202.88 27.3727 202.538 27.5459C202.201 27.7191 201.807 27.8057 201.356 27.8057C200.909 27.8057 200.506 27.7122 200.146 27.5254C199.79 27.3385 199.487 27.0765 199.237 26.7393C198.986 26.402 198.795 26.0055 198.662 25.5498C198.53 25.0895 198.464 24.5905 198.464 24.0527ZM200.112 23.9092V24.0527C200.112 24.39 200.141 24.7044 200.201 24.9961C200.264 25.2878 200.362 25.5452 200.495 25.7686C200.627 25.9873 200.798 26.1605 201.007 26.2881C201.221 26.4111 201.477 26.4727 201.773 26.4727C202.147 26.4727 202.454 26.3906 202.696 26.2266C202.937 26.0625 203.126 25.8415 203.263 25.5635C203.404 25.2809 203.5 24.9665 203.55 24.6201V23.3828C203.523 23.1139 203.466 22.8633 203.379 22.6309C203.297 22.3984 203.186 22.1956 203.044 22.0225C202.903 21.8447 202.728 21.708 202.518 21.6123C202.313 21.512 202.069 21.4619 201.787 21.4619C201.486 21.4619 201.231 21.5257 201.021 21.6533C200.811 21.7809 200.638 21.9564 200.501 22.1797C200.369 22.403 200.271 22.6628 200.207 22.959C200.144 23.2552 200.112 23.5719 200.112 23.9092ZM208.517 20.2725V27.6689H206.863V20.2725H208.517ZM206.754 18.3311C206.754 18.0804 206.836 17.873 207 17.709C207.168 17.5404 207.401 17.4561 207.697 17.4561C207.989 17.4561 208.219 17.5404 208.387 17.709C208.556 17.873 208.64 18.0804 208.64 18.3311C208.64 18.5771 208.556 18.7822 208.387 18.9463C208.219 19.1104 207.989 19.1924 207.697 19.1924C207.401 19.1924 207.168 19.1104 207 18.9463C206.836 18.7822 206.754 18.5771 206.754 18.3311ZM213.444 26.4932C213.712 26.4932 213.954 26.4408 214.168 26.3359C214.387 26.2266 214.562 26.0762 214.695 25.8848C214.831 25.6934 214.906 25.4723 214.92 25.2217H216.472C216.463 25.7002 216.321 26.1354 216.048 26.5273C215.775 26.9193 215.412 27.2314 214.961 27.4639C214.51 27.6917 214.011 27.8057 213.464 27.8057C212.899 27.8057 212.407 27.71 211.987 27.5186C211.568 27.3226 211.22 27.0537 210.942 26.7119C210.664 26.3701 210.454 25.9759 210.313 25.5293C210.176 25.0827 210.108 24.6042 210.108 24.0938V23.8545C210.108 23.3441 210.176 22.8656 210.313 22.4189C210.454 21.9678 210.664 21.5713 210.942 21.2295C211.22 20.8877 211.568 20.6211 211.987 20.4297C212.407 20.2337 212.897 20.1357 213.457 20.1357C214.05 20.1357 214.569 20.2542 215.016 20.4912C215.462 20.7236 215.813 21.0495 216.069 21.4688C216.328 21.8835 216.463 22.3665 216.472 22.918H214.92C214.906 22.6445 214.838 22.3984 214.715 22.1797C214.597 21.9564 214.428 21.7786 214.209 21.6465C213.995 21.5143 213.737 21.4482 213.437 21.4482C213.104 21.4482 212.828 21.5166 212.61 21.6533C212.391 21.7855 212.22 21.9678 212.097 22.2002C211.974 22.4281 211.885 22.6855 211.83 22.9727C211.78 23.2552 211.755 23.5492 211.755 23.8545V24.0938C211.755 24.3991 211.78 24.6953 211.83 24.9824C211.88 25.2695 211.967 25.527 212.09 25.7549C212.218 25.9782 212.391 26.1582 212.61 26.2949C212.828 26.4271 213.106 26.4932 213.444 26.4932ZM219.6 20.2725V27.6689H217.946V20.2725H219.6ZM217.837 18.3311C217.837 18.0804 217.919 17.873 218.083 17.709C218.251 17.5404 218.484 17.4561 218.78 17.4561C219.072 17.4561 219.302 17.5404 219.47 17.709C219.639 17.873 219.723 18.0804 219.723 18.3311C219.723 18.5771 219.639 18.7822 219.47 18.9463C219.302 19.1104 219.072 19.1924 218.78 19.1924C218.484 19.1924 218.251 19.1104 218.083 18.9463C217.919 18.7822 217.837 18.5771 217.837 18.3311ZM221.19 24.0527V23.8955C221.19 23.3623 221.268 22.8678 221.423 22.4121C221.578 21.9518 221.801 21.5531 222.093 21.2158C222.389 20.874 222.749 20.6097 223.173 20.4229C223.601 20.2314 224.084 20.1357 224.622 20.1357C225.164 20.1357 225.647 20.2314 226.071 20.4229C226.5 20.6097 226.862 20.874 227.158 21.2158C227.454 21.5531 227.68 21.9518 227.835 22.4121C227.99 22.8678 228.067 23.3623 228.067 23.8955V24.0527C228.067 24.5859 227.99 25.0804 227.835 25.5361C227.68 25.9919 227.454 26.3906 227.158 26.7324C226.862 27.0697 226.502 27.334 226.078 27.5254C225.654 27.7122 225.174 27.8057 224.636 27.8057C224.093 27.8057 223.608 27.7122 223.18 27.5254C222.756 27.334 222.396 27.0697 222.1 26.7324C221.803 26.3906 221.578 25.9919 221.423 25.5361C221.268 25.0804 221.19 24.5859 221.19 24.0527ZM222.838 23.8955V24.0527C222.838 24.3854 222.872 24.6999 222.94 24.9961C223.009 25.2923 223.116 25.5521 223.262 25.7754C223.408 25.9987 223.594 26.1742 223.822 26.3018C224.05 26.4294 224.321 26.4932 224.636 26.4932C224.941 26.4932 225.205 26.4294 225.429 26.3018C225.657 26.1742 225.843 25.9987 225.989 25.7754C226.135 25.5521 226.242 25.2923 226.311 24.9961C226.383 24.6999 226.42 24.3854 226.42 24.0527V23.8955C226.42 23.5674 226.383 23.2575 226.311 22.9658C226.242 22.6696 226.133 22.4076 225.982 22.1797C225.837 21.9518 225.65 21.7741 225.422 21.6465C225.199 21.5143 224.932 21.4482 224.622 21.4482C224.312 21.4482 224.043 21.5143 223.815 21.6465C223.592 21.7741 223.408 21.9518 223.262 22.1797C223.116 22.4076 223.009 22.6696 222.94 22.9658C222.872 23.2575 222.838 23.5674 222.838 23.8955ZM231.182 21.8516V27.6689H229.535V20.2725H231.086L231.182 21.8516ZM230.888 23.6973L230.355 23.6904C230.359 23.1663 230.432 22.6855 230.574 22.248C230.719 21.8105 230.92 21.4346 231.175 21.1201C231.435 20.8057 231.745 20.5641 232.105 20.3955C232.465 20.2223 232.866 20.1357 233.308 20.1357C233.663 20.1357 233.985 20.1859 234.272 20.2861C234.564 20.3818 234.812 20.5391 235.017 20.7578C235.227 20.9766 235.386 21.2614 235.495 21.6123C235.605 21.9587 235.66 22.3848 235.66 22.8906V27.6689H234.005V22.8838C234.005 22.5283 233.953 22.248 233.848 22.043C233.748 21.8333 233.6 21.6852 233.404 21.5986C233.212 21.5075 232.973 21.4619 232.686 21.4619C232.403 21.4619 232.15 21.5212 231.927 21.6396C231.704 21.7581 231.515 21.9199 231.36 22.125C231.209 22.3301 231.093 22.5671 231.011 22.8359C230.929 23.1048 230.888 23.3919 230.888 23.6973ZM240.702 27.8057C240.155 27.8057 239.661 27.7168 239.219 27.5391C238.781 27.3568 238.407 27.1038 238.097 26.7803C237.792 26.4567 237.557 26.0762 237.393 25.6387C237.229 25.2012 237.147 24.7295 237.147 24.2236V23.9502C237.147 23.3714 237.232 22.8473 237.4 22.3779C237.569 21.9085 237.804 21.5075 238.104 21.1748C238.405 20.8376 238.761 20.5801 239.171 20.4023C239.581 20.2246 240.025 20.1357 240.504 20.1357C241.032 20.1357 241.495 20.2246 241.891 20.4023C242.288 20.5801 242.616 20.8307 242.876 21.1543C243.14 21.4733 243.336 21.8538 243.464 22.2959C243.596 22.738 243.662 23.2256 243.662 23.7588V24.4629H237.947V23.2803H242.035V23.1504C242.026 22.8542 241.967 22.5762 241.857 22.3164C241.752 22.0566 241.591 21.847 241.372 21.6875C241.153 21.528 240.861 21.4482 240.497 21.4482C240.223 21.4482 239.98 21.5075 239.765 21.626C239.556 21.7399 239.38 21.9062 239.239 22.125C239.098 22.3438 238.988 22.6081 238.911 22.918C238.838 23.2233 238.802 23.5674 238.802 23.9502V24.2236C238.802 24.5472 238.845 24.848 238.931 25.126C239.023 25.3994 239.155 25.6387 239.328 25.8438C239.501 26.0488 239.711 26.2106 239.957 26.3291C240.203 26.443 240.483 26.5 240.798 26.5C241.194 26.5 241.547 26.4202 241.857 26.2607C242.167 26.1012 242.436 25.8757 242.664 25.584L243.532 26.4248C243.373 26.6572 243.165 26.8805 242.91 27.0947C242.655 27.3044 242.343 27.4753 241.973 27.6074C241.609 27.7396 241.185 27.8057 240.702 27.8057ZM249.196 25.666C249.196 25.502 249.155 25.3538 249.073 25.2217C248.991 25.085 248.834 24.9619 248.602 24.8525C248.374 24.7432 248.037 24.6429 247.59 24.5518C247.198 24.4652 246.838 24.3626 246.51 24.2441C246.186 24.1211 245.908 23.973 245.676 23.7998C245.444 23.6266 245.264 23.4215 245.136 23.1846C245.008 22.9476 244.945 22.6742 244.945 22.3643C244.945 22.0635 245.011 21.7786 245.143 21.5098C245.275 21.2409 245.464 21.0039 245.71 20.7988C245.956 20.5938 246.255 20.432 246.606 20.3135C246.961 20.195 247.358 20.1357 247.795 20.1357C248.415 20.1357 248.946 20.2406 249.388 20.4502C249.835 20.6553 250.176 20.9355 250.413 21.291C250.65 21.6419 250.769 22.0384 250.769 22.4805H249.121C249.121 22.2845 249.071 22.1022 248.971 21.9336C248.875 21.7604 248.729 21.6214 248.533 21.5166C248.337 21.4072 248.091 21.3525 247.795 21.3525C247.513 21.3525 247.278 21.3981 247.091 21.4893C246.909 21.5758 246.772 21.6898 246.681 21.8311C246.594 21.9723 246.551 22.1273 246.551 22.2959C246.551 22.4189 246.574 22.5306 246.619 22.6309C246.669 22.7266 246.752 22.8154 246.865 22.8975C246.979 22.9749 247.134 23.0479 247.33 23.1162C247.531 23.1846 247.781 23.2507 248.082 23.3145C248.647 23.4329 249.133 23.5856 249.538 23.7725C249.948 23.9548 250.263 24.1917 250.482 24.4834C250.7 24.7705 250.81 25.1351 250.81 25.5771C250.81 25.9053 250.739 26.2061 250.598 26.4795C250.461 26.7484 250.261 26.9831 249.996 27.1836C249.732 27.3796 249.415 27.5322 249.046 27.6416C248.682 27.751 248.271 27.8057 247.816 27.8057C247.146 27.8057 246.578 27.6872 246.113 27.4502C245.649 27.2087 245.295 26.901 245.054 26.5273C244.817 26.1491 244.698 25.7572 244.698 25.3516H246.291C246.309 25.6569 246.394 25.9007 246.544 26.083C246.699 26.2607 246.89 26.3906 247.118 26.4727C247.351 26.5501 247.59 26.5889 247.836 26.5889C248.132 26.5889 248.381 26.5501 248.581 26.4727C248.782 26.3906 248.934 26.2812 249.039 26.1445C249.144 26.0033 249.196 25.8438 249.196 25.666Z" fill="white"/>
</svg>
