<?xml version="1.0" encoding="utf-8"?>
<svg viewBox="0 0 312 57" fill="none" xmlns="http://www.w3.org/2000/svg">
    <rect y="0.368652" width="312" height="56" rx="8" fill="#8B3D99"/>
    <path d="M68.69 19.3687H57.36C56.06 19.3687 55 20.4287 55 21.7287V34.9987C55 36.3087 56.06 37.3687 57.36 37.3687H68.69C70 37.3687 71.05 36.3087 71.05 35.0087V21.7287C71.05 20.4287 70 19.3687 68.69 19.3687ZM62.22 23.8387L60.3 25.7587C60.14 25.9187 59.92 26.0087 59.69 26.0087C59.46 26.0087 59.24 25.9187 59.08 25.7487L58.28 24.9487C57.94 24.6187 57.94 24.0587 58.28 23.7287C58.6 23.4087 59.18 23.4087 59.5 23.7287L59.69 23.9187L61 22.6187C61.32 22.2887 61.9 22.2887 62.22 22.6187C62.38 22.7787 62.47 22.9987 62.47 23.2287C62.47 23.4587 62.39 23.6787 62.22 23.8387ZM62.47 27.7887C62.47 28.0187 62.39 28.2287 62.23 28.3987L60.31 30.3187C60.15 30.4787 59.93 30.5687 59.7 30.5687C59.47 30.5687 59.25 30.4787 59.09 30.3187L58.29 29.5187C57.96 29.1887 57.96 28.6287 58.29 28.2987C58.61 27.9787 59.19 27.9787 59.51 28.2987L59.69 28.4787L61 27.1787C61.32 26.8487 61.9 26.8487 62.22 27.1787C62.38 27.3387 62.47 27.5587 62.47 27.7887ZM58.28 32.5387C58.6 32.2187 59.18 32.2187 59.5 32.5387L59.69 32.7287L61 31.4187C61.32 31.0987 61.9 31.0987 62.22 31.4187C62.38 31.5887 62.47 31.7987 62.47 32.0287C62.47 32.2587 62.39 32.4687 62.22 32.6387L60.3 34.5587C60.13 34.7187 59.92 34.8087 59.69 34.8087C59.46 34.8087 59.24 34.7187 59.08 34.5587L58.28 33.7587C57.94 33.4287 57.94 32.8687 58.28 32.5387ZM67.4 33.8587H63.86C63.38 33.8587 62.99 33.4687 62.99 32.9887C62.99 32.5087 63.38 32.1187 63.86 32.1187H67.4C67.87 32.1187 68.26 32.5087 68.26 32.9887C68.27 33.4687 67.88 33.8587 67.4 33.8587ZM63.86 27.8787H67.37C67.85 27.8787 68.24 28.2687 68.24 28.7487C68.24 29.2287 67.85 29.6187 67.37 29.6187H63.86C63.39 29.6187 62.99 29.2287 62.99 28.7487C62.99 28.2587 63.38 27.8787 63.86 27.8787ZM62.99 24.5087C62.99 24.0287 63.38 23.6387 63.86 23.6387H67.37C67.85 23.6387 68.24 24.0287 68.24 24.5087C68.24 24.9887 67.85 25.3787 67.37 25.3787H63.86C63.39 25.3787 62.99 24.9887 62.99 24.5087Z" fill="white"/>
    <path d="M89.0266 21.9937V33.3687H87.0813V21.9937H89.0266ZM92.5969 21.9937V23.5562H83.5422V21.9937H92.5969ZM97.0359 33.5249C96.4109 33.5249 95.8458 33.4233 95.3406 33.2202C94.8406 33.0119 94.4135 32.7228 94.0594 32.353C93.7104 31.9832 93.4422 31.5483 93.2547 31.0483C93.0672 30.5483 92.9734 30.0093 92.9734 29.4312V29.1187C92.9734 28.4572 93.0698 27.8582 93.2625 27.3218C93.4552 26.7853 93.7234 26.327 94.0672 25.9468C94.4109 25.5614 94.8172 25.2671 95.2859 25.064C95.7547 24.8608 96.2625 24.7593 96.8094 24.7593C97.4135 24.7593 97.9422 24.8608 98.3953 25.064C98.8484 25.2671 99.2234 25.5535 99.5203 25.9233C99.8224 26.2879 100.046 26.7228 100.192 27.228C100.343 27.7332 100.419 28.2905 100.419 28.8999V29.7046H93.8875V28.353H98.5594V28.2046C98.549 27.866 98.4813 27.5483 98.3563 27.2515C98.2365 26.9546 98.0516 26.715 97.8016 26.5327C97.5516 26.3504 97.2182 26.2593 96.8016 26.2593C96.4891 26.2593 96.2104 26.327 95.9656 26.4624C95.726 26.5926 95.5255 26.7827 95.3641 27.0327C95.2026 27.2827 95.0776 27.5848 94.9891 27.939C94.9057 28.2879 94.8641 28.6812 94.8641 29.1187V29.4312C94.8641 29.8009 94.9135 30.1447 95.0125 30.4624C95.1167 30.7749 95.2677 31.0483 95.4656 31.2827C95.6635 31.5171 95.9031 31.702 96.1844 31.8374C96.4656 31.9676 96.7859 32.0327 97.1453 32.0327C97.5984 32.0327 98.0021 31.9416 98.3563 31.7593C98.7104 31.577 99.0177 31.3192 99.2781 30.9858L100.27 31.9468C100.088 32.2124 99.851 32.4676 99.5594 32.7124C99.2677 32.952 98.9109 33.1473 98.4891 33.2983C98.0724 33.4494 97.588 33.5249 97.0359 33.5249ZM103.928 26.5249V33.3687H102.045V24.9155H103.842L103.928 26.5249ZM106.514 24.8608L106.498 26.6108C106.384 26.59 106.259 26.5744 106.123 26.564C105.993 26.5535 105.863 26.5483 105.733 26.5483C105.41 26.5483 105.126 26.5952 104.881 26.689C104.636 26.7775 104.431 26.9077 104.264 27.0796C104.103 27.2463 103.978 27.4494 103.889 27.689C103.801 27.9285 103.748 28.1968 103.733 28.4937L103.303 28.5249C103.303 27.9937 103.355 27.5015 103.459 27.0483C103.564 26.5952 103.72 26.1968 103.928 25.853C104.142 25.5093 104.407 25.241 104.725 25.0483C105.048 24.8556 105.42 24.7593 105.842 24.7593C105.957 24.7593 106.079 24.7697 106.209 24.7905C106.345 24.8114 106.446 24.8348 106.514 24.8608ZM109.727 26.6343V33.3687H107.844V24.9155H109.617L109.727 26.6343ZM109.422 28.8296L108.781 28.8218C108.781 28.2384 108.854 27.6994 109 27.2046C109.146 26.7098 109.359 26.2801 109.641 25.9155C109.922 25.5457 110.271 25.2619 110.688 25.064C111.109 24.8608 111.596 24.7593 112.148 24.7593C112.534 24.7593 112.885 24.8166 113.203 24.9312C113.526 25.0405 113.805 25.215 114.039 25.4546C114.279 25.6942 114.461 26.0015 114.586 26.3765C114.716 26.7515 114.781 27.2046 114.781 27.7358V33.3687H112.898V27.8999C112.898 27.4884 112.836 27.1655 112.711 26.9312C112.591 26.6968 112.417 26.5301 112.188 26.4312C111.964 26.327 111.695 26.2749 111.383 26.2749C111.029 26.2749 110.727 26.3426 110.477 26.478C110.232 26.6134 110.031 26.7983 109.875 27.0327C109.719 27.2671 109.604 27.5379 109.531 27.8452C109.458 28.1525 109.422 28.4806 109.422 28.8296ZM114.664 28.3296L113.781 28.5249C113.781 28.0145 113.852 27.5327 113.992 27.0796C114.138 26.6213 114.349 26.2202 114.625 25.8765C114.906 25.5275 115.253 25.2541 115.664 25.0562C116.076 24.8582 116.547 24.7593 117.078 24.7593C117.51 24.7593 117.896 24.8192 118.234 24.939C118.578 25.0535 118.87 25.2358 119.109 25.4858C119.349 25.7358 119.531 26.0614 119.656 26.4624C119.781 26.8582 119.844 27.3374 119.844 27.8999V33.3687H117.953V27.8921C117.953 27.465 117.891 27.1343 117.766 26.8999C117.646 26.6655 117.474 26.5041 117.25 26.4155C117.026 26.3218 116.758 26.2749 116.445 26.2749C116.154 26.2749 115.896 26.3296 115.672 26.439C115.453 26.5431 115.268 26.6916 115.117 26.8843C114.966 27.0718 114.852 27.2879 114.773 27.5327C114.701 27.7775 114.664 28.0431 114.664 28.3296ZM123.947 24.9155V33.3687H122.056V24.9155H123.947ZM121.931 22.6968C121.931 22.4103 122.025 22.1733 122.213 21.9858C122.405 21.7931 122.671 21.6968 123.009 21.6968C123.343 21.6968 123.606 21.7931 123.798 21.9858C123.991 22.1733 124.088 22.4103 124.088 22.6968C124.088 22.978 123.991 23.2124 123.798 23.3999C123.606 23.5874 123.343 23.6812 123.009 23.6812C122.671 23.6812 122.405 23.5874 122.213 23.3999C122.025 23.2124 121.931 22.978 121.931 22.6968ZM128.027 26.7202V33.3687H126.144V24.9155H127.917L128.027 26.7202ZM127.691 28.8296L127.081 28.8218C127.086 28.2228 127.17 27.6733 127.331 27.1733C127.498 26.6733 127.727 26.2437 128.019 25.8843C128.316 25.5249 128.67 25.2489 129.081 25.0562C129.493 24.8582 129.951 24.7593 130.456 24.7593C130.863 24.7593 131.23 24.8166 131.558 24.9312C131.891 25.0405 132.175 25.2202 132.409 25.4702C132.649 25.7202 132.831 26.0457 132.956 26.4468C133.081 26.8426 133.144 27.3296 133.144 27.9077V33.3687H131.253V27.8999C131.253 27.4937 131.193 27.1733 131.073 26.939C130.959 26.6994 130.79 26.5301 130.566 26.4312C130.347 26.327 130.073 26.2749 129.745 26.2749C129.422 26.2749 129.133 26.3426 128.878 26.478C128.623 26.6134 128.407 26.7983 128.23 27.0327C128.058 27.2671 127.925 27.5379 127.831 27.8452C127.738 28.1525 127.691 28.4806 127.691 28.8296ZM134.856 29.2358V29.0562C134.856 28.4468 134.945 27.8817 135.122 27.3608C135.299 26.8348 135.554 26.3791 135.888 25.9937C136.226 25.603 136.638 25.3009 137.122 25.0874C137.611 24.8687 138.164 24.7593 138.778 24.7593C139.398 24.7593 139.95 24.8687 140.434 25.0874C140.924 25.3009 141.338 25.603 141.677 25.9937C142.015 26.3791 142.273 26.8348 142.45 27.3608C142.627 27.8817 142.716 28.4468 142.716 29.0562V29.2358C142.716 29.8452 142.627 30.4103 142.45 30.9312C142.273 31.452 142.015 31.9077 141.677 32.2983C141.338 32.6838 140.927 32.9858 140.442 33.2046C139.958 33.4181 139.408 33.5249 138.794 33.5249C138.174 33.5249 137.619 33.4181 137.13 33.2046C136.645 32.9858 136.234 32.6838 135.895 32.2983C135.557 31.9077 135.299 31.452 135.122 30.9312C134.945 30.4103 134.856 29.8452 134.856 29.2358ZM136.739 29.0562V29.2358C136.739 29.616 136.778 29.9754 136.856 30.314C136.934 30.6525 137.057 30.9494 137.223 31.2046C137.39 31.4598 137.604 31.6603 137.864 31.8062C138.124 31.952 138.434 32.0249 138.794 32.0249C139.143 32.0249 139.445 31.952 139.7 31.8062C139.96 31.6603 140.174 31.4598 140.341 31.2046C140.507 30.9494 140.63 30.6525 140.708 30.314C140.791 29.9754 140.833 29.616 140.833 29.2358V29.0562C140.833 28.6812 140.791 28.327 140.708 27.9937C140.63 27.6551 140.505 27.3556 140.333 27.0952C140.166 26.8348 139.953 26.6317 139.692 26.4858C139.437 26.3348 139.132 26.2593 138.778 26.2593C138.424 26.2593 138.117 26.3348 137.856 26.4858C137.601 26.6317 137.39 26.8348 137.223 27.0952C137.057 27.3556 136.934 27.6551 136.856 27.9937C136.778 28.327 136.739 28.6812 136.739 29.0562ZM149.186 31.0796C149.186 30.8921 149.139 30.7228 149.045 30.5718C148.952 30.4155 148.772 30.2749 148.506 30.1499C148.246 30.0249 147.86 29.9103 147.35 29.8062C146.902 29.7072 146.491 29.59 146.116 29.4546C145.746 29.314 145.428 29.1447 145.163 28.9468C144.897 28.7489 144.691 28.5145 144.545 28.2437C144.399 27.9728 144.327 27.6603 144.327 27.3062C144.327 26.9624 144.402 26.6369 144.553 26.3296C144.704 26.0223 144.92 25.7515 145.202 25.5171C145.483 25.2827 145.824 25.0978 146.225 24.9624C146.631 24.827 147.084 24.7593 147.584 24.7593C148.293 24.7593 148.899 24.8791 149.405 25.1187C149.915 25.353 150.306 25.6733 150.577 26.0796C150.847 26.4806 150.983 26.9338 150.983 27.439H149.1C149.1 27.215 149.043 27.0067 148.928 26.814C148.819 26.616 148.652 26.4572 148.428 26.3374C148.204 26.2124 147.923 26.1499 147.584 26.1499C147.261 26.1499 146.993 26.202 146.78 26.3062C146.571 26.4051 146.415 26.5353 146.311 26.6968C146.212 26.8582 146.163 27.0353 146.163 27.228C146.163 27.3687 146.189 27.4963 146.241 27.6108C146.298 27.7202 146.392 27.8218 146.522 27.9155C146.652 28.0041 146.829 28.0874 147.053 28.1655C147.282 28.2437 147.569 28.3192 147.913 28.3921C148.558 28.5275 149.113 28.702 149.577 28.9155C150.045 29.1239 150.405 29.3947 150.655 29.728C150.905 30.0562 151.03 30.4728 151.03 30.978C151.03 31.353 150.949 31.6968 150.788 32.0093C150.631 32.3166 150.402 32.5848 150.1 32.814C149.798 33.0379 149.436 33.2124 149.014 33.3374C148.597 33.4624 148.129 33.5249 147.608 33.5249C146.842 33.5249 146.194 33.3895 145.663 33.1187C145.131 32.8426 144.728 32.491 144.452 32.064C144.181 31.6317 144.045 31.1838 144.045 30.7202H145.866C145.886 31.0692 145.983 31.3478 146.155 31.5562C146.332 31.7593 146.551 31.9077 146.811 32.0015C147.077 32.09 147.35 32.1343 147.631 32.1343C147.97 32.1343 148.254 32.09 148.483 32.0015C148.712 31.9077 148.886 31.7827 149.006 31.6265C149.126 31.465 149.186 31.2827 149.186 31.0796ZM158.908 27.1812L160.869 25.8608C161.197 25.6421 161.431 25.4285 161.572 25.2202C161.713 25.0067 161.783 24.741 161.783 24.4233C161.783 24.1525 161.679 23.9025 161.47 23.6733C161.262 23.4442 160.968 23.3296 160.588 23.3296C160.322 23.3296 160.098 23.3921 159.916 23.5171C159.733 23.6369 159.595 23.7983 159.502 24.0015C159.413 24.1994 159.369 24.4207 159.369 24.6655C159.369 24.8999 159.429 25.1421 159.548 25.3921C159.668 25.6369 159.832 25.8947 160.041 26.1655C160.249 26.4312 160.483 26.7176 160.744 27.0249L166.119 33.3687H163.939L159.548 28.2046C159.168 27.7463 158.832 27.327 158.541 26.9468C158.249 26.5614 158.022 26.189 157.861 25.8296C157.699 25.465 157.619 25.09 157.619 24.7046C157.619 24.1108 157.741 23.6004 157.986 23.1733C158.231 22.7463 158.577 22.4181 159.025 22.189C159.473 21.9546 159.996 21.8374 160.595 21.8374C161.173 21.8374 161.671 21.9546 162.088 22.189C162.509 22.4181 162.832 22.7228 163.056 23.103C163.285 23.4832 163.4 23.8999 163.4 24.353C163.4 24.7124 163.335 25.0405 163.205 25.3374C163.074 25.6343 162.895 25.9051 162.666 26.1499C162.436 26.3947 162.171 26.6265 161.869 26.8452L159.486 28.5796C159.21 28.8035 159.004 29.0197 158.869 29.228C158.739 29.4312 158.653 29.6187 158.611 29.7905C158.569 29.9624 158.548 30.1134 158.548 30.2437C158.548 30.577 158.619 30.8791 158.759 31.1499C158.905 31.4207 159.116 31.6369 159.392 31.7983C159.673 31.9546 160.015 32.0327 160.416 32.0327C160.848 32.0327 161.267 31.9364 161.673 31.7437C162.08 31.5457 162.444 31.2671 162.767 30.9077C163.09 30.5483 163.345 30.1187 163.533 29.6187C163.726 29.1187 163.822 28.564 163.822 27.9546H165.447C165.447 28.5067 165.392 29.0301 165.283 29.5249C165.179 30.0197 165.009 30.478 164.775 30.8999C164.546 31.3218 164.244 31.6994 163.869 32.0327C163.832 32.0692 163.791 32.116 163.744 32.1733C163.702 32.2254 163.66 32.2697 163.619 32.3062C163.171 32.7176 162.668 33.0249 162.111 33.228C161.559 33.4259 160.97 33.5249 160.345 33.5249C159.59 33.5249 158.936 33.3869 158.384 33.1108C157.832 32.8348 157.405 32.4546 157.103 31.9702C156.806 31.4858 156.658 30.9312 156.658 30.3062C156.658 29.8426 156.754 29.4364 156.947 29.0874C157.14 28.7332 157.403 28.4051 157.736 28.103C158.074 27.7957 158.465 27.4884 158.908 27.1812ZM178.419 29.6655H180.372C180.309 30.4103 180.101 31.0744 179.747 31.6577C179.393 32.2358 178.895 32.6916 178.255 33.0249C177.614 33.3582 176.835 33.5249 175.919 33.5249C175.216 33.5249 174.583 33.3999 174.02 33.1499C173.458 32.8947 172.976 32.5353 172.575 32.0718C172.174 31.603 171.867 31.0379 171.653 30.3765C171.445 29.715 171.341 28.9754 171.341 28.1577V27.2124C171.341 26.3947 171.447 25.6551 171.661 24.9937C171.88 24.3322 172.192 23.7671 172.598 23.2983C173.005 22.8244 173.492 22.4624 174.059 22.2124C174.632 21.9624 175.276 21.8374 175.989 21.8374C176.895 21.8374 177.661 22.0041 178.286 22.3374C178.911 22.6707 179.395 23.1317 179.739 23.7202C180.088 24.3088 180.302 24.9832 180.38 25.7437H178.427C178.374 25.2541 178.26 24.8348 178.083 24.4858C177.911 24.1369 177.656 23.8713 177.317 23.689C176.979 23.5015 176.536 23.4077 175.989 23.4077C175.541 23.4077 175.151 23.491 174.817 23.6577C174.484 23.8244 174.205 24.0692 173.981 24.3921C173.757 24.715 173.588 25.1134 173.473 25.5874C173.364 26.0562 173.309 26.5926 173.309 27.1968V28.1577C173.309 28.7306 173.359 29.2515 173.458 29.7202C173.562 30.1838 173.718 30.5822 173.927 30.9155C174.14 31.2489 174.411 31.5067 174.739 31.689C175.067 31.8713 175.46 31.9624 175.919 31.9624C176.476 31.9624 176.927 31.8739 177.27 31.6968C177.619 31.5197 177.882 31.2619 178.059 30.9233C178.242 30.5796 178.361 30.1603 178.419 29.6655ZM181.756 29.2358V29.0562C181.756 28.4468 181.845 27.8817 182.022 27.3608C182.199 26.8348 182.454 26.3791 182.788 25.9937C183.126 25.603 183.538 25.3009 184.022 25.0874C184.511 24.8687 185.064 24.7593 185.678 24.7593C186.298 24.7593 186.85 24.8687 187.334 25.0874C187.824 25.3009 188.238 25.603 188.577 25.9937C188.915 26.3791 189.173 26.8348 189.35 27.3608C189.527 27.8817 189.616 28.4468 189.616 29.0562V29.2358C189.616 29.8452 189.527 30.4103 189.35 30.9312C189.173 31.452 188.915 31.9077 188.577 32.2983C188.238 32.6838 187.827 32.9858 187.342 33.2046C186.858 33.4181 186.308 33.5249 185.694 33.5249C185.074 33.5249 184.519 33.4181 184.03 33.2046C183.545 32.9858 183.134 32.6838 182.795 32.2983C182.457 31.9077 182.199 31.452 182.022 30.9312C181.845 30.4103 181.756 29.8452 181.756 29.2358ZM183.639 29.0562V29.2358C183.639 29.616 183.678 29.9754 183.756 30.314C183.834 30.6525 183.957 30.9494 184.123 31.2046C184.29 31.4598 184.504 31.6603 184.764 31.8062C185.024 31.952 185.334 32.0249 185.694 32.0249C186.043 32.0249 186.345 31.952 186.6 31.8062C186.86 31.6603 187.074 31.4598 187.241 31.2046C187.407 30.9494 187.53 30.6525 187.608 30.314C187.691 29.9754 187.733 29.616 187.733 29.2358V29.0562C187.733 28.6812 187.691 28.327 187.608 27.9937C187.53 27.6551 187.405 27.3556 187.233 27.0952C187.066 26.8348 186.853 26.6317 186.592 26.4858C186.337 26.3348 186.032 26.2593 185.678 26.2593C185.324 26.2593 185.017 26.3348 184.756 26.4858C184.501 26.6317 184.29 26.8348 184.123 27.0952C183.957 27.3556 183.834 27.6551 183.756 27.9937C183.678 28.327 183.639 28.6812 183.639 29.0562ZM193.211 26.7202V33.3687H191.328V24.9155H193.102L193.211 26.7202ZM192.875 28.8296L192.266 28.8218C192.271 28.2228 192.354 27.6733 192.516 27.1733C192.682 26.6733 192.911 26.2437 193.203 25.8843C193.5 25.5249 193.854 25.2489 194.266 25.0562C194.677 24.8582 195.135 24.7593 195.641 24.7593C196.047 24.7593 196.414 24.8166 196.742 24.9312C197.076 25.0405 197.359 25.2202 197.594 25.4702C197.833 25.7202 198.016 26.0457 198.141 26.4468C198.266 26.8426 198.328 27.3296 198.328 27.9077V33.3687H196.438V27.8999C196.438 27.4937 196.378 27.1733 196.258 26.939C196.143 26.6994 195.974 26.5301 195.75 26.4312C195.531 26.327 195.258 26.2749 194.93 26.2749C194.607 26.2749 194.318 26.3426 194.062 26.478C193.807 26.6134 193.591 26.7983 193.414 27.0327C193.242 27.2671 193.109 27.5379 193.016 27.8452C192.922 28.1525 192.875 28.4806 192.875 28.8296ZM205.556 31.6187V21.3687H207.447V33.3687H205.736L205.556 31.6187ZM200.056 29.2358V29.0718C200.056 28.4312 200.132 27.8478 200.283 27.3218C200.434 26.7905 200.653 26.3348 200.939 25.9546C201.226 25.5692 201.574 25.2749 201.986 25.0718C202.397 24.8634 202.861 24.7593 203.377 24.7593C203.887 24.7593 204.335 24.8582 204.72 25.0562C205.106 25.2541 205.434 25.5379 205.705 25.9077C205.976 26.2723 206.192 26.7098 206.353 27.2202C206.515 27.7254 206.629 28.2879 206.697 28.9077V29.4312C206.629 30.0353 206.515 30.5874 206.353 31.0874C206.192 31.5874 205.976 32.0197 205.705 32.3843C205.434 32.7489 205.103 33.0301 204.713 33.228C204.327 33.4259 203.877 33.5249 203.361 33.5249C202.851 33.5249 202.39 33.4181 201.978 33.2046C201.572 32.991 201.226 32.6916 200.939 32.3062C200.653 31.9207 200.434 31.4676 200.283 30.9468C200.132 30.4207 200.056 29.8504 200.056 29.2358ZM201.939 29.0718V29.2358C201.939 29.6213 201.973 29.9806 202.041 30.314C202.114 30.6473 202.226 30.9416 202.377 31.1968C202.528 31.4468 202.723 31.6447 202.963 31.7905C203.207 31.9312 203.499 32.0015 203.838 32.0015C204.265 32.0015 204.616 31.9077 204.892 31.7202C205.168 31.5327 205.384 31.2801 205.541 30.9624C205.702 30.6395 205.811 30.2801 205.869 29.8843V28.4702C205.838 28.1629 205.772 27.8765 205.673 27.6108C205.58 27.3452 205.452 27.1134 205.291 26.9155C205.129 26.7124 204.929 26.5562 204.689 26.4468C204.455 26.3322 204.176 26.2749 203.853 26.2749C203.509 26.2749 203.218 26.3478 202.978 26.4937C202.739 26.6395 202.541 26.84 202.384 27.0952C202.233 27.3504 202.121 27.6473 202.048 27.9858C201.976 28.3244 201.939 28.6864 201.939 29.0718ZM211.581 24.9155V33.3687H209.691V24.9155H211.581ZM209.566 22.6968C209.566 22.4103 209.659 22.1733 209.847 21.9858C210.04 21.7931 210.305 21.6968 210.644 21.6968C210.977 21.6968 211.24 21.7931 211.433 21.9858C211.626 22.1733 211.722 22.4103 211.722 22.6968C211.722 22.978 211.626 23.2124 211.433 23.3999C211.24 23.5874 210.977 23.6812 210.644 23.6812C210.305 23.6812 210.04 23.5874 209.847 23.3999C209.659 23.2124 209.566 22.978 209.566 22.6968ZM217.247 32.0249C217.554 32.0249 217.83 31.965 218.075 31.8452C218.325 31.7202 218.526 31.5483 218.677 31.3296C218.833 31.1108 218.919 30.8582 218.934 30.5718H220.708C220.697 31.1187 220.536 31.616 220.223 32.064C219.911 32.5119 219.497 32.8687 218.981 33.1343C218.466 33.3947 217.895 33.5249 217.27 33.5249C216.624 33.5249 216.062 33.4155 215.583 33.1968C215.104 32.9728 214.705 32.6655 214.387 32.2749C214.07 31.8843 213.83 31.4338 213.669 30.9233C213.512 30.4129 213.434 29.866 213.434 29.2827V29.0093C213.434 28.4259 213.512 27.8791 213.669 27.3687C213.83 26.853 214.07 26.3999 214.387 26.0093C214.705 25.6187 215.104 25.314 215.583 25.0952C216.062 24.8713 216.622 24.7593 217.262 24.7593C217.94 24.7593 218.533 24.8947 219.044 25.1655C219.554 25.4312 219.955 25.8035 220.247 26.2827C220.544 26.7567 220.697 27.3088 220.708 27.939H218.934C218.919 27.6265 218.841 27.3452 218.7 27.0952C218.565 26.84 218.372 26.6369 218.122 26.4858C217.877 26.3348 217.583 26.2593 217.239 26.2593C216.859 26.2593 216.544 26.3374 216.294 26.4937C216.044 26.6447 215.848 26.853 215.708 27.1187C215.567 27.3791 215.466 27.6733 215.403 28.0015C215.346 28.3244 215.317 28.6603 215.317 29.0093V29.2827C215.317 29.6317 215.346 29.9702 215.403 30.2983C215.46 30.6265 215.559 30.9207 215.7 31.1812C215.846 31.4364 216.044 31.6421 216.294 31.7983C216.544 31.9494 216.861 32.0249 217.247 32.0249ZM224.319 24.9155V33.3687H222.428V24.9155H224.319ZM222.303 22.6968C222.303 22.4103 222.397 22.1733 222.584 21.9858C222.777 21.7931 223.043 21.6968 223.381 21.6968C223.715 21.6968 223.978 21.7931 224.17 21.9858C224.363 22.1733 224.459 22.4103 224.459 22.6968C224.459 22.978 224.363 23.2124 224.17 23.3999C223.978 23.5874 223.715 23.6812 223.381 23.6812C223.043 23.6812 222.777 23.5874 222.584 23.3999C222.397 23.2124 222.303 22.978 222.303 22.6968ZM226.172 29.2358V29.0562C226.172 28.4468 226.26 27.8817 226.438 27.3608C226.615 26.8348 226.87 26.3791 227.203 25.9937C227.542 25.603 227.953 25.3009 228.438 25.0874C228.927 24.8687 229.479 24.7593 230.094 24.7593C230.714 24.7593 231.266 24.8687 231.75 25.0874C232.24 25.3009 232.654 25.603 232.992 25.9937C233.331 26.3791 233.589 26.8348 233.766 27.3608C233.943 27.8817 234.031 28.4468 234.031 29.0562V29.2358C234.031 29.8452 233.943 30.4103 233.766 30.9312C233.589 31.452 233.331 31.9077 232.992 32.2983C232.654 32.6838 232.242 32.9858 231.758 33.2046C231.273 33.4181 230.724 33.5249 230.109 33.5249C229.49 33.5249 228.935 33.4181 228.445 33.2046C227.961 32.9858 227.549 32.6838 227.211 32.2983C226.872 31.9077 226.615 31.452 226.438 30.9312C226.26 30.4103 226.172 29.8452 226.172 29.2358ZM228.055 29.0562V29.2358C228.055 29.616 228.094 29.9754 228.172 30.314C228.25 30.6525 228.372 30.9494 228.539 31.2046C228.706 31.4598 228.919 31.6603 229.18 31.8062C229.44 31.952 229.75 32.0249 230.109 32.0249C230.458 32.0249 230.76 31.952 231.016 31.8062C231.276 31.6603 231.49 31.4598 231.656 31.2046C231.823 30.9494 231.945 30.6525 232.023 30.314C232.107 29.9754 232.148 29.616 232.148 29.2358V29.0562C232.148 28.6812 232.107 28.327 232.023 27.9937C231.945 27.6551 231.82 27.3556 231.648 27.0952C231.482 26.8348 231.268 26.6317 231.008 26.4858C230.753 26.3348 230.448 26.2593 230.094 26.2593C229.74 26.2593 229.432 26.3348 229.172 26.4858C228.917 26.6317 228.706 26.8348 228.539 27.0952C228.372 27.3556 228.25 27.6551 228.172 27.9937C228.094 28.327 228.055 28.6812 228.055 29.0562ZM237.627 26.7202V33.3687H235.744V24.9155H237.517L237.627 26.7202ZM237.291 28.8296L236.681 28.8218C236.686 28.2228 236.77 27.6733 236.931 27.1733C237.098 26.6733 237.327 26.2437 237.619 25.8843C237.916 25.5249 238.27 25.2489 238.681 25.0562C239.093 24.8582 239.551 24.7593 240.056 24.7593C240.463 24.7593 240.83 24.8166 241.158 24.9312C241.491 25.0405 241.775 25.2202 242.009 25.4702C242.249 25.7202 242.431 26.0457 242.556 26.4468C242.681 26.8426 242.744 27.3296 242.744 27.9077V33.3687H240.853V27.8999C240.853 27.4937 240.793 27.1733 240.673 26.939C240.559 26.6994 240.39 26.5301 240.166 26.4312C239.947 26.327 239.673 26.2749 239.345 26.2749C239.022 26.2749 238.733 26.3426 238.478 26.478C238.223 26.6134 238.007 26.7983 237.83 27.0327C237.658 27.2671 237.525 27.5379 237.431 27.8452C237.338 28.1525 237.291 28.4806 237.291 28.8296ZM248.542 33.5249C247.917 33.5249 247.352 33.4233 246.847 33.2202C246.347 33.0119 245.92 32.7228 245.566 32.353C245.217 31.9832 244.948 31.5483 244.761 31.0483C244.573 30.5483 244.48 30.0093 244.48 29.4312V29.1187C244.48 28.4572 244.576 27.8582 244.769 27.3218C244.961 26.7853 245.23 26.327 245.573 25.9468C245.917 25.5614 246.323 25.2671 246.792 25.064C247.261 24.8608 247.769 24.7593 248.316 24.7593C248.92 24.7593 249.448 24.8608 249.902 25.064C250.355 25.2671 250.73 25.5535 251.027 25.9233C251.329 26.2879 251.553 26.7228 251.698 27.228C251.849 27.7332 251.925 28.2905 251.925 28.8999V29.7046H245.394V28.353H250.066V28.2046C250.055 27.866 249.988 27.5483 249.863 27.2515C249.743 26.9546 249.558 26.715 249.308 26.5327C249.058 26.3504 248.724 26.2593 248.308 26.2593C247.995 26.2593 247.717 26.327 247.472 26.4624C247.232 26.5926 247.032 26.7827 246.87 27.0327C246.709 27.2827 246.584 27.5848 246.495 27.939C246.412 28.2879 246.37 28.6812 246.37 29.1187V29.4312C246.37 29.8009 246.42 30.1447 246.519 30.4624C246.623 30.7749 246.774 31.0483 246.972 31.2827C247.17 31.5171 247.409 31.702 247.691 31.8374C247.972 31.9676 248.292 32.0327 248.652 32.0327C249.105 32.0327 249.508 31.9416 249.863 31.7593C250.217 31.577 250.524 31.3192 250.784 30.9858L251.777 31.9468C251.594 32.2124 251.357 32.4676 251.066 32.7124C250.774 32.952 250.417 33.1473 249.995 33.2983C249.579 33.4494 249.094 33.5249 248.542 33.5249ZM258.286 31.0796C258.286 30.8921 258.239 30.7228 258.145 30.5718C258.052 30.4155 257.872 30.2749 257.606 30.1499C257.346 30.0249 256.96 29.9103 256.45 29.8062C256.002 29.7072 255.591 29.59 255.216 29.4546C254.846 29.314 254.528 29.1447 254.262 28.9468C253.997 28.7489 253.791 28.5145 253.645 28.2437C253.499 27.9728 253.427 27.6603 253.427 27.3062C253.427 26.9624 253.502 26.6369 253.653 26.3296C253.804 26.0223 254.02 25.7515 254.302 25.5171C254.583 25.2827 254.924 25.0978 255.325 24.9624C255.731 24.827 256.184 24.7593 256.684 24.7593C257.393 24.7593 257.999 24.8791 258.505 25.1187C259.015 25.353 259.406 25.6733 259.677 26.0796C259.947 26.4806 260.083 26.9338 260.083 27.439H258.2C258.2 27.215 258.143 27.0067 258.028 26.814C257.919 26.616 257.752 26.4572 257.528 26.3374C257.304 26.2124 257.023 26.1499 256.684 26.1499C256.361 26.1499 256.093 26.202 255.88 26.3062C255.671 26.4051 255.515 26.5353 255.411 26.6968C255.312 26.8582 255.262 27.0353 255.262 27.228C255.262 27.3687 255.289 27.4963 255.341 27.6108C255.398 27.7202 255.492 27.8218 255.622 27.9155C255.752 28.0041 255.929 28.0874 256.153 28.1655C256.382 28.2437 256.669 28.3192 257.012 28.3921C257.658 28.5275 258.213 28.702 258.677 28.9155C259.145 29.1239 259.505 29.3947 259.755 29.728C260.005 30.0562 260.13 30.4728 260.13 30.978C260.13 31.353 260.049 31.6968 259.887 32.0093C259.731 32.3166 259.502 32.5848 259.2 32.814C258.898 33.0379 258.536 33.2124 258.114 33.3374C257.697 33.4624 257.229 33.5249 256.708 33.5249C255.942 33.5249 255.294 33.3895 254.762 33.1187C254.231 32.8426 253.828 32.491 253.552 32.064C253.281 31.6317 253.145 31.1838 253.145 30.7202H254.966C254.986 31.0692 255.083 31.3478 255.255 31.5562C255.432 31.7593 255.651 31.9077 255.911 32.0015C256.177 32.09 256.45 32.1343 256.731 32.1343C257.07 32.1343 257.354 32.09 257.583 32.0015C257.812 31.9077 257.986 31.7827 258.106 31.6265C258.226 31.465 258.286 31.2827 258.286 31.0796Z" fill="white"/>
    <rect style="stroke-width: 0px; stroke: rgb(255, 255, 255); fill: rgb(255, 255, 255); transform-origin: 97.5315px 21.7875px;" transform="matrix(0.46947106719, -0.882947802544, 0.882947802544, 0.46947106719, 0.369222148128, -0.00002911661)" x="95.404" y="20.766" width="4.255" height="2.043" ry="0" rx="0"/>
</svg>
