<?xml version="1.0" encoding="utf-8"?>
<svg viewBox="0 0 242 57" fill="none" xmlns="http://www.w3.org/2000/svg">
    <rect y="0.684326" width="242" height="56" rx="8" fill="#8B3D99" transform="matrix(0.9999999999999999, 0, 0, 0.9999999999999999, 0, 1.4210854715202004e-14)"/>
    <path d="M33.69 19.6843H22.36C21.06 19.6843 20 20.7443 20 22.0443V35.3143C20 36.6243 21.06 37.6843 22.36 37.6843H33.69C35 37.6843 36.05 36.6243 36.05 35.3243V22.0443C36.05 20.7443 35 19.6843 33.69 19.6843ZM27.22 24.1543L25.3 26.0743C25.14 26.2343 24.92 26.3243 24.69 26.3243C24.46 26.3243 24.24 26.2343 24.08 26.0643L23.28 25.2643C22.94 24.9343 22.94 24.3743 23.28 24.0443C23.6 23.7243 24.18 23.7243 24.5 24.0443L24.69 24.2343L26 22.9343C26.32 22.6043 26.9 22.6043 27.22 22.9343C27.38 23.0943 27.47 23.3143 27.47 23.5443C27.47 23.7743 27.39 23.9943 27.22 24.1543ZM27.47 28.1043C27.47 28.3343 27.39 28.5443 27.23 28.7143L25.31 30.6343C25.15 30.7943 24.93 30.8843 24.7 30.8843C24.47 30.8843 24.25 30.7943 24.09 30.6343L23.29 29.8343C22.96 29.5043 22.96 28.9443 23.29 28.6143C23.61 28.2943 24.19 28.2943 24.51 28.6143L24.69 28.7943L26 27.4943C26.32 27.1643 26.9 27.1643 27.22 27.4943C27.38 27.6543 27.47 27.8743 27.47 28.1043ZM23.28 32.8543C23.6 32.5343 24.18 32.5343 24.5 32.8543L24.69 33.0443L26 31.7343C26.32 31.4143 26.9 31.4143 27.22 31.7343C27.38 31.9043 27.47 32.1143 27.47 32.3443C27.47 32.5743 27.39 32.7843 27.22 32.9543L25.3 34.8743C25.13 35.0343 24.92 35.1243 24.69 35.1243C24.46 35.1243 24.24 35.0343 24.08 34.8743L23.28 34.0743C22.94 33.7443 22.94 33.1843 23.28 32.8543ZM32.4 34.1743H28.86C28.38 34.1743 27.99 33.7843 27.99 33.3043C27.99 32.8243 28.38 32.4343 28.86 32.4343H32.4C32.87 32.4343 33.26 32.8243 33.26 33.3043C33.27 33.7843 32.88 34.1743 32.4 34.1743ZM28.86 28.1943H32.37C32.85 28.1943 33.24 28.5843 33.24 29.0643C33.24 29.5443 32.85 29.9343 32.37 29.9343H28.86C28.39 29.9343 27.99 29.5443 27.99 29.0643C27.99 28.5743 28.38 28.1943 28.86 28.1943ZM27.99 24.8243C27.99 24.3443 28.38 23.9543 28.86 23.9543H32.37C32.85 23.9543 33.24 24.3443 33.24 24.8243C33.24 25.3043 32.85 25.6943 32.37 25.6943H28.86C28.39 25.6943 27.99 25.3043 27.99 24.8243Z" fill="white" transform="matrix(0.9999999999999999, 0, 0, 0.9999999999999999, 0, 1.4210854715202004e-14)"/>
    <path d="M54.0266 22.3093V33.6843H52.0813V22.3093H54.0266ZM57.5969 22.3093V23.8718H48.5422V22.3093H57.5969ZM62.0359 33.8406C61.4109 33.8406 60.8458 33.739 60.3406 33.5359C59.8406 33.3276 59.4135 33.0385 59.0594 32.6687C58.7104 32.2989 58.4422 31.864 58.2547 31.364C58.0672 30.864 57.9734 30.325 57.9734 29.7468V29.4343C57.9734 28.7729 58.0698 28.1739 58.2625 27.6375C58.4552 27.101 58.7234 26.6427 59.0672 26.2625C59.4109 25.877 59.8172 25.5828 60.2859 25.3796C60.7547 25.1765 61.2625 25.075 61.8094 25.075C62.4135 25.075 62.9422 25.1765 63.3953 25.3796C63.8484 25.5828 64.2234 25.8692 64.5203 26.239C64.8224 26.6036 65.0464 27.0385 65.1922 27.5437C65.3432 28.0489 65.4188 28.6062 65.4188 29.2156V30.0203H58.8875V28.6687H63.5594V28.5203C63.549 28.1817 63.4813 27.864 63.3563 27.5671C63.2365 27.2703 63.0516 27.0307 62.8016 26.8484C62.5516 26.6661 62.2182 26.575 61.8016 26.575C61.4891 26.575 61.2104 26.6427 60.9656 26.7781C60.726 26.9083 60.5255 27.0984 60.3641 27.3484C60.2026 27.5984 60.0776 27.9005 59.9891 28.2546C59.9057 28.6036 59.8641 28.9968 59.8641 29.4343V29.7468C59.8641 30.1166 59.9135 30.4604 60.0125 30.7781C60.1167 31.0906 60.2677 31.364 60.4656 31.5984C60.6635 31.8328 60.9031 32.0177 61.1844 32.1531C61.4656 32.2833 61.7859 32.3484 62.1453 32.3484C62.5984 32.3484 63.0021 32.2572 63.3563 32.075C63.7104 31.8927 64.0177 31.6348 64.2781 31.3015L65.2703 32.2625C65.088 32.5281 64.851 32.7833 64.5594 33.0281C64.2677 33.2677 63.9109 33.463 63.4891 33.614C63.0724 33.7651 62.588 33.8406 62.0359 33.8406ZM68.9281 26.8406V33.6843H67.0453V25.2312H68.8422L68.9281 26.8406ZM71.5141 25.1765L71.4984 26.9265C71.3839 26.9057 71.2589 26.8901 71.1234 26.8796C70.9932 26.8692 70.863 26.864 70.7328 26.864C70.4099 26.864 70.126 26.9109 69.8813 27.0046C69.6365 27.0932 69.4307 27.2234 69.2641 27.3953C69.1026 27.5619 68.9776 27.7651 68.8891 28.0046C68.8005 28.2442 68.7484 28.5125 68.7328 28.8093L68.3031 28.8406C68.3031 28.3093 68.3552 27.8171 68.4594 27.364C68.5635 26.9109 68.7198 26.5125 68.9281 26.1687C69.1417 25.825 69.4073 25.5567 69.725 25.364C70.0479 25.1713 70.4203 25.075 70.8422 25.075C70.9568 25.075 71.0792 25.0854 71.2094 25.1062C71.3448 25.127 71.4464 25.1505 71.5141 25.1765ZM74.7266 26.95V33.6843H72.8438V25.2312H74.6172L74.7266 26.95ZM74.4219 29.1453L73.7813 29.1375C73.7813 28.5541 73.8542 28.0151 74 27.5203C74.1458 27.0255 74.3594 26.5958 74.6406 26.2312C74.9219 25.8614 75.2708 25.5776 75.6875 25.3796C76.1094 25.1765 76.5964 25.075 77.1484 25.075C77.5339 25.075 77.8854 25.1322 78.2031 25.2468C78.526 25.3562 78.8047 25.5307 79.0391 25.7703C79.2786 26.0098 79.4609 26.3171 79.5859 26.6921C79.7161 27.0671 79.7813 27.5203 79.7813 28.0515V33.6843H77.8984V28.2156C77.8984 27.8041 77.8359 27.4812 77.7109 27.2468C77.5911 27.0125 77.4167 26.8458 77.1875 26.7468C76.9635 26.6427 76.6953 26.5906 76.3828 26.5906C76.0286 26.5906 75.7266 26.6583 75.4766 26.7937C75.2318 26.9291 75.0313 27.114 74.875 27.3484C74.7188 27.5828 74.6042 27.8536 74.5313 28.1609C74.4583 28.4682 74.4219 28.7963 74.4219 29.1453ZM79.6641 28.6453L78.7813 28.8406C78.7813 28.3302 78.8516 27.8484 78.9922 27.3953C79.138 26.9369 79.349 26.5359 79.625 26.1921C79.9063 25.8432 80.2526 25.5697 80.6641 25.3718C81.0755 25.1739 81.5469 25.075 82.0781 25.075C82.5104 25.075 82.8958 25.1348 83.2344 25.2546C83.5781 25.3692 83.8698 25.5515 84.1094 25.8015C84.349 26.0515 84.5313 26.377 84.6563 26.7781C84.7813 27.1739 84.8438 27.6531 84.8438 28.2156V33.6843H82.9531V28.2078C82.9531 27.7807 82.8906 27.45 82.7656 27.2156C82.6458 26.9812 82.474 26.8197 82.25 26.7312C82.026 26.6375 81.7578 26.5906 81.4453 26.5906C81.1536 26.5906 80.8958 26.6453 80.6719 26.7546C80.4531 26.8588 80.2682 27.0072 80.1172 27.2C79.9661 27.3875 79.8516 27.6036 79.7734 27.8484C79.7005 28.0932 79.6641 28.3588 79.6641 28.6453ZM88.9469 25.2312V33.6843H87.0563V25.2312H88.9469ZM86.9313 23.0125C86.9313 22.726 87.025 22.489 87.2125 22.3015C87.4052 22.1088 87.6708 22.0125 88.0094 22.0125C88.3427 22.0125 88.6057 22.1088 88.7984 22.3015C88.9911 22.489 89.0875 22.726 89.0875 23.0125C89.0875 23.2937 88.9911 23.5281 88.7984 23.7156C88.6057 23.9031 88.3427 23.9968 88.0094 23.9968C87.6708 23.9968 87.4052 23.9031 87.2125 23.7156C87.025 23.5281 86.9313 23.2937 86.9313 23.0125ZM93.0266 27.0359V33.6843H91.1438V25.2312H92.9172L93.0266 27.0359ZM92.6906 29.1453L92.0813 29.1375C92.0865 28.5385 92.1698 27.989 92.3313 27.489C92.4979 26.989 92.7271 26.5593 93.0188 26.2C93.3156 25.8406 93.6698 25.5645 94.0813 25.3718C94.4927 25.1739 94.951 25.075 95.4563 25.075C95.8625 25.075 96.2297 25.1322 96.5578 25.2468C96.8911 25.3562 97.175 25.5359 97.4094 25.7859C97.649 26.0359 97.8313 26.3614 97.9563 26.7625C98.0813 27.1583 98.1438 27.6453 98.1438 28.2234V33.6843H96.2531V28.2156C96.2531 27.8093 96.1932 27.489 96.0734 27.2546C95.9589 27.0151 95.7896 26.8458 95.5656 26.7468C95.3469 26.6427 95.0734 26.5906 94.7453 26.5906C94.4224 26.5906 94.1333 26.6583 93.8781 26.7937C93.6229 26.9291 93.4068 27.114 93.2297 27.3484C93.0578 27.5828 92.925 27.8536 92.8313 28.1609C92.7375 28.4682 92.6906 28.7963 92.6906 29.1453ZM99.8563 29.5515V29.3718C99.8563 28.7625 99.9448 28.1973 100.122 27.6765C100.299 27.1505 100.554 26.6947 100.888 26.3093C101.226 25.9187 101.638 25.6166 102.122 25.4031C102.611 25.1843 103.164 25.075 103.778 25.075C104.398 25.075 104.95 25.1843 105.434 25.4031C105.924 25.6166 106.338 25.9187 106.677 26.3093C107.015 26.6947 107.273 27.1505 107.45 27.6765C107.627 28.1973 107.716 28.7625 107.716 29.3718V29.5515C107.716 30.1609 107.627 30.726 107.45 31.2468C107.273 31.7677 107.015 32.2234 106.677 32.614C106.338 32.9994 105.927 33.3015 105.442 33.5203C104.958 33.7338 104.408 33.8406 103.794 33.8406C103.174 33.8406 102.619 33.7338 102.13 33.5203C101.645 33.3015 101.234 32.9994 100.895 32.614C100.557 32.2234 100.299 31.7677 100.122 31.2468C99.9448 30.726 99.8563 30.1609 99.8563 29.5515ZM101.739 29.3718V29.5515C101.739 29.9317 101.778 30.2911 101.856 30.6296C101.934 30.9682 102.057 31.2651 102.223 31.5203C102.39 31.7755 102.604 31.976 102.864 32.1218C103.124 32.2677 103.434 32.3406 103.794 32.3406C104.143 32.3406 104.445 32.2677 104.7 32.1218C104.96 31.976 105.174 31.7755 105.341 31.5203C105.507 31.2651 105.63 30.9682 105.708 30.6296C105.791 30.2911 105.833 29.9317 105.833 29.5515V29.3718C105.833 28.9968 105.791 28.6427 105.708 28.3093C105.63 27.9708 105.505 27.6713 105.333 27.4109C105.166 27.1505 104.953 26.9473 104.692 26.8015C104.437 26.6505 104.132 26.575 103.778 26.575C103.424 26.575 103.117 26.6505 102.856 26.8015C102.601 26.9473 102.39 27.1505 102.223 27.4109C102.057 27.6713 101.934 27.9708 101.856 28.3093C101.778 28.6427 101.739 28.9968 101.739 29.3718ZM114.186 31.3953C114.186 31.2078 114.139 31.0385 114.045 30.8875C113.952 30.7312 113.772 30.5906 113.506 30.4656C113.246 30.3406 112.86 30.226 112.35 30.1218C111.902 30.0229 111.491 29.9057 111.116 29.7703C110.746 29.6296 110.428 29.4604 110.163 29.2625C109.897 29.0645 109.691 28.8302 109.545 28.5593C109.399 28.2885 109.327 27.976 109.327 27.6218C109.327 27.2781 109.402 26.9526 109.553 26.6453C109.704 26.338 109.92 26.0671 110.202 25.8328C110.483 25.5984 110.824 25.4135 111.225 25.2781C111.631 25.1427 112.084 25.075 112.584 25.075C113.293 25.075 113.899 25.1947 114.405 25.4343C114.915 25.6687 115.306 25.989 115.577 26.3953C115.847 26.7963 115.983 27.2494 115.983 27.7546H114.1C114.1 27.5307 114.043 27.3223 113.928 27.1296C113.819 26.9317 113.652 26.7729 113.428 26.6531C113.204 26.5281 112.923 26.4656 112.584 26.4656C112.261 26.4656 111.993 26.5177 111.78 26.6218C111.571 26.7208 111.415 26.851 111.311 27.0125C111.212 27.1739 111.163 27.351 111.163 27.5437C111.163 27.6843 111.189 27.8119 111.241 27.9265C111.298 28.0359 111.392 28.1375 111.522 28.2312C111.652 28.3197 111.829 28.4031 112.053 28.4812C112.282 28.5593 112.569 28.6348 112.913 28.7078C113.558 28.8432 114.113 29.0177 114.577 29.2312C115.045 29.4395 115.405 29.7104 115.655 30.0437C115.905 30.3718 116.03 30.7885 116.03 31.2937C116.03 31.6687 115.949 32.0125 115.788 32.325C115.631 32.6322 115.402 32.9005 115.1 33.1296C114.798 33.3536 114.436 33.5281 114.014 33.6531C113.597 33.7781 113.129 33.8406 112.608 33.8406C111.842 33.8406 111.194 33.7052 110.663 33.4343C110.131 33.1583 109.728 32.8067 109.452 32.3796C109.181 31.9473 109.045 31.4994 109.045 31.0359H110.866C110.886 31.3848 110.983 31.6635 111.155 31.8718C111.332 32.075 111.551 32.2234 111.811 32.3171C112.077 32.4057 112.35 32.45 112.631 32.45C112.97 32.45 113.254 32.4057 113.483 32.3171C113.712 32.2234 113.886 32.0984 114.006 31.9421C114.126 31.7807 114.186 31.5984 114.186 31.3953ZM123.908 27.4968L125.869 26.1765C126.197 25.9578 126.431 25.7442 126.572 25.5359C126.713 25.3223 126.783 25.0567 126.783 24.739C126.783 24.4682 126.679 24.2182 126.47 23.989C126.262 23.7598 125.968 23.6453 125.588 23.6453C125.322 23.6453 125.098 23.7078 124.916 23.8328C124.733 23.9526 124.595 24.114 124.502 24.3171C124.413 24.5151 124.369 24.7364 124.369 24.9812C124.369 25.2156 124.429 25.4578 124.548 25.7078C124.668 25.9526 124.832 26.2104 125.041 26.4812C125.249 26.7468 125.483 27.0333 125.744 27.3406L131.119 33.6843H128.939L124.548 28.5203C124.168 28.0619 123.832 27.6427 123.541 27.2625C123.249 26.877 123.022 26.5046 122.861 26.1453C122.699 25.7807 122.619 25.4057 122.619 25.0203C122.619 24.4265 122.741 23.9161 122.986 23.489C123.231 23.0619 123.577 22.7338 124.025 22.5046C124.473 22.2703 124.996 22.1531 125.595 22.1531C126.173 22.1531 126.671 22.2703 127.088 22.5046C127.509 22.7338 127.832 23.0385 128.056 23.4187C128.285 23.7989 128.4 24.2156 128.4 24.6687C128.4 25.0281 128.335 25.3562 128.205 25.6531C128.074 25.95 127.895 26.2208 127.666 26.4656C127.436 26.7104 127.171 26.9421 126.869 27.1609L124.486 28.8953C124.21 29.1192 124.004 29.3354 123.869 29.5437C123.739 29.7468 123.653 29.9343 123.611 30.1062C123.569 30.2781 123.548 30.4291 123.548 30.5593C123.548 30.8927 123.619 31.1947 123.759 31.4656C123.905 31.7364 124.116 31.9526 124.392 32.114C124.673 32.2703 125.015 32.3484 125.416 32.3484C125.848 32.3484 126.267 32.252 126.673 32.0593C127.08 31.8614 127.444 31.5828 127.767 31.2234C128.09 30.864 128.345 30.4343 128.533 29.9343C128.726 29.4343 128.822 28.8796 128.822 28.2703H130.447C130.447 28.8223 130.392 29.3458 130.283 29.8406C130.179 30.3354 130.009 30.7937 129.775 31.2156C129.546 31.6375 129.244 32.0151 128.869 32.3484C128.832 32.3848 128.791 32.4317 128.744 32.489C128.702 32.5411 128.66 32.5854 128.619 32.6218C128.171 33.0333 127.668 33.3406 127.111 33.5437C126.559 33.7416 125.97 33.8406 125.345 33.8406C124.59 33.8406 123.936 33.7026 123.384 33.4265C122.832 33.1505 122.405 32.7703 122.103 32.2859C121.806 31.8015 121.658 31.2468 121.658 30.6218C121.658 30.1583 121.754 29.752 121.947 29.4031C122.14 29.0489 122.403 28.7208 122.736 28.4187C123.074 28.1114 123.465 27.8041 123.908 27.4968ZM143.419 29.9812H145.372C145.309 30.726 145.101 31.3901 144.747 31.9734C144.393 32.5515 143.895 33.0072 143.255 33.3406C142.614 33.6739 141.835 33.8406 140.919 33.8406C140.216 33.8406 139.583 33.7156 139.02 33.4656C138.458 33.2104 137.976 32.851 137.575 32.3875C137.174 31.9187 136.867 31.3536 136.653 30.6921C136.445 30.0307 136.341 29.2911 136.341 28.4734V27.5281C136.341 26.7104 136.447 25.9708 136.661 25.3093C136.88 24.6479 137.192 24.0828 137.598 23.614C138.005 23.1401 138.492 22.7781 139.059 22.5281C139.632 22.2781 140.276 22.1531 140.989 22.1531C141.895 22.1531 142.661 22.3197 143.286 22.6531C143.911 22.9864 144.395 23.4473 144.739 24.0359C145.088 24.6244 145.302 25.2989 145.38 26.0593H143.427C143.374 25.5697 143.26 25.1505 143.083 24.8015C142.911 24.4526 142.656 24.1869 142.317 24.0046C141.979 23.8171 141.536 23.7234 140.989 23.7234C140.541 23.7234 140.151 23.8067 139.817 23.9734C139.484 24.1401 139.205 24.3848 138.981 24.7078C138.757 25.0307 138.588 25.4291 138.473 25.9031C138.364 26.3718 138.309 26.9083 138.309 27.5125V28.4734C138.309 29.0463 138.359 29.5671 138.458 30.0359C138.562 30.4994 138.718 30.8979 138.927 31.2312C139.14 31.5645 139.411 31.8223 139.739 32.0046C140.067 32.1869 140.46 32.2781 140.919 32.2781C141.476 32.2781 141.927 32.1895 142.27 32.0125C142.619 31.8354 142.882 31.5776 143.059 31.239C143.242 30.8953 143.361 30.476 143.419 29.9812ZM146.756 29.5515V29.3718C146.756 28.7625 146.845 28.1973 147.022 27.6765C147.199 27.1505 147.454 26.6947 147.788 26.3093C148.126 25.9187 148.538 25.6166 149.022 25.4031C149.511 25.1843 150.064 25.075 150.678 25.075C151.298 25.075 151.85 25.1843 152.334 25.4031C152.824 25.6166 153.238 25.9187 153.577 26.3093C153.915 26.6947 154.173 27.1505 154.35 27.6765C154.527 28.1973 154.616 28.7625 154.616 29.3718V29.5515C154.616 30.1609 154.527 30.726 154.35 31.2468C154.173 31.7677 153.915 32.2234 153.577 32.614C153.238 32.9994 152.827 33.3015 152.342 33.5203C151.858 33.7338 151.308 33.8406 150.694 33.8406C150.074 33.8406 149.519 33.7338 149.03 33.5203C148.545 33.3015 148.134 32.9994 147.795 32.614C147.457 32.2234 147.199 31.7677 147.022 31.2468C146.845 30.726 146.756 30.1609 146.756 29.5515ZM148.639 29.3718V29.5515C148.639 29.9317 148.678 30.2911 148.756 30.6296C148.834 30.9682 148.957 31.2651 149.123 31.5203C149.29 31.7755 149.504 31.976 149.764 32.1218C150.024 32.2677 150.334 32.3406 150.694 32.3406C151.043 32.3406 151.345 32.2677 151.6 32.1218C151.86 31.976 152.074 31.7755 152.241 31.5203C152.407 31.2651 152.53 30.9682 152.608 30.6296C152.691 30.2911 152.733 29.9317 152.733 29.5515V29.3718C152.733 28.9968 152.691 28.6427 152.608 28.3093C152.53 27.9708 152.405 27.6713 152.233 27.4109C152.066 27.1505 151.853 26.9473 151.592 26.8015C151.337 26.6505 151.032 26.575 150.678 26.575C150.324 26.575 150.017 26.6505 149.756 26.8015C149.501 26.9473 149.29 27.1505 149.123 27.4109C148.957 27.6713 148.834 27.9708 148.756 28.3093C148.678 28.6427 148.639 28.9968 148.639 29.3718ZM158.211 27.0359V33.6843H156.328V25.2312H158.102L158.211 27.0359ZM157.875 29.1453L157.266 29.1375C157.271 28.5385 157.354 27.989 157.516 27.489C157.682 26.989 157.911 26.5593 158.203 26.2C158.5 25.8406 158.854 25.5645 159.266 25.3718C159.677 25.1739 160.135 25.075 160.641 25.075C161.047 25.075 161.414 25.1322 161.742 25.2468C162.076 25.3562 162.359 25.5359 162.594 25.7859C162.833 26.0359 163.016 26.3614 163.141 26.7625C163.266 27.1583 163.328 27.6453 163.328 28.2234V33.6843H161.438V28.2156C161.438 27.8093 161.378 27.489 161.258 27.2546C161.143 27.0151 160.974 26.8458 160.75 26.7468C160.531 26.6427 160.258 26.5906 159.93 26.5906C159.607 26.5906 159.318 26.6583 159.062 26.7937C158.807 26.9291 158.591 27.114 158.414 27.3484C158.242 27.5828 158.109 27.8536 158.016 28.1609C157.922 28.4682 157.875 28.7963 157.875 29.1453ZM170.556 31.9343V21.6843H172.447V33.6843H170.736L170.556 31.9343ZM165.056 29.5515V29.3875C165.056 28.7468 165.132 28.1635 165.283 27.6375C165.434 27.1062 165.653 26.6505 165.939 26.2703C166.226 25.8848 166.574 25.5906 166.986 25.3875C167.397 25.1791 167.861 25.075 168.377 25.075C168.887 25.075 169.335 25.1739 169.72 25.3718C170.106 25.5697 170.434 25.8536 170.705 26.2234C170.976 26.588 171.192 27.0255 171.353 27.5359C171.515 28.0411 171.629 28.6036 171.697 29.2234V29.7468C171.629 30.351 171.515 30.9031 171.353 31.4031C171.192 31.9031 170.976 32.3354 170.705 32.7C170.434 33.0645 170.103 33.3458 169.713 33.5437C169.327 33.7416 168.877 33.8406 168.361 33.8406C167.851 33.8406 167.39 33.7338 166.978 33.5203C166.572 33.3067 166.226 33.0072 165.939 32.6218C165.653 32.2364 165.434 31.7833 165.283 31.2625C165.132 30.7364 165.056 30.1661 165.056 29.5515ZM166.939 29.3875V29.5515C166.939 29.9369 166.973 30.2963 167.041 30.6296C167.114 30.963 167.226 31.2572 167.377 31.5125C167.528 31.7625 167.723 31.9604 167.963 32.1062C168.207 32.2468 168.499 32.3171 168.838 32.3171C169.265 32.3171 169.616 32.2234 169.892 32.0359C170.168 31.8484 170.384 31.5958 170.541 31.2781C170.702 30.9552 170.811 30.5958 170.869 30.2V28.7859C170.838 28.4786 170.772 28.1921 170.673 27.9265C170.58 27.6609 170.452 27.4291 170.291 27.2312C170.129 27.0281 169.929 26.8718 169.689 26.7625C169.455 26.6479 169.176 26.5906 168.853 26.5906C168.509 26.5906 168.218 26.6635 167.978 26.8093C167.739 26.9552 167.541 27.1557 167.384 27.4109C167.233 27.6661 167.121 27.963 167.048 28.3015C166.976 28.6401 166.939 29.002 166.939 29.3875ZM176.581 25.2312V33.6843H174.691V25.2312H176.581ZM174.566 23.0125C174.566 22.726 174.659 22.489 174.847 22.3015C175.04 22.1088 175.305 22.0125 175.644 22.0125C175.977 22.0125 176.24 22.1088 176.433 22.3015C176.626 22.489 176.722 22.726 176.722 23.0125C176.722 23.2937 176.626 23.5281 176.433 23.7156C176.24 23.9031 175.977 23.9968 175.644 23.9968C175.305 23.9968 175.04 23.9031 174.847 23.7156C174.659 23.5281 174.566 23.2937 174.566 23.0125ZM182.247 32.3406C182.554 32.3406 182.83 32.2807 183.075 32.1609C183.325 32.0359 183.526 31.864 183.677 31.6453C183.833 31.4265 183.919 31.1739 183.934 30.8875H185.708C185.697 31.4343 185.536 31.9317 185.223 32.3796C184.911 32.8276 184.497 33.1843 183.981 33.45C183.466 33.7104 182.895 33.8406 182.27 33.8406C181.624 33.8406 181.062 33.7312 180.583 33.5125C180.104 33.2885 179.705 32.9812 179.387 32.5906C179.07 32.2 178.83 31.7494 178.669 31.239C178.512 30.7286 178.434 30.1817 178.434 29.5984V29.325C178.434 28.7416 178.512 28.1947 178.669 27.6843C178.83 27.1687 179.07 26.7156 179.387 26.325C179.705 25.9343 180.104 25.6296 180.583 25.4109C181.062 25.1869 181.622 25.075 182.262 25.075C182.94 25.075 183.533 25.2104 184.044 25.4812C184.554 25.7468 184.955 26.1192 185.247 26.5984C185.544 27.0723 185.697 27.6244 185.708 28.2546H183.934C183.919 27.9421 183.841 27.6609 183.7 27.4109C183.565 27.1557 183.372 26.9526 183.122 26.8015C182.877 26.6505 182.583 26.575 182.239 26.575C181.859 26.575 181.544 26.6531 181.294 26.8093C181.044 26.9604 180.848 27.1687 180.708 27.4343C180.567 27.6947 180.466 27.989 180.403 28.3171C180.346 28.6401 180.317 28.976 180.317 29.325V29.5984C180.317 29.9473 180.346 30.2859 180.403 30.614C180.46 30.9421 180.559 31.2364 180.7 31.4968C180.846 31.752 181.044 31.9578 181.294 32.114C181.544 32.2651 181.861 32.3406 182.247 32.3406ZM189.319 25.2312V33.6843H187.428V25.2312H189.319ZM187.303 23.0125C187.303 22.726 187.397 22.489 187.584 22.3015C187.777 22.1088 188.043 22.0125 188.381 22.0125C188.715 22.0125 188.978 22.1088 189.17 22.3015C189.363 22.489 189.459 22.726 189.459 23.0125C189.459 23.2937 189.363 23.5281 189.17 23.7156C188.978 23.9031 188.715 23.9968 188.381 23.9968C188.043 23.9968 187.777 23.9031 187.584 23.7156C187.397 23.5281 187.303 23.2937 187.303 23.0125ZM191.172 29.5515V29.3718C191.172 28.7625 191.26 28.1973 191.438 27.6765C191.615 27.1505 191.87 26.6947 192.203 26.3093C192.542 25.9187 192.953 25.6166 193.438 25.4031C193.927 25.1843 194.479 25.075 195.094 25.075C195.714 25.075 196.266 25.1843 196.75 25.4031C197.24 25.6166 197.654 25.9187 197.992 26.3093C198.331 26.6947 198.589 27.1505 198.766 27.6765C198.943 28.1973 199.031 28.7625 199.031 29.3718V29.5515C199.031 30.1609 198.943 30.726 198.766 31.2468C198.589 31.7677 198.331 32.2234 197.992 32.614C197.654 32.9994 197.242 33.3015 196.758 33.5203C196.273 33.7338 195.724 33.8406 195.109 33.8406C194.49 33.8406 193.935 33.7338 193.445 33.5203C192.961 33.3015 192.549 32.9994 192.211 32.614C191.872 32.2234 191.615 31.7677 191.438 31.2468C191.26 30.726 191.172 30.1609 191.172 29.5515ZM193.055 29.3718V29.5515C193.055 29.9317 193.094 30.2911 193.172 30.6296C193.25 30.9682 193.372 31.2651 193.539 31.5203C193.706 31.7755 193.919 31.976 194.18 32.1218C194.44 32.2677 194.75 32.3406 195.109 32.3406C195.458 32.3406 195.76 32.2677 196.016 32.1218C196.276 31.976 196.49 31.7755 196.656 31.5203C196.823 31.2651 196.945 30.9682 197.023 30.6296C197.107 30.2911 197.148 29.9317 197.148 29.5515V29.3718C197.148 28.9968 197.107 28.6427 197.023 28.3093C196.945 27.9708 196.82 27.6713 196.648 27.4109C196.482 27.1505 196.268 26.9473 196.008 26.8015C195.753 26.6505 195.448 26.575 195.094 26.575C194.74 26.575 194.432 26.6505 194.172 26.8015C193.917 26.9473 193.706 27.1505 193.539 27.4109C193.372 27.6713 193.25 27.9708 193.172 28.3093C193.094 28.6427 193.055 28.9968 193.055 29.3718ZM202.627 27.0359V33.6843H200.744V25.2312H202.517L202.627 27.0359ZM202.291 29.1453L201.681 29.1375C201.686 28.5385 201.77 27.989 201.931 27.489C202.098 26.989 202.327 26.5593 202.619 26.2C202.916 25.8406 203.27 25.5645 203.681 25.3718C204.093 25.1739 204.551 25.075 205.056 25.075C205.463 25.075 205.83 25.1322 206.158 25.2468C206.491 25.3562 206.775 25.5359 207.009 25.7859C207.249 26.0359 207.431 26.3614 207.556 26.7625C207.681 27.1583 207.744 27.6453 207.744 28.2234V33.6843H205.853V28.2156C205.853 27.8093 205.793 27.489 205.673 27.2546C205.559 27.0151 205.39 26.8458 205.166 26.7468C204.947 26.6427 204.673 26.5906 204.345 26.5906C204.022 26.5906 203.733 26.6583 203.478 26.7937C203.223 26.9291 203.007 27.114 202.83 27.3484C202.658 27.5828 202.525 27.8536 202.431 28.1609C202.338 28.4682 202.291 28.7963 202.291 29.1453ZM213.542 33.8406C212.917 33.8406 212.352 33.739 211.847 33.5359C211.347 33.3276 210.92 33.0385 210.566 32.6687C210.217 32.2989 209.948 31.864 209.761 31.364C209.573 30.864 209.48 30.325 209.48 29.7468V29.4343C209.48 28.7729 209.576 28.1739 209.769 27.6375C209.961 27.101 210.23 26.6427 210.573 26.2625C210.917 25.877 211.323 25.5828 211.792 25.3796C212.261 25.1765 212.769 25.075 213.316 25.075C213.92 25.075 214.448 25.1765 214.902 25.3796C215.355 25.5828 215.73 25.8692 216.027 26.239C216.329 26.6036 216.553 27.0385 216.698 27.5437C216.849 28.0489 216.925 28.6062 216.925 29.2156V30.0203H210.394V28.6687H215.066V28.5203C215.055 28.1817 214.988 27.864 214.863 27.5671C214.743 27.2703 214.558 27.0307 214.308 26.8484C214.058 26.6661 213.724 26.575 213.308 26.575C212.995 26.575 212.717 26.6427 212.472 26.7781C212.232 26.9083 212.032 27.0984 211.87 27.3484C211.709 27.5984 211.584 27.9005 211.495 28.2546C211.412 28.6036 211.37 28.9968 211.37 29.4343V29.7468C211.37 30.1166 211.42 30.4604 211.519 30.7781C211.623 31.0906 211.774 31.364 211.972 31.5984C212.17 31.8328 212.409 32.0177 212.691 32.1531C212.972 32.2833 213.292 32.3484 213.652 32.3484C214.105 32.3484 214.508 32.2572 214.863 32.075C215.217 31.8927 215.524 31.6348 215.784 31.3015L216.777 32.2625C216.594 32.5281 216.357 32.7833 216.066 33.0281C215.774 33.2677 215.417 33.463 214.995 33.614C214.579 33.7651 214.094 33.8406 213.542 33.8406ZM223.286 31.3953C223.286 31.2078 223.239 31.0385 223.145 30.8875C223.052 30.7312 222.872 30.5906 222.606 30.4656C222.346 30.3406 221.96 30.226 221.45 30.1218C221.002 30.0229 220.591 29.9057 220.216 29.7703C219.846 29.6296 219.528 29.4604 219.262 29.2625C218.997 29.0645 218.791 28.8302 218.645 28.5593C218.499 28.2885 218.427 27.976 218.427 27.6218C218.427 27.2781 218.502 26.9526 218.653 26.6453C218.804 26.338 219.02 26.0671 219.302 25.8328C219.583 25.5984 219.924 25.4135 220.325 25.2781C220.731 25.1427 221.184 25.075 221.684 25.075C222.393 25.075 222.999 25.1947 223.505 25.4343C224.015 25.6687 224.406 25.989 224.677 26.3953C224.947 26.7963 225.083 27.2494 225.083 27.7546H223.2C223.2 27.5307 223.143 27.3223 223.028 27.1296C222.919 26.9317 222.752 26.7729 222.528 26.6531C222.304 26.5281 222.023 26.4656 221.684 26.4656C221.361 26.4656 221.093 26.5177 220.88 26.6218C220.671 26.7208 220.515 26.851 220.411 27.0125C220.312 27.1739 220.262 27.351 220.262 27.5437C220.262 27.6843 220.289 27.8119 220.341 27.9265C220.398 28.0359 220.492 28.1375 220.622 28.2312C220.752 28.3197 220.929 28.4031 221.153 28.4812C221.382 28.5593 221.669 28.6348 222.012 28.7078C222.658 28.8432 223.213 29.0177 223.677 29.2312C224.145 29.4395 224.505 29.7104 224.755 30.0437C225.005 30.3718 225.13 30.7885 225.13 31.2937C225.13 31.6687 225.049 32.0125 224.887 32.325C224.731 32.6322 224.502 32.9005 224.2 33.1296C223.898 33.3536 223.536 33.5281 223.114 33.6531C222.697 33.7781 222.229 33.8406 221.708 33.8406C220.942 33.8406 220.294 33.7052 219.762 33.4343C219.231 33.1583 218.828 32.8067 218.552 32.3796C218.281 31.9473 218.145 31.4994 218.145 31.0359H219.966C219.986 31.3848 220.083 31.6635 220.255 31.8718C220.432 32.075 220.651 32.2234 220.911 32.3171C221.177 32.4057 221.45 32.45 221.731 32.45C222.07 32.45 222.354 32.4057 222.583 32.3171C222.812 32.2234 222.986 32.0984 223.106 31.9421C223.226 31.7807 223.286 31.5984 223.286 31.3953Z" fill="white" transform="matrix(0.9999999999999999, 0, 0, 0.9999999999999999, 0, 1.4210854715202004e-14)"/>
    <text style="fill: rgb(255, 255, 255); font-family: Arial, sans-serif; font-size: 19px; text-anchor: middle; white-space: pre;" x="62.164" y="35.163" transform="matrix(0.9999999999999999, 0, 0, 0.9999999999999999, 0, 1.4210854715202004e-14)">´</text>
    <text style="white-space: pre; fill: rgb(51, 51, 51); font-family: Arial, sans-serif; font-size: 28px;" x="209.984" y="64.56" transform="matrix(0.9999999999999999, 0, 0, 0.9999999999999999, 0, 1.4210854715202004e-14)"> </text>
    <text style="white-space: pre; fill: rgb(51, 51, 51); font-family: Arial, sans-serif; font-size: 28px;" x="194.405" y="74.594" transform="matrix(0.9999999999999999, 0, 0, 0.9999999999999999, 0, 1.4210854715202004e-14)"> </text>
</svg>
