<svg width="328" height="45" viewBox="0 0 328 45" fill="none" xmlns="http://www.w3.org/2000/svg">
<path d="M0 8.66895C0 4.25067 3.58172 0.668945 8 0.668945H320C324.418 0.668945 328 4.25067 328 8.66895V36.6689C328 41.0872 324.418 44.6689 320 44.6689H7.99999C3.58171 44.6689 0 41.0872 0 36.6689V8.66895Z" fill="#8B3D99"/>
<path fill-rule="evenodd" clip-rule="evenodd" d="M80.0017 14.3357C75.408 14.3357 71.6684 18.0717 71.6667 22.665C71.6659 24.1332 72.0505 25.5666 72.7797 26.8296L71.7582 30.615C71.7222 30.7484 71.8012 30.8858 71.9346 30.9218C71.9748 30.9326 72.017 30.9333 72.0574 30.9238L76.0143 29.9889C77.2315 30.6529 78.6019 31.0015 79.9968 31.0024C84.593 31.0024 88.3309 27.2655 88.3334 22.6731C88.3351 20.4465 87.4692 18.3531 85.8957 16.7781C84.3221 15.2039 82.231 14.3365 80.0017 14.3357ZM77.0523 18.8197C76.913 18.8197 76.6877 18.8718 76.4966 19.0804L76.3583 19.2299C76.1224 19.4951 75.7666 19.9833 75.7666 20.8156C75.7666 21.6783 76.2958 22.5168 76.5253 22.8432L76.6815 23.0638C76.9868 23.5154 78.2626 25.3575 80.1744 26.111L80.5561 26.2567C81.9883 26.7838 82.3198 26.6648 82.6725 26.6324C83.0546 26.5982 83.9052 26.1298 84.0788 25.6434C84.2523 25.1571 84.2527 24.7387 84.201 24.6528C84.1751 24.6094 84.1274 24.5748 84.0602 24.5379L83.1547 24.0928C82.8264 23.934 82.482 23.7711 82.3792 23.7338C82.1881 23.6646 82.0484 23.6295 81.9099 23.8381C81.7714 24.0466 81.3734 24.5143 81.2515 24.6528C81.145 24.7747 81.039 24.8042 80.8745 24.7399L80.4795 24.5628C80.1602 24.4159 79.6722 24.1594 79.125 23.6719C78.506 23.1205 78.0883 22.4401 77.9664 22.2315C77.8724 22.07 77.9177 21.9651 77.9916 21.8777L78.0593 21.8063C78.1528 21.7128 78.2663 21.5631 78.3706 21.4413C78.474 21.3195 78.5099 21.2327 78.5791 21.0943C78.6368 20.9789 78.6219 20.8747 78.5853 20.7829L78.523 20.6419C78.4054 20.3618 78.0797 19.5418 77.9192 19.1847C77.7632 18.8384 77.5984 18.8304 77.4499 18.8246C77.3289 18.8196 77.1908 18.8197 77.0523 18.8197Z" fill="white"/>
<path d="M101.653 26.3086V27.6689H96.3688V26.3086H101.653ZM96.8541 17.7158V27.6689H95.1383V17.7158H96.8541ZM100.963 21.8721V23.2119H96.3688V21.8721H100.963ZM101.619 17.7158V19.083H96.3688V17.7158H101.619ZM107.14 25.666C107.14 25.502 107.099 25.3538 107.017 25.2217C106.935 25.085 106.777 24.9619 106.545 24.8525C106.317 24.7432 105.98 24.6429 105.533 24.5518C105.141 24.4652 104.781 24.3626 104.453 24.2441C104.13 24.1211 103.852 23.973 103.619 23.7998C103.387 23.6266 103.207 23.4215 103.079 23.1846C102.951 22.9476 102.888 22.6742 102.888 22.3643C102.888 22.0635 102.954 21.7786 103.086 21.5098C103.218 21.2409 103.407 21.0039 103.653 20.7988C103.899 20.5938 104.198 20.432 104.549 20.3135C104.904 20.195 105.301 20.1357 105.738 20.1357C106.358 20.1357 106.889 20.2406 107.331 20.4502C107.778 20.6553 108.119 20.9355 108.356 21.291C108.593 21.6419 108.712 22.0384 108.712 22.4805H107.064C107.064 22.2845 107.014 22.1022 106.914 21.9336C106.818 21.7604 106.673 21.6214 106.477 21.5166C106.281 21.4072 106.035 21.3525 105.738 21.3525C105.456 21.3525 105.221 21.3981 105.034 21.4893C104.852 21.5758 104.715 21.6898 104.624 21.8311C104.537 21.9723 104.494 22.1273 104.494 22.2959C104.494 22.4189 104.517 22.5306 104.563 22.6309C104.613 22.7266 104.695 22.8154 104.809 22.8975C104.923 22.9749 105.077 23.0479 105.273 23.1162C105.474 23.1846 105.725 23.2507 106.025 23.3145C106.59 23.4329 107.076 23.5856 107.481 23.7725C107.892 23.9548 108.206 24.1917 108.425 24.4834C108.644 24.7705 108.753 25.1351 108.753 25.5771C108.753 25.9053 108.682 26.2061 108.541 26.4795C108.404 26.7484 108.204 26.9831 107.939 27.1836C107.675 27.3796 107.358 27.5322 106.989 27.6416C106.625 27.751 106.215 27.8057 105.759 27.8057C105.089 27.8057 104.521 27.6872 104.057 27.4502C103.592 27.2087 103.239 26.901 102.997 26.5273C102.76 26.1491 102.642 25.7572 102.642 25.3516H104.234C104.253 25.6569 104.337 25.9007 104.487 26.083C104.642 26.2607 104.834 26.3906 105.062 26.4727C105.294 26.5501 105.533 26.5889 105.779 26.5889C106.076 26.5889 106.324 26.5501 106.524 26.4727C106.725 26.3906 106.878 26.2812 106.982 26.1445C107.087 26.0033 107.14 25.8438 107.14 25.666ZM113.317 26.4932C113.586 26.4932 113.827 26.4408 114.041 26.3359C114.26 26.2266 114.436 26.0762 114.568 25.8848C114.704 25.6934 114.78 25.4723 114.793 25.2217H116.345C116.336 25.7002 116.195 26.1354 115.921 26.5273C115.648 26.9193 115.286 27.2314 114.834 27.4639C114.383 27.6917 113.884 27.8057 113.337 27.8057C112.772 27.8057 112.28 27.71 111.861 27.5186C111.441 27.3226 111.093 27.0537 110.815 26.7119C110.537 26.3701 110.327 25.9759 110.186 25.5293C110.049 25.0827 109.981 24.6042 109.981 24.0938V23.8545C109.981 23.3441 110.049 22.8656 110.186 22.4189C110.327 21.9678 110.537 21.5713 110.815 21.2295C111.093 20.8877 111.441 20.6211 111.861 20.4297C112.28 20.2337 112.77 20.1357 113.33 20.1357C113.923 20.1357 114.442 20.2542 114.889 20.4912C115.336 20.7236 115.687 21.0495 115.942 21.4688C116.202 21.8835 116.336 22.3665 116.345 22.918H114.793C114.78 22.6445 114.711 22.3984 114.588 22.1797C114.47 21.9564 114.301 21.7786 114.082 21.6465C113.868 21.5143 113.611 21.4482 113.31 21.4482C112.977 21.4482 112.702 21.5166 112.483 21.6533C112.264 21.7855 112.093 21.9678 111.97 22.2002C111.847 22.4281 111.758 22.6855 111.704 22.9727C111.653 23.2552 111.628 23.5492 111.628 23.8545V24.0938C111.628 24.3991 111.653 24.6953 111.704 24.9824C111.754 25.2695 111.84 25.527 111.963 25.7549C112.091 25.9782 112.264 26.1582 112.483 26.2949C112.702 26.4271 112.98 26.4932 113.317 26.4932ZM119.364 21.6807V27.6689H117.717V20.2725H119.289L119.364 21.6807ZM121.627 20.2246L121.613 21.7559C121.513 21.7376 121.403 21.724 121.285 21.7148C121.171 21.7057 121.057 21.7012 120.943 21.7012C120.661 21.7012 120.412 21.7422 120.198 21.8242C119.984 21.9017 119.804 22.0156 119.658 22.166C119.517 22.3118 119.407 22.4896 119.33 22.6992C119.252 22.9089 119.207 23.1436 119.193 23.4033L118.817 23.4307C118.817 22.9658 118.863 22.5352 118.954 22.1387C119.045 21.7422 119.182 21.3936 119.364 21.0928C119.551 20.792 119.783 20.5573 120.061 20.3887C120.344 20.2201 120.67 20.1357 121.039 20.1357C121.139 20.1357 121.246 20.1449 121.36 20.1631C121.479 20.1813 121.568 20.2018 121.627 20.2246ZM124.543 20.2725V27.6689H122.896V20.2725H124.543ZM122.909 19.2881L124.242 17.2305H126.102L124.242 19.2881H122.909ZM126.53 17.1689H128.177V26.0898L128.02 27.6689H126.53V17.1689ZM133.004 23.9023V24.0459C133.004 24.5928 132.942 25.0964 132.819 25.5566C132.7 26.0124 132.518 26.4089 132.272 26.7461C132.031 27.0833 131.73 27.3454 131.37 27.5322C131.014 27.7145 130.602 27.8057 130.132 27.8057C129.672 27.8057 129.271 27.7191 128.929 27.5459C128.588 27.3727 128.3 27.1266 128.068 26.8076C127.84 26.4886 127.656 26.1081 127.514 25.666C127.373 25.224 127.273 24.7363 127.213 24.2031V23.7451C127.273 23.2074 127.373 22.7197 127.514 22.2822C127.656 21.8402 127.84 21.4596 128.068 21.1406C128.3 20.8171 128.585 20.5687 128.922 20.3955C129.264 20.2223 129.663 20.1357 130.119 20.1357C130.593 20.1357 131.01 20.2269 131.37 20.4092C131.734 20.5915 132.037 20.8512 132.279 21.1885C132.52 21.5212 132.7 21.9176 132.819 22.3779C132.942 22.8382 133.004 23.3464 133.004 23.9023ZM131.356 24.0459V23.9023C131.356 23.5697 131.329 23.2575 131.274 22.9658C131.219 22.6696 131.128 22.4098 131.001 22.1865C130.878 21.9632 130.709 21.7878 130.495 21.6602C130.285 21.528 130.023 21.4619 129.709 21.4619C129.417 21.4619 129.166 21.512 128.957 21.6123C128.747 21.7126 128.572 21.8493 128.43 22.0225C128.289 22.1956 128.177 22.3962 128.095 22.624C128.018 22.8519 127.965 23.098 127.938 23.3623V24.5996C127.979 24.9414 128.066 25.2559 128.198 25.543C128.335 25.8255 128.526 26.0534 128.772 26.2266C129.018 26.3952 129.335 26.4795 129.722 26.4795C130.028 26.4795 130.285 26.418 130.495 26.2949C130.704 26.1719 130.871 26.001 130.994 25.7822C131.121 25.5589 131.213 25.2992 131.267 25.0029C131.326 24.7067 131.356 24.3877 131.356 24.0459ZM137.759 27.8057C137.212 27.8057 136.717 27.7168 136.275 27.5391C135.838 27.3568 135.464 27.1038 135.154 26.7803C134.849 26.4567 134.614 26.0762 134.45 25.6387C134.286 25.2012 134.204 24.7295 134.204 24.2236V23.9502C134.204 23.3714 134.288 22.8473 134.457 22.3779C134.626 21.9085 134.86 21.5075 135.161 21.1748C135.462 20.8376 135.817 20.5801 136.228 20.4023C136.638 20.2246 137.082 20.1357 137.561 20.1357C138.089 20.1357 138.552 20.2246 138.948 20.4023C139.345 20.5801 139.673 20.8307 139.933 21.1543C140.197 21.4733 140.393 21.8538 140.521 22.2959C140.653 22.738 140.719 23.2256 140.719 23.7588V24.4629H135.004V23.2803H139.092V23.1504C139.083 22.8542 139.023 22.5762 138.914 22.3164C138.809 22.0566 138.647 21.847 138.429 21.6875C138.21 21.528 137.918 21.4482 137.554 21.4482C137.28 21.4482 137.036 21.5075 136.822 21.626C136.613 21.7399 136.437 21.9062 136.296 22.125C136.155 22.3438 136.045 22.6081 135.968 22.918C135.895 23.2233 135.858 23.5674 135.858 23.9502V24.2236C135.858 24.5472 135.902 24.848 135.988 25.126C136.079 25.3994 136.212 25.6387 136.385 25.8438C136.558 26.0488 136.768 26.2106 137.014 26.3291C137.26 26.443 137.54 26.5 137.854 26.5C138.251 26.5 138.604 26.4202 138.914 26.2607C139.224 26.1012 139.493 25.8757 139.721 25.584L140.589 26.4248C140.429 26.6572 140.222 26.8805 139.967 27.0947C139.712 27.3044 139.399 27.4753 139.03 27.6074C138.666 27.7396 138.242 27.8057 137.759 27.8057ZM143.738 21.8516V27.6689H142.09V20.2725H143.642L143.738 21.8516ZM143.444 23.6973L142.911 23.6904C142.915 23.1663 142.988 22.6855 143.129 22.248C143.275 21.8105 143.476 21.4346 143.731 21.1201C143.991 20.8057 144.301 20.5641 144.661 20.3955C145.021 20.2223 145.422 20.1357 145.864 20.1357C146.219 20.1357 146.54 20.1859 146.828 20.2861C147.119 20.3818 147.368 20.5391 147.573 20.7578C147.782 20.9766 147.942 21.2614 148.051 21.6123C148.161 21.9587 148.215 22.3848 148.215 22.8906V27.6689H146.561V22.8838C146.561 22.5283 146.509 22.248 146.404 22.043C146.303 21.8333 146.155 21.6852 145.959 21.5986C145.768 21.5075 145.529 21.4619 145.242 21.4619C144.959 21.4619 144.706 21.5212 144.483 21.6396C144.26 21.7581 144.07 21.9199 143.915 22.125C143.765 22.3301 143.649 22.5671 143.567 22.8359C143.485 23.1048 143.444 23.3919 143.444 23.6973ZM149.682 24.0527V23.8955C149.682 23.3623 149.76 22.8678 149.915 22.4121C150.07 21.9518 150.293 21.5531 150.585 21.2158C150.881 20.874 151.241 20.6097 151.665 20.4229C152.093 20.2314 152.576 20.1357 153.114 20.1357C153.656 20.1357 154.139 20.2314 154.563 20.4229C154.992 20.6097 155.354 20.874 155.65 21.2158C155.946 21.5531 156.172 21.9518 156.327 22.4121C156.482 22.8678 156.559 23.3623 156.559 23.8955V24.0527C156.559 24.5859 156.482 25.0804 156.327 25.5361C156.172 25.9919 155.946 26.3906 155.65 26.7324C155.354 27.0697 154.994 27.334 154.57 27.5254C154.146 27.7122 153.665 27.8057 153.128 27.8057C152.585 27.8057 152.1 27.7122 151.672 27.5254C151.248 27.334 150.888 27.0697 150.592 26.7324C150.295 26.3906 150.07 25.9919 149.915 25.5361C149.76 25.0804 149.682 24.5859 149.682 24.0527ZM151.33 23.8955V24.0527C151.33 24.3854 151.364 24.6999 151.432 24.9961C151.501 25.2923 151.608 25.5521 151.754 25.7754C151.9 25.9987 152.086 26.1742 152.314 26.3018C152.542 26.4294 152.813 26.4932 153.128 26.4932C153.433 26.4932 153.697 26.4294 153.921 26.3018C154.149 26.1742 154.335 25.9987 154.481 25.7754C154.627 25.5521 154.734 25.2923 154.803 24.9961C154.875 24.6999 154.912 24.3854 154.912 24.0527V23.8955C154.912 23.5674 154.875 23.2575 154.803 22.9658C154.734 22.6696 154.625 22.4076 154.474 22.1797C154.329 21.9518 154.142 21.7741 153.914 21.6465C153.691 21.5143 153.424 21.4482 153.114 21.4482C152.804 21.4482 152.535 21.5143 152.307 21.6465C152.084 21.7741 151.9 21.9518 151.754 22.1797C151.608 22.4076 151.501 22.6696 151.432 22.9658C151.364 23.2575 151.33 23.5674 151.33 23.8955ZM162.19 25.666C162.19 25.502 162.149 25.3538 162.067 25.2217C161.985 25.085 161.827 24.9619 161.595 24.8525C161.367 24.7432 161.03 24.6429 160.583 24.5518C160.191 24.4652 159.831 24.3626 159.503 24.2441C159.18 24.1211 158.902 23.973 158.669 23.7998C158.437 23.6266 158.257 23.4215 158.129 23.1846C158.002 22.9476 157.938 22.6742 157.938 22.3643C157.938 22.0635 158.004 21.7786 158.136 21.5098C158.268 21.2409 158.457 21.0039 158.703 20.7988C158.949 20.5938 159.248 20.432 159.599 20.3135C159.954 20.195 160.351 20.1357 160.788 20.1357C161.408 20.1357 161.939 20.2406 162.381 20.4502C162.828 20.6553 163.169 20.9355 163.406 21.291C163.643 21.6419 163.762 22.0384 163.762 22.4805H162.114C162.114 22.2845 162.064 22.1022 161.964 21.9336C161.868 21.7604 161.723 21.6214 161.527 21.5166C161.331 21.4072 161.085 21.3525 160.788 21.3525C160.506 21.3525 160.271 21.3981 160.084 21.4893C159.902 21.5758 159.765 21.6898 159.674 21.8311C159.587 21.9723 159.544 22.1273 159.544 22.2959C159.544 22.4189 159.567 22.5306 159.613 22.6309C159.663 22.7266 159.745 22.8154 159.859 22.8975C159.973 22.9749 160.127 23.0479 160.323 23.1162C160.524 23.1846 160.775 23.2507 161.075 23.3145C161.64 23.4329 162.126 23.5856 162.531 23.7725C162.942 23.9548 163.256 24.1917 163.475 24.4834C163.694 24.7705 163.803 25.1351 163.803 25.5771C163.803 25.9053 163.732 26.2061 163.591 26.4795C163.454 26.7484 163.254 26.9831 162.989 27.1836C162.725 27.3796 162.408 27.5322 162.039 27.6416C161.675 27.751 161.265 27.8057 160.809 27.8057C160.139 27.8057 159.571 27.6872 159.107 27.4502C158.642 27.2087 158.289 26.901 158.047 26.5273C157.81 26.1491 157.692 25.7572 157.692 25.3516H159.284C159.303 25.6569 159.387 25.9007 159.537 26.083C159.692 26.2607 159.884 26.3906 160.112 26.4727C160.344 26.5501 160.583 26.5889 160.829 26.5889C161.126 26.5889 161.374 26.5501 161.574 26.4727C161.775 26.3906 161.928 26.2812 162.032 26.1445C162.137 26.0033 162.19 25.8438 162.19 25.666ZM170.586 21.6943V30.5127H168.938V20.2725H170.456L170.586 21.6943ZM175.405 23.9023V24.0459C175.405 24.5837 175.341 25.0827 175.214 25.543C175.091 25.9987 174.906 26.3975 174.66 26.7393C174.419 27.0765 174.12 27.3385 173.765 27.5254C173.409 27.7122 172.999 27.8057 172.534 27.8057C172.074 27.8057 171.671 27.7214 171.324 27.5527C170.982 27.3796 170.693 27.1357 170.456 26.8213C170.219 26.5068 170.028 26.1377 169.882 25.7139C169.741 25.2855 169.64 24.8161 169.581 24.3057V23.752C169.64 23.2096 169.741 22.7174 169.882 22.2754C170.028 21.8333 170.219 21.4528 170.456 21.1338C170.693 20.8148 170.982 20.5687 171.324 20.3955C171.666 20.2223 172.065 20.1357 172.521 20.1357C172.985 20.1357 173.398 20.2269 173.758 20.4092C174.118 20.5869 174.421 20.8421 174.667 21.1748C174.913 21.5029 175.098 21.8994 175.221 22.3643C175.344 22.8245 175.405 23.3372 175.405 23.9023ZM173.758 24.0459V23.9023C173.758 23.5605 173.726 23.2438 173.662 22.9521C173.598 22.6559 173.498 22.3962 173.361 22.1729C173.225 21.9495 173.049 21.7764 172.835 21.6533C172.625 21.5257 172.372 21.4619 172.076 21.4619C171.785 21.4619 171.534 21.512 171.324 21.6123C171.115 21.708 170.939 21.8424 170.798 22.0156C170.657 22.1888 170.547 22.3916 170.47 22.624C170.392 22.8519 170.338 23.1003 170.306 23.3691V24.6953C170.36 25.0234 170.454 25.3242 170.586 25.5977C170.718 25.8711 170.905 26.0898 171.146 26.2539C171.393 26.4134 171.707 26.4932 172.09 26.4932C172.386 26.4932 172.639 26.4294 172.849 26.3018C173.058 26.1742 173.229 25.9987 173.361 25.7754C173.498 25.5475 173.598 25.2855 173.662 24.9893C173.726 24.693 173.758 24.3786 173.758 24.0459ZM176.592 24.0527V23.8955C176.592 23.3623 176.67 22.8678 176.825 22.4121C176.98 21.9518 177.203 21.5531 177.495 21.2158C177.791 20.874 178.151 20.6097 178.575 20.4229C179.003 20.2314 179.486 20.1357 180.024 20.1357C180.566 20.1357 181.049 20.2314 181.473 20.4229C181.901 20.6097 182.264 20.874 182.56 21.2158C182.856 21.5531 183.082 21.9518 183.237 22.4121C183.392 22.8678 183.469 23.3623 183.469 23.8955V24.0527C183.469 24.5859 183.392 25.0804 183.237 25.5361C183.082 25.9919 182.856 26.3906 182.56 26.7324C182.264 27.0697 181.904 27.334 181.48 27.5254C181.056 27.7122 180.575 27.8057 180.037 27.8057C179.495 27.8057 179.01 27.7122 178.581 27.5254C178.158 27.334 177.798 27.0697 177.501 26.7324C177.205 26.3906 176.98 25.9919 176.825 25.5361C176.67 25.0804 176.592 24.5859 176.592 24.0527ZM178.24 23.8955V24.0527C178.24 24.3854 178.274 24.6999 178.342 24.9961C178.411 25.2923 178.518 25.5521 178.663 25.7754C178.809 25.9987 178.996 26.1742 179.224 26.3018C179.452 26.4294 179.723 26.4932 180.037 26.4932C180.343 26.4932 180.607 26.4294 180.83 26.3018C181.058 26.1742 181.245 25.9987 181.391 25.7754C181.537 25.5521 181.644 25.2923 181.712 24.9961C181.785 24.6999 181.822 24.3854 181.822 24.0527V23.8955C181.822 23.5674 181.785 23.2575 181.712 22.9658C181.644 22.6696 181.535 22.4076 181.384 22.1797C181.238 21.9518 181.051 21.7741 180.824 21.6465C180.6 21.5143 180.334 21.4482 180.024 21.4482C179.714 21.4482 179.445 21.5143 179.217 21.6465C178.994 21.7741 178.809 21.9518 178.663 22.1797C178.518 22.4076 178.411 22.6696 178.342 22.9658C178.274 23.2575 178.24 23.5674 178.24 23.8955ZM186.604 21.6807V27.6689H184.957V20.2725H186.529L186.604 21.6807ZM188.867 20.2246L188.853 21.7559C188.753 21.7376 188.644 21.724 188.525 21.7148C188.411 21.7057 188.297 21.7012 188.183 21.7012C187.901 21.7012 187.652 21.7422 187.438 21.8242C187.224 21.9017 187.044 22.0156 186.898 22.166C186.757 22.3118 186.648 22.4896 186.57 22.6992C186.493 22.9089 186.447 23.1436 186.433 23.4033L186.057 23.4307C186.057 22.9658 186.103 22.5352 186.194 22.1387C186.285 21.7422 186.422 21.3936 186.604 21.0928C186.791 20.792 187.024 20.5573 187.302 20.3887C187.584 20.2201 187.91 20.1357 188.279 20.1357C188.379 20.1357 188.486 20.1449 188.6 20.1631C188.719 20.1813 188.808 20.2018 188.867 20.2246ZM196.245 25.4336L198.227 17.7158H199.266L199.15 19.7051L197.031 27.6689H195.951L196.245 25.4336ZM194.761 17.7158L196.368 25.3721L196.511 27.6689H195.363L193.059 17.7158H194.761ZM201.515 25.3516L203.101 17.7158H204.81L202.506 27.6689H201.358L201.515 25.3516ZM199.67 17.7158L201.631 25.4541L201.919 27.6689H200.838L198.754 19.7051L198.644 17.7158H199.67ZM207.645 17.1689V27.6689H206.004V17.1689H207.645ZM207.357 23.6973L206.824 23.6904C206.829 23.18 206.899 22.7083 207.036 22.2754C207.177 21.8424 207.373 21.4665 207.624 21.1475C207.879 20.8239 208.185 20.5755 208.54 20.4023C208.896 20.2246 209.29 20.1357 209.723 20.1357C210.087 20.1357 210.415 20.1859 210.707 20.2861C211.003 20.3864 211.258 20.5482 211.473 20.7715C211.687 20.9902 211.849 21.2773 211.958 21.6328C212.072 21.9837 212.129 22.4121 212.129 22.918V27.6689H210.475V22.9043C210.475 22.5488 210.422 22.2663 210.317 22.0566C210.217 21.847 210.069 21.6966 209.873 21.6055C209.677 21.5098 209.438 21.4619 209.155 21.4619C208.859 21.4619 208.597 21.5212 208.369 21.6396C208.146 21.7581 207.959 21.9199 207.809 22.125C207.658 22.3301 207.544 22.5671 207.467 22.8359C207.394 23.1048 207.357 23.3919 207.357 23.6973ZM218.067 26.1855V22.6582C218.067 22.3939 218.019 22.166 217.923 21.9746C217.828 21.7832 217.682 21.6351 217.486 21.5303C217.294 21.4255 217.053 21.373 216.761 21.373C216.492 21.373 216.26 21.4186 216.064 21.5098C215.868 21.6009 215.715 21.724 215.606 21.8789C215.496 22.0339 215.442 22.2093 215.442 22.4053H213.801C213.801 22.1136 213.872 21.8311 214.013 21.5576C214.154 21.2842 214.359 21.0404 214.628 20.8262C214.897 20.612 215.218 20.4434 215.592 20.3203C215.966 20.1973 216.385 20.1357 216.85 20.1357C217.406 20.1357 217.898 20.2292 218.327 20.416C218.76 20.6029 219.099 20.8854 219.345 21.2637C219.596 21.6374 219.721 22.1068 219.721 22.6719V25.96C219.721 26.2972 219.744 26.6003 219.789 26.8691C219.84 27.1335 219.91 27.3636 220.001 27.5596V27.6689H218.313C218.235 27.4912 218.174 27.2656 218.128 26.9922C218.087 26.7142 218.067 26.4453 218.067 26.1855ZM218.306 23.1709L218.32 24.1895H217.137C216.832 24.1895 216.563 24.2191 216.33 24.2783C216.098 24.333 215.904 24.415 215.749 24.5244C215.594 24.6338 215.478 24.766 215.401 24.9209C215.323 25.0758 215.285 25.2513 215.285 25.4473C215.285 25.6432 215.33 25.8232 215.421 25.9873C215.512 26.1468 215.645 26.2721 215.818 26.3633C215.996 26.4544 216.21 26.5 216.46 26.5C216.798 26.5 217.092 26.4316 217.342 26.2949C217.597 26.1536 217.798 25.9827 217.944 25.7822C218.09 25.5771 218.167 25.3835 218.176 25.2012L218.709 25.9326C218.655 26.1195 218.561 26.32 218.429 26.5342C218.297 26.7484 218.124 26.9535 217.91 27.1494C217.7 27.3408 217.447 27.498 217.151 27.6211C216.859 27.7441 216.522 27.8057 216.139 27.8057C215.656 27.8057 215.225 27.71 214.847 27.5186C214.469 27.3226 214.173 27.0605 213.958 26.7324C213.744 26.3997 213.637 26.0238 213.637 25.6045C213.637 25.2126 213.71 24.8662 213.856 24.5654C214.006 24.2601 214.225 24.0049 214.512 23.7998C214.804 23.5947 215.159 23.4398 215.579 23.335C215.998 23.2256 216.476 23.1709 217.014 23.1709H218.306ZM224.934 20.2725V21.4756H220.764V20.2725H224.934ZM221.968 18.4609H223.615V25.625C223.615 25.8529 223.647 26.0283 223.711 26.1514C223.779 26.2699 223.873 26.3496 223.991 26.3906C224.11 26.4316 224.249 26.4521 224.408 26.4521C224.522 26.4521 224.631 26.4453 224.736 26.4316C224.841 26.418 224.925 26.4043 224.989 26.3906L224.996 27.6484C224.859 27.6895 224.7 27.7259 224.517 27.7578C224.34 27.7897 224.135 27.8057 223.902 27.8057C223.524 27.8057 223.189 27.7396 222.897 27.6074C222.606 27.4707 222.378 27.2497 222.214 26.9443C222.05 26.639 221.968 26.2334 221.968 25.7275V18.4609ZM230.455 25.666C230.455 25.502 230.414 25.3538 230.332 25.2217C230.25 25.085 230.093 24.9619 229.861 24.8525C229.633 24.7432 229.295 24.6429 228.849 24.5518C228.457 24.4652 228.097 24.3626 227.769 24.2441C227.445 24.1211 227.167 23.973 226.935 23.7998C226.702 23.6266 226.522 23.4215 226.395 23.1846C226.267 22.9476 226.203 22.6742 226.203 22.3643C226.203 22.0635 226.269 21.7786 226.402 21.5098C226.534 21.2409 226.723 21.0039 226.969 20.7988C227.215 20.5938 227.514 20.432 227.864 20.3135C228.22 20.195 228.616 20.1357 229.054 20.1357C229.674 20.1357 230.205 20.2406 230.647 20.4502C231.093 20.6553 231.435 20.9355 231.672 21.291C231.909 21.6419 232.028 22.0384 232.028 22.4805H230.38C230.38 22.2845 230.33 22.1022 230.23 21.9336C230.134 21.7604 229.988 21.6214 229.792 21.5166C229.596 21.4072 229.35 21.3525 229.054 21.3525C228.771 21.3525 228.537 21.3981 228.35 21.4893C228.168 21.5758 228.031 21.6898 227.94 21.8311C227.853 21.9723 227.81 22.1273 227.81 22.2959C227.81 22.4189 227.833 22.5306 227.878 22.6309C227.928 22.7266 228.01 22.8154 228.124 22.8975C228.238 22.9749 228.393 23.0479 228.589 23.1162C228.79 23.1846 229.04 23.2507 229.341 23.3145C229.906 23.4329 230.391 23.5856 230.797 23.7725C231.207 23.9548 231.522 24.1917 231.74 24.4834C231.959 24.7705 232.069 25.1351 232.069 25.5771C232.069 25.9053 231.998 26.2061 231.857 26.4795C231.72 26.7484 231.519 26.9831 231.255 27.1836C230.991 27.3796 230.674 27.5322 230.305 27.6416C229.94 27.751 229.53 27.8057 229.074 27.8057C228.404 27.8057 227.837 27.6872 227.372 27.4502C226.907 27.2087 226.554 26.901 226.313 26.5273C226.076 26.1491 225.957 25.7572 225.957 25.3516H227.55C227.568 25.6569 227.653 25.9007 227.803 26.083C227.958 26.2607 228.149 26.3906 228.377 26.4727C228.61 26.5501 228.849 26.5889 229.095 26.5889C229.391 26.5889 229.64 26.5501 229.84 26.4727C230.041 26.3906 230.193 26.2812 230.298 26.1445C230.403 26.0033 230.455 25.8438 230.455 25.666ZM237.651 19.042L234.677 27.6689H232.879L236.626 17.7158H237.774L237.651 19.042ZM240.139 27.6689L237.159 19.042L237.029 17.7158H238.184L241.944 27.6689H240.139ZM239.996 23.9775V25.3379H234.582V23.9775H239.996ZM244.525 21.6943V30.5127H242.878V20.2725H244.396L244.525 21.6943ZM249.345 23.9023V24.0459C249.345 24.5837 249.281 25.0827 249.153 25.543C249.03 25.9987 248.846 26.3975 248.6 26.7393C248.358 27.0765 248.06 27.3385 247.704 27.5254C247.349 27.7122 246.938 27.8057 246.474 27.8057C246.013 27.8057 245.61 27.7214 245.264 27.5527C244.922 27.3796 244.632 27.1357 244.396 26.8213C244.159 26.5068 243.967 26.1377 243.821 25.7139C243.68 25.2855 243.58 24.8161 243.521 24.3057V23.752C243.58 23.2096 243.68 22.7174 243.821 22.2754C243.967 21.8333 244.159 21.4528 244.396 21.1338C244.632 20.8148 244.922 20.5687 245.264 20.3955C245.605 20.2223 246.004 20.1357 246.46 20.1357C246.925 20.1357 247.337 20.2269 247.697 20.4092C248.057 20.5869 248.36 20.8421 248.606 21.1748C248.853 21.5029 249.037 21.8994 249.16 22.3643C249.283 22.8245 249.345 23.3372 249.345 23.9023ZM247.697 24.0459V23.9023C247.697 23.5605 247.665 23.2438 247.602 22.9521C247.538 22.6559 247.438 22.3962 247.301 22.1729C247.164 21.9495 246.989 21.7764 246.774 21.6533C246.565 21.5257 246.312 21.4619 246.016 21.4619C245.724 21.4619 245.473 21.512 245.264 21.6123C245.054 21.708 244.879 21.8424 244.737 22.0156C244.596 22.1888 244.487 22.3916 244.409 22.624C244.332 22.8519 244.277 23.1003 244.245 23.3691V24.6953C244.3 25.0234 244.393 25.3242 244.525 25.5977C244.658 25.8711 244.844 26.0898 245.086 26.2539C245.332 26.4134 245.646 26.4932 246.029 26.4932C246.326 26.4932 246.578 26.4294 246.788 26.3018C246.998 26.1742 247.169 25.9987 247.301 25.7754C247.438 25.5475 247.538 25.2855 247.602 24.9893C247.665 24.693 247.697 24.3786 247.697 24.0459ZM252.5 21.6943V30.5127H250.853V20.2725H252.371L252.5 21.6943ZM257.32 23.9023V24.0459C257.32 24.5837 257.256 25.0827 257.128 25.543C257.005 25.9987 256.821 26.3975 256.575 26.7393C256.333 27.0765 256.035 27.3385 255.679 27.5254C255.324 27.7122 254.913 27.8057 254.449 27.8057C253.988 27.8057 253.585 27.7214 253.239 27.5527C252.897 27.3796 252.607 27.1357 252.371 26.8213C252.134 26.5068 251.942 26.1377 251.796 25.7139C251.655 25.2855 251.555 24.8161 251.496 24.3057V23.752C251.555 23.2096 251.655 22.7174 251.796 22.2754C251.942 21.8333 252.134 21.4528 252.371 21.1338C252.607 20.8148 252.897 20.5687 253.239 20.3955C253.58 20.2223 253.979 20.1357 254.435 20.1357C254.9 20.1357 255.312 20.2269 255.672 20.4092C256.032 20.5869 256.335 20.8421 256.581 21.1748C256.828 21.5029 257.012 21.8994 257.135 22.3643C257.258 22.8245 257.32 23.3372 257.32 23.9023ZM255.672 24.0459V23.9023C255.672 23.5605 255.64 23.2438 255.577 22.9521C255.513 22.6559 255.413 22.3962 255.276 22.1729C255.139 21.9495 254.964 21.7764 254.749 21.6533C254.54 21.5257 254.287 21.4619 253.991 21.4619C253.699 21.4619 253.448 21.512 253.239 21.6123C253.029 21.708 252.854 21.8424 252.712 22.0156C252.571 22.1888 252.462 22.3916 252.384 22.624C252.307 22.8519 252.252 23.1003 252.22 23.3691V24.6953C252.275 25.0234 252.368 25.3242 252.5 25.5977C252.633 25.8711 252.819 26.0898 253.061 26.2539C253.307 26.4134 253.621 26.4932 254.004 26.4932C254.301 26.4932 254.553 26.4294 254.763 26.3018C254.973 26.1742 255.144 25.9987 255.276 25.7754C255.413 25.5475 255.513 25.2855 255.577 24.9893C255.64 24.693 255.672 24.3786 255.672 24.0459Z" fill="white"/>
</svg>
