<svg width="312" height="57" viewBox="0 0 312 57" fill="none" xmlns="http://www.w3.org/2000/svg">
<rect y="0.368652" width="312" height="56" rx="8" fill="#8B3D99"/>
<path fill-rule="evenodd" clip-rule="evenodd" d="M114.502 18.3687C108.989 18.3687 104.502 22.8518 104.5 28.3638C104.499 30.1257 104.961 31.8457 105.836 33.3613L104.61 37.9038C104.567 38.0639 104.661 38.2288 104.821 38.272C104.87 38.285 104.92 38.2858 104.969 38.2743L109.717 37.1525C111.178 37.9494 112.822 38.3677 114.496 38.3687C120.011 38.3687 124.497 33.8845 124.5 28.3735C124.502 25.7017 123.463 23.1896 121.575 21.2995C119.686 19.4105 117.177 18.3697 114.502 18.3687ZM110.963 23.7494C110.795 23.7494 110.525 23.812 110.296 24.0623L110.13 24.2417C109.847 24.5599 109.42 25.1458 109.42 26.1446C109.42 27.1798 110.055 28.1859 110.33 28.5777L110.518 28.8424C110.884 29.3843 112.415 31.5949 114.709 32.4991L115.167 32.6739C116.886 33.3064 117.284 33.1635 117.707 33.1247C118.165 33.0837 119.186 32.5215 119.394 31.9379C119.603 31.3543 119.603 30.8522 119.541 30.7491C119.51 30.6971 119.453 30.6555 119.372 30.6114L118.286 30.0772C117.892 29.8867 117.478 29.6911 117.355 29.6464C117.126 29.5633 116.958 29.5213 116.792 29.7715C116.626 30.0218 116.148 30.583 116.002 30.7491C115.874 30.8954 115.747 30.9309 115.549 30.8537L115.075 30.6412C114.692 30.4649 114.107 30.1571 113.45 29.5721C112.707 28.9104 112.206 28.0939 112.06 27.8437C111.947 27.6498 112.001 27.5239 112.09 27.4191L112.171 27.3334C112.283 27.2212 112.419 27.0415 112.545 26.8954C112.669 26.7492 112.712 26.6451 112.795 26.4789C112.864 26.3404 112.846 26.2155 112.802 26.1053L112.728 25.9361C112.586 25.5999 112.196 24.616 112.003 24.1874C111.816 23.772 111.618 23.7623 111.44 23.7553C111.295 23.7493 111.129 23.7494 110.963 23.7494Z" fill="white"/>
<path d="M138.662 30.814L140.928 21.9937H142.116L141.983 24.2671L139.561 33.3687H138.327L138.662 30.814ZM136.967 21.9937L138.803 30.7437L138.967 33.3687H137.655L135.022 21.9937H136.967ZM144.686 30.7202L146.498 21.9937H148.452L145.819 33.3687H144.506L144.686 30.7202ZM142.577 21.9937L144.819 30.8374L145.147 33.3687H143.912L141.53 24.2671L141.405 21.9937H142.577ZM151.727 21.3687V33.3687H149.852V21.3687H151.727ZM151.398 28.8296L150.789 28.8218C150.794 28.2384 150.875 27.6994 151.031 27.2046C151.193 26.7098 151.417 26.2801 151.703 25.9155C151.995 25.5457 152.344 25.2619 152.75 25.064C153.156 24.8608 153.607 24.7593 154.102 24.7593C154.518 24.7593 154.893 24.8166 155.227 24.9312C155.565 25.0457 155.857 25.2306 156.102 25.4858C156.346 25.7358 156.531 26.064 156.656 26.4702C156.786 26.8713 156.852 27.3608 156.852 27.939V33.3687H154.961V27.9233C154.961 27.5171 154.901 27.1942 154.781 26.9546C154.667 26.715 154.497 26.5431 154.273 26.439C154.049 26.3296 153.776 26.2749 153.453 26.2749C153.115 26.2749 152.815 26.3426 152.555 26.478C152.299 26.6134 152.086 26.7983 151.914 27.0327C151.742 27.2671 151.612 27.5379 151.523 27.8452C151.44 28.1525 151.398 28.4806 151.398 28.8296ZM163.673 31.6733V27.6421C163.673 27.34 163.619 27.0796 163.509 26.8608C163.4 26.6421 163.233 26.4728 163.009 26.353C162.791 26.2332 162.515 26.1733 162.181 26.1733C161.874 26.1733 161.608 26.2254 161.384 26.3296C161.16 26.4338 160.986 26.5744 160.861 26.7515C160.736 26.9285 160.673 27.1291 160.673 27.353H158.798C158.798 27.0197 158.879 26.6968 159.041 26.3843C159.202 26.0718 159.436 25.7931 159.744 25.5483C160.051 25.3035 160.418 25.1108 160.845 24.9702C161.272 24.8296 161.752 24.7593 162.283 24.7593C162.918 24.7593 163.481 24.866 163.97 25.0796C164.465 25.2931 164.853 25.616 165.134 26.0483C165.421 26.4754 165.564 27.0119 165.564 27.6577V31.4155C165.564 31.8009 165.59 32.1473 165.642 32.4546C165.699 32.7567 165.78 33.0197 165.884 33.2437V33.3687H163.955C163.866 33.1655 163.796 32.9077 163.744 32.5952C163.697 32.2775 163.673 31.9702 163.673 31.6733ZM163.947 28.228L163.962 29.3921H162.611C162.262 29.3921 161.955 29.4259 161.689 29.4937C161.423 29.5562 161.202 29.6499 161.025 29.7749C160.848 29.8999 160.715 30.0509 160.627 30.228C160.538 30.4051 160.494 30.6056 160.494 30.8296C160.494 31.0535 160.546 31.2593 160.65 31.4468C160.754 31.6291 160.905 31.7723 161.103 31.8765C161.306 31.9806 161.551 32.0327 161.837 32.0327C162.223 32.0327 162.559 31.9546 162.845 31.7983C163.137 31.6369 163.366 31.4416 163.533 31.2124C163.699 30.978 163.788 30.7567 163.798 30.5483L164.408 31.3843C164.345 31.5978 164.239 31.827 164.087 32.0718C163.936 32.3166 163.739 32.5509 163.494 32.7749C163.254 32.9937 162.965 33.1733 162.627 33.314C162.293 33.4546 161.908 33.5249 161.47 33.5249C160.918 33.5249 160.426 33.4155 159.994 33.1968C159.561 32.9728 159.223 32.6733 158.978 32.2983C158.733 31.9181 158.611 31.4884 158.611 31.0093C158.611 30.5614 158.694 30.1655 158.861 29.8218C159.033 29.4728 159.283 29.1812 159.611 28.9468C159.944 28.7124 160.351 28.5353 160.83 28.4155C161.309 28.2905 161.856 28.228 162.47 28.228H163.947ZM171.558 24.9155V26.2905H166.792V24.9155H171.558ZM168.167 22.8452H170.05V31.0327C170.05 31.2931 170.086 31.4937 170.159 31.6343C170.237 31.7697 170.344 31.8608 170.48 31.9077C170.615 31.9546 170.774 31.978 170.956 31.978C171.086 31.978 171.211 31.9702 171.331 31.9546C171.451 31.939 171.547 31.9233 171.62 31.9077L171.628 33.3452C171.472 33.3921 171.29 33.4338 171.081 33.4702C170.878 33.5067 170.644 33.5249 170.378 33.5249C169.946 33.5249 169.563 33.4494 169.23 33.2983C168.896 33.1421 168.636 32.8895 168.448 32.5405C168.261 32.1916 168.167 31.728 168.167 31.1499V22.8452ZM177.903 31.0796C177.903 30.8921 177.856 30.7228 177.762 30.5718C177.669 30.4155 177.489 30.2749 177.223 30.1499C176.963 30.0249 176.578 29.9103 176.067 29.8062C175.619 29.7072 175.208 29.59 174.833 29.4546C174.463 29.314 174.145 29.1447 173.88 28.9468C173.614 28.7489 173.408 28.5145 173.262 28.2437C173.117 27.9728 173.044 27.6603 173.044 27.3062C173.044 26.9624 173.119 26.6369 173.27 26.3296C173.421 26.0223 173.637 25.7515 173.919 25.5171C174.2 25.2827 174.541 25.0978 174.942 24.9624C175.348 24.827 175.802 24.7593 176.302 24.7593C177.01 24.7593 177.617 24.8791 178.122 25.1187C178.632 25.353 179.023 25.6733 179.294 26.0796C179.565 26.4806 179.7 26.9338 179.7 27.439H177.817C177.817 27.215 177.76 27.0067 177.645 26.814C177.536 26.616 177.369 26.4572 177.145 26.3374C176.921 26.2124 176.64 26.1499 176.302 26.1499C175.979 26.1499 175.71 26.202 175.497 26.3062C175.289 26.4051 175.132 26.5353 175.028 26.6968C174.929 26.8582 174.88 27.0353 174.88 27.228C174.88 27.3687 174.906 27.4963 174.958 27.6108C175.015 27.7202 175.109 27.8218 175.239 27.9155C175.369 28.0041 175.546 28.0874 175.77 28.1655C175.999 28.2437 176.286 28.3192 176.63 28.3921C177.276 28.5275 177.83 28.702 178.294 28.9155C178.762 29.1239 179.122 29.3947 179.372 29.728C179.622 30.0562 179.747 30.4728 179.747 30.978C179.747 31.353 179.666 31.6968 179.505 32.0093C179.348 32.3166 179.119 32.5848 178.817 32.814C178.515 33.0379 178.153 33.2124 177.731 33.3374C177.315 33.4624 176.846 33.5249 176.325 33.5249C175.559 33.5249 174.911 33.3895 174.38 33.1187C173.848 32.8426 173.445 32.491 173.169 32.064C172.898 31.6317 172.762 31.1838 172.762 30.7202H174.583C174.604 31.0692 174.7 31.3478 174.872 31.5562C175.049 31.7593 175.268 31.9077 175.528 32.0015C175.794 32.09 176.067 32.1343 176.348 32.1343C176.687 32.1343 176.971 32.09 177.2 32.0015C177.429 31.9077 177.604 31.7827 177.723 31.6265C177.843 31.465 177.903 31.2827 177.903 31.0796ZM186.162 23.5093L182.764 33.3687H180.709L184.991 21.9937H186.303L186.162 23.5093ZM189.006 33.3687L185.6 23.5093L185.452 21.9937H186.772L191.069 33.3687H189.006ZM188.842 29.1499V30.7046H182.655V29.1499H188.842ZM194.055 26.5405V36.6187H192.172V24.9155H193.906L194.055 26.5405ZM199.562 29.064V29.228C199.562 29.8426 199.49 30.4129 199.344 30.939C199.203 31.4598 198.992 31.9155 198.711 32.3062C198.435 32.6916 198.094 32.991 197.688 33.2046C197.281 33.4181 196.812 33.5249 196.281 33.5249C195.755 33.5249 195.294 33.4285 194.898 33.2358C194.508 33.0379 194.177 32.7593 193.906 32.3999C193.635 32.0405 193.417 31.6187 193.25 31.1343C193.089 30.6447 192.974 30.1082 192.906 29.5249V28.8921C192.974 28.2723 193.089 27.7098 193.25 27.2046C193.417 26.6994 193.635 26.2645 193.906 25.8999C194.177 25.5353 194.508 25.2541 194.898 25.0562C195.289 24.8582 195.745 24.7593 196.266 24.7593C196.797 24.7593 197.268 24.8634 197.68 25.0718C198.091 25.2749 198.438 25.5666 198.719 25.9468C199 26.3218 199.211 26.7749 199.352 27.3062C199.492 27.8322 199.562 28.4181 199.562 29.064ZM197.68 29.228V29.064C197.68 28.6733 197.643 28.3114 197.57 27.978C197.497 27.6395 197.383 27.3426 197.227 27.0874C197.07 26.8322 196.87 26.6343 196.625 26.4937C196.385 26.3478 196.096 26.2749 195.758 26.2749C195.424 26.2749 195.138 26.3322 194.898 26.4468C194.659 26.5562 194.458 26.7098 194.297 26.9077C194.135 27.1056 194.01 27.3374 193.922 27.603C193.833 27.8634 193.771 28.1473 193.734 28.4546V29.9702C193.797 30.3452 193.904 30.689 194.055 31.0015C194.206 31.314 194.419 31.564 194.695 31.7515C194.977 31.9338 195.336 32.0249 195.773 32.0249C196.112 32.0249 196.401 31.952 196.641 31.8062C196.88 31.6603 197.076 31.4598 197.227 31.2046C197.383 30.9442 197.497 30.6447 197.57 30.3062C197.643 29.9676 197.68 29.6082 197.68 29.228ZM203.205 26.5405V36.6187H201.322V24.9155H203.056L203.205 26.5405ZM208.713 29.064V29.228C208.713 29.8426 208.64 30.4129 208.494 30.939C208.353 31.4598 208.142 31.9155 207.861 32.3062C207.585 32.6916 207.244 32.991 206.838 33.2046C206.431 33.4181 205.963 33.5249 205.431 33.5249C204.905 33.5249 204.444 33.4285 204.048 33.2358C203.658 33.0379 203.327 32.7593 203.056 32.3999C202.785 32.0405 202.567 31.6187 202.4 31.1343C202.239 30.6447 202.124 30.1082 202.056 29.5249V28.8921C202.124 28.2723 202.239 27.7098 202.4 27.2046C202.567 26.6994 202.785 26.2645 203.056 25.8999C203.327 25.5353 203.658 25.2541 204.048 25.0562C204.439 24.8582 204.895 24.7593 205.416 24.7593C205.947 24.7593 206.418 24.8634 206.83 25.0718C207.241 25.2749 207.588 25.5666 207.869 25.9468C208.15 26.3218 208.361 26.7749 208.502 27.3062C208.642 27.8322 208.713 28.4181 208.713 29.064ZM206.83 29.228V29.064C206.83 28.6733 206.793 28.3114 206.72 27.978C206.647 27.6395 206.533 27.3426 206.377 27.0874C206.22 26.8322 206.02 26.6343 205.775 26.4937C205.535 26.3478 205.246 26.2749 204.908 26.2749C204.574 26.2749 204.288 26.3322 204.048 26.4468C203.809 26.5562 203.608 26.7098 203.447 26.9077C203.285 27.1056 203.16 27.3374 203.072 27.603C202.983 27.8634 202.921 28.1473 202.884 28.4546V29.9702C202.947 30.3452 203.054 30.689 203.205 31.0015C203.356 31.314 203.569 31.564 203.845 31.7515C204.127 31.9338 204.486 32.0249 204.923 32.0249C205.262 32.0249 205.551 31.952 205.791 31.8062C206.03 31.6603 206.226 31.4598 206.377 31.2046C206.533 30.9442 206.647 30.6447 206.72 30.3062C206.793 29.9676 206.83 29.6082 206.83 29.228Z" fill="white"/>
</svg>
