<svg width="242" height="57" viewBox="0 0 242 57" fill="none" xmlns="http://www.w3.org/2000/svg">
<rect y="0.684326" width="242" height="56" rx="8" fill="#8B3D99"/>
<path fill-rule="evenodd" clip-rule="evenodd" d="M79.502 18.6843C73.9895 18.6843 69.502 23.1675 69.5 28.6794C69.499 30.4413 69.9605 32.1614 70.8356 33.677L69.6097 38.2195C69.5665 38.3796 69.6613 38.5445 69.8215 38.5877C69.8696 38.6007 69.9202 38.6015 69.9688 38.59L74.7171 37.4682C76.1778 38.265 77.8221 38.6833 79.4961 38.6843C85.0115 38.6843 89.497 34.2001 89.5 28.6892C89.502 26.0173 88.4629 23.5052 86.5747 21.6152C84.6865 19.7262 82.1771 18.6853 79.502 18.6843ZM75.9626 24.0651C75.7955 24.0651 75.5251 24.1277 75.2959 24.3779L75.1299 24.5573C74.8468 24.8756 74.4198 25.4614 74.4198 26.4603C74.4198 27.4955 75.0549 28.5016 75.3302 28.8934L75.5177 29.1581C75.884 29.6999 77.4151 31.9105 79.7092 32.8147L80.1672 32.9895C81.8858 33.6221 82.2836 33.4792 82.7069 33.4404C83.1654 33.3994 84.1862 32.8372 84.3944 32.2536C84.6026 31.67 84.6031 31.1679 84.5411 31.0648C84.51 31.0128 84.4528 30.9712 84.3721 30.927L83.2855 30.3929C82.8915 30.2023 82.4784 30.0068 82.3549 29.9621C82.1256 29.879 81.9579 29.8369 81.7917 30.0872C81.6255 30.3375 81.1479 30.8986 81.0018 31.0648C80.8739 31.2111 80.7467 31.2466 80.5492 31.1693L80.0753 30.9569C79.6922 30.7806 79.1066 30.4728 78.4499 29.8878C77.7071 29.2261 77.2058 28.4096 77.0596 28.1593C76.9467 27.9655 77.0012 27.8396 77.0898 27.7348L77.1711 27.649C77.2832 27.5369 77.4194 27.3572 77.5446 27.2111C77.6687 27.0649 77.7118 26.9608 77.7949 26.7946C77.8641 26.6561 77.8461 26.5312 77.8023 26.421L77.7276 26.2518C77.5864 25.9156 77.1956 24.9317 77.0029 24.5031C76.8157 24.0876 76.618 24.078 76.4398 24.071C76.2946 24.065 76.1288 24.0651 75.9626 24.0651Z" fill="white"/>
<path d="M103.662 31.1296L105.928 22.3093H107.116L106.983 24.5828L104.561 33.6843H103.327L103.662 31.1296ZM101.967 22.3093L103.803 31.0593L103.967 33.6843H102.655L100.022 22.3093H101.967ZM109.686 31.0359L111.498 22.3093H113.452L110.819 33.6843H109.506L109.686 31.0359ZM107.577 22.3093L109.819 31.1531L110.147 33.6843H108.912L106.53 24.5828L106.405 22.3093H107.577ZM116.727 21.6843V33.6843H114.852V21.6843H116.727ZM116.398 29.1453L115.789 29.1375C115.794 28.5541 115.875 28.0151 116.031 27.5203C116.193 27.0255 116.417 26.5958 116.703 26.2312C116.995 25.8614 117.344 25.5776 117.75 25.3796C118.156 25.1765 118.607 25.075 119.102 25.075C119.518 25.075 119.893 25.1322 120.227 25.2468C120.565 25.3614 120.857 25.5463 121.102 25.8015C121.346 26.0515 121.531 26.3796 121.656 26.7859C121.786 27.1869 121.852 27.6765 121.852 28.2546V33.6843H119.961V28.239C119.961 27.8328 119.901 27.5098 119.781 27.2703C119.667 27.0307 119.497 26.8588 119.273 26.7546C119.049 26.6453 118.776 26.5906 118.453 26.5906C118.115 26.5906 117.815 26.6583 117.555 26.7937C117.299 26.9291 117.086 27.114 116.914 27.3484C116.742 27.5828 116.612 27.8536 116.523 28.1609C116.44 28.4682 116.398 28.7963 116.398 29.1453ZM128.673 31.989V27.9578C128.673 27.6557 128.619 27.3953 128.509 27.1765C128.4 26.9578 128.233 26.7885 128.009 26.6687C127.791 26.5489 127.515 26.489 127.181 26.489C126.874 26.489 126.608 26.5411 126.384 26.6453C126.16 26.7494 125.986 26.8901 125.861 27.0671C125.736 27.2442 125.673 27.4447 125.673 27.6687H123.798C123.798 27.3354 123.879 27.0125 124.041 26.7C124.202 26.3875 124.436 26.1088 124.744 25.864C125.051 25.6192 125.418 25.4265 125.845 25.2859C126.272 25.1453 126.752 25.075 127.283 25.075C127.918 25.075 128.481 25.1817 128.97 25.3953C129.465 25.6088 129.853 25.9317 130.134 26.364C130.421 26.7911 130.564 27.3276 130.564 27.9734V31.7312C130.564 32.1166 130.59 32.463 130.642 32.7703C130.699 33.0723 130.78 33.3354 130.884 33.5593V33.6843H128.955C128.866 33.4812 128.796 33.2234 128.744 32.9109C128.697 32.5932 128.673 32.2859 128.673 31.989ZM128.947 28.5437L128.962 29.7078H127.611C127.262 29.7078 126.955 29.7416 126.689 29.8093C126.423 29.8718 126.202 29.9656 126.025 30.0906C125.848 30.2156 125.715 30.3666 125.627 30.5437C125.538 30.7208 125.494 30.9213 125.494 31.1453C125.494 31.3692 125.546 31.575 125.65 31.7625C125.754 31.9447 125.905 32.088 126.103 32.1921C126.306 32.2963 126.551 32.3484 126.837 32.3484C127.223 32.3484 127.559 32.2703 127.845 32.114C128.137 31.9526 128.366 31.7572 128.533 31.5281C128.699 31.2937 128.788 31.0723 128.798 30.864L129.408 31.7C129.345 31.9135 129.239 32.1427 129.087 32.3875C128.936 32.6322 128.739 32.8666 128.494 33.0906C128.254 33.3093 127.965 33.489 127.627 33.6296C127.293 33.7703 126.908 33.8406 126.47 33.8406C125.918 33.8406 125.426 33.7312 124.994 33.5125C124.561 33.2885 124.223 32.989 123.978 32.614C123.733 32.2338 123.611 31.8041 123.611 31.325C123.611 30.877 123.694 30.4812 123.861 30.1375C124.033 29.7885 124.283 29.4968 124.611 29.2625C124.944 29.0281 125.351 28.851 125.83 28.7312C126.309 28.6062 126.856 28.5437 127.47 28.5437H128.947ZM136.558 25.2312V26.6062H131.792V25.2312H136.558ZM133.167 23.1609H135.05V31.3484C135.05 31.6088 135.086 31.8093 135.159 31.95C135.237 32.0854 135.344 32.1765 135.48 32.2234C135.615 32.2703 135.774 32.2937 135.956 32.2937C136.086 32.2937 136.211 32.2859 136.331 32.2703C136.451 32.2546 136.547 32.239 136.62 32.2234L136.628 33.6609C136.472 33.7078 136.29 33.7494 136.081 33.7859C135.878 33.8223 135.644 33.8406 135.378 33.8406C134.946 33.8406 134.563 33.7651 134.23 33.614C133.896 33.4578 133.636 33.2052 133.448 32.8562C133.261 32.5072 133.167 32.0437 133.167 31.4656V23.1609ZM142.903 31.3953C142.903 31.2078 142.856 31.0385 142.762 30.8875C142.669 30.7312 142.489 30.5906 142.223 30.4656C141.963 30.3406 141.578 30.226 141.067 30.1218C140.619 30.0229 140.208 29.9057 139.833 29.7703C139.463 29.6296 139.145 29.4604 138.88 29.2625C138.614 29.0645 138.408 28.8302 138.262 28.5593C138.117 28.2885 138.044 27.976 138.044 27.6218C138.044 27.2781 138.119 26.9526 138.27 26.6453C138.421 26.338 138.637 26.0671 138.919 25.8328C139.2 25.5984 139.541 25.4135 139.942 25.2781C140.348 25.1427 140.802 25.075 141.302 25.075C142.01 25.075 142.617 25.1947 143.122 25.4343C143.632 25.6687 144.023 25.989 144.294 26.3953C144.565 26.7963 144.7 27.2494 144.7 27.7546H142.817C142.817 27.5307 142.76 27.3223 142.645 27.1296C142.536 26.9317 142.369 26.7729 142.145 26.6531C141.921 26.5281 141.64 26.4656 141.302 26.4656C140.979 26.4656 140.71 26.5177 140.497 26.6218C140.289 26.7208 140.132 26.851 140.028 27.0125C139.929 27.1739 139.88 27.351 139.88 27.5437C139.88 27.6843 139.906 27.8119 139.958 27.9265C140.015 28.0359 140.109 28.1375 140.239 28.2312C140.369 28.3197 140.546 28.4031 140.77 28.4812C140.999 28.5593 141.286 28.6348 141.63 28.7078C142.276 28.8432 142.83 29.0177 143.294 29.2312C143.762 29.4395 144.122 29.7104 144.372 30.0437C144.622 30.3718 144.747 30.7885 144.747 31.2937C144.747 31.6687 144.666 32.0125 144.505 32.325C144.348 32.6322 144.119 32.9005 143.817 33.1296C143.515 33.3536 143.153 33.5281 142.731 33.6531C142.315 33.7781 141.846 33.8406 141.325 33.8406C140.559 33.8406 139.911 33.7052 139.38 33.4343C138.848 33.1583 138.445 32.8067 138.169 32.3796C137.898 31.9473 137.762 31.4994 137.762 31.0359H139.583C139.604 31.3848 139.7 31.6635 139.872 31.8718C140.049 32.075 140.268 32.2234 140.528 32.3171C140.794 32.4057 141.067 32.45 141.348 32.45C141.687 32.45 141.971 32.4057 142.2 32.3171C142.429 32.2234 142.604 32.0984 142.723 31.9421C142.843 31.7807 142.903 31.5984 142.903 31.3953ZM151.162 23.825L147.764 33.6843H145.709L149.991 22.3093H151.303L151.162 23.825ZM154.006 33.6843L150.6 23.825L150.452 22.3093H151.772L156.069 33.6843H154.006ZM153.842 29.4656V31.0203H147.655V29.4656H153.842ZM159.055 26.8562V36.9343H157.172V25.2312H158.906L159.055 26.8562ZM164.562 29.3796V29.5437C164.562 30.1583 164.49 30.7286 164.344 31.2546C164.203 31.7755 163.992 32.2312 163.711 32.6218C163.435 33.0072 163.094 33.3067 162.688 33.5203C162.281 33.7338 161.812 33.8406 161.281 33.8406C160.755 33.8406 160.294 33.7442 159.898 33.5515C159.508 33.3536 159.177 33.075 158.906 32.7156C158.635 32.3562 158.417 31.9343 158.25 31.45C158.089 30.9604 157.974 30.4239 157.906 29.8406V29.2078C157.974 28.588 158.089 28.0255 158.25 27.5203C158.417 27.0151 158.635 26.5802 158.906 26.2156C159.177 25.851 159.508 25.5697 159.898 25.3718C160.289 25.1739 160.745 25.075 161.266 25.075C161.797 25.075 162.268 25.1791 162.68 25.3875C163.091 25.5906 163.438 25.8822 163.719 26.2625C164 26.6375 164.211 27.0906 164.352 27.6218C164.492 28.1479 164.562 28.7338 164.562 29.3796ZM162.68 29.5437V29.3796C162.68 28.989 162.643 28.627 162.57 28.2937C162.497 27.9552 162.383 27.6583 162.227 27.4031C162.07 27.1479 161.87 26.95 161.625 26.8093C161.385 26.6635 161.096 26.5906 160.758 26.5906C160.424 26.5906 160.138 26.6479 159.898 26.7625C159.659 26.8718 159.458 27.0255 159.297 27.2234C159.135 27.4213 159.01 27.6531 158.922 27.9187C158.833 28.1791 158.771 28.463 158.734 28.7703V30.2859C158.797 30.6609 158.904 31.0046 159.055 31.3171C159.206 31.6296 159.419 31.8796 159.695 32.0671C159.977 32.2494 160.336 32.3406 160.773 32.3406C161.112 32.3406 161.401 32.2677 161.641 32.1218C161.88 31.976 162.076 31.7755 162.227 31.5203C162.383 31.2598 162.497 30.9604 162.57 30.6218C162.643 30.2833 162.68 29.9239 162.68 29.5437ZM168.205 26.8562V36.9343H166.322V25.2312H168.056L168.205 26.8562ZM173.713 29.3796V29.5437C173.713 30.1583 173.64 30.7286 173.494 31.2546C173.353 31.7755 173.142 32.2312 172.861 32.6218C172.585 33.0072 172.244 33.3067 171.838 33.5203C171.431 33.7338 170.963 33.8406 170.431 33.8406C169.905 33.8406 169.444 33.7442 169.048 33.5515C168.658 33.3536 168.327 33.075 168.056 32.7156C167.785 32.3562 167.567 31.9343 167.4 31.45C167.239 30.9604 167.124 30.4239 167.056 29.8406V29.2078C167.124 28.588 167.239 28.0255 167.4 27.5203C167.567 27.0151 167.785 26.5802 168.056 26.2156C168.327 25.851 168.658 25.5697 169.048 25.3718C169.439 25.1739 169.895 25.075 170.416 25.075C170.947 25.075 171.418 25.1791 171.83 25.3875C172.241 25.5906 172.588 25.8822 172.869 26.2625C173.15 26.6375 173.361 27.0906 173.502 27.6218C173.642 28.1479 173.713 28.7338 173.713 29.3796ZM171.83 29.5437V29.3796C171.83 28.989 171.793 28.627 171.72 28.2937C171.647 27.9552 171.533 27.6583 171.377 27.4031C171.22 27.1479 171.02 26.95 170.775 26.8093C170.535 26.6635 170.246 26.5906 169.908 26.5906C169.574 26.5906 169.288 26.6479 169.048 26.7625C168.809 26.8718 168.608 27.0255 168.447 27.2234C168.285 27.4213 168.16 27.6531 168.072 27.9187C167.983 28.1791 167.921 28.463 167.884 28.7703V30.2859C167.947 30.6609 168.054 31.0046 168.205 31.3171C168.356 31.6296 168.569 31.8796 168.845 32.0671C169.127 32.2494 169.486 32.3406 169.923 32.3406C170.262 32.3406 170.551 32.2677 170.791 32.1218C171.03 31.976 171.226 31.7755 171.377 31.5203C171.533 31.2598 171.647 30.9604 171.72 30.6218C171.793 30.2833 171.83 29.9239 171.83 29.5437Z" fill="white"/>
</svg>
