<svg width="252" height="56" viewBox="0 0 252 56" fill="none" xmlns="http://www.w3.org/2000/svg">
<path d="M0 8C0 3.58172 3.58172 0 8 0H244C248.418 0 252 3.58172 252 8V48C252 52.4183 248.418 56 244 56H8C3.58172 56 0 52.4183 0 48V8Z" fill="#8B3D99"/>
<path fill-rule="evenodd" clip-rule="evenodd" d="M28.002 18C22.4895 18 18.002 22.4832 18 27.9951C17.999 29.757 18.4605 31.477 19.3356 32.9927L18.1097 37.5352C18.0665 37.6953 18.1613 37.8601 18.3215 37.9033C18.3696 37.9163 18.4202 37.9171 18.4688 37.9057L23.2171 36.7838C24.6778 37.5807 26.3221 37.999 27.9961 38C33.5115 38 37.997 33.5158 38 28.0049C38.002 25.333 36.9629 22.8209 35.0747 20.9309C33.1865 19.0419 30.6771 18.001 28.002 18ZM24.4626 23.3808C24.2955 23.3808 24.0251 23.4433 23.7959 23.6936L23.6299 23.873C23.3468 24.1913 22.9198 24.7771 22.9198 25.7759C22.9198 26.8111 23.5549 27.8173 23.8302 28.209L24.0177 28.4738C24.384 29.0156 25.9151 31.2262 28.2092 32.1304L28.6672 32.3052C30.3858 32.9378 30.7836 32.7949 31.2069 32.7561C31.6654 32.715 32.6862 32.1529 32.8944 31.5693C33.1026 30.9856 33.1031 30.4836 33.0411 30.3805C33.01 30.3284 32.9528 30.2869 32.8721 30.2427L31.7855 29.7085C31.3915 29.518 30.9784 29.3225 30.8549 29.2777C30.6256 29.1947 30.4579 29.1526 30.2917 29.4029C30.1255 29.6531 29.6479 30.2143 29.5018 30.3805C29.3739 30.5268 29.2467 30.5623 29.0492 30.485L28.5753 30.2725C28.1922 30.0963 27.6066 29.7884 26.9499 29.2034C26.2071 28.5417 25.7058 27.7253 25.5596 27.475C25.4467 27.2811 25.5012 27.1552 25.5898 27.0504L25.6711 26.9647C25.7832 26.8526 25.9194 26.6729 26.0446 26.5267C26.1687 26.3806 26.2118 26.2765 26.2949 26.1103C26.3641 25.9718 26.3461 25.8469 26.3023 25.7367L26.2276 25.5675C26.0864 25.2313 25.6956 24.2473 25.5029 23.8188C25.3157 23.4033 25.118 23.3937 24.9398 23.3866C24.7946 23.3806 24.6288 23.3808 24.4626 23.3808Z" fill="white"/>
<path d="M56.6391 31.4453V33H50.6V31.4453H56.6391ZM51.1547 21.625V33H49.1937V21.625H51.1547ZM55.85 26.375V27.9062H50.6V26.375H55.85ZM56.6 21.625V23.1875H50.6V21.625H56.6ZM62.9453 30.7109C62.9453 30.5234 62.8984 30.3542 62.8047 30.2031C62.7109 30.0469 62.5312 29.9062 62.2656 29.7812C62.0052 29.6562 61.6198 29.5417 61.1094 29.4375C60.6615 29.3385 60.25 29.2214 59.875 29.0859C59.5052 28.9453 59.1875 28.776 58.9219 28.5781C58.6562 28.3802 58.4505 28.1458 58.3047 27.875C58.1589 27.6042 58.0859 27.2917 58.0859 26.9375C58.0859 26.5938 58.1615 26.2682 58.3125 25.9609C58.4635 25.6536 58.6797 25.3828 58.9609 25.1484C59.2422 24.9141 59.5833 24.7292 59.9844 24.5938C60.3906 24.4583 60.8437 24.3906 61.3437 24.3906C62.0521 24.3906 62.6589 24.5104 63.1641 24.75C63.6745 24.9844 64.0651 25.3047 64.3359 25.7109C64.6068 26.112 64.7422 26.5651 64.7422 27.0703H62.8594C62.8594 26.8464 62.8021 26.638 62.6875 26.4453C62.5781 26.2474 62.4115 26.0885 62.1875 25.9688C61.9635 25.8438 61.6823 25.7812 61.3437 25.7812C61.0208 25.7812 60.7526 25.8333 60.5391 25.9375C60.3307 26.0365 60.1745 26.1667 60.0703 26.3281C59.9714 26.4896 59.9219 26.6667 59.9219 26.8594C59.9219 27 59.9479 27.1276 60 27.2422C60.0573 27.3516 60.151 27.4531 60.2812 27.5469C60.4115 27.6354 60.5885 27.7188 60.8125 27.7969C61.0417 27.875 61.3281 27.9505 61.6719 28.0234C62.3177 28.1589 62.8724 28.3333 63.3359 28.5469C63.8047 28.7552 64.1641 29.026 64.4141 29.3594C64.6641 29.6875 64.7891 30.1042 64.7891 30.6094C64.7891 30.9844 64.7083 31.3281 64.5469 31.6406C64.3906 31.9479 64.1615 32.2161 63.8594 32.4453C63.5573 32.6693 63.1953 32.8438 62.7734 32.9688C62.3568 33.0938 61.888 33.1562 61.3672 33.1562C60.6016 33.1562 59.9531 33.0208 59.4219 32.75C58.8906 32.474 58.487 32.1224 58.2109 31.6953C57.9401 31.263 57.8047 30.8151 57.8047 30.3516H59.625C59.6458 30.7005 59.7422 30.9792 59.9141 31.1875C60.0911 31.3906 60.3099 31.5391 60.5703 31.6328C60.8359 31.7214 61.1094 31.7656 61.3906 31.7656C61.7292 31.7656 62.013 31.7214 62.2422 31.6328C62.4714 31.5391 62.6458 31.4141 62.7656 31.2578C62.8854 31.0964 62.9453 30.9141 62.9453 30.7109ZM70.0406 31.6562C70.3479 31.6562 70.624 31.5964 70.8687 31.4766C71.1187 31.3516 71.3193 31.1797 71.4703 30.9609C71.6266 30.7422 71.7125 30.4896 71.7281 30.2031H73.5016C73.4911 30.75 73.3297 31.2474 73.0172 31.6953C72.7047 32.1432 72.2906 32.5 71.775 32.7656C71.2594 33.026 70.6891 33.1562 70.0641 33.1562C69.4182 33.1562 68.8557 33.0469 68.3766 32.8281C67.8974 32.6042 67.499 32.2969 67.1812 31.9062C66.8635 31.5156 66.624 31.0651 66.4625 30.5547C66.3062 30.0443 66.2281 29.4974 66.2281 28.9141V28.6406C66.2281 28.0573 66.3062 27.5104 66.4625 27C66.624 26.4844 66.8635 26.0312 67.1812 25.6406C67.499 25.25 67.8974 24.9453 68.3766 24.7266C68.8557 24.5026 69.4156 24.3906 70.0562 24.3906C70.7333 24.3906 71.3271 24.526 71.8375 24.7969C72.3479 25.0625 72.749 25.4349 73.0406 25.9141C73.3375 26.388 73.4911 26.9401 73.5016 27.5703H71.7281C71.7125 27.2578 71.6344 26.9766 71.4937 26.7266C71.3583 26.4714 71.1656 26.2682 70.9156 26.1172C70.6708 25.9661 70.3766 25.8906 70.0328 25.8906C69.6526 25.8906 69.3375 25.9688 69.0875 26.125C68.8375 26.276 68.6422 26.4844 68.5016 26.75C68.3609 27.0104 68.2594 27.3047 68.1969 27.6328C68.1396 27.9557 68.1109 28.2917 68.1109 28.6406V28.9141C68.1109 29.263 68.1396 29.6016 68.1969 29.9297C68.2542 30.2578 68.3531 30.5521 68.4937 30.8125C68.6396 31.0677 68.8375 31.2734 69.0875 31.4297C69.3375 31.5807 69.6552 31.6562 70.0406 31.6562ZM76.9875 26.1562V33H75.1047V24.5469H76.9016L76.9875 26.1562ZM79.5734 24.4922L79.5578 26.2422C79.4432 26.2214 79.3182 26.2057 79.1828 26.1953C79.0526 26.1849 78.9224 26.1797 78.7922 26.1797C78.4693 26.1797 78.1854 26.2266 77.9406 26.3203C77.6958 26.4089 77.4901 26.5391 77.3234 26.7109C77.162 26.8776 77.037 27.0807 76.9484 27.3203C76.8599 27.5599 76.8078 27.8281 76.7922 28.125L76.3625 28.1562C76.3625 27.625 76.4146 27.1328 76.5187 26.6797C76.6229 26.2266 76.7792 25.8281 76.9875 25.4844C77.201 25.1406 77.4667 24.8724 77.7844 24.6797C78.1073 24.487 78.4797 24.3906 78.9016 24.3906C79.0161 24.3906 79.1385 24.401 79.2687 24.4219C79.4042 24.4427 79.5057 24.4661 79.5734 24.4922ZM82.9422 24.5469V33H81.0594V24.5469H82.9422ZM81.075 23.4219L82.5984 21.0703H84.7234L82.5984 23.4219H81.075ZM85.2484 21H87.1312V31.1953L86.9516 33H85.2484V21ZM92.6469 28.6953V28.8594C92.6469 29.4844 92.5766 30.0599 92.4359 30.5859C92.3005 31.1068 92.0922 31.5599 91.8109 31.9453C91.5349 32.3307 91.1911 32.6302 90.7797 32.8438C90.3734 33.0521 89.9021 33.1562 89.3656 33.1562C88.8396 33.1562 88.3812 33.0573 87.9906 32.8594C87.6 32.6615 87.2719 32.3802 87.0062 32.0156C86.7458 31.651 86.5349 31.2161 86.3734 30.7109C86.212 30.2057 86.0974 29.6484 86.0297 29.0391V28.5156C86.0974 27.901 86.212 27.3438 86.3734 26.8438C86.5349 26.3385 86.7458 25.9036 87.0062 25.5391C87.2719 25.1693 87.5974 24.8854 87.9828 24.6875C88.3734 24.4896 88.8292 24.3906 89.35 24.3906C89.8917 24.3906 90.3682 24.4948 90.7797 24.7031C91.1964 24.9115 91.5427 25.2083 91.8187 25.5938C92.0948 25.974 92.3005 26.4271 92.4359 26.9531C92.5766 27.4792 92.6469 28.0599 92.6469 28.6953ZM90.7641 28.8594V28.6953C90.7641 28.3151 90.7328 27.9583 90.6703 27.625C90.6078 27.2865 90.5036 26.9896 90.3578 26.7344C90.2172 26.4792 90.0245 26.2786 89.7797 26.1328C89.5401 25.9818 89.2406 25.9062 88.8812 25.9062C88.5479 25.9062 88.2615 25.9635 88.0219 26.0781C87.7823 26.1927 87.5818 26.349 87.4203 26.5469C87.2589 26.7448 87.1312 26.974 87.0375 27.2344C86.949 27.4948 86.8891 27.776 86.8578 28.0781V29.4922C86.9047 29.8828 87.0036 30.2422 87.1547 30.5703C87.3109 30.8932 87.5297 31.1536 87.8109 31.3516C88.0922 31.5443 88.4542 31.6406 88.8969 31.6406C89.2458 31.6406 89.5401 31.5703 89.7797 31.4297C90.0193 31.2891 90.2094 31.0938 90.35 30.8438C90.4958 30.5885 90.6 30.2917 90.6625 29.9531C90.7302 29.6146 90.7641 29.25 90.7641 28.8594ZM98.1172 33.1562C97.4922 33.1562 96.9271 33.0547 96.4219 32.8516C95.9219 32.6432 95.4948 32.3542 95.1406 31.9844C94.7917 31.6146 94.5234 31.1797 94.3359 30.6797C94.1484 30.1797 94.0547 29.6406 94.0547 29.0625V28.75C94.0547 28.0885 94.151 27.4896 94.3438 26.9531C94.5365 26.4167 94.8047 25.9583 95.1484 25.5781C95.4922 25.1927 95.8984 24.8984 96.3672 24.6953C96.8359 24.4922 97.3438 24.3906 97.8906 24.3906C98.4948 24.3906 99.0234 24.4922 99.4766 24.6953C99.9297 24.8984 100.305 25.1849 100.602 25.5547C100.904 25.9193 101.128 26.3542 101.273 26.8594C101.424 27.3646 101.5 27.9219 101.5 28.5312V29.3359H94.9688V27.9844H99.6406V27.8359C99.6302 27.4974 99.5625 27.1797 99.4375 26.8828C99.3177 26.5859 99.1328 26.3464 98.8828 26.1641C98.6328 25.9818 98.2995 25.8906 97.8828 25.8906C97.5703 25.8906 97.2917 25.9583 97.0469 26.0938C96.8073 26.224 96.6068 26.4141 96.4453 26.6641C96.2839 26.9141 96.1589 27.2161 96.0703 27.5703C95.987 27.9193 95.9453 28.3125 95.9453 28.75V29.0625C95.9453 29.4323 95.9948 29.776 96.0938 30.0938C96.1979 30.4062 96.349 30.6797 96.5469 30.9141C96.7448 31.1484 96.9844 31.3333 97.2656 31.4688C97.5469 31.599 97.8672 31.6641 98.2266 31.6641C98.6797 31.6641 99.0833 31.5729 99.4375 31.3906C99.7917 31.2083 100.099 30.9505 100.359 30.6172L101.352 31.5781C101.169 31.8438 100.932 32.099 100.641 32.3438C100.349 32.5833 99.9922 32.7786 99.5703 32.9297C99.1536 33.0807 98.6693 33.1562 98.1172 33.1562ZM104.986 26.3516V33H103.103V24.5469H104.877L104.986 26.3516ZM104.65 28.4609L104.041 28.4531C104.046 27.8542 104.129 27.3047 104.291 26.8047C104.457 26.3047 104.686 25.875 104.978 25.5156C105.275 25.1562 105.629 24.8802 106.041 24.6875C106.452 24.4896 106.91 24.3906 107.416 24.3906C107.822 24.3906 108.189 24.4479 108.517 24.5625C108.851 24.6719 109.134 24.8516 109.369 25.1016C109.608 25.3516 109.791 25.6771 109.916 26.0781C110.041 26.474 110.103 26.9609 110.103 27.5391V33H108.212V27.5312C108.212 27.125 108.153 26.8047 108.033 26.5703C107.918 26.3307 107.749 26.1615 107.525 26.0625C107.306 25.9583 107.033 25.9062 106.705 25.9062C106.382 25.9062 106.093 25.974 105.837 26.1094C105.582 26.2448 105.366 26.4297 105.189 26.6641C105.017 26.8984 104.884 27.1693 104.791 27.4766C104.697 27.7839 104.65 28.112 104.65 28.4609ZM111.816 28.8672V28.6875C111.816 28.0781 111.904 27.513 112.081 26.9922C112.258 26.4661 112.514 26.0104 112.847 25.625C113.185 25.2344 113.597 24.9323 114.081 24.7188C114.571 24.5 115.123 24.3906 115.737 24.3906C116.357 24.3906 116.909 24.5 117.394 24.7188C117.883 24.9323 118.297 25.2344 118.636 25.625C118.974 26.0104 119.232 26.4661 119.409 26.9922C119.586 27.513 119.675 28.0781 119.675 28.6875V28.8672C119.675 29.4766 119.586 30.0417 119.409 30.5625C119.232 31.0833 118.974 31.5391 118.636 31.9297C118.297 32.3151 117.886 32.6172 117.402 32.8359C116.917 33.0495 116.368 33.1562 115.753 33.1562C115.133 33.1562 114.579 33.0495 114.089 32.8359C113.605 32.6172 113.193 32.3151 112.855 31.9297C112.516 31.5391 112.258 31.0833 112.081 30.5625C111.904 30.0417 111.816 29.4766 111.816 28.8672ZM113.698 28.6875V28.8672C113.698 29.2474 113.737 29.6068 113.816 29.9453C113.894 30.2839 114.016 30.5807 114.183 30.8359C114.349 31.0911 114.563 31.2917 114.823 31.4375C115.084 31.5833 115.394 31.6562 115.753 31.6562C116.102 31.6562 116.404 31.5833 116.659 31.4375C116.92 31.2917 117.133 31.0911 117.3 30.8359C117.467 30.5807 117.589 30.2839 117.667 29.9453C117.751 29.6068 117.792 29.2474 117.792 28.8672V28.6875C117.792 28.3125 117.751 27.9583 117.667 27.625C117.589 27.2865 117.464 26.987 117.292 26.7266C117.126 26.4661 116.912 26.263 116.652 26.1172C116.396 25.9661 116.092 25.8906 115.737 25.8906C115.383 25.8906 115.076 25.9661 114.816 26.1172C114.56 26.263 114.349 26.4661 114.183 26.7266C114.016 26.987 113.894 27.2865 113.816 27.625C113.737 27.9583 113.698 28.3125 113.698 28.6875ZM126.145 30.7109C126.145 30.5234 126.098 30.3542 126.005 30.2031C125.911 30.0469 125.731 29.9062 125.466 29.7812C125.205 29.6562 124.82 29.5417 124.309 29.4375C123.861 29.3385 123.45 29.2214 123.075 29.0859C122.705 28.9453 122.387 28.776 122.122 28.5781C121.856 28.3802 121.651 28.1458 121.505 27.875C121.359 27.6042 121.286 27.2917 121.286 26.9375C121.286 26.5938 121.361 26.2682 121.512 25.9609C121.664 25.6536 121.88 25.3828 122.161 25.1484C122.442 24.9141 122.783 24.7292 123.184 24.5938C123.591 24.4583 124.044 24.3906 124.544 24.3906C125.252 24.3906 125.859 24.5104 126.364 24.75C126.874 24.9844 127.265 25.3047 127.536 25.7109C127.807 26.112 127.942 26.5651 127.942 27.0703H126.059C126.059 26.8464 126.002 26.638 125.887 26.4453C125.778 26.2474 125.611 26.0885 125.387 25.9688C125.164 25.8438 124.882 25.7812 124.544 25.7812C124.221 25.7812 123.953 25.8333 123.739 25.9375C123.531 26.0365 123.374 26.1667 123.27 26.3281C123.171 26.4896 123.122 26.6667 123.122 26.8594C123.122 27 123.148 27.1276 123.2 27.2422C123.257 27.3516 123.351 27.4531 123.481 27.5469C123.611 27.6354 123.789 27.7188 124.012 27.7969C124.242 27.875 124.528 27.9505 124.872 28.0234C125.518 28.1589 126.072 28.3333 126.536 28.5469C127.005 28.7552 127.364 29.026 127.614 29.3594C127.864 29.6875 127.989 30.1042 127.989 30.6094C127.989 30.9844 127.908 31.3281 127.747 31.6406C127.591 31.9479 127.361 32.2161 127.059 32.4453C126.757 32.6693 126.395 32.8438 125.973 32.9688C125.557 33.0938 125.088 33.1562 124.567 33.1562C123.802 33.1562 123.153 33.0208 122.622 32.75C122.091 32.474 121.687 32.1224 121.411 31.6953C121.14 31.263 121.005 30.8151 121.005 30.3516H122.825C122.846 30.7005 122.942 30.9792 123.114 31.1875C123.291 31.3906 123.51 31.5391 123.77 31.6328C124.036 31.7214 124.309 31.7656 124.591 31.7656C124.929 31.7656 125.213 31.7214 125.442 31.6328C125.671 31.5391 125.846 31.4141 125.966 31.2578C126.085 31.0964 126.145 30.9141 126.145 30.7109ZM135.812 26.1719V36.25H133.93V24.5469H135.664L135.812 26.1719ZM141.32 28.6953V28.8594C141.32 29.474 141.247 30.0443 141.102 30.5703C140.961 31.0911 140.75 31.5469 140.469 31.9375C140.193 32.3229 139.852 32.6224 139.445 32.8359C139.039 33.0495 138.57 33.1562 138.039 33.1562C137.513 33.1562 137.052 33.0599 136.656 32.8672C136.266 32.6693 135.935 32.3906 135.664 32.0312C135.393 31.6719 135.174 31.25 135.008 30.7656C134.846 30.276 134.732 29.7396 134.664 29.1562V28.5234C134.732 27.9036 134.846 27.3411 135.008 26.8359C135.174 26.3307 135.393 25.8958 135.664 25.5312C135.935 25.1667 136.266 24.8854 136.656 24.6875C137.047 24.4896 137.503 24.3906 138.023 24.3906C138.555 24.3906 139.026 24.4948 139.438 24.7031C139.849 24.9062 140.195 25.1979 140.477 25.5781C140.758 25.9531 140.969 26.4062 141.109 26.9375C141.25 27.4635 141.32 28.0495 141.32 28.6953ZM139.438 28.8594V28.6953C139.438 28.3047 139.401 27.9427 139.328 27.6094C139.255 27.2708 139.141 26.974 138.984 26.7188C138.828 26.4635 138.628 26.2656 138.383 26.125C138.143 25.9792 137.854 25.9062 137.516 25.9062C137.182 25.9062 136.896 25.9635 136.656 26.0781C136.417 26.1875 136.216 26.3411 136.055 26.5391C135.893 26.737 135.768 26.9688 135.68 27.2344C135.591 27.4948 135.529 27.7786 135.492 28.0859V29.6016C135.555 29.9766 135.661 30.3203 135.812 30.6328C135.964 30.9453 136.177 31.1953 136.453 31.3828C136.734 31.5651 137.094 31.6562 137.531 31.6562C137.87 31.6562 138.159 31.5833 138.398 31.4375C138.638 31.2917 138.833 31.0911 138.984 30.8359C139.141 30.5755 139.255 30.276 139.328 29.9375C139.401 29.599 139.438 29.2396 139.438 28.8594ZM142.713 28.8672V28.6875C142.713 28.0781 142.801 27.513 142.978 26.9922C143.155 26.4661 143.41 26.0104 143.744 25.625C144.082 25.2344 144.494 24.9323 144.978 24.7188C145.468 24.5 146.02 24.3906 146.634 24.3906C147.254 24.3906 147.806 24.5 148.291 24.7188C148.78 24.9323 149.194 25.2344 149.533 25.625C149.871 26.0104 150.129 26.4661 150.306 26.9922C150.483 27.513 150.572 28.0781 150.572 28.6875V28.8672C150.572 29.4766 150.483 30.0417 150.306 30.5625C150.129 31.0833 149.871 31.5391 149.533 31.9297C149.194 32.3151 148.783 32.6172 148.298 32.8359C147.814 33.0495 147.265 33.1562 146.65 33.1562C146.03 33.1562 145.476 33.0495 144.986 32.8359C144.502 32.6172 144.09 32.3151 143.752 31.9297C143.413 31.5391 143.155 31.0833 142.978 30.5625C142.801 30.0417 142.713 29.4766 142.713 28.8672ZM144.595 28.6875V28.8672C144.595 29.2474 144.634 29.6068 144.713 29.9453C144.791 30.2839 144.913 30.5807 145.08 30.8359C145.246 31.0911 145.46 31.2917 145.72 31.4375C145.981 31.5833 146.291 31.6562 146.65 31.6562C146.999 31.6562 147.301 31.5833 147.556 31.4375C147.817 31.2917 148.03 31.0911 148.197 30.8359C148.364 30.5807 148.486 30.2839 148.564 29.9453C148.647 29.6068 148.689 29.2474 148.689 28.8672V28.6875C148.689 28.3125 148.647 27.9583 148.564 27.625C148.486 27.2865 148.361 26.987 148.189 26.7266C148.022 26.4661 147.809 26.263 147.548 26.1172C147.293 25.9661 146.989 25.8906 146.634 25.8906C146.28 25.8906 145.973 25.9661 145.713 26.1172C145.457 26.263 145.246 26.4661 145.08 26.7266C144.913 26.987 144.791 27.2865 144.713 27.625C144.634 27.9583 144.595 28.3125 144.595 28.6875ZM154.191 26.1562V33H152.308V24.5469H154.105L154.191 26.1562ZM156.777 24.4922L156.761 26.2422C156.646 26.2214 156.521 26.2057 156.386 26.1953C156.256 26.1849 156.126 26.1797 155.995 26.1797C155.672 26.1797 155.389 26.2266 155.144 26.3203C154.899 26.4089 154.693 26.5391 154.527 26.7109C154.365 26.8776 154.24 27.0807 154.152 27.3203C154.063 27.5599 154.011 27.8281 153.995 28.125L153.566 28.1562C153.566 27.625 153.618 27.1328 153.722 26.6797C153.826 26.2266 153.982 25.8281 154.191 25.4844C154.404 25.1406 154.67 24.8724 154.987 24.6797C155.31 24.487 155.683 24.3906 156.105 24.3906C156.219 24.3906 156.342 24.401 156.472 24.4219C156.607 24.4427 156.709 24.4661 156.777 24.4922ZM165.28 30.4453L167.545 21.625H168.733L168.6 23.8984L166.178 33H164.944L165.28 30.4453ZM163.584 21.625L165.42 30.375L165.584 33H164.272L161.639 21.625H163.584ZM171.303 30.3516L173.116 21.625H175.069L172.436 33H171.123L171.303 30.3516ZM169.194 21.625L171.436 30.4688L171.764 33H170.53L168.147 23.8984L168.022 21.625H169.194ZM178.344 21V33H176.469V21H178.344ZM178.016 28.4609L177.406 28.4531C177.411 27.8698 177.492 27.3307 177.648 26.8359C177.81 26.3411 178.034 25.9115 178.32 25.5469C178.612 25.1771 178.961 24.8932 179.367 24.6953C179.773 24.4922 180.224 24.3906 180.719 24.3906C181.135 24.3906 181.51 24.4479 181.844 24.5625C182.182 24.6771 182.474 24.862 182.719 25.1172C182.964 25.3672 183.148 25.6953 183.273 26.1016C183.404 26.5026 183.469 26.9922 183.469 27.5703V33H181.578V27.5547C181.578 27.1484 181.518 26.8255 181.398 26.5859C181.284 26.3464 181.115 26.1745 180.891 26.0703C180.667 25.9609 180.393 25.9062 180.07 25.9062C179.732 25.9062 179.432 25.974 179.172 26.1094C178.917 26.2448 178.703 26.4297 178.531 26.6641C178.359 26.8984 178.229 27.1693 178.141 27.4766C178.057 27.7839 178.016 28.112 178.016 28.4609ZM190.291 31.3047V27.2734C190.291 26.9714 190.236 26.7109 190.127 26.4922C190.017 26.2734 189.851 26.1042 189.627 25.9844C189.408 25.8646 189.132 25.8047 188.798 25.8047C188.491 25.8047 188.226 25.8568 188.002 25.9609C187.778 26.0651 187.603 26.2057 187.478 26.3828C187.353 26.5599 187.291 26.7604 187.291 26.9844H185.416C185.416 26.651 185.496 26.3281 185.658 26.0156C185.819 25.7031 186.054 25.4245 186.361 25.1797C186.668 24.9349 187.035 24.7422 187.462 24.6016C187.89 24.4609 188.369 24.3906 188.9 24.3906C189.535 24.3906 190.098 24.4974 190.587 24.7109C191.082 24.9245 191.47 25.2474 191.752 25.6797C192.038 26.1068 192.181 26.6432 192.181 27.2891V31.0469C192.181 31.4323 192.207 31.7786 192.259 32.0859C192.317 32.388 192.397 32.651 192.502 32.875V33H190.572C190.483 32.7969 190.413 32.5391 190.361 32.2266C190.314 31.9089 190.291 31.6016 190.291 31.3047ZM190.564 27.8594L190.58 29.0234H189.228C188.879 29.0234 188.572 29.0573 188.306 29.125C188.041 29.1875 187.819 29.2812 187.642 29.4062C187.465 29.5312 187.332 29.6823 187.244 29.8594C187.155 30.0365 187.111 30.237 187.111 30.4609C187.111 30.6849 187.163 30.8906 187.267 31.0781C187.371 31.2604 187.522 31.4036 187.72 31.5078C187.923 31.612 188.168 31.6641 188.455 31.6641C188.84 31.6641 189.176 31.5859 189.462 31.4297C189.754 31.2682 189.983 31.0729 190.15 30.8438C190.317 30.6094 190.405 30.388 190.416 30.1797L191.025 31.0156C190.962 31.2292 190.856 31.4583 190.705 31.7031C190.554 31.9479 190.356 32.1823 190.111 32.4062C189.871 32.625 189.582 32.8047 189.244 32.9453C188.91 33.0859 188.525 33.1562 188.087 33.1562C187.535 33.1562 187.043 33.0469 186.611 32.8281C186.179 32.6042 185.84 32.3047 185.595 31.9297C185.351 31.5495 185.228 31.1198 185.228 30.6406C185.228 30.1927 185.311 29.7969 185.478 29.4531C185.65 29.1042 185.9 28.8125 186.228 28.5781C186.561 28.3438 186.968 28.1667 187.447 28.0469C187.926 27.9219 188.473 27.8594 189.087 27.8594H190.564ZM198.175 24.5469V25.9219H193.409V24.5469H198.175ZM194.784 22.4766H196.667V30.6641C196.667 30.9245 196.704 31.125 196.777 31.2656C196.855 31.401 196.961 31.4922 197.097 31.5391C197.232 31.5859 197.391 31.6094 197.573 31.6094C197.704 31.6094 197.829 31.6016 197.948 31.5859C198.068 31.5703 198.165 31.5547 198.237 31.5391L198.245 32.9766C198.089 33.0234 197.907 33.0651 197.698 33.1016C197.495 33.138 197.261 33.1562 196.995 33.1562C196.563 33.1562 196.18 33.0807 195.847 32.9297C195.514 32.7734 195.253 32.5208 195.066 32.1719C194.878 31.8229 194.784 31.3594 194.784 30.7812V22.4766ZM204.52 30.7109C204.52 30.5234 204.473 30.3542 204.38 30.2031C204.286 30.0469 204.106 29.9062 203.841 29.7812C203.58 29.6562 203.195 29.5417 202.684 29.4375C202.236 29.3385 201.825 29.2214 201.45 29.0859C201.08 28.9453 200.763 28.776 200.497 28.5781C200.231 28.3802 200.026 28.1458 199.88 27.875C199.734 27.6042 199.661 27.2917 199.661 26.9375C199.661 26.5938 199.736 26.2682 199.888 25.9609C200.039 25.6536 200.255 25.3828 200.536 25.1484C200.817 24.9141 201.158 24.7292 201.559 24.5938C201.966 24.4583 202.419 24.3906 202.919 24.3906C203.627 24.3906 204.234 24.5104 204.739 24.75C205.249 24.9844 205.64 25.3047 205.911 25.7109C206.182 26.112 206.317 26.5651 206.317 27.0703H204.434C204.434 26.8464 204.377 26.638 204.263 26.4453C204.153 26.2474 203.986 26.0885 203.763 25.9688C203.539 25.8438 203.257 25.7812 202.919 25.7812C202.596 25.7812 202.328 25.8333 202.114 25.9375C201.906 26.0365 201.749 26.1667 201.645 26.3281C201.546 26.4896 201.497 26.6667 201.497 26.8594C201.497 27 201.523 27.1276 201.575 27.2422C201.632 27.3516 201.726 27.4531 201.856 27.5469C201.986 27.6354 202.164 27.7188 202.388 27.7969C202.617 27.875 202.903 27.9505 203.247 28.0234C203.893 28.1589 204.447 28.3333 204.911 28.5469C205.38 28.7552 205.739 29.026 205.989 29.3594C206.239 29.6875 206.364 30.1042 206.364 30.6094C206.364 30.9844 206.283 31.3281 206.122 31.6406C205.966 31.9479 205.736 32.2161 205.434 32.4453C205.132 32.6693 204.77 32.8438 204.348 32.9688C203.932 33.0938 203.463 33.1562 202.942 33.1562C202.177 33.1562 201.528 33.0208 200.997 32.75C200.466 32.474 200.062 32.1224 199.786 31.6953C199.515 31.263 199.38 30.8151 199.38 30.3516H201.2C201.221 30.7005 201.317 30.9792 201.489 31.1875C201.666 31.3906 201.885 31.5391 202.145 31.6328C202.411 31.7214 202.684 31.7656 202.966 31.7656C203.304 31.7656 203.588 31.7214 203.817 31.6328C204.046 31.5391 204.221 31.4141 204.341 31.2578C204.46 31.0964 204.52 30.9141 204.52 30.7109ZM212.78 23.1406L209.381 33H207.327L211.608 21.625H212.92L212.78 23.1406ZM215.623 33L212.217 23.1406L212.069 21.625H213.389L217.686 33H215.623ZM215.459 28.7812V30.3359H209.272V28.7812H215.459ZM220.672 26.1719V36.25H218.789V24.5469H220.523L220.672 26.1719ZM226.18 28.6953V28.8594C226.18 29.474 226.107 30.0443 225.961 30.5703C225.82 31.0911 225.609 31.5469 225.328 31.9375C225.052 32.3229 224.711 32.6224 224.305 32.8359C223.898 33.0495 223.43 33.1562 222.898 33.1562C222.372 33.1562 221.911 33.0599 221.516 32.8672C221.125 32.6693 220.794 32.3906 220.523 32.0312C220.253 31.6719 220.034 31.25 219.867 30.7656C219.706 30.276 219.591 29.7396 219.523 29.1562V28.5234C219.591 27.9036 219.706 27.3411 219.867 26.8359C220.034 26.3307 220.253 25.8958 220.523 25.5312C220.794 25.1667 221.125 24.8854 221.516 24.6875C221.906 24.4896 222.362 24.3906 222.883 24.3906C223.414 24.3906 223.885 24.4948 224.297 24.7031C224.708 24.9062 225.055 25.1979 225.336 25.5781C225.617 25.9531 225.828 26.4062 225.969 26.9375C226.109 27.4635 226.18 28.0495 226.18 28.6953ZM224.297 28.8594V28.6953C224.297 28.3047 224.26 27.9427 224.188 27.6094C224.115 27.2708 224 26.974 223.844 26.7188C223.688 26.4635 223.487 26.2656 223.242 26.125C223.003 25.9792 222.714 25.9062 222.375 25.9062C222.042 25.9062 221.755 25.9635 221.516 26.0781C221.276 26.1875 221.076 26.3411 220.914 26.5391C220.753 26.737 220.628 26.9688 220.539 27.2344C220.451 27.4948 220.388 27.7786 220.352 28.0859V29.6016C220.414 29.9766 220.521 30.3203 220.672 30.6328C220.823 30.9453 221.036 31.1953 221.312 31.3828C221.594 31.5651 221.953 31.6562 222.391 31.6562C222.729 31.6562 223.018 31.5833 223.258 31.4375C223.497 31.2917 223.693 31.0911 223.844 30.8359C224 30.5755 224.115 30.276 224.188 29.9375C224.26 29.599 224.297 29.2396 224.297 28.8594ZM229.822 26.1719V36.25H227.939V24.5469H229.673L229.822 26.1719ZM235.33 28.6953V28.8594C235.33 29.474 235.257 30.0443 235.111 30.5703C234.97 31.0911 234.759 31.5469 234.478 31.9375C234.202 32.3229 233.861 32.6224 233.455 32.8359C233.048 33.0495 232.58 33.1562 232.048 33.1562C231.522 33.1562 231.061 33.0599 230.666 32.8672C230.275 32.6693 229.944 32.3906 229.673 32.0312C229.403 31.6719 229.184 31.25 229.017 30.7656C228.856 30.276 228.741 29.7396 228.673 29.1562V28.5234C228.741 27.9036 228.856 27.3411 229.017 26.8359C229.184 26.3307 229.403 25.8958 229.673 25.5312C229.944 25.1667 230.275 24.8854 230.666 24.6875C231.056 24.4896 231.512 24.3906 232.033 24.3906C232.564 24.3906 233.035 24.4948 233.447 24.7031C233.858 24.9062 234.205 25.1979 234.486 25.5781C234.767 25.9531 234.978 26.4062 235.119 26.9375C235.259 27.4635 235.33 28.0495 235.33 28.6953ZM233.447 28.8594V28.6953C233.447 28.3047 233.41 27.9427 233.337 27.6094C233.265 27.2708 233.15 26.974 232.994 26.7188C232.837 26.4635 232.637 26.2656 232.392 26.125C232.153 25.9792 231.864 25.9062 231.525 25.9062C231.192 25.9062 230.905 25.9635 230.666 26.0781C230.426 26.1875 230.226 26.3411 230.064 26.5391C229.903 26.737 229.778 26.9688 229.689 27.2344C229.601 27.4948 229.538 27.7786 229.502 28.0859V29.6016C229.564 29.9766 229.671 30.3203 229.822 30.6328C229.973 30.9453 230.186 31.1953 230.462 31.3828C230.744 31.5651 231.103 31.6562 231.541 31.6562C231.879 31.6562 232.168 31.5833 232.408 31.4375C232.647 31.2917 232.843 31.0911 232.994 30.8359C233.15 30.5755 233.265 30.276 233.337 29.9375C233.41 29.599 233.447 29.2396 233.447 28.8594Z" fill="white"/>
</svg>
