<svg width="40" height="40" viewBox="0 0 40 40" fill="none" xmlns="http://www.w3.org/2000/svg">
<rect width="40" height="40" rx="20" fill="#10CBB4"/>
<path fill-rule="evenodd" clip-rule="evenodd" d="M26 27C26.5523 27 27 27.4477 27 28C27 28.5523 26.5523 29 26 29H14C13.4477 29 13 28.5523 13 28C13 27.4477 13.4477 27 14 27H26ZM20 11C20.5523 11 21 11.4477 21 12V21.59L23.29 19.3C23.6868 18.9602 24.2782 18.9831 24.6476 19.3524C25.0169 19.7218 25.0398 20.3132 24.7 20.71L20.7 24.71C20.31 25.0977 19.68 25.0977 19.29 24.71L15.29 20.71C15.0046 20.4656 14.8803 20.0819 14.9682 19.7166C15.0561 19.3513 15.3413 19.0661 15.7066 18.9782C16.0719 18.8903 16.4556 19.0146 16.7 19.3L19 21.59V12C19 11.4477 19.4477 11 20 11Z" fill="white"/>
</svg>
