<svg id="visual" viewBox="0 0 960 540" width="960" height="540" xmlns="http://www.w3.org/2000/svg" xmlns:xlink="http://www.w3.org/1999/xlink" version="1.1"><rect x="0" y="0" width="960" height="540" fill="#001220"></rect><path d="M0 399L22.8 390.2C45.7 381.3 91.3 363.7 137 354C182.7 344.3 228.3 342.7 274 347C319.7 351.3 365.3 361.7 411.2 360.3C457 359 503 346 548.8 349.5C594.7 353 640.3 373 686 375C731.7 377 777.3 361 823 360.5C868.7 360 914.3 375 937.2 382.5L960 390L960 541L937.2 541C914.3 541 868.7 541 823 541C777.3 541 731.7 541 686 541C640.3 541 594.7 541 548.8 541C503 541 457 541 411.2 541C365.3 541 319.7 541 274 541C228.3 541 182.7 541 137 541C91.3 541 45.7 541 22.8 541L0 541Z" fill="#3b60bd"></path><path d="M0 370L22.8 376.8C45.7 383.7 91.3 397.3 137 400.7C182.7 404 228.3 397 274 399C319.7 401 365.3 412 411.2 412C457 412 503 401 548.8 391.5C594.7 382 640.3 374 686 372.5C731.7 371 777.3 376 823 385.7C868.7 395.3 914.3 409.7 937.2 416.8L960 424L960 541L937.2 541C914.3 541 868.7 541 823 541C777.3 541 731.7 541 686 541C640.3 541 594.7 541 548.8 541C503 541 457 541 411.2 541C365.3 541 319.7 541 274 541C228.3 541 182.7 541 137 541C91.3 541 45.7 541 22.8 541L0 541Z" fill="#1e75c8"></path><path d="M0 440L22.8 442.7C45.7 445.3 91.3 450.7 137 445.7C182.7 440.7 228.3 425.3 274 425.7C319.7 426 365.3 442 411.2 443.2C457 444.3 503 430.7 548.8 423.5C594.7 416.3 640.3 415.7 686 412C731.7 408.3 777.3 401.7 823 407.7C868.7 413.7 914.3 432.3 937.2 441.7L960 451L960 541L937.2 541C914.3 541 868.7 541 823 541C777.3 541 731.7 541 686 541C640.3 541 594.7 541 548.8 541C503 541 457 541 411.2 541C365.3 541 319.7 541 274 541C228.3 541 182.7 541 137 541C91.3 541 45.7 541 22.8 541L0 541Z" fill="#0088cf"></path><path d="M0 464L22.8 459.3C45.7 454.7 91.3 445.3 137 449.3C182.7 453.3 228.3 470.7 274 477C319.7 483.3 365.3 478.7 411.2 478.5C457 478.3 503 482.7 548.8 483.3C594.7 484 640.3 481 686 472.8C731.7 464.7 777.3 451.3 823 449.7C868.7 448 914.3 458 937.2 463L960 468L960 541L937.2 541C914.3 541 868.7 541 823 541C777.3 541 731.7 541 686 541C640.3 541 594.7 541 548.8 541C503 541 457 541 411.2 541C365.3 541 319.7 541 274 541C228.3 541 182.7 541 137 541C91.3 541 45.7 541 22.8 541L0 541Z" fill="#009ad2"></path><path d="M0 516L22.8 514.5C45.7 513 91.3 510 137 504.8C182.7 499.7 228.3 492.3 274 487.5C319.7 482.7 365.3 480.3 411.2 480.2C457 480 503 482 548.8 483C594.7 484 640.3 484 686 486.3C731.7 488.7 777.3 493.3 823 496.3C868.7 499.3 914.3 500.7 937.2 501.3L960 502L960 541L937.2 541C914.3 541 868.7 541 823 541C777.3 541 731.7 541 686 541C640.3 541 594.7 541 548.8 541C503 541 457 541 411.2 541C365.3 541 319.7 541 274 541C228.3 541 182.7 541 137 541C91.3 541 45.7 541 22.8 541L0 541Z" fill="#06aad1"></path></svg>