<svg id="visual" viewBox="0 0 960 540" width="960" height="540" xmlns="http://www.w3.org/2000/svg" xmlns:xlink="http://www.w3.org/1999/xlink" version="1.1"><rect x="0" y="0" width="960" height="540" fill="#001220"></rect><path d="M300 0L310.2 12.8C320.3 25.7 340.7 51.3 343.3 77C346 102.7 331 128.3 312.8 154C294.7 179.7 273.3 205.3 286.5 231.2C299.7 257 347.3 283 345.8 308.8C344.3 334.7 293.7 360.3 286 386C278.3 411.7 313.7 437.3 326.2 463C338.7 488.7 328.3 514.3 323.2 527.2L318 540L0 540L0 527.2C0 514.3 0 488.7 0 463C0 437.3 0 411.7 0 386C0 360.3 0 334.7 0 308.8C0 283 0 257 0 231.2C0 205.3 0 179.7 0 154C0 128.3 0 102.7 0 77C0 51.3 0 25.7 0 12.8L0 0Z" fill="#3b60bd"></path><path d="M251 0L259.8 12.8C268.7 25.7 286.3 51.3 292 77C297.7 102.7 291.3 128.3 272.7 154C254 179.7 223 205.3 223.3 231.2C223.7 257 255.3 283 260.3 308.8C265.3 334.7 243.7 360.3 242.5 386C241.3 411.7 260.7 437.3 269.8 463C279 488.7 278 514.3 277.5 527.2L277 540L0 540L0 527.2C0 514.3 0 488.7 0 463C0 437.3 0 411.7 0 386C0 360.3 0 334.7 0 308.8C0 283 0 257 0 231.2C0 205.3 0 179.7 0 154C0 128.3 0 102.7 0 77C0 51.3 0 25.7 0 12.8L0 0Z" fill="#1e75c8"></path><path d="M212 0L203.2 12.8C194.3 25.7 176.7 51.3 171.2 77C165.7 102.7 172.3 128.3 180.7 154C189 179.7 199 205.3 194 231.2C189 257 169 283 175.8 308.8C182.7 334.7 216.3 360.3 234.3 386C252.3 411.7 254.7 437.3 242.7 463C230.7 488.7 204.3 514.3 191.2 527.2L178 540L0 540L0 527.2C0 514.3 0 488.7 0 463C0 437.3 0 411.7 0 386C0 360.3 0 334.7 0 308.8C0 283 0 257 0 231.2C0 205.3 0 179.7 0 154C0 128.3 0 102.7 0 77C0 51.3 0 25.7 0 12.8L0 0Z" fill="#0088cf"></path><path d="M140 0L147.7 12.8C155.3 25.7 170.7 51.3 163.7 77C156.7 102.7 127.3 128.3 123.3 154C119.3 179.7 140.7 205.3 156 231.2C171.3 257 180.7 283 184.3 308.8C188 334.7 186 360.3 185.2 386C184.3 411.7 184.7 437.3 169.3 463C154 488.7 123 514.3 107.5 527.2L92 540L0 540L0 527.2C0 514.3 0 488.7 0 463C0 437.3 0 411.7 0 386C0 360.3 0 334.7 0 308.8C0 283 0 257 0 231.2C0 205.3 0 179.7 0 154C0 128.3 0 102.7 0 77C0 51.3 0 25.7 0 12.8L0 0Z" fill="#009ad2"></path><path d="M90 0L82.8 12.8C75.7 25.7 61.3 51.3 61.8 77C62.3 102.7 77.7 128.3 77.7 154C77.7 179.7 62.3 205.3 66 231.2C69.7 257 92.3 283 94.7 308.8C97 334.7 79 360.3 71 386C63 411.7 65 437.3 68.8 463C72.7 488.7 78.3 514.3 81.2 527.2L84 540L0 540L0 527.2C0 514.3 0 488.7 0 463C0 437.3 0 411.7 0 386C0 360.3 0 334.7 0 308.8C0 283 0 257 0 231.2C0 205.3 0 179.7 0 154C0 128.3 0 102.7 0 77C0 51.3 0 25.7 0 12.8L0 0Z" fill="#06aad1"></path></svg>