<svg id="visual" viewBox="0 0 900 600" width="900" height="600" xmlns="http://www.w3.org/2000/svg" xmlns:xlink="http://www.w3.org/1999/xlink" version="1.1"><rect x="0" y="0" width="900" height="600" fill="#ffffff"></rect><path d="M423 0L418.5 33.3C414 66.7 405 133.3 392.5 200C380 266.7 364 333.3 364.2 400C364.3 466.7 380.7 533.3 388.8 566.7L397 600L0 600L0 566.7C0 533.3 0 466.7 0 400C0 333.3 0 266.7 0 200C0 133.3 0 66.7 0 33.3L0 0Z" fill="#3b5ec0"></path><path d="M290 0L285.8 33.3C281.7 66.7 273.3 133.3 278.5 200C283.7 266.7 302.3 333.3 312.5 400C322.7 466.7 324.3 533.3 325.2 566.7L326 600L0 600L0 566.7C0 533.3 0 466.7 0 400C0 333.3 0 266.7 0 200C0 133.3 0 66.7 0 33.3L0 0Z" fill="#1877cd"></path><path d="M230 0L239 33.3C248 66.7 266 133.3 269.8 200C273.7 266.7 263.3 333.3 257.3 400C251.3 466.7 249.7 533.3 248.8 566.7L248 600L0 600L0 566.7C0 533.3 0 466.7 0 400C0 333.3 0 266.7 0 200C0 133.3 0 66.7 0 33.3L0 0Z" fill="#008dd4"></path><path d="M176 0L176.8 33.3C177.7 66.7 179.3 133.3 175.3 200C171.3 266.7 161.7 333.3 159.7 400C157.7 466.7 163.3 533.3 166.2 566.7L169 600L0 600L0 566.7C0 533.3 0 466.7 0 400C0 333.3 0 266.7 0 200C0 133.3 0 66.7 0 33.3L0 0Z" fill="#02a1d6"></path><path d="M111 0L111.5 33.3C112 66.7 113 133.3 107 200C101 266.7 88 333.3 79.2 400C70.3 466.7 65.7 533.3 63.3 566.7L61 600L0 600L0 566.7C0 533.3 0 466.7 0 400C0 333.3 0 266.7 0 200C0 133.3 0 66.7 0 33.3L0 0Z" fill="#3ab4d5"></path></svg>