<svg id="visual" viewBox="0 0 900 450" width="900" height="450" xmlns="http://www.w3.org/2000/svg" xmlns:xlink="http://www.w3.org/1999/xlink" version="1.1"><rect x="0" y="0" width="900" height="450" fill="#001220"></rect><path d="M0 320L13.7 319.3C27.3 318.7 54.7 317.3 82 320C109.3 322.7 136.7 329.3 163.8 324.8C191 320.3 218 304.7 245.2 297.5C272.3 290.3 299.7 291.7 327 304.3C354.3 317 381.7 341 409 339.5C436.3 338 463.7 311 491 297.7C518.3 284.3 545.7 284.7 573 288.3C600.3 292 627.7 299 654.8 312.3C682 325.7 709 345.3 736.2 354.8C763.3 364.3 790.7 363.7 818 357C845.3 350.3 872.7 337.7 886.3 331.3L900 325L900 451L886.3 451C872.7 451 845.3 451 818 451C790.7 451 763.3 451 736.2 451C709 451 682 451 654.8 451C627.7 451 600.3 451 573 451C545.7 451 518.3 451 491 451C463.7 451 436.3 451 409 451C381.7 451 354.3 451 327 451C299.7 451 272.3 451 245.2 451C218 451 191 451 163.8 451C136.7 451 109.3 451 82 451C54.7 451 27.3 451 13.7 451L0 451Z" fill="#3b60bd"></path><path d="M0 332L13.7 330.2C27.3 328.3 54.7 324.7 82 331.7C109.3 338.7 136.7 356.3 163.8 365.7C191 375 218 376 245.2 366.5C272.3 357 299.7 337 327 337.8C354.3 338.7 381.7 360.3 409 367.3C436.3 374.3 463.7 366.7 491 364.7C518.3 362.7 545.7 366.3 573 368.7C600.3 371 627.7 372 654.8 364.5C682 357 709 341 736.2 342.7C763.3 344.3 790.7 363.7 818 368.7C845.3 373.7 872.7 364.3 886.3 359.7L900 355L900 451L886.3 451C872.7 451 845.3 451 818 451C790.7 451 763.3 451 736.2 451C709 451 682 451 654.8 451C627.7 451 600.3 451 573 451C545.7 451 518.3 451 491 451C463.7 451 436.3 451 409 451C381.7 451 354.3 451 327 451C299.7 451 272.3 451 245.2 451C218 451 191 451 163.8 451C136.7 451 109.3 451 82 451C54.7 451 27.3 451 13.7 451L0 451Z" fill="#1779ca"></path><path d="M0 348L13.7 353.8C27.3 359.7 54.7 371.3 82 373.5C109.3 375.7 136.7 368.3 163.8 364.7C191 361 218 361 245.2 365.3C272.3 369.7 299.7 378.3 327 383C354.3 387.7 381.7 388.3 409 379.5C436.3 370.7 463.7 352.3 491 343.8C518.3 335.3 545.7 336.7 573 347.5C600.3 358.3 627.7 378.7 654.8 381.3C682 384 709 369 736.2 359.3C763.3 349.7 790.7 345.3 818 350.3C845.3 355.3 872.7 369.7 886.3 376.8L900 384L900 451L886.3 451C872.7 451 845.3 451 818 451C790.7 451 763.3 451 736.2 451C709 451 682 451 654.8 451C627.7 451 600.3 451 573 451C545.7 451 518.3 451 491 451C463.7 451 436.3 451 409 451C381.7 451 354.3 451 327 451C299.7 451 272.3 451 245.2 451C218 451 191 451 163.8 451C136.7 451 109.3 451 82 451C54.7 451 27.3 451 13.7 451L0 451Z" fill="#008fd1"></path><path d="M0 412L13.7 409C27.3 406 54.7 400 82 398.5C109.3 397 136.7 400 163.8 400.8C191 401.7 218 400.3 245.2 397C272.3 393.7 299.7 388.3 327 385.8C354.3 383.3 381.7 383.7 409 386C436.3 388.3 463.7 392.7 491 395C518.3 397.3 545.7 397.7 573 397.2C600.3 396.7 627.7 395.3 654.8 395C682 394.7 709 395.3 736.2 392.2C763.3 389 790.7 382 818 384.5C845.3 387 872.7 399 886.3 405L900 411L900 451L886.3 451C872.7 451 845.3 451 818 451C790.7 451 763.3 451 736.2 451C709 451 682 451 654.8 451C627.7 451 600.3 451 573 451C545.7 451 518.3 451 491 451C463.7 451 436.3 451 409 451C381.7 451 354.3 451 327 451C299.7 451 272.3 451 245.2 451C218 451 191 451 163.8 451C136.7 451 109.3 451 82 451C54.7 451 27.3 451 13.7 451L0 451Z" fill="#21a3d4"></path><path d="M0 412L13.7 408.8C27.3 405.7 54.7 399.3 82 401.5C109.3 403.7 136.7 414.3 163.8 414.3C191 414.3 218 403.7 245.2 401.3C272.3 399 299.7 405 327 408.5C354.3 412 381.7 413 409 411.7C436.3 410.3 463.7 406.7 491 407.8C518.3 409 545.7 415 573 415.2C600.3 415.3 627.7 409.7 654.8 407C682 404.3 709 404.7 736.2 405.5C763.3 406.3 790.7 407.7 818 407.7C845.3 407.7 872.7 406.3 886.3 405.7L900 405L900 451L886.3 451C872.7 451 845.3 451 818 451C790.7 451 763.3 451 736.2 451C709 451 682 451 654.8 451C627.7 451 600.3 451 573 451C545.7 451 518.3 451 491 451C463.7 451 436.3 451 409 451C381.7 451 354.3 451 327 451C299.7 451 272.3 451 245.2 451C218 451 191 451 163.8 451C136.7 451 109.3 451 82 451C54.7 451 27.3 451 13.7 451L0 451Z" fill="#4ab6d4"></path></svg>