<svg id="visual" viewBox="0 0 960 540" width="960" height="540" xmlns="http://www.w3.org/2000/svg" xmlns:xlink="http://www.w3.org/1999/xlink" version="1.1"><path d="M342 0L331.8 15C321.7 30 301.3 60 306.3 90C311.3 120 341.7 150 339.8 180C338 210 304 240 285.7 270C267.3 300 264.7 330 281.7 360C298.7 390 335.3 420 336.5 450C337.7 480 303.3 510 286.2 525L269 540L0 540L0 525C0 510 0 480 0 450C0 420 0 390 0 360C0 330 0 300 0 270C0 240 0 210 0 180C0 150 0 120 0 90C0 60 0 30 0 15L0 0Z" fill="#3b60bd"></path><path d="M251 0L242.7 15C234.3 30 217.7 60 212 90C206.3 120 211.7 150 228.7 180C245.7 210 274.3 240 284.7 270C295 300 287 330 282.2 360C277.3 390 275.7 420 281.7 450C287.7 480 301.3 510 308.2 525L315 540L0 540L0 525C0 510 0 480 0 450C0 420 0 390 0 360C0 330 0 300 0 270C0 240 0 210 0 180C0 150 0 120 0 90C0 60 0 30 0 15L0 0Z" fill="#1779ca"></path><path d="M171 0L172.2 15C173.3 30 175.7 60 186.8 90C198 120 218 150 228.3 180C238.7 210 239.3 240 232.2 270C225 300 210 330 194.5 360C179 390 163 420 158.5 450C154 480 161 510 164.5 525L168 540L0 540L0 525C0 510 0 480 0 450C0 420 0 390 0 360C0 330 0 300 0 270C0 240 0 210 0 180C0 150 0 120 0 90C0 60 0 30 0 15L0 0Z" fill="#008fd1"></path><path d="M103 0L118.3 15C133.7 30 164.3 60 168 90C171.7 120 148.3 150 138.3 180C128.3 210 131.7 240 127 270C122.3 300 109.7 330 120.3 360C131 390 165 420 163.3 450C161.7 480 124.3 510 105.7 525L87 540L0 540L0 525C0 510 0 480 0 450C0 420 0 390 0 360C0 330 0 300 0 270C0 240 0 210 0 180C0 150 0 120 0 90C0 60 0 30 0 15L0 0Z" fill="#21a3d4"></path><path d="M112 0L108.8 15C105.7 30 99.3 60 97 90C94.7 120 96.3 150 89.5 180C82.7 210 67.3 240 68.5 270C69.7 300 87.3 330 86.5 360C85.7 390 66.3 420 65 450C63.7 480 80.3 510 88.7 525L97 540L0 540L0 525C0 510 0 480 0 450C0 420 0 390 0 360C0 330 0 300 0 270C0 240 0 210 0 180C0 150 0 120 0 90C0 60 0 30 0 15L0 0Z" fill="#4ab6d4"></path></svg>