<svg id="visual" viewBox="0 0 960 540" width="960" height="540" xmlns="http://www.w3.org/2000/svg" xmlns:xlink="http://www.w3.org/1999/xlink" version="1.1"><rect x="0" y="0" width="960" height="540" fill="#001220"></rect><path d="M662 540L651.8 527.2C641.7 514.3 621.3 488.7 618.7 463C616 437.3 631 411.7 649.2 386C667.3 360.3 688.7 334.7 675.5 308.8C662.3 283 614.7 257 616.2 231.2C617.7 205.3 668.3 179.7 676 154C683.7 128.3 648.3 102.7 635.8 77C623.3 51.3 633.7 25.7 638.8 12.8L644 0L960 0L960 12.8C960 25.7 960 51.3 960 77C960 102.7 960 128.3 960 154C960 179.7 960 205.3 960 231.2C960 257 960 283 960 308.8C960 334.7 960 360.3 960 386C960 411.7 960 437.3 960 463C960 488.7 960 514.3 960 527.2L960 540Z" fill="#3b60bd"></path><path d="M711 540L702.2 527.2C693.3 514.3 675.7 488.7 670 463C664.3 437.3 670.7 411.7 689.3 386C708 360.3 739 334.7 738.7 308.8C738.3 283 706.7 257 701.7 231.2C696.7 205.3 718.3 179.7 719.5 154C720.7 128.3 701.3 102.7 692.2 77C683 51.3 684 25.7 684.5 12.8L685 0L960 0L960 12.8C960 25.7 960 51.3 960 77C960 102.7 960 128.3 960 154C960 179.7 960 205.3 960 231.2C960 257 960 283 960 308.8C960 334.7 960 360.3 960 386C960 411.7 960 437.3 960 463C960 488.7 960 514.3 960 527.2L960 540Z" fill="#1e75c8"></path><path d="M750 540L758.8 527.2C767.7 514.3 785.3 488.7 790.8 463C796.3 437.3 789.7 411.7 781.3 386C773 360.3 763 334.7 768 308.8C773 283 793 257 786.2 231.2C779.3 205.3 745.7 179.7 727.7 154C709.7 128.3 707.3 102.7 719.3 77C731.3 51.3 757.7 25.7 770.8 12.8L784 0L960 0L960 12.8C960 25.7 960 51.3 960 77C960 102.7 960 128.3 960 154C960 179.7 960 205.3 960 231.2C960 257 960 283 960 308.8C960 334.7 960 360.3 960 386C960 411.7 960 437.3 960 463C960 488.7 960 514.3 960 527.2L960 540Z" fill="#0088cf"></path><path d="M822 540L814.3 527.2C806.7 514.3 791.3 488.7 798.3 463C805.3 437.3 834.7 411.7 838.7 386C842.7 360.3 821.3 334.7 806 308.8C790.7 283 781.3 257 777.7 231.2C774 205.3 776 179.7 776.8 154C777.7 128.3 777.3 102.7 792.7 77C808 51.3 839 25.7 854.5 12.8L870 0L960 0L960 12.8C960 25.7 960 51.3 960 77C960 102.7 960 128.3 960 154C960 179.7 960 205.3 960 231.2C960 257 960 283 960 308.8C960 334.7 960 360.3 960 386C960 411.7 960 437.3 960 463C960 488.7 960 514.3 960 527.2L960 540Z" fill="#009ad2"></path><path d="M872 540L879.2 527.2C886.3 514.3 900.7 488.7 900.2 463C899.7 437.3 884.3 411.7 884.3 386C884.3 360.3 899.7 334.7 896 308.8C892.3 283 869.7 257 867.3 231.2C865 205.3 883 179.7 891 154C899 128.3 897 102.7 893.2 77C889.3 51.3 883.7 25.7 880.8 12.8L878 0L960 0L960 12.8C960 25.7 960 51.3 960 77C960 102.7 960 128.3 960 154C960 179.7 960 205.3 960 231.2C960 257 960 283 960 308.8C960 334.7 960 360.3 960 386C960 411.7 960 437.3 960 463C960 488.7 960 514.3 960 527.2L960 540Z" fill="#06aad1"></path></svg>