<svg id="visual" viewBox="0 0 900 450" width="900" height="450" xmlns="http://www.w3.org/2000/svg" xmlns:xlink="http://www.w3.org/1999/xlink" version="1.1"><path d="M0 128L13.7 128.7C27.3 129.3 54.7 130.7 82 128C109.3 125.3 136.7 118.7 163.8 123.2C191 127.7 218 143.3 245.2 150.5C272.3 157.7 299.7 156.3 327 143.7C354.3 131 381.7 107 409 108.5C436.3 110 463.7 137 491 150.3C518.3 163.7 545.7 163.3 573 159.7C600.3 156 627.7 149 654.8 135.7C682 122.3 709 102.7 736.2 93.2C763.3 83.7 790.7 84.3 818 91C845.3 97.7 872.7 110.3 886.3 116.7L900 123L900 0L886.3 0C872.7 0 845.3 0 818 0C790.7 0 763.3 0 736.2 0C709 0 682 0 654.8 0C627.7 0 600.3 0 573 0C545.7 0 518.3 0 491 0C463.7 0 436.3 0 409 0C381.7 0 354.3 0 327 0C299.7 0 272.3 0 245.2 0C218 0 191 0 163.8 0C136.7 0 109.3 0 82 0C54.7 0 27.3 0 13.7 0L0 0Z" fill="#3b60bd"></path><path d="M0 116L13.7 117.8C27.3 119.7 54.7 123.3 82 116.3C109.3 109.3 136.7 91.7 163.8 82.3C191 73 218 72 245.2 81.5C272.3 91 299.7 111 327 110.2C354.3 109.3 381.7 87.7 409 80.7C436.3 73.7 463.7 81.3 491 83.3C518.3 85.3 545.7 81.7 573 79.3C600.3 77 627.7 76 654.8 83.5C682 91 709 107 736.2 105.3C763.3 103.7 790.7 84.3 818 79.3C845.3 74.3 872.7 83.7 886.3 88.3L900 93L900 0L886.3 0C872.7 0 845.3 0 818 0C790.7 0 763.3 0 736.2 0C709 0 682 0 654.8 0C627.7 0 600.3 0 573 0C545.7 0 518.3 0 491 0C463.7 0 436.3 0 409 0C381.7 0 354.3 0 327 0C299.7 0 272.3 0 245.2 0C218 0 191 0 163.8 0C136.7 0 109.3 0 82 0C54.7 0 27.3 0 13.7 0L0 0Z" fill="#1779ca"></path><path d="M0 100L13.7 94.2C27.3 88.3 54.7 76.7 82 74.5C109.3 72.3 136.7 79.7 163.8 83.3C191 87 218 87 245.2 82.7C272.3 78.3 299.7 69.7 327 65C354.3 60.3 381.7 59.7 409 68.5C436.3 77.3 463.7 95.7 491 104.2C518.3 112.7 545.7 111.3 573 100.5C600.3 89.7 627.7 69.3 654.8 66.7C682 64 709 79 736.2 88.7C763.3 98.3 790.7 102.7 818 97.7C845.3 92.7 872.7 78.3 886.3 71.2L900 64L900 0L886.3 0C872.7 0 845.3 0 818 0C790.7 0 763.3 0 736.2 0C709 0 682 0 654.8 0C627.7 0 600.3 0 573 0C545.7 0 518.3 0 491 0C463.7 0 436.3 0 409 0C381.7 0 354.3 0 327 0C299.7 0 272.3 0 245.2 0C218 0 191 0 163.8 0C136.7 0 109.3 0 82 0C54.7 0 27.3 0 13.7 0L0 0Z" fill="#008fd1"></path><path d="M0 36L13.7 39C27.3 42 54.7 48 82 49.5C109.3 51 136.7 48 163.8 47.2C191 46.3 218 47.7 245.2 51C272.3 54.3 299.7 59.7 327 62.2C354.3 64.7 381.7 64.3 409 62C436.3 59.7 463.7 55.3 491 53C518.3 50.7 545.7 50.3 573 50.8C600.3 51.3 627.7 52.7 654.8 53C682 53.3 709 52.7 736.2 55.8C763.3 59 790.7 66 818 63.5C845.3 61 872.7 49 886.3 43L900 37L900 0L886.3 0C872.7 0 845.3 0 818 0C790.7 0 763.3 0 736.2 0C709 0 682 0 654.8 0C627.7 0 600.3 0 573 0C545.7 0 518.3 0 491 0C463.7 0 436.3 0 409 0C381.7 0 354.3 0 327 0C299.7 0 272.3 0 245.2 0C218 0 191 0 163.8 0C136.7 0 109.3 0 82 0C54.7 0 27.3 0 13.7 0L0 0Z" fill="#21a3d4"></path><path d="M0 36L13.7 39.2C27.3 42.3 54.7 48.7 82 46.5C109.3 44.3 136.7 33.7 163.8 33.7C191 33.7 218 44.3 245.2 46.7C272.3 49 299.7 43 327 39.5C354.3 36 381.7 35 409 36.3C436.3 37.7 463.7 41.3 491 40.2C518.3 39 545.7 33 573 32.8C600.3 32.7 627.7 38.3 654.8 41C682 43.7 709 43.3 736.2 42.5C763.3 41.7 790.7 40.3 818 40.3C845.3 40.3 872.7 41.7 886.3 42.3L900 43L900 0L886.3 0C872.7 0 845.3 0 818 0C790.7 0 763.3 0 736.2 0C709 0 682 0 654.8 0C627.7 0 600.3 0 573 0C545.7 0 518.3 0 491 0C463.7 0 436.3 0 409 0C381.7 0 354.3 0 327 0C299.7 0 272.3 0 245.2 0C218 0 191 0 163.8 0C136.7 0 109.3 0 82 0C54.7 0 27.3 0 13.7 0L0 0Z" fill="#4ab6d4"></path></svg>