<svg id="visual" viewBox="0 0 900 600" width="900" height="600" xmlns="http://www.w3.org/2000/svg" xmlns:xlink="http://www.w3.org/1999/xlink" version="1.1"><rect x="0" y="0" width="900" height="600" fill="#001220"></rect><path d="M416 600L423.7 583.3C431.3 566.7 446.7 533.3 461.7 500C476.7 466.7 491.3 433.3 490.8 400C490.3 366.7 474.7 333.3 475 300C475.3 266.7 491.7 233.3 492 200C492.3 166.7 476.7 133.3 472.5 100C468.3 66.7 475.7 33.3 479.3 16.7L483 0L900 0L900 16.7C900 33.3 900 66.7 900 100C900 133.3 900 166.7 900 200C900 233.3 900 266.7 900 300C900 333.3 900 366.7 900 400C900 433.3 900 466.7 900 500C900 533.3 900 566.7 900 583.3L900 600Z" fill="#3b60bd"></path><path d="M571 600L567.3 583.3C563.7 566.7 556.3 533.3 554.5 500C552.7 466.7 556.3 433.3 553.7 400C551 366.7 542 333.3 536.7 300C531.3 266.7 529.7 233.3 522.2 200C514.7 166.7 501.3 133.3 505.3 100C509.3 66.7 530.7 33.3 541.3 16.7L552 0L900 0L900 16.7C900 33.3 900 66.7 900 100C900 133.3 900 166.7 900 200C900 233.3 900 266.7 900 300C900 333.3 900 366.7 900 400C900 433.3 900 466.7 900 500C900 533.3 900 566.7 900 583.3L900 600Z" fill="#1779ca"></path><path d="M634 600L627.2 583.3C620.3 566.7 606.7 533.3 599.8 500C593 466.7 593 433.3 591.8 400C590.7 366.7 588.3 333.3 589 300C589.7 266.7 593.3 233.3 602.2 200C611 166.7 625 133.3 631.7 100C638.3 66.7 637.7 33.3 637.3 16.7L637 0L900 0L900 16.7C900 33.3 900 66.7 900 100C900 133.3 900 166.7 900 200C900 233.3 900 266.7 900 300C900 333.3 900 366.7 900 400C900 433.3 900 466.7 900 500C900 533.3 900 566.7 900 583.3L900 600Z" fill="#008fd1"></path><path d="M693 600L689.2 583.3C685.3 566.7 677.7 533.3 678.5 500C679.3 466.7 688.7 433.3 685 400C681.3 366.7 664.7 333.3 661.3 300C658 266.7 668 233.3 676.5 200C685 166.7 692 133.3 698.3 100C704.7 66.7 710.3 33.3 713.2 16.7L716 0L900 0L900 16.7C900 33.3 900 66.7 900 100C900 133.3 900 166.7 900 200C900 233.3 900 266.7 900 300C900 333.3 900 366.7 900 400C900 433.3 900 466.7 900 500C900 533.3 900 566.7 900 583.3L900 600Z" fill="#21a3d4"></path><path d="M786 600L782 583.3C778 566.7 770 533.3 762.5 500C755 466.7 748 433.3 751.2 400C754.3 366.7 767.7 333.3 771.3 300C775 266.7 769 233.3 762.5 200C756 166.7 749 133.3 749.8 100C750.7 66.7 759.3 33.3 763.7 16.7L768 0L900 0L900 16.7C900 33.3 900 66.7 900 100C900 133.3 900 166.7 900 200C900 233.3 900 266.7 900 300C900 333.3 900 366.7 900 400C900 433.3 900 466.7 900 500C900 533.3 900 566.7 900 583.3L900 600Z" fill="#4ab6d4"></path></svg>