<svg width="1920" height="1080" viewBox="0 0 1920 1080" fill="none" xmlns="http://www.w3.org/2000/svg">
<g clip-path="url(#clip0_11297_10902)">
<rect width="1920" height="1080" fill="#742384"/>
<g opacity="0.4" clip-path="url(#clip1_11297_10902)">
<path d="M172.045 -162C183.223 -157.853 860.187 638.825 860.187 638.825L820.355 563.8L849.278 603.962L604.981 -162H172.045Z" fill="#8B3D99"/>
<path d="M1920 303.244L909.393 649L964.859 619.473L912.005 635.062L1857.2 -162H1920V303.244Z" fill="#8B3D99"/>
<path d="M805.566 615.635L273.913 401.808L473.46 518.647L0 431.219V122.131L805.566 615.635Z" fill="#8B3D99"/>
<path d="M879.662 604.422V-162C879.662 -162 1033.81 -162.268 1054.4 -162C1052.48 -148.561 963.553 231.06 963.553 231.06L986.907 198.385L991.593 207.715L1012.6 184.37L1007.96 226.375L1047.64 193.7L917.037 543.757C917.037 543.757 1225.33 -144.721 1233.01 -162C1265.35 -162 1640.17 -162 1640.17 -162L879.662 604.422Z" fill="#8B3D99"/>
</g>
</g>
<defs>
<clipPath id="clip0_11297_10902">
<rect width="1920" height="1080" fill="white"/>
</clipPath>
<clipPath id="clip1_11297_10902">
<rect width="1920" height="811" fill="white" transform="translate(0 -162)"/>
</clipPath>
</defs>
</svg>
