<svg id="visual" viewBox="0 0 900 600" width="900" height="600" xmlns="http://www.w3.org/2000/svg" xmlns:xlink="http://www.w3.org/1999/xlink" version="1.1"><rect x="0" y="0" width="900" height="600" fill="#001220"></rect><defs><linearGradient id="grad1_0" x1="33.3%" y1="0%" x2="100%" y2="100%"><stop offset="20%" stop-color="#06aad1" stop-opacity="1"></stop><stop offset="80%" stop-color="#06aad1" stop-opacity="1"></stop></linearGradient></defs><defs><linearGradient id="grad1_1" x1="33.3%" y1="0%" x2="100%" y2="100%"><stop offset="20%" stop-color="#06aad1" stop-opacity="1"></stop><stop offset="80%" stop-color="#157fa3" stop-opacity="1"></stop></linearGradient></defs><defs><linearGradient id="grad1_2" x1="33.3%" y1="0%" x2="100%" y2="100%"><stop offset="20%" stop-color="#145775" stop-opacity="1"></stop><stop offset="80%" stop-color="#157fa3" stop-opacity="1"></stop></linearGradient></defs><defs><linearGradient id="grad1_3" x1="33.3%" y1="0%" x2="100%" y2="100%"><stop offset="20%" stop-color="#145775" stop-opacity="1"></stop><stop offset="80%" stop-color="#0d3349" stop-opacity="1"></stop></linearGradient></defs><defs><linearGradient id="grad1_4" x1="33.3%" y1="0%" x2="100%" y2="100%"><stop offset="20%" stop-color="#001220" stop-opacity="1"></stop><stop offset="80%" stop-color="#0d3349" stop-opacity="1"></stop></linearGradient></defs><defs><linearGradient id="grad2_0" x1="0%" y1="0%" x2="66.7%" y2="100%"><stop offset="20%" stop-color="#06aad1" stop-opacity="1"></stop><stop offset="80%" stop-color="#06aad1" stop-opacity="1"></stop></linearGradient></defs><defs><linearGradient id="grad2_1" x1="0%" y1="0%" x2="66.7%" y2="100%"><stop offset="20%" stop-color="#157fa3" stop-opacity="1"></stop><stop offset="80%" stop-color="#06aad1" stop-opacity="1"></stop></linearGradient></defs><defs><linearGradient id="grad2_2" x1="0%" y1="0%" x2="66.7%" y2="100%"><stop offset="20%" stop-color="#157fa3" stop-opacity="1"></stop><stop offset="80%" stop-color="#145775" stop-opacity="1"></stop></linearGradient></defs><defs><linearGradient id="grad2_3" x1="0%" y1="0%" x2="66.7%" y2="100%"><stop offset="20%" stop-color="#0d3349" stop-opacity="1"></stop><stop offset="80%" stop-color="#145775" stop-opacity="1"></stop></linearGradient></defs><defs><linearGradient id="grad2_4" x1="0%" y1="0%" x2="66.7%" y2="100%"><stop offset="20%" stop-color="#0d3349" stop-opacity="1"></stop><stop offset="80%" stop-color="#001220" stop-opacity="1"></stop></linearGradient></defs><g transform="translate(900, 0)"><path d="M0 405.6C-57.9 405.4 -115.8 405.3 -155.2 374.7C-194.6 344.2 -215.5 283.4 -239.7 239.7C-263.9 196 -291.5 169.5 -319.7 132.4C-347.9 95.3 -376.7 47.7 -405.6 0L0 0Z" fill="#082234"></path><path d="M0 324.5C-46.3 324.4 -92.7 324.2 -124.2 299.8C-155.7 275.4 -172.4 226.7 -191.8 191.8C-211.1 156.8 -233.2 135.6 -255.7 105.9C-278.3 76.3 -301.4 38.1 -324.5 0L0 0Z" fill="#12455f"></path><path d="M0 243.4C-34.7 243.3 -69.5 243.2 -93.1 224.8C-116.8 206.5 -129.3 170 -143.8 143.8C-158.4 117.6 -174.9 101.7 -191.8 79.4C-208.7 57.2 -226 28.6 -243.4 0L0 0Z" fill="#166b8c"></path><path d="M0 162.2C-23.2 162.2 -46.3 162.1 -62.1 149.9C-77.8 137.7 -86.2 113.4 -95.9 95.9C-105.6 78.4 -116.6 67.8 -127.9 53C-139.1 38.1 -150.7 19.1 -162.2 0L0 0Z" fill="#1094ba"></path><path d="M0 81.1C-11.6 81.1 -23.2 81.1 -31 74.9C-38.9 68.8 -43.1 56.7 -47.9 47.9C-52.8 39.2 -58.3 33.9 -63.9 26.5C-69.6 19.1 -75.3 9.5 -81.1 0L0 0Z" fill="#06aad1"></path></g><g transform="translate(0, 600)"><path d="M0 -405.6C56.8 -398.9 113.6 -392.2 149.6 -361.2C185.7 -330.3 201 -275 240.4 -240.4C279.8 -205.8 343.2 -191.9 374.7 -155.2C406.3 -118.6 406 -59.3 405.6 0L0 0Z" fill="#082234"></path><path d="M0 -324.5C45.4 -319.1 90.9 -313.8 119.7 -289C148.6 -264.2 160.8 -220 192.3 -192.3C223.8 -164.7 274.6 -153.5 299.8 -124.2C325 -94.9 324.8 -47.4 324.5 0L0 0Z" fill="#12455f"></path><path d="M0 -243.4C34.1 -239.4 68.1 -235.3 89.8 -216.7C111.4 -198.2 120.6 -165 144.2 -144.2C167.9 -123.5 205.9 -115.1 224.8 -93.1C243.8 -71.2 243.6 -35.6 243.4 0L0 0Z" fill="#166b8c"></path><path d="M0 -162.2C22.7 -159.6 45.4 -156.9 59.9 -144.5C74.3 -132.1 80.4 -110 96.2 -96.2C111.9 -82.3 137.3 -76.7 149.9 -62.1C162.5 -47.4 162.4 -23.7 162.2 0L0 0Z" fill="#1094ba"></path><path d="M0 -81.1C11.4 -79.8 22.7 -78.4 29.9 -72.2C37.1 -66.1 40.2 -55 48.1 -48.1C56 -41.2 68.6 -38.4 74.9 -31C81.3 -23.7 81.2 -11.9 81.1 0L0 0Z" fill="#06aad1"></path></g></svg>