<svg id="visual" viewBox="0 0 900 450" width="900" height="450" xmlns="http://www.w3.org/2000/svg" xmlns:xlink="http://www.w3.org/1999/xlink" version="1.1"><rect x="0" y="0" width="900" height="450" fill="#0f3754"></rect><defs><linearGradient id="grad1_0" x1="50%" y1="0%" x2="100%" y2="100%"><stop offset="10%" stop-color="#0f3754" stop-opacity="1"></stop><stop offset="90%" stop-color="#0f3754" stop-opacity="1"></stop></linearGradient></defs><defs><linearGradient id="grad2_0" x1="0%" y1="0%" x2="50%" y2="100%"><stop offset="10%" stop-color="#0f3754" stop-opacity="1"></stop><stop offset="90%" stop-color="#0f3754" stop-opacity="1"></stop></linearGradient></defs><g transform="translate(900, 0)"><path d="M0 180C-20.4 180.7 -40.9 181.3 -55.6 171.2C-70.4 161 -79.4 140.1 -92.3 127C-105.1 114 -121.8 108.9 -135.1 98.2C-148.5 87.4 -158.5 71.1 -165.5 53.8C-172.4 36.5 -176.2 18.2 -180 0L0 0Z" fill="#09bdde"></path></g><g transform="translate(0, 450)"><path d="M0 -180C16.6 -168.4 33.2 -156.8 48.2 -148.4C63.2 -140 76.6 -134.8 94 -129.4C111.5 -124.1 133 -118.6 145.6 -105.8C158.3 -93 162.2 -72.9 166.4 -54.1C170.7 -35.2 175.3 -17.6 180 0L0 0Z" fill="#09bdde"></path></g></svg>