<svg width="1365" height="489" xmlns="http://www.w3.org/2000/svg" xmlns:xlink="http://www.w3.org/1999/xlink">
 <defs>
  <linearGradient gradientUnits="objectBoundingBox" y2="1" y1="0.01" x2="0" x1="1" id="svg_3">
   <stop class="stopColora52eff svgShape" stop-color="#06aad1" offset="0"/>
   <stop class="stopColor3d58f3 svgShape" stop-color="#3d58f3" offset="1"/>
  </linearGradient>
  <linearGradient gradientUnits="objectBoundingBox" y2="0.854" y1="0.106" x2="0.213" x1="0.814" id="svg_2">
   <stop class="stopColorfff svgShape" stop-opacity="0" stop-color="#ffffff" offset="0"/>
   <stop class="stopColorfff svgShape" stop-opacity="0.2" stop-color="#ffffff" offset="1"/>
  </linearGradient>
  <linearGradient xlink:href="#svg_2" y2="0.851" y1="0.119" x2="0.916" x1="0.093" id="svg_1"/>
 </defs>
 <g>
  <title>background</title>
  <rect fill="none" id="canvas_background" height="491" width="1367" y="-1" x="-1"/>
 </g>
 <g>
  <title>Layer 1</title>
  <g stroke="null" id="SvgjsG1037">

   <path stroke="null" id="svg_5" d="m-1.187764,462.506443s138.5,-112.93 310,-121.387s208.5,80.593 376,87.558s159.5,-115.417 308,-125.371s188.5,92.533 286,85.568s86.667,-43.705 86.667,-43.705l0,-344l-1366.667,-0.663l0,462z" fill="url(#svg_3)"/>
   <path stroke="null" id="svg_6" d="m1272.146236,188.506443c-41.333,-68 -80,121.334 -138.667,125.333c-29.536,2.013 -33.726,-20.643 -42.515,-43.3c-8.667,-22.346 -21.808,-44.691 -68.152,-43.367c-93.333,2.667 -32,-141.333 69.334,-145.333c67.471,-2.664 70.511,-49.656 65.009,-80.768l208.324,0.1l0,344s6.592,22.366 -36.815,35.5c-8.183,-49.257 -26.858,-143.369 -56.518,-192.165z" fill="url(#svg_2)"/>
   <path stroke="rgba(0,0,0,0)" id="svg_7" class="colorfff svgShape colorStrokergba0000 svgStroke" opacity="0.2" d="m77.31126,319.506443a23.348,23.348 0 0 1 -16.617,-6.883a23.345,23.345 0 0 1 -6.883,-16.617a23.347,23.347 0 0 1 6.883,-16.618a23.348,23.348 0 0 1 16.617,-6.882a23.348,23.348 0 0 1 16.617,6.883a23.347,23.347 0 0 1 6.883,16.617a23.345,23.345 0 0 1 -6.883,16.617a23.348,23.348 0 0 1 -16.617,6.883zm0,-40.286a16.805,16.805 0 0 0 -16.785,16.786a16.8,16.8 0 0 0 16.785,16.786a16.8,16.8 0 0 0 16.786,-16.786a16.805,16.805 0 0 0 -16.786,-16.786z" fill="#ffffff"/>
   <path stroke="null" id="svg_8" d="m-1.187002,344.653444l0,-344.147l5.658,0c77.6,51.747 88.6,159.233 184.341,104c52.73,-30.421 116.771,-72.154 176.222,-103.822l231.295,0.113c-36.131,23.25 -95.348,48.932 -85.517,103.709c14,78 60,182 -30,184c-38.392,0.853 -70.961,-20.493 -104.227,-41.84c-44.718,-28.695 -90.7,-57.391 -153.773,-32.16c-94.464,37.786 -183.03,130.145 -223.9,130.147l-0.099,0z" fill="url(#svg_1)"/>
   <path stroke="rgba(0,0,0,0)" id="svg_9" class="colorfff svgShape colorStrokergba0000 svgStroke" opacity="0.2" d="m970.43426,99.506441a11.548,11.548 0 0 1 -8.219,-3.4a11.546,11.546 0 0 1 -3.4,-8.218a11.548,11.548 0 0 1 3.4,-8.219a11.548,11.548 0 0 1 8.219,-3.4a11.547,11.547 0 0 1 8.219,3.4a11.547,11.547 0 0 1 3.4,8.219a11.546,11.546 0 0 1 -3.4,8.218a11.548,11.548 0 0 1 -8.219,3.4zm0,-19.925a8.312,8.312 0 0 0 -8.3,8.3a8.311,8.311 0 0 0 8.3,8.3a8.311,8.311 0 0 0 8.3,-8.3a8.312,8.312 0 0 0 -8.3,-8.3z" fill="#ffffff"/>
   <circle stroke="null" id="svg_10" class="colorfff svgShape" opacity="0.2" fill="#ffffff" r="13.5" cy="121.006443" cx="424.312236"/>
   <circle stroke="null" id="svg_11" class="colorfff svgShape" opacity="0.2" fill="#ffffff" r="18.5" cy="304.006443" cx="1214.312236"/>
   <circle stroke="null" id="svg_12" class="colorfff svgShape" opacity="0.2" fill="#ffffff" r="8.5" cy="376.006443" cx="621.312236"/>
   <path transform="rotate(74.98999786376953 690.7010498046875,81.2439422607421) " stroke="null" opacity="0.2" id="svg_14" class="color000 svgShape" fill="#000000" d="m683.611855,65.689273a8.165,8.165 0 0 1 14.178,0l13.147,23.007a8.165,8.165 0 0 1 -7.09,12.216l-26.293,0a8.165,8.165 0 0 1 -7.089,-12.216l13.147,-23.007z"/>
   <path transform="rotate(74.98999786376953 690.7009277343749,81.24392700195312) " stroke="null" opacity="0.2" id="svg_15" class="colorfff svgShape" d="m690.700844,66.575504c-0.55225,0 -1.92549,0.15539 -2.74796,1.5947l-13.14681,23.00693c-0.81615,1.42826 -0.2645,2.68487 0.01056,3.15884c0.27505,0.47398 1.0924,1.57638 2.73739,1.57638l26.29364,0c1.64499,0 2.46233,-1.1024 2.73739,-1.57638c0.27505,-0.47397 0.8267,-1.73058 0.01055,-3.15884l-13.14681,-23.00693c-0.82246,-1.43931 -2.19571,-1.5947 -2.74795,-1.5947m-0.00001,-5c2.76096,0 5.52193,1.37134 7.08917,4.114l13.14682,23.00694c3.1104,5.44322 -0.81993,12.21591 -7.08916,12.21591l-26.29364,0c-6.26924,0 -10.19957,-6.77269 -7.08917,-12.21591l13.14682,-23.00694c1.56724,-2.74266 4.3282,-4.114 7.08916,-4.114z" fill="#ffffff"/>
   <path stroke="null" opacity="0.2" id="svg_17" class="color000 svgShape" fill="#000000" d="m-19.469191,89.431074a-6.139907,-6.139907 0 0 1 -10.66118,6.923451l-21.119679,-10.879597a-6.139069,-6.139069 0 0 1 -0.634297,-12.646846l19.77082,-12.839321a-6.139907,-6.139907 0 0 1 11.295477,5.723394l1.348859,23.718918z"/>
   <path stroke="null" opacity="0.2" id="svg_18" class="colorfff svgShape" d="m-24.969086,92.63147c0.485909,-0.315553 1.605428,-1.236956 1.506668,-2.973349l-1.348998,-23.719389c-0.098,-1.723067 -1.301419,-2.513521 -1.814272,-2.773409c-0.512845,-0.259857 -1.861938,-0.762822 -3.309357,0.177144l-19.771038,12.839462c-1.44742,0.939965 -1.536664,2.376997 -1.507866,2.951198c0.028823,0.574221 0.261473,1.9951 1.795713,2.785462l21.120036,10.879926c1.546099,0.796468 2.843206,0.148508 3.329115,-0.167045m2.178556,3.354682c-2.076054,1.348205 -4.821755,1.665261 -7.33948,0.36827l-21.120041,-10.879935c-4.996811,-2.574088 -5.34863,-9.585906 -0.634589,-12.64724l19.771038,-12.839462c4.714041,-3.061334 10.976559,0.112032 11.295727,5.723816l1.349003,23.719397c0.160809,2.82759 -1.245605,5.206949 -3.321658,6.555154z" fill="#ffffff"/>
   <path stroke="null" id="svg_19" class="colorfff svgShape" opacity="0.16" d="m765.478236,357.840443c49.333,-36 85.334,-4 98.667,-49.334c11.337,-38.546 88.224,-26 105.256,-2.529c-99.087,16.29 -120.5,88.257 -204.39,113.885c-15.591,-16.863 -28.035,-41.223 0.467,-62.022z" fill="#ffffff"/>
   <circle stroke="null" id="svg_20" class="colorfff svgShape" opacity="0.2" fill="#ffffff" r="9.5" cy="295.006443" cx="294.312236"/>
  </g>
 </g>
</svg>