<svg width="33" height="32" viewBox="0 0 33 32" fill="none" xmlns="http://www.w3.org/2000/svg">
<path fill-rule="evenodd" clip-rule="evenodd" d="M18.8437 2.67041L20.3006 2.68625L21.1425 2.71008L21.9972 2.74617C23.4172 2.81151 24.3852 3.03684 25.2345 3.36617C26.1105 3.70617 26.8545 4.16351 27.5945 4.90351C28.3372 5.64617 28.7932 6.38884 29.1345 7.26617C29.4309 8.02937 29.6431 8.89085 29.7292 10.0897L29.7818 11.1643C29.8128 11.9376 29.8265 12.6029 29.8312 14.2333L29.8272 18.637L29.8168 19.5965L29.7983 20.3785L29.7532 21.4968C29.6892 22.9168 29.4638 23.8848 29.1345 24.7328C28.7932 25.6102 28.3372 26.3542 27.5945 27.0955C26.8545 27.8368 26.1105 28.2928 25.2345 28.6328C24.4701 28.9292 23.6096 29.1414 22.4099 29.2285L21.3355 29.2815C20.5625 29.3125 19.8968 29.3262 18.2661 29.3308L13.8624 29.3269L12.9028 29.3165L12.1208 29.298L11.0025 29.2528C9.58382 29.1875 8.61449 28.9622 7.76516 28.6328C6.88916 28.2928 6.14516 27.8368 5.40516 27.0955C4.66249 26.3542 4.20649 25.6102 3.86649 24.7328C3.53716 23.8848 3.31182 22.9168 3.24782 21.4968L3.19062 19.976L3.16921 17.9839L3.16675 16.7285L3.17076 13.6559L3.18243 12.4402L3.20123 11.6393L3.24782 10.5022C3.31182 9.0835 3.53716 8.11417 3.86649 7.26617C4.20649 6.38884 4.66249 5.64617 5.40516 4.90351C6.14516 4.16351 6.88916 3.70617 7.76516 3.36617C8.61449 3.03684 9.58382 2.81151 11.0025 2.74617L12.5233 2.69002L13.9587 2.67151L18.8437 2.67041ZM12.5001 10.6664V21.3331L21.8334 16L12.5001 10.6664Z" fill="white"/>
</svg>
