<svg width="33" height="32" viewBox="0 0 33 32" fill="none" xmlns="http://www.w3.org/2000/svg">
<path fill-rule="evenodd" clip-rule="evenodd" d="M18.8437 2.67041L20.3006 2.68625L21.1425 2.71008C21.4099 2.71995 21.6793 2.73186 21.9972 2.74617C23.4172 2.81151 24.3852 3.03684 25.2345 3.36617C26.1105 3.70617 26.8545 4.16351 27.5945 4.90351C28.3372 5.64617 28.7932 6.38884 29.1345 7.26617C29.4309 8.02937 29.6431 8.89085 29.7292 10.0897L29.7818 11.1643C29.8128 11.9376 29.8265 12.6029 29.8312 14.2333L29.8272 18.637L29.8168 19.5965L29.7983 20.3785C29.7869 20.7382 29.7722 21.0749 29.7532 21.4968C29.6892 22.9168 29.4638 23.8848 29.1345 24.7328C28.7932 25.6102 28.3372 26.3542 27.5945 27.0955C26.8545 27.8368 26.1105 28.2928 25.2345 28.6328C24.4701 28.9292 23.6096 29.1414 22.4099 29.2285L21.3355 29.2815L19.1675 29.3331L19.1668 19.9998H22.6209L23.1668 15.9998H19.1668V13.3331C19.1668 12.6576 19.6605 12.0881 20.3401 12.0102L20.5001 12.0011L23.1668 11.9998V8.1573L22.684 8.10899C22.0867 8.05864 21.0979 7.99977 19.997 7.99977C16.9579 7.99977 15.2729 9.76128 15.1706 13.0064L15.1656 13.325V15.9998H11.1668V19.9998H15.1668L15.1668 29.3291L13.8624 29.3269L12.9028 29.3165L12.1208 29.298C11.7611 29.2866 11.4244 29.2718 11.0025 29.2528C9.58382 29.1875 8.61449 28.9622 7.76516 28.6328C6.88916 28.2928 6.14516 27.8368 5.40516 27.0955C4.66249 26.3542 4.20649 25.6102 3.86649 24.7328C3.53716 23.8848 3.31182 22.9168 3.24782 21.4968L3.19062 19.976L3.16921 17.9839L3.16675 16.7285L3.17076 13.6559L3.18243 12.4402L3.20123 11.6393C3.21288 11.2727 3.2281 10.9316 3.24782 10.5022C3.31182 9.08351 3.53716 8.11417 3.86649 7.26617C4.20649 6.38884 4.66249 5.64617 5.40516 4.90351C6.14516 4.16351 6.88916 3.70617 7.76516 3.36617C8.61449 3.03684 9.58382 2.81151 11.0025 2.74617L12.5233 2.69002L13.9587 2.67151L18.8437 2.67041Z" fill="white"/>
</svg>
