<svg width="33" height="32" viewBox="0 0 33 32" fill="none" xmlns="http://www.w3.org/2000/svg">
<path fill-rule="evenodd" clip-rule="evenodd" d="M24.5001 23.9998H21.0815V18.9388C21.0815 17.732 21.0571 16.1792 19.3039 16.1792C17.5225 16.1792 17.2508 17.4939 17.2508 18.8515V23.9998H13.8334V13.5924H17.1137V15.0143H17.1604C17.6167 14.1958 18.7336 13.3331 20.3984 13.3331C23.8599 13.3331 24.5001 15.488 24.5001 18.2911V23.9998ZM10.5011 11.9998C9.39271 11.9998 8.50009 11.1031 8.50009 9.99913C8.50009 8.89641 9.39271 7.99977 10.5011 7.99977C11.6042 7.99977 12.5001 8.89641 12.5001 9.99913C12.5001 11.1031 11.6042 11.9998 10.5011 11.9998ZM8.50009 23.9797H12.5001V13.313H8.50009V23.9797ZM14.156 2.67041H18.8437L20.3006 2.68625C20.9192 2.69853 21.3615 2.71755 21.9972 2.74617C23.4172 2.81151 24.3852 3.03684 25.2345 3.36617C26.1105 3.70617 26.8545 4.16351 27.5945 4.90351C28.3372 5.64617 28.7932 6.38884 29.1345 7.26617C29.4309 8.02937 29.6431 8.89085 29.7292 10.0897L29.7818 11.1643C29.8128 11.9376 29.8265 12.6029 29.8312 14.2333L29.8272 18.637L29.8168 19.5965C29.8047 20.3271 29.7848 20.7936 29.7532 21.4968C29.6892 22.9168 29.4638 23.8848 29.1345 24.7328C28.7932 25.6102 28.3372 26.3542 27.5945 27.0955C26.8545 27.8368 26.1105 28.2928 25.2345 28.6328C24.4701 28.9292 23.6096 29.1414 22.4099 29.2285L21.3355 29.2815C20.5625 29.3125 19.8968 29.3262 18.2661 29.3308L13.8624 29.3269L12.9028 29.3165C12.1723 29.3044 11.7057 29.2845 11.0025 29.2528C9.58382 29.1875 8.61449 28.9622 7.76516 28.6328C6.88916 28.2928 6.14516 27.8368 5.40516 27.0955C4.66249 26.3542 4.20649 25.6102 3.86649 24.7328C3.53716 23.8848 3.31182 22.9168 3.24782 21.4968L3.19062 19.976L3.16921 17.9839C3.1679 17.6207 3.16712 17.2069 3.16675 16.7285L3.17076 13.6559L3.18243 12.4402C3.19457 11.6883 3.21495 11.2179 3.24782 10.5022C3.31182 9.0835 3.53716 8.11417 3.86649 7.26617C4.20649 6.38884 4.66249 5.64617 5.40516 4.90351C6.14516 4.16351 6.88916 3.70617 7.76516 3.36617C8.61449 3.03684 9.58382 2.81151 11.0025 2.74617L12.5233 2.69002L13.5959 2.67415C13.7674 2.67268 13.953 2.67144 14.156 2.67041Z" fill="white"/>
</svg>
