<svg width="33" height="32" viewBox="0 0 33 32" fill="none" xmlns="http://www.w3.org/2000/svg">
<path fill-rule="evenodd" clip-rule="evenodd" d="M14.156 2.6665H18.8437L20.3006 2.68234C20.9192 2.69462 21.3615 2.71364 21.9972 2.74227C23.4172 2.8076 24.3852 3.03293 25.2345 3.36227C26.1105 3.70227 26.8545 4.1596 27.5945 4.8996C28.3372 5.64227 28.7932 6.38493 29.1345 7.26227C29.4309 8.02547 29.6431 8.88695 29.7292 10.0858L29.7818 11.1604C29.8128 11.9337 29.8265 12.599 29.8312 14.2294L29.8272 18.6331L29.8168 19.5926C29.8047 20.3232 29.7848 20.7897 29.7532 21.4929C29.6892 22.9129 29.4638 23.8809 29.1345 24.7289C28.7932 25.6063 28.3372 26.3503 27.5945 27.0916C26.8545 27.8329 26.1105 28.2889 25.2345 28.6289C24.4701 28.9253 23.6096 29.1375 22.4099 29.2246L21.3355 29.2776C20.5625 29.3086 19.8968 29.3223 18.2661 29.3269L13.8624 29.323L12.9028 29.3126C12.1723 29.3005 11.7057 29.2806 11.0025 29.2489C9.58382 29.1836 8.61449 28.9583 7.76516 28.6289C6.88916 28.2889 6.14516 27.8329 5.40516 27.0916C4.66249 26.3503 4.20649 25.6063 3.86649 24.7289C3.53716 23.8809 3.31182 22.9129 3.24782 21.4929L3.19062 19.9721L3.16921 17.98C3.1679 17.6168 3.16712 17.203 3.16675 16.7246L3.17076 13.6519L3.18243 12.4363C3.19457 11.6844 3.21495 11.214 3.24782 10.4983C3.31182 9.0796 3.53716 8.11027 3.86649 7.26227C4.20649 6.38493 4.66249 5.64227 5.40516 4.8996C6.14516 4.1596 6.88916 3.70227 7.76516 3.36227C8.61449 3.03293 9.58382 2.8076 11.0025 2.74227L12.5233 2.68612L13.5959 2.67024C13.7674 2.66877 13.953 2.66753 14.156 2.6665ZM16.4998 9.3329C12.8179 9.3329 9.83316 12.3176 9.83316 15.9996C9.83316 19.6815 12.8179 22.6662 16.4998 22.6662C20.1817 22.6662 23.1665 19.6815 23.1665 15.9996C23.1665 12.3176 20.1817 9.3329 16.4998 9.3329ZM16.5 11.9998C18.7094 11.9998 20.5 13.7913 20.5 15.9992C20.5 18.2083 18.7094 19.9998 16.5 19.9998C14.2905 19.9998 12.5 18.2083 12.5 15.9992C12.5 13.7913 14.2905 11.9998 16.5 11.9998ZM23.1668 7.99984C22.4312 7.99984 21.8334 8.5965 21.8334 9.33317C21.8334 10.0698 22.4312 10.6665 23.1668 10.6665C23.9034 10.6665 24.5001 10.0698 24.5001 9.33317C24.5001 8.5965 23.9034 7.99984 23.1668 7.99984Z" fill="white"/>
</svg>
