<svg width="24" height="24" viewBox="0 0 24 24" fill="none" xmlns="http://www.w3.org/2000/svg">
<path fill-rule="evenodd" clip-rule="evenodd" d="M12.002 2C6.48949 2 2.002 6.48319 2 11.9951C1.999 13.757 2.46053 15.477 3.33555 16.9927L2.10974 21.5352C2.06652 21.6953 2.16132 21.8601 2.32147 21.9033C2.36962 21.9163 2.42025 21.9171 2.46878 21.9057L7.21705 20.7838C8.67776 21.5807 10.3221 21.999 11.9961 22C17.5115 22 21.997 17.5158 22 12.0049C22.002 9.33302 20.9629 6.82091 19.0747 4.93088C17.1865 3.04185 14.6771 2.001 12.002 2ZM8.46265 7.38078C8.29545 7.38078 8.02512 7.44335 7.79585 7.69362L7.62987 7.873C7.34679 8.19127 6.91983 8.77711 6.91983 9.77593C6.91983 10.8111 7.55492 11.8173 7.83021 12.209L8.0177 12.4738C8.38402 13.0156 9.91505 15.2262 12.2092 16.1304L12.6672 16.3052C14.3858 16.9378 14.7836 16.7949 15.2069 16.7561C15.6654 16.715 16.6862 16.1529 16.8944 15.5693C17.1026 14.9856 17.1031 14.4836 17.0411 14.3805C17.01 14.3284 16.9528 14.2869 16.8721 14.2427L15.7855 13.7085C15.3915 13.518 14.9784 13.3225 14.8549 13.2777C14.6256 13.1947 14.4579 13.1526 14.2917 13.4029C14.1255 13.6531 13.6479 14.2143 13.5018 14.3805C13.3739 14.5268 13.2467 14.5623 13.0492 14.485L12.5753 14.2725C12.1922 14.0963 11.6066 13.7884 10.9499 13.2034C10.2071 12.5417 9.70581 11.7253 9.55964 11.475C9.44673 11.2811 9.50118 11.1552 9.58983 11.0504L9.6711 10.9647C9.78323 10.8526 9.91943 10.6729 10.0446 10.5267C10.1687 10.3806 10.2118 10.2765 10.2949 10.1103C10.3641 9.97179 10.3461 9.84687 10.3023 9.73666L10.2276 9.5675C10.0864 9.23128 9.69556 8.24734 9.50293 7.81875C9.31571 7.4033 9.11798 7.39365 8.93977 7.38665C8.7946 7.38064 8.62884 7.38078 8.46265 7.38078Z" fill="white"/>
</svg>
