<svg width="24" height="24" viewBox="0 0 24 24" fill="none" xmlns="http://www.w3.org/2000/svg">
<path fill-rule="evenodd" clip-rule="evenodd" d="M12.002 2C14.6771 2.001 17.1865 3.04185 19.0747 4.93088C20.9629 6.82091 22.002 9.33302 22 12.0049C21.997 17.5158 17.5115 22 11.9961 22C10.4509 21.9991 8.93092 21.6426 7.55733 20.961L7.21705 20.7838L2.46821 21.9058C2.41974 21.9173 2.36917 21.9165 2.32107 21.9035C2.18396 21.8665 2.09481 21.7402 2.09932 21.6042L2.1096 21.5357L3.33555 16.9927C2.46053 15.477 1.999 13.757 2 11.9951C2.00201 6.48319 6.4895 2 12.002 2ZM12.0012 4C7.59317 4 4.0016 7.58881 4 11.9962C3.99926 13.2959 4.31265 14.5675 4.91187 15.7099L5.06761 15.9927L5.48285 16.7119L4.783 19.303L7.50253 18.6613L8.17485 19.0281C9.34141 19.6645 10.6568 19.9992 11.9961 20C16.4065 20 19.9976 16.4114 20 12.0034C20.0016 9.86241 19.1732 7.85926 17.6602 6.34479C16.222 4.90597 14.3441 4.08546 12.3217 4.00632L12.0012 4ZM8.46265 7.38078L8.78849 7.38246L8.93977 7.38665C9.11798 7.39365 9.31571 7.4033 9.50293 7.81875L9.66245 8.18941C9.88265 8.71473 10.1708 9.43889 10.2555 9.63304L10.2734 9.6723C10.3354 9.79744 10.378 9.9441 10.2949 10.1103L10.1851 10.326C10.1485 10.3911 10.1067 10.4537 10.0446 10.5267L9.75916 10.8695L9.58983 11.0504C9.50118 11.1552 9.44673 11.2811 9.55964 11.475L9.70141 11.7068C9.93173 12.0681 10.3663 12.6835 10.9499 13.2034C11.5469 13.7353 12.0851 14.038 12.4659 14.2211L12.9601 14.445C13.2104 14.5701 13.3556 14.5477 13.5018 14.3805L13.8366 13.9868C14.011 13.7769 14.1994 13.5419 14.2917 13.4029C14.4579 13.1526 14.6256 13.1947 14.8549 13.2777C14.9431 13.3097 15.1791 13.4186 15.4503 13.5476L16.8721 14.2427C16.9528 14.2869 17.01 14.3284 17.0411 14.3805C17.1031 14.4836 17.1026 14.9856 16.8944 15.5693C16.6862 16.1529 15.6654 16.715 15.2069 16.7561L14.8732 16.791C14.4609 16.8209 13.8327 16.7703 12.2092 16.1304C10.2428 15.3554 8.83703 13.6206 8.24483 12.7995L7.94056 12.3607C7.81541 12.1936 6.91983 11.0053 6.91983 9.77593C6.91983 8.54661 7.56659 7.94288 7.79585 7.69362C8.02512 7.44335 8.29546 7.38078 8.46265 7.38078Z" fill="gray"/>
</svg>
