<svg width="33" height="32" viewBox="0 0 33 32" fill="none" xmlns="http://www.w3.org/2000/svg">
<path fill-rule="evenodd" clip-rule="evenodd" d="M16.5027 2.6665C9.15274 2.6665 3.16942 8.64409 3.16675 15.9933C3.16542 18.3425 3.78078 20.6359 4.94748 22.6567L3.31306 28.7134C3.25544 28.9269 3.38184 29.1467 3.59538 29.2043C3.65958 29.2216 3.72708 29.2227 3.79179 29.2074L10.1228 27.7116C12.0704 28.7741 14.2629 29.3318 16.4949 29.3332C23.8487 29.3332 29.8294 23.3542 29.8334 16.0064C29.8361 12.4439 28.4506 9.09439 25.933 6.57435C23.4154 4.05564 20.0695 2.66784 16.5027 2.6665ZM11.7836 9.84088C11.5607 9.84088 11.2002 9.9243 10.8946 10.258L10.6732 10.4972C10.2958 10.9215 9.72652 11.7026 9.72652 13.0344C9.72652 14.4147 10.5733 15.7562 10.9404 16.2785L11.1903 16.6315C11.6788 17.354 13.7202 20.3015 16.779 21.5071L17.3897 21.7401C19.6812 22.5835 20.2116 22.393 20.7759 22.3413C21.3873 22.2866 22.7483 21.537 23.0259 20.7589C23.3036 19.9807 23.3043 19.3113 23.2215 19.1738C23.1801 19.1044 23.1038 19.049 22.9962 18.9901L21.5475 18.2779C21.0221 18.0239 20.4712 17.7631 20.3066 17.7035C20.0009 17.5927 19.7773 17.5366 19.5557 17.8703C19.3341 18.204 18.6973 18.9522 18.5024 19.1738C18.3319 19.3689 18.1624 19.4162 17.8991 19.3132L17.2672 19.0299C16.7563 18.7949 15.9755 18.3844 15.1 17.6044C14.1095 16.7221 13.4412 15.6336 13.2463 15.2999C13.0957 15.0414 13.1683 14.8735 13.2865 14.7338L13.3949 14.6194C13.5444 14.47 13.726 14.2304 13.8929 14.0355C14.0584 13.8406 14.1158 13.7018 14.2266 13.4802C14.3189 13.2956 14.2949 13.129 14.2365 12.982L14.1368 12.7565C13.9486 12.3082 13.4275 10.9963 13.1707 10.4248C12.921 9.87091 12.6574 9.85804 12.4198 9.8487C12.2262 9.84069 12.0052 9.84088 11.7836 9.84088Z" fill="#742384"/>
</svg>
