<svg width="32" height="32" viewBox="0 0 32 32" fill="none" xmlns="http://www.w3.org/2000/svg">
<path fill-rule="evenodd" clip-rule="evenodd" d="M18.3436 2.67065L19.8005 2.68649L20.6424 2.71033L21.4971 2.74642C22.9171 2.81175 23.8851 3.03708 24.7344 3.36642C25.6104 3.70642 26.3544 4.16375 27.0944 4.90375C27.8371 5.64642 28.2931 6.38908 28.6344 7.26642C28.9308 8.02962 29.143 8.8911 29.2291 10.09L29.2817 11.1645C29.3127 11.9379 29.3264 12.6032 29.3311 14.2336L29.3271 18.6372L29.3167 19.5968L29.2982 20.3788L29.2531 21.4971C29.1891 22.9171 28.9638 23.8851 28.6344 24.7331C28.2931 25.6104 27.8371 26.3544 27.0944 27.0957C26.3544 27.8371 25.6104 28.2931 24.7344 28.6331C23.97 28.9295 23.1095 29.1416 21.9099 29.2287L20.8355 29.2817C20.0625 29.3127 19.3967 29.3264 17.7661 29.3311L13.3623 29.3271L12.4027 29.3167L11.6208 29.2982L10.5024 29.2531C9.08376 29.1877 8.11443 28.9624 7.2651 28.6331C6.3891 28.2931 5.6451 27.8371 4.9051 27.0957C4.16243 26.3544 3.70643 25.6104 3.36643 24.7331C3.0371 23.8851 2.81176 22.9171 2.74776 21.4971L2.69056 19.9763L2.66914 17.9841L2.66669 16.7288L2.6707 13.6561L2.68237 12.4405L2.70117 11.6396L2.74776 10.5024C2.81176 9.08375 3.0371 8.11442 3.36643 7.26642C3.70643 6.38908 4.16243 5.64642 4.9051 4.90375C5.6451 4.16375 6.3891 3.70642 7.2651 3.36642C8.11443 3.03708 9.08376 2.81175 10.5024 2.74642L12.0232 2.69027L13.4586 2.67175L18.3436 2.67065ZM21.6158 9.8498C20.4286 9.05645 18.8973 9.20752 17.7344 10.0947C16.5105 11.0278 16.1112 12.3133 16.2996 13.8764C13.2839 13.6787 10.8906 12.3627 8.89906 10.0402C8.0815 11.8167 8.37413 13.3082 9.48882 14.7116L9.67161 14.9325L8.42785 14.6029C8.45595 16.2815 9.30699 17.3224 10.6394 18.1036L10.8794 18.2388L9.70013 18.3313C10.2631 19.8374 11.3705 20.5816 12.9441 20.863C11.3779 22.0104 9.76585 22.4477 8.00003 22.4389C10.5334 24.016 13.2281 24.3836 16.0665 23.6077C20.2096 22.4738 23.2802 18.4922 23.4797 14.0494L23.498 13.5206C23.5279 13.1813 23.6379 12.9279 23.8771 12.6891L24.2212 12.3801C24.4993 12.1135 24.7585 11.7973 25.0796 11.4311L25.3334 11.147L23.5353 11.6439L24.7543 9.90837L24.598 9.78033L24.1685 9.96796L23.575 10.2319C23.0319 10.4559 22.5513 10.4946 21.9919 10.1235L21.6158 9.8498Z" fill="white"/>
</svg>
