<svg width="33" height="32" viewBox="0 0 33 32" fill="none" xmlns="http://www.w3.org/2000/svg">
<path fill-rule="evenodd" clip-rule="evenodd" d="M18.8441 2.6665L20.3014 2.6825L21.1427 2.7065L21.9974 2.7425C23.4174 2.80784 24.3854 3.03317 25.2347 3.3625C26.1108 3.7025 26.8547 4.15984 27.5947 4.89984C28.3374 5.6425 28.7934 6.38517 29.1347 7.2625C29.4307 8.02517 29.6427 8.8865 29.7294 10.0852L29.7827 11.1598C29.8134 11.9332 29.8267 12.5985 29.8321 14.2292L29.8281 18.6332L29.8174 19.5932L29.7987 20.3745L29.7534 21.4932C29.6894 22.9132 29.4641 23.8812 29.1347 24.7292C28.7934 25.6065 28.3374 26.3505 27.5947 27.0918C26.8547 27.8332 26.1108 28.2892 25.2347 28.6292C24.4707 28.9252 23.6094 29.1372 22.4107 29.2252L21.3361 29.2772C20.5627 29.3092 19.8974 29.3225 18.2667 29.3265L13.8627 29.3225L12.9027 29.3132L12.1214 29.2945L11.0027 29.2492C9.58408 29.1838 8.61475 28.9585 7.76541 28.6292C6.88941 28.2892 6.14541 27.8332 5.40541 27.0918C4.66275 26.3505 4.20675 25.6065 3.86675 24.7292C3.53741 23.8812 3.31208 22.9132 3.24808 21.4932L3.19075 19.9718L3.16941 17.9798L3.16675 16.7252L3.17075 13.6518L3.18275 12.4358L3.20141 11.6358L3.24808 10.4985C3.31208 9.07984 3.53741 8.1105 3.86675 7.2625C4.20675 6.38517 4.66275 5.6425 5.40541 4.89984C6.14541 4.15984 6.88941 3.7025 7.76541 3.3625C8.61475 3.03317 9.58408 2.80784 11.0027 2.7425L12.5241 2.6865L14.1561 2.6665H18.8441ZM21.2022 11.1144C20.9171 10.9257 20.6572 10.7036 20.4239 10.4521C19.844 9.78976 19.6274 9.11487 19.5492 8.64398H19.552C19.4849 8.25275 19.5115 7.99984 19.517 7.99984H16.8748V18.2168C16.8748 18.3537 16.8748 18.4906 16.8692 18.6234C16.8692 18.6415 16.8678 18.6555 16.8664 18.6737C16.8664 18.6821 16.8664 18.689 16.865 18.696V18.7016C16.8077 19.4478 16.3843 20.1143 15.736 20.4832C15.4034 20.6732 15.0262 20.7724 14.6433 20.7724C13.4123 20.7724 12.4147 19.7677 12.4147 18.5284C12.4147 17.289 13.4123 16.2843 14.6433 16.2843C14.8767 16.2843 15.1072 16.3207 15.3294 16.3933L15.3322 13.7021C13.9726 13.5275 12.6019 13.9285 11.5511 14.8102C11.0956 15.2042 10.7128 15.6765 10.4193 16.2047C10.309 16.3975 9.88697 17.1702 9.83667 18.4236C9.80453 19.1362 10.0183 19.8725 10.1203 20.1772V20.1841C10.1846 20.3644 10.4319 20.9764 10.8371 21.4934C11.1641 21.907 11.5497 22.2703 11.9815 22.5721V22.5665L11.9871 22.5721C13.267 23.4412 14.6852 23.3853 14.6852 23.3853C14.9312 23.3741 15.7528 23.3853 16.6862 22.9424C17.7229 22.4505 18.3126 21.7198 18.3126 21.7198C18.6885 21.2838 18.9889 20.785 19.1971 20.2484C19.436 19.6196 19.517 18.8665 19.517 18.5647V13.1446C19.5492 13.1628 19.9754 13.445 19.9754 13.445C19.9754 13.445 20.5902 13.8391 21.5501 14.0962C22.239 14.2792 23.1667 14.317 23.1667 14.317V11.6943C22.8412 11.7292 22.1817 11.6272 21.5054 11.2904C21.402 11.2359 21.3 11.1773 21.2022 11.1144Z" fill="white"/>
</svg>
