<svg width="33" height="32" viewBox="0 0 33 32" fill="none" xmlns="http://www.w3.org/2000/svg">
<path fill-rule="evenodd" clip-rule="evenodd" d="M18.8437 2.67041L20.3006 2.68625L21.1425 2.71008L21.9972 2.74617C23.4172 2.81151 24.3852 3.03684 25.2345 3.36617C26.1105 3.70617 26.8545 4.16351 27.5945 4.90351C28.3372 5.64617 28.7932 6.38884 29.1345 7.26617C29.4309 8.02937 29.6431 8.89085 29.7292 10.0897L29.7818 11.1643C29.8128 11.9376 29.8265 12.6029 29.8312 14.2333L29.8272 18.637L29.8168 19.5965L29.7983 20.3785L29.7532 21.4968C29.6892 22.9168 29.4638 23.8848 29.1345 24.7328C28.7932 25.6102 28.3372 26.3542 27.5945 27.0955C26.8545 27.8368 26.1105 28.2928 25.2345 28.6328C24.4701 28.9292 23.6096 29.1414 22.4099 29.2285L21.3355 29.2815C20.5625 29.3125 19.8968 29.3262 18.2661 29.3308L13.8624 29.3269L12.9028 29.3165L12.1208 29.298L11.0025 29.2528C9.58382 29.1875 8.61449 28.9622 7.76516 28.6328C6.88916 28.2928 6.14516 27.8368 5.40516 27.0955C4.66249 26.3542 4.20649 25.6102 3.86649 24.7328C3.53716 23.8848 3.31182 22.9168 3.24782 21.4968L3.19062 19.976L3.16921 17.9839L3.16675 16.7285L3.17076 13.6559L3.18243 12.4402L3.20123 11.6393L3.24782 10.5022C3.31182 9.0835 3.53716 8.11417 3.86649 7.26617C4.20649 6.38884 4.66249 5.64617 5.40516 4.90351C6.14516 4.16351 6.88916 3.70617 7.76516 3.36617C8.61449 3.03684 9.58382 2.81151 11.0025 2.74617L12.5233 2.69002L13.9587 2.67151L18.8437 2.67041ZM22.1158 9.84956C20.9287 9.05621 19.3974 9.20727 18.2344 10.0945C17.0105 11.0276 16.6112 12.3131 16.7997 13.8762C13.7839 13.6784 11.3906 12.3625 9.39912 10.04C8.58156 11.8164 8.87419 13.308 9.98888 14.7114L10.1717 14.9322L8.92791 14.6026C8.95601 16.2813 9.80705 17.3222 11.1394 18.1033L11.3795 18.2386L10.2002 18.3311C10.7632 19.8372 11.8705 20.5814 13.4441 20.8628C11.878 22.0101 10.2659 22.4475 8.50009 22.4386C11.0335 24.0157 13.7281 24.3834 16.5666 23.6075C20.7097 22.4735 23.7803 18.4919 23.9797 14.0491L23.998 13.5203C24.028 13.1811 24.138 12.9276 24.3772 12.6889L24.7212 12.3798C24.9994 12.1133 25.2586 11.7971 25.5797 11.4308L25.8334 11.1467L24.0354 11.6437L25.2543 9.90813L25.0981 9.78009L24.6686 9.96771L24.075 10.2317C23.532 10.4557 23.0514 10.4944 22.492 10.1233L22.1158 9.84956Z" fill="#742384"/>
</svg>
