<svg width="24" height="25" viewBox="0 0 24 25" fill="none" xmlns="http://www.w3.org/2000/svg">
<path d="M17.69 3.68433H6.36C5.06 3.68433 4 4.74433 4 6.04433V19.3143C4 20.6243 5.06 21.6843 6.36 21.6843H17.69C19 21.6843 20.05 20.6243 20.05 19.3243V6.04433C20.05 4.74433 19 3.68433 17.69 3.68433ZM11.22 8.15433L9.3 10.0743C9.14 10.2343 8.92 10.3243 8.69 10.3243C8.46 10.3243 8.24 10.2343 8.08 10.0643L7.28 9.26433C6.94 8.93433 6.94 8.37433 7.28 8.04433C7.6 7.72433 8.18 7.72433 8.5 8.04433L8.69 8.23433L10 6.93433C10.32 6.60433 10.9 6.60433 11.22 6.93433C11.38 7.09433 11.47 7.31433 11.47 7.54433C11.47 7.77433 11.39 7.99433 11.22 8.15433ZM11.47 12.1043C11.47 12.3343 11.39 12.5443 11.23 12.7143L9.31 14.6343C9.15 14.7943 8.93 14.8843 8.7 14.8843C8.47 14.8843 8.25 14.7943 8.09 14.6343L7.29 13.8343C6.96 13.5043 6.96 12.9443 7.29 12.6143C7.61 12.2943 8.19 12.2943 8.51 12.6143L8.69 12.7943L10 11.4943C10.32 11.1643 10.9 11.1643 11.22 11.4943C11.38 11.6543 11.47 11.8743 11.47 12.1043ZM7.28 16.8543C7.6 16.5343 8.18 16.5343 8.5 16.8543L8.69 17.0443L10 15.7343C10.32 15.4143 10.9 15.4143 11.22 15.7343C11.38 15.9043 11.47 16.1143 11.47 16.3443C11.47 16.5743 11.39 16.7843 11.22 16.9543L9.3 18.8743C9.13 19.0343 8.92 19.1243 8.69 19.1243C8.46 19.1243 8.24 19.0343 8.08 18.8743L7.28 18.0743C6.94 17.7443 6.94 17.1843 7.28 16.8543ZM16.4 18.1743H12.86C12.38 18.1743 11.99 17.7843 11.99 17.3043C11.99 16.8243 12.38 16.4343 12.86 16.4343H16.4C16.87 16.4343 17.26 16.8243 17.26 17.3043C17.27 17.7843 16.88 18.1743 16.4 18.1743ZM12.86 12.1943H16.37C16.85 12.1943 17.24 12.5843 17.24 13.0643C17.24 13.5443 16.85 13.9343 16.37 13.9343H12.86C12.39 13.9343 11.99 13.5443 11.99 13.0643C11.99 12.5743 12.38 12.1943 12.86 12.1943ZM11.99 8.82433C11.99 8.34433 12.38 7.95433 12.86 7.95433H16.37C16.85 7.95433 17.24 8.34433 17.24 8.82433C17.24 9.30433 16.85 9.69433 16.37 9.69433H12.86C12.39 9.69433 11.99 9.30433 11.99 8.82433Z" fill="white"/>
</svg>
