<?xml version="1.0" encoding="utf-8"?>
<svg width="24.595" height="24.449" viewBox="0 0 24.595 24.449" xmlns="http://www.w3.org/2000/svg">
  <g id="Grupo_12451" data-name="Grupo 12451" transform="translate(0)">
    <path id="Trazado_13797" data-name="Trazado 13797" d="M24.114,21.168l-5.122-5.122a1.474,1.474,0,0,0-2.177,0l-2.177,2.177c-2.817,2.945-9.732-3.97-6.915-6.787L9.9,9.259a1.474,1.474,0,0,0,0-2.177L4.779,1.96a1.474,1.474,0,0,0-2.177,0L1.065,3.5c-2.689,2.689-.128,9.6,5.89,15.494,5.89,5.89,12.8,8.579,15.494,5.89l1.665-1.537a1.474,1.474,0,0,0,0-2.179Z" transform="translate(0 -1.48)" style="fill: rgb(9, 192, 225);"/>
  </g>
</svg>