<?xml version="1.0" encoding="utf-8"?>
<svg width="39.001" height="35.947" viewBox="0 0 39.001 35.947" xmlns="http://www.w3.org/2000/svg">
  <path id="Trazado_16017" data-name="Trazado 16017" d="M-145.5-75c-10.317,0-19.5,7.036-19.5,16.6a14.833,14.833,0,0,0,3.6,9.62l-2.026,7.822a1.524,1.524,0,0,0,.432,1.491,1.524,1.524,0,0,0,1.515.339l10.334-3.373a22.7,22.7,0,0,0,5.646.706c10.324,0,19.5-7.043,19.5-16.6C-126-68.039-135.275-75-145.5-75Zm0,30.162a19.606,19.606,0,0,1-5.278-.715,1.526,1.526,0,0,0-.883.019l-8.119,2.65,1.531-5.909a1.523,1.523,0,0,0-.355-1.415,11.974,11.974,0,0,1-3.348-8.188c0-7.476,7.381-13.558,16.453-13.558s16.453,6.082,16.453,13.558-7.382,13.558-16.454,13.558Zm1.9-13.558a1.9,1.9,0,0,1-1.9,1.9,1.9,1.9,0,0,1-1.9-1.9,1.9,1.9,0,0,1,1.9-1.9,1.9,1.9,0,0,1,1.9,1.9Zm7.617,0a1.9,1.9,0,0,1-1.9,1.9,1.9,1.9,0,0,1-1.9-1.9,1.9,1.9,0,0,1,1.9-1.9,1.9,1.9,0,0,1,1.9,1.9Zm-15.234,0a1.9,1.9,0,0,1-1.9,1.9,1.9,1.9,0,0,1-1.9-1.9,1.9,1.9,0,0,1,1.9-1.9,1.9,1.9,0,0,1,1.9,1.9Z" transform="translate(165 75)" style="fill: rgb(9, 192, 225);"/>
</svg>