<svg width="20" height="20" viewBox="0 0 20 20" fill="none" xmlns="http://www.w3.org/2000/svg">
<path fill-rule="evenodd" clip-rule="evenodd" d="M11.25 2.5C7.79822 2.5 5 5.29822 5 8.75C5 10.1751 5.47698 11.4888 6.28001 12.5402L2.74408 16.0774C2.41864 16.4028 2.41864 16.9305 2.74408 17.2559C3.06951 17.5814 3.59715 17.5814 3.92259 17.2559L7.45978 13.72C8.51116 14.523 9.82488 15 11.25 15C14.7018 15 17.5 12.2018 17.5 8.75C17.5 5.29822 14.7018 2.5 11.25 2.5ZM11.25 4.16667C13.7813 4.16667 15.8333 6.21869 15.8333 8.75C15.8333 11.2813 13.7813 13.3333 11.25 13.3333C8.71869 13.3333 6.66667 11.2813 6.66667 8.75C6.66667 6.21869 8.71869 4.16667 11.25 4.16667Z" fill="#E3B2EB"/>
</svg>
