<svg width="123" height="120" viewBox="0 0 123 120" fill="none" xmlns="http://www.w3.org/2000/svg">
<path d="M97.7011 0H25.2986C11.3732 0 0.0844727 11.2888 0.0844727 25.2142V94.7859C0.0844727 108.711 11.3732 120 25.2986 120H97.7011C111.627 120 122.915 108.711 122.915 94.7859V25.2142C122.915 11.2888 111.627 0 97.7011 0Z" fill="#742384"/>
<path d="M87.6897 74.0511C81.4512 74.1656 74.3711 74.8389 67.828 75.6604C68.5603 73.0293 69.2892 70.4319 69.2892 70.4319C69.2892 70.4319 70.0382 72.0429 72.1508 71.8796C75.1505 71.6473 78.8017 68.7267 80.5692 63.3754C82.4478 57.6908 82.2794 51.2352 78.4465 50.6932C75.3492 50.2555 73.8712 52.9926 73.6574 53.538C73.6574 53.538 74.3156 51.0517 72.3478 51.486C70.4625 51.9018 70.1174 52.7418 69.6511 54.2433C69.5686 54.5076 67.9812 60.4144 66.3181 66.6394C66.2928 66.6798 66.2726 66.7269 66.2575 66.7791C65.8468 68.1864 65.0337 68.6577 64.4462 68.6947C62.5457 68.8176 66.6312 56.2785 66.9409 55.3274C67.35 54.0733 67.594 53.1222 66.2087 52.5987C65.2744 52.2452 63.9934 52.3731 63.618 53.3764C63.4598 53.7972 63.3453 54.107 63.3453 54.107C63.3453 54.107 62.2781 52.5213 59.9181 52.7367C57.5563 52.9522 54.5752 55.8257 52.6023 60.8672C50.6294 65.9088 49.7726 73.1404 54.4523 73.8609C56.8275 74.2262 58.8205 72.8677 59.8642 70.6306C59.8642 70.6306 59.6824 72.1287 61.2462 72.8627C61.8606 73.1522 63.3891 73.0394 64.8283 72.2264C64.4496 73.6471 64.0927 74.9938 63.7746 76.194C53.6712 77.5911 45.7192 79.1516 45.7192 79.1516C45.7208 79.1449 51.2573 60.4228 52.5047 56.302C53.5483 52.8529 51.5805 53.6037 50.1261 54.0262C48.5758 54.4756 47.8418 55.7819 47.0658 58.1537C43.6739 68.5129 41.0041 71.7382 39.0683 71.043C37.2924 70.405 42.8777 59.4044 41.5378 57.9517C40.3763 56.6926 37.9826 56.7599 37.5264 57.5023C37.0702 58.2446 37.7486 58.923 37.4574 59.9734C37.1661 61.0238 34.929 66.7101 34.6933 67.9844C34.4577 69.257 32.5168 76.3152 37.6526 76.0105C40.6877 75.8304 42.7666 73.5343 42.9871 72.8963C42.0394 75.6385 40.6843 80.0639 40.6843 80.0639C40.6843 80.0639 34.4711 81.6177 29.5188 86.8006C25.5865 90.9147 22.8056 99.7774 28.6788 101.19C37.8075 103.385 42.1236 89.4502 44.3371 84.21C51.7387 82.562 57.383 81.4678 62.603 80.6531C62.5255 80.9578 62.4734 81.1648 62.4548 81.2507C61.9801 83.4323 62.0862 84.3059 63.7897 84.0955C65.6262 83.8683 65.8569 82.9256 66.4578 80.6447C66.4982 80.4882 66.5504 80.2946 66.611 80.0707C72.7972 79.2358 78.8707 78.7122 87.2284 78.0153C89.8258 77.7982 89.7972 77.3639 90.0514 75.8135C90.3375 74.0545 88.3058 74.041 87.6897 74.0511ZM71.7552 62.0271C73.0043 57.945 74.1523 56.3105 75.2313 55.8492C77.8051 54.7466 78.2933 57.977 76.307 62.8805C74.0075 68.555 71.3226 68.4254 70.2941 67.306C70.2924 67.306 70.4355 66.3364 71.7552 62.0271ZM60.2615 64.4898C59.1572 67.1545 58.1236 69.0297 56.7012 69.0398C54.6627 69.055 54.7149 65.9896 56.1659 62.1331C57.3863 58.891 59.6117 56.8491 60.8136 56.6168C62.0138 56.3862 63.411 56.8895 60.2615 64.4898ZM33.2894 95.4951C28.4364 99.8263 29.6602 93.8942 31.4647 91.3322C34.8903 86.4673 39.1205 85.2368 39.1205 85.2368C36.9709 91.5241 34.2843 94.6063 33.2894 95.4951Z" fill="white"/>
<path d="M94.1434 58.3657C95.9765 56.2431 96.8131 51.7199 93.7377 50.0551C90.0175 48.0419 85.1594 51.1156 83.1546 57.7395C81.3719 63.6295 80.7053 70.8729 86.7535 70.6052C89.733 70.4739 92.3035 68.3294 93.2344 66.7369C93.6855 65.9643 93.8656 64.7472 93.7865 64.2069C93.566 62.6902 92.6385 62.4697 91.0646 64.4611C90.6757 64.9004 87.5717 67.6611 86.0533 66.0215C84.9558 64.8365 85.8782 62.5101 85.922 62.5084C87.9083 62.3637 91.3844 61.5607 94.1434 58.3657ZM89.6926 53.2232C91.3625 51.6627 92.96 53.5295 91.0292 56.2161C89.0799 58.9263 86.7973 58.8573 86.7788 58.9431C87.0128 57.8826 87.8713 54.9267 89.6926 53.2232Z" fill="white"/>
<path d="M61.2339 34.9756C60.8703 34.7416 60.3249 34.6255 59.601 34.6255H57.4363V37.6252H59.6717C61.0773 37.6252 61.781 37.1185 61.781 36.1051C61.781 35.585 61.5992 35.2096 61.2339 34.9756Z" fill="#10CBB4"/>
<path d="M62.391 21.0141C55.8495 21.3154 50.5083 26.5691 50.1077 33.1055C49.8367 37.531 51.7961 41.5087 54.9658 44.0303C55.2924 44.2895 55.4826 44.6818 55.4826 45.0992V47.9491C55.4826 48.1679 55.6055 48.3699 55.799 48.4709L55.8782 48.513C56.065 48.6106 56.2889 48.5938 56.4589 48.4709L58.9048 46.7085C59.2246 46.4779 59.6286 46.3971 60.0124 46.488C60.9719 46.7169 61.9718 46.8381 63.0003 46.8381C70.136 46.8381 75.9199 41.0542 75.9199 33.9185C75.9199 26.5826 69.8044 20.6724 62.391 21.0141ZM63.4498 37.8104C63.1552 38.2699 62.7579 38.61 62.258 38.8305C61.9449 38.9618 61.5846 39.0527 61.179 39.1066C60.7733 39.1604 60.2986 39.1874 59.7566 39.1874H56.6171C56.1643 39.1874 55.8411 39.0864 55.6459 38.8827C55.4523 38.679 55.3546 38.3558 55.3546 37.9114V30.1883C55.3546 29.7354 55.454 29.4089 55.6526 29.2103C55.8512 29.0116 56.1727 28.9123 56.6155 28.9123H59.9434C60.4332 28.9123 60.8591 28.9426 61.2194 29.0032C61.5796 29.0638 61.9011 29.1816 62.1856 29.3533C62.428 29.4981 62.6435 29.6816 62.8303 29.9038C63.0172 30.126 63.1602 30.3717 63.2579 30.6394C63.3555 30.9087 63.4043 31.1915 63.4043 31.4912C63.4043 32.5197 62.8909 33.2704 61.8624 33.7485C63.2124 34.1778 63.8874 35.0144 63.8874 36.2567C63.8908 36.8324 63.7444 37.3492 63.4498 37.8104ZM70.7588 38.2161C70.5013 38.5915 70.1225 38.8776 69.6192 39.0712C69.1176 39.2648 68.5065 39.3624 67.786 39.3624C67.0992 39.3624 66.5101 39.2581 66.0202 39.0476C65.5304 38.8372 65.1668 38.5746 64.9345 38.2598C64.7005 37.9451 64.5843 37.6286 64.5843 37.3104C64.5843 37.1 64.6584 36.9199 64.8082 36.7701C64.958 36.6203 65.1466 36.5462 65.3755 36.5462C65.5758 36.5462 65.7307 36.595 65.8384 36.6927C65.9462 36.7903 66.0488 36.9283 66.1465 37.1068C66.3434 37.4485 66.5774 37.7027 66.8501 37.871C67.1228 38.0393 67.4965 38.1235 67.9678 38.1235C68.3516 38.1235 68.6647 38.0376 68.9105 37.8676C69.1563 37.6976 69.2775 37.5023 69.2775 37.2818C69.2775 36.9452 69.1495 36.6994 68.8954 36.5462C68.6412 36.3913 68.222 36.2449 67.6379 36.1052C66.9797 35.9419 66.4427 35.7702 66.0303 35.5901C65.6162 35.41 65.2863 35.1726 65.0388 34.878C64.7914 34.5834 64.6668 34.2215 64.6668 33.7923C64.6668 33.4085 64.7813 33.0466 65.0102 32.7065C65.2392 32.3648 65.5775 32.0938 66.0236 31.8901C66.4697 31.6864 67.0083 31.5854 67.6379 31.5854C68.1328 31.5854 68.5789 31.6376 68.9728 31.7403C69.3684 31.843 69.6966 31.981 69.9609 32.1544C70.2252 32.3278 70.4255 32.518 70.5635 32.7284C70.7016 32.9388 70.7706 33.1442 70.7706 33.3445C70.7706 33.5633 70.6965 33.7435 70.5501 33.8849C70.4036 34.0246 70.1932 34.0953 69.9222 34.0953C69.7252 34.0953 69.5586 34.0397 69.4206 33.9269C69.2825 33.8142 69.1243 33.6458 68.9475 33.4219C68.8028 33.2351 68.6328 33.0853 68.4358 32.9742C68.2389 32.8614 67.9729 32.8058 67.6362 32.8058C67.2911 32.8058 67.0033 32.8799 66.7744 33.0264C66.5454 33.1728 66.431 33.3563 66.431 33.5768C66.431 33.7771 66.5151 33.9421 66.6835 34.0717C66.8518 34.1996 67.0774 34.3057 67.3635 34.3899C67.648 34.474 68.0402 34.5767 68.5402 34.6979C69.1327 34.8427 69.6175 35.0161 69.9946 35.2164C70.37 35.4167 70.6561 35.654 70.8497 35.9284C71.0433 36.2011 71.1409 36.5142 71.1409 36.8644C71.1443 37.3879 71.0164 37.8407 70.7588 38.2161Z" fill="#10CBB4"/>
<path d="M60.5437 32.9862C60.8265 32.8886 61.042 32.7017 61.1918 32.4256C61.3079 32.2287 61.3669 32.0099 61.3669 31.7675C61.3669 31.249 61.1817 30.9039 60.813 30.7339C60.4444 30.5639 59.8805 30.478 59.1247 30.478H57.4363V33.1343H59.3418C59.8603 33.1326 60.2609 33.0838 60.5437 32.9862Z" fill="#10CBB4"/>
</svg>
