<svg width="57" height="70" viewBox="0 0 57 70" fill="none" xmlns="http://www.w3.org/2000/svg">
<path d="M49.9023 45.0347C44.946 45.123 39.3209 45.6428 34.1225 46.2769C34.7043 44.2459 35.2834 42.241 35.2834 42.241C35.2834 42.241 35.8785 43.4845 37.5569 43.3584C39.9402 43.1791 42.8409 40.9247 44.2452 36.7939C45.7377 32.4058 45.604 27.4226 42.5588 27.0042C40.098 26.6664 38.9237 28.7792 38.7539 29.2002C38.7539 29.2002 39.2768 27.281 37.7134 27.6162C36.2155 27.9372 35.9414 28.5856 35.5709 29.7446C35.5054 29.9486 34.2442 34.5082 32.9229 39.3134C32.9028 39.3446 32.8868 39.381 32.8747 39.4213C32.5484 40.5076 31.9025 40.8714 31.4357 40.9C29.9258 40.9948 33.1716 31.3156 33.4177 30.5814C33.7427 29.6134 33.9366 28.8792 32.836 28.4751C32.0937 28.2022 31.076 28.301 30.7777 29.0754C30.652 29.4003 30.5611 29.6394 30.5611 29.6394C30.5611 29.6394 29.7132 28.4153 27.8382 28.5817C25.9618 28.748 23.5933 30.9661 22.0259 34.8578C20.4585 38.7495 19.7777 44.3317 23.4957 44.8878C25.3827 45.1698 26.9662 44.1212 27.7954 42.3943C27.7954 42.3943 27.6509 43.5508 28.8934 44.1173C29.3815 44.3408 30.5958 44.2537 31.7393 43.6261C31.4384 44.7228 31.1549 45.7623 30.9021 46.6888C22.8751 47.7673 16.5573 48.9719 16.5573 48.9719C16.5586 48.9667 20.9573 34.5147 21.9483 31.3338C22.7775 28.6713 21.2141 29.2509 20.0586 29.577C18.8268 29.9239 18.2437 30.9323 17.6272 32.7631C14.9324 40.7596 12.8113 43.2493 11.2733 42.7126C9.86235 42.2202 14.2998 33.7286 13.2352 32.6072C12.3124 31.6353 10.4107 31.6872 10.0482 32.2603C9.68582 32.8333 10.2248 33.357 9.99341 34.1678C9.76205 34.9786 7.98466 39.368 7.79743 40.3516C7.61019 41.334 6.06819 46.7824 10.1486 46.5472C12.5599 46.4081 14.2115 44.6358 14.3867 44.1433C13.6338 46.26 12.5572 49.6761 12.5572 49.6761C12.5572 49.6761 7.62089 50.8755 3.6863 54.8763C0.562169 58.0521 -1.64719 64.8934 3.01895 65.9836C10.2716 67.678 13.7006 56.9216 15.4593 52.8765C21.3398 51.6044 25.8241 50.7598 29.9713 50.1309C29.9098 50.3661 29.8683 50.5259 29.8536 50.5922C29.4765 52.2762 29.5607 52.9506 30.9141 52.7882C32.3732 52.6128 32.5564 51.8851 33.0339 50.1244C33.066 50.0036 33.1075 49.8541 33.1556 49.6813C38.0705 49.0368 42.8958 48.6327 49.5359 48.0948C51.5995 47.9271 51.5768 47.5919 51.7787 46.3951C52.0061 45.0373 50.3918 45.0269 49.9023 45.0347ZM37.2426 35.7531C38.235 32.602 39.1471 31.3403 40.0044 30.9843C42.0492 30.1332 42.4371 32.6267 40.8589 36.4119C39.0321 40.7921 36.8989 40.6921 36.0818 39.828C36.0805 39.828 36.1941 39.0795 37.2426 35.7531ZM28.111 37.6541C27.2337 39.711 26.4125 41.1586 25.2824 41.1664C23.6628 41.178 23.7043 38.8118 24.8571 35.8349C25.8267 33.3323 27.5947 31.7561 28.5496 31.5768C29.5032 31.3988 30.6132 31.7873 28.111 37.6541ZM6.68205 61.5877C2.82636 64.9311 3.79864 60.352 5.23232 58.3743C7.9539 54.619 11.3148 53.6692 11.3148 53.6692C9.60691 58.5224 7.47244 60.9016 6.68205 61.5877Z" fill="white"/>
<path d="M55.0298 32.9271C56.4862 31.2885 57.1509 27.797 54.7075 26.5119C51.7519 24.9579 47.8922 27.3306 46.2993 32.4437C44.883 36.9903 44.3534 42.5816 49.1587 42.375C51.5258 42.2737 53.568 40.6182 54.3076 39.389C54.666 38.7926 54.8091 37.8531 54.7463 37.436C54.5711 36.2652 53.8342 36.095 52.5837 37.6322C52.2748 37.9713 49.8086 40.1024 48.6023 38.8367C47.7303 37.922 48.4632 36.1262 48.498 36.1249C50.0761 36.0131 52.8378 35.3933 55.0298 32.9271ZM51.4937 28.9574C52.8204 27.7529 54.0896 29.1939 52.5556 31.2677C51.0069 33.3598 49.1934 33.3065 49.1787 33.3728C49.3646 32.5541 50.0467 30.2724 51.4937 28.9574Z" fill="white"/>
<path d="M28.8838 14.8718C28.595 14.6912 28.1617 14.6016 27.5866 14.6016H25.8667V16.9171H27.6427C28.7595 16.9171 29.3185 16.526 29.3185 15.7437C29.3185 15.3422 29.1741 15.0525 28.8838 14.8718Z" fill="white"/>
<path d="M29.8029 4.09439C24.6058 4.32698 20.3623 8.3824 20.044 13.428C19.8287 16.8441 21.3854 19.9146 23.9037 21.8611C24.1631 22.0612 24.3142 22.364 24.3142 22.6862V24.8861C24.3142 25.055 24.4119 25.2109 24.5657 25.2889L24.6285 25.3214C24.777 25.3967 24.9549 25.3838 25.0899 25.2889L27.0332 23.9284C27.2873 23.7504 27.6082 23.688 27.9132 23.7582C28.6755 23.9349 29.4699 24.0285 30.287 24.0285C35.9562 24.0285 40.5515 19.5637 40.5515 14.0556C40.5515 8.3928 35.6927 3.83061 29.8029 4.09439ZM30.6441 17.0598C30.4101 17.4145 30.0944 17.677 29.6972 17.8472C29.4485 17.9486 29.1623 18.0188 28.84 18.0603C28.5177 18.1019 28.1405 18.1227 27.7099 18.1227H25.2157C24.8559 18.1227 24.5991 18.0447 24.444 17.8875C24.2902 17.7303 24.2126 17.4808 24.2126 17.1378V11.1761C24.2126 10.8266 24.2915 10.5745 24.4493 10.4212C24.6071 10.2678 24.8626 10.1912 25.2143 10.1912H27.8583C28.2475 10.1912 28.5859 10.2146 28.8721 10.2613C29.1583 10.3081 29.4137 10.3991 29.6397 10.5316C29.8323 10.6434 30.0035 10.785 30.1519 10.9565C30.3004 11.128 30.4141 11.3178 30.4916 11.5244C30.5692 11.7323 30.608 11.9506 30.608 12.1819C30.608 12.9758 30.2001 13.5553 29.3829 13.9243C30.4555 14.2557 30.9918 14.9015 30.9918 15.8605C30.9945 16.3048 30.8781 16.7038 30.6441 17.0598ZM36.451 17.373C36.2464 17.6627 35.9455 17.8836 35.5456 18.033C35.1471 18.1825 34.6616 18.2578 34.0892 18.2578C33.5435 18.2578 33.0755 18.1773 32.6863 18.0149C32.2971 17.8524 32.0082 17.6497 31.8237 17.4067C31.6378 17.1637 31.5455 16.9195 31.5455 16.6739C31.5455 16.5115 31.6043 16.3724 31.7234 16.2568C31.8424 16.1411 31.9922 16.0839 32.1741 16.0839C32.3332 16.0839 32.4563 16.1216 32.5418 16.197C32.6274 16.2724 32.709 16.3789 32.7866 16.5167C32.9431 16.7804 33.129 16.9766 33.3456 17.1066C33.5623 17.2365 33.8592 17.3015 34.2336 17.3015C34.5386 17.3015 34.7873 17.2352 34.9826 17.104C35.1778 16.9727 35.2741 16.822 35.2741 16.6518C35.2741 16.3919 35.1725 16.2022 34.9705 16.0839C34.7686 15.9644 34.4356 15.8514 33.9715 15.7435C33.4486 15.6175 33.022 15.4849 32.6943 15.3459C32.3653 15.2069 32.1032 15.0236 31.9066 14.7962C31.71 14.5688 31.611 14.2895 31.611 13.9581C31.611 13.6619 31.702 13.3825 31.8839 13.12C32.0657 12.8562 32.3346 12.647 32.689 12.4898C33.0434 12.3326 33.4713 12.2546 33.9715 12.2546C34.3647 12.2546 34.7191 12.2949 35.0321 12.3742C35.3463 12.4534 35.6071 12.56 35.8171 12.6938C36.0271 12.8277 36.1862 12.9745 36.2959 13.1369C36.4056 13.2993 36.4604 13.4579 36.4604 13.6125C36.4604 13.7814 36.4015 13.9204 36.2852 14.0296C36.1688 14.1374 36.0017 14.192 35.7863 14.192C35.6299 14.192 35.4975 14.1491 35.3878 14.0621C35.2781 13.975 35.1524 13.8451 35.012 13.6723C34.897 13.528 34.7619 13.4124 34.6054 13.3266C34.449 13.2396 34.2376 13.1967 33.9702 13.1967C33.696 13.1967 33.4673 13.2539 33.2854 13.3669C33.1036 13.48 33.0126 13.6216 33.0126 13.7918C33.0126 13.9464 33.0795 14.0738 33.2132 14.1738C33.347 14.2726 33.5262 14.3544 33.7535 14.4194C33.9795 14.4844 34.2912 14.5636 34.6884 14.6572C35.1591 14.769 35.5443 14.9028 35.8439 15.0574C36.1421 15.2121 36.3694 15.3953 36.5232 15.6071C36.677 15.8176 36.7546 16.0593 36.7546 16.3295C36.7573 16.7337 36.6556 17.0832 36.451 17.373Z" fill="white"/>
<path d="M28.3355 13.3355C28.5602 13.2602 28.7314 13.1159 28.8504 12.9028C28.9427 12.7508 28.9895 12.5819 28.9895 12.3948C28.9895 11.9945 28.8424 11.7282 28.5495 11.5969C28.2566 11.4657 27.8086 11.3994 27.2081 11.3994H25.8667V13.4499H27.3806C27.7925 13.4486 28.1108 13.4109 28.3355 13.3355Z" fill="white"/>
</svg>
