<svg width="38" height="42" viewBox="0 0 38 42" fill="none" xmlns="http://www.w3.org/2000/svg">
<path d="M33.1722 27.5941C29.9151 27.6522 26.2187 27.9937 22.8026 28.4104C23.1849 27.0758 23.5654 25.7582 23.5654 25.7582C23.5654 25.7582 23.9565 26.5754 25.0595 26.4926C26.6256 26.3747 28.5318 24.8932 29.4546 22.1787C30.4354 19.2951 30.3475 16.0204 28.3464 15.7455C26.7293 15.5235 25.9577 16.9119 25.8461 17.1886C25.8461 17.1886 26.1897 15.9274 25.1623 16.1477C24.178 16.3586 23.9978 16.7847 23.7544 17.5463C23.7113 17.6804 22.8826 20.6767 22.0143 23.8344C22.0011 23.8549 21.9905 23.8788 21.9826 23.9053C21.7682 24.6191 21.3437 24.8582 21.037 24.877C20.0447 24.9393 22.1777 18.5787 22.3394 18.0963C22.553 17.4601 22.6804 16.9777 21.9571 16.7121C21.4694 16.5328 20.8006 16.5977 20.6046 17.1066C20.522 17.3201 20.4622 17.4772 20.4622 17.4772C20.4622 17.4772 19.905 16.6728 18.6729 16.7821C17.4398 16.8914 15.8834 18.349 14.8534 20.9064C13.8233 23.4638 13.376 27.1321 15.8192 27.4976C17.0593 27.6829 18.0998 26.9938 18.6447 25.859C18.6447 25.859 18.5498 26.6189 19.3663 26.9912C19.6871 27.1381 20.4851 27.0809 21.2365 26.6685C21.0387 27.3892 20.8524 28.0723 20.6863 28.6811C15.4114 29.3898 11.2597 30.1814 11.2597 30.1814C11.2606 30.178 14.1512 20.681 14.8024 18.5907C15.3473 16.841 14.3199 17.2219 13.5606 17.4362C12.7511 17.6642 12.368 18.3268 11.9628 19.5299C10.1919 24.7848 8.79806 26.4208 7.78738 26.0682C6.86019 25.7446 9.77622 20.1644 9.07666 19.4275C8.47025 18.7888 7.22052 18.8229 6.98235 19.1995C6.74418 19.5761 7.09836 19.9202 6.94632 20.453C6.79428 20.9858 5.62628 23.8703 5.50324 24.5167C5.3802 25.1622 4.36688 28.7426 7.04826 28.588C8.63284 28.4967 9.71822 27.3319 9.83335 27.0083C9.33856 28.3993 8.63108 30.6442 8.63108 30.6442C8.63108 30.6442 5.38723 31.4323 2.80164 34.0615C0.748642 36.1484 -0.703223 40.6441 2.3631 41.3605C7.12912 42.474 9.3825 35.4055 10.5382 32.7473C14.4025 31.9114 17.3493 31.3563 20.0746 30.9431C20.0342 31.0976 20.007 31.2026 19.9973 31.2462C19.7495 32.3528 19.8048 32.796 20.6942 32.6893C21.653 32.574 21.7735 32.0958 22.0872 30.9388C22.1083 30.8594 22.1355 30.7612 22.1672 30.6476C25.397 30.2241 28.5679 29.9585 32.9314 29.605C34.2874 29.4949 34.2725 29.2745 34.4052 28.4881C34.5546 27.5958 33.4938 27.589 33.1722 27.5941ZM24.853 21.4947C25.5051 19.4241 26.1044 18.5949 26.6678 18.361C28.0116 17.8017 28.2664 19.4403 27.2294 21.9277C26.0289 24.8061 24.6271 24.7404 24.0901 24.1725C24.0892 24.1725 24.1639 23.6807 24.853 21.4947ZM18.8521 22.744C18.2756 24.0957 17.736 25.0469 16.9934 25.0521C15.9291 25.0597 15.9563 23.5048 16.7139 21.5485C17.3511 19.9039 18.5129 18.8682 19.1404 18.7503C19.767 18.6334 20.4965 18.8887 18.8521 22.744ZM4.77028 38.4718C2.23654 40.6689 2.87547 37.6598 3.8176 36.3601C5.60606 33.8924 7.81462 33.2682 7.81462 33.2682C6.69233 36.4575 5.28968 38.021 4.77028 38.4718Z" fill="#742384"/>
<path d="M36.5416 19.6376C37.4987 18.5608 37.9355 16.2664 36.3298 15.4219C34.3875 14.4006 31.8512 15.9598 30.8044 19.3199C29.8737 22.3077 29.5257 25.982 32.6834 25.8462C34.239 25.7796 35.581 24.6917 36.067 23.884C36.3026 23.492 36.3966 22.8747 36.3553 22.6006C36.2402 21.8312 35.7559 21.7193 34.9342 22.7295C34.7312 22.9524 33.1106 24.3527 32.3178 23.521C31.7448 22.9199 32.2264 21.7398 32.2493 21.739C33.2863 21.6655 35.1012 21.2582 36.5416 19.6376ZM34.2179 17.0289C35.0897 16.2374 35.9238 17.1843 34.9157 18.5471C33.898 19.9219 32.7063 19.8869 32.6966 19.9304C32.8188 19.3925 33.267 17.8931 34.2179 17.0289Z" fill="#742384"/>
<path d="M19.36 7.7727C19.1702 7.65401 18.8854 7.59509 18.5075 7.59509H17.3773V9.11673H18.5444C19.2783 9.11673 19.6456 8.85971 19.6456 8.34566C19.6456 8.08181 19.5507 7.89139 19.36 7.7727Z" fill="#10CBB4"/>
<path d="M19.964 0.690506C16.5487 0.843353 13.7601 3.50835 13.551 6.82401C13.4095 9.06889 14.4325 11.0866 16.0874 12.3658C16.2579 12.4973 16.3572 12.6962 16.3572 12.908V14.3536C16.3572 14.4646 16.4213 14.5671 16.5224 14.6183L16.5637 14.6397C16.6612 14.6892 16.7781 14.6807 16.8669 14.6183L18.1439 13.7243C18.3109 13.6073 18.5218 13.5663 18.7222 13.6124C19.2231 13.7286 19.7451 13.7901 20.2821 13.7901C24.0076 13.7901 27.0273 10.8561 27.0273 7.23644C27.0273 3.51518 23.8344 0.517166 19.964 0.690506ZM20.5168 9.21064C20.363 9.44375 20.1556 9.61623 19.8945 9.72809C19.7311 9.7947 19.543 9.84081 19.3312 9.86813C19.1194 9.89545 18.8716 9.90912 18.5886 9.90912H16.9495C16.7131 9.90912 16.5444 9.85788 16.4424 9.75456C16.3413 9.65124 16.2904 9.4873 16.2904 9.26187V5.34421C16.2904 5.11452 16.3422 4.94886 16.4459 4.8481C16.5496 4.74734 16.7175 4.69696 16.9486 4.69696H18.6861C18.9419 4.69696 19.1642 4.71233 19.3523 4.74307C19.5404 4.77381 19.7082 4.83359 19.8568 4.92068C19.9833 4.99412 20.0958 5.08719 20.1934 5.19991C20.2909 5.31262 20.3656 5.43729 20.4166 5.57306C20.4676 5.70968 20.493 5.85313 20.493 6.00513C20.493 6.52685 20.225 6.90769 19.688 7.15019C20.3929 7.36794 20.7453 7.79232 20.7453 8.42249C20.747 8.71452 20.6706 8.97667 20.5168 9.21064ZM24.3328 9.41642C24.1983 9.60684 24.0005 9.752 23.7378 9.8502C23.4759 9.9484 23.1568 9.99792 22.7807 9.99792C22.4221 9.99792 22.1145 9.94498 21.8588 9.83825C21.603 9.73151 21.4132 9.5983 21.2919 9.43862C21.1698 9.27894 21.1091 9.11841 21.1091 8.95703C21.1091 8.85029 21.1478 8.75893 21.226 8.68293C21.3042 8.60693 21.4027 8.56936 21.5222 8.56936C21.6268 8.56936 21.7076 8.59412 21.7639 8.64365C21.8201 8.69318 21.8737 8.7632 21.9247 8.85371C22.0275 9.02705 22.1497 9.15598 22.2921 9.24137C22.4344 9.32676 22.6295 9.36946 22.8756 9.36946C23.076 9.36946 23.2395 9.32591 23.3678 9.23967C23.4961 9.15342 23.5594 9.05437 23.5594 8.94251C23.5594 8.77173 23.4926 8.64707 23.3599 8.56936C23.2272 8.4908 23.0083 8.41652 22.7034 8.34564C22.3597 8.26281 22.0794 8.17572 21.8641 8.08435C21.6479 7.99299 21.4756 7.87259 21.3464 7.72315C21.2172 7.57372 21.1522 7.39014 21.1522 7.1724C21.1522 6.97771 21.2119 6.79412 21.3315 6.62164C21.451 6.4483 21.6276 6.31082 21.8605 6.2075C22.0934 6.10418 22.3747 6.05294 22.7034 6.05294C22.9617 6.05294 23.1946 6.07942 23.4003 6.1315C23.6068 6.18359 23.7782 6.25361 23.9162 6.34156C24.0542 6.42951 24.1587 6.526 24.2308 6.63274C24.3029 6.73947 24.3389 6.84365 24.3389 6.94526C24.3389 7.05627 24.3002 7.14763 24.2238 7.21936C24.1473 7.29023 24.0375 7.3261 23.896 7.3261C23.7931 7.3261 23.7061 7.29792 23.6341 7.24071C23.562 7.1835 23.4794 7.09811 23.3871 6.98454C23.3115 6.88976 23.2228 6.81376 23.1199 6.7574C23.0171 6.70019 22.8783 6.67201 22.7025 6.67201C22.5223 6.67201 22.372 6.70959 22.2525 6.78387C22.133 6.85816 22.0732 6.95124 22.0732 7.0631C22.0732 7.16471 22.1172 7.24839 22.2051 7.31414C22.2929 7.37904 22.4107 7.43283 22.5601 7.47553C22.7086 7.51822 22.9134 7.57031 23.1744 7.63179C23.4838 7.70522 23.7369 7.79317 23.9338 7.89479C24.1297 7.9964 24.2791 8.1168 24.3802 8.25598C24.4813 8.39432 24.5323 8.55314 24.5323 8.73075C24.534 8.99631 24.4672 9.22601 24.3328 9.41642Z" fill="#10CBB4"/>
<path d="M18.9997 6.76339C19.1473 6.71386 19.2598 6.61908 19.338 6.47904C19.3987 6.37913 19.4294 6.26813 19.4294 6.14517C19.4294 5.88217 19.3328 5.70712 19.1403 5.62088C18.9478 5.53464 18.6534 5.49109 18.2588 5.49109H17.3773V6.83853H18.3722C18.6429 6.83768 18.852 6.81291 18.9997 6.76339Z" fill="#10CBB4"/>
</svg>
