<svg width="81" height="100" viewBox="0 0 81 100" fill="none" xmlns="http://www.w3.org/2000/svg">
<path d="M71.5745 64.3349C64.494 64.4612 56.4582 65.2037 49.0319 66.1096C49.863 63.2082 50.6903 60.3439 50.6903 60.3439C50.6903 60.3439 51.5405 62.1204 53.9382 61.9403C57.3428 61.6842 61.4868 58.4635 63.4929 52.5624C65.6251 46.2937 65.434 39.1748 61.0837 38.5771C57.5683 38.0945 55.8908 41.1128 55.6482 41.7142C55.6482 41.7142 56.3952 38.9725 54.1618 39.4514C52.022 39.9099 51.6303 40.8362 51.1011 42.492C51.0075 42.7835 49.2058 49.2972 47.3182 56.1617C47.2895 56.2063 47.2666 56.2582 47.2494 56.3158C46.7832 57.8676 45.8604 58.3874 45.1936 58.4282C43.0366 58.5637 47.6735 44.7363 48.0251 43.6875C48.4893 42.3045 48.7664 41.2557 47.194 40.6784C46.1336 40.2886 44.6797 40.4297 44.2537 41.536C44.0741 42.0001 43.9441 42.3417 43.9441 42.3417C43.9441 42.3417 42.7329 40.593 40.0543 40.8306C37.3738 41.0682 33.9902 44.2369 31.751 49.7965C29.5118 55.3561 28.5394 63.3307 33.8507 64.1252C36.5465 64.528 38.8086 63.03 39.9931 60.563C39.9931 60.563 39.7868 62.2151 41.5617 63.0244C42.259 63.3437 43.9938 63.2193 45.6273 62.3227C45.1975 63.8894 44.7924 65.3745 44.4313 66.698C32.9642 68.2387 23.9388 69.9595 23.9388 69.9595C23.9407 69.9521 30.2245 49.3065 31.6402 44.7623C32.8247 40.9587 30.5913 41.7866 28.9406 42.2526C27.181 42.7482 26.348 44.1887 25.4672 46.8042C21.6174 58.2278 18.5873 61.7844 16.3902 61.0178C14.3745 60.3142 20.7137 48.1834 19.1929 46.5814C17.8747 45.1929 15.1579 45.2672 14.6401 46.0858C14.1223 46.9044 14.8923 47.6525 14.5618 48.8108C14.2313 49.9691 11.6921 56.2397 11.4246 57.6449C11.1572 59.0482 8.95431 66.8316 14.7834 66.4957C18.2281 66.297 20.5877 63.7651 20.8379 63.0615C19.7623 66.0854 18.2243 70.9656 18.2243 70.9656C18.2243 70.9656 11.1725 72.6789 5.55162 78.3945C1.08857 82.9312 -2.06766 92.7046 4.59825 94.262C14.9592 96.6826 19.8578 81.3162 22.3702 75.5376C30.7709 73.7203 37.177 72.5137 43.1016 71.6153C43.0137 71.9513 42.9545 72.1796 42.9335 72.2743C42.3947 74.68 42.515 75.6434 44.4485 75.4114C46.5329 75.1608 46.7947 74.1213 47.4767 71.606C47.5226 71.4334 47.5818 71.2199 47.6506 70.973C54.6719 70.0523 61.5652 69.475 71.051 68.7065C73.999 68.467 73.9665 67.9881 74.255 66.2785C74.5798 64.3386 72.2738 64.3238 71.5745 64.3349ZM53.4893 51.0755C54.9069 46.574 56.2099 44.7715 57.4345 44.2629C60.3558 43.0471 60.9098 46.6093 58.6554 52.0166C56.0456 58.2742 52.9982 58.1312 51.8309 56.8968C51.829 56.8968 51.9914 55.8276 53.4893 51.0755ZM40.444 53.7912C39.1907 56.7297 38.0176 58.7976 36.4032 58.8088C34.0895 58.8255 34.1487 55.4452 35.7956 51.1924C37.1808 47.6172 39.7065 45.3656 41.0707 45.1094C42.4329 44.8551 44.0187 45.4101 40.444 53.7912ZM9.83125 87.9822C4.32313 92.7584 5.7121 86.2168 7.76021 83.3916C11.6482 78.0269 16.4494 76.67 16.4494 76.67C14.0096 83.6032 10.9604 87.0021 9.83125 87.9822Z" fill="white"/>
<path d="M78.8992 47.0382C80.9798 44.6974 81.9294 39.7095 78.4388 37.8737C74.2165 35.6536 68.7026 39.0431 66.4272 46.3476C64.4039 52.8428 63.6473 60.8304 70.5119 60.5352C73.8936 60.3904 76.811 58.0255 77.8675 56.2695C78.3796 55.4174 78.584 54.0753 78.4942 53.4795C78.2439 51.8069 77.1912 51.5638 75.4048 53.7598C74.9635 54.2443 71.4404 57.2886 69.7171 55.4805C68.4714 54.1737 69.5184 51.6083 69.5681 51.6065C71.8225 51.4468 75.7678 50.5614 78.8992 47.0382ZM73.8477 41.3672C75.743 39.6464 77.5561 41.705 75.3647 44.6677C73.1523 47.6563 70.5616 47.5802 70.5406 47.6749C70.8061 46.5054 71.7805 43.2458 73.8477 41.3672Z" fill="white"/>
<path d="M41.548 21.2449C41.1353 20.9869 40.5163 20.8588 39.6948 20.8588H37.2378V24.1667H39.775C41.3703 24.1667 42.1689 23.608 42.1689 22.4905C42.1689 21.9169 41.9626 21.503 41.548 21.2449Z" fill="#10CBB4"/>
<path d="M42.8609 5.84887C35.4365 6.18115 29.3744 11.9746 28.9197 19.1826C28.6121 24.0627 30.8359 28.4491 34.4335 31.2299C34.8042 31.5157 35.02 31.9482 35.02 32.4086V35.5513C35.02 35.7926 35.1595 36.0154 35.3792 36.1267L35.469 36.1732C35.6811 36.2808 35.9352 36.2623 36.1282 36.1267L38.9042 34.1832C39.2672 33.9289 39.7257 33.8398 40.1613 33.94C41.2504 34.1925 42.3852 34.3262 43.5526 34.3262C51.6514 34.3262 58.216 27.948 58.216 20.0792C58.216 11.9895 51.275 5.47204 42.8609 5.84887ZM44.0627 24.3709C43.7283 24.8777 43.2774 25.2526 42.71 25.4958C42.3546 25.6406 41.9458 25.7408 41.4853 25.8002C41.0249 25.8596 40.4861 25.8893 39.8709 25.8893H36.3078C35.7938 25.8893 35.427 25.778 35.2054 25.5533C34.9857 25.3287 34.8748 24.9723 34.8748 24.4823V15.9656C34.8748 15.4663 34.9876 15.1062 35.213 14.8871C35.4385 14.6681 35.8034 14.5586 36.3058 14.5586H40.083C40.639 14.5586 41.1223 14.592 41.5312 14.6588C41.9401 14.7256 42.305 14.8556 42.6279 15.0449C42.903 15.2045 43.1475 15.4069 43.3596 15.6519C43.5717 15.8969 43.7341 16.168 43.8449 16.4631C43.9557 16.7601 44.0111 17.072 44.0111 17.4024C44.0111 18.5366 43.4284 19.3645 42.261 19.8917C43.7933 20.365 44.5594 21.2876 44.5594 22.6575C44.5633 23.2924 44.397 23.8623 44.0627 24.3709ZM52.3583 24.8183C52.066 25.2322 51.6361 25.5478 51.0649 25.7612C50.4955 25.9747 49.802 26.0824 48.9843 26.0824C48.2048 26.0824 47.5361 25.9673 46.9801 25.7353C46.4241 25.5032 46.0114 25.2136 45.7478 24.8665C45.4822 24.5194 45.3504 24.1704 45.3504 23.8196C45.3504 23.5875 45.4345 23.3889 45.6045 23.2237C45.7745 23.0585 45.9885 22.9768 46.2484 22.9768C46.4757 22.9768 46.6515 23.0306 46.7738 23.1383C46.896 23.246 47.0126 23.3982 47.1234 23.595C47.3469 23.9718 47.6125 24.2521 47.922 24.4377C48.2315 24.6233 48.6556 24.7162 49.1906 24.7162C49.6262 24.7162 49.9816 24.6215 50.2605 24.434C50.5394 24.2465 50.677 24.0312 50.677 23.788C50.677 23.4168 50.5318 23.1457 50.2433 22.9768C49.9548 22.806 49.4791 22.6445 48.8161 22.4905C48.0691 22.3104 47.4596 22.1211 46.9916 21.9224C46.5216 21.7238 46.1471 21.4621 45.8662 21.1372C45.5854 20.8124 45.444 20.4133 45.444 19.9399C45.444 19.5167 45.5739 19.1176 45.8338 18.7426C46.0936 18.3658 46.4776 18.0669 46.9839 17.8423C47.4902 17.6177 48.1016 17.5063 48.8161 17.5063C49.3778 17.5063 49.8841 17.5639 50.3312 17.6771C50.7802 17.7904 51.1527 17.9426 51.4527 18.1338C51.7527 18.325 51.98 18.5347 52.1367 18.7668C52.2933 18.9988 52.3717 19.2253 52.3717 19.4462C52.3717 19.6875 52.2876 19.8861 52.1214 20.042C51.9552 20.1961 51.7164 20.2741 51.4088 20.2741C51.1852 20.2741 50.9961 20.2128 50.8394 20.0884C50.6827 19.9641 50.5032 19.7784 50.3025 19.5316C50.1382 19.3255 49.9453 19.1603 49.7217 19.0378C49.4982 18.9134 49.1963 18.8521 48.8142 18.8521C48.4226 18.8521 48.0959 18.9338 47.836 19.0953C47.5762 19.2568 47.4463 19.4592 47.4463 19.7023C47.4463 19.9232 47.5418 20.1051 47.7329 20.2481C47.9239 20.3892 48.1799 20.5061 48.5047 20.5989C48.8276 20.6917 49.2728 20.805 49.8402 20.9386C50.5127 21.0983 51.0629 21.2895 51.4909 21.5104C51.917 21.7312 52.2418 21.993 52.4615 22.2956C52.6812 22.5963 52.792 22.9415 52.792 23.3277C52.7958 23.905 52.6506 24.4043 52.3583 24.8183Z" fill="#10CBB4"/>
<path d="M40.7647 19.0508C41.0856 18.9431 41.3302 18.7371 41.5002 18.4326C41.6321 18.2154 41.6989 17.9741 41.6989 17.7068C41.6989 17.1351 41.4888 16.7546 41.0704 16.5671C40.6519 16.3796 40.0119 16.2849 39.1541 16.2849H37.2378V19.2141H39.4005C39.989 19.2123 40.4437 19.1584 40.7647 19.0508Z" fill="#10CBB4"/>
</svg>
