<svg width="635" height="635" viewBox="0 0 635 635" fill="none" xmlns="http://www.w3.org/2000/svg">
<g clip-path="url(#clip0_1121_9013)">
<path d="M427.235 108.351C341.157 82.275 152.274 94.2794 96.2941 153.822C41.7808 211.806 55.0259 262.15 111.61 371.648C138.402 423.493 124.884 504.272 248.906 550.044C330.579 580.187 390.413 536.424 441.366 508.87C492.318 481.317 515.961 445.028 538.315 397.036C560.667 349.044 557.691 301.05 545.747 244.854C533.803 188.659 513.312 134.426 427.235 108.351Z" fill="#A35AAD"/>
<mask id="mask0_1121_9013" style="mask-type:alpha" maskUnits="userSpaceOnUse" x="40" y="-17" width="513" height="570">
<path d="M184 -16.5C273.923 -14.7 503.762 148.637 538.602 222.564C572.529 294.556 544.375 338.343 456.724 424.996C415.222 466.024 403.116 547.027 271.02 552.234C184.03 555.663 140.648 495.552 100.703 453.602C60.7589 411.652 49.4869 369.833 43.0579 317.282C36.6299 264.732 43.2748 215.755 71.9998 166C100.725 116.246 10.7809 22.7 100.703 24.5L184 -16.5Z" fill="#D9D9D9"/>
</mask>
<g mask="url(#mask0_1121_9013)">
<path fill-rule="evenodd" clip-rule="evenodd" d="M445.722 472.196L473.185 390.176L346.885 438.526C340.365 324.972 325.255 242.14 231.095 242.14C226.695 242.14 72.3949 241.718 63.8019 241.718C2.31993 242.476 -0.446067 297.128 0.0419332 383.656C0.801933 518.006 12.9459 541.536 23.5719 543.056L19.0189 564.308C9.11093 627.842 286.475 620.468 288.293 572.7L336.581 536.096L445.723 472.196H445.722Z" fill="#F07D90"/>
<path fill-rule="evenodd" clip-rule="evenodd" d="M270.523 594.375L268.879 594.313L277.507 367.837L279.151 367.903L270.523 594.375Z" fill="#D84E6C"/>
<path fill-rule="evenodd" clip-rule="evenodd" d="M214.415 200.462L138.747 196.74L124.637 252.672C159.465 292.872 206.137 273.596 206.553 254.488L214.415 200.462Z" fill="#E8C199"/>
<path fill-rule="evenodd" clip-rule="evenodd" d="M187.163 208.957L212.853 211.195L210.815 225.195L187.163 208.957Z" fill="#8F504B"/>
<path fill-rule="evenodd" clip-rule="evenodd" d="M330.03 452.652L329.084 451.306L349.046 437.286L349.99 438.632L330.03 452.652Z" fill="#D84E6C"/>
<path fill-rule="evenodd" clip-rule="evenodd" d="M216.768 243.876C216.768 290.802 115.198 290.798 115.198 243.876C115.198 243.752 115.198 243.624 115.204 243.502H216.764C216.768 243.624 216.768 243.752 216.768 243.876Z" fill="#E8C199"/>
<path fill-rule="evenodd" clip-rule="evenodd" d="M606.837 380.75H376.133C367.069 380.75 359.083 386.71 356.503 395.4L308.651 556.554H572.993L619.97 398.348C622.577 389.566 615.997 380.75 606.837 380.75Z" fill="#D8D1A7"/>
<path fill-rule="evenodd" clip-rule="evenodd" d="M192.326 549.546H552.574V556.554H185.318C185.318 552.682 188.454 549.546 192.326 549.546Z" fill="#D8D1A7"/>
<path fill-rule="evenodd" clip-rule="evenodd" d="M486.633 468.416C485.501 475.672 478.703 481.552 471.447 481.552C464.191 481.552 459.227 475.672 460.359 468.416C461.491 461.16 468.289 455.28 475.545 455.28C482.799 455.28 487.765 461.16 486.633 468.416Z" fill="white"/>
<path fill-rule="evenodd" clip-rule="evenodd" d="M210.335 229.667C210.335 229.667 156.755 222.547 156.969 222.585L207.825 244.217L210.335 229.667Z" fill="#E1A37A"/>
<path fill-rule="evenodd" clip-rule="evenodd" d="M212.454 39.246C212.454 39.246 250.368 50.854 264.648 46.222C263.582 52.464 259.376 59.854 259.376 59.854C259.376 59.854 267.098 64.25 278.356 56.928C277.48 92.864 256.102 101.644 256.102 101.644L236.01 102.068L212.454 39.246Z" fill="#231F20"/>
<path fill-rule="evenodd" clip-rule="evenodd" d="M195.055 496.382C195.055 496.382 228.293 509.58 239.843 508.99C251.391 508.398 296.113 493.28 296.113 493.28C296.113 493.28 301.457 494.174 302.839 498.416C304.221 502.658 302.485 506.458 298.495 507.444C294.507 508.43 269.287 518.62 269.287 518.62L329.535 540.234C329.535 540.234 337.129 543.466 336.753 549.618C336.379 555.77 331.923 554.87 331.923 554.87C331.923 554.87 343.955 557.586 341.385 566.124C338.813 574.664 328.079 568.624 328.079 568.624C328.079 568.624 334.305 569.034 331.745 578.518C329.185 588.004 311.303 578.728 311.303 578.728C311.303 578.728 319.763 580.06 317.181 587.654C314.599 595.248 302.107 591.118 302.107 591.118L174.769 551.29L195.055 496.382Z" fill="#E8C199"/>
<path fill-rule="evenodd" clip-rule="evenodd" d="M317.81 582.035L272.292 565.947L272.672 564.871L318.19 580.959L317.81 582.035ZM331.458 570.546L275.674 550.778L276.056 549.702L331.84 569.47L331.458 570.546ZM331.745 555.414L279.995 538.444L280.349 537.358L332.101 554.328L331.745 555.414Z" fill="#E0A27A"/>
<path fill-rule="evenodd" clip-rule="evenodd" d="M223.511 495.837L201.119 569.085L164.685 558.079L185.179 487.489L223.511 495.837Z" fill="#F07D90"/>
<path fill-rule="evenodd" clip-rule="evenodd" d="M185.373 33.283L199.629 35.713C209.996 37.481 219.349 41.66 227.209 47.578C237.861 53.732 247.699 62.353 253.598 72.372C254.004 73.048 254.39 73.72 254.744 74.406C263.031 90.422 259.958 107.874 255.206 125.326L254.88 126.516C254.716 127.111 254.55 127.706 254.382 128.3C253.114 132.808 246.394 156.486 244.904 160.564C244.655 161.244 243.96 160.314 243.177 159.399L242.683 162.301C236.519 198.463 201.891 223.003 165.731 216.841L139.259 217.777C138.329 218.685 93.7109 174.119 99.8729 137.959L108.421 87.819C114.585 51.661 149.213 27.119 185.373 33.283Z" fill="#231F20"/>
<path fill-rule="evenodd" clip-rule="evenodd" d="M162.03 91.7759C162.198 91.9159 162.409 92.0879 162.66 92.2899L162.978 92.546C168.218 96.731 186.958 110.7 208.759 115.132C225.775 118.594 240.511 107.868 250.385 112.602C252.097 113.424 251.787 118.858 251.13 123.92L251.039 124.608C250.759 126.661 250.433 128.614 250.177 130.126L250.149 130.394L238.097 197.744C233.203 226.452 210.107 231.836 193.717 231.328C193.359 231.289 191.662 231.02 189.923 230.738L189.271 230.633C187.65 230.37 186.135 230.121 185.797 230.066L158.791 225.738L158.831 225.504L151.625 224.228C133.189 220.952 120.739 204.256 123.801 186.922C124.953 180.417 126.086 173.902 127.239 167.392C119.251 168.44 111.327 161.729 109.273 151.963C107.143 141.833 112.131 132.251 120.413 130.561C124.944 129.638 129.523 131.267 133.09 134.591C133.39 132.755 133.696 130.861 134.002 128.961L134.191 127.791L134.378 126.624C135.784 117.876 137.116 109.464 137.691 106.484C142.077 83.6899 150.19 81.9999 162.03 91.7759Z" fill="#E8C199"/>
<path fill-rule="evenodd" clip-rule="evenodd" d="M216.688 35.46C205.06 21.398 182.27 17.392 169.652 33.164C108.39 29.536 110.414 77.608 100.914 131.82L101.026 131.81L133.692 128.21L135.21 122.644C135.21 122.644 152.874 110.48 161.074 91.186L236.754 106.508C238.98 106.894 241.2 107.066 243.396 107.066C260.992 107.052 276.954 95.07 281.258 77.208C289.236 44.11 247.61 11.6 216.688 35.46Z" fill="#231F20"/>
<path fill-rule="evenodd" clip-rule="evenodd" d="M174.473 152.612C172.219 153.069 170.527 149.542 171.858 146.637C171.568 143.674 173.945 139.919 176.16 139.666C178.377 139.413 180.273 142.67 178.951 145.541C178.718 148.699 176.723 152.161 174.473 152.611V152.612ZM224.473 162.612C222.219 163.069 220.527 159.542 221.858 156.637C221.568 153.674 223.945 149.919 226.16 149.666C228.377 149.413 230.273 152.67 228.951 155.541C228.718 158.699 226.723 162.162 224.473 162.612Z" fill="#231F20"/>
<path fill-rule="evenodd" clip-rule="evenodd" d="M170.335 163.499C170.002 165.012 168.192 165.94 166.304 165.571L159.267 164.209C157.372 163.841 156.104 162.319 156.443 160.805C156.778 159.295 158.583 158.363 160.477 158.733L167.504 160.096C169.403 160.46 170.668 161.986 170.335 163.499ZM232.448 180.542L225.396 179.115C223.498 178.734 222.161 177.442 222.42 176.242C222.676 175.041 224.43 174.374 226.33 174.763L233.384 176.19C235.279 176.57 236.612 177.862 236.357 179.063C236.103 180.27 234.345 180.928 232.447 180.541L232.448 180.542Z" fill="#E0A27A"/>
<path d="M120.109 142.652L126.388 151.01L118.388 153.652" stroke="#9A6B48" stroke-width="1.9" stroke-linecap="round"/>
<path d="M166.391 185.629C176.706 183.689 190.718 189.214 200.291 201.337C200.804 201.987 200.693 202.931 200.043 203.444C199.393 203.957 198.45 203.847 197.936 203.196C189.044 191.934 176.144 186.847 166.946 188.578C166.132 188.731 165.347 188.195 165.194 187.381C165.041 186.567 165.577 185.783 166.391 185.629Z" fill="#9A6B48"/>
<path d="M286.507 175.836L309.984 129.408L296.389 123.069L275.913 170.896L286.507 175.836ZM271.064 196.054C273.248 197.073 275.325 197.211 277.292 196.469C279.26 195.727 280.732 194.311 281.707 192.219C282.698 190.095 282.845 188.041 282.147 186.058C281.451 184.073 280.01 182.572 277.826 181.553C275.671 180.548 273.607 180.425 271.631 181.183C269.656 181.94 268.182 183.365 267.206 185.457C266.231 187.549 266.091 189.586 266.787 191.571C267.484 193.555 268.909 195.049 271.063 196.054L271.064 196.054Z" fill="#CE92D6"/>
</g>
<path fill-rule="evenodd" clip-rule="evenodd" d="M515.967 368.835L514.981 381.94C514.609 386.724 510.853 390.594 506.637 390.538C502.423 390.48 499.277 386.518 499.651 381.732L500.637 368.628C501.009 363.842 504.763 359.972 508.979 360.032C513.195 360.088 516.341 364.049 515.967 368.835ZM534.073 375.591L532.011 386.581C531.123 391.323 527.009 394.675 522.871 394.027C518.733 393.381 516.075 388.971 516.965 384.231L519.027 373.241C519.915 368.499 524.029 365.147 528.167 365.795C532.305 366.441 534.961 370.849 534.073 375.591ZM548.747 384.204L547.179 392.89C546.207 397.618 542.041 400.88 537.923 400.14C533.803 399.398 531.229 394.922 532.201 390.196L533.769 381.51C534.741 376.782 538.905 373.52 543.025 374.26C547.143 375 549.719 379.476 548.747 384.204ZM498.114 365.617L498.58 376.623C498.78 381.373 495.488 385.743 491.258 386.333C487.032 386.923 483.408 383.521 483.208 378.773L482.74 367.767C482.54 363.017 485.834 358.649 490.064 358.057C494.29 357.467 497.912 360.869 498.114 365.617Z" fill="#E8C199"/>
</g>
<defs>
<clipPath id="clip0_1121_9013">
<rect width="635" height="635" fill="white"/>
</clipPath>
</defs>
</svg>
