<svg width="135" height="40" viewBox="0 0 135 40" fill="none" xmlns="http://www.w3.org/2000/svg">
<g clip-path="url(#clip0_6_253)">
<path fill-rule="evenodd" clip-rule="evenodd" d="M129.998 40H5.00184C2.24512 40 0 37.7456 0 35V5C0 2.24439 2.24512 0 5.00184 0H129.998C132.752 0 135 2.24439 135 5V35C135 37.7456 132.752 40 129.998 40Z" fill="black"/>
<path fill-rule="evenodd" clip-rule="evenodd" d="M129.998 0.800499C132.31 0.800499 134.203 2.68828 134.203 5V35C134.203 37.3117 132.323 39.1995 129.998 39.1995H5.00184C2.68967 39.1995 0.797215 37.3117 0.797215 35V5C0.797215 2.68828 2.67725 0.800499 5.00184 0.800499H129.998ZM129.998 0H5.00184C2.24512 0 0 2.25436 0 5V35C0 37.7556 2.24512 40 5.00184 40H129.998C132.752 40 135 37.7556 135 35V5C135 2.25436 132.752 0 129.998 0Z" fill="#A6A6A6"/>
<path fill-rule="evenodd" clip-rule="evenodd" d="M67.8526 21.7556C65.5056 21.7556 63.6032 23.5436 63.6032 26.01C63.6032 28.4539 65.518 30.2643 67.8526 30.2643C70.1995 30.2643 72.1019 28.4638 72.1019 26.01C72.1019 23.5436 70.1995 21.7556 67.8526 21.7556ZM67.8526 28.5786C66.5686 28.5786 65.4634 27.5112 65.4634 26C65.4634 24.4663 66.5711 23.4215 67.8526 23.4215C69.1366 23.4215 70.2417 24.4663 70.2417 26C70.2442 27.5212 69.1366 28.5786 67.8526 28.5786ZM58.5815 21.7556C56.2346 21.7556 54.3322 23.5436 54.3322 26.01C54.3322 28.4539 56.247 30.2643 58.5815 30.2643C60.9285 30.2643 62.8309 28.4638 62.8309 26.01C62.8309 23.5436 60.926 21.7556 58.5815 21.7556ZM58.5815 28.5786C57.2975 28.5786 56.1924 27.5112 56.1924 26C56.1924 24.4663 57.3 23.4215 58.5815 23.4215C59.8655 23.4215 60.9707 24.4663 60.9707 26C60.9707 27.5212 59.8655 28.5786 58.5815 28.5786ZM47.5496 23.0549V24.8554H51.8536C51.722 25.8653 51.3892 26.611 50.8801 27.1222C50.2492 27.7556 49.2757 28.4439 47.5596 28.4439C44.9146 28.4439 42.8458 26.2993 42.8458 23.6434C42.8458 20.9875 44.9146 18.8429 47.5596 18.8429C48.9876 18.8429 50.0282 19.409 50.8006 20.1322L52.0722 18.8554C50.9993 17.8229 49.5712 17.0324 47.5695 17.0324C43.9411 17.0324 40.8962 20 40.8962 23.6334C40.8962 27.2768 43.9386 30.2344 47.5695 30.2344C49.529 30.2344 50.9993 29.591 52.1616 28.3791C53.3462 27.1895 53.7212 25.5112 53.7212 24.1571C53.7212 23.7357 53.6889 23.3566 53.6219 23.0349H47.5472C47.5496 23.0324 47.5496 23.0549 47.5496 23.0549ZM92.673 24.4564C92.3179 23.5013 91.245 21.7456 89.0446 21.7456C86.8641 21.7456 85.0511 23.4688 85.0511 26C85.0511 28.389 86.8442 30.2544 89.2557 30.2544C91.1929 30.2544 92.3204 29.0648 92.7848 28.3666L91.3468 27.399C90.87 28.1097 90.2069 28.5761 89.2656 28.5761C88.3144 28.5761 87.6488 28.1421 87.2068 27.2868L92.8717 24.9302C92.8717 24.9327 92.673 24.4564 92.673 24.4564ZM86.8963 25.8778C86.8516 24.2344 88.1679 23.399 89.1092 23.399C89.8517 23.399 90.4701 23.7656 90.6813 24.2993L86.8963 25.8778ZM82.2943 30H84.1545V17.5013H82.2943V30ZM79.2396 22.7008H79.1725C78.7528 22.1995 77.9556 21.7456 76.9373 21.7456C74.8239 21.7456 72.8768 23.6135 72.8768 26.0125C72.8768 28.4015 74.8139 30.2469 76.9373 30.2469C77.9432 30.2469 78.7528 29.7905 79.1725 29.2793H79.2396V29.8903C79.2396 31.5137 78.3753 32.389 76.9821 32.389C75.8421 32.389 75.1343 31.5661 74.8462 30.8778L73.2294 31.5561C73.6939 32.6783 74.9331 34.0673 76.9796 34.0673C79.1601 34.0673 81.0079 32.7781 81.0079 29.6334V22H79.2495V22.7008C79.252 22.7008 79.2396 22.7008 79.2396 22.7008ZM77.1037 28.5786C75.8198 28.5786 74.7469 27.5013 74.7469 26.0125C74.7469 24.5112 75.8198 23.4239 77.1037 23.4239C78.3753 23.4239 79.3613 24.5237 79.3613 26.0125C79.3737 27.5013 78.3778 28.5786 77.1037 28.5786ZM101.383 17.5013H96.9348V30H98.795V25.2668H101.385C103.444 25.2668 105.468 23.7681 105.468 21.389C105.468 19.01 103.452 17.5013 101.383 17.5013ZM101.437 23.5212H98.7925V19.2319H101.437C102.831 19.2319 103.618 20.3865 103.618 21.3766C103.618 22.3566 102.821 23.5212 101.437 23.5212ZM112.924 21.7332C111.573 21.7332 110.18 22.3342 109.603 23.6434L111.252 24.3317C111.608 23.6434 112.258 23.409 112.946 23.409C113.91 23.409 114.883 23.9875 114.906 25.02V25.1521C114.573 24.9626 113.843 24.6733 112.969 24.6733C111.188 24.6733 109.382 25.6509 109.382 27.4838C109.382 29.1621 110.843 30.2394 112.469 30.2394C113.719 30.2394 114.406 29.6733 114.836 29.0175H114.903V29.985H116.696V25.197C116.696 22.9676 115.047 21.7332 112.924 21.7332ZM112.69 28.5786C112.082 28.5786 111.23 28.2793 111.23 27.5112C111.23 26.5436 112.293 26.1771 113.199 26.1771C114.019 26.1771 114.407 26.3541 114.893 26.5985C114.759 27.7207 113.815 28.5686 112.69 28.5786ZM123.238 22L121.102 27.4215H121.035L118.822 22H116.82L120.141 29.5786L118.249 33.7905H120.186L125.294 22H123.238ZM106.494 30H108.354V17.5013H106.494V30Z" fill="white"/>
<path fill-rule="evenodd" clip-rule="evenodd" d="M10.3911 7.53364C10.103 7.84536 9.93665 8.32167 9.93665 8.94511V31.0573C9.93665 31.6808 10.103 32.1571 10.4011 32.4563L10.4781 32.5237L22.8163 20.1346V19.8578L10.4681 7.46631L10.3911 7.53364Z" fill="url(#paint0_linear_6_253)"/>
<path fill-rule="evenodd" clip-rule="evenodd" d="M26.9215 24.2768L22.8062 20.1446V19.8554L26.9215 15.7232L27.0109 15.7781L31.8786 18.5561C33.2719 19.3441 33.2719 20.6459 31.8786 21.4439L27.0109 24.2219L26.9215 24.2768Z" fill="url(#paint1_linear_6_253)"/>
<path fill-rule="evenodd" clip-rule="evenodd" d="M27.0109 24.2219L22.8062 20L10.3911 32.4663C10.8455 32.9551 11.608 33.01 12.4598 32.5337L27.0109 24.2219Z" fill="url(#paint2_linear_6_253)"/>
<path fill-rule="evenodd" clip-rule="evenodd" d="M27.0109 15.7781L12.4598 7.4788C11.608 6.99002 10.8431 7.05735 10.3911 7.54613L22.8062 20L27.0109 15.7781Z" fill="url(#paint3_linear_6_253)"/>
<path opacity="0.2" fill-rule="evenodd" clip-rule="evenodd" d="M26.9215 24.1322L12.4697 32.3766C11.6626 32.8429 10.9424 32.8105 10.4779 32.3866L10.4009 32.4639L10.4779 32.5312C10.9424 32.9527 11.6626 32.9876 12.4697 32.5212L27.0208 24.222L26.9215 24.1322Z" fill="black"/>
<path opacity="0.12" fill-rule="evenodd" clip-rule="evenodd" d="M31.8787 21.2993L26.9091 24.1322L26.9985 24.2219L31.8663 21.4439C32.5641 21.0449 32.9069 20.5212 32.9069 20C32.8646 20.4788 32.5095 20.9327 31.8787 21.2993Z" fill="black"/>
<path opacity="0.25" fill-rule="evenodd" clip-rule="evenodd" d="M12.4599 7.62348L31.8787 18.7008C32.5095 19.0574 32.8646 19.5237 32.9193 20C32.9193 19.4788 32.5766 18.9551 31.8787 18.5561L12.4599 7.47884C11.0667 6.67834 9.93665 7.34667 9.93665 8.94517V9.08981C9.93665 7.48881 11.0667 6.83295 12.4599 7.62348Z" fill="white"/>
<path d="M43.5 14H41.7045V8.18182H43.5795C44.1439 8.18182 44.6269 8.2983 45.0284 8.53125C45.4299 8.76231 45.7377 9.0947 45.9517 9.52841C46.1657 9.96023 46.2727 10.4773 46.2727 11.0795C46.2727 11.6856 46.1648 12.2074 45.9489 12.6449C45.733 13.0805 45.4186 13.4157 45.0057 13.6506C44.5928 13.8835 44.0909 14 43.5 14ZM42.4091 13.375H43.4545C43.9356 13.375 44.3343 13.2822 44.6506 13.0966C44.9669 12.911 45.2027 12.6468 45.358 12.304C45.5133 11.9612 45.5909 11.553 45.5909 11.0795C45.5909 10.6098 45.5142 10.2055 45.3608 9.86648C45.2074 9.52557 44.9782 9.2642 44.6733 9.08239C44.3684 8.89867 43.9886 8.80682 43.5341 8.80682H42.4091V13.375ZM49.1932 14.0909C48.7727 14.0909 48.41 13.9981 48.1051 13.8125C47.8021 13.625 47.5682 13.3636 47.4034 13.0284C47.2405 12.6913 47.1591 12.2992 47.1591 11.8523C47.1591 11.4053 47.2405 11.0114 47.4034 10.6705C47.5682 10.3277 47.7973 10.0606 48.0909 9.86932C48.3864 9.67614 48.7311 9.57955 49.125 9.57955C49.3523 9.57955 49.5767 9.61742 49.7983 9.69318C50.0199 9.76894 50.2216 9.89205 50.4034 10.0625C50.5852 10.2311 50.7301 10.4545 50.8381 10.733C50.946 11.0114 51 11.3542 51 11.7614V12.0455H47.6364V11.4659H50.3182C50.3182 11.2197 50.2689 11 50.1705 10.8068C50.0739 10.6136 49.9356 10.4612 49.7557 10.3494C49.5777 10.2377 49.3674 10.1818 49.125 10.1818C48.858 10.1818 48.6269 10.2481 48.4318 10.3807C48.2386 10.5114 48.09 10.6818 47.9858 10.892C47.8816 11.1023 47.8295 11.3277 47.8295 11.5682V11.9545C47.8295 12.2841 47.8864 12.5634 48 12.7926C48.1155 13.0199 48.2756 13.1932 48.4801 13.3125C48.6847 13.4299 48.9223 13.4886 49.1932 13.4886C49.3693 13.4886 49.5284 13.464 49.6705 13.4148C49.8144 13.3636 49.9384 13.2879 50.0426 13.1875C50.1468 13.0852 50.2273 12.9583 50.2841 12.8068L50.9318 12.9886C50.8636 13.2083 50.7491 13.4015 50.5881 13.5682C50.4271 13.733 50.2282 13.8617 49.9915 13.9545C49.7547 14.0455 49.4886 14.0909 49.1932 14.0909ZM55.1108 10.6136L54.5085 10.7841C54.4706 10.6837 54.4148 10.5862 54.3409 10.4915C54.2689 10.3949 54.1705 10.3153 54.0455 10.2528C53.9205 10.1903 53.7604 10.1591 53.5653 10.1591C53.2983 10.1591 53.0758 10.2206 52.8977 10.3438C52.7216 10.465 52.6335 10.6193 52.6335 10.8068C52.6335 10.9735 52.6941 11.1051 52.8153 11.2017C52.9366 11.2983 53.1259 11.3788 53.3835 11.4432L54.0312 11.6023C54.4214 11.697 54.7121 11.8419 54.9034 12.0369C55.0947 12.2301 55.1903 12.4792 55.1903 12.7841C55.1903 13.0341 55.1184 13.2576 54.9744 13.4545C54.8324 13.6515 54.6335 13.8068 54.3778 13.9205C54.1222 14.0341 53.8248 14.0909 53.4858 14.0909C53.0407 14.0909 52.6723 13.9943 52.3807 13.8011C52.089 13.608 51.9044 13.3258 51.8267 12.9545L52.4631 12.7955C52.5237 13.0303 52.6383 13.2064 52.8068 13.3239C52.9773 13.4413 53.1998 13.5 53.4744 13.5C53.7869 13.5 54.035 13.4337 54.2188 13.3011C54.4044 13.1667 54.4972 13.0057 54.4972 12.8182C54.4972 12.6667 54.4441 12.5398 54.3381 12.4375C54.232 12.3333 54.0691 12.2557 53.8494 12.2045L53.1222 12.0341C52.7225 11.9394 52.429 11.7926 52.2415 11.5938C52.0559 11.393 51.9631 11.142 51.9631 10.8409C51.9631 10.5947 52.0322 10.3769 52.1705 10.1875C52.3106 9.99811 52.5009 9.84943 52.7415 9.74148C52.9839 9.63352 53.2585 9.57955 53.5653 9.57955C53.9972 9.57955 54.3362 9.67424 54.5824 9.86364C54.8305 10.053 55.0066 10.303 55.1108 10.6136ZM57.9723 14.0909C57.5632 14.0909 57.2109 13.9943 56.9155 13.8011C56.62 13.608 56.3928 13.3419 56.2337 13.0028C56.0746 12.6638 55.995 12.2765 55.995 11.8409C55.995 11.3977 56.0765 11.0066 56.2393 10.6676C56.4041 10.3267 56.6333 10.0606 56.9268 9.86932C57.2223 9.67614 57.567 9.57955 57.9609 9.57955C58.2678 9.57955 58.5443 9.63636 58.7905 9.75C59.0367 9.86364 59.2384 10.0227 59.3956 10.2273C59.5528 10.4318 59.6503 10.6705 59.6882 10.9432H59.0178C58.9666 10.7443 58.853 10.5682 58.6768 10.4148C58.5026 10.2595 58.2678 10.1818 57.9723 10.1818C57.7109 10.1818 57.4818 10.25 57.2848 10.3864C57.0897 10.5208 56.9373 10.7112 56.8274 10.9574C56.7195 11.2017 56.6655 11.4886 56.6655 11.8182C56.6655 12.1553 56.7185 12.4489 56.8246 12.6989C56.9325 12.9489 57.084 13.143 57.2791 13.2812C57.4761 13.4195 57.7071 13.4886 57.9723 13.4886C58.1465 13.4886 58.3047 13.4583 58.4467 13.3977C58.5888 13.3371 58.709 13.25 58.8075 13.1364C58.906 13.0227 58.9761 12.8864 59.0178 12.7273H59.6882C59.6503 12.9848 59.5566 13.2169 59.407 13.4233C59.2592 13.6278 59.0632 13.7907 58.8189 13.9119C58.5765 14.0312 58.2943 14.0909 57.9723 14.0909ZM61.9524 14.1023C61.6759 14.1023 61.425 14.0502 61.1996 13.946C60.9742 13.84 60.7952 13.6875 60.6626 13.4886C60.5301 13.2879 60.4638 13.0455 60.4638 12.7614C60.4638 12.5114 60.513 12.3087 60.6115 12.1534C60.71 11.9962 60.8416 11.8731 61.0064 11.7841C61.1712 11.6951 61.353 11.6288 61.5518 11.5852C61.7526 11.5398 61.9543 11.5038 62.157 11.4773C62.4221 11.4432 62.6371 11.4176 62.8018 11.4006C62.9685 11.3816 63.0897 11.3504 63.1655 11.3068C63.2431 11.2633 63.282 11.1875 63.282 11.0795V11.0568C63.282 10.7765 63.2053 10.5587 63.0518 10.4034C62.9003 10.2481 62.6702 10.1705 62.3615 10.1705C62.0414 10.1705 61.7905 10.2405 61.6087 10.3807C61.4268 10.5208 61.299 10.6705 61.2251 10.8295L60.5888 10.6023C60.7024 10.3371 60.8539 10.1307 61.0433 9.98295C61.2346 9.83333 61.4429 9.72917 61.6683 9.67045C61.8956 9.60985 62.1191 9.57955 62.3388 9.57955C62.4789 9.57955 62.6399 9.59659 62.8217 9.63068C63.0054 9.66288 63.1825 9.73011 63.353 9.83239C63.5253 9.93466 63.6683 10.089 63.782 10.2955C63.8956 10.5019 63.9524 10.7784 63.9524 11.125V14H63.282V13.4091H63.2479C63.2024 13.5038 63.1267 13.6051 63.0206 13.7131C62.9145 13.821 62.7734 13.9129 62.5973 13.9886C62.4212 14.0644 62.2062 14.1023 61.9524 14.1023ZM62.0547 13.5C62.3198 13.5 62.5433 13.4479 62.7251 13.3438C62.9089 13.2396 63.0471 13.1051 63.1399 12.9403C63.2346 12.7756 63.282 12.6023 63.282 12.4205V11.8068C63.2536 11.8409 63.1911 11.8722 63.0945 11.9006C62.9998 11.9271 62.8899 11.9508 62.7649 11.9716C62.6418 11.9905 62.5215 12.0076 62.4041 12.0227C62.2886 12.036 62.1948 12.0473 62.1229 12.0568C61.9486 12.0795 61.7857 12.1165 61.6342 12.1676C61.4846 12.2169 61.3634 12.2917 61.2706 12.392C61.1797 12.4905 61.1342 12.625 61.1342 12.7955C61.1342 13.0284 61.2204 13.2045 61.3928 13.3239C61.567 13.4413 61.7876 13.5 62.0547 13.5ZM62.0774 9.04545L62.7706 7.72727H63.5547L62.6683 9.04545H62.0774ZM65.1761 14V9.63636H65.8239V10.2955H65.8693C65.9489 10.0795 66.0928 9.90436 66.3011 9.76989C66.5095 9.63542 66.7443 9.56818 67.0057 9.56818C67.0549 9.56818 67.1165 9.56913 67.1903 9.57102C67.2642 9.57292 67.3201 9.57576 67.358 9.57955V10.2614C67.3352 10.2557 67.2831 10.2472 67.2017 10.2358C67.1222 10.2225 67.0379 10.2159 66.9489 10.2159C66.7367 10.2159 66.5473 10.2604 66.3807 10.3494C66.2159 10.4366 66.0852 10.5578 65.9886 10.7131C65.8939 10.8665 65.8466 11.0417 65.8466 11.2386V14H65.1761ZM69.7812 15.7273C69.4574 15.7273 69.179 15.6856 68.946 15.6023C68.7131 15.5208 68.5189 15.4129 68.3636 15.2784C68.2102 15.1458 68.0881 15.0038 67.9972 14.8523L68.5312 14.4773C68.5919 14.5568 68.6686 14.6477 68.7614 14.75C68.8542 14.8542 68.9811 14.9441 69.142 15.0199C69.3049 15.0975 69.518 15.1364 69.7812 15.1364C70.1335 15.1364 70.4242 15.0511 70.6534 14.8807C70.8826 14.7102 70.9972 14.4432 70.9972 14.0795V13.1932H70.9403C70.8911 13.2727 70.821 13.3712 70.7301 13.4886C70.6411 13.6042 70.5123 13.7074 70.3438 13.7983C70.1771 13.8873 69.9517 13.9318 69.6676 13.9318C69.3153 13.9318 68.9991 13.8485 68.7188 13.6818C68.4403 13.5152 68.2197 13.2727 68.0568 12.9545C67.8958 12.6364 67.8153 12.25 67.8153 11.7955C67.8153 11.3485 67.8939 10.9593 68.0511 10.6278C68.2083 10.2945 68.4271 10.0369 68.7074 9.85511C68.9877 9.6714 69.3116 9.57955 69.679 9.57955C69.9631 9.57955 70.1884 9.62689 70.3551 9.72159C70.5237 9.81439 70.6525 9.92045 70.7415 10.0398C70.8324 10.1572 70.9025 10.2538 70.9517 10.3295H71.0199V9.63636H71.6676V14.125C71.6676 14.5 71.5824 14.8049 71.4119 15.0398C71.2434 15.2765 71.0161 15.4498 70.7301 15.5597C70.446 15.6714 70.1297 15.7273 69.7812 15.7273ZM69.7585 13.3295C70.0275 13.3295 70.2547 13.268 70.4403 13.1449C70.6259 13.0218 70.767 12.8447 70.8636 12.6136C70.9602 12.3826 71.0085 12.1061 71.0085 11.7841C71.0085 11.4697 70.9612 11.1922 70.8665 10.9517C70.7718 10.7112 70.6316 10.5227 70.446 10.3864C70.2604 10.25 70.0313 10.1818 69.7585 10.1818C69.4744 10.1818 69.2377 10.2538 69.0483 10.3977C68.8608 10.5417 68.7197 10.7348 68.625 10.9773C68.5322 11.2197 68.4858 11.4886 68.4858 11.7841C68.4858 12.0871 68.5331 12.3551 68.6278 12.5881C68.7244 12.8191 68.8665 13.0009 69.054 13.1335C69.2434 13.2642 69.4782 13.3295 69.7585 13.3295ZM74.179 14.1023C73.9025 14.1023 73.6515 14.0502 73.4261 13.946C73.2008 13.84 73.0218 13.6875 72.8892 13.4886C72.7566 13.2879 72.6903 13.0455 72.6903 12.7614C72.6903 12.5114 72.7396 12.3087 72.8381 12.1534C72.9366 11.9962 73.0682 11.8731 73.233 11.7841C73.3977 11.6951 73.5795 11.6288 73.7784 11.5852C73.9792 11.5398 74.1809 11.5038 74.3835 11.4773C74.6487 11.4432 74.8636 11.4176 75.0284 11.4006C75.1951 11.3816 75.3163 11.3504 75.392 11.3068C75.4697 11.2633 75.5085 11.1875 75.5085 11.0795V11.0568C75.5085 10.7765 75.4318 10.5587 75.2784 10.4034C75.1269 10.2481 74.8968 10.1705 74.5881 10.1705C74.268 10.1705 74.017 10.2405 73.8352 10.3807C73.6534 10.5208 73.5256 10.6705 73.4517 10.8295L72.8153 10.6023C72.929 10.3371 73.0805 10.1307 73.2699 9.98295C73.4612 9.83333 73.6695 9.72917 73.8949 9.67045C74.1222 9.60985 74.3456 9.57955 74.5653 9.57955C74.7055 9.57955 74.8665 9.59659 75.0483 9.63068C75.232 9.66288 75.4091 9.73011 75.5795 9.83239C75.7519 9.93466 75.8949 10.089 76.0085 10.2955C76.1222 10.5019 76.179 10.7784 76.179 11.125V14H75.5085V13.4091H75.4744C75.429 13.5038 75.3532 13.6051 75.2472 13.7131C75.1411 13.821 75 13.9129 74.8239 13.9886C74.6477 14.0644 74.4328 14.1023 74.179 14.1023ZM74.2812 13.5C74.5464 13.5 74.7699 13.4479 74.9517 13.3438C75.1354 13.2396 75.2737 13.1051 75.3665 12.9403C75.4612 12.7756 75.5085 12.6023 75.5085 12.4205V11.8068C75.4801 11.8409 75.4176 11.8722 75.321 11.9006C75.2263 11.9271 75.1165 11.9508 74.9915 11.9716C74.8684 11.9905 74.7481 12.0076 74.6307 12.0227C74.5152 12.036 74.4214 12.0473 74.3494 12.0568C74.1752 12.0795 74.0123 12.1165 73.8608 12.1676C73.7112 12.2169 73.59 12.2917 73.4972 12.392C73.4063 12.4905 73.3608 12.625 73.3608 12.7955C73.3608 13.0284 73.447 13.2045 73.6193 13.3239C73.7936 13.4413 74.0142 13.5 74.2812 13.5ZM78.0732 8.18182V14H77.4027V8.18182H78.0732ZM80.5852 14.1023C80.3087 14.1023 80.0578 14.0502 79.8324 13.946C79.607 13.84 79.428 13.6875 79.2955 13.4886C79.1629 13.2879 79.0966 13.0455 79.0966 12.7614C79.0966 12.5114 79.1458 12.3087 79.2443 12.1534C79.3428 11.9962 79.4744 11.8731 79.6392 11.7841C79.804 11.6951 79.9858 11.6288 80.1847 11.5852C80.3854 11.5398 80.5871 11.5038 80.7898 11.4773C81.0549 11.4432 81.2699 11.4176 81.4347 11.4006C81.6013 11.3816 81.7225 11.3504 81.7983 11.3068C81.8759 11.2633 81.9148 11.1875 81.9148 11.0795V11.0568C81.9148 10.7765 81.8381 10.5587 81.6847 10.4034C81.5331 10.2481 81.303 10.1705 80.9943 10.1705C80.6742 10.1705 80.4233 10.2405 80.2415 10.3807C80.0597 10.5208 79.9318 10.6705 79.858 10.8295L79.2216 10.6023C79.3352 10.3371 79.4867 10.1307 79.6761 9.98295C79.8674 9.83333 80.0758 9.72917 80.3011 9.67045C80.5284 9.60985 80.7519 9.57955 80.9716 9.57955C81.1117 9.57955 81.2727 9.59659 81.4545 9.63068C81.6383 9.66288 81.8153 9.73011 81.9858 9.83239C82.1581 9.93466 82.3011 10.089 82.4148 10.2955C82.5284 10.5019 82.5852 10.7784 82.5852 11.125V14H81.9148V13.4091H81.8807C81.8352 13.5038 81.7595 13.6051 81.6534 13.7131C81.5473 13.821 81.4063 13.9129 81.2301 13.9886C81.054 14.0644 80.839 14.1023 80.5852 14.1023ZM80.6875 13.5C80.9527 13.5 81.1761 13.4479 81.358 13.3438C81.5417 13.2396 81.6799 13.1051 81.7727 12.9403C81.8674 12.7756 81.9148 12.6023 81.9148 12.4205V11.8068C81.8864 11.8409 81.8239 11.8722 81.7273 11.9006C81.6326 11.9271 81.5227 11.9508 81.3977 11.9716C81.2746 11.9905 81.1544 12.0076 81.0369 12.0227C80.9214 12.036 80.8277 12.0473 80.7557 12.0568C80.5814 12.0795 80.4186 12.1165 80.267 12.1676C80.1174 12.2169 79.9962 12.2917 79.9034 12.392C79.8125 12.4905 79.767 12.625 79.767 12.7955C79.767 13.0284 79.8532 13.2045 80.0256 13.3239C80.1998 13.4413 80.4205 13.5 80.6875 13.5ZM87.8885 14.0909C87.468 14.0909 87.1054 13.9981 86.8004 13.8125C86.4974 13.625 86.2635 13.3636 86.0987 13.0284C85.9358 12.6913 85.8544 12.2992 85.8544 11.8523C85.8544 11.4053 85.9358 11.0114 86.0987 10.6705C86.2635 10.3277 86.4927 10.0606 86.7862 9.86932C87.0817 9.67614 87.4264 9.57955 87.8203 9.57955C88.0476 9.57955 88.272 9.61742 88.4936 9.69318C88.7152 9.76894 88.9169 9.89205 89.0987 10.0625C89.2805 10.2311 89.4254 10.4545 89.5334 10.733C89.6413 11.0114 89.6953 11.3542 89.6953 11.7614V12.0455H86.3317V11.4659H89.0135C89.0135 11.2197 88.9643 11 88.8658 10.8068C88.7692 10.6136 88.6309 10.4612 88.451 10.3494C88.273 10.2377 88.0627 10.1818 87.8203 10.1818C87.5533 10.1818 87.3222 10.2481 87.1271 10.3807C86.9339 10.5114 86.7853 10.6818 86.6811 10.892C86.5769 11.1023 86.5249 11.3277 86.5249 11.5682V11.9545C86.5249 12.2841 86.5817 12.5634 86.6953 12.7926C86.8108 13.0199 86.9709 13.1932 87.1754 13.3125C87.38 13.4299 87.6177 13.4886 87.8885 13.4886C88.0646 13.4886 88.2237 13.464 88.3658 13.4148C88.5097 13.3636 88.6338 13.2879 88.7379 13.1875C88.8421 13.0852 88.9226 12.9583 88.9794 12.8068L89.6271 12.9886C89.5589 13.2083 89.4444 13.4015 89.2834 13.5682C89.1224 13.733 88.9235 13.8617 88.6868 13.9545C88.45 14.0455 88.1839 14.0909 87.8885 14.0909ZM91.3857 11.375V14H90.7152V9.63636H91.3629V10.3182H91.4197C91.522 10.0966 91.6773 9.91856 91.8857 9.78409C92.094 9.64773 92.3629 9.57955 92.6925 9.57955C92.9879 9.57955 93.2464 9.64015 93.468 9.76136C93.6896 9.88068 93.862 10.0625 93.9851 10.3068C94.1082 10.5492 94.1697 10.8561 94.1697 11.2273V14H93.4993V11.2727C93.4993 10.9299 93.4103 10.6629 93.2322 10.4716C93.0542 10.2784 92.8099 10.1818 92.4993 10.1818C92.2853 10.1818 92.094 10.2282 91.9254 10.321C91.7588 10.4138 91.6271 10.5492 91.5305 10.7273C91.4339 10.9053 91.3857 11.1212 91.3857 11.375Z" fill="white"/>
</g>
<defs>
<linearGradient id="paint0_linear_6_253" x1="21.7095" y1="8.70654" x2="1.93514" y2="13.9538" gradientUnits="userSpaceOnUse">
<stop stop-color="#00A0FF"/>
<stop offset="0.00657" stop-color="#00A1FF"/>
<stop offset="0.2601" stop-color="#00BEFF"/>
<stop offset="0.5122" stop-color="#00D2FF"/>
<stop offset="0.7604" stop-color="#00DFFF"/>
<stop offset="1" stop-color="#00E3FF"/>
</linearGradient>
<linearGradient id="paint1_linear_6_253" x1="33.6956" y1="20" x2="9.59783" y2="20" gradientUnits="userSpaceOnUse">
<stop stop-color="#FFE000"/>
<stop offset="0.4087" stop-color="#FFBD00"/>
<stop offset="0.7754" stop-color="#FFA500"/>
<stop offset="1" stop-color="#FF9C00"/>
</linearGradient>
<linearGradient id="paint2_linear_6_253" x1="24.7246" y1="22.2973" x2="8.76179" y2="49.0538" gradientUnits="userSpaceOnUse">
<stop stop-color="#FF3A44"/>
<stop offset="1" stop-color="#C31162"/>
</linearGradient>
<linearGradient id="paint3_linear_6_253" x1="7.26477" y1="0.17879" x2="14.3864" y2="12.1287" gradientUnits="userSpaceOnUse">
<stop stop-color="#32A071"/>
<stop offset="0.0685" stop-color="#2DA771"/>
<stop offset="0.4762" stop-color="#15CF74"/>
<stop offset="0.8009" stop-color="#06E775"/>
<stop offset="1" stop-color="#00F076"/>
</linearGradient>
<clipPath id="clip0_6_253">
<rect width="135" height="40" fill="white"/>
</clipPath>
</defs>
</svg>
