<svg width="360" height="200" viewBox="0 0 360 200" fill="none" xmlns="http://www.w3.org/2000/svg">
<g clip-path="url(#clip0_653_4719)">
<rect width="360" height="200" fill="white"/>
<mask id="mask0_653_4719" style="mask-type:alpha" maskUnits="userSpaceOnUse" x="0" y="0" width="360" height="200">
<rect width="360" height="200" fill="#D9D9D9"/>
</mask>
<g mask="url(#mask0_653_4719)">
<path d="M360 0H0V369.832H360V0Z" fill="#5E186C"/>
<path d="M98.6426 108.193C97.3761 103.857 92.4561 100.561 86.432 100.212C85.1899 97.0783 81.3416 94.7889 76.7708 94.7889C74.4975 94.7889 72.4029 95.3572 70.7223 96.3071C68.9443 92.4263 64.0568 89.6416 58.2926 89.6416C51.0344 89.6416 45.1483 94.0744 45.1483 99.5383C45.1483 101.227 45.7085 102.81 46.699 104.198C46.0333 104.629 45.4325 105.116 44.9129 105.652C44.1335 106.204 43.5084 106.878 43.0862 107.633C42.7452 107.803 42.4123 107.99 42.0957 108.185H98.6264L98.6426 108.193Z" fill="#8B3D99"/>
<path d="M0.460953 149.551C-0.805569 145.216 -5.72551 141.92 -11.7496 141.571C-12.9918 138.437 -16.84 136.147 -21.4109 136.147C-23.6841 136.147 -25.7788 136.716 -27.4593 137.665C-29.2373 133.785 -34.1248 131 -39.8891 131C-47.1472 131 -53.0333 135.433 -53.0333 140.897C-53.0333 142.585 -52.4731 144.169 -51.4826 145.557C-52.1484 145.987 -52.7491 146.474 -53.2687 147.01C-54.0481 147.562 -54.6733 148.236 -55.0955 148.991C-55.4364 149.162 -55.7693 149.348 -56.0859 149.543H0.444714L0.460953 149.551Z" fill="#8B3D99"/>
<path d="M334.508 177.795C334.557 177.584 334.597 177.364 334.638 177.145C335.84 170.066 330.027 163.514 321.648 162.499C317.329 161.979 313.172 163.035 309.998 165.146C308.317 158.123 301.57 152.432 292.697 151.352C281.412 149.988 270.955 156.605 269.339 166.136C269.258 166.631 269.201 167.127 269.169 167.622C269.144 167.622 269.12 167.622 269.096 167.614C261.399 166.68 254.271 171.194 253.167 177.697C253.167 177.73 253.159 177.77 253.15 177.803H334.524L334.508 177.795Z" fill="#8B3D99"/>
<path d="M110 180.457C110.041 174.554 113.954 169.781 118.776 169.781C120.083 169.781 121.317 170.13 122.43 170.755C124.362 166.72 127.942 164 132.042 164C135.834 164 139.187 166.322 141.192 169.87C141.898 169.651 142.637 169.529 143.4 169.529C146.412 169.529 149.075 171.372 150.675 174.181C151.6 173.669 152.623 173.377 153.703 173.377C157.21 173.377 160.141 176.405 160.848 180.449H110V180.457Z" fill="#8B3D99"/>
<path d="M296.922 85.0451C296.922 84.899 296.914 84.761 296.914 84.6148C296.914 77.8925 302.419 72.4449 309.206 72.4449C309.466 72.4449 309.725 72.453 309.985 72.4692C312.827 67.9796 317.86 65 323.6 65C329.34 65 334.382 67.9877 337.224 72.4773C337.524 72.453 337.824 72.4449 338.125 72.4449C341.932 72.4449 345.342 74.1579 347.591 76.8533C348.103 76.7721 348.622 76.7315 349.15 76.7315C354.151 76.7315 358.308 80.32 359.128 85.037H296.922V85.0451ZM313.549 68.5073C313.817 68.2881 314.093 68.0932 314.418 67.8659C314.126 68.0689 313.833 68.2881 313.549 68.5073Z" fill="#8B3D99"/>
<path d="M61.8887 188.152C61.4178 185.018 59.2014 182.648 56.5384 182.648C56.303 182.648 56.0675 182.672 55.8402 182.705C54.6305 179.433 51.9676 177.168 48.8825 177.168C47.5591 177.168 46.317 177.582 45.2291 178.321C43.6703 176.275 41.4701 175 39.0264 175C35.5353 175 32.5395 177.606 31.2161 181.333C30.5666 181.048 29.8684 180.886 29.1459 180.886C25.8497 180.886 23.1543 184.109 23 188.16H61.8887V188.152Z" fill="#8B3D99"/>
<mask id="mask1_653_4719" style="mask-type:luminance" maskUnits="userSpaceOnUse" x="33" y="18" width="27" height="30">
<path d="M59.6213 18H33V47.0163H59.6213V18Z" fill="white"/>
</mask>
<g mask="url(#mask1_653_4719)">
<path fill-rule="evenodd" clip-rule="evenodd" d="M40.0794 38.719C40.3068 39.2549 40.7289 39.677 41.2566 39.9043C41.9305 40.1966 42.9047 40.6107 43.676 40.9435C44.1469 41.1465 44.1469 41.8123 43.676 42.0152L41.2566 43.0463C40.7289 43.2736 40.2986 43.6958 40.0794 44.2316C39.7872 44.9136 39.3812 45.8797 39.0483 46.6591C38.8454 47.13 38.1797 47.13 37.9767 46.6591C37.6438 45.8879 37.2379 44.9136 36.9456 44.2316C36.7183 43.6958 36.2961 43.2736 35.7684 43.0463C35.0945 42.754 34.1203 42.34 33.349 42.0152C32.8781 41.8123 32.8781 41.1465 33.349 40.9435C34.1203 40.6107 35.0864 40.1966 35.7684 39.9043C36.2961 39.677 36.7264 39.2549 36.9456 38.719C37.2379 38.037 37.6438 37.0709 37.9767 36.2915C38.1797 35.8206 38.8454 35.8206 39.0483 36.2915C39.3812 37.0628 39.7872 38.037 40.0794 38.719Z" fill="#8B3D99"/>
<path fill-rule="evenodd" clip-rule="evenodd" d="M46.2091 19.6806C46.3471 20.0053 46.5988 20.257 46.9236 20.395C47.3295 20.5736 47.9141 20.8172 48.3849 21.0202C48.6691 21.142 48.6691 21.5479 48.3849 21.6697L46.9236 22.2948C46.6069 22.4328 46.3471 22.6845 46.2091 23.0093C46.0386 23.4233 45.787 24.0079 45.584 24.4706C45.4622 24.7548 45.0563 24.7548 44.9345 24.4706C44.7396 23.9998 44.488 23.4152 44.3094 23.0093C44.1713 22.6845 43.9196 22.4328 43.5949 22.2948C43.189 22.1162 42.6044 21.8726 42.1335 21.6697C41.8494 21.5479 41.8494 21.142 42.1335 21.0202C42.5963 20.8172 43.1808 20.5736 43.5949 20.395C43.9115 20.257 44.1713 19.9972 44.3094 19.6806C44.4798 19.2747 44.7315 18.682 44.9345 18.2192C45.0563 17.9351 45.4622 17.9351 45.584 18.2192C45.7788 18.6901 46.0305 19.2747 46.2091 19.6806Z" fill="#8B3D99"/>
<path fill-rule="evenodd" clip-rule="evenodd" d="M58.249 32.4189C58.3302 32.6056 58.4763 32.7518 58.6549 32.8329C58.8904 32.9304 59.2232 33.0765 59.4911 33.1902C59.6535 33.2632 59.6535 33.4906 59.4911 33.5636L58.6549 33.9208C58.4682 34.002 58.322 34.1482 58.249 34.3349C58.1516 34.5703 58.0054 34.9113 57.8918 35.1792C57.8187 35.3416 57.5914 35.3416 57.5183 35.1792C57.4046 34.9113 57.2585 34.5703 57.1611 34.3349C57.0799 34.1482 56.9338 34.002 56.7551 33.9208C56.5197 33.8234 56.1868 33.6773 55.9189 33.5636C55.7565 33.4906 55.7565 33.2632 55.9189 33.1902C56.1868 33.0765 56.5197 32.9304 56.7551 32.8329C56.9419 32.7518 57.088 32.6056 57.1611 32.4189C57.2585 32.1834 57.4046 31.8425 57.5183 31.5745C57.5914 31.4122 57.8187 31.4122 57.8918 31.5745C58.0054 31.8425 58.1516 32.1834 58.249 32.4189Z" fill="#8B3D99"/>
</g>
<mask id="mask2_653_4719" style="mask-type:luminance" maskUnits="userSpaceOnUse" x="15" y="127" width="27" height="30">
<path d="M41.6413 127.028H15.02V156.045H41.6413V127.028Z" fill="white"/>
</mask>
<g mask="url(#mask2_653_4719)">
<path fill-rule="evenodd" clip-rule="evenodd" d="M22.0994 147.747C22.3268 148.283 22.7489 148.705 23.2767 148.933C23.9505 149.225 24.9248 149.639 25.696 149.972C26.1669 150.175 26.1669 150.84 25.696 151.043L23.2767 152.074C22.7489 152.302 22.3187 152.724 22.0994 153.26C21.8072 153.942 21.4012 154.908 21.0684 155.687C20.8654 156.158 20.1997 156.158 19.9967 155.687C19.6638 154.916 19.2579 153.942 18.9656 153.26C18.7383 152.724 18.3161 152.302 17.7884 152.074C17.1146 151.782 16.1403 151.368 15.369 151.043C14.8981 150.84 14.8981 150.175 15.369 149.972C16.1403 149.639 17.1064 149.225 17.7884 148.933C18.3161 148.705 18.7464 148.283 18.9656 147.747C19.2579 147.065 19.6638 146.099 19.9967 145.32C20.1997 144.849 20.8654 144.849 21.0684 145.32C21.4012 146.091 21.8072 147.065 22.0994 147.747Z" fill="#8B3D99"/>
<path fill-rule="evenodd" clip-rule="evenodd" d="M28.2291 128.709C28.3672 129.034 28.6188 129.285 28.9436 129.423C29.3495 129.602 29.9341 129.845 30.405 130.048C30.6891 130.17 30.6891 130.576 30.405 130.698L28.9436 131.323C28.627 131.461 28.3672 131.713 28.2291 132.037C28.0587 132.452 27.807 133.036 27.604 133.499C27.4822 133.783 27.0763 133.783 26.9545 133.499C26.7597 133.028 26.508 132.443 26.3294 132.037C26.1914 131.713 25.9397 131.461 25.6149 131.323C25.209 131.144 24.6244 130.901 24.1535 130.698C23.8694 130.576 23.8694 130.17 24.1535 130.048C24.6163 129.845 25.2009 129.602 25.6149 129.423C25.9315 129.285 26.1914 129.025 26.3294 128.709C26.4999 128.303 26.7515 127.71 26.9545 127.247C27.0763 126.963 27.4822 126.963 27.604 127.247C27.7989 127.718 28.0505 128.303 28.2291 128.709Z" fill="#8B3D99"/>
<path fill-rule="evenodd" clip-rule="evenodd" d="M40.2692 141.447C40.3504 141.634 40.4966 141.78 40.6752 141.861C40.9106 141.959 41.2435 142.105 41.5114 142.218C41.6738 142.291 41.6738 142.519 41.5114 142.592L40.6752 142.949C40.4885 143.03 40.3423 143.176 40.2692 143.363C40.1718 143.599 40.0257 143.94 39.912 144.207C39.839 144.37 39.6116 144.37 39.5386 144.207C39.4249 143.94 39.2788 143.599 39.1813 143.363C39.1002 143.176 38.954 143.03 38.7754 142.949C38.54 142.852 38.2071 142.705 37.9392 142.592C37.7768 142.519 37.7768 142.291 37.9392 142.218C38.2071 142.105 38.54 141.959 38.7754 141.861C38.9621 141.78 39.1083 141.634 39.1813 141.447C39.2788 141.212 39.4249 140.871 39.5386 140.603C39.6116 140.44 39.839 140.44 39.912 140.603C40.0257 140.871 40.1718 141.212 40.2692 141.447Z" fill="#8B3D99"/>
</g>
<mask id="mask3_653_4719" style="mask-type:luminance" maskUnits="userSpaceOnUse" x="261" y="10" width="20" height="20">
<path d="M280.444 10H261V29.4443H280.444V10Z" fill="white"/>
</mask>
<g mask="url(#mask3_653_4719)">
<path fill-rule="evenodd" clip-rule="evenodd" d="M273.487 14.8794C273.884 15.8131 274.631 16.56 275.565 16.9578C276.759 17.4693 278.463 18.1919 279.819 18.7764C280.647 19.1337 280.647 20.3109 279.819 20.66L275.565 22.4786C274.623 22.8764 273.884 23.6233 273.487 24.557C272.975 25.7504 272.245 27.4553 271.668 28.8112C271.319 29.6393 270.142 29.6393 269.785 28.8112C269.208 27.4553 268.477 25.7504 267.966 24.557C267.568 23.6233 266.821 22.8764 265.888 22.4786C264.694 21.9671 262.989 21.2445 261.625 20.66C260.797 20.3027 260.797 19.1255 261.625 18.7764C262.989 18.2 264.694 17.4693 265.888 16.9578C266.821 16.56 267.568 15.8131 267.966 14.8794C268.477 13.686 269.208 11.9811 269.785 10.6252C270.142 9.79712 271.319 9.79712 271.668 10.6252C272.245 11.9811 272.975 13.686 273.487 14.8794Z" fill="#8B3D99"/>
</g>
<mask id="mask4_653_4719" style="mask-type:luminance" maskUnits="userSpaceOnUse" x="78" y="131" width="20" height="21">
<path d="M97.7905 131.899H78.3462V151.344H97.7905V131.899Z" fill="white"/>
</mask>
<g mask="url(#mask4_653_4719)">
<path fill-rule="evenodd" clip-rule="evenodd" d="M90.8328 136.779C91.2306 137.712 91.9776 138.459 92.9112 138.857C94.1047 139.369 95.8096 140.091 97.1654 140.676C97.9935 141.033 97.9935 142.21 97.1654 142.559L92.9112 144.378C91.9776 144.776 91.2306 145.523 90.8328 146.456C90.3213 147.65 89.5988 149.355 89.0142 150.71C88.657 151.539 87.4798 151.539 87.1307 150.71C86.5543 149.355 85.8236 147.65 85.3121 146.456C84.9143 145.523 84.1673 144.776 83.2337 144.378C82.0402 143.866 80.3353 143.144 78.9795 142.559C78.1514 142.202 78.1514 141.025 78.9795 140.676C80.3353 140.099 82.0402 139.369 83.2337 138.857C84.1673 138.459 84.9143 137.712 85.3121 136.779C85.8236 135.585 86.5461 133.88 87.1307 132.525C87.4879 131.696 88.6651 131.696 89.0142 132.525C89.5906 133.88 90.3213 135.585 90.8328 136.779Z" fill="#8B3D99"/>
</g>
<mask id="mask5_653_4719" style="mask-type:luminance" maskUnits="userSpaceOnUse" x="236" y="118" width="28" height="30">
<path d="M263.535 118H236.914V147.016H263.535V118Z" fill="white"/>
</mask>
<g mask="url(#mask5_653_4719)">
<path fill-rule="evenodd" clip-rule="evenodd" d="M244.002 138.719C244.229 139.255 244.651 139.677 245.179 139.904C245.861 140.197 246.827 140.611 247.598 140.944C248.069 141.147 248.069 141.812 247.598 142.015L245.179 143.046C244.651 143.274 244.221 143.696 244.002 144.232C243.709 144.914 243.295 145.88 242.971 146.659C242.768 147.13 242.102 147.13 241.899 146.659C241.566 145.888 241.16 144.914 240.868 144.232C240.64 143.696 240.218 143.274 239.682 143.046C239 142.754 238.034 142.34 237.263 142.015C236.792 141.812 236.792 141.147 237.263 140.944C238.034 140.611 239 140.197 239.682 139.904C240.21 139.677 240.64 139.255 240.868 138.719C241.152 138.037 241.566 137.071 241.899 136.292C242.102 135.821 242.768 135.821 242.971 136.292C243.303 137.063 243.709 138.037 244.002 138.719Z" fill="#8B3D99"/>
<path fill-rule="evenodd" clip-rule="evenodd" d="M250.123 119.673C250.261 119.997 250.521 120.249 250.838 120.387C251.243 120.566 251.828 120.809 252.291 121.012C252.575 121.134 252.575 121.54 252.291 121.662L250.838 122.287C250.513 122.425 250.261 122.676 250.123 123.001C249.953 123.415 249.701 124 249.498 124.463C249.376 124.747 248.978 124.747 248.857 124.463C248.654 123.992 248.41 123.407 248.231 123.001C248.093 122.676 247.842 122.425 247.517 122.287C247.111 122.108 246.527 121.865 246.056 121.662C245.771 121.54 245.771 121.134 246.056 121.012C246.518 120.809 247.103 120.566 247.517 120.387C247.834 120.249 248.093 119.989 248.231 119.673C248.402 119.267 248.654 118.674 248.857 118.211C248.978 117.927 249.376 117.927 249.498 118.211C249.701 118.682 249.945 119.267 250.123 119.673Z" fill="#8B3D99"/>
<path fill-rule="evenodd" clip-rule="evenodd" d="M262.163 132.419C262.244 132.606 262.391 132.752 262.569 132.833C262.805 132.93 263.138 133.077 263.405 133.19C263.568 133.263 263.568 133.491 263.405 133.564L262.569 133.921C262.382 134.002 262.236 134.148 262.163 134.335C262.058 134.57 261.92 134.911 261.806 135.179C261.741 135.342 261.506 135.342 261.433 135.179C261.319 134.911 261.173 134.57 261.075 134.335C260.994 134.148 260.848 134.002 260.669 133.921C260.434 133.823 260.101 133.677 259.833 133.564C259.671 133.491 259.671 133.263 259.833 133.19C260.101 133.077 260.434 132.93 260.669 132.833C260.856 132.752 261.002 132.606 261.075 132.419C261.181 132.183 261.319 131.842 261.433 131.575C261.498 131.412 261.733 131.412 261.806 131.575C261.92 131.842 262.066 132.183 262.163 132.419Z" fill="#8B3D99"/>
</g>
<mask id="mask6_653_4719" style="mask-type:luminance" maskUnits="userSpaceOnUse" x="85" y="36" width="27" height="23">
<path d="M111.02 36H85V58.1316H111.02V36Z" fill="white"/>
</mask>
<g mask="url(#mask6_653_4719)">
<path fill-rule="evenodd" clip-rule="evenodd" d="M105.719 39.6859C106.019 40.3923 106.588 40.9606 107.302 41.261C108.211 41.6426 109.51 42.1946 110.541 42.633C111.175 42.901 111.175 43.794 110.541 44.0619L107.302 45.434C106.588 45.7344 106.019 46.3027 105.719 47.009C105.329 47.9102 104.777 49.2011 104.339 50.2322C104.071 50.8573 103.17 50.8573 102.902 50.2322C102.463 49.2011 101.903 47.9102 101.522 47.009C101.221 46.3027 100.645 45.7344 99.9384 45.434C99.0291 45.0524 97.7301 44.5003 96.6991 44.0619C96.0658 43.794 96.0658 42.901 96.6991 42.633C97.7383 42.1946 99.0291 41.6426 99.9384 41.261C100.653 40.9606 101.221 40.3923 101.522 39.6859C101.911 38.7848 102.463 37.4939 102.902 36.4628C103.17 35.8377 104.071 35.8377 104.339 36.4628C104.777 37.4939 105.337 38.7848 105.719 39.6859Z" fill="#8B3D99"/>
<path fill-rule="evenodd" clip-rule="evenodd" d="M88.5479 54.0155C88.6615 54.2834 88.8726 54.4945 89.1405 54.6C89.4815 54.7462 89.9686 54.9491 90.3502 55.1115C90.5857 55.2089 90.5857 55.5418 90.3502 55.6473L89.1405 56.1588C88.8726 56.2725 88.6615 56.4836 88.5479 56.7434C88.4017 57.0844 88.1988 57.5634 88.0283 57.9449C87.9308 58.1804 87.5899 58.1804 87.4924 57.9449C87.3301 57.5634 87.119 57.0762 86.9728 56.7434C86.8592 56.4755 86.6481 56.2644 86.3802 56.1588C86.0392 56.0127 85.5521 55.8097 85.1705 55.6473C84.935 55.5499 84.935 55.2171 85.1705 55.1115C85.5602 54.9491 86.0392 54.738 86.3802 54.6C86.6481 54.4864 86.8592 54.2753 86.9728 54.0155C87.119 53.6745 87.3219 53.1955 87.4924 52.8139C87.5899 52.5785 87.9308 52.5785 88.0283 52.8139C88.1906 53.1955 88.4017 53.6826 88.5479 54.0155Z" fill="#8B3D99"/>
</g>
<mask id="mask7_653_4719" style="mask-type:luminance" maskUnits="userSpaceOnUse" x="90" y="75" width="12" height="12">
<path d="M101.066 75H90V86.0658H101.066V75Z" fill="white"/>
</mask>
<g mask="url(#mask7_653_4719)">
<path fill-rule="evenodd" clip-rule="evenodd" d="M97.104 77.7848C97.3313 78.3206 97.7535 78.7428 98.2893 78.9701C98.9713 79.2624 99.9374 79.6765 100.717 80.0012C101.188 80.2042 101.188 80.8699 100.717 81.0729L98.2893 82.104C97.7535 82.3313 97.3313 82.7535 97.104 83.2893C96.8117 83.9713 96.3976 84.9374 96.0729 85.7168C95.8699 86.1877 95.2042 86.1877 95.0012 85.7168C94.6684 84.9455 94.2543 83.9713 93.9701 83.2893C93.7428 82.7535 93.3206 82.3313 92.7848 82.104C92.1028 81.8117 91.1367 81.3976 90.3573 81.0729C89.8864 80.8699 89.8864 80.2042 90.3573 80.0012C91.1286 79.6684 92.1028 79.2543 92.7848 78.9701C93.3206 78.7428 93.7428 78.3206 93.9701 77.7848C94.2624 77.1028 94.6765 76.1367 95.0012 75.3573C95.2042 74.8864 95.8699 74.8864 96.0729 75.3573C96.4058 76.1286 96.8198 77.1028 97.104 77.7848Z" fill="#8B3D99"/>
</g>
<mask id="mask8_653_4719" style="mask-type:luminance" maskUnits="userSpaceOnUse" x="189" y="18" width="12" height="12">
<path d="M200.066 18H189V29.0658H200.066V18Z" fill="white"/>
</mask>
<g mask="url(#mask8_653_4719)">
<path fill-rule="evenodd" clip-rule="evenodd" d="M196.104 20.7846C196.331 21.3205 196.753 21.7426 197.289 21.97C197.971 22.2622 198.937 22.6763 199.717 23.001C200.188 23.204 200.188 23.8697 199.717 24.0727L197.289 25.1038C196.753 25.3311 196.331 25.7533 196.104 26.2891C195.812 26.9711 195.398 27.9372 195.073 28.7166C194.87 29.1875 194.204 29.1875 194.001 28.7166C193.668 27.9453 193.254 26.9711 192.97 26.2891C192.743 25.7533 192.321 25.3311 191.785 25.1038C191.103 24.8115 190.137 24.3975 189.357 24.0727C188.886 23.8697 188.886 23.204 189.357 23.001C190.129 22.6682 191.103 22.2541 191.785 21.97C192.321 21.7426 192.743 21.3205 192.97 20.7846C193.262 20.1027 193.676 19.1365 194.001 18.3571C194.204 17.8862 194.87 17.8862 195.073 18.3571C195.406 19.1284 195.82 20.1027 196.104 20.7846Z" fill="#8B3D99"/>
</g>
<mask id="mask9_653_4719" style="mask-type:luminance" maskUnits="userSpaceOnUse" x="7" y="51" width="12" height="12">
<path d="M18.0658 51H7V62.0658H18.0658V51Z" fill="white"/>
</mask>
<g mask="url(#mask9_653_4719)">
<path fill-rule="evenodd" clip-rule="evenodd" d="M14.104 53.7846C14.3313 54.3205 14.7535 54.7426 15.2893 54.97C15.9713 55.2622 16.9374 55.6763 17.7168 56.001C18.1877 56.204 18.1877 56.8697 17.7168 57.0727L15.2893 58.1038C14.7535 58.3311 14.3313 58.7533 14.104 59.2891C13.8117 59.9711 13.3977 60.9372 13.0729 61.7166C12.8699 62.1875 12.2042 62.1875 12.0012 61.7166C11.6684 60.9453 11.2543 59.9711 10.9701 59.2891C10.7428 58.7533 10.3207 58.3311 9.78482 58.1038C9.10284 57.8115 8.13671 57.3975 7.35731 57.0727C6.88643 56.8697 6.88643 56.204 7.35731 56.001C8.12859 55.6682 9.10284 55.2541 9.78482 54.97C10.3207 54.7426 10.7428 54.3205 10.9701 53.7846C11.2624 53.1027 11.6765 52.1365 12.0012 51.3571C12.2042 50.8862 12.8699 50.8862 13.0729 51.3571C13.4058 52.1284 13.8198 53.1027 14.104 53.7846Z" fill="#8B3D99"/>
</g>
<mask id="mask10_653_4719" style="mask-type:luminance" maskUnits="userSpaceOnUse" x="309" y="101" width="12" height="12">
<path d="M320.98 101H309.914V112.066H320.98V101Z" fill="white"/>
</mask>
<g mask="url(#mask10_653_4719)">
<path fill-rule="evenodd" clip-rule="evenodd" d="M317.018 103.785C317.245 104.321 317.668 104.743 318.203 104.97C318.885 105.262 319.851 105.676 320.631 106.001C321.102 106.204 321.102 106.87 320.631 107.073L318.203 108.104C317.668 108.331 317.245 108.753 317.018 109.289C316.726 109.971 316.312 110.937 315.987 111.717C315.784 112.188 315.118 112.188 314.915 111.717C314.582 110.946 314.168 109.971 313.884 109.289C313.657 108.753 313.235 108.331 312.699 108.104C312.017 107.812 311.051 107.398 310.271 107.073C309.8 106.87 309.8 106.204 310.271 106.001C311.043 105.668 312.017 105.254 312.699 104.97C313.235 104.743 313.657 104.321 313.884 103.785C314.176 103.103 314.591 102.137 314.915 101.357C315.118 100.886 315.784 100.886 315.987 101.357C316.32 102.129 316.734 103.103 317.018 103.785Z" fill="#8B3D99"/>
</g>
<mask id="mask11_653_4719" style="mask-type:luminance" maskUnits="userSpaceOnUse" x="106" y="114" width="7" height="7">
<path d="M112.877 114H106V120.877H112.877V114Z" fill="white"/>
</mask>
<g mask="url(#mask11_653_4719)">
<path fill-rule="evenodd" clip-rule="evenodd" d="M110.425 115.721C110.563 116.054 110.831 116.314 111.163 116.46C111.586 116.639 112.186 116.898 112.665 117.101C112.958 117.223 112.958 117.645 112.665 117.767L111.163 118.408C110.831 118.546 110.571 118.814 110.425 119.147C110.246 119.569 109.986 120.17 109.783 120.657C109.661 120.95 109.239 120.95 109.109 120.657C108.906 120.178 108.647 119.569 108.468 119.147C108.322 118.814 108.062 118.555 107.729 118.408C107.307 118.23 106.706 117.97 106.227 117.767C105.935 117.645 105.935 117.223 106.227 117.101C106.706 116.898 107.307 116.639 107.729 116.46C108.062 116.322 108.322 116.054 108.468 115.721C108.647 115.299 108.906 114.698 109.109 114.211C109.231 113.919 109.653 113.919 109.783 114.211C109.986 114.69 110.246 115.299 110.425 115.721Z" fill="#8B3D99"/>
</g>
<mask id="mask12_653_4719" style="mask-type:luminance" maskUnits="userSpaceOnUse" x="267" y="76" width="8" height="7">
<path d="M274.791 76H267.914V82.8766H274.791V76Z" fill="white"/>
</mask>
<g mask="url(#mask12_653_4719)">
<path fill-rule="evenodd" clip-rule="evenodd" d="M272.339 77.7211C272.477 78.054 272.745 78.3138 273.077 78.4599C273.5 78.6385 274.1 78.8983 274.579 79.1013C274.872 79.2231 274.872 79.6452 274.579 79.767L273.077 80.4084C272.745 80.5464 272.485 80.8143 272.339 81.1472C272.16 81.5694 271.9 82.1702 271.697 82.6573C271.576 82.9496 271.153 82.9496 271.023 82.6573C270.82 82.1783 270.561 81.5694 270.382 81.1472C270.236 80.8143 269.976 80.5546 269.643 80.4084C269.221 80.2298 268.62 79.97 268.141 79.767C267.849 79.6452 267.849 79.2231 268.141 79.1013C268.62 78.8983 269.221 78.6385 269.643 78.4599C269.976 78.3219 270.236 78.054 270.382 77.7211C270.561 77.2989 270.82 76.6982 271.023 76.211C271.145 75.9188 271.567 75.9188 271.697 76.211C271.9 76.69 272.16 77.2989 272.339 77.7211Z" fill="#8B3D99"/>
</g>
<mask id="mask13_653_4719" style="mask-type:luminance" maskUnits="userSpaceOnUse" x="231" y="43" width="7" height="7">
<path d="M237.877 43H231V49.8766H237.877V43Z" fill="white"/>
</mask>
<g mask="url(#mask13_653_4719)">
<path fill-rule="evenodd" clip-rule="evenodd" d="M235.417 44.7211C235.555 45.054 235.823 45.3138 236.155 45.4599C236.578 45.6385 237.178 45.8983 237.657 46.1013C237.95 46.2231 237.95 46.6452 237.657 46.767L236.155 47.4084C235.823 47.5464 235.563 47.8143 235.417 48.1472C235.238 48.5694 234.978 49.1702 234.775 49.6573C234.653 49.9496 234.231 49.9496 234.101 49.6573C233.898 49.1783 233.639 48.5694 233.46 48.1472C233.314 47.8143 233.054 47.5545 232.721 47.4084C232.299 47.2298 231.698 46.97 231.219 46.767C230.927 46.6452 230.927 46.2231 231.219 46.1013C231.698 45.8983 232.299 45.6385 232.721 45.4599C233.054 45.3219 233.314 45.054 233.46 44.7211C233.639 44.2989 233.898 43.6982 234.101 43.211C234.223 42.9188 234.645 42.9188 234.775 43.211C234.978 43.69 235.238 44.2989 235.417 44.7211Z" fill="#8B3D99"/>
</g>
<mask id="mask14_653_4719" style="mask-type:luminance" maskUnits="userSpaceOnUse" x="300" y="134" width="8" height="7">
<path d="M307.791 134H300.914V140.877H307.791V134Z" fill="white"/>
</mask>
<g mask="url(#mask14_653_4719)">
<path fill-rule="evenodd" clip-rule="evenodd" d="M305.331 135.721C305.469 136.054 305.737 136.314 306.069 136.46C306.492 136.639 307.092 136.898 307.571 137.101C307.864 137.223 307.864 137.645 307.571 137.767L306.069 138.408C305.737 138.546 305.477 138.814 305.331 139.147C305.152 139.569 304.892 140.17 304.689 140.657C304.567 140.95 304.145 140.95 304.015 140.657C303.812 140.178 303.553 139.569 303.374 139.147C303.228 138.814 302.968 138.555 302.635 138.408C302.213 138.23 301.612 137.97 301.133 137.767C300.841 137.645 300.841 137.223 301.133 137.101C301.612 136.898 302.213 136.639 302.635 136.46C302.968 136.322 303.228 136.054 303.374 135.721C303.553 135.299 303.812 134.698 304.015 134.211C304.137 133.919 304.559 133.919 304.689 134.211C304.892 134.69 305.152 135.299 305.331 135.721Z" fill="#8B3D99"/>
</g>
<mask id="mask15_653_4719" style="mask-type:luminance" maskUnits="userSpaceOnUse" x="294" y="47" width="7" height="7">
<path d="M300.877 47H294V53.8766H300.877V47Z" fill="white"/>
</mask>
<g mask="url(#mask15_653_4719)">
<path fill-rule="evenodd" clip-rule="evenodd" d="M298.417 48.7211C298.555 49.054 298.823 49.3138 299.155 49.4599C299.578 49.6385 300.178 49.8983 300.657 50.1013C300.95 50.2231 300.95 50.6452 300.657 50.767L299.155 51.4084C298.823 51.5464 298.563 51.8143 298.417 52.1472C298.238 52.5694 297.978 53.1702 297.775 53.6573C297.653 53.9496 297.231 53.9496 297.101 53.6573C296.898 53.1783 296.639 52.5694 296.46 52.1472C296.314 51.8143 296.054 51.5545 295.721 51.4084C295.299 51.2298 294.698 50.97 294.219 50.767C293.927 50.6452 293.927 50.2231 294.219 50.1013C294.698 49.8983 295.299 49.6385 295.721 49.4599C296.054 49.3219 296.314 49.054 296.46 48.7211C296.639 48.2989 296.898 47.6982 297.101 47.211C297.223 46.9188 297.645 46.9188 297.775 47.211C297.978 47.69 298.238 48.2989 298.417 48.7211Z" fill="#8B3D99"/>
</g>
<mask id="mask16_653_4719" style="mask-type:luminance" maskUnits="userSpaceOnUse" x="202" y="164" width="7" height="7">
<path d="M208.877 164H202V170.877H208.877V164Z" fill="white"/>
</mask>
<g mask="url(#mask16_653_4719)">
<path fill-rule="evenodd" clip-rule="evenodd" d="M206.417 165.721C206.555 166.054 206.823 166.314 207.155 166.46C207.578 166.639 208.178 166.898 208.657 167.101C208.95 167.223 208.95 167.645 208.657 167.767L207.155 168.408C206.823 168.546 206.563 168.814 206.417 169.147C206.238 169.569 205.978 170.17 205.775 170.657C205.653 170.95 205.231 170.95 205.101 170.657C204.898 170.178 204.639 169.569 204.46 169.147C204.314 168.814 204.054 168.555 203.721 168.408C203.299 168.23 202.698 167.97 202.219 167.767C201.927 167.645 201.927 167.223 202.219 167.101C202.698 166.898 203.299 166.639 203.721 166.46C204.054 166.322 204.314 166.054 204.46 165.721C204.639 165.299 204.898 164.698 205.101 164.211C205.223 163.919 205.645 163.919 205.775 164.211C205.978 164.69 206.238 165.299 206.417 165.721Z" fill="#8B3D99"/>
</g>
<mask id="mask17_653_4719" style="mask-type:luminance" maskUnits="userSpaceOnUse" x="124" y="7" width="7" height="7">
<path d="M130.877 7H124V13.8766H130.877V7Z" fill="white"/>
</mask>
<g mask="url(#mask17_653_4719)">
<path fill-rule="evenodd" clip-rule="evenodd" d="M128.417 8.72929C128.555 9.06216 128.823 9.32195 129.155 9.46809C129.578 9.6467 130.178 9.9065 130.657 10.1095C130.95 10.2313 130.95 10.6534 130.657 10.7752L129.155 11.4166C128.823 11.5546 128.563 11.8225 128.417 12.1554C128.238 12.5776 127.978 13.1783 127.775 13.6655C127.653 13.9577 127.231 13.9577 127.101 13.6655C126.898 13.1865 126.639 12.5776 126.46 12.1554C126.314 11.8225 126.054 11.5627 125.721 11.4166C125.299 11.238 124.698 10.9782 124.219 10.7752C123.927 10.6534 123.927 10.2313 124.219 10.1095C124.698 9.9065 125.299 9.6467 125.721 9.46809C126.054 9.33007 126.314 9.06216 126.46 8.72929C126.639 8.30711 126.898 7.70633 127.101 7.21921C127.223 6.92693 127.645 6.92693 127.775 7.21921C127.978 7.69821 128.238 8.30711 128.417 8.72929Z" fill="#8B3D99"/>
</g>
<mask id="mask18_653_4719" style="mask-type:luminance" maskUnits="userSpaceOnUse" x="19" y="83" width="8" height="7">
<path d="M26.5304 83.1177H19.6538V89.9942H26.5304V83.1177Z" fill="white"/>
</mask>
<g mask="url(#mask18_653_4719)">
<path fill-rule="evenodd" clip-rule="evenodd" d="M24.0704 84.847C24.2084 85.1798 24.4763 85.4396 24.8092 85.5858C25.2314 85.7644 25.8321 86.0242 26.3112 86.2271C26.6034 86.3489 26.6034 86.7711 26.3112 86.8929L24.8092 87.5343C24.4763 87.6723 24.2165 87.9402 24.0704 88.2731C23.8918 88.6952 23.632 89.296 23.429 89.7831C23.3072 90.0754 22.885 90.0754 22.7551 89.7831C22.5522 89.3041 22.2924 88.6952 22.1138 88.2731C21.9676 87.9402 21.7078 87.6804 21.375 87.5343C20.9528 87.3556 20.352 87.0958 19.873 86.8929C19.5807 86.7711 19.5807 86.3489 19.873 86.2271C20.352 86.0242 20.9528 85.7644 21.375 85.5858C21.7078 85.4477 21.9676 85.1798 22.1138 84.847C22.2924 84.4248 22.5522 83.824 22.7551 83.3369C22.8769 83.0446 23.2991 83.0446 23.429 83.3369C23.632 83.8159 23.8918 84.4248 24.0704 84.847Z" fill="#8B3D99"/>
</g>
<mask id="mask19_653_4719" style="mask-type:luminance" maskUnits="userSpaceOnUse" x="349" y="40" width="7" height="7">
<path d="M355.877 40H349V46.8766H355.877V40Z" fill="white"/>
</mask>
<g mask="url(#mask19_653_4719)">
<path fill-rule="evenodd" clip-rule="evenodd" d="M353.417 41.7293C353.555 42.0622 353.823 42.322 354.155 42.4681C354.578 42.6467 355.178 42.9065 355.657 43.1095C355.95 43.2313 355.95 43.6534 355.657 43.7752L354.155 44.4166C353.823 44.5546 353.563 44.8225 353.417 45.1554C353.238 45.5776 352.978 46.1783 352.775 46.6655C352.653 46.9577 352.231 46.9577 352.101 46.6655C351.898 46.1865 351.639 45.5776 351.46 45.1554C351.314 44.8225 351.054 44.5627 350.721 44.4166C350.299 44.238 349.698 43.9782 349.219 43.7752C348.927 43.6534 348.927 43.2313 349.219 43.1095C349.698 42.9065 350.299 42.6467 350.721 42.4681C351.054 42.3301 351.314 42.0622 351.46 41.7293C351.639 41.3071 351.898 40.7063 352.101 40.2192C352.223 39.9269 352.645 39.9269 352.775 40.2192C352.978 40.6982 353.238 41.3071 353.417 41.7293Z" fill="#8B3D99"/>
</g>
</g>
<g clip-path="url(#clip1_653_4719)">
<path d="M210.9 157.45L164.54 141.78L108.91 128.8C108.91 128.8 76.78 110.85 74.08 107.7C70.32 103.31 63.43 99.9499 57.48 98.6599C51.53 97.3699 45.58 91.9499 40.57 93.2399C35.56 94.5299 14.89 111.06 9.88 114.67C8.63 115.57 4.98 116.94 0 118.53V196.17H132.34L210.9 157.44V157.45Z" fill="#3F0D4A"/>
<path d="M360 135.71C341.76 133.29 333.37 132.9 333.37 132.9C333.37 132.9 293.42 120.54 281.42 117.77C269.42 115 272.89 119.44 259.45 125.38C246.01 131.32 237.37 140.42 225.37 141.61C213.37 142.8 191.77 146.36 191.77 146.36L160.57 157.04L62.6699 160.79L195.13 177.22L360 175.54V135.71Z" fill="#3F0D4A"/>
<path d="M0 134.31L17.24 138.7L47.79 154.25L85.32 164.62L115.43 173.79H145.54L183.5 163.03L215.35 162.23L285.17 146.68L313.53 136.31C313.53 136.31 334.65 121.25 338.95 121.25C343.25 121.25 360 136.79 360 136.79V204H0V134.31Z" fill="#8B3D99"/>
<path d="M0 170.53L26.46 160.95C42.33 158.85 57.36 158.5 57.36 158.5C57.36 158.5 92.12 147.75 102.56 145.34C113 142.93 109.98 146.8 121.67 151.96C133.36 157.12 140.88 165.04 151.32 166.08C161.76 167.11 180.55 170.21 180.55 170.21L207.69 179.51L292.86 182.78L325.7 204.01H0V170.54V170.53Z" fill="#8B3D99"/>
</g>
<mask id="mask20_653_4719" style="mask-type:luminance" maskUnits="userSpaceOnUse" x="13" y="99" width="326" height="537">
<path d="M339 99.9999H13V635.886H339V99.9999Z" fill="white"/>
</mask>
<g mask="url(#mask20_653_4719)">
<path d="M325.787 147.434V147.419H327.836V142.173H281.642V147.419H283.699V197.741H273.83V164.96H267.711V157.399H262.614V152.435H246.22V157.399H241.115V164.96H234.997V187.591H229.692V147.049H201.69V178.151H188.151V150.134H184.682V145.037H157.493V150.134H154.024V192.984H144.214V163.47H140.234V158.965H132.932V152.538H126.532V158.965H119.23V163.47H115.25V183.47H103.657V156.674H78.163V152.523H68.2421V156.674H62.6565V195.832H50.6566V121H13V656.886H339V161.283H325.787V147.441V147.434Z" fill="#742384"/>
</g>
<mask id="mask21_653_4719" style="mask-type:luminance" maskUnits="userSpaceOnUse" x="-23" y="143" width="420" height="689">
<path d="M-22.0005 143.644H396.382V831.39H-22.0005V143.644Z" fill="white"/>
</mask>
<g mask="url(#mask21_653_4719)">
<path d="M-5.04303 177.558V177.539H-7.67303V170.808H51.6117V177.539H48.9722V242.122H61.6476V200.051H69.4997V190.348H76.051V183.977H97.0722V190.348H103.624V200.051H111.476V229.105H118.283V177.074H154.221V216.99H171.596V165.633H176.049V159.091H210.942V165.633H215.395V236.027H227.985V193.025H233.093V187.243H242.464V168.728H250.677V187.243H260.048V193.025H265.156V223.826H280.035V189.436H312.753V184.11H325.486V189.436H332.654V239.692H348.054V143.653H396.382V831.4H-22.0005V195.323H-5.04303V177.558Z" fill="#5E186C"/>
</g>
<mask id="mask22_653_4719" style="mask-type:luminance" maskUnits="userSpaceOnUse" x="318" y="-6" width="20" height="20">
<path d="M337.444 -6H318V13.4443H337.444V-6Z" fill="white"/>
</mask>
<g mask="url(#mask22_653_4719)">
<path fill-rule="evenodd" clip-rule="evenodd" d="M330.487 -1.12062C330.885 -0.186967 331.632 0.559953 332.565 0.957771C333.759 1.46925 335.464 2.19181 336.819 2.77636C337.648 3.13359 337.648 4.3108 336.819 4.65991L332.565 6.4785C331.632 6.87632 330.885 7.62324 330.487 8.55689C329.975 9.75035 329.253 11.4553 328.668 12.8111C328.311 13.6392 327.134 13.6392 326.785 12.8111C326.208 11.4553 325.478 9.75035 324.966 8.55689C324.568 7.62324 323.821 6.87632 322.888 6.4785C321.694 5.96702 319.989 5.24445 318.634 4.65991C317.805 4.30268 317.805 3.12547 318.634 2.77636C319.989 2.19993 321.694 1.46925 322.888 0.957771C323.821 0.559953 324.568 -0.186967 324.966 -1.12062C325.478 -2.31407 326.2 -4.019 326.785 -5.37483C327.142 -6.20294 328.319 -6.20294 328.668 -5.37483C329.245 -4.019 329.975 -2.31407 330.487 -1.12062Z" fill="#8B3D99"/>
</g>
<path d="M215.284 117.202C207.029 117.353 197.66 118.244 189.001 119.331C189.97 115.85 190.935 112.413 190.935 112.413C190.935 112.413 191.926 114.544 194.722 114.328C198.691 114.021 203.523 110.156 205.862 103.075C208.348 95.5524 208.125 87.0098 203.053 86.2925C198.954 85.7134 196.998 89.3354 196.715 90.0571C196.715 90.0571 197.586 86.767 194.982 87.3417C192.487 87.8919 192.031 89.0035 191.414 90.9904C191.305 91.3402 189.204 99.1566 187.003 107.394C186.97 107.448 186.943 107.51 186.923 107.579C186.38 109.441 185.304 110.065 184.526 110.114C182.011 110.276 187.418 93.6835 187.827 92.425C188.369 90.7654 188.692 89.5069 186.858 88.8141C185.622 88.3463 183.927 88.5156 183.43 89.8432C183.221 90.4001 183.069 90.81 183.069 90.81C183.069 90.81 181.657 88.7116 178.534 88.9968C175.409 89.2819 171.464 93.0843 168.853 99.7558C166.243 106.427 165.109 115.997 171.301 116.95C174.444 117.434 177.082 115.636 178.463 112.676C178.463 112.676 178.222 114.658 180.292 115.629C181.105 116.012 183.127 115.863 185.032 114.787C184.531 116.667 184.058 118.449 183.637 120.038C170.268 121.886 159.745 123.951 159.745 123.951C159.747 123.942 167.073 99.1677 168.724 93.7147C170.105 89.1505 167.501 90.144 165.576 90.7031C163.525 91.2978 162.554 93.0264 161.527 96.165C157.038 109.873 153.505 114.141 150.944 113.221C148.594 112.377 155.985 97.8201 154.212 95.8977C152.675 94.2315 149.507 94.3206 148.903 95.303C148.3 96.2853 149.197 97.183 148.812 98.573C148.427 99.963 145.466 107.488 145.154 109.174C144.843 110.858 142.274 120.198 149.07 119.795C153.087 119.556 155.838 116.518 156.129 115.674C154.875 119.303 153.082 125.159 153.082 125.159C153.082 125.159 144.86 127.215 138.307 134.073C133.103 139.517 129.423 151.245 137.195 153.114C149.275 156.019 154.987 137.579 157.916 130.645C167.71 128.464 175.179 127.016 182.087 125.938C181.985 126.342 181.916 126.616 181.891 126.729C181.263 129.616 181.403 130.772 183.657 130.494C186.088 130.193 186.393 128.946 187.188 125.927C187.242 125.72 187.311 125.464 187.391 125.168C195.577 124.063 203.614 123.37 214.674 122.448C218.111 122.16 218.073 121.586 218.409 119.534C218.788 117.206 216.099 117.189 215.284 117.202ZM194.198 101.291C195.851 95.8888 197.37 93.7259 198.798 93.1155C202.204 91.6565 202.85 95.9311 200.221 102.42C197.179 109.929 193.626 109.757 192.265 108.276C192.262 108.276 192.452 106.993 194.198 101.291ZM178.989 104.549C177.527 108.076 176.16 110.557 174.277 110.571C171.58 110.591 171.649 106.534 173.569 101.431C175.184 97.1407 178.129 94.4387 179.719 94.1313C181.307 93.8261 183.156 94.4921 178.989 104.549ZM143.297 145.579C136.875 151.31 138.494 143.46 140.882 140.07C145.415 133.632 151.013 132.004 151.013 132.004C148.168 140.324 144.613 144.402 143.297 145.579Z" fill="white"/>
<path d="M223.824 96.4458C226.25 93.6369 227.357 87.6514 223.287 85.4484C218.364 82.7843 211.936 86.8518 209.283 95.6171C206.924 103.411 206.042 112.996 214.045 112.642C217.988 112.468 221.389 109.631 222.621 107.523C223.218 106.501 223.457 104.89 223.352 104.175C223.06 102.168 221.833 101.877 219.75 104.512C219.235 105.093 215.128 108.746 213.119 106.577C211.666 105.008 212.887 101.93 212.945 101.928C215.573 101.736 220.173 100.674 223.824 96.4458ZM217.935 89.6406C220.144 87.5757 222.258 90.0461 219.703 93.6012C217.124 97.1876 214.103 97.0962 214.079 97.2098C214.388 95.8065 215.524 91.8949 217.935 89.6406Z" fill="white"/>
<path d="M180.276 65.4939C179.795 65.1843 179.073 65.0306 178.115 65.0306H175.25V69.0001H178.209C180.069 69.0001 181 68.3296 181 66.9886C181 66.3003 180.759 65.8035 180.276 65.4939Z" fill="#10CBB4"/>
<path d="M181.807 47.0187C173.15 47.4174 166.082 54.3696 165.552 63.0191C165.194 68.8753 167.787 74.139 171.981 77.4759C172.413 77.8189 172.665 78.3379 172.665 78.8904V82.6616C172.665 82.9512 172.827 83.2185 173.084 83.3521L173.188 83.4078C173.436 83.537 173.732 83.5147 173.957 83.3521L177.193 81.0199C177.617 80.7147 178.151 80.6078 178.659 80.7281C179.929 81.031 181.252 81.1914 182.613 81.1914C192.056 81.1914 199.709 73.5376 199.709 64.095C199.709 54.3874 191.617 46.5665 181.807 47.0187ZM183.208 69.2451C182.818 69.8532 182.292 70.3032 181.631 70.595C181.216 70.7687 180.74 70.889 180.203 70.9603C179.666 71.0316 179.038 71.0672 178.321 71.0672H174.166C173.567 71.0672 173.139 70.9336 172.881 70.664C172.625 70.3945 172.496 69.9668 172.496 69.3787V59.1588C172.496 58.5596 172.627 58.1274 172.89 57.8646C173.153 57.6017 173.578 57.4703 174.164 57.4703H178.568C179.216 57.4703 179.78 57.5104 180.256 57.5906C180.733 57.6708 181.158 57.8267 181.535 58.0539C181.856 58.2455 182.141 58.4883 182.388 58.7823C182.635 59.0764 182.825 59.4016 182.954 59.7558C183.083 60.1122 183.148 60.4864 183.148 60.8829C183.148 62.2439 182.468 63.2374 181.107 63.87C182.894 64.4381 183.787 65.5451 183.787 67.1891C183.791 67.9509 183.598 68.6347 183.208 69.2451ZM192.88 69.7819C192.539 70.2787 192.038 70.6574 191.372 70.9135C190.708 71.1697 189.899 71.2989 188.946 71.2989C188.037 71.2989 187.257 71.1608 186.609 70.8823C185.961 70.6039 185.48 70.2564 185.172 69.8398C184.863 69.4233 184.709 69.0045 184.709 68.5835C184.709 68.3051 184.807 68.0667 185.005 67.8685C185.204 67.6702 185.453 67.5722 185.756 67.5722C186.021 67.5722 186.226 67.6368 186.369 67.766C186.511 67.8952 186.647 68.0779 186.776 68.314C187.037 68.7662 187.347 69.1025 187.707 69.3253C188.068 69.548 188.563 69.6594 189.187 69.6594C189.694 69.6594 190.109 69.5458 190.434 69.3208C190.759 69.0958 190.92 68.8374 190.92 68.5456C190.92 68.1001 190.75 67.7749 190.414 67.5722C190.078 67.3673 189.523 67.1735 188.75 66.9886C187.879 66.7725 187.168 66.5453 186.623 66.307C186.075 66.0686 185.638 65.7545 185.311 65.3647C184.983 64.9749 184.818 64.496 184.818 63.9279C184.818 63.4201 184.97 62.9411 185.273 62.4912C185.576 62.039 186.023 61.6804 186.614 61.4108C187.204 61.1413 187.917 61.0076 188.75 61.0076C189.405 61.0076 189.995 61.0767 190.516 61.2126C191.04 61.3485 191.474 61.5311 191.824 61.7605C192.174 61.99 192.439 62.2417 192.621 62.5201C192.804 62.7986 192.895 63.0703 192.895 63.3354C192.895 63.625 192.797 63.8633 192.604 64.0505C192.41 64.2353 192.131 64.3289 191.773 64.3289C191.512 64.3289 191.292 64.2554 191.109 64.1061C190.926 63.9569 190.717 63.7341 190.483 63.4379C190.291 63.1906 190.066 62.9924 189.806 62.8454C189.545 62.6961 189.193 62.6226 188.748 62.6226C188.291 62.6226 187.91 62.7206 187.607 62.9144C187.304 63.1082 187.153 63.351 187.153 63.6428C187.153 63.9079 187.264 64.1262 187.487 64.2977C187.71 64.467 188.008 64.6073 188.387 64.7187C188.763 64.8301 189.282 64.966 189.944 65.1264C190.728 65.3179 191.369 65.5474 191.868 65.8124C192.365 66.0775 192.744 66.3916 193 66.7547C193.256 67.1156 193.385 67.5299 193.385 67.9932C193.39 68.686 193.221 69.2852 192.88 69.7819Z" fill="#10CBB4"/>
<path d="M179.363 62.861C179.737 62.7318 180.022 62.4845 180.22 62.1192C180.374 61.8586 180.452 61.569 180.452 61.2482C180.452 60.5621 180.207 60.1055 179.719 59.8805C179.231 59.6555 178.485 59.5419 177.485 59.5419H175.25V63.057H177.772C178.458 63.0548 178.988 62.9902 179.363 62.861Z" fill="#10CBB4"/>
</g>
<defs>
<clipPath id="clip0_653_4719">
<rect width="360" height="200" fill="white"/>
</clipPath>
<clipPath id="clip1_653_4719">
<rect width="360" height="200" fill="white" transform="translate(0 4)"/>
</clipPath>
</defs>
</svg>
