<svg width="40" height="40" viewBox="0 0 40 40" fill="none" xmlns="http://www.w3.org/2000/svg">
<path d="M18.1708 5.90857C19.0893 4.69715 20.9106 4.69714 21.8291 5.90857L23.8907 8.62735C24.2182 9.05937 24.7534 9.28105 25.2905 9.2072L28.6708 8.74244C30.1768 8.53536 31.4646 9.82312 31.2575 11.3293L30.7927 14.7094C30.7189 15.2465 30.9406 15.7817 31.3726 16.1093L34.0914 18.1708C35.3029 19.0895 35.3029 20.9106 34.0914 21.8291L31.3726 23.8907C30.9406 24.2182 30.7189 24.7534 30.7927 25.2905L31.2575 28.6708C31.4646 30.1768 30.1768 31.4646 28.6708 31.2575L25.2905 30.7927C24.7534 30.7189 24.2182 30.9406 23.8907 31.3726L21.8291 34.0914C20.9106 35.3029 19.0895 35.3029 18.1708 34.0914L16.1093 31.3726C15.7817 30.9406 15.2465 30.7189 14.7094 30.7927L11.3292 31.2575C9.82312 31.4646 8.53537 30.1768 8.74244 28.6708L9.2072 25.2905C9.28105 24.7534 9.05938 24.2182 8.62735 23.8907L5.90858 21.8291C4.69714 20.9106 4.69714 19.0895 5.90858 18.1708L8.62735 16.1093C9.05938 15.7817 9.28105 15.2465 9.2072 14.7094L8.74244 11.3293C8.53537 9.82312 9.82312 8.53536 11.3293 8.74244L14.7094 9.2072C15.2465 9.28105 15.7817 9.05937 16.1093 8.62735L18.1708 5.90857Z" fill="#742384"/>
<path fill-rule="evenodd" clip-rule="evenodd" d="M16.6667 18.3333C15.7462 18.3333 15 17.5872 15 16.6667C15 15.7462 15.7462 15 16.6667 15C17.5872 15 18.3333 15.7462 18.3333 16.6667C18.3333 17.5872 17.5872 18.3333 16.6667 18.3333ZM24.5118 17.8452L17.8452 24.5118C17.1943 25.1627 16.139 25.1627 15.4882 24.5118C14.8373 23.861 14.8373 22.8057 15.4882 22.1548L22.1548 15.4882C22.8057 14.8373 23.861 14.8373 24.5118 15.4882C25.1627 16.139 25.1627 17.1943 24.5118 17.8452ZM21.6667 23.3333C21.6667 24.2538 22.4128 25 23.3333 25C24.2538 25 25 24.2538 25 23.3333C25 22.4128 24.2538 21.6667 23.3333 21.6667C22.4128 21.6667 21.6667 22.4128 21.6667 23.3333Z" fill="#E3B2EB"/>
<path d="M36 12C36 15.3137 33.3137 18 30 18C26.6863 18 24 15.3137 24 12C24 8.68629 26.6863 6 30 6C33.3137 6 36 8.68629 36 12Z" fill="#10CBB4"/>
</svg>
