<svg width="72" height="72" viewBox="0 0 72 72" fill="none" xmlns="http://www.w3.org/2000/svg">
<path d="M63.8082 37.8022L59.1671 40.7062C58.2077 41.3026 57.8966 42.5212 58.4151 43.5065L60.982 48.3292C61.734 49.7293 60.7487 51.4146 59.1671 51.4665L53.6962 51.648C52.5812 51.6739 51.6737 52.5814 51.6478 53.6963L51.4663 59.1672C51.4145 60.7489 49.7291 61.7082 48.329 60.9822L43.5063 58.4153C42.521 57.8967 41.3024 58.2079 40.706 59.1672L37.802 63.8084C36.9723 65.1308 35.0277 65.1308 34.198 63.8084L31.294 59.1672C30.6976 58.2079 29.479 57.8967 28.4937 58.4153L23.671 60.9822C22.2709 61.7342 20.5856 60.7489 20.5337 59.1672L20.3522 53.6963C20.3263 52.5814 19.4188 51.6739 18.3039 51.648L12.833 51.4665C11.2513 51.4146 10.292 49.7293 11.018 48.3292L13.5849 43.5065C14.1035 42.5212 13.7923 41.3026 12.833 40.7062L8.19177 37.8022C6.86942 36.9725 6.86942 35.0279 8.19177 34.1982L12.833 31.2942C13.7923 30.6978 14.1035 29.4792 13.5849 28.4939L11.018 23.6712C10.266 22.2711 11.2513 20.5857 12.833 20.5339L18.3039 20.3524C19.4188 20.3265 20.3263 19.419 20.3522 18.304L20.5337 12.8331C20.5856 11.2515 22.2709 10.2922 23.671 11.0182L28.4937 13.5851C29.479 14.1036 30.6976 13.7925 31.294 12.8331L34.198 8.19196C35.0277 6.86961 36.9723 6.86961 37.802 8.19196L40.706 12.8331C41.3024 13.7925 42.521 14.1036 43.5063 13.5851L48.329 11.0182C49.7291 10.2662 51.4145 11.2515 51.4663 12.8331L51.6478 18.304C51.6737 19.419 52.5812 20.3265 53.6962 20.3524L59.1671 20.5339C60.7487 20.5857 61.708 22.2711 60.982 23.6712L58.4151 28.4939C57.8966 29.4792 58.2077 30.6978 59.1671 31.2942L63.8082 34.1982C65.1306 35.0279 65.1306 36.9725 63.8082 37.8022Z" fill="#F4C12A"/>
<path d="M29.4882 48.1501C29.1964 48.1501 28.9046 48.0685 28.6394 47.9053C27.8967 47.4156 27.6845 46.4092 28.1354 45.6475L41.159 24.6205C41.6364 23.8588 42.6178 23.614 43.3605 24.1036C44.1032 24.5933 44.3154 25.5997 43.8645 26.3614L30.8409 47.3884C30.5492 47.8781 30.0187 48.1501 29.4882 48.1501Z" fill="#8B3D99"/>
<path d="M27.8999 36.0089C24.5442 36.0089 21.825 33.2896 21.825 29.9339C21.825 26.5782 24.5442 23.8589 27.8999 23.8589C31.2557 23.8589 33.9749 26.5782 33.9749 29.9339C33.9749 33.2896 31.2557 36.0089 27.8999 36.0089ZM27.8999 27.3303C26.4535 27.3303 25.2964 28.4875 25.2964 29.9339C25.2964 31.3803 26.4535 32.5375 27.8999 32.5375C29.3464 32.5375 30.5035 31.3803 30.5035 29.9339C30.5035 28.4875 29.3464 27.3303 27.8999 27.3303Z" fill="#8B3D99"/>
<path d="M44.1 48.15C40.7443 48.15 38.025 45.4307 38.025 42.075C38.025 38.7193 40.7443 36 44.1 36C47.4557 36 50.175 38.7193 50.175 42.075C50.175 45.4307 47.4557 48.15 44.1 48.15ZM44.1 39.4714C42.6535 39.4714 41.4964 40.6286 41.4964 42.075C41.4964 43.5214 42.6535 44.6786 44.1 44.6786C45.5464 44.6786 46.7035 43.5214 46.7035 42.075C46.7035 40.6286 45.5464 39.4714 44.1 39.4714Z" fill="#8B3D99"/>
</svg>
