<svg width="72" height="72" viewBox="0 0 72 72" xmlns="http://www.w3.org/2000/svg">
    <g fill="none" fill-rule="evenodd">
        <path d="m48.872 40.887 14.537 14.758a4.241 4.241 0 0 1-.262 6.197 4.806 4.806 0 0 1-6.597-.325L42.598 46.953a4.353 4.353 0 0 1 .117-6.141 4.374 4.374 0 0 1 6.157.075z" fill="#8B3D99"/>
        <path d="M32.4 7.2C44.33 7.2 54 16.87 54 28.8c0 11.93-9.67 21.6-21.6 21.6-11.93 0-21.6-9.67-21.6-21.6 0-11.93 9.67-21.6 21.6-21.6zm0 7.2c-7.953 0-14.4 6.447-14.4 14.4s6.447 14.4 14.4 14.4 14.4-6.447 14.4-14.4-6.447-14.4-14.4-14.4z" fill="#BD77C7"/>
        <path d="m26.289 22.848.075-.084a.9.9 0 0 1 1.188-.075l.084.075 4.764 4.762 4.764-4.762a.9.9 0 1 1 1.272 1.272L33.674 28.8l4.762 4.764a.9.9 0 0 1 .075 1.188l-.075.084a.9.9 0 0 1-1.188.075l-.084-.075-4.764-4.762-4.764 4.762a.9.9 0 1 1-1.272-1.272l4.762-4.764-4.762-4.764a.9.9 0 0 1-.075-1.188l.075-.084-.075.084z" fill="#A35AAD"/>
    </g>
</svg>
