<svg version="1.0" id="livetype" xmlns="http://www.w3.org/2000/svg" x="0" y="0" viewBox="0 0 208.1 51.5" xml:space="preserve"><style>.st356{fill:#c1c1c1}</style><switch><g><path d="M181.7 50.1H26.3C13 50.1 2 39.1 2 25.7v0C2 12.4 13 1.4 26.3 1.4h155.4c13.4 0 24.3 10.9 24.3 24.3v0c.1 13.4-10.9 24.4-24.3 24.4z" fill="#2b2b2b" stroke="#ddd" stroke-width=".5" stroke-miterlimit="10"/><path d="M148.2 36.3h2V22.6h-2v13.7zm18.4-8.8l-2.3 5.9h-.1l-2.4-5.9h-2.2l3.6 8.3-2.1 4.6h2.1l5.6-12.9h-2.2zM155 34.7c-.7 0-1.6-.3-1.6-1.2 0-1.1 1.2-1.5 2.2-1.5.9 0 1.3.2 1.9.5-.3 1.3-1.3 2.2-2.5 2.2m.2-7.5c-1.5 0-3 .7-3.6 2.1l1.8.8c.4-.8 1.1-1 1.9-1 1.1 0 2.1.6 2.1 1.8v.1c-.4-.2-1.2-.5-2.1-.5-2 0-3.9 1.1-3.9 3.1 0 1.8 1.6 3 3.4 3 1.4 0 2.1-.6 2.6-1.3h.1v1.1h2V31c-.1-2.4-1.9-3.8-4.3-3.8m-12.6 2h-2.9v-4.7h2.9c1.5 0 2.4 1.3 2.4 2.3 0 1.1-.9 2.4-2.4 2.4m-.1-6.6h-4.9v13.7h2v-5.2h2.9c2.3 0 4.5-1.6 4.5-4.3s-2.2-4.2-4.5-4.2m-26.6 12.1c-1.4 0-2.6-1.2-2.6-2.8 0-1.6 1.2-2.8 2.6-2.8 1.4 0 2.5 1.2 2.5 2.8-.1 1.6-1.2 2.8-2.5 2.8m2.3-6.4c-.5-.5-1.4-1-2.5-1-2.3 0-4.5 2-4.5 4.7 0 2.6 2.1 4.6 4.5 4.6 1.1 0 2-.5 2.5-1.1h.1v.7c0 1.8-1 2.7-2.5 2.7-1.3 0-2-.9-2.3-1.7l-1.8.7c.5 1.2 1.9 2.8 4.1 2.8 2.4 0 4.4-1.4 4.4-4.8v-8.4h-1.9v.8zm3.3 8h2V22.6h-2v13.7zm5.1-4.5c0-1.8 1.4-2.8 2.4-2.8.8 0 1.5.4 1.7 1l-4.1 1.8zm6.4-1.6c-.4-1-1.6-3-4-3s-4.4 1.9-4.4 4.7c0 2.6 2 4.7 4.6 4.7 2.1 0 3.4-1.3 3.9-2.1l-1.6-1.1c-.5.8-1.3 1.3-2.3 1.3-1 0-1.8-.5-2.3-1.4l6.2-2.6-.1-.5zm-49.6-1.5v2h4.7c-.1 1.1-.5 1.9-1.1 2.5-.7.7-1.8 1.4-3.7 1.4-2.9 0-5.2-2.3-5.2-5.3 0-2.9 2.3-5.3 5.2-5.3 1.6 0 2.7.6 3.6 1.4l1.4-1.4c-1.2-1.1-2.8-2-5-2-4 0-7.3 3.2-7.3 7.2s3.4 7.2 7.3 7.2c2.2 0 3.8-.7 5-2 1.3-1.3 1.7-3.1 1.7-4.6 0-.5 0-.9-.1-1.2l-6.5.1zm12.1 6c-1.4 0-2.6-1.2-2.6-2.8 0-1.7 1.2-2.8 2.6-2.8 1.4 0 2.6 1.1 2.6 2.8 0 1.7-1.2 2.8-2.6 2.8m0-7.5c-2.6 0-4.7 2-4.7 4.7s2.1 4.7 4.7 4.7 4.7-2 4.7-4.7-2.1-4.7-4.7-4.7m10.2 7.5c-1.4 0-2.6-1.2-2.6-2.8 0-1.7 1.2-2.8 2.6-2.8 1.4 0 2.6 1.1 2.6 2.8 0 1.7-1.2 2.8-2.6 2.8m0-7.5c-2.6 0-4.7 2-4.7 4.7s2.1 4.7 4.7 4.7 4.7-2 4.7-4.7-2.1-4.7-4.7-4.7" fill="#fff" id="path42_9_"/><path class="st356" d="M76.9 11.5c.5-.1 1-.1 1.7-.1 1.1 0 1.9.3 2.5.8.5.5.9 1.2.9 2.2 0 1-.3 1.8-.9 2.4-.6.6-1.5.9-2.7.9-.6 0-1 0-1.4-.1v-6.1zm.8 5.3h.8c1.7 0 2.6-.9 2.6-2.6 0-1.4-.8-2.3-2.5-2.3-.4 0-.7 0-.9.1v4.8zM83.3 15.4c0 1.1.7 1.5 1.5 1.5.6 0 .9-.1 1.2-.2l.1.6c-.3.1-.8.3-1.5.3-1.3 0-2.1-.9-2.1-2.2s.8-2.3 2-2.3c1.4 0 1.8 1.2 1.8 2v.4h-3zm2.4-.6c0-.5-.2-1.3-1.1-1.3-.8 0-1.2.7-1.2 1.3h2.3zM87.3 16.6c.2.1.7.3 1.1.3.6 0 .8-.3.8-.6 0-.4-.2-.6-.8-.8-.8-.3-1.2-.7-1.2-1.2 0-.7.6-1.3 1.5-1.3.4 0 .8.1 1.1.3l-.2.6c-.2-.1-.5-.3-.9-.3-.5 0-.7.3-.7.6 0 .4.3.5.8.7.7.3 1.1.7 1.1 1.3 0 .8-.6 1.3-1.6 1.3-.5 0-.9-.1-1.2-.3l.2-.6zM94.1 17.3c-.2.1-.7.3-1.3.3-1.3 0-2.2-.9-2.2-2.2 0-1.3.9-2.3 2.3-2.3.5 0 .9.1 1.1.2l-.2.6c-.2-.1-.5-.2-.9-.2-1 0-1.5.7-1.5 1.6 0 1 .6 1.6 1.5 1.6.4 0 .7-.1 1-.2l.2.6zM98.1 16.4c0 .4 0 .7.1 1h-.7l-.1-.5c-.2.3-.7.6-1.3.6-.9 0-1.3-.6-1.3-1.3 0-1.1.9-1.6 2.6-1.6v-.1c0-.4-.1-1-1-1-.4 0-.8.1-1.1.3l-.3-.4c.4-.2.9-.4 1.4-.4 1.3 0 1.7.9 1.7 1.8v1.6zm-.8-1.2c-.9 0-1.8.1-1.8 1 0 .5.3.8.7.8.6 0 .9-.4 1.1-.7v-1.1zm.4-4l-1.1 1.3H96l.8-1.3h.9zM99.3 14.4V13h.7v.9c.2-.6.7-1 1.2-1h.2v.7h-.3c-.6 0-1 .4-1.1 1V17.3h-.8v-2.9zM105.9 16.8c0 1-.2 1.6-.6 2-.4.4-1 .5-1.6.5-.5 0-1.1-.1-1.4-.4l.2-.6c.3.2.7.4 1.3.4.8 0 1.4-.4 1.4-1.5v-.5c-.2.4-.7.7-1.4.7-1.1 0-1.9-.9-1.9-2.1 0-1.5 1-2.3 2-2.3.8 0 1.2.4 1.4.7V13h.7v3.8zm-.8-2v-.4c-.1-.5-.5-.8-1.1-.8-.8 0-1.3.6-1.3 1.6 0 .9.4 1.6 1.3 1.6.5 0 .9-.3 1.1-.8 0-.1.1-.3.1-.4v-.8zM110.3 16.4c0 .4 0 .7.1 1h-.7l-.1-.5c-.2.3-.7.6-1.3.6-.9 0-1.3-.6-1.3-1.3 0-1.1.9-1.6 2.6-1.6v-.1c0-.4-.1-1-1-1-.4 0-.8.1-1.1.3l-.2-.5c.4-.2.9-.4 1.4-.4 1.3 0 1.7.9 1.7 1.8v1.7zm-.8-1.2c-.9 0-1.8.1-1.8 1 0 .5.3.8.7.8.6 0 .9-.4 1.1-.7v-1.1zM111.6 11h.8v6.4h-.8V11zM116.8 16.4c0 .4 0 .7.1 1h-.7l-.1-.5c-.2.3-.7.6-1.3.6-.9 0-1.3-.6-1.3-1.3 0-1.1.9-1.6 2.6-1.6v-.1c0-.4-.1-1-1-1-.4 0-.8.1-1.1.3l-.2-.5c.4-.2.9-.4 1.4-.4 1.3 0 1.7.9 1.7 1.8v1.7zm-.8-1.2c-.9 0-1.8.1-1.8 1 0 .5.3.8.7.8.6 0 .9-.4 1.1-.7v-1.1zM120.4 15.4c0 1.1.7 1.5 1.5 1.5.6 0 .9-.1 1.2-.2l.1.6c-.3.1-.8.3-1.5.3-1.3 0-2.1-.9-2.1-2.2s.8-2.3 2-2.3c1.4 0 1.8 1.2 1.8 2v.4h-3zm2.3-.6c0-.5-.2-1.3-1.1-1.3-.8 0-1.2.7-1.2 1.3h2.3zM124.5 14.3v-1.2h.7v.7c.2-.4.7-.8 1.4-.8.6 0 1.5.4 1.5 1.9v2.6h-.8V15c0-.7-.3-1.3-1-1.3-.5 0-.9.4-1.1.8 0 .1-.1.2-.1.4v2.6h-.8v-3.2z"/><g><path d="M39.8 11.2c-.3.3-.5.9-.5 1.6v24.6c0 .7.2 1.2.5 1.6l.1.1 13.8-13.8v-.4L39.8 11.2z" fill="#5bc8f3"/><linearGradient id="SVGID_2_" gradientUnits="userSpaceOnUse" x1="62.782" y1="25.07" x2="35.822" y2="25.07"><stop offset="0" stop-color="#ffdf00"/><stop offset=".409" stop-color="#fbbc0e"/><stop offset=".775" stop-color="#f9a418"/><stop offset="1" stop-color="#f89b1c"/></linearGradient><path d="M58.2 29.8l-4.6-4.6v-.4l4.6-4.6.1.1 5.5 3.1c1.6.9 1.6 2.3 0 3.2l-5.5 3.1-.1.1z" fill="url(#SVGID_2_)"/><linearGradient id="SVGID_4_" gradientUnits="userSpaceOnUse" x1="55.786" y1="27.627" x2="30.428" y2="52.984"><stop offset="0" stop-color="#ee4447"/><stop offset="1" stop-color="#c5166c"/></linearGradient><path d="M58.3 29.8l-4.7-4.7L39.8 39c.5.5 1.4.6 2.3.1l16.2-9.3" fill="url(#SVGID_4_)"/><linearGradient id="SVGID_6_" gradientUnits="userSpaceOnUse" x1="30.316" y1="-2.957" x2="51.019" y2="17.746"><stop offset="0" stop-color="#269e6f"/><stop offset=".051" stop-color="#2ba06f"/><stop offset=".466" stop-color="#53b26b"/><stop offset=".797" stop-color="#6bbd69"/><stop offset="1" stop-color="#74c168"/></linearGradient><path d="M58.3 20.4L42 11.2c-1-.5-1.8-.5-2.3.1l13.9 13.9 4.7-4.8z" fill="url(#SVGID_6_)"/></g></g></switch></svg>