<svg id="Icon" xmlns="http://www.w3.org/2000/svg" viewBox="0 0 24 24"><defs><style>.cls-1{fill:#3b60bd;}.cls-2{fill:#fff;}</style></defs><path class="cls-1" d="M22,11.52a2,2,0,0,1-1.45,1.92A26.55,26.55,0,0,1,12,15,25.52,25.52,0,0,1,3.4,13.34,2,2,0,0,1,2,11.43v-6A2,2,0,0,1,3.44,3.55,26.56,26.56,0,0,1,12,2a26.44,26.44,0,0,1,8.57,1.56A2,2,0,0,1,22,5.48Z"/><path class="cls-1" d="M4.5,15.69l6.83,6.2a1,1,0,0,0,1.34,0l6.75-6.11A23.74,23.74,0,0,1,12,17,22.62,22.62,0,0,1,4.5,15.69Z"/><path class="cls-2" d="M10.57,11.17h0l0,0Z"/><path class="cls-2" d="M9.62,11.21a2.48,2.48,0,0,1,.29-.83A1.31,1.31,0,0,0,9.62,11.21Z"/><path class="cls-2" d="M10.25,10a2.59,2.59,0,0,0-.58,1.36,3,3,0,0,1,.6-1.29Z"/><path class="cls-2" d="M10.88,10.88a.8.8,0,0,0-.13.13l-.11.09-.05.06.05-.05.12-.1.14-.12.09-.1h0Z"/><path class="cls-2" d="M10.79,9.38l.08-.09L11,9.21l0,0a.13.13,0,0,0-.06,0l-.22.2-.07.08,0,.09c0-.06.09-.1.13-.15Z"/><path class="cls-2" d="M7.72,11.54l-.07,0-.21.08-.24,0H7.07a.22.22,0,0,1-.11,0h-.3s-.06,0-.06,0l0,0h0a.06.06,0,0,0,0,0l.05,0h.09l.1,0H7.2a.84.84,0,0,0,.24-.06l.12,0,.09,0,.08,0,.06,0,0,0h0l0,0Z"/><path class="cls-2" d="M6.66,9l0,0,0,0-.06.05-.17.17a1.08,1.08,0,0,0-.13.2l0,.07v0h0v0l0,0,.15-.19c0-.06.11-.11.15-.17Z"/><path class="cls-2" d="M8,8H8Z"/><path class="cls-2" d="M10.59,8.3l.09-.07.12-.09a.73.73,0,0,1,.13-.1l.14-.1a.41.41,0,0,0,.13-.08l.09-.05,0,0h0l0,0-.09,0a1.17,1.17,0,0,0-.28.17,1.36,1.36,0,0,0-.25.2l-.08.08,0,0h0Z"/><path class="cls-2" d="M10.85,8,11,7.9s.06,0,.08-.05.06,0,.09,0l.09,0,.08,0a1.26,1.26,0,0,0,.16-.07l.07,0,0,0h-.13l-.08,0-.08,0-.19.09a1.88,1.88,0,0,0-.18.12L10.83,8a.36.36,0,0,0-.09.09l0,0h0l0,0A.46.46,0,0,0,10.85,8Z"/><path class="cls-2" d="M12,9.2l.09-.31a.22.22,0,0,1,0-.08.19.19,0,0,0,0,.08c0,.07-.06.18-.12.3l-.08.21-.11.22-.06.11a1.17,1.17,0,0,1-.05.11,2.1,2.1,0,0,0-.14.24l-.16.23-.08.11h0l.07-.1c.06-.07.1-.15.16-.22a1.49,1.49,0,0,0,.14-.24l.06-.12a.67.67,0,0,1,.06-.12,1.47,1.47,0,0,0,.1-.22Z"/><path class="cls-2" d="M6.46,9.1a4.12,4.12,0,0,1,.37-.35,6.82,6.82,0,0,1,.79-.53l.28-.14L8,8l-.08,0a1.83,1.83,0,0,0-.29.14,2.48,2.48,0,0,0-.38.22l-.41.3a4.12,4.12,0,0,0-.37.35,1.25,1.25,0,0,0-.15.19l-.11.17a.35.35,0,0,0-.06.16l0,.07s0,0,0,.05v.09a.34.34,0,0,1,0-.09.07.07,0,0,1,0-.05.12.12,0,0,0,0-.07.43.43,0,0,1,0-.07l0-.08a.62.62,0,0,1,.11-.17Z"/><path class="cls-2" d="M13.83,8.43l0-.07c.13-.29.25-.6.38-.89s.26-.61.4-.9S14.88,6,15,5.8l.25-.54.09-.21-.1.2L15,5.79c-.11.23-.24.48-.37.76s-.27.58-.41.9-.24.61-.37.89l0,.1S13.8,8.42,13.83,8.43Z"/><path class="cls-2" d="M14.32,7.5l0-.09,0,.06A0,0,0,0,0,14.32,7.5Z"/><path class="cls-2" d="M14.63,6.82l.17-.39c.07-.13.12-.26.18-.39s.1-.23.16-.34l.1-.23,0-.1,0,.09a2.65,2.65,0,0,0-.12.24A2.68,2.68,0,0,0,15,6c-.06.12-.13.25-.19.39s-.12.26-.17.39-.11.24-.15.34l-.09.25a2.22,2.22,0,0,0,.11-.25A3.68,3.68,0,0,0,14.63,6.82Z"/><path class="cls-2" d="M12.23,8.44v-.2a.43.43,0,0,0,0,0,.92.92,0,0,1,0,.15,1,1,0,0,1,0,.21l-.05.24-.07.25-.07.2-.06.15a.06.06,0,0,0,0,0h0l0,0A.64.64,0,0,0,12,9.35l.09-.2.07-.25c0-.09,0-.17,0-.24S12.22,8.5,12.23,8.44Z"/><path class="cls-2" d="M14.32,7.5l0-.09,0,.06A0,0,0,0,0,14.32,7.5Z"/><path class="cls-2" d="M15.12,5.7A2.68,2.68,0,0,0,15,6c-.06.12-.13.25-.19.39s-.12.26-.17.39-.11.24-.15.34l-.09.25a2.22,2.22,0,0,0,.11-.25,3.68,3.68,0,0,0,.16-.34l.17-.39c.07-.13.12-.26.18-.39s.1-.23.16-.34l.1-.23,0-.1,0,.09A2.65,2.65,0,0,0,15.12,5.7Z"/><path class="cls-2" d="M13.69,8.77c.05-.11.09-.22.14-.34l0-.07c.13-.29.25-.6.38-.89s.26-.61.4-.9S14.88,6,15,5.8l.25-.54.09-.21-.1.2L15,5.79c-.11.23-.24.48-.37.76s-.27.58-.41.9-.24.61-.37.89l0,.1-.12.32c-.06.14-.1.26-.14.38s-.15.43-.19.56a1.16,1.16,0,0,0-.06.16s0,0,0,.06l.09-.22.21-.55C13.6,9,13.63,8.9,13.69,8.77Z"/><path class="cls-2" d="M13.63,10.23l.08-.24.19-.5L14.08,9l.2-.5.13-.31a.31.31,0,0,0,.05-.12v0a.28.28,0,0,1,0,.08l-.15.31-.08.2-.1.23-.15.37-.06.13-.19.52-.07.23c0,.09,0,.15-.06.22a1.67,1.67,0,0,0-.05.18.93.93,0,0,0,0,.14.38.38,0,0,1,0-.13.72.72,0,0,1,0-.19A1,1,0,0,0,13.63,10.23Z"/><path class="cls-2" d="M15.67,9l.23-.56A3,3,0,0,0,16,8.1c.06-.16.1-.27.14-.36l0-.09a.1.1,0,0,0,0,0h0l-.07.13L16,8.09c-.13.29-.21.47-.37.85h.06Z"/><polygon class="cls-2" points="15.1 11.04 15.1 11.04 15.1 11.04 15.1 11.04"/><path class="cls-2" d="M17.45,9.66l-.12.2-.12.2a.71.71,0,0,1-.11.17.41.41,0,0,1-.08.12l0,0s0,0,0,0,.06-.06.09-.12a1.63,1.63,0,0,1,.11-.17l.13-.19.11-.21.09-.19a1.39,1.39,0,0,0,.06-.13.76.76,0,0,0-.07.13A1.45,1.45,0,0,0,17.45,9.66Z"/><path class="cls-2" d="M17.14,10.08l.1-.16.09-.16s0-.09.06-.11,0,0,0,0l0,0a.44.44,0,0,0-.06.1l-.1.15-.11.17-.11.17-.11.14-.07.1.09-.1a.81.81,0,0,0,.11-.13Z"/><path class="cls-2" d="M17,7a3.54,3.54,0,0,0,.7-1c0-.08-.37-.58-.54-.56s-.53,1-.53,1.09S16.84,7,17,7Z"/><path class="cls-2" d="M17.54,8.75c-.33.7-1,2-1.85,2.08-.22,0,1.09-2.73,1.09-2.87s-.41-.7-.55-.54-.4.82-.74,1.64-1,2.07-1.77,2.14c-.12,0-.19,0-.19-.14,0-1.25,2.36-5.66,2.36-5.92s-.48-.53-.54-.53-.08,0-.08.1-1.21,2.5-1.91,4.34a2.42,2.42,0,0,1-1.2,1.22,3.21,3.21,0,0,0,.43-1.37c0-.9-.62-1.43-.92-1.4-.57,0-1.57.83-1.57,1.43v.14l-.25.34a.28.28,0,0,0-.06.08l0,0a6.48,6.48,0,0,0-.33.57,4.1,4.1,0,0,1-1,1.07,2.33,2.33,0,0,0,0-.29c0-.82-1.9-.89-1.9-1,0-.55,1.67-1.35,1.67-1.21s-.36.68-.38.82.43.11.51.1a1.8,1.8,0,0,0,.48-.88c0-.33-.11-.87-.48-.83-.55.05-2.24.91-2.34,2s2.06.79,2,1.24-1.77.94-1.71,0c0-.06-.19,0-.23.38a.76.76,0,0,0,.86.88l.22,0a3.41,3.41,0,0,0,2-1,1.37,1.37,0,0,0,1,.72,2.5,2.5,0,0,0,1.51-1.15h.16a2,2,0,0,0,1-.37,1.38,1.38,0,0,0,0,.26c0,.59.74,1,1.14.93a1.52,1.52,0,0,0,1-.59,1.25,1.25,0,0,0,.82.43C16.9,11.47,18,9.52,18,9.18S17.61,8.64,17.54,8.75ZM6.17,9.53a.43.43,0,0,0,0,.07.12.12,0,0,1,0,.07.07.07,0,0,0,0,.05.34.34,0,0,0,0,.09V9.72s0,0,0-.05l0-.07a.35.35,0,0,1,.06-.16l.11-.17a1.25,1.25,0,0,1,.15-.19,4.12,4.12,0,0,1,.37-.35l.41-.3a2.48,2.48,0,0,1,.38-.22,1.83,1.83,0,0,1,.29-.14L8,8H8l-.08,0-.28.14a6.82,6.82,0,0,0-.79.53,4.12,4.12,0,0,0-.37.35l-.14.18a.62.62,0,0,0-.11.17Zm.14-.09,0,0v0h0v0l0-.07a1.08,1.08,0,0,1,.13-.2l.17-.17L6.66,9l0,0,0,0,0,.06c0,.06-.1.11-.15.17Zm1.51,2.05,0,0-.06,0-.08,0-.09,0-.12,0a.84.84,0,0,1-.24.06H6.84l-.1,0H6.65l-.05,0a.06.06,0,0,1,0,0h0l0,0s0,0,.06,0H7a.22.22,0,0,0,.11,0H7.2l.24,0,.21-.08.07,0,.07,0,0,0Zm2.9-3.4,0,0A.36.36,0,0,1,10.83,8L11,7.87a1.88,1.88,0,0,1,.18-.12l.19-.09.08,0,.08,0h.13l0,0-.07,0a1.26,1.26,0,0,1-.16.07l-.08,0-.09,0s-.06,0-.09,0-.06,0-.08.05l-.15.1a.46.46,0,0,1-.1.07l0,0Zm-.13.21.08-.08a1.36,1.36,0,0,1,.25-.2,1.17,1.17,0,0,1,.28-.17l.09,0,0,0h0l0,0-.09.05a.41.41,0,0,1-.13.08l-.14.1a.73.73,0,0,0-.13.1l-.12.09-.09.07,0,0h0Zm0,1.26.07-.08.22-.2a.13.13,0,0,1,.06,0l0,0-.09.08-.08.09-.11.12c0,.05-.09.09-.13.15Zm-.67.82a2.48,2.48,0,0,0-.29.83A1.31,1.31,0,0,1,9.91,10.38Zm.34-.43,0,.07a3,3,0,0,0-.6,1.29A2.59,2.59,0,0,1,10.25,10Zm-.48,1.5a2.37,2.37,0,0,1,.53-1.36,1.26,1.26,0,0,0,.63.68A1.89,1.89,0,0,1,9.77,11.45Zm1.13-.56-.14.12-.12.1-.05.05h0l0,0,0,0,.05-.06.11-.09a.8.8,0,0,1,.13-.13l.09-.09h0ZM10.53,9.8a4.33,4.33,0,0,1,.55-.57c.06-.06,0-.23-.13-.37a1.78,1.78,0,0,1,1-.76c.1,0,.15.05.15.16a4.33,4.33,0,0,1-.9,2.16C10.69,10.4,10.5,10.14,10.53,9.8Zm1.21-.06-.06.12a1.49,1.49,0,0,1-.14.24c-.06.07-.1.15-.16.22l-.07.1h0l.08-.11.16-.23a2.1,2.1,0,0,1,.14-.24,1.17,1.17,0,0,0,.05-.11l.06-.11.11-.22L12,9.19c.06-.12.09-.23.12-.3a.19.19,0,0,1,0-.08.22.22,0,0,0,0,.08L12,9.2l-.09.2a1.47,1.47,0,0,1-.1.22A.67.67,0,0,0,11.74,9.74Zm.34-.59-.09.2a.64.64,0,0,1-.06.14l0,0h0a.06.06,0,0,1,0,0L12,9.34l.07-.2.07-.25.05-.24a1,1,0,0,0,0-.21.92.92,0,0,0,0-.15.43.43,0,0,1,0,0v.2c0,.06,0,.13,0,.22s0,.15,0,.24Zm3.16-3.68-.1.23c-.06.11-.1.22-.16.34s-.11.26-.18.39l-.17.39a3.68,3.68,0,0,1-.16.34,2.22,2.22,0,0,1-.11.25l0,.09a0,0,0,0,1,0,0l0-.06.09-.25c0-.1.09-.22.15-.34s.11-.26.17-.39S14.9,6.16,15,6a2.68,2.68,0,0,1,.16-.34,2.65,2.65,0,0,1,.12-.24l0-.09Zm-2,4.45s0,0,0-.06a1.16,1.16,0,0,1,.06-.16c0-.13.1-.33.19-.56s.08-.24.14-.38l.12-.32,0-.1c.13-.28.24-.58.37-.89s.28-.61.41-.9.26-.53.37-.76l.27-.54.1-.2-.09.21L15,5.8c-.1.23-.22.49-.35.77s-.27.58-.4.9-.25.6-.38.89l0,.07c-.05.12-.09.23-.14.34s-.09.25-.15.38l-.21.55Zm.24.84a.93.93,0,0,1,0-.14,1.67,1.67,0,0,1,.05-.18c0-.07,0-.13.06-.22l.07-.23.19-.52.06-.13L14.08,9l.1-.23.08-.2.15-.31a.28.28,0,0,0,0-.08v0a.31.31,0,0,1-.05.12l-.13.31-.2.5-.18.45-.19.5-.08.24a1,1,0,0,1-.07.21.72.72,0,0,0,0,.19A.38.38,0,0,0,13.48,10.76Zm2-1.19c0,.06,0,.11,0,.18l-.09.25a1.52,1.52,0,0,0-.09.28l-.1.29c0,.09,0,.17-.07.25a1.41,1.41,0,0,0,0,.18s0,0,0,0h0s0,0,0,0a.39.39,0,0,1,0-.18,1.19,1.19,0,0,1,.05-.26l.09-.28.1-.29.1-.25.07-.17,0-.07Zm-.07,0-.11.26a1.35,1.35,0,0,1-.08.24l-.13.36c0,.06,0,.1,0,.14a.08.08,0,0,1,0,0s0,0,0-.1l.11-.36c.1-.31.24-.7.4-1.08h0c.16-.38.24-.56.37-.85l.16-.35.07-.13h0a.1.1,0,0,1,0,0l0,.09c0,.09-.08.2-.14.36a3,3,0,0,1-.12.29L15.67,9h0C15.58,9.16,15.51,9.35,15.44,9.53Zm1.47.85-.09.1.07-.1.11-.14.11-.17.11-.17.1-.15a.44.44,0,0,1,.06-.1l0,0s0,0,0,0,0,.07-.06.11l-.09.16-.1.16-.12.17A.81.81,0,0,1,16.91,10.38Zm.65-.9-.09.19-.11.21-.13.19a1.63,1.63,0,0,0-.11.17c0,.06-.07.08-.09.12s0,0,0,0l0,0a.41.41,0,0,0,.08-.12.71.71,0,0,0,.11-.17l.12-.2.12-.2a1.45,1.45,0,0,1,.1-.18.76.76,0,0,1,.07-.13A1.39,1.39,0,0,1,17.56,9.48Z"/></svg>