<?xml version="1.0" encoding="utf-8"?>
<!-- Generator: Adobe Illustrator 24.0.1, SVG Export Plug-In . SVG Version: 6.00 Build 0)  -->
<svg version="1.1" id="Capa_1" xmlns="http://www.w3.org/2000/svg" xmlns:xlink="http://www.w3.org/1999/xlink" x="0px" y="0px"
	 viewBox="0 0 500 617.5" style="enable-background:new 0 0 500 617.5;" xml:space="preserve">
<style type="text/css">
	.st0{clip-path:url(#SVGID_2_);}
	.st1{clip-path:url(#SVGID_4_);}
	.st2{clip-path:url(#SVGID_6_);}
	.st3{fill:none;}
	.st4{fill:#7C2282;}
	.st5{clip-path:url(#SVGID_8_);}
	.st6{fill:#62256E;}
	.st7{clip-path:url(#SVGID_10_);}
	.st8{clip-path:url(#SVGID_12_);}
	.st9{clip-path:url(#SVGID_14_);}
	.st10{fill:#401D4B;}
	.st11{clip-path:url(#SVGID_16_);}
	.st12{fill:#8A3E8F;}
	.st13{clip-path:url(#SVGID_18_);}
	.st14{fill-rule:evenodd;clip-rule:evenodd;fill:#8A3E8F;}
	.st15{clip-path:url(#SVGID_20_);}
	.st16{clip-path:url(#SVGID_22_);}
	.st17{clip-path:url(#SVGID_24_);}
	.st18{clip-path:url(#SVGID_26_);}
	.st19{clip-path:url(#SVGID_28_);}
	.st20{clip-path:url(#SVGID_30_);}
	.st21{clip-path:url(#SVGID_32_);}
	.st22{clip-path:url(#SVGID_34_);}
	.st23{clip-path:url(#SVGID_36_);}
	.st24{clip-path:url(#SVGID_38_);}
	.st25{clip-path:url(#SVGID_40_);}
	.st26{clip-path:url(#SVGID_42_);}
	.st27{clip-path:url(#SVGID_44_);}
	.st28{fill-rule:evenodd;clip-rule:evenodd;fill:#FFFFFF;filter:url(#Adobe_OpacityMaskFilter);}
	.st29{mask:url(#mask0_663_298_4_);}
	.st30{fill-rule:evenodd;clip-rule:evenodd;fill:#41B5A3;}
	.st31{fill-rule:evenodd;clip-rule:evenodd;fill:#FFFFFF;filter:url(#Adobe_OpacityMaskFilter_1_);}
	.st32{mask:url(#mask1_663_298_4_);}
	.st33{fill-rule:evenodd;clip-rule:evenodd;fill:#FFFFFF;filter:url(#Adobe_OpacityMaskFilter_2_);}
	.st34{mask:url(#mask2_663_298_4_);}
	.st35{fill-rule:evenodd;clip-rule:evenodd;fill:#5BC1DA;}
	.st36{fill-rule:evenodd;clip-rule:evenodd;fill:#FFFFFF;filter:url(#Adobe_OpacityMaskFilter_3_);}
	.st37{mask:url(#mask3_663_298_4_);}
	.st38{fill-rule:evenodd;clip-rule:evenodd;fill:#E62F4A;}
	.st39{fill-rule:evenodd;clip-rule:evenodd;fill:#FFFFFF;filter:url(#Adobe_OpacityMaskFilter_4_);}
	.st40{mask:url(#mask4_663_298_4_);}
	.st41{fill-rule:evenodd;clip-rule:evenodd;fill:#FFFFFF;filter:url(#Adobe_OpacityMaskFilter_5_);}
	.st42{mask:url(#mask5_663_298_4_);}
	.st43{fill-rule:evenodd;clip-rule:evenodd;fill:#FFFFFF;filter:url(#Adobe_OpacityMaskFilter_6_);}
	.st44{mask:url(#mask6_663_298_4_);}
	.st45{fill-rule:evenodd;clip-rule:evenodd;fill:#FFFFFF;filter:url(#Adobe_OpacityMaskFilter_7_);}
	.st46{mask:url(#mask7_663_298_4_);}
	.st47{fill-rule:evenodd;clip-rule:evenodd;fill:#FFFFFF;filter:url(#Adobe_OpacityMaskFilter_8_);}
	.st48{mask:url(#mask8_663_298_4_);}
	.st49{fill-rule:evenodd;clip-rule:evenodd;fill:#F7A810;}
	.st50{fill-rule:evenodd;clip-rule:evenodd;fill:#FFFFFF;filter:url(#Adobe_OpacityMaskFilter_9_);}
	.st51{mask:url(#mask9_663_298_4_);}
	.st52{fill-rule:evenodd;clip-rule:evenodd;fill:#FFFFFF;filter:url(#Adobe_OpacityMaskFilter_10_);}
	.st53{mask:url(#mask10_663_298_4_);}
	.st54{fill-rule:evenodd;clip-rule:evenodd;fill:#FFFFFF;filter:url(#Adobe_OpacityMaskFilter_11_);}
	.st55{mask:url(#mask11_663_298_4_);}
	.st56{fill-rule:evenodd;clip-rule:evenodd;fill:#FFFFFF;filter:url(#Adobe_OpacityMaskFilter_12_);}
	.st57{mask:url(#mask12_663_298_4_);}
	.st58{fill-rule:evenodd;clip-rule:evenodd;fill:#FFFFFF;filter:url(#Adobe_OpacityMaskFilter_13_);}
	.st59{mask:url(#mask13_663_298_4_);}
	.st60{fill-rule:evenodd;clip-rule:evenodd;fill:#FFFFFF;filter:url(#Adobe_OpacityMaskFilter_14_);}
	.st61{mask:url(#mask14_663_298_4_);}
	.st62{fill-rule:evenodd;clip-rule:evenodd;fill:#FFFFFF;filter:url(#Adobe_OpacityMaskFilter_15_);}
	.st63{mask:url(#mask15_663_298_4_);}
	.st64{fill-rule:evenodd;clip-rule:evenodd;fill:#FFFFFF;filter:url(#Adobe_OpacityMaskFilter_16_);}
	.st65{mask:url(#mask16_663_298_4_);}
	.st66{fill-rule:evenodd;clip-rule:evenodd;fill:#FFFFFF;filter:url(#Adobe_OpacityMaskFilter_17_);}
	.st67{mask:url(#mask17_663_298_4_);}
	.st68{fill-rule:evenodd;clip-rule:evenodd;fill:#FFFFFF;filter:url(#Adobe_OpacityMaskFilter_18_);}
	.st69{mask:url(#mask18_663_298_4_);}
	.st70{fill-rule:evenodd;clip-rule:evenodd;fill:#FFFFFF;filter:url(#Adobe_OpacityMaskFilter_19_);}
	.st71{mask:url(#mask19_663_298_4_);}
	.st72{fill-rule:evenodd;clip-rule:evenodd;fill:#FFFFFF;filter:url(#Adobe_OpacityMaskFilter_20_);}
	.st73{mask:url(#mask20_663_298_4_);}
	.st74{fill-rule:evenodd;clip-rule:evenodd;fill:#FFFFFF;filter:url(#Adobe_OpacityMaskFilter_21_);}
	.st75{mask:url(#mask21_663_298_4_);}
	.st76{fill-rule:evenodd;clip-rule:evenodd;fill:#FFFFFF;filter:url(#Adobe_OpacityMaskFilter_22_);}
	.st77{mask:url(#mask22_663_298_4_);}
	.st78{fill-rule:evenodd;clip-rule:evenodd;fill:#FFFFFF;filter:url(#Adobe_OpacityMaskFilter_23_);}
	.st79{mask:url(#mask23_663_298_4_);}
	.st80{fill-rule:evenodd;clip-rule:evenodd;fill:#FFFFFF;filter:url(#Adobe_OpacityMaskFilter_24_);}
	.st81{mask:url(#mask0_663_298_3_);}
	.st82{fill-rule:evenodd;clip-rule:evenodd;fill:#FFFFFF;filter:url(#Adobe_OpacityMaskFilter_25_);}
	.st83{mask:url(#mask1_663_298_3_);}
	.st84{fill-rule:evenodd;clip-rule:evenodd;fill:#FFFFFF;filter:url(#Adobe_OpacityMaskFilter_26_);}
	.st85{mask:url(#mask2_663_298_3_);}
	.st86{fill-rule:evenodd;clip-rule:evenodd;fill:#FFFFFF;filter:url(#Adobe_OpacityMaskFilter_27_);}
	.st87{mask:url(#mask3_663_298_3_);}
	.st88{fill-rule:evenodd;clip-rule:evenodd;fill:#FFFFFF;filter:url(#Adobe_OpacityMaskFilter_28_);}
	.st89{mask:url(#mask4_663_298_3_);}
	.st90{fill-rule:evenodd;clip-rule:evenodd;fill:#FFFFFF;filter:url(#Adobe_OpacityMaskFilter_29_);}
	.st91{mask:url(#mask5_663_298_3_);}
	.st92{fill-rule:evenodd;clip-rule:evenodd;fill:#FFFFFF;filter:url(#Adobe_OpacityMaskFilter_30_);}
	.st93{mask:url(#mask6_663_298_3_);}
	.st94{fill-rule:evenodd;clip-rule:evenodd;fill:#FFFFFF;filter:url(#Adobe_OpacityMaskFilter_31_);}
	.st95{mask:url(#mask7_663_298_3_);}
	.st96{fill-rule:evenodd;clip-rule:evenodd;fill:#FFFFFF;filter:url(#Adobe_OpacityMaskFilter_32_);}
	.st97{mask:url(#mask8_663_298_3_);}
	.st98{fill-rule:evenodd;clip-rule:evenodd;fill:#FFFFFF;filter:url(#Adobe_OpacityMaskFilter_33_);}
	.st99{mask:url(#mask9_663_298_3_);}
	.st100{fill-rule:evenodd;clip-rule:evenodd;fill:#FFFFFF;filter:url(#Adobe_OpacityMaskFilter_34_);}
	.st101{mask:url(#mask10_663_298_3_);}
	.st102{fill-rule:evenodd;clip-rule:evenodd;fill:#FFFFFF;filter:url(#Adobe_OpacityMaskFilter_35_);}
	.st103{mask:url(#mask11_663_298_3_);}
	.st104{fill-rule:evenodd;clip-rule:evenodd;fill:#FFFFFF;filter:url(#Adobe_OpacityMaskFilter_36_);}
	.st105{mask:url(#mask12_663_298_3_);}
	.st106{fill-rule:evenodd;clip-rule:evenodd;fill:#FFFFFF;filter:url(#Adobe_OpacityMaskFilter_37_);}
	.st107{mask:url(#mask13_663_298_3_);}
	.st108{fill-rule:evenodd;clip-rule:evenodd;fill:#FFFFFF;filter:url(#Adobe_OpacityMaskFilter_38_);}
	.st109{mask:url(#mask14_663_298_3_);}
	.st110{fill-rule:evenodd;clip-rule:evenodd;fill:#FFFFFF;filter:url(#Adobe_OpacityMaskFilter_39_);}
	.st111{mask:url(#mask15_663_298_3_);}
	.st112{fill-rule:evenodd;clip-rule:evenodd;fill:#FFFFFF;filter:url(#Adobe_OpacityMaskFilter_40_);}
	.st113{mask:url(#mask16_663_298_3_);}
	.st114{fill-rule:evenodd;clip-rule:evenodd;fill:#FFFFFF;filter:url(#Adobe_OpacityMaskFilter_41_);}
	.st115{mask:url(#mask17_663_298_3_);}
	.st116{fill-rule:evenodd;clip-rule:evenodd;fill:#FFFFFF;filter:url(#Adobe_OpacityMaskFilter_42_);}
	.st117{mask:url(#mask18_663_298_3_);}
	.st118{fill-rule:evenodd;clip-rule:evenodd;fill:#FFFFFF;filter:url(#Adobe_OpacityMaskFilter_43_);}
	.st119{mask:url(#mask19_663_298_3_);}
	.st120{fill-rule:evenodd;clip-rule:evenodd;fill:#FFFFFF;filter:url(#Adobe_OpacityMaskFilter_44_);}
	.st121{mask:url(#mask20_663_298_3_);}
	.st122{fill-rule:evenodd;clip-rule:evenodd;fill:#FFFFFF;filter:url(#Adobe_OpacityMaskFilter_45_);}
	.st123{mask:url(#mask21_663_298_3_);}
	.st124{fill-rule:evenodd;clip-rule:evenodd;fill:#FFFFFF;filter:url(#Adobe_OpacityMaskFilter_46_);}
	.st125{mask:url(#mask22_663_298_3_);}
	.st126{fill-rule:evenodd;clip-rule:evenodd;fill:#FFFFFF;filter:url(#Adobe_OpacityMaskFilter_47_);}
	.st127{mask:url(#mask23_663_298_3_);}
	.st128{fill:#F9D7B7;}
	.st129{fill:#D8A980;}
	.st130{clip-path:url(#SVGID_46_);}
	.st131{fill:#403456;}
	.st132{fill:#2C1F44;}
	.st133{fill:#3860A9;}
	.st134{fill:#544969;}
	.st135{fill:#FFFFFF;}
	.st136{fill:#F9CA9F;}
	.st137{fill:#943043;}
	.st138{clip-path:url(#SVGID_48_);}
	.st139{clip-path:url(#SVGID_50_);fill:#742583;}
	.st140{clip-path:url(#SVGID_50_);}
	.st141{fill:#44B6A8;}
	.st142{fill:#DB4B65;}
	.st143{fill:#F9B500;}
	.st144{fill:#742583;}
	.st145{font-family:'PassionOne-Bold';}
	.st146{font-size:46.7557px;}
	.st147{font-family:'Roboto-Regular';}
	.st148{font-size:18.9929px;}
</style>
<g>
	<defs>
		<rect id="SVGID_1_" x="0" width="500" height="617.5"/>
	</defs>
	<clipPath id="SVGID_2_">
		<use xlink:href="#SVGID_1_"  style="overflow:visible;"/>
	</clipPath>
	<g class="st0">
		<g>
			<defs>
				<rect id="SVGID_3_" x="-1.5" y="-91" width="503.1" height="1006.1"/>
			</defs>
			<clipPath id="SVGID_4_">
				<use xlink:href="#SVGID_3_"  style="overflow:visible;"/>
			</clipPath>
			<g class="st1">
				<defs>
					<rect id="SVGID_5_" x="-1.5" y="-96.6" width="503.1" height="1020"/>
				</defs>
				<clipPath id="SVGID_6_">
					<use xlink:href="#SVGID_5_"  style="overflow:visible;"/>
				</clipPath>
				<g class="st2">
					<rect x="-467.4" y="17" class="st3" width="1395.6" height="785"/>
					<rect x="-613.1" y="-96.6" class="st4" width="1756.7" height="898.7"/>
					<g>
						<defs>
							<rect id="SVGID_7_" x="-169.4" y="308.8" width="869.3" height="1429"/>
						</defs>
						<clipPath id="SVGID_8_">
							<use xlink:href="#SVGID_7_"  style="overflow:visible;"/>
						</clipPath>
						<g class="st5">
							<path class="st6" d="M664.7,379.3L664.7,379.3l5.5,0v-14H547v14h5.5v134.2h-26.3V426h-16.3v-20.2h-13.6v-13.2h-43.7v13.2
								h-13.6V426h-16.3v60.4h-14.2V378.3h-74.7v82.9h-36.1V354.5h-9.3v-13.6h-72.5v13.6h-9.3v146.3h-26.2v-89.4h-10.6v-12h-19.5
								v-38.5h-17.1v38.5h-19.5v12h-10.6v64H72.4v-71.5h-68v-11.1h-26.5v11.1H-37v104.4h-32V308.8h-100.4v1429H700V416.2h-35.2
								V379.3z"/>
						</g>
					</g>
					<g>
						<defs>
							<rect id="SVGID_9_" x="700" y="448.8" width="869.3" height="1429"/>
						</defs>
						<clipPath id="SVGID_10_">
							<use xlink:href="#SVGID_9_"  style="overflow:visible;"/>
						</clipPath>
						<g class="st7">
							<path class="st6" d="M1534.1,519.3L1534.1,519.3l5.5,0v-14h-123.2v14h5.5v134.2h-26.3V566h-16.3v-20.2h-13.6v-13.2h-43.7
								v13.2h-13.6V566h-16.3v60.4h-14.2V518.3h-74.7v82.9H1167V494.5h-9.3v-13.6h-72.5v13.6h-9.3v146.3h-26.2v-89.4h-10.6v-12
								h-19.5v-38.5h-17.1v38.5h-19.5v12h-10.6v64h-30.9v-71.5h-68v-11.1h-26.5v11.1h-14.9v104.4h-32V448.8H700v1429h869.3V556.2
								h-35.2V519.3z"/>
						</g>
					</g>
					<g>
						<defs>
							<rect id="SVGID_11_" x="-1038.7" y="448.8" width="869.3" height="1429"/>
						</defs>
						<clipPath id="SVGID_12_">
							<use xlink:href="#SVGID_11_"  style="overflow:visible;"/>
						</clipPath>
						<g class="st8">
							<path class="st6" d="M-204.6,519.3L-204.6,519.3l5.5,0v-14h-123.2v14h5.5v134.2h-26.3V566h-16.3v-20.2h-13.6v-13.2h-43.7
								v13.2h-13.6V566h-16.3v60.4h-14.1V518.3h-74.7v82.9h-36.1V494.5h-9.3v-13.6h-72.5v13.6h-9.3v146.3h-26.2v-89.4h-10.6v-12
								h-19.5v-38.5H-736v38.5h-19.5v12h-10.6v64H-797v-71.5h-68v-11.1h-26.5v11.1h-14.9v104.4h-32V448.8h-100.4v1429h869.3V556.2
								h-35.2V519.3z"/>
						</g>
					</g>
					<g>
						<defs>
							<rect id="SVGID_13_" x="-726.2" y="434.6" width="869.3" height="1429"/>
						</defs>
						<clipPath id="SVGID_14_">
							<use xlink:href="#SVGID_13_"  style="overflow:visible;"/>
						</clipPath>
						<g class="st9">
							<path class="st10" d="M107.9,505L107.9,505l5.5,0v-14H-9.8v14h5.5v134.2h-26.3v-87.4h-16.3v-20.2h-13.6v-13.2h-43.7v13.2
								h-13.6v20.2h-16.3v60.4h-14.1V504H-223v82.9h-36.1V480.2h-9.3v-13.6h-72.5v13.6h-9.3v146.3h-26.2v-89.4h-10.6v-12h-19.5
								v-38.5h-17.1v38.5h-19.5v12h-10.6v64h-30.9v-71.5h-68v-11.1h-26.5v11.1h-14.9v104.4h-32V434.6h-100.4v1429h869.3V541.9h-35.2
								V505z"/>
						</g>
					</g>
					<g>
						<defs>
							<rect id="SVGID_15_" x="143.2" y="434.6" width="869.3" height="1429"/>
						</defs>
						<clipPath id="SVGID_16_">
							<use xlink:href="#SVGID_15_"  style="overflow:visible;"/>
						</clipPath>
						<g class="st11">
							<path class="st10" d="M977.3,505L977.3,505l5.5,0v-14H859.6v14h5.5v134.2h-26.3v-87.4h-16.3v-20.2h-13.6v-13.2h-43.7v13.2
								h-13.6v20.2h-16.3v60.4H721V504h-74.7v82.9h-36.1V480.2H601v-13.6h-72.5v13.6h-9.3v146.3h-26.2v-89.4h-10.6v-12H463v-38.5
								h-17.1v38.5h-19.5v12h-10.6v64h-30.9v-71.5h-68v-11.1h-26.5v11.1h-14.9v104.4h-32V434.6H143.2v1429h869.3V541.9h-35.2V505z"
								/>
						</g>
					</g>
					<path class="st12" d="M-277.7,327c-3.1-10.5-15-18.5-29.7-19.4c-3-7.6-12.4-13.2-23.5-13.2c-5.5,0-10.6,1.4-14.7,3.7
						c-4.3-9.4-16.2-16.2-30.2-16.2c-17.6,0-31.9,10.8-31.9,24c0,4.1,1.4,8,3.8,11.3c-1.6,1-3.1,2.2-4.3,3.5c-1.9,1.3-3.4,3-4.4,4.8
						c-0.8,0.4-1.6,0.9-2.4,1.3L-277.7,327L-277.7,327z"/>
					<path class="st12" d="M-167.9,391.7c-1.2-7.8-7-13.7-13.9-13.7c-0.6,0-1.2,0.1-1.8,0.1c-3.1-8.1-10.1-13.8-18.1-13.8
						c-3.4,0-6.7,1-9.5,2.9c-4-5.1-9.8-8.3-16.1-8.3c-9.1,0-16.9,6.5-20.3,15.7c-1.7-0.7-3.5-1.1-5.4-1.1c-8.6,0-15.6,8-16,18.1
						H-167.9z"/>
					<path class="st12" d="M699.3,333.5c0.1-0.5,0.2-1,0.3-1.6c2.9-17.2-11.2-33.1-31.6-35.6c-10.5-1.3-20.6,1.3-28.3,6.4
						c-4.1-17.1-20.5-30.9-42-33.5c-27.4-3.3-52.8,12.8-56.8,35.9c-0.2,1.2-0.3,2.4-0.4,3.6c-0.1,0-0.1,0-0.2,0
						c-18.7-2.3-36,8.7-38.7,24.5c0,0.1,0,0.2,0,0.3H699.3z"/>
					<path class="st12" d="M132.1,317.5c0.1-14.3,9.6-25.9,21.3-25.9c3.2,0,6.2,0.9,8.9,2.4c4.7-9.8,13.4-16.4,23.4-16.4
						c9.2,0,17.4,5.6,22.2,14.3c1.7-0.5,3.5-0.8,5.4-0.8c7.3,0,13.8,4.5,17.7,11.3c2.2-1.3,4.7-2,7.4-2c8.5,0,15.6,7.4,17.4,17.2
						L132.1,317.5L132.1,317.5z"/>
					<path class="st12" d="M835.9,372c1.2-7.8,7-13.7,13.9-13.7c0.6,0,1.2,0.1,1.8,0.1c3.1-8.1,10.1-13.8,18.1-13.8
						c3.4,0,6.7,1,9.5,2.9c4-5.1,9.8-8.3,16.1-8.3c9.1,0,16.9,6.5,20.3,15.7c1.7-0.7,3.5-1.1,5.4-1.1c8.6,0,15.6,8,16,18.1H835.9z"
						/>
					<path class="st12" d="M758.1,384.4c0.1-11.7,7.9-21.2,17.4-21.2c2.6,0,5,0.7,7.3,1.9c3.8-8,11-13.4,19.1-13.4
						c7.5,0,14.2,4.6,18.2,11.7c1.4-0.4,2.9-0.7,4.4-0.7c6,0,11.3,3.7,14.5,9.2c1.8-1,3.9-1.6,6-1.6c7,0,12.8,6,14.2,14.1
						L758.1,384.4L758.1,384.4z"/>
					<path class="st12" d="M213.2,266.7c0-0.3,0-0.7,0-1c0-16.3,13.4-29.6,29.9-29.6c0.6,0,1.3,0,1.9,0.1
						C251.8,225.2,264,218,278,218c13.9,0,26.2,7.3,33.1,18.2c0.7-0.1,1.5-0.1,2.2-0.1c9.3,0,17.5,4.2,23,10.7
						c1.2-0.2,2.5-0.3,3.8-0.3c12.2,0,22.2,8.7,24.2,20.2L213.2,266.7L213.2,266.7z M253.6,226.5c0.6-0.5,1.3-1,2.1-1.6
						C254.9,225.4,254.2,225.9,253.6,226.5z"/>
					<path class="st12" d="M125,333.5c-1.1-7.6-6.5-13.4-13-13.4c-0.6,0-1.1,0.1-1.7,0.1c-2.9-7.9-9.4-13.5-16.9-13.5
						c-3.2,0-6.2,1-8.9,2.8c-3.8-5-9.1-8.1-15.1-8.1c-8.5,0-15.8,6.3-19,15.4c-1.6-0.7-3.3-1.1-5-1.1c-8,0-14.6,7.8-14.9,17.7H125z"
						/>
					<g>
						<defs>
							<rect id="SVGID_17_" x="159.2" y="115.2" width="64.7" height="70.5"/>
						</defs>
						<clipPath id="SVGID_18_">
							<use xlink:href="#SVGID_17_"  style="overflow:visible;"/>
						</clipPath>
						<g class="st13">
							<path class="st14" d="M176.4,165.5c0.6,1.3,1.6,2.3,2.9,2.9c1.6,0.7,4,1.7,5.9,2.5c1.1,0.5,1.1,2.1,0,2.6l-5.9,2.5
								c-1.3,0.6-2.3,1.6-2.9,2.9c-0.7,1.7-1.7,4-2.5,5.9c-0.5,1.1-2.1,1.1-2.6,0c-0.8-1.9-1.8-4.2-2.5-5.9
								c-0.6-1.3-1.6-2.3-2.9-2.9c-1.6-0.7-4-1.7-5.9-2.5c-1.1-0.5-1.1-2.1,0-2.6c1.9-0.8,4.2-1.8,5.9-2.5c1.3-0.6,2.3-1.6,2.9-2.9
								c0.7-1.7,1.7-4,2.5-5.9c0.5-1.1,2.1-1.1,2.6,0C174.7,161.5,175.7,163.9,176.4,165.5z"/>
							<path class="st14" d="M191.3,119.2c0.3,0.8,1,1.4,1.7,1.7c1,0.4,2.4,1,3.5,1.5c0.7,0.3,0.7,1.3,0,1.6l-3.5,1.5
								c-0.8,0.3-1.4,1-1.7,1.7c-0.4,1-1,2.4-1.5,3.6c-0.3,0.7-1.3,0.7-1.6,0c-0.5-1.1-1.1-2.6-1.5-3.6c-0.3-0.8-1-1.4-1.7-1.7
								c-1-0.4-2.4-1-3.5-1.5c-0.7-0.3-0.7-1.3,0-1.6c1.1-0.5,2.5-1.1,3.5-1.5c0.8-0.3,1.4-1,1.7-1.7c0.4-1,1-2.4,1.5-3.6
								c0.3-0.7,1.3-0.7,1.6,0C190.2,116.8,190.8,118.2,191.3,119.2z"/>
							<path class="st14" d="M220.5,150.2c0.2,0.4,0.5,0.8,1,1c0.6,0.2,1.4,0.6,2,0.9c0.4,0.2,0.4,0.7,0,0.9l-2,0.9
								c-0.4,0.2-0.8,0.6-1,1c-0.2,0.6-0.6,1.4-0.9,2c-0.2,0.4-0.7,0.4-0.9,0c-0.3-0.7-0.6-1.5-0.9-2c-0.2-0.4-0.5-0.8-1-1
								c-0.6-0.2-1.4-0.6-2-0.9c-0.4-0.2-0.4-0.7,0-0.9c0.7-0.3,1.5-0.6,2-0.9c0.4-0.2,0.8-0.6,1-1c0.2-0.6,0.6-1.4,0.9-2
								c0.2-0.4,0.7-0.4,0.9,0C219.9,148.8,220.3,149.6,220.5,150.2z"/>
						</g>
					</g>
					<g>
						<defs>
							<rect id="SVGID_19_" x="772.6" y="147.9" width="63.2" height="53.8"/>
						</defs>
						<clipPath id="SVGID_20_">
							<use xlink:href="#SVGID_19_"  style="overflow:visible;"/>
						</clipPath>
						<g class="st15">
							<path class="st14" d="M823,156.8c0.7,1.7,2.1,3.1,3.9,3.8c2.2,0.9,5.4,2.3,7.9,3.3c1.5,0.7,1.5,2.8,0,3.5l-7.9,3.3
								c-1.7,0.7-3.1,2.1-3.9,3.8c-0.9,2.2-2.3,5.3-3.4,7.8c-0.7,1.5-2.8,1.5-3.5,0c-1.1-2.5-2.4-5.6-3.4-7.8
								c-0.7-1.7-2.1-3.1-3.8-3.8c-2.2-0.9-5.4-2.3-7.9-3.3c-1.5-0.7-1.5-2.8,0-3.5c2.5-1.1,5.7-2.4,7.9-3.3
								c1.7-0.7,3.1-2.1,3.8-3.8c0.9-2.2,2.3-5.3,3.4-7.8c0.7-1.5,2.8-1.5,3.5,0C820.7,151.5,822.1,154.6,823,156.8z"/>
							<path class="st14" d="M781.3,191.7c0.3,0.6,0.8,1.2,1.4,1.4c0.8,0.3,2,0.9,2.9,1.2c0.6,0.2,0.6,1.1,0,1.3l-2.9,1.2
								c-0.6,0.3-1.2,0.8-1.4,1.4c-0.4,0.8-0.9,2-1.3,2.9c-0.2,0.6-1.1,0.6-1.3,0c-0.4-0.9-0.9-2.1-1.3-2.9
								c-0.3-0.6-0.8-1.2-1.4-1.4c-0.8-0.3-2-0.9-2.9-1.2c-0.6-0.2-0.6-1.1,0-1.3c0.9-0.4,2.1-0.9,2.9-1.2c0.6-0.3,1.2-0.8,1.4-1.4
								c0.4-0.8,0.9-2,1.3-2.9c0.2-0.6,1.1-0.6,1.3,0C780.4,189.7,780.9,190.8,781.3,191.7z"/>
						</g>
					</g>
					<g>
						<defs>
							<rect id="SVGID_21_" x="537.2" y="-26.2" width="47.2" height="47.2"/>
						</defs>
						<clipPath id="SVGID_22_">
							<use xlink:href="#SVGID_21_"  style="overflow:visible;"/>
						</clipPath>
						<g class="st16">
							<path class="st14" d="M567.5-14.3c1,2.3,2.8,4.1,5.1,5.1c2.9,1.2,7,3,10.3,4.4c2,0.9,2,3.7,0,4.6l-10.3,4.4
								c-2.3,1-4.1,2.8-5.1,5.1c-1.2,2.9-3,7-4.4,10.3c-0.9,2-3.7,2-4.6,0c-1.4-3.3-3.2-7.4-4.4-10.3c-1-2.3-2.8-4.1-5.1-5.1
								c-2.9-1.2-7-3-10.4-4.4c-2-0.9-2-3.7,0-4.6c3.3-1.4,7.5-3.2,10.4-4.4c2.3-1,4.1-2.8,5.1-5.1c1.2-2.9,3-7,4.4-10.3
								c0.9-2,3.7-2,4.6,0C564.5-21.3,566.3-17.2,567.5-14.3z"/>
						</g>
					</g>
					<g>
						<defs>
							<rect id="SVGID_23_" x="-235.5" y="147.9" width="47.2" height="47.2"/>
						</defs>
						<clipPath id="SVGID_24_">
							<use xlink:href="#SVGID_23_"  style="overflow:visible;"/>
						</clipPath>
						<g class="st17">
							<path class="st14" d="M-205.2,159.7c1,2.3,2.8,4.1,5.1,5.1c2.9,1.2,7,3,10.3,4.4c2,0.9,2,3.7,0,4.6l-10.3,4.4
								c-2.3,1-4.1,2.8-5.1,5.1c-1.2,2.9-3,7-4.4,10.3c-0.9,2-3.7,2-4.6,0c-1.4-3.3-3.2-7.4-4.4-10.3c-1-2.3-2.8-4.1-5.1-5.1
								c-2.9-1.2-7-3-10.3-4.4c-2-0.9-2-3.7,0-4.6c3.3-1.4,7.4-3.2,10.3-4.4c2.3-1,4.1-2.8,5.1-5.1c1.2-2.9,3-7,4.4-10.3
								c0.9-2,3.7-2,4.6,0C-208.2,152.7-206.4,156.8-205.2,159.7z"/>
						</g>
					</g>
					<g>
						<defs>
							<rect id="SVGID_25_" x="652.7" y="23.6" width="64.7" height="70.5"/>
						</defs>
						<clipPath id="SVGID_26_">
							<use xlink:href="#SVGID_25_"  style="overflow:visible;"/>
						</clipPath>
						<g class="st18">
							<path class="st14" d="M669.9,73.9c0.5,1.3,1.6,2.3,2.9,2.9c1.7,0.7,4,1.7,5.9,2.5c1.1,0.5,1.1,2.1,0,2.6l-5.9,2.5
								c-1.3,0.6-2.3,1.6-2.9,2.9c-0.7,1.7-1.7,4-2.5,5.9c-0.5,1.1-2.1,1.1-2.6,0c-0.8-1.9-1.8-4.2-2.5-5.9
								c-0.6-1.3-1.6-2.3-2.9-2.9c-1.7-0.7-4-1.7-5.9-2.5c-1.1-0.5-1.1-2.1,0-2.6c1.9-0.8,4.2-1.8,5.9-2.5c1.3-0.6,2.3-1.6,2.9-2.9
								c0.7-1.7,1.7-4,2.5-5.9c0.5-1.1,2.1-1.1,2.6,0C668.2,69.9,669.2,72.3,669.9,73.9z"/>
							<path class="st14" d="M684.8,27.7c0.3,0.8,1,1.4,1.7,1.7c1,0.4,2.4,1,3.5,1.5c0.7,0.3,0.7,1.3,0,1.6l-3.5,1.5
								c-0.8,0.3-1.4,1-1.7,1.7c-0.4,1-1,2.4-1.5,3.6c-0.3,0.7-1.3,0.7-1.6,0c-0.5-1.1-1.1-2.6-1.5-3.6c-0.3-0.8-1-1.4-1.7-1.7
								c-1-0.4-2.4-1-3.5-1.5c-0.7-0.3-0.7-1.3,0-1.6c1.1-0.5,2.6-1.1,3.5-1.5c0.8-0.3,1.4-1,1.7-1.7c0.4-1,1-2.4,1.5-3.6
								c0.3-0.7,1.3-0.7,1.6,0C683.8,25.2,684.4,26.7,684.8,27.7z"/>
							<path class="st14" d="M714.1,58.6c0.2,0.4,0.5,0.8,1,1c0.6,0.2,1.4,0.6,2,0.9c0.4,0.2,0.4,0.7,0,0.9l-2,0.9
								c-0.5,0.2-0.8,0.6-1,1c-0.2,0.6-0.6,1.4-0.9,2c-0.2,0.4-0.7,0.4-0.9,0c-0.3-0.7-0.6-1.5-0.9-2c-0.2-0.4-0.5-0.8-1-1
								c-0.6-0.2-1.4-0.6-2-0.9c-0.4-0.2-0.4-0.7,0-0.9c0.6-0.3,1.5-0.6,2-0.9c0.5-0.2,0.8-0.6,1-1c0.2-0.6,0.6-1.4,0.9-2
								c0.2-0.4,0.7-0.4,0.9,0C713.5,57.2,713.8,58,714.1,58.6z"/>
						</g>
					</g>
					<g>
						<defs>
							<rect id="SVGID_27_" x="57.4" y="-20.8" width="63.2" height="53.8"/>
						</defs>
						<clipPath id="SVGID_28_">
							<use xlink:href="#SVGID_27_"  style="overflow:visible;"/>
						</clipPath>
						<g class="st19">
							<path class="st14" d="M107.8-11.8c0.7,1.7,2.1,3.1,3.9,3.8c2.2,0.9,5.4,2.3,7.9,3.3c1.5,0.7,1.5,2.8,0,3.5l-7.9,3.3
								c-1.7,0.7-3.1,2.1-3.9,3.8c-0.9,2.2-2.3,5.3-3.4,7.8c-0.7,1.5-2.8,1.5-3.5,0c-1.1-2.5-2.4-5.6-3.4-7.8
								c-0.7-1.7-2.1-3.1-3.9-3.8c-2.2-0.9-5.4-2.3-7.9-3.3c-1.5-0.7-1.5-2.8,0-3.5C88.3-5.7,91.5-7,93.7-8c1.7-0.7,3.1-2.1,3.9-3.8
								c0.9-2.2,2.3-5.3,3.4-7.8c0.7-1.5,2.8-1.5,3.5,0C105.5-17.1,106.8-14,107.8-11.8z"/>
							<path class="st14" d="M66,23c0.3,0.6,0.8,1.2,1.4,1.4c0.8,0.3,2,0.9,2.9,1.2c0.6,0.2,0.6,1.1,0,1.3l-2.9,1.2
								c-0.6,0.3-1.2,0.8-1.4,1.4c-0.4,0.8-0.9,2-1.3,2.9c-0.2,0.6-1.1,0.6-1.3,0c-0.4-0.9-0.9-2.1-1.3-2.9
								c-0.3-0.6-0.8-1.2-1.4-1.4c-0.8-0.3-2-0.9-2.9-1.2c-0.6-0.2-0.6-1.1,0-1.3c0.9-0.4,2.1-0.9,2.9-1.2c0.6-0.3,1.2-0.8,1.4-1.4
								c0.4-0.8,0.9-2,1.3-2.9c0.2-0.6,1.1-0.6,1.3,0C65.2,21,65.7,22.2,66,23z"/>
						</g>
					</g>
					<g>
						<defs>
							<rect id="SVGID_29_" x="-57.4" y="109.3" width="26.9" height="26.9"/>
						</defs>
						<clipPath id="SVGID_30_">
							<use xlink:href="#SVGID_29_"  style="overflow:visible;"/>
						</clipPath>
						<g class="st20">
							<path class="st14" d="M-40.2,116.1c0.6,1.3,1.6,2.3,2.9,2.9c1.6,0.7,4,1.7,5.9,2.5c1.1,0.5,1.1,2.1,0,2.6l-5.9,2.5
								c-1.3,0.6-2.3,1.6-2.9,2.9c-0.7,1.7-1.7,4-2.5,5.9c-0.5,1.1-2.1,1.1-2.6,0c-0.8-1.9-1.8-4.2-2.5-5.9
								c-0.6-1.3-1.6-2.3-2.9-2.9c-1.7-0.7-4-1.7-5.9-2.5c-1.1-0.5-1.1-2.1,0-2.6c1.9-0.8,4.2-1.8,5.9-2.5c1.3-0.6,2.3-1.6,2.9-2.9
								c0.7-1.7,1.7-4,2.5-5.9c0.5-1.1,2.1-1.1,2.6,0C-41.9,112.1-40.9,114.4-40.2,116.1z"/>
						</g>
					</g>
					<g>
						<defs>
							<rect id="SVGID_31_" x="-184.6" y="19.9" width="16.7" height="16.7"/>
						</defs>
						<clipPath id="SVGID_32_">
							<use xlink:href="#SVGID_31_"  style="overflow:visible;"/>
						</clipPath>
						<g class="st21">
							<path class="st14" d="M-173.9,24.1c0.3,0.8,1,1.4,1.8,1.8c1,0.4,2.5,1.1,3.7,1.6c0.7,0.3,0.7,1.3,0,1.6l-3.7,1.6
								c-0.8,0.3-1.4,1-1.8,1.8c-0.4,1-1.1,2.5-1.6,3.7c-0.3,0.7-1.3,0.7-1.6,0c-0.5-1.2-1.1-2.6-1.6-3.7c-0.3-0.8-1-1.4-1.8-1.8
								c-1-0.4-2.5-1.1-3.7-1.6c-0.7-0.3-0.7-1.3,0-1.6c1.2-0.5,2.6-1.1,3.7-1.6c0.8-0.3,1.4-1,1.8-1.8c0.4-1,1.1-2.5,1.6-3.7
								c0.3-0.7,1.3-0.7,1.6,0C-175,21.6-174.3,23.1-173.9,24.1z"/>
						</g>
					</g>
					<g>
						<defs>
							<rect id="SVGID_33_" x="-446.3" y="9.8" width="26.9" height="26.9"/>
						</defs>
						<clipPath id="SVGID_34_">
							<use xlink:href="#SVGID_33_"  style="overflow:visible;"/>
						</clipPath>
						<g class="st22">
							<path class="st14" d="M-429.1,16.5c0.6,1.3,1.6,2.3,2.9,2.9c1.7,0.7,4,1.7,5.9,2.5c1.1,0.5,1.1,2.1,0,2.6l-5.9,2.5
								c-1.3,0.6-2.3,1.6-2.9,2.9c-0.7,1.7-1.7,4-2.5,5.9c-0.5,1.1-2.1,1.1-2.6,0c-0.8-1.9-1.8-4.2-2.5-5.9
								c-0.6-1.3-1.6-2.3-2.9-2.9c-1.7-0.7-4-1.7-5.9-2.5c-1.1-0.5-1.1-2.1,0-2.6c1.9-0.8,4.2-1.8,5.9-2.5c1.3-0.6,2.3-1.6,2.9-2.9
								c0.7-1.7,1.7-4,2.5-5.9c0.5-1.1,2.1-1.1,2.6,0C-430.8,12.5-429.8,14.9-429.1,16.5z"/>
						</g>
					</g>
					<g>
						<defs>
							<rect id="SVGID_35_" x="-340.9" y="76.6" width="16.7" height="16.7"/>
						</defs>
						<clipPath id="SVGID_36_">
							<use xlink:href="#SVGID_35_"  style="overflow:visible;"/>
						</clipPath>
						<g class="st23">
							<path class="st14" d="M-330.2,80.8c0.3,0.8,1,1.4,1.8,1.8c1,0.4,2.5,1.1,3.7,1.6c0.7,0.3,0.7,1.3,0,1.6l-3.7,1.6
								c-0.8,0.3-1.4,1-1.8,1.8c-0.4,1-1.1,2.5-1.6,3.7c-0.3,0.7-1.3,0.7-1.6,0c-0.5-1.2-1.1-2.6-1.6-3.7c-0.3-0.8-1-1.4-1.8-1.8
								c-1-0.4-2.5-1.1-3.7-1.6c-0.7-0.3-0.7-1.3,0-1.6c1.2-0.5,2.6-1.1,3.7-1.6c0.8-0.3,1.4-1,1.8-1.8c0.4-1,1.1-2.5,1.6-3.7
								c0.3-0.7,1.3-0.7,1.6,0C-331.3,78.3-330.6,79.8-330.2,80.8z"/>
						</g>
					</g>
					<g>
						<defs>
							<rect id="SVGID_37_" x="362.7" y="183.5" width="16.7" height="16.7"/>
						</defs>
						<clipPath id="SVGID_38_">
							<use xlink:href="#SVGID_37_"  style="overflow:visible;"/>
						</clipPath>
						<g class="st24">
							<path class="st14" d="M373.4,187.7c0.3,0.8,1,1.4,1.8,1.8c1,0.4,2.5,1.1,3.7,1.6c0.7,0.3,0.7,1.3,0,1.6l-3.7,1.6
								c-0.8,0.3-1.4,1-1.8,1.8c-0.4,1-1.1,2.5-1.6,3.7c-0.3,0.7-1.3,0.7-1.6,0c-0.5-1.2-1.1-2.6-1.6-3.7c-0.3-0.8-1-1.4-1.8-1.8
								c-1-0.4-2.5-1.1-3.7-1.6c-0.7-0.3-0.7-1.3,0-1.6c1.2-0.5,2.6-1.1,3.7-1.6c0.8-0.3,1.4-1,1.8-1.8c0.4-1,1.1-2.5,1.6-3.7
								c0.3-0.7,1.3-0.7,1.6,0C372.4,185.2,373,186.7,373.4,187.7z"/>
						</g>
					</g>
					<g>
						<defs>
							<rect id="SVGID_39_" x="510.2" y="115.2" width="16.7" height="16.7"/>
						</defs>
						<clipPath id="SVGID_40_">
							<use xlink:href="#SVGID_39_"  style="overflow:visible;"/>
						</clipPath>
						<g class="st25">
							<path class="st14" d="M521,119.4c0.3,0.8,1,1.4,1.8,1.8c1,0.4,2.5,1.1,3.7,1.6c0.7,0.3,0.7,1.3,0,1.6l-3.7,1.6
								c-0.8,0.3-1.4,1-1.8,1.8c-0.4,1-1.1,2.5-1.6,3.7c-0.3,0.7-1.3,0.7-1.6,0c-0.5-1.2-1.1-2.6-1.6-3.7c-0.3-0.8-1-1.4-1.8-1.8
								c-1-0.4-2.5-1.1-3.7-1.6c-0.7-0.3-0.7-1.3,0-1.6c1.2-0.5,2.6-1.1,3.7-1.6c0.8-0.3,1.4-1,1.8-1.8c0.4-1,1.1-2.5,1.6-3.7
								c0.3-0.7,1.3-0.7,1.6,0C519.9,116.9,520.5,118.3,521,119.4z"/>
						</g>
					</g>
					<g>
						<defs>
							<rect id="SVGID_41_" x="878" y="-8.4" width="16.7" height="16.7"/>
						</defs>
						<clipPath id="SVGID_42_">
							<use xlink:href="#SVGID_41_"  style="overflow:visible;"/>
						</clipPath>
						<g class="st26">
							<path class="st14" d="M888.8-4.2c0.3,0.8,1,1.4,1.8,1.8c1,0.4,2.5,1.1,3.7,1.6c0.7,0.3,0.7,1.3,0,1.6l-3.7,1.6
								c-0.8,0.3-1.4,1-1.8,1.8c-0.4,1-1.1,2.5-1.6,3.7c-0.3,0.7-1.3,0.7-1.6,0c-0.5-1.2-1.1-2.6-1.6-3.7c-0.3-0.8-1-1.4-1.8-1.8
								c-1-0.4-2.5-1.1-3.7-1.6c-0.7-0.3-0.7-1.3,0-1.6c1.2-0.5,2.6-1.1,3.7-1.6c0.8-0.3,1.4-1,1.8-1.8c0.4-1,1.1-2.5,1.6-3.7
								c0.3-0.7,1.3-0.7,1.6,0C887.7-6.7,888.3-5.2,888.8-4.2z"/>
						</g>
					</g>
					<g>
						<defs>
							<rect id="SVGID_43_" x="288.5" y="31.6" width="16.7" height="16.7"/>
						</defs>
						<clipPath id="SVGID_44_">
							<use xlink:href="#SVGID_43_"  style="overflow:visible;"/>
						</clipPath>
						<g class="st27">
							<path class="st14" d="M299.3,35.8c0.3,0.8,1,1.4,1.8,1.8c1,0.4,2.5,1.1,3.7,1.6c0.7,0.3,0.7,1.3,0,1.6l-3.7,1.6
								c-0.8,0.3-1.4,1-1.8,1.8c-0.4,1-1.1,2.5-1.6,3.7c-0.3,0.7-1.3,0.7-1.6,0c-0.5-1.2-1.1-2.6-1.6-3.7c-0.3-0.8-1-1.4-1.8-1.8
								c-1-0.4-2.5-1.1-3.7-1.6c-0.7-0.3-0.7-1.3,0-1.6c1.2-0.5,2.6-1.1,3.7-1.6c0.8-0.3,1.4-1,1.8-1.8c0.4-1,1.1-2.5,1.6-3.7
								c0.3-0.7,1.3-0.7,1.6,0C298.2,33.3,298.8,34.7,299.3,35.8z"/>
						</g>
					</g>
				</g>
			</g>
			<g class="st1">
				<defs>
					<filter id="Adobe_OpacityMaskFilter" filterUnits="userSpaceOnUse" x="197.4" y="-58.2" width="24.5" height="21.3">
						<feColorMatrix  type="matrix" values="1 0 0 0 0  0 1 0 0 0  0 0 1 0 0  0 0 0 1 0"/>
					</filter>
				</defs>
				<mask maskUnits="userSpaceOnUse" x="197.4" y="-58.2" width="24.5" height="21.3" id="mask0_663_298_4_">
					<path class="st28" d="M206.5-52.5c4.9,1.3,9.6,5.9,9.7,6c0.1,0.2-4.2,3.9-4.2,3.9c-1.9-3.3-9-6.4-9-6.4L206.5-52.5z"/>
				</mask>
				<g class="st29">
					<path class="st30" d="M197.4-37.3l24.2,0.4l0.4-20.9l-24.2-0.4L197.4-37.3z"/>
				</g>
				<defs>
					<filter id="Adobe_OpacityMaskFilter_1_" filterUnits="userSpaceOnUse" x="51.2" y="-48.1" width="24.5" height="21.3">
						<feColorMatrix  type="matrix" values="1 0 0 0 0  0 1 0 0 0  0 0 1 0 0  0 0 0 1 0"/>
					</filter>
				</defs>
				<mask maskUnits="userSpaceOnUse" x="51.2" y="-48.1" width="24.5" height="21.3" id="mask1_663_298_4_">
					<path class="st31" d="M60.4-42.5c4.9,1.3,9.6,5.9,9.7,6c0.1,0.2-4.2,3.9-4.2,3.9c-1.9-3.3-9-6.4-9-6.4L60.4-42.5z"/>
				</mask>
				<g class="st32">
					<path class="st30" d="M51.2-27.3l24.2,0.4l0.4-20.9l-24.2-0.4L51.2-27.3z"/>
				</g>
				<defs>
					<filter id="Adobe_OpacityMaskFilter_2_" filterUnits="userSpaceOnUse" x="309.6" y="-19.3" width="19.1" height="25.6">
						<feColorMatrix  type="matrix" values="1 0 0 0 0  0 1 0 0 0  0 0 1 0 0  0 0 0 1 0"/>
					</filter>
				</defs>
				<mask maskUnits="userSpaceOnUse" x="309.6" y="-19.3" width="19.1" height="25.6" id="mask2_663_298_4_">
					<path class="st33" d="M317.8-13.6l5.1,1.9c0.8,5.5-1.8,12.3-1.9,12.5c-0.2,0.1-5.7-2.4-5.7-2.4
						C317.6-5.1,317.8-13.1,317.8-13.6L317.8-13.6z"/>
				</mask>
				<g class="st34">
					<path class="st35" d="M309.6,6l18.7,0.3l0.4-25.2l-18.7-0.3L309.6,6z"/>
				</g>
				<defs>
					<filter id="Adobe_OpacityMaskFilter_3_" filterUnits="userSpaceOnUse" x="94" y="-19.9" width="37.7" height="38.1">
						<feColorMatrix  type="matrix" values="1 0 0 0 0  0 1 0 0 0  0 0 1 0 0  0 0 0 1 0"/>
					</filter>
				</defs>
				<mask maskUnits="userSpaceOnUse" x="94" y="-19.9" width="37.7" height="38.1" id="mask3_663_298_4_">
					<path class="st36" d="M115.6-8.7c2.9,6.2,2,15.2,1.9,15.4c-0.1,0.2-7-0.4-7.9-0.5l-0.1,0c1.9-5.1-0.8-15.1-0.8-15.1L115.6-8.7z
						"/>
				</mask>
				<g class="st37">
					<path class="st38" d="M94-3.7l18.4,21.9L131.7,2l-18.4-21.9L94-3.7z"/>
				</g>
				<defs>
					<filter id="Adobe_OpacityMaskFilter_4_" filterUnits="userSpaceOnUse" x="322" y="-77.6" width="37.7" height="38.1">
						<feColorMatrix  type="matrix" values="1 0 0 0 0  0 1 0 0 0  0 0 1 0 0  0 0 0 1 0"/>
					</filter>
				</defs>
				<mask maskUnits="userSpaceOnUse" x="322" y="-77.6" width="37.7" height="38.1" id="mask4_663_298_4_">
					<path class="st39" d="M343.6-66.3c2.9,6.2,2,15.2,1.9,15.4c-0.1,0.2-7-0.4-7.9-0.5l-0.1,0c1.9-5.1-0.8-15.1-0.8-15.1
						L343.6-66.3z"/>
				</mask>
				<g class="st40">
					<path class="st38" d="M322-61.3l18.4,21.9l19.3-16.2l-18.4-21.9L322-61.3z"/>
				</g>
				<defs>
					<filter id="Adobe_OpacityMaskFilter_5_" filterUnits="userSpaceOnUse" x="414.6" y="-44.3" width="29" height="25.7">
						<feColorMatrix  type="matrix" values="1 0 0 0 0  0 1 0 0 0  0 0 1 0 0  0 0 0 1 0"/>
					</filter>
				</defs>
				<mask maskUnits="userSpaceOnUse" x="414.6" y="-44.3" width="29" height="25.7" id="mask5_663_298_4_">
					<path class="st41" d="M425-38.6c6.6,1.8,12.8,8.4,12.9,8.7c0.1,0.3-4.9,5-5.5,5.6l-0.1,0.1c-2.6-4.7-11.9-9.2-11.9-9.2
						L425-38.6z"/>
				</mask>
				<g class="st42">
					<path class="st38" d="M414.6-19.1l28.5,0.5l0.4-25.2l-28.5-0.5L414.6-19.1z"/>
				</g>
				<defs>
					<filter id="Adobe_OpacityMaskFilter_6_" filterUnits="userSpaceOnUse" x="196.6" y="-15.5" width="29" height="25.7">
						<feColorMatrix  type="matrix" values="1 0 0 0 0  0 1 0 0 0  0 0 1 0 0  0 0 0 1 0"/>
					</filter>
				</defs>
				<mask maskUnits="userSpaceOnUse" x="196.6" y="-15.5" width="29" height="25.7" id="mask6_663_298_4_">
					<path class="st43" d="M206.9-9.8c6.6,1.8,12.8,8.4,12.9,8.7c0.1,0.3-4.9,5-5.5,5.6l-0.1,0.1c-2.6-4.7-11.9-9.2-11.9-9.2
						L206.9-9.8z"/>
				</mask>
				<g class="st44">
					<path class="st38" d="M196.6,9.8l28.5,0.5l0.4-25.2L197-15.5L196.6,9.8z"/>
				</g>
				<defs>
					<filter id="Adobe_OpacityMaskFilter_7_" filterUnits="userSpaceOnUse" x="-8.5" y="35" width="29" height="25.7">
						<feColorMatrix  type="matrix" values="1 0 0 0 0  0 1 0 0 0  0 0 1 0 0  0 0 0 1 0"/>
					</filter>
				</defs>
				<mask maskUnits="userSpaceOnUse" x="-8.5" y="35" width="29" height="25.7" id="mask7_663_298_4_">
					<path class="st45" d="M1.9,40.7c6.6,1.8,12.8,8.4,12.9,8.7c0.1,0.3-4.9,5-5.5,5.6l-0.1,0.1c-2.6-4.7-11.9-9.2-11.9-9.2
						L1.9,40.7z"/>
				</mask>
				<g class="st46">
					<path class="st38" d="M-8.5,60.2l28.5,0.5l0.4-25.2L-8,35L-8.5,60.2z"/>
				</g>
				<defs>
					<filter id="Adobe_OpacityMaskFilter_8_" filterUnits="userSpaceOnUse" x="388.2" y="-27.5" width="20.1" height="17.9">
						<feColorMatrix  type="matrix" values="1 0 0 0 0  0 1 0 0 0  0 0 1 0 0  0 0 0 1 0"/>
					</filter>
				</defs>
				<mask maskUnits="userSpaceOnUse" x="388.2" y="-27.5" width="20.1" height="17.9" id="mask8_663_298_4_">
					<path class="st47" d="M402-21.8L402-21.8c0.2,0,0.5,3.6,0.6,4.1l0,0.1c-2.9-0.3-8.1,2.3-8.1,2.3l-0.7-3.5
						C396.9-21.1,401.9-21.8,402-21.8L402-21.8z"/>
				</mask>
				<g class="st48">
					<path class="st49" d="M388.2-10l19.8,0.3l0.3-17.6l-19.8-0.3L388.2-10z"/>
				</g>
				<defs>
					<filter id="Adobe_OpacityMaskFilter_9_" filterUnits="userSpaceOnUse" x="150" y="-14.3" width="20.1" height="17.9">
						<feColorMatrix  type="matrix" values="1 0 0 0 0  0 1 0 0 0  0 0 1 0 0  0 0 0 1 0"/>
					</filter>
				</defs>
				<mask maskUnits="userSpaceOnUse" x="150" y="-14.3" width="20.1" height="17.9" id="mask9_663_298_4_">
					<path class="st50" d="M163.8-8.6L163.8-8.6c0.2,0,0.5,3.6,0.6,4.1l0,0.1c-2.9-0.3-8.1,2.3-8.1,2.3l-0.7-3.5
						C158.7-7.9,163.7-8.6,163.8-8.6L163.8-8.6z"/>
				</mask>
				<g class="st51">
					<path class="st49" d="M150,3.2l19.8,0.3l0.3-17.6l-19.8-0.3L150,3.2z"/>
				</g>
				<defs>
					<filter id="Adobe_OpacityMaskFilter_10_" filterUnits="userSpaceOnUse" x="528.9" y="-8" width="20.1" height="17.9">
						<feColorMatrix  type="matrix" values="1 0 0 0 0  0 1 0 0 0  0 0 1 0 0  0 0 0 1 0"/>
					</filter>
				</defs>
				<mask maskUnits="userSpaceOnUse" x="528.9" y="-8" width="20.1" height="17.9" id="mask10_663_298_4_">
					<path class="st52" d="M542.7-2.2L542.7-2.2c0.2,0,0.5,3.6,0.6,4.1l0,0.1c-2.9-0.3-8.1,2.3-8.1,2.3l-0.7-3.5
						C537.6-1.6,542.6-2.3,542.7-2.2L542.7-2.2z"/>
				</mask>
				<g class="st53">
					<path class="st30" d="M528.9,9.6l19.8,0.3L549-7.6L529.2-8L528.9,9.6z"/>
				</g>
				<defs>
					<filter id="Adobe_OpacityMaskFilter_11_" filterUnits="userSpaceOnUse" x="259.3" y="1" width="20.1" height="17.9">
						<feColorMatrix  type="matrix" values="1 0 0 0 0  0 1 0 0 0  0 0 1 0 0  0 0 0 1 0"/>
					</filter>
				</defs>
				<mask maskUnits="userSpaceOnUse" x="259.3" y="1" width="20.1" height="17.9" id="mask11_663_298_4_">
					<path class="st54" d="M273.1,6.7L273.1,6.7c0.2,0,0.5,3.6,0.6,4.1l0,0.1c-2.9-0.3-8.1,2.3-8.1,2.3l-0.7-3.5
						C268,7.4,273,6.7,273.1,6.7L273.1,6.7z"/>
				</mask>
				<g class="st55">
					<path class="st30" d="M259.3,18.6l19.8,0.3l0.3-17.6L259.6,1L259.3,18.6z"/>
				</g>
				<defs>
					<filter id="Adobe_OpacityMaskFilter_12_" filterUnits="userSpaceOnUse" x="56.9" y="-8.6" width="22.4" height="24.5">
						<feColorMatrix  type="matrix" values="1 0 0 0 0  0 1 0 0 0  0 0 1 0 0  0 0 0 1 0"/>
					</filter>
				</defs>
				<mask maskUnits="userSpaceOnUse" x="56.9" y="-8.6" width="22.4" height="24.5" id="mask12_663_298_4_">
					<path class="st56" d="M66.5-2.9c0,0,3.4,7.1,7,9c0,0-4.1,4.2-4.3,4.2C69,10.3,64,5.5,62.6,0.6L66.5-2.9z"/>
				</mask>
				<g class="st57">
					<path class="st49" d="M56.9,15.6l22,0.4l0.4-24.1l-22-0.4L56.9,15.6z"/>
				</g>
				<defs>
					<filter id="Adobe_OpacityMaskFilter_13_" filterUnits="userSpaceOnUse" x="279.1" y="-59.7" width="22.4" height="24.5">
						<feColorMatrix  type="matrix" values="1 0 0 0 0  0 1 0 0 0  0 0 1 0 0  0 0 0 1 0"/>
					</filter>
				</defs>
				<mask maskUnits="userSpaceOnUse" x="279.1" y="-59.7" width="22.4" height="24.5" id="mask13_663_298_4_">
					<path class="st58" d="M288.8-54.1c0,0,3.4,7.1,7,9c0,0-4.1,4.2-4.3,4.2c-0.2-0.1-5.2-4.8-6.6-9.8L288.8-54.1z"/>
				</mask>
				<g class="st59">
					<path class="st49" d="M279.1-35.6l22,0.4l0.4-24.1l-22-0.4L279.1-35.6z"/>
				</g>
				<defs>
					<filter id="Adobe_OpacityMaskFilter_14_" filterUnits="userSpaceOnUse" x="499" y="-67.8" width="22.4" height="24.5">
						<feColorMatrix  type="matrix" values="1 0 0 0 0  0 1 0 0 0  0 0 1 0 0  0 0 0 1 0"/>
					</filter>
				</defs>
				<mask maskUnits="userSpaceOnUse" x="499" y="-67.8" width="22.4" height="24.5" id="mask14_663_298_4_">
					<path class="st60" d="M508.7-62.2c0,0,3.4,7.1,7,9c0,0-4.1,4.2-4.3,4.2c-0.2-0.1-5.2-4.8-6.6-9.8L508.7-62.2z"/>
				</mask>
				<g class="st61">
					<path class="st49" d="M499-43.7l22,0.4l0.4-24.1l-22-0.4L499-43.7z"/>
				</g>
				<defs>
					<filter id="Adobe_OpacityMaskFilter_15_" filterUnits="userSpaceOnUse" x="-23.6" y="-49.5" width="22.4" height="24.5">
						<feColorMatrix  type="matrix" values="1 0 0 0 0  0 1 0 0 0  0 0 1 0 0  0 0 0 1 0"/>
					</filter>
				</defs>
				<mask maskUnits="userSpaceOnUse" x="-23.6" y="-49.5" width="22.4" height="24.5" id="mask15_663_298_4_">
					<path class="st62" d="M-14-43.9c0,0,3.4,7.1,7,9c0,0-4.1,4.2-4.3,4.2c-0.2-0.1-5.2-4.8-6.6-9.8L-14-43.9z"/>
				</mask>
				<g class="st63">
					<path class="st49" d="M-23.6-25.4l22,0.4l0.4-24.1l-22-0.4L-23.6-25.4z"/>
				</g>
				<defs>
					<filter id="Adobe_OpacityMaskFilter_16_" filterUnits="userSpaceOnUse" x="116.4" y="-62.2" width="22.4" height="24.5">
						<feColorMatrix  type="matrix" values="1 0 0 0 0  0 1 0 0 0  0 0 1 0 0  0 0 0 1 0"/>
					</filter>
				</defs>
				<mask maskUnits="userSpaceOnUse" x="116.4" y="-62.2" width="22.4" height="24.5" id="mask16_663_298_4_">
					<path class="st64" d="M126.1-56.5c0,0,3.4,7.1,7,9c0,0-4.1,4.2-4.3,4.2c-0.2-0.1-5.2-4.8-6.6-9.8L126.1-56.5z"/>
				</mask>
				<g class="st65">
					<path class="st49" d="M116.4-38l22,0.4l0.4-24.1l-22-0.4L116.4-38z"/>
				</g>
				<defs>
					<filter id="Adobe_OpacityMaskFilter_17_" filterUnits="userSpaceOnUse" x="452.6" y="-59.4" width="20.1" height="17.9">
						<feColorMatrix  type="matrix" values="1 0 0 0 0  0 1 0 0 0  0 0 1 0 0  0 0 0 1 0"/>
					</filter>
				</defs>
				<mask maskUnits="userSpaceOnUse" x="452.6" y="-59.4" width="20.1" height="17.9" id="mask17_663_298_4_">
					<path class="st66" d="M466.4-53.7L466.4-53.7c0.2,0,0.5,3.6,0.6,4.1l0,0.1c-2.9-0.3-8.1,2.3-8.1,2.3l-0.7-3.5
						C461.3-53,466.3-53.7,466.4-53.7L466.4-53.7z"/>
				</mask>
				<g class="st67">
					<path class="st30" d="M452.6-41.8l19.8,0.3l0.3-17.6l-19.8-0.3L452.6-41.8z"/>
				</g>
				<defs>
					<filter id="Adobe_OpacityMaskFilter_18_" filterUnits="userSpaceOnUse" x="451.3" y="16.1" width="20.1" height="17.9">
						<feColorMatrix  type="matrix" values="1 0 0 0 0  0 1 0 0 0  0 0 1 0 0  0 0 0 1 0"/>
					</filter>
				</defs>
				<mask maskUnits="userSpaceOnUse" x="451.3" y="16.1" width="20.1" height="17.9" id="mask18_663_298_4_">
					<path class="st68" d="M465.1,21.8L465.1,21.8c0.2,0,0.5,3.6,0.6,4.1l0,0.1c-2.9-0.3-8.1,2.3-8.1,2.3l-0.7-3.5
						C460,22.4,465,21.8,465.1,21.8L465.1,21.8z"/>
				</mask>
				<g class="st69">
					<path class="st30" d="M451.3,33.6l19.8,0.3l0.3-17.6l-19.8-0.3L451.3,33.6z"/>
				</g>
				<defs>
					<filter id="Adobe_OpacityMaskFilter_19_" filterUnits="userSpaceOnUse" x="234.6" y="-30.6" width="20.1" height="17.9">
						<feColorMatrix  type="matrix" values="1 0 0 0 0  0 1 0 0 0  0 0 1 0 0  0 0 0 1 0"/>
					</filter>
				</defs>
				<mask maskUnits="userSpaceOnUse" x="234.6" y="-30.6" width="20.1" height="17.9" id="mask19_663_298_4_">
					<path class="st70" d="M248.4-24.8L248.4-24.8c0.2,0,0.5,3.6,0.6,4.1l0,0.1c-2.9-0.3-8.1,2.3-8.1,2.3l-0.7-3.5
						C243.3-24.2,248.3-24.9,248.4-24.8L248.4-24.8z"/>
				</mask>
				<g class="st71">
					<path class="st30" d="M234.6-13l19.8,0.3l0.3-17.6l-19.8-0.3L234.6-13z"/>
				</g>
				<defs>
					<filter id="Adobe_OpacityMaskFilter_20_" filterUnits="userSpaceOnUse" x="46.8" y="42.8" width="20.1" height="17.9">
						<feColorMatrix  type="matrix" values="1 0 0 0 0  0 1 0 0 0  0 0 1 0 0  0 0 0 1 0"/>
					</filter>
				</defs>
				<mask maskUnits="userSpaceOnUse" x="46.8" y="42.8" width="20.1" height="17.9" id="mask20_663_298_4_">
					<path class="st72" d="M60.6,48.6L60.6,48.6c0.2,0,0.5,3.6,0.6,4.1l0,0.1c-2.9-0.3-8.1,2.3-8.1,2.3l-0.7-3.5
						C55.5,49.2,60.5,48.5,60.6,48.6L60.6,48.6z"/>
				</mask>
				<g class="st73">
					<path class="st30" d="M46.8,60.4l19.8,0.3l0.3-17.6l-19.8-0.3L46.8,60.4z"/>
				</g>
				<defs>
					<filter id="Adobe_OpacityMaskFilter_21_" filterUnits="userSpaceOnUse" x="451.3" y="38.9" width="20.1" height="17.9">
						<feColorMatrix  type="matrix" values="1 0 0 0 0  0 1 0 0 0  0 0 1 0 0  0 0 0 1 0"/>
					</filter>
				</defs>
				<mask maskUnits="userSpaceOnUse" x="451.3" y="38.9" width="20.1" height="17.9" id="mask21_663_298_4_">
					<path class="st74" d="M465.1,44.7L465.1,44.7c0.2,0,0.5,3.6,0.6,4.1l0,0.1c-2.9-0.3-8.1,2.3-8.1,2.3l-0.7-3.5
						C460,45.3,465,44.6,465.1,44.7L465.1,44.7z"/>
				</mask>
				<g class="st75">
					<path class="st38" d="M451.3,56.5l19.8,0.3l0.3-17.6l-19.8-0.3L451.3,56.5z"/>
				</g>
				<defs>
					<filter id="Adobe_OpacityMaskFilter_22_" filterUnits="userSpaceOnUse" x="370.2" y="-60.3" width="22.4" height="24.5">
						<feColorMatrix  type="matrix" values="1 0 0 0 0  0 1 0 0 0  0 0 1 0 0  0 0 0 1 0"/>
					</filter>
				</defs>
				<mask maskUnits="userSpaceOnUse" x="370.2" y="-60.3" width="22.4" height="24.5" id="mask22_663_298_4_">
					<path class="st76" d="M379.9-54.7c0.1,0.2,3.4,7.1,7,9l0,0c-0.2,0.2-4.1,4.2-4.3,4.2l0,0c-0.4-0.2-5.2-4.9-6.5-9.7L379.9-54.7z
						"/>
				</mask>
				<g class="st77">
					<path class="st30" d="M370.2-36.2l22,0.4l0.4-24.1l-22-0.4L370.2-36.2z"/>
				</g>
				<defs>
					<filter id="Adobe_OpacityMaskFilter_23_" filterUnits="userSpaceOnUse" x="162.1" y="-53.9" width="22.4" height="24.5">
						<feColorMatrix  type="matrix" values="1 0 0 0 0  0 1 0 0 0  0 0 1 0 0  0 0 0 1 0"/>
					</filter>
				</defs>
				<mask maskUnits="userSpaceOnUse" x="162.1" y="-53.9" width="22.4" height="24.5" id="mask23_663_298_4_">
					<path class="st78" d="M171.8-48.2c0.1,0.2,3.4,7.1,7,9l0,0c-0.2,0.2-4.1,4.2-4.3,4.2l0,0c-0.4-0.2-5.2-4.9-6.5-9.7L171.8-48.2z
						"/>
				</mask>
				<g class="st79">
					<path class="st30" d="M162.1-29.7l22,0.4l0.4-24.1l-22-0.4L162.1-29.7z"/>
				</g>
			</g>
			<g class="st1">
				<defs>
					<filter id="Adobe_OpacityMaskFilter_24_" filterUnits="userSpaceOnUse" x="326.5" y="34.2" width="24.5" height="21.3">
						<feColorMatrix  type="matrix" values="1 0 0 0 0  0 1 0 0 0  0 0 1 0 0  0 0 0 1 0"/>
					</filter>
				</defs>
				<mask maskUnits="userSpaceOnUse" x="326.5" y="34.2" width="24.5" height="21.3" id="mask0_663_298_3_">
					<path class="st80" d="M341.9,39.8c-4.9,1.3-9.6,5.9-9.7,6c-0.1,0.2,4.2,3.9,4.2,3.9c1.9-3.3,9-6.4,9-6.4L341.9,39.8z"/>
				</mask>
				<g class="st81">
					<path class="st30" d="M351,55l-24.2,0.4l-0.4-20.9l24.2-0.4L351,55z"/>
				</g>
				<defs>
					<filter id="Adobe_OpacityMaskFilter_25_" filterUnits="userSpaceOnUse" x="472.7" y="44.2" width="24.5" height="21.3">
						<feColorMatrix  type="matrix" values="1 0 0 0 0  0 1 0 0 0  0 0 1 0 0  0 0 0 1 0"/>
					</filter>
				</defs>
				<mask maskUnits="userSpaceOnUse" x="472.7" y="44.2" width="24.5" height="21.3" id="mask1_663_298_3_">
					<path class="st82" d="M488,49.8c-4.9,1.3-9.6,5.9-9.7,6c-0.1,0.2,4.2,3.9,4.2,3.9c1.9-3.3,9-6.4,9-6.4L488,49.8z"/>
				</mask>
				<g class="st83">
					<path class="st30" d="M497.2,65L473,65.5l-0.4-20.9l24.2-0.4L497.2,65z"/>
				</g>
				<defs>
					<filter id="Adobe_OpacityMaskFilter_26_" filterUnits="userSpaceOnUse" x="219.7" y="73.1" width="19.1" height="25.6">
						<feColorMatrix  type="matrix" values="1 0 0 0 0  0 1 0 0 0  0 0 1 0 0  0 0 0 1 0"/>
					</filter>
				</defs>
				<mask maskUnits="userSpaceOnUse" x="219.7" y="73.1" width="19.1" height="25.6" id="mask2_663_298_3_">
					<path class="st84" d="M230.6,78.7l-5.1,1.9c-0.8,5.5,1.8,12.3,1.9,12.5c0.2,0.1,5.7-2.4,5.7-2.4
						C230.8,87.3,230.6,79.2,230.6,78.7L230.6,78.7z"/>
				</mask>
				<g class="st85">
					<path class="st35" d="M238.8,98.3l-18.7,0.3l-0.4-25.2l18.7-0.3L238.8,98.3z"/>
				</g>
				<defs>
					<filter id="Adobe_OpacityMaskFilter_27_" filterUnits="userSpaceOnUse" x="416.7" y="72.4" width="37.7" height="38.1">
						<feColorMatrix  type="matrix" values="1 0 0 0 0  0 1 0 0 0  0 0 1 0 0  0 0 0 1 0"/>
					</filter>
				</defs>
				<mask maskUnits="userSpaceOnUse" x="416.7" y="72.4" width="37.7" height="38.1" id="mask3_663_298_3_">
					<path class="st86" d="M432.8,83.6c-2.9,6.2-2,15.2-1.9,15.4c0.1,0.2,7-0.4,7.9-0.5l0.1,0c-1.9-5.1,0.8-15.1,0.8-15.1
						L432.8,83.6z"/>
				</mask>
				<g class="st87">
					<path class="st38" d="M454.4,88.6l-18.4,21.9l-19.3-16.2l18.4-21.9L454.4,88.6z"/>
				</g>
				<defs>
					<filter id="Adobe_OpacityMaskFilter_28_" filterUnits="userSpaceOnUse" x="188.7" y="14.8" width="37.7" height="38.1">
						<feColorMatrix  type="matrix" values="1 0 0 0 0  0 1 0 0 0  0 0 1 0 0  0 0 0 1 0"/>
					</filter>
				</defs>
				<mask maskUnits="userSpaceOnUse" x="188.7" y="14.8" width="37.7" height="38.1" id="mask4_663_298_3_">
					<path class="st88" d="M204.8,26c-2.9,6.2-2,15.2-1.9,15.4c0.1,0.2,7-0.4,7.9-0.5l0.1,0c-1.9-5.1,0.8-15.1,0.8-15.1L204.8,26z"
						/>
				</mask>
				<g class="st89">
					<path class="st38" d="M226.4,31L208,52.9l-19.3-16.2l18.4-21.9L226.4,31z"/>
				</g>
				<defs>
					<filter id="Adobe_OpacityMaskFilter_29_" filterUnits="userSpaceOnUse" x="104.8" y="48" width="29" height="25.7">
						<feColorMatrix  type="matrix" values="1 0 0 0 0  0 1 0 0 0  0 0 1 0 0  0 0 0 1 0"/>
					</filter>
				</defs>
				<mask maskUnits="userSpaceOnUse" x="104.8" y="48" width="29" height="25.7" id="mask5_663_298_3_">
					<path class="st90" d="M123.4,53.7c-6.6,1.8-12.8,8.4-12.9,8.7c-0.1,0.3,4.9,5,5.5,5.6l0.1,0.1c2.6-4.7,11.9-9.2,11.9-9.2
						L123.4,53.7z"/>
				</mask>
				<g class="st91">
					<path class="st38" d="M133.8,73.3l-28.5,0.5l-0.4-25.2l28.5-0.5L133.8,73.3z"/>
				</g>
				<defs>
					<filter id="Adobe_OpacityMaskFilter_30_" filterUnits="userSpaceOnUse" x="322.9" y="76.9" width="29" height="25.7">
						<feColorMatrix  type="matrix" values="1 0 0 0 0  0 1 0 0 0  0 0 1 0 0  0 0 0 1 0"/>
					</filter>
				</defs>
				<mask maskUnits="userSpaceOnUse" x="322.9" y="76.9" width="29" height="25.7" id="mask6_663_298_3_">
					<path class="st92" d="M341.5,82.5c-6.6,1.8-12.8,8.4-12.9,8.7c-0.1,0.3,4.9,5,5.5,5.6l0.1,0.1c2.6-4.7,11.9-9.2,11.9-9.2
						L341.5,82.5z"/>
				</mask>
				<g class="st93">
					<path class="st38" d="M351.9,102.1l-28.5,0.5l-0.4-25.2l28.5-0.5L351.9,102.1z"/>
				</g>
				<defs>
					<filter id="Adobe_OpacityMaskFilter_31_" filterUnits="userSpaceOnUse" x="527.9" y="127.3" width="29" height="25.7">
						<feColorMatrix  type="matrix" values="1 0 0 0 0  0 1 0 0 0  0 0 1 0 0  0 0 0 1 0"/>
					</filter>
				</defs>
				<mask maskUnits="userSpaceOnUse" x="527.9" y="127.3" width="29" height="25.7" id="mask7_663_298_3_">
					<path class="st94" d="M546.5,133c-6.6,1.8-12.8,8.4-12.9,8.7c-0.1,0.3,4.9,5,5.5,5.6l0.1,0.1c2.6-4.7,11.9-9.2,11.9-9.2
						L546.5,133z"/>
				</mask>
				<g class="st95">
					<path class="st38" d="M556.9,152.6l-28.5,0.5l-0.4-25.2l28.5-0.5L556.9,152.6z"/>
				</g>
				<defs>
					<filter id="Adobe_OpacityMaskFilter_32_" filterUnits="userSpaceOnUse" x="140.2" y="64.8" width="20.1" height="17.9">
						<feColorMatrix  type="matrix" values="1 0 0 0 0  0 1 0 0 0  0 0 1 0 0  0 0 0 1 0"/>
					</filter>
				</defs>
				<mask maskUnits="userSpaceOnUse" x="140.2" y="64.8" width="20.1" height="17.9" id="mask8_663_298_3_">
					<path class="st96" d="M146.4,70.5L146.4,70.5c-0.2,0-0.5,3.6-0.6,4.1l0,0.1c2.9-0.3,8.1,2.3,8.1,2.3l0.7-3.5
						C151.6,71.2,146.6,70.5,146.4,70.5L146.4,70.5z"/>
				</mask>
				<g class="st97">
					<path class="st49" d="M160.2,82.4l-19.8,0.3l-0.3-17.6l19.8-0.3L160.2,82.4z"/>
				</g>
				<defs>
					<filter id="Adobe_OpacityMaskFilter_33_" filterUnits="userSpaceOnUse" x="378.3" y="78" width="20.1" height="17.9">
						<feColorMatrix  type="matrix" values="1 0 0 0 0  0 1 0 0 0  0 0 1 0 0  0 0 0 1 0"/>
					</filter>
				</defs>
				<mask maskUnits="userSpaceOnUse" x="378.3" y="78" width="20.1" height="17.9" id="mask9_663_298_3_">
					<path class="st98" d="M384.6,83.7L384.6,83.7c-0.2,0-0.5,3.6-0.6,4.1l0,0.1c2.9-0.3,8.1,2.3,8.1,2.3l0.7-3.5
						C389.7,84.4,384.7,83.7,384.6,83.7L384.6,83.7z"/>
				</mask>
				<g class="st99">
					<path class="st49" d="M398.4,95.6l-19.8,0.3l-0.3-17.6l19.8-0.3L398.4,95.6z"/>
				</g>
				<defs>
					<filter id="Adobe_OpacityMaskFilter_34_" filterUnits="userSpaceOnUse" x="-0.6" y="84.4" width="20.1" height="17.9">
						<feColorMatrix  type="matrix" values="1 0 0 0 0  0 1 0 0 0  0 0 1 0 0  0 0 0 1 0"/>
					</filter>
				</defs>
				<mask maskUnits="userSpaceOnUse" x="-0.6" y="84.4" width="20.1" height="17.9" id="mask10_663_298_3_">
					<path class="st100" d="M5.7,90.1L5.7,90.1c-0.2,0-0.5,3.6-0.6,4.1l0,0.1c2.9-0.3,8.1,2.3,8.1,2.3l0.7-3.5
						C10.8,90.7,5.8,90.1,5.7,90.1L5.7,90.1z"/>
				</mask>
				<g class="st101">
					<path class="st30" d="M19.5,101.9l-19.8,0.3l-0.3-17.6l19.8-0.3L19.5,101.9z"/>
				</g>
				<defs>
					<filter id="Adobe_OpacityMaskFilter_35_" filterUnits="userSpaceOnUse" x="269.1" y="93.3" width="20.1" height="17.9">
						<feColorMatrix  type="matrix" values="1 0 0 0 0  0 1 0 0 0  0 0 1 0 0  0 0 0 1 0"/>
					</filter>
				</defs>
				<mask maskUnits="userSpaceOnUse" x="269.1" y="93.3" width="20.1" height="17.9" id="mask11_663_298_3_">
					<path class="st102" d="M275.3,99.1L275.3,99.1c-0.2,0-0.5,3.6-0.6,4.1l0,0.1c2.9-0.3,8.1,2.3,8.1,2.3l0.7-3.5
						C280.5,99.7,275.5,99,275.3,99.1L275.3,99.1z"/>
				</mask>
				<g class="st103">
					<path class="st30" d="M289.1,110.9l-19.8,0.3l-0.3-17.6l19.8-0.3L289.1,110.9z"/>
				</g>
				<defs>
					<filter id="Adobe_OpacityMaskFilter_36_" filterUnits="userSpaceOnUse" x="469.2" y="83.8" width="22.4" height="24.5">
						<feColorMatrix  type="matrix" values="1 0 0 0 0  0 1 0 0 0  0 0 1 0 0  0 0 0 1 0"/>
					</filter>
				</defs>
				<mask maskUnits="userSpaceOnUse" x="469.2" y="83.8" width="22.4" height="24.5" id="mask12_663_298_3_">
					<path class="st104" d="M481.9,89.4c0,0-3.4,7.1-7,9c0,0,4.1,4.2,4.3,4.2c0.2-0.1,5.2-4.8,6.6-9.8L481.9,89.4z"/>
				</mask>
				<g class="st105">
					<path class="st49" d="M491.6,107.9l-22,0.4l-0.4-24.1l22-0.4L491.6,107.9z"/>
				</g>
				<defs>
					<filter id="Adobe_OpacityMaskFilter_37_" filterUnits="userSpaceOnUse" x="246.9" y="32.6" width="22.4" height="24.5">
						<feColorMatrix  type="matrix" values="1 0 0 0 0  0 1 0 0 0  0 0 1 0 0  0 0 0 1 0"/>
					</filter>
				</defs>
				<mask maskUnits="userSpaceOnUse" x="246.9" y="32.6" width="22.4" height="24.5" id="mask13_663_298_3_">
					<path class="st106" d="M259.6,38.3c0,0-3.4,7.1-7,9c0,0,4.1,4.2,4.3,4.2c0.2-0.1,5.2-4.8,6.6-9.8L259.6,38.3z"/>
				</mask>
				<g class="st107">
					<path class="st49" d="M269.3,56.8l-22,0.4L246.9,33l22-0.4L269.3,56.8z"/>
				</g>
				<defs>
					<filter id="Adobe_OpacityMaskFilter_38_" filterUnits="userSpaceOnUse" x="27" y="24.5" width="22.4" height="24.5">
						<feColorMatrix  type="matrix" values="1 0 0 0 0  0 1 0 0 0  0 0 1 0 0  0 0 0 1 0"/>
					</filter>
				</defs>
				<mask maskUnits="userSpaceOnUse" x="27" y="24.5" width="22.4" height="24.5" id="mask14_663_298_3_">
					<path class="st108" d="M39.7,30.2c0,0-3.4,7.1-7,9c0,0,4.1,4.2,4.3,4.2c0.2-0.1,5.2-4.8,6.6-9.8L39.7,30.2z"/>
				</mask>
				<g class="st109">
					<path class="st49" d="M49.4,48.7l-22,0.4L27,24.9l22-0.4L49.4,48.7z"/>
				</g>
				<defs>
					<filter id="Adobe_OpacityMaskFilter_39_" filterUnits="userSpaceOnUse" x="549.7" y="42.8" width="22.4" height="24.5">
						<feColorMatrix  type="matrix" values="1 0 0 0 0  0 1 0 0 0  0 0 1 0 0  0 0 0 1 0"/>
					</filter>
				</defs>
				<mask maskUnits="userSpaceOnUse" x="549.7" y="42.8" width="22.4" height="24.5" id="mask15_663_298_3_">
					<path class="st110" d="M562.4,48.5c0,0-3.4,7.1-7,9c0,0,4.1,4.2,4.3,4.2c0.2-0.1,5.2-4.8,6.6-9.8L562.4,48.5z"/>
				</mask>
				<g class="st111">
					<path class="st49" d="M572,67l-22,0.4l-0.4-24.1l22-0.4L572,67z"/>
				</g>
				<defs>
					<filter id="Adobe_OpacityMaskFilter_40_" filterUnits="userSpaceOnUse" x="409.6" y="30.1" width="22.4" height="24.5">
						<feColorMatrix  type="matrix" values="1 0 0 0 0  0 1 0 0 0  0 0 1 0 0  0 0 0 1 0"/>
					</filter>
				</defs>
				<mask maskUnits="userSpaceOnUse" x="409.6" y="30.1" width="22.4" height="24.5" id="mask16_663_298_3_">
					<path class="st112" d="M422.3,35.8c0,0-3.4,7.1-7,9c0,0,4.1,4.2,4.3,4.2c0.2-0.1,5.2-4.8,6.6-9.8L422.3,35.8z"/>
				</mask>
				<g class="st113">
					<path class="st49" d="M432,54.3l-22,0.4l-0.4-24.1l22-0.4L432,54.3z"/>
				</g>
				<defs>
					<filter id="Adobe_OpacityMaskFilter_41_" filterUnits="userSpaceOnUse" x="75.7" y="32.9" width="20.1" height="17.9">
						<feColorMatrix  type="matrix" values="1 0 0 0 0  0 1 0 0 0  0 0 1 0 0  0 0 0 1 0"/>
					</filter>
				</defs>
				<mask maskUnits="userSpaceOnUse" x="75.7" y="32.9" width="20.1" height="17.9" id="mask17_663_298_3_">
					<path class="st114" d="M82,38.7L82,38.7c-0.2,0-0.5,3.6-0.6,4.1l0,0.1c2.9-0.3,8.1,2.3,8.1,2.3l0.7-3.5
						C87.1,39.3,82.1,38.6,82,38.7L82,38.7z"/>
				</mask>
				<g class="st115">
					<path class="st30" d="M95.8,50.5L76,50.8l-0.3-17.6l19.8-0.3L95.8,50.5z"/>
				</g>
				<defs>
					<filter id="Adobe_OpacityMaskFilter_42_" filterUnits="userSpaceOnUse" x="77" y="108.4" width="20.1" height="17.9">
						<feColorMatrix  type="matrix" values="1 0 0 0 0  0 1 0 0 0  0 0 1 0 0  0 0 0 1 0"/>
					</filter>
				</defs>
				<mask maskUnits="userSpaceOnUse" x="77" y="108.4" width="20.1" height="17.9" id="mask18_663_298_3_">
					<path class="st116" d="M83.3,114.1L83.3,114.1c-0.2,0-0.5,3.6-0.6,4.1l0,0.1c2.9-0.3,8.1,2.3,8.1,2.3l0.7-3.5
						C88.4,114.8,83.4,114.1,83.3,114.1L83.3,114.1z"/>
				</mask>
				<g class="st117">
					<path class="st30" d="M97.1,126l-19.8,0.3L77,108.8l19.8-0.3L97.1,126z"/>
				</g>
				<defs>
					<filter id="Adobe_OpacityMaskFilter_43_" filterUnits="userSpaceOnUse" x="293.8" y="61.8" width="20.1" height="17.9">
						<feColorMatrix  type="matrix" values="1 0 0 0 0  0 1 0 0 0  0 0 1 0 0  0 0 0 1 0"/>
					</filter>
				</defs>
				<mask maskUnits="userSpaceOnUse" x="293.8" y="61.8" width="20.1" height="17.9" id="mask19_663_298_3_">
					<path class="st118" d="M300,67.5L300,67.5c-0.2,0-0.5,3.6-0.6,4.1l0,0.1c2.9-0.3,8.1,2.3,8.1,2.3l0.7-3.5
						C305.2,68.1,300.2,67.5,300,67.5L300,67.5z"/>
				</mask>
				<g class="st119">
					<path class="st30" d="M313.8,79.3l-19.8,0.3l-0.3-17.6l19.8-0.3L313.8,79.3z"/>
				</g>
				<defs>
					<filter id="Adobe_OpacityMaskFilter_44_" filterUnits="userSpaceOnUse" x="481.5" y="135.2" width="20.1" height="17.9">
						<feColorMatrix  type="matrix" values="1 0 0 0 0  0 1 0 0 0  0 0 1 0 0  0 0 0 1 0"/>
					</filter>
				</defs>
				<mask maskUnits="userSpaceOnUse" x="481.5" y="135.2" width="20.1" height="17.9" id="mask20_663_298_3_">
					<path class="st120" d="M487.8,140.9L487.8,140.9c-0.2,0-0.5,3.6-0.6,4.1l0,0.1c2.9-0.3,8.1,2.3,8.1,2.3l0.7-3.5
						C492.9,141.5,487.9,140.8,487.8,140.9L487.8,140.9z"/>
				</mask>
				<g class="st121">
					<path class="st30" d="M501.6,152.7l-19.8,0.3l-0.3-17.6l19.8-0.3L501.6,152.7z"/>
				</g>
				<defs>
					<filter id="Adobe_OpacityMaskFilter_45_" filterUnits="userSpaceOnUse" x="77" y="131.3" width="20.1" height="17.9">
						<feColorMatrix  type="matrix" values="1 0 0 0 0  0 1 0 0 0  0 0 1 0 0  0 0 0 1 0"/>
					</filter>
				</defs>
				<mask maskUnits="userSpaceOnUse" x="77" y="131.3" width="20.1" height="17.9" id="mask21_663_298_3_">
					<path class="st122" d="M83.3,137L83.3,137c-0.2,0-0.5,3.6-0.6,4.1l0,0.1c2.9-0.3,8.1,2.3,8.1,2.3l0.7-3.5
						C88.4,137.6,83.4,137,83.3,137L83.3,137z"/>
				</mask>
				<g class="st123">
					<path class="st38" d="M97.1,148.8l-19.8,0.3L77,131.6l19.8-0.3L97.1,148.8z"/>
				</g>
				<defs>
					<filter id="Adobe_OpacityMaskFilter_46_" filterUnits="userSpaceOnUse" x="155.8" y="32" width="22.4" height="24.5">
						<feColorMatrix  type="matrix" values="1 0 0 0 0  0 1 0 0 0  0 0 1 0 0  0 0 0 1 0"/>
					</filter>
				</defs>
				<mask maskUnits="userSpaceOnUse" x="155.8" y="32" width="22.4" height="24.5" id="mask22_663_298_3_">
					<path class="st124" d="M168.5,37.7c-0.1,0.2-3.4,7.1-7,9l0,0c0.2,0.2,4.1,4.2,4.3,4.2l0,0c0.4-0.2,5.2-4.9,6.5-9.7L168.5,37.7z
						"/>
				</mask>
				<g class="st125">
					<path class="st30" d="M178.2,56.1l-22,0.4l-0.4-24.1l22-0.4L178.2,56.1z"/>
				</g>
				<defs>
					<filter id="Adobe_OpacityMaskFilter_47_" filterUnits="userSpaceOnUse" x="363.9" y="38.4" width="22.4" height="24.5">
						<feColorMatrix  type="matrix" values="1 0 0 0 0  0 1 0 0 0  0 0 1 0 0  0 0 0 1 0"/>
					</filter>
				</defs>
				<mask maskUnits="userSpaceOnUse" x="363.9" y="38.4" width="22.4" height="24.5" id="mask23_663_298_3_">
					<path class="st126" d="M376.6,44.1c-0.1,0.2-3.4,7.1-7,9l0,0c0.2,0.2,4.1,4.2,4.3,4.2l0,0c0.4-0.2,5.2-4.9,6.5-9.7L376.6,44.1z
						"/>
				</mask>
				<g class="st127">
					<path class="st30" d="M386.3,62.6l-22,0.4l-0.4-24.1l22-0.4L386.3,62.6z"/>
				</g>
			</g>
			<g class="st1">
				<g>
					<path class="st128" d="M88.7,292l-8.8,30.5L51.7,325l-58.4,5l-331.3,130.4c-21.3,13.9-45.1,16.2-66.2,10.1
						c-34.4-10-61.5-42.4-58.4-83.8l414.7-173.2l21-47.5l24.1-11.4l22.8,34.2L88.7,292z"/>
					<path class="st129" d="M88.7,292l-8.8,30.5L51.7,325l-58.8-17c-6.8-2-10.6-9-8.7-15.8l4-13.8l-4.9-102.5l36.7,13L88.7,292z"/>
					<g>
						<defs>
							
								<rect id="SVGID_45_" x="-68.4" y="152" transform="matrix(0.2785 -0.9604 0.9604 0.2785 -159.7265 215.6324)" width="264" height="124.2"/>
						</defs>
						<clipPath id="SVGID_46_">
							<use xlink:href="#SVGID_45_"  style="overflow:visible;"/>
						</clipPath>
						<g class="st130">
							<path class="st131" d="M89.2,349l66.1-227.9c1.5-5.1-1.5-10.5-6.6-12L48,79.9c-5.1-1.5-10.5,1.5-12,6.6l-66.1,227.9
								c-1.5,5.1,1.5,10.5,6.6,12l100.7,29.2C82.4,357.1,87.7,354.1,89.2,349z"/>
							<path class="st132" d="M91.3,341.8l66.1-227.9c1.5-5.1-1.5-10.5-6.6-12L50.1,72.7c-5.1-1.5-10.5,1.5-12,6.6L-28,307.3
								c-1.5,5.1,1.5,10.5,6.6,12l100.7,29.2C84.4,349.9,89.8,347,91.3,341.8z"/>
							<path class="st133" d="M88.5,330l60.2-207.5c0.7-2.5-0.7-5.2-3.3-5.9L46.9,87.9c-2.5-0.7-5.2,0.7-5.9,3.3l-60.2,207.5
								c-0.7,2.5,0.7,5.2,3.3,5.9l98.5,28.6C85.1,334,87.7,332.5,88.5,330z"/>
							<path class="st134" d="M85.5,94l24,7c1.4,0.4,2.9-0.4,3.3-1.8l0.1-0.3c0.4-1.4-0.4-2.9-1.8-3.3l-24-7
								c-1.4-0.4-2.9,0.4-3.3,1.8l-0.1,0.3C83.3,92.1,84.1,93.6,85.5,94z"/>
							<g>
								<g>
									<path class="st135" d="M61,196.7c-2.5,2.7-7.5,6.6-13.6,5.5c-0.3,0-0.6-0.1-0.8-0.1c-2.4-0.5-2.8-2.6-2.2-4.1
										c0.6-1.5,1.3-1.4,1.2-1.2c-1.2,3.2,5.4,3.6,6.2,1.7c0.6-1.6-7.6-2.5-6-6.6c1.5-3.7,8.4-5,10.5-4.6c1.4,0.3,1.3,2.4,0.9,3.5
										c-0.4,1.1-2.4,2.7-2.6,2.7c-0.3-0.1-2-0.3-1.7-0.9c0.2-0.5,2-2.1,2.2-2.6c0.1-0.5-6.6,0.7-7.3,2.6
										c-0.1,0.3,6.7,2.6,5.8,5.5c-0.1,0.4-0.2,0.7-0.4,1c3-1,5.3-3,6.7-4.6C60.6,193.8,61.7,196,61,196.7z M47,190.8
										c0.2-0.2,0.4-0.3,0.6-0.5l0.7-0.5c0.5-0.3,1.1-0.6,1.7-0.9c1.2-0.5,2.4-0.9,3.4-1.1l1.2-0.2c0.1-0.1,0.2,0,0.3-0.1l0.1,0
										c0,0,0,0,0,0l0,0c0,0-0.1,0-0.1,0c0,0-0.2,0-0.3,0c-0.3,0-0.7,0.1-1.2,0.2c-0.5,0.1-1,0.2-1.6,0.4
										c-0.6,0.2-1.2,0.4-1.8,0.7c-0.6,0.2-1.2,0.5-1.7,0.9c-0.3,0.2-0.5,0.3-0.7,0.5C47.3,190.4,47.1,190.6,47,190.8
										c-0.3,0.2-0.4,0.3-0.5,0.4l-0.2,0.2c0,0.1-0.1,0.1-0.1,0.2c-0.1,0.1-0.1,0.2-0.1,0.3l0,0.1l0-0.1c0-0.1,0.1-0.2,0.2-0.3
										c0-0.1,0-0.1,0.1-0.2c0,0,0.1-0.1,0.2-0.2c0.1-0.1,0.1-0.2,0.2-0.2L47,190.8z M47.4,190.9c0.2-0.2,0.4-0.3,0.7-0.5
										c0.3-0.2,0.5-0.3,0.7-0.5c0-0.1,0.1-0.1,0.2-0.2l0.1-0.1l-0.1,0c-0.1,0-0.2,0.1-0.3,0.1l-0.8,0.4
										C47.7,190.5,47.5,190.7,47.4,190.9l-0.2,0.2c0,0,0,0.1-0.1,0.1c0,0,0,0,0,0c0,0,0,0,0-0.1c0,0,0.1,0,0.1-0.1L47.4,190.9z
										 M50.7,199.8C50.7,199.8,50.7,199.8,50.7,199.8l-0.1,0c0,0-0.1,0-0.3,0c-0.1,0-0.2,0.1-0.3,0.1c-0.3,0-0.5,0-0.8,0
										l-0.9-0.1l-0.5-0.1c-0.2,0-0.3,0-0.4-0.1c-0.2,0-0.3-0.1-0.4-0.1l-0.3-0.1l-0.3-0.1c-0.1-0.1-0.2-0.1-0.2-0.1l-0.2-0.1l0,0
										c0,0,0,0.1,0.1,0.1l0.2,0.1l0.3,0.1l0.4,0.2l0.4,0.1l0.5,0.1l0.5,0.1c0.3,0,0.7,0.1,1,0l0.5,0c0.2,0,0.3,0,0.4,0
										c0.1,0,0.2,0,0.3-0.1c0.1,0,0.1-0.1,0.2-0.1L50.7,199.8z"/>
									<path class="st135" d="M76.4,196.7C74.7,199,70.8,203,66,202c-0.2,0-0.4-0.1-0.6-0.1c-2.3,1.8-4.8,2.9-6.7,2.6
										c-0.9-0.2-3.6-2.5-2.9-4.8c0.6-2,3.3-4.6,5.5-6.1l0.2-0.5c0.6-2.2,5-3.9,7.1-3.5c1.1,0.2,2.8,2.8,1.8,6
										c-0.4,1.4-1.5,3-3,4.5c2.9,0,5.7-3.3,7.4-4.9C75.5,194.5,76.7,196.4,76.4,196.7z M57.8,200.1c0-0.1,0.1-0.1,0.1-0.2
										c0.1-0.2,0.2-0.4,0.4-0.5c0.1-0.2,0.2-0.4,0.4-0.5l0.4-0.5c0.1-0.1,0.1-0.2,0.2-0.3l0.1-0.1l-0.1,0.1
										c-0.1,0.1-0.2,0.2-0.3,0.3l-0.4,0.5l-0.4,0.5c-0.1,0.2-0.2,0.4-0.4,0.6C57.8,199.9,57.7,200,57.8,200.1
										c-0.1,0.1-0.2,0.1-0.2,0.2c-0.1,0.2-0.1,0.3-0.1,0.4l0,0.1l0,0c0,0,0,0,0.1-0.1c0-0.1,0.1-0.2,0.2-0.4
										C57.7,200.3,57.7,200.2,57.8,200.1z M58.2,199.9c0.1-0.2,0.3-0.4,0.4-0.5l0.3-0.3c0.1-0.1,0.1-0.2,0.2-0.3l0.6-0.6l0.7-0.6
										c0.2-0.2,0.5-0.4,0.7-0.5l0-0.3l-0.1,0.1c-0.2,0.2-0.5,0.4-0.7,0.6l-0.7,0.6l-0.6,0.6c-0.1,0.1-0.2,0.2-0.3,0.3
										c-0.1,0.1-0.1,0.2-0.2,0.3c-0.2,0.2-0.2,0.4-0.4,0.6l-0.2,0.3c0,0.1-0.1,0.2-0.1,0.3c-0.1,0.2-0.2,0.3-0.2,0.4
										c-0.1,0.1-0.1,0.2-0.1,0.3l0,0.1l0-0.1c0-0.1,0.1-0.1,0.1-0.3c0.1-0.1,0.1-0.2,0.2-0.4C58,200.3,58,200.1,58.2,199.9z
										 M62.6,200.5c-1-0.9-1.4-2-1.6-3.1c-1.4,1.1-2.8,2.6-3.3,4.4C59.2,202,60.9,201.5,62.6,200.5z M64,199.5
										c2.7-2,4.9-4.9,5.5-6.8c0.1-0.4,0-0.7-0.4-0.8c-1.2-0.2-3,0.5-4.5,1.7c0.3,0.6,0.4,1.3,0.1,1.5c-0.3,0.1-1.3,0.6-2.6,1.5
										C61.7,197.8,62.1,198.9,64,199.5z M62.8,200.6C62.8,200.6,62.8,200.6,62.8,200.6l-0.5,0.2c-0.3,0.1-0.4,0.2-0.6,0.3
										c-0.2,0.1-0.4,0.2-0.5,0.2l-0.3,0.2c0,0-0.1,0-0.1,0l0.4-0.2l0.5-0.2c0.2-0.1,0.4-0.2,0.6-0.3
										C62.5,200.8,62.6,200.7,62.8,200.6z M62.6,195.8l-0.2,0.3c0.2-0.2,0.4-0.3,0.6-0.4l0.5-0.3l0.4-0.2l0.4-0.2l-0.1,0
										c-0.1,0-0.2,0.1-0.3,0.1c-0.3,0.2-0.6,0.3-1,0.5L62.6,195.8z M64,191.2l-0.1,0.1L64,191.2L64,191.2l0.4-0.2
										c0.1-0.1,0.3-0.1,0.5-0.2c0.2-0.1,0.3-0.2,0.6-0.2l0.6-0.2c0.2,0,0.4-0.1,0.6-0.2l0.4-0.1l0.1,0l0,0c0,0-0.1,0-0.2,0
										c-0.1,0-0.2,0-0.4,0.1c-0.4,0.1-0.8,0.2-1.2,0.3c-0.4,0.1-0.8,0.3-1.1,0.5L64,191.2z M64.6,190.6L64.6,190.6l0.1,0
										c0.1-0.1,0.2-0.1,0.4-0.2c0.2,0,0.4-0.1,0.6-0.2c0.1-0.1,0.2,0,0.4-0.1c0.1-0.1,0.2,0,0.4-0.1L67,190l0.3-0.1
										c0.2,0,0.5,0,0.6-0.1c0.1,0,0.2,0,0.3,0l0.2,0l0.1,0c0,0,0,0,0,0l-0.2,0l-0.2,0c-0.1,0-0.2,0-0.3,0c0,0-0.2,0-0.3,0l-0.3,0
										l-0.8,0.1c-0.2,0.1-0.5,0.1-0.7,0.2c-0.2,0.1-0.4,0.2-0.6,0.3c-0.2,0.1-0.4,0.2-0.4,0.2C64.7,190.6,64.7,190.6,64.6,190.6z
										 M66.6,197.6c0.1-0.1,0.2-0.3,0.3-0.4c0.2-0.2,0.4-0.5,0.6-0.7c0.2-0.2,0.4-0.4,0.5-0.6l0.7-1c0.1-0.1,0.1-0.2,0.2-0.3
										c0,0,0.1-0.1,0.1-0.1c0,0,0,0.1-0.1,0.1c-0.1,0.1-0.1,0.2-0.2,0.3c-0.2,0.2-0.4,0.6-0.7,1l-0.5,0.6
										c-0.2,0.2-0.4,0.5-0.6,0.7L66.6,197.6c-0.2,0-0.3,0.2-0.4,0.3c-0.3,0.3-0.5,0.4-0.8,0.7c-0.3,0.2-0.5,0.4-0.8,0.6l-0.4,0.3
										l0.1,0l0.4-0.3c0.3-0.2,0.5-0.4,0.8-0.6c0.3-0.3,0.5-0.4,0.8-0.7L66.6,197.6z M69,195c0.2-0.3,0.3-0.6,0.4-0.8
										c0.2-0.3,0.3-0.5,0.3-0.8l0.2-0.5l0.1-0.2l0,0.1c0,0-0.1,0.1-0.1,0.2c0,0.1-0.1,0.3-0.2,0.5c-0.1,0.2-0.2,0.4-0.3,0.7
										l-0.5,0.8l-0.5,0.8l-0.5,0.6c-0.2,0.2-0.2,0.4-0.4,0.5c0,0.1-0.1,0.1-0.1,0.1c0,0,0,0,0,0.1l0.1-0.2
										c0.1-0.1,0.2-0.3,0.4-0.5c0.1-0.2,0.3-0.4,0.5-0.6L69,195z"/>
									<path class="st135" d="M82.4,200.9c-2.1,2.3-5.8,7.1-9.7,6.3c-1.5-0.3-3.7-2.4-3.1-4.5c1.3-4.4,14.9-19.1,15-19.4
										c0.1-0.2,0.2-0.3,0.4-0.3s1.7,1.5,1.4,2.5c-0.3,1-13.4,14.4-14.7,18.9c-0.1,0.4,0.1,0.6,0.5,0.7c2.8,0.6,6.8-4,8.9-6.2
										C81.5,198.4,82.9,200.4,82.4,200.9z M72,199.7c-0.1,0.1-0.1,0.1-0.1,0.2c0.2-0.2,0.4-0.4,0.5-0.7c0.4-0.4,0.8-1,1.4-1.8
										c0.3-0.4,0.6-0.8,0.9-1.2c0.3-0.4,0.7-0.8,1-1.3c0.7-0.9,1.5-1.9,2.3-2.8c0.8-1,1.6-1.9,2.4-2.8c0.8-0.9,1.5-1.7,2.1-2.4
										l1.5-1.7l0.5-0.7c-0.1,0.2-0.3,0.4-0.6,0.6l-1.5,1.7c-0.6,0.7-1.4,1.5-2.1,2.4c-0.8,0.9-1.6,1.8-2.4,2.8
										c-0.8,1-1.5,2-2.3,2.8c-0.4,0.5-0.6,0.9-1,1.3c-0.4,0.4-0.6,0.8-0.9,1.2c-0.6,0.7-1,1.4-1.3,1.8
										C72.2,199.4,72,199.5,72,199.7z M72.1,202.7c0.1-0.2,0.2-0.4,0.4-0.6c0.2-0.2,0.3-0.4,0.5-0.7l0.5-0.8l1.2-1.6l1.2-1.6
										L77,196l0.8-1c0.1-0.1,0.2-0.3,0.3-0.4l-0.1,0.1c-0.1,0.1-0.1,0.2-0.2,0.3l-0.9,1l-1.1,1.4l-1.3,1.6
										c-0.4,0.6-0.8,1.1-1.2,1.7l-0.5,0.8c-0.2,0.3-0.3,0.5-0.4,0.7C72.2,202.3,72.2,202.5,72.1,202.7c-0.1,0.2-0.2,0.3-0.3,0.5
										c-0.1,0.1-0.1,0.2-0.1,0.3l0,0.1l0-0.1c0-0.1,0.1-0.3,0.1-0.3C71.9,203,71.9,202.9,72.1,202.7z M83.7,185.9
										c0.1-0.1,0.2-0.2,0.2-0.3L83.7,185.9c-0.1,0.2-0.4,0.4-0.7,0.7c-0.3,0.3-0.6,0.7-0.9,1.1c-0.3,0.4-0.7,0.8-1.1,1.2
										c-0.4,0.4-0.7,0.8-1,1.2c-0.3,0.4-0.6,0.8-0.9,1.1l-0.6,0.8l-0.2,0.2c0,0,0,0.1-0.1,0.1l0.2-0.3c0.1-0.2,0.4-0.4,0.6-0.8
										c0.3-0.3,0.6-0.7,0.9-1.1l1-1.2c0.4-0.4,0.7-0.8,1.1-1.2c0.3-0.4,0.6-0.7,0.9-1.1L83.7,185.9z"/>
									<path class="st135" d="M89.7,202.2c-0.4,1.2-6.4,7.1-10.3,6.3c-0.8-0.2-3-2-2.6-3.4c0.7-2.6,8-10.8,8.4-11.1
										c0.7-0.4,1.6,1.7,1.4,2.5c-0.1,0.5-7.7,9-6.9,9.2c3.1,0.6,6.9-3.4,8.8-5.6C88.9,199.8,90.1,200.9,89.7,202.2z M78.1,203.5
										l0.8-1.1c0.2-0.2,0.4-0.5,0.5-0.8l0.7-0.8c0.4-0.6,0.9-1.2,1.4-1.8l1.4-1.8c0.5-0.5,0.3-0.4,0.7-0.9
										c0.4-0.5,0.7-0.8,0.9-1.1c0.1-0.1,0.2-0.2,0.2-0.3c0-0.1,0.1-0.1,0.1-0.1l0,0l-0.4,0.4l-0.9,1.1c-0.8,0.9-1.3,1.5-2.2,2.7
										c-1,1.2-1.9,2.5-2.6,3.5L78.1,203.5c-0.2,0.2-0.2,0.3-0.3,0.3c0,0.1-0.1,0.1-0.1,0.1C77.9,203.8,78,203.7,78.1,203.5z
										 M80,201.6c0.2-0.2,0.2-0.4,0.4-0.6l0.2-0.2l-0.2,0.2C80.2,201.1,80.1,201.3,80,201.6l-0.7,0.7l-0.7,0.9
										c-0.2,0.3-0.4,0.6-0.6,0.9c-0.2,0.3-0.4,0.6-0.5,0.9c-0.2,0.2-0.2,0.4-0.2,0.6c0,0.1,0,0.1,0,0.2c0,0,0,0,0,0.1
										c0,0,0,0,0-0.1c0,0,0-0.1,0-0.2c0-0.2,0.1-0.4,0.3-0.6c0.2-0.2,0.3-0.5,0.5-0.8l0.7-0.9c0.2-0.3,0.4-0.6,0.6-0.9L80,201.6z
										 M87.3,191.4c0.1-0.4,2.4-3.5,3.1-3.4c0.6,0.1,1.5,2.3,1.4,2.6c-0.1,0.3-3.1,2.8-3.5,2.7C87.8,193.2,87.3,191.8,87.3,191.4
										z M85.1,205l0.6-0.5l0.6-0.5l0.5-0.5c0.1-0.1,0.2-0.3,0.3-0.4c0-0.1,0.1-0.1,0.1-0.1l-0.1,0.1c-0.1,0.1-0.2,0.2-0.3,0.3
										c-0.2,0.1-0.3,0.3-0.5,0.4l-0.6,0.5L85.1,205c-0.3,0.1-0.4,0.2-0.6,0.3l-0.4,0.3c0,0.1-0.1,0.1-0.2,0.1l0.2-0.1
										c0.1,0,0.3-0.1,0.4-0.2C84.7,205.3,84.9,205.2,85.1,205z M87.8,202.8c0.1-0.2,0.2-0.3,0.3-0.4l0.1-0.2l-0.1,0.2
										C88.1,202.5,87.9,202.6,87.8,202.8c-0.2,0.1-0.4,0.3-0.6,0.5l-0.6,0.6l-0.7,0.6c-0.2,0.2-0.4,0.3-0.6,0.5
										c-0.2,0.2-0.3,0.3-0.4,0.3l-0.1,0.1l0,0l0,0c0,0,0,0,0.1-0.1c0.1-0.1,0.3-0.2,0.4-0.3c0.2-0.2,0.4-0.3,0.6-0.5l0.7-0.6
										l0.6-0.6L87.8,202.8z"/>
								</g>
								<g>
									<path class="st135" d="M70.5,217.9c-13.1,2.2-23.1-5.2-23.4-7.3c-0.1-0.8,2.1-3.3,2.6-3.4c0.5-0.1,6.9,9.5,22.8,6.8
										c6.2-1.1,8.8-4.1,8.9-3.4C81.9,213.2,76.4,216.9,70.5,217.9z M61.4,217.4c0.3,0.1,0.6,0,0.8,0.1c0.2,0.1,0.4,0,0.6,0.1
										l0.2,0.1l-0.2-0.1c-0.1,0-0.3,0-0.5-0.1c-0.2-0.1-0.5-0.1-0.8-0.2l-1-0.3l-1.3-0.3c-0.5-0.1-0.9-0.2-1.4-0.4
										c-0.5-0.2-0.9-0.3-1.5-0.5c-0.5-0.1-1-0.3-1.5-0.6c-0.5-0.2-1-0.4-1.4-0.6c-0.2-0.1-0.5-0.2-0.7-0.3
										c-0.2-0.1-0.4-0.2-0.7-0.3l-1.2-0.7c-0.1-0.1-0.3-0.2-0.6-0.3l-0.5-0.3l-0.4-0.4c-0.1-0.1-0.2-0.2-0.3-0.3l-0.6-0.5
										l-0.3-0.4c0,0-0.1-0.1-0.1-0.1l0,0l0,0c0,0,0,0.1,0.1,0.2c0.1,0.1,0.2,0.2,0.3,0.4l0.5,0.6c0.1,0.1,0.2,0.2,0.4,0.3
										l0.4,0.4l0.5,0.4c0.2,0.1,0.3,0.3,0.5,0.4l0.6,0.4l0.6,0.4l0.7,0.4c0.2,0.1,0.5,0.2,0.7,0.3c0.4,0.2,0.9,0.4,1.4,0.6
										c0.5,0.2,1,0.4,1.5,0.6c0.5,0.2,0.9,0.3,1.5,0.5c0.5,0.1,0.9,0.3,1.4,0.4c0.5,0.1,0.9,0.2,1.2,0.3L61.4,217.4z"/>
								</g>
							</g>
						</g>
					</g>
					<path class="st128" d="M24.1,196.9c-8.3-13.5-16.5-27-24.8-40.5c-2.2-3.7-6.4-5.7-10.6-5.2c-2.9,0.3-6.2,1.3-9.4,3.7
						c-2.4,1.8-4,3.8-5.2,5.8c-2.2,3.7-1.9,8.5,0.6,12L2.1,211c4.1,5.7,11.9,7.5,17.8,3.8C26,211,27.8,203,24.1,196.9L24.1,196.9z"
						/>
					<path class="st128" d="M147.9,203.4c-0.2-8.1-6.9-14.4-14.9-14.2l-16.6,0.8c-8.1,0.2-14.4,6.9-14.2,14.9
						c0.2,8.1,6.9,14.4,14.9,14.2l16.6-0.8C141.7,218.1,148.1,211.4,147.9,203.4z"/>
					<path class="st128" d="M124.6,247.6l-19.7,0.9c-1.5,0-3-0.2-4.4-0.6c-5.9-1.7-10.3-7.1-10.5-13.7c-0.2-7.9,5.9-14.5,13.8-14.9
						c0.2,0,0.3,0,0.5,0l19.7-0.9c6.1-0.1,11.4,3.5,13.7,8.7c0.7,1.7,1.2,3.6,1.2,5.5C139.1,240.8,132.7,247.5,124.6,247.6z"/>
					<path class="st128" d="M119.3,277l-19.7,0.8c-1.5,0-3-0.2-4.4-0.6c-5.9-1.7-10.4-7.2-10.5-13.7c-0.2-7.6,5.4-13.9,12.8-14.8
						c0.5-0.1,0.9-0.1,1.4-0.1l19.7-0.8c5.2-0.1,9.8,2.5,12.4,6.4c1.5,2.2,2.4,4.9,2.5,7.8C133.8,270.1,127.4,276.8,119.3,277z"/>
					<path class="st136" d="M131.1,254.2l-20.6,0.9c-1.7,0-3.3-0.2-4.8-0.6c-3.3-1-6.2-3-8.3-5.7c0.5-0.1,0.9-0.1,1.4-0.1l19.7-0.8
						C123.8,247.7,128.4,250.3,131.1,254.2z"/>
					<path class="st128" d="M111.8,306.3l-19.7,0.8c-1.5,0-3-0.2-4.4-0.6c-5.9-1.7-10.3-7.1-10.5-13.7C77,285.1,83,278.6,90.8,278
						c0.2,0,0.4,0,0.6,0l19.7-0.8c5-0.1,9.5,2.3,12.2,6.1c1.6,2.3,2.6,5.1,2.7,8.1C126.3,299.5,119.9,306.1,111.8,306.3z"/>
					<path class="st136" d="M123.4,283.3l-18.9,0.8c-1.8,0-3.6-0.2-5.3-0.7c-3.3-1-6.2-2.9-8.4-5.4c0.2,0,0.4,0,0.6,0l19.7-0.8
						C116.2,277,120.7,279.5,123.4,283.3z"/>
					<path class="st136" d="M137.6,227.2c-0.4,0.1-0.8,0.1-1.2,0.1l-18.4,0.8c-6.3,0.1-11.7-3.5-14.3-8.8c0.2,0,0.3,0,0.5,0
						l19.7-0.9C130,218.4,135.3,222,137.6,227.2z"/>
				</g>
				<g>
					<path class="st137" d="M473.4,234.2c40.1,3,260.4,233.8,300.5,219.5l-1.4-22.4c-11.7,7-263-213.4-299.7-217.8L473.4,234.2z"/>
					<g>
						<defs>
							
								<rect id="SVGID_47_" x="321.9" y="57" transform="matrix(0.9922 -0.125 0.125 0.9922 -26.623 52.8424)" width="171.6" height="363"/>
						</defs>
						<clipPath id="SVGID_48_">
							<use xlink:href="#SVGID_47_"  style="overflow:visible;"/>
						</clipPath>
						<g class="st138">
							<path class="st131" d="M358.5,427.6l143.8-18.1c7.3-0.9,12.5-7.6,11.6-14.8L473,71c-0.9-7.3-7.6-12.4-14.9-11.5L314.3,77.7
								c-7.3,0.9-12.5,7.6-11.6,14.8l40.8,323.6C344.5,423.4,351.1,428.5,358.5,427.6z"/>
							<path class="st132" d="M357.2,417.5l143.8-18.1c7.3-0.9,12.5-7.6,11.6-14.8L471.7,60.9c-0.9-7.3-7.6-12.4-14.9-11.5
								L313.1,67.5c-7.3,0.9-12.5,7.6-11.6,14.8L342.3,406C343.2,413.2,349.9,418.4,357.2,417.5z"/>
							<path class="st134" d="M407.1,66.6l-0.1-0.4c-0.2-2-2.1-3.4-4.1-3.1l-34.3,4.3c-2,0.3-3.4,2.1-3.2,4l0.1,0.4
								c0.2,2,2.1,3.4,4.1,3.1l34.3-4.3C405.9,70.4,407.3,68.6,407.1,66.6z"/>
							<g>
								<defs>
									<path id="SVGID_49_" d="M356.1,396.2l140.6-17.7c3.6-0.5,6.2-3.8,5.7-7.4L465.3,76.4c-0.5-3.6-3.8-6.2-7.4-5.7L317.3,88.4
										c-3.6,0.5-6.2,3.8-5.7,7.4l37.1,294.7C349.2,394.1,352.5,396.6,356.1,396.2z"/>
								</defs>
								<clipPath id="SVGID_50_">
									<use xlink:href="#SVGID_49_"  style="overflow:visible;"/>
								</clipPath>
								
									<rect x="247.3" y="140.6" transform="matrix(-0.1272 -0.9919 0.9919 -0.1272 230.0957 663.0627)" class="st139" width="319" height="179.4"/>
								<g class="st140">
									<g>
										<g>
											<path class="st135" d="M443.9,224.9c-8.3,1.2-17.5,3.3-26.1,5.5c0.5-3.6,1-7.2,1-7.2s1.3,2,4,1.4
												c3.9-0.8,8.3-5.3,9.7-12.7c1.5-7.9,0.2-16.4-5-16.5c-4.2-0.1-5.7,3.8-5.9,4.6c0,0,0.5-3.4-2.1-2.5
												c-2.4,0.9-2.7,2-3.1,4.1c-0.1,0.4-1.2,8.5-2.3,17c0,0.1,0,0.1-0.1,0.2c-0.3,1.9-1.3,2.7-2.1,2.8
												c-2.5,0.5,0.8-16.8,1-18.2c0.3-1.7,0.5-3-1.4-3.5c-1.3-0.3-3,0.1-3.3,1.5c-0.1,0.6-0.2,1-0.2,1s-1.7-1.9-4.8-1.2
												c-3.1,0.7-6.6,5-8.3,12s-1.7,16.8,4.7,16.9c3.2,0.1,5.6-2.1,6.6-5.2c0,0,0,2,2.2,2.7c0.9,0.3,2.9-0.1,4.6-1.5
												c-0.3,1.9-0.5,3.8-0.7,5.4c-13.2,3.6-23.4,7-23.4,7c0,0,4.2-25.8,5.1-31.5c0.8-4.8-1.7-3.4-3.5-2.6c-2,0.9-2.7,2.7-3.4,6
												c-2.7,14.3-5.7,19.1-8.4,18.5c-2.5-0.5,3.1-16.1,1-17.8c-1.8-1.5-4.9-1-5.4,0.1c-0.5,1.1,0.5,1.8,0.3,3.3
												c-0.2,1.4-2.2,9.4-2.3,11.1c-0.1,1.7-1.5,11.4,5.3,10.1c4-0.8,6.4-4.2,6.5-5c-0.8,3.8-1.8,9.9-1.8,9.9s-8,3.1-13.7,10.8
												c-4.5,6.1-6.7,18.4,1.3,19.2c12.5,1.4,15.8-17.9,17.9-25.2c9.5-3.4,16.8-5.9,23.6-7.8c-0.1,0.4-0.1,0.7-0.1,0.8
												c-0.3,3,0,4.1,2.3,3.5c2.4-0.6,2.5-1.9,3-5c0-0.2,0.1-0.5,0.1-0.8c8.1-2.2,16-3.9,27-6.2c3.4-0.7,3.3-1.3,3.4-3.4
												C447.4,224.4,444.7,224.7,443.9,224.9z M420.7,211.6c1-5.6,2.2-8,3.6-8.8c3.2-1.9,4.4,2.3,2.6,9.1
												c-2.1,7.9-5.7,8.2-7.2,6.9C419.7,218.9,419.7,217.6,420.7,211.6z M405.9,216.8c-1,3.7-2.1,6.4-3.9,6.6
												c-2.7,0.4-3.2-3.7-1.9-9.1c1.1-4.5,3.7-7.6,5.2-8.1C406.8,205.8,408.8,206.2,405.9,216.8z M375.4,262.6
												c-5.7,6.6-5.1-1.5-3.1-5.2c3.7-7,9.1-9.4,9.1-9.4C379.6,256.7,376.5,261.2,375.4,262.6z"/>
											<path class="st135" d="M449.8,203c2.1-3.1,2.4-9.3-2-11c-5.3-2-11.2,2.9-12.7,12c-1.4,8.1-1,17.8,7,16.5
												c3.9-0.7,7-4,7.9-6.2c0.5-1.1,0.5-2.7,0.3-3.5c-0.6-2-1.8-2.1-3.6,0.8c-0.4,0.6-4.1,4.8-6.4,2.9
												c-1.7-1.4-0.8-4.6-0.8-4.6C442.2,209.3,446.7,207.7,449.8,203z M443,196.9c1.9-2.4,4.4-0.1,2.3,3.7
												c-2.1,3.9-5.2,4.2-5.2,4.3C440.2,203.5,440.9,199.5,443,196.9z"/>
										</g>
										<g>
											<path class="st141" d="M402.2,177.5c-0.5-0.2-1.3-0.3-2.2-0.2l-2.9,0.4l0.5,4l3-0.4c1.9-0.2,2.7-1,2.5-2.4
												C403,178.2,402.7,177.8,402.2,177.5z"/>
											<path class="st141" d="M401.3,158.8c-8.6,1.5-14.8,9.4-14.2,18.1c0.4,5.9,3.7,10.9,8.3,13.7c0.5,0.3,0.8,0.8,0.9,1.3
												l0.5,3.8c0,0.3,0.2,0.5,0.5,0.6l0.1,0c0.3,0.1,0.6,0,0.8-0.2l2.9-2.8c0.4-0.4,0.9-0.5,1.4-0.5c1.3,0.1,2.7,0.1,4,0
												c9.5-1.2,16.2-9.9,14.9-19.3C420.2,163.9,411.1,157.1,401.3,158.8z M405.6,180.9c-0.3,0.7-0.8,1.2-1.4,1.6
												c-0.4,0.2-0.9,0.4-1.4,0.5s-1.2,0.3-1.9,0.3l-4.2,0.5c-0.6,0.1-1,0-1.3-0.2c-0.3-0.2-0.5-0.6-0.6-1.2l-1.3-10.2
												c-0.1-0.6,0-1.1,0.2-1.3s0.6-0.5,1.2-0.6l4.4-0.6c0.6-0.1,1.2-0.1,1.7-0.1c0.5,0,0.9,0.1,1.3,0.3
												c0.3,0.2,0.7,0.4,0.9,0.6c0.3,0.3,0.5,0.6,0.7,0.9c0.2,0.3,0.3,0.7,0.3,1.1c0.2,1.4-0.4,2.4-1.7,3.3
												c1.9,0.3,2.9,1.3,3.1,3C406,179.5,405.9,180.3,405.6,180.9z M415.3,180.2c-0.3,0.5-0.7,1-1.4,1.3
												c-0.6,0.3-1.4,0.6-2.4,0.7c-0.9,0.1-1.7,0.1-2.4-0.1s-1.2-0.5-1.6-0.9c-0.4-0.4-0.6-0.8-0.6-1.2c0-0.3,0-0.5,0.2-0.8
												s0.4-0.4,0.7-0.4c0.3,0,0.5,0,0.6,0.1c0.2,0.1,0.3,0.3,0.5,0.5c0.3,0.4,0.7,0.7,1.1,0.9s0.9,0.2,1.5,0.1
												c0.5-0.1,0.9-0.2,1.2-0.5c0.3-0.3,0.4-0.5,0.4-0.8c-0.1-0.4-0.3-0.8-0.6-0.9c-0.4-0.2-0.9-0.3-1.7-0.4
												c-0.9-0.1-1.6-0.2-2.2-0.4c-0.6-0.2-1.1-0.4-1.4-0.8c-0.4-0.3-0.6-0.8-0.7-1.4c-0.1-0.5,0-1,0.3-1.5
												c0.2-0.5,0.6-0.9,1.2-1.3c0.6-0.3,1.3-0.6,2.1-0.7c0.7-0.1,1.3-0.1,1.8,0c0.5,0.1,1,0.2,1.4,0.4s0.7,0.4,0.9,0.7
												c0.2,0.3,0.3,0.5,0.4,0.8c0,0.3,0,0.5-0.2,0.8c-0.2,0.2-0.4,0.3-0.8,0.4c-0.3,0-0.5,0-0.7-0.1c-0.2-0.1-0.4-0.3-0.7-0.6
												c-0.2-0.2-0.5-0.4-0.8-0.5c-0.3-0.1-0.6-0.1-1.1-0.1c-0.5,0.1-0.8,0.2-1.1,0.4c-0.3,0.2-0.4,0.5-0.4,0.8
												c0,0.3,0.2,0.5,0.4,0.6c0.2,0.1,0.6,0.2,1,0.3c0.4,0.1,0.9,0.1,1.6,0.2c0.8,0.1,1.5,0.2,2,0.4c0.5,0.2,1,0.5,1.3,0.8
												c0.3,0.3,0.5,0.7,0.5,1.2C415.7,179,415.6,179.7,415.3,180.2z"/>
											<path class="st141" d="M400.9,175c0.4-0.2,0.6-0.5,0.8-0.9c0.1-0.3,0.2-0.6,0.1-0.9c-0.1-0.7-0.4-1.1-0.9-1.3
												c-0.5-0.2-1.3-0.2-2.3-0.1l-2.2,0.3l0.5,3.5l2.5-0.3C400,175.3,400.5,175.2,400.9,175z"/>
										</g>
									</g>
								</g>
							</g>
						</g>
					</g>
					<path class="st142" d="M492.4,205.9c11.6-2.4,23.9,9.7,27.4,26.9c3.5,17.2-3.2,25.5-14.8,27.9c-11.6,2.4-23.8-2.1-27.3-19.3
						C474.2,224.2,480.7,208.3,492.4,205.9L492.4,205.9z"/>
					<path class="st137" d="M482,239.3c-1.8-8.8-1.3-17.8,0.4-26.5c-5,6.7-7,17.4-4.7,28.7c2.4,12,9.1,17.8,16.8,19.4
						C488,255.2,483.7,247.7,482,239.3L482,239.3z"/>
					<path class="st142" d="M306.4,287.8c5.1,36.7,21.8,55.9,34.3,54.1c12.5-1.7,32.3-14.1,27.3-58.2c-4-35.6-35.8-37.4-35.8-37.4
						l-9.4-0.7l-3.2-20.3C309.6,233.3,302.1,257,306.4,287.8L306.4,287.8z"/>
					<path class="st137" d="M318.8,232.5c-2.6,4.1-6.2,12.4,0.1,15.2c2.9,1.3,6.4,1.1,9.5,1.1c3.8,0.1,7.5,0.4,11.2,1.2
						c4.8,1,9.3,2.6,13.6,4.8c-9.9-7.8-21-8.5-21-8.5l-9.4-0.7l-2.4-15.4C319.8,231,319.3,231.8,318.8,232.5L318.8,232.5z"/>
					<path class="st137" d="M306.4,287.8c5.1,36.7,21.8,55.9,34.3,54.1c5.7-0.8,12.9-3.8,18.6-11c-5.3,1.6-11.2,1.6-17,0
						c-8.7-2.3-16.1-7.9-21.3-15.2c-11.1-15.6-13.6-36.2-14.3-54.8c-0.1-2.4-0.2-4.7-0.2-7.1C304.9,263.5,304.6,275,306.4,287.8
						L306.4,287.8z"/>
				</g>
				<g>
					<path class="st143" d="M163.7,196.5l-15.5,0l-0.9-7l-8.2,0l-2.2,7l-14.8,0l13.4-45.5l22.5,0L163.7,196.5z M147.1,180.1
						l-1.5-15.2h-0.3l-4.2,15.2L147.1,180.1z"/>
					<path class="st143" d="M206,196.6l-15.6,0l1.4-16l-8,0l-1.4,16l-15.8,0l3.9-45.5l15.8,0l-1.5,17l8,0l1.5-17l15.6,0L206,196.6z"
						/>
					<path class="st143" d="M212.4,173.6c0.7-8.1,2.8-14,6.4-17.7c3.6-3.7,9.1-5.5,16.6-5.5c7.5,0,12.7,1.8,15.6,5.4
						c2.9,3.6,4,9.5,3.3,17.6c-0.7,8.1-2.9,14.1-6.5,18c-3.7,3.9-9.2,5.9-16.6,5.8c-7.4,0-12.6-1.9-15.5-5.8
						C212.8,187.7,211.7,181.7,212.4,173.6z M238.3,164.9c-0.5-1.2-1.9-1.9-4-1.9c-2.1,0-3.5,0.6-4.2,1.8c-0.7,1.2-1.2,3.8-1.6,7.8
						l-0.3,3.2c-0.4,4.1-0.3,6.8,0.3,8c0.5,1.2,1.9,1.8,4,1.8c2.2,0,3.6-0.6,4.2-1.8c0.6-1.2,1.1-3.8,1.5-7.8l0.3-3.4
						C238.9,168.7,238.8,166.1,238.3,164.9z"/>
					<path class="st143" d="M295.6,165.8c-0.3,2.9-0.9,5.3-2,7c-1.1,1.7-2.7,3.3-4.9,4.6l5.2,19.3l-16.3,0l-3.2-15.7h-1.2l-1.3,15.7
						l-15.1,0l3.9-45.5l19.5,0c5.7,0,9.8,1.2,12.3,3.6C295,157.1,296,160.8,295.6,165.8z M278,171c0.5-0.7,0.9-1.8,1-3.5
						c0.1-1.7,0-2.8-0.4-3.4c-0.4-0.6-1.2-1-2.2-1l-1.9,0l-0.8,8.9l1.8,0C276.7,172,277.5,171.7,278,171z"/>
					<path class="st143" d="M336.8,196.7l-15.5,0l-0.9-7l-8.2,0l-2.2,7l-14.8,0l13.4-45.5l22.5,0L336.8,196.7z M320.2,180.2
						l-1.5-15.2h-0.3l-4.2,15.2L320.2,180.2z"/>
				</g>
				<g>
					<path class="st143" d="M296.9,252.7l-29.2,0l3.9-45.5l30.2,0l-2.1,12.1l-13.4,0l-0.5,5.5l11.7,0l-0.9,10.5l-11.7,0l-0.5,6.2
						l14.5,0L296.9,252.7z"/>
					<path class="st143" d="M302.2,221.8c0.4-4.8,2.2-8.6,5.4-11.3c3.2-2.7,7.4-4,12.6-4s10.6,0.5,16.1,1.5l-2.8,12.9
						c-6-1.2-10-1.8-11.9-1.8c-1.9,0-2.9,0.6-3,1.8c0,0.4,0.1,0.7,0.4,0.9c0.3,0.2,0.5,0.3,0.6,0.4c0.1,0.1,0.4,0.2,0.8,0.4
						c0.4,0.1,0.7,0.3,1,0.4c0.3,0.1,1.1,0.5,2.6,1.1c1.4,0.6,2.5,1.1,3.3,1.5c0.7,0.4,1.7,1,3,1.8c3.6,2.5,5.2,6.2,4.8,11
						c-0.4,4.8-2.2,8.6-5.3,11.2c-3.1,2.7-7.4,4-12.8,4c-5.4,0-10.7-0.7-15.8-2l2.1-12.4c6.4,1.7,10.8,2.5,13.1,2.5
						c1.5,0,2.3-0.5,2.4-1.6c0-0.5-0.1-0.9-0.5-1.2c-0.3-0.3-0.9-0.6-1.5-1c-0.7-0.3-1.7-0.8-3-1.4c-1.3-0.6-2.4-1.1-3.3-1.5
						c-0.9-0.4-2-1.1-3.2-1.9C303.4,230.4,301.7,226.7,302.2,221.8z"/>
				</g>
			</g>
		</g>
		<g>
			<path class="st141" d="M427.3,437.8H68.1c-3.7,0-6.6-3.2-6.3-6.9l2.5-29.3c0.4-4.2,3.9-7.4,8.1-7.4h359.4c3.8,0,6.9,3.3,6.5,7.1
				l-2.4,28.6C435.4,434.4,431.7,437.8,427.3,437.8z"/>
			<path class="st141" d="M413.3,481.3H82.1c-3.7,0-6.6-3.2-6.3-6.9l2.5-29.3c0.4-4.2,3.9-7.4,8.1-7.4h331.4c3.8,0,6.9,3.3,6.5,7.1
				l-2.4,28.6C421.4,477.9,417.7,481.3,413.3,481.3z"/>
			<g>
				<g>
					<path class="st144" d="M99.8,431.1l-9.9,0l-0.6-4.5l-5.2,0l-1.4,4.5l-9.4,0l8.5-28.9l14.3,0L99.8,431.1z M89.2,420.7l-1-9.7
						l-0.2,0l-2.7,9.7L89.2,420.7z"/>
					<path class="st144" d="M126.7,431.2l-9.9,0l0.9-10.2l-5.1,0l-0.9,10.2l-10,0l2.5-28.9l10,0l-0.9,10.8l5.1,0l0.9-10.8l9.9,0
						L126.7,431.2z"/>
					<path class="st144" d="M130.7,416.5c0.4-5.2,1.8-8.9,4.1-11.2c2.3-2.3,5.8-3.5,10.6-3.5c4.8,0,8.1,1.2,9.9,3.5
						c1.9,2.3,2.6,6,2.1,11.2c-0.4,5.2-1.8,9-4.2,11.5c-2.3,2.5-5.8,3.7-10.5,3.7c-4.7,0-8-1.2-9.9-3.7
						C131,425.5,130.3,421.7,130.7,416.5z M147.2,411c-0.3-0.8-1.2-1.2-2.5-1.2c-1.3,0-2.2,0.4-2.7,1.2c-0.4,0.8-0.8,2.4-1,5l-0.2,2
						c-0.2,2.6-0.2,4.3,0.2,5.1c0.3,0.8,1.2,1.2,2.6,1.2c1.4,0,2.3-0.4,2.7-1.1c0.4-0.7,0.7-2.4,0.9-5l0.2-2.1
						C147.6,413.4,147.5,411.8,147.2,411z"/>
					<path class="st144" d="M183.7,411.6c-0.2,1.9-0.6,3.3-1.3,4.4c-0.7,1.1-1.7,2.1-3.1,2.9l3.3,12.3l-10.4,0l-2.1-10h-0.8l-0.9,10
						l-9.6,0l2.5-28.9l12.4,0c3.6,0,6.2,0.8,7.8,2.3C183.3,406,184,408.4,183.7,411.6z M172.5,414.9c0.3-0.4,0.5-1.2,0.6-2.2
						c0.1-1.1,0-1.8-0.3-2.2c-0.3-0.4-0.7-0.6-1.4-0.6l-1.2,0l-0.5,5.6l1.2,0C171.7,415.5,172.2,415.3,172.5,414.9z"/>
					<path class="st144" d="M209.9,431.2l-9.9,0l-0.6-4.5l-5.2,0l-1.4,4.5l-9.4,0l8.5-28.9l14.3,0L209.9,431.2z M199.3,420.7l-1-9.7
						h-0.2l-2.7,9.7L199.3,420.7z"/>
					<path class="st144" d="M238.2,431.2l-17.5,0l2.5-28.9l10,0l-1.8,21.4l8.1,0L238.2,431.2z"/>
					<path class="st144" d="M240.4,416.6c0.4-5.2,1.8-8.9,4.1-11.2c2.3-2.3,5.8-3.5,10.6-3.5c4.8,0,8.1,1.2,9.9,3.5
						c1.9,2.3,2.6,6,2.1,11.2c-0.4,5.2-1.8,9-4.2,11.5c-2.3,2.5-5.8,3.7-10.5,3.7c-4.7,0-8-1.2-9.9-3.7
						C240.7,425.6,240,421.8,240.4,416.6z M256.9,411c-0.3-0.8-1.2-1.2-2.5-1.2c-1.3,0-2.2,0.4-2.7,1.2c-0.4,0.8-0.8,2.4-1,5l-0.2,2
						c-0.2,2.6-0.2,4.3,0.2,5.1c0.3,0.8,1.2,1.2,2.6,1.2c1.4,0,2.3-0.4,2.7-1.1c0.4-0.7,0.7-2.4,0.9-5l0.2-2.1
						C257.3,413.5,257.2,411.8,256.9,411z"/>
					<path class="st144" d="M290.2,422.2l-2,0l-0.8,9l-9.9,0l2.5-28.9l11.4,0c3.8,0,6.6,0.8,8.2,2.3c1.6,1.6,2.3,4.1,2,7.7
						c-0.3,3.6-1.4,6.1-3.2,7.6C296.6,421.5,293.9,422.2,290.2,422.2z M291.3,415.5c0.3-0.5,0.5-1.3,0.6-2.5s0-2-0.2-2.5
						c-0.3-0.5-0.8-0.7-1.6-0.7l-1,0l-0.6,6.5l1.2,0C290.5,416.2,291,416,291.3,415.5z"/>
					<path class="st144" d="M313.4,421c-0.1,1.7,0.5,2.5,2.1,2.5c1.5,0,2.3-0.9,2.5-2.6l1.6-18.6l10,0l-1.7,19.2
						c-0.3,3.4-1.6,6-3.9,7.6c-2.3,1.7-5.5,2.5-9.5,2.5c-8.2,0-12-3.4-11.4-10.1l1.7-19.3l10.2,0L313.4,421z"/>
					<path class="st144" d="M349.6,431.3l-18.6,0l2.5-28.9l19.2,0l-1.3,7.7l-8.5,0l-0.3,3.5l7.5,0l-0.6,6.7l-7.5,0l-0.3,4l9.2,0
						L349.6,431.3z"/>
					<path class="st144" d="M379.1,416.2c-0.9,10.1-5.9,15.1-15.2,15.1l-11.3,0l2.5-28.9l11.5,0c5,0,8.4,1.2,10.3,3.6
						C378.8,408.3,379.5,411.7,379.1,416.2z M367.6,422.4c0.6-1.1,1-2.9,1.2-5.4c0.2-2.5,0.1-4.3-0.3-5.4c-0.4-1.1-1.5-1.6-3.1-1.6
						h-1l-1.2,14.1l1.2,0C366,424,367.1,423.5,367.6,422.4z"/>
					<path class="st144" d="M399.3,431.3l-18.6,0l2.5-28.9l19.2,0l-1.3,7.7l-8.5,0l-0.3,3.5l7.5,0l-0.6,6.7l-7.5,0l-0.3,4l9.2,0
						L399.3,431.3z"/>
					<path class="st144" d="M402.6,411.7c0.3-3.1,1.4-5.5,3.4-7.2c2-1.7,4.7-2.6,8-2.6c3.3,0,6.7,0.3,10.2,0.9l-1.8,8.2
						c-3.8-0.8-6.4-1.2-7.6-1.2c-1.2,0-1.9,0.4-1.9,1.1c0,0.3,0.1,0.5,0.2,0.6c0.2,0.1,0.3,0.2,0.4,0.3c0.1,0.1,0.3,0.1,0.5,0.2
						c0.3,0.1,0.5,0.2,0.6,0.3c0.2,0.1,0.7,0.3,1.6,0.7c0.9,0.4,1.6,0.7,2.1,0.9c0.5,0.2,1.1,0.6,1.9,1.1c2.3,1.6,3.3,3.9,3.1,7
						c-0.3,3.1-1.4,5.5-3.4,7.1c-2,1.7-4.7,2.5-8.2,2.5c-3.5,0-6.8-0.4-10-1.3l1.3-7.9c4.1,1.1,6.9,1.6,8.4,1.6c1,0,1.5-0.3,1.5-1
						c0-0.3-0.1-0.6-0.3-0.7c-0.2-0.2-0.5-0.4-1-0.6c-0.4-0.2-1.1-0.5-1.9-0.9c-0.8-0.4-1.6-0.7-2.1-0.9c-0.6-0.3-1.2-0.7-2-1.2
						C403.4,417.1,402.4,414.7,402.6,411.7z"/>
				</g>
			</g>
			<g>
				<polygon class="st3" points="483.4,473.6 3.2,473.5 16.6,443.6 496.8,443.7 				"/>
				<text transform="matrix(1.0035 6.121365e-04 -8.557018e-02 0.9963 88.4673 473.2726)" class="st144 st145 st146">HACER CON YAPE</text>
			</g>
			<rect x="60.4" y="363.2" class="st3" width="379.2" height="19.3"/>
			<text transform="matrix(1 0 0 1 107.2521 377.4707)" class="st135 st147 st148">Todo lo que podas hacer con Soli</text>
			<rect x="88.7" y="493.2" class="st3" width="314" height="20.4"/>
			<text transform="matrix(1 0 0 1 128.027 507.4746)" class="st135 st147 st148">con una mejor experiencia y</text>
			<g>
				<g>
					<path class="st143" d="M359.9,552H135.3c-2.5,0-4.5-2.2-4.3-4.7l1.7-19.9c0.2-2.8,2.6-5,5.5-5h224.8c2.6,0,4.7,2.2,4.4,4.8
						l-1.7,19.4C365.5,549.7,363,552,359.9,552z"/>
				</g>
				<g>
					<g>
						<path class="st144" d="M143.5,534.2c0.2-2.1,1-3.7,2.3-4.9c1.4-1.2,3.2-1.7,5.4-1.7c2.3,0,4.6,0.2,6.9,0.6l-1.2,5.6
							c-2.6-0.5-4.3-0.8-5.2-0.8c-0.8,0-1.3,0.3-1.3,0.8c0,0.2,0,0.3,0.2,0.4c0.1,0.1,0.2,0.1,0.3,0.2c0.1,0,0.2,0.1,0.4,0.2
							c0.2,0.1,0.3,0.1,0.4,0.2c0.1,0.1,0.5,0.2,1.1,0.5c0.6,0.3,1.1,0.5,1.4,0.6c0.3,0.2,0.7,0.4,1.3,0.8c1.6,1.1,2.3,2.7,2.1,4.7
							c-0.2,2.1-0.9,3.7-2.3,4.9c-1.4,1.1-3.2,1.7-5.5,1.7c-2.3,0-4.6-0.3-6.8-0.9l0.9-5.3c2.8,0.7,4.7,1.1,5.7,1.1
							c0.7,0,1-0.2,1-0.7c0-0.2,0-0.4-0.2-0.5c-0.1-0.1-0.4-0.3-0.7-0.4c-0.3-0.1-0.7-0.3-1.3-0.6s-1.1-0.5-1.4-0.6
							c-0.4-0.2-0.8-0.5-1.4-0.8C144,537.9,143.3,536.3,143.5,534.2z"/>
						<path class="st144" d="M165.6,547.6l-6.7,0l1.7-19.6l6.7,0L165.6,547.6z"/>
						<path class="st144" d="M185.1,547.6l-6.5,0l-3.3-7.7H175l-0.7,7.7l-6,0L170,528l6.7,0l3.1,8h0.2l0.7-8l6.1,0L185.1,547.6z"/>
						<path class="st144" d="M200.7,538c-0.1,1.6-0.1,2.8,0.2,3.5c0.3,0.7,0.9,1.1,1.7,1.1c0.8,0,2.3-0.2,4.3-0.7l0.6,5
							c-2.1,0.7-4.2,1-6.1,1c-2.9,0-5-0.8-6.2-2.5c-1.2-1.7-1.7-4.2-1.4-7.5c0.3-3.3,1.2-5.9,2.8-7.6c1.6-1.8,3.9-2.6,7.1-2.6
							c1.8,0,3.7,0.4,5.4,1.1l-1.5,5.6c-2-0.6-3.5-0.9-4.2-0.9c-0.8,0-1.4,0.4-1.8,1.1C201.1,535.3,200.9,536.4,200.7,538z"/>
						<path class="st144" d="M208.7,537.7c0.3-3.5,1.2-6.1,2.8-7.6c1.5-1.6,3.9-2.4,7.2-2.4c3.2,0,5.5,0.8,6.7,2.3
							c1.3,1.6,1.7,4.1,1.4,7.6c-0.3,3.5-1.2,6.1-2.8,7.8c-1.6,1.7-4,2.5-7.2,2.5c-3.2,0-5.4-0.8-6.7-2.5
							C208.9,543.8,208.4,541.2,208.7,537.7z M219.9,533.9c-0.2-0.5-0.8-0.8-1.7-0.8c-0.9,0-1.5,0.3-1.8,0.8
							c-0.3,0.5-0.5,1.7-0.7,3.4l-0.1,1.4c-0.2,1.8-0.1,2.9,0.1,3.4c0.2,0.5,0.8,0.8,1.7,0.8c0.9,0,1.5-0.3,1.8-0.8
							c0.3-0.5,0.5-1.6,0.6-3.4l0.1-1.5C220.1,535.6,220.1,534.5,219.9,533.9z"/>
						<path class="st144" d="M249.4,547.6l-6,0l0.8-9.4H244l-2.7,9.4l-5.6,0l-1-9.4h-0.2l-0.8,9.4l-6,0l2.4-19.6l8.5,0l0.7,8.9h0.3
							l2.2-8.9l8.4,0L249.4,547.6z"/>
						<path class="st144" d="M258.7,547.6l-6.7,0l1.7-19.6l6.7,0L258.7,547.6z"/>
						<path class="st144" d="M261.7,534.3c0.2-2.1,1-3.7,2.3-4.9c1.4-1.2,3.2-1.7,5.4-1.7c2.3,0,4.6,0.2,6.9,0.6l-1.2,5.6
							c-2.6-0.5-4.3-0.8-5.2-0.8c-0.8,0-1.3,0.3-1.3,0.8c0,0.2,0,0.3,0.2,0.4c0.1,0.1,0.2,0.1,0.3,0.2c0.1,0,0.2,0.1,0.4,0.2
							c0.2,0.1,0.3,0.1,0.4,0.2c0.1,0.1,0.5,0.2,1.1,0.5c0.6,0.3,1.1,0.5,1.4,0.6c0.3,0.2,0.7,0.4,1.3,0.8c1.6,1.1,2.3,2.7,2.1,4.7
							c-0.2,2.1-0.9,3.7-2.3,4.8c-1.4,1.1-3.2,1.7-5.5,1.7c-2.3,0-4.6-0.3-6.8-0.9l0.9-5.3c2.8,0.7,4.7,1.1,5.7,1.1
							c0.7,0,1-0.2,1-0.7c0-0.2,0-0.4-0.2-0.5c-0.1-0.1-0.4-0.3-0.7-0.4c-0.3-0.1-0.7-0.3-1.3-0.6c-0.6-0.2-1.1-0.5-1.4-0.6
							c-0.4-0.2-0.8-0.5-1.4-0.8C262.2,538,261.5,536.4,261.7,534.3z"/>
						<path class="st144" d="M283.8,547.7l-6.7,0l1.7-19.6l6.7,0L283.8,547.7z"/>
						<path class="st144" d="M286.7,537.7c0.3-3.5,1.2-6.1,2.8-7.6c1.5-1.6,3.9-2.4,7.2-2.4c3.2,0,5.5,0.8,6.7,2.3
							c1.3,1.6,1.7,4.1,1.4,7.6c-0.3,3.5-1.2,6.1-2.8,7.8c-1.6,1.7-4,2.5-7.2,2.5c-3.2,0-5.4-0.8-6.7-2.5
							C286.9,543.8,286.4,541.2,286.7,537.7z M297.9,534c-0.2-0.5-0.8-0.8-1.7-0.8c-0.9,0-1.5,0.3-1.8,0.8c-0.3,0.5-0.5,1.7-0.7,3.4
							l-0.1,1.4c-0.2,1.8-0.1,2.9,0.1,3.4c0.2,0.5,0.8,0.8,1.7,0.8s1.5-0.3,1.8-0.8c0.3-0.5,0.5-1.6,0.6-3.4l0.1-1.5
							C298.2,535.6,298.1,534.5,297.9,534z"/>
						<path class="st144" d="M322.7,547.7l-6.5,0l-3.3-7.7h-0.2l-0.7,7.7l-6,0l1.7-19.6l6.7,0l3.1,8h0.2l0.7-8l6.1,0L322.7,547.7z"
							/>
						<path class="st144" d="M337.8,547.7l-12.6,0l1.7-19.6l13,0l-0.9,5.2l-5.8,0l-0.2,2.4l5.1,0l-0.4,4.6l-5.1,0l-0.2,2.7l6.2,0
							L337.8,547.7z"/>
						<path class="st144" d="M340.1,534.4c0.2-2.1,1-3.7,2.3-4.9c1.4-1.2,3.2-1.7,5.4-1.7c2.3,0,4.6,0.2,6.9,0.6l-1.2,5.6
							c-2.6-0.5-4.3-0.8-5.2-0.8c-0.8,0-1.3,0.3-1.3,0.8c0,0.2,0,0.3,0.2,0.4c0.1,0.1,0.2,0.1,0.3,0.2c0.1,0,0.2,0.1,0.4,0.2
							c0.2,0.1,0.3,0.1,0.4,0.2c0.1,0.1,0.5,0.2,1.1,0.5c0.6,0.3,1.1,0.5,1.4,0.6c0.3,0.2,0.7,0.4,1.3,0.8c1.6,1.1,2.3,2.7,2.1,4.7
							c-0.2,2.1-0.9,3.7-2.3,4.9c-1.4,1.1-3.2,1.7-5.5,1.7c-2.3,0-4.6-0.3-6.8-0.9l0.9-5.3c2.8,0.7,4.7,1.1,5.7,1.1
							c0.7,0,1-0.2,1-0.7c0-0.2,0-0.4-0.2-0.5c-0.1-0.1-0.4-0.3-0.7-0.4c-0.3-0.1-0.7-0.3-1.3-0.6c-0.6-0.2-1.1-0.5-1.4-0.6
							c-0.4-0.2-0.8-0.5-1.4-0.8C340.6,538.1,339.9,536.4,340.1,534.4z"/>
					</g>
				</g>
			</g>
		</g>
	</g>
</g>
</svg>
