<svg xmlns="http://www.w3.org/2000/svg" width="32" height="32" viewBox="0 0 32 32">
    <g fill="none" fill-rule="evenodd">
        <g>
            <g>
                <g>
                    <g transform="translate(-811 -2307) translate(795 1833) translate(0 456) translate(16 18)">
                        <path fill="#A35AAD" d="M5.6 25.6h20.8c.884 0 1.6.716 1.6 1.6 0 .884-.716 1.6-1.6 1.6H5.6c-.884 0-1.6-.716-1.6-1.6 0-.884.716-1.6 1.6-1.6z"/>
                        <path fill="#FDC610" d="M16 8c5.302 0 9.6 4.298 9.6 9.6v8H6.4v-8C6.4 12.298 10.698 8 16 8z"/>
                        <path fill="#FFF" d="M16 16.8c.442 0 .8.358.8.8v5.6c0 .442-.358.8-.8.8-.442 0-.8-.358-.8-.8v-5.6c0-.442.358-.8.8-.8z"/>
                        <path fill="#A35AAD" d="M16 3.2c.442 0 .8.358.8.8v1.6c0 .442-.358.8-.8.8-.442 0-.8-.358-.8-.8V4c0-.442.358-.8.8-.8zM30.4 16c0 .442-.358.8-.8.8H28c-.442 0-.8-.358-.8-.8 0-.442.358-.8.8-.8h1.6c.442 0 .8.358.8.8zM27.531 6.069c.313.312.313.819 0 1.131L26.4 8.331c-.312.313-.819.313-1.131 0-.313-.312-.313-.819 0-1.131L26.4 6.069c.312-.313.819-.313 1.131 0zM4.8 16c0 .442-.358.8-.8.8H2.4c-.442 0-.8-.358-.8-.8 0-.442.358-.8.8-.8H4c.442 0 .8.358.8.8zM6.828 8.428c-.312.313-.819.313-1.13 0l-1.132-1.13c-.313-.313-.313-.82 0-1.132.312-.313.819-.313 1.131 0l1.131 1.131c.313.312.313.819 0 1.131z"/>
                        <circle cx="16" cy="14.4" r="1" fill="#FFF"/>
                    </g>
                </g>
            </g>
        </g>
    </g>
</svg>
