<svg xmlns="http://www.w3.org/2000/svg" width="500" height="500" style="width:100%;height:100%"><defs><clipPath id="a"><path d="M0 0h500v500H0z"/></clipPath></defs><g clip-path="url(#a)"><path stroke-linecap="round" stroke-linejoin="round" stroke="#121331" stroke-width="12.04" d="M410.119 410.119H89.881v-33.098h320.238v33.098z" fill="none" display="block"/><g display="block"><path stroke-linecap="round" stroke-linejoin="round" stroke="#2FC8E8" stroke-width="12.04" d="M383.776 309.66H329.76" fill="none"/><path stroke-linecap="round" stroke-linejoin="round" stroke="#121331" stroke-width="12.04" d="M373.305 264.766h-33.096c-4.655 0-8.464-3.809-8.464-8.464v-1.422c0-4.655 3.809-8.464 8.464-8.464h33.096c4.655 0 8.464 3.809 8.464 8.464v1.422c0 4.655-3.809 8.464-8.464 8.464zM383.778 297.636v74.347c0 2.771-2.186 5.039-4.858 5.039h-44.326c-2.672 0-4.858-2.268-4.858-5.039v-74.347c0-.789.113-1.642.348-2.515l7.299-26.979c.474-1.747 2.088-3.145 3.752-3.376h31.244c1.664.231 3.278 1.629 3.752 3.376l7.299 26.979c.235.873.348 1.726.348 2.515z" fill="none"/></g><g display="block"><path stroke-linecap="round" stroke-linejoin="round" stroke="#2FC8E8" stroke-width="12.04" d="M296.047 309.656h-54.016" fill="none"/><path stroke-linecap="round" stroke-linejoin="round" stroke="#121331" stroke-width="12.04" d="M285.576 264.762H252.48c-4.655 0-8.464-3.809-8.464-8.464v-1.422c0-4.655 3.809-8.464 8.464-8.464h33.096c4.655 0 8.464 3.809 8.464 8.464v1.422c0 4.655-3.809 8.464-8.464 8.464z" fill="none"/><path stroke-linecap="round" stroke-linejoin="round" stroke="#121331" stroke-width="12.04" d="M296.049 297.631v74.347c0 2.771-2.186 5.039-4.858 5.039h-44.326c-2.672 0-4.858-2.268-4.858-5.039v-74.347c0-.789.113-1.642.348-2.515l7.299-26.979c.474-1.747 2.088-3.145 3.752-3.376h31.244c1.664.231 3.278 1.629 3.752 3.376l7.299 26.979c.235.873.348 1.726.348 2.515z" fill="none"/></g><g display="block"><path stroke-linecap="round" stroke-linejoin="round" stroke="#121331" stroke-width="12.04" d="M167.091 301.448c.25.22.5.46.74.7 5.35 5.35 8.65 12.73 8.65 20.89v42.74c0 6.21-5.03 11.24-11.24 11.24h-36.59c-6.21 0-11.25-5.03-11.25-11.24v-42.74c0-8.52 3.61-16.21 9.39-21.59" fill="none"/><path stroke-linecap="round" stroke-linejoin="round" stroke="#2FC8E8" stroke-width="12.04" d="M168.625 301.451h-43.362a6.065 6.065 0 01-6.064-6.065v-8.95a6.065 6.065 0 016.064-6.065h43.362a6.065 6.065 0 016.064 6.065v8.95a6.065 6.065 0 01-6.064 6.065z" fill="none"/></g><g display="block"><path stroke-linecap="round" stroke-linejoin="round" stroke="#121331" stroke-width="12.04" d="M410.119 220.04H89.881v-33.508h320.238v33.508z" fill="none"/><path stroke-linecap="round" stroke-linejoin="round" stroke="#2FC8E8" stroke-width="12.04" d="M189.871 142.254V89.88h-53.374v52.374" fill="none"/><path stroke-linecap="round" stroke-linejoin="round" stroke="#121331" stroke-width="12.04" d="M209.97 185.532v-42.278h-93.572v42.278M382.794 173.435c0 2.576-.449 5.097-1.303 7.531a10.66 10.66 0 01-9.377 5.566H255.318a10.655 10.655 0 01-9.377-5.566 22.654 22.654 0 01-1.303-7.531c0-11.487 8.898-21.804 23.043-28.903 3.594-1.804 7.53-3.4 11.742-4.751 9.86-3.172 21.244-5.018 33.383-5.1.302-.009.604-.009.91-.009 9.86 0 19.241 1.161 27.725 3.254 6.732 1.653 12.903 3.892 18.31 6.606 14.145 7.099 23.043 17.416 23.043 28.903z" fill="none"/><path stroke-linecap="round" stroke-linejoin="round" stroke="#121331" stroke-width="12.04" d="M312.805 134.68c-2.667 3.556-4.112 7.953-3.939 12.501.423 10.965 9.989 16.355 10.442 16.601M279.423 139.78a19.282 19.282 0 00-1.174 7.401c.423 10.965 9.989 16.355 10.438 16.601M341.442 137.926a19.446 19.446 0 00-1.955 9.256c.419 10.965 9.985 16.354 10.438 16.6" fill="none"/></g><path stroke-linecap="round" stroke-linejoin="round" stroke="#121331" stroke-width="12.04" d="M954.119 410.119H633.881v-33.098h320.238v33.098z" fill="none" display="block"/><g display="block"><path stroke-linecap="round" stroke-linejoin="round" stroke="#2FC8E8" stroke-width="12.04" d="M928.047 309.657h-54.016" fill="none"/><path stroke-linecap="round" stroke-linejoin="round" stroke="#121331" stroke-width="12.04" d="M917.576 264.762H884.48c-4.655 0-8.464-3.809-8.464-8.464v-1.421c0-4.655 3.809-8.464 8.464-8.464h33.096c4.655 0 8.464 3.809 8.464 8.464v1.421c0 4.655-3.809 8.464-8.464 8.464zm10.473 32.87v74.347c0 2.771-2.186 5.039-4.858 5.039h-44.326c-2.672 0-4.858-2.268-4.858-5.039v-74.347c0-.789.113-1.642.348-2.515l7.299-26.979c.474-1.747 2.088-3.145 3.752-3.376h31.244c1.664.231 3.278 1.629 3.752 3.376l7.299 26.979c.235.873.348 1.726.348 2.515z" fill="none"/></g><g display="block"><path stroke-linecap="round" stroke-linejoin="round" stroke="#2FC8E8" stroke-width="12.04" d="M840.047 309.657h-54.016" fill="none"/><path stroke-linecap="round" stroke-linejoin="round" stroke="#121331" stroke-width="12.04" d="M829.576 264.762H796.48c-4.655 0-8.464-3.809-8.464-8.464v-1.421c0-4.655 3.809-8.464 8.464-8.464h33.096c4.655 0 8.464 3.809 8.464 8.464v1.421c0 4.655-3.809 8.464-8.464 8.464zm10.473 32.87v74.347c0 2.771-2.186 5.039-4.858 5.039h-44.326c-2.672 0-4.858-2.268-4.858-5.039v-74.347c0-.789.113-1.642.348-2.515l7.299-26.979c.474-1.747 2.088-3.145 3.752-3.376h31.244c1.664.231 3.278 1.629 3.752 3.376l7.299 26.979c.235.873.348 1.726.348 2.515z" fill="none"/></g><g display="block"><path stroke-linecap="round" stroke-linejoin="round" stroke="#121331" stroke-width="12.04" d="M711.091 301.448c.25.22.5.46.74.7 5.35 5.35 8.65 12.73 8.65 20.89v42.74c0 6.21-5.03 11.24-11.24 11.24h-36.59c-6.21 0-11.25-5.03-11.25-11.24v-42.74c0-8.52 3.61-16.21 9.39-21.59" fill="none"/><path stroke-linecap="round" stroke-linejoin="round" stroke="#2FC8E8" stroke-width="12.04" d="M712.625 301.451h-43.362a6.065 6.065 0 01-6.064-6.065v-8.95a6.065 6.065 0 016.064-6.065h43.362a6.065 6.065 0 016.064 6.065v8.95a6.065 6.065 0 01-6.064 6.065z" fill="none"/></g><g display="block"><path stroke-linecap="round" stroke-linejoin="round" stroke="#121331" stroke-width="12.04" d="M954.119 220.04H633.881v-33.508h320.238v33.508z" fill="none"/><path stroke-linecap="round" stroke-linejoin="round" stroke="#2FC8E8" stroke-width="12.04" d="M733.871 142.254V89.88h-53.374v52.374" fill="none"/><path stroke-linecap="round" stroke-linejoin="round" stroke="#121331" stroke-width="12.04" d="M753.97 185.532v-42.278h-93.572v42.278M926.794 173.435c0 2.576-.449 5.097-1.303 7.531a10.66 10.66 0 01-9.377 5.566H799.318a10.655 10.655 0 01-9.377-5.566 22.654 22.654 0 01-1.303-7.531c0-11.487 8.898-21.804 23.043-28.903 3.594-1.804 7.53-3.4 11.742-4.751 9.86-3.172 21.244-5.018 33.383-5.1.302-.009.604-.009.91-.009 9.86 0 19.241 1.161 27.725 3.254 6.732 1.653 12.903 3.892 18.31 6.606 14.145 7.099 23.043 17.416 23.043 28.903z" fill="none"/><path stroke-linecap="round" stroke-linejoin="round" stroke="#121331" stroke-width="12.04" d="M856.805 134.68c-2.667 3.556-4.112 7.953-3.939 12.501.423 10.965 9.989 16.355 10.442 16.601M823.423 139.78a19.282 19.282 0 00-1.174 7.401c.423 10.965 9.989 16.355 10.438 16.601M885.442 137.926a19.446 19.446 0 00-1.955 9.256c.419 10.965 9.985 16.354 10.438 16.6" fill="none"/></g></g></svg>