<svg width="40" height="40" viewBox="0 0 40 40" fill="none" xmlns="http://www.w3.org/2000/svg">
<path d="M9.4375 12C8.0913 12 7 13.1033 7 14.4643V30.0714C7 32.7935 9.18262 35 11.875 35H28.125C30.8175 35 33 32.7935 33 30.0714V14.4643C33 13.1033 31.9086 12 30.5625 12H9.4375Z" fill="#742384"/>
<path fill-rule="evenodd" clip-rule="evenodd" d="M23.3322 34.9992H16.666V28.3331C16.666 26.4922 18.1582 25 19.9991 25C21.8399 25 23.3322 26.4922 23.3322 28.3331V34.9992Z" fill="#10CBB4"/>
<path d="M11.6661 5.00052C13.3327 4.99855 26.665 5.00285 28.3315 5.00207C31.6646 5.00052 34.9977 7.50033 34.9977 11.6667C34.9977 14.1665 32.4979 16.6663 29.9981 16.6663C26.665 16.6663 24.9984 13.3332 24.9984 13.3332C24.9984 13.3332 24.1652 16.6669 19.9988 16.6663C15.8325 16.6657 14.9992 13.3332 14.9992 13.3332C14.9992 13.3332 13.3327 16.6658 9.99961 16.6658C7.49981 16.6658 5 14.1665 5 11.6667C5 7.50033 8.33307 5.00445 11.6661 5.00052Z" fill="#E3B2EB"/>
</svg>
