<svg width="72" height="72" viewBox="0 0 72 72" fill="none" xmlns="http://www.w3.org/2000/svg">
<path d="M14.4 10.4002C14.4 8.63289 15.8327 7.2002 17.6 7.2002H56C57.7673 7.2002 59.2 8.63288 59.2 10.4002V61.6002C59.2 63.3675 57.7673 64.8002 56 64.8002H17.6C15.8327 64.8002 14.4 63.3675 14.4 61.6002V10.4002Z" fill="#CE92D6"/>
<path d="M20.8 15.2001C20.8 14.3164 21.5164 13.6001 22.4 13.6001H51.2001C52.0837 13.6001 52.8001 14.3164 52.8001 15.2001V44.0001C52.8001 44.8838 52.0837 45.6001 51.2001 45.6001H22.4001C21.5164 45.6001 20.8 44.8838 20.8 44.0001V15.2001Z" fill="#F0CEF5"/>
<path fill-rule="evenodd" clip-rule="evenodd" d="M32.8001 17.6001C34.2728 17.6001 35.4667 18.794 35.4667 20.2668V25.6001C35.4667 27.0728 34.2728 28.2668 32.8001 28.2668H27.4667C25.994 28.2668 24.8001 27.0728 24.8001 25.6001V20.2668C24.8001 18.794 25.994 17.6001 27.4667 17.6001H32.8001ZM32.8001 21.0668C32.8001 20.625 32.4419 20.2668 32.0001 20.2668H28.2668C27.8249 20.2668 27.4668 20.625 27.4668 21.0668V24.8001C27.4668 25.2419 27.8249 25.6001 28.2668 25.6001H32.0001C32.4419 25.6001 32.8001 25.2419 32.8001 24.8001V21.0668ZM32.8001 30.9334C34.2728 30.9334 35.4667 32.1273 35.4667 33.6001V38.9334C35.4667 40.4062 34.2728 41.6001 32.8001 41.6001H27.4667C25.994 41.6001 24.8 40.4062 24.8 38.9334V33.6001C24.8 32.1273 25.994 30.9334 27.4667 30.9334H32.8001ZM32.8001 34.4001C32.8001 33.9583 32.4419 33.6001 32.0001 33.6001H28.2667C27.8249 33.6001 27.4667 33.9583 27.4667 34.4001V38.1334C27.4667 38.5753 27.8249 38.9334 28.2667 38.9334H32.0001C32.4419 38.9334 32.8001 38.5753 32.8001 38.1334V34.4001ZM48.8 20.2668C48.8 18.794 47.6061 17.6001 46.1334 17.6001H40.8C39.3273 17.6001 38.1334 18.794 38.1334 20.2668V25.6001C38.1334 27.0729 39.3273 28.2668 40.8 28.2668H46.1334C47.6061 28.2668 48.8 27.0729 48.8 25.6001V20.2668ZM45.3334 20.2668C45.7752 20.2668 46.1334 20.625 46.1334 21.0668V24.8001C46.1334 25.2419 45.7752 25.6001 45.3334 25.6001H41.6001C41.1583 25.6001 40.8001 25.242 40.8001 24.8001V21.0668C40.8001 20.625 41.1583 20.2668 41.6001 20.2668H45.3334ZM46.1334 30.9334C47.6061 30.9334 48.8 32.1273 48.8 33.6001V38.9334C48.8 40.4062 47.6061 41.6001 46.1334 41.6001H40.8C39.3273 41.6001 38.1334 40.4062 38.1334 38.9334V33.6001C38.1334 32.1273 39.3273 30.9334 40.8 30.9334H46.1334ZM46.1334 34.4001C46.1334 33.9583 45.7752 33.6001 45.3334 33.6001H41.6001C41.1583 33.6001 40.8001 33.9583 40.8001 34.4001V38.1334C40.8001 38.5753 41.1583 38.9334 41.6001 38.9334H45.3334C45.7752 38.9334 46.1334 38.5753 46.1334 38.1334V34.4001ZM31.4667 22.9334C31.4667 23.6698 30.8698 24.2668 30.1334 24.2668C29.397 24.2668 28.8001 23.6698 28.8001 22.9334C28.8001 22.1971 29.397 21.6001 30.1334 21.6001C30.8698 21.6001 31.4667 22.1971 31.4667 22.9334ZM43.4667 37.6001C44.2031 37.6001 44.8 37.0032 44.8 36.2668C44.8 35.5304 44.2031 34.9334 43.4667 34.9334C42.7303 34.9334 42.1334 35.5304 42.1334 36.2668C42.1334 37.0032 42.7303 37.6001 43.4667 37.6001Z" fill="#742384"/>
<path d="M20.8 52.0004C20.8 51.1167 21.5164 50.4004 22.4 50.4004H51.2001C52.0837 50.4004 52.8001 51.1167 52.8001 52.0004V56.0004C52.8001 56.884 52.0837 57.6004 51.2001 57.6004H22.4001C21.5164 57.6004 20.8 56.884 20.8 56.0004V52.0004Z" fill="#10CBB4"/>
</svg>
