<svg width="40" height="40" viewBox="0 0 40 40" fill="none" xmlns="http://www.w3.org/2000/svg">
<path d="M5 27C5 25.8954 5.89543 25 7 25H31V29H7C5.89543 29 5 28.1046 5 27Z" fill="#10CBB4"/>
<path d="M35 14C35 15.1046 34.1046 16 33 16L9 16L9 12L33 12C34.1046 12 35 12.8954 35 14Z" fill="#10CBB4"/>
<path fill-rule="evenodd" clip-rule="evenodd" d="M27.5858 21.5858C28.3668 20.8047 29.6332 20.8047 30.4142 21.5858L34.4142 25.5858C35.1953 26.3668 35.1953 27.6332 34.4142 28.4142L30.4142 32.4142C29.6332 33.1953 28.3668 33.1953 27.5858 32.4142C26.8047 31.6332 26.8047 30.3668 27.5858 29.5858L30.1716 27L27.5858 24.4142C26.8047 23.6332 26.8047 22.3668 27.5858 21.5858Z" fill="#E3B2EB"/>
<path fill-rule="evenodd" clip-rule="evenodd" d="M12.4142 19.4142C11.6332 20.1953 10.3668 20.1953 9.58579 19.4142L5.58579 15.4142C4.80474 14.6332 4.80474 13.3668 5.58579 12.5858L9.58579 8.58579C10.3668 7.80474 11.6332 7.80474 12.4142 8.58579C13.1953 9.36683 13.1953 10.6332 12.4142 11.4142L9.82843 14L12.4142 16.5858C13.1953 17.3668 13.1953 18.6332 12.4142 19.4142Z" fill="#742384"/>
</svg>
