<svg width="72" height="72" viewBox="0 0 72 72" fill="none" xmlns="http://www.w3.org/2000/svg">
<path d="M19.8 10.8002C19.8 8.81197 21.4118 7.2002 23.4 7.2002H48.6C50.5882 7.2002 52.2 8.81197 52.2 10.8002V61.2002C52.2 63.1884 50.5882 64.8002 48.6 64.8002H23.4C21.4118 64.8002 19.8 63.1884 19.8 61.2002V10.8002Z" fill="#CE92D6"/>
<path d="M21.6 14.4001C21.6 13.406 22.4059 12.6001 23.4 12.6001H48.6C49.5941 12.6001 50.4 13.406 50.4 14.4001V57.6001C50.4 58.5942 49.5941 59.4001 48.6 59.4001H23.4C22.4059 59.4001 21.6 58.5942 21.6 57.6001V14.4001Z" fill="#F0CEF5"/>
<path d="M30.6 62.1002C30.6 61.6031 31.0029 61.2002 31.5 61.2002H40.5C40.997 61.2002 41.4 61.6031 41.4 62.1002C41.4 62.5973 40.997 63.0002 40.5 63.0002H31.5C31.0029 63.0002 30.6 62.5973 30.6 62.1002Z" fill="#8B3D99"/>
<path fill-rule="evenodd" clip-rule="evenodd" d="M68.1266 12.7329C66.7457 6.41844 60.5082 2.45964 54.1983 3.89366C47.8864 5.33016 43.8908 11.6123 45.2735 17.9271C45.7293 20.0136 46.7156 21.843 48.0617 23.3054C48.7523 24.0589 47.2128 28.2138 48.0687 28.7564C48.7732 29.2032 51.8516 26.0727 52.6379 26.3599C54.6677 27.0993 56.9305 27.2816 59.2021 26.766C65.5123 25.3312 69.5092 19.0491 68.1266 12.7329Z" fill="#10CBB4"/>
<path fill-rule="evenodd" clip-rule="evenodd" d="M61.2502 12.578C61.5939 12.9371 61.5813 13.5068 61.2222 13.8505L55.5797 19.2505C55.4041 19.4185 55.1681 19.5084 54.9253 19.4997C54.6824 19.491 54.4534 19.3845 54.2903 19.2044L52.1329 16.8221C51.7992 16.4536 51.8274 15.8845 52.1958 15.5508C52.5643 15.2172 53.1334 15.2454 53.4671 15.6138L55.0035 17.3104L59.9777 12.5501C60.3368 12.2064 60.9065 12.2189 61.2502 12.578Z" fill="white"/>
</svg>
