<svg width="72" height="72" viewBox="0 0 72 72" fill="none" xmlns="http://www.w3.org/2000/svg">
<path fill-rule="evenodd" clip-rule="evenodd" d="M64.7639 7.2002L43.4525 60.986C42.8019 62.628 40.9434 63.4317 39.3014 62.7811C38.6324 62.516 38.0724 62.033 37.7118 61.4103L29.7024 47.5757C29.03 46.4145 29.1542 44.957 30.0132 43.9261L39.8896 32.0745L64.7639 7.2002Z" fill="#8B3D99"/>
<path fill-rule="evenodd" clip-rule="evenodd" d="M64.7699 7.20605L39.8955 32.0804L28.0439 41.9567C27.0131 42.8158 25.5556 42.9399 24.3943 42.2676L10.5598 34.2581C9.93702 33.8976 9.45406 33.3375 9.18899 32.6685C8.53839 31.0265 9.34207 29.168 10.9841 28.5174L64.7699 7.20605Z" fill="#BD77C7"/>
<path fill-rule="evenodd" clip-rule="evenodd" d="M22.3669 49.6296C22.9913 50.2541 22.9913 51.2665 22.3669 51.8909L9.92973 64.3281C9.30529 64.9525 8.29287 64.9525 7.66843 64.3281C7.04399 63.7036 7.04399 62.6912 7.66843 62.0668L20.1056 49.6296C20.73 49.0052 21.7425 49.0052 22.3669 49.6296ZM26.8895 54.1522C27.5139 54.7767 27.5139 55.7891 26.8895 56.4135L18.9749 64.3281C18.3505 64.9525 17.3381 64.9525 16.7136 64.3281C16.0892 63.7036 16.0892 62.6912 16.7136 62.0668L24.6282 54.1522C25.2526 53.5278 26.265 53.5278 26.8895 54.1522ZM17.8443 45.107C18.4687 45.7314 18.4687 46.7439 17.8443 47.3683L9.92971 55.2829C9.30527 55.9073 8.29285 55.9073 7.6684 55.2829C7.04396 54.6584 7.04396 53.646 7.6684 53.0216L15.583 45.107C16.2074 44.4826 17.2198 44.4826 17.8443 45.107Z" fill="#10CBB4"/>
</svg>
