<svg width="40" height="40" viewBox="0 0 40 40" fill="none" xmlns="http://www.w3.org/2000/svg">
<path d="M25.375 5C27.5841 5 29.375 6.79086 29.375 9V31C29.375 33.2091 27.5841 35 25.375 35H14.625C12.4159 35 10.625 33.2091 10.625 31V9C10.625 6.79086 12.4159 5 14.625 5H25.375Z" fill="#742384"/>
<path d="M22 31C22 32.1046 21.1046 33 20 33C18.8954 33 18 32.1046 18 31C18 29.8954 18.8954 29 20 29C21.1046 29 22 29.8954 22 31Z" fill="#E3B2EB"/>
<path d="M15.3125 5L24.6875 5V6.40625C24.6875 7.18289 24.0579 7.8125 23.2812 7.8125H16.7188C15.9421 7.8125 15.3125 7.18289 15.3125 6.40625V5Z" fill="#E3B2EB"/>
<path d="M36 12C36 15.3137 33.3137 18 30 18C26.6863 18 24 15.3137 24 12C24 8.68629 26.6863 6 30 6C33.3137 6 36 8.68629 36 12Z" fill="#10CBB4"/>
</svg>
