<svg width="64" height="64" viewBox="0 0 64 64" fill="none" xmlns="http://www.w3.org/2000/svg">
<path d="M32 60.8002C47.9058 60.8002 60.7999 47.906 60.7999 32.0002C60.7999 16.0944 47.9058 3.2002 32 3.2002C16.0941 3.2002 3.19995 16.0944 3.19995 32.0002C3.19995 47.906 16.0941 60.8002 32 60.8002Z" fill="#BD77C7"/>
<path fill-rule="evenodd" clip-rule="evenodd" d="M37.0288 36.5603C39.7292 36.5603 42.1611 38.0552 43.1816 40.3426L43.9131 41.9822C44.6066 43.5367 43.7915 45.3112 42.0924 45.9456C41.9502 45.9987 41.8043 46.0427 41.6555 46.0773C38.4371 46.8259 35.2188 47.2002 32.0004 47.2002C28.782 47.2002 25.5637 46.8259 22.3453 46.0773C20.5667 45.6636 19.4915 44.0091 19.9437 42.382C19.9815 42.2458 20.0296 42.1123 20.0876 41.9823L20.8191 40.3426C21.8396 38.0552 24.2716 36.5603 26.972 36.5603H37.0288ZM32.0004 16.8003C36.1978 16.8003 39.6004 20.2029 39.6004 24.4003V27.4403C39.6004 31.6376 36.1978 35.0403 32.0004 35.0403C27.8031 35.0403 24.4004 31.6376 24.4004 27.4403V24.4003C24.4004 20.2029 27.8031 16.8003 32.0004 16.8003Z" fill="#F0CEF5"/>
<circle cx="49.7143" cy="49.7142" r="7.42857" fill="#742384"/>
<path fill-rule="evenodd" clip-rule="evenodd" d="M51.2667 36.2666C52.7052 36.2666 53.9097 37.3047 54.0529 38.6679L54.1916 39.9953C54.8253 40.2877 55.4257 40.6354 55.9858 41.0317L57.3156 40.4619C58.6268 39.8983 60.1731 40.3727 60.8924 41.5591L62.5585 44.3074C63.2778 45.4938 62.936 47.0063 61.7679 47.806L60.4741 48.6921C60.5006 48.9914 60.5141 49.2942 60.5141 49.5999C60.5141 49.9057 60.5006 50.2085 60.4741 50.5077L61.7679 51.3939C62.936 52.1935 63.2778 53.706 62.5585 54.8925L60.8924 57.6407C60.1731 58.8272 58.6268 59.3015 57.3156 58.738L55.9858 58.1682C55.4257 58.5645 54.8253 58.9121 54.1916 59.2046L54.0529 60.5319C53.9169 61.827 52.823 62.8286 51.4806 62.9256L51.2667 62.9333H47.9344C46.5678 62.9333 45.4124 61.9964 45.1775 60.7339L45.1482 60.5319L45.0354 59.4608C44.2632 59.1567 43.5346 58.7727 42.8608 58.3196L41.8855 58.738C40.6433 59.2719 39.1901 58.8742 38.429 57.8221L38.3087 57.6407L36.6426 54.8925C35.9633 53.7719 36.2304 52.3606 37.2462 51.5336L37.4332 51.3939L38.1922 50.8746C38.14 50.4566 38.1131 50.0313 38.1131 49.5999C38.1131 49.1686 38.14 48.7432 38.1922 48.3253L37.4332 47.806C36.33 47.0508 35.9638 45.6597 36.5325 44.508L36.6426 44.3074L38.3087 41.5591C38.9901 40.4351 40.4138 39.9502 41.6767 40.3815L41.8855 40.4619L42.8608 40.8803C43.5346 40.4272 44.2632 40.0432 45.0354 39.739L45.1482 38.6679C45.2914 37.3047 46.4959 36.2666 47.9344 36.2666H51.2667ZM49.6005 44.2666C46.655 44.2666 44.2672 46.6544 44.2672 49.5999C44.2672 52.5455 46.655 54.9333 49.6005 54.9333C52.5461 54.9333 54.9339 52.5455 54.9339 49.5999C54.9339 46.6544 52.5461 44.2666 49.6005 44.2666ZM49.6005 46.9333C51.0733 46.9333 52.2672 48.1272 52.2672 49.5999C52.2672 51.0727 51.0733 52.2666 49.6005 52.2666C48.1278 52.2666 46.9339 51.0727 46.9339 49.5999C46.9339 48.1272 48.1278 46.9333 49.6005 46.9333Z" fill="#10CBB4"/>
</svg>
