<svg width="28" height="28" viewBox="0 0 28 28" fill="none" xmlns="http://www.w3.org/2000/svg">
<rect width="28" height="28" rx="14" fill="#10CBB4"/>
<path d="M17.3701 16.2725C17.3701 16.8968 17.2243 17.4232 16.9326 17.8516C16.641 18.2754 16.2399 18.5967 15.7295 18.8154C15.2236 19.0296 14.6494 19.1367 14.0068 19.1367C13.3643 19.1367 12.7878 19.0296 12.2773 18.8154C11.7669 18.5967 11.3636 18.2754 11.0674 17.8516C10.7712 17.4232 10.623 16.8968 10.623 16.2725C10.623 15.8532 10.7074 15.4749 10.876 15.1377C11.0446 14.7959 11.2793 14.5042 11.5801 14.2627C11.8854 14.0166 12.2432 13.8298 12.6533 13.7021C13.0635 13.57 13.5101 13.5039 13.9932 13.5039C14.6403 13.5039 15.2191 13.6178 15.7295 13.8457C16.2399 14.0736 16.641 14.3949 16.9326 14.8096C17.2243 15.2243 17.3701 15.7119 17.3701 16.2725ZM15.3877 16.1426C15.3877 15.8372 15.3285 15.5752 15.21 15.3564C15.096 15.1331 14.9342 14.9622 14.7246 14.8438C14.515 14.7253 14.2712 14.666 13.9932 14.666C13.7152 14.666 13.4714 14.7253 13.2617 14.8438C13.0521 14.9622 12.888 15.1331 12.7695 15.3564C12.6556 15.5752 12.5986 15.8372 12.5986 16.1426C12.5986 16.4434 12.6556 16.7031 12.7695 16.9219C12.888 17.1406 13.0521 17.3092 13.2617 17.4277C13.4759 17.5417 13.7243 17.5986 14.0068 17.5986C14.2894 17.5986 14.5332 17.5417 14.7383 17.4277C14.9479 17.3092 15.1074 17.1406 15.2168 16.9219C15.3307 16.7031 15.3877 16.4434 15.3877 16.1426ZM17.1582 11.6855C17.1582 12.1914 17.0238 12.6403 16.7549 13.0322C16.486 13.4196 16.1123 13.7227 15.6338 13.9414C15.1598 14.1602 14.6175 14.2695 14.0068 14.2695C13.3916 14.2695 12.8447 14.1602 12.3662 13.9414C11.8877 13.7227 11.514 13.4196 11.2451 13.0322C10.9762 12.6403 10.8418 12.1914 10.8418 11.6855C10.8418 11.084 10.9762 10.5781 11.2451 10.168C11.5186 9.75326 11.8923 9.4388 12.3662 9.22461C12.8447 9.01042 13.387 8.90332 13.9932 8.90332C14.6084 8.90332 15.153 9.01042 15.627 9.22461C16.1055 9.4388 16.4792 9.75326 16.748 10.168C17.0215 10.5781 17.1582 11.084 17.1582 11.6855ZM15.1895 11.7744C15.1895 11.5055 15.1416 11.2731 15.0459 11.0771C14.9502 10.8766 14.8135 10.7217 14.6357 10.6123C14.4626 10.5029 14.2484 10.4482 13.9932 10.4482C13.7471 10.4482 13.5352 10.5007 13.3574 10.6055C13.1842 10.7103 13.0498 10.863 12.9541 11.0635C12.863 11.2594 12.8174 11.4964 12.8174 11.7744C12.8174 12.0433 12.863 12.2803 12.9541 12.4854C13.0498 12.6859 13.1865 12.8431 13.3643 12.957C13.542 13.071 13.7562 13.1279 14.0068 13.1279C14.2575 13.1279 14.4694 13.071 14.6426 12.957C14.8203 12.8431 14.9548 12.6859 15.0459 12.4854C15.1416 12.2803 15.1895 12.0433 15.1895 11.7744Z" fill="white"/>
</svg>
