<svg width="600" height="600" viewBox="0 0 600 600" fill="none" xmlns="http://www.w3.org/2000/svg">
<g clip-path="url(#clip0_11849_14586)">
<path d="M130.524 93.6562H49.6494C43.2156 93.6562 38 98.8969 38 105.362V186.625C38 193.09 43.2156 198.331 49.6494 198.331H130.524C136.958 198.331 142.174 193.09 142.174 186.625V105.362C142.174 98.8969 136.958 93.6562 130.524 93.6562Z" fill="#10CBB4"/>
<path d="M545.962 276.461H487.635C482.996 276.461 479.236 280.196 479.236 284.804V342.743C479.236 347.35 482.996 351.085 487.635 351.085H545.962C550.601 351.085 554.361 347.35 554.361 342.743V284.804C554.361 280.196 550.601 276.461 545.962 276.461Z" fill="#10CBB4"/>
<path d="M236.038 287.999C224.733 287.999 208.507 284.143 195.367 265.784C186.375 253.217 180.249 235.917 176.647 212.892C175.032 202.579 182.106 192.908 192.448 191.297C202.783 189.694 212.488 196.741 214.103 207.055C218.265 233.663 226.674 250.193 236.045 250.193C247.805 250.193 259.709 229.588 259.709 190.208C259.709 179.766 268.193 171.305 278.664 171.305C289.135 171.305 297.62 179.766 297.62 190.208C297.62 219.342 292.312 242.798 281.849 259.932C270.786 278.033 254.523 287.999 236.053 287.999H236.038Z" fill="#FCDABA"/>
<path d="M337.526 331.257C361.521 331.257 380.974 311.805 380.974 287.809C380.974 263.814 361.521 244.362 337.526 244.362C313.53 244.362 294.078 263.814 294.078 287.809C294.078 311.805 313.53 331.257 337.526 331.257Z" fill="#002649"/>
<path d="M368.613 375.497C383.467 375.497 395.509 363.455 395.509 348.601C395.509 333.747 383.467 321.705 368.613 321.705C353.758 321.705 341.716 333.747 341.716 348.601C341.716 363.455 353.758 375.497 368.613 375.497Z" fill="#002649"/>
<path d="M306.597 375.497C321.452 375.497 333.494 363.455 333.494 348.601C333.494 333.747 321.452 321.705 306.597 321.705C291.743 321.705 279.701 333.747 279.701 348.601C279.701 363.455 291.743 375.497 306.597 375.497Z" fill="#002649"/>
<path d="M368.613 475.41C382.792 475.41 394.286 463.916 394.286 449.737C394.286 435.559 382.792 424.064 368.613 424.064C354.434 424.064 342.94 435.559 342.94 449.737C342.94 463.916 354.434 475.41 368.613 475.41Z" fill="#002649"/>
<path d="M279.64 471.756C293.819 471.756 305.313 460.262 305.313 446.083C305.313 431.904 293.819 420.41 279.64 420.41C265.461 420.41 253.967 431.904 253.967 446.083C253.967 460.262 265.461 471.756 279.64 471.756Z" fill="#002649"/>
<path d="M341.716 348.76L395.501 348.601C396.944 316.329 386.788 295.587 380.989 287.817C351.601 288.481 322.22 289.146 292.832 289.81C288.762 307.071 284.7 324.333 280.63 341.594C298.246 343.988 315.87 346.374 333.486 348.767H341.716V348.76Z" fill="#002649"/>
<path d="M341.716 348.76H395.509L394.285 449.738H342.94L341.716 348.76Z" fill="#002649"/>
<path d="M332.474 355.918L280.63 341.586L254.896 439.242L304.385 452.924L332.474 355.918Z" fill="#002649"/>
<path d="M279.535 586.786H244.363L248.818 557.398H283.99L279.535 586.786Z" fill="#FCDABA"/>
<path d="M282.699 600H201.701C201.701 591.46 206.692 583.698 214.469 580.164L240.98 568.105C244.25 570.793 249.513 574.425 256.769 576.804C268.141 580.534 277.995 579.069 282.699 578.042C282.699 585.359 282.699 592.683 282.699 600Z" fill="#002649"/>
<path d="M285.772 562.955L245.564 557.798L254.18 442.813L305.103 449.352L285.772 562.955Z" fill="#002649"/>
<path d="M386.886 586.786H351.714V557.398H386.886V586.786Z" fill="#FCDABA"/>
<path d="M348.399 600H429.397C429.397 591.46 424.406 583.698 416.629 580.164L390.118 568.105C386.848 570.793 381.585 574.425 374.329 576.804C362.957 580.534 353.103 579.069 348.399 578.042V600Z" fill="#002649"/>
<path d="M389.574 564.888H349.034L342.94 449.737H394.286L389.574 564.888Z" fill="#002649"/>
<path d="M351.682 160.638C352.326 155.521 352.129 123.329 350.5 114.19C332.461 116.027 313.99 118.083 295.959 119.806C297.209 131.469 296.754 140.162 291.368 146.042C284.777 153.23 279.397 161.084 275.481 169.647C270.518 180.517 270.768 190.759 275.806 201.061C287.049 224.069 318.407 221.968 334.635 203.729C349.197 187.365 349.166 180.562 351.682 160.645V160.638Z" fill="#2C2044"/>
<path d="M195.668 228.562C206.093 228.562 214.545 220.11 214.545 209.684C214.545 199.259 206.093 190.807 195.668 190.807C185.242 190.807 176.791 199.259 176.791 209.684C176.791 220.11 185.242 228.562 195.668 228.562Z" fill="#FCDABA"/>
<path d="M199.813 184.631L209.086 196.402L182.25 222.959L162.98 222.861L163.176 184.442L199.813 184.631Z" fill="#FCDABA"/>
<path d="M214.544 209.783C214.62 206.717 214.491 202.02 213.329 196.47C211.788 189.154 209.583 185.914 207.854 180.085C206.774 176.423 205.748 171.296 205.906 164.658C205.974 161.872 203.784 159.554 200.998 159.516C198.423 159.486 196.226 161.427 195.984 163.994C195.531 168.842 195.546 173.818 196.09 178.877C194.459 180.462 191.076 184.2 189.883 189.984C187.693 200.586 194.791 208.725 195.667 209.684L214.544 209.783Z" fill="#FCDABA"/>
<path d="M200.371 213.883C198.884 211.972 194.353 205.682 194.293 196.448C194.232 187.636 198.265 181.497 199.714 179.488C199.005 178.96 197.759 177.88 196.822 176.091C195.863 174.263 195.705 172.579 195.682 171.696C195.712 173.138 195.78 174.626 195.879 176.166C195.939 177.087 196.014 177.993 196.098 178.877C189.536 182.358 185.511 189.191 185.813 196.372C186.161 204.557 192.073 211.761 200.371 213.89V213.883Z" fill="#DCAC82"/>
<path d="M161.439 224.054L191.643 224.213C193.728 224.223 195.427 222.542 195.438 220.457L195.826 146.21C195.837 144.125 194.156 142.426 192.071 142.415L161.868 142.257C159.783 142.246 158.084 143.927 158.073 146.012L157.684 220.259C157.673 222.344 159.354 224.043 161.439 224.054Z" fill="#2C2044"/>
<path d="M161.834 220.915L191.282 221.07C192.533 221.076 193.552 220.067 193.559 218.816L193.93 147.839C193.937 146.588 192.928 145.568 191.677 145.562L162.229 145.408C160.978 145.401 159.958 146.41 159.952 147.661L159.58 218.638C159.574 219.889 160.583 220.909 161.834 220.915Z" fill="#742384"/>
<path fill-rule="evenodd" clip-rule="evenodd" d="M180.992 172.627L179.075 176.191C178.996 176.337 178.816 176.391 178.673 176.311C178.53 176.232 178.476 176.05 178.555 175.904L180.472 172.339C180.551 172.194 180.731 172.14 180.874 172.22C181.017 172.299 181.07 172.481 180.992 172.627ZM176.894 176.403C175.787 176.403 175.483 175.666 175.405 175.298C175.371 175.153 175.371 175.051 175.371 175.002C175.371 174.828 175.51 174.687 175.68 174.687C175.84 174.687 175.97 174.809 175.988 174.966C175.988 174.967 175.989 174.968 175.989 174.969C175.991 174.979 175.992 174.996 175.994 175.018C175.996 175.036 175.999 175.054 175.999 175.073C175.999 175.085 175.999 175.098 176 175.111C176.003 175.136 176.006 175.164 176.011 175.193C176.022 175.254 176.043 175.322 176.077 175.391C176.081 175.398 176.084 175.404 176.088 175.411C176.192 175.609 176.408 175.803 176.825 175.825C177.452 175.843 177.637 175.631 177.639 175.367C177.615 175.061 177.597 174.841 176.873 174.541C176.026 174.19 175.486 173.978 175.486 173.244C175.486 172.511 176.158 172.208 176.773 172.208C176.928 172.208 177.063 172.226 177.183 172.256C177.423 172.304 177.689 172.404 177.888 172.602V172.6C177.939 172.646 177.992 172.713 178.039 172.793C178.044 172.801 178.049 172.809 178.054 172.817C178.066 172.839 178.078 172.863 178.089 172.887C178.093 172.895 178.096 172.902 178.1 172.911C178.161 173.047 178.204 173.208 178.204 173.373C178.204 173.403 178.208 173.452 178.198 173.507C178.197 173.512 178.196 173.516 178.195 173.521C178.192 173.534 178.188 173.546 178.182 173.56C178.18 173.565 178.179 173.571 178.176 173.576C178.175 173.58 178.172 173.585 178.169 173.59C178.118 173.692 178.015 173.764 177.893 173.764C177.786 173.764 177.694 173.708 177.638 173.626C177.634 173.618 177.629 173.611 177.625 173.603C177.617 173.589 177.61 173.573 177.604 173.556C177.603 173.555 177.602 173.552 177.602 173.55C177.599 173.542 177.596 173.533 177.594 173.525C177.58 173.475 177.573 173.422 177.573 173.377C177.573 173.367 177.573 173.359 177.572 173.349C177.572 173.334 177.571 173.321 177.57 173.307C177.56 173.229 177.538 173.168 177.511 173.118C177.508 173.113 177.505 173.108 177.502 173.103C177.496 173.094 177.491 173.086 177.485 173.077C177.33 172.851 177 172.737 176.758 172.737C176.433 172.737 176.083 172.918 176.083 173.251C176.083 173.583 176.396 173.783 176.927 173.96C177.965 174.345 178.179 174.657 178.272 175.037C178.375 175.453 178.197 176.403 176.894 176.403ZM182.678 172.923C182.104 170.311 179.51 168.673 176.886 169.266C174.26 169.86 172.599 172.459 173.174 175.072C173.363 175.935 173.774 176.692 174.333 177.297C174.621 177.609 173.98 179.328 174.336 179.552C174.629 179.737 175.91 178.442 176.237 178.561C177.081 178.867 178.022 178.942 178.967 178.729C181.591 178.135 183.253 175.536 182.678 172.923Z" fill="#10CBB4"/>
<path fill-rule="evenodd" clip-rule="evenodd" d="M181.015 180.891C181.394 180.683 182.103 180.618 182.444 181.087C182.786 181.555 182.865 182.441 182.816 183.171C182.766 183.927 182.469 185.226 182.009 186.138C181.563 187.024 180.96 187.647 180.114 187.512C179.447 187.405 179.13 187.001 179.083 186.937L179.077 186.929C179.077 186.929 179.033 187.132 178.906 187.989C178.87 188.228 178.833 188.538 178.791 188.87C179.348 188.791 179.78 188.731 179.967 188.709C180.735 188.614 183.645 188.235 184.456 188.21C185.268 188.183 185.435 188.314 185.564 188.522C185.692 188.731 185.744 189.07 185.499 189.318C185.255 189.566 183.233 189.696 182.28 189.826C181.698 189.906 179.983 190.136 178.548 190.336C178.473 190.647 178.383 190.898 178.271 191.029C177.904 191.46 177.523 191.301 177.412 191.029C177.353 190.883 177.357 190.669 177.374 190.503C176.987 190.559 176.682 190.605 176.511 190.634C176.093 190.707 175.061 190.9 173.977 191.12L173.681 191.18C172.74 191.374 171.799 191.581 171.221 191.743C171.113 192.074 171.005 192.405 170.892 192.733C170.458 193.993 169.898 195.209 169.028 196.228C168.732 196.573 168.403 196.898 168.014 197.129C167.624 197.361 167.168 197.497 166.719 197.447C166.078 197.378 165.562 196.907 165.399 196.282C165.23 195.634 165.434 194.921 165.68 194.314C165.944 193.66 166.337 193.06 166.814 192.544C167.183 192.144 167.6 191.794 168.048 191.487C168.365 191.252 168.769 190.994 169.249 190.765C169.44 190.675 169.651 190.59 169.872 190.513C169.904 190.5 169.935 190.487 169.966 190.475C170.008 190.458 170.05 190.44 170.079 190.406C170.105 190.377 170.116 190.34 170.128 190.302C170.398 189.422 170.692 188.548 170.976 187.671C170.91 187.875 170.675 188.093 170.532 188.238C170.219 188.553 169.801 188.86 169.347 188.89C169.081 188.907 168.806 188.829 168.602 188.655C168.355 188.444 168.231 188.114 168.202 187.788C168.163 187.369 168.249 186.935 168.337 186.526C168.428 186.106 168.547 185.692 168.681 185.285C168.77 185.009 168.868 184.736 168.966 184.464C169.055 184.221 169.179 183.974 169.21 183.715C169.244 183.428 169.175 183.124 169.279 182.924C169.383 182.723 169.65 182.77 169.902 182.821C170.155 182.872 170.429 183.185 170.404 183.532C170.378 183.88 170.224 184.324 170.12 184.662C170.018 185.001 169.794 185.697 169.717 186.036C169.64 186.375 169.514 186.957 169.769 187.14C170.095 187.375 170.532 186.993 170.876 186.462C171.189 185.978 171.623 184.732 171.752 184.358C171.88 183.985 172.167 183.065 172.26 182.777C172.352 182.489 172.567 182.211 172.885 182.02C173.202 181.828 173.537 181.794 173.76 181.872C173.984 181.95 173.812 182.524 173.76 182.723L173.757 182.735C173.708 182.921 173.204 184.741 172.714 186.514L172.637 186.793C172.174 188.465 171.745 190.014 171.745 190.014C171.744 190.018 171.744 190.02 171.743 190.022C172.473 189.871 173.134 189.766 173.505 189.687L173.554 189.676C173.995 189.587 175.279 189.387 176.592 189.191L176.907 189.145C177.155 189.108 177.402 189.071 177.642 189.036C177.713 188.664 177.797 188.225 177.888 187.749C177.556 187.959 177.117 188.147 176.77 188.033C176.247 187.86 176.233 187.252 176.233 187.252C175.941 187.977 175.377 188.534 174.614 188.42C173.851 188.307 173.634 187.773 173.541 187.375C173.446 186.977 173.25 186.009 173.79 184.383C174.331 182.757 175.237 181.72 175.985 181.611C176.733 181.502 177.1 181.985 177.1 181.985L177.202 181.661C177.304 181.338 177.642 181.357 177.985 181.458C178.328 181.561 178.357 181.858 178.286 182.167C178.256 182.295 178.161 182.729 178.059 183.191L177.998 183.469C177.877 184.023 177.764 184.539 177.764 184.539C177.764 184.539 177.224 186.649 177.747 186.493C177.93 186.439 178.068 186.353 178.171 186.265C178.199 186.118 178.227 185.971 178.255 185.823L178.34 185.379C178.728 183.359 179.098 181.443 179.143 181.28C179.241 180.927 179.466 180.956 179.899 181.06C180.332 181.165 180.227 181.339 180.227 181.339L180.153 181.852C180.224 181.679 180.634 181.099 181.015 180.891ZM169.604 192.19C169.604 192.19 168.415 192.633 167.511 193.778C166.789 194.69 166.456 195.62 166.719 195.943C167.047 196.348 167.675 195.679 167.885 195.436C168.311 194.944 168.639 194.375 168.93 193.793C169.071 193.51 169.205 193.223 169.327 192.931C169.384 192.793 169.439 192.654 169.491 192.515C169.506 192.472 169.569 192.203 169.604 192.19ZM184.858 180.677C185.284 180.32 185.752 180.235 186.3 180.327C186.456 180.353 186.608 180.411 186.737 180.501C187.607 181.11 187.076 182.387 186.606 183.087C186.265 183.593 185.77 183.961 185.208 184.198C185.019 184.279 184.661 184.419 184.316 184.427C184.302 184.427 184.165 184.785 184.135 184.995C184.1 185.238 184.122 185.616 184.293 185.775C184.697 186.154 185.407 185.688 185.722 185.424C185.863 185.305 186.014 185.192 186.132 185.05C186.243 184.918 186.436 184.624 186.624 184.684C186.778 184.734 186.873 185.02 186.922 185.141C186.922 185.141 187.062 185.479 186.961 185.683C186.861 185.887 186.142 186.53 185.976 186.658C185.812 186.786 185.222 187.155 184.701 187.284C184.288 187.386 183.813 187.341 183.464 187.084C183.24 186.92 183.082 186.679 182.987 186.42C182.891 186.161 182.855 185.886 182.838 185.611C182.773 184.485 183.076 183.271 183.618 182.279C184.094 181.405 184.286 181.155 184.858 180.677ZM176.875 183.294C176.971 182.809 176.631 182.706 176.339 182.819C175.975 182.96 175.48 183.24 175.08 184.146C174.868 184.626 174.746 185.124 174.716 185.545C174.685 185.966 174.749 186.718 175.246 186.813C175.691 186.898 176.011 186.192 176.3 185.326C176.57 184.515 176.784 183.755 176.875 183.294ZM181.593 183.204C181.629 182.71 181.518 181.746 180.831 182.247C180.276 182.649 180.012 183.601 179.797 184.409C179.569 185.263 179.416 186.108 179.416 186.108C179.74 186.468 180.331 186.277 180.611 185.987C180.931 185.658 181.095 185.207 181.245 184.775C181.423 184.267 181.554 183.744 181.593 183.204ZM186.063 181.701C186.03 181.522 185.876 181.435 185.695 181.48C185.57 181.511 185.466 181.597 185.375 181.688C184.945 182.124 184.598 182.957 184.537 183.291C184.541 183.264 184.628 183.294 184.927 183.172C185.035 183.127 185.137 183.077 185.236 183.014C185.451 182.878 185.652 182.714 185.806 182.511C185.968 182.296 186.114 181.976 186.063 181.701Z" fill="white"/>
<path d="M158.587 177.765C161.029 178.651 163.727 177.389 164.613 174.946C165.498 172.504 164.236 169.806 161.794 168.92L157.421 167.335C154.979 166.449 152.281 167.711 151.395 170.154C150.509 172.596 151.772 175.294 154.214 176.18L158.587 177.765Z" fill="#FCDABA"/>
<path d="M159.231 190.611C161.784 191.095 164.245 189.417 164.729 186.865C165.212 184.312 163.535 181.851 160.983 181.367L155.522 180.332C152.97 179.849 150.508 181.526 150.025 184.078C149.541 186.631 151.218 189.092 153.771 189.576L159.231 190.611Z" fill="#FCDABA"/>
<path d="M158.732 203.015C161.317 203.268 163.619 201.377 163.872 198.791C164.125 196.206 162.234 193.904 159.648 193.651L154.283 193.126C151.697 192.873 149.396 194.764 149.143 197.35C148.889 199.936 150.78 202.237 153.366 202.49L158.732 203.015Z" fill="#FCDABA"/>
<path d="M159.542 215.793C162.128 216.046 164.429 214.155 164.682 211.57C164.935 208.984 163.044 206.683 160.459 206.429L155.807 205.974C153.221 205.721 150.92 207.612 150.667 210.198C150.414 212.783 152.305 215.085 154.891 215.338L159.542 215.793Z" fill="#FCDABA"/>
<path d="M280.056 208.651L389.041 198.176C399.419 197.179 407.023 187.958 406.026 177.58C405.029 167.202 395.807 159.598 385.429 160.595L276.444 171.07C266.066 172.068 258.462 181.289 259.459 191.667C260.457 202.044 269.678 209.649 280.056 208.651Z" fill="#DE4A65"/>
<path d="M313.021 160.405L309.613 124.827L341.945 121.703L345.353 157.281C347.781 157.19 350.18 157.121 352.525 157.091C350.172 167.301 341.573 175.142 330.849 176.179C320.117 177.215 310.19 171.165 305.947 161.586C308.255 161.167 310.622 160.779 313.021 160.405Z" fill="#FCDABA"/>
<path d="M248.852 221.119C253.921 223.819 261.653 227.19 271.609 228.857C280.408 230.328 287.935 229.973 293.277 229.302C294.805 221.986 296.03 213.75 296.598 204.706C296.847 200.694 296.946 196.84 296.931 193.159C284.531 190.874 272.139 188.596 259.739 186.311C256.107 197.911 252.483 209.511 248.852 221.119Z" fill="#DE4A65"/>
<path d="M278.401 208.848C288.912 208.848 297.433 200.439 297.433 190.067C297.433 179.694 288.912 171.286 278.401 171.286C267.89 171.286 259.369 179.694 259.369 190.067C259.369 200.439 267.89 208.848 278.401 208.848Z" fill="#DE4A65"/>
<path d="M277.818 189.994C277.147 194.907 276.287 201.747 275.465 209.97C274.017 224.452 274.236 227.77 274.96 231.004C275.887 235.139 278.285 242.107 285.675 249.522C288.02 263.006 290.365 276.489 292.71 289.966C302.18 293.276 317.253 297.274 336.044 296.98C355.716 296.67 371.242 291.78 380.735 287.97C382.514 258.153 384.301 228.344 386.081 198.527C386.081 198.527 385.251 174.507 385.168 160.653C373.662 159.066 368.007 157.086 352.217 157.275C349.88 167.41 341.337 175.18 330.682 176.208C320.02 177.236 310.15 171.235 305.943 161.734C290.402 164.561 275.261 171.28 275.261 171.28C276.114 177.515 276.973 183.751 277.825 189.986L277.818 189.994Z" fill="#DE4A65"/>
<path d="M416.297 331.936C412.997 331.936 409.652 331.068 406.617 329.248C397.677 323.887 394.769 312.297 400.123 303.356C410.694 285.71 414.394 270.835 411.11 259.138C410.015 255.25 408.421 252.622 402.494 243.191C400.697 240.322 398.651 237.075 396.234 233.141C387.143 218.356 378.505 203.247 370.561 188.251C365.684 179.039 369.187 167.614 378.399 162.729C387.611 157.843 399.036 161.355 403.921 170.567C411.495 184.861 419.733 199.26 428.401 213.365C430.727 217.141 432.713 220.304 434.464 223.098C441.162 233.76 444.854 239.627 447.467 248.945C453.659 271.031 448.63 295.866 432.516 322.762C428.975 328.667 422.723 331.944 416.305 331.944L416.297 331.936Z" fill="#FCDABA"/>
<path d="M382.242 222.154C387.913 221.324 396.136 219.444 405.114 214.883C413.05 210.851 418.879 206.094 422.768 202.386C419.642 195.59 415.723 188.228 410.799 180.617C408.61 177.234 406.397 174.07 404.2 171.126C392.889 176.645 381.585 182.157 370.274 187.677C374.268 199.17 378.255 210.662 382.25 222.154H382.242Z" fill="#DE4A65"/>
<path d="M387.233 198.278C397.659 198.278 406.11 189.827 406.11 179.401C406.11 168.976 397.659 160.524 387.233 160.524C376.808 160.524 368.356 168.976 368.356 179.401C368.356 189.827 376.808 198.278 387.233 198.278Z" fill="#DE4A65"/>
<path d="M416.312 331.929C426.737 331.929 435.189 323.477 435.189 313.052C435.189 302.626 426.737 294.174 416.312 294.174C405.886 294.174 397.435 302.626 397.435 313.052C397.435 323.477 405.886 331.929 416.312 331.929Z" fill="#FCDABA"/>
<path d="M376.609 318.874C377.515 320.897 379.69 322.045 381.864 321.615C383.125 321.365 384.484 321.018 385.912 320.542C388.192 319.78 390.117 318.866 391.673 318.005C389.929 320.301 387.814 322.762 385.255 325.239C382 328.388 378.753 330.864 375.801 332.775C371.044 335.856 376.148 342.108 380.807 340.296C376.186 343.474 379.999 349.628 384.492 349.334C385.798 352.86 390.306 354.37 393.485 352.249C394.384 355.435 398.514 358.41 402.123 355.571C407.643 351.222 413.57 345.898 419.445 339.427C423.787 334.647 430.575 325.42 430.575 325.42L402.033 300.706C402.033 300.706 395.199 305.811 390.465 308.091C386.636 309.941 382.936 311.33 379.516 312.395C376.798 313.233 375.446 316.276 376.601 318.874H376.609Z" fill="#FCDABA"/>
<path d="M384.5 349.704C384.386 349.704 384.273 349.651 384.197 349.553C384.077 349.387 384.107 349.145 384.281 349.024C386.87 347.114 389.393 345.06 391.779 342.916C394.603 340.378 397.313 337.653 399.835 334.806C399.971 334.647 400.213 334.632 400.371 334.776C400.53 334.912 400.545 335.153 400.402 335.312C397.865 338.174 395.131 340.922 392.284 343.482C389.883 345.641 387.339 347.71 384.726 349.636C384.658 349.689 384.583 349.711 384.5 349.711V349.704Z" fill="#DCAC82"/>
<path d="M380.814 340.658C380.694 340.658 380.573 340.597 380.505 340.492C380.384 340.318 380.429 340.084 380.603 339.971C382.536 338.642 384.446 337.23 386.289 335.757C388.841 333.711 391.31 331.514 393.628 329.226C393.779 329.082 394.013 329.082 394.164 329.226C394.315 329.369 394.308 329.611 394.164 329.762C391.824 332.072 389.332 334.292 386.765 336.346C384.915 337.826 382.982 339.261 381.033 340.597C380.965 340.643 380.898 340.665 380.822 340.665L380.814 340.658Z" fill="#DCAC82"/>
<path d="M393.553 352.603C393.432 352.603 393.319 352.55 393.244 352.445C393.123 352.271 393.168 352.037 393.334 351.916C394.867 350.836 396.385 349.681 397.834 348.488C400.832 346.019 403.664 343.286 406.254 340.363C406.39 340.205 406.631 340.19 406.79 340.333C406.948 340.469 406.963 340.711 406.82 340.869C404.207 343.822 401.346 346.578 398.318 349.07C396.853 350.278 395.32 351.441 393.772 352.535C393.704 352.581 393.629 352.603 393.553 352.603Z" fill="#DCAC82"/>
<path d="M310.955 139.398L312.484 155.255C318.692 155.33 328.602 154.373 336.131 148.521C342.13 143.868 343.584 138.449 344.01 136.227L310.955 139.39V139.398Z" fill="#FBCCA1"/>
<path d="M294.265 111.415L298.657 110.305L302.73 126.41L298.337 127.52C295.102 128.339 291.818 126.381 291 123.145L289.889 118.753C289.071 115.517 291.029 112.234 294.265 111.415Z" fill="#FCDABA"/>
<path d="M295.852 122.37C295.739 122.392 295.618 122.354 295.528 122.271C295.377 122.128 295.369 121.894 295.513 121.735L298.02 119.047L294.531 117.869C294.335 117.801 294.229 117.59 294.297 117.393C294.365 117.197 294.576 117.091 294.773 117.159L298.812 118.519C298.933 118.556 299.024 118.662 299.062 118.783C299.092 118.904 299.062 119.04 298.971 119.13L296.064 122.249C296.003 122.309 295.936 122.347 295.852 122.362V122.37Z" fill="#DCAC82"/>
<path d="M340.063 99.8529L344.458 98.7429C347.689 97.9274 350.974 99.8831 351.797 103.122L352.907 107.517C353.723 110.749 351.767 114.033 348.528 114.856L344.133 115.966L340.063 99.8604V99.8529Z" fill="#DCAC82"/>
<path d="M312.008 70.7087L315.668 69.7832C327.791 66.7179 340.117 74.0689 343.183 86.1916L351.512 119.134C354.066 129.236 347.941 139.508 337.838 142.063L330.518 143.914C318.395 146.979 306.069 139.628 303.003 127.505L295.599 98.2232C292.534 86.1004 299.885 73.774 312.008 70.7087Z" fill="#FCDABA"/>
<path d="M318.834 113.443C319.809 113.197 320.333 111.949 320.006 110.655C319.679 109.361 318.624 108.512 317.649 108.758C316.675 109.005 316.15 110.253 316.478 111.547C316.805 112.841 317.86 113.69 318.834 113.443Z" fill="#2C2044"/>
<path d="M341.284 107.774C342.259 107.527 342.783 106.279 342.456 104.985C342.129 103.691 341.074 102.842 340.1 103.089C339.125 103.335 338.601 104.584 338.928 105.877C339.255 107.171 340.31 108.02 341.284 107.774Z" fill="#2C2044"/>
<path d="M311.294 104.564C311.173 104.587 311.053 104.549 310.962 104.459C310.819 104.308 310.819 104.074 310.962 103.923C311.762 103.145 313.122 102.133 315.092 101.695C316.837 101.31 318.324 101.552 319.268 101.824C319.472 101.884 319.585 102.088 319.525 102.292C319.464 102.496 319.26 102.609 319.057 102.548C318.196 102.307 316.852 102.08 315.251 102.435C313.461 102.828 312.216 103.757 311.491 104.466C311.438 104.519 311.362 104.557 311.294 104.564Z" fill="#2C2044"/>
<path d="M336.295 98.2445C336.189 98.2596 336.076 98.2445 335.993 98.169C335.834 98.0406 335.804 97.799 335.94 97.6404C336.469 96.991 337.39 96.1227 338.749 95.7225C340.297 95.2694 341.664 95.6017 342.547 95.9717C342.736 96.0547 342.834 96.2737 342.751 96.4625C342.676 96.6588 342.449 96.7494 342.26 96.6664C341.49 96.3492 340.297 96.0547 338.968 96.4474C337.79 96.7947 336.997 97.5498 336.529 98.1161C336.469 98.1916 336.386 98.2369 336.303 98.252L336.295 98.2445Z" fill="#2C2044"/>
<path d="M315.059 119.313C316.47 118.956 317.453 118.031 317.254 117.247C317.056 116.463 315.751 116.116 314.34 116.473C312.929 116.83 311.946 117.755 312.145 118.539C312.343 119.323 313.648 119.67 315.059 119.313Z" fill="#FBCCA1"/>
<path d="M346.804 111.286C348.215 110.929 349.198 110.004 349 109.219C348.801 108.435 347.497 108.088 346.086 108.445C344.675 108.802 343.692 109.727 343.89 110.511C344.088 111.296 345.393 111.642 346.804 111.286Z" fill="#FBCCA1"/>
<path d="M300.776 129.414C302.052 129.414 303.086 128.38 303.086 127.104C303.086 125.828 302.052 124.793 300.776 124.793C299.5 124.793 298.465 125.828 298.465 127.104C298.465 128.38 299.5 129.414 300.776 129.414Z" fill="#64C846"/>
<path d="M315.689 69.7852L306.877 72.0127C294.75 75.0783 287.403 87.3938 290.469 99.5281L293.527 111.617L305.458 108.597C305.11 105.81 304.808 103.319 304.695 100.963C314.957 97.444 322.991 90.7539 327.702 82.3725C330.549 84.1696 335.963 87.0465 343.65 88.0583C343.446 87.0616 343.197 86.0724 342.91 85.0983C339.467 73.5304 327.4 66.8177 315.696 69.7776L315.689 69.7852Z" fill="#2C2044"/>
<path d="M333.524 122.46C332.55 122.709 331.56 122.883 330.564 122.989C326.856 123.381 325.527 124.741 326.388 126.908C327.302 129.203 329.454 131.733 335.479 130.215C341.505 128.682 342.2 125.435 341.905 122.981C341.633 120.656 339.821 120.097 336.37 121.516C335.449 121.894 334.49 122.211 333.516 122.453L333.524 122.46Z" fill="#4D1822"/>
<path d="M340.818 127.285C339.882 128.463 338.236 129.52 335.487 130.222C332.731 130.91 330.791 130.766 329.409 130.17C330.307 128.486 332.165 127.059 334.536 126.462C336.907 125.866 339.232 126.236 340.818 127.285Z" fill="#DE4A65"/>
<path d="M339.391 120.754L339.112 122.135C339.006 122.641 338.651 123.057 338.175 123.245C336.175 124.023 333.72 124.861 330.844 125.586C329.213 126.001 327.68 126.319 326.268 126.56C325.686 124.589 327.061 123.359 330.557 122.989C331.546 122.875 332.543 122.702 333.517 122.46C334.491 122.218 335.45 121.894 336.371 121.524C337.571 121.033 338.576 120.776 339.384 120.754H339.391Z" fill="white"/>
<path d="M547.765 72.621H453.278C445.763 72.621 439.67 78.6885 439.67 86.1732V180.271C439.67 187.755 445.763 193.823 453.278 193.823H547.765C555.28 193.823 561.373 187.755 561.373 180.271V86.1732C561.373 78.6885 555.28 72.621 547.765 72.621Z" fill="#5FF7E4"/>
<path d="M371.579 0H336.977C334.223 0 331.991 2.2574 331.991 5.04205V40.0331C331.991 42.8177 334.223 45.0751 336.977 45.0751H371.579C374.333 45.0751 376.565 42.8177 376.565 40.0331V5.04205C376.565 2.2574 374.333 0 371.579 0Z" fill="#10CBB4"/>
<path d="M172.01 288.982H118.348C114.081 288.982 110.622 292.416 110.622 296.653V349.925C110.622 354.162 114.081 357.596 118.348 357.596H172.01C176.277 357.596 179.737 354.162 179.737 349.925V296.653C179.737 292.416 176.277 288.982 172.01 288.982Z" fill="#5FF7E4"/>
<path fill-rule="evenodd" clip-rule="evenodd" d="M365.572 16.853C365.573 10.4197 360.364 5.2044 353.939 5.20001C347.514 5.19561 342.29 10.4086 342.285 16.8436C342.281 22.9356 345.975 24.9922 347.618 27.8443C348.241 28.9242 348.215 30.3223 348.215 30.3223L359.679 30.3244C359.679 30.3244 359.66 28.9347 360.268 27.8468C362.07 24.6216 365.573 22.3797 365.572 16.853Z" fill="#008C7B"/>
<path fill-rule="evenodd" clip-rule="evenodd" d="M349.42 36.844C349.944 38.6621 351.768 40.0005 353.933 40.0024C356.097 40.0044 357.928 38.6612 358.451 36.8463L349.414 36.8415L349.42 36.844Z" fill="#008C7B"/>
<path d="M348.209 30.3194L348.208 36.8423L359.657 36.8457L359.659 30.3228L348.209 30.3194Z" fill="#008C7B"/>
<path d="M348.218 30.3235C347.47 30.3233 346.863 30.9286 346.863 31.6755C346.862 32.4225 347.469 33.0281 348.217 33.0284L359.649 33.0318C360.397 33.032 361.004 32.4267 361.004 31.6798C361.004 30.9329 360.398 30.3272 359.65 30.3269L348.218 30.3235Z" fill="#006B5F"/>
<path fill-rule="evenodd" clip-rule="evenodd" d="M359.654 34.1461L348.218 34.1423C347.472 34.1436 346.867 34.7482 346.864 35.4962C346.861 36.2443 347.47 36.8476 348.218 36.8504L359.654 36.8542C360.4 36.8529 361.005 36.2483 361.008 35.5003C361.011 34.7522 360.402 34.1489 359.654 34.1461Z" fill="#006B5F"/>
<path d="M357.741 17.1392C357.109 17.1378 356.511 17.4843 356.103 18.0869C355.695 18.6895 355.482 19.5267 355.482 20.5097L355.484 22.1809C355.04 22.2149 354.533 22.2357 353.954 22.2326C353.424 22.2335 352.909 22.2237 352.42 22.1938L352.423 20.511C352.423 19.528 352.206 18.6899 351.8 18.087C351.392 17.48 350.796 17.1366 350.165 17.1352C349.109 17.1354 348.041 18.1335 348.041 20.0513C348.041 22.1957 349.54 23.0001 351.166 23.3052L351.165 30.3262L352.423 30.3265L352.426 23.454C352.979 23.4871 353.504 23.4878 353.953 23.4904C353.953 23.4904 353.953 23.4904 353.958 23.4887C353.962 23.487 353.958 23.4887 353.962 23.487C354.405 23.4871 354.935 23.4861 355.485 23.4528L355.482 30.3252L356.74 30.3255L356.741 23.3044C358.373 23.0002 359.87 22.1956 359.871 20.0511C359.872 18.1375 358.805 17.1357 357.748 17.1317L357.741 17.1392ZM351.162 22.025C350.045 21.7754 349.289 21.2263 349.289 20.0508C349.289 18.9715 349.739 18.3904 350.159 18.3905C350.371 18.3918 350.582 18.5333 350.758 18.7904C350.944 19.0624 351.164 19.5858 351.164 20.5066L351.162 22.025ZM356.734 22.006L356.734 20.5075C356.733 19.5826 356.954 19.065 357.141 18.7874C357.317 18.5289 357.529 18.3857 357.738 18.3887C358.157 18.3888 358.607 18.9691 358.607 20.0484C358.606 20.8728 358.426 21.6344 356.733 22.0019L356.734 22.006Z" fill="#006B5F"/>
<path d="M119.256 136.751H61.6046C58.8585 136.751 56.6245 138.985 56.6245 141.731V176.322C56.6245 179.068 58.8585 181.302 61.6046 181.302H119.256C122.002 181.302 124.236 179.068 124.236 176.322V141.731C124.236 138.985 122.002 136.751 119.256 136.751Z" fill="#008C7B"/>
<path d="M58.265 119.003C57.5197 119.109 56.8605 119.498 56.4079 120.099C55.9552 120.701 55.7637 121.442 55.869 122.188L56.7778 128.633C56.8934 129.449 57.3652 130.135 58.0107 130.569L62.5415 118.4L58.265 119.003Z" fill="#008C7B"/>
<path d="M121.33 122.368C122.075 122.263 122.735 121.874 123.188 121.272C123.64 120.671 123.832 119.929 123.726 119.183L122.816 112.739C122.716 112.032 122.358 111.422 121.849 110.988L117.407 122.922L121.33 122.369V122.368Z" fill="#008C7B"/>
<path d="M112.393 123.63L117.211 110.684L108.731 111.881L103.912 124.827L112.393 123.63Z" fill="#008C7B"/>
<path d="M71.4047 129.414L76.2241 116.469L67.5557 117.693L62.7363 130.638L71.4047 129.414Z" fill="#008C7B"/>
<path d="M85.2369 127.463L90.0563 114.516L81.2381 115.761L76.4194 128.707L85.2369 127.463Z" fill="#008C7B"/>
<path d="M98.8972 125.535L103.717 112.589L95.0694 113.809L90.25 126.755L98.8972 125.535Z" fill="#008C7B"/>
<path d="M179.455 41.5693H114.909C109.775 41.5693 105.613 45.7815 105.613 50.9774V116.302C105.613 121.497 109.775 125.71 114.909 125.71H179.455C184.589 125.71 188.751 121.497 188.751 116.302V50.9774C188.751 45.7815 184.589 41.5693 179.455 41.5693Z" fill="#5FF7E4"/>
<path d="M137.776 326.474C137.768 326.326 137.915 326.183 138.176 326.096C138.369 326.031 138.539 325.963 138.684 325.898C139.153 325.687 139.407 325.396 139.405 325.097C139.379 321.839 139.195 299.02 139.056 298.529C138.906 297.999 137.59 297.997 137.59 297.997C128.799 298.09 128.699 321.233 129.305 324.05C129.589 325.37 130.925 325.978 132.267 326.254C132.632 326.328 132.855 326.497 132.845 326.68L131.581 346.485C131.507 347.628 133.196 348.579 135.318 348.579C137.44 348.579 139.127 347.628 139.056 346.485L137.779 326.474H137.776Z" fill="#00AD97"/>
<path d="M160.807 312.701C160.807 312.701 162.217 311.795 159.71 298.227C159.702 298.179 159.63 298.142 159.537 298.134L158.612 298.062C158.49 298.053 158.377 298.099 158.375 298.162L157.884 308.047C157.878 308.186 157.723 308.314 157.471 308.371C157.293 308.41 157.068 308.423 156.807 308.347C156.59 308.284 156.459 308.164 156.453 308.038L155.969 298.097C155.966 298.04 155.875 297.997 155.762 297.997H155.08C154.968 297.997 154.876 298.042 154.874 298.099L154.544 308.021C154.542 308.097 154.494 308.171 154.407 308.232C154.257 308.316 154.114 308.364 153.977 308.386C153.969 308.386 153.958 308.388 153.947 308.39C153.932 308.392 153.914 308.395 153.899 308.397C153.886 308.397 153.871 308.399 153.858 308.399C153.845 308.399 153.832 308.399 153.819 308.399C153.806 308.399 153.79 308.399 153.777 308.399C153.764 308.399 153.749 308.399 153.736 308.399C153.723 308.399 153.71 308.399 153.697 308.399C153.684 308.399 153.669 308.399 153.656 308.397C153.641 308.397 153.623 308.392 153.608 308.39C153.599 308.39 153.589 308.388 153.578 308.386C153.441 308.364 153.298 308.314 153.148 308.232C153.061 308.171 153.013 308.097 153.011 308.021L152.685 298.099C152.685 298.042 152.592 297.997 152.479 297.997H151.797C151.686 297.997 151.595 298.04 151.591 298.097L151.104 308.043C151.098 308.169 150.97 308.288 150.75 308.351C150.49 308.427 150.264 308.414 150.086 308.375C149.834 308.319 149.682 308.188 149.673 308.051L149.184 298.164C149.182 298.101 148.025 298.136 148.025 298.136C147.931 298.142 147.86 298.181 147.851 298.229C145.345 311.795 146.754 312.703 146.754 312.703C146.991 313.415 150.081 315.016 151.41 315.676C151.669 315.804 151.808 315.98 151.797 316.163L150.04 346.29C149.966 347.541 151.656 348.581 153.777 348.581C155.899 348.581 157.587 347.541 157.515 346.29L155.758 316.167C155.747 315.985 155.888 315.809 156.145 315.68C157.467 315.022 160.57 313.415 160.809 312.703L160.807 312.701Z" fill="#00AD97"/>
<path d="M544.171 116.872L531.972 145.466C530.669 148.518 527.685 150.496 524.381 150.496H480.958V155.453H527.791C532.876 155.453 536.947 159.889 536.364 165.109C535.924 169.079 532.729 172.284 528.778 172.731C523.582 173.317 519.167 169.227 519.167 164.118C519.167 163.26 519.295 162.43 519.53 161.642H497.233C497.467 162.43 497.6 163.26 497.6 164.118C497.6 169.324 493.006 173.469 487.687 172.695C484.189 172.183 481.325 169.49 480.554 166.022C480.21 164.487 480.302 163.002 480.706 161.642H477.553C476.033 161.642 474.799 160.401 474.799 158.875V109.129L471.953 103.407C471.022 101.53 469.112 100.35 467.029 100.35H458.776C457.078 100.35 455.697 98.9618 455.697 97.2557C455.697 95.5449 457.078 94.157 458.776 94.157H469.131C472.261 94.157 475.12 95.9323 476.52 98.7451L479.783 105.302H536.575C542.505 105.302 546.507 111.394 544.167 116.872H544.171ZM526.717 142.072L537.567 116.636C538.604 114.202 536.828 111.495 534.193 111.495H480.958V144.308H523.344C524.812 144.308 526.139 143.427 526.717 142.072ZM530.26 164.118C530.26 162.753 529.154 161.642 527.791 161.642C526.428 161.642 525.326 162.753 525.326 164.118C525.326 165.483 526.432 166.594 527.791 166.594C529.149 166.594 530.26 165.483 530.26 164.118ZM491.436 164.118C491.436 162.753 490.33 161.642 488.972 161.642C487.613 161.642 486.507 162.753 486.507 164.118C486.507 165.483 487.613 166.594 488.972 166.594C490.33 166.594 491.436 165.483 491.436 164.118Z" fill="#00AD97"/>
<path d="M545.346 310.008C545.346 310.008 543.177 306.202 539.282 306.422C536.787 306.563 534.46 308.646 533.106 310.125C533.531 309.113 534.169 307.635 534.68 306.642C535.52 305.005 538.132 303.588 538.132 303.588C538.132 303.588 534.193 302.35 532.378 305.27C531.628 306.475 531.335 307.912 531.251 309.183C529.867 307.821 527.87 306.304 525.754 306.185C521.859 305.963 519.69 309.77 519.69 309.77C519.69 309.77 520.928 308.84 524.161 308.84C526.021 308.84 528.451 309.749 530.18 310.52C528.345 310.614 525.002 311.13 523.931 313.589C522.426 317.041 523.931 319.961 523.931 319.961C525.797 314.488 529.088 312.653 530.945 312.043C525.732 318.005 523.115 329.211 523.115 333.725H529.014C528.973 330.938 529.014 319.814 532.244 312.382C533.84 312.743 537.82 314.253 539.945 320.491C539.945 320.491 541.45 317.571 539.945 314.119C538.956 311.852 536.036 311.236 534.15 311.079C535.865 310.267 538.746 309.074 540.875 309.074C544.105 309.074 545.346 310.004 545.346 310.004V310.008Z" fill="#008C7B"/>
<path d="M517.651 314.834C517.651 314.834 519.718 310.824 517.651 306.085C516.179 302.709 511.593 301.999 509.073 301.869C511.446 300.809 514.782 299.563 517.335 299.563C521.771 299.563 523.472 300.839 523.472 300.839C523.472 300.839 520.495 295.613 515.147 295.917C512.243 296.082 509.501 298.166 507.601 300.034C507.484 298.288 507.083 296.315 506.055 294.661C503.562 290.652 498.156 292.353 498.156 292.353C498.156 292.353 501.741 294.298 502.895 296.545C503.594 297.907 504.471 299.936 505.056 301.326C503.197 299.292 500.001 296.435 496.578 296.241C491.228 295.937 488.251 301.163 488.251 301.163C488.251 301.163 489.952 299.887 494.388 299.887C497.312 299.887 501.266 301.524 503.621 302.64C501.029 302.854 497.021 303.7 495.663 306.815C493.597 311.554 495.663 315.564 495.663 315.564C498.566 307.046 503.984 304.948 506.198 304.438C510.453 311.672 510.851 329.862 510.792 333.73H517.961C517.596 328.771 516.984 323.941 515.544 319.167C514.282 314.983 512.504 310.914 510.16 307.219C509.562 306.273 508.844 305.046 507.998 303.955C510.543 304.787 515.08 307.297 517.649 314.834H517.651Z" fill="#008C7B"/>
<path fill-rule="evenodd" clip-rule="evenodd" d="M140.387 70.7992H127.859L123.355 102.821C122.548 108.562 127.005 113.69 132.802 113.69H143.883H147.335H150.791H161.871C167.668 113.69 172.125 108.562 171.318 102.821L166.815 70.7992H154.287H147.335H140.387ZM139.162 74.9194C139.162 74.114 138.511 73.4634 137.706 73.4634C136.905 73.4634 136.254 74.1187 136.254 74.9194C136.254 75.7202 136.9 76.3708 137.706 76.3708C138.511 76.3708 139.162 75.7248 139.162 74.9194ZM158.42 74.9194C158.42 74.114 157.77 73.4634 156.964 73.4634C156.164 73.4634 155.513 74.1187 155.513 74.9194C155.513 75.7202 156.159 76.3708 156.964 76.3708C157.77 76.3708 158.42 75.7248 158.42 74.9194Z" fill="#00AD97"/>
<path d="M147.334 53.5895C147.543 53.5895 147.764 53.5983 148.007 53.6115C151.238 53.8017 153.778 55.3638 155.503 58.3997C157.15 61.2848 158.026 65.5156 158.026 71.1889C158.026 72.3571 157.986 73.6139 157.906 74.9592C157.88 75.4504 157.455 75.8264 156.964 75.8C156.472 75.769 156.096 75.3487 156.123 74.8531C156.198 73.5875 156.238 72.3659 156.238 71.1889C156.238 65.8298 155.441 61.8912 153.954 59.2804C152.552 56.8155 150.503 55.5455 147.901 55.3949C147.737 55.3817 147.551 55.3773 147.334 55.3773C147.117 55.3773 146.936 55.3817 146.772 55.3949C144.17 55.5453 142.121 56.8155 140.718 59.2804C139.231 61.8912 138.435 65.8298 138.435 71.1889C138.435 72.3659 138.475 73.5875 138.55 74.8531C138.577 75.3487 138.2 75.769 137.709 75.8C137.218 75.8267 136.793 75.4504 136.767 74.9592C136.687 73.6139 136.647 72.3571 136.647 71.1889C136.647 65.5156 137.523 61.2851 139.165 58.3997C140.896 55.3641 143.436 53.802 146.666 53.6115C146.909 53.5983 147.131 53.5895 147.334 53.5895Z" fill="#00AD97"/>
</g>
<defs>
<clipPath id="clip0_11849_14586">
<rect width="600" height="600" fill="white"/>
</clipPath>
</defs>
</svg>
