<svg width="600" height="600" viewBox="0 0 600 600" fill="none" xmlns="http://www.w3.org/2000/svg">
<g clip-path="url(#clip0_568_10361)">
<g clip-path="url(#clip1_568_10361)">
<path d="M207.363 504.473C92.5046 469.789 -8.05136 352.259 0.661739 231.437C5.07985 170.167 39.3363 83.9923 105.525 61.0687C153.816 44.3446 201.777 67.2861 224.804 78.3103C304.331 116.369 296.62 170.168 355.631 189.833C432.158 215.324 485.023 138.127 543.519 168.055C586.47 190.035 606.167 256.329 598.652 306.377C579.81 431.943 374.708 555.015 207.363 504.473Z" fill="#FDF0FF"/>
</g>
<g clip-path="url(#clip2_568_10361)">
<path fill-rule="evenodd" clip-rule="evenodd" d="M109.355 126.948C110.959 130.715 113.96 133.714 117.718 135.319C122.512 137.366 129.363 140.295 134.827 142.629C138.167 144.056 138.161 148.786 134.827 150.214L117.718 157.524C113.955 159.129 110.959 162.128 109.355 165.895C107.31 170.693 104.383 177.55 102.052 183.02C100.626 186.362 95.9001 186.362 94.4738 183.02C92.1425 177.55 89.2155 170.693 87.1707 165.895C85.5668 162.128 82.5654 159.129 78.8078 157.524C74.0135 155.477 67.1629 152.547 61.6984 150.214C58.359 148.786 58.359 144.056 61.6984 142.629C67.1629 140.295 74.0135 137.366 78.8078 135.319C82.5711 133.714 85.5668 130.709 87.1707 126.948C89.2155 122.149 92.1425 115.292 94.4738 109.823C95.9001 106.48 100.626 106.48 102.052 109.823C104.383 115.292 107.31 122.149 109.355 126.948Z" fill="#F4C12A"/>
<path fill-rule="evenodd" clip-rule="evenodd" d="M18.7471 203.134C19.3465 204.542 20.4683 205.663 21.8726 206.263C23.6644 207.028 26.2248 208.122 28.267 208.995C29.5151 209.528 29.513 211.296 28.267 211.829L21.8726 214.561C20.4661 215.161 19.3465 216.282 18.7471 217.69C17.9829 219.483 16.8889 222.046 16.0177 224.09C15.4846 225.339 13.7185 225.339 13.1854 224.09C12.3142 222.046 11.2202 219.483 10.456 217.69C9.85657 216.282 8.73481 215.161 7.33048 214.561C5.53867 213.796 2.97832 212.702 0.936045 211.829C-0.312015 211.296 -0.312015 209.528 0.936045 208.995C2.97832 208.122 5.53867 207.028 7.33048 206.263C8.73695 205.663 9.85657 204.54 10.456 203.134C11.2202 201.341 12.3142 198.778 13.1854 196.734C13.7185 195.485 15.4846 195.485 16.0177 196.734C16.8889 198.778 17.9829 201.341 18.7471 203.134Z" fill="#F4C12A"/>
</g>
<g clip-path="url(#clip3_568_10361)">
<path fill-rule="evenodd" clip-rule="evenodd" d="M90.8063 404.917C91.8801 407.437 93.8898 409.442 96.4056 410.516C99.6157 411.885 104.203 413.845 107.861 415.406C110.097 416.361 110.093 419.525 107.861 420.48L96.4056 425.369C93.8859 426.443 91.8801 428.449 90.8063 430.969C89.4371 434.178 87.4773 438.765 85.9164 442.424C84.9615 444.66 81.7975 444.66 80.8425 442.424C79.2816 438.765 77.3218 434.178 75.9526 430.969C74.8788 428.449 72.8692 426.443 70.3533 425.369C67.1433 424 62.5564 422.04 58.8976 420.48C56.6617 419.525 56.6617 416.361 58.8976 415.406C62.5564 413.845 67.1433 411.885 70.3533 410.516C72.873 409.442 74.8788 407.433 75.9526 404.917C77.3218 401.707 79.2816 397.12 80.8425 393.462C81.7975 391.226 84.9615 391.226 85.9164 393.462C87.4773 397.12 89.4371 401.707 90.8063 404.917Z" fill="#F4C12A"/>
</g>
<g clip-path="url(#clip4_568_10361)">
<path fill-rule="evenodd" clip-rule="evenodd" d="M510.99 247.128C511.594 248.545 512.724 249.673 514.14 250.278C515.945 251.048 518.525 252.15 520.583 253.028C521.841 253.565 521.839 255.345 520.583 255.882L514.14 258.632C512.722 259.236 511.594 260.365 510.99 261.782C510.22 263.588 509.118 266.168 508.239 268.226C507.702 269.483 505.923 269.483 505.385 268.226C504.507 266.168 503.405 263.588 502.635 261.782C502.031 260.365 500.9 259.236 499.485 258.632C497.68 257.862 495.099 256.76 493.041 255.882C491.784 255.345 491.784 253.565 493.041 253.028C495.099 252.15 497.68 251.048 499.485 250.278C500.903 249.673 502.031 248.543 502.635 247.128C503.405 245.322 504.507 242.742 505.385 240.684C505.923 239.427 507.702 239.427 508.239 240.684C509.118 242.742 510.22 245.322 510.99 247.128Z" fill="#F4C12A"/>
</g>
<g clip-path="url(#clip5_568_10361)">
<path fill-rule="evenodd" clip-rule="evenodd" d="M501.382 419.644C502.725 422.794 505.237 425.301 508.382 426.643C512.394 428.355 518.128 430.804 522.701 432.755C525.496 433.949 525.491 437.904 522.701 439.097L508.382 445.21C505.232 446.552 502.725 449.059 501.382 452.209C499.671 456.221 497.221 461.954 495.27 466.528C494.076 469.323 490.121 469.323 488.928 466.528C486.977 461.954 484.527 456.221 482.815 452.209C481.473 449.059 478.961 446.552 475.816 445.21C471.804 443.498 466.07 441.049 461.497 439.097C458.702 437.904 458.702 433.949 461.497 432.755C466.07 430.804 471.804 428.355 475.816 426.643C478.966 425.301 481.473 422.789 482.815 419.644C484.527 415.632 486.977 409.898 488.928 405.325C490.121 402.53 494.076 402.53 495.27 405.325C497.221 409.898 499.671 415.632 501.382 419.644Z" fill="#F4C12A"/>
</g>
<g clip-path="url(#clip6_568_10361)">
<path d="M393 528.408V120.388C393 111.224 385.589 103.796 376.446 103.796L196.555 103.796C187.412 103.796 180 111.224 180 120.388L180 528.408C180 537.571 187.412 545 196.555 545H376.446C385.589 545 393 537.571 393 528.408Z" fill="#403556"/>
<path d="M393 515.612V107.592C393 98.4284 385.589 90.9999 376.446 90.9999L196.555 90.9999C187.412 90.9999 180 98.4284 180 107.592L180 515.612C180 524.775 187.412 532.204 196.555 532.204H376.446C385.589 532.204 393 524.775 393 515.612Z" fill="#2C2044"/>
<path d="M382.659 497.356V125.847C382.659 121.301 378.982 117.615 374.446 117.615L198.513 117.615C193.977 117.615 190.3 121.301 190.3 125.847L190.3 497.356C190.3 501.903 193.977 505.588 198.513 505.588H374.446C378.982 505.588 382.659 501.903 382.659 497.356Z" fill="#742384"/>
<path d="M265.031 109.128H307.928C310.42 109.128 312.44 107.103 312.44 104.606V104.052C312.44 101.555 310.42 99.5305 307.928 99.5305H265.031C262.539 99.5305 260.519 101.555 260.519 104.052V104.606C260.519 107.103 262.539 109.128 265.031 109.128Z" fill="#544A69"/>
<path d="M338.291 344.663C325.606 344.898 311.209 346.279 297.904 347.964C299.393 342.567 300.875 337.24 300.875 337.24C300.875 337.24 302.398 340.544 306.694 340.209C312.794 339.733 320.218 333.742 323.812 322.766C327.632 311.106 327.29 297.865 319.496 296.753C313.198 295.856 310.192 301.47 309.758 302.589C309.758 302.589 311.096 297.489 307.095 298.38C303.261 299.232 302.559 300.955 301.611 304.035C301.443 304.577 298.216 316.693 294.834 329.461C294.782 329.544 294.741 329.64 294.711 329.747C293.875 332.634 292.222 333.601 291.027 333.677C287.163 333.929 295.47 308.209 296.1 306.259C296.932 303.686 297.428 301.736 294.611 300.662C292.712 299.937 290.107 300.199 289.343 302.257C289.022 303.12 288.789 303.756 288.789 303.756C288.789 303.756 286.619 300.503 281.82 300.945C277.017 301.387 270.955 307.281 266.944 317.622C262.932 327.962 261.19 342.795 270.706 344.273C275.535 345.022 279.588 342.236 281.71 337.647C281.71 337.647 281.341 340.72 284.521 342.225C285.77 342.819 288.878 342.588 291.804 340.92C291.034 343.834 290.309 346.597 289.662 349.058C269.117 351.924 252.947 355.125 252.947 355.125C252.951 355.111 264.209 316.71 266.745 308.258C268.867 301.183 264.866 302.723 261.909 303.59C258.756 304.512 257.264 307.191 255.686 312.056C248.789 333.304 243.36 339.919 239.424 338.493C235.812 337.184 247.17 314.621 244.445 311.641C242.083 309.059 237.216 309.197 236.288 310.72C235.36 312.242 236.74 313.634 236.148 315.788C235.556 317.943 231.007 329.606 230.527 332.219C230.048 334.83 226.101 349.307 236.545 348.682C242.716 348.313 246.944 343.603 247.392 342.294C245.465 347.919 242.71 356.996 242.71 356.996C242.71 356.996 230.076 360.183 220.005 370.814C212.009 379.252 206.355 397.43 218.297 400.327C236.86 404.83 245.636 376.248 250.137 365.5C265.188 362.12 276.665 359.876 287.279 358.204C287.122 358.829 287.016 359.254 286.978 359.43C286.013 363.905 286.229 365.697 289.693 365.265C293.427 364.799 293.896 362.866 295.118 358.187C295.2 357.866 295.306 357.469 295.429 357.01C308.009 355.297 320.358 354.224 337.353 352.794C342.635 352.349 342.577 351.458 343.094 348.278C343.675 344.67 339.544 344.642 338.291 344.663ZM305.89 320C308.43 311.628 310.764 308.275 312.958 307.329C318.192 305.068 319.184 311.693 315.145 321.751C310.47 333.39 305.01 333.124 302.919 330.828C302.915 330.828 303.206 328.839 305.89 320ZM282.518 325.052C280.273 330.517 278.171 334.364 275.279 334.384C271.133 334.415 271.24 328.128 274.19 320.218C276.672 313.568 281.197 309.38 283.641 308.903C286.081 308.43 288.922 309.463 282.518 325.052ZM227.673 388.647C217.804 397.531 220.293 385.363 223.962 380.108C230.928 370.13 239.53 367.606 239.53 367.606C235.159 380.502 229.696 386.824 227.673 388.647Z" fill="white"/>
<path d="M351.414 312.491C355.142 308.137 356.843 298.86 350.589 295.445C343.025 291.316 333.146 297.62 329.069 311.207C325.444 323.288 324.089 338.144 336.388 337.595C342.446 337.326 347.673 332.927 349.566 329.661C350.483 328.076 350.849 325.58 350.689 324.472C350.24 321.361 348.354 320.909 345.154 324.993C344.363 325.894 338.051 331.557 334.964 328.194C332.732 325.763 334.608 320.991 334.697 320.988C338.736 320.691 345.804 319.044 351.414 312.491ZM342.364 301.943C345.76 298.742 349.008 302.571 345.082 308.082C341.118 313.641 336.477 313.499 336.439 313.675C336.915 311.5 338.66 305.437 342.364 301.943Z" fill="white"/>
<path d="M284.496 264.516C283.757 264.036 282.648 263.797 281.176 263.797H276.774V269.95H281.32C284.178 269.95 285.609 268.911 285.609 266.832C285.609 265.765 285.239 264.996 284.496 264.516Z" fill="#10CBB4"/>
<path d="M286.848 235.879C273.547 236.497 262.686 247.273 261.871 260.68C261.32 269.757 265.305 277.915 271.75 283.088C272.414 283.619 272.801 284.424 272.801 285.28V291.125C272.801 291.574 273.051 291.989 273.444 292.196L273.605 292.282C273.985 292.482 274.44 292.448 274.786 292.196L279.76 288.581C280.41 288.108 281.231 287.942 282.012 288.128C283.963 288.598 285.996 288.847 288.088 288.847C302.597 288.847 314.358 276.983 314.358 262.347C314.358 247.3 301.923 235.178 286.848 235.879ZM289.001 270.33C288.402 271.272 287.595 271.97 286.578 272.422C285.941 272.692 285.209 272.878 284.384 272.988C283.559 273.099 282.594 273.154 281.492 273.154H275.108C274.187 273.154 273.53 272.947 273.133 272.529C272.739 272.111 272.541 271.449 272.541 270.537V254.696C272.541 253.767 272.743 253.097 273.146 252.69C273.55 252.283 274.204 252.079 275.104 252.079H281.872C282.868 252.079 283.734 252.141 284.466 252.265C285.199 252.39 285.852 252.631 286.431 252.984C286.924 253.28 287.362 253.657 287.742 254.113C288.122 254.568 288.413 255.072 288.611 255.621C288.81 256.174 288.909 256.754 288.909 257.368C288.909 259.478 287.865 261.018 285.774 261.999C288.519 262.879 289.891 264.595 289.891 267.143C289.898 268.324 289.6 269.384 289.001 270.33ZM303.864 271.162C303.34 271.932 302.57 272.519 301.546 272.916C300.526 273.313 299.284 273.513 297.819 273.513C296.422 273.513 295.224 273.299 294.228 272.868C293.232 272.436 292.493 271.897 292.02 271.252C291.545 270.606 291.309 269.957 291.309 269.304C291.309 268.873 291.459 268.503 291.764 268.196C292.068 267.889 292.452 267.737 292.917 267.737C293.325 267.737 293.64 267.837 293.859 268.037C294.078 268.238 294.286 268.521 294.485 268.887C294.885 269.588 295.361 270.109 295.916 270.454C296.47 270.799 297.23 270.972 298.189 270.972C298.969 270.972 299.606 270.796 300.105 270.447C300.605 270.099 300.852 269.698 300.852 269.246C300.852 268.555 300.591 268.051 300.075 267.737C299.558 267.419 298.705 267.119 297.518 266.832C296.179 266.497 295.087 266.145 294.249 265.776C293.407 265.406 292.736 264.919 292.233 264.315C291.73 263.711 291.476 262.969 291.476 262.088C291.476 261.301 291.709 260.559 292.175 259.861C292.64 259.16 293.328 258.605 294.235 258.187C295.142 257.769 296.238 257.562 297.518 257.562C298.524 257.562 299.431 257.669 300.232 257.879C301.036 258.09 301.704 258.373 302.241 258.729C302.779 259.084 303.186 259.475 303.467 259.906C303.747 260.338 303.888 260.759 303.888 261.17C303.888 261.619 303.737 261.988 303.439 262.278C303.142 262.565 302.714 262.71 302.163 262.71C301.762 262.71 301.423 262.596 301.143 262.365C300.862 262.133 300.54 261.788 300.181 261.329C299.886 260.945 299.541 260.638 299.14 260.41C298.74 260.179 298.199 260.065 297.514 260.065C296.813 260.065 296.227 260.217 295.762 260.517C295.296 260.818 295.063 261.194 295.063 261.646C295.063 262.057 295.235 262.396 295.577 262.661C295.919 262.924 296.378 263.141 296.96 263.314C297.538 263.487 298.336 263.697 299.352 263.946C300.557 264.243 301.543 264.598 302.31 265.009C303.073 265.42 303.655 265.907 304.049 266.47C304.442 267.029 304.641 267.671 304.641 268.389C304.648 269.463 304.387 270.392 303.864 271.162Z" fill="#10CBB4"/>
<path d="M283.093 260.434C283.668 260.234 284.106 259.851 284.411 259.285C284.647 258.881 284.767 258.432 284.767 257.935C284.767 256.871 284.39 256.163 283.64 255.815C282.891 255.466 281.744 255.29 280.207 255.29H276.774V260.738H280.649C281.703 260.735 282.518 260.635 283.093 260.434Z" fill="#10CBB4"/>
</g>
<path d="M256.676 106.305C256.676 85.1932 273.79 68.079 294.902 68.079H515.762C536.873 68.079 553.987 85.1932 553.987 106.305V163.643C553.987 184.755 536.873 201.869 515.762 201.869H368.391L321.957 239.741V201.869H294.902C273.79 201.869 256.676 184.755 256.676 163.643V106.305Z" fill="#C2FFF7"/>
<path fill-rule="evenodd" clip-rule="evenodd" d="M306.87 113.855C304.412 113.855 302.42 115.848 302.42 118.305V123.848L298.51 119.938C296.772 118.2 293.955 118.2 292.217 119.938C290.479 121.676 290.479 124.493 292.217 126.231L296.158 130.172H290.553C288.096 130.172 286.104 132.164 286.104 134.622C286.104 137.079 288.096 139.072 290.553 139.072H296.158L292.217 143.013C290.479 144.75 290.479 147.568 292.217 149.306C293.955 151.044 296.772 151.044 298.51 149.306L302.42 145.396V150.938C302.42 153.396 304.412 155.388 306.87 155.388C309.327 155.388 311.32 153.396 311.32 150.938V145.334L315.292 149.306C317.029 151.043 319.847 151.043 321.585 149.306C323.323 147.568 323.323 144.75 321.585 143.013L317.644 139.072H323.186C325.644 139.072 327.636 137.079 327.636 134.622C327.636 132.164 325.644 130.172 323.186 130.172H317.644L321.585 126.231C323.322 124.493 323.322 121.676 321.585 119.938C319.847 118.2 317.029 118.2 315.292 119.938L311.32 123.91V118.305C311.32 115.848 309.327 113.855 306.87 113.855Z" fill="#10CBB4"/>
<path fill-rule="evenodd" clip-rule="evenodd" d="M372.925 113.855C370.468 113.855 368.476 115.848 368.476 118.305V123.848L364.566 119.938C362.828 118.2 360.01 118.2 358.273 119.938C356.535 121.676 356.535 124.493 358.273 126.231L362.213 130.172H356.609C354.152 130.172 352.159 132.164 352.159 134.622C352.159 137.079 354.152 139.072 356.609 139.072H362.214L358.273 143.013C356.535 144.75 356.535 147.568 358.273 149.306C360.01 151.044 362.828 151.044 364.566 149.306L368.476 145.396V150.938C368.476 153.396 370.468 155.388 372.925 155.388C375.383 155.388 377.375 153.396 377.375 150.938V145.334L381.347 149.306C383.085 151.043 385.903 151.043 387.64 149.306C389.378 147.568 389.378 144.75 387.64 143.013L383.699 139.072H389.242C391.699 139.072 393.692 137.079 393.692 134.622C393.692 132.164 391.699 130.172 389.242 130.172H383.7L387.64 126.231C389.378 124.493 389.378 121.676 387.64 119.938C385.903 118.2 383.085 118.2 381.347 119.938L377.375 123.91V118.305C377.375 115.848 375.383 113.855 372.925 113.855Z" fill="#10CBB4"/>
<path fill-rule="evenodd" clip-rule="evenodd" d="M438.981 113.855C436.523 113.855 434.531 115.848 434.531 118.305V123.848L430.621 119.938C428.883 118.2 426.066 118.2 424.328 119.938C422.59 121.676 422.59 124.493 424.328 126.231L428.269 130.172H422.665C420.207 130.172 418.215 132.164 418.215 134.622C418.215 137.079 420.207 139.072 422.665 139.072H428.269L424.328 143.013C422.59 144.75 422.59 147.568 424.328 149.306C426.066 151.044 428.883 151.044 430.621 149.306L434.531 145.396V150.938C434.531 153.396 436.523 155.388 438.981 155.388C441.439 155.388 443.431 153.396 443.431 150.938V145.334L447.403 149.306C449.141 151.043 451.958 151.043 453.696 149.306C455.434 147.568 455.434 144.75 453.696 143.013L449.755 139.072H455.297C457.755 139.072 459.747 137.079 459.747 134.622C459.747 132.164 457.755 130.172 455.297 130.172H449.755L453.696 126.231C455.434 124.493 455.434 121.676 453.696 119.938C451.958 118.2 449.141 118.2 447.403 119.938L443.431 123.91V118.305C443.431 115.848 441.439 113.855 438.981 113.855Z" fill="#10CBB4"/>
<path fill-rule="evenodd" clip-rule="evenodd" d="M505.037 113.855C502.579 113.855 500.587 115.848 500.587 118.305V123.848L496.677 119.938C494.939 118.2 492.122 118.2 490.384 119.938C488.646 121.676 488.646 124.493 490.384 126.231L494.325 130.172H488.721C486.263 130.172 484.271 132.164 484.271 134.622C484.271 137.079 486.263 139.072 488.721 139.072H494.325L490.384 143.013C488.646 144.75 488.646 147.568 490.384 149.306C492.122 151.044 494.939 151.044 496.677 149.306L500.587 145.396V150.938C500.587 153.396 502.579 155.388 505.037 155.388C507.494 155.388 509.487 153.396 509.487 150.938V145.334L513.459 149.306C515.196 151.043 518.014 151.043 519.752 149.306C521.49 147.568 521.49 144.75 519.752 143.013L515.811 139.072H521.353C523.811 139.072 525.803 137.079 525.803 134.622C525.803 132.164 523.811 130.172 521.353 130.172H515.811L519.752 126.231C521.49 124.493 521.49 121.676 519.752 119.938C518.014 118.2 515.196 118.2 513.459 119.938L509.487 123.91V118.305C509.487 115.848 507.494 113.855 505.037 113.855Z" fill="#10CBB4"/>
</g>
<defs>
<clipPath id="clip0_568_10361">
<rect width="600" height="600" fill="white"/>
</clipPath>
<clipPath id="clip1_568_10361">
<rect width="602.068" height="422.121" fill="white" transform="matrix(0.966582 0.256357 0.256357 -0.966582 -57.3425 434.424)"/>
</clipPath>
<clipPath id="clip2_568_10361">
<rect width="137.33" height="117.711" fill="white" transform="translate(0 107.316)"/>
</clipPath>
<clipPath id="clip3_568_10361">
<rect width="52.3161" height="52.3161" fill="white" transform="translate(57.2207 391.785)"/>
</clipPath>
<clipPath id="clip4_568_10361">
<rect width="29.4278" height="29.4278" fill="white" transform="translate(492.098 239.741)"/>
</clipPath>
<clipPath id="clip5_568_10361">
<rect width="65.3951" height="65.3951" fill="white" transform="translate(459.401 403.229)"/>
</clipPath>
<clipPath id="clip6_568_10361">
<rect width="213" height="454" fill="white" transform="translate(180 91)"/>
</clipPath>
</defs>
</svg>
