<svg width="28" height="28" viewBox="0 0 28 28" fill="none" xmlns="http://www.w3.org/2000/svg">
<rect width="28" height="28" rx="14" fill="#10CBB4"/>
<path d="M11.4434 9.02637V19H9.47461V11.2959L7.10938 12.0479V10.4961L11.2314 9.02637H11.4434ZM21.3828 13.1484V14.8711C21.3828 15.6185 21.3031 16.2633 21.1436 16.8057C20.984 17.3434 20.7539 17.7855 20.4531 18.1318C20.1569 18.4736 19.8037 18.7266 19.3936 18.8906C18.9834 19.0547 18.5277 19.1367 18.0264 19.1367C17.6253 19.1367 17.2516 19.0866 16.9053 18.9863C16.5589 18.8815 16.2467 18.7197 15.9688 18.501C15.6953 18.2822 15.4583 18.0065 15.2578 17.6738C15.0618 17.3366 14.9115 16.9355 14.8066 16.4707C14.7018 16.0059 14.6494 15.4727 14.6494 14.8711V13.1484C14.6494 12.401 14.7292 11.7607 14.8887 11.2275C15.0527 10.6898 15.2829 10.25 15.5791 9.9082C15.8799 9.56641 16.2354 9.31576 16.6455 9.15625C17.0557 8.99219 17.5114 8.91016 18.0127 8.91016C18.4137 8.91016 18.7852 8.96257 19.127 9.06738C19.4733 9.16764 19.7855 9.32487 20.0635 9.53906C20.3415 9.75326 20.5785 10.029 20.7744 10.3662C20.9704 10.6989 21.1208 11.0977 21.2256 11.5625C21.3304 12.0228 21.3828 12.5514 21.3828 13.1484ZM19.4072 15.1309V12.8818C19.4072 12.5218 19.3867 12.2074 19.3457 11.9385C19.3092 11.6696 19.2523 11.4417 19.1748 11.2549C19.0973 11.0635 19.0016 10.9085 18.8877 10.79C18.7738 10.6715 18.6439 10.585 18.498 10.5303C18.3522 10.4756 18.1904 10.4482 18.0127 10.4482C17.7894 10.4482 17.5911 10.4915 17.418 10.5781C17.2493 10.6647 17.1058 10.8037 16.9873 10.9951C16.8688 11.182 16.7777 11.4326 16.7139 11.7471C16.6546 12.057 16.625 12.4352 16.625 12.8818V15.1309C16.625 15.4909 16.6432 15.8076 16.6797 16.0811C16.7207 16.3545 16.7799 16.5892 16.8574 16.7852C16.9395 16.9766 17.0352 17.1338 17.1445 17.2568C17.2585 17.3753 17.3883 17.4619 17.5342 17.5166C17.6846 17.5713 17.8486 17.5986 18.0264 17.5986C18.2451 17.5986 18.4388 17.5553 18.6074 17.4688C18.7806 17.3776 18.9264 17.2363 19.0449 17.0449C19.168 16.849 19.2591 16.5938 19.3184 16.2793C19.3776 15.9648 19.4072 15.582 19.4072 15.1309Z" fill="white"/>
</svg>
