<svg width="80" height="80" viewBox="0 0 80 80" fill="none" xmlns="http://www.w3.org/2000/svg">
<path fill-rule="evenodd" clip-rule="evenodd" d="M36.1578 8.19181C38.4611 6.60073 41.5471 6.60373 43.8443 8.19482L49.4315 12.0615L56.2933 12.0584C59.1814 12.0584 61.7515 13.9017 62.6842 16.6456L64.7446 22.6767L70.0858 26.3812C72.563 28.0984 73.6127 31.2926 72.638 34.1445L70.6407 40.0045L72.638 45.8585C73.6157 48.7134 72.563 51.9076 70.0828 53.6218L64.7356 57.3293L62.6842 63.3574C61.7515 66.0983 59.1814 67.9415 56.2933 67.9415H49.4105L43.8443 71.8082C42.6927 72.6007 41.3461 73 39.9996 73C38.656 73 37.3095 72.6037 36.1638 71.8142L30.5676 67.9355L23.7089 67.9415C20.8148 67.9415 18.2446 66.0953 17.3149 63.3484L15.2576 57.3233L9.91633 53.6188C7.44213 51.9136 6.38647 48.7194 7.35816 45.8615L9.35851 39.9955L7.36115 34.1415C6.38947 31.2836 7.44213 28.0924 9.91933 26.3782L15.2666 22.6737L17.3149 16.6426C18.2446 13.9047 20.8148 12.0584 23.7089 12.0584H30.5916L36.1578 8.19181Z" fill="#BD77C7"/>
<path fill-rule="evenodd" clip-rule="evenodd" d="M53.9004 27.0997C55.3665 28.5659 55.3665 30.9358 53.9004 32.402L31.4018 54.9013C30.6706 55.6325 29.7106 56 28.7507 56C27.7908 56 26.8308 55.6325 26.0996 54.9013C24.6335 53.4351 24.6335 51.0652 26.0996 49.5989L48.5982 27.0997C50.0644 25.6334 52.4342 25.6334 53.9004 27.0997Z" fill="#10CBB4"/>
<path fill-rule="evenodd" clip-rule="evenodd" d="M49.5 44C52.536 44 55 46.688 55 50C55 53.312 52.536 56 49.5 56C46.464 56 44 53.312 44 50C44 46.688 46.464 44 49.5 44Z" fill="#F0CEF5"/>
<path fill-rule="evenodd" clip-rule="evenodd" d="M31 26C34.312 26 37 28.464 37 31.5C37 34.536 34.312 37 31 37C27.688 37 25 34.536 25 31.5C25 28.464 27.688 26 31 26Z" fill="#F0CEF5"/>
</svg>
