<svg width="80" height="80" viewBox="0 0 80 80" fill="none" xmlns="http://www.w3.org/2000/svg">
<path fill-rule="evenodd" clip-rule="evenodd" d="M40 16C53.2548 16 64 26.7452 64 40V60H16V40C16 26.7452 26.7452 16 40 16Z" fill="#BD77C7"/>
<path fill-rule="evenodd" clip-rule="evenodd" d="M40 4C41.1046 4 42 4.89543 42 6V10C42 11.1046 41.1046 12 40 12C38.8954 12 38 11.1046 38 10V6C38 4.89543 38.8954 4 40 4Z" fill="#10CBB4"/>
<path fill-rule="evenodd" clip-rule="evenodd" d="M76 36C76 37.1046 75.1046 38 74 38H70C68.8954 38 68 37.1046 68 36C68 34.8954 68.8954 34 70 34H74C75.1046 34 76 34.8954 76 36Z" fill="#10CBB4"/>
<path fill-rule="evenodd" clip-rule="evenodd" d="M68.8286 11.1716C69.6096 11.9527 69.6096 13.219 68.8286 14L66.0001 16.8285C65.2191 17.6095 63.9528 17.6095 63.1717 16.8285C62.3907 16.0474 62.3907 14.7811 63.1717 14L66.0001 11.1716C66.7812 10.3906 68.0475 10.3906 68.8286 11.1716Z" fill="#10CBB4"/>
<path fill-rule="evenodd" clip-rule="evenodd" d="M12 36C12 37.1046 11.1046 38 10 38H6C4.89543 38 4 37.1046 4 36C4 34.8954 4.89543 34 6 34H10C11.1046 34 12 34.8954 12 36Z" fill="#10CBB4"/>
<path fill-rule="evenodd" clip-rule="evenodd" d="M17.0713 17.071C16.2902 17.8521 15.0239 17.8521 14.2428 17.071L11.4144 14.2426C10.6334 13.4615 10.6334 12.1952 11.4144 11.4142C12.1954 10.6331 13.4618 10.6331 14.2428 11.4142L17.0713 14.2426C17.8523 15.0236 17.8523 16.29 17.0713 17.071Z" fill="#10CBB4"/>
<path fill-rule="evenodd" clip-rule="evenodd" d="M40.0002 45.6667C41.6571 45.6667 43.0002 44.3235 43.0002 42.6667L43.0002 30C43.0002 28.3431 41.6571 27 40.0002 27C38.3434 27 37.0002 28.3431 37.0002 30V42.6667C37.0002 44.3235 38.3434 45.6667 40.0002 45.6667ZM37.0002 51.1666C37.0002 49.5098 38.3434 48.1666 40.0002 48.1666C41.6571 48.1666 43.0002 49.5098 43.0002 51.1666C43.0002 52.8235 41.6571 54.1666 40.0002 54.1666C38.3434 54.1666 37.0002 52.8235 37.0002 51.1666Z" fill="#F0CEF5"/>
<path d="M10 64C10 61.7909 11.7909 60 14 60H66C68.2091 60 70 61.7909 70 64V73H10V64Z" fill="#F0CEF5"/>
<rect width="60" height="3" transform="matrix(1 0 0 -1 10 76)" fill="#742384"/>
</svg>
