<svg width="600" height="600" viewBox="0 0 600 600" fill="none" xmlns="http://www.w3.org/2000/svg">
<path d="M600 248.025C600 384.05 502.649 520.417 300 520.417C134.315 520.417 0 410.147 0 274.122C0 198.332 31.1881 106.12 111.386 83.2844C191.584 60.4491 199.187 136.334 285.326 136.334C371.465 136.334 423.913 87.51 510.326 108.667C575.543 124.635 600 182.76 600 248.025Z" fill="#F6E1F9"/>
<mask id="mask0_12797_9340" style="mask-type:alpha" maskUnits="userSpaceOnUse" x="0" y="79" width="600" height="442">
<path d="M600 248.025C600 384.05 502.649 520.417 300 520.417C134.315 520.417 0 410.147 0 274.122C0 198.332 31.1881 106.12 111.386 83.2844C191.584 60.4491 199.187 136.334 285.326 136.334C371.465 136.334 423.913 87.5101 510.326 108.667C575.543 124.635 600 182.76 600 248.025Z" fill="#F6E1F9"/>
</mask>
<g mask="url(#mask0_12797_9340)">
<path d="M669.167 372.106C679.143 373.985 689.169 375.6 699.245 376.95C751.419 383.967 804.375 383.83 856.595 376.547C881.132 373.12 898.246 350.481 894.836 325.947C891.427 301.414 868.767 284.314 844.233 287.724C800.073 293.879 755.317 293.991 711.205 288.073C662.625 281.55 615.391 267.78 570.78 247.167C548.3 236.764 521.647 246.582 511.262 269.064C500.876 291.547 510.676 318.197 533.159 328.583C576.646 348.674 622.281 363.275 669.167 372.106Z" fill="#DCAC82"/>
<path d="M543.679 331.935C519.343 327.351 503.33 303.906 507.914 279.569C512.498 255.232 535.943 239.219 560.28 243.804C584.617 248.388 600.629 271.833 596.045 296.169C591.461 320.506 568.016 336.519 543.679 331.935Z" fill="#DCAC82"/>
<path d="M493.794 231.279L560.28 243.802L543.676 331.951L477.19 319.428L493.794 231.279Z" fill="#DCAC82"/>
<path d="M533.281 281.426C541.631 287.379 556.483 288.839 561.151 288.501L546.577 261.116L495.128 251.425L487.824 290.203L521.314 296.511C526.181 297.428 530.87 294.227 531.787 289.359L533.281 281.426Z" fill="#BE906A"/>
<path d="M477.454 228.203L506.89 233.747C512.974 234.893 516.977 240.754 515.831 246.839C514.685 252.923 508.824 256.926 502.74 255.78L473.304 250.235C467.22 249.089 463.217 243.228 464.363 237.144C465.509 231.06 471.37 227.057 477.454 228.203Z" fill="#DCAC82"/>
<path d="M473.304 250.235L502.74 255.78C508.824 256.926 512.827 262.787 511.681 268.871C510.535 274.955 504.674 278.958 498.59 277.812L469.154 272.268C463.07 271.122 459.067 265.261 460.213 259.176C461.359 253.092 467.22 249.089 473.304 250.235Z" fill="#DCAC82"/>
<path d="M469.154 272.268L498.59 277.812C504.674 278.958 508.677 284.819 507.531 290.904C506.385 296.988 500.524 300.991 494.44 299.845L465.004 294.3C458.92 293.154 454.917 287.293 456.063 281.209C457.209 275.125 463.07 271.122 469.154 272.268Z" fill="#DCAC82"/>
<path d="M465.001 294.317L494.436 299.861C500.521 301.007 504.524 306.869 503.378 312.953C502.232 319.037 496.371 323.04 490.286 321.894L460.851 316.35C454.766 315.204 450.763 309.342 451.909 303.258C453.055 297.174 458.917 293.171 465.001 294.317Z" fill="#DCAC82"/>
<path fill-rule="evenodd" clip-rule="evenodd" d="M506.707 234.625C512.301 235.679 515.986 241.075 514.933 246.669C513.879 252.263 508.483 255.949 502.888 254.895L472.043 249.085C471.556 248.993 471.087 249.313 470.995 249.8C470.904 250.287 471.224 250.756 471.711 250.847L502.556 256.658C509.124 257.895 515.458 253.569 516.695 247.001C517.932 240.433 513.606 234.099 507.039 232.862C506.552 232.771 506.083 233.091 505.991 233.578C505.9 234.064 506.22 234.533 506.707 234.625Z" fill="#9F7554"/>
<path fill-rule="evenodd" clip-rule="evenodd" d="M502.556 256.658C508.151 257.712 511.836 263.108 510.782 268.702C509.729 274.296 504.333 277.982 498.738 276.928L467.892 271.118C467.406 271.026 466.937 271.346 466.845 271.833C466.753 272.32 467.074 272.789 467.56 272.88L498.406 278.691C504.974 279.928 511.308 275.602 512.545 269.034C513.782 262.466 509.456 256.132 502.888 254.895C502.402 254.803 501.933 255.124 501.841 255.61C501.749 256.097 502.07 256.566 502.556 256.658Z" fill="#9F7554"/>
<path fill-rule="evenodd" clip-rule="evenodd" d="M498.403 278.707C503.997 279.761 507.683 285.157 506.629 290.751C505.575 296.346 500.179 300.031 494.585 298.977L463.739 293.167C463.252 293.075 462.784 293.396 462.692 293.882C462.6 294.369 462.92 294.838 463.407 294.93L494.253 300.74C500.821 301.977 507.155 297.651 508.392 291.083C509.629 284.515 505.303 278.182 498.735 276.944C498.248 276.853 497.779 277.173 497.688 277.66C497.596 278.147 497.916 278.615 498.403 278.707Z" fill="#9F7554"/>
<path fill-rule="evenodd" clip-rule="evenodd" d="M494.271 300.744C499.865 301.798 503.55 307.194 502.497 312.789C501.443 318.383 496.047 322.068 490.452 321.015C489.966 320.923 489.497 321.243 489.405 321.73C489.313 322.217 489.634 322.686 490.12 322.777C496.688 324.014 503.022 319.688 504.259 313.121C505.496 306.553 501.17 300.219 494.603 298.982C494.116 298.89 493.647 299.21 493.555 299.697C493.464 300.184 493.784 300.653 494.271 300.744Z" fill="#9F7554"/>
<g clip-path="url(#clip0_12797_9340)">
<path d="M539.691 192.289L394.582 164.956C391.82 164.435 389.161 166.242 388.644 168.99L372.258 255.982C371.74 258.73 373.559 261.38 376.321 261.9L521.431 289.233C524.192 289.753 526.851 287.947 527.369 285.199L543.754 198.206C544.272 195.458 542.453 192.809 539.691 192.289Z" fill="#10CBB4"/>
<path d="M516.195 256.944L489.869 251.986C489.524 251.921 489.192 252.146 489.127 252.49L486.258 267.72C486.194 268.064 486.421 268.395 486.766 268.46L513.091 273.419C513.437 273.484 513.769 273.258 513.834 272.914L516.702 257.684C516.767 257.34 516.54 257.009 516.195 256.944Z" fill="white"/>
<path d="M411.818 201.179L395.852 198.172C395.507 198.107 395.174 198.332 395.11 198.676L393.406 207.722C393.341 208.065 393.568 208.396 393.914 208.461L409.88 211.469C410.225 211.534 410.558 211.308 410.622 210.965L412.326 201.919C412.391 201.575 412.164 201.244 411.818 201.179Z" fill="#F4C12A"/>
<path d="M405.096 240.403L389.254 237.419C388.475 237.272 387.726 237.778 387.581 238.548C387.436 239.319 387.95 240.062 388.729 240.209L404.57 243.193C405.35 243.34 406.099 242.834 406.244 242.064C406.389 241.293 405.875 240.55 405.096 240.403Z" fill="#008C7B"/>
<path d="M430.224 245.136L414.383 242.152C413.604 242.005 412.854 242.511 412.709 243.281C412.564 244.052 413.078 244.795 413.857 244.942L429.699 247.926C430.478 248.073 431.227 247.567 431.372 246.797C431.518 246.026 431.004 245.283 430.224 245.136Z" fill="#008C7B"/>
<path d="M455.353 249.869L439.511 246.885C438.732 246.739 437.983 247.244 437.838 248.015C437.693 248.785 438.207 249.529 438.986 249.676L454.827 252.659C455.607 252.806 456.356 252.301 456.501 251.53C456.646 250.76 456.132 250.016 455.353 249.869Z" fill="#008C7B"/>
<path d="M463.7 261.416L387.44 247.051C386.661 246.904 385.911 247.41 385.766 248.18C385.621 248.951 386.135 249.695 386.914 249.841L463.175 264.206C463.954 264.353 464.704 263.847 464.849 263.076C464.994 262.306 464.48 261.562 463.7 261.416Z" fill="#008C7B"/>
<path d="M512.712 229.682C512.515 229.645 512.311 229.551 512.156 229.393C511.716 228.979 511.7 228.277 512.115 227.84C514.649 225.189 516.344 221.883 517.024 218.275C517.703 214.668 517.327 210.971 515.932 207.58C515.704 207.022 515.971 206.391 516.534 206.148C517.095 205.922 517.729 206.189 517.974 206.75C519.538 210.523 519.945 214.648 519.185 218.682C518.425 222.716 516.531 226.39 513.716 229.356C513.442 229.635 513.069 229.749 512.712 229.682Z" fill="white"/>
<path d="M509.212 226.17C509.016 226.133 508.812 226.04 508.657 225.882C508.217 225.468 508.201 224.765 508.634 224.332C510.493 222.418 511.739 220.022 512.238 217.374C512.737 214.726 512.447 212.04 511.413 209.581C511.185 209.023 511.434 208.389 511.997 208.146C512.558 207.92 513.195 208.169 513.441 208.73C514.641 211.588 514.978 214.706 514.402 217.763C513.827 220.82 512.378 223.602 510.22 225.827C509.946 226.106 509.576 226.202 509.219 226.135L509.212 226.17Z" fill="white"/>
<path d="M505.502 223.19C505.287 223.15 505.101 223.059 504.928 222.898C504.492 222.466 504.49 221.785 504.923 221.351C506.247 220.018 507.136 218.345 507.487 216.479C507.839 214.613 507.62 212.732 506.872 211.008C506.626 210.447 506.875 209.813 507.439 209.569C508.002 209.326 508.64 209.575 508.885 210.136C509.816 212.262 510.08 214.594 509.648 216.886C509.216 219.179 508.126 221.237 506.482 222.896C506.211 223.158 505.841 223.254 505.502 223.19Z" fill="white"/>
<path d="M501.895 219.953C501.663 219.909 501.462 219.798 501.292 219.618C500.877 219.172 500.915 218.48 501.362 218.067C502.099 217.396 502.573 216.547 502.754 215.588C502.935 214.628 502.805 213.647 502.36 212.771C502.093 212.224 502.328 211.569 502.859 211.301C503.408 211.037 504.067 211.271 504.337 211.8C504.976 213.117 505.186 214.555 504.915 215.995C504.644 217.434 503.947 218.683 502.854 219.673C502.586 219.917 502.238 219.999 501.898 219.935L501.895 219.953Z" fill="white"/>
</g>
<path d="M551.98 287.869L596.063 296.173C598.478 281.607 596.004 270.518 594.193 264.629C588.613 246.385 574.372 231.583 558.761 221.251C551.134 216.2 549.283 216.527 537.822 208.966C531.099 204.542 525.38 200.216 520.694 196.413C516.118 192.704 509.501 193.045 505.326 197.187C500.862 201.602 500.725 208.822 505.117 213.318C507.626 215.89 510.466 218.542 513.676 221.172C519.132 225.631 524.387 229.031 528.996 231.596C528.278 233.761 520.555 258.095 535.338 276.029C540.837 282.686 547.492 286.111 551.98 287.869Z" fill="#DCAC82"/>
<path d="M-22.0013 474.522C-31.6385 477.713 -41.3604 480.649 -51.1668 483.329C-101.941 497.233 -154.443 504.15 -207.169 503.887C-231.943 503.758 -251.92 483.6 -251.808 458.831C-251.696 434.062 -231.516 414.097 -206.747 414.209C-162.16 414.428 -117.788 408.577 -74.8569 396.837C-27.5784 383.902 17.3998 363.964 58.8686 337.592C79.762 324.288 107.485 330.468 120.773 351.367C134.061 372.266 127.897 399.984 106.998 413.272C66.574 438.976 23.2905 459.525 -22.0013 474.522Z" fill="#815C41"/>
<path d="M97.0174 417.993C120.527 410.209 133.274 384.84 125.489 361.331C117.705 337.821 92.336 325.074 68.8267 332.859C45.3174 340.643 32.57 366.012 40.3546 389.521C48.1392 413.031 73.508 425.778 97.0174 417.993Z" fill="#815C41"/>
<path d="M133.053 311.592L68.8269 332.859L97.0232 418.011L161.249 396.743L133.053 311.592Z" fill="#815C41"/>
<path d="M100.596 366.551C93.1138 373.563 78.5879 376.988 73.9169 377.275L84.713 348.193L134.413 331.736L146.817 369.195L114.466 379.908C109.764 381.465 104.691 378.916 103.134 374.215L100.596 366.551Z" fill="#624029"/>
<path d="M148.836 306.365L120.401 315.781C114.524 317.727 111.337 324.069 113.283 329.947C115.23 335.824 121.572 339.011 127.449 337.065L155.884 327.649C161.761 325.703 164.948 319.361 163.002 313.483C161.056 307.606 154.714 304.419 148.836 306.365Z" fill="#815C41"/>
<path d="M155.884 327.649L127.449 337.065C121.572 339.011 118.385 345.353 120.331 351.23C122.277 357.108 128.619 360.294 134.497 358.348L162.932 348.933C168.809 346.986 171.996 340.644 170.05 334.767C168.104 328.89 161.761 325.703 155.884 327.649Z" fill="#815C41"/>
<path d="M162.932 348.934L134.497 358.349C128.62 360.295 125.433 366.638 127.379 372.515C129.325 378.392 135.667 381.579 141.545 379.633L169.98 370.217C175.857 368.271 179.044 361.929 177.098 356.052C175.151 350.174 168.809 346.987 162.932 348.934Z" fill="#815C41"/>
<path d="M169.985 370.233L141.55 379.649C135.672 381.595 132.486 387.937 134.432 393.814C136.378 399.692 142.72 402.879 148.597 400.932L177.033 391.517C182.91 389.571 186.097 383.228 184.151 377.351C182.204 371.474 175.862 368.287 169.985 370.233Z" fill="#815C41"/>
<path fill-rule="evenodd" clip-rule="evenodd" d="M120.7 316.627C115.296 318.416 112.362 324.255 114.152 329.659C115.941 335.063 121.78 337.997 127.184 336.208L156.981 326.341C157.452 326.186 157.959 326.44 158.115 326.911C158.27 327.381 158.015 327.888 157.545 328.044L127.748 337.911C121.404 340.011 114.55 336.568 112.449 330.223C110.348 323.879 113.792 317.025 120.137 314.924C120.607 314.769 121.114 315.023 121.27 315.494C121.425 315.964 121.171 316.471 120.7 316.627Z" fill="#624029"/>
<path fill-rule="evenodd" clip-rule="evenodd" d="M127.748 337.911C122.344 339.7 119.41 345.539 121.2 350.943C122.989 356.347 128.828 359.281 134.232 357.492L164.029 347.625C164.499 347.469 165.007 347.724 165.162 348.194C165.318 348.665 165.063 349.172 164.593 349.328L134.796 359.194C128.451 361.295 121.598 357.851 119.497 351.507C117.396 345.162 120.84 338.309 127.184 336.208C127.655 336.052 128.162 336.307 128.318 336.777C128.473 337.248 128.218 337.755 127.748 337.911Z" fill="#624029"/>
<path fill-rule="evenodd" clip-rule="evenodd" d="M134.801 359.21C129.397 361 126.463 366.839 128.253 372.243C130.042 377.647 135.881 380.581 141.285 378.791L171.082 368.925C171.552 368.769 172.06 369.024 172.215 369.494C172.371 369.964 172.116 370.472 171.646 370.627L141.849 380.494C135.504 382.595 128.651 379.151 126.55 372.807C124.449 366.462 127.893 359.609 134.237 357.508C134.708 357.352 135.215 357.607 135.371 358.077C135.526 358.547 135.271 359.055 134.801 359.21Z" fill="#624029"/>
<path fill-rule="evenodd" clip-rule="evenodd" d="M141.832 380.5C136.428 382.29 133.494 388.129 135.283 393.533C137.073 398.937 142.912 401.871 148.316 400.081C148.786 399.926 149.293 400.181 149.449 400.651C149.605 401.121 149.35 401.628 148.88 401.784C142.535 403.885 135.681 400.441 133.581 394.097C131.48 387.752 134.924 380.899 141.268 378.798C141.738 378.642 142.246 378.897 142.401 379.367C142.557 379.837 142.302 380.345 141.832 380.5Z" fill="#624029"/>
<g clip-path="url(#clip1_12797_9340)">
<path d="M222.547 232.643L82.371 279.06C79.7031 279.943 78.2529 282.811 79.132 285.466L106.958 369.501C107.837 372.155 110.713 373.591 113.381 372.708L253.557 326.292C256.225 325.408 257.675 322.54 256.796 319.885L228.969 235.85C228.09 233.196 225.215 231.76 222.547 232.643Z" fill="#003E75"/>
<path d="M233.329 300.586L207.899 309.007C207.565 309.117 207.384 309.476 207.494 309.807L212.365 324.52C212.475 324.852 212.835 325.031 213.168 324.921L238.598 316.5C238.932 316.39 239.113 316.031 239.003 315.699L234.131 300.987C234.022 300.655 233.662 300.476 233.329 300.586Z" fill="white"/>
<path d="M115.003 302.391L99.5794 307.499C99.2459 307.609 99.0647 307.968 99.1746 308.299L102.068 317.038C102.178 317.369 102.537 317.549 102.871 317.438L118.295 312.331C118.628 312.221 118.809 311.862 118.699 311.53L115.806 302.792C115.696 302.46 115.337 302.281 115.003 302.391Z" fill="#F4C12A"/>
<path d="M128.132 339.959L112.829 345.026C112.077 345.275 111.666 346.081 111.913 346.825C112.159 347.569 112.969 347.971 113.722 347.722L129.025 342.654C129.777 342.405 130.188 341.6 129.941 340.855C129.695 340.111 128.885 339.71 128.132 339.959Z" fill="#1172C9"/>
<path d="M152.406 331.921L137.103 336.988C136.351 337.238 135.94 338.043 136.187 338.787C136.433 339.532 137.243 339.933 137.996 339.684L153.299 334.616C154.052 334.367 154.462 333.562 154.216 332.817C153.969 332.073 153.159 331.672 152.406 331.921Z" fill="#1172C9"/>
<path d="M176.68 323.883L161.378 328.951C160.625 329.2 160.214 330.005 160.461 330.749C160.707 331.494 161.517 331.895 162.27 331.646L177.573 326.579C178.326 326.329 178.736 325.524 178.49 324.78C178.243 324.035 177.433 323.634 176.68 323.883Z" fill="#1172C9"/>
<path d="M189.578 329.937L115.91 354.331C115.158 354.58 114.747 355.386 114.994 356.13C115.24 356.874 116.05 357.275 116.803 357.026L190.471 332.633C191.223 332.383 191.634 331.578 191.387 330.834C191.141 330.089 190.331 329.688 189.578 329.937Z" fill="#1172C9"/>
<path d="M217.07 278.427C216.88 278.49 216.656 278.507 216.444 278.444C215.858 278.295 215.504 277.688 215.655 277.104C216.587 273.558 216.468 269.844 215.314 266.359C214.16 262.874 212.039 259.824 209.175 257.534C208.705 257.156 208.633 256.475 209.008 255.989C209.389 255.52 210.073 255.446 210.56 255.818C213.756 258.36 216.111 261.771 217.401 265.668C218.692 269.565 218.815 273.696 217.79 277.655C217.686 278.032 217.415 278.313 217.07 278.427Z" fill="white"/>
<path d="M212.307 277.051C212.117 277.114 211.893 277.131 211.681 277.068C211.095 276.919 210.741 276.312 210.91 275.723C211.608 273.149 211.537 270.448 210.69 267.89C209.843 265.332 208.288 263.123 206.192 261.474C205.722 261.096 205.632 260.421 206.007 259.935C206.388 259.466 207.066 259.375 207.553 259.747C209.988 261.665 211.794 264.229 212.772 267.182C213.75 270.135 213.831 273.27 213.022 276.262C212.917 276.64 212.64 276.903 212.295 277.017L212.307 277.051Z" fill="white"/>
<path d="M207.617 276.242C207.41 276.311 207.203 276.322 206.973 276.265C206.382 276.099 206.051 275.503 206.22 274.914C206.731 273.106 206.698 271.213 206.101 269.41C205.504 267.607 204.401 266.068 202.911 264.923C202.424 264.551 202.335 263.875 202.71 263.389C203.085 262.903 203.763 262.812 204.25 263.184C206.095 264.592 207.455 266.504 208.188 268.719C208.922 270.933 208.965 273.262 208.331 275.51C208.221 275.871 207.944 276.134 207.617 276.242Z" fill="white"/>
<path d="M202.893 275.158C202.669 275.233 202.439 275.233 202.204 275.158C201.624 274.969 201.322 274.345 201.513 273.767C201.833 272.824 201.836 271.851 201.529 270.924C201.222 269.997 200.633 269.201 199.819 268.652C199.321 268.302 199.208 267.616 199.543 267.124C199.895 266.626 200.585 266.512 201.078 266.844C202.276 267.686 203.156 268.842 203.617 270.233C204.077 271.623 204.072 273.054 203.596 274.449C203.48 274.793 203.215 275.033 202.887 275.141L202.893 275.158Z" fill="white"/>
</g>
<path d="M82.9221 375.426L40.3377 389.526C36.004 375.412 36.9793 364.093 37.9896 358.014C41.0898 339.19 53.2323 322.623 67.3288 310.304C74.2151 304.282 76.0924 304.36 86.4445 295.339C92.5183 290.059 97.6104 285.01 101.748 280.617C105.789 276.331 112.393 275.789 117.082 279.337C122.094 283.119 123.192 290.256 119.438 295.297C117.294 298.18 114.832 301.187 112.002 304.221C107.187 309.367 102.432 313.436 98.2056 316.593C99.2055 318.642 110.101 341.732 97.8386 361.474C93.2752 368.804 87.1353 373.086 82.9221 375.426Z" fill="#815C41"/>
</g>
<g clip-path="url(#clip2_12797_9340)">
<path d="M380.927 413.107V106.023C380.927 99.126 375.295 93.5352 368.347 93.5352L231.653 93.5352C224.706 93.5352 219.074 99.126 219.074 106.023L219.074 413.107C219.074 420.003 224.706 425.594 231.653 425.594H368.347C375.295 425.594 380.927 420.003 380.927 413.107Z" fill="#403556"/>
<path d="M380.927 403.476V96.3922C380.927 89.4955 375.295 83.9047 368.347 83.9047L231.653 83.9047C224.706 83.9047 219.074 89.4955 219.074 96.3922L219.074 403.476C219.074 410.373 224.706 415.964 231.653 415.964H368.347C375.295 415.964 380.927 410.373 380.927 403.476Z" fill="#2C2044"/>
<path d="M373.069 389.736V110.132C373.069 106.71 370.275 103.936 366.828 103.936L233.141 103.936C229.694 103.936 226.9 106.71 226.9 110.132L226.9 389.736C226.9 393.158 229.694 395.932 233.141 395.932H366.828C370.275 395.932 373.069 393.158 373.069 389.736Z" fill="#742384"/>
<path d="M283.686 97.5479H316.283C318.176 97.5479 319.711 96.0244 319.711 94.1451V93.7278C319.711 91.8485 318.176 90.325 316.283 90.325H283.686C281.793 90.325 280.258 91.8485 280.258 93.7278V94.1451C280.258 96.0244 281.793 97.5479 283.686 97.5479Z" fill="#544A69"/>
</g>
<g clip-path="url(#clip3_12797_9340)">
<path fill-rule="evenodd" clip-rule="evenodd" d="M468.221 382.333C469.496 385.325 471.882 387.707 474.87 388.982C478.682 390.608 484.129 392.935 488.474 394.789C491.129 395.923 491.124 399.68 488.474 400.814L474.87 406.62C471.878 407.895 469.496 410.277 468.221 413.269C466.595 417.081 464.268 422.528 462.414 426.873C461.28 429.528 457.523 429.528 456.389 426.873C454.535 422.528 452.208 417.081 450.582 413.269C449.307 410.277 446.92 407.895 443.933 406.62C440.121 404.994 434.674 402.667 430.329 400.814C427.674 399.68 427.674 395.923 430.329 394.789C434.674 392.935 440.121 390.608 443.933 388.982C446.925 387.707 449.307 385.321 450.582 382.333C452.208 378.521 454.535 373.074 456.389 368.73C457.523 366.075 461.28 366.075 462.414 368.73C464.268 373.074 466.595 378.521 468.221 382.333Z" fill="#E3B2EB"/>
</g>
<g clip-path="url(#clip4_12797_9340)">
<path fill-rule="evenodd" clip-rule="evenodd" d="M146.987 125.335C148.496 128.892 151.319 131.724 154.852 133.24C159.361 135.173 165.804 137.94 170.943 140.144C174.084 141.492 174.079 145.959 170.943 147.308L154.852 154.212C151.313 155.728 148.496 158.56 146.987 162.117C145.064 166.649 142.312 173.125 140.119 178.291C138.778 181.448 134.333 181.448 132.992 178.291C130.799 173.125 128.047 166.649 126.124 162.117C124.615 158.56 121.792 155.728 118.258 154.212C113.75 152.278 107.307 149.512 102.167 147.308C99.0269 145.959 99.0269 141.492 102.167 140.144C107.307 137.94 113.75 135.173 118.258 133.24C121.798 131.724 124.615 128.887 126.124 125.335C128.047 120.802 130.799 114.326 132.992 109.161C134.333 106.004 138.778 106.004 140.119 109.161C142.312 114.326 145.064 120.802 146.987 125.335Z" fill="#E3B2EB"/>
<path fill-rule="evenodd" clip-rule="evenodd" d="M61.7728 197.288C62.3366 198.617 63.3915 199.676 64.7123 200.242C66.3974 200.965 68.8054 201.999 70.7261 202.823C71.8999 203.327 71.8978 204.996 70.7261 205.5L64.7123 208.08C63.3895 208.647 62.3366 209.705 61.7728 211.035C61.0541 212.729 60.0253 215.149 59.2058 217.08C58.7045 218.259 57.0435 218.259 56.5422 217.08C55.7228 215.149 54.694 212.729 53.9752 211.035C53.4115 209.705 52.3565 208.647 51.0357 208.08C49.3506 207.358 46.9426 206.324 45.0219 205.5C43.8482 204.996 43.8482 203.327 45.0219 202.823C46.9426 201.999 49.3506 200.965 51.0357 200.242C52.3585 199.676 53.4115 198.615 53.9752 197.288C54.694 195.594 55.7228 193.174 56.5422 191.243C57.0435 190.063 58.7045 190.063 59.2058 191.243C60.0253 193.174 61.0541 195.594 61.7728 197.288Z" fill="#E3B2EB"/>
</g>
<path fill-rule="evenodd" clip-rule="evenodd" d="M321.677 206.035L312.814 222.442C312.449 223.114 311.616 223.36 310.954 222.993C310.291 222.631 310.044 221.791 310.409 221.119L319.272 204.708C319.637 204.04 320.47 203.793 321.132 204.157C321.795 204.522 322.039 205.363 321.677 206.035ZM302.729 223.418C297.611 223.418 296.203 220.024 295.842 218.329C295.688 217.661 295.684 217.191 295.684 216.965C295.684 216.165 296.327 215.516 297.116 215.516C297.856 215.516 298.457 216.081 298.538 216.8C298.538 216.807 298.544 216.81 298.544 216.816C298.551 216.86 298.558 216.938 298.565 217.042C298.574 217.123 298.588 217.205 298.588 217.292C298.588 217.35 298.592 217.407 298.594 217.469C298.608 217.586 298.622 217.714 298.644 217.846C298.698 218.127 298.792 218.44 298.949 218.758C298.969 218.788 298.982 218.819 298.999 218.849C299.484 219.76 300.481 220.655 302.408 220.757C305.308 220.841 306.164 219.862 306.174 218.646C306.064 217.239 305.98 216.225 302.631 214.844C298.715 213.23 296.216 212.254 296.216 208.875C296.216 205.498 299.324 204.103 302.17 204.103C302.886 204.103 303.508 204.188 304.063 204.323C305.174 204.545 306.404 205.005 307.324 205.917V205.91C307.559 206.119 307.806 206.427 308.024 206.797C308.047 206.836 308.07 206.872 308.091 206.909C308.147 207.011 308.201 207.119 308.254 207.23C308.271 207.267 308.288 207.301 308.305 207.338C308.586 207.966 308.786 208.709 308.786 209.469C308.786 209.604 308.803 209.83 308.756 210.083C308.753 210.106 308.746 210.127 308.743 210.151C308.73 210.208 308.709 210.266 308.686 210.327C308.676 210.354 308.669 210.377 308.656 210.401C308.649 210.421 308.639 210.441 308.626 210.466C308.388 210.937 307.91 211.265 307.348 211.265C306.853 211.265 306.425 211.012 306.167 210.63C306.148 210.596 306.127 210.563 306.11 210.528C306.07 210.462 306.037 210.387 306.01 210.312C306.007 210.304 306 210.293 306 210.283C305.987 210.246 305.974 210.205 305.967 210.168C305.899 209.939 305.87 209.692 305.87 209.486C305.87 209.442 305.866 209.401 305.863 209.357C305.863 209.289 305.859 209.229 305.853 209.165C305.81 208.807 305.705 208.524 305.579 208.294C305.565 208.27 305.552 208.247 305.539 208.223C305.512 208.183 305.488 208.146 305.462 208.104C304.746 207.065 303.217 206.537 302.1 206.537C300.595 206.537 298.979 207.372 298.979 208.905C298.979 210.435 300.428 211.353 302.882 212.17C307.679 213.943 308.669 215.378 309.101 217.127C309.576 219.042 308.753 223.418 302.729 223.418ZM329.474 207.396C326.819 195.368 314.823 187.828 302.689 190.559C290.551 193.295 282.867 205.261 285.526 217.289C286.402 221.264 288.299 224.748 290.888 227.534C292.216 228.969 289.255 236.883 290.901 237.917C292.256 238.768 298.176 232.805 299.688 233.352C303.592 234.76 307.943 235.107 312.312 234.125C324.447 231.393 332.133 219.427 329.474 207.396Z" fill="#10CBB4"/>
<path fill-rule="evenodd" clip-rule="evenodd" d="M343.108 246.396C342.535 246.537 342.06 246.928 341.645 247.342C339.677 249.323 338.09 253.106 337.809 254.627C337.816 254.58 337.878 254.57 338.026 254.546C338.269 254.506 338.744 254.429 339.593 254.085C340.088 253.881 340.553 253.655 341.005 253.369C341.99 252.748 342.91 252.005 343.613 251.081C344.356 250.106 345.025 248.65 344.788 247.402C344.637 246.589 343.934 246.191 343.108 246.396ZM345.346 262.323C345.864 261.67 346.618 260.72 347.355 260.957C347.984 261.158 348.395 262.212 348.636 262.827C348.666 262.903 348.693 262.973 348.717 263.033C348.717 263.033 349.357 264.568 348.898 265.495C348.439 266.422 345.149 269.343 344.393 269.927C343.643 270.509 340.942 272.185 338.562 272.77C336.671 273.233 334.499 273.03 332.902 271.86C331.878 271.114 331.158 270.019 330.723 268.843C330.284 267.669 330.117 266.418 330.04 265.169C329.742 260.052 331.127 254.535 333.608 250.027C335.787 246.057 336.665 244.919 339.278 242.748C341.226 241.125 343.369 240.737 345.876 241.157C346.589 241.276 347.282 241.539 347.87 241.95C351.851 244.713 349.424 250.519 347.272 253.697C345.712 255.998 343.449 257.67 340.878 258.748C340.014 259.113 338.378 259.751 336.801 259.787C336.738 259.789 336.108 261.413 335.971 262.369C335.814 263.474 335.911 265.192 336.694 265.915C338.542 267.634 341.789 265.517 343.228 264.318C343.36 264.208 343.493 264.099 343.626 263.991C344.15 263.563 344.676 263.135 345.106 262.619C345.178 262.533 345.259 262.432 345.346 262.323ZM324.347 254.228C324.168 256.683 323.57 259.058 322.757 261.37C322.067 263.332 321.318 265.381 319.856 266.878C318.576 268.195 315.871 269.063 314.389 267.425C314.389 267.425 315.091 263.585 316.131 259.705C317.114 256.034 318.323 251.708 320.862 249.88C324.006 247.607 324.512 251.984 324.347 254.228ZM328.24 244.61C326.68 242.478 323.438 242.774 321.703 243.72C319.96 244.666 318.086 247.301 317.762 248.087L318.097 245.756C318.097 245.756 318.579 244.963 316.597 244.49C314.619 244.017 313.589 243.883 313.143 245.489C312.908 246.337 310.714 257.651 308.695 268.143C308.225 268.542 307.592 268.929 306.756 269.176C304.365 269.885 306.837 260.299 306.837 260.299C306.837 260.299 308.895 250.918 309.221 249.519C309.548 248.116 309.413 246.763 307.846 246.298C306.278 245.837 304.732 245.751 304.264 247.22L303.796 248.69C303.796 248.69 302.118 246.497 298.698 246.992C295.278 247.486 291.134 252.201 288.662 259.59C286.19 266.977 287.088 271.377 287.519 273.185C287.946 274.992 288.941 277.419 292.428 277.932C295.917 278.45 298.496 275.917 299.835 272.624C299.835 272.624 299.899 275.386 302.29 276.173C303.876 276.692 305.88 275.84 307.4 274.883C306.985 277.046 306.603 279.04 306.279 280.733C298.679 281.837 289.587 283.212 287.355 283.688C286.592 283.85 285.561 284.036 284.354 284.254C282.876 284.521 281.135 284.835 279.297 285.211L279.302 285.198C279.304 285.192 279.306 285.186 279.308 285.178C279.308 285.178 288.286 252.956 288.525 252.046C288.542 251.981 288.561 251.906 288.583 251.824L288.584 251.821L288.585 251.819C288.866 250.767 289.47 248.506 288.525 248.176C287.505 247.823 285.97 247.979 284.519 248.849C283.065 249.719 282.084 250.98 281.663 252.289C281.542 252.664 281.348 253.273 281.118 253.992C280.547 255.786 279.758 258.263 279.337 259.474C278.748 261.174 276.766 266.835 275.332 269.035C273.761 271.446 271.759 273.183 270.268 272.116C269.102 271.283 269.679 268.639 270.03 267.099C270.299 265.933 270.95 263.841 271.453 262.224C271.615 261.704 271.762 261.233 271.875 260.857C271.948 260.622 272.026 260.374 272.107 260.119C272.552 258.71 273.073 257.058 273.174 255.72C273.29 254.143 272.035 252.72 270.878 252.49C269.725 252.257 268.503 252.046 268.029 252.956C267.733 253.525 267.745 254.277 267.757 255.08C267.765 255.561 267.772 256.061 267.714 256.55C267.608 257.427 267.267 258.274 266.931 259.107C266.816 259.392 266.702 259.675 266.598 259.958C266.147 261.192 265.703 262.434 265.292 263.685C264.683 265.538 264.136 267.418 263.722 269.326C263.318 271.183 262.927 273.156 263.102 275.063C263.235 276.543 263.801 278.044 264.931 279.001C265.866 279.79 267.124 280.147 268.34 280.067C270.415 279.931 272.326 278.537 273.758 277.107C273.827 277.037 273.9 276.964 273.977 276.888L273.978 276.888C274.631 276.239 275.519 275.359 275.792 274.53C275.424 275.654 275.054 276.777 274.683 277.9C273.74 280.757 272.797 283.613 271.912 286.485C271.859 286.655 271.806 286.825 271.69 286.955C271.557 287.112 271.362 287.192 271.17 287.269C271.039 287.321 270.91 287.375 270.779 287.429L270.743 287.445C269.729 287.795 268.764 288.179 267.893 288.588C265.697 289.629 263.851 290.802 262.4 291.869C260.352 293.263 258.444 294.856 256.757 296.673C254.574 299.016 252.778 301.744 251.569 304.715C250.442 307.471 249.511 310.716 250.284 313.656C251.028 316.499 253.391 318.637 256.32 318.953C258.374 319.18 260.461 318.56 262.244 317.51C264.024 316.457 265.528 314.982 266.88 313.412C270.859 308.782 273.423 303.257 275.407 297.533C275.925 296.04 276.418 294.536 276.908 293.033C282.899 291.369 297.371 288.642 301.105 287.995C301.884 287.86 303.283 287.65 305.05 287.396C304.973 288.153 304.954 289.123 305.225 289.788C305.734 291.023 307.474 291.745 309.156 289.788C309.664 289.194 310.077 288.052 310.421 286.64C314.854 286.027 319.871 285.351 323.481 284.864L323.483 284.863C325.217 284.63 326.625 284.44 327.489 284.322C328.662 284.163 330.189 284.003 331.817 283.834C336.237 283.373 341.397 282.836 342.212 282.015C343.333 280.887 343.094 279.347 342.507 278.396C341.917 277.45 341.153 276.857 337.441 276.977C334.236 277.077 323.867 278.375 318.839 279.004L318.833 279.005L318.822 279.006C318.038 279.104 317.384 279.186 316.909 279.244C316.053 279.348 314.08 279.618 311.531 279.979C311.583 279.573 311.633 279.174 311.682 278.787L311.683 278.779C311.815 277.731 311.936 276.766 312.056 275.972C312.637 272.078 312.839 271.156 312.839 271.156C312.839 271.156 314.268 273.28 317.584 273.806C321.45 274.42 324.208 271.588 326.247 267.561C328.351 263.418 329.709 257.517 329.939 254.082C330.165 250.765 329.803 246.738 328.24 244.61ZM300.141 263.873C301.375 260.189 302.353 256.734 302.77 254.638C303.208 252.437 301.654 251.966 300.316 252.483C298.651 253.124 296.391 254.393 294.558 258.512C293.59 260.694 293.034 262.955 292.893 264.867C292.751 266.782 293.044 270.198 295.318 270.632C297.352 271.016 298.819 267.81 300.141 263.873ZM268.247 298.431C268.509 297.804 268.761 297.174 268.996 296.539C269.014 296.491 269.045 296.378 269.084 296.235C269.203 295.806 269.395 295.107 269.517 295.063C269.517 295.063 264.079 297.076 259.941 302.278C256.641 306.424 255.12 310.649 256.32 312.115C257.821 313.957 260.693 310.919 261.654 309.815C263.602 307.579 265.1 304.991 266.432 302.348C267.078 301.06 267.691 299.757 268.247 298.431Z" fill="white"/>
<path d="M299.149 310.914H294.249V308.317H299.149C300.002 308.317 300.691 308.178 301.217 307.9C301.743 307.621 302.126 307.238 302.367 306.751C302.617 306.255 302.742 305.689 302.742 305.055C302.742 304.454 302.617 303.893 302.367 303.371C302.126 302.841 301.743 302.414 301.217 302.092C300.691 301.771 300.002 301.609 299.149 301.609H295.245V318H292V299H299.149C300.605 299 301.842 299.261 302.859 299.783C303.884 300.296 304.664 301.009 305.198 301.922C305.733 302.827 306 303.863 306 305.029C306 306.255 305.733 307.307 305.198 308.187C304.664 309.066 303.884 309.739 302.859 310.209C301.842 310.679 300.605 310.914 299.149 310.914Z" fill="white"/>
<path d="M323 308.466V309.536C323 311.006 322.822 312.325 322.466 313.492C322.11 314.66 321.601 315.654 320.939 316.474C320.285 317.293 319.498 317.922 318.58 318.359C317.661 318.787 316.642 319 315.525 319C314.416 319 313.401 318.787 312.483 318.359C311.572 317.922 310.781 317.293 310.111 316.474C309.44 315.654 308.919 314.66 308.546 313.492C308.182 312.325 308 311.006 308 309.536V308.466C308 306.995 308.182 305.681 308.546 304.522C308.911 303.355 309.424 302.36 310.086 301.541C310.757 300.711 311.547 300.083 312.458 299.655C313.377 299.219 314.391 299 315.5 299C316.618 299 317.636 299.219 318.555 299.655C319.474 300.083 320.264 300.711 320.926 301.541C321.589 302.36 322.098 303.355 322.454 304.522C322.818 305.681 323 306.995 323 308.466ZM319.883 309.536V308.439C319.883 307.351 319.784 306.394 319.585 305.564C319.395 304.727 319.109 304.027 318.729 303.465C318.356 302.895 317.897 302.467 317.35 302.182C316.804 301.887 316.187 301.74 315.5 301.74C314.813 301.74 314.2 301.887 313.662 302.182C313.124 302.467 312.665 302.895 312.284 303.465C311.911 304.027 311.626 304.727 311.427 305.564C311.229 306.394 311.129 307.351 311.129 308.439V309.536C311.129 310.623 311.229 311.585 311.427 312.423C311.626 313.26 311.916 313.969 312.296 314.548C312.685 315.119 313.149 315.551 313.687 315.846C314.225 316.131 314.838 316.273 315.525 316.273C316.22 316.273 316.837 316.131 317.375 315.846C317.913 315.551 318.368 315.119 318.741 314.548C319.113 313.969 319.395 313.26 319.585 312.423C319.784 311.585 319.883 310.623 319.883 309.536Z" fill="white"/>
<path d="M336.766 313.719C336.766 313.319 336.706 312.962 336.587 312.65C336.475 312.339 336.274 312.053 335.984 311.794C335.693 311.536 335.282 311.287 334.752 311.046C334.23 310.796 333.562 310.542 332.75 310.284C331.86 309.999 331.039 309.682 330.286 309.335C329.542 308.978 328.892 308.568 328.335 308.105C327.779 307.633 327.347 307.093 327.039 306.487C326.731 305.872 326.577 305.163 326.577 304.361C326.577 303.568 326.736 302.846 327.052 302.195C327.377 301.545 327.835 300.983 328.425 300.51C329.024 300.029 329.73 299.659 330.543 299.402C331.355 299.133 332.254 299 333.237 299C334.623 299 335.817 299.268 336.818 299.802C337.827 300.337 338.601 301.055 339.14 301.955C339.688 302.855 339.962 303.849 339.962 304.936H336.766C336.766 304.295 336.634 303.729 336.368 303.238C336.112 302.739 335.718 302.347 335.188 302.062C334.666 301.777 334.003 301.634 333.199 301.634C332.438 301.634 331.805 301.754 331.3 301.995C330.795 302.235 330.419 302.561 330.171 302.971C329.922 303.381 329.798 303.844 329.798 304.361C329.798 304.727 329.88 305.061 330.042 305.364C330.205 305.658 330.453 305.934 330.786 306.193C331.12 306.443 331.539 306.679 332.044 306.901C332.549 307.124 333.143 307.338 333.828 307.543C334.863 307.864 335.765 308.22 336.535 308.613C337.305 308.996 337.947 309.433 338.46 309.922C338.973 310.413 339.358 310.97 339.615 311.594C339.872 312.209 340 312.909 340 313.693C340 314.513 339.842 315.252 339.525 315.912C339.209 316.563 338.755 317.12 338.165 317.583C337.583 318.038 336.882 318.39 336.061 318.639C335.248 318.88 334.341 319 333.34 319C332.442 319 331.556 318.876 330.684 318.626C329.82 318.377 329.033 317.997 328.323 317.49C327.613 316.973 327.048 316.332 326.629 315.565C326.21 314.789 326 313.884 326 312.851H329.221C329.221 313.483 329.324 314.023 329.529 314.469C329.743 314.914 330.038 315.28 330.414 315.565C330.791 315.841 331.227 316.046 331.723 316.18C332.228 316.313 332.767 316.381 333.34 316.381C334.093 316.381 334.722 316.269 335.226 316.046C335.74 315.823 336.125 315.511 336.381 315.11C336.638 314.709 336.766 314.245 336.766 313.719Z" fill="white"/>
<defs>
<clipPath id="clip0_12797_9340">
<rect width="157.838" height="98.6489" fill="white" transform="translate(389.581 164.014) rotate(10.6673)"/>
</clipPath>
<clipPath id="clip1_12797_9340">
<rect width="157.838" height="98.6489" fill="white" transform="translate(77.5403 280.659) rotate(-18.3212)"/>
</clipPath>
<clipPath id="clip2_12797_9340">
<rect width="161.853" height="341.689" fill="white" transform="translate(219.073 83.9047)"/>
</clipPath>
<clipPath id="clip3_12797_9340">
<rect width="62.1253" height="62.1253" fill="white" transform="translate(428.338 366.739)"/>
</clipPath>
<clipPath id="clip4_12797_9340">
<rect width="129.155" height="111.172" fill="white" transform="translate(44.1416 106.793)"/>
</clipPath>
</defs>
</svg>
