<svg width="115" height="30" viewBox="0 0 115 30" fill="none" xmlns="http://www.w3.org/2000/svg">
<line x1="0.392578" y1="7.18823" x2="5.18549" y2="7.18823" stroke="#CECAD6"/>
<path d="M23.817 0H6.73968C3.17117 0 0.27832 2.89285 0.27832 6.46136V23.5386C0.27832 27.1072 3.17117 30 6.73968 30H23.817C27.3855 30 30.2783 27.1072 30.2783 23.5386V6.46136C30.2783 2.89285 27.3855 0 23.817 0Z" fill="#979797"/>
<path d="M7.5575 2.69432C7.26091 2.71023 7.27568 3.14129 7.27568 3.14129C8.87 6.24584 11.8048 7.76819 15.1897 7.76857C18.57 7.76364 21.534 6.22425 23.1261 3.12425C23.1261 3.12425 23.1889 2.54054 22.5677 2.74281C20.9351 5.44887 18.1927 7.04963 15.1916 7.05455C12.1851 7.05531 9.45219 5.47122 7.81659 2.76023C7.71053 2.7091 7.62606 2.69054 7.5575 2.69432ZM18.3454 14.7602L17.4386 17.461L16.556 14.7621H15.6942L17.0851 18.6886H17.756L18.6651 16.1095L19.5726 18.6886H20.2492L21.6374 14.7625H20.7973L19.9128 17.4614L19.006 14.7606L18.3454 14.7602ZM13.5287 14.7614L11.7692 18.686H12.5961L12.9359 17.9261L12.9601 17.8689H14.7882L15.1465 18.686H15.9961L14.2526 14.7845L14.2374 14.7614H13.5287ZM26.2719 14.7614V18.6837H27.0715V14.7617L26.2719 14.7614ZM3.34424 14.7621V18.6898H4.15484V17.0947H5.98439V18.6894H6.79538V14.7625H5.98477V16.347H4.15522V14.7625L3.34424 14.7621ZM10.5465 14.7633V17.0114C10.5465 17.6496 10.2245 17.9905 9.63856 17.9905C9.04992 17.9905 8.72568 17.6402 8.72568 16.9841V14.7655H7.91469V17.0114C7.91469 18.1163 8.53969 18.7496 9.62795 18.7496C10.7264 18.7496 11.3564 18.1042 11.3564 16.9788V14.7629L10.5465 14.7633ZM22.2912 14.7648V18.6867H25.3075V17.9716H23.0905V16.9992H24.5643V16.2833H23.0905V15.4803H25.2306V14.7652L22.2912 14.7648ZM13.8719 15.7549L14.4499 17.0701L14.4893 17.1606H13.2632L13.3018 17.0701L13.8719 15.7549Z" fill="white"/>
<path d="M51.1182 10.4287L47.8232 19.5H46.4766L50.2705 9.54688H51.1387L51.1182 10.4287ZM53.8799 19.5L50.5781 10.4287L50.5576 9.54688H51.4258L55.2334 19.5H53.8799ZM53.709 15.8154V16.8955H48.1172V15.8154H53.709ZM57.6296 13.5254V22.3438H56.3582V12.1035H57.5203L57.6296 13.5254ZM62.613 15.7402V15.8838C62.613 16.4215 62.5492 16.9206 62.4216 17.3809C62.294 17.8366 62.1072 18.2331 61.8611 18.5703C61.6196 18.9076 61.3211 19.1696 60.9656 19.3564C60.6101 19.5433 60.2022 19.6367 59.742 19.6367C59.2726 19.6367 58.8578 19.5592 58.4978 19.4043C58.1378 19.2493 57.8324 19.0238 57.5818 18.7275C57.3311 18.4313 57.1306 18.0758 56.9802 17.6611C56.8344 17.2464 56.7341 16.7793 56.6795 16.2598V15.4941C56.7341 14.9473 56.8367 14.4574 56.9871 14.0244C57.1375 13.5915 57.3357 13.2223 57.5818 12.917C57.8324 12.6071 58.1355 12.3724 58.491 12.2129C58.8464 12.0488 59.2566 11.9668 59.7214 11.9668C60.1863 11.9668 60.5987 12.0579 60.9587 12.2402C61.3188 12.418 61.6218 12.6732 61.8679 13.0059C62.114 13.3385 62.2986 13.7373 62.4216 14.2021C62.5492 14.6624 62.613 15.1751 62.613 15.7402ZM61.3416 15.8838V15.7402C61.3416 15.3711 61.3028 15.0247 61.2254 14.7012C61.1479 14.373 61.0271 14.0859 60.863 13.8398C60.7035 13.5892 60.4985 13.3932 60.2478 13.252C59.9972 13.1061 59.6987 13.0332 59.3523 13.0332C59.0333 13.0332 58.7553 13.0879 58.5183 13.1973C58.2859 13.3066 58.0877 13.4548 57.9236 13.6416C57.7595 13.8239 57.6251 14.0335 57.5203 14.2705C57.42 14.5029 57.3448 14.7445 57.2947 14.9951V16.7656C57.3858 17.0846 57.5134 17.3854 57.6775 17.668C57.8416 17.946 58.0603 18.1715 58.3337 18.3447C58.6072 18.5133 58.9513 18.5977 59.366 18.5977C59.7078 18.5977 60.0017 18.527 60.2478 18.3857C60.4985 18.2399 60.7035 18.0417 60.863 17.791C61.0271 17.5404 61.1479 17.2533 61.2254 16.9297C61.3028 16.6016 61.3416 16.2529 61.3416 15.8838ZM65.481 13.5254V22.3438H64.2095V12.1035H65.3716L65.481 13.5254ZM70.4644 15.7402V15.8838C70.4644 16.4215 70.4006 16.9206 70.273 17.3809C70.1454 17.8366 69.9585 18.2331 69.7124 18.5703C69.4709 18.9076 69.1724 19.1696 68.8169 19.3564C68.4614 19.5433 68.0536 19.6367 67.5933 19.6367C67.1239 19.6367 66.7092 19.5592 66.3491 19.4043C65.9891 19.2493 65.6838 19.0238 65.4331 18.7275C65.1825 18.4313 64.982 18.0758 64.8316 17.6611C64.6857 17.2464 64.5855 16.7793 64.5308 16.2598V15.4941C64.5855 14.9473 64.688 14.4574 64.8384 14.0244C64.9888 13.5915 65.187 13.2223 65.4331 12.917C65.6838 12.6071 65.9868 12.3724 66.3423 12.2129C66.6978 12.0488 67.1079 11.9668 67.5728 11.9668C68.0376 11.9668 68.4501 12.0579 68.8101 12.2402C69.1701 12.418 69.4732 12.6732 69.7193 13.0059C69.9654 13.3385 70.1499 13.7373 70.273 14.2021C70.4006 14.6624 70.4644 15.1751 70.4644 15.7402ZM69.1929 15.8838V15.7402C69.1929 15.3711 69.1542 15.0247 69.0767 14.7012C68.9992 14.373 68.8784 14.0859 68.7144 13.8398C68.5549 13.5892 68.3498 13.3932 68.0991 13.252C67.8485 13.1061 67.55 13.0332 67.2036 13.0332C66.8846 13.0332 66.6066 13.0879 66.3696 13.1973C66.1372 13.3066 65.939 13.4548 65.7749 13.6416C65.6109 13.8239 65.4764 14.0335 65.3716 14.2705C65.2713 14.5029 65.1961 14.7445 65.146 14.9951V16.7656C65.2372 17.0846 65.3648 17.3854 65.5288 17.668C65.6929 17.946 65.9116 18.1715 66.1851 18.3447C66.4585 18.5133 66.8026 18.5977 67.2173 18.5977C67.5591 18.5977 67.853 18.527 68.0991 18.3857C68.3498 18.2399 68.5549 18.0417 68.7144 17.791C68.8784 17.5404 68.9992 17.2533 69.0767 16.9297C69.1542 16.6016 69.1929 16.2529 69.1929 15.8838ZM79.6145 14.5439V18.1875C79.4915 18.3698 79.2955 18.5749 79.0266 18.8027C78.7578 19.026 78.3863 19.222 77.9124 19.3906C77.443 19.5547 76.8369 19.6367 76.094 19.6367C75.4879 19.6367 74.9296 19.5319 74.4192 19.3223C73.9134 19.1081 73.4736 18.7982 73.0999 18.3926C72.7307 17.9824 72.4436 17.4857 72.2386 16.9023C72.038 16.3145 71.9378 15.6491 71.9378 14.9062V14.1338C71.9378 13.391 72.0244 12.7279 72.1975 12.1445C72.3753 11.5612 72.635 11.0667 72.9768 10.6611C73.3186 10.251 73.7379 9.94108 74.2346 9.73145C74.7314 9.51725 75.3011 9.41016 75.9436 9.41016C76.7047 9.41016 77.3404 9.54232 77.8509 9.80664C78.3658 10.0664 78.7669 10.4264 79.054 10.8867C79.3457 11.347 79.5325 11.8711 79.6145 12.459H78.2952C78.2359 12.099 78.1175 11.7708 77.9397 11.4746C77.7665 11.1784 77.5182 10.9414 77.1946 10.7637C76.871 10.5814 76.454 10.4902 75.9436 10.4902C75.4833 10.4902 75.0846 10.5745 74.7473 10.7432C74.4101 10.9118 74.1321 11.1533 73.9134 11.4678C73.6946 11.7822 73.5305 12.1628 73.4212 12.6094C73.3164 13.056 73.2639 13.5596 73.2639 14.1201V14.9062C73.2639 15.4805 73.33 15.9932 73.4622 16.4443C73.5989 16.8955 73.7926 17.2806 74.0432 17.5996C74.2939 17.9141 74.5924 18.1533 74.9387 18.3174C75.2897 18.4814 75.677 18.5635 76.1009 18.5635C76.5703 18.5635 76.9508 18.5247 77.2425 18.4473C77.5341 18.3652 77.762 18.2695 77.9261 18.1602C78.0901 18.0462 78.2154 17.9391 78.302 17.8389V15.6104H75.9983V14.5439H79.6145ZM85.962 18.2354V14.4277C85.962 14.1361 85.9027 13.8831 85.7842 13.6689C85.6703 13.4502 85.4971 13.2816 85.2647 13.1631C85.0323 13.0446 84.7452 12.9854 84.4034 12.9854C84.0843 12.9854 83.8041 13.04 83.5625 13.1494C83.3256 13.2588 83.1387 13.4023 83.002 13.5801C82.8698 13.7578 82.8037 13.9492 82.8037 14.1543H81.5391C81.5391 13.89 81.6075 13.6279 81.7442 13.3682C81.8809 13.1084 82.0769 12.8737 82.3321 12.6641C82.5918 12.4499 82.9017 12.2812 83.2618 12.1582C83.6263 12.0306 84.0319 11.9668 84.4786 11.9668C85.0163 11.9668 85.4903 12.0579 85.9004 12.2402C86.3151 12.4225 86.6387 12.6982 86.8711 13.0674C87.1081 13.432 87.2266 13.89 87.2266 14.4414V17.8867C87.2266 18.1328 87.2471 18.3949 87.2881 18.6729C87.3337 18.9508 87.3998 19.1901 87.4864 19.3906V19.5H86.167C86.1032 19.3542 86.0531 19.1605 86.0166 18.9189C85.9802 18.6729 85.962 18.445 85.962 18.2354ZM86.1807 15.0156L86.1944 15.9043H84.9161C84.556 15.9043 84.2347 15.9339 83.9522 15.9932C83.6696 16.0479 83.4327 16.1322 83.2412 16.2461C83.0498 16.36 82.904 16.5036 82.8037 16.6768C82.7035 16.8454 82.6534 17.0436 82.6534 17.2715C82.6534 17.5039 82.7058 17.7158 82.8106 17.9072C82.9154 18.0986 83.0726 18.2513 83.2823 18.3652C83.4965 18.4746 83.7585 18.5293 84.0684 18.5293C84.4558 18.5293 84.7976 18.4473 85.0938 18.2832C85.39 18.1191 85.6247 17.9186 85.7979 17.6816C85.9756 17.4447 86.0713 17.2145 86.085 16.9912L86.625 17.5996C86.5931 17.791 86.5065 18.0029 86.3653 18.2354C86.224 18.4678 86.0349 18.6911 85.7979 18.9053C85.5655 19.1149 85.2875 19.2904 84.9639 19.4316C84.6449 19.5684 84.2849 19.6367 83.8838 19.6367C83.3825 19.6367 82.9427 19.5387 82.5645 19.3428C82.1908 19.1468 81.8991 18.8848 81.6895 18.5566C81.4844 18.224 81.3819 17.8525 81.3819 17.4424C81.3819 17.0459 81.4593 16.6973 81.6143 16.3965C81.7692 16.0911 81.9926 15.8382 82.2842 15.6377C82.5759 15.4326 82.9268 15.2777 83.337 15.1729C83.7471 15.068 84.2051 15.0156 84.711 15.0156H86.1807ZM90.5799 9V19.5H89.3084V9H90.5799ZM93.9742 9V19.5H92.7027V9H93.9742ZM99.0638 19.6367C98.5488 19.6367 98.0817 19.5501 97.6624 19.377C97.2477 19.1992 96.89 18.9508 96.5892 18.6318C96.293 18.3128 96.0651 17.9346 95.9056 17.4971C95.7461 17.0596 95.6663 16.5811 95.6663 16.0615V15.7744C95.6663 15.1729 95.7552 14.6374 95.9329 14.168C96.1107 13.694 96.3522 13.293 96.6575 12.9648C96.9629 12.6367 97.3092 12.3883 97.6966 12.2197C98.084 12.0511 98.485 11.9668 98.8997 11.9668C99.4284 11.9668 99.8841 12.0579 100.267 12.2402C100.654 12.4225 100.971 12.6777 101.217 13.0059C101.463 13.3294 101.645 13.7122 101.764 14.1543C101.882 14.5918 101.942 15.0703 101.942 15.5898V16.1572H96.4183V15.125H100.677V15.0293C100.659 14.7012 100.59 14.3822 100.472 14.0723C100.358 13.7624 100.176 13.5072 99.9251 13.3066C99.6745 13.1061 99.3327 13.0059 98.8997 13.0059C98.6126 13.0059 98.3483 13.0674 98.1068 13.1904C97.8652 13.3089 97.6579 13.4867 97.4847 13.7236C97.3115 13.9606 97.1771 14.25 97.0814 14.5918C96.9857 14.9336 96.9378 15.3278 96.9378 15.7744V16.0615C96.9378 16.4124 96.9857 16.7428 97.0814 17.0527C97.1816 17.3581 97.3252 17.627 97.512 17.8594C97.7034 18.0918 97.9336 18.2741 98.2025 18.4062C98.4759 18.5384 98.7858 18.6045 99.1321 18.6045C99.5788 18.6045 99.957 18.5133 100.267 18.3311C100.577 18.1488 100.848 17.9049 101.08 17.5996L101.846 18.208C101.687 18.4495 101.484 18.6797 101.238 18.8984C100.992 19.1172 100.688 19.2949 100.328 19.4316C99.973 19.5684 99.5514 19.6367 99.0638 19.6367ZM104.673 13.2656V19.5H103.408V12.1035H104.639L104.673 13.2656ZM106.983 12.0625L106.977 13.2383C106.872 13.2155 106.772 13.2018 106.676 13.1973C106.585 13.1882 106.48 13.1836 106.361 13.1836C106.07 13.1836 105.812 13.2292 105.589 13.3203C105.366 13.4115 105.177 13.5391 105.022 13.7031C104.867 13.8672 104.744 14.0632 104.652 14.291C104.566 14.5143 104.509 14.7604 104.482 15.0293L104.126 15.2344C104.126 14.7878 104.169 14.3685 104.256 13.9766C104.347 13.5846 104.486 13.2383 104.673 12.9375C104.86 12.6322 105.097 12.3952 105.384 12.2266C105.676 12.0534 106.022 11.9668 106.423 11.9668C106.514 11.9668 106.619 11.9782 106.737 12.001C106.856 12.0192 106.938 12.0397 106.983 12.0625ZM110.344 18.7344L112.401 12.1035H113.755L110.788 20.6416C110.72 20.8239 110.628 21.0199 110.514 21.2295C110.405 21.4437 110.264 21.6465 110.091 21.8379C109.917 22.0293 109.708 22.1842 109.462 22.3027C109.22 22.4258 108.931 22.4873 108.594 22.4873C108.493 22.4873 108.366 22.4736 108.211 22.4463C108.056 22.4189 107.946 22.3962 107.883 22.3779L107.876 21.3525C107.912 21.3571 107.969 21.3617 108.047 21.3662C108.129 21.3753 108.186 21.3799 108.218 21.3799C108.505 21.3799 108.749 21.3411 108.949 21.2637C109.15 21.1908 109.318 21.0654 109.455 20.8877C109.596 20.7145 109.717 20.4753 109.817 20.1699L110.344 18.7344ZM108.833 12.1035L110.754 17.8457L111.082 19.1787L110.173 19.6436L107.452 12.1035H108.833Z" fill="#2C2044"/>
</svg>
