<svg width="89" height="88" viewBox="0 0 89 88" fill="none" xmlns="http://www.w3.org/2000/svg">
<rect x="0.5" width="88" height="88" rx="16" fill="#F0CEF5"/>
<path fill-rule="evenodd" clip-rule="evenodd" d="M31.4676 32.7078L43.2388 27.5448C43.9445 27.2627 44.9118 27.2627 45.6175 27.5448L57.4707 32.6863C58.641 33.154 59.4893 34.4116 59.4893 35.6594L59.5001 39.1355C59.5001 40.9022 58.0603 42.3407 56.2921 42.3407H56.1612V50.6666H56.4707C58.1899 50.6666 59.5053 52.1433 59.5053 53.8664V57.3373C60.4243 57.3382 61.169 58.084 61.169 59.004C61.169 59.9245 60.4235 60.6707 59.5037 60.6707H29.501C28.5813 60.6707 27.8357 59.9245 27.8357 59.004C27.8357 58.0835 28.5813 57.3373 29.501 57.3373H29.5053V53.8664C29.5053 52.1433 30.8205 50.6666 32.5398 50.6666H32.8458V42.3407H32.7187C30.9505 42.3407 29.5108 40.9022 29.5108 39.1407L29.5001 35.6646C29.5001 34.4116 30.3485 33.154 31.4676 32.7078ZM56.1707 57.3373H32.8374V53.9934H56.1707V57.3373ZM49.5179 42.3407H52.8279V50.6666H49.5179V42.3407ZM46.1845 50.6666V42.3407H42.8393V50.6666H46.1845ZM36.1792 42.3407H39.5059V50.6666H36.1792V42.3407ZM44.4268 30.6633L32.8352 35.7449L32.8469 39.0066H56.1636L56.1486 35.7449L44.4268 30.6633Z" fill="#742384"/>
</svg>
