<svg width="100" height="100" viewBox="0 0 100 100" fill="none" xmlns="http://www.w3.org/2000/svg">
<path d="M39.4985 24.677C54.7443 24.6686 52.9704 36.0423 69.9826 38.7657C86.9948 41.4892 99.9997 45.6194 99.9997 61.9448C99.9997 77.0901 86.5968 86.684 71.5503 86.684C56.5039 86.684 0.116804 96.0116 0.0318983 72.3695C-0.0401197 52.3067 13.6964 55.0271 17.8992 46.6073C22.102 38.1875 23.6583 24.6862 39.4985 24.677Z" fill="#8B3D99"/>
<mask id="mask0_624_12958" style="mask-type:alpha" maskUnits="userSpaceOnUse" x="0" y="18" width="100" height="71">
<path d="M99.9997 18.8409C99.9997 28.3482 100 45.1982 100 61.945C100 77.0903 86.5971 86.6841 71.5507 86.6841C56.5042 86.6841 0.117161 96.0118 0.0322556 72.3696C-0.0403137 52.1637 0.0322476 28.5368 0.0322345 18.8412C32.9623 18.8416 66.6344 18.8409 99.9997 18.8409Z" fill="#8B3D99"/>
</mask>
<g mask="url(#mask0_624_12958)">
<path d="M72.9392 83.6452C69.1203 83.6648 65.9418 82.1072 63.7023 79.4842C58.3323 73.2014 59.2603 62.1302 59.866 54.5141C60.1056 51.5165 62.7329 49.2792 65.7283 49.5188C68.726 49.7584 70.9633 52.3814 70.7237 55.3812C70.4949 58.2372 70.105 61.8296 70.3206 65.6834C70.5864 70.4282 71.6604 72.0315 71.9828 72.4084C72.1658 72.6219 72.2878 72.7178 72.6952 72.7461C73.2115 72.7831 73.4141 72.6807 73.6777 72.4411C76.5337 69.8378 76.7843 60.3809 76.915 56.9301C77.0283 53.9238 79.5684 51.584 82.5639 51.693C85.5702 51.8062 87.9143 54.3355 87.801 57.3418C87.7945 57.5074 87.7901 57.7274 87.7836 57.991C87.6158 65.1562 86.7314 75.2841 81.0128 80.4929C78.7558 82.5494 75.9804 83.6278 72.937 83.6452H72.9392Z" fill="#FCDABA"/>
<path d="M82.3591 62.5833C85.367 62.5833 87.8054 60.1449 87.8054 57.137C87.8054 54.1291 85.367 51.6907 82.3591 51.6907C79.3512 51.6907 76.9128 54.1291 76.9128 57.137C76.9128 60.1449 79.3512 62.5833 82.3591 62.5833Z" fill="#FCDABA"/>
<path d="M81.1631 49.9109L78.4879 53.3072L86.2303 60.969L91.7899 60.9385L91.7333 49.8542L81.1631 49.9109Z" fill="#FCDABA"/>
<path d="M76.9129 57.1654C76.8911 56.2809 76.9281 54.9258 77.2636 53.3246C77.708 51.2137 78.3442 50.2791 78.843 48.5973C79.1546 47.5407 79.4508 46.0615 79.4051 44.1466C79.3855 43.3427 80.0173 42.6739 80.8211 42.663C81.564 42.6543 82.1979 43.2142 82.2677 43.9549C82.3984 45.3535 82.394 46.7891 82.2372 48.2487C82.7077 48.7062 83.6837 49.7846 84.0279 51.4533C84.6597 54.5119 82.6119 56.8604 82.3592 57.137L76.9129 57.1654Z" fill="#FCDABA"/>
<path d="M81.002 58.3483C81.4311 57.7972 82.7382 55.9825 82.7557 53.3182C82.7731 50.7758 81.6098 49.0047 81.1915 48.4252C81.3963 48.2727 81.7557 47.9612 82.0259 47.4449C82.3025 46.9177 82.3483 46.4319 82.3548 46.177C82.3461 46.5931 82.3265 47.0223 82.2982 47.4667C82.2807 47.7325 82.259 47.9939 82.235 48.2488C84.1281 49.2531 85.2893 51.2246 85.2021 53.2964C85.1019 55.6579 83.3961 57.7362 81.002 58.3505V58.3483Z" fill="#DCAC82"/>
<g clip-path="url(#clip0_624_12958)">
<path d="M93.3334 60.4684V39.1986C93.3334 38.7209 92.9448 38.3337 92.4655 38.3337H83.0346C82.5553 38.3337 82.1667 38.7209 82.1667 39.1986V60.4684C82.1667 60.9461 82.5553 61.3333 83.0346 61.3333H92.4655C92.9448 61.3333 93.3334 60.9461 93.3334 60.4684Z" fill="#403556"/>
<path d="M93.3334 59.8013V38.5316C93.3334 38.0539 92.9448 37.6667 92.4655 37.6667H83.0346C82.5553 37.6667 82.1667 38.0539 82.1667 38.5316V59.8013C82.1667 60.279 82.5553 60.6663 83.0346 60.6663H92.4655C92.9448 60.6663 93.3334 60.279 93.3334 59.8013Z" fill="#2C2044"/>
<path d="M92.7911 58.8497V39.4832C92.7911 39.2462 92.5984 39.0541 92.3605 39.0541H83.1372C82.8993 39.0541 82.7066 39.2462 82.7066 39.4832V58.8497C82.7066 59.0867 82.8993 59.2788 83.1372 59.2788H92.3605C92.5984 59.2788 92.7911 59.0867 92.7911 58.8497Z" fill="#742384"/>
<path d="M86.6244 38.6116H88.8734C89.004 38.6116 89.1099 38.5061 89.1099 38.3759V38.347C89.1099 38.2169 89.004 38.1114 88.8734 38.1114H86.6244C86.4938 38.1114 86.3879 38.2169 86.3879 38.347V38.3759C86.3879 38.5061 86.4938 38.6116 86.6244 38.6116Z" fill="#544A69"/>
<path d="M90.4652 50.8899C89.8002 50.9022 89.0454 50.9742 88.3479 51.062C88.426 50.7807 88.5037 50.503 88.5037 50.503C88.5037 50.503 88.5835 50.6752 88.8087 50.6577C89.1285 50.6329 89.5177 50.3206 89.7062 49.7484C89.9064 49.1406 89.8885 48.4504 89.4799 48.3924C89.1497 48.3456 88.9921 48.6383 88.9693 48.6966C88.9693 48.6966 89.0395 48.4308 88.8297 48.4772C88.6287 48.5217 88.592 48.6115 88.5422 48.772C88.5335 48.8003 88.3642 49.4319 88.1869 50.0974C88.1842 50.1018 88.1821 50.1068 88.1805 50.1124C88.1367 50.2629 88.05 50.3132 87.9874 50.3172C87.7848 50.3303 88.2203 48.9896 88.2533 48.8879C88.2969 48.7538 88.323 48.6522 88.1753 48.5962C88.0757 48.5584 87.9391 48.5721 87.8991 48.6793C87.8822 48.7243 87.87 48.7574 87.87 48.7574C87.87 48.7574 87.7563 48.5879 87.5047 48.6109C87.2529 48.634 86.9351 48.9412 86.7248 49.4803C86.5145 50.0193 86.4231 50.7925 86.922 50.8696C87.1752 50.9086 87.3877 50.7634 87.4989 50.5242C87.4989 50.5242 87.4795 50.6844 87.6463 50.7629C87.7118 50.7938 87.8747 50.7818 88.0281 50.6948C87.9877 50.8467 87.9497 50.9907 87.9158 51.119C86.8387 51.2684 85.991 51.4353 85.991 51.4353C85.9912 51.4346 86.5814 49.4328 86.7144 48.9921C86.8256 48.6234 86.6159 48.7036 86.4608 48.7488C86.2955 48.7969 86.2173 48.9365 86.1346 49.1901C85.773 50.2978 85.4884 50.6426 85.282 50.5683C85.0927 50.5001 85.6881 49.3239 85.5453 49.1685C85.4214 49.0339 85.1663 49.0411 85.1176 49.1205C85.069 49.1999 85.1413 49.2724 85.1103 49.3847C85.0792 49.497 84.8408 50.105 84.8156 50.2413C84.7905 50.3773 84.5836 51.132 85.1311 51.0994C85.4546 51.0802 85.6763 50.8347 85.6998 50.7665C85.5987 51.0596 85.4543 51.5328 85.4543 51.5328C85.4543 51.5328 84.7919 51.699 84.264 52.2531C83.8448 52.693 83.5484 53.6406 84.1745 53.7917C85.1476 54.0264 85.6077 52.5364 85.8437 51.9761C86.6327 51.7999 87.2344 51.6829 87.7909 51.5958C87.7826 51.6284 87.7771 51.6505 87.7751 51.6597C87.7245 51.893 87.7358 51.9864 87.9174 51.9639C88.1132 51.9396 88.1378 51.8388 88.2018 51.5949C88.2061 51.5782 88.2117 51.5575 88.2182 51.5336C88.8776 51.4443 89.5251 51.3883 90.4161 51.3138C90.6929 51.2906 90.6899 51.2441 90.717 51.0784C90.7475 50.8903 90.5309 50.8888 90.4652 50.8899ZM88.7666 49.6043C88.8997 49.1678 89.0221 48.993 89.1371 48.9437C89.4115 48.8258 89.4635 49.1712 89.2518 49.6955C89.0067 50.3023 88.7204 50.2884 88.6108 50.1687C88.6106 50.1687 88.6259 50.065 88.7666 49.6043ZM87.5413 49.8676C87.4236 50.1525 87.3134 50.353 87.1617 50.3541C86.9444 50.3557 86.95 50.028 87.1047 49.6156C87.2348 49.269 87.472 49.0506 87.6001 49.0258C87.7281 49.0011 87.877 49.055 87.5413 49.8676ZM84.666 53.1828C84.1486 53.6459 84.2791 53.0116 84.4714 52.7377C84.8366 52.2175 85.2876 52.0859 85.2876 52.0859C85.0584 52.7582 84.772 53.0877 84.666 53.1828Z" fill="white"/>
<path d="M91.1532 49.2128C91.3486 48.9859 91.4378 48.5022 91.1099 48.3242C90.7134 48.109 90.1955 48.4376 89.9817 49.1459C89.7917 49.7756 89.7206 50.5501 90.3654 50.5215C90.683 50.5075 90.957 50.2782 91.0563 50.1079C91.1044 50.0253 91.1236 49.8952 91.1151 49.8374C91.0916 49.6752 90.9928 49.6516 90.825 49.8646C90.7835 49.9115 90.4526 50.2067 90.2907 50.0314C90.1737 49.9047 90.2721 49.6559 90.2768 49.6558C90.4885 49.6403 90.8591 49.5544 91.1532 49.2128ZM90.6787 48.663C90.8567 48.4961 91.027 48.6957 90.8212 48.983C90.6134 49.2728 90.3701 49.2654 90.3681 49.2746C90.393 49.1612 90.4846 48.8451 90.6787 48.663Z" fill="white"/>
<path d="M87.6449 46.7119C87.6062 46.6869 87.548 46.6745 87.4709 46.6745H87.2401V46.9952H87.4784C87.6283 46.9952 87.7033 46.941 87.7033 46.8327C87.7033 46.7771 87.6839 46.7369 87.6449 46.7119Z" fill="#10CBB4"/>
<path d="M87.7683 45.2191C87.0709 45.2513 86.5015 45.8131 86.4588 46.5119C86.4299 46.9851 86.6388 47.4104 86.9767 47.68C87.0115 47.7078 87.0318 47.7497 87.0318 47.7943V48.0991C87.0318 48.1225 87.0449 48.1441 87.0656 48.1549L87.074 48.1594C87.0939 48.1698 87.1178 48.168 87.1359 48.1549L87.3966 47.9664C87.4307 47.9417 87.4738 47.9331 87.5147 47.9428C87.617 47.9673 87.7236 47.9803 87.8332 47.9803C88.5939 47.9803 89.2105 47.3618 89.2105 46.5989C89.2105 45.8145 88.5586 45.1826 87.7683 45.2191ZM87.8811 47.015C87.8497 47.0641 87.8074 47.1005 87.7541 47.1241C87.7207 47.1381 87.6823 47.1478 87.6391 47.1536C87.5958 47.1593 87.5452 47.1622 87.4874 47.1622H87.1528C87.1045 47.1622 87.07 47.1514 87.0492 47.1297C87.0286 47.1079 87.0182 47.0733 87.0182 47.0258V46.2C87.0182 46.1516 87.0288 46.1167 87.0499 46.0955C87.0711 46.0742 87.1054 46.0636 87.1526 46.0636H87.5074C87.5596 46.0636 87.605 46.0668 87.6434 46.0733C87.6818 46.0798 87.7161 46.0924 87.7464 46.1107C87.7722 46.1262 87.7952 46.1458 87.8151 46.1696C87.835 46.1934 87.8503 46.2196 87.8607 46.2483C87.8711 46.2771 87.8763 46.3073 87.8763 46.3393C87.8763 46.4493 87.8216 46.5296 87.7119 46.5807C87.8558 46.6266 87.9278 46.716 87.9278 46.8489C87.9282 46.9104 87.9126 46.9657 87.8811 47.015ZM88.6603 47.0584C88.6329 47.0985 88.5925 47.1291 88.5388 47.1498C88.4854 47.1705 88.4202 47.1809 88.3434 47.1809C88.2702 47.1809 88.2074 47.1698 88.1552 47.1473C88.1029 47.1248 88.0642 47.0967 88.0394 47.0631C88.0145 47.0294 88.0021 46.9956 88.0021 46.9615C88.0021 46.939 88.01 46.9198 88.026 46.9038C88.0419 46.8877 88.062 46.8798 88.0864 46.8798C88.1078 46.8798 88.1243 46.885 88.1358 46.8955C88.1473 46.9059 88.1582 46.9207 88.1686 46.9398C88.1896 46.9763 88.2146 47.0035 88.2436 47.0215C88.2727 47.0395 88.3125 47.0485 88.3628 47.0485C88.4037 47.0485 88.4371 47.0393 88.4633 47.0211C88.4895 47.0029 88.5024 46.9821 88.5024 46.9585C88.5024 46.9225 88.4888 46.8962 88.4617 46.8798C88.4346 46.8633 88.3899 46.8476 88.3276 46.8327C88.2575 46.8152 88.2002 46.7969 88.1562 46.7776C88.1121 46.7583 88.0769 46.733 88.0505 46.7015C88.0242 46.67 88.0109 46.6313 88.0109 46.5854C88.0109 46.5443 88.0231 46.5056 88.0475 46.4693C88.0719 46.4327 88.108 46.4038 88.1555 46.382C88.2031 46.3602 88.2605 46.3494 88.3276 46.3494C88.3804 46.3494 88.4279 46.355 88.4699 46.366C88.5121 46.3769 88.5471 46.3917 88.5753 46.4102C88.6034 46.4288 88.6248 46.4491 88.6395 46.4716C88.6542 46.4941 88.6616 46.5161 88.6616 46.5375C88.6616 46.5609 88.6537 46.5802 88.6381 46.5953C88.6225 46.6102 88.6 46.6178 88.5711 46.6178C88.5501 46.6178 88.5324 46.6118 88.5177 46.5998C88.5029 46.5877 88.4861 46.5697 88.4672 46.5458C88.4518 46.5258 88.4337 46.5098 88.4127 46.4979C88.3917 46.4858 88.3633 46.4799 88.3274 46.4799C88.2906 46.4799 88.26 46.4878 88.2356 46.5035C88.2112 46.5191 88.199 46.5388 88.199 46.5623C88.199 46.5838 88.2079 46.6014 88.2259 46.6153C88.2438 46.6289 88.2679 46.6403 88.2984 46.6493C88.3287 46.6583 88.3705 46.6692 88.4238 46.6822C88.487 46.6977 88.5386 46.7162 88.5788 46.7376C88.6189 46.7591 88.6494 46.7844 88.67 46.8138C88.6906 46.8429 88.701 46.8764 88.701 46.9138C88.7014 46.9698 88.6878 47.0182 88.6603 47.0584Z" fill="#10CBB4"/>
<path d="M87.5714 46.4992C87.6015 46.4887 87.6245 46.4687 87.6405 46.4392C87.6528 46.4182 87.6591 46.3948 87.6591 46.3689C87.6591 46.3134 87.6394 46.2765 87.6001 46.2583C87.5608 46.2402 87.5007 46.231 87.4201 46.231H87.2401V46.515H87.4432C87.4985 46.5148 87.5412 46.5096 87.5714 46.4992Z" fill="#10CBB4"/>
</g>
<path d="M94.3177 47.4687C95.0224 47.2132 95.3865 46.4348 95.131 45.7302C94.8755 45.0255 94.0971 44.6614 93.3924 44.9169L92.1308 45.3743C91.4261 45.6298 91.062 46.4082 91.3175 47.1129C91.573 47.8175 92.3514 48.1817 93.0561 47.9262L94.3177 47.4687Z" fill="#FCDABA"/>
<path d="M94.4498 51.3407C95.1863 51.2012 95.6702 50.491 95.5306 49.7546C95.3911 49.0181 94.6809 48.5342 93.9445 48.6738L92.3691 48.9723C91.6327 49.1118 91.1488 49.822 91.2883 50.5585C91.4279 51.2949 92.138 51.7788 92.8745 51.6393L94.4498 51.3407Z" fill="#FCDABA"/>
<path d="M94.5628 55.0637C95.3088 54.9907 95.8544 54.3267 95.7814 53.5807C95.7084 52.8347 95.0444 52.2891 94.2984 52.3622L92.7504 52.5137C92.0043 52.5867 91.4588 53.2506 91.5318 53.9966C91.6048 54.7426 92.2688 55.2882 93.0148 55.2152L94.5628 55.0637Z" fill="#FCDABA"/>
<path d="M94.1256 58.7707C94.8716 58.6977 95.4171 58.0337 95.3441 57.2877C95.2711 56.5417 94.6072 55.9961 93.8612 56.0692L92.5191 56.2005C91.7731 56.2735 91.2275 56.9375 91.3005 57.6835C91.3735 58.4295 92.0375 58.975 92.7835 58.902L94.1256 58.7707Z" fill="#FCDABA"/>
<path d="M71.9631 65.4263C70.3859 65.923 68.0157 66.4698 65.1117 66.4131C62.5433 66.363 60.4323 65.862 58.9553 65.3871C58.9139 63.2282 59.0054 60.8253 59.3278 58.2285C59.4716 57.076 59.648 55.9759 59.8484 54.9346C63.4778 54.9455 67.1094 54.9564 70.7388 54.9672C71.1462 58.4529 71.5558 61.9407 71.9631 65.4263Z" fill="#10CBB4"/>
<path d="M65.2926 60.3961C68.3005 60.3961 70.7389 57.9577 70.7389 54.9498C70.7389 51.9419 68.3005 49.5035 65.2926 49.5035C62.2847 49.5035 59.8463 51.9419 59.8463 54.9498C59.8463 57.9577 62.2847 60.3961 65.2926 60.3961Z" fill="#10CBB4"/>
<path d="M65.5972 49.5129L28.6177 47.4907C25.6143 47.3265 23.0464 49.6281 22.8822 52.6315C22.718 55.6349 25.0196 58.2028 28.023 58.367L65.0024 60.3892C68.0058 60.5534 70.5737 58.2518 70.7379 55.2484C70.9022 52.245 68.6006 49.6771 65.5972 49.5129Z" fill="#10CBB4"/>
<path d="M40.1111 27.5943C40.0174 29.2848 39.8104 30.9623 38.6602 32.021C36.8956 33.6484 37.9173 34.7159 38.7386 33.7442C38.7386 33.7442 37.9238 36.5916 38.5578 37.1536C39.1198 37.6525 40.0152 36.585 40.0152 36.585C40.0152 36.585 40.0697 37.7266 39.8692 38.3344C39.085 40.6959 40.4226 40.8375 41.7232 38.9814C41.2874 39.9247 40.6274 41.1359 41.3397 41.5302C41.8299 41.8026 43.0782 41.2514 43.6468 39.9486L43.076 27.4571L40.1111 27.5921V27.5943Z" fill="#2C2044"/>
<path d="M29.2621 86.4534V95.6576L44.3548 97.8361H46.59L61.6849 95.6576V86.4534H29.2621Z" fill="#002649"/>
<path d="M51.8838 46.6366L52.4415 36.4325L43.1306 35.9227L42.5729 46.1268C41.8757 46.129 41.1873 46.1377 40.5142 46.1573C41.3071 49.0461 43.8669 51.1853 46.956 51.3531C50.0451 51.523 52.8227 49.6756 53.9272 46.8915C53.2606 46.8 52.5766 46.715 51.8838 46.6366Z" fill="#FCDABA"/>
<path d="M52.2193 40.491L51.9905 44.6541C50.3741 44.7412 47.7838 44.5953 45.7578 43.1487C44.1457 41.9963 43.7078 40.5955 43.5728 40.0182L52.2171 40.491H52.2193Z" fill="#DCAC82"/>
<path d="M18.3151 79.3949C21.3229 79.3949 23.7613 76.9565 23.7613 73.9486C23.7613 70.9407 21.3229 68.5023 18.3151 68.5023C15.3072 68.5023 12.8688 70.9407 12.8688 73.9486C12.8688 76.9565 15.3072 79.3949 18.3151 79.3949Z" fill="#FCDABA"/>
<path d="M12.139 101.239C9.48772 100.622 7.65995 98.104 7.96712 95.3329C8.84288 87.4597 10.59 79.6694 13.1629 72.1797C15.8207 64.4394 19.3651 56.9911 23.7003 50.0482C25.2928 47.4971 28.6521 46.7194 31.2031 48.3119C33.7542 49.9044 34.5319 53.2637 32.9394 55.8169C29.042 62.0627 25.8527 68.7572 23.4629 75.7197C21.1515 82.4535 19.5786 89.4596 18.7921 96.5398C18.4588 99.5287 15.7662 101.683 12.7773 101.35C12.5594 101.326 12.3459 101.289 12.1368 101.241L12.139 101.239Z" fill="#FCDABA"/>
<path d="M29.0856 65.3261C27.4648 64.9972 25.1273 64.3262 22.6111 62.871C20.389 61.5856 18.7856 60.1217 17.7225 58.991C18.7312 57.0826 19.9751 55.024 21.5131 52.9086C22.1972 51.9697 22.8834 51.0939 23.5631 50.277C26.735 52.0438 29.9048 53.8127 33.0767 55.5795C31.7456 58.8276 30.4145 62.0758 29.0835 65.324L29.0856 65.3261Z" fill="#10CBB4"/>
<path d="M28.321 58.3789C31.3289 58.3789 33.7673 55.9405 33.7673 52.9326C33.7673 49.9247 31.3289 47.4863 28.321 47.4863C25.3131 47.4863 22.8748 49.9247 22.8748 52.9326C22.8748 55.9405 25.3131 58.3789 28.321 58.3789Z" fill="#10CBB4"/>
<path d="M40.492 31.1758L41.7977 31.116L42.0168 35.9037L40.711 35.9635C39.7492 36.0075 38.9344 35.2641 38.8904 34.3022L38.8306 32.9964C38.7866 32.0345 39.5301 31.2198 40.492 31.1758Z" fill="#FCDABA"/>
<path fill-rule="evenodd" clip-rule="evenodd" d="M40.1585 32.866C40.1887 32.814 40.2554 32.7964 40.3074 32.8266L41.3705 33.4453C41.4025 33.4639 41.4228 33.4975 41.4245 33.5344C41.4263 33.5714 41.4091 33.6067 41.379 33.6282L40.3769 34.3427C40.3279 34.3776 40.2599 34.3662 40.2249 34.3173C40.19 34.2683 40.2014 34.2003 40.2504 34.1653L41.1151 33.5487L40.1978 33.0149C40.1458 32.9847 40.1282 32.918 40.1585 32.866Z" fill="#DCAC82"/>
<path d="M54.1101 30.557L55.415 30.4982C56.3758 30.4546 57.1927 31.1975 57.2363 32.1604L57.2951 33.4653C57.3387 34.426 56.5958 35.243 55.6329 35.2866L54.328 35.3454L54.1101 30.557Z" fill="#DCAC82"/>
<path d="M47.865 20.6955L48.9531 20.6457C52.557 20.4807 55.6157 23.2718 55.7806 26.8756L56.2287 36.6687C56.3661 39.6719 54.0403 42.2208 51.0371 42.3582L48.8608 42.4578C45.257 42.6227 42.1983 39.8317 42.0334 36.2278L41.6351 27.5229C41.4701 23.9191 44.2612 20.8604 47.865 20.6955Z" fill="#FCDABA"/>
<path d="M47.8961 33.1444C48.1857 33.1311 48.4063 32.8086 48.3887 32.424C48.3711 32.0394 48.122 31.7384 47.8323 31.7516C47.5427 31.7649 47.3221 32.0874 47.3397 32.472C47.3573 32.8566 47.6064 33.1576 47.8961 33.1444Z" fill="#2C2044"/>
<path d="M54.2114 32.8561C54.501 32.8428 54.7216 32.5203 54.704 32.1357C54.6864 31.7511 54.4373 31.4501 54.1476 31.4633C53.858 31.4766 53.6374 31.7991 53.655 32.1837C53.6726 32.5683 53.9217 32.8694 54.2114 32.8561Z" fill="#2C2044"/>
<path d="M46.3046 30.6725C46.2697 30.6725 46.2327 30.6551 46.2131 30.6224C46.1804 30.5723 46.1956 30.5048 46.2457 30.4721C46.5159 30.3 46.9625 30.0909 47.542 30.0821C48.067 30.0712 48.4635 30.2281 48.714 30.3588C48.7685 30.3871 48.7881 30.4525 48.7597 30.5048C48.7314 30.5592 48.6661 30.5788 48.6138 30.5505C48.3894 30.4351 48.0321 30.2978 47.579 30.2978C47.5681 30.2978 47.5572 30.2978 47.5463 30.2978C47.0169 30.3065 46.6117 30.4961 46.3656 30.6529C46.3481 30.6638 46.3264 30.6703 46.3067 30.6703L46.3046 30.6725Z" fill="#2C2044"/>
<path d="M53.3804 30.3479C53.3499 30.3479 53.3172 30.3348 53.2954 30.3086C53.2584 30.2629 53.2649 30.1932 53.3107 30.1561C53.498 30.0015 53.8074 29.8119 54.2148 29.7771C54.6766 29.7379 55.0448 29.9121 55.2735 30.0668C55.3236 30.0995 55.3367 30.167 55.304 30.2171C55.2714 30.2672 55.2016 30.2803 55.1537 30.2476C54.9555 30.1126 54.6352 29.9623 54.2344 29.9949C53.8815 30.0254 53.6135 30.191 53.4479 30.3261C53.4283 30.3435 53.4022 30.35 53.3782 30.35L53.3804 30.3479Z" fill="#2C2044"/>
<path d="M55.3912 24.9365C54.2606 25.2828 52.8293 25.6074 51.154 25.7294C48.8317 25.8994 46.8776 25.6205 45.4877 25.309C44.1566 27.0148 44.0041 28.6682 43.8211 31.0254L40.2745 31.1866L40.1111 27.5942C39.9456 23.9888 42.7362 20.9323 46.3417 20.7668L49.2304 20.6361C52.021 20.5075 54.5481 22.2721 55.3912 24.9365Z" fill="#2C2044"/>
<path d="M46.4905 34.5836C46.91 34.5644 47.2414 34.3598 47.2307 34.1266C47.22 33.8935 46.8714 33.72 46.4519 33.7392C46.0324 33.7584 45.701 33.963 45.7117 34.1961C45.7224 34.4293 46.0711 34.6028 46.4905 34.5836Z" fill="#FBCCA1"/>
<path d="M55.3533 34.1788C55.7728 34.1596 56.1042 33.955 56.0935 33.7218C56.0828 33.4887 55.7341 33.3152 55.3147 33.3344C54.8952 33.3536 54.5638 33.5582 54.5745 33.7913C54.5852 34.0245 54.9339 34.198 55.3533 34.1788Z" fill="#FBCCA1"/>
<path d="M48.409 20.673C50.8054 20.5641 51.0538 23.516 51.1605 25.8296C49.5985 25.1586 49.5092 29.5156 47.5986 30.0341C46.834 30.2519 47.4178 29.0102 47.8056 27.4112C46.6706 29.5047 46.1325 31.2453 45.187 31.3325C44.3788 31.4087 44.8297 29.7139 45.0912 27.4852C43.7775 30.1212 43.7078 33.1995 42.4007 33.2583C41.9258 33.2801 41.5293 31.5743 41.3964 27.6203C41.3071 24.9647 41.2592 20.9976 48.409 20.6709V20.673Z" fill="#2C2044"/>
<path d="M50.8729 20.782C50.9361 22.185 51.0537 23.5182 51.1583 25.8318C52.7051 24.9517 52.7029 29.3719 54.193 29.7335C54.7899 29.8904 54.4849 28.6159 54.0623 27.0539C55.1777 29.3784 56.4804 30.4241 57.1427 30.1365C57.7461 29.8751 56.9292 29.3174 55.951 25.6423C55.304 23.2764 53.2998 21.05 50.8729 20.782Z" fill="#2C2044"/>
<path d="M50.7465 36.5305C50.4568 36.5435 50.1671 36.537 49.8795 36.5087C48.8098 36.4063 48.3545 36.7113 48.4722 37.3757C48.5963 38.0772 49.0582 38.9159 50.8511 38.8375C52.6418 38.7547 53.0253 37.8768 53.0863 37.1666C53.1429 36.4934 52.6636 36.232 51.607 36.4302C51.3238 36.4847 51.0363 36.5174 50.7465 36.5305Z" fill="#6B222F"/>
<path d="M52.5286 38.3169C52.1953 38.5957 51.6703 38.7983 50.8512 38.8375C50.0321 38.8724 49.4918 38.7177 49.1345 38.4715C49.4853 38.0467 50.0931 37.7526 50.7989 37.7199C51.5047 37.6873 52.1387 37.9269 52.5265 38.3169H52.5286Z" fill="#DE4A65"/>
<path d="M52.5026 36.3888L52.3435 36.7635C52.2847 36.9007 52.1605 36.9966 52.0146 37.0227C51.4046 37.1273 50.6617 37.221 49.8078 37.2602C49.3219 37.282 48.871 37.2841 48.4593 37.2711C48.4091 36.6807 48.8688 36.4127 49.8796 36.5108C50.1672 36.5369 50.4569 36.5456 50.7467 36.5326C51.0364 36.5195 51.3262 36.4846 51.6072 36.4323C51.9754 36.3626 52.2738 36.3496 52.5047 36.3888H52.5026Z" fill="white"/>
<path d="M65.5734 49.5144C64.3491 64.2019 63.1226 78.8872 61.8983 93.5747L29.2795 93.736C29.2729 91.3091 29.2664 88.8822 29.2598 86.4532C29.4537 66.1124 29.4821 60.9058 29.4646 60.2239C29.4646 60.1956 29.432 58.8384 29.432 58.8384C29.3731 56.7797 29.2642 54.6339 29.0921 52.4096C28.9614 50.7169 28.8002 49.0765 28.6172 47.4883C30.3251 47.1616 32.1573 46.8696 34.1049 46.6409C36.377 46.3729 38.5229 46.2226 40.514 46.1551C41.3114 49.0373 43.8689 51.1678 46.9515 51.3356C50.0341 51.5033 52.8096 49.6647 53.9141 46.8892C58.4345 47.5406 62.358 48.5188 65.5734 49.5122V49.5144Z" fill="#10CBB4"/>
<path d="M37.8236 93.6947C37.0981 93.6991 36.3727 93.7013 35.645 93.7056C35.8411 84.6822 35.6429 75.5608 35.059 66.5679C34.632 59.9801 33.985 53.3313 33.1376 46.7674C33.4578 46.7238 33.7802 46.6846 34.107 46.6454C34.51 46.5975 34.9065 46.5539 35.3008 46.5147C36.1526 53.1156 36.8018 59.8036 37.2332 66.4263C37.8214 75.4606 38.0196 84.6256 37.8236 93.6947Z" fill="#002649"/>
<path d="M61.5345 48.3881C61.2121 54.9258 60.796 61.5158 60.2928 68.0165C59.6327 76.5149 58.8114 85.1091 57.8419 93.5944C57.11 93.5988 56.378 93.6031 55.646 93.6053C56.6263 85.0634 57.4563 76.4081 58.1186 67.8488C58.6306 61.2348 59.0554 54.5315 59.3778 47.8827C60.1185 48.0439 60.8374 48.2139 61.5345 48.3881Z" fill="#002649"/>
</g>
<path d="M61.6092 22.4505C64.0265 22.4505 65.9864 20.4908 65.9864 18.0734C65.9864 15.6561 64.0265 13.6964 61.6092 13.6964C59.1918 13.6964 57.2322 15.6561 57.2322 18.0734C57.2322 20.4908 59.1918 22.4505 61.6092 22.4505Z" fill="#E3B2EB"/>
<path d="M58.9705 18.1315C58.9705 16.6417 60.1783 15.4339 61.668 15.4339C63.1579 15.4339 64.3657 16.6417 64.3657 18.1315C64.3657 19.6214 63.1579 20.8291 61.668 20.8291C60.1783 20.8291 58.9705 19.6214 58.9705 18.1315ZM61.668 15.0512C59.9668 15.0512 58.5876 16.4303 58.5876 18.1315C58.5876 19.8328 59.9668 21.2119 61.668 21.2119C63.3693 21.2119 64.7483 19.8328 64.7483 18.1315C64.7483 16.4303 63.3693 15.0512 61.668 15.0512Z" fill="white"/>
<path d="M59.003 16.8914C58.8973 16.8914 58.8118 16.9771 58.8118 17.0828C58.8118 17.1884 58.8973 17.2741 59.003 17.2741H64.3324C64.4381 17.2741 64.5239 17.1884 64.5239 17.0828C64.5239 16.9771 64.4381 16.8914 64.3324 16.8914H59.003Z" fill="white"/>
<path d="M64.3324 19.0583L59.003 19.0594C58.8973 19.0594 58.8118 19.1451 58.8118 19.2508C58.8118 19.3565 58.8973 19.4421 59.003 19.4421L64.3324 19.4411C64.4381 19.4411 64.5239 19.3554 64.5239 19.2497C64.5239 19.144 64.4381 19.0583 64.3324 19.0583Z" fill="white"/>
<path d="M62.7307 15.2752C62.6642 15.1929 62.5437 15.18 62.4614 15.2463C62.3793 15.3127 62.3663 15.4332 62.4327 15.5154C62.8842 16.0752 63.1943 17.0289 63.1943 18.1317C63.1943 19.2344 62.8842 20.1881 62.4327 20.7479C62.3663 20.8302 62.3793 20.9507 62.4614 21.017C62.5437 21.0834 62.6642 21.0705 62.7307 20.9882C63.2522 20.3416 63.5768 19.2942 63.5768 18.1317C63.5768 16.9691 63.2522 15.9218 62.7307 15.2752Z" fill="white"/>
<path d="M60.9037 15.5154C60.9699 15.4332 60.957 15.3127 60.8747 15.2463C60.7924 15.18 60.6721 15.1929 60.6057 15.2752C60.0842 15.9218 59.7593 16.9691 59.7593 18.1317C59.7593 19.2942 60.0842 20.3416 60.6057 20.9882C60.6721 21.0705 60.7924 21.0834 60.8747 21.017C60.957 20.9507 60.9699 20.8302 60.9037 20.7479C60.4522 20.1881 60.1421 19.2344 60.1421 18.1317C60.1421 17.0289 60.4522 16.0752 60.9037 15.5154Z" fill="white"/>
<path d="M61.8586 15.2426C61.8586 15.1369 61.7731 15.0512 61.6674 15.0512C61.5616 15.0512 61.4761 15.1369 61.4761 15.2426V21.0205C61.4761 21.1262 61.5616 21.2119 61.6674 21.2119C61.7731 21.2119 61.8586 21.1262 61.8586 21.0205V15.2426Z" fill="white"/>
<path d="M84.9886 30.3655C87.8895 30.3655 90.2412 28.0139 90.2412 25.113C90.2412 22.2122 87.8895 19.8606 84.9886 19.8606C82.0878 19.8606 79.7361 22.2122 79.7361 25.113C79.7361 28.0139 82.0878 30.3655 84.9886 30.3655Z" fill="#F4C12A"/>
<path d="M85.8553 27.0398H84.3035C84.1482 27.0398 84.0448 26.9364 84.0448 26.7812V26.6519C84.0448 26.2898 83.8895 25.9277 83.6051 25.6432C83.1913 25.2294 82.9842 24.6862 83.0101 24.1172C83.0619 23.0309 83.9672 22.1515 85.0535 22.1256H85.0794C86.2173 22.1256 87.1485 23.0568 87.1485 24.1948C87.1485 24.7379 86.9416 25.2811 86.5276 25.669C86.2432 25.9277 86.1138 26.2898 86.1138 26.6519V26.7812C86.1138 26.9364 86.0104 27.0398 85.8553 27.0398ZM84.562 26.5226H85.5966C85.6225 26.057 85.8294 25.6432 86.1657 25.2811C86.476 24.9966 86.6313 24.6086 86.6313 24.1948C86.6313 23.3413 85.9329 22.6429 85.0794 22.6429H85.0535C84.2516 22.6688 83.5532 23.3154 83.5276 24.1431C83.5016 24.5569 83.6826 24.9707 83.9672 25.2811C84.3292 25.6432 84.536 26.0829 84.562 26.5226Z" fill="white"/>
<path d="M85.0797 28.3331C84.5109 28.3331 84.0453 27.8675 84.0453 27.2985V26.7812C84.0453 26.626 84.1487 26.5226 84.3038 26.5226H85.8556C86.0109 26.5226 86.1143 26.626 86.1143 26.7812V27.2985C86.1143 27.8675 85.6487 28.3331 85.0797 28.3331ZM84.5625 27.0399V27.2985C84.5625 27.583 84.7953 27.8158 85.0797 27.8158C85.3643 27.8158 85.5971 27.583 85.5971 27.2985V27.0399H84.5625ZM84.3038 24.4534C84.1487 24.4534 84.0453 24.35 84.0453 24.1948C84.0453 23.6258 84.5109 23.1602 85.0797 23.1602C85.235 23.1602 85.3384 23.2637 85.3384 23.4189C85.3384 23.5741 85.235 23.6775 85.0797 23.6775C84.7953 23.6775 84.5625 23.9103 84.5625 24.1948C84.5625 24.35 84.4591 24.4534 84.3038 24.4534Z" fill="white"/>
<path d="M75.0368 21.2962C77.696 21.2962 79.8517 19.1405 79.8517 16.4814C79.8517 13.8223 77.696 11.6667 75.0368 11.6667C72.3778 11.6667 70.2222 13.8223 70.2222 16.4814C70.2222 19.1405 72.3778 21.2962 75.0368 21.2962Z" fill="#10CBB4"/>
<path d="M76.1707 13.6364H73.9175C73.7501 13.6364 73.5898 13.7029 73.4715 13.8212C73.3532 13.9395 73.2867 14.0999 73.2867 14.2672V18.6958C73.2867 18.8631 73.3532 19.0235 73.4715 19.1418C73.5898 19.2601 73.7501 19.3266 73.9175 19.3266H76.1707C76.3381 19.3266 76.4987 19.2601 76.617 19.1418C76.7353 19.0235 76.8017 18.8631 76.8017 18.6958V14.2672C76.8017 14.0999 76.7353 13.9395 76.617 13.8212C76.4987 13.7029 76.3381 13.6364 76.1707 13.6364ZM76.3318 18.6958C76.3318 18.7385 76.315 18.7794 76.2848 18.8096C76.2545 18.8398 76.2135 18.8568 76.1707 18.8568H73.9175C73.8747 18.8568 73.8339 18.8398 73.8037 18.8096C73.7735 18.7794 73.7564 18.7385 73.7564 18.6958V14.2672C73.7564 14.2245 73.7735 14.1836 73.8037 14.1534C73.8339 14.1232 73.8747 14.1063 73.9175 14.1063H76.1707C76.2135 14.1063 76.2545 14.1232 76.2848 14.1534C76.315 14.1836 76.3318 14.2245 76.3318 14.2672V18.6958Z" fill="white"/>
<path d="M75.2612 18.2042H74.8263C74.7638 18.2042 74.7042 18.229 74.6601 18.273C74.6159 18.3171 74.5912 18.3769 74.5912 18.4391C74.5912 18.5015 74.6159 18.5612 74.6601 18.6052C74.7042 18.6493 74.7638 18.6741 74.8263 18.6741H75.2612C75.3236 18.6741 75.3832 18.6493 75.4273 18.6052C75.4713 18.5612 75.496 18.5015 75.496 18.4391C75.496 18.3769 75.4713 18.3171 75.4273 18.273C75.3832 18.229 75.3236 18.2042 75.2612 18.2042Z" fill="white"/>
<path d="M90.52 43.1268C93.6628 43.1268 96.2103 40.5793 96.2103 37.4366C96.2103 34.2941 93.6628 31.7466 90.52 31.7466C87.3776 31.7466 84.8301 34.2941 84.8301 37.4366C84.8301 40.5793 87.3776 43.1268 90.52 43.1268Z" fill="#48A3F3"/>
<path d="M93.5782 36.8085C93.4812 36.4017 92.6906 35.0286 92.2259 34.2433L92.2115 34.2189C92.2042 34.2063 92.1961 34.1944 92.1869 34.1832C92.165 34.1563 92.0466 34.022 91.8543 34.0123C91.7633 34.0076 91.6269 34.0301 91.494 34.1636C91.4679 34.1898 91.4603 34.1975 91.1496 34.7343C91.0463 34.9125 90.913 35.1455 90.7766 35.39C90.6082 35.0966 90.4295 34.7902 90.2425 34.4739C90.23 34.4528 90.2219 34.4389 90.2186 34.4334C90.2111 34.4204 90.2028 34.4079 90.1931 34.3962C90.1675 34.3647 90.0278 34.2065 89.8028 34.1953C89.698 34.1902 89.5399 34.2165 89.3829 34.3717C89.3511 34.401 89.3382 34.4231 89.0619 34.8962C88.9113 35.1541 88.6819 35.5499 88.446 35.9713C87.5387 37.5898 87.4523 37.931 87.4269 38.0435C87.2333 38.7583 87.3962 39.5418 87.8628 40.1411C88.3186 40.7266 88.9887 41.0587 89.709 41.0587C89.7276 41.0587 89.7465 41.0587 89.7651 41.0581H89.7886C90.4111 41.0726 91.0044 40.8387 91.46 40.3982C91.8403 40.0306 92.0953 39.5394 92.1784 39.0242C92.6191 38.9464 93.0162 38.6973 93.2909 38.3193C93.6135 37.8755 93.7181 37.325 93.5784 36.8083L93.5782 36.8085ZM89.7985 40.5297C89.7963 40.5297 89.7941 40.5297 89.7919 40.5297H89.7618C89.7596 40.5297 89.7574 40.5297 89.7553 40.5297C89.1808 40.5435 88.642 40.2839 88.2772 39.8156C87.9112 39.3457 87.7838 38.7336 87.9358 38.1779C87.9369 38.1739 87.9378 38.1702 87.9386 38.1662C88.0502 37.6706 89.4441 35.27 89.7693 34.7332C89.773 34.7303 89.7761 34.7281 89.7785 34.7266C89.7792 34.727 89.7798 34.7275 89.7807 34.7281C89.7838 34.7332 89.7868 34.7385 89.7901 34.7442C90.0364 35.1605 90.2681 35.5601 90.4806 35.9339C90.4755 35.9433 90.4707 35.9526 90.4659 35.962C90.462 35.9695 90.458 35.9772 90.4541 35.9845C90.4477 35.9968 90.4413 36.0087 90.4352 36.0209C90.4326 36.0261 90.4297 36.0314 90.4271 36.0365C90.4183 36.0532 90.4098 36.0698 90.4017 36.0858C90.3981 36.0924 90.3949 36.0988 90.3916 36.1054C90.3867 36.1149 90.3817 36.1246 90.3771 36.1339C90.3734 36.1413 90.3696 36.1484 90.3661 36.1557C90.3622 36.1636 90.358 36.1715 90.3543 36.1792C90.3503 36.1869 90.3466 36.1944 90.3429 36.2019C90.3394 36.209 90.3357 36.216 90.3324 36.2231C90.3289 36.2301 90.3253 36.2372 90.3218 36.244C90.3183 36.251 90.3148 36.2581 90.3113 36.2651C90.308 36.272 90.3047 36.2786 90.3014 36.2852C90.2982 36.2918 90.2951 36.2984 90.2918 36.3048C90.2885 36.3114 90.2854 36.318 90.2824 36.3244C90.2795 36.3306 90.2765 36.3365 90.2736 36.3424C90.2705 36.3488 90.2675 36.3552 90.2644 36.3616C90.2615 36.3673 90.2589 36.3731 90.2563 36.3786C90.2534 36.3845 90.2506 36.3907 90.2477 36.3964C90.2451 36.4021 90.2425 36.4076 90.2398 36.4129C90.2372 36.4184 90.2346 36.4242 90.2322 36.4297C90.2295 36.4352 90.2271 36.4405 90.2247 36.446C90.2223 36.451 90.2199 36.4563 90.2177 36.4614C90.2153 36.4667 90.2129 36.472 90.2107 36.477C90.2085 36.4819 90.2063 36.4867 90.2041 36.4916C90.2019 36.4966 90.1997 36.5015 90.1975 36.5065C90.1955 36.5112 90.1934 36.5156 90.1916 36.52C90.1894 36.5253 90.1872 36.5301 90.185 36.5352C90.1833 36.5391 90.1815 36.5431 90.18 36.5468C90.1771 36.5535 90.1745 36.5596 90.1719 36.566C90.1705 36.5689 90.1695 36.5717 90.1681 36.5746C90.1651 36.5819 90.162 36.5891 90.1591 36.596C90.1578 36.5991 90.1567 36.6021 90.1554 36.6052C90.1534 36.6098 90.1517 36.6145 90.1499 36.6189C90.1486 36.622 90.1475 36.625 90.1462 36.6281C90.1447 36.6323 90.1429 36.6363 90.1414 36.6402C90.1401 36.6433 90.139 36.6464 90.1379 36.6493C90.1363 36.653 90.135 36.6568 90.1335 36.6605C90.1324 36.6634 90.1313 36.6662 90.1304 36.6689C90.1291 36.6724 90.1278 36.6759 90.1265 36.6794C90.1254 36.6821 90.1245 36.6847 90.1236 36.6874C90.1223 36.6907 90.1212 36.694 90.1201 36.6973C90.1192 36.6997 90.1184 36.7021 90.1175 36.7046C90.1164 36.7079 90.1153 36.7109 90.1142 36.7143C90.1135 36.7165 90.1127 36.7187 90.112 36.7206C90.1109 36.7239 90.1098 36.727 90.1089 36.7301C90.1083 36.7321 90.1076 36.7341 90.107 36.7358C90.1059 36.7389 90.105 36.742 90.1041 36.7449C90.1037 36.7466 90.103 36.7484 90.1026 36.7499C90.1017 36.753 90.1006 36.7561 90.0997 36.7592C90.0993 36.7605 90.0988 36.7618 90.0986 36.7631C90.0978 36.7665 90.0969 36.7695 90.096 36.7726C90.0958 36.7735 90.0953 36.7746 90.0951 36.7755C90.094 36.779 90.0931 36.7825 90.0923 36.7858C90.0923 36.7863 90.0923 36.7867 90.092 36.7869C90.0901 36.7946 90.0881 36.8019 90.0866 36.8085C89.9429 37.3402 90.0638 37.9226 90.4104 38.3678C90.4282 38.3907 90.4466 38.4127 90.465 38.4345C90.4674 38.4374 90.4698 38.4402 90.4723 38.4431C90.49 38.4636 90.5082 38.4836 90.5269 38.5032C90.5301 38.5068 90.5334 38.5103 90.5367 38.5138C90.5554 38.5332 90.5742 38.5519 90.5933 38.5702C90.5964 38.5733 90.5997 38.5761 90.6027 38.579C90.6227 38.5977 90.6428 38.616 90.6637 38.6339C90.6652 38.6352 90.6667 38.6365 90.6683 38.6378C90.6891 38.6554 90.7102 38.6726 90.7316 38.6891C90.7334 38.6905 90.7352 38.692 90.7371 38.6933C90.7586 38.7098 90.7803 38.7257 90.8025 38.7411C90.806 38.7435 90.8093 38.746 90.8128 38.7482C90.8345 38.7632 90.8564 38.7775 90.8788 38.7913C90.8823 38.7935 90.886 38.7957 90.8895 38.798C90.9123 38.8118 90.9353 38.8255 90.9586 38.8383C90.961 38.8396 90.9632 38.8407 90.9656 38.842C91.0149 38.8689 91.0654 38.8931 91.1167 38.9149C91.1191 38.916 91.1215 38.9169 91.1239 38.918C91.1489 38.9283 91.1739 38.9383 91.1993 38.9475C91.2024 38.9486 91.2057 38.9497 91.2088 38.951C91.2342 38.9601 91.2599 38.9687 91.286 38.9766C91.2884 38.9772 91.2908 38.9781 91.2934 38.9788C91.3482 38.9951 91.4039 39.009 91.4605 39.0198C91.4614 39.0198 91.4622 39.0202 91.4631 39.0202C91.4905 39.0255 91.5182 39.0299 91.546 39.0336C91.5489 39.0341 91.5519 39.0345 91.5548 39.035C91.5817 39.0385 91.6089 39.0416 91.6361 39.044C91.6377 39.044 91.6392 39.0444 91.6407 39.0444C91.4554 39.9059 90.6817 40.5515 89.7993 40.5292L89.7985 40.5297ZM92.8658 38.0079C92.6397 38.3189 92.2985 38.5059 91.9297 38.5209C91.9291 38.5209 91.9286 38.5209 91.928 38.5209C91.9155 38.5215 91.9027 38.5217 91.8896 38.522C91.8764 38.522 91.8631 38.522 91.8495 38.5215C91.8471 38.5215 91.8449 38.5215 91.8424 38.5215H91.821C91.8188 38.5215 91.8166 38.5215 91.8144 38.5215C91.4298 38.531 91.0687 38.3565 90.8237 38.0422C90.5779 37.7268 90.4922 37.316 90.5942 36.9435C90.5953 36.9398 90.5961 36.9358 90.597 36.9321C90.6001 36.9187 90.6062 36.8966 90.6194 36.8614C90.6233 36.8508 90.6279 36.8387 90.6332 36.8257C90.6396 36.8096 90.647 36.7916 90.6556 36.7715C90.6584 36.7647 90.6615 36.7576 90.6648 36.7502C90.6779 36.72 90.6935 36.6852 90.7121 36.6455C90.7178 36.6334 90.7238 36.6206 90.7301 36.6074C90.74 36.5867 90.7505 36.5647 90.7619 36.5413C90.7691 36.5264 90.7766 36.5112 90.7845 36.4951C90.7854 36.4935 90.786 36.492 90.7867 36.4905C90.7867 36.4905 90.7867 36.4905 90.7867 36.4902C90.8014 36.4605 90.8174 36.4288 90.8343 36.3953C90.845 36.3742 90.856 36.3526 90.8678 36.3299C90.8711 36.3235 90.8744 36.3171 90.8779 36.3105C90.9171 36.2345 90.9617 36.1499 91.0123 36.0554C91.3127 35.4962 91.6782 34.8711 91.8313 34.6118C92.5338 35.8041 93.016 36.7096 93.0662 36.9321C93.0671 36.9361 93.0679 36.94 93.069 36.9438C93.1681 37.3059 93.094 37.6938 92.8655 38.0081L92.8658 38.0079Z" fill="white"/>
<g clip-path="url(#clip1_624_12958)">
<path fill-rule="evenodd" clip-rule="evenodd" d="M8.52795 44.547C8.78256 45.0973 9.25905 45.5354 9.85556 45.7699C10.6167 46.0689 11.7042 46.4969 12.5717 46.8378C13.1018 47.0464 13.1009 47.7374 12.5717 47.946L9.85556 49.0139C9.25814 49.2484 8.78256 49.6865 8.52795 50.2368C8.20333 50.9378 7.73867 51.9396 7.36857 52.7386C7.14215 53.2269 6.39196 53.2269 6.16554 52.7386C5.79545 51.9396 5.33079 50.9378 5.00616 50.2368C4.75155 49.6865 4.27507 49.2484 3.67856 49.0139C2.91746 48.7149 1.82991 48.2869 0.962419 47.946C0.432286 47.7374 0.432286 47.0464 0.962419 46.8378C1.82991 46.4969 2.91746 46.0689 3.67856 45.7699C4.27598 45.5354 4.75155 45.0965 5.00616 44.547C5.33079 43.846 5.79545 42.8442 6.16554 42.0452C6.39196 41.5569 7.14215 41.5569 7.36857 42.0452C7.73867 42.8442 8.20333 43.846 8.52795 44.547Z" fill="#12DEC4"/>
<path fill-rule="evenodd" clip-rule="evenodd" d="M15.4153 24.9012C15.5689 25.2332 15.8564 25.4975 16.2162 25.639C16.6754 25.8194 17.3315 26.0776 17.8549 26.2833C18.1747 26.4091 18.1742 26.826 17.8549 26.9518L16.2162 27.5961C15.8558 27.7376 15.5689 28.0019 15.4153 28.3339C15.2194 28.7568 14.9391 29.3612 14.7158 29.8433C14.5792 30.1379 14.1266 30.1379 13.99 29.8433C13.7668 29.3612 13.4864 28.7568 13.2906 28.3339C13.137 28.0019 12.8495 27.7376 12.4896 27.5961C12.0304 27.4157 11.3743 27.1575 10.851 26.9518C10.5311 26.826 10.5311 26.4091 10.851 26.2833C11.3743 26.0776 12.0304 25.8194 12.4896 25.639C12.85 25.4975 13.137 25.2327 13.2906 24.9012C13.4864 24.4783 13.7668 23.8739 13.99 23.3918C14.1266 23.0972 14.5792 23.0972 14.7158 23.3918C14.9391 23.8739 15.2194 24.4783 15.4153 24.9012Z" fill="#12DEC4"/>
<path fill-rule="evenodd" clip-rule="evenodd" d="M28.9573 38.0475C29.0457 38.2385 29.2111 38.3905 29.4181 38.4719C29.6823 38.5757 30.0598 38.7243 30.3609 38.8426C30.5449 38.915 30.5446 39.1549 30.3609 39.2273L29.4181 39.5979C29.2108 39.6794 29.0457 39.8314 28.9573 40.0224C28.8446 40.2658 28.6833 40.6135 28.5549 40.8908C28.4763 41.0603 28.2159 41.0603 28.1373 40.8908C28.0088 40.6135 27.8475 40.2658 27.7349 40.0224C27.6465 39.8314 27.4811 39.6794 27.274 39.5979C27.0099 39.4942 26.6324 39.3456 26.3312 39.2273C26.1472 39.1549 26.1472 38.915 26.3312 38.8426C26.6324 38.7243 27.0099 38.5757 27.274 38.4719C27.4814 38.3905 27.6465 38.2382 27.7349 38.0475C27.8475 37.8041 28.0088 37.4564 28.1373 37.1791C28.2159 37.0096 28.4763 37.0096 28.5549 37.1791C28.6833 37.4564 28.8446 37.8041 28.9573 38.0475Z" fill="#12DEC4"/>
</g>
<g clip-path="url(#clip2_624_12958)">
<path fill-rule="evenodd" clip-rule="evenodd" d="M95.9937 68.7864C96.1675 69.1945 96.493 69.5193 96.9004 69.6931C97.4202 69.9149 98.163 70.2322 98.7555 70.485C99.1176 70.6396 99.1169 71.152 98.7555 71.3066L96.9004 72.0984C96.4924 72.2723 96.1675 72.5971 95.9937 73.0051C95.7719 73.5249 95.4546 74.2677 95.2018 74.8602C95.0472 75.2222 94.5348 75.2222 94.3802 74.8602C94.1274 74.2677 93.81 73.5249 93.5883 73.0051C93.4144 72.5971 93.089 72.2723 92.6816 72.0984C92.1618 71.8767 91.419 71.5594 90.8265 71.3066C90.4644 71.152 90.4644 70.6396 90.8265 70.485C91.419 70.2322 92.1618 69.9149 92.6816 69.6931C93.0896 69.5193 93.4144 69.1938 93.5883 68.7864C93.81 68.2666 94.1274 67.5239 94.3802 66.9314C94.5348 66.5693 95.0472 66.5693 95.2018 66.9314C95.4546 67.5239 95.7719 68.2666 95.9937 68.7864Z" fill="#12DEC4"/>
</g>
<g clip-path="url(#clip3_624_12958)">
<path fill-rule="evenodd" clip-rule="evenodd" d="M69.6948 36.4942C69.7682 36.6665 69.9056 36.8036 70.0776 36.877C70.2971 36.9706 70.6107 37.1046 70.8609 37.2114C71.0138 37.2767 71.0135 37.493 70.8609 37.5583L70.0776 37.8926C69.9054 37.966 69.7682 38.1032 69.6948 38.2754C69.6012 38.4949 69.4672 38.8085 69.3605 39.0587C69.2952 39.2115 69.0788 39.2115 69.0135 39.0587C68.9068 38.8085 68.7728 38.4949 68.6792 38.2754C68.6058 38.1032 68.4684 37.966 68.2964 37.8926C68.0769 37.799 67.7633 37.665 67.5131 37.5583C67.3602 37.493 67.3602 37.2767 67.5131 37.2114C67.7633 37.1046 68.0769 36.9706 68.2964 36.877C68.4686 36.8036 68.6058 36.6662 68.6792 36.4942C68.7728 36.2747 68.9068 35.9611 69.0135 35.711C69.0788 35.5581 69.2952 35.5581 69.3605 35.711C69.4672 35.9611 69.6012 36.2747 69.6948 36.4942Z" fill="#12DEC4"/>
</g>
<defs>
<clipPath id="clip0_624_12958">
<rect width="11.1667" height="23.6667" fill="white" transform="translate(82.1666 37.6667)"/>
</clipPath>
<clipPath id="clip1_624_12958">
<rect width="29.9339" height="29.9339" fill="white" transform="translate(0.564819 23.1709)"/>
</clipPath>
<clipPath id="clip2_624_12958">
<rect width="8.47187" height="8.47187" fill="white" transform="translate(90.5549 66.6599)"/>
</clipPath>
<clipPath id="clip3_624_12958">
<rect width="3.57701" height="3.57701" fill="white" transform="translate(67.3984 35.5963)"/>
</clipPath>
</defs>
</svg>
