<svg width="28" height="28" viewBox="0 0 28 28" fill="none" xmlns="http://www.w3.org/2000/svg">
<rect width="28" height="28" rx="14" fill="#10CBB4"/>
<path d="M17.4727 17.4619V19H10.6641V17.6875L13.8838 14.2354C14.2074 13.8753 14.4626 13.5586 14.6494 13.2852C14.8363 13.0072 14.9707 12.7588 15.0527 12.54C15.1393 12.3167 15.1826 12.1048 15.1826 11.9043C15.1826 11.6035 15.1325 11.346 15.0322 11.1318C14.932 10.9131 14.7839 10.7445 14.5879 10.626C14.3965 10.5075 14.1595 10.4482 13.877 10.4482C13.5762 10.4482 13.3164 10.5212 13.0977 10.667C12.8835 10.8128 12.7194 11.0156 12.6055 11.2754C12.4961 11.5352 12.4414 11.8291 12.4414 12.1572H10.4658C10.4658 11.5648 10.6071 11.0225 10.8896 10.5303C11.1722 10.0335 11.571 9.63932 12.0859 9.34766C12.6009 9.05143 13.2116 8.90332 13.918 8.90332C14.6152 8.90332 15.2031 9.01725 15.6816 9.24512C16.1647 9.46842 16.5293 9.79199 16.7754 10.2158C17.026 10.6351 17.1514 11.1364 17.1514 11.7197C17.1514 12.0479 17.099 12.3691 16.9941 12.6836C16.8893 12.9935 16.7389 13.3034 16.543 13.6133C16.3516 13.9186 16.1191 14.2285 15.8457 14.543C15.5723 14.8574 15.2692 15.1833 14.9365 15.5205L13.207 17.4619H17.4727Z" fill="white"/>
</svg>
