<svg width="600" height="600" viewBox="0 0 600 600" fill="none" xmlns="http://www.w3.org/2000/svg">
<ellipse cx="300" cy="557.5" rx="300" ry="22.5" fill="#CECAD6"/>
<path d="M116.225 177.614C116.225 177.614 115.694 184.681 115.24 187.443C114.781 190.21 115.038 190.562 113.117 192.87C109.372 197.367 103.539 200.206 103.61 207.679C103.718 219.005 114.895 223.866 126.555 226.222C138.215 228.578 153.394 227.636 159.131 215.135C162.674 207.417 159.268 202.938 157.622 194.797C157.246 192.936 157.491 190.95 157.574 187.765C157.658 184.58 157.39 177.721 157.39 177.721L116.225 177.614Z" fill="#2C2044"/>
<path d="M179.6 219.924H93.1193C84.8844 219.924 78.2087 226.6 78.2087 234.835C78.2087 243.069 84.8844 249.745 93.1193 249.745H179.6C187.835 249.745 194.511 243.069 194.511 234.835C194.511 226.6 187.835 219.924 179.6 219.924Z" fill="#F2BAC4"/>
<path d="M207.233 297.948C192.99 297.948 183.644 286.407 179.272 279.363C172.95 269.183 168.137 255.089 164.97 237.483C163.515 229.377 168.901 221.624 177.006 220.169C185.117 218.713 192.865 224.099 194.32 232.204C198.418 254.976 204.352 263.898 207.107 266.964C210.036 263.039 215.487 251.576 217.145 226.998C217.7 218.779 224.809 212.576 233.028 213.125C241.247 213.68 247.455 220.789 246.901 229.008C242.815 289.515 218.827 297.352 208.706 297.912C208.211 297.942 207.716 297.954 207.233 297.954V297.948Z" fill="#DCAC82"/>
<path d="M179.398 279.56C179.35 279.495 179.314 279.429 179.272 279.363C175.921 273.96 172.992 267.459 170.511 259.914C180.203 257.552 189.901 255.185 199.592 252.823C201.06 256.902 202.515 259.968 203.815 262.246C201.453 265.312 197.696 269.475 192.185 273.244C187.378 276.53 182.815 278.433 179.404 279.56H179.398Z" fill="#DCAC82"/>
<path d="M228.102 227.308L217.342 225.399C217.342 225.399 217.068 218.666 216.113 214.628C215.344 211.36 214.354 208.395 213.304 205.771C212.469 203.684 213.662 201.34 215.827 200.761C217.521 200.308 219.31 201.071 220.121 202.622C220.593 203.523 221.058 204.53 221.475 205.64C222.143 207.417 222.543 209.051 222.787 210.435L228.096 227.308H228.102Z" fill="#DCAC82"/>
<path d="M232.026 242.91C240.261 242.91 246.937 236.235 246.937 228C246.937 219.765 240.261 213.089 232.026 213.089C223.791 213.089 217.115 219.765 217.115 228C217.115 236.235 223.791 242.91 232.026 242.91Z" fill="#DCAC82"/>
<path d="M256.169 198.513C254.505 197.779 252.561 198.525 251.827 200.189L246.62 211.944C246.256 211.753 245.875 211.556 245.487 211.371L251.028 196.24C251.654 194.534 250.777 192.644 249.072 192.018C247.366 191.391 245.475 192.268 244.849 193.974L239.344 208.998C239.07 208.92 238.795 208.843 238.515 208.765L241.706 192.966C242.064 191.183 240.913 189.447 239.129 189.089C237.346 188.731 235.61 189.882 235.252 191.666L232.032 207.614C231.543 207.572 231.072 207.536 230.612 207.513L230.779 194.391C230.803 192.572 229.348 191.081 227.529 191.057C225.71 191.033 224.219 192.489 224.195 194.308C224.034 207.405 222.173 216.202 220.056 225.882L246.704 230.606L252.221 215.552L257.845 202.855C258.579 201.191 257.833 199.246 256.169 198.513Z" fill="#DCAC82"/>
<path d="M231.322 224.016C231.179 223.992 231.072 223.861 231.078 223.711C231.131 222.298 230.952 219.519 229.199 216.769C227.272 213.751 224.541 212.427 223.086 211.908C222.93 211.855 222.853 211.682 222.907 211.527C222.96 211.371 223.133 211.288 223.288 211.348C224.815 211.896 227.684 213.286 229.706 216.453C231.555 219.346 231.734 222.262 231.68 223.741C231.674 223.908 231.537 224.033 231.37 224.028C231.358 224.028 231.34 224.028 231.328 224.028L231.322 224.016Z" fill="#9F7554"/>
<path d="M248.332 213.226C248.296 213.22 248.261 213.208 248.231 213.19C245.296 211.431 242.135 210.077 238.843 209.159C235.324 208.181 231.692 207.703 228.036 207.757C227.869 207.757 227.738 207.626 227.732 207.465C227.732 207.298 227.863 207.167 228.024 207.161C231.734 207.113 235.432 207.59 239.004 208.586C242.35 209.517 245.553 210.894 248.535 212.678C248.678 212.761 248.72 212.946 248.636 213.089C248.571 213.196 248.445 213.25 248.326 213.232L248.332 213.226Z" fill="#9F7554"/>
<path d="M170.207 267.435C174.734 267.513 181.378 267.107 188.964 264.709C195.668 262.586 200.821 259.628 204.328 257.236C202.765 251.54 200.654 245.296 197.797 238.735C196.527 235.819 195.209 233.069 193.873 230.487C184.348 233.332 174.829 236.177 165.304 239.028C166.938 248.499 168.573 257.97 170.207 267.435Z" fill="#F2BAC4"/>
<path d="M179.589 249.668C187.823 249.668 194.499 242.992 194.499 234.757C194.499 226.522 187.823 219.847 179.589 219.847C171.354 219.847 164.678 226.522 164.678 234.757C164.678 242.992 171.354 249.668 179.589 249.668Z" fill="#F2BAC4"/>
<path d="M126.251 552.459H98.4692V529.246H126.251V552.459Z" fill="#DCAC82"/>
<path d="M146.362 552.459H174.143V529.246H146.362V552.459Z" fill="#DCAC82"/>
<path d="M128.755 562.902H64.7773C64.7773 556.157 68.7197 550.025 74.8628 547.234L95.8032 537.709C98.3857 539.833 102.543 542.701 108.274 544.58C117.256 547.526 125.04 546.369 128.755 545.558V562.902Z" fill="#2C2044"/>
<path d="M143.863 562.902H207.841C207.841 556.157 203.899 550.025 197.755 547.234L176.815 537.709C174.233 539.833 170.076 542.701 164.344 544.58C155.362 547.526 147.578 546.369 143.863 545.558V562.902Z" fill="#2C2044"/>
<path d="M111.817 385.568C123.55 385.568 133.062 376.057 133.062 364.324C133.062 352.591 123.55 343.079 111.817 343.079C100.084 343.079 90.5725 352.591 90.5725 364.324C90.5725 376.057 100.084 385.568 111.817 385.568Z" fill="#2C2044"/>
<path d="M160.801 385.568C172.534 385.568 182.046 376.057 182.046 364.324C182.046 352.591 172.534 343.079 160.801 343.079C149.068 343.079 139.557 352.591 139.557 364.324C139.557 376.057 149.068 385.568 160.801 385.568Z" fill="#2C2044"/>
<path d="M111.817 464.493C123.017 464.493 132.095 455.414 132.095 444.214C132.095 433.015 123.017 423.936 111.817 423.936C100.618 423.936 91.5388 433.015 91.5388 444.214C91.5388 455.414 100.618 464.493 111.817 464.493Z" fill="#2C2044"/>
<path d="M160.801 464.493C172.001 464.493 181.08 455.414 181.08 444.214C181.08 433.015 172.001 423.936 160.801 423.936C149.602 423.936 140.523 433.015 140.523 444.214C140.523 455.414 149.602 464.493 160.801 464.493Z" fill="#2C2044"/>
<path d="M133.056 364.449L90.5726 364.324C89.4335 338.833 97.4553 322.449 102.036 316.312H170.577C175.157 322.449 183.179 338.833 182.04 364.324L139.557 364.449H133.056Z" fill="#2C2044"/>
<path d="M133.056 364.449H90.5725L91.5387 444.214H132.095L133.056 364.449Z" fill="#2C2044"/>
<path d="M139.557 364.449H182.046L181.08 444.214H140.523L139.557 364.449Z" fill="#2C2044"/>
<path d="M128.374 535.163H96.3519L91.5388 444.214H132.095L128.374 535.163Z" fill="#2C2044"/>
<path d="M144.245 535.163H176.266L181.08 444.214H140.523L144.245 535.163Z" fill="#2C2044"/>
<path d="M149.123 214.389V186.411H123.596V214.389C121.694 214.503 119.809 214.628 117.972 214.777C120.573 222.56 127.891 228.017 136.36 228.017C144.829 228.017 152.147 222.554 154.748 214.777C152.911 214.622 151.026 214.497 149.123 214.389Z" fill="#DCAC82"/>
<path d="M149.123 200.039V208.998C144.716 209.373 137.612 209.367 131.863 206.499C127.282 204.214 125.875 201.262 125.421 200.039H149.123Z" fill="#9F7554"/>
<path d="M55.825 370.395C48.4592 369.781 42.5248 363.775 42.1908 356.194C41.2008 333.852 43.8131 311.636 49.9562 290.17C56.5467 267.137 67.002 245.588 81.0298 226.115C85.8429 219.435 95.165 217.92 101.845 222.733C108.525 227.546 110.04 236.868 105.227 243.548C93.2147 260.212 84.2684 278.66 78.6322 298.365C73.3777 316.735 71.1411 335.749 71.9881 354.87C72.3519 363.095 65.9761 370.061 57.7515 370.425C57.1014 370.455 56.4632 370.443 55.831 370.389L55.825 370.395Z" fill="#DCAC82"/>
<path d="M57.0895 370.443C65.3244 370.443 72 363.767 72 355.532C72 347.297 65.3244 340.622 57.0895 340.622C48.8546 340.622 42.179 347.297 42.179 355.532C42.179 363.767 48.8546 370.443 57.0895 370.443Z" fill="#DCAC82"/>
<path d="M64.2943 309.178C72.5292 309.178 79.2049 302.503 79.2049 294.268C79.2049 286.033 72.5292 279.357 64.2943 279.357C56.0595 279.357 49.3838 286.033 49.3838 294.268C49.3838 302.503 56.0595 309.178 64.2943 309.178Z" fill="#DCAC82"/>
<path d="M74.6302 381.93C72.9662 382.467 71.1411 381.793 70.2465 380.29C69.7276 379.413 69.2147 378.429 68.7376 377.343C67.9801 375.602 67.497 373.986 67.1869 372.62C66.7574 374.856 66.4294 377.397 66.328 380.206C66.1968 383.779 66.4533 386.994 66.8946 389.743C67.5984 394.162 61.2227 394.467 59.833 390.769C60.4056 395.159 54.7753 396.172 52.5745 393.375C49.8131 394.467 46.5447 392.618 46.1153 389.63C43.7714 390.787 39.8409 389.928 39.6024 386.308C39.2445 380.767 39.2386 374.475 39.9364 367.604C40.4553 362.528 42.2922 353.671 42.2922 353.671L71.8807 357.393C71.8807 357.393 72.495 364.103 73.6461 368.093C74.5825 371.314 75.7157 374.224 76.8966 376.795C77.839 378.834 76.7654 381.238 74.6242 381.93H74.6302Z" fill="#DCAC82"/>
<path d="M52.5506 393.673C52.4075 393.662 52.2942 393.548 52.2763 393.405C52.0317 390.858 51.9065 388.27 51.9065 385.717C51.9065 382.693 52.0795 379.64 52.4194 376.634C52.4373 376.467 52.5924 376.359 52.7474 376.371C52.9085 376.389 53.0278 376.538 53.0099 376.699C52.6699 379.681 52.497 382.711 52.497 385.711C52.497 388.252 52.6222 390.817 52.8667 393.345C52.8846 393.512 52.7653 393.656 52.5983 393.673C52.5805 393.673 52.5626 393.673 52.5447 393.673H52.5506Z" fill="#9F7554"/>
<path d="M59.8092 391.061C59.672 391.049 59.5587 390.942 59.5408 390.805C59.2963 388.95 59.1173 387.059 59.01 385.192C58.8609 382.598 58.8489 379.968 58.9742 377.367C58.9802 377.2 59.1233 377.075 59.2843 377.081C59.4454 377.093 59.5766 377.23 59.5706 377.391C59.4513 379.968 59.4633 382.58 59.6064 385.157C59.7138 387.011 59.8867 388.884 60.1313 390.721C60.1551 390.882 60.0358 391.031 59.8748 391.055C59.8509 391.055 59.833 391.055 59.8092 391.055V391.061Z" fill="#9F7554"/>
<path d="M95.6005 268.741C91.1512 267.888 84.7337 266.129 77.8033 262.222C71.678 258.769 67.2407 254.815 64.3003 251.755C67.0021 246.501 70.342 240.823 74.4931 234.99C76.3361 232.395 78.1909 229.974 80.0279 227.725C88.7655 232.467 97.4971 237.208 106.235 241.95C102.692 250.884 99.1492 259.813 95.6065 268.747L95.6005 268.741Z" fill="#F2BAC4"/>
<path d="M93.1251 249.745C101.36 249.745 108.036 243.069 108.036 234.834C108.036 226.6 101.36 219.924 93.1251 219.924C84.8903 219.924 78.2146 226.6 78.2146 234.834C78.2146 243.069 84.8903 249.745 93.1251 249.745Z" fill="#F2BAC4"/>
<path d="M46.0676 389.88C45.9304 389.868 45.8111 389.761 45.7992 389.618C45.6202 388.127 45.495 386.612 45.4353 385.115C45.3041 382.019 45.4115 378.882 45.7634 375.787C45.7813 375.626 45.9304 375.524 46.0914 375.524C46.2524 375.542 46.3717 375.691 46.3538 375.852C46.002 378.918 45.8946 382.019 46.0258 385.085C46.0914 386.57 46.2107 388.067 46.3896 389.54C46.4075 389.701 46.2942 389.85 46.1272 389.874C46.1093 389.874 46.0854 389.874 46.0676 389.874V389.88Z" fill="#9F7554"/>
<path d="M102.042 316.312C96.1549 297.769 90.5008 280.21 90.4829 262.461C90.471 252.829 93.7394 237.781 94.5446 234.954C93.8587 229.95 93.1788 224.946 92.4929 219.942C95.3617 219.334 98.2483 218.731 101.147 218.135C106.795 216.972 112.401 215.85 117.972 214.777C120.572 222.542 127.861 227.994 136.312 228.017C136.33 228.017 136.348 228.017 136.366 228.017C136.384 228.017 136.401 228.017 136.419 228.017C144.865 227.994 152.159 222.542 154.759 214.777C160.33 215.856 165.936 216.972 171.584 218.135C174.483 218.731 177.364 219.334 180.238 219.942C179.553 224.946 178.873 229.95 178.187 234.954C178.998 237.775 182.26 252.829 182.248 262.461C182.23 280.21 176.57 297.769 170.69 316.312H102.042Z" fill="#F2BAC4"/>
<path d="M115.903 173.177L119.481 173.172L119.5 186.293L115.921 186.298C113.285 186.302 111.147 184.17 111.143 181.534L111.138 177.955C111.134 175.319 113.267 173.181 115.903 173.177Z" fill="#DCAC82"/>
<path d="M115.044 181.86C114.948 181.86 114.853 181.813 114.793 181.723C114.704 181.586 114.746 181.401 114.883 181.312L117.322 179.731L114.877 178.163C114.74 178.073 114.698 177.888 114.787 177.751C114.877 177.614 115.062 177.572 115.199 177.662L118.032 179.481C118.115 179.534 118.169 179.63 118.169 179.731C118.169 179.833 118.115 179.928 118.032 179.982L115.205 181.813C115.157 181.843 115.097 181.86 115.044 181.86Z" fill="#9F7554"/>
<path d="M153.221 173.123H156.799C159.435 173.117 161.577 175.246 161.577 177.882V181.461C161.583 184.097 159.453 186.238 156.817 186.238H153.239L153.221 173.123Z" fill="#9F7554"/>
<path d="M137.335 145.407L140.317 145.403C150.194 145.389 158.221 153.394 158.235 163.271L158.272 190.11C158.284 198.34 151.613 205.03 143.382 205.041L137.418 205.05C127.542 205.063 119.514 197.059 119.501 187.182L119.467 163.325C119.454 153.448 127.458 145.421 137.335 145.407Z" fill="#DCAC82"/>
<path d="M134.341 179.461C135.135 179.46 135.777 178.605 135.776 177.551C135.774 176.497 135.129 175.643 134.336 175.644C133.542 175.645 132.899 176.501 132.901 177.555C132.902 178.609 133.547 179.462 134.341 179.461Z" fill="#2C2044"/>
<path d="M152.627 179.436C153.421 179.435 154.063 178.579 154.062 177.525C154.06 176.471 153.416 175.618 152.622 175.619C151.828 175.62 151.186 176.475 151.187 177.529C151.188 178.583 151.833 179.437 152.627 179.436Z" fill="#2C2044"/>
<path d="M130.294 170.475C130.193 170.475 130.092 170.421 130.038 170.326C129.954 170.182 130.002 170.004 130.145 169.92C130.909 169.479 132.149 168.966 133.736 169.008C135.137 169.049 136.235 169.52 136.909 169.908C137.052 169.992 137.1 170.171 137.016 170.314C136.933 170.457 136.754 170.505 136.61 170.421C135.996 170.069 135 169.64 133.718 169.598C132.263 169.556 131.135 170.027 130.443 170.427C130.396 170.457 130.342 170.469 130.294 170.469V170.475Z" fill="#2C2044"/>
<path d="M150.668 170.445C150.579 170.445 150.489 170.403 150.43 170.326C150.328 170.194 150.358 170.009 150.489 169.908C151.02 169.509 151.891 169.025 153.012 168.984C154.282 168.936 155.266 169.455 155.875 169.902C156.006 170.004 156.036 170.188 155.934 170.32C155.833 170.451 155.648 170.481 155.517 170.379C154.986 169.986 154.145 169.526 153.036 169.574C152.07 169.616 151.312 170.033 150.847 170.385C150.793 170.427 150.734 170.445 150.668 170.445Z" fill="#2C2044"/>
<path d="M130.314 183.23C131.464 183.229 132.395 182.709 132.394 182.07C132.393 181.431 131.461 180.915 130.311 180.916C129.161 180.918 128.23 181.437 128.231 182.076C128.232 182.715 129.165 183.232 130.314 183.23Z" fill="#BE906A"/>
<path d="M156.181 183.194C157.331 183.193 158.262 182.673 158.261 182.034C158.26 181.395 157.328 180.879 156.178 180.88C155.028 180.882 154.097 181.401 154.098 182.04C154.099 182.679 155.032 183.196 156.181 183.194Z" fill="#BE906A"/>
<path d="M149.666 145.157C139.622 140.069 128.6 146.242 127.413 146.934C120.674 146.069 113.773 152.505 114.65 161.928C114.924 164.898 115.187 168.829 115.294 171.733V173.182L125.016 173.171C125.117 171.596 125.338 169.837 125.755 167.952C126.698 163.652 128.308 160.216 129.751 157.741C132.865 158.719 134.302 161.218 137.684 162.346C142.551 163.968 148.437 162.518 150.042 161.552C149.875 162.035 148.789 162.787 147.698 163.55C146.338 164.493 146.064 165.387 146.398 165.864C147.662 167.672 155.672 163.884 156.883 161.021C157.062 161.236 157.246 161.481 157.431 161.755C157.789 162.298 158.04 162.823 158.219 163.276C158.779 161.731 159.584 158.791 158.803 155.397C157.336 149.051 151.473 146.087 149.66 145.169L149.666 145.157Z" fill="#2C2044"/>
<path d="M117.877 188.26C118.885 188.26 119.702 187.443 119.702 186.435C119.702 185.427 118.885 184.61 117.877 184.61C116.869 184.61 116.052 185.427 116.052 186.435C116.052 187.443 116.869 188.26 117.877 188.26Z" fill="#10CBB4"/>
<path d="M138.316 190.52C137.929 190.467 137.583 190.801 137.648 191.188C138 193.336 139.849 194.964 143.219 194.958C146.589 194.958 148.431 193.324 148.777 191.176C148.837 190.789 148.497 190.455 148.109 190.508C146.678 190.711 145.032 190.854 143.213 190.854C141.394 190.854 139.748 190.717 138.316 190.52Z" fill="white"/>
<path d="M39.2922 75.4811H29.66V336.171H39.2922V75.4811Z" fill="#815C41"/>
<path d="M268.151 75.4811H258.519V336.171H268.151V75.4811Z" fill="#815C41"/>
<path d="M121.694 326.825H74.9343L78.2564 336.171H118.366L121.694 326.825Z" fill="#CECAD6"/>
<path d="M122.994 323.378H73.6401C72.8588 323.378 72.2266 324.147 72.2266 325.101C72.2266 326.056 72.8588 326.825 73.6401 326.825H122.994C123.775 326.825 124.407 326.056 124.407 325.101C124.407 324.147 123.775 323.378 122.994 323.378Z" fill="#E2DFE8"/>
<path d="M61.9444 326.825H15.1849L18.513 336.171H58.6223L61.9444 326.825Z" fill="#CECAD6"/>
<path d="M63.2446 323.378H13.8907C13.1094 323.378 12.4772 324.147 12.4772 325.101C12.4772 326.056 13.1094 326.825 13.8907 326.825H63.2446C64.0259 326.825 64.6581 326.056 64.6581 325.101C64.6581 324.147 64.0259 323.378 63.2446 323.378Z" fill="#E2DFE8"/>
<path d="M121.694 314.032H74.9343L78.2564 323.378H118.366L121.694 314.032Z" fill="#CECAD6"/>
<path d="M122.994 310.59H73.6401C72.8588 310.59 72.2266 311.36 72.2266 312.314C72.2266 313.268 72.8588 314.038 73.6401 314.038H122.994C123.775 314.038 124.407 313.268 124.407 312.314C124.407 311.36 123.775 310.59 122.994 310.59Z" fill="#E2DFE8"/>
<path d="M121.694 301.239H74.9343L78.2564 310.59H118.366L121.694 301.239Z" fill="#CECAD6"/>
<path d="M122.994 297.797H73.6401C72.8588 297.797 72.2266 298.567 72.2266 299.521C72.2266 300.475 72.8588 301.245 73.6401 301.245H122.994C123.775 301.245 124.407 300.475 124.407 299.521C124.407 298.567 123.775 297.797 122.994 297.797Z" fill="#E2DFE8"/>
<path d="M202.187 299.521H145.837V336.171H202.187V299.521Z" fill="#973043"/>
<path d="M162.912 295.465H150.99V299.521H162.912V295.465Z" fill="#F6F4FB"/>
<path d="M208.073 336.171H264.423V299.521H208.073V336.171Z" fill="#008C7B"/>
<path d="M247.348 299.521H259.27V295.465H247.348V299.521Z" fill="#F6F4FB"/>
<path d="M220.294 330.046L214.843 322.74V318.159H208.974V322.74L203.523 330.046V342.958C203.523 346.471 206.177 348.451 206.177 350.413C206.177 353.103 203.523 354.642 203.523 357.475V361.042C203.523 363.081 205.175 364.728 207.209 364.728C207.698 364.728 208.133 364.423 208.306 363.97C208.479 363.517 209.123 363.517 209.296 363.97C209.469 364.429 209.904 364.728 210.393 364.728H213.417C213.906 364.728 214.342 364.423 214.515 363.97C214.688 363.517 215.332 363.517 215.505 363.97C215.678 364.429 216.113 364.728 216.602 364.728C218.642 364.728 220.288 363.075 220.288 361.042V357.475C220.288 354.642 217.634 353.103 217.634 350.413C217.634 348.457 220.288 346.477 220.288 342.958V330.046H220.294Z" fill="#F6F4FB"/>
<path d="M215.803 314.586H208.002V318.159H215.803V314.586Z" fill="#E3647B"/>
<path d="M220.288 330.046H203.517V342.958H220.288V330.046Z" fill="#E3647B"/>
<path d="M239.749 330.046L234.298 322.74V318.159H228.429V322.74L222.978 330.046V342.958C222.978 346.471 225.632 348.451 225.632 350.413C225.632 353.103 222.978 354.642 222.978 357.475V361.042C222.978 363.081 224.63 364.728 226.664 364.728C227.153 364.728 227.588 364.423 227.761 363.97C227.934 363.517 228.578 363.517 228.751 363.97C228.924 364.429 229.36 364.728 229.849 364.728H232.873C233.362 364.728 233.797 364.423 233.97 363.97C234.143 363.517 234.787 363.517 234.96 363.97C235.133 364.429 235.568 364.728 236.058 364.728C238.097 364.728 239.743 363.075 239.743 361.042V357.475C239.743 354.642 237.089 353.103 237.089 350.413C237.089 348.457 239.743 346.477 239.743 342.958V330.046H239.749Z" fill="#F6F4FB"/>
<path d="M235.264 314.586H227.463V318.159H235.264V314.586Z" fill="#E3647B"/>
<path d="M239.749 330.046H222.978V342.958H239.749V330.046Z" fill="#E3647B"/>
<path d="M293.207 75.4811H4.60437L29.66 37H268.151L293.207 75.4811Z" fill="#48A3F3"/>
<path d="M4.60437 75.4811H40.6819V103.722C40.6819 113.676 32.6004 121.757 22.6461 121.757C12.6918 121.757 4.61033 113.676 4.61033 103.722V75.4811H4.60437Z" fill="#F4C12A"/>
<path d="M40.6819 75.4811H76.7594V103.722C76.7594 113.676 68.6779 121.757 58.7236 121.757C48.7694 121.757 40.6879 113.676 40.6879 103.722V75.4811H40.6819Z" fill="#AFDDFD"/>
<path d="M76.7534 75.4811H112.831V103.722C112.831 113.676 104.749 121.757 94.7952 121.757C84.8409 121.757 76.7594 113.676 76.7594 103.722V75.4811H76.7534Z" fill="#F4C12A"/>
<path d="M112.831 75.4811H148.909V103.722C148.909 113.676 140.827 121.757 130.873 121.757C120.919 121.757 112.837 113.676 112.837 103.722V75.4811H112.831Z" fill="#AFDDFD"/>
<path d="M148.908 75.4811H184.986V103.722C184.986 113.676 176.904 121.757 166.95 121.757C156.996 121.757 148.914 113.676 148.914 103.722V75.4811H148.908Z" fill="#F4C12A"/>
<path d="M184.98 75.4811H221.058V103.722C221.058 113.676 212.976 121.757 203.022 121.757C193.068 121.757 184.986 113.676 184.986 103.722V75.4811H184.98Z" fill="#AFDDFD"/>
<path d="M221.058 75.4811H257.135V103.722C257.135 113.676 249.054 121.757 239.099 121.757C229.145 121.757 221.064 113.676 221.064 103.722V75.4811H221.058Z" fill="#F4C12A"/>
<path d="M257.129 75.4811H293.207V103.722C293.207 113.676 285.125 121.757 275.171 121.757C265.217 121.757 257.135 113.676 257.135 103.722V75.4811H257.129Z" fill="#AFDDFD"/>
<path d="M255.388 518.455H42.4294C39.7844 518.455 37.6401 520.6 37.6401 523.245C37.6401 525.89 39.7844 528.034 42.4294 528.034H255.388C258.033 528.034 260.177 525.89 260.177 523.245C260.177 520.6 258.033 518.455 255.388 518.455Z" fill="#48A3F3"/>
<path d="M63.8409 563.187C73.6074 563.187 81.5248 555.27 81.5248 545.503C81.5248 535.736 73.6074 527.819 63.8409 527.819C54.0743 527.819 46.157 535.736 46.157 545.503C46.157 555.27 54.0743 563.187 63.8409 563.187Z" fill="#2C2044"/>
<path d="M233.976 563.187C243.743 563.187 251.66 555.27 251.66 545.503C251.66 535.736 243.743 527.819 233.976 527.819C224.21 527.819 216.292 535.736 216.292 545.503C216.292 555.27 224.21 563.187 233.976 563.187Z" fill="#2C2044"/>
<path d="M288.286 507.845H9.52485L0 336.171H297.811L288.286 507.845Z" fill="#48A3F3"/>
<path d="M120.089 492.398H27.155V351.618H120.089V492.398ZM28.9443 490.608H118.3V353.408H28.9443V490.608Z" fill="#0759A4"/>
<path d="M112.396 414.207C112.396 412.481 110.996 411.081 109.27 411.081C107.544 411.081 106.145 412.481 106.145 414.207V429.809C106.145 431.535 107.544 432.934 109.27 432.934C110.996 432.934 112.396 431.535 112.396 429.809V414.207Z" fill="#002649"/>
<path d="M67.9264 507.845H55.5149V518.449H67.9264V507.845Z" fill="#1172C9"/>
<path d="M242.302 507.845H229.891V518.449H242.302V507.845Z" fill="#1172C9"/>
<path d="M63.841 555.529C69.3782 555.529 73.8669 551.04 73.8669 545.503C73.8669 539.966 69.3782 535.477 63.841 535.477C58.3039 535.477 53.8152 539.966 53.8152 545.503C53.8152 551.04 58.3039 555.529 63.841 555.529Z" fill="#69607B"/>
<path d="M233.976 555.529C239.513 555.529 244.002 551.04 244.002 545.503C244.002 539.966 239.513 535.477 233.976 535.477C228.439 535.477 223.95 539.966 223.95 545.503C223.95 551.04 228.439 555.529 233.976 555.529Z" fill="#69607B"/>
<g clip-path="url(#clip0_568_10367)">
<path d="M318.829 319.311C342.946 323.949 368.606 305.781 391.041 268.218C391.317 267.756 391.522 267.407 391.66 267.19C394.109 263.69 393.392 258.848 389.972 256.213C386.454 253.503 381.403 254.157 378.693 257.675C378.505 257.92 377.989 258.703 377.231 259.964C358.776 290.855 338.595 306.727 321.859 303.511C292.593 297.885 301.801 239.62 305.268 217.688C305.268 217.688 313.746 196.586 307.427 187.433C301.109 178.28 292.216 170.274 284.049 172.972C273.34 176.51 282.308 207.68 290.079 210.686C289.881 212.016 289.639 213.538 289.381 215.176C284.86 243.774 274.276 310.743 318.826 319.308L318.829 319.311Z" fill="#DE4A65"/>
<path d="M502.26 544.084C499.817 544.084 497.409 542.974 495.835 540.861C491.814 535.462 488.539 523.265 483.097 502.175C480.413 491.758 477.631 480.989 474.698 471.581C463.51 435.719 450.946 406.608 450.82 406.319C449.053 402.244 450.927 397.505 455.001 395.738C459.059 393.968 463.806 395.839 465.579 399.917C466.104 401.131 478.596 430.062 490.054 466.785C493.106 476.577 495.938 487.548 498.673 498.154C501.927 510.769 506.384 528.044 508.735 531.248C511.357 534.82 510.615 539.864 507.05 542.499C505.604 543.568 503.926 544.084 502.26 544.084Z" fill="#DE4A65"/>
<path d="M472.123 415.708C470.454 411.586 465.755 409.599 461.652 411.265C457.534 412.932 455.475 417.56 457.138 421.676C457.201 421.827 465.003 442.718 465.003 442.718L484.559 449.878C477.86 429.977 472.456 416.529 472.123 415.708Z" fill="#973043"/>
<path d="M484.323 506.911C484.323 506.911 487.347 528.862 491.824 547.209C495.256 561.277 503.678 563.575 516.453 562.953C529.605 562.311 529.206 555.837 519.769 542.253C515.22 535.71 506.664 529.459 500.87 518.013C496.397 509.162 487.042 494.937 484.323 506.911Z" fill="#DE4A65"/>
<path d="M371.928 533.11C371.501 533.11 371.067 533.075 370.633 533.006C366.248 532.295 363.271 528.167 363.979 523.777C364.233 522.199 370.297 484.922 375.496 465.905C380.699 446.872 394.112 412.9 394.681 411.466C396.319 407.338 400.99 405.316 405.117 406.945C409.248 408.58 411.272 413.256 409.634 417.384C409.499 417.727 395.979 451.969 391.009 470.147C386.036 488.34 379.919 525.972 379.856 526.352C379.215 530.302 375.804 533.113 371.928 533.113V533.11Z" fill="#DE4A65"/>
<path d="M409.631 417.384C411.269 413.252 409.244 408.58 405.114 406.945C400.987 405.316 396.315 407.338 394.678 411.466C394.514 411.878 393.295 414.969 391.518 419.607L401.634 438.433C405.862 426.934 409.562 417.567 409.631 417.387V417.384Z" fill="#973043"/>
<path d="M491.921 399.48C493.512 374.262 493.512 287.308 495.898 239.479C498.287 191.653 509.128 155.043 487.099 157.203H487.093C459.546 159.967 396.479 165.731 379.721 169.23C379.721 169.23 367.788 171.652 366.99 185.565C366.562 193.03 361.269 240.277 360.238 286.717C359.348 326.814 362.643 366.455 363.01 377.74C363.806 402.087 365.399 420.349 390.063 420.349C408.628 420.349 447.482 423.796 472.689 422.903C471.57 422.943 470.429 422.975 469.266 423C475.625 422.532 490.661 419.318 491.918 399.477L491.921 399.48Z" fill="#DE4A65"/>
<path d="M483.767 373.655C485.125 352.321 484.924 292.141 485.452 251.629C486.002 209.554 496.187 182.018 477.923 182.018C454.259 182.018 400.773 187.675 386.445 190.644C386.445 190.644 376.241 192.69 375.559 204.46C375.169 211.214 370.995 248.318 370.096 289.99C369.564 314.711 369.876 340.199 370.278 364.895C370.507 378.837 370.768 392.207 388.846 392.207C404.721 392.207 445.775 394.229 467.326 393.474C466.371 393.506 465.393 393.534 464.4 393.556C469.838 393.16 482.692 390.443 483.767 373.655Z" fill="#742384"/>
<path d="M517.449 193.973C517.999 185.314 520.02 176.113 516.145 167.947C511.414 157.958 496.165 156.294 487.096 157.206C509.125 155.046 498.283 191.656 495.894 239.482C493.508 287.311 493.508 374.265 491.918 399.486C491.025 413.614 481.815 421.544 469.577 422.994C481.173 421.62 494.942 423.182 503.806 412.998C511.231 404.467 511.81 392.317 511.81 381.224C511.81 360.355 512.174 276.84 517.449 193.977V193.973Z" fill="#973043"/>
<path d="M513.297 285.905C513.636 274.337 514.054 262.203 514.567 249.726L502.423 255.817C502.423 255.817 505.017 284.06 513.297 285.905Z" fill="#6B222F"/>
<path d="M426.348 404.775C426.348 407.967 423.761 410.555 420.567 410.555C417.38 410.555 414.793 407.97 414.793 404.775C414.793 401.587 417.377 398.996 420.567 398.996C423.758 398.996 426.348 401.584 426.348 404.775Z" fill="#973043"/>
<path d="M382.186 512.668C382.186 512.668 380.331 529.384 378.426 531.572C374.808 535.729 340.258 542.103 334.732 541.895C327.524 541.628 333.663 526.129 346.394 519.237C359.128 512.347 371.055 509.986 382.186 512.668Z" fill="#DE4A65"/>
<path d="M416.955 180.346C415.61 180.346 414.447 179.34 414.29 177.969C414.117 176.494 415.173 175.157 416.647 174.985L446.583 171.472C448.063 171.287 449.393 172.356 449.566 173.831C449.739 175.305 448.682 176.642 447.208 176.815L417.273 180.327C417.166 180.339 417.062 180.346 416.955 180.346Z" fill="#973043"/>
<path d="M595.816 273.686C584.77 251.745 554.724 242.497 511.285 247.642C510.75 247.704 510.348 247.755 510.09 247.777C505.825 247.972 502.426 251.497 502.426 255.814C502.426 260.257 506.026 263.857 510.467 263.857C510.776 263.857 511.712 263.791 513.171 263.618C548.896 259.392 573.783 265.697 581.45 280.922C594.854 307.548 543.09 335.807 523.604 346.444C523.604 346.444 501.719 352.604 498.324 363.194C494.932 373.787 494.018 385.717 501.138 390.544C510.474 396.87 529.687 370.744 527.326 362.751C528.502 362.097 529.85 361.358 531.309 360.565C556.721 346.699 616.217 314.217 595.816 273.686Z" fill="#DE4A65"/>
<path d="M510.468 263.86C510.776 263.86 511.712 263.794 513.171 263.621C542.553 260.147 564.576 263.807 575.748 273.68C575.603 272.756 575.327 271.838 574.726 270.951C567.999 260.974 543.631 258.625 526.474 259.361C509.317 260.096 516.22 247.057 516.22 247.057C514.567 247.223 510.345 247.758 510.087 247.78C505.821 247.975 502.423 251.5 502.423 255.817C502.423 260.26 506.023 263.86 510.464 263.86H510.468Z" fill="#973043"/>
<path d="M395.372 222.87C396.051 222.839 396.617 222.307 396.677 221.616C396.696 221.408 397.189 216.493 401.342 216.198C401.389 216.192 401.436 216.192 401.48 216.188C405.601 215.997 406.837 220.518 406.893 220.716C407.088 221.446 407.83 221.883 408.569 221.691C409.298 221.499 409.732 220.751 409.543 220.018C408.902 217.588 406.324 213.107 401.153 213.462C395.944 213.83 394.162 218.808 393.948 221.386C393.885 222.141 394.448 222.804 395.203 222.861C395.259 222.87 395.322 222.87 395.375 222.867L395.372 222.87Z" fill="#DE4A65"/>
<path d="M456.34 220.034C456.4 220.034 456.456 220.025 456.516 220.012C457.261 219.883 457.758 219.169 457.623 218.424C457.173 215.874 454.935 211.085 449.72 211.205C449.644 211.205 449.575 211.211 449.509 211.214C444.47 211.447 442.374 216.069 441.968 218.512C441.845 219.257 442.345 219.965 443.093 220.087C443.851 220.213 444.543 219.71 444.668 218.965C444.706 218.764 445.555 214.141 449.641 213.95C449.685 213.95 449.729 213.95 449.783 213.943C453.979 213.855 454.888 218.698 454.925 218.905C455.048 219.594 455.658 220.072 456.34 220.034Z" fill="#DE4A65"/>
<path fill-rule="evenodd" clip-rule="evenodd" d="M416.852 224.552C415.472 223.747 410.687 222.09 411.954 228.423C413.224 234.759 419.929 236.988 425.748 237.186C431.576 237.381 438.51 230.064 438.435 226.518C438.369 222.974 434.556 223.301 432.085 224.392C429.774 225.417 419.046 225.842 416.852 224.552Z" fill="#3F0D4A"/>
<path fill-rule="evenodd" clip-rule="evenodd" d="M416.852 224.552C416.506 224.354 415.937 224.093 415.305 223.927C415.418 224.823 415.943 226.304 418.074 226.974C421.237 227.967 427.357 227.823 430.381 226.98C432.666 226.338 433.562 225.093 433.716 223.848C433.144 223.983 432.591 224.175 432.085 224.392C429.774 225.417 419.046 225.842 416.852 224.552Z" fill="white"/>
<path fill-rule="evenodd" clip-rule="evenodd" d="M414.959 233.614C417.754 236.061 421.941 237.061 425.748 237.19C428.511 237.281 431.525 235.683 433.921 233.599C431.494 231.017 428.621 229.043 424.792 228.892C420.998 228.744 417.323 230.498 414.962 233.614H414.959Z" fill="#DE4A65"/>
</g>
<path d="M450.988 329.615C444.97 329.726 438.139 330.379 431.827 331.176C432.534 328.623 433.237 326.103 433.237 326.103C433.237 326.103 433.959 327.666 435.997 327.508C438.891 327.282 442.414 324.448 444.119 319.255C445.931 313.739 445.769 307.474 442.071 306.948C439.083 306.523 437.657 309.179 437.451 309.709C437.451 309.709 438.086 307.296 436.187 307.717C434.369 308.121 434.036 308.936 433.586 310.393C433.506 310.65 431.975 316.382 430.37 322.422C430.346 322.462 430.327 322.507 430.312 322.558C429.916 323.924 429.131 324.381 428.565 324.417C426.731 324.536 430.672 312.368 430.971 311.445C431.366 310.228 431.601 309.305 430.265 308.797C429.364 308.454 428.128 308.578 427.766 309.552C427.613 309.96 427.502 310.261 427.502 310.261C427.502 310.261 426.473 308.722 424.196 308.931C421.918 309.14 419.042 311.929 417.138 316.821C415.235 321.713 414.408 328.731 418.923 329.43C421.214 329.785 423.137 328.466 424.144 326.295C424.144 326.295 423.969 327.749 425.477 328.462C426.07 328.743 427.545 328.633 428.933 327.844C428.568 329.223 428.224 330.53 427.917 331.694C418.17 333.05 410.498 334.564 410.498 334.564C410.5 334.558 415.841 316.39 417.044 312.391C418.051 309.044 416.153 309.772 414.749 310.182C413.254 310.618 412.546 311.886 411.797 314.188C408.525 324.241 405.949 327.37 404.082 326.696C402.368 326.077 407.757 315.401 406.464 313.992C405.343 312.77 403.034 312.835 402.594 313.556C402.154 314.276 402.808 314.934 402.527 315.954C402.247 316.973 400.088 322.491 399.861 323.728C399.634 324.963 397.761 331.812 402.716 331.516C405.644 331.341 407.649 329.113 407.862 328.494C406.948 331.155 405.641 335.45 405.641 335.45C405.641 335.45 399.647 336.958 394.869 341.987C391.075 345.98 388.392 354.58 394.058 355.951C402.865 358.081 407.029 344.558 409.165 339.473C416.305 337.874 421.75 336.812 426.786 336.022C426.712 336.317 426.661 336.518 426.643 336.601C426.185 338.718 426.288 339.566 427.931 339.362C429.703 339.142 429.925 338.227 430.505 336.013C430.544 335.861 430.595 335.674 430.653 335.456C436.621 334.646 442.48 334.138 450.543 333.462C453.049 333.251 453.022 332.83 453.267 331.325C453.543 329.618 451.583 329.605 450.988 329.615ZM435.616 317.947C436.821 313.985 437.928 312.399 438.969 311.951C441.452 310.881 441.923 314.016 440.007 318.775C437.789 324.281 435.198 324.156 434.206 323.069C434.205 323.069 434.343 322.128 435.616 317.947ZM424.527 320.336C423.462 322.922 422.465 324.742 421.093 324.752C419.126 324.767 419.176 321.792 420.576 318.049C421.754 314.903 423.901 312.922 425.06 312.696C426.218 312.473 427.566 312.961 424.527 320.336ZM398.507 350.424C393.825 354.627 395.005 348.871 396.746 346.385C400.051 341.664 404.132 340.47 404.132 340.47C402.058 346.571 399.466 349.562 398.507 350.424Z" fill="white"/>
<path d="M457.214 314.394C458.983 312.334 459.79 307.944 456.823 306.329C453.234 304.375 448.547 307.358 446.613 313.786C444.893 319.502 444.25 326.531 450.085 326.271C452.96 326.144 455.439 324.063 456.337 322.517C456.773 321.767 456.946 320.586 456.87 320.062C456.657 318.59 455.763 318.376 454.244 320.309C453.869 320.735 450.874 323.414 449.41 321.823C448.351 320.673 449.241 318.415 449.283 318.414C451.199 318.273 454.553 317.494 457.214 314.394ZM452.921 309.403C454.532 307.889 456.073 309.7 454.21 312.308C452.329 314.938 450.127 314.871 450.11 314.954C450.335 313.925 451.163 311.056 452.921 309.403Z" fill="white"/>
<path d="M425.466 291.696C425.115 291.468 424.589 291.356 423.891 291.356H421.802V294.267H423.959C425.315 294.267 425.994 293.775 425.994 292.792C425.994 292.287 425.818 291.923 425.466 291.696Z" fill="#10CBB4"/>
<path d="M426.582 278.147C420.271 278.439 415.118 283.538 414.732 289.881C414.47 294.175 416.361 298.035 419.419 300.482C419.734 300.734 419.917 301.115 419.917 301.52V304.285C419.917 304.498 420.036 304.694 420.222 304.792L420.299 304.832C420.479 304.927 420.695 304.911 420.859 304.792L423.219 303.081C423.527 302.857 423.917 302.779 424.287 302.867C425.213 303.089 426.178 303.207 427.17 303.207C434.054 303.207 439.634 297.594 439.634 290.67C439.634 283.551 433.734 277.815 426.582 278.147ZM427.603 294.446C427.319 294.892 426.936 295.222 426.454 295.436C426.152 295.564 425.804 295.652 425.413 295.704C425.021 295.757 424.563 295.783 424.04 295.783H421.012C420.575 295.783 420.263 295.685 420.075 295.487C419.888 295.289 419.794 294.976 419.794 294.544V287.05C419.794 286.61 419.89 286.293 420.081 286.101C420.273 285.908 420.583 285.812 421.01 285.812H424.221C424.693 285.812 425.104 285.841 425.452 285.9C425.799 285.959 426.109 286.073 426.384 286.24C426.618 286.38 426.826 286.558 427.006 286.774C427.186 286.989 427.324 287.228 427.418 287.488C427.512 287.749 427.56 288.023 427.56 288.314C427.56 289.312 427.064 290.041 426.072 290.505C427.374 290.921 428.026 291.733 428.026 292.939C428.029 293.497 427.888 293.999 427.603 294.446ZM434.655 294.84C434.406 295.204 434.041 295.482 433.555 295.67C433.071 295.858 432.482 295.953 431.787 295.953C431.124 295.953 430.556 295.851 430.083 295.647C429.611 295.443 429.26 295.188 429.036 294.883C428.81 294.577 428.698 294.27 428.698 293.961C428.698 293.757 428.769 293.582 428.914 293.437C429.058 293.292 429.24 293.22 429.461 293.22C429.654 293.22 429.804 293.267 429.908 293.362C430.012 293.457 430.111 293.59 430.205 293.764C430.395 294.095 430.621 294.342 430.884 294.505C431.147 294.669 431.507 294.75 431.962 294.75C432.332 294.75 432.634 294.667 432.872 294.502C433.109 294.337 433.226 294.147 433.226 293.933C433.226 293.607 433.102 293.368 432.857 293.22C432.612 293.069 432.207 292.927 431.644 292.792C431.009 292.633 430.491 292.467 430.093 292.292C429.693 292.117 429.375 291.887 429.136 291.601C428.898 291.315 428.778 290.964 428.778 290.547C428.778 290.175 428.888 289.824 429.109 289.494C429.33 289.162 429.656 288.899 430.086 288.701C430.517 288.504 431.036 288.406 431.644 288.406C432.121 288.406 432.552 288.456 432.932 288.556C433.313 288.656 433.63 288.79 433.885 288.958C434.14 289.126 434.333 289.311 434.466 289.515C434.599 289.719 434.666 289.918 434.666 290.113C434.666 290.325 434.595 290.5 434.453 290.637C434.312 290.773 434.109 290.841 433.848 290.841C433.658 290.841 433.497 290.787 433.364 290.678C433.23 290.568 433.078 290.405 432.907 290.188C432.768 290.006 432.604 289.861 432.414 289.753C432.224 289.644 431.967 289.59 431.642 289.59C431.309 289.59 431.032 289.662 430.811 289.804C430.59 289.946 430.479 290.124 430.479 290.338C430.479 290.532 430.561 290.693 430.723 290.818C430.885 290.943 431.103 291.045 431.379 291.127C431.654 291.209 432.032 291.308 432.514 291.426C433.086 291.567 433.554 291.735 433.917 291.929C434.28 292.124 434.556 292.354 434.742 292.62C434.929 292.885 435.023 293.189 435.023 293.528C435.027 294.036 434.903 294.476 434.655 294.84Z" fill="#10CBB4"/>
<path d="M424.8 289.765C425.073 289.67 425.281 289.489 425.425 289.221C425.537 289.03 425.594 288.817 425.594 288.582C425.594 288.079 425.416 287.744 425.06 287.579C424.704 287.414 424.16 287.331 423.431 287.331H421.802V289.908H423.641C424.141 289.907 424.527 289.859 424.8 289.765Z" fill="#10CBB4"/>
<defs>
<clipPath id="clip0_568_10367">
<rect width="320.875" height="430.02" fill="white" transform="matrix(-1 0 0 1 600 133.024)"/>
</clipPath>
</defs>
</svg>
