<svg width="72" height="72" viewBox="0 0 72 72" fill="none" xmlns="http://www.w3.org/2000/svg">
<rect x="7.20001" y="61.2002" width="57.6" height="3.6" fill="#5E186C"/>
<path d="M7.20001 28.8C7.20001 27.8059 8.0059 27 9.00001 27H25.2V61.2H7.20001V28.8Z" fill="#BD77C7"/>
<path d="M46.8 27H63C63.9941 27 64.8 27.8059 64.8 28.8V61.2H46.8V27Z" fill="#BD77C7"/>
<path d="M18 14.3998C18 12.4116 19.6118 10.7998 21.6 10.7998H50.4C52.3882 10.7998 54 12.4116 54 14.3998V61.1998H18V14.3998Z" fill="#F0CEF5"/>
<rect x="27" y="7.2002" width="18" height="18" rx="1" fill="#BD77C7"/>
<rect x="30.6" y="46.7998" width="10.8" height="14.4" fill="#8B3D99"/>
<rect x="21.6" y="37.7998" width="7.2" height="5.4" fill="#8B3D99"/>
<rect x="21.6" y="28.7998" width="7.2" height="5.4" fill="#8B3D99"/>
<rect x="32.4" y="37.7998" width="7.2" height="5.4" fill="#8B3D99"/>
<rect x="32.4" y="28.7998" width="7.2" height="5.4" fill="#8B3D99"/>
<rect x="43.2" y="37.7998" width="7.2" height="5.4" fill="#8B3D99"/>
<rect x="43.2" y="28.7998" width="7.2" height="5.4" fill="#8B3D99"/>
<rect x="9" y="30.6001" width="9" height="3.6" fill="#8B3D99"/>
<rect x="9" y="37.7998" width="9" height="3.6" fill="#8B3D99"/>
<rect x="9" y="45" width="9" height="3.6" fill="#8B3D99"/>
<rect x="9" y="52.2002" width="9" height="3.6" fill="#8B3D99"/>
<rect x="54" y="30.6001" width="9" height="3.6" fill="#8B3D99"/>
<rect x="54" y="37.7998" width="9" height="3.6" fill="#8B3D99"/>
<rect x="54" y="45" width="9" height="3.6" fill="#8B3D99"/>
<rect x="54" y="52.2002" width="9" height="3.6" fill="#8B3D99"/>
</svg>
