<svg width="88" height="88" viewBox="0 0 88 88" fill="none" xmlns="http://www.w3.org/2000/svg">
<rect width="88" height="88" rx="16" fill="#F0CEF5"/>
<path fill-rule="evenodd" clip-rule="evenodd" d="M40.436 27.7507C49.4254 25.7123 58.309 31.3364 60.2776 40.3123C62.2457 49.2878 56.553 58.2165 47.5636 60.2548C44.9548 60.8462 42.3553 60.7924 39.9312 60.1988C39.3476 60.0559 38.7842 59.8485 38.2132 59.6777C37.7398 59.5362 35.99 60.1403 32.9638 61.4898C32.8134 61.5569 32.6465 61.5779 32.4842 61.5502C32.0809 61.4814 31.7951 61.1336 31.7909 60.7385L31.8029 60.5886L31.8791 60.1235C32.2837 57.5458 32.2218 55.9507 31.6935 55.338C31.3576 54.9486 31.0142 54.5653 30.7012 54.1541C29.2923 52.3024 28.2543 50.1205 27.7225 47.6937C25.7539 38.7173 31.4457 29.7891 40.436 27.7507ZM57.0216 41.0264C55.4499 33.86 48.3605 29.3718 41.1731 31.0015C33.9669 32.6354 29.4027 39.7948 30.9785 46.9801C31.3538 48.6922 32.0483 50.2771 33.0199 51.6762L33.3539 52.1356C33.4839 52.3063 33.6122 52.4614 33.8689 52.7586L34.2178 53.1611C34.9964 54.064 35.3764 55.1446 35.4693 56.5236L35.4849 56.8366L35.6897 56.7677C37.1102 56.2928 38.0513 56.198 38.9819 56.4327L39.3337 56.5344L40.3864 56.8682C40.5193 56.9081 40.6204 56.9358 40.7239 56.9611C42.7037 57.4459 44.7788 57.4682 46.8265 57.004C54.032 55.3701 58.5969 48.2101 57.0216 41.0264Z" fill="#742384"/>
<path fill-rule="evenodd" clip-rule="evenodd" d="M36 38.0974V49.2522C36 49.8597 36.4899 50.3496 37.0974 50.3496H40.4251C42.863 50.3496 44.8501 48.4526 44.8501 46.1244C44.8501 44.9935 44.3812 43.9643 43.6195 43.2048C44.3009 42.5829 44.7286 41.6884 44.7286 40.6961C44.7286 38.6579 43.0707 37 41.0326 37H37.0974C36.4899 37 36 37.4899 36 38.0974ZM41.3265 41.8993H40.449L40.4251 41.8993H38.191V39.1949H41.0287C41.8557 39.1949 42.5298 39.869 42.5298 40.6961C42.5298 41.3584 41.9889 41.8993 41.3265 41.8993ZM38.1949 48.1547V44.0942H40.4425C41.6652 44.1028 42.6552 45.0088 42.6552 46.1244C42.6552 47.2454 41.6558 48.1547 40.4251 48.1547H38.1949Z" fill="#742384"/>
<path d="M52.6667 47.9545C52.6667 49.5298 51.477 50.8819 49.3489 50.8819C48.0271 50.8819 46.8507 50.3437 46.3484 49.9499C46.0708 49.7267 45.8726 49.4379 46.2162 48.9522L46.626 48.3615C46.8904 47.9808 47.1944 47.9545 47.6306 48.1908C47.6766 48.2147 47.7293 48.2445 47.7885 48.2781C48.1199 48.4659 48.6535 48.7684 49.3489 48.7684C50.0363 48.7684 50.3535 48.4796 50.3535 48.112C50.3535 47.5794 49.6794 47.2946 48.8728 46.9539C47.6716 46.4464 46.1766 45.8149 46.1766 44.0556C46.1766 42.3228 47.6306 41.1807 49.5472 41.1807C50.6443 41.1807 51.6489 41.5614 52.0983 41.8764C52.4816 42.1521 52.5213 42.4803 52.323 42.861L52.0058 43.478C51.7414 43.99 51.3845 43.9112 51.0144 43.7274C50.9968 43.719 50.9792 43.7105 50.9616 43.702C50.5427 43.4998 50.117 43.2942 49.5208 43.2942C48.7938 43.2942 48.4898 43.583 48.4898 43.9506C48.4898 44.5024 49.1721 44.7776 49.9852 45.1055C51.1839 45.5888 52.6667 46.1868 52.6667 47.9545Z" fill="#742384"/>
</svg>
