<svg width="400" height="400" viewBox="0 0 400 400" fill="none" xmlns="http://www.w3.org/2000/svg">
<g clip-path="url(#clip0_814_6109)">
<path d="M600 221.691C600 357.716 502.649 494.084 300 494.084C134.315 494.084 0 383.813 0 247.789C0 171.999 31.1881 79.7864 111.386 56.9511C191.584 34.1158 199.187 110.001 285.326 110.001C371.465 110.001 423.913 61.1768 510.326 82.3339C575.543 98.3015 600 156.427 600 221.691Z" fill="#F6E1F9"/>
<mask id="mask0_814_6109" style="mask-type:alpha" maskUnits="userSpaceOnUse" x="0" y="52" width="600" height="443">
<path d="M600 221.691C600 357.716 502.649 494.084 300 494.084C134.315 494.084 0 383.813 0 247.789C0 171.999 31.1881 79.7864 111.386 56.9511C191.584 34.1158 199.187 110.001 285.326 110.001C371.465 110.001 423.913 61.1768 510.326 82.3339C575.543 98.3015 600 156.427 600 221.691Z" fill="#F6E1F9"/>
</mask>
<g mask="url(#mask0_814_6109)">
<path d="M368.233 273.319C378.21 275.198 388.236 276.813 398.312 278.163C450.486 285.18 503.441 285.043 555.662 277.759C580.199 274.332 597.312 251.693 593.903 227.16C590.493 202.626 567.833 185.527 543.3 188.937C499.14 195.092 454.384 195.204 410.271 189.285C361.691 182.763 314.458 168.993 269.846 148.38C247.367 137.976 220.714 147.794 210.328 170.277C199.943 192.76 209.743 219.41 232.226 229.795C275.713 249.887 321.348 264.487 368.233 273.319Z" fill="#DCAC82"/>
<path d="M342.231 247.9C317.894 243.316 301.882 219.871 306.466 195.534C311.05 171.198 334.495 155.185 358.831 159.769C383.168 164.353 399.181 187.798 394.597 212.135C390.013 236.472 366.568 252.484 342.231 247.9Z" fill="#DCAC82"/>
<path d="M307.034 150.012L373.52 162.535L356.916 250.684L290.43 238.16L307.034 150.012Z" fill="#DCAC82"/>
<path d="M344.736 193.191C353.086 199.144 367.939 200.603 372.606 200.266L358.033 172.881L306.584 163.19L299.279 201.968L332.769 208.276C337.636 209.193 342.325 205.991 343.242 201.124L344.736 193.191Z" fill="#BE906A"/>
<path d="M304.819 149.595L334.255 155.14C340.339 156.286 344.342 162.147 343.196 168.231C342.05 174.315 336.189 178.319 330.105 177.173L300.669 171.628C294.585 170.482 290.581 164.621 291.727 158.537C292.873 152.452 298.735 148.449 304.819 149.595Z" fill="#DCAC82"/>
<path d="M302.052 164.284L331.488 169.828C337.572 170.974 341.575 176.836 340.429 182.92C339.283 189.004 333.422 193.007 327.338 191.861L297.902 186.316C291.818 185.17 287.815 179.309 288.961 173.225C290.107 167.141 295.968 163.138 302.052 164.284Z" fill="#DCAC82"/>
<path d="M299.285 178.972L328.721 184.516C334.805 185.663 338.808 191.524 337.662 197.608C336.516 203.692 330.655 207.695 324.571 206.549L295.135 201.005C289.051 199.859 285.048 193.997 286.194 187.913C287.34 181.829 293.201 177.826 299.285 178.972Z" fill="#DCAC82"/>
<path d="M296.517 193.671L325.952 199.216C332.037 200.362 336.04 206.223 334.894 212.307C333.748 218.392 327.886 222.395 321.802 221.249L292.366 215.704C286.282 214.558 282.279 208.697 283.425 202.613C284.571 196.529 290.432 192.525 296.517 193.671Z" fill="#DCAC82"/>
<path fill-rule="evenodd" clip-rule="evenodd" d="M333.728 156.257C339.322 157.311 343.008 162.707 341.954 168.301C340.9 173.896 335.504 177.581 329.91 176.527L299.064 170.717C298.577 170.625 298.108 170.946 298.017 171.432C297.925 171.919 298.245 172.388 298.732 172.48L329.578 178.29C336.145 179.527 342.479 175.201 343.716 168.633C344.954 162.066 340.628 155.732 334.06 154.495C333.573 154.403 333.104 154.723 333.013 155.21C332.921 155.697 333.241 156.165 333.728 156.257Z" fill="#9F7554"/>
<path fill-rule="evenodd" clip-rule="evenodd" d="M330.961 170.946C336.556 172 340.241 177.396 339.187 182.99C338.133 188.584 332.737 192.27 327.143 191.216L296.297 185.406C295.811 185.314 295.342 185.634 295.25 186.121C295.158 186.608 295.479 187.077 295.965 187.168L326.811 192.979C333.379 194.216 339.713 189.89 340.95 183.322C342.187 176.754 337.861 170.42 331.293 169.183C330.806 169.092 330.338 169.412 330.246 169.899C330.154 170.385 330.474 170.854 330.961 170.946Z" fill="#9F7554"/>
<path fill-rule="evenodd" clip-rule="evenodd" d="M328.192 185.645C333.786 186.699 337.472 192.095 336.418 197.689C335.364 203.284 329.968 206.969 324.374 205.915L293.528 200.105C293.041 200.014 292.573 200.334 292.481 200.821C292.389 201.307 292.709 201.776 293.196 201.868L324.042 207.678C330.61 208.915 336.944 204.589 338.181 198.021C339.418 191.454 335.092 185.12 328.524 183.883C328.037 183.791 327.569 184.111 327.477 184.598C327.385 185.085 327.705 185.554 328.192 185.645Z" fill="#9F7554"/>
<path fill-rule="evenodd" clip-rule="evenodd" d="M325.437 200.337C331.032 201.39 334.717 206.787 333.663 212.381C332.61 217.975 327.214 221.661 321.619 220.607C321.132 220.515 320.664 220.835 320.572 221.322C320.48 221.809 320.8 222.278 321.287 222.37C327.855 223.607 334.189 219.281 335.426 212.713C336.663 206.145 332.337 199.811 325.769 198.574C325.283 198.482 324.814 198.803 324.722 199.289C324.63 199.776 324.951 200.245 325.437 200.337Z" fill="#9F7554"/>
<g clip-path="url(#clip1_814_6109)">
<path d="M409.831 137.617L264.721 110.284C261.96 109.764 259.301 111.57 258.783 114.319L242.398 201.311C241.88 204.059 243.699 206.708 246.461 207.229L391.57 234.562C394.332 235.082 396.991 233.276 397.508 230.527L413.894 143.535C414.412 140.787 412.592 138.138 409.831 137.617Z" fill="#10CBB4"/>
<path d="M353.113 172.988L326.788 168.03C326.443 167.965 326.111 168.191 326.046 168.534L323.177 183.764C323.112 184.108 323.34 184.439 323.685 184.504L350.01 189.463C350.355 189.528 350.688 189.302 350.752 188.958L353.621 173.728C353.686 173.385 353.458 173.053 353.113 172.988Z" fill="white"/>
<path d="M280.076 135.161L264.109 132.154C263.764 132.089 263.432 132.314 263.367 132.658L261.663 141.704C261.599 142.047 261.826 142.378 262.171 142.443L278.138 145.451C278.483 145.516 278.815 145.29 278.88 144.947L280.584 135.901C280.649 135.557 280.421 135.226 280.076 135.161Z" fill="#F4C12A"/>
<path d="M275.815 161.352L259.973 158.368C259.194 158.221 258.445 158.727 258.3 159.497C258.155 160.268 258.669 161.011 259.448 161.158L275.289 164.142C276.069 164.289 276.818 163.783 276.963 163.013C277.108 162.242 276.594 161.499 275.815 161.352Z" fill="#008C7B"/>
<path d="M292.567 164.507L276.725 161.524C275.946 161.377 275.197 161.882 275.052 162.653C274.907 163.423 275.421 164.167 276.2 164.314L292.041 167.298C292.821 167.444 293.57 166.939 293.715 166.168C293.86 165.398 293.346 164.654 292.567 164.507Z" fill="#008C7B"/>
<path d="M309.319 167.663L293.478 164.679C292.699 164.532 291.949 165.038 291.804 165.808C291.659 166.579 292.173 167.322 292.952 167.469L308.794 170.453C309.573 170.6 310.322 170.094 310.467 169.324C310.613 168.553 310.098 167.81 309.319 167.663Z" fill="#008C7B"/>
<path d="M335.024 179.154L258.764 164.789C257.985 164.643 257.235 165.148 257.09 165.919C256.945 166.689 257.459 167.433 258.238 167.58L334.499 181.944C335.278 182.091 336.027 181.585 336.173 180.815C336.318 180.044 335.804 179.301 335.024 179.154Z" fill="#008C7B"/>
<path d="M340.687 161.054C340.491 161.017 340.286 160.923 340.131 160.765C339.691 160.351 339.676 159.649 340.091 159.212C342.625 156.561 344.32 153.255 345 149.647C345.679 146.04 345.303 142.344 343.907 138.952C343.679 138.394 343.946 137.764 344.51 137.52C345.07 137.294 345.704 137.561 345.95 138.123C347.514 141.895 347.92 146.02 347.161 150.054C346.401 154.088 344.507 157.762 341.692 160.728C341.417 161.008 341.044 161.121 340.687 161.054Z" fill="white"/>
<path d="M338.698 156.878C338.502 156.841 338.298 156.747 338.142 156.589C337.703 156.175 337.687 155.473 338.12 155.039C339.978 153.126 341.225 150.729 341.724 148.081C342.223 145.433 341.933 142.747 340.898 140.289C340.671 139.731 340.92 139.097 341.483 138.853C342.044 138.628 342.681 138.876 342.927 139.438C344.127 142.295 344.464 145.414 343.888 148.47C343.312 151.527 341.864 154.309 339.706 156.534C339.432 156.814 339.062 156.91 338.705 156.842L338.698 156.878Z" fill="white"/>
<path d="M336.502 153.427C336.288 153.386 336.102 153.296 335.929 153.134C335.492 152.703 335.491 152.021 335.924 151.588C337.248 150.255 338.136 148.582 338.488 146.716C338.839 144.85 338.62 142.968 337.872 141.245C337.627 140.683 337.875 140.049 338.439 139.806C339.003 139.562 339.64 139.811 339.886 140.373C340.817 142.499 341.08 144.83 340.649 147.123C340.217 149.415 339.126 151.473 337.482 153.133C337.211 153.394 336.842 153.49 336.502 153.427Z" fill="white"/>
<path d="M334.406 149.617C334.174 149.573 333.973 149.461 333.803 149.282C333.388 148.836 333.426 148.144 333.873 147.731C334.61 147.06 335.084 146.211 335.265 145.251C335.446 144.292 335.316 143.311 334.871 142.435C334.604 141.888 334.839 141.233 335.37 140.965C335.919 140.7 336.578 140.935 336.848 141.464C337.487 142.781 337.697 144.219 337.426 145.659C337.155 147.098 336.458 148.347 335.365 149.337C335.097 149.581 334.749 149.663 334.409 149.599L334.406 149.617Z" fill="white"/>
</g>
<path d="M348.018 217.143L392.101 225.446C394.517 210.88 392.042 199.792 390.231 193.902C384.652 175.658 370.411 160.857 354.799 150.524C347.172 145.474 345.322 145.8 333.861 138.239C327.138 133.815 321.418 129.489 316.732 125.686C312.156 121.977 305.54 122.319 301.365 126.46C296.901 130.876 296.764 138.096 301.155 142.592C303.664 145.163 306.505 147.815 309.714 150.446C315.171 154.905 320.426 158.304 325.035 160.87C324.317 163.034 316.594 187.369 331.376 205.302C336.876 211.959 343.531 215.385 348.018 217.143Z" fill="#DCAC82"/>
<path d="M65.8793 330.998C56.2421 334.19 46.5202 337.125 36.7138 339.806C-14.0605 353.709 -66.5623 360.627 -119.288 360.363C-144.063 360.235 -164.039 340.077 -163.927 315.308C-163.816 290.538 -143.635 270.574 -118.866 270.685C-74.2795 270.904 -29.9078 265.054 13.0237 253.313C60.3022 240.378 105.28 220.44 146.749 194.068C167.643 180.764 195.366 186.945 208.654 207.844C221.941 228.743 215.777 256.461 194.878 269.748C154.455 295.452 111.171 316.001 65.8793 330.998Z" fill="#815C41"/>
<path d="M88.2644 302.342C111.774 294.557 124.521 269.189 116.737 245.679C108.952 222.17 83.5831 209.423 60.0738 217.207C36.5644 224.992 23.817 250.361 31.6017 273.87C39.3863 297.379 64.7551 310.127 88.2644 302.342Z" fill="#815C41"/>
<path d="M110.11 200.639L45.8843 221.906L74.0806 307.058L138.306 285.791L110.11 200.639Z" fill="#815C41"/>
<path d="M78.4944 248.455C71.012 255.467 56.4861 258.892 51.8151 259.179L62.6111 230.097L112.311 213.64L124.715 251.099L92.3641 261.812C87.6623 263.369 82.5889 260.82 81.032 256.118L78.4944 248.455Z" fill="#624029"/>
<path d="M112.25 199.93L83.8147 209.346C77.9374 211.292 74.7505 217.634 76.6967 223.511C78.6428 229.389 84.985 232.576 90.8624 230.63L119.297 221.214C125.175 219.268 128.362 212.925 126.415 207.048C124.469 201.171 118.127 197.984 112.25 199.93Z" fill="#815C41"/>
<path d="M116.948 214.119L88.5129 223.535C82.6356 225.481 79.4488 231.823 81.3949 237.701C83.3411 243.578 89.6833 246.765 95.5606 244.819L123.996 235.403C129.873 233.457 133.06 227.115 131.114 221.237C129.168 215.36 122.825 212.173 116.948 214.119Z" fill="#815C41"/>
<path d="M121.647 228.309L93.2117 237.725C87.3343 239.671 84.1475 246.013 86.0937 251.89C88.0398 257.768 94.382 260.955 100.259 259.008L128.694 249.593C134.572 247.647 137.759 241.304 135.812 235.427C133.866 229.55 127.524 226.363 121.647 228.309Z" fill="#815C41"/>
<path d="M126.349 242.509L97.9138 251.925C92.0365 253.871 88.8496 260.213 90.7958 266.09C92.742 271.968 99.0842 275.155 104.961 273.208L133.397 263.793C139.274 261.847 142.461 255.504 140.515 249.627C138.568 243.75 132.226 240.563 126.349 242.509Z" fill="#815C41"/>
<path fill-rule="evenodd" clip-rule="evenodd" d="M84.4857 210.384C79.0816 212.173 76.1477 218.012 77.9371 223.416C79.7266 228.82 85.5655 231.754 90.9696 229.965L120.767 220.098C121.237 219.942 121.744 220.197 121.9 220.667C122.056 221.137 121.801 221.645 121.331 221.801L91.5334 231.667C85.1889 233.768 78.3353 230.324 76.2345 223.98C74.1336 217.635 77.5774 210.782 83.9219 208.681C84.3921 208.525 84.8995 208.78 85.0552 209.25C85.2109 209.72 84.9559 210.228 84.4857 210.384Z" fill="#624029"/>
<path fill-rule="evenodd" clip-rule="evenodd" d="M89.1845 224.573C83.7803 226.362 80.8464 232.201 82.6359 237.605C84.4253 243.009 90.2642 245.943 95.6683 244.154L125.466 234.287C125.936 234.131 126.443 234.386 126.599 234.856C126.754 235.327 126.5 235.834 126.029 235.99L96.2321 245.856C89.8876 247.957 83.034 244.513 80.9332 238.169C78.8323 231.824 82.2762 224.971 88.6206 222.87C89.0908 222.714 89.5982 222.969 89.7539 223.439C89.9096 223.91 89.6546 224.417 89.1845 224.573Z" fill="#624029"/>
<path fill-rule="evenodd" clip-rule="evenodd" d="M93.8861 238.772C88.482 240.562 85.5481 246.401 87.3375 251.805C89.127 257.209 94.9659 260.143 100.37 258.353L130.167 248.487C130.637 248.331 131.145 248.586 131.3 249.056C131.456 249.526 131.201 250.034 130.731 250.189L100.934 260.056C94.5893 262.157 87.7357 258.713 85.6348 252.369C83.534 246.024 86.9778 239.171 93.3223 237.07C93.7925 236.914 94.2999 237.169 94.4556 237.639C94.6113 238.109 94.3563 238.617 93.8861 238.772Z" fill="#624029"/>
<path fill-rule="evenodd" clip-rule="evenodd" d="M98.5736 252.966C93.1695 254.755 90.2356 260.594 92.025 265.998C93.8145 271.402 99.6534 274.336 105.057 272.547C105.528 272.391 106.035 272.646 106.191 273.116C106.346 273.586 106.091 274.094 105.621 274.25C99.2768 276.35 92.4232 272.907 90.3223 266.562C88.2215 260.218 91.6653 253.364 98.0098 251.263C98.48 251.107 98.9874 251.362 99.1431 251.833C99.2988 252.303 99.0438 252.81 98.5736 252.966Z" fill="#624029"/>
<g clip-path="url(#clip2_814_6109)">
<path d="M196.7 139.09L56.524 185.506C53.8561 186.39 52.406 189.258 53.2851 191.913L81.1114 275.947C81.9905 278.602 84.8659 280.038 87.5338 279.155L227.71 232.738C230.378 231.855 231.828 228.987 230.949 226.332L203.122 142.297C202.243 139.642 199.368 138.207 196.7 139.09Z" fill="#003E75"/>
<path d="M164.23 197.517L138.8 205.938C138.467 206.048 138.285 206.407 138.395 206.739L143.267 221.451C143.377 221.783 143.736 221.962 144.07 221.852L169.5 213.431C169.833 213.321 170.015 212.962 169.905 212.63L165.033 197.918C164.923 197.586 164.564 197.407 164.23 197.517Z" fill="white"/>
<path d="M82.0114 199.825L66.5877 204.932C66.2542 205.043 66.073 205.401 66.1829 205.733L69.0763 214.471C69.1862 214.803 69.5457 214.983 69.8791 214.872L85.3028 209.765C85.6363 209.655 85.8176 209.296 85.7077 208.964L82.8142 200.226C82.7043 199.894 82.3449 199.715 82.0114 199.825Z" fill="#F4C12A"/>
<path d="M90.9769 224.8L75.674 229.867C74.9212 230.116 74.5108 230.922 74.7573 231.666C75.0037 232.41 75.8137 232.812 76.5665 232.562L91.8694 227.495C92.6221 227.246 93.0325 226.44 92.7861 225.696C92.5396 224.952 91.7296 224.551 90.9769 224.8Z" fill="#1172C9"/>
<path d="M107.16 219.441L91.8566 224.508C91.1039 224.758 90.6934 225.563 90.9399 226.307C91.1864 227.052 91.9964 227.453 92.7491 227.204L108.052 222.136C108.805 221.887 109.215 221.082 108.969 220.337C108.722 219.593 107.912 219.192 107.16 219.441Z" fill="#1172C9"/>
<path d="M123.342 214.083L108.039 219.15C107.286 219.399 106.876 220.204 107.123 220.949C107.369 221.693 108.179 222.094 108.932 221.845L124.235 216.778C124.987 216.529 125.398 215.723 125.151 214.979C124.905 214.235 124.095 213.833 123.342 214.083Z" fill="#1172C9"/>
<path d="M151.396 211.676L77.7277 236.07C76.9749 236.319 76.5645 237.125 76.811 237.869C77.0574 238.613 77.8674 239.014 78.6202 238.765L152.288 214.372C153.041 214.122 153.451 213.317 153.205 212.573C152.958 211.828 152.148 211.427 151.396 211.676Z" fill="#1172C9"/>
<path d="M147.578 193.1C147.388 193.163 147.164 193.18 146.951 193.117C146.366 192.967 146.012 192.361 146.163 191.777C147.095 188.23 146.975 184.517 145.822 181.032C144.668 177.547 142.547 174.497 139.683 172.206C139.213 171.829 139.141 171.148 139.516 170.662C139.897 170.193 140.58 170.119 141.067 170.491C144.264 173.033 146.619 176.444 147.909 180.341C149.199 184.238 149.323 188.369 148.298 192.328C148.194 192.705 147.923 192.985 147.578 193.1Z" fill="white"/>
<path d="M143.814 190.411C143.624 190.474 143.4 190.491 143.188 190.428C142.603 190.279 142.248 189.672 142.417 189.083C143.115 186.509 143.044 183.808 142.197 181.25C141.35 178.692 139.796 176.483 137.699 174.834C137.229 174.456 137.14 173.781 137.515 173.295C137.895 172.826 138.574 172.735 139.06 173.107C141.495 175.025 143.301 177.589 144.279 180.542C145.257 183.494 145.338 186.63 144.529 189.622C144.424 189.999 144.148 190.262 143.803 190.377L143.814 190.411Z" fill="white"/>
<path d="M140.221 188.456C140.014 188.525 139.807 188.536 139.577 188.479C138.986 188.312 138.655 187.717 138.824 187.128C139.335 185.32 139.302 183.426 138.705 181.624C138.108 179.821 137.005 178.282 135.515 177.137C135.028 176.764 134.939 176.089 135.314 175.603C135.689 175.117 136.367 175.026 136.854 175.398C138.699 176.806 140.059 178.718 140.792 180.933C141.526 183.147 141.569 185.476 140.936 187.724C140.825 188.085 140.548 188.348 140.221 188.456Z" fill="white"/>
<path d="M136.54 186.139C136.316 186.214 136.086 186.214 135.851 186.139C135.272 185.95 134.969 185.326 135.161 184.748C135.48 183.805 135.483 182.832 135.177 181.905C134.87 180.978 134.281 180.182 133.467 179.632C132.968 179.283 132.856 178.597 133.191 178.105C133.543 177.607 134.233 177.493 134.725 177.825C135.923 178.667 136.804 179.823 137.264 181.214C137.725 182.604 137.72 184.034 137.244 185.43C137.128 185.774 136.863 186.014 136.535 186.122L136.54 186.139Z" fill="white"/>
</g>
<path d="M78.4319 272.629L35.8474 286.73C31.5137 272.615 32.4891 261.296 33.4994 255.218C36.5996 236.393 48.7421 219.827 62.8386 207.507C69.7249 201.486 71.6021 201.563 81.9543 192.543C88.0281 187.263 93.1201 182.213 97.258 177.82C101.299 173.535 107.902 172.992 112.592 176.541C117.604 180.322 118.701 187.46 114.948 192.5C112.804 195.383 110.342 198.39 107.511 201.425C102.697 206.571 97.9416 210.639 93.7154 213.796C94.7153 215.846 105.611 238.935 93.3484 258.677C88.785 266.008 82.6451 270.289 78.4319 272.629Z" fill="#815C41"/>
</g>
<g clip-path="url(#clip3_814_6109)">
<path d="M253.951 381.928L253.951 74.8442C253.951 67.9475 248.319 62.3567 241.372 62.3567L104.678 62.3567C97.7304 62.3567 92.0983 67.9475 92.0983 74.8442L92.0983 381.928C92.0983 388.825 97.7304 394.416 104.678 394.416H241.372C248.319 394.416 253.951 388.825 253.951 381.928Z" fill="#403556"/>
<path d="M253.951 375.508L253.951 68.424C253.951 61.5274 248.319 55.9365 241.372 55.9365L104.678 55.9365C97.7304 55.9365 92.0983 61.5274 92.0983 68.424L92.0983 375.508C92.0983 382.405 97.7304 387.995 104.678 387.995H241.372C248.319 387.995 253.951 382.405 253.951 375.508Z" fill="#2C2044"/>
<path d="M248.712 355.091L248.712 75.4864C248.712 72.0646 245.918 69.2908 242.471 69.2908L108.785 69.2908C105.338 69.2908 102.544 72.0646 102.544 75.4864L102.544 355.091C102.544 358.513 105.338 361.287 108.785 361.287H242.471C245.918 361.287 248.712 358.513 248.712 355.091Z" fill="#742384"/>
<path d="M177.115 65.032H209.712C211.605 65.032 213.14 63.5085 213.14 61.6292V61.2119C213.14 59.3326 211.605 57.8091 209.712 57.8091L177.115 57.8091C175.222 57.8091 173.687 59.3326 173.687 61.2119V61.6292C173.687 63.5085 175.222 65.032 177.115 65.032Z" fill="#544A69"/>
</g>
<g clip-path="url(#clip4_814_6109)">
<path fill-rule="evenodd" clip-rule="evenodd" d="M325.441 260.087C326.717 263.079 329.103 265.461 332.091 266.736C335.903 268.362 341.35 270.689 345.694 272.542C348.349 273.676 348.345 277.433 345.694 278.567L332.091 284.374C329.099 285.649 326.717 288.031 325.441 291.023C323.816 294.835 321.488 300.282 319.635 304.626C318.501 307.281 314.743 307.281 313.609 304.626C311.756 300.282 309.429 294.835 307.803 291.023C306.528 288.031 304.141 285.649 301.154 284.374C297.342 282.748 291.895 280.421 287.55 278.567C284.895 277.433 284.895 273.676 287.55 272.542C291.895 270.689 297.342 268.362 301.154 266.736C304.146 265.461 306.528 263.074 307.803 260.087C309.429 256.275 311.756 250.828 313.609 246.483C314.743 243.828 318.501 243.828 319.635 246.483C321.488 250.828 323.816 256.275 325.441 260.087Z" fill="#E3B2EB"/>
</g>
<g clip-path="url(#clip5_814_6109)">
<path fill-rule="evenodd" clip-rule="evenodd" d="M113.717 89.7369C115.225 93.2944 118.048 96.1263 121.582 97.6425C126.091 99.5755 132.534 102.342 137.673 104.546C140.814 105.895 140.808 110.362 137.673 111.71L121.582 118.614C118.043 120.13 115.225 122.962 113.717 126.519C111.794 131.052 109.041 137.528 106.848 142.693C105.507 145.85 101.063 145.85 99.7215 142.693C97.529 137.528 94.7762 131.052 92.853 126.519C91.3447 122.962 88.5219 120.13 84.988 118.614C80.4791 116.681 74.0362 113.914 68.897 111.71C65.7563 110.362 65.7563 105.895 68.897 104.546C74.0362 102.342 80.4791 99.5755 84.988 97.6425C88.5273 96.1263 91.3447 93.289 92.853 89.7369C94.7762 85.2047 97.529 78.7286 99.7215 73.5629C101.063 70.4061 105.507 70.4061 106.848 73.5629C109.041 78.7286 111.794 85.2047 113.717 89.7369Z" fill="#E3B2EB"/>
<path fill-rule="evenodd" clip-rule="evenodd" d="M47.059 133.835C47.6227 135.165 48.6777 136.223 49.9984 136.79C51.6836 137.512 54.0915 138.546 56.0122 139.37C57.186 139.874 57.184 141.543 56.0122 142.047L49.9984 144.628C48.6757 145.194 47.6227 146.253 47.059 147.582C46.3402 149.276 45.3114 151.696 44.492 153.627C43.9906 154.807 42.3296 154.807 41.8283 153.627C41.0089 151.696 39.9801 149.276 39.2613 147.582C38.6976 146.253 37.6426 145.194 36.3219 144.628C34.6367 143.905 32.2288 142.871 30.3081 142.047C29.1343 141.543 29.1343 139.874 30.3081 139.37C32.2288 138.546 34.6367 137.512 36.3219 136.79C37.6446 136.223 38.6976 135.163 39.2613 133.835C39.9801 132.141 41.0089 129.721 41.8283 127.79C42.3296 126.611 43.9906 126.611 44.492 127.79C45.3114 129.721 46.3402 132.141 47.059 133.835Z" fill="#E3B2EB"/>
</g>
<path fill-rule="evenodd" clip-rule="evenodd" d="M226.677 142.701L217.814 159.109C217.449 159.781 216.616 160.027 215.954 159.66C215.291 159.298 215.044 158.457 215.409 157.785L224.272 141.375C224.637 140.706 225.47 140.46 226.132 140.824C226.795 141.189 227.039 142.029 226.677 142.701ZM207.729 160.084C202.611 160.084 201.203 156.691 200.842 154.996C200.688 154.328 200.684 153.858 200.684 153.632C200.684 152.832 201.327 152.183 202.116 152.183C202.856 152.183 203.457 152.747 203.538 153.467C203.538 153.473 203.544 153.477 203.544 153.483C203.551 153.527 203.558 153.605 203.565 153.709C203.574 153.79 203.588 153.872 203.588 153.959C203.588 154.016 203.592 154.074 203.594 154.135C203.608 154.253 203.622 154.381 203.644 154.513C203.698 154.794 203.792 155.107 203.949 155.425C203.969 155.455 203.982 155.486 203.999 155.516C204.484 156.427 205.481 157.322 207.408 157.424C210.308 157.508 211.164 156.528 211.174 155.313C211.064 153.906 210.98 152.892 207.631 151.511C203.715 149.897 201.216 148.921 201.216 145.542C201.216 142.165 204.324 140.77 207.17 140.77C207.886 140.77 208.508 140.855 209.063 140.99C210.174 141.212 211.404 141.672 212.324 142.584V142.577C212.559 142.786 212.806 143.094 213.024 143.464C213.047 143.503 213.07 143.539 213.091 143.576C213.147 143.677 213.201 143.786 213.254 143.897C213.271 143.934 213.288 143.968 213.305 144.005C213.586 144.633 213.786 145.376 213.786 146.135C213.786 146.27 213.803 146.497 213.756 146.75C213.753 146.773 213.746 146.794 213.743 146.818C213.73 146.875 213.709 146.932 213.686 146.993C213.676 147.02 213.669 147.044 213.656 147.068C213.649 147.088 213.639 147.108 213.626 147.132C213.388 147.604 212.91 147.932 212.348 147.932C211.853 147.932 211.425 147.679 211.167 147.297C211.148 147.263 211.127 147.23 211.11 147.195C211.07 147.129 211.037 147.054 211.01 146.979C211.007 146.97 211 146.96 211 146.95C210.987 146.913 210.974 146.872 210.967 146.835C210.899 146.606 210.87 146.359 210.87 146.153C210.87 146.108 210.866 146.068 210.863 146.024C210.863 145.956 210.859 145.896 210.853 145.832C210.81 145.473 210.705 145.191 210.579 144.961C210.565 144.937 210.552 144.914 210.539 144.89C210.512 144.849 210.488 144.812 210.462 144.771C209.746 143.731 208.217 143.204 207.1 143.204C205.595 143.204 203.979 144.039 203.979 145.572C203.979 147.101 205.428 148.02 207.882 148.837C212.679 150.61 213.669 152.045 214.101 153.794C214.576 155.708 213.753 160.084 207.729 160.084ZM234.474 144.062C231.819 132.035 219.823 124.494 207.689 127.226C195.551 129.962 187.867 141.928 190.526 153.956C191.402 157.931 193.299 161.415 195.888 164.201C197.216 165.636 194.255 173.55 195.901 174.583C197.256 175.434 203.176 169.472 204.688 170.019C208.592 171.427 212.943 171.774 217.312 170.792C229.447 168.059 237.133 156.093 234.474 144.062Z" fill="#10CBB4"/>
<path fill-rule="evenodd" clip-rule="evenodd" d="M259.774 166.063C259.202 166.204 258.726 166.595 258.311 167.008C256.343 168.99 254.757 172.773 254.475 174.294C254.483 174.247 254.545 174.237 254.692 174.213C254.935 174.173 255.41 174.096 256.26 173.752C256.755 173.548 257.22 173.321 257.672 173.035C258.656 172.415 259.577 171.672 260.28 170.748C261.022 169.773 261.692 168.317 261.454 167.068C261.303 166.256 260.6 165.858 259.774 166.063ZM262.012 181.99C262.531 181.336 263.285 180.387 264.022 180.624C264.65 180.825 265.062 181.879 265.302 182.494C265.332 182.57 265.359 182.639 265.384 182.699C265.384 182.699 266.024 184.235 265.564 185.162C265.106 186.089 261.816 189.01 261.059 189.593C260.309 190.176 257.608 191.851 255.229 192.436C253.337 192.9 251.165 192.697 249.568 191.527C248.544 190.781 247.825 189.686 247.389 188.51C246.951 187.336 246.783 186.085 246.707 184.836C246.409 179.719 247.794 174.202 250.275 169.694C252.453 165.723 253.331 164.586 255.945 162.415C257.893 160.791 260.035 160.404 262.542 160.824C263.255 160.943 263.948 161.206 264.537 161.616C268.517 164.38 266.09 170.186 263.938 173.364C262.378 175.665 260.116 177.337 257.545 178.415C256.681 178.78 255.044 179.417 253.468 179.454C253.404 179.456 252.775 181.08 252.637 182.036C252.481 183.14 252.578 184.859 253.361 185.582C255.208 187.301 258.455 185.184 259.895 183.985C260.026 183.875 260.159 183.766 260.293 183.657C260.817 183.23 261.342 182.802 261.772 182.286C261.845 182.2 261.925 182.099 262.012 181.99ZM241.013 173.895C240.834 176.35 240.236 178.725 239.423 181.036C238.734 182.999 237.985 185.047 236.522 186.545C235.243 187.862 232.538 188.73 231.056 187.092C231.056 187.092 231.758 183.252 232.798 179.372C233.781 175.7 234.99 171.375 237.529 169.546C240.672 167.274 241.179 171.65 241.013 173.895ZM244.906 164.276C243.347 162.145 240.105 162.441 238.369 163.387C236.627 164.333 234.753 166.968 234.428 167.754L234.763 165.422C234.763 165.422 235.246 164.63 233.264 164.157C231.286 163.683 230.256 163.55 229.81 165.156C229.574 166.003 227.38 177.318 225.361 187.809C224.892 188.208 224.259 188.596 223.422 188.842C221.031 189.552 223.503 179.965 223.503 179.965C223.503 179.965 225.562 170.585 225.887 169.185C226.214 167.783 226.08 166.429 224.512 165.965C222.945 165.504 221.398 165.418 220.93 166.887L220.463 168.357C220.463 168.357 218.784 166.164 215.364 166.658C211.944 167.153 207.801 171.868 205.328 179.256C202.857 186.644 203.755 191.044 204.185 192.851C204.613 194.659 205.608 197.086 209.095 197.599C212.583 198.117 215.162 195.584 216.501 192.291C216.501 192.291 216.565 195.053 218.956 195.84C220.542 196.359 222.547 195.506 224.066 194.549C223.651 196.713 223.269 198.706 222.945 200.399C215.346 201.503 206.253 202.878 204.022 203.355C203.259 203.517 202.228 203.703 201.02 203.921C199.543 204.188 197.801 204.502 195.963 204.878L195.968 204.864C195.97 204.859 195.972 204.852 195.974 204.845C195.974 204.845 204.952 172.623 205.191 171.713C205.208 171.647 205.228 171.573 205.25 171.491L205.251 171.487L205.251 171.486C205.532 170.434 206.136 168.173 205.191 167.842C204.171 167.489 202.637 167.646 201.185 168.516C199.731 169.386 198.75 170.646 198.33 171.956C198.208 172.33 198.014 172.94 197.785 173.659C197.214 175.452 196.424 177.93 196.004 179.141C195.414 180.841 193.432 186.502 191.998 188.702C190.427 191.113 188.426 192.85 186.935 191.783C185.769 190.95 186.346 188.305 186.697 186.766C186.965 185.6 187.616 183.508 188.12 181.891C188.282 181.37 188.428 180.899 188.542 180.524C188.615 180.288 188.693 180.041 188.773 179.786C189.218 178.376 189.74 176.725 189.841 175.387C189.957 173.81 188.701 172.386 187.545 172.157C186.392 171.923 185.169 171.713 184.696 172.623C184.399 173.192 184.411 173.944 184.424 174.747C184.431 175.228 184.439 175.728 184.38 176.217C184.275 177.094 183.933 177.941 183.598 178.774C183.483 179.059 183.368 179.342 183.264 179.625C182.814 180.858 182.37 182.101 181.959 183.352C181.349 185.205 180.803 187.085 180.389 188.992C179.984 190.849 179.593 192.823 179.768 194.729C179.902 196.21 180.468 197.71 181.598 198.667C182.532 199.457 183.791 199.814 185.007 199.734C187.081 199.598 188.993 198.204 190.424 196.773C190.493 196.704 190.567 196.631 190.643 196.555L190.644 196.554C191.298 195.906 192.185 195.025 192.458 194.197C192.091 195.321 191.72 196.444 191.349 197.567C190.406 200.424 189.463 203.28 188.578 206.152C188.525 206.322 188.472 206.492 188.356 206.622C188.224 206.779 188.028 206.859 187.836 206.936C187.706 206.988 187.576 207.042 187.446 207.096L187.409 207.111C186.395 207.461 185.431 207.846 184.559 208.255C182.363 209.296 180.517 210.468 179.067 211.535C177.019 212.93 175.111 214.523 173.424 216.34C171.241 218.683 169.445 221.41 168.236 224.382C167.108 227.138 166.178 230.382 166.95 233.323C167.695 236.166 170.058 238.304 172.986 238.62C175.041 238.847 177.128 238.227 178.911 237.176C180.69 236.124 182.194 234.649 183.546 233.079C187.525 228.449 190.089 222.924 192.074 217.2C192.591 215.707 193.084 214.203 193.575 212.7C199.566 211.036 214.037 208.309 217.771 207.661C218.551 207.527 219.949 207.317 221.716 207.062C221.64 207.82 221.62 208.79 221.892 209.454C222.401 210.69 224.14 211.412 225.822 209.454C226.331 208.861 226.743 207.719 227.088 206.307C231.521 205.694 236.537 205.017 240.147 204.531L240.15 204.53C241.883 204.296 243.292 204.106 244.155 203.988C245.329 203.829 246.856 203.67 248.483 203.501C252.904 203.04 258.063 202.502 258.879 201.682C259.999 200.554 259.76 199.014 259.174 198.063C258.584 197.117 257.819 196.523 254.108 196.644C250.902 196.744 240.533 198.041 235.505 198.671L235.499 198.671L235.489 198.673C234.704 198.771 234.05 198.853 233.576 198.911C232.72 199.015 230.746 199.285 228.198 199.646C228.25 199.24 228.3 198.841 228.349 198.453L228.35 198.446C228.482 197.398 228.603 196.433 228.722 195.639C229.303 191.745 229.506 190.822 229.506 190.822C229.506 190.822 230.934 192.947 234.25 193.473C238.116 194.087 240.875 191.255 242.914 187.228C245.018 183.085 246.375 177.184 246.605 173.748C246.831 170.432 246.47 166.405 244.906 164.276ZM216.807 183.54C218.042 179.856 219.02 176.401 219.437 174.305C219.874 172.103 218.32 171.633 216.982 172.15C215.317 172.79 213.057 174.059 211.224 178.178C210.256 180.361 209.7 182.622 209.559 184.534C209.418 186.449 209.711 189.864 211.984 190.298C214.019 190.683 215.485 187.477 216.807 183.54ZM184.914 218.097C185.176 217.471 185.428 216.84 185.663 216.206C185.68 216.158 185.712 216.045 185.751 215.901C185.869 215.473 186.061 214.774 186.183 214.73C186.183 214.73 180.746 216.743 176.608 221.945C173.308 226.091 171.787 230.316 172.986 231.782C174.488 233.624 177.36 230.586 178.321 229.482C180.269 227.246 181.767 224.658 183.099 222.015C183.744 220.727 184.357 219.424 184.914 218.097Z" fill="white"/>
<path d="M201.815 211.248H196.916V208.651H201.815C202.668 208.651 203.358 208.512 203.883 208.233C204.409 207.955 204.793 207.572 205.034 207.084C205.284 206.589 205.409 206.023 205.409 205.388C205.409 204.788 205.284 204.227 205.034 203.704C204.793 203.174 204.409 202.748 203.883 202.426C203.358 202.104 202.668 201.943 201.815 201.943H197.911V218.333H194.667V199.333H201.815C203.272 199.333 204.508 199.594 205.525 200.116C206.551 200.63 207.331 201.342 207.865 202.256C208.399 203.161 208.667 204.197 208.667 205.362C208.667 206.589 208.399 207.641 207.865 208.521C207.331 209.399 206.551 210.073 205.525 210.543C204.508 211.013 203.272 211.248 201.815 211.248Z" fill="white"/>
<path d="M220.333 208.799V209.869C220.333 211.34 220.155 212.658 219.799 213.826C219.443 214.994 218.934 215.987 218.272 216.808C217.618 217.627 216.831 218.255 215.913 218.692C214.994 219.12 213.975 219.333 212.858 219.333C211.749 219.333 210.734 219.12 209.816 218.692C208.905 218.255 208.114 217.627 207.444 216.808C206.773 215.987 206.252 214.994 205.879 213.826C205.515 212.658 205.333 211.34 205.333 209.869V208.799C205.333 207.328 205.515 206.014 205.879 204.855C206.244 203.688 206.757 202.693 207.419 201.874C208.09 201.045 208.88 200.416 209.791 199.988C210.71 199.553 211.724 199.333 212.833 199.333C213.951 199.333 214.969 199.553 215.888 199.988C216.807 200.416 217.597 201.045 218.259 201.874C218.922 202.693 219.431 203.688 219.787 204.855C220.151 206.014 220.333 207.328 220.333 208.799ZM217.216 209.869V208.773C217.216 207.684 217.117 206.727 216.918 205.898C216.728 205.06 216.442 204.36 216.062 203.799C215.689 203.228 215.23 202.8 214.683 202.515C214.137 202.221 213.52 202.074 212.833 202.074C212.146 202.074 211.533 202.221 210.995 202.515C210.457 202.8 209.998 203.228 209.617 203.799C209.244 204.36 208.959 205.06 208.76 205.898C208.562 206.727 208.462 207.684 208.462 208.773V209.869C208.462 210.956 208.562 211.918 208.76 212.757C208.959 213.594 209.249 214.302 209.629 214.882C210.018 215.452 210.482 215.885 211.02 216.179C211.558 216.464 212.171 216.607 212.858 216.607C213.553 216.607 214.17 216.464 214.708 216.179C215.246 215.885 215.701 215.452 216.074 214.882C216.446 214.302 216.728 213.594 216.918 212.757C217.117 211.918 217.216 210.956 217.216 209.869Z" fill="white"/>
<path d="M228.099 214.053C228.099 213.652 228.039 213.295 227.92 212.984C227.808 212.672 227.607 212.387 227.317 212.128C227.026 211.869 226.615 211.62 226.085 211.38C225.563 211.13 224.895 210.875 224.083 210.618C223.193 210.332 222.372 210.015 221.619 209.668C220.875 209.311 220.225 208.902 219.668 208.439C219.112 207.966 218.68 207.427 218.372 206.821C218.064 206.206 217.91 205.496 217.91 204.694C217.91 203.901 218.069 203.179 218.385 202.529C218.71 201.879 219.168 201.316 219.758 200.844C220.357 200.363 221.063 199.993 221.876 199.735C222.688 199.467 223.587 199.333 224.57 199.333C225.956 199.333 227.15 199.602 228.151 200.135C229.16 200.671 229.934 201.388 230.473 202.288C231.021 203.188 231.295 204.182 231.295 205.269H228.099C228.099 204.628 227.967 204.062 227.701 203.572C227.445 203.072 227.051 202.681 226.521 202.395C225.999 202.11 225.336 201.968 224.532 201.968C223.771 201.968 223.138 202.087 222.633 202.328C222.128 202.569 221.752 202.894 221.504 203.305C221.255 203.714 221.131 204.177 221.131 204.694C221.131 205.06 221.213 205.395 221.375 205.697C221.538 205.991 221.786 206.267 222.119 206.526C222.453 206.776 222.872 207.012 223.377 207.235C223.882 207.457 224.476 207.672 225.161 207.876C226.196 208.198 227.098 208.554 227.868 208.946C228.638 209.329 229.28 209.766 229.793 210.256C230.306 210.746 230.691 211.303 230.948 211.927C231.205 212.542 231.333 213.243 231.333 214.026C231.333 214.847 231.175 215.586 230.858 216.245C230.542 216.897 230.088 217.453 229.498 217.917C228.916 218.372 228.215 218.723 227.394 218.973C226.581 219.214 225.674 219.333 224.673 219.333C223.775 219.333 222.889 219.209 222.017 218.959C221.153 218.711 220.366 218.331 219.656 217.823C218.946 217.306 218.381 216.665 217.962 215.898C217.543 215.123 217.333 214.218 217.333 213.184H220.554C220.554 213.816 220.657 214.356 220.862 214.802C221.076 215.247 221.371 215.613 221.747 215.898C222.124 216.175 222.56 216.38 223.056 216.513C223.561 216.647 224.1 216.714 224.673 216.714C225.426 216.714 226.055 216.602 226.559 216.38C227.073 216.156 227.458 215.845 227.714 215.443C227.971 215.043 228.099 214.578 228.099 214.053Z" fill="white"/>
</g>
<defs>
<clipPath id="clip0_814_6109">
<rect width="400" height="400" fill="white"/>
</clipPath>
<clipPath id="clip1_814_6109">
<rect width="105.226" height="65.766" fill="white" transform="translate(259.721 109.343) rotate(10.6673)"/>
</clipPath>
<clipPath id="clip2_814_6109">
<rect width="105.226" height="65.766" fill="white" transform="translate(51.6934 187.106) rotate(-18.3212)"/>
</clipPath>
<clipPath id="clip3_814_6109">
<rect width="107.902" height="227.793" fill="white" transform="translate(146.049 55.9365)"/>
</clipPath>
<clipPath id="clip4_814_6109">
<rect width="41.4169" height="41.4169" fill="white" transform="translate(285.559 244.492)"/>
</clipPath>
<clipPath id="clip5_814_6109">
<rect width="86.1035" height="74.1144" fill="white" transform="translate(29.4277 71.1953)"/>
</clipPath>
</defs>
</svg>
