<svg width="180" height="180" viewBox="0 0 180 180" fill="none" xmlns="http://www.w3.org/2000/svg">
<g clip-path="url(#clip0_605_7069)">
<path d="M171.786 96.8265C171.786 134.178 145.053 171.624 89.4069 171.624C43.9104 171.624 7.0282 141.345 7.0282 103.993C7.0282 83.1812 15.5923 57.86 37.6143 51.5896C59.6364 45.3191 61.7242 66.1569 85.3775 66.1568C109.031 66.1567 123.433 52.7499 147.162 58.5596C165.07 62.9442 171.786 78.9052 171.786 96.8265Z" fill="#F0CEF5"/>
<mask id="mask0_605_7069" style="mask-type:alpha" maskUnits="userSpaceOnUse" x="7" y="49" width="165" height="123">
<path d="M171.786 96.8267C171.786 134.179 145.053 171.624 89.4069 171.624C43.9104 171.624 7.0282 141.345 7.0282 103.993C7.0282 83.1813 15.5923 57.8602 37.6143 51.5897C59.6364 45.3192 61.7242 54.5322 85.3775 54.5321C109.031 54.532 123.433 52.7501 147.162 58.5597C165.07 62.9443 171.786 78.9054 171.786 96.8267Z" fill="#F6E1F9"/>
</mask>
<g mask="url(#mask0_605_7069)">
<path fill-rule="evenodd" clip-rule="evenodd" d="M97.4605 115.697C109.004 114.449 119.373 122.795 120.621 134.338C123.826 163.988 138.638 233.069 149.861 265.534C153.654 276.507 147.834 288.478 136.86 292.271C125.887 296.064 113.917 290.244 110.124 279.27C97.8011 243.624 82.3413 171.434 78.8195 138.857C77.5716 127.314 85.9175 116.945 97.4605 115.697Z" fill="#DCAC82"/>
<path d="M93.7767 158.372C105.036 161.386 116.687 154.402 119.8 142.772C122.913 131.142 116.309 119.271 105.05 116.257C93.7905 113.244 82.1393 120.228 79.0262 131.858C75.9132 143.487 82.5173 155.358 93.7767 158.372Z" fill="#DCAC82"/>
<path d="M111.379 110.568L117.87 126.378L80.9583 148.243L60.1765 142.563L71.8683 99.766L111.379 110.568Z" fill="#DCAC82"/>
<path d="M119.771 142.881C120.768 139.483 122.032 134.207 122.433 127.68C122.954 119.073 121.54 114.822 121.413 107.82C121.341 103.423 121.762 97.4065 123.916 90.0486C124.821 86.9601 123.148 83.7413 120.15 82.8937C117.379 82.1156 114.426 83.6451 113.399 86.439C111.462 91.7156 109.992 97.2707 109.069 103.071C106.834 104.369 102.064 107.56 99.049 113.667C93.5185 124.86 98.7536 135.992 99.4132 137.315L119.771 142.881Z" fill="#DCAC82"/>
<path d="M103.24 143.358C102.204 140.797 99.1891 132.471 101.881 122.152C104.447 112.305 110.635 106.623 112.8 104.801C112.192 104.007 111.168 102.442 110.692 100.175C110.202 97.8595 110.533 95.9353 110.772 94.9433C110.374 96.5608 110.004 98.2398 109.65 99.9864C109.44 101.031 109.251 102.064 109.077 103.074C100.951 105.06 94.5639 111.519 92.7459 119.616C90.677 128.847 94.9113 138.592 103.238 143.366L103.24 143.358Z" fill="#BE906A"/>
<g clip-path="url(#clip1_605_7069)">
<path d="M96.6809 153.258L118.372 72.2245C118.859 70.4046 117.784 68.5359 115.971 68.0505L80.2973 58.5015C78.4842 58.0162 76.6195 59.0981 76.1323 60.9179L54.4415 141.951C53.9543 143.771 55.0292 145.64 56.8424 146.125L92.5159 155.674C94.329 156.159 96.1937 155.078 96.6809 153.258Z" fill="#403556"/>
<path d="M97.3611 150.716L119.052 69.6833C119.539 67.8634 118.464 65.9946 116.651 65.5093L80.9775 55.9603C79.1644 55.4749 77.2996 56.5568 76.8125 58.3767L55.1216 139.41C54.6345 141.23 55.7094 143.099 57.5225 143.584L93.1961 153.133C95.0092 153.618 96.8739 152.536 97.3611 150.716Z" fill="#2C2044"/>
<path d="M96.2809 146.542L116.031 72.7599C116.272 71.857 115.739 70.9298 114.84 70.689L79.9509 61.3501C79.0513 61.1093 78.1262 61.646 77.8845 62.549L58.1346 136.331C57.8929 137.234 58.4262 138.161 59.3258 138.402L94.2145 147.741C95.114 147.982 96.0392 147.445 96.2809 146.542Z" fill="#742384"/>
<path d="M93.593 63.1952L102.1 65.4723C102.594 65.6046 103.102 65.3098 103.235 64.8139L103.264 64.7037C103.397 64.2078 103.104 63.6986 102.61 63.5664L94.1032 61.2892C93.6091 61.157 93.101 61.4518 92.9682 61.9477L92.9387 62.0578C92.806 62.5537 93.0989 63.063 93.593 63.1952Z" fill="#544A69"/>
<path d="M95.5996 113.862C93.0715 113.235 90.1431 112.745 87.4151 112.373C87.9972 111.381 88.5744 110.401 88.5744 110.401C88.5744 110.401 88.7008 111.138 89.5705 111.3C90.8054 111.529 92.5962 110.733 93.8924 108.744C95.2698 106.632 95.9058 103.984 94.4193 103.349C93.218 102.837 92.3236 103.792 92.1779 103.991C92.1779 103.991 92.7145 103.049 91.8736 103.014C91.068 102.98 90.8373 103.285 90.4855 103.846C90.4234 103.945 89.1393 106.179 87.7899 108.536C87.7753 108.549 87.762 108.566 87.7502 108.586C87.4311 109.115 87.0519 109.219 86.8109 109.171C86.0312 109.016 89.0459 104.349 89.2745 103.995C89.5761 103.528 89.7783 103.167 89.2767 102.804C88.9385 102.56 88.408 102.473 88.1473 102.842C88.0376 102.996 87.9576 103.11 87.9576 103.11C87.9576 103.11 87.7002 102.349 86.725 102.182C85.7492 102.014 84.2337 102.863 82.8885 104.704C81.5432 106.545 80.4092 109.398 82.2176 110.197C83.1356 110.602 84.0874 110.264 84.7522 109.465C84.7522 109.465 84.5155 110.056 85.0661 110.523C85.2823 110.708 85.9109 110.827 86.5799 110.651C86.2723 111.189 85.9815 111.699 85.7224 112.153C81.4959 111.632 78.1192 111.409 78.1192 111.409C78.1206 111.407 82.3946 104.378 83.3469 102.834C84.1438 101.541 83.2685 101.635 82.6359 101.65C81.9617 101.666 81.5234 102.119 80.9518 103.001C78.4545 106.855 77.0262 107.88 76.3214 107.388C75.6749 106.937 79.1266 103.058 78.7447 102.322C78.4136 101.684 77.441 101.453 77.1761 101.706C76.9112 101.959 77.1108 102.309 76.8789 102.705C76.6469 103.102 75.1248 105.176 74.8908 105.67C74.657 106.163 73.1047 108.829 75.2089 109.259C76.4524 109.513 77.5411 108.802 77.6996 108.566C77.0184 109.581 75.9894 111.237 75.9894 111.237C75.9894 111.237 73.3146 111.2 70.7525 112.776C68.7182 114.028 66.6305 117.338 68.8448 118.547C72.2865 120.427 75.5463 115.216 77.0103 113.321C80.1747 113.448 82.57 113.612 84.7637 113.843C84.6993 113.959 84.6557 114.038 84.6388 114.071C84.2095 114.908 84.157 115.275 84.8669 115.374C85.6322 115.479 85.828 115.12 86.3191 114.256C86.3524 114.196 86.3946 114.123 86.4434 114.039C89.029 114.366 91.5352 114.809 94.9814 115.427C96.0524 115.619 96.0882 115.439 96.3598 114.835C96.667 114.149 95.8491 113.924 95.5996 113.862ZM90.4853 107.244C91.434 105.716 92.0752 105.174 92.5606 105.102C93.7187 104.931 93.5633 106.3 92.2277 108.083C90.6817 110.146 89.6132 109.803 89.3205 109.236C89.3198 109.236 89.4832 108.857 90.4853 107.244ZM85.582 107.006C84.8461 107.973 84.2249 108.625 83.6502 108.475C82.8265 108.262 83.1818 107.019 84.1874 105.604C85.0331 104.415 86.1531 103.824 86.6631 103.859C87.1722 103.894 87.6807 104.25 85.582 107.006ZM71.3249 116.725C68.8957 117.966 70.036 115.681 71.043 114.832C72.9548 113.22 74.7948 113.176 74.7948 113.176C73.2424 115.505 71.823 116.47 71.3249 116.725Z" fill="white"/>
<path d="M99.9123 108.169C100.883 107.502 101.714 105.75 100.655 104.74C99.3743 103.518 97.0802 104.246 95.5495 106.728C94.1884 108.935 93.1298 111.813 95.5978 112.357C96.8136 112.625 98.084 112.029 98.633 111.481C98.8991 111.215 99.1045 110.739 99.1315 110.51C99.208 109.868 98.858 109.678 98.0062 110.32C97.8015 110.457 96.2488 111.246 95.8153 110.414C95.5019 109.813 96.1276 108.965 96.1454 108.969C96.9622 109.125 98.4514 109.173 99.9123 108.169ZM98.6783 105.594C99.5219 105.138 99.9625 106.071 98.891 106.957C97.8094 107.851 96.8965 107.576 96.8797 107.609C97.0896 107.203 97.7581 106.091 98.6783 105.594Z" fill="white"/>
<path d="M89.1925 95.0887C89.0714 94.9541 88.8641 94.8479 88.5723 94.7698L87.6993 94.5361L87.3723 95.7581L88.2737 95.9994C88.8405 96.1511 89.1795 96.0206 89.29 95.6078C89.3467 95.3959 89.3143 95.2234 89.1925 95.0887Z" fill="#10CBB4"/>
<path d="M91.1814 89.5263C88.5107 88.943 85.7841 90.5065 84.9098 93.1259C84.318 94.8994 84.6744 96.7312 85.6776 98.1005C85.781 98.2414 85.8149 98.4217 85.7694 98.5917L85.4586 99.7526C85.4348 99.8418 85.4623 99.9373 85.5294 99.9994L85.5567 100.025C85.6214 100.085 85.7135 100.102 85.7954 100.071L86.9739 99.6167C87.128 99.5572 87.2997 99.5679 87.4446 99.6464C87.8065 99.8432 88.1965 100.001 88.6113 100.112C91.4887 100.882 94.4516 99.15 95.2297 96.2432C96.0296 93.2549 94.208 90.1873 91.1814 89.5263ZM89.7769 96.4826C89.608 96.638 89.4107 96.7336 89.1851 96.7695C89.0445 96.7892 88.8893 96.7873 88.7199 96.7655C88.5504 96.7436 88.356 96.7034 88.1375 96.6449L86.8715 96.306C86.6889 96.2571 86.5696 96.1811 86.5131 96.077C86.4572 95.9732 86.4531 95.831 86.5016 95.6499L87.3437 92.5039C87.3931 92.3195 87.4687 92.1972 87.5705 92.1377C87.6722 92.0782 87.8127 92.0725 87.9912 92.1202L89.3332 92.4795C89.5307 92.5323 89.6992 92.5906 89.8378 92.6542C89.9765 92.7178 90.0933 92.8005 90.1893 92.9011C90.2712 92.9863 90.3381 93.0843 90.3892 93.195C90.4403 93.3056 90.4712 93.4212 90.4814 93.5408C90.4914 93.661 90.4803 93.7815 90.4476 93.9035C90.3354 94.3225 90.0465 94.5729 89.5797 94.6566C90.0773 94.9772 90.2582 95.3909 90.1228 95.8969C90.0614 96.1318 89.946 96.3265 89.7769 96.4826ZM92.6799 97.4368C92.5352 97.5619 92.3512 97.6376 92.1272 97.6621C91.9038 97.6868 91.6467 97.6606 91.3562 97.5829C91.0793 97.5087 90.8531 97.4026 90.6785 97.264C90.5039 97.1254 90.3859 96.9792 90.3266 96.8259C90.2665 96.6724 90.2542 96.531 90.2889 96.4014C90.3118 96.3157 90.3613 96.2503 90.4381 96.2054C90.5148 96.1606 90.5989 96.1508 90.6913 96.1755C90.772 96.1971 90.8292 96.2337 90.862 96.2851C90.8948 96.3365 90.9211 96.4038 90.941 96.487C90.9832 96.6475 91.0498 96.7763 91.1414 96.8743C91.233 96.9723 91.3745 97.0469 91.5646 97.0978C91.7194 97.1392 91.855 97.1381 91.9726 97.0953C92.0903 97.0526 92.1604 96.9861 92.1845 96.8963C92.2212 96.7592 92.1964 96.6452 92.1106 96.5554C92.025 96.4649 91.8719 96.36 91.6516 96.24C91.404 96.1025 91.2062 95.9746 91.0596 95.8567C90.9122 95.7386 90.8051 95.6063 90.7374 95.4596C90.6697 95.3129 90.659 95.152 90.7058 94.9772C90.7476 94.8208 90.8332 94.6858 90.9626 94.572C91.0922 94.4575 91.2582 94.3836 91.4603 94.3488C91.6624 94.3139 91.8906 94.3309 92.1445 94.3989C92.344 94.4523 92.5182 94.5217 92.6659 94.6061C92.8142 94.6906 92.9315 94.7823 93.0192 94.8814C93.1068 94.9806 93.1669 95.0797 93.1996 95.1803C93.2323 95.2809 93.2377 95.372 93.2159 95.4536C93.192 95.5427 93.1425 95.6081 93.068 95.6499C92.9938 95.691 92.9012 95.6971 92.7919 95.6679C92.7125 95.6466 92.6514 95.606 92.608 95.5451C92.5646 95.4843 92.5192 95.3986 92.4723 95.2884C92.4343 95.1966 92.3821 95.1172 92.3148 95.0507C92.2477 94.9835 92.1465 94.9322 92.0107 94.8959C91.8716 94.8586 91.7474 94.8577 91.6391 94.8927C91.5308 94.9276 91.4647 94.99 91.4406 95.0798C91.4188 95.1614 91.4347 95.2377 91.4885 95.3087C91.5424 95.379 91.6218 95.4465 91.728 95.5117C91.8336 95.5767 91.9805 95.6608 92.1689 95.7642C92.3921 95.8871 92.5687 96.01 92.6989 96.1323C92.8284 96.2545 92.9179 96.382 92.966 96.5147C93.0144 96.6467 93.0196 96.7848 92.9814 96.9274C92.9257 97.141 92.8247 97.3117 92.6799 97.4368Z" fill="#10CBB4"/>
<path d="M89.1312 94.2037C89.2559 94.1944 89.3631 94.1416 89.4536 94.0453C89.5219 93.9776 89.5696 93.8948 89.596 93.7961C89.6525 93.5849 89.6155 93.4243 89.4854 93.3153C89.3552 93.2062 89.1372 93.1104 88.8324 93.0288L88.1516 92.8466L87.862 93.9286L88.6304 94.1343C88.8396 94.1896 89.0065 94.2129 89.1312 94.2037Z" fill="#10CBB4"/>
</g>
<path d="M68.8912 90.9866C71.2646 92.6806 74.5552 92.0527 76.2409 89.5842C77.9267 87.1156 77.3692 83.7413 74.9958 82.0473L70.7467 79.0146C68.3733 77.3206 65.0828 77.9485 63.397 80.417C61.7113 82.8855 62.2687 86.2599 64.6421 87.9539L68.8912 90.9866Z" fill="#DCAC82"/>
<path d="M65.7633 105.516C68.3757 106.793 71.5348 105.634 72.8194 102.926C74.104 100.219 73.0276 96.9879 70.4153 95.7104L64.8272 92.9777C62.2148 91.7002 59.0557 92.8595 57.7711 95.5671C56.4865 98.2747 57.5629 101.505 60.1753 102.783L65.7633 105.516Z" fill="#DCAC82"/>
<path d="M61.5231 119.198C64.2401 120.228 67.29 118.784 68.3354 115.973C69.3808 113.162 68.0257 110.048 65.3088 109.018L59.6707 106.881C56.9538 105.851 53.9038 107.296 52.8584 110.107C51.813 112.918 53.1681 116.032 55.8851 117.061L61.5231 119.198Z" fill="#DCAC82"/>
<path d="M58.5743 133.684C61.2912 134.714 64.3412 133.27 65.3866 130.459C66.432 127.648 65.0769 124.534 62.3599 123.504L57.4721 121.652C54.7551 120.622 51.7051 122.066 50.6597 124.877C49.6143 127.688 50.9694 130.802 53.6864 131.832L58.5743 133.684Z" fill="#DCAC82"/>
</g>
<ellipse cx="19.2217" cy="98.4674" rx="19.2217" ry="19.2217" fill="#FDF0FF"/>
<ellipse cx="160.778" cy="98.4674" rx="19.2217" ry="19.2217" fill="#FDF0FF"/>
<circle cx="37.0704" cy="50.9623" r="19.2217" fill="#FDF0FF"/>
<circle cx="143.339" cy="50.9623" r="19.2217" fill="#FDF0FF"/>
<circle cx="90.0674" cy="27.6217" r="19.2217" fill="#FDF0FF"/>
<path d="M32.3733 43.2631C32.5593 42.8909 32.9397 42.6559 33.3557 42.6559H35.2932C35.7092 42.6559 36.0895 42.8909 36.2756 43.2631L37.0704 44.8526H31.5785L32.3733 43.2631Z" fill="#8B3D99"/>
<path d="M28.0815 47.1058C28.53 45.7602 29.7892 44.8527 31.2075 44.8527H38.4267C39.6233 44.8527 40.726 45.5014 41.3071 46.5475L43.1115 49.7954H27.1849L28.0815 47.1058Z" fill="#F4C12A"/>
<path d="M28.9265 47.5443C29.1959 46.6012 30.0579 45.951 31.0387 45.951L38.5415 45.951C39.3298 45.951 40.0577 46.3735 40.4488 47.0579L42.0131 49.7954H28.2833L28.9265 47.5443Z" fill="#8AD2FF"/>
<circle cx="40.0909" cy="49.5208" r="1.37298" fill="#8B3D99"/>
<path d="M24.9882 51.443C24.9882 50.2297 25.9717 49.2462 27.1849 49.2462H42.755C42.9911 49.2462 43.2257 49.2843 43.4497 49.3589L46.8202 50.4825C47.5812 50.7361 48.1434 51.3844 48.2869 52.1735L48.6817 54.3452C48.9269 55.6936 47.891 56.9349 46.5204 56.9349H27.1849C25.9717 56.9349 24.9882 55.9514 24.9882 54.7381V51.443Z" fill="#F4C12A"/>
<path d="M35.4228 56.9348C35.4228 55.9152 35.0178 54.9374 34.2968 54.2164C33.5759 53.4955 32.5981 53.0905 31.5785 53.0905C30.5589 53.0905 29.5811 53.4955 28.8601 54.2164C28.1392 54.9374 27.7341 55.9152 27.7341 56.9348L35.4228 56.9348Z" fill="#C39820"/>
<path d="M46.4066 56.9348C46.4066 55.9152 46.0016 54.9374 45.2807 54.2164C44.5597 53.4955 43.5819 53.0905 42.5623 53.0905C41.5427 53.0905 40.5649 53.4955 39.8439 54.2164C39.123 54.9374 38.718 55.9152 38.718 56.9348L46.4066 56.9348Z" fill="#C39820"/>
<path d="M34.3244 56.9349C34.3244 58.4515 33.095 59.6809 31.5785 59.6809C30.0619 59.6809 28.8325 58.4515 28.8325 56.9349C28.8325 55.4184 30.0619 54.189 31.5785 54.189C33.095 54.189 34.3244 55.4184 34.3244 56.9349Z" fill="#B9B4C4"/>
<path fill-rule="evenodd" clip-rule="evenodd" d="M31.5785 58.5825C32.4884 58.5825 33.226 57.8449 33.226 56.9349C33.226 56.025 32.4884 55.2873 31.5785 55.2873C30.6685 55.2873 29.9309 56.025 29.9309 56.9349C29.9309 57.8449 30.6685 58.5825 31.5785 58.5825ZM31.5785 59.6809C33.095 59.6809 34.3244 58.4515 34.3244 56.9349C34.3244 55.4184 33.095 54.189 31.5785 54.189C30.0619 54.189 28.8325 55.4184 28.8325 56.9349C28.8325 58.4515 30.0619 59.6809 31.5785 59.6809Z" fill="#5E186C"/>
<path d="M45.3082 56.9349C45.3082 58.4515 44.0788 59.6809 42.5622 59.6809C41.0457 59.6809 39.8163 58.4515 39.8163 56.9349C39.8163 55.4184 41.0457 54.189 42.5622 54.189C44.0788 54.189 45.3082 55.4184 45.3082 56.9349Z" fill="#B9B4C4"/>
<path fill-rule="evenodd" clip-rule="evenodd" d="M42.5622 58.5825C43.4722 58.5825 44.2098 57.8449 44.2098 56.9349C44.2098 56.025 43.4722 55.2873 42.5622 55.2873C41.6523 55.2873 40.9147 56.025 40.9147 56.9349C40.9147 57.8449 41.6523 58.5825 42.5622 58.5825ZM42.5622 59.6809C44.0788 59.6809 45.3082 58.4515 45.3082 56.9349C45.3082 55.4184 44.0788 54.189 42.5622 54.189C41.0457 54.189 39.8163 55.4184 39.8163 56.9349C39.8163 58.4515 41.0457 59.6809 42.5622 59.6809Z" fill="#5E186C"/>
<path d="M46.6262 52.816C46.6262 52.361 46.995 51.9922 47.45 51.9922L48.2738 51.9922L48.6582 53.6398H47.45C46.995 53.6398 46.6262 53.2709 46.6262 52.816Z" fill="#DE4A65"/>
<path d="M27.0201 52.816C27.0201 53.2709 26.6513 53.6398 26.1964 53.6398L24.9881 53.6398L24.9881 51.9922L26.1964 51.9922C26.6513 51.9922 27.0201 52.361 27.0201 52.816Z" fill="#DE4A65"/>
<path d="M33.2261 45.4019H34.3244L33.2261 49.2462H32.1277L33.2261 45.4019Z" fill="#F4C12A"/>
<path d="M142.131 44.3171L141.527 58.2117H133.069L132.465 44.3171H142.131Z" fill="#BD77C7"/>
<path d="M140.318 44.3171L139.714 58.2117H141.527L142.131 44.3171H140.318Z" fill="#BD77C7"/>
<path d="M142.131 40.6925V41.9007H132.465V40.6925L133.069 40.0884H141.527L142.131 40.6925Z" fill="#10CBB4"/>
<path d="M141.527 40.0884H140.318L140.922 40.6925V41.9007H142.131V40.6925L141.527 40.0884Z" fill="#10CBB4"/>
<path d="M142.735 41.9008V43.7131H142.055H132.54H131.861V41.9008H132.54H142.055H142.735Z" fill="#10CBB4"/>
<path d="M142.131 41.9008H140.922V44.3172H142.131H142.735V41.9008H142.131Z" fill="#12DEC4"/>
<path d="M142.131 47.3376L141.861 52.7746H132.465L132.195 47.3376H142.131Z" fill="#12DEC4"/>
<path d="M140.016 47.3376L139.714 52.7746H142.131L142.433 47.3376H140.016Z" fill="#12DEC4"/>
<path d="M142.539 41.9008H132.057C131.615 41.9008 131.257 42.2589 131.257 42.7008V44.1213C131.257 44.5631 131.615 44.9213 132.057 44.9213H142.539C142.981 44.9213 143.339 44.5631 143.339 44.1213V42.7008C143.339 42.2589 142.981 41.9008 142.539 41.9008Z" fill="#12DEC4"/>
<path d="M147.915 41.7986H145.844V45.4473H147.915V41.7986Z" fill="#F4C12A"/>
<path d="M149.988 40.3396V45.4477H147.916V41.7991V38.8801H149.988V40.3396Z" fill="#F4C12A"/>
<path d="M152.057 41.7992V45.4479H149.986V40.3397H152.057V41.7992Z" fill="#F4C12A"/>
<path d="M154.387 41.7986H152.316V45.4473H154.387V41.7986Z" fill="#F4C12A"/>
<path d="M146.619 41.7986H145.584V45.4473H146.619V41.7986Z" fill="#DBAD25"/>
<path d="M148.952 38.8801H147.916V41.7991V45.4477H148.952V41.7991V38.8801Z" fill="#DBAD25"/>
<path d="M151.022 40.3397H149.986V45.4479H151.022V40.3397Z" fill="#DBAD25"/>
<path d="M153.088 41.7986H152.052V45.4473H153.088V41.7986Z" fill="#DBAD25"/>
<path d="M155.421 45.4465V47.3923H154.645H145.324H144.547V45.4465H145.324H147.654H149.984H152.314H154.645H155.421Z" fill="#E3647B"/>
<path d="M154.647 47.3921H145.327V57.6075H154.647V47.3921Z" fill="#E3647B"/>
<path d="M145.327 47.3921V48.669H153.288V57.6075H154.647V47.3921H145.327Z" fill="#BE3C54"/>
<path d="M151.797 60.6281V61.2322C151.797 62.4404 150.89 63.0445 149.984 63.0445H140.318C139.503 63.0445 138.506 62.4404 138.506 61.2322V60.6281C143.105 60.6281 147.246 60.6281 151.797 60.6281Z" fill="#DCAC82"/>
<path d="M151.228 58.2117C151.826 58.2117 152.401 58.7526 152.401 59.4199C152.401 60.0872 151.826 60.6281 151.228 60.6281H145.755V58.2117C147.602 58.2117 151.228 58.2117 151.228 58.2117Z" fill="#BE3C54"/>
<path d="M150.502 60.6281V61.4335C150.502 62.3232 149.729 63.0445 148.776 63.0445H149.984C150.89 63.0445 151.797 62.4404 151.797 61.2322V60.6281H150.502Z" fill="#DCAC82"/>
<path d="M151.797 55.7952H138.506C138.506 53.9829 139.714 53.3788 140.923 53.3788H149.38C150.588 53.3788 151.797 53.9829 151.797 55.7952Z" fill="#DCAC82"/>
<path d="M149.984 53.3788L148.172 53.3788C149.695 53.3788 150.588 54.5613 150.588 55.7952H151.797C151.797 53.9829 150.588 53.3788 149.984 53.3788Z" fill="#DCAC82"/>
<path d="M145.755 58.2117V60.6281H139.08C138.395 60.6281 137.902 60.0872 137.902 59.4199C137.902 58.7526 138.395 58.2117 139.08 58.2117H145.755Z" fill="#BE3C54"/>
<path d="M151.192 55.7952C151.76 55.7952 152.401 56.0972 152.401 57.0034C152.401 57.9096 151.76 58.2116 151.192 58.2116H148.172V59.1178C148.172 59.5234 147.87 60.0239 147.266 60.0239C146.662 60.0239 146.36 59.5234 146.36 59.1178V58.2116H145.151V60.326C145.151 60.9301 144.547 61.2322 144.245 61.2322C143.943 61.2322 143.339 60.9301 143.339 60.326V58.2116H139.11C138.543 58.2116 137.902 57.9096 137.902 57.0034C137.902 56.0972 138.543 55.7952 139.11 55.7952H151.192Z" fill="#F4C12A"/>
<path d="M144.547 60.024C144.547 60.6281 143.641 60.6281 143.339 60.3261C143.339 60.9779 143.943 61.2322 144.245 61.2322C144.547 61.2322 145.151 60.9302 145.151 60.3261L145.151 58.2117H144.547L144.547 60.024Z" fill="#F4C12A"/>
<path d="M147.568 58.8158C147.568 59.4199 146.662 59.4199 146.359 59.1178C146.359 59.7697 146.964 60.024 147.266 60.024C147.568 60.024 148.172 59.7219 148.172 59.1178L148.172 58.2117H147.568L147.568 58.8158Z" fill="#F4C12A"/>
<path d="M151.192 55.7952L149.984 55.7952C150.785 55.7952 151.434 56.3361 151.434 57.0034C151.434 57.6707 150.785 58.2116 149.984 58.2116H151.192C151.993 58.2116 152.401 57.6707 152.401 57.0034C152.401 56.3361 151.993 55.7952 151.192 55.7952Z" fill="#F4C12A"/>
<rect x="155.903" y="88.1533" width="3.53626" height="4.71501" fill="#544A69"/>
<rect x="157.672" y="88.1533" width="1.76813" height="4.71501" fill="#544A69"/>
<rect x="155.903" y="86.3851" width="3.53626" height="4.71501" fill="#E3647B"/>
<path d="M155.314 86.9745C155.314 86.649 155.578 86.3851 155.903 86.3851H159.44V88.1533H155.903C155.578 88.1533 155.314 87.8894 155.314 87.5639V86.9745Z" fill="#E3647B"/>
<path d="M157.672 86.3851H159.44C159.765 86.3851 160.029 86.649 160.029 86.9745V87.5639C160.029 87.8894 159.765 88.1533 159.44 88.1533H157.672V86.3851Z" fill="#E3647B"/>
<path d="M153.546 95.8152C153.546 93.8622 155.129 92.2789 157.082 92.2789H158.261C160.214 92.2789 161.797 93.8622 161.797 95.8152V106.424C161.797 107.075 161.269 107.603 160.618 107.603H154.725C154.074 107.603 153.546 107.075 153.546 106.424V95.8152Z" fill="#544A69"/>
<path d="M154.725 98.762C154.725 98.111 155.252 97.5833 155.903 97.5833H158.261C158.912 97.5833 159.44 98.111 159.44 98.762V103.477C159.44 104.128 158.912 104.656 158.261 104.656H155.903C155.252 104.656 154.725 104.128 154.725 103.477V98.762Z" fill="#EBF6FF"/>
<path d="M157.672 97.5833H158.85C159.501 97.5833 160.029 98.111 160.029 98.762V103.477C160.029 104.128 159.501 104.656 158.85 104.656H157.672V97.5833Z" fill="#EBF6FF"/>
<path d="M151.778 102.888H152.957C152.957 102.888 152.662 104.494 152.662 105.54C152.662 106.586 152.957 108.192 152.957 108.192H151.778C152.145 106.26 152.159 105.107 151.778 102.888Z" fill="#EEECF3"/>
<path d="M150.584 108.782C150.584 108.456 150.848 108.192 151.174 108.192H153.531C153.857 108.192 154.121 108.456 154.121 108.782H150.584Z" fill="#EEECF3"/>
<path d="M148.853 99.7549C148.823 99.7981 148.824 99.8414 148.853 99.8849V99.7549Z" fill="#EEECF3"/>
<path d="M149.715 96.4045H155.019L155.489 100.165C155.709 101.924 154.338 103.477 152.565 103.477H152.169C150.397 103.477 149.025 101.924 149.245 100.165L149.715 96.4045Z" fill="#EEECF3"/>
<path d="M149.715 99.3514H155.019L155.119 100.644C155.224 102.013 154.141 103.182 152.768 103.182H151.966C150.593 103.182 149.51 102.013 149.615 100.644L149.715 99.3514Z" fill="#E3647B"/>
<path d="M160.029 106.424H170.048V108.781C170.048 109.432 169.521 109.96 168.87 109.96H161.208C160.557 109.96 160.029 109.432 160.029 108.781V106.424Z" fill="#EEECF3"/>
<path d="M160.029 98.5549C160.029 97.6928 160.728 96.9939 161.59 96.9939H168.487C169.349 96.9939 170.048 97.6928 170.048 98.5549V107.22C170.048 108.083 169.349 108.781 168.487 108.781H161.59C160.728 108.781 160.029 108.083 160.029 107.22V98.5549Z" fill="#F4C12A"/>
<path d="M161.797 102.298C161.797 101.973 162.061 101.709 162.386 101.709C162.712 101.709 162.976 101.973 162.976 102.298V107.013C162.976 107.339 162.712 107.603 162.386 107.603C162.061 107.603 161.797 107.339 161.797 107.013V102.298Z" fill="#C39820"/>
<path d="M164.744 102.298C164.744 101.973 165.008 101.709 165.333 101.709C165.659 101.709 165.923 101.973 165.923 102.298V107.013C165.923 107.339 165.659 107.603 165.333 107.603C165.008 107.603 164.744 107.339 164.744 107.013V102.298Z" fill="#C39820"/>
<path fill-rule="evenodd" clip-rule="evenodd" d="M170.638 100.53H170.048V99.3514H170.638C171.94 99.3514 172.995 100.407 172.995 101.709V104.656C172.995 105.958 171.94 107.013 170.638 107.013H170.048V105.835H170.638C171.289 105.835 171.816 105.307 171.816 104.656V101.709C171.816 101.058 171.289 100.53 170.638 100.53Z" fill="#EEECF3"/>
<path fill-rule="evenodd" clip-rule="evenodd" d="M164.155 98.762C164.774 98.762 165.348 98.5711 165.823 98.2449C166.188 98.515 166.626 98.6933 167.101 98.7458V102.298C167.101 102.949 167.629 103.477 168.28 103.477C168.931 103.477 169.459 102.949 169.459 102.298V100.53C170.761 100.53 171.816 99.4747 171.816 98.1727C171.816 97.0708 171.061 96.1456 170.039 95.8871C169.926 94.5266 168.786 93.4576 167.396 93.4576C166.979 93.4576 166.584 93.554 166.233 93.7258C165.7 93.1958 164.965 92.8683 164.155 92.8683C162.527 92.8683 161.208 94.1876 161.208 95.8152C159.906 95.8152 158.85 96.8706 158.85 98.1727C158.85 99.4747 159.906 100.53 161.208 100.53C162.332 100.53 163.272 99.7436 163.508 98.6909C163.716 98.7375 163.933 98.762 164.155 98.762Z" fill="#FDEDC4"/>
<path d="M169.459 105.835C169.459 106.486 168.931 107.013 168.28 107.013C167.629 107.013 167.101 106.486 167.101 105.835C167.101 105.184 167.629 104.656 168.28 104.656C168.931 104.656 169.459 105.184 169.459 105.835Z" fill="#FDEDC4"/>
<path d="M13.321 87.1403C16.6178 88.621 18.457 88.6478 21.7505 87.1403V90.512H13.321V87.1403Z" fill="#F4C12A"/>
<path d="M11.0357 88.3103L13.321 87.1403C13.321 87.1403 14.8124 90.2311 17.5357 90.2311C20.2591 90.2311 21.7504 87.1403 21.7504 87.1403L23.6684 88.3422C24.0585 88.5867 24.4049 88.8949 24.6932 89.2538L27.0422 92.1787C27.2544 92.4429 27.3843 92.7747 27.3219 93.1078C27.1123 94.226 26.2337 95.1535 24.9751 95.543C24.5326 95.68 24.0656 95.5073 23.738 95.1798L22.7015 94.1432C22.7015 94.1432 21.9234 96.391 22.3124 99.5034C22.5546 101.441 23.2491 103.412 23.7389 104.624C24.0178 105.314 23.7829 106.108 23.0903 106.381C21.9625 106.826 20.0173 107.371 17.2547 107.371C14.4922 107.371 12.547 106.826 11.4191 106.381C10.7266 106.108 10.4917 105.314 10.7706 104.624C11.2604 103.412 11.9549 101.441 12.1971 99.5034C12.5861 96.391 11.808 94.1432 11.808 94.1432L10.6878 95.2635C10.4086 95.5426 10.0218 95.7228 9.64453 95.6068C8.65017 95.3009 7.86511 94.2876 7.41631 93.315C7.21169 92.8715 7.32188 92.3598 7.62768 91.979L9.7004 89.3982C10.0639 88.9455 10.5189 88.5748 11.0357 88.3103Z" fill="#61BDFF"/>
<path d="M24.2577 95.6994C26.1048 95.4545 27.3701 94.1432 27.3701 92.587" stroke="#F9DD8F" stroke-width="0.744186" stroke-linecap="round"/>
<path d="M11.0357 88.3103L13.321 87.1403C13.321 87.1403 14.7259 89.3881 16.1308 89.9501C17.5357 90.512 18.3787 90.512 18.3787 90.512C18.3787 90.512 18.9406 94.1432 18.9406 97.2556C18.9406 100.543 17.8167 105.685 17.2547 107.371C14.4922 107.371 12.547 106.826 11.4191 106.381C10.7266 106.108 10.4917 105.314 10.7706 104.624C11.2604 103.412 11.9549 101.441 12.1971 99.5034C12.5861 96.391 11.808 94.1432 11.808 94.1432L10.6877 95.2635C10.4086 95.5426 10.0218 95.7228 9.64453 95.6068C8.65017 95.3009 7.86511 94.2876 7.41631 93.315C7.21169 92.8715 7.32188 92.3598 7.62768 91.979L9.70039 89.3982C10.0639 88.9455 10.5189 88.5748 11.0357 88.3103Z" fill="#61BDFF"/>
<path d="M7.1394 92.587C7.52846 93.8977 8.69561 95.6994 10.2518 95.6994" stroke="#F9DD8F" stroke-width="0.744186" stroke-linecap="round"/>
<path d="M13.321 87.7021C13.321 87.7021 14.4302 90.512 17.5358 90.512C20.6414 90.512 21.7505 87.7021 21.7505 87.7021" stroke="#F9DD8F" stroke-width="1.48837" stroke-linecap="round"/>
<mask id="mask1_605_7069" style="mask-type:alpha" maskUnits="userSpaceOnUse" x="7" y="87" width="21" height="21">
<path d="M11.0357 88.3103L13.321 87.1403C13.321 87.1403 14.8124 90.2311 17.5357 90.2311C20.2591 90.2311 21.7504 87.1403 21.7504 87.1403L23.6684 88.3422C24.0585 88.5867 24.4049 88.8949 24.6932 89.2538L27.0422 92.1787C27.2544 92.4429 27.3843 92.7747 27.3219 93.1078C27.1123 94.226 26.2337 95.1535 24.9751 95.543C24.5326 95.68 24.0656 95.5073 23.738 95.1798L22.7015 94.1432C22.7015 94.1432 21.9234 96.391 22.3124 99.5034C22.5546 101.441 23.2491 103.412 23.7389 104.624C24.0178 105.314 23.7829 106.108 23.0903 106.381C21.9625 106.826 20.0173 107.371 17.2547 107.371C14.4922 107.371 12.547 106.826 11.4191 106.381C10.7266 106.108 10.4917 105.314 10.7706 104.624C11.2604 103.412 11.9549 101.441 12.1971 99.5034C12.5861 96.391 11.808 94.1432 11.808 94.1432L10.6878 95.2635C10.4086 95.5426 10.0218 95.7228 9.64453 95.6068C8.65017 95.3009 7.86511 94.2876 7.41631 93.315C7.21169 92.8715 7.32188 92.3598 7.62768 91.979L9.7004 89.3982C10.0639 88.9455 10.5189 88.5748 11.0357 88.3103Z" fill="#61BDFF"/>
</mask>
<g mask="url(#mask1_605_7069)">
<path fill-rule="evenodd" clip-rule="evenodd" d="M9.09318 89.4712C9.35697 89.3092 9.70189 89.3911 9.86483 89.654L9.8663 89.6563C9.86834 89.6594 9.87239 89.6657 9.87848 89.6747C9.89066 89.6929 9.91102 89.7224 9.93993 89.7616C9.99779 89.8401 10.0898 89.9575 10.2189 90.1009C10.4772 90.3877 10.8836 90.7781 11.4626 91.171C12.6153 91.9532 14.4729 92.7599 17.2547 92.7599C20.0366 92.7599 21.8942 91.9532 23.0468 91.171C23.6259 90.7781 24.0322 90.3877 24.2905 90.1009C24.4197 89.9575 24.5117 89.8401 24.5695 89.7616C24.5984 89.7224 24.6188 89.6929 24.631 89.6747C24.6371 89.6657 24.6411 89.6594 24.6431 89.6563L24.6439 89.655L24.6437 89.6555C24.644 89.655 24.6443 89.6544 24.6446 89.6539C24.8076 89.3911 25.1525 89.3093 25.4163 89.4712C25.6807 89.6336 25.7635 89.9797 25.6011 90.2442L25.148 89.9659C25.6011 90.2442 25.6009 90.2445 25.6007 90.2448L25.6003 90.2455L25.5993 90.2471L25.5967 90.2513L25.589 90.2633C25.5829 90.2729 25.5746 90.2856 25.5641 90.3012C25.5431 90.3324 25.5134 90.3754 25.4743 90.4283C25.3963 90.5342 25.2812 90.6803 25.1257 90.853C24.8147 91.1984 24.3411 91.651 23.6779 92.101C22.3461 93.0047 20.27 93.8838 17.2547 93.8838C14.2395 93.8838 12.1633 93.0047 10.8315 92.101C10.1683 91.651 9.69476 91.1984 9.38373 90.853C9.2282 90.6803 9.11313 90.5342 9.03511 90.4283C8.99609 90.3754 8.96631 90.3324 8.94533 90.3012C8.93484 90.2856 8.92655 90.2729 8.92041 90.2633L8.91279 90.2513L8.91018 90.2471L8.90916 90.2455L8.90873 90.2448C8.90854 90.2445 8.90835 90.2442 9.38724 89.9501L8.90835 90.2442C8.74595 89.9797 8.8287 89.6336 9.09318 89.4712Z" fill="#AFDDFD"/>
<path fill-rule="evenodd" clip-rule="evenodd" d="M12.054 95.1952C11.8488 94.9656 11.4965 94.9438 11.2645 95.1473C11.0312 95.352 11.008 95.707 11.2126 95.9404L11.6351 95.5698C11.2126 95.9404 11.2129 95.9407 11.2131 95.941L11.2137 95.9416L11.2149 95.943L11.2178 95.9462L11.2252 95.9544C11.231 95.9606 11.2383 95.9684 11.2471 95.9777C11.2649 95.9962 11.2889 96.0205 11.3197 96.0496C11.3811 96.108 11.4691 96.186 11.586 96.2769C11.8199 96.4587 12.1688 96.6913 12.651 96.9203C13.6177 97.3795 15.1055 97.8176 17.2547 97.8176C19.4039 97.8176 20.8917 97.3795 21.8584 96.9203C22.3406 96.6913 22.6895 96.4587 22.9235 96.2769C23.0403 96.186 23.1283 96.108 23.1898 96.0496C23.2205 96.0205 23.2446 95.9962 23.2623 95.9777C23.2712 95.9684 23.2785 95.9606 23.2842 95.9544L23.2917 95.9462L23.2945 95.943L23.2957 95.9416L23.2963 95.941C23.2966 95.9407 23.2968 95.9404 22.8744 95.5698L23.2968 95.9404C23.5015 95.707 23.4783 95.352 23.2449 95.1473C23.013 94.9438 22.6607 94.9656 22.4555 95.1952L22.4512 95.1997C22.4452 95.2059 22.4335 95.2179 22.4157 95.2348C22.3801 95.2686 22.3202 95.3223 22.2337 95.3895C22.061 95.5238 21.7813 95.7127 21.3762 95.9051C20.5683 96.2889 19.2463 96.6937 17.2547 96.6937C15.2631 96.6937 13.9412 96.2889 13.1332 95.9051C12.7281 95.7127 12.4485 95.5238 12.2757 95.3895C12.1893 95.3223 12.1294 95.2686 12.0938 95.2348C12.076 95.2179 12.0642 95.2059 12.0583 95.1997L12.054 95.1952Z" fill="#AFDDFD"/>
<path fill-rule="evenodd" clip-rule="evenodd" d="M10.4113 97.4978C10.2355 97.2437 9.88721 97.1791 9.63189 97.3538C9.37575 97.5291 9.31017 97.8788 9.48543 98.135L9.94922 97.8176C9.48543 98.135 9.48564 98.1353 9.48586 98.1356L9.48633 98.1363L9.48741 98.1378L9.49013 98.1418L9.49779 98.1526C9.50389 98.1611 9.51199 98.1722 9.52214 98.1858C9.54243 98.2129 9.57093 98.2498 9.60802 98.295C9.68219 98.3853 9.79082 98.509 9.93705 98.6547C10.2296 98.9462 10.6727 99.3259 11.2911 99.7025C12.5323 100.458 14.4597 101.189 17.2547 101.189C20.0497 101.189 21.9772 100.458 23.2184 99.7025C23.8368 99.3259 24.2799 98.9462 24.5724 98.6547C24.7187 98.509 24.8273 98.3853 24.9015 98.295C24.9386 98.2498 24.9671 98.2129 24.9873 98.1858C24.9975 98.1722 25.0056 98.1611 25.0117 98.1526L25.0194 98.1418L25.0221 98.1378L25.0232 98.1363L25.0236 98.1356C25.0238 98.1353 25.0241 98.135 24.5857 97.835L25.0241 98.135C25.1993 97.8788 25.1337 97.5291 24.8776 97.3538C24.6216 97.1787 24.2722 97.2441 24.0969 97.4997C24.0967 97.4999 24.0966 97.5001 24.0965 97.5003L24.5603 97.8176C24.0965 97.5003 24.0967 97.5 24.0969 97.4997L24.0972 97.4992L24.0975 97.4988C24.0981 97.498 24.0984 97.4975 24.0984 97.4975L24.0983 97.4976L24.0978 97.4984L24.0975 97.4988C24.096 97.5009 24.0926 97.5056 24.0874 97.5126C24.0769 97.5266 24.0588 97.5501 24.0328 97.5818C23.9808 97.6451 23.8972 97.7409 23.7791 97.8586C23.5429 98.0939 23.169 98.4167 22.6338 98.7426C21.5681 99.3916 19.8428 100.065 17.2547 100.065C14.6667 100.065 12.9414 99.3916 11.8756 98.7426C11.3405 98.4167 10.9666 98.0939 10.7304 97.8586C10.6123 97.7409 10.5287 97.6451 10.4767 97.5818C10.4507 97.5501 10.4326 97.5266 10.4221 97.5126C10.4169 97.5056 10.4135 97.5009 10.412 97.4988M10.4113 97.4978C10.4113 97.4978 10.4113 97.4978 10.4113 97.4978L10.4113 97.4978Z" fill="#AFDDFD"/>
<path fill-rule="evenodd" clip-rule="evenodd" d="M10.4113 101.432C10.2355 101.177 9.88721 101.113 9.63189 101.288C9.37575 101.463 9.31017 101.813 9.48543 102.069L9.94922 101.751C9.48543 102.069 9.48564 102.069 9.48586 102.069L9.48633 102.07L9.48741 102.072L9.49013 102.075L9.49779 102.086C9.50389 102.095 9.51199 102.106 9.52214 102.12C9.54243 102.147 9.57093 102.184 9.60802 102.229C9.68219 102.319 9.79082 102.443 9.93705 102.588C10.2296 102.88 10.6727 103.26 11.2911 103.636C12.5323 104.392 14.4597 105.123 17.2547 105.123C20.0497 105.123 21.9772 104.392 23.2184 103.636C23.8368 103.26 24.2799 102.88 24.5724 102.588C24.7187 102.443 24.8273 102.319 24.9015 102.229C24.9386 102.184 24.9671 102.147 24.9873 102.12C24.9975 102.106 25.0056 102.095 25.0117 102.086L25.0194 102.075L25.0221 102.072L25.0232 102.07L25.0236 102.069C25.0238 102.069 25.0241 102.069 24.5857 101.769L25.0241 102.069C25.1993 101.813 25.1337 101.463 24.8776 101.288C24.6216 101.112 24.2722 101.178 24.0969 101.433C24.0967 101.434 24.0966 101.434 24.0965 101.434L24.5603 101.751C24.0965 101.434 24.0967 101.434 24.0969 101.433L24.0972 101.433L24.0975 101.433C24.0981 101.432 24.0984 101.431 24.0984 101.431L24.0983 101.431L24.0978 101.432L24.0975 101.433C24.096 101.435 24.0926 101.439 24.0874 101.446C24.0769 101.46 24.0588 101.484 24.0328 101.515C23.9808 101.579 23.8972 101.675 23.7791 101.792C23.5429 102.028 23.169 102.35 22.6338 102.676C21.5681 103.325 19.8428 103.999 17.2547 103.999C14.6667 103.999 12.9414 103.325 11.8756 102.676C11.3405 102.35 10.9666 102.028 10.7304 101.792C10.6123 101.675 10.5287 101.579 10.4767 101.515C10.4507 101.484 10.4326 101.46 10.4221 101.446C10.4169 101.439 10.4135 101.435 10.412 101.433M10.4113 101.432C10.4113 101.432 10.4113 101.432 10.4113 101.432L10.4113 101.432Z" fill="#AFDDFD"/>
</g>
<path d="M14.277 105.149L14.1181 104.909C14.1181 104.909 15.3037 103.614 17.0794 102.438C19.2103 101.028 21.3961 100.858 22.1064 100.388C22.8167 99.9177 24.1824 97.7369 25.9581 96.5615C27.7338 95.3861 29.3895 94.801 29.3895 94.801L29.5484 95.041C29.7203 95.3007 29.69 95.734 29.7965 96.0268C29.9264 96.3837 30.2619 96.8905 30.6799 97.5221C31.3852 98.5875 31.26 100.713 29.4843 101.889C27.7085 103.064 26.1899 102.864 25.1126 102.229C24.0352 101.593 23.2131 100.932 22.6941 101.276C22.1752 101.619 22.5831 102.554 22.6265 103.874C22.6699 105.194 22.3813 106.59 20.6056 107.766C18.8298 108.941 16.8241 108.226 16.1188 107.16C15.7008 106.529 15.3653 106.022 15.0875 105.763C14.8597 105.551 14.4489 105.409 14.277 105.149Z" fill="#A35AAD"/>
<path d="M21.5687 102.276C22.6266 103.874 21.315 106.317 20.1534 107.086C18.8784 107.93 17.6082 107.867 16.8292 106.69C16.0502 105.513 15.7738 104.324 17.1944 103.384C18.4694 102.54 20.7897 101.099 21.5687 102.276Z" fill="#2BEED5"/>
<path d="M24.0546 100.631C25.1125 102.229 27.4137 102.281 28.8658 101.319C30.1407 100.475 30.7485 99.1691 29.9696 97.9922C29.1906 96.8154 28.2039 96.0964 26.7833 97.0367C25.5084 97.8806 23.2756 99.4537 24.0546 100.631Z" fill="#2BEED5"/>
<path fill-rule="evenodd" clip-rule="evenodd" d="M100.879 20.1517H84.9807V35.4142H100.879C101.582 35.4142 102.151 34.8448 102.151 34.1423V31.1915C102.081 31.1951 102.01 31.197 101.939 31.197C99.8319 31.197 98.1236 29.5786 98.1236 27.5822C98.1236 25.5858 99.8319 23.9674 101.939 23.9674C102.01 23.9674 102.081 23.9692 102.151 23.9728V21.4236C102.151 20.7212 101.582 20.1517 100.879 20.1517Z" fill="#CE92D6"/>
<path fill-rule="evenodd" clip-rule="evenodd" d="M79.2572 20.1517C78.5548 20.1517 77.9854 20.7212 77.9854 21.4236V23.9674C77.9854 23.9674 77.9854 23.9674 77.9854 23.9674C80.0927 23.9674 81.801 25.6757 81.801 27.783C81.801 29.8903 80.0927 31.5986 77.9854 31.5986L77.9854 34.1423C77.9854 34.8448 78.5548 35.4142 79.2572 35.4142H84.9807V20.1517H79.2572Z" fill="#CE92D6"/>
<path d="M89.931 31.5987C89.8394 31.5987 89.7478 31.573 89.6645 31.5218C89.4312 31.368 89.3646 31.0519 89.5062 30.8127L93.5962 24.2093C93.7461 23.9701 94.0543 23.8933 94.2875 24.047C94.5208 24.2008 94.5874 24.5169 94.4458 24.7561L90.3558 31.3595C90.2642 31.5132 90.0976 31.5987 89.931 31.5987Z" fill="#F4C12A"/>
<path d="M89.4322 27.786C88.3784 27.786 87.5244 26.932 87.5244 25.8781C87.5244 24.8243 88.3784 23.9703 89.4322 23.9703C90.4861 23.9703 91.34 24.8243 91.34 25.8781C91.34 26.932 90.4861 27.786 89.4322 27.786ZM89.4322 25.0605C88.978 25.0605 88.6146 25.4239 88.6146 25.8781C88.6146 26.3324 88.978 26.6958 89.4322 26.6958C89.8865 26.6958 90.2499 26.3324 90.2499 25.8781C90.2499 25.4239 89.8865 25.0605 89.4322 25.0605Z" fill="#F4C12A"/>
<path d="M94.5197 31.5986C93.4659 31.5986 92.6119 30.7446 92.6119 29.6908C92.6119 28.6369 93.4659 27.783 94.5197 27.783C95.5736 27.783 96.4276 28.6369 96.4276 29.6908C96.4276 30.7446 95.5736 31.5986 94.5197 31.5986ZM94.5197 28.8731C94.0655 28.8731 93.7021 29.2365 93.7021 29.6908C93.7021 30.145 94.0655 30.5084 94.5197 30.5084C94.974 30.5084 95.3374 30.145 95.3374 29.6908C95.3374 29.2365 94.974 28.8731 94.5197 28.8731Z" fill="#F4C12A"/>
<path fill-rule="evenodd" clip-rule="evenodd" d="M84.9807 23.3314C84.6294 23.3314 84.3447 23.0467 84.3447 22.6955L84.3447 21.4236C84.3447 21.0724 84.6294 20.7877 84.9807 20.7877C85.3319 20.7877 85.6166 21.0724 85.6166 21.4236L85.6166 22.6955C85.6166 23.0467 85.3319 23.3314 84.9807 23.3314Z" fill="#8B3D99"/>
<path fill-rule="evenodd" clip-rule="evenodd" d="M84.9807 27.147C84.6294 27.147 84.3447 26.8623 84.3447 26.511L84.3447 25.2392C84.3447 24.8879 84.6294 24.6032 84.9807 24.6032C85.3319 24.6032 85.6166 24.8879 85.6166 25.2392L85.6166 26.511C85.6166 26.8623 85.3319 27.147 84.9807 27.147Z" fill="#8B3D99"/>
<path fill-rule="evenodd" clip-rule="evenodd" d="M84.9807 30.9626C84.6294 30.9626 84.3447 30.6779 84.3447 30.3267V29.0548C84.3447 28.7036 84.6294 28.4189 84.9807 28.4189C85.3319 28.4189 85.6166 28.7036 85.6166 29.0548V30.3267C85.6166 30.6779 85.3319 30.9626 84.9807 30.9626Z" fill="#8B3D99"/>
<path fill-rule="evenodd" clip-rule="evenodd" d="M84.9807 34.7783C84.6294 34.7783 84.3447 34.4936 84.3447 34.1424V32.8705C84.3447 32.5193 84.6294 32.2346 84.9807 32.2346C85.3319 32.2346 85.6166 32.5193 85.6166 32.8705V34.1424C85.6166 34.4936 85.3319 34.7783 84.9807 34.7783Z" fill="#8B3D99"/>
</g>
<defs>
<clipPath id="clip0_605_7069">
<rect width="180" height="180" fill="white"/>
</clipPath>
<clipPath id="clip1_605_7069">
<rect width="43.7265" height="93.3393" fill="white" transform="translate(77.6945 55.0814) rotate(14.9855)"/>
</clipPath>
</defs>
</svg>
