<svg width="100" height="100" viewBox="0 0 100 100" fill="none" xmlns="http://www.w3.org/2000/svg">
<path d="M99.9307 52.2887C99.9307 74.9262 83.7294 97.6206 50.0042 97.6206C22.4306 97.6206 0.0777588 79.2693 0.0777588 56.6318C0.0777588 44.0188 5.26813 28.6726 18.6148 24.8723C31.9615 21.0721 33.2269 33.701 47.5622 33.701C61.8975 33.7009 70.626 25.5756 85.007 29.0966C95.8606 31.7539 99.9307 41.4273 99.9307 52.2887Z" fill="#8B3D99"/>
<mask id="mask0_686_12448" style="mask-type:alpha" maskUnits="userSpaceOnUse" x="0" y="23" width="100" height="75">
<path d="M99.9307 52.289C99.9307 74.9265 83.7294 97.621 50.0042 97.621C22.4306 97.621 0.0777588 79.2696 0.0777588 56.6321C0.0777588 44.0191 5.26813 28.673 18.6148 24.8727C31.9615 21.0724 33.2269 26.656 47.5622 26.656C61.8975 26.6559 70.626 25.5759 85.007 29.0969C95.8606 31.7543 99.9307 41.4276 99.9307 52.289Z" fill="#8B3D99"/>
</mask>
<g mask="url(#mask0_686_12448)">
<path fill-rule="evenodd" clip-rule="evenodd" d="M54.8852 65.7405C61.881 64.9842 68.1653 70.0423 68.9216 77.0381C70.8643 95.0077 79.8415 136.875 86.643 156.551C88.942 163.201 85.4144 170.456 78.7639 172.755C72.1135 175.054 64.8586 171.526 62.5597 164.876C55.0916 143.272 45.722 99.5203 43.5876 79.777C42.8313 72.7812 47.8894 66.4968 54.8852 65.7405Z" fill="#DCAC82"/>
<path d="M52.6526 91.6041C59.4765 93.4307 66.5379 89.1977 68.4245 82.1494C70.3112 75.1012 66.3088 67.9066 59.4848 66.08C52.6609 64.2534 45.5996 68.4864 43.7129 75.5347C41.8262 82.5829 45.8287 89.7775 52.6526 91.6041Z" fill="#DCAC82"/>
<path d="M63.3208 62.6318L67.2547 72.2134L44.8839 85.4653L32.2888 82.0227L39.3748 56.0852L63.3208 62.6318Z" fill="#DCAC82"/>
<path d="M68.4067 82.2156C69.0109 80.1563 69.7768 76.9586 70.02 73.0028C70.3359 67.7864 69.4789 65.2101 69.402 60.9663C69.358 58.3013 69.6136 54.6552 70.9185 50.1958C71.4672 48.324 70.4535 46.3732 68.6366 45.8595C66.9567 45.388 65.1673 46.3149 64.5446 48.0082C63.3708 51.2061 62.4802 54.5729 61.9205 58.0883C60.566 58.8746 57.6755 60.8088 55.8479 64.51C52.4961 71.2935 55.6689 78.0401 56.0686 78.8419L68.4067 82.2156Z" fill="#DCAC82"/>
<path d="M58.3879 82.5045C57.76 80.9524 55.9328 75.9063 57.5644 69.6525C59.1196 63.6846 62.8697 60.2409 64.1821 59.137C63.8131 58.6553 63.1931 57.707 62.9041 56.3331C62.6071 54.9298 62.808 53.7636 62.953 53.1624C62.7118 54.1427 62.4871 55.1602 62.2726 56.2188C62.1454 56.8522 62.0309 57.478 61.9254 58.0898C57.0006 59.2935 53.1297 63.2082 52.0279 68.1158C50.774 73.7103 53.3402 79.6161 58.3865 82.5096L58.3879 82.5045Z" fill="#BE906A"/>
<g clip-path="url(#clip0_686_12448)">
<path d="M54.793 88.4739L67.5146 39.4672C67.8003 38.3665 67.1345 37.2413 66.0274 36.954L44.2456 31.2996C43.1385 31.0123 42.0094 31.6715 41.7237 32.7721L29.0021 81.7789C28.7164 82.8795 29.3823 84.0047 30.4893 84.2921L52.2712 89.9464C53.3782 90.2338 54.5073 89.5745 54.793 88.4739Z" fill="#403556"/>
<path d="M55.192 86.937L67.9136 37.9302C68.1993 36.8296 67.5335 35.7044 66.4264 35.417L44.6445 29.7627C43.5375 29.4753 42.4084 30.1346 42.1227 31.2352L29.4011 80.2419C29.1154 81.3426 29.7812 82.4677 30.8883 82.7551L52.6702 88.4094C53.7772 88.6968 54.9063 88.0376 55.192 86.937Z" fill="#2C2044"/>
<path d="M54.5091 84.4193L66.0923 39.7979C66.234 39.2518 65.9037 38.6935 65.3544 38.5509L44.0518 33.021C43.5025 32.8784 42.9423 33.2055 42.8006 33.7516L31.2174 78.373C31.0756 78.9191 31.406 79.4774 31.9553 79.6199L53.2579 85.1498C53.8071 85.2924 54.3673 84.9653 54.5091 84.4193Z" fill="#742384"/>
<path d="M52.3706 34.0923L57.5649 35.4407C57.8665 35.519 58.1742 35.3394 58.2521 35.0394L58.2693 34.9729C58.3472 34.6729 58.1658 34.3663 57.8641 34.288L52.6698 32.9397C52.3682 32.8613 52.0605 33.041 51.9826 33.3409L51.9654 33.4075C51.8875 33.7074 52.0689 34.014 52.3706 34.0923Z" fill="#544A69"/>
</g>
<g clip-path="url(#clip1_686_12448)">
<rect x="43.0834" y="32.7284" width="24.0355" height="48.071" rx="10" transform="rotate(14.5521 43.0834 32.7284)" fill="#742384"/>
<g opacity="0.4" clip-path="url(#clip2_686_12448)">
<path d="M50.5512 56.3929L74.8252 54.1575L78.0328 41.8011L77.5604 41.6785L50.3473 55.6446L51.8506 55.5756L50.5512 56.3929Z" fill="#8B3D99"/>
<path d="M54.7157 35.7483L49.8064 54.66L74.1095 40.7827L63.5058 38.0301L51.4499 52.3221L58.1038 42.7061L56.9815 42.9726L57.4934 41.6523L55.5965 42.8467L58.6684 36.7743L54.7157 35.7483Z" fill="#8B3D99"/>
<path d="M48.5155 55.292L47.8864 52.7936L48.4366 53.9003L47.3855 33.8454L36.6506 31.0587L48.5155 55.292Z" fill="#8B3D99"/>
<path d="M29.7181 36.1694L47.072 54.2478L31.3219 42.5597L36.6964 48.0655L27.7127 43.8945L29.7181 36.1694Z" fill="#8B3D99"/>
<path d="M22.43 64.2448L47.0986 62.2525L45.2853 62.7429L46.8569 62.7503L20.1826 76.4481L19.3203 76.2243L22.43 64.2448Z" fill="#8B3D99"/>
<path d="M47.717 63.9894L42.7872 75.9475L42.4056 73.0498L38.3936 81.1755L25.5693 77.8464L47.717 63.9894Z" fill="#8B3D99"/>
<path d="M48.7802 63.0661L60.3423 86.8732L49.8099 84.1391L48.7264 64.4735L49.3207 65.8717L48.7802 63.0661Z" fill="#8B3D99"/>
<path d="M50.3626 64.2871L67.5256 82.2774L69.5317 74.5493L60.6968 70.455L65.6897 75.556L50.3626 64.2871Z" fill="#8B3D99"/>
</g>
</g>
<path fill-rule="evenodd" clip-rule="evenodd" d="M50.904 48.7843C51.1789 48.732 51.4628 48.8057 51.6776 48.9851C52.8558 49.9688 56.7712 53.2375 58.1115 54.3564C58.3891 54.5881 58.5081 54.959 58.4173 55.309L56.9099 61.1158C55.4637 66.6871 49.4567 68.6494 47.0051 69.2267C46.3421 69.3829 45.6445 69.2018 45.1412 68.7428C43.2798 67.0457 38.9857 62.4094 40.4319 56.8383L41.9394 51.0314C42.0302 50.6813 42.3147 50.4152 42.6699 50.3477C44.3852 50.0221 49.3959 49.0706 50.904 48.7843Z" fill="#00AD97"/>
<path fill-rule="evenodd" clip-rule="evenodd" d="M46.4688 67.4591C46.1067 67.3651 45.7691 67.182 45.4927 66.9301C44.6849 66.1937 43.5425 64.986 42.6876 63.4153C42.1907 62.5025 41.8535 61.5738 41.6848 60.6551C41.483 59.555 41.5208 58.4574 41.7972 57.3928L43.0879 52.46C43.1848 52.09 43.4858 51.8087 43.8616 51.7374L50.4366 50.4886C50.728 50.4332 51.0287 50.5113 51.2563 50.7014L56.4021 54.9972C56.6962 55.2427 56.8224 55.6359 56.7262 56.0066L55.4466 60.9356C55.1702 62.0004 54.6694 62.9779 53.958 63.8407C53.364 64.5614 52.6175 65.2087 51.7393 65.7646C50.2284 66.721 48.6428 67.2206 47.5786 67.4712C47.2145 67.557 46.8308 67.5526 46.4685 67.4586L46.4688 67.4591Z" fill="#10CBB4"/>
<path fill-rule="evenodd" clip-rule="evenodd" d="M47.4464 59.8957C47.4464 59.8957 46.4993 58.2844 45.9259 57.309C45.8124 57.1161 45.6272 56.9762 45.4105 56.9199C45.1938 56.8636 44.9639 56.8959 44.771 57.0092C44.578 57.1224 44.4382 57.3078 44.3819 57.5245C44.3257 57.7412 44.3577 57.9711 44.4712 58.1641L46.3063 61.2863C46.4496 61.53 46.6839 61.7069 46.9576 61.778C47.2313 61.849 47.522 61.8084 47.7658 61.6651L53.2141 58.4625C53.6158 58.2264 53.75 57.7093 53.5138 57.3078C53.2777 56.9061 52.7606 56.7718 52.3591 57.008C50.8351 57.9039 47.4461 59.896 47.4461 59.896L47.4464 59.8957Z" fill="white"/>
<path d="M37.5705 50.7643C39.0089 51.7909 41.0032 51.4104 42.0248 49.9143C43.0465 48.4183 42.7086 46.3732 41.2702 45.3465L38.695 43.5085C37.2566 42.4819 35.2623 42.8624 34.2406 44.3585C33.219 45.8546 33.5568 47.8996 34.9952 48.9263L37.5705 50.7643Z" fill="#DCAC82"/>
<path d="M35.6748 59.5698C37.2581 60.344 39.1727 59.6414 39.9512 58.0004C40.7298 56.3595 40.0774 54.4016 38.4942 53.6273L35.1075 51.9711C33.5242 51.1969 31.6096 51.8995 30.831 53.5405C30.0525 55.1814 30.7049 57.1394 32.2881 57.9136L35.6748 59.5698Z" fill="#DCAC82"/>
<path d="M33.105 67.8624C34.7516 68.4866 36.6001 67.6113 37.2337 65.9076C37.8673 64.2039 37.046 62.3168 35.3994 61.6927L31.9824 60.3975C30.3357 59.7734 28.4872 60.6486 27.8537 62.3523C27.2201 64.0561 28.0414 65.9432 29.688 66.5673L33.105 67.8624Z" fill="#DCAC82"/>
<path d="M31.3178 76.6418C32.9644 77.2659 34.8129 76.3907 35.4464 74.687C36.08 72.9833 35.2588 71.0962 33.6121 70.472L30.6498 69.3492C29.0031 68.7251 27.1547 69.6003 26.5211 71.304C25.8875 73.0078 26.7088 74.8949 28.3554 75.519L31.3178 76.6418Z" fill="#DCAC82"/>
</g>
<ellipse cx="50.3636" cy="15.0606" rx="12.7273" ry="12.7273" fill="#FDF0FF"/>
<ellipse cx="12.9091" cy="41.6061" rx="12.7273" ry="12.7273" fill="#FDF0FF"/>
<ellipse cx="86.9091" cy="41.6061" rx="12.7273" ry="12.7273" fill="#FDF0FF"/>
<path d="M80.3209 37.6355H93.4973V48.2237C93.4973 48.7435 93.076 49.1649 92.5562 49.1649H81.262C80.7422 49.1649 80.3209 48.7435 80.3209 48.2237V37.6355Z" fill="#F0CEF5"/>
<path d="M82.6738 45.1649C82.6738 44.6451 83.0952 44.2237 83.615 44.2237H90.2032C90.723 44.2237 91.1444 44.6451 91.1444 45.1649V49.1649H82.6738V45.1649Z" fill="#CE92D6"/>
<path fill-rule="evenodd" clip-rule="evenodd" d="M81.0743 34.6829C81.3402 34.3203 81.763 34.106 82.2127 34.106H91.6055C92.0552 34.106 92.478 34.3203 92.7439 34.6829L94.9091 37.6355H78.9091L81.0743 34.6829Z" fill="#F0CEF5"/>
<rect x="82.6738" y="41.4001" width="8.47059" height="1.88235" rx="0.470588" fill="#10CBB4"/>
<path d="M78.9091 37.6355H82.2032V38.8119C82.2032 39.7216 81.4658 40.459 80.5562 40.459C79.6465 40.459 78.9091 39.7216 78.9091 38.8119V37.6355Z" fill="#8B3D99"/>
<path d="M82.2032 37.6355H85.2621V38.9296C85.2621 39.7743 84.5773 40.459 83.7327 40.459C82.888 40.459 82.2032 39.7743 82.2032 38.9296V37.6355Z" fill="#CE92D6"/>
<path d="M85.2621 37.6355H88.5562V38.8119C88.5562 39.7216 87.8188 40.459 86.9091 40.459C85.9995 40.459 85.2621 39.7216 85.2621 38.8119V37.6355Z" fill="#8B3D99"/>
<path d="M85.2621 37.6355H88.5562L88.0856 34.106H85.7326L85.2621 37.6355Z" fill="#CE92D6"/>
<path d="M78.9091 37.6355H82.2032L83.3797 34.106H81.4264C81.1785 34.106 80.9487 34.2361 80.8211 34.4488L78.9091 37.6355Z" fill="#CE92D6"/>
<path d="M94.9091 37.6355H91.615L90.4385 34.106H92.3918C92.6398 34.106 92.8695 34.2361 92.9971 34.4488L94.9091 37.6355Z" fill="#CE92D6"/>
<path d="M88.5562 37.6355H91.615V38.9296C91.615 39.7743 90.9302 40.459 90.0856 40.459C89.2409 40.459 88.5562 39.7743 88.5562 38.9296V37.6355Z" fill="#CE92D6"/>
<path d="M91.615 37.6355H94.9091V38.8119C94.9091 39.7216 94.1717 40.459 93.262 40.459C92.3524 40.459 91.615 39.7216 91.615 38.8119V37.6355Z" fill="#8B3D99"/>
<path d="M15.3091 36.8061H17.7091C18.5928 36.8061 19.3091 37.5224 19.3091 38.4061V40.4061C19.3091 41.2897 18.5928 42.0061 17.7091 42.0061H15.3091V36.8061Z" fill="#F4C12A"/>
<path d="M8.20333 36.686C8.72209 37.2048 8.5934 37.8103 8.48095 38.1082C8.43377 38.2333 8.33636 38.3307 8.21134 38.3779C7.9134 38.4903 7.30787 38.619 6.78911 38.1002C6.06915 37.3803 6.41627 36.3132 6.41627 36.3132C6.41627 36.3132 7.48336 35.9661 8.20333 36.686Z" fill="#10CBB4"/>
<rect x="10.1091" y="34.406" width="5.2" height="7.6" rx="1.6" fill="#10CBB4"/>
<ellipse cx="9.30909" cy="40.406" rx="2.8" ry="2.8" fill="#F4C12A"/>
<rect x="12.1091" y="36.8061" width="4.8" height="5.2" rx="1.6" fill="#F9DD8F"/>
<path d="M5.90652 43.7827C5.80121 42.8349 6.54311 42.006 7.49673 42.006H18.3215C19.2751 42.006 20.017 42.8349 19.9117 43.7827L19.7835 44.9361C19.5134 47.367 17.4587 49.206 15.0129 49.206H10.8053C8.35948 49.206 6.30477 47.367 6.03467 44.9361L5.90652 43.7827Z" fill="#8B3D99"/>
<rect x="4.90912" y="40.406" width="16" height="2.8" rx="1.4" fill="#CE92D6"/>
<rect x="8.90912" y="44.006" width="1.6" height="3.6" rx="0.8" fill="#CE92D6"/>
<rect x="12.1091" y="44.006" width="1.6" height="3.6" rx="0.8" fill="#CE92D6"/>
<rect x="15.3091" y="44.006" width="1.6" height="3.6" rx="0.8" fill="#CE92D6"/>
<rect x="19.9205" y="36.8095" width="1.6" height="9.6" rx="0.8" transform="rotate(60 19.9205 36.8095)" fill="#CE92D6"/>
<path fill-rule="evenodd" clip-rule="evenodd" d="M11.7091 34.006C11.7091 33.7851 11.8882 33.606 12.1091 33.606H13.3091C13.53 33.606 13.7091 33.7851 13.7091 34.006C13.7091 34.227 13.53 34.406 13.3091 34.406H12.1091C11.8882 34.406 11.7091 34.227 11.7091 34.006Z" fill="#8B3D99"/>
<path fill-rule="evenodd" clip-rule="evenodd" d="M12.1091 38.606C12.1091 38.2747 12.3778 38.006 12.7091 38.006H13.5091C13.8405 38.006 14.1091 38.2747 14.1091 38.606C14.1091 38.9374 13.8405 39.206 13.5091 39.206H12.7091C12.3778 39.206 12.1091 38.9374 12.1091 38.606Z" fill="#F4C12A"/>
<g clip-path="url(#clip3_686_12448)">
<path d="M56.0494 14.2385L48.6449 18.4198C48.3893 18.5641 48.2986 18.8839 48.4423 19.134L50.5108 22.7328C50.6545 22.9829 50.9783 23.0687 51.2338 22.9243L58.6384 18.7431C58.894 18.5987 58.9847 18.279 58.8409 18.0289L56.7725 14.4301C56.6287 14.18 56.305 14.0942 56.0494 14.2385Z" fill="#006B5F"/>
<path fill-rule="evenodd" clip-rule="evenodd" d="M56.6592 15.2988L58.0938 17.795C57.9143 18.0175 57.8327 18.3024 57.8686 18.5813L51.6017 22.1203C51.342 21.9196 50.9943 21.8498 50.6676 21.9395L49.2756 19.5175C49.5539 19.2524 49.6667 18.8587 49.5685 18.4949L55.7593 14.9989C55.9925 15.2353 56.3288 15.3448 56.6592 15.2988Z" fill="#004D43"/>
<path d="M56.1518 17.6098C56.3434 17.5017 56.4119 17.2628 56.3047 17.0763C56.1975 16.8898 55.9553 16.8264 55.7637 16.9345C55.5721 17.0427 55.5036 17.2816 55.6108 17.4681C55.718 17.6546 55.9602 17.718 56.1518 17.6098Z" fill="#006B5F"/>
<path d="M51.6354 20.1628C51.827 20.0546 51.8954 19.8157 51.7883 19.6293C51.6811 19.4428 51.4388 19.3793 51.2473 19.4875C51.0557 19.5957 50.9872 19.8345 51.0944 20.021C51.2016 20.2075 51.4438 20.271 51.6354 20.1628Z" fill="#006B5F"/>
<path fill-rule="evenodd" clip-rule="evenodd" d="M53.0456 17.2777C53.748 16.8811 54.6361 17.1141 55.0293 17.798C55.4224 18.4819 55.1717 19.3577 54.4694 19.7543C53.767 20.1508 52.8788 19.9178 52.4857 19.234C52.0925 18.5501 52.3432 17.6742 53.0456 17.2777Z" fill="#006B5F"/>
<path fill-rule="evenodd" clip-rule="evenodd" d="M54.0094 18.8692C54.0064 18.9313 53.9863 18.9873 53.9493 19.0372C53.9257 19.0677 53.8952 19.0969 53.858 19.125C53.8208 19.1531 53.7752 19.1823 53.7215 19.2127L53.41 19.3885C53.3651 19.4139 53.3272 19.422 53.2963 19.4127C53.2654 19.4034 53.2373 19.3768 53.212 19.3327L52.7717 18.5668C52.7459 18.5219 52.7371 18.484 52.7455 18.4531C52.7539 18.4223 52.7801 18.3945 52.8241 18.3697L53.1542 18.1832C53.2028 18.1558 53.2468 18.135 53.286 18.1208C53.3252 18.1066 53.3638 18.1003 53.4018 18.1014C53.4341 18.1022 53.466 18.1083 53.4972 18.1199C53.5284 18.1314 53.5566 18.1478 53.5815 18.1689C53.6066 18.1901 53.6276 18.2154 53.6446 18.2451C53.7033 18.3471 53.6951 18.4503 53.6203 18.5554C53.7788 18.5223 53.8934 18.5675 53.9642 18.6907C53.9974 18.7476 54.0123 18.807 54.0094 18.8692ZM53.4461 18.5536C53.4686 18.5281 53.4793 18.4975 53.4784 18.4617C53.4787 18.4357 53.4721 18.4107 53.4583 18.3866C53.4287 18.3352 53.3907 18.3113 53.3444 18.3151C53.2981 18.3189 53.2373 18.342 53.1623 18.3843L52.9948 18.4789L53.1462 18.7423L53.3353 18.6356C53.3866 18.6064 53.4236 18.5791 53.4461 18.5536ZM54.7577 18.5001C54.7535 18.5517 54.7323 18.6013 54.6934 18.6487C54.6546 18.696 54.5996 18.7399 54.5281 18.7803C54.4599 18.8187 54.3955 18.8414 54.335 18.848C54.2744 18.8545 54.2233 18.8489 54.1823 18.8307C54.1412 18.8125 54.1116 18.7877 54.0935 18.7561C54.0815 18.7353 54.0785 18.7132 54.0849 18.69C54.0912 18.6667 54.1057 18.6488 54.1284 18.636C54.1483 18.6248 54.1664 18.621 54.1827 18.6246C54.1989 18.6283 54.217 18.6362 54.2368 18.6484C54.2759 18.6713 54.3136 18.6834 54.3502 18.6848C54.3869 18.6862 54.4287 18.6736 54.4755 18.6472C54.5136 18.6257 54.5397 18.5997 54.5544 18.569C54.5691 18.5384 54.57 18.5123 54.5574 18.4904C54.5383 18.457 54.5116 18.4398 54.4776 18.4389C54.4436 18.4377 54.3936 18.4467 54.3277 18.4656C54.2531 18.4862 54.19 18.4993 54.1388 18.5045C54.0875 18.5099 54.0412 18.5048 53.9999 18.4894C53.9585 18.4741 53.9255 18.4452 53.9011 18.4026C53.8792 18.3645 53.8699 18.3222 53.8732 18.2757C53.8765 18.229 53.8946 18.1832 53.9272 18.138C53.9599 18.0928 54.0076 18.0526 54.07 18.0173C54.1191 17.9896 54.1664 17.9698 54.2113 17.9579C54.2564 17.9459 54.2968 17.9412 54.3329 17.9436C54.3691 17.946 54.3998 17.9537 54.4255 17.9668C54.4512 17.9799 54.4697 17.9964 54.4811 18.0163C54.4936 18.038 54.4965 18.06 54.4901 18.0822C54.4835 18.1043 54.4666 18.1231 54.4398 18.1383C54.4202 18.1493 54.4005 18.1531 54.3804 18.1497C54.3603 18.1462 54.335 18.1384 54.3047 18.1261C54.2797 18.1157 54.2542 18.1103 54.2284 18.1104C54.2024 18.1102 54.1728 18.1196 54.1394 18.1385C54.1052 18.1578 54.0809 18.1813 54.0665 18.2086C54.0521 18.2359 54.0512 18.2606 54.0638 18.2824C54.0752 18.3023 54.093 18.3139 54.1171 18.3174C54.1411 18.3206 54.1695 18.3185 54.2027 18.3108C54.2357 18.3032 54.2805 18.2914 54.337 18.2755C54.404 18.2566 54.462 18.2467 54.5108 18.2454C54.5595 18.2442 54.6014 18.2518 54.6363 18.2681C54.671 18.2843 54.6986 18.3099 54.7185 18.3446C54.7487 18.3964 54.7618 18.4484 54.7577 18.5001ZM53.4452 18.7691C53.517 18.7285 53.5778 18.7095 53.6272 18.7123C53.6768 18.7151 53.7162 18.7421 53.7459 18.7937C53.8036 18.8942 53.7627 18.9838 53.6233 19.0626L53.4015 19.1878L53.2305 18.8903L53.4452 18.7691Z" fill="#004D43"/>
<path d="M52.1945 10.5807L46.4589 18.7499C46.261 19.0318 46.3265 19.4165 46.6053 19.6091L50.6173 22.3796C50.8961 22.5722 51.2826 22.4997 51.4806 22.2177L57.2162 14.0485C57.4141 13.7665 57.3486 13.3818 57.0698 13.1893L53.0578 10.4187C52.779 10.2262 52.3925 10.2987 52.1945 10.5807Z" fill="#00AD97"/>
<path fill-rule="evenodd" clip-rule="evenodd" d="M53.3768 11.3975L56.159 13.3188C56.0812 13.6452 56.1387 13.9884 56.3178 14.2658L51.4641 21.179C51.0874 21.0974 50.6836 21.1989 50.3826 21.4588L47.6831 19.5946C47.844 19.1731 47.7646 18.699 47.4767 18.363L52.2713 11.5338C52.6381 11.6666 53.0498 11.6129 53.3768 11.3975Z" fill="#008C7B"/>
<path d="M54.0046 14.1083C54.1531 13.8968 54.1048 13.6088 53.8968 13.4651C53.6887 13.3214 53.3996 13.3764 53.251 13.588C53.1025 13.7995 53.1507 14.0875 53.3588 14.2312C53.5669 14.3749 53.856 14.3199 54.0046 14.1083Z" fill="#00AD97"/>
<path d="M50.5136 19.0828C50.6621 18.8712 50.6139 18.5832 50.4058 18.4395C50.1977 18.2958 49.9086 18.3509 49.7601 18.5624C49.6115 18.774 49.6598 19.062 49.8679 19.2057C50.0759 19.3494 50.3651 19.2943 50.5136 19.0828Z" fill="#00AD97"/>
<path fill-rule="evenodd" clip-rule="evenodd" d="M50.5457 15.3177C51.0904 14.5419 52.1504 14.3401 52.9134 14.8669C53.6763 15.3937 53.8532 16.4497 53.3085 17.2255C52.7638 18.0012 51.7037 18.2031 50.9408 17.6762C50.1779 17.1494 50.001 16.0935 50.5457 15.3177Z" fill="#00AD97"/>
<path fill-rule="evenodd" clip-rule="evenodd" d="M52.3727 16.5188C52.4008 16.5862 52.4079 16.6557 52.3938 16.7272C52.3842 16.7715 52.3666 16.8179 52.3414 16.8665C52.3161 16.915 52.2826 16.9691 52.2409 17.0284L51.9995 17.3722C51.9647 17.4218 51.9287 17.4495 51.8911 17.4553C51.8537 17.461 51.8105 17.447 51.7614 17.4131L50.9076 16.8235C50.8575 16.7889 50.8291 16.7531 50.8224 16.7162C50.8157 16.6793 50.8294 16.6365 50.8635 16.588L51.1194 16.2236C51.1571 16.1699 51.1931 16.1256 51.2275 16.0908C51.2619 16.056 51.2997 16.0297 51.3405 16.0117C51.3752 15.9962 51.412 15.9866 51.451 15.9831C51.4899 15.9796 51.5281 15.9827 51.5652 15.9924C51.6025 16.0023 51.6375 16.0185 51.6706 16.0414C51.7843 16.1199 51.8278 16.2335 51.8016 16.3826C51.9528 16.2675 52.0972 16.2575 52.2346 16.3523C52.2985 16.3959 52.3443 16.4514 52.3727 16.5188ZM51.6159 16.4688C51.6269 16.4304 51.6228 16.3925 51.6038 16.355C51.5909 16.3273 51.5713 16.3041 51.5445 16.2856C51.4872 16.246 51.4348 16.2399 51.3876 16.2673C51.3405 16.2947 51.2876 16.3499 51.2295 16.4327L51.0997 16.6176L51.3933 16.8204L51.5399 16.6117C51.5796 16.5548 51.605 16.5072 51.6159 16.4688ZM52.9795 15.7494C53.0012 15.8062 53.0037 15.8696 52.9864 15.9395C52.9693 16.0092 52.9331 16.0835 52.8777 16.1624C52.8249 16.2377 52.768 16.2942 52.7071 16.3318C52.6462 16.3694 52.5892 16.3892 52.5365 16.3906C52.4837 16.3922 52.4398 16.3807 52.4046 16.3564C52.3814 16.3404 52.3672 16.3185 52.3621 16.2907C52.3571 16.2628 52.3634 16.2365 52.381 16.2114C52.3964 16.1895 52.4137 16.1763 52.4328 16.1719C52.4519 16.1676 52.475 16.1669 52.5022 16.1698C52.5552 16.1743 52.6013 16.1681 52.6408 16.1511C52.6804 16.1341 52.7185 16.0996 52.7547 16.048C52.7842 16.0059 52.7988 15.9651 52.7989 15.9252C52.799 15.8853 52.7867 15.8571 52.7624 15.8403C52.7251 15.8146 52.6881 15.8098 52.6516 15.826C52.615 15.842 52.5666 15.8767 52.5062 15.93C52.4375 15.9896 52.3773 16.0353 52.3256 16.0667C52.2739 16.0983 52.2223 16.1164 52.1707 16.121C52.1191 16.1256 52.0695 16.1116 52.0221 16.0788C51.9796 16.0495 51.9484 16.0094 51.9284 15.9583C51.9083 15.9072 51.9043 15.8494 51.9161 15.785C51.9279 15.7206 51.9581 15.6539 52.0066 15.585C52.0446 15.5308 52.0847 15.4859 52.1263 15.4506C52.1681 15.4151 52.2086 15.3897 52.2481 15.374C52.2876 15.3583 52.324 15.3509 52.3579 15.3518C52.3917 15.3528 52.4198 15.3609 52.4419 15.3762C52.4661 15.3929 52.4803 15.4148 52.4847 15.4416C52.4889 15.4683 52.4805 15.4967 52.4597 15.5264C52.4445 15.548 52.4256 15.562 52.4025 15.5685C52.3794 15.575 52.3486 15.5795 52.3103 15.5818C52.2785 15.5833 52.2489 15.5905 52.2214 15.6036C52.1938 15.6166 52.1672 15.6415 52.1413 15.6783C52.1148 15.7161 52.1009 15.7533 52.0994 15.7896C52.098 15.8258 52.1095 15.8523 52.1339 15.8692C52.156 15.8845 52.1807 15.8878 52.208 15.8793C52.2351 15.8706 52.2642 15.854 52.2955 15.8291C52.3267 15.8044 52.3682 15.7693 52.42 15.7238C52.4816 15.6699 52.538 15.6301 52.5892 15.6041C52.6402 15.5783 52.6884 15.565 52.7336 15.5648C52.7787 15.5644 52.8208 15.5776 52.8595 15.6043C52.9176 15.6439 52.9578 15.6925 52.9795 15.7494ZM51.7254 16.6971C51.7811 16.6178 51.8359 16.567 51.8897 16.545C51.9437 16.5229 51.9991 16.5316 52.0566 16.5713C52.1687 16.6487 52.1706 16.7644 52.0625 16.9184L51.8906 17.1632L51.559 16.9342L51.7254 16.6971Z" fill="#008C7B"/>
<path d="M46.9141 8.75574L44.3673 20.0589C44.2794 20.4491 44.5207 20.8341 44.9062 20.9189L50.4543 22.1391C50.8398 22.2239 51.2237 21.9764 51.3116 21.5862L53.8584 10.283C53.9463 9.89286 53.705 9.50783 53.3195 9.42304L47.7714 8.20282C47.3858 8.11803 47.002 8.36557 46.9141 8.75574Z" fill="#12DEC4"/>
<path fill-rule="evenodd" clip-rule="evenodd" d="M48.5493 9.11582L52.3963 9.96201C52.4575 10.3471 52.6717 10.6911 52.9876 10.911L50.8325 20.4761C50.3909 20.5537 50.0014 20.84 49.7928 21.2516L46.0601 20.4305C46.0462 19.9066 45.7502 19.4314 45.2913 19.1963L47.4201 9.74737C47.8737 9.72934 48.293 9.49099 48.5493 9.11582Z" fill="#00AD97"/>
<path d="M50.4259 11.756C50.4919 11.4633 50.312 11.1746 50.0242 11.1113C49.7363 11.048 49.4495 11.234 49.3835 11.5268C49.3175 11.8196 49.4974 12.1082 49.7852 12.1715C50.0731 12.2348 50.3599 12.0488 50.4259 11.756Z" fill="#12DEC4"/>
<path d="M48.8817 18.6387C48.9477 18.3459 48.7679 18.0573 48.48 17.994C48.1921 17.9307 47.9053 18.1167 47.8393 18.4095C47.7733 18.7022 47.9532 18.9909 48.2411 19.0542C48.5289 19.1175 48.8158 18.9314 48.8817 18.6387Z" fill="#12DEC4"/>
<path fill-rule="evenodd" clip-rule="evenodd" d="M47.2428 14.5756C47.4855 13.5014 48.5373 12.818 49.592 13.0493C50.6466 13.2806 51.3048 14.339 51.0621 15.4132C50.8193 16.4875 49.7676 17.1709 48.7129 16.9396C47.6583 16.7083 47.0001 15.6499 47.2428 14.5756Z" fill="#12DEC4"/>
<path fill-rule="evenodd" clip-rule="evenodd" d="M49.7411 15.0643C49.8011 15.1243 49.8394 15.1959 49.8559 15.2791C49.8652 15.331 49.8668 15.3887 49.8611 15.452C49.8554 15.5153 49.8432 15.5882 49.8246 15.6704L49.7169 16.1465C49.7014 16.2151 49.6749 16.2608 49.6371 16.2836C49.5993 16.3061 49.5466 16.3101 49.4788 16.2953L48.2997 16.037C48.2306 16.0218 48.1841 15.9959 48.1606 15.9591C48.1371 15.9223 48.133 15.8702 48.1482 15.8031L48.2623 15.2984C48.2791 15.2242 48.2984 15.1606 48.32 15.108C48.3416 15.0554 48.3706 15.0106 48.4066 14.9732C48.437 14.9413 48.4724 14.9147 48.5127 14.8938C48.5531 14.8729 48.5955 14.8594 48.6397 14.8536C48.6842 14.8478 48.729 14.8498 48.7748 14.8599C48.9318 14.8943 49.0288 14.9972 49.0665 15.1692C49.1783 14.9788 49.3292 14.9044 49.5189 14.946C49.6069 14.9647 49.6808 15.0042 49.7411 15.0643ZM48.9049 15.3436C48.8997 15.2974 48.8785 15.2585 48.8415 15.2266C48.8154 15.2024 48.784 15.1861 48.747 15.178C48.6679 15.1607 48.6089 15.1772 48.5702 15.2274C48.5316 15.2776 48.4992 15.3603 48.4733 15.4749L48.4153 15.7309L48.8209 15.8198L48.8862 15.5308C48.9038 15.4521 48.9101 15.3897 48.9049 15.3436ZM50.0538 13.9695C50.1022 14.0211 50.1329 14.0881 50.1452 14.1709C50.1576 14.2534 50.1515 14.3494 50.1268 14.4586C50.1032 14.5628 50.0671 14.6486 50.0181 14.7159C49.9692 14.7831 49.9167 14.8295 49.8606 14.8542C49.8045 14.8791 49.7522 14.8862 49.7037 14.8755C49.6716 14.8685 49.6466 14.8512 49.6289 14.8235C49.6111 14.7958 49.6063 14.7647 49.6141 14.73C49.621 14.6996 49.6338 14.6778 49.6524 14.6647C49.671 14.6516 49.6956 14.6407 49.7262 14.6318C49.7851 14.6134 49.8319 14.5864 49.867 14.5507C49.902 14.515 49.9277 14.4611 49.9439 14.3896C49.957 14.3314 49.9547 14.2811 49.9372 14.2381C49.9196 14.1952 49.894 14.1703 49.8603 14.1629C49.8089 14.1516 49.767 14.1628 49.7349 14.1962C49.7025 14.2296 49.6658 14.2883 49.6244 14.3722C49.5769 14.4665 49.5323 14.5422 49.4906 14.5987C49.4489 14.6555 49.4014 14.6976 49.3479 14.7253C49.2945 14.7529 49.2349 14.7597 49.1694 14.7454C49.1108 14.7325 49.0595 14.7031 49.0154 14.657C48.9711 14.6108 48.9413 14.5505 48.9255 14.476C48.9097 14.4015 48.9128 14.3165 48.9344 14.221C48.9514 14.146 48.9747 14.0801 49.0038 14.0238C49.0331 13.9672 49.0654 13.922 49.101 13.8878C49.1365 13.8535 49.1724 13.8295 49.2093 13.8156C49.2461 13.8017 49.2798 13.7981 49.3104 13.8048C49.3438 13.8121 49.3688 13.8294 49.3854 13.8563C49.4017 13.8832 49.4052 13.9174 49.3959 13.9585C49.3892 13.9884 49.375 14.0118 49.353 14.029C49.3311 14.0461 49.3 14.0645 49.2597 14.0838C49.2262 14.0995 49.1975 14.1203 49.1738 14.1465C49.1498 14.1725 49.1322 14.211 49.1207 14.2621C49.1088 14.3144 49.1103 14.3605 49.1248 14.4001C49.1393 14.4398 49.1634 14.4633 49.197 14.4706C49.2276 14.4773 49.2557 14.4701 49.2812 14.4489C49.3065 14.4276 49.3305 14.397 49.3531 14.3564C49.3757 14.3161 49.4049 14.26 49.4405 14.1883C49.483 14.1033 49.5261 14.0355 49.5696 13.9851C49.613 13.9348 49.6591 13.8994 49.7076 13.8792C49.7559 13.859 49.807 13.8546 49.8605 13.8663C49.9405 13.8833 50.0053 13.9179 50.0538 13.9695ZM49.1251 15.5411C49.1499 15.4313 49.1864 15.3525 49.2346 15.3052C49.2828 15.2576 49.3464 15.2426 49.4258 15.26C49.5805 15.2939 49.6337 15.4176 49.5855 15.6307L49.5088 15.9697L49.0508 15.8694L49.1251 15.5411Z" fill="#00AD97"/>
<path d="M41.9454 8.29789L42.6555 21.2599C42.68 21.7073 43.059 22.0509 43.502 22.0273L49.8763 21.6882C50.3193 21.6647 50.6585 21.2829 50.634 20.8355L49.924 7.87346C49.8994 7.42604 49.5205 7.08244 49.0775 7.10601L42.7031 7.4451C42.2602 7.46866 41.9209 7.85047 41.9454 8.29789Z" fill="#5FF7E4"/>
<path fill-rule="evenodd" clip-rule="evenodd" d="M43.8242 8.19812L48.2447 7.96296C48.4288 8.36049 48.766 8.66779 49.175 8.8109L49.7759 19.7803C49.3219 19.9959 48.9884 20.4213 48.889 20.9278L44.5999 21.156C44.4244 20.5946 43.9586 20.17 43.39 20.0532L42.7965 9.21705C43.2816 9.06214 43.662 8.67964 43.8242 8.19812Z" fill="#12DEC4"/>
<path d="M46.6679 10.4851C46.6495 10.1495 46.3666 9.89165 46.0361 9.90923C45.7055 9.92682 45.4524 10.2131 45.4708 10.5488C45.4892 10.8844 45.7721 11.1422 46.1027 11.1246C46.4332 11.107 46.6863 10.8207 46.6679 10.4851Z" fill="#5FF7E4"/>
<path d="M47.0976 18.3822C47.0792 18.0465 46.7963 17.7887 46.4657 17.8063C46.1351 17.8239 45.882 18.1102 45.9004 18.4458C45.9188 18.7815 46.2017 19.0393 46.5323 19.0217C46.8629 19.0041 47.1159 18.7178 47.0976 18.3822Z" fill="#5FF7E4"/>
<path fill-rule="evenodd" clip-rule="evenodd" d="M44.0848 14.4801C44.0169 13.2491 44.9441 12.1992 46.1558 12.1351C47.3675 12.0711 48.4048 13.0171 48.4726 14.2482C48.5405 15.4792 47.6133 16.5291 46.4016 16.5931C45.1899 16.6572 44.1526 15.7111 44.0848 14.4801Z" fill="#5FF7E4"/>
<path fill-rule="evenodd" clip-rule="evenodd" d="M46.9371 14.2647C47.0206 14.3117 47.0841 14.3776 47.1276 14.4625C47.1537 14.5157 47.1731 14.5775 47.1864 14.6475C47.1998 14.7175 47.2091 14.7998 47.2143 14.894L47.2446 15.4397C47.2489 15.5184 47.2343 15.5755 47.2005 15.6113C47.1666 15.6468 47.1108 15.6668 47.0328 15.6709L45.6776 15.7422C45.5981 15.7463 45.5398 15.7321 45.5031 15.6994C45.4663 15.6667 45.4458 15.6117 45.4415 15.5348L45.4094 14.9563C45.4047 14.8712 45.4059 14.7969 45.4131 14.7337C45.4203 14.6705 45.4378 14.6135 45.4652 14.5625C45.4883 14.519 45.5184 14.4799 45.5556 14.4454C45.5928 14.4108 45.6346 14.3837 45.6806 14.3643C45.7269 14.3448 45.7761 14.3337 45.8286 14.3309C46.0091 14.3214 46.1458 14.4038 46.2396 14.5781C46.3019 14.3395 46.4422 14.2145 46.6602 14.203C46.7612 14.1971 46.8533 14.2178 46.9371 14.2647ZM46.1185 14.8143C46.0986 14.7661 46.0638 14.7303 46.0139 14.7068C45.9782 14.6885 45.9392 14.6803 45.8967 14.6825C45.8057 14.6873 45.747 14.7226 45.7207 14.7883C45.6944 14.8539 45.6848 14.9527 45.692 15.0841L45.7083 15.3776L46.1744 15.3531L46.1561 15.0219C46.1508 14.9318 46.1384 14.8626 46.1185 14.8143ZM46.9379 12.9905C47.0062 13.0318 47.0601 13.095 47.0989 13.1807C47.1377 13.2661 47.1607 13.3715 47.1677 13.4967C47.1743 13.6161 47.1617 13.7194 47.1295 13.8065C47.0973 13.8936 47.0547 13.9592 47.0017 14.0025C46.9487 14.0461 46.8943 14.0692 46.8384 14.0721C46.8015 14.0741 46.7692 14.0629 46.7415 14.0382C46.7137 14.0135 46.6989 13.9815 46.6967 13.9417C46.6948 13.9068 46.7019 13.8795 46.718 13.8599C46.734 13.8402 46.7573 13.8211 46.7877 13.8025C46.8457 13.7651 46.8881 13.7221 46.915 13.6731C46.9419 13.6242 46.9531 13.5584 46.9485 13.4765C46.9448 13.4098 46.9267 13.3562 46.8945 13.315C46.8623 13.2739 46.8269 13.2546 46.7882 13.2566C46.7291 13.2597 46.6872 13.2843 46.6628 13.3298C46.6381 13.3755 46.6164 13.4497 46.5975 13.5525C46.5752 13.6684 46.5503 13.7633 46.5226 13.8367C46.495 13.9103 46.4565 13.9698 46.4072 14.0156C46.3579 14.0613 46.2956 14.0863 46.2203 14.0903C46.1529 14.0938 46.0883 14.0772 46.0264 14.0406C45.9643 14.0039 45.9135 13.9476 45.8734 13.872C45.8334 13.7963 45.8105 13.7036 45.8044 13.5942C45.7996 13.5082 45.8045 13.4301 45.8187 13.3607C45.8329 13.291 45.854 13.2327 45.8819 13.1852C45.9097 13.1376 45.9412 13.101 45.9768 13.0751C46.0124 13.0492 46.0477 13.0353 46.0829 13.0334C46.1213 13.0314 46.1536 13.0426 46.1798 13.0668C46.2058 13.0909 46.2202 13.1269 46.2228 13.174C46.2247 13.2082 46.2166 13.2377 46.1981 13.2627C46.1796 13.2878 46.1516 13.3168 46.1141 13.3496C46.0827 13.3765 46.058 13.4074 46.0404 13.4427C46.0225 13.478 46.0153 13.5247 46.0186 13.5832C46.0219 13.6432 46.0377 13.6926 46.0656 13.731C46.0935 13.7694 46.1268 13.7876 46.1655 13.7856C46.2006 13.7838 46.2288 13.7676 46.2499 13.7372C46.2707 13.7067 46.2871 13.6665 46.2992 13.616C46.3112 13.5658 46.3254 13.4967 46.3419 13.4086C46.3616 13.3043 46.3873 13.2184 46.4189 13.1511C46.4504 13.084 46.4893 13.032 46.5356 12.9958C46.5816 12.9597 46.6356 12.9398 46.697 12.9366C46.7888 12.9312 46.8695 12.9492 46.9379 12.9905ZM46.4152 14.9621C46.4082 14.8363 46.4233 14.7404 46.4609 14.6751C46.4984 14.6094 46.5625 14.5743 46.6538 14.5695C46.8317 14.5602 46.9274 14.6778 46.9409 14.9221L46.9624 15.3107L46.436 15.3384L46.4152 14.9621Z" fill="#12DEC4"/>
</g>
<g clip-path="url(#clip4_686_12448)">
<path fill-rule="evenodd" clip-rule="evenodd" d="M96.3308 81.2929C95.6268 81.5923 95.0663 82.1526 94.7663 82.8541C94.3838 83.7491 93.8362 85.0279 93.4001 86.048C93.1333 86.6714 92.2493 86.6703 91.9824 86.048L90.6162 82.8541C90.3162 82.1516 89.7558 81.5923 89.0518 81.2929C88.1549 80.9112 86.8733 80.3648 85.8511 79.9296C85.2264 79.6633 85.2264 78.7812 85.8511 78.5149C86.8733 78.0797 88.1549 77.5333 89.0518 77.1516C89.7558 76.8522 90.3162 76.2919 90.6162 75.5904C90.9988 74.6955 91.5463 73.4166 91.9824 72.3965C92.2493 71.7731 93.1333 71.7731 93.4001 72.3965C93.8362 73.4166 94.3838 74.6955 94.7663 75.5904C95.0663 76.293 95.6278 76.8522 96.3308 77.1516C97.2277 77.5333 98.5092 78.0797 99.5315 78.5149C100.156 78.7812 100.156 79.6633 99.5315 79.9296C98.5092 80.3648 97.2277 80.9112 96.3308 81.2929Z" fill="#BD77C7"/>
<path fill-rule="evenodd" clip-rule="evenodd" d="M82.0917 64.3784C81.8286 64.4903 81.6192 64.6998 81.5071 64.9619C81.3641 65.2964 81.1594 65.7744 80.9964 66.1556C80.8967 66.3886 80.5663 66.3882 80.4666 66.1556L79.956 64.9619C79.8439 64.6994 79.6344 64.4903 79.3713 64.3784C79.0361 64.2358 78.5571 64.0316 78.1751 63.8689C77.9416 63.7694 77.9416 63.4397 78.1751 63.3402C78.5571 63.1776 79.0361 62.9733 79.3713 62.8307C79.6344 62.7188 79.8439 62.5094 79.956 62.2472C80.099 61.9127 80.3036 61.4348 80.4666 61.0535C80.5663 60.8205 80.8967 60.8205 80.9964 61.0535C81.1594 61.4348 81.3641 61.9127 81.5071 62.2472C81.6192 62.5098 81.829 62.7188 82.0917 62.8307C82.4269 62.9733 82.9059 63.1776 83.288 63.3402C83.5214 63.4397 83.5214 63.7694 83.288 63.8689C82.9059 64.0316 82.4269 64.2358 82.0917 64.3784Z" fill="#BD77C7"/>
</g>
<g clip-path="url(#clip5_686_12448)">
<path fill-rule="evenodd" clip-rule="evenodd" d="M11.789 69.6702C12.1659 70.5546 12.8713 71.2587 13.7544 71.6356C14.8812 72.1162 16.4912 72.8041 17.7755 73.3519C18.5604 73.6871 18.559 74.7977 17.7755 75.1329L13.7544 76.8493C12.87 77.2262 12.1659 77.9302 11.789 78.8147C11.3084 79.9414 10.6205 81.5514 10.0726 82.8356C9.73738 83.6204 8.62676 83.6204 8.29156 82.8356C7.74366 81.5514 7.05575 79.9414 6.57516 78.8147C6.19823 77.9302 5.49282 77.2262 4.60971 76.8493C3.48295 76.3687 1.8729 75.6808 0.588624 75.1329C-0.196208 74.7977 -0.196208 73.6871 0.588624 73.3519C1.8729 72.8041 3.48295 72.1162 4.60971 71.6356C5.49417 71.2587 6.19823 70.5533 6.57516 69.6702C7.05575 68.5435 7.74366 66.9335 8.29156 65.6492C8.62676 64.8644 9.73738 64.8644 10.0726 65.6492C10.6205 66.9335 11.3084 68.5435 11.789 69.6702Z" fill="#BD77C7"/>
</g>
<defs>
<clipPath id="clip0_686_12448">
<rect width="26.6457" height="56.3366" fill="white" transform="translate(42.64 29.2424) rotate(14.5521)"/>
</clipPath>
<clipPath id="clip1_686_12448">
<rect x="43.0834" y="32.7284" width="24.0355" height="48.071" rx="10" transform="rotate(14.5521 43.0834 32.7284)" fill="white"/>
</clipPath>
<clipPath id="clip2_686_12448">
<rect width="48.1798" height="48.071" fill="white" transform="translate(31.3986 29.6954) rotate(14.5521)"/>
</clipPath>
<clipPath id="clip3_686_12448">
<rect width="18.1667" height="17.1667" fill="white" transform="translate(41.3333 6.5)"/>
</clipPath>
<clipPath id="clip4_686_12448">
<rect width="25.6364" height="22" fill="white" transform="translate(100 60.8788) rotate(90)"/>
</clipPath>
<clipPath id="clip5_686_12448">
<rect width="18.3636" height="18.3636" fill="white" transform="translate(0 65.0606)"/>
</clipPath>
</defs>
</svg>
