<svg width="80" height="80" viewBox="0 0 80 80" fill="none" xmlns="http://www.w3.org/2000/svg">
<path fill-rule="evenodd" clip-rule="evenodd" d="M72.4233 7.59998L48.4328 68.1475C47.7004 69.9959 45.6082 70.9006 43.7598 70.1682C43.0067 69.8698 42.3762 69.3262 41.9704 68.6251L32.954 53.0513C32.1971 51.7441 32.3369 50.1034 33.3039 48.9429L44.4219 35.6014L72.4233 7.59998Z" fill="#BD77C7"/>
<path fill-rule="evenodd" clip-rule="evenodd" d="M72.43 7.60669L44.4286 35.6081L31.0871 46.7261C29.9266 47.6931 28.2859 47.8328 26.9787 47.076L11.4049 38.0596C10.7038 37.6537 10.1602 37.0233 9.86177 36.2702C9.12938 34.4218 10.0341 32.3296 11.8825 31.5972L72.43 7.60669Z" fill="#F0CEF5"/>
<path fill-rule="evenodd" clip-rule="evenodd" d="M24.6963 55.364C25.3993 56.0669 25.3993 57.2066 24.6963 57.9096L10.6956 71.9103C9.99265 72.6132 8.85295 72.6132 8.15001 71.9103C7.44707 71.2073 7.44707 70.0676 8.15001 69.3647L22.1507 55.364C22.8537 54.661 23.9934 54.661 24.6963 55.364ZM29.7875 60.4551C30.4904 61.1581 30.4904 62.2978 29.7875 63.0007L20.8779 71.9103C20.175 72.6132 19.0353 72.6132 18.3323 71.9103C17.6294 71.2073 17.6294 70.0676 18.3323 69.3647L27.2419 60.4551C27.9448 59.7522 29.0845 59.7522 29.7875 60.4551ZM19.6051 50.2728C20.3081 50.9758 20.3081 52.1155 19.6051 52.8184L10.6956 61.7279C9.99265 62.4309 8.85295 62.4309 8.15001 61.7279C7.44707 61.025 7.44707 59.8853 8.15001 59.1824L17.0596 50.2728C17.7625 49.5699 18.9022 49.5699 19.6051 50.2728Z" fill="#10CBB4"/>
</svg>
