<svg width="80" height="80" viewBox="0 0 40 40" fill="none" xmlns="http://www.w3.org/2000/svg">
<g clip-path="url(#clip0_703_14919)">
<circle cx="20" cy="20" r="14" fill="#8B3D99"/>
<mask id="mask0_703_14919" style="mask-type:alpha" maskUnits="userSpaceOnUse" x="6" y="6" width="28" height="28">
<circle cx="20" cy="20" r="14" fill="#8B3D99"/>
</mask>
<g mask="url(#mask0_703_14919)">
<rect x="0.77771" y="26.0525" width="19.7778" height="11.1111" transform="rotate(-30 0.77771 26.0525)" fill="#FBCCA1"/>
</g>
<path d="M22.3029 26.4791C24.84 25.0043 25.7093 21.7377 24.2445 19.1832C22.7797 16.6286 19.5356 15.7534 16.9985 17.2282C14.4615 18.7031 13.5922 21.9696 15.057 24.5242C16.5218 27.0788 19.7659 27.954 22.3029 26.4791Z" fill="#FBCCA1"/>
<path d="M23.9296 13.1988L16.9985 17.2281L22.304 26.4808L29.235 22.4516L23.9296 13.1988Z" fill="#FBCCA1"/>
<path d="M22.0981 21.6396C22.0981 21.6396 20.8118 22.3873 19.0302 22.0575L18.4153 19.5867L24.429 16.0908L27.7177 21.8264L24.2288 23.186C23.6436 23.4141 22.9806 23.1787 22.6668 22.6315L22.0981 21.6396Z" fill="#DCAC82"/>
<path d="M25.6331 12.2087L22.5645 13.9926C21.9302 14.3613 21.7129 15.1779 22.0791 15.8166C22.4453 16.4552 23.2563 16.674 23.8906 16.3053L26.9592 14.5214C27.5934 14.1527 27.8108 13.3361 27.4446 12.6974C27.0784 12.0588 26.2673 11.84 25.6331 12.2087Z" fill="#FBCCA1"/>
<path d="M26.9592 14.5214L23.8906 16.3053C23.2564 16.6741 23.039 17.4907 23.4052 18.1293C23.7714 18.768 24.5825 18.9868 25.2167 18.6181L28.2853 16.8342C28.9196 16.4654 29.1369 15.6488 28.7707 15.0102C28.4045 14.3715 27.5935 14.1527 26.9592 14.5214Z" fill="#FBCCA1"/>
<path d="M28.2854 16.8342L25.2168 18.6181C24.5825 18.9868 24.3652 19.8034 24.7314 20.4421C25.0976 21.0807 25.9086 21.2995 26.5429 20.9308L29.6115 19.1469C30.2458 18.7782 30.4631 17.9616 30.0969 17.3229C29.7307 16.6843 28.9197 16.4655 28.2854 16.8342Z" fill="#FBCCA1"/>
<path d="M29.6126 19.1486L26.5439 20.9325C25.9097 21.3013 25.6924 22.1179 26.0586 22.7565C26.4248 23.3952 27.2358 23.614 27.87 23.2453L30.9387 21.4614C31.5729 21.0926 31.7902 20.276 31.4241 19.6374C31.0579 18.9987 30.2468 18.7799 29.6126 19.1486Z" fill="#DCAC82"/>
<path d="M27.1591 14.5285L23.9435 16.3979C23.2599 16.7952 22.3817 16.5583 21.9871 15.87C21.5924 15.1818 21.8278 14.2975 22.5113 13.9001C22.5628 13.8702 22.6265 13.8874 22.6562 13.9392C22.6859 13.991 22.6688 14.0552 22.6174 14.0851C22.0349 14.4238 21.8345 15.1767 22.1708 15.7632C22.5071 16.3497 23.2549 16.5515 23.8374 16.2128L27.053 14.3435C27.1045 14.3136 27.1682 14.3308 27.198 14.3826C27.2277 14.4344 27.2106 14.4986 27.1591 14.5285Z" fill="#9F7554"/>
<path d="M28.4853 16.8413L25.2697 18.7106C24.5861 19.108 23.7079 18.871 23.3133 18.1828C22.9186 17.4945 23.1539 16.6102 23.8375 16.2129C23.8889 16.183 23.9527 16.2002 23.9824 16.252C24.0121 16.3038 23.995 16.368 23.9436 16.3979C23.3611 16.7365 23.1607 17.4894 23.497 18.0759C23.8333 18.6625 24.5811 18.8642 25.1636 18.5256L28.3792 16.6562C28.4307 16.6263 28.4944 16.6435 28.5241 16.6953C28.5538 16.7471 28.5367 16.8113 28.4853 16.8413Z" fill="#9F7554"/>
<path d="M29.8124 19.1557L26.5968 21.0251C25.9133 21.4224 25.0351 21.1855 24.6404 20.4972C24.2458 19.809 24.4811 18.9247 25.1646 18.5273C25.2161 18.4974 25.2798 18.5146 25.3095 18.5664C25.3393 18.6182 25.3222 18.6824 25.2707 18.7123C24.6882 19.051 24.4879 19.8039 24.8242 20.3904C25.1605 20.9769 25.9082 21.1787 26.4907 20.84L29.7064 18.9707C29.7578 18.9408 29.8216 18.958 29.8513 19.0098C29.881 19.0616 29.8639 19.1258 29.8124 19.1557Z" fill="#9F7554"/>
<path d="M27.923 23.3378C27.2394 23.7352 26.3612 23.4982 25.9666 22.81C25.5719 22.1217 25.8073 21.2374 26.4908 20.8401C26.5423 20.8102 26.606 20.8274 26.6357 20.8792C26.6654 20.931 26.6483 20.9952 26.5969 21.0251C26.0144 21.3637 25.814 22.1166 26.1503 22.7031C26.4866 23.2897 27.2344 23.4914 27.8169 23.1528C27.8684 23.1229 27.9321 23.1401 27.9618 23.1919C27.9915 23.2437 27.9744 23.3079 27.923 23.3378Z" fill="#BE906A"/>
<g clip-path="url(#clip1_703_14919)">
<path d="M33.7455 16.8933L23.9352 16.6082C23.5965 16.5983 23.3148 16.8602 23.3058 17.1932L23.1769 21.984C23.1679 22.3169 23.4352 22.5948 23.7738 22.6047L33.5841 22.8898C33.9227 22.8996 34.2045 22.6377 34.2134 22.3048L34.3424 17.5139C34.3513 17.181 34.0841 16.9031 33.7455 16.8933Z" fill="#006B5F"/>
<path fill-rule="evenodd" clip-rule="evenodd" d="M33.7075 18.3051L33.618 21.6278C33.3074 21.7406 33.0554 21.9735 32.9229 22.2705L24.6204 22.0293C24.4853 21.676 24.1849 21.3996 23.8091 21.2933L23.8959 18.0694C24.3296 17.9734 24.6776 17.6516 24.7999 17.2335L33.0016 17.4719C33.0891 17.8447 33.3544 18.1534 33.7075 18.3051Z" fill="#004D43"/>
<path d="M31.8144 20.2873C32.0683 20.2947 32.2796 20.0994 32.2863 19.851C32.293 19.6027 32.0925 19.3954 31.8386 19.388C31.5846 19.3806 31.3734 19.576 31.3667 19.8243C31.36 20.0726 31.5604 20.28 31.8144 20.2873Z" fill="#006B5F"/>
<path d="M25.8342 20.1143C26.0881 20.1217 26.2994 19.9263 26.306 19.678C26.3127 19.4297 26.1123 19.2223 25.8584 19.215C25.6044 19.2076 25.3931 19.4029 25.3865 19.6513C25.3798 19.8996 25.5802 20.1069 25.8342 20.1143Z" fill="#006B5F"/>
<path fill-rule="evenodd" clip-rule="evenodd" d="M28.9573 18.1046C29.8883 18.1317 30.6232 18.8919 30.5987 19.8025C30.5742 20.7132 29.7996 21.4295 28.8686 21.4024C27.9375 21.3753 27.2026 20.6152 27.2271 19.7045C27.2516 18.7938 28.0262 18.0775 28.9573 18.1046Z" fill="#006B5F"/>
<path fill-rule="evenodd" clip-rule="evenodd" d="M28.9485 20.2528C28.9082 20.3124 28.8547 20.3557 28.7882 20.3829C28.7466 20.3991 28.6989 20.4097 28.6454 20.4152C28.5918 20.4208 28.5293 20.4225 28.4581 20.4205L28.0453 20.4085C27.9858 20.4067 27.9436 20.3922 27.9187 20.3645C27.8939 20.3369 27.8823 20.2939 27.8838 20.2352L27.9112 19.2157C27.9128 19.1559 27.9271 19.1132 27.9539 19.0877C27.9807 19.0623 28.0233 19.0504 28.0815 19.0521L28.5191 19.0648C28.5835 19.0667 28.6394 19.0723 28.6865 19.0817C28.7337 19.091 28.7755 19.1078 28.8123 19.1316C28.8437 19.1516 28.8714 19.1767 28.8951 19.2067C28.9189 19.2368 28.9369 19.2698 28.9487 19.3055C28.9606 19.3414 28.966 19.3789 28.965 19.4185C28.9613 19.5542 28.8912 19.6514 28.7542 19.7105C28.9302 19.7724 29.016 19.8854 29.0116 20.0494C29.01 20.1254 28.9889 20.1931 28.9485 20.2528ZM28.5836 19.6048C28.6211 19.593 28.6501 19.5692 28.6708 19.5333C28.6868 19.5078 28.6953 19.4791 28.6962 19.4471C28.698 19.3787 28.6749 19.3324 28.627 19.3086C28.5791 19.2847 28.5053 19.2712 28.4059 19.2683L28.1839 19.2619L28.1745 19.6125L28.4251 19.6198C28.4932 19.6216 28.5461 19.6167 28.5836 19.6048ZM29.908 20.3343C29.8729 20.3829 29.822 20.4192 29.7552 20.4429C29.6885 20.4665 29.6078 20.477 29.5131 20.4743C29.4228 20.4717 29.3457 20.4556 29.2821 20.426C29.2184 20.3963 29.1715 20.3603 29.1421 20.3178C29.1125 20.2754 29.0983 20.2332 29.0995 20.1912C29.1002 20.1634 29.1106 20.1399 29.1308 20.1207C29.151 20.1015 29.1761 20.0924 29.2062 20.0933C29.2325 20.0941 29.2527 20.1011 29.2665 20.1144C29.2804 20.1277 29.2934 20.1463 29.3056 20.1703C29.3302 20.2161 29.3601 20.2506 29.3954 20.2738C29.4306 20.2971 29.4795 20.3096 29.5414 20.3114C29.5919 20.3129 29.6334 20.3028 29.6663 20.2813C29.6992 20.2598 29.7158 20.2344 29.7166 20.2053C29.7178 20.1609 29.7018 20.128 29.669 20.1068C29.6361 20.0853 29.5815 20.0644 29.5052 20.0437C29.4193 20.0197 29.3493 19.9949 29.2957 19.9696C29.2419 19.9442 29.1993 19.9116 29.1678 19.8718C29.1364 19.832 29.1213 19.7837 29.1228 19.7271C29.1242 19.6764 29.1405 19.629 29.1718 19.585C29.2031 19.5408 29.2486 19.5063 29.3079 19.4811C29.3673 19.456 29.4385 19.4447 29.5213 19.4471C29.5863 19.449 29.6448 19.4576 29.6962 19.4726C29.7479 19.4877 29.7905 19.5072 29.8247 19.5311C29.8588 19.555 29.8844 19.5809 29.9018 19.6092C29.9193 19.6375 29.9276 19.6648 29.9269 19.6913C29.9261 19.7202 29.9157 19.7437 29.896 19.7618C29.8762 19.7797 29.8483 19.7882 29.8127 19.7871C29.7868 19.7864 29.7651 19.7784 29.7473 19.763C29.7296 19.7476 29.7094 19.7248 29.6869 19.6945C29.6686 19.6693 29.6467 19.6489 29.6212 19.6335C29.5957 19.6178 29.561 19.6095 29.5167 19.6082C29.4713 19.6069 29.4332 19.6155 29.4026 19.634C29.372 19.6525 29.3563 19.6762 29.3555 19.7054C29.3548 19.7318 29.3653 19.7539 29.3869 19.7717C29.4086 19.7892 29.4379 19.804 29.4752 19.8163C29.5123 19.8284 29.5635 19.8435 29.6288 19.8614C29.7062 19.8828 29.7693 19.9075 29.8182 19.9354C29.8669 19.9633 29.9036 19.9957 29.9281 20.0327C29.9526 20.0694 29.9643 20.1111 29.9631 20.1574C29.9617 20.2265 29.9432 20.2858 29.908 20.3343ZM28.4536 19.8176C28.5488 19.8204 28.6201 19.8378 28.6671 19.8701C28.7143 19.9023 28.7368 19.9526 28.735 20.0213C28.7314 20.155 28.6371 20.2192 28.4523 20.2138L28.1584 20.2053L28.169 19.8093L28.4536 19.8176Z" fill="#004D43"/>
<path d="M32.1402 10.9612L21.5911 15.617C21.227 15.7777 21.0605 16.1979 21.2193 16.5556L23.5046 21.703C23.6634 22.0607 24.0873 22.2204 24.4514 22.0597L35.0006 17.4039C35.3647 17.2432 35.5311 16.8229 35.3723 16.4652L33.0871 11.3179C32.9283 10.9602 32.5044 10.8005 32.1402 10.9612Z" fill="#00AD97"/>
<path fill-rule="evenodd" clip-rule="evenodd" d="M32.8136 12.4782L34.3984 16.0479C34.1259 16.3246 33.9765 16.699 33.9861 17.0811L25.0586 21.0212C24.7368 20.7147 24.2785 20.5734 23.8262 20.6505L22.2885 17.1869C22.6999 16.8659 22.9064 16.3486 22.8247 15.8433L31.6438 11.9511C31.925 12.3023 32.3624 12.4958 32.8136 12.4782Z" fill="#008C7B"/>
<path d="M31.8061 15.5389C32.0792 15.4184 32.2046 15.1043 32.0861 14.8374C31.9676 14.5705 31.6501 14.4518 31.377 14.5724C31.1039 14.6929 30.9785 15.007 31.097 15.2739C31.2155 15.5408 31.533 15.6594 31.8061 15.5389Z" fill="#00AD97"/>
<path d="M25.3795 18.3757C25.6526 18.2551 25.7779 17.9411 25.6594 17.6742C25.541 17.4073 25.2235 17.2886 24.9504 17.4092C24.6772 17.5297 24.5519 17.8438 24.6704 18.1107C24.7889 18.3776 25.1063 18.4962 25.3795 18.3757Z" fill="#00AD97"/>
<path fill-rule="evenodd" clip-rule="evenodd" d="M27.674 14.6657C28.6755 14.2237 29.8395 14.6587 30.274 15.6373C30.7085 16.6159 30.2488 17.7675 29.2473 18.2095C28.2458 18.6515 27.0817 18.2165 26.6473 17.2379C26.2128 16.2593 26.6725 15.1077 27.674 14.6657Z" fill="#00AD97"/>
<path fill-rule="evenodd" clip-rule="evenodd" d="M28.7507 16.9494C28.738 17.033 28.7033 17.106 28.6464 17.1685C28.6104 17.2066 28.5652 17.242 28.5113 17.275C28.4573 17.3079 28.3919 17.3414 28.3152 17.3752L27.8713 17.5711C27.8073 17.5994 27.7552 17.6052 27.7148 17.5885C27.6746 17.5717 27.6404 17.532 27.6124 17.4689L27.1261 16.3736C27.0976 16.3094 27.0911 16.2569 27.1067 16.2163C27.1222 16.1757 27.1615 16.1416 27.2241 16.1139L27.6946 15.9063C27.7639 15.8757 27.826 15.8534 27.8808 15.8395C27.9355 15.8256 27.9884 15.8223 28.0395 15.8289C28.0828 15.8343 28.1249 15.8469 28.1653 15.8667C28.2057 15.8866 28.2414 15.9125 28.2721 15.9444C28.3028 15.9765 28.3275 16.0135 28.3464 16.056C28.4112 16.2019 28.3858 16.3404 28.2705 16.4724C28.4884 16.449 28.6366 16.5256 28.7148 16.7018C28.7515 16.7832 28.7633 16.8656 28.7507 16.9494ZM28.0361 16.4465C28.0699 16.415 28.0886 16.3751 28.0924 16.3266C28.0964 16.2914 28.091 16.2567 28.0757 16.2223C28.0431 16.1488 27.9952 16.1114 27.9323 16.1103C27.8695 16.1092 27.7844 16.1322 27.6775 16.1794L27.4387 16.2847L27.606 16.6615L27.8755 16.5426C27.9487 16.51 28.0022 16.478 28.0361 16.4465ZM29.8098 16.5508C29.797 16.6202 29.7615 16.6844 29.7025 16.7432C29.6438 16.802 29.5635 16.854 29.4616 16.8989C29.3645 16.9418 29.2746 16.9638 29.1921 16.9645C29.1096 16.9652 29.0416 16.9507 28.989 16.9205C28.9361 16.8905 28.8997 16.8528 28.8797 16.8077C28.8664 16.7779 28.8656 16.7477 28.8773 16.7171C28.8891 16.6865 28.9111 16.6642 28.9434 16.65C28.9718 16.6375 28.9967 16.6347 29.0181 16.6418C29.0395 16.649 29.0627 16.6621 29.0877 16.6813C29.1371 16.7175 29.1862 16.739 29.2354 16.7458C29.2845 16.7527 29.3427 16.7413 29.4093 16.7119C29.4636 16.6879 29.5025 16.6562 29.5265 16.6168C29.5505 16.5773 29.5554 16.5421 29.5415 16.5108C29.5203 16.463 29.4867 16.4362 29.4411 16.4303C29.3955 16.4242 29.327 16.4296 29.2356 16.4462C29.1322 16.4641 29.0455 16.4733 28.9758 16.4735C28.9059 16.4738 28.8443 16.4607 28.7908 16.4344C28.7373 16.408 28.6968 16.3645 28.6698 16.3036C28.6457 16.2492 28.639 16.1907 28.65 16.1282C28.6609 16.0654 28.6916 16.0059 28.7419 15.9492C28.7921 15.8924 28.862 15.8445 28.951 15.8052C29.021 15.7743 29.0873 15.7539 29.1495 15.7439C29.2119 15.7337 29.267 15.7328 29.3153 15.7409C29.3636 15.749 29.4039 15.7635 29.4366 15.7847C29.4694 15.806 29.4921 15.8308 29.5047 15.8592C29.5185 15.8902 29.5194 15.9204 29.5076 15.9496C29.4956 15.9785 29.4703 16.0017 29.432 16.0186C29.4042 16.0309 29.3771 16.0334 29.3505 16.026C29.3239 16.0187 29.2909 16.0047 29.2518 15.9839C29.2196 15.9665 29.1861 15.9558 29.1512 15.9524C29.1163 15.9487 29.0752 15.9574 29.0276 15.9784C28.9788 15.9999 28.9427 16.0284 28.9196 16.0635C28.8964 16.0985 28.8918 16.1317 28.9057 16.163C28.9183 16.1914 28.9406 16.2095 28.9726 16.2174C29.0044 16.225 29.043 16.226 29.0888 16.2201C29.1343 16.2143 29.1962 16.2043 29.2745 16.1903C29.3674 16.1739 29.4469 16.1682 29.5128 16.1731C29.5785 16.1781 29.6339 16.1939 29.6786 16.2207C29.7231 16.2473 29.7567 16.2856 29.7787 16.3353C29.8121 16.4093 29.8226 16.4815 29.8098 16.5508ZM28.0063 16.738C28.1086 16.6929 28.1931 16.6753 28.2592 16.6858C28.3256 16.6962 28.3749 16.7381 28.4077 16.8118C28.4715 16.9556 28.4039 17.0713 28.2051 17.1591L27.889 17.2986L27.7002 16.8731L28.0063 16.738Z" fill="#008C7B"/>
<path d="M28.0356 5.99529L18.7462 15.6602C18.4256 15.9938 18.4322 16.5198 18.7611 16.8349L23.4931 21.3698C23.8219 21.685 24.3484 21.67 24.6691 21.3364L33.9584 11.6715C34.2791 11.3378 34.2724 10.8119 33.9436 10.4968L29.2116 5.96185C28.8827 5.6467 28.3562 5.66168 28.0356 5.99529Z" fill="#12DEC4"/>
<path fill-rule="evenodd" clip-rule="evenodd" d="M29.43 7.33198L32.7116 10.4769C32.5408 10.895 32.5455 11.364 32.7246 11.7712L24.8633 19.9504C24.3817 19.7623 23.8263 19.8122 23.374 20.0947L20.1899 17.0432C20.4906 16.5162 20.4842 15.8681 20.1731 15.3601L27.9389 7.2802C28.3966 7.53439 28.9525 7.54982 29.43 7.33198Z" fill="#00AD97"/>
<path d="M29.698 11.0714C29.9386 10.8212 29.9346 10.4277 29.6892 10.1925C29.4438 9.95734 29.0499 9.96957 28.8094 10.2198C28.5689 10.4701 28.5728 10.8635 28.8182 11.0987C29.0636 11.3339 29.4575 11.3216 29.698 11.0714Z" fill="#12DEC4"/>
<path d="M24.0403 16.9609C24.2808 16.7106 24.2769 16.3171 24.0315 16.082C23.7861 15.8468 23.3922 15.859 23.1517 16.1093C22.9112 16.3595 22.9151 16.753 23.1605 16.9882C23.4059 17.2233 23.7998 17.2111 24.0403 16.9609Z" fill="#12DEC4"/>
<path fill-rule="evenodd" clip-rule="evenodd" d="M24.8685 11.9542C25.7508 11.0366 27.1953 10.9914 28.095 11.8533C28.9946 12.7152 29.0087 14.1578 28.1265 15.0754C27.2442 15.993 25.7996 16.0382 24.9 15.1763C24.0003 14.3144 23.9862 12.8718 24.8685 11.9542Z" fill="#12DEC4"/>
<path fill-rule="evenodd" clip-rule="evenodd" d="M27.0354 13.9375C27.0586 14.0331 27.0535 14.127 27.0199 14.2193C26.9981 14.2763 26.965 14.3343 26.9215 14.3936C26.878 14.4529 26.8224 14.5178 26.7549 14.588L26.3638 14.9947C26.3074 15.0534 26.2539 15.0827 26.2031 15.0825C26.1524 15.0822 26.0981 15.0545 26.0402 14.999L25.0335 14.0345C24.9745 13.978 24.9443 13.9243 24.9431 13.8738C24.942 13.8232 24.9691 13.7692 25.0242 13.7118L25.4388 13.2806C25.4998 13.2172 25.5568 13.1658 25.6096 13.1267C25.6624 13.0876 25.7178 13.0606 25.7756 13.0452C25.8247 13.0319 25.8754 13.0269 25.9277 13.0304C25.9799 13.034 26.0298 13.0461 26.0768 13.0669C26.1241 13.0879 26.167 13.1169 26.2061 13.1543C26.3401 13.2827 26.3741 13.443 26.3082 13.6359C26.5324 13.5146 26.7255 13.5317 26.8874 13.6868C26.9629 13.7582 27.012 13.8418 27.0354 13.9375ZM26.0446 13.7115C26.0671 13.6627 26.0696 13.6115 26.0523 13.5576C26.0411 13.5179 26.0199 13.483 25.9883 13.4527C25.9207 13.3879 25.8527 13.3688 25.7846 13.3954C25.7165 13.4219 25.6351 13.4843 25.5409 13.5822L25.3306 13.8009L25.6768 14.1327L25.9142 13.8858C25.9786 13.8184 26.0221 13.7604 26.0446 13.7115ZM27.9988 13.0412C28.0156 13.1214 28.0058 13.2062 27.9683 13.2956C27.931 13.3848 27.8677 13.4762 27.7779 13.5695C27.6924 13.6585 27.6054 13.7218 27.5169 13.759C27.4285 13.7962 27.3489 13.8105 27.279 13.8013C27.2088 13.7923 27.1531 13.7678 27.1116 13.7281C27.0842 13.7018 27.0699 13.6697 27.0691 13.6316C27.0682 13.5935 27.082 13.5598 27.1105 13.5301C27.1355 13.5042 27.1612 13.4902 27.1873 13.4885C27.2134 13.4867 27.2442 13.4906 27.2796 13.5003C27.3487 13.5174 27.411 13.5188 27.4669 13.5045C27.5228 13.4902 27.5803 13.4523 27.6391 13.3912C27.6869 13.3415 27.7147 13.2902 27.7231 13.2372C27.7316 13.1841 27.7212 13.144 27.6925 13.1165C27.6486 13.0744 27.6006 13.0603 27.549 13.0741C27.4972 13.0877 27.4259 13.1237 27.3349 13.1819C27.2316 13.2468 27.1423 13.295 27.0675 13.3259C26.9924 13.3571 26.9204 13.3702 26.8512 13.3654C26.7819 13.3607 26.7192 13.3317 26.6633 13.2781C26.6133 13.2301 26.5804 13.1701 26.5645 13.098C26.5485 13.0256 26.5553 12.948 26.5844 12.8647C26.6134 12.7815 26.6673 12.6991 26.7457 12.6175C26.8074 12.5534 26.8698 12.5021 26.9322 12.4639C26.9949 12.4255 27.0538 12.4002 27.1093 12.3876C27.1648 12.375 27.2146 12.3728 27.2592 12.3812C27.3038 12.3896 27.3392 12.4063 27.3653 12.4313C27.3938 12.4586 27.408 12.4907 27.4082 12.5274C27.4082 12.5638 27.3912 12.5999 27.3574 12.635C27.3329 12.6605 27.3049 12.6752 27.273 12.679C27.2411 12.6828 27.1995 12.6822 27.1483 12.6772C27.1059 12.6726 27.0652 12.6759 27.0262 12.6876C26.9869 12.699 26.9466 12.7265 26.9046 12.7701C26.8616 12.8149 26.8354 12.8614 26.826 12.9093C26.8166 12.9573 26.8262 12.995 26.855 13.0226C26.8811 13.0476 26.9131 13.0573 26.9509 13.0517C26.9886 13.0458 27.0305 13.0299 27.0771 13.0033C27.1235 12.9769 27.1858 12.9389 27.2638 12.8893C27.3565 12.8306 27.4395 12.7894 27.5126 12.7656C27.5855 12.742 27.6521 12.7346 27.7119 12.7437C27.7716 12.7527 27.8246 12.7792 27.8702 12.8229C27.9389 12.8878 27.982 12.9609 27.9988 13.0412ZM26.1416 14.0388C26.2318 13.9451 26.3149 13.8889 26.3907 13.871C26.4667 13.8529 26.5383 13.8762 26.6061 13.9412C26.7382 14.0677 26.7166 14.2222 26.5415 14.4043L26.263 14.6939L25.8719 14.3193L26.1416 14.0388Z" fill="#00AD97"/>
<path d="M23.428 2.57997L16.332 15.8303C16.0871 16.2877 16.2537 16.8542 16.7042 17.0957L23.1865 20.5709C23.6369 20.8124 24.2007 20.6374 24.4456 20.18L31.5416 6.92969C31.7865 6.47232 31.6199 5.90577 31.1694 5.66428L24.6871 2.1891C24.2367 1.9476 23.6729 2.1226 23.428 2.57997Z" fill="#5FF7E4"/>
<path fill-rule="evenodd" clip-rule="evenodd" d="M25.3384 3.60429L29.8339 6.01435C29.7762 6.51781 29.9235 7.02346 30.2403 7.40958L24.2351 18.6232C23.6583 18.5651 23.074 18.7866 22.6714 19.2284L18.3095 16.89C18.4742 16.2295 18.2708 15.5309 17.781 15.0754L23.7133 3.99809C24.2843 4.13484 24.8891 3.98381 25.3384 3.60429Z" fill="#12DEC4"/>
<path d="M26.7632 7.56604C26.9469 7.223 26.8233 6.79883 26.4872 6.61865C26.1511 6.43846 25.7297 6.57048 25.546 6.91353C25.3623 7.25657 25.4858 7.68074 25.8219 7.86093C26.1581 8.04111 26.5794 7.90909 26.7632 7.56604Z" fill="#5FF7E4"/>
<path d="M22.4384 15.6395C22.6222 15.2965 22.4986 14.8723 22.1625 14.6921C21.8264 14.5119 21.405 14.644 21.2213 14.987C21.0376 15.3301 21.1611 15.7542 21.4972 15.9344C21.8333 16.1146 22.2547 15.9826 22.4384 15.6395Z" fill="#5FF7E4"/>
<path fill-rule="evenodd" clip-rule="evenodd" d="M21.8166 9.97653C22.4902 8.7185 24.0351 8.2343 25.2673 8.89503C26.4994 9.55576 26.9523 11.1112 26.2787 12.3692C25.6052 13.6273 24.0603 14.1115 22.8281 13.4508C21.5959 12.79 21.1431 11.2346 21.8166 9.97653Z" fill="#5FF7E4"/>
<path fill-rule="evenodd" clip-rule="evenodd" d="M24.7565 11.4679C24.8105 11.5642 24.8334 11.6674 24.8253 11.7773C24.8189 11.8455 24.8009 11.9182 24.772 11.9954C24.743 12.0726 24.7027 12.1595 24.6511 12.2558L24.3526 12.8135C24.3095 12.894 24.2608 12.9417 24.2058 12.9569C24.151 12.9718 24.0841 12.9582 24.0047 12.9156L22.6258 12.176C22.5449 12.1327 22.4961 12.0838 22.4795 12.0295C22.4629 11.9752 22.4758 11.9085 22.5179 11.8299L22.8343 11.2387C22.8809 11.1517 22.9268 11.0789 22.9719 11.0207C23.017 10.9625 23.0686 10.9167 23.1263 10.8826C23.1752 10.8534 23.2284 10.8327 23.2859 10.8208C23.3433 10.8089 23.4008 10.807 23.4579 10.8153C23.5152 10.8237 23.5704 10.8421 23.6239 10.8708C23.8075 10.9693 23.8927 11.1324 23.8803 11.3609C24.0853 11.1622 24.2989 11.1224 24.5207 11.2414C24.6238 11.2959 24.7021 11.3714 24.7565 11.4679ZM23.6188 11.5221C23.6282 11.4625 23.6154 11.4063 23.5803 11.3533C23.5562 11.3138 23.5227 11.2824 23.4795 11.2592C23.3869 11.2095 23.3077 11.2094 23.2422 11.2586C23.1768 11.3078 23.1079 11.3997 23.036 11.534L22.8755 11.8339L23.3497 12.0883L23.5309 11.7498C23.5799 11.6575 23.6093 11.5817 23.6188 11.5221ZM25.5239 10.2083C25.5665 10.29 25.5815 10.3847 25.5682 10.4927C25.5551 10.6003 25.5144 10.7182 25.4459 10.8462C25.3806 10.9682 25.3059 11.0629 25.2218 11.1298C25.1376 11.1966 25.0562 11.2361 24.9779 11.2472C24.8994 11.2586 24.8319 11.2489 24.7751 11.2185C24.7375 11.1983 24.7124 11.1679 24.6999 11.127C24.6874 11.086 24.6921 11.0454 24.7139 11.0047C24.7329 10.9692 24.7564 10.9463 24.784 10.9365C24.8117 10.9267 24.8461 10.9217 24.8873 10.9215C24.967 10.9192 25.0346 10.902 25.0906 10.8697C25.1466 10.8373 25.1972 10.779 25.242 10.6953C25.2785 10.6271 25.2929 10.5633 25.286 10.5033C25.279 10.4434 25.2556 10.4031 25.2163 10.382C25.1561 10.3498 25.1001 10.349 25.0486 10.3795C24.9968 10.4098 24.9308 10.4702 24.8503 10.5606C24.7585 10.6619 24.6768 10.7408 24.6054 10.7969C24.5339 10.8532 24.4601 10.8891 24.384 10.9048C24.3079 10.9206 24.2314 10.908 24.1548 10.8669C24.0863 10.8302 24.0325 10.7752 23.9936 10.7019C23.9543 10.6286 23.9381 10.5425 23.9442 10.4437C23.9502 10.345 23.9834 10.2396 24.0433 10.1278C24.0903 10.0399 24.1421 9.96564 24.1979 9.9055C24.2538 9.84506 24.3097 9.79997 24.3658 9.76962C24.4219 9.73928 24.4749 9.72191 24.5256 9.71754C24.5763 9.71317 24.6195 9.72057 24.6553 9.73975C24.6943 9.76071 24.7194 9.79111 24.7308 9.83067C24.7418 9.87006 24.7344 9.91421 24.7086 9.96236C24.6899 9.99734 24.6641 10.0216 24.6309 10.0353C24.5976 10.0491 24.5525 10.0611 24.4957 10.071C24.4486 10.0788 24.4057 10.0947 24.3671 10.119C24.3282 10.1432 24.293 10.1852 24.261 10.245C24.2282 10.3063 24.2141 10.3645 24.2184 10.4192C24.2228 10.4739 24.2447 10.5118 24.2841 10.5329C24.3198 10.5521 24.3573 10.5529 24.3964 10.5354C24.4353 10.5178 24.4757 10.4879 24.5179 10.4451C24.56 10.4026 24.6156 10.3428 24.6848 10.2656C24.767 10.1742 24.8441 10.1047 24.9157 10.0569C24.9871 10.0094 25.0567 9.98125 25.1241 9.97313C25.1912 9.96486 25.2564 9.9775 25.3189 10.011C25.4127 10.0606 25.4814 10.1266 25.5239 10.2083ZM23.822 11.8462C23.8909 11.7176 23.9635 11.6318 24.0398 11.5897C24.1163 11.5472 24.2007 11.5508 24.2935 11.6006C24.4745 11.6977 24.498 11.8712 24.3644 12.1209L24.1518 12.518L23.6162 12.2307L23.822 11.8462Z" fill="#12DEC4"/>
</g>
<path d="M19.6509 21.8535L15.0553 24.5251C14.2153 22.9831 14.0572 21.6393 14.0287 20.9059C13.9371 18.6354 14.9471 16.4102 16.2851 14.6333C16.9387 13.7649 17.158 13.7287 18.1412 12.4269C18.7184 11.6645 19.1874 10.9528 19.5616 10.3406C19.9271 9.74324 20.6791 9.52072 21.3073 9.82159C21.9785 10.1419 22.2765 10.948 21.9624 11.6264C21.7831 12.0144 21.5699 12.4245 21.3146 12.8467C20.8801 13.5631 20.4267 14.1523 20.0127 14.6224C20.1776 14.8374 21.9926 17.2679 21.0449 19.8664C20.6917 20.8315 20.083 21.479 19.6509 21.8535Z" fill="#FBCCA1"/>
</g>
<defs>
<clipPath id="clip0_703_14919">
<rect width="40" height="40" fill="white"/>
</clipPath>
<clipPath id="clip1_703_14919">
<rect width="20.9207" height="19.8805" fill="white" transform="translate(23.908 0.432434) rotate(31.2732)"/>
</clipPath>
</defs>
</svg>
