<svg width="400" height="400" viewBox="0 0 400 400" fill="none" xmlns="http://www.w3.org/2000/svg">
<g clip-path="url(#clip0_814_6351)">
<g clip-path="url(#clip1_814_6351)">
<path d="M173.809 347.409C99.1824 336.453 26.0233 270.816 20.6015 192.268C17.852 152.436 31.4444 93.6434 70.597 72.3659C99.1623 56.8426 131.083 66.8562 146.41 71.6701C199.342 88.2856 199.37 123.64 237.877 130.455C287.813 139.286 313.797 84.428 352.905 97.893C381.62 107.783 399.835 148.464 399.649 181.386C399.19 263.985 282.538 363.377 173.809 347.409Z" fill="#8B3D99"/>
</g>
<mask id="mask0_814_6351" style="mask-type:alpha" maskUnits="userSpaceOnUse" x="19" y="62" width="381" height="288">
<path d="M173.809 347.408C128.374 340.737 83.4829 313.798 54.0916 276.017C33.6968 252.377 27.2216 244.281 19.671 225.498C19.671 183.722 19.6716 102.438 19.6717 62.9294C146.556 62.9293 272.792 63.5779 399.649 63.5764C399.649 91.1033 399.835 148.463 399.649 181.385C399.505 207.176 394.454 234.89 369.012 259.647C327.114 314.806 248.588 358.39 173.809 347.408Z" fill="#8B3D99"/>
</mask>
<g mask="url(#mask0_814_6351)">
<g clip-path="url(#clip2_814_6351)">
<path d="M130.786 214.054C114.344 211.198 94.6167 205.808 73.3052 195.89C69.4835 194.109 67.8351 189.594 69.6286 185.8C71.4221 182.005 75.97 180.369 79.7917 182.149C104.367 193.581 131.649 200.523 156.62 201.693C181.02 202.842 228.731 197.167 234.907 192.632C238.302 190.14 243.081 190.847 245.598 194.219C248.108 197.59 247.395 202.342 244 204.834C233.099 212.847 180.389 218.008 155.895 216.858C148.878 216.526 140.391 215.729 130.792 214.062L130.786 214.054Z" fill="#DE4A65"/>
<path d="M331.34 464.97C333.299 465.103 335.217 464.616 336.883 463.558C341.112 460.87 342.362 455.258 339.663 451.052C338.693 449.443 336.088 435.607 335.235 431.055C333.945 424.176 332.609 417.066 331.052 410.625C325.329 386.836 310.429 332.872 310.139 332.069C308.917 328.663 305.785 326.299 302.148 326.053C300.898 325.969 299.66 326.144 298.467 326.557C293.726 328.229 291.241 333.416 292.924 338.131C292.988 338.318 307.739 391.77 313.282 414.839C314.73 420.862 316.021 427.733 317.274 434.381C319.996 448.864 321.548 456.62 324.292 460.844C325.864 463.269 328.428 464.766 331.333 464.962" fill="#DE4A65"/>
<path d="M195.286 442.969C199.777 443.273 203.771 440.333 204.789 435.983L204.791 435.945C205.372 433.513 210.518 411.858 214.224 401.27C217.729 391.263 253.043 319.64 256.73 312.23C256.855 311.98 256.917 311.848 256.926 311.833C257.972 309.652 258.102 307.197 257.286 304.913C256.469 302.63 254.81 300.799 252.606 299.76C251.559 299.271 250.454 298.976 249.302 298.898C245.543 298.644 242.065 300.66 240.439 304.034C240.404 304.1 239.941 305.049 239.941 305.049C231.603 321.864 200.364 385.663 196.983 395.306C192.698 407.535 187.063 431.629 187 431.868C185.862 436.735 188.921 441.619 193.823 442.749C194.297 442.864 194.791 442.928 195.279 442.961" fill="#DE4A65"/>
<path d="M310.139 332.07L317.377 357.003L297.115 350.637L291.641 332.493L310.139 332.077L310.139 332.07Z" fill="#973043"/>
<path d="M249.475 327.423L230.656 324.485L228.683 328.794L244.377 336.524L249.483 327.423L249.475 327.423Z" fill="#973043"/>
<path d="M192.886 263.647C191.127 263.415 189.368 263.049 187.601 262.525C174.465 258.635 164.884 247.326 159.109 228.917C154.828 215.266 152.261 197.066 151.265 173.272C150.835 162.949 158.92 154.243 169.339 153.809C179.757 153.382 188.545 161.394 188.983 171.716C190.576 209.67 196.215 222.252 198.601 225.94C202.436 224.189 213.179 217.188 233.246 189.474C239.324 181.081 251.116 179.159 259.587 185.18C268.057 191.202 269.998 202.886 263.92 211.279C244.691 237.841 219.559 267.133 192.893 263.655L192.886 263.647Z" fill="#DCAC82"/>
<path d="M328.314 314.026C331.373 290.959 336.851 211.061 342.075 167.264C347.299 123.475 359.64 90.5102 339.114 91.1233C313.442 91.9363 254.694 93.29 238.956 95.4588C238.956 95.4588 227.756 96.9302 226.139 109.667C225.273 116.499 217.401 159.577 213.515 202.186C210.166 238.968 210.718 275.603 210.351 285.99C209.549 308.41 209.879 325.286 232.708 326.829C249.895 327.991 285.645 333.586 309.034 334.345C307.994 334.313 306.94 334.272 305.855 334.221C311.772 334.188 325.89 332.176 328.306 314.025" fill="#DE4A65"/>
<path d="M322.069 288.916C324.671 269.401 328.271 214.094 331.311 176.903C334.465 138.275 345.631 113.619 328.726 112.477C306.819 110.996 256.954 112.852 243.5 114.673C243.5 114.673 233.924 115.912 232.549 126.687C231.766 132.863 225.562 166.699 222.106 204.934C220.061 227.612 218.737 251.054 217.555 273.768C216.891 286.592 216.292 298.895 233.029 300.026C247.723 301.019 285.606 305.443 305.601 306.094C304.714 306.065 303.813 306.026 302.881 305.986C307.939 305.963 320.013 304.269 322.061 288.915" fill="#742384"/>
<path fill-rule="evenodd" clip-rule="evenodd" d="M295.155 158.657C296.71 158.693 297.355 159.58 297.486 161.252C296.402 168.136 289.145 173.387 280.429 173.263C271.714 173.139 264.603 167.685 263.706 160.773C263.569 159.278 264.275 158.077 266.108 158.245C266.108 158.245 275.995 160.84 280.795 160.893C285.595 160.946 295.155 158.657 295.155 158.657Z" fill="#3F0D4A"/>
<mask id="mask1_814_6351" style="mask-type:luminance" maskUnits="userSpaceOnUse" x="263" y="158" width="35" height="16">
<path fill-rule="evenodd" clip-rule="evenodd" d="M297.486 161.25C296.402 168.135 289.145 173.386 280.429 173.262C271.713 173.139 264.603 167.684 263.707 160.772C263.57 159.278 264.276 158.077 266.108 158.245C266.108 158.245 275.995 160.839 280.795 160.893C285.594 160.946 295.155 158.656 295.155 158.656C295.23 158.658 295.302 158.661 295.372 158.667C296.771 158.777 297.361 159.659 297.486 161.25Z" fill="white"/>
</mask>
<g mask="url(#mask1_814_6351)">
<path fill-rule="evenodd" clip-rule="evenodd" d="M294.424 171.874C294.424 171.874 289.603 164.599 280.83 164.501C272.057 164.403 267.647 172.04 267.647 172.04C267.647 172.04 270.451 176.893 281.678 175.758C292.904 174.624 294.424 171.874 294.424 171.874Z" fill="#DE4A65"/>
</g>
<path d="M313.205 143.197C307.889 142.85 303.297 146.831 302.95 152.087C302.919 152.564 302.938 152.981 303.001 153.63C303.074 154.385 303.752 154.939 304.515 154.867C305.278 154.796 305.838 154.126 305.765 153.371L305.74 153.087L305.714 152.635L305.721 152.268C305.968 148.525 309.238 145.69 313.024 145.937C316.81 146.184 319.679 149.419 319.432 153.161C319.42 153.338 319.396 153.513 319.354 153.735L319.243 154.252C319.072 154.992 319.54 155.728 320.287 155.897C321.035 156.066 321.779 155.604 321.95 154.865C322.097 154.228 322.17 153.821 322.202 153.343C322.549 148.087 318.521 143.544 313.205 143.197Z" fill="#DE4A65"/>
<path d="M252.774 142.831C247.458 142.484 242.866 146.465 242.519 151.722C242.488 152.198 242.507 152.613 242.57 153.264C242.642 154.019 243.32 154.573 244.083 154.502C244.847 154.43 245.407 153.76 245.334 153.005L245.291 152.479C245.279 152.255 245.278 152.078 245.29 151.903C245.537 148.159 248.807 145.324 252.593 145.571C256.379 145.818 259.248 149.053 259 152.798C258.988 152.973 258.965 153.146 258.923 153.366L258.811 153.886C258.641 154.625 259.109 155.362 259.856 155.531C260.604 155.7 261.348 155.238 261.519 154.498C261.667 153.853 261.74 153.452 261.771 152.977C262.118 147.72 258.09 143.177 252.774 142.831Z" fill="#DE4A65"/>
<path d="M364.896 126.801C365.953 118.879 368.401 110.55 365.331 102.805C361.576 93.3334 347.567 90.8504 339.114 91.1234C359.64 90.5102 347.299 123.475 342.075 167.264C336.851 211.061 331.374 290.952 328.313 314.033C326.592 326.96 317.575 333.667 306.153 334.234C316.976 333.695 329.619 335.995 338.465 327.192C345.88 319.822 347.179 308.691 347.878 298.501C349.192 279.333 354.788 202.614 364.888 126.809" fill="#973043"/>
<path d="M289.027 203.921C287.957 196.965 281.305 192.203 274.175 193.288C267.038 194.373 262.126 200.878 263.196 207.841C263.551 210.139 264.513 212.197 265.899 213.888C266.613 214.757 264.589 219.146 265.501 219.801C266.253 220.338 269.91 217.17 270.765 217.548C272.967 218.503 275.478 218.87 278.048 218.481C285.185 217.396 290.097 210.884 289.027 203.928M272.915 212.004C269.949 211.804 269.265 209.818 269.126 208.835C269.06 208.45 269.079 208.178 269.088 208.049C269.119 207.595 269.518 207.249 269.975 207.28C270.402 207.309 270.731 207.658 270.749 208.07C270.749 208.07 270.749 208.07 270.748 208.078C270.746 208.1 270.743 208.146 270.747 208.207C270.744 208.252 270.756 208.299 270.752 208.352L270.745 208.45C270.741 208.518 270.751 208.595 270.761 208.672C270.78 208.833 270.821 209.018 270.901 209.198C270.907 209.222 270.914 209.237 270.928 209.253C271.174 209.795 271.719 210.341 272.828 210.477C274.502 210.636 275.036 210.109 275.091 209.421C275.085 208.614 275.072 208.028 273.189 207.117C270.987 206.04 269.576 205.39 269.708 203.467C269.84 201.544 271.694 200.871 273.341 200.982C273.753 201.01 274.116 201.08 274.43 201.185C275.062 201.357 275.761 201.663 276.259 202.221C276.388 202.344 276.514 202.527 276.629 202.748C276.635 202.771 276.649 202.795 276.662 202.819C276.696 202.882 276.723 202.945 276.749 203.007C276.755 203.03 276.769 203.047 276.775 203.07C276.919 203.437 276.996 203.868 276.967 204.3C276.962 204.375 276.96 204.505 276.928 204.647C276.927 204.654 276.926 204.67 276.925 204.685C276.922 204.723 276.905 204.752 276.888 204.781C276.887 204.796 276.878 204.811 276.87 204.818C276.869 204.833 276.853 204.84 276.852 204.855C276.696 205.118 276.402 205.281 276.081 205.259C275.799 205.24 275.557 205.079 275.428 204.85C275.421 204.834 275.407 204.81 275.394 204.787C275.373 204.747 275.361 204.701 275.349 204.662C275.349 204.662 275.349 204.654 275.35 204.647C275.351 204.624 275.337 204.608 275.331 204.577C275.302 204.446 275.296 204.308 275.305 204.187C275.307 204.157 275.308 204.142 275.31 204.112C275.312 204.074 275.315 204.036 275.317 203.998C275.309 203.792 275.259 203.629 275.191 203.495C275.192 203.48 275.178 203.464 275.171 203.456C275.157 203.432 275.143 203.408 275.13 203.385C274.751 202.766 273.895 202.404 273.247 202.36C272.377 202.301 271.4 202.707 271.339 203.585C271.279 204.463 272.083 205.034 273.476 205.6C276.19 206.803 276.706 207.651 276.882 208.667C277.082 209.776 276.438 212.235 272.946 211.999M284.597 202.838L278.825 211.833C278.586 212.197 278.095 212.308 277.728 212.078C277.361 211.848 277.249 211.354 277.481 210.989L283.261 201.995C283.493 201.63 283.99 201.519 284.357 201.757C284.724 201.987 284.836 202.481 284.597 202.845" fill="#10CBB4"/>
<path d="M294.227 245.182C293.922 244.613 293.496 244.235 291.325 244.157C289.155 244.078 281.302 244.544 279.234 244.655C277.166 244.766 263.969 245.746 261.788 246.047C260.782 246.192 258.994 246.345 257.015 246.607L257.016 246.591C257.016 246.591 263.544 228.361 263.717 227.848C263.89 227.335 264.451 225.859 263.87 225.615C263.282 225.37 262.384 225.4 261.503 225.843C260.622 226.285 259.993 226.98 259.697 227.713C259.401 228.454 258.466 230.809 258.056 231.763C257.646 232.716 256.263 235.908 255.337 237.116C254.327 238.439 253.084 239.367 252.257 238.695C251.611 238.164 252.051 236.665 252.318 235.794C252.585 234.914 253.304 233.137 253.648 232.263C253.983 231.388 254.474 230.258 254.605 229.354C254.736 228.45 254.061 227.576 253.391 227.401C252.722 227.219 252.021 227.05 251.711 227.554C251.4 228.058 251.529 228.865 251.385 229.616C251.255 230.291 250.883 230.913 250.603 231.533C250.287 232.226 249.979 232.92 249.693 233.631C249.261 234.682 248.867 235.735 248.555 236.825C248.245 237.884 247.938 239.004 247.962 240.108C247.98 240.969 248.256 241.854 248.874 242.451C249.384 242.942 250.109 243.204 250.822 243.199C252.04 243.198 253.216 242.471 254.104 241.702C254.511 241.349 255.183 240.817 255.395 240.299C254.483 242.541 253.532 244.782 252.65 247.042C252.612 247.138 252.575 247.234 252.501 247.305C252.419 247.391 252.301 247.429 252.184 247.467C252.097 247.499 252.012 247.523 251.925 247.555C251.316 247.72 250.737 247.901 250.218 248.102C248.888 248.613 247.766 249.221 246.878 249.777C245.626 250.499 244.449 251.347 243.386 252.325C242.02 253.587 240.86 255.098 240.041 256.761C239.276 258.307 238.599 260.139 238.933 261.866C239.255 263.53 240.55 264.865 242.253 265.163C243.449 265.373 244.686 265.099 245.772 264.564C246.858 264.029 247.794 263.233 248.649 262.385C251.157 259.878 252.87 256.792 254.263 253.57C254.627 252.727 254.976 251.884 255.318 251.032C258.891 250.308 267.455 249.312 269.669 249.082C271.898 248.86 282.67 248.173 285.232 248.004C287.802 247.835 293.232 247.86 293.932 247.253C294.633 246.647 294.556 245.752 294.243 245.183M250.551 252.741C250.388 253.103 250.219 253.449 250.034 253.801C249.653 254.544 249.244 255.269 248.819 255.985C247.937 257.462 246.958 258.887 245.733 260.104C245.125 260.702 243.328 262.338 242.524 261.218C241.88 260.323 242.94 257.946 245.032 255.691C247.655 252.857 250.914 251.906 250.914 251.906C250.82 251.938 250.604 252.63 250.551 252.741Z" fill="white"/>
<path d="M275.491 237.009C275.491 237.009 274.998 238.056 273.59 238.371C272.182 238.687 273.989 233.226 273.989 233.226C273.989 233.226 275.551 227.871 275.79 227.066C276.037 226.261 276.014 225.476 275.125 225.143C274.236 224.816 273.355 224.704 273.023 225.533L272.697 226.37C272.697 226.37 271.816 225.033 269.829 225.188C267.842 225.342 265.268 227.914 263.548 232.103C261.829 236.291 262.172 238.877 262.352 239.939C262.525 241 263 242.447 264.992 242.886C266.977 243.317 268.564 241.956 269.473 240.093C269.473 240.093 269.402 241.693 270.75 242.248C272.092 242.795 274.106 241.57 274.844 240.973C275.575 240.376 275.5 237.002 275.5 237.002M271.881 229.783C271.554 230.978 270.86 232.947 269.997 235.033C269.077 237.268 268.104 239.065 266.952 238.767C265.658 238.428 265.626 236.434 265.786 235.334C265.946 234.227 266.348 232.938 266.999 231.712C268.215 229.399 269.569 228.752 270.556 228.439C271.347 228.188 272.22 228.521 271.888 229.784" fill="white"/>
<path d="M287.147 225.438C286.332 224.143 284.467 224.192 283.43 224.67C282.394 225.147 281.215 226.596 281.001 227.038L281.284 225.704C281.284 225.704 281.589 225.268 280.472 224.919C279.354 224.569 278.765 224.453 278.45 225.36C278.127 226.266 272.3 248.582 272.3 248.582C272.3 248.582 271.911 249.895 272.16 250.626C272.401 251.357 273.371 251.841 274.417 250.779C275.462 249.716 276.136 245.138 276.626 242.912C277.116 240.686 277.266 240.164 277.266 240.164C277.266 240.164 277.998 241.445 279.883 241.885C282.078 242.39 283.768 240.862 285.102 238.617C286.471 236.306 287.482 232.945 287.747 230.978C288.008 229.071 287.962 226.733 287.147 225.438ZM284.532 230.836C284.336 232.245 283.891 233.592 283.342 234.901C282.868 236.01 282.352 237.161 281.461 237.976C280.677 238.683 279.087 239.078 278.305 238.082C278.305 238.082 278.862 235.891 279.61 233.69C280.32 231.609 281.185 229.157 282.713 228.204C284.611 227.008 284.719 229.556 284.546 230.852" fill="white"/>
<path d="M297.814 235.323C297.329 235.131 296.757 235.875 296.443 236.212C296.104 236.569 295.68 236.837 295.284 237.13C294.405 237.778 292.437 238.884 291.439 237.805C291.018 237.351 291.025 236.348 291.161 235.703C291.276 235.148 291.707 234.226 291.746 234.221C292.662 234.26 293.633 233.953 294.143 233.775C295.674 233.239 297.052 232.351 298.044 231.065C299.423 229.287 301.05 225.989 298.866 224.214C298.54 223.949 298.146 223.77 297.739 223.674C296.307 223.334 295.056 223.478 293.855 224.347C292.258 225.517 291.702 226.149 290.277 228.387C288.662 230.925 287.64 234.103 287.603 237.105C287.591 237.834 287.648 238.576 287.852 239.282C288.056 239.988 288.432 240.66 288.989 241.131C289.865 241.874 291.115 242.081 292.232 241.882C293.635 241.635 295.258 240.763 295.724 240.445C296.182 240.134 298.205 238.552 298.509 238.032C298.813 237.505 298.501 236.587 298.501 236.587C298.393 236.26 298.194 235.478 297.791 235.314M295.036 227.127C295.289 226.901 295.579 226.692 295.92 226.631C296.409 226.543 296.797 226.805 296.855 227.288C296.942 228.032 296.495 228.853 296.029 229.4C295.58 229.909 295.017 230.312 294.427 230.638C294.157 230.787 293.88 230.905 293.583 230.999C292.768 231.271 292.544 231.18 292.532 231.247C292.753 230.372 293.827 228.216 295.043 227.135" fill="white"/>
<path d="M267.286 314.784C267.085 317.714 264.528 319.93 261.569 319.73C258.61 319.53 256.386 316.991 256.587 314.062C256.788 311.132 259.346 308.916 262.297 309.116C265.248 309.315 267.487 311.855 267.286 314.784Z" fill="#973043"/>
<path d="M270.975 106.567L299.752 105.599C301.194 105.795 302.536 104.775 302.725 103.351C302.923 101.919 301.896 100.587 300.461 100.399L271.684 101.367C270.242 101.171 268.9 102.19 268.711 103.615C268.513 105.047 269.54 106.379 270.975 106.567Z" fill="#973043"/>
<path fill-rule="evenodd" clip-rule="evenodd" d="M76.1934 196.631C68.5171 195.899 50.4617 190.883 43.8644 184.599C37.2672 178.316 40.5651 167.48 42.5346 159.164C44.5042 150.847 53.0197 147.697 59.4594 154.831C65.899 161.966 73.2205 167.882 73.2205 167.882C73.2205 167.882 76.87 152.717 82.7572 153.74C88.6444 154.762 83.9541 170.594 83.5018 183.95C80.2692 192.301 76.192 196.638 76.192 196.638L76.1934 196.631Z" fill="#DE4A65"/>
</g>
<path d="M196.623 206.095C191.346 208.309 183.35 210.965 173.317 211.735C164.446 212.416 156.995 211.398 151.74 210.261C150.88 202.901 150.389 194.65 150.638 185.674C150.744 181.687 150.993 177.872 151.333 174.245C163.857 173.085 176.382 171.918 188.907 170.759C191.474 182.54 194.048 194.321 196.615 206.102L196.623 206.095Z" fill="#F4C12A"/>
<path d="M170.126 191.195C180.55 191.195 189 182.822 189 172.495C189 162.167 180.55 153.794 170.126 153.794C159.702 153.794 151.252 162.167 151.252 172.495C151.252 182.822 159.702 191.195 170.126 191.195Z" fill="#10CBB4"/>
<path d="M96.7212 71.6692C95.0819 84.69 88.5245 86.3176 87.7048 100.152C86.0655 109.918 89.743 113.959 84.4252 126.166C82.7835 129.935 81.1475 138.373 81.1475 138.373C81.1475 138.373 98.3606 137.559 102.459 137.559C108.54 138.777 135.944 141.441 143.443 142.47C147.656 143.048 161.475 148.167 161.475 148.167C160.656 139.215 157.514 139.28 158.333 133.583C161.475 121.083 156.52 120.52 154.436 110.309C153.96 107.976 154.061 104.244 154.167 100.25C154.272 96.2555 152.348 92.9431 152.083 88.7916C134.848 87.8865 113.919 74.1825 96.7212 71.6692Z" fill="#2C2044"/>
<path d="M172.59 153.946L64.0573 139.789C53.7226 138.441 44.2418 145.649 42.8812 155.889C41.5206 166.128 48.7955 175.522 59.1302 176.87L167.663 191.027C177.998 192.375 187.478 185.167 188.839 174.928C190.2 164.688 182.925 155.294 172.59 153.946Z" fill="#F4C12A"/>
<path d="M72.3643 353.82C87.2162 353.82 99.256 341.891 99.256 327.176C99.256 312.46 87.2162 300.531 72.3643 300.531C57.5125 300.531 45.4727 312.46 45.4727 327.176C45.4727 341.891 57.5125 353.82 72.3643 353.82Z" fill="#002649"/>
<path d="M134.368 353.82C149.22 353.82 161.26 341.891 161.26 327.176C161.26 312.46 149.22 300.531 134.368 300.531C119.516 300.531 107.477 312.46 107.477 327.176C107.477 341.891 119.516 353.82 134.368 353.82Z" fill="#002649"/>
<path d="M99.2557 327.333L45.4799 327.176C44.0379 295.206 54.1921 274.658 59.9902 266.961H146.75C152.548 274.658 162.703 295.206 161.261 327.176L107.485 327.333H99.2557Z" fill="#002649"/>
<path d="M99.256 327.332H45.4727L46.6957 427.372H98.033L99.256 327.332Z" fill="#002649"/>
<path d="M107.486 327.332H161.262L160.039 427.372H108.701L107.486 327.332Z" fill="#002649"/>
<path d="M170.442 172.539C173.258 187.26 172.065 198.704 170.683 205.908C168.992 214.727 165.678 222.371 159.125 237.294C153.984 249.001 149.356 258.463 146.11 264.874C147.967 268.307 149.824 271.733 151.689 275.166C139.292 277.395 124.412 279.131 107.569 279.213C87.283 279.31 69.6698 276.991 55.5747 274.149C57.3564 267.798 59.1457 261.455 60.9274 255.105C61.2218 229.148 61.5238 203.192 61.8182 177.236C62.1353 172.741 62.4297 168.208 62.7242 163.66C63.2149 156.015 63.7736 146.657 64.0529 139.806C75.6264 138.639 83.3869 136.033 99.1806 136.773C101.166 146.879 107.403 155.701 118.033 157.085C128.67 158.476 138.898 151.715 143.443 142.47C158.889 145.806 173.666 154.138 173.666 154.138C172.594 160.279 171.521 166.412 170.442 172.554V172.539Z" fill="#F4C12A"/>
<path d="M37.7785 209.289C37.0084 208.458 36.1931 207.389 35.4985 206.072C33.0977 201.494 33.7546 196.932 34.1471 195.032C29.791 191.336 24.4535 186.048 19.4632 178.86C18.1118 176.915 16.9114 175 15.8394 173.152C19.3197 169.016 23.3814 164.857 28.0093 160.675L50.2429 191.314C40.904 200.447 38.1484 206.678 37.7785 209.281V209.289Z" fill="#9F7554"/>
</g>
<path d="M354.918 228.733C354.666 238.683 352.93 248.908 352.837 258.652C350.488 253.815 348.084 247.954 346.139 241.141C343.405 231.55 344.542 221.733 344.263 214.898C348.142 214.494 351.858 215.303 355.738 214.898C355.579 219.604 355.038 223.967 354.918 228.733Z" fill="#6B222F"/>
<path fill-rule="evenodd" clip-rule="evenodd" d="M264.857 270.227C266.767 265.628 266.508 258.505 272.851 260.144C281.659 262.415 274.579 288.267 273.458 293.026C271.333 302.044 268.017 302.177 258.843 300.114C258.139 299.953 252.563 298.603 252.02 298.479C244.883 296.877 245.412 286.234 247.529 277.224C249.595 268.457 256.23 268.637 263.188 269.801L264.858 270.235L264.857 270.227Z" fill="#DE4A65"/>
<path d="M318.769 305.086C303.316 305.215 284.949 303.221 263.575 299.112C259.433 298.32 256.724 294.336 257.523 290.224C258.321 286.112 262.334 283.423 266.475 284.215C316.411 293.807 337.534 291.213 349.281 276.72C358.108 265.826 356.576 246.45 344.727 219.133C343.059 215.285 344.848 210.823 348.724 209.159C352.6 207.503 357.094 209.279 358.77 213.128C373.237 246.478 374.036 270.39 361.193 286.235C351.17 298.604 344.845 304.869 318.769 305.086Z" fill="#DE4A65"/>
<g clip-path="url(#clip3_814_6351)">
<path fill-rule="evenodd" clip-rule="evenodd" d="M201.477 120.59C201.825 121.401 202.476 122.047 203.292 122.393C204.333 122.833 205.82 123.464 207.006 123.967C207.731 124.274 207.73 125.292 207.006 125.6L203.292 127.174C202.475 127.519 201.825 128.165 201.477 128.976C201.033 130.009 200.397 131.486 199.891 132.663C199.582 133.383 198.556 133.383 198.246 132.663C197.74 131.486 197.105 130.009 196.661 128.976C196.313 128.165 195.661 127.519 194.846 127.174C193.805 126.733 192.318 126.102 191.132 125.6C190.407 125.292 190.407 124.274 191.132 123.967C192.318 123.464 193.805 122.833 194.846 122.393C195.663 122.047 196.313 121.4 196.661 120.59C197.105 119.557 197.74 118.081 198.246 116.903C198.556 116.183 199.582 116.183 199.891 116.903C200.397 118.081 201.033 119.557 201.477 120.59Z" fill="#BD77C7"/>
</g>
<g clip-path="url(#clip4_814_6351)">
<path fill-rule="evenodd" clip-rule="evenodd" d="M259.264 85.9321C259.479 86.4312 259.879 86.8285 260.381 87.0412C261.022 87.3124 261.937 87.7006 262.667 88.0098C263.113 88.199 263.112 88.8257 262.667 89.0149L260.381 89.9834C259.879 90.1962 259.479 90.5935 259.264 91.0926C258.991 91.7284 258.6 92.637 258.289 93.3617C258.098 93.8046 257.467 93.8046 257.276 93.3617C256.965 92.637 256.574 91.7284 256.301 91.0926C256.087 90.5935 255.686 90.1962 255.184 89.9834C254.543 89.7122 253.628 89.3241 252.898 89.0149C252.452 88.8257 252.452 88.199 252.898 88.0098C253.628 87.7006 254.543 87.3124 255.184 87.0412C255.686 86.8285 256.087 86.4305 256.301 85.9321C256.574 85.2963 256.965 84.3877 257.276 83.663C257.467 83.2201 258.098 83.2201 258.289 83.663C258.6 84.3877 258.991 85.2963 259.264 85.9321Z" fill="#BD77C7"/>
</g>
<g clip-path="url(#clip5_814_6351)">
<path fill-rule="evenodd" clip-rule="evenodd" d="M392.387 157.024C392.748 157.866 393.425 158.537 394.272 158.896C395.353 159.354 396.897 160.009 398.129 160.53C398.882 160.85 398.88 161.907 398.129 162.226L394.272 163.861C393.424 164.22 392.748 164.89 392.387 165.732C391.926 166.805 391.266 168.339 390.74 169.562C390.419 170.309 389.354 170.309 389.032 169.562C388.507 168.339 387.847 166.805 387.386 165.732C387.024 164.89 386.348 164.22 385.501 163.861C384.42 163.403 382.876 162.748 381.644 162.226C380.891 161.907 380.891 160.85 381.644 160.53C382.876 160.009 384.42 159.354 385.501 158.896C386.349 158.537 387.024 157.865 387.386 157.024C387.847 155.951 388.507 154.418 389.032 153.195C389.354 152.448 390.419 152.448 390.74 153.195C391.266 154.418 391.926 155.951 392.387 157.024Z" fill="#BD77C7"/>
</g>
<path d="M136.809 141.15L141.429 106.36L109.396 102.179L104.776 136.969C102.367 136.797 100.686 136.886 98.3608 136.774C100.339 146.872 107.916 154.615 118.546 155.998C129.176 157.382 139.262 151.795 143.807 142.542C141.527 142.048 139.187 141.584 136.816 141.135L136.809 141.15Z" fill="#DCAC82"/>
<path d="M139.599 120.19L137.711 134.387C132.102 134.26 123.186 133.086 116.572 127.603C111.303 123.235 110.163 118.328 109.846 116.315L139.591 120.198L139.599 120.19Z" fill="#9F7554"/>
<path d="M98.4611 88.1562L102.991 88.1499L103.014 104.606L98.4843 104.613C95.1473 104.617 92.4408 101.943 92.4361 98.6367L92.4298 94.1487C92.4252 90.8424 95.1241 88.1608 98.4611 88.1562Z" fill="#DCAC82"/>
<path d="M97.3747 99.0438C97.2539 99.0438 97.1331 98.984 97.0576 98.8718C96.9444 98.6997 96.9972 98.4678 97.1709 98.3556L100.259 96.3734L97.1633 94.4061C96.9897 94.2939 96.9368 94.062 97.0501 93.89C97.1633 93.718 97.3974 93.6656 97.571 93.7778L101.157 96.0592C101.263 96.1266 101.331 96.2462 101.331 96.3734C101.331 96.5006 101.263 96.6203 101.157 96.6876L97.5785 98.984C97.5182 99.0214 97.4427 99.0438 97.3747 99.0438Z" fill="#9F7554"/>
<path d="M145.707 88.085H150.236C153.573 88.0775 156.284 90.7479 156.284 94.0541V98.5422C156.291 101.848 153.596 104.534 150.259 104.534H145.729L145.707 88.085Z" fill="#9F7554"/>
<path d="M125.592 53.321L129.366 53.3157C141.869 53.2984 152.029 63.3377 152.047 75.7248L152.094 109.385C152.109 119.708 143.665 128.097 133.247 128.112L125.697 128.122C113.195 128.14 103.034 118.1 103.017 105.713L102.974 75.7927C102.957 63.4056 113.09 53.3383 125.592 53.321Z" fill="#DCAC82"/>
<path d="M121.809 96.0304C122.814 96.029 123.627 94.9562 123.625 93.6342C123.623 92.3122 122.807 91.2417 121.802 91.2431C120.797 91.2445 119.984 92.3173 119.986 93.6392C119.988 94.9612 120.804 96.0318 121.809 96.0304Z" fill="#2C2044"/>
<path d="M144.955 96.0055C145.96 96.0041 146.773 94.9313 146.771 93.6093C146.769 92.2873 145.953 91.2168 144.948 91.2182C143.944 91.2196 143.13 92.2924 143.132 93.6144C143.134 94.9363 143.95 96.0069 144.955 96.0055Z" fill="#2C2044"/>
<path d="M116.684 84.7643C116.555 84.7643 116.427 84.6969 116.359 84.5773C116.253 84.3977 116.314 84.1733 116.495 84.0686C117.461 83.5151 119.032 82.8718 121.04 82.9241C122.814 82.9765 124.203 83.5674 125.056 84.0536C125.237 84.1584 125.298 84.3828 125.192 84.5623C125.086 84.7418 124.86 84.8017 124.679 84.6969C123.901 84.2556 122.64 83.717 121.017 83.6647C119.175 83.6123 117.748 84.2032 116.873 84.7044C116.812 84.7418 116.744 84.7568 116.684 84.7568V84.7643Z" fill="#2C2044"/>
<path d="M142.467 84.7266C142.354 84.7266 142.241 84.6743 142.165 84.577C142.037 84.4124 142.075 84.1806 142.241 84.0534C142.913 83.5522 144.015 82.9463 145.434 82.894C147.042 82.8341 148.288 83.4849 149.058 84.0459C149.224 84.1731 149.262 84.405 149.133 84.5695C149.005 84.7341 148.771 84.7715 148.605 84.6443C147.933 84.1506 146.869 83.5747 145.464 83.6345C144.241 83.6869 143.282 84.2105 142.694 84.6518C142.626 84.7042 142.55 84.7266 142.467 84.7266Z" fill="#2C2044"/>
<path d="M116.715 100.757C118.17 100.755 119.348 100.104 119.347 99.3025C119.346 98.5011 118.166 97.853 116.71 97.855C115.255 97.857 114.077 98.5083 114.078 99.3098C114.079 100.111 115.259 100.759 116.715 100.757Z" fill="#BE906A"/>
<path d="M149.456 100.719C150.911 100.717 152.09 100.066 152.089 99.2647C152.088 98.4632 150.907 97.8151 149.452 97.8172C147.997 97.8192 146.818 98.4705 146.819 99.2719C146.821 100.073 148.001 100.721 149.456 100.719Z" fill="#BE906A"/>
<path d="M141.208 53.0108C128.494 46.6302 114.543 54.3721 113.04 55.2398C104.509 54.1552 95.7745 62.2263 96.8843 74.0449C97.2316 77.77 97.5638 82.6994 97.6996 86.3423V88.1599L110.005 88.145C110.134 86.1702 110.413 83.9636 110.942 81.5999C112.134 76.2067 114.173 71.8981 116 68.7939C119.941 70.0206 121.76 73.1548 126.041 74.5685C132.201 76.6031 139.653 74.7854 141.684 73.5737C141.472 74.1796 140.098 75.1221 138.717 76.0795C136.995 77.2614 136.648 78.3834 137.071 78.9818C138.671 81.2483 148.81 76.4984 150.343 72.9079C150.57 73.1772 150.804 73.4839 151.038 73.828C151.491 74.5087 151.808 75.1669 152.034 75.7354C152.744 73.7981 153.763 70.1104 152.774 65.8542C150.917 57.8953 143.496 54.1777 141.2 53.0257L141.208 53.0108Z" fill="#2C2044"/>
<path d="M100.965 107.07C102.241 107.07 103.276 106.045 103.276 104.781C103.276 103.516 102.241 102.492 100.965 102.492C99.6896 102.492 98.6553 103.516 98.6553 104.781C98.6553 106.045 99.6896 107.07 100.965 107.07Z" fill="#57B43C"/>
<path d="M126.839 109.904C126.348 109.837 125.91 110.256 125.993 110.742C126.439 113.435 128.779 115.477 133.044 115.469C137.31 115.469 139.643 113.42 140.081 110.727C140.156 110.241 139.726 109.822 139.235 109.889C137.423 110.144 135.34 110.323 133.037 110.323C130.734 110.323 128.651 110.151 126.839 109.904Z" fill="white"/>
<g clip-path="url(#clip6_814_6351)">
<path fill-rule="evenodd" clip-rule="evenodd" d="M62.9215 97.4441C63.5463 98.9157 64.7154 100.087 66.1791 100.714C68.0466 101.514 70.7151 102.658 72.8437 103.57C74.1445 104.128 74.1423 105.976 72.8437 106.533L66.1791 109.389C64.7132 110.016 63.5463 111.188 62.9215 112.659C62.125 114.534 60.9848 117.213 60.0767 119.35C59.5212 120.655 57.6804 120.655 57.1249 119.35C56.2168 117.213 55.0766 114.534 54.2801 112.659C53.6553 111.188 52.4862 110.016 51.0225 109.389C49.155 108.589 46.4865 107.445 44.3579 106.533C43.0571 105.976 43.0571 104.128 44.3579 103.57C46.4865 102.658 49.155 101.514 51.0225 100.714C52.4884 100.087 53.6553 98.9134 54.2801 97.4441C55.0766 95.5694 56.2168 92.8906 57.1249 90.7538C57.6804 89.448 59.5212 89.448 60.0767 90.7538C60.9848 92.8906 62.125 95.5694 62.9215 97.4441Z" fill="#BD77C7"/>
<path fill-rule="evenodd" clip-rule="evenodd" d="M27.6272 127.208C27.8607 127.757 28.2977 128.195 28.8447 128.43C29.5427 128.729 30.54 129.156 31.3355 129.497C31.8217 129.705 31.8208 130.396 31.3355 130.604L28.8447 131.672C28.2968 131.906 27.8607 132.344 27.6272 132.894C27.3295 133.595 26.9034 134.596 26.564 135.394C26.3564 135.882 25.6684 135.882 25.4608 135.394C25.1214 134.596 24.6953 133.595 24.3976 132.894C24.1641 132.344 23.7272 131.906 23.1801 131.672C22.4822 131.373 21.4848 130.945 20.6893 130.604C20.2032 130.396 20.2032 129.705 20.6893 129.497C21.4848 129.156 22.4822 128.729 23.1801 128.43C23.728 128.195 24.1641 127.757 24.3976 127.208C24.6953 126.507 25.1214 125.506 25.4608 124.707C25.6684 124.219 26.3564 124.219 26.564 124.707C26.9034 125.506 27.3295 126.507 27.6272 127.208Z" fill="#BD77C7"/>
</g>
<path d="M4.32727 227.638C0.552469 220.599 -4.15848 205.863 6.75069 186.19C14.5494 172.135 29.407 157.594 50.9159 142.985L72.2586 173.833C44.627 192.601 38.3609 205.317 37.772 209.364C41.1995 210.044 53.2185 210.71 84.3832 198.675L98.0858 233.525C73.8214 242.89 54.97 247.318 40.4672 247.071C25.0283 246.802 11.5749 241.139 4.31972 227.638H4.32727Z" fill="#DCAC82"/>
<path d="M47.9724 198.862C43.1935 195.727 36.5499 190.596 30.3516 182.727C24.8782 175.778 21.6167 169.061 19.6689 164.094C25.384 159.314 32.0503 154.355 39.7433 149.597C43.1558 147.48 46.5002 145.581 49.7466 143.86C57.6434 153.562 65.5403 163.264 73.4372 172.965C64.9439 181.597 56.4582 190.23 47.9649 198.862H47.9724Z" fill="#F4C12A"/>
<path d="M61.5898 177.109C72.0136 177.109 80.4638 168.737 80.4638 158.409C80.4638 148.081 72.0136 139.708 61.5898 139.708C51.166 139.708 42.7158 148.081 42.7158 158.409C42.7158 168.737 51.166 177.109 61.5898 177.109Z" fill="#F4C12A"/>
<path d="M76.1597 223.873L60.1419 228.823C58.6166 223.554 59.0576 219.359 59.4764 217.109C60.7625 210.141 65.4144 204.073 70.7683 199.593C73.3837 197.404 74.0851 197.446 78.0167 194.166C80.3234 192.247 82.2614 190.406 83.8382 188.803C85.3782 187.239 87.8508 187.082 89.5803 188.431C91.4289 189.868 91.7911 192.525 90.3537 194.371C89.5326 195.427 88.5918 196.527 87.5129 197.634C85.6781 199.513 83.8725 200.991 82.271 202.135C82.6311 202.902 86.5493 211.547 81.8312 218.794C80.0755 221.484 77.7509 223.033 76.1597 223.873Z" fill="#DCAC82"/>
<path d="M130.676 201.989L97.3854 199.264C96.2362 199.17 95.2282 200.004 95.1338 201.127L93.776 217.29C93.6817 218.413 94.5367 219.4 95.6859 219.494L128.976 222.219C130.126 222.313 131.134 221.478 131.228 220.355L132.586 204.193C132.68 203.07 131.825 202.083 130.676 201.989Z" fill="#006B5F"/>
<path fill-rule="evenodd" clip-rule="evenodd" d="M130.277 206.75L129.336 217.96C128.258 218.286 127.357 219.028 126.85 220.007L98.6752 217.701C98.2839 216.483 97.3157 215.496 96.0589 215.069L96.9726 204.192C98.4652 203.946 99.71 202.921 100.206 201.53L128.038 203.808C128.264 205.084 129.106 206.175 130.277 206.75Z" fill="#004D43"/>
<path fill-rule="evenodd" clip-rule="evenodd" d="M114.166 205.223C117.326 205.481 119.678 208.18 119.42 211.252C119.162 214.323 116.391 216.603 113.232 216.345C110.072 216.086 107.72 213.387 107.979 210.315C108.237 207.244 111.007 204.964 114.166 205.223ZM117.191 208.497L116.972 208.479C116.731 208.46 116.576 208.554 116.485 208.759L114.464 213.46C114.354 213.721 114.471 213.901 114.763 213.925L114.982 213.943C115.224 213.963 115.379 213.869 115.469 213.663L117.49 208.969C117.601 208.701 117.483 208.521 117.191 208.497ZM112.499 207.631C111.307 207.534 110.344 208.15 110.256 209.198C110.107 210.976 112.715 211.061 112.648 211.863C112.629 212.085 112.417 212.244 111.99 212.209C111.48 212.167 111.132 211.883 110.951 211.772C110.691 211.607 110.501 211.607 110.317 211.824L110.032 212.16C109.794 212.437 109.902 212.621 110.064 212.77C110.356 213.034 111.06 213.419 111.883 213.487C113.206 213.595 114.015 212.838 114.095 211.886C114.246 210.092 111.631 210.078 111.7 209.252C111.719 209.03 111.923 208.871 112.375 208.908C112.761 208.939 113.021 209.096 113.282 209.246C113.503 209.376 113.721 209.441 113.911 209.145L114.14 208.788C114.282 208.568 114.274 208.368 114.05 208.182C113.787 207.968 113.181 207.687 112.499 207.631Z" fill="#006B5F"/>
<ellipse cx="7.29692" cy="7.29693" rx="7.29692" ry="7.29693" transform="matrix(0.348373 0.93687 -0.937537 0.349191 117.851 200.146)" fill="#00AD97"/>
<path fill-rule="evenodd" clip-rule="evenodd" d="M113.495 215.9C113.831 215.964 114.023 215.794 114.095 215.418L114.167 215.043C115.436 215.066 116.313 214.236 116.525 213.129C116.969 210.821 113.837 210.294 114.007 209.407C114.088 208.989 114.504 208.894 114.849 208.96C115.253 209.036 115.607 209.265 115.843 209.483C116.124 209.731 116.372 209.734 116.602 209.42L116.927 208.973C117.131 208.687 117.158 208.389 116.914 208.159C116.664 207.906 116.247 207.59 115.637 207.399L115.73 206.918C115.788 206.616 115.666 206.419 115.33 206.356L115.273 206.345C114.927 206.28 114.735 206.449 114.663 206.825L114.585 207.232C113.477 207.25 112.548 207.941 112.323 209.11C111.891 211.355 114.998 212.018 114.837 212.853C114.751 213.302 114.348 213.378 114.002 213.312C113.541 213.225 113.142 212.923 112.875 212.656C112.615 212.401 112.371 212.377 112.109 212.652L111.733 213.057C111.485 213.313 111.446 213.62 111.676 213.869C111.955 214.181 112.422 214.594 113.121 214.845L113.028 215.325C112.97 215.628 113.091 215.824 113.437 215.889L113.495 215.9Z" fill="#006B5F"/>
<path d="M123.46 213.114C124.322 213.185 125.077 212.563 125.148 211.725C125.218 210.888 124.577 210.151 123.715 210.081C122.853 210.01 122.098 210.632 122.027 211.47C121.957 212.307 122.598 213.044 123.46 213.114Z" fill="#006B5F"/>
<path d="M103.164 211.444C104.025 211.514 104.781 210.893 104.851 210.055C104.922 209.217 104.28 208.481 103.419 208.411C102.557 208.34 101.801 208.962 101.731 209.8C101.661 210.637 102.302 211.373 103.164 211.444Z" fill="#006B5F"/>
<path d="M126.064 181.986L89.416 195.62C88.151 196.091 87.5062 197.477 87.9759 198.715L94.7347 216.541C95.2044 217.78 96.6107 218.403 97.8757 217.932L134.524 204.298C135.789 203.827 136.433 202.441 135.964 201.203L129.205 183.377C128.735 182.138 127.329 181.515 126.064 181.986Z" fill="#00AD97"/>
<path fill-rule="evenodd" clip-rule="evenodd" d="M128.059 187.237L132.747 199.601C131.77 200.481 131.192 201.716 131.151 203.008L100.134 214.548C99.1014 213.45 97.5748 212.882 96.027 213.053L91.4786 201.056C92.9348 200.054 93.7338 198.348 93.5539 196.626L124.194 185.226C125.08 186.467 126.526 187.207 128.059 187.237Z" fill="#008C7B"/>
<path fill-rule="evenodd" clip-rule="evenodd" d="M110.221 193.613C113.698 192.32 117.558 194.016 118.842 197.403C120.126 200.789 118.348 204.583 114.872 205.876C111.395 207.169 107.535 205.473 106.251 202.086C104.967 198.7 106.744 194.906 110.221 193.613ZM115.085 195.586L114.844 195.676C114.579 195.775 114.462 195.951 114.47 196.215L114.713 202.204C114.729 202.536 114.945 202.669 115.266 202.549L115.507 202.459C115.773 202.361 115.889 202.184 115.881 201.921L115.641 195.939C115.622 195.6 115.407 195.467 115.085 195.586ZM109.677 196.996C108.365 197.484 107.658 198.615 108.096 199.77C108.84 201.731 111.646 200.527 111.981 201.411C112.074 201.656 111.93 201.929 111.459 202.104C110.898 202.313 110.385 202.185 110.137 202.157C109.779 202.11 109.577 202.205 109.493 202.526L109.361 203.025C109.249 203.436 109.458 203.578 109.704 203.656C110.147 203.791 111.089 203.85 111.993 203.513C113.45 202.972 113.923 201.767 113.524 200.717C112.774 198.739 109.998 200.022 109.653 199.112C109.56 198.866 109.695 198.597 110.193 198.411C110.618 198.253 110.973 198.291 111.325 198.32C111.625 198.348 111.889 198.31 111.94 197.901L112.001 197.409C112.041 197.105 111.931 196.896 111.599 196.81C111.211 196.714 110.428 196.716 109.677 196.996Z" fill="#00AD97"/>
<ellipse cx="8.05617" cy="8.05617" rx="8.05617" ry="8.05617" transform="matrix(0.83636 0.552267 -0.549036 0.833101 109.26 188.329)" fill="#10CBB4"/>
<path fill-rule="evenodd" clip-rule="evenodd" d="M114.64 205.073C115.063 204.874 115.136 204.533 114.909 204.059L114.682 203.585C116.102 202.594 116.391 200.974 115.723 199.578C114.329 196.668 110.442 198.592 109.906 197.473C109.654 196.946 110.036 196.508 110.471 196.304C110.978 196.065 111.556 196.036 111.995 196.088C112.507 196.137 112.783 195.943 112.781 195.411L112.774 194.656C112.766 194.176 112.553 193.824 112.096 193.765C111.614 193.685 110.895 193.668 110.066 193.945L109.776 193.339C109.593 192.957 109.299 192.838 108.877 193.036L108.804 193.07C108.369 193.275 108.296 193.616 108.523 194.09L108.769 194.604C107.561 195.511 107.099 197.018 107.805 198.493C109.161 201.325 113.13 199.571 113.634 200.624C113.906 201.191 113.523 201.597 113.088 201.801C112.508 202.074 111.821 202.058 111.308 201.977C110.814 201.903 110.525 202.071 110.46 202.585L110.375 203.335C110.31 203.817 110.517 204.188 110.975 204.279C111.537 204.402 112.391 204.485 113.366 204.204L113.656 204.809C113.839 205.191 114.133 205.311 114.567 205.107L114.64 205.073Z" fill="#008C7B"/>
<path d="M124.066 197.356C125.015 197.003 125.499 195.968 125.149 195.045C124.799 194.121 123.746 193.659 122.798 194.011C121.85 194.364 121.365 195.399 121.715 196.322C122.065 197.246 123.118 197.708 124.066 197.356Z" fill="#00AD97"/>
<path d="M101.714 205.692C102.662 205.339 103.147 204.304 102.797 203.381C102.447 202.457 101.394 201.994 100.446 202.347C99.4977 202.7 99.0129 203.735 99.3631 204.658C99.7134 205.582 100.766 206.044 101.714 205.692Z" fill="#00AD97"/>
<path d="M112.83 163.85L79.4431 194.584C78.2907 195.645 78.2086 197.417 79.2598 198.543L94.3869 214.74C95.4381 215.866 97.2245 215.918 98.3769 214.858L131.764 184.123C132.916 183.063 132.998 181.29 131.947 180.164L116.82 163.967C115.769 162.841 113.982 162.789 112.83 163.85Z" fill="#12DEC4"/>
<path fill-rule="evenodd" clip-rule="evenodd" d="M117.287 168.622L127.778 179.856C127.116 181.23 127.039 182.811 127.565 184.217L99.3093 210.228C97.7155 209.5 95.8241 209.56 94.2358 210.423L84.0565 199.523C85.1799 197.807 85.2868 195.623 84.3342 193.851L112.246 168.156C113.746 169.102 115.626 169.263 117.287 168.622Z" fill="#00AD97"/>
<path fill-rule="evenodd" clip-rule="evenodd" d="M100.916 183.298C104.085 180.38 108.985 180.512 111.86 183.59C114.735 186.669 114.497 191.53 111.328 194.447C108.159 197.364 103.26 197.233 100.384 194.154C97.5087 191.076 97.7467 186.215 100.916 183.298ZM107.018 183.286L106.798 183.488C106.556 183.711 106.509 183.952 106.633 184.231L109.538 190.567C109.701 190.917 109.992 190.965 110.285 190.695L110.505 190.493C110.747 190.27 110.794 190.029 110.669 189.75L107.771 183.421C107.602 183.064 107.311 183.016 107.018 183.286ZM101.823 187.175C100.627 188.276 100.366 189.803 101.347 190.853C103.012 192.636 105.499 190.11 106.249 190.913C106.457 191.136 106.423 191.493 105.994 191.888C105.483 192.359 104.874 192.446 104.595 192.525C104.189 192.632 104.014 192.823 104.065 193.205L104.144 193.799C104.204 194.29 104.491 194.352 104.791 194.327C105.327 194.278 106.366 193.928 107.19 193.169C108.518 191.947 108.495 190.444 107.603 189.49C105.924 187.691 103.504 190.289 102.731 189.461C102.523 189.239 102.549 188.889 103.002 188.471C103.39 188.115 103.788 187.999 104.18 187.876C104.514 187.775 104.782 187.618 104.657 187.156L104.505 186.6C104.414 186.255 104.203 186.079 103.808 186.132C103.349 186.199 102.507 186.545 101.823 187.175Z" fill="#12DEC4"/>
<path d="M117.458 181.267C118.322 180.472 118.387 179.146 117.603 178.306C116.819 177.467 115.482 177.431 114.618 178.226C113.754 179.022 113.689 180.348 114.473 181.187C115.257 182.027 116.594 182.063 117.458 181.267Z" fill="#12DEC4"/>
<path d="M97.1108 199.999C97.9751 199.204 98.04 197.878 97.2558 197.038C96.4716 196.199 95.1352 196.163 94.2709 196.958C93.4067 197.754 93.3418 199.08 94.126 199.919C94.9102 200.759 96.2465 200.795 97.1108 199.999Z" fill="#12DEC4"/>
<path d="M98.2161 152.045L71.5168 195.282C70.5952 196.775 71.0433 198.711 72.5176 199.607L93.7324 212.502C95.2066 213.398 97.1489 212.915 98.0705 211.422L124.77 168.185C125.691 166.693 125.243 164.756 123.769 163.86L102.554 150.966C101.08 150.069 99.1376 150.553 98.2161 152.045Z" fill="#5FF7E4"/>
<path fill-rule="evenodd" clip-rule="evenodd" d="M104.469 155.847L119.181 164.79C118.883 166.472 119.278 168.2 120.271 169.557L97.6775 206.146C95.7387 205.843 93.7175 206.479 92.2661 207.89L77.9916 199.213C78.6834 197.023 78.1377 194.636 76.5743 193.013L98.8932 156.869C100.796 157.435 102.872 157.04 104.469 155.847Z" fill="#12DEC4"/>
<ellipse cx="10.372" cy="10.4313" rx="10.372" ry="10.4313" transform="matrix(1.00285 -0.00146197 -0.00144631 0.997142 87.5283 171.01)" fill="#5FF7E4"/>
<path fill-rule="evenodd" clip-rule="evenodd" d="M104.112 185.166C104.366 184.751 104.233 184.411 103.763 184.129L103.293 183.846C103.96 182.168 103.281 180.591 101.897 179.759C99.0105 178.025 96.7314 181.933 95.6213 181.266C95.0989 180.952 95.1801 180.352 95.4412 179.924C95.7459 179.425 96.2319 179.067 96.644 178.86C97.1184 178.609 97.2475 178.281 96.9399 177.82L96.5001 177.166C96.2171 176.752 95.8297 176.568 95.3973 176.779C94.9316 176.987 94.2961 177.384 93.7332 178.102L93.1324 177.741C92.7537 177.513 92.4287 177.578 92.1748 177.994L92.1313 178.065C91.8701 178.493 92.0022 178.832 92.4724 179.114L92.9817 179.42C92.4508 180.904 92.9154 182.482 94.3781 183.361C97.186 185.049 99.6348 181.242 100.68 181.87C101.241 182.207 101.141 182.781 100.88 183.208C100.532 183.779 99.9239 184.16 99.4306 184.384C98.9576 184.603 98.8024 184.916 99.0419 185.401L99.3989 186.102C99.6195 186.56 100.013 186.764 100.464 186.58C101.024 186.364 101.815 185.946 102.503 185.141L103.103 185.502C103.482 185.73 103.807 185.665 104.068 185.238L104.112 185.166Z" fill="#00AD97"/>
<path d="M108.465 169.444C109.156 168.324 108.825 166.874 107.724 166.206C106.624 165.537 105.171 165.902 104.48 167.022C103.788 168.142 104.12 169.592 105.22 170.261C106.32 170.93 107.773 170.564 108.465 169.444Z" fill="#5FF7E4"/>
<path d="M92.2209 195.771C92.9125 194.651 92.581 193.201 91.4806 192.532C90.3802 191.864 88.9275 192.229 88.236 193.349C87.5445 194.469 87.8759 195.919 88.9763 196.587C90.0768 197.256 91.5294 196.891 92.2209 195.771Z" fill="#5FF7E4"/>
<path d="M95.3353 200.511L71.1772 207.976L81.146 239.776L105.304 232.311L95.3353 200.511Z" fill="#DCAC82"/>
<path d="M101.273 198.677L90.5776 201.982C88.3668 202.665 87.1325 204.998 87.8206 207.193C88.5086 209.388 90.8586 210.613 93.0693 209.93L103.765 206.625C105.976 205.942 107.21 203.609 106.522 201.414C105.834 199.219 103.484 197.994 101.273 198.677Z" fill="#DCAC82"/>
<path d="M103.767 206.625L93.0717 209.93C90.861 210.613 89.6266 212.946 90.3147 215.141C91.0028 217.336 93.3527 218.561 95.5634 217.878L106.259 214.573C108.47 213.89 109.704 211.557 109.016 209.362C108.328 207.167 105.978 205.942 103.767 206.625Z" fill="#DCAC82"/>
<path d="M106.262 214.573L95.5663 217.878C93.3556 218.561 92.1213 220.895 92.8093 223.089C93.4974 225.284 95.8473 226.51 98.058 225.827L108.754 222.522C110.964 221.838 112.199 219.505 111.511 217.31C110.823 215.116 108.473 213.89 106.262 214.573Z" fill="#DCAC82"/>
<path d="M108.746 222.529L98.0507 225.834C95.84 226.517 94.6056 228.85 95.2937 231.045C95.9818 233.24 98.3317 234.465 100.542 233.782L111.238 230.477C113.449 229.794 114.683 227.461 113.995 225.266C113.307 223.071 110.957 221.845 108.746 222.529Z" fill="#DCAC82"/>
</g>
<defs>
<clipPath id="clip0_814_6351">
<rect width="400" height="400" fill="white"/>
</clipPath>
<clipPath id="clip1_814_6351">
<rect width="378.499" height="274.762" fill="white" transform="matrix(0.993895 0.110326 0.111903 -0.993719 2.70996 328.515)"/>
</clipPath>
<clipPath id="clip2_814_6351">
<rect width="334.675" height="385.985" fill="white" transform="matrix(0.997127 0.0757528 -0.0768431 0.997043 46.0552 68.4141)"/>
</clipPath>
<clipPath id="clip3_814_6351">
<rect width="16.9615" height="16.84" fill="white" transform="translate(190.588 116.363)"/>
</clipPath>
<clipPath id="clip4_814_6351">
<rect width="10.4378" height="10.3631" fill="white" transform="translate(252.563 83.3308)"/>
</clipPath>
<clipPath id="clip5_814_6351">
<rect width="17.6138" height="17.4877" fill="white" transform="translate(381.079 152.635)"/>
</clipPath>
<clipPath id="clip6_814_6351">
<rect width="53.4938" height="45.9861" fill="white" transform="translate(20.3247 89.7744)"/>
</clipPath>
</defs>
</svg>
