<svg width="487" height="487" viewBox="0 0 100 100" fill="none" xmlns="http://www.w3.org/2000/svg">
<path d="M100 42.9033C100 65.6154 83.7748 88.3847 50 88.3847C22.3858 88.3847 0 69.9728 0 47.2607C0 34.6061 5.19802 19.2093 18.5644 15.3965C31.9307 11.5837 33.1979 24.2543 47.5543 24.2543C61.9108 24.2542 70.6522 16.1021 85.0543 19.6347C95.9239 22.3008 100 32.0061 100 42.9033Z" fill="#8B3D99"/>
<mask id="mask0_672_12504" style="mask-type:alpha" maskUnits="userSpaceOnUse" x="0" y="10" width="100" height="79">
<path d="M100 42.9033C100 65.6155 83.7748 88.3848 50 88.3848C22.3858 88.3848 0 69.9729 0 47.2608C0 34.6062 5.19802 19.2094 18.5644 15.3966C31.9307 11.5838 33.1979 10.3334 47.5543 10.3333C61.9108 10.3333 70.6522 16.1022 85.0543 19.6348C95.9239 22.3009 100 32.0061 100 42.9033Z" fill="#F6E1F9"/>
</mask>
<g mask="url(#mask0_672_12504)">
<path d="M66.1764 40.6118H28.9725C25.9509 40.6118 23.5013 43.0614 23.5013 46.083C23.5013 49.1046 25.9509 51.5542 28.9725 51.5542H66.1764C69.198 51.5542 71.6476 49.1046 71.6476 46.083C71.6476 43.0614 69.198 40.6118 66.1764 40.6118Z" fill="#DE4A65"/>
<path d="M53.2576 38.4246V28.1585H43.891V38.4246C43.1929 38.4662 42.5013 38.5121 41.8273 38.5668C42.7814 41.4228 45.4667 43.4252 48.5743 43.4252C51.6819 43.4252 54.3672 41.4206 55.3213 38.5668C54.6473 38.5099 53.9557 38.464 53.2576 38.4246Z" fill="#DCAC82"/>
<path d="M53.2577 29.6805C53.2577 31.9893 53.2577 34.2959 53.2577 36.6048C53.0169 36.6923 49.7386 37.8128 46.9243 35.6878C44.4994 33.8583 44.3178 31.0505 44.2981 30.6565C47.2854 30.3305 50.2704 30.0066 53.2577 29.6805Z" fill="#BE906A"/>
<path d="M38.8706 96.9232C43.1009 96.9232 46.5302 93.4939 46.5302 89.2636C46.5302 85.0333 43.1009 81.6039 38.8706 81.6039C34.6403 81.6039 31.2109 85.0333 31.2109 89.2636C31.2109 93.4939 34.6403 96.9232 38.8706 96.9232Z" fill="#002649"/>
<path d="M56.2778 96.9232C60.5081 96.9232 63.9374 93.4939 63.9374 89.2636C63.9374 85.0333 60.5081 81.6039 56.2778 81.6039C52.0475 81.6039 48.6182 85.0333 48.6182 89.2636C48.6182 93.4939 52.0475 96.9232 56.2778 96.9232Z" fill="#002649"/>
<path d="M56.2867 96.9232C60.517 96.9232 63.9463 93.4939 63.9463 89.2636C63.9463 85.0333 60.517 81.6039 56.2867 81.6039C52.0564 81.6039 48.6271 85.0333 48.6271 89.2636C48.6271 93.4939 52.0564 96.9232 56.2867 96.9232Z" fill="#002649"/>
<path d="M31.2899 78.9231V88.1693L46.4516 90.3556H48.697L63.8608 88.1693V78.9231H31.2899Z" fill="#002649"/>
<path d="M30.7408 87.0795C30.9334 78.4547 31.1435 60.6647 30.4125 52.0684C30.0098 47.3369 29.443 43.4349 28.9944 40.73C32.2749 39.9093 37.2645 39.1433 41.834 38.7385C42.3286 39.5788 43.3747 41.0889 45.2567 42.2597C46.5326 43.0519 47.7406 43.4086 48.5744 43.5815C49.4061 43.4086 50.6163 43.0519 51.8922 42.2597C53.7742 41.0889 54.8203 39.5788 55.3149 38.7385C59.8844 39.1433 62.874 39.9093 66.1545 40.73C65.7059 43.4349 65.1391 47.3369 64.7364 52.0684C64.0054 60.6647 64.2155 78.4547 64.4081 87.0795C59.7904 87.9526 54.0961 88.6573 47.5744 88.6573C41.0528 88.6573 35.3606 87.9526 30.7408 87.0795Z" fill="#DE4A65"/>
<path d="M32.0649 56.964C30.4038 56.9421 28.0031 61.0484 25.25 60.0833C22.8164 59.2298 20.9278 54.9659 19.6672 54.0489C20.3063 51.9765 21.1488 49.7114 22.2737 47.3369C22.7727 46.2821 23.287 45.2885 23.8056 44.3562C27.2656 45.5074 30.7255 46.6607 34.1855 47.8118C33.4786 51.2674 32.7718 53.5084 32.0649 56.964Z" fill="#DE4A65"/>
<path d="M63.082 58.1764C64.7431 58.1545 67.1767 57.9291 69.9298 56.964C72.3633 56.1105 74.2191 54.9659 75.4797 54.0489C74.8407 51.9765 73.9981 49.7114 72.8732 47.3369C72.3743 46.2821 71.86 45.2885 71.3413 44.3562C67.8814 45.5074 64.4214 46.6607 60.9614 47.8118C61.6683 51.2674 62.3752 54.7208 63.082 58.1764Z" fill="#DE4A65"/>
<path d="M28.9961 40.614V51.5541" stroke="#2C2044" stroke-miterlimit="10"/>
<path d="M28.9966 51.5542C32.0182 51.5542 34.4677 49.1046 34.4677 46.083C34.4677 43.0614 32.0182 40.6118 28.9966 40.6118C25.9749 40.6118 23.5254 43.0614 23.5254 46.083C23.5254 49.1046 25.9749 51.5542 28.9966 51.5542Z" fill="#DE4A65"/>
<path d="M66.1524 51.5542C69.1741 51.5542 71.6236 49.1046 71.6236 46.083C71.6236 43.0614 69.1741 40.6118 66.1524 40.6118C63.1308 40.6118 60.6813 43.0614 60.6813 46.083C60.6813 49.1046 63.1308 51.5542 66.1524 51.5542Z" fill="#DE4A65"/>
<path d="M30.5141 36.6245C30.4987 36.6202 30.4856 36.6136 30.4703 36.6092C29.3139 36.2106 28.0436 36.7603 27.5486 37.8795C27.3537 38.3175 27.1653 38.7884 26.9923 39.2922C26.2455 41.4604 26.0571 43.3987 26.0374 44.796C24.3597 46.3554 22.6821 47.9148 21.0044 49.4742C19.042 51.3972 18.4288 54.2772 19.445 56.6754C20.5642 59.3168 23.4618 60.9156 26.4601 60.4973C26.7974 60.4513 27.1215 60.333 27.4106 60.1534C28.5276 59.4591 29.2263 58.697 29.6358 58.1713C31.3463 55.9768 31.4865 53.4559 31.5741 51.8878C31.6442 50.6284 31.5347 49.575 31.4558 48.8347C31.4033 48.3244 31.3354 47.8447 31.2609 47.3979C30.8755 45.0961 31.0112 42.7307 31.6858 40.4967C31.7055 40.4289 31.7274 40.3588 31.7493 40.2887C31.8194 40.0653 31.8917 39.8463 31.9662 39.6338C32.3976 38.4008 31.7493 37.0516 30.5141 36.6245Z" fill="#BE906A"/>
<g clip-path="url(#clip0_672_12504)">
<path d="M39.9826 39.923L27.8978 41.8952C27.4806 41.9633 27.1974 42.3508 27.2652 42.7607L28.241 48.6599C28.3088 49.0699 28.7019 49.347 29.1191 49.2789L41.2039 47.3067C41.621 47.2386 41.9042 46.8511 41.8364 46.4412L40.8606 40.542C40.7928 40.132 40.3997 39.8549 39.9826 39.923Z" fill="#006B5F"/>
<path fill-rule="evenodd" clip-rule="evenodd" d="M40.2702 41.6614L40.9469 45.7528C40.593 45.9644 40.3395 46.3094 40.2475 46.7046L30.02 48.3738C29.7709 47.973 29.3375 47.7055 28.8521 47.6642L28.1955 43.6945C28.704 43.4743 29.0542 42.9977 29.1051 42.4566L39.2084 40.8078C39.4037 41.2437 39.8018 41.5592 40.2702 41.6614Z" fill="#004D43"/>
<path d="M38.4201 44.5376C38.7329 44.4866 38.9455 44.1973 38.8949 43.8915C38.8443 43.5857 38.5497 43.3792 38.2369 43.4302C37.9241 43.4813 37.7115 43.7706 37.7621 44.0764C37.8127 44.3822 38.1073 44.5887 38.4201 44.5376Z" fill="#006B5F"/>
<path d="M31.0535 45.7408C31.3663 45.6897 31.5789 45.4004 31.5283 45.0946C31.4778 44.7888 31.1832 44.5823 30.8704 44.6334C30.5575 44.6844 30.345 44.9737 30.3955 45.2795C30.4461 45.5853 30.7407 45.7918 31.0535 45.7408Z" fill="#006B5F"/>
<path fill-rule="evenodd" clip-rule="evenodd" d="M34.4038 42.5398C35.5507 42.3526 36.6308 43.1099 36.8163 44.2313C37.0018 45.3526 36.2225 46.4133 35.0756 46.6004C33.9287 46.7876 32.8485 46.0303 32.663 44.9089C32.4775 43.7876 33.2569 42.7269 34.4038 42.5398Z" fill="#006B5F"/>
<path fill-rule="evenodd" clip-rule="evenodd" d="M34.9013 45.1735C34.866 45.2559 34.8108 45.3217 34.7357 45.3708C34.6885 45.4004 34.6326 45.4247 34.5684 45.4442C34.5041 45.4636 34.428 45.4806 34.3402 45.4949L33.8317 45.5779C33.7584 45.5898 33.7033 45.5819 33.6662 45.554C33.6294 45.526 33.6049 45.4761 33.5929 45.4038L33.3853 44.1484C33.3731 44.0748 33.3804 44.0191 33.4072 43.9816C33.434 43.9441 33.4835 43.9194 33.5552 43.9077L34.0942 43.8198C34.1735 43.8068 34.2433 43.8005 34.3033 43.8008C34.3632 43.8012 34.4185 43.8118 34.4692 43.8322C34.5123 43.8493 34.5521 43.8735 34.5884 43.9046C34.6246 43.9358 34.6544 43.972 34.6774 44.0129C34.7005 44.0541 34.716 44.0988 34.724 44.1475C34.7517 44.3147 34.6887 44.4503 34.535 44.5552C34.7652 44.5893 34.897 44.7074 34.9304 44.9093C34.9464 45.0028 34.9366 45.0907 34.9013 45.1735ZM34.301 44.4661C34.3441 44.4427 34.374 44.4067 34.3909 44.3578C34.4044 44.3227 34.408 44.2856 34.4015 44.2462C34.3876 44.1619 34.3483 44.1107 34.284 44.0928C34.2198 44.0749 34.1261 44.0759 34.0037 44.0959L33.7302 44.1405L33.8017 44.5723L34.1103 44.5219C34.1942 44.5079 34.2578 44.4894 34.301 44.4661ZM36.096 45.0462C36.0644 45.1141 36.0107 45.1706 35.9344 45.2154C35.8584 45.2601 35.762 45.2921 35.6454 45.3111C35.5341 45.3293 35.4359 45.3279 35.3509 45.3066C35.2659 45.2854 35.2 45.2523 35.1539 45.2073C35.1075 45.1623 35.0802 45.1139 35.0716 45.0622C35.066 45.028 35.0731 44.9968 35.0934 44.9685C35.1136 44.9402 35.1421 44.9231 35.1792 44.9171C35.2117 44.9118 35.2381 44.9156 35.2581 44.9287C35.2782 44.9417 35.2985 44.9614 35.3192 44.9878C35.3602 45.0382 35.405 45.0733 35.4537 45.0934C35.5024 45.1136 35.5651 45.1174 35.6415 45.105C35.7036 45.0948 35.752 45.0726 35.7873 45.0384C35.8225 45.0043 35.8369 44.9694 35.831 44.9335C35.8219 44.8788 35.7946 44.8422 35.7493 44.8241C35.704 44.8056 35.6321 44.7929 35.5338 44.7856C35.4228 44.7765 35.3312 44.7627 35.2596 44.7444C35.1876 44.726 35.1278 44.6962 35.0798 44.6548C35.0318 44.6135 35.0019 44.5579 34.9904 44.4882C34.9801 44.4258 34.9889 44.3639 35.0168 44.3026C35.0447 44.241 35.0922 44.188 35.159 44.1431C35.2258 44.0982 35.3103 44.0676 35.4122 44.0509C35.4924 44.0379 35.566 44.0345 35.6326 44.0408C35.6994 44.0471 35.7563 44.0608 35.8038 44.082C35.8512 44.1032 35.8888 44.1288 35.9168 44.1594C35.9448 44.19 35.9615 44.2215 35.9669 44.2541C35.9728 44.2896 35.9656 44.3209 35.9457 44.3477C35.9258 44.3743 35.8936 44.3914 35.8497 44.3985C35.8178 44.4037 35.7893 44.3991 35.7639 44.3844C35.7385 44.3697 35.7084 44.3466 35.6737 44.3148C35.6453 44.2883 35.6137 44.2684 35.5788 44.2556C35.5439 44.2425 35.4993 44.2405 35.4448 44.2493C35.3889 44.2585 35.3443 44.2781 35.3111 44.308C35.278 44.3378 35.2644 44.3707 35.2703 44.4065C35.2757 44.4391 35.2938 44.4637 35.3245 44.4803C35.3552 44.4966 35.3946 44.5079 35.4432 44.514C35.4916 44.5202 35.5578 44.5265 35.6421 44.533C35.7419 44.5409 35.8251 44.5563 35.8916 44.5788C35.9577 44.6015 36.0105 44.6325 36.0492 44.672C36.0879 44.7112 36.1121 44.7595 36.1215 44.8164C36.1362 44.9014 36.1276 44.9784 36.096 45.0462ZM34.1921 44.7574C34.3094 44.7383 34.4008 44.7428 34.466 44.7712C34.5314 44.7996 34.571 44.8558 34.585 44.9403C34.6122 45.105 34.5119 45.206 34.2842 45.2431L33.9222 45.3022L33.8415 44.8146L34.1921 44.7574Z" fill="#004D43"/>
<path d="M36.6124 33.0362L24.7918 41.2357C24.3837 41.5187 24.2793 42.0729 24.5585 42.4735L28.5759 48.2381C28.8551 48.6387 29.4122 48.734 29.8202 48.451L41.6408 40.2514C42.0489 39.9684 42.1533 39.4142 41.8741 39.0136L37.8567 33.249C37.5775 32.8484 37.0205 32.7531 36.6124 33.0362Z" fill="#00AD97"/>
<path fill-rule="evenodd" clip-rule="evenodd" d="M37.7963 34.7352L40.5824 38.7329C40.3141 39.1363 40.2196 39.6303 40.3218 40.096L30.3183 47.0351C29.8515 46.7359 29.2566 46.6712 28.7208 46.8727L26.0175 42.9938C26.4456 42.5032 26.5761 41.8207 26.3565 41.221L36.2385 34.3662C36.6661 34.7299 37.2478 34.8634 37.7963 34.7352Z" fill="#008C7B"/>
<path d="M37.2864 38.7228C37.5925 38.5105 37.6717 38.0961 37.4634 37.7972C37.2551 37.4983 36.8381 37.4281 36.5321 37.6404C36.226 37.8527 36.1468 38.2671 36.3551 38.566C36.5634 38.8649 36.9804 38.9351 37.2864 38.7228Z" fill="#00AD97"/>
<path d="M30.0852 43.7186C30.3913 43.5063 30.4705 43.0919 30.2622 42.793C30.0539 42.4941 29.6369 42.4239 29.3309 42.6362C29.0248 42.8485 28.9456 43.2629 29.1539 43.5618C29.3622 43.8607 29.7792 43.9309 30.0852 43.7186Z" fill="#00AD97"/>
<path fill-rule="evenodd" clip-rule="evenodd" d="M32.018 38.631C33.1402 37.8526 34.6691 38.11 35.4329 39.2059C36.1967 40.3019 35.9061 41.8213 34.7839 42.5997C33.6617 43.3782 32.1328 43.1208 31.369 42.0248C30.6053 40.9289 30.8958 39.4095 32.018 38.631Z" fill="#00AD97"/>
<path fill-rule="evenodd" clip-rule="evenodd" d="M33.8775 41.1737C33.8817 41.279 33.8564 41.3767 33.8016 41.4667C33.7665 41.5219 33.7195 41.576 33.6612 41.6291C33.6028 41.6823 33.5306 41.7387 33.4447 41.7983L32.9473 42.1433C32.8755 42.1931 32.8132 42.2126 32.7597 42.2017C32.7065 42.1906 32.6552 42.15 32.606 42.0794L31.7511 40.8527C31.701 40.7808 31.6806 40.718 31.6901 40.6646C31.6995 40.6113 31.7395 40.5601 31.8096 40.5115L32.3369 40.1457C32.4145 40.0919 32.4854 40.0499 32.5492 40.0199C32.613 39.99 32.6769 39.9733 32.741 39.9693C32.7955 39.9657 32.8499 39.9712 32.9041 39.9859C32.9583 40.0007 33.0082 40.024 33.0533 40.0558C33.0986 40.0878 33.1376 40.1274 33.1708 40.175C33.2846 40.3383 33.2864 40.514 33.1763 40.703C33.4378 40.6228 33.6373 40.6815 33.7748 40.8788C33.8391 40.9698 33.8731 41.068 33.8775 41.1737ZM32.883 40.7267C32.917 40.6802 32.9305 40.6268 32.9237 40.5665C32.9203 40.5224 32.9054 40.4812 32.8786 40.4427C32.8212 40.3604 32.7536 40.3259 32.6764 40.3394C32.5992 40.3529 32.5003 40.4013 32.3806 40.4843L32.113 40.6699L32.4071 41.0918L32.709 40.8824C32.791 40.8251 32.849 40.7733 32.883 40.7267ZM35.0805 40.4348C35.0812 40.5227 35.0529 40.6098 34.9946 40.6959C34.9365 40.7817 34.8505 40.8644 34.7363 40.9436C34.6275 41.0191 34.5226 41.0673 34.4217 41.0877C34.3208 41.1081 34.2341 41.1063 34.1625 41.0819C34.0906 41.0576 34.0371 41.0201 34.0019 40.9696C33.9786 40.9361 33.9704 40.8994 33.9776 40.8591C33.9847 40.8189 34.0064 40.7864 34.0427 40.7612C34.0744 40.7392 34.1043 40.7299 34.1322 40.7336C34.1601 40.7373 34.1916 40.7479 34.2269 40.7655C34.2959 40.7981 34.3611 40.8128 34.423 40.8096C34.4848 40.8063 34.5533 40.7786 34.628 40.7268C34.6888 40.6846 34.7289 40.6366 34.749 40.5826C34.7692 40.5286 34.7668 40.4842 34.7423 40.4492C34.7051 40.3957 34.6576 40.3708 34.6004 40.3744C34.543 40.3777 34.4603 40.4005 34.3523 40.4425C34.2299 40.4889 34.1259 40.5207 34.0406 40.5374C33.955 40.5543 33.8765 40.5529 33.8047 40.5333C33.7328 40.5137 33.673 40.4699 33.6255 40.4017C33.583 40.3407 33.5611 40.2707 33.5598 40.1915C33.5582 40.1121 33.5818 40.0318 33.6299 39.9504C33.6781 39.8691 33.7522 39.7938 33.852 39.7246C33.9304 39.6702 34.0069 39.6295 34.0806 39.6025C34.1547 39.5753 34.222 39.5612 34.2831 39.5597C34.3441 39.5582 34.3969 39.5664 34.4421 39.5846C34.4872 39.6029 34.5209 39.6279 34.5431 39.6597C34.5673 39.6945 34.5755 39.7312 34.568 39.7698C34.5602 39.8081 34.5347 39.8424 34.4918 39.8722C34.4606 39.8939 34.428 39.9034 34.3936 39.9006C34.3593 39.8979 34.3156 39.8885 34.2628 39.8724C34.2192 39.8586 34.1757 39.8535 34.1321 39.8575C34.0885 39.8612 34.0402 39.8817 33.9868 39.9187C33.9321 39.9566 33.8947 40 33.8747 40.0484C33.8546 40.0968 33.8568 40.1386 33.8812 40.1736C33.9034 40.2054 33.935 40.2223 33.976 40.2244C34.0168 40.2263 34.0643 40.2183 34.119 40.2002C34.1734 40.1823 34.2469 40.1555 34.3395 40.1198C34.4494 40.0777 34.5454 40.052 34.6273 40.0423C34.709 40.0329 34.7806 40.0391 34.8416 40.0614C34.9025 40.0835 34.9526 40.1225 34.9914 40.1781C35.0499 40.2609 35.0797 40.3469 35.0805 40.4348ZM32.9155 41.0909C33.0302 41.0113 33.1295 40.9698 33.213 40.967C33.2967 40.964 33.3671 41.0037 33.4247 41.0863C33.5369 41.2473 33.4815 41.4051 33.2587 41.5596L32.9045 41.8052L32.5725 41.3288L32.9155 41.0909Z" fill="#008C7B"/>
<path d="M30.4093 27.9244L21.3172 41.9619C21.0033 42.4464 21.1359 43.0891 21.6133 43.3973L28.483 47.8327C28.9604 48.1409 29.6018 47.998 29.9157 47.5135L39.0078 33.476C39.3216 32.9914 39.189 32.3488 38.7116 32.0405L31.8419 27.6052C31.3645 27.2969 30.7231 27.4399 30.4093 27.9244Z" fill="#12DEC4"/>
<path fill-rule="evenodd" clip-rule="evenodd" d="M32.4337 29.2318L37.1978 32.3077C37.0874 32.8602 37.2042 33.4337 37.52 33.89L29.8256 45.7696C29.1912 45.6532 28.5227 45.8458 28.0354 46.2989L23.4129 43.3144C23.6566 42.5975 23.4953 41.8053 22.9941 41.2565L30.5949 29.5212C31.2157 29.7243 31.9004 29.6116 32.4337 29.2318Z" fill="#00AD97"/>
<path d="M33.6469 33.7491C33.8823 33.3857 33.7843 32.9046 33.4281 32.6746C33.0719 32.4446 32.5922 32.5528 32.3568 32.9162C32.1214 33.2797 32.2193 33.7608 32.5756 33.9908C32.9318 34.2208 33.4114 34.1126 33.6469 33.7491Z" fill="#12DEC4"/>
<path d="M28.11 42.3023C28.3454 41.9388 28.2475 41.4578 27.8912 41.2278C27.535 40.9978 27.0554 41.106 26.8199 41.4694C26.5845 41.8329 26.6825 42.314 27.0387 42.5439C27.3949 42.7739 27.8746 42.6658 28.11 42.3023Z" fill="#12DEC4"/>
<path fill-rule="evenodd" clip-rule="evenodd" d="M27.9397 35.9733C28.8033 34.6404 30.5621 34.2433 31.8682 35.0862C33.1742 35.9291 33.5328 37.6929 32.6692 39.0258C31.8056 40.3586 30.0467 40.7558 28.7407 39.9129C27.4347 39.07 27.0761 37.3062 27.9397 35.9733Z" fill="#12DEC4"/>
<path fill-rule="evenodd" clip-rule="evenodd" d="M31.0636 37.8902C31.1146 38.0018 31.1305 38.1181 31.1113 38.2391C31.0979 38.314 31.0712 38.3929 31.0319 38.4758C30.9926 38.5587 30.9398 38.6514 30.8737 38.7534L30.4909 39.3441C30.4357 39.4294 30.3771 39.4778 30.3148 39.4897C30.2526 39.5013 30.1796 39.4802 30.0955 39.4259L28.634 38.4828C28.5483 38.4275 28.4986 38.369 28.4853 38.3073C28.4719 38.2457 28.4923 38.1731 28.5463 38.0897L28.9521 37.4635C29.0119 37.3713 29.0696 37.2949 29.125 37.2345C29.1803 37.1741 29.2419 37.128 29.309 37.0954C29.366 37.0675 29.427 37.0493 29.4918 37.0413C29.5567 37.0333 29.6206 37.0364 29.6832 37.0507C29.746 37.0652 29.8055 37.0905 29.8622 37.1271C30.0568 37.2527 30.1363 37.441 30.1013 37.6929C30.3472 37.4913 30.5878 37.4664 30.8229 37.6181C30.9323 37.6878 31.0122 37.7785 31.0636 37.8902ZM29.7963 37.8479C29.8123 37.7828 29.8032 37.7194 29.7692 37.6575C29.7461 37.6116 29.7119 37.5738 29.666 37.5442C29.5679 37.4809 29.48 37.4736 29.4029 37.5222C29.3258 37.5708 29.2408 37.6664 29.1486 37.8087L28.9427 38.1264L29.4453 38.4508L29.6777 38.0922C29.7406 37.9944 29.7803 37.913 29.7963 37.8479ZM32.0317 36.5643C32.0713 36.6586 32.0793 36.7649 32.0545 36.8832C32.03 37.0013 31.9739 37.1282 31.8861 37.2637C31.8023 37.393 31.7107 37.4911 31.6112 37.5576C31.5116 37.6241 31.4176 37.6604 31.3297 37.6657C31.2416 37.6713 31.1675 37.6545 31.1073 37.6157C31.0675 37.59 31.0424 37.554 31.0324 37.5076C31.0223 37.4611 31.0313 37.4165 31.0592 37.3735C31.0836 37.3358 31.1117 37.3126 31.1433 37.3042C31.175 37.2959 31.2136 37.2934 31.2593 37.2968C31.348 37.3015 31.4246 37.2885 31.4897 37.2577C31.5548 37.227 31.6163 37.1669 31.6738 37.0782C31.7206 37.006 31.7425 36.9366 31.7403 36.8696C31.7381 36.8026 31.7159 36.7559 31.6742 36.729C31.6105 36.6879 31.5484 36.682 31.4884 36.7111C31.4281 36.74 31.3493 36.801 31.2516 36.8939C31.1405 36.9978 31.0425 37.0779 30.9581 37.1335C30.8735 37.1894 30.7884 37.2225 30.7024 37.2331C30.6165 37.2437 30.5328 37.223 30.4516 37.1705C30.379 37.1237 30.3245 37.0579 30.288 36.9733C30.2513 36.8885 30.2413 36.7918 30.2571 36.6829C30.273 36.5741 30.3196 36.4604 30.3963 36.3419C30.4567 36.2488 30.521 36.1712 30.5884 36.1097C30.6561 36.0478 30.7223 36.0028 30.7873 35.9743C30.8523 35.9457 30.9128 35.9313 30.9694 35.931C31.0261 35.9307 31.0733 35.9428 31.1112 35.9672C31.1526 35.994 31.1777 36.0299 31.1866 36.0747C31.1952 36.1193 31.1829 36.1676 31.1498 36.2186C31.1258 36.2556 31.095 36.2802 31.0568 36.2924C31.0186 36.3046 30.9675 36.3138 30.9036 36.3198C30.8506 36.3242 30.8015 36.3379 30.7564 36.3614C30.7111 36.3847 30.6681 36.4279 30.6271 36.4913C30.585 36.5562 30.5639 36.6194 30.5637 36.6804C30.5635 36.7414 30.5843 36.7853 30.626 36.8122C30.6639 36.8367 30.7054 36.841 30.7504 36.8252C30.7952 36.8091 30.8427 36.7796 30.8936 36.736C30.9442 36.6928 31.0114 36.6315 31.0953 36.5522C31.195 36.4584 31.2869 36.3884 31.3708 36.3419C31.4545 36.2957 31.5343 36.2708 31.6098 36.2679C31.6851 36.2648 31.7562 36.2846 31.8225 36.3274C31.9219 36.3907 31.992 36.47 32.0317 36.5643ZM29.9927 38.2256C30.0809 38.0894 30.1694 38.0009 30.2581 37.9611C30.3469 37.9209 30.4401 37.9326 30.5385 37.9961C30.7303 38.1198 30.7404 38.3141 30.5689 38.5786L30.2963 38.9993L29.7287 38.633L29.9927 38.2256Z" fill="#00AD97"/>
<path d="M23.957 24.831L18.4002 42.7414C18.2083 43.3597 18.5465 44.0142 19.1555 44.2035L27.9184 46.9265C28.5274 47.1158 29.1766 46.768 29.3684 46.1498L34.9252 28.2393C35.117 27.6211 34.7788 26.9665 34.1699 26.7773L25.4069 24.0542C24.7979 23.865 24.1488 24.2128 23.957 24.831Z" fill="#5FF7E4"/>
<path fill-rule="evenodd" clip-rule="evenodd" d="M26.5396 25.6337L32.6167 27.5221C32.6652 28.1525 32.9653 28.7371 33.4447 29.1351L28.7421 44.2925C28.0217 44.3578 27.3584 44.7674 26.9698 45.4039L21.0732 43.5716C21.1187 42.7235 20.7042 41.9159 19.9965 41.4739L24.642 26.5006C25.3739 26.533 26.079 26.2049 26.5396 25.6337Z" fill="#12DEC4"/>
<path d="M29.2224 30.1496C29.3662 29.6859 29.1145 29.1955 28.6602 29.0543C28.2058 28.9131 27.7209 29.1746 27.577 29.6383C27.4332 30.102 27.6849 30.5923 28.1392 30.7335C28.5936 30.8747 29.0785 30.6133 29.2224 30.1496Z" fill="#5FF7E4"/>
<path d="M25.8352 41.0628C25.979 40.5991 25.7273 40.1087 25.273 39.9675C24.8186 39.8263 24.3337 40.0878 24.1898 40.5515C24.0459 41.0152 24.2976 41.5055 24.752 41.6467C25.2064 41.7879 25.6913 41.5264 25.8352 41.0628Z" fill="#5FF7E4"/>
<path fill-rule="evenodd" clip-rule="evenodd" d="M23.7335 34.2729C24.2609 32.5725 26.0388 31.6137 27.7045 32.1315C29.3702 32.6493 30.2931 34.4476 29.7657 36.148C29.2383 37.8484 27.4604 38.8072 25.7947 38.2894C24.1289 37.7716 23.2061 35.9733 23.7335 34.2729Z" fill="#5FF7E4"/>
<path fill-rule="evenodd" clip-rule="evenodd" d="M27.6878 35.4043C27.7768 35.5096 27.8293 35.6305 27.8453 35.7671C27.8537 35.8521 27.8488 35.9454 27.8316 36.0469C27.8144 36.1483 27.7856 36.2643 27.7452 36.3945L27.5115 37.1483C27.4778 37.257 27.4294 37.327 27.3657 37.3586C27.3021 37.3898 27.2168 37.389 27.1095 37.3556L25.2454 36.776C25.1361 36.742 25.0647 36.6937 25.0315 36.6311C24.9983 36.5685 24.9983 36.4838 25.0313 36.3775L25.279 35.5784C25.3155 35.4608 25.3545 35.3608 25.396 35.2789C25.4374 35.1969 25.4898 35.1286 25.5524 35.0732C25.6054 35.0258 25.6657 34.9879 25.7333 34.9597C25.8008 34.9315 25.8708 34.9156 25.9427 34.9122C26.0149 34.909 26.0868 34.9185 26.1592 34.941C26.4074 35.0182 26.5504 35.1978 26.5892 35.4806C26.7933 35.1887 27.0455 35.0894 27.3454 35.1826C27.4846 35.225 27.5984 35.299 27.6878 35.4043ZM26.307 35.74C26.3045 35.6647 26.2755 35.599 26.22 35.5423C26.1811 35.4996 26.1326 35.469 26.0741 35.4508C25.949 35.4119 25.8519 35.4305 25.7834 35.5062C25.7149 35.582 25.6522 35.711 25.596 35.8924L25.4703 36.2978L26.1114 36.4972L26.2533 36.0397C26.2915 35.915 26.3095 35.8152 26.307 35.74ZM28.3299 33.6798C28.4013 33.7698 28.4422 33.8823 28.4515 34.0176C28.4608 34.1526 28.4389 34.3067 28.3853 34.4796C28.3342 34.6446 28.2651 34.7782 28.1778 34.88C28.0906 34.9818 28.0001 35.0494 27.9069 35.0816C27.8135 35.1141 27.7284 35.1183 27.6516 35.0944C27.6008 35.0786 27.5629 35.0473 27.5379 35.0001C27.5129 34.9529 27.509 34.902 27.5261 34.8471C27.541 34.799 27.5643 34.7655 27.5959 34.7469C27.6275 34.7284 27.6684 34.7141 27.7188 34.704C27.8159 34.6824 27.8947 34.6453 27.9556 34.5924C28.0165 34.5396 28.0647 34.4562 28.0998 34.343C28.1283 34.2509 28.1309 34.1692 28.1082 34.0975C28.0855 34.0257 28.0473 33.9819 27.9941 33.9654C27.9129 33.9401 27.844 33.9524 27.7881 34.0019C27.7318 34.0513 27.6653 34.141 27.588 34.2708C27.4996 34.4165 27.4182 34.5326 27.344 34.6181C27.2697 34.704 27.1879 34.7654 27.0983 34.8027C27.0088 34.84 26.9122 34.8428 26.8086 34.8105C26.7159 34.7817 26.6371 34.7271 26.5721 34.6466C26.5066 34.566 26.4664 34.4644 26.4505 34.342C26.4345 34.2196 26.4502 34.0827 26.4971 33.9315C26.5339 33.8127 26.5797 33.7095 26.6339 33.6226C26.6881 33.5354 26.7458 33.4669 26.8074 33.4165C26.8689 33.366 26.9297 33.3322 26.9908 33.3148C27.0519 33.2975 27.1066 33.2963 27.1549 33.3114C27.2077 33.3278 27.2457 33.3591 27.2689 33.4049C27.2917 33.4505 27.2931 33.5063 27.273 33.5714C27.2583 33.6187 27.2325 33.6546 27.195 33.6792C27.1575 33.7039 27.1051 33.7293 27.0379 33.7549C26.982 33.7756 26.9332 33.8052 26.8917 33.8442C26.8498 33.883 26.8166 33.9427 26.7915 34.0235C26.7659 34.1064 26.7623 34.1811 26.7806 34.247C26.7989 34.313 26.8347 34.3542 26.8879 34.3708C26.9363 34.3858 26.9823 34.378 27.0262 34.3473C27.0696 34.3165 27.112 34.2703 27.1536 34.2079C27.1951 34.1459 27.2491 34.0594 27.3155 33.9485C27.3946 33.8171 27.4725 33.7137 27.549 33.6382C27.6253 33.5631 27.7039 33.5122 27.7845 33.4863C27.8647 33.4603 27.9476 33.4603 28.0321 33.4866C28.1587 33.5251 28.2585 33.5898 28.3299 33.6798ZM26.6327 36.0889C26.6866 35.9151 26.7552 35.7928 26.8388 35.7231C26.9225 35.6529 27.0266 35.6374 27.1522 35.6765C27.3968 35.7525 27.4667 35.9595 27.362 36.297L27.1956 36.8338L26.4715 36.6086L26.6327 36.0889Z" fill="#12DEC4"/>
</g>
<path d="M29.0271 53.3269C28.9417 53.7015 28.8563 54.0738 28.7708 54.4483C28.3481 56.3034 27.9254 58.1606 27.5006 60.0157C26.1448 63.4345 23.21 65.7824 19.9752 65.9751C19.7824 65.9861 18.7662 66.0342 17.5178 65.7211C16.5103 65.4692 15.3496 64.9808 14.3443 64.0522C13.6982 63.4542 13.1068 62.173 11.9263 59.6083C10.6801 56.9057 10.4173 55.6989 10.5203 54.4286C10.5816 53.6598 10.7656 53.0422 10.9057 52.6436L29.0249 53.3269H29.0271Z" fill="#DCAC82"/>
<path d="M29.4359 44.9722C29.284 44.468 29.132 43.9614 28.9823 43.4548C28.7682 42.7365 28.5587 42.0204 28.3538 41.3089C27.7666 40.2843 26.8709 38.981 25.5424 37.7008C25.0036 37.1828 24.4694 36.7407 23.9628 36.3654C23.1086 35.7322 22.0287 35.4697 20.9857 35.6631C20.9511 35.67 20.9166 35.6769 20.882 35.6838C20.8728 35.6838 20.8659 35.6861 20.8567 35.6884C19.8874 35.8956 19.0723 36.5542 18.6509 37.4522C18.3308 38.136 17.9164 39.0501 17.624 39.8099C17.2717 40.731 16.8457 42.0848 16.6132 43.8601C18.6118 44.3137 20.6103 44.7673 22.6089 45.2232L23.3227 42.1401C23.7901 42.6098 24.2599 43.0772 24.7273 43.5469C24.8424 44.194 25.0266 44.9469 25.319 45.7666C25.3904 45.9669 25.4664 46.1603 25.5424 46.3468C25.943 47.3277 27.0275 47.8412 28.0406 47.5303L28.0774 47.5188C29.155 47.1872 29.7629 46.0498 29.4382 44.9699L29.4359 44.9722Z" fill="#DCAC82"/>
<path d="M28.7712 54.448C28.677 54.8576 28.585 55.2672 28.4908 55.6767C28.1601 57.1244 27.8316 58.5699 27.5009 60.0176C26.7146 61.9997 25.3983 63.6248 23.7973 64.6739C22.6387 65.4339 21.3334 65.896 19.9755 65.977C19.7827 65.988 18.7665 66.0362 17.5181 65.723C16.8786 65.1973 16.4625 64.6104 16.1996 64.1526C16.6421 64.2775 17.2203 64.3979 17.9014 64.4286C18.4927 64.4549 19.0096 64.4067 19.4236 64.341C18.1686 63.592 15.4878 61.7457 13.9044 58.2918C13.2123 56.7828 12.9188 55.3789 12.7939 54.2947C18.1204 54.3473 23.4447 54.3999 28.7712 54.4502V54.448Z" fill="#BE906A"/>
<path d="M28.4905 55.6771C28.1598 57.1248 27.8312 58.5703 27.5005 60.018C26.7143 62.0001 25.398 63.6252 23.797 64.6742C24.0992 64.2734 24.4474 63.7368 24.7541 63.0667C25.0432 62.4315 25.214 61.8489 25.3169 61.3759C24.9796 61.6146 23.8649 62.3351 22.3493 62.2081C21.4732 62.1337 20.8162 61.8051 20.4504 61.5839L20.2117 55.6793H28.4905V55.6771Z" fill="#BE906A"/>
<path d="M23.3203 42.1403C23.0394 41.9124 22.7355 41.6315 22.4293 41.2953C22.222 41.0673 22.0401 40.8417 21.8859 40.6299C21.4668 40.9614 20.9188 41.4703 20.4168 42.2002C19.8113 43.082 19.5212 43.9248 19.3761 44.4912C20.4514 44.7353 21.529 44.977 22.6042 45.2211L23.318 42.138L23.3203 42.1403Z" fill="#9F7554"/>
<path d="M18.026 60.9266C15.6036 60.0133 14.0114 58.5897 12.4651 57.1836C12.3075 57.0391 12.1563 56.8989 12.0096 56.7609C10.8992 55.7053 10.4765 54.1152 10.9079 52.6456C11.4423 50.8168 12.3951 48.5412 14.1275 46.3007C15.3562 44.7107 16.6681 43.5389 17.7982 42.6957C18.3085 42.3146 18.9546 42.1591 19.5832 42.2708C20.8535 42.4964 22.2771 42.8359 23.8014 43.344C24.4366 43.5564 25.0388 43.782 25.6061 44.0142C27.0144 44.588 28.1708 45.6502 28.8519 47.0103C28.9702 47.2447 29.0863 47.4878 29.2001 47.7353C29.9317 49.3144 30.4244 50.8059 30.7617 52.1243C30.9107 52.7047 30.8099 53.3224 30.4814 53.8217C30.3587 54.0079 30.2164 54.2006 30.0499 54.3933C29.6294 54.8839 29.1936 55.2168 28.8629 55.4337C28.7753 55.8564 28.5475 56.6602 27.9058 57.453C27.3473 58.1429 26.7187 58.5196 26.3464 58.708C26.2369 59.1044 25.9981 59.7789 25.4484 60.4513C25.2491 60.6944 25.0454 60.8959 24.8461 61.0646C24.419 61.4281 23.8846 61.6428 23.3261 61.6888C22.6362 61.7457 21.7996 61.7567 20.86 61.6384C20.4986 61.5924 19.3926 61.4391 18.026 60.9222V60.9266Z" fill="#DCAC82"/>
<path d="M28.8652 55.6523C28.7951 55.6523 28.725 55.6173 28.6834 55.556C27.8818 54.3579 27.0145 53.2059 26.1078 52.1305C25.177 51.0267 24.7345 50.5142 23.9702 49.9207C23.3044 49.406 22.6648 49.0621 21.2807 48.3372C20.3936 47.8729 19.4847 47.4239 18.5846 47.0078C18.4751 46.9574 18.4269 46.826 18.4773 46.7165C18.5276 46.607 18.6568 46.5588 18.7685 46.6092C19.6775 47.0297 20.5908 47.4786 21.4843 47.9495C22.7941 48.6351 23.5146 49.0139 24.2374 49.5746C25.0718 50.2207 25.558 50.7989 26.4429 51.848C27.3605 52.9365 28.2366 54.1017 29.0492 55.3128C29.117 55.4136 29.0886 55.5494 28.99 55.6173C28.9528 55.6414 28.9112 55.6545 28.8674 55.6545L28.8652 55.6523Z" fill="#9F7554"/>
<path d="M26.3484 58.927C26.3308 58.927 26.3155 58.927 26.298 58.9204C25.446 58.7233 24.5918 58.4758 23.7618 58.1845C22.9865 57.913 21.541 57.407 19.8589 56.4083C19.2019 56.0185 18.5886 55.5717 17.3621 54.6825C16.5978 54.1262 15.8378 53.5545 15.1019 52.9807C15.0055 52.9063 14.9902 52.7683 15.0647 52.6741C15.1391 52.5777 15.2771 52.5624 15.3713 52.6369C16.1028 53.2085 16.8584 53.7779 17.6184 54.3299C18.8317 55.2125 19.4406 55.6549 20.0801 56.0338C21.7227 57.0106 23.142 57.5078 23.9041 57.7728C24.7189 58.0575 25.5577 58.3028 26.3943 58.4955C26.5126 58.5218 26.5849 58.6401 26.5586 58.7584C26.5345 58.8591 26.4447 58.927 26.3462 58.927H26.3484Z" fill="#9F7554"/>
<path d="M48.9676 13.058H47.8734C44.2474 13.058 41.308 15.9974 41.308 19.6234V28.3773C41.308 32.0032 44.2474 34.9426 47.8734 34.9426H48.9676C52.5936 34.9426 55.533 32.0032 55.533 28.3773V19.6234C55.533 15.9974 52.5936 13.058 48.9676 13.058Z" fill="#DCAC82"/>
<path d="M56.8462 28.1584H55.5331V23.3437H56.8462C57.8135 23.3437 58.5969 24.1272 58.5969 25.0945V26.4076C58.5969 27.3749 57.8135 28.1584 56.8462 28.1584Z" fill="#DCAC82"/>
<path fill-rule="evenodd" clip-rule="evenodd" d="M57.2657 24.9249C57.2999 24.9749 57.2846 25.0415 57.2316 25.0736L56.2958 25.6416L57.2316 26.2095C57.2846 26.2417 57.2999 26.3083 57.2657 26.3582C57.2316 26.4081 57.1609 26.4226 57.1079 26.3904L56.0232 25.732C55.9905 25.7122 55.9708 25.6781 55.9708 25.6416C55.9708 25.605 55.9905 25.5709 56.0232 25.5511L57.1079 24.8928C57.1609 24.8606 57.2316 24.875 57.2657 24.9249Z" fill="#9F7554"/>
<path d="M39.995 23.3436H41.3081V28.1582H39.995C39.0277 28.1582 38.2443 27.3748 38.2443 26.4075V25.0944C38.2443 24.1271 39.0277 23.3436 39.995 23.3436Z" fill="#DCAC82"/>
<path fill-rule="evenodd" clip-rule="evenodd" d="M39.5752 24.9249C39.6094 24.875 39.68 24.8606 39.733 24.8928L40.8177 25.5511C40.8504 25.5709 40.8701 25.605 40.8701 25.6416C40.8701 25.6781 40.8504 25.7122 40.8177 25.732L39.733 26.3904C39.68 26.4226 39.6094 26.4081 39.5752 26.3582C39.5411 26.3083 39.5564 26.2417 39.6094 26.2095L40.5451 25.6416L39.6094 25.0736C39.5564 25.0415 39.5411 24.9749 39.5752 24.9249Z" fill="#9F7554"/>
<path d="M56.0735 15.465C54.9708 13.5865 52.9366 12.9735 51.5396 12.5539C50.3424 12.1935 47.2583 11.2664 44.6706 12.8966C44.0358 13.2965 43.5942 13.7491 43.3196 14.0677C41.4547 14.0677 39.5721 15.6474 39.794 18.4267C40.0796 21.9991 40.2882 23.3394 40.2904 23.3438H41.4217C41.5535 22.2848 41.6721 21.3686 41.8896 20.5315C42.7837 19.679 43.4295 18.6749 43.8468 17.583C44.3784 17.8884 44.9715 18.1718 45.6174 18.4706C48.9365 20.0108 50.617 19.2682 47.6515 17.8664C49.9316 18.91 52.1019 19.3473 54.3755 19.4483C54.8499 20.5754 55.0147 21.808 55.2036 23.335V23.3438H56.3349V23.3328C56.3503 23.1746 56.5546 21.8651 56.8291 18.4267C56.9236 17.2381 56.6183 16.3944 56.0713 15.465H56.0735Z" fill="#2C2044"/>
<path d="M45.0833 25.5782C45.3746 25.5782 45.6107 25.2646 45.6107 24.8779C45.6107 24.4911 45.3746 24.1776 45.0833 24.1776C44.792 24.1776 44.5559 24.4911 44.5559 24.8779C44.5559 25.2646 44.792 25.5782 45.0833 25.5782Z" fill="#2C2044"/>
<path d="M51.7929 25.5782C52.0842 25.5782 52.3203 25.2646 52.3203 24.8779C52.3203 24.4911 52.0842 24.1776 51.7929 24.1776C51.5016 24.1776 51.2655 24.4911 51.2655 24.8779C51.2655 25.2646 51.5016 25.5782 51.7929 25.5782Z" fill="#2C2044"/>
<path d="M45.9762 23.0221C45.9587 23.0221 45.939 23.0177 45.9215 23.0068C45.6961 22.8776 45.3306 22.7179 44.8601 22.7047C44.3305 22.6872 43.9125 22.8601 43.6586 23.0068C43.6061 23.0374 43.5383 23.0199 43.5098 22.9674C43.4792 22.9148 43.4967 22.8492 43.5492 22.8185C43.8293 22.6566 44.2889 22.4706 44.8667 22.4859C45.381 22.5012 45.7836 22.6763 46.0309 22.8185C46.0835 22.8492 46.101 22.9148 46.0703 22.9674C46.0506 23.0024 46.0134 23.0221 45.9762 23.0221Z" fill="#2C2044"/>
<path d="M50.9001 23.0221C50.8629 23.0221 50.8257 23.0024 50.806 22.9674C50.7753 22.9148 50.7928 22.8492 50.8454 22.8185C51.0905 22.6763 51.4931 22.5034 52.0096 22.4859C52.5896 22.4706 53.0491 22.6566 53.3271 22.8185C53.3796 22.8492 53.3971 22.9148 53.3665 22.9674C53.3358 23.0199 53.2702 23.0374 53.2177 23.0068C52.9638 22.8601 52.548 22.6894 52.0162 22.7047C51.5457 22.7201 51.1802 22.8776 50.957 23.0068C50.9395 23.0177 50.9198 23.0221 50.9023 23.0221H50.9001Z" fill="#2C2044"/>
<path d="M43.6036 26.9591C44.0254 26.9591 44.3674 26.769 44.3674 26.5345C44.3674 26.3001 44.0254 26.11 43.6036 26.11C43.1818 26.11 42.8398 26.3001 42.8398 26.5345C42.8398 26.769 43.1818 26.9591 43.6036 26.9591Z" fill="#BE906A"/>
<path d="M53.2726 26.9591C53.6944 26.9591 54.0363 26.769 54.0363 26.5345C54.0363 26.3001 53.6944 26.11 53.2726 26.11C52.8507 26.11 52.5088 26.3001 52.5088 26.5345C52.5088 26.769 52.8507 26.9591 53.2726 26.9591Z" fill="#BE906A"/>
<path d="M48.4378 30.7167C47.4574 30.7167 46.7636 30.3271 46.3544 30.001C46.3062 29.9638 46.2997 29.8938 46.3369 29.8479C46.3741 29.7997 46.4441 29.7931 46.4901 29.8303C46.8709 30.1345 47.5186 30.4978 48.4378 30.4978C49.357 30.4978 50.0025 30.1345 50.3855 29.8303C50.4337 29.7931 50.5015 29.7997 50.5387 29.8479C50.5759 29.896 50.5694 29.9638 50.5212 30.001C50.112 30.3271 49.4182 30.7167 48.4378 30.7167Z" fill="#2C2044"/>
</g>
<path d="M66.6667 79.0083C70.9323 79.0083 74.3903 75.5503 74.3903 71.2847C74.3903 67.0191 70.9323 63.5612 66.6667 63.5612C62.4011 63.5612 58.9431 67.0191 58.9431 71.2847C58.9431 75.5503 62.4011 79.0083 66.6667 79.0083Z" fill="#DCAC82"/>
<path d="M64.7462 60.3554L60.3396 65.8924L72.9473 78.5H82.0488V60.3554H64.7462Z" fill="#DCAC82"/>
<path d="M58.9471 71.2832C58.9244 70.0162 58.985 68.0762 59.4675 65.7866C60.1043 62.7668 61.0029 61.4364 61.7108 59.0323C62.1556 57.5224 62.5806 55.4061 62.5307 52.6648C62.5095 51.5138 63.399 50.5608 64.5244 50.5531C65.5652 50.5454 66.4471 51.3514 66.5378 52.4126C66.7088 54.4145 66.6937 56.4705 66.4637 58.5589C67.1187 59.2164 68.4756 60.7696 68.9461 63.1598C69.8068 67.544 66.9236 70.8872 66.5696 71.2847H58.9471V71.2832Z" fill="#DCAC82"/>
<path d="M61.3821 76.8176C62.4233 77.0664 65.284 77.6144 66.807 76.056C67.3284 75.5233 67.5549 74.8852 67.6537 70.1123C67.7601 64.9272 67.5275 63.99 67.2129 63.1718C66.4985 61.3173 65.3584 60.0595 64.5939 59.3437C64.9967 59.0002 65.55 58.3454 66.1519 57.5899C66.1519 57.5899 66.7766 56.6221 66.8192 55.8483V55.8376C66.8192 55.8376 66.8192 55.8376 66.8192 55.8391C66.804 56.4252 66.7736 57.0327 66.728 57.6601C66.7006 58.0371 66.6687 58.405 66.6322 58.7652C67.5366 59.3345 74.1791 63.6511 74.3782 70.2695C74.4117 71.3898 74.4846 73.7664 72.8628 75.9293C70.9931 78.4234 68.2313 78.8752 67.8482 78.9317C64.2351 79.4567 61.7013 77.1229 61.3821 76.8192V76.8176Z" fill="#BE906A"/>
<g clip-path="url(#clip1_672_12504)">
<path d="M86.5 85.2253V45.6815C86.5 44.7934 85.8041 44.0735 84.9456 44.0735H68.0544C67.1959 44.0735 66.5 44.7934 66.5 45.6815V85.2253C66.5 86.1134 67.1959 86.8333 68.0544 86.8333H84.9456C85.8041 86.8333 86.5 86.1134 86.5 85.2253Z" fill="#403556"/>
<path d="M86.5 83.9852V44.4414C86.5 43.5533 85.8041 42.8334 84.9456 42.8334H68.0544C67.1959 42.8334 66.5 43.5533 66.5 44.4414V83.9852C66.5 84.8733 67.1959 85.5932 68.0544 85.5932H84.9456C85.8041 85.5932 86.5 84.8733 86.5 83.9852Z" fill="#2C2044"/>
<path d="M85.5291 82.2159V46.2107C85.5291 45.77 85.1838 45.4128 84.7578 45.4128H68.2383C67.8124 45.4128 67.4671 45.77 67.4671 46.2107V82.2159C67.4671 82.6565 67.8124 83.0137 68.2383 83.0137H84.7578C85.1838 83.0137 85.5291 82.6565 85.5291 82.2159Z" fill="#742384"/>
<path d="M74.4841 44.5902H78.5121C78.746 44.5902 78.9357 44.394 78.9357 44.152V44.0983C78.9357 43.8563 78.746 43.6601 78.5121 43.6601H74.4841C74.2502 43.6601 74.0605 43.8563 74.0605 44.0983V44.152C74.0605 44.394 74.2502 44.5902 74.4841 44.5902Z" fill="#544A69"/>
<path d="M81.363 67.4175C80.1719 67.4402 78.8201 67.5741 77.5708 67.7374C77.7106 67.2143 77.8498 66.698 77.8498 66.698C77.8498 66.698 77.9928 67.0183 78.3961 66.9858C78.9689 66.9396 79.666 66.359 80.0035 65.2953C80.3621 64.1653 80.33 62.882 79.5982 62.7742C79.0068 62.6872 78.7246 63.2313 78.6838 63.3398C78.6838 63.3398 78.8095 62.8455 78.4337 62.9318C78.0738 63.0145 78.0079 63.1815 77.9189 63.48C77.9031 63.5325 77.6 64.7067 77.2825 65.9441C77.2777 65.9521 77.2738 65.9615 77.2709 65.9719C77.1925 66.2516 77.0373 66.3453 76.9251 66.3527C76.5622 66.3771 77.3423 63.8845 77.4014 63.6955C77.4795 63.4462 77.5261 63.2571 77.2616 63.153C77.0832 63.0828 76.8386 63.1082 76.767 63.3076C76.7367 63.3913 76.7149 63.4529 76.7149 63.4529C76.7149 63.4529 76.5111 63.1376 76.0605 63.1805C75.6096 63.2233 75.0404 63.7945 74.6637 64.7967C74.287 65.7989 74.1234 67.2364 75.0169 67.3796C75.4704 67.4523 75.851 67.1822 76.0502 66.7375C76.0502 66.7375 76.0155 67.0353 76.3141 67.1812C76.4314 67.2388 76.7232 67.2163 76.998 67.0547C76.9257 67.3371 76.8576 67.6048 76.7968 67.8434C74.8678 68.1212 73.3495 68.4314 73.3495 68.4314C73.3498 68.43 74.4069 64.7084 74.6451 63.8892C74.8443 63.2036 74.4686 63.3528 74.1909 63.4368C73.8949 63.5261 73.7548 63.7858 73.6066 64.2573C72.959 66.3166 72.4493 66.9577 72.0796 66.8195C71.7406 66.6927 72.807 64.5059 72.5511 64.2171C72.3294 63.9668 71.8723 63.9802 71.7852 64.1278C71.6981 64.2754 71.8277 64.4102 71.7721 64.619C71.7165 64.8278 71.2893 65.9582 71.2443 66.2115C71.1993 66.4645 70.8287 67.8675 71.8093 67.807C72.3888 67.7712 72.7858 67.3147 72.8279 67.1879C72.6469 67.733 72.3882 68.6127 72.3882 68.6127C72.3882 68.6127 71.2019 68.9216 70.2563 69.9519C69.5055 70.7697 68.9746 72.5315 70.096 72.8122C71.8389 73.2486 72.663 70.4786 73.0856 69.4369C74.4988 69.1093 75.5765 68.8918 76.5732 68.7298C76.5584 68.7904 76.5484 68.8316 76.5449 68.8486C76.4542 69.2823 76.4745 69.456 76.7997 69.4141C77.1504 69.369 77.1944 69.1816 77.3092 68.7282C77.3169 68.6971 77.3268 68.6586 77.3384 68.6141C78.5196 68.4481 79.6792 68.344 81.2749 68.2055C81.7709 68.1623 81.7654 68.076 81.8139 67.7678C81.8686 67.4181 81.4806 67.4155 81.363 67.4175ZM78.3206 65.0273C78.5591 64.2158 78.7783 63.8909 78.9843 63.7992C79.4757 63.58 79.5689 64.2222 79.1897 65.1969C78.7506 66.3249 78.238 66.2992 78.0416 66.0766C78.0413 66.0766 78.0686 65.8839 78.3206 65.0273ZM76.1261 65.5168C75.9152 66.0465 75.7179 66.4193 75.4463 66.4213C75.0571 66.4243 75.0671 65.815 75.3441 65.0483C75.5771 64.4039 76.002 63.998 76.2315 63.9518C76.4607 63.9059 76.7274 64.006 76.1261 65.5168ZM70.9763 71.6802C70.0497 72.5412 70.2833 71.362 70.6279 70.8527C71.2819 69.8856 72.0896 69.641 72.0896 69.641C71.6792 70.8908 71.1662 71.5035 70.9763 71.6802Z" fill="white"/>
<path d="M82.5952 64.2995C82.9453 63.8775 83.105 62.9784 82.5178 62.6474C81.8075 62.2472 80.8799 62.8582 80.4971 64.175C80.1568 65.3458 80.0295 66.7857 81.1843 66.7325C81.7532 66.7064 82.244 66.2801 82.4217 65.9635C82.5078 65.8099 82.5422 65.568 82.5271 65.4606C82.485 65.1591 82.3079 65.1153 82.0074 65.5111C81.9332 65.5985 81.3405 66.1472 81.0506 65.8213C80.841 65.5857 81.0172 65.1233 81.0255 65.123C81.4048 65.0942 82.0685 64.9346 82.5952 64.2995ZM81.7455 63.2772C82.0643 62.967 82.3693 63.3381 82.0007 63.8721C81.6285 64.4109 81.1927 64.3972 81.1891 64.4142C81.2338 64.2034 81.3977 63.6158 81.7455 63.2772Z" fill="white"/>
<path d="M76.3118 59.6499C76.2423 59.6034 76.1382 59.5803 76 59.5803H75.5867V60.1766H76.0135C76.2819 60.1766 76.4162 60.0758 76.4162 59.8744C76.4162 59.771 76.3815 59.6964 76.3118 59.6499Z" fill="#10CBB4"/>
<path d="M76.5326 56.8745C75.2837 56.9344 74.2639 57.9788 74.1874 59.2781C74.1356 60.1578 74.5097 60.9485 75.1149 61.4498C75.1773 61.5013 75.2136 61.5793 75.2136 61.6623V62.2288C75.2136 62.2723 75.2371 62.3125 75.274 62.3325L75.2891 62.3409C75.3248 62.3603 75.3676 62.357 75.4 62.3325L75.867 61.9822C75.9281 61.9363 76.0052 61.9203 76.0785 61.9383C76.2617 61.9839 76.4526 62.0079 76.649 62.0079C78.0114 62.0079 79.1157 60.8582 79.1157 59.4397C79.1157 57.9814 77.9481 56.8066 76.5326 56.8745ZM76.7348 60.2134C76.6786 60.3047 76.6027 60.3723 76.5073 60.4161C76.4475 60.4422 76.3787 60.4603 76.3012 60.471C76.2238 60.4817 76.1331 60.4871 76.0296 60.4871H75.4302C75.3438 60.4871 75.2821 60.467 75.2448 60.4265C75.2078 60.386 75.1892 60.3218 75.1892 60.2334V58.6982C75.1892 58.6082 75.2081 58.5433 75.2461 58.5038C75.284 58.4643 75.3454 58.4446 75.4299 58.4446H76.0653C76.1589 58.4446 76.2402 58.4506 76.3089 58.4626C76.3777 58.4747 76.4391 58.4981 76.4934 58.5322C76.5397 58.561 76.5809 58.5975 76.6165 58.6416C76.6522 58.6858 76.6795 58.7347 76.6982 58.7879C76.7168 58.8414 76.7261 58.8976 76.7261 58.9572C76.7261 59.1617 76.6281 59.3109 76.4317 59.4059C76.6895 59.4913 76.8184 59.6576 76.8184 59.9045C76.819 60.019 76.791 60.1217 76.7348 60.2134ZM78.1303 60.294C78.0812 60.3686 78.0088 60.4255 77.9127 60.464C77.817 60.5025 77.7003 60.5219 77.5627 60.5219C77.4316 60.5219 77.3191 60.5011 77.2256 60.4593C77.1321 60.4175 77.0626 60.3653 77.0183 60.3027C76.9736 60.2401 76.9514 60.1772 76.9514 60.114C76.9514 60.0722 76.9656 60.0364 76.9942 60.0066C77.0228 59.9768 77.0588 59.9621 77.1025 59.9621C77.1407 59.9621 77.1703 59.9718 77.1909 59.9912C77.2114 60.0106 77.231 60.038 77.2497 60.0735C77.2873 60.1414 77.332 60.192 77.384 60.2254C77.4361 60.2589 77.5075 60.2756 77.5974 60.2756C77.6707 60.2756 77.7305 60.2585 77.7774 60.2247C77.8244 60.1909 77.8475 60.1521 77.8475 60.1083C77.8475 60.0414 77.8231 59.9925 77.7745 59.9621C77.726 59.9313 77.646 59.9022 77.5344 59.8744C77.4088 59.8419 77.3063 59.8078 77.2275 59.772C77.1484 59.7362 77.0855 59.689 77.0382 59.6305C76.991 59.5719 76.9672 59.5 76.9672 59.4146C76.9672 59.3383 76.989 59.2664 77.0327 59.1988C77.0765 59.1309 77.1411 59.077 77.2262 59.0365C77.3114 58.996 77.4142 58.9759 77.5344 58.9759C77.6289 58.9759 77.7141 58.9863 77.7893 59.0067C77.8648 59.0271 77.9275 59.0546 77.978 59.089C78.0284 59.1235 78.0667 59.1613 78.093 59.2031C78.1194 59.245 78.1326 59.2858 78.1326 59.3256C78.1326 59.3691 78.1184 59.4049 78.0905 59.433C78.0625 59.4608 78.0223 59.4749 77.9706 59.4749C77.933 59.4749 77.9012 59.4638 77.8748 59.4414C77.8485 59.419 77.8182 59.3855 77.7845 59.341C77.7569 59.3039 77.7244 59.2741 77.6868 59.252C77.6492 59.2296 77.5984 59.2185 77.5341 59.2185C77.4682 59.2185 77.4133 59.2333 77.3696 59.2624C77.3259 59.2915 77.304 59.328 77.304 59.3718C77.304 59.4116 77.3201 59.4444 77.3522 59.4702C77.3844 59.4956 77.4274 59.5167 77.4821 59.5334C77.5364 59.5501 77.6113 59.5706 77.7067 59.5947C77.8199 59.6234 77.9124 59.6579 77.9844 59.6977C78.0561 59.7375 78.1107 59.7847 78.1477 59.8393C78.1846 59.8935 78.2033 59.9557 78.2033 60.0253C78.2039 60.1294 78.1795 60.2194 78.1303 60.294Z" fill="#10CBB4"/>
<path d="M76.18 59.2544C76.234 59.2349 76.2751 59.1978 76.3037 59.1429C76.3259 59.1038 76.3371 59.0603 76.3371 59.0121C76.3371 58.909 76.3018 58.8404 76.2314 58.8066C76.161 58.7728 76.0533 58.7558 75.909 58.7558H75.5867V59.2838H75.9505C76.0495 59.2835 76.126 59.2738 76.18 59.2544Z" fill="#10CBB4"/>
</g>
<path d="M88.4316 58.7022C89.5792 58.2928 90.1777 57.0307 89.7684 55.883C89.359 54.7354 88.0969 54.1369 86.9493 54.5462L84.8945 55.2791C83.7468 55.6884 83.1483 56.9506 83.5577 58.0982C83.967 59.2459 85.2292 59.8444 86.3768 59.435L88.4316 58.7022Z" fill="#DCAC82"/>
<path d="M88.6073 64.9952C89.8056 64.7746 90.5982 63.6244 90.3777 62.4261C90.1571 61.2277 89.0068 60.4351 87.8085 60.6557L85.2433 61.1279C84.045 61.3485 83.2524 62.4987 83.4729 63.697C83.6935 64.8954 84.8438 65.688 86.0421 65.4674L88.6073 64.9952Z" fill="#DCAC82"/>
<path d="M88.7619 71.0489C89.9751 70.9366 90.8676 69.862 90.7553 68.6487C90.6429 67.4355 89.5683 66.543 88.3551 66.6553L85.8379 66.8884C84.6247 67.0007 83.7322 68.0753 83.8445 69.2886C83.9569 70.5019 85.0315 71.3943 86.2447 71.282L88.7619 71.0489Z" fill="#DCAC82"/>
<path d="M88.0156 77.0707C89.2288 76.9584 90.1213 75.8837 90.0089 74.6705C89.8966 73.4572 88.822 72.5648 87.6087 72.6771L85.4267 72.8791C84.2134 72.9915 83.3209 74.0661 83.4333 75.2793C83.5456 76.4926 84.6202 77.3851 85.8335 77.2727L88.0156 77.0707Z" fill="#DCAC82"/>
<g clip-path="url(#clip2_672_12504)">
<path fill-rule="evenodd" clip-rule="evenodd" d="M13.0352 15.4977C13.2122 15.9129 13.5434 16.2435 13.9581 16.4205C14.4871 16.6461 15.2431 16.9691 15.8461 17.2263C16.2146 17.3837 16.214 17.9052 15.8461 18.0626L13.9581 18.8684C13.5428 19.0454 13.2122 19.376 13.0352 19.7912C12.8096 20.3203 12.4866 21.0762 12.2293 21.6792C12.072 22.0477 11.5505 22.0477 11.3931 21.6792C11.1359 21.0762 10.8129 20.3203 10.5872 19.7912C10.4102 19.376 10.079 19.0454 9.66439 18.8684C9.13534 18.6428 8.37938 18.3198 7.77638 18.0626C7.40787 17.9052 7.40787 17.3837 7.77638 17.2263C8.37938 16.9691 9.13534 16.6461 9.66439 16.4205C10.0797 16.2435 10.4102 15.9123 10.5872 15.4977C10.8129 14.9686 11.1359 14.2127 11.3931 13.6097C11.5505 13.2412 12.072 13.2412 12.2293 13.6097C12.4866 14.2127 12.8096 14.9686 13.0352 15.4977Z" fill="#12DEC4"/>
</g>
<g clip-path="url(#clip3_672_12504)">
<path fill-rule="evenodd" clip-rule="evenodd" d="M82.0352 16.9977C82.2122 17.4129 82.5434 17.7435 82.9581 17.9205C83.4871 18.1461 84.2431 18.4691 84.8461 18.7263C85.2146 18.8837 85.214 19.4052 84.8461 19.5626L82.9581 20.3684C82.5428 20.5454 82.2122 20.876 82.0352 21.2912C81.8096 21.8203 81.4866 22.5762 81.2293 23.1792C81.072 23.5477 80.5505 23.5477 80.3931 23.1792C80.1359 22.5762 79.8129 21.8203 79.5872 21.2912C79.4102 20.876 79.079 20.5454 78.6644 20.3684C78.1353 20.1428 77.3794 19.8198 76.7764 19.5626C76.4079 19.4052 76.4079 18.8837 76.7764 18.7263C77.3794 18.4691 78.1353 18.1461 78.6644 17.9205C79.0797 17.7435 79.4102 17.4123 79.5872 16.9977C79.8129 16.4686 80.1359 15.7127 80.3931 15.1097C80.5505 14.7412 81.072 14.7412 81.2293 15.1097C81.4866 15.7127 81.8096 16.4686 82.0352 16.9977Z" fill="#12DEC4"/>
</g>
<g clip-path="url(#clip4_672_12504)">
<path fill-rule="evenodd" clip-rule="evenodd" d="M66.3889 27.9629C66.4813 28.1796 66.6541 28.3522 66.8705 28.4445C67.1466 28.5623 67.5412 28.7309 67.8559 28.8651C68.0482 28.9473 68.0479 29.2194 67.8559 29.3016L66.8705 29.7221C66.6538 29.8145 66.4813 29.987 66.3889 30.2038C66.2711 30.4799 66.1025 30.8744 65.9683 31.1891C65.8861 31.3814 65.614 31.3814 65.5318 31.1891C65.3976 30.8744 65.229 30.4799 65.1112 30.2038C65.0189 29.987 64.846 29.8145 64.6296 29.7221C64.3535 29.6044 63.959 29.4358 63.6442 29.3016C63.4519 29.2194 63.4519 28.9473 63.6442 28.8651C63.959 28.7309 64.3535 28.5623 64.6296 28.4445C64.8463 28.3522 65.0189 28.1793 65.1112 27.9629C65.229 27.6868 65.3976 27.2923 65.5318 26.9776C65.614 26.7853 65.8861 26.7853 65.9683 26.9776C66.1025 27.2923 66.2711 27.6868 66.3889 27.9629Z" fill="#12DEC4"/>
</g>
<g clip-path="url(#clip5_672_12504)">
<path fill-rule="evenodd" clip-rule="evenodd" d="M91.2469 28.2119C91.3188 28.3805 91.4532 28.5147 91.6215 28.5865C91.8363 28.6781 92.1431 28.8092 92.3879 28.9136C92.5375 28.9775 92.5372 29.1892 92.3879 29.2531L91.6215 29.5802C91.4529 29.652 91.3188 29.7862 91.2469 29.9548C91.1553 30.1695 91.0242 30.4764 90.9198 30.7212C90.8559 30.8707 90.6442 30.8707 90.5803 30.7212C90.4759 30.4764 90.3448 30.1695 90.2532 29.9548C90.1813 29.7862 90.0469 29.652 89.8786 29.5802C89.6638 29.4886 89.357 29.3575 89.1122 29.2531C88.9626 29.1892 88.9626 28.9775 89.1122 28.9136C89.357 28.8092 89.6638 28.6781 89.8786 28.5865C90.0472 28.5147 90.1813 28.3802 90.2532 28.2119C90.3448 27.9972 90.4759 27.6903 90.5803 27.4455C90.6442 27.2959 90.8559 27.2959 90.9198 27.4455C91.0242 27.6903 91.1553 27.9972 91.2469 28.2119Z" fill="#12DEC4"/>
</g>
<g clip-path="url(#clip6_672_12504)">
<path fill-rule="evenodd" clip-rule="evenodd" d="M2.88888 35.9629C2.98125 36.1796 3.15411 36.3522 3.37052 36.4445C3.64663 36.5623 4.04117 36.7309 4.35588 36.8651C4.5482 36.9473 4.54787 37.2194 4.35588 37.3016L3.37052 37.7221C3.15378 37.8145 2.98125 37.987 2.88888 38.2038C2.77112 38.4799 2.60254 38.8744 2.46828 39.1891C2.38614 39.3814 2.11398 39.3814 2.03184 39.1891C1.89758 38.8744 1.72901 38.4799 1.61124 38.2038C1.51887 37.987 1.34601 37.8145 1.12961 37.7221C0.853495 37.6044 0.458952 37.4358 0.144242 37.3016C-0.0480807 37.2194 -0.0480807 36.9473 0.144242 36.8651C0.458952 36.7309 0.853495 36.5623 1.12961 36.4445C1.34634 36.3522 1.51887 36.1793 1.61124 35.9629C1.72901 35.6868 1.89758 35.2923 2.03184 34.9776C2.11398 34.7853 2.38614 34.7853 2.46828 34.9776C2.60254 35.2923 2.77112 35.6868 2.88888 35.9629Z" fill="#12DEC4"/>
</g>
<g clip-path="url(#clip7_672_12504)">
<path fill-rule="evenodd" clip-rule="evenodd" d="M15.7469 27.7119C15.8188 27.8805 15.9532 28.0147 16.1215 28.0865C16.3363 28.1781 16.6431 28.3092 16.8879 28.4136C17.0375 28.4775 17.0372 28.6892 16.8879 28.7531L16.1215 29.0802C15.9529 29.152 15.8188 29.2862 15.7469 29.4548C15.6553 29.6695 15.5242 29.9764 15.4198 30.2212C15.3559 30.3707 15.1442 30.3707 15.0803 30.2212C14.9759 29.9764 14.8448 29.6695 14.7532 29.4548C14.6813 29.2862 14.5469 29.152 14.3786 29.0802C14.1638 28.9886 13.857 28.8575 13.6122 28.7531C13.4626 28.6892 13.4626 28.4775 13.6122 28.4136C13.857 28.3092 14.1638 28.1781 14.3786 28.0865C14.5472 28.0147 14.6813 27.8802 14.7532 27.7119C14.8448 27.4972 14.9759 27.1903 15.0803 26.9455C15.1442 26.7959 15.3559 26.7959 15.4198 26.9455C15.5242 27.1903 15.6553 27.4972 15.7469 27.7119Z" fill="#12DEC4"/>
</g>
<defs>
<clipPath id="clip0_672_12504">
<rect width="26.1011" height="24.8032" fill="white" transform="translate(24.0367 22.0868) rotate(20.3396)"/>
</clipPath>
<clipPath id="clip1_672_12504">
<rect width="20" height="44" fill="white" transform="translate(66.5 42.8334)"/>
</clipPath>
<clipPath id="clip2_672_12504">
<rect width="8.62222" height="8.62222" fill="white" transform="translate(7.5 13.3333)"/>
</clipPath>
<clipPath id="clip3_672_12504">
<rect width="8.62222" height="8.62222" fill="white" transform="translate(76.5 14.8333)"/>
</clipPath>
<clipPath id="clip4_672_12504">
<rect width="4.5" height="4.5" fill="white" transform="translate(63.5 26.8333)"/>
</clipPath>
<clipPath id="clip5_672_12504">
<rect width="3.5" height="3.5" fill="white" transform="translate(89 27.3333)"/>
</clipPath>
<clipPath id="clip6_672_12504">
<rect width="4.5" height="4.5" fill="white" transform="translate(0 34.8333)"/>
</clipPath>
<clipPath id="clip7_672_12504">
<rect width="3.5" height="3.5" fill="white" transform="translate(13.5 26.8333)"/>
</clipPath>
</defs>
</svg>
