<svg width="89" height="88" viewBox="0 0 89 88" fill="none" xmlns="http://www.w3.org/2000/svg">
<rect x="0.5" width="88" height="88" rx="16" fill="#F0CEF5"/>
<path fill-rule="evenodd" clip-rule="evenodd" d="M37.5762 41.0585H38.8405C39.7948 41.0585 40.5741 40.2793 40.5741 39.325C40.5741 38.1335 39.6029 37.1622 38.4114 37.1622H34.3231V41.0584H37.5418L37.5762 41.0585ZM31.1665 42.6395V35.5811C31.1665 34.7059 31.8724 34 32.7476 34H38.417C41.3534 34 43.742 36.3886 43.742 39.325C43.742 40.7547 43.1257 42.0434 42.144 42.9393C43.2414 44.0335 43.917 45.5163 43.917 47.1457C43.917 50.4999 41.0541 53.233 37.5418 53.233H32.7476C31.8724 53.233 31.1665 52.5271 31.1665 51.6519V42.6396V42.6395ZM34.3287 44.2207V50.0708H37.5418C39.3149 50.0708 40.7548 48.7607 40.7548 47.1457C40.7548 45.5384 39.3284 44.233 37.5669 44.2207H34.3287ZM50.3985 53.9999C53.4645 53.9999 55.1784 52.0518 55.1784 49.7823C55.1784 47.2356 53.0421 46.3741 51.3152 45.6777C50.1437 45.2053 49.1606 44.8088 49.1606 44.0138C49.1606 43.4842 49.5986 43.0682 50.646 43.0682C51.505 43.0682 52.1184 43.3643 52.7219 43.6556L52.7979 43.6923C53.3312 43.9571 53.8453 44.0706 54.2262 43.3329L54.6833 42.444C54.9689 41.8956 54.9118 41.4227 54.3595 41.0256C53.712 40.5716 52.2647 40.0232 50.6841 40.0232C47.9228 40.0232 45.828 41.6686 45.828 44.1651C45.828 46.6997 47.982 47.6096 49.7125 48.3407C50.4987 48.6728 51.1975 48.968 51.5673 49.3618C51.6175 49.4911 51.6939 49.6074 51.7898 49.7042C51.8264 49.7996 51.8458 49.9008 51.8458 50.0092C51.8458 50.5388 51.3887 50.9549 50.3985 50.9549C49.3966 50.9549 48.6278 50.5191 48.1503 50.2485C48.0651 50.2001 47.9892 50.1571 47.9228 50.1227C47.2944 49.7823 46.8564 49.8201 46.4755 50.3686L45.8852 51.2197C45.39 51.9195 45.6757 52.3355 46.0756 52.6571C46.7993 53.2245 48.4941 53.9999 50.3985 53.9999Z" fill="#742384"/>
</svg>
