<svg width="80" height="80" viewBox="0 0 80 80" fill="none" xmlns="http://www.w3.org/2000/svg">
<rect x="12" y="4" width="56" height="72" rx="2" fill="#BD77C7"/>
<rect x="20" y="12" width="40" height="40" rx="2" fill="#F0CEF5"/>
<path fill-rule="evenodd" clip-rule="evenodd" d="M35 17C36.841 17 38.3333 18.4924 38.3333 20.3333V27C38.3333 28.841 36.841 30.3333 35 30.3333H28.3333C26.4924 30.3333 25 28.841 25 27V20.3333C25 18.4924 26.4924 17 28.3333 17H35ZM35 21.3333C35 20.781 34.5523 20.3333 34 20.3333H29.3333C28.781 20.3333 28.3333 20.781 28.3333 21.3333V26C28.3333 26.5523 28.781 27 29.3333 27H34C34.5523 27 35 26.5523 35 26V21.3333ZM35 33.6667C36.841 33.6667 38.3333 35.159 38.3333 37V43.6667C38.3333 45.5076 36.841 47 35 47H28.3333C26.4924 47 25 45.5076 25 43.6667V37C25 35.159 26.4924 33.6667 28.3333 33.6667H35ZM35 38C35 37.4477 34.5523 37 34 37H29.3333C28.781 37 28.3333 37.4477 28.3333 38V42.6667C28.3333 43.219 28.781 43.6667 29.3333 43.6667H34C34.5523 43.6667 35 43.219 35 42.6667V38ZM55 20.3333C55 18.4924 53.5076 17 51.6667 17H45C43.159 17 41.6667 18.4924 41.6667 20.3333V27C41.6667 28.841 43.159 30.3333 45 30.3333H51.6667C53.5076 30.3333 55 28.841 55 27V20.3333ZM50.6667 20.3333C51.219 20.3333 51.6667 20.781 51.6667 21.3333V26C51.6667 26.5523 51.219 27 50.6667 27H46C45.4477 27 45 26.5523 45 26V21.3333C45 20.781 45.4477 20.3333 46 20.3333H50.6667ZM51.6667 33.6667C53.5076 33.6667 55 35.159 55 37V43.6667C55 45.5076 53.5076 47 51.6667 47H45C43.159 47 41.6667 45.5076 41.6667 43.6667V37C41.6667 35.159 43.159 33.6667 45 33.6667H51.6667ZM51.6667 38C51.6667 37.4477 51.219 37 50.6667 37H46C45.4477 37 45 37.4477 45 38V42.6667C45 43.219 45.4477 43.6667 46 43.6667H50.6667C51.219 43.6667 51.6667 43.219 51.6667 42.6667V38ZM33.3333 23.6667C33.3333 24.5871 32.5871 25.3333 31.6667 25.3333C30.7462 25.3333 30 24.5871 30 23.6667C30 22.7462 30.7462 22 31.6667 22C32.5871 22 33.3333 22.7462 33.3333 23.6667ZM48.3333 42C49.2538 42 50 41.2538 50 40.3333C50 39.4129 49.2538 38.6667 48.3333 38.6667C47.4129 38.6667 46.6667 39.4129 46.6667 40.3333C46.6667 41.2538 47.4129 42 48.3333 42Z" fill="#742384"/>
<rect x="20" y="58" width="40" height="9" rx="2" fill="#10CBB4"/>
</svg>
