<svg width="600" height="600" viewBox="0 0 600 600" fill="none" xmlns="http://www.w3.org/2000/svg">
<path d="M599.584 313.732C599.584 449.557 502.377 585.724 300.025 585.724C134.584 585.724 0.466614 475.616 0.466614 339.791C0.466614 264.113 31.6089 172.036 111.689 149.234C191.769 126.432 199.361 202.206 285.373 202.206C371.385 202.206 423.756 153.454 510.042 174.58C575.164 190.524 599.584 248.564 599.584 313.732Z" fill="#8B3D99"/>
<mask id="mask0_13924_13769" style="mask-type:alpha" maskUnits="userSpaceOnUse" x="0" y="141" width="600" height="445">
<path d="M599.584 313.734C599.584 449.559 502.377 585.726 300.025 585.726C134.584 585.726 0.466614 475.618 0.466614 339.793C0.466614 264.115 31.6089 172.038 111.689 149.236C191.769 126.434 199.361 159.936 285.373 159.936C371.385 159.935 423.756 153.455 510.042 174.581C575.164 190.526 599.584 248.566 599.584 313.734Z" fill="#8B3D99"/>
</mask>
<g mask="url(#mask0_13924_13769)">
<path fill-rule="evenodd" clip-rule="evenodd" d="M329.311 394.443C371.286 389.906 408.992 420.254 413.53 462.229C425.186 570.046 479.049 821.248 519.859 939.304C533.652 979.207 512.486 1022.74 472.584 1036.53C432.681 1050.32 389.152 1029.16 375.359 989.255C330.55 859.63 274.332 597.122 261.526 478.662C256.988 436.687 287.337 398.981 329.311 394.443Z" fill="#DCAC82"/>
<path d="M315.916 549.625C356.859 560.584 399.227 535.186 410.547 492.897C421.867 450.607 397.853 407.44 356.909 396.48C315.966 385.521 273.598 410.919 262.278 453.208C250.958 495.498 274.972 538.665 315.916 549.625Z" fill="#DCAC82"/>
<path d="M379.925 375.791L403.528 433.281L269.304 512.792L193.733 492.137L236.249 336.511L379.925 375.791Z" fill="#DCAC82"/>
<path d="M410.44 493.294C414.065 480.938 418.661 461.752 420.12 438.017C422.015 406.718 416.874 391.261 416.412 365.798C416.148 349.808 417.682 327.931 425.511 301.175C428.804 289.944 422.721 278.239 411.82 275.157C401.741 272.328 391.004 277.89 387.268 288.049C380.225 307.237 374.881 327.437 371.523 348.53C363.396 353.248 346.053 364.853 335.087 387.06C314.977 427.761 334.013 468.241 336.412 473.051L410.44 493.294Z" fill="#DCAC82"/>
<path d="M350.328 495.027C346.56 485.714 335.597 455.438 345.387 417.915C354.717 382.108 377.218 361.445 385.093 354.822C382.879 351.932 379.159 346.242 377.425 337.999C375.643 329.579 376.848 322.582 377.718 318.974C376.271 324.856 374.923 330.961 373.636 337.313C372.873 341.113 372.186 344.868 371.552 348.539C342.004 355.761 318.778 379.249 312.167 408.695C304.644 442.262 320.042 477.697 350.319 495.058L350.328 495.027Z" fill="#BE906A"/>
<g clip-path="url(#clip0_13924_13769)">
<path d="M328.758 530.843L405.088 236.803C406.802 230.199 402.807 223.448 396.165 221.724L265.474 187.798C258.831 186.074 252.057 190.029 250.343 196.633L174.013 490.673C172.299 497.277 176.294 504.028 182.936 505.752L313.627 539.678C320.27 541.403 327.044 537.447 328.758 530.843Z" fill="#403556"/>
<path d="M331.152 521.622L407.482 227.582C409.196 220.978 405.201 214.227 398.558 212.502L267.867 178.577C261.225 176.852 254.451 180.808 252.736 187.412L176.407 481.452C174.693 488.056 178.688 494.807 185.33 496.531L316.021 530.457C322.664 532.181 329.438 528.226 331.152 521.622Z" fill="#2C2044"/>
<path d="M327.054 506.516L396.554 238.787C397.404 235.511 395.422 232.161 392.126 231.306L264.311 198.126C261.015 197.271 257.654 199.233 256.804 202.51L187.304 470.238C186.454 473.515 188.436 476.864 191.732 477.72L319.547 510.899C322.843 511.755 326.204 509.792 327.054 506.516Z" fill="#742384"/>
<path d="M314.224 204.554L345.389 212.644C347.199 213.114 349.045 212.036 349.512 210.237L349.616 209.837C350.083 208.038 348.995 206.198 347.185 205.728L316.019 197.638C314.209 197.168 312.363 198.246 311.896 200.046L311.792 200.445C311.325 202.245 312.414 204.084 314.224 204.554Z" fill="#544A69"/>
</g>
<g clip-path="url(#clip1_13924_13769)">
<rect x="258.501" y="196.371" width="144.213" height="288.426" rx="10" transform="rotate(14.5521 258.501 196.371)" fill="#742384"/>
<g opacity="0.4" clip-path="url(#clip2_13924_13769)">
<path d="M303.307 338.357L448.951 324.945L468.197 250.807L465.362 250.071L302.083 333.868L311.104 333.454L303.307 338.357Z" fill="#8B3D99"/>
<path d="M328.294 214.49L298.838 327.96L444.657 244.696L381.035 228.18L308.699 313.932L348.623 256.237L341.889 257.836L344.96 249.914L333.579 257.08L352.01 220.646L328.294 214.49Z" fill="#8B3D99"/>
<path d="M291.093 331.752L287.318 316.762L290.619 323.402L284.313 203.073L219.903 186.353L291.093 331.752Z" fill="#8B3D99"/>
<path d="M178.308 217.016L282.432 325.487L187.931 255.358L220.178 288.393L166.276 263.367L178.308 217.016Z" fill="#8B3D99"/>
<path d="M134.58 385.469L282.591 373.515L271.712 376.457L281.141 376.502L121.095 458.689L115.921 457.346L134.58 385.469Z" fill="#8B3D99"/>
<path d="M286.301 383.936L256.723 455.685L254.433 438.298L230.362 487.053L153.415 467.079L286.301 383.936Z" fill="#8B3D99"/>
<path d="M292.681 378.396L362.054 521.239L298.859 504.834L292.359 386.841L295.924 395.23L292.681 378.396Z" fill="#8B3D99"/>
<path d="M302.176 385.723L405.154 493.664L417.19 447.295L364.181 422.73L394.138 453.336L302.176 385.723Z" fill="#8B3D99"/>
</g>
</g>
<path fill-rule="evenodd" clip-rule="evenodd" d="M305.424 292.706C307.074 292.392 308.777 292.834 310.066 293.911C317.135 299.813 340.627 319.425 348.669 326.138C350.335 327.529 351.049 329.754 350.504 331.854L341.459 366.695C332.782 400.123 296.74 411.896 282.031 415.36C278.052 416.297 273.867 415.211 270.847 412.457C259.679 402.274 233.914 374.457 242.592 341.03L251.636 306.188C252.181 304.088 253.888 302.491 256.02 302.086C266.311 300.132 296.375 294.424 305.424 292.706Z" fill="#00AD97"/>
<path fill-rule="evenodd" clip-rule="evenodd" d="M278.813 404.754C276.64 404.19 274.615 403.092 272.956 401.581C268.109 397.162 261.255 389.916 256.126 380.492C253.144 375.015 251.121 369.443 250.109 363.931C248.898 357.33 249.125 350.744 250.783 344.357L258.527 314.76C259.109 312.54 260.915 310.852 263.169 310.424L302.62 302.932C304.368 302.599 306.172 303.068 307.538 304.208L338.413 329.983C340.177 331.456 340.934 333.816 340.357 336.04L332.68 365.614C331.021 372.003 328.017 377.867 323.748 383.044C320.184 387.368 315.705 391.252 310.436 394.588C301.37 400.326 291.857 403.323 285.472 404.827C283.287 405.342 280.985 405.316 278.811 404.751L278.813 404.754Z" fill="#10CBB4"/>
<path fill-rule="evenodd" clip-rule="evenodd" d="M284.678 359.374C284.678 359.374 278.996 349.707 275.555 343.854C274.874 342.697 273.763 341.857 272.463 341.52C271.163 341.182 269.784 341.375 268.626 342.055C267.468 342.735 266.629 343.847 266.291 345.147C265.954 346.448 266.146 347.826 266.827 348.985L277.838 367.718C278.697 369.18 280.103 370.242 281.745 370.668C283.387 371.094 285.132 370.851 286.595 369.991L319.284 350.775C321.695 349.358 322.5 346.256 321.083 343.847C319.666 341.437 316.564 340.631 314.155 342.048C305.01 347.424 284.677 359.376 284.677 359.376L284.678 359.374Z" fill="white"/>
<path d="M225.423 304.586C234.054 310.746 246.019 308.462 252.149 299.486C258.279 290.51 256.252 278.239 247.622 272.079L232.17 261.051C223.54 254.891 211.574 257.174 205.444 266.151C199.314 275.127 201.341 287.398 209.972 293.558L225.423 304.586Z" fill="#DCAC82"/>
<path d="M214.049 357.419C223.549 362.064 235.036 357.849 239.708 348.003C244.379 338.157 240.465 326.409 230.965 321.764L210.645 311.827C201.146 307.181 189.658 311.397 184.987 321.243C180.315 331.089 184.229 342.836 193.729 347.482L214.049 357.419Z" fill="#DCAC82"/>
<path d="M198.63 407.175C208.51 410.919 219.601 405.668 223.402 395.446C227.204 385.223 222.276 373.901 212.396 370.156L191.894 362.385C182.015 358.64 170.924 363.892 167.122 374.114C163.321 384.336 168.248 395.659 178.128 399.404L198.63 407.175Z" fill="#DCAC82"/>
<path d="M187.907 459.851C197.787 463.596 208.877 458.345 212.679 448.122C216.48 437.9 211.553 426.577 201.673 422.832L183.899 416.095C174.019 412.351 162.928 417.602 159.127 427.824C155.325 438.047 160.253 449.369 170.133 453.114L187.907 459.851Z" fill="#DCAC82"/>
</g>
<circle cx="302.182" cy="90.3636" r="76.3636" fill="#FDF0FF"/>
<circle cx="77.4546" cy="249.636" r="76.3637" fill="#FDF0FF"/>
<circle cx="521.455" cy="249.636" r="76.3637" fill="#FDF0FF"/>
<path d="M481.925 225.813H560.984V294.048C560.984 294.568 560.563 294.989 560.043 294.989H482.866C482.347 294.989 481.925 294.568 481.925 294.048V225.813Z" fill="#F0CEF5"/>
<path d="M496.043 266.283C496.043 265.764 496.464 265.342 496.984 265.342H545.925C546.445 265.342 546.866 265.764 546.866 266.283V294.989H496.043V266.283Z" fill="#CE92D6"/>
<path fill-rule="evenodd" clip-rule="evenodd" d="M488.561 205.213C488.827 204.851 489.25 204.636 489.699 204.636H553.21C553.659 204.636 554.082 204.851 554.348 205.213L569.455 225.813H473.455L488.561 205.213Z" fill="#F0CEF5"/>
<rect x="496.043" y="248.401" width="50.8235" height="11.2941" rx="0.470588" fill="#10CBB4"/>
<path d="M473.455 225.813H493.219V232.872C493.219 238.33 488.795 242.754 483.337 242.754C477.879 242.754 473.455 238.33 473.455 232.872V225.813Z" fill="#8B3D99"/>
<path d="M493.219 225.813H511.572V233.578C511.572 238.646 507.464 242.754 502.396 242.754C497.328 242.754 493.219 238.646 493.219 233.578V225.813Z" fill="#CE92D6"/>
<path d="M511.572 225.813H531.337V232.872C531.337 238.33 526.912 242.754 521.455 242.754C515.997 242.754 511.572 238.33 511.572 232.872V225.813Z" fill="#8B3D99"/>
<path d="M511.572 225.813H531.337L528.513 204.636H514.396L511.572 225.813Z" fill="#CE92D6"/>
<path d="M473.455 225.813H493.219L500.278 204.636H488.558C487.071 204.636 485.692 205.417 484.927 206.693L473.455 225.813Z" fill="#CE92D6"/>
<path d="M569.455 225.813H549.69L542.631 204.636H554.351C555.838 204.636 557.217 205.417 557.982 206.693L569.455 225.813Z" fill="#CE92D6"/>
<path d="M531.337 225.813H549.69V233.578C549.69 238.646 545.581 242.754 540.513 242.754C535.445 242.754 531.337 238.646 531.337 233.578V225.813Z" fill="#CE92D6"/>
<path d="M549.69 225.813H569.455V232.872C569.455 238.33 565.03 242.754 559.572 242.754C554.114 242.754 549.69 238.33 549.69 232.872V225.813Z" fill="#8B3D99"/>
<path d="M91.8545 220.836H114.254C115.138 220.836 115.854 221.553 115.854 222.436V250.436C115.854 251.32 115.138 252.036 114.254 252.036H91.8545V220.836Z" fill="#F4C12A"/>
<path d="M49.2198 220.116C53.0767 223.973 50.9687 228.63 50.4727 229.583C50.411 229.702 50.3199 229.793 50.2013 229.855C49.2477 230.351 44.5914 232.459 40.7345 228.602C36.4147 224.282 38.4975 217.879 38.4975 217.879C38.4975 217.879 44.9 215.797 49.2198 220.116Z" fill="#10CBB4"/>
<rect x="60.6545" y="206.437" width="31.2" height="45.6" rx="1.6" fill="#10CBB4"/>
<ellipse cx="55.8545" cy="242.436" rx="16.8" ry="16.8" fill="#F4C12A"/>
<rect x="72.6545" y="220.836" width="28.8" height="31.2" rx="1.6" fill="#F9DD8F"/>
<path d="M34.4519 253.813C34.3466 252.865 35.0885 252.036 36.0421 252.036H118.867C119.821 252.036 120.562 252.865 120.457 253.813L116.329 290.966C116.059 293.397 114.004 295.236 111.558 295.236H43.3507C40.9049 295.236 38.8502 293.397 38.5801 290.966L34.4519 253.813Z" fill="#8B3D99"/>
<rect x="29.4545" y="242.437" width="96" height="16.8" rx="3.2" fill="#CE92D6"/>
<rect x="53.4545" y="264.037" width="9.6" height="21.6" rx="3.2" fill="#CE92D6"/>
<rect x="72.6545" y="264.037" width="9.6" height="21.6" rx="3.2" fill="#CE92D6"/>
<rect x="91.8545" y="264.037" width="9.6" height="21.6" rx="3.2" fill="#CE92D6"/>
<rect x="119.523" y="220.857" width="9.6" height="57.6" rx="2.4" transform="rotate(60 119.523 220.857)" fill="#CE92D6"/>
<path fill-rule="evenodd" clip-rule="evenodd" d="M70.2545 204.036C70.2545 202.711 71.329 201.636 72.6545 201.636H79.8545C81.18 201.636 82.2545 202.711 82.2545 204.036C82.2545 205.362 81.18 206.436 79.8545 206.436H72.6545C71.329 206.436 70.2545 205.362 70.2545 204.036Z" fill="#8B3D99"/>
<path fill-rule="evenodd" clip-rule="evenodd" d="M72.6545 231.636C72.6545 229.648 74.2663 228.036 76.2545 228.036H81.0545C83.0428 228.036 84.6545 229.648 84.6545 231.636C84.6545 233.625 83.0428 235.236 81.0545 235.236H76.2545C74.2663 235.236 72.6545 233.625 72.6545 231.636Z" fill="#F4C12A"/>
<g clip-path="url(#clip3_13924_13769)">
<path d="M335.646 85.7424L296.48 108.036C295.128 108.806 294.65 110.513 295.413 111.85L306.39 131.09C307.153 132.427 308.867 132.887 310.219 132.117L349.385 109.824C350.737 109.054 351.214 107.346 350.451 106.009L339.475 86.7699C338.712 85.4329 336.998 84.9728 335.646 85.7424Z" fill="#006B5F"/>
<path fill-rule="evenodd" clip-rule="evenodd" d="M338.876 91.4035L346.487 104.747C345.539 105.934 345.109 107.456 345.301 108.946L312.157 127.816C310.781 126.742 308.94 126.367 307.212 126.845L299.827 113.898C301.298 112.483 301.892 110.381 301.37 108.437L334.111 89.7961C335.347 91.0604 337.128 91.6472 338.876 91.4035Z" fill="#004D43"/>
<path fill-rule="evenodd" clip-rule="evenodd" d="M319.764 101.955C323.482 99.8383 328.188 101.088 330.275 104.746C332.361 108.404 331.039 113.086 327.321 115.202C323.603 117.319 318.897 116.069 316.811 112.411C314.724 108.753 316.046 104.072 319.764 101.955ZM325.664 103.34L325.406 103.487C325.122 103.649 325.022 103.873 325.08 104.174L326.463 111.012C326.542 111.39 326.812 111.504 327.156 111.308L327.414 111.161C327.698 110.999 327.798 110.775 327.74 110.474L326.362 103.645C326.278 103.258 326.008 103.145 325.664 103.34ZM319.769 105.941C318.367 106.739 317.772 108.168 318.483 109.416C319.691 111.533 322.662 109.641 323.207 110.596C323.358 110.861 323.244 111.201 322.741 111.488C322.141 111.829 321.533 111.774 321.246 111.788C320.83 111.799 320.618 111.945 320.581 112.329L320.524 112.925C320.472 113.418 320.736 113.544 321.03 113.589C321.56 113.663 322.642 113.56 323.609 113.01C325.167 112.123 325.482 110.653 324.835 109.519C323.616 107.382 320.694 109.359 320.133 108.376C319.982 108.111 320.086 107.777 320.618 107.474C321.073 107.215 321.484 107.194 321.889 107.163C322.236 107.141 322.529 107.049 322.513 106.571L322.491 105.994C322.48 105.637 322.316 105.418 321.922 105.379C321.464 105.339 320.572 105.484 319.769 105.941Z" fill="#006B5F"/>
<path d="M336.197 103.765C337.211 103.188 337.571 101.911 337.002 100.913C336.433 99.9155 335.15 99.5747 334.136 100.152C333.122 100.729 332.761 102.006 333.33 103.004C333.899 104.001 335.183 104.342 336.197 103.765Z" fill="#006B5F"/>
<path d="M312.335 117.353C313.349 116.776 313.71 115.499 313.141 114.501C312.572 113.504 311.288 113.163 310.274 113.74C309.26 114.317 308.9 115.594 309.469 116.592C310.038 117.59 311.321 117.93 312.335 117.353Z" fill="#006B5F"/>
<path d="M315.119 66.6077L284.882 110.087C283.838 111.588 284.184 113.645 285.655 114.681L306.821 129.599C308.292 130.636 310.331 130.26 311.374 128.759L341.611 85.2798C342.655 83.7789 342.309 81.7219 340.838 80.6852L319.672 65.7673C318.201 64.7306 316.162 65.1069 315.119 66.6077Z" fill="#00AD97"/>
<path fill-rule="evenodd" clip-rule="evenodd" d="M321.359 71.0017L336.036 81.3462C335.626 83.0873 335.931 84.9225 336.875 86.4099L311.287 123.202C309.3 122.756 307.17 123.287 305.584 124.666L291.342 114.629C292.19 112.383 291.77 109.847 290.251 108.044L315.528 71.6982C317.463 72.4182 319.634 72.1433 321.359 71.0017Z" fill="#008C7B"/>
<path fill-rule="evenodd" clip-rule="evenodd" d="M306.432 91.8539C309.304 87.7244 314.895 86.6773 318.921 89.5151C322.947 92.353 323.883 98.0011 321.012 102.131C318.14 106.26 312.549 107.307 308.523 104.469C304.497 101.632 303.561 95.9834 306.432 91.8539ZM313.352 90.3482L313.153 90.6347C312.934 90.9499 312.94 91.2388 313.151 91.5298L318.018 98.1062C318.29 98.4686 318.631 98.4531 318.897 98.071L319.096 97.7845C319.315 97.4693 319.31 97.1805 319.099 96.8894L314.24 90.3195C313.959 89.9507 313.618 89.9661 313.352 90.3482ZM308.423 96.0916C307.34 97.6497 307.423 99.4697 308.796 100.438C311.127 102.081 313.322 98.5676 314.373 99.3083C314.664 99.5137 314.713 99.9329 314.325 100.492C313.862 101.158 313.192 101.407 312.896 101.566C312.462 101.789 312.311 102.05 312.463 102.478L312.7 103.141C312.89 103.692 313.231 103.692 313.565 103.591C314.161 103.403 315.253 102.747 316 101.672C317.203 99.9424 316.804 98.2199 315.555 97.3399C313.204 95.6824 311.103 99.2614 310.021 98.4986C309.729 98.2933 309.672 97.8848 310.083 97.2938C310.435 96.7888 310.858 96.5588 311.271 96.3216C311.626 96.1234 311.89 95.8772 311.634 95.3763L311.324 94.7737C311.134 94.3999 310.852 94.2488 310.417 94.4064C309.913 94.5957 309.043 95.1997 308.423 96.0916Z" fill="#00AD97"/>
<path d="M324.681 85.5143C325.464 84.388 325.209 82.8476 324.111 82.0737C323.013 81.2997 321.488 81.5853 320.705 82.7115C319.921 83.8377 320.177 85.3781 321.275 86.1521C322.373 86.9261 323.898 86.6405 324.681 85.5143Z" fill="#00AD97"/>
<path d="M306.261 111.961C307.044 110.835 306.789 109.294 305.691 108.52C304.593 107.746 303.068 108.032 302.285 109.158C301.502 110.284 301.757 111.825 302.855 112.599C303.953 113.373 305.478 113.087 306.261 111.961Z" fill="#00AD97"/>
<path d="M286.315 56.278L272.927 116.429C272.465 118.505 273.742 120.568 275.781 121.036L305.112 127.777C307.151 128.245 309.178 126.942 309.64 124.866L323.028 64.7149C323.49 62.6386 322.212 60.5758 320.174 60.1073L290.843 53.3668C288.804 52.8983 286.777 54.2018 286.315 56.278Z" fill="#12DEC4"/>
<path fill-rule="evenodd" clip-rule="evenodd" d="M294.959 58.2617L315.301 62.9364C315.627 64.9924 316.761 66.8351 318.432 68.021L307.102 118.926C304.767 119.321 302.71 120.831 301.611 123.016L281.873 118.481C281.797 115.687 280.229 113.141 277.801 111.868L288.994 61.5808C291.392 61.504 293.607 60.251 294.959 58.2617Z" fill="#00AD97"/>
<path fill-rule="evenodd" clip-rule="evenodd" d="M288.092 87.3145C289.363 81.6049 294.913 78.0151 300.489 79.2964C306.064 80.5777 309.554 86.245 308.283 91.9546C307.013 97.6642 301.462 101.254 295.887 99.9727C290.311 98.6913 286.821 93.024 288.092 87.3145ZM294.869 82.6459L294.78 83.0421C294.683 83.4779 294.817 83.7862 295.172 84.0066L303.296 88.9414C303.747 89.2117 304.107 89.0447 304.225 88.5164L304.313 88.1202C304.41 87.6844 304.277 87.3761 303.922 87.1558L295.811 82.2239C295.346 81.9506 294.986 82.1177 294.869 82.6459ZM292.096 90.9988C291.616 93.1531 292.506 95.0755 294.408 95.5126C297.636 96.2543 298.45 91.5065 299.905 91.841C300.309 91.9337 300.547 92.3631 300.375 93.1357C300.17 94.0568 299.56 94.6194 299.311 94.9214C298.942 95.3521 298.895 95.7004 299.247 96.0936L299.793 96.7032C300.24 97.212 300.606 97.062 300.921 96.8063C301.479 96.341 302.364 95.1545 302.695 93.6688C303.227 91.2768 302.04 89.5986 300.311 89.2013C297.055 88.4529 296.37 93.2305 294.871 92.8861C294.468 92.7934 294.227 92.3788 294.409 91.5617C294.564 90.8634 294.918 90.4294 295.258 89.9921C295.552 89.6225 295.728 89.2412 295.232 88.8149L294.634 88.3027C294.266 87.9838 293.896 87.9456 293.498 88.3069C293.039 88.7326 292.37 89.7657 292.096 90.9988Z" fill="#12DEC4"/>
<path d="M304.916 72.4111C305.263 70.8539 304.311 69.3083 302.79 68.9589C301.27 68.6094 299.756 69.5884 299.41 71.1456C299.063 72.7028 300.015 74.2484 301.535 74.5978C303.056 74.9473 304.57 73.9683 304.916 72.4111Z" fill="#12DEC4"/>
<path d="M296.756 109.063C297.102 107.506 296.15 105.96 294.63 105.61C293.109 105.261 291.595 106.24 291.249 107.797C290.902 109.354 291.854 110.9 293.375 111.249C294.895 111.599 296.409 110.62 296.756 109.063Z" fill="#12DEC4"/>
<path d="M260.825 54.1659L264.579 123.17C264.708 125.552 266.711 127.393 269.053 127.281L302.747 125.672C305.088 125.56 306.882 123.538 306.752 121.156L302.998 52.1518C302.868 49.7699 300.865 47.9297 298.524 48.0415L264.83 49.6506C262.488 49.7625 260.695 51.784 260.825 54.1659Z" fill="#5FF7E4"/>
<path fill-rule="evenodd" clip-rule="evenodd" d="M270.763 53.6843L294.133 52.5679C295.106 54.6894 296.889 56.3353 299.051 57.1095L302.227 115.512C299.827 116.645 298.064 118.899 297.539 121.592L274.863 122.676C273.935 119.682 271.473 117.408 268.467 116.769L265.33 59.0761C267.894 58.2664 269.906 56.2422 270.763 53.6843Z" fill="#12DEC4"/>
<path fill-rule="evenodd" clip-rule="evenodd" d="M272.141 87.1285C271.785 80.5814 276.686 75.0263 283.087 74.7208C289.489 74.4153 294.968 79.4751 295.325 86.0222C295.681 92.5693 290.78 98.1245 284.378 98.43C277.976 98.7355 272.498 93.6757 272.141 87.1285ZM278.039 80.0378L278.063 80.4921C278.09 80.9918 278.328 81.2841 278.777 81.4145L289.033 84.2805C289.602 84.4356 289.94 84.1461 289.907 83.5404L289.882 83.0861C289.855 82.5864 289.618 82.294 289.168 82.1636L278.927 79.2969C278.344 79.1426 278.006 79.432 278.039 80.0378ZM277.574 89.8927C277.709 92.363 279.25 94.1683 281.434 94.0641C285.14 93.8872 284.582 88.5163 286.253 88.4366C286.716 88.4145 287.103 88.806 287.151 89.6919C287.208 90.7481 286.721 91.54 286.543 91.9414C286.276 92.5178 286.331 92.908 286.829 93.2259L287.602 93.7185C288.239 94.1322 288.589 93.8593 288.85 93.4881C289.311 92.817 289.907 91.2684 289.815 89.5648C289.665 86.8219 287.878 85.37 285.892 85.4647C282.153 85.6431 282.86 91.0069 281.139 91.089C280.676 91.1111 280.291 90.7366 280.24 89.7996C280.196 88.9989 280.447 88.4233 280.681 87.8485C280.887 87.3604 280.961 86.8957 280.297 86.5857L279.497 86.214C279.003 85.9813 278.593 86.0522 278.272 86.5628C277.907 87.161 277.497 88.4787 277.574 89.8927Z" fill="#5FF7E4"/>
<path d="M285.786 65.9215C285.689 64.1359 284.194 62.756 282.448 62.8393C280.702 62.9226 279.366 64.4376 279.463 66.2232C279.56 68.0088 281.054 69.3888 282.8 69.3054C284.546 69.2221 285.883 67.7071 285.786 65.9215Z" fill="#5FF7E4"/>
<path d="M288.063 108.011C287.965 106.225 286.471 104.845 284.725 104.929C282.979 105.012 281.643 106.527 281.74 108.313C281.837 110.098 283.331 111.478 285.077 111.395C286.823 111.311 288.16 109.796 288.063 108.011Z" fill="#5FF7E4"/>
</g>
<g clip-path="url(#clip4_13924_13769)">
<path fill-rule="evenodd" clip-rule="evenodd" d="M577.985 487.758C573.761 489.554 570.398 492.916 568.598 497.124C566.303 502.494 563.017 510.168 560.401 516.288C558.8 520.028 553.496 520.022 551.895 516.288L543.697 497.124C541.897 492.909 538.535 489.554 534.311 487.758C528.929 485.467 521.24 482.189 515.107 479.578C511.358 477.98 511.358 472.687 515.107 471.09C521.24 468.478 528.929 465.2 534.311 462.91C538.535 461.113 541.897 457.751 543.697 453.543C545.993 448.173 549.278 440.5 551.895 434.379C553.496 430.639 558.8 430.639 560.401 434.379C563.017 440.5 566.303 448.173 568.598 453.543C570.398 457.758 573.767 461.113 577.985 462.91C583.366 465.2 591.055 468.478 597.189 471.09C600.937 472.687 600.937 477.98 597.189 479.578C591.055 482.189 583.366 485.467 577.985 487.758Z" fill="#BD77C7"/>
<path fill-rule="evenodd" clip-rule="evenodd" d="M492.551 386.271C490.972 386.942 489.715 388.199 489.042 389.771C488.185 391.778 486.957 394.646 485.979 396.934C485.38 398.332 483.398 398.329 482.8 396.934L479.736 389.771C479.063 388.196 477.807 386.942 476.228 386.271C474.217 385.415 471.343 384.189 469.051 383.214C467.65 382.616 467.65 380.638 469.051 380.041C471.343 379.065 474.217 377.84 476.228 376.984C477.807 376.313 479.063 375.056 479.736 373.483C480.594 371.476 481.822 368.609 482.8 366.321C483.398 364.923 485.38 364.923 485.979 366.321C486.957 368.609 488.185 371.476 489.042 373.483C489.715 375.059 490.974 376.313 492.551 376.984C494.562 377.84 497.436 379.065 499.728 380.041C501.129 380.638 501.129 382.616 499.728 383.214C497.436 384.189 494.562 385.415 492.551 386.271Z" fill="#BD77C7"/>
</g>
<g clip-path="url(#clip5_13924_13769)">
<path fill-rule="evenodd" clip-rule="evenodd" d="M70.7339 418.021C72.9955 423.328 77.2279 427.552 82.5266 429.814C89.2872 432.697 98.9475 436.824 106.653 440.112C111.362 442.123 111.354 448.786 106.653 450.798L82.5266 461.096C77.2199 463.357 72.9955 467.582 70.7339 472.888C67.8503 479.648 63.7229 489.309 60.4355 497.014C58.4243 501.723 51.7606 501.723 49.7494 497.014C46.462 489.309 42.3345 479.648 39.451 472.888C37.1894 467.582 32.9569 463.357 27.6583 461.096C20.8977 458.212 11.2374 454.085 3.53175 450.798C-1.17725 448.786 -1.17725 442.123 3.53175 440.112C11.2374 436.824 20.8977 432.697 27.6583 429.814C32.965 427.552 37.1894 423.32 39.451 418.021C42.3345 411.261 46.462 401.601 49.7494 393.895C51.7606 389.187 58.4243 389.187 60.4355 393.895C63.7229 401.601 67.8503 411.261 70.7339 418.021Z" fill="#BD77C7"/>
</g>
<defs>
<clipPath id="clip0_13924_13769">
<rect width="159.874" height="338.02" fill="white" transform="translate(255.84 175.454) rotate(14.5521)"/>
</clipPath>
<clipPath id="clip1_13924_13769">
<rect x="258.501" y="196.371" width="144.213" height="288.426" rx="10" transform="rotate(14.5521 258.501 196.371)" fill="white"/>
</clipPath>
<clipPath id="clip2_13924_13769">
<rect width="289.079" height="288.426" fill="white" transform="translate(188.392 178.172) rotate(14.5521)"/>
</clipPath>
<clipPath id="clip3_13924_13769">
<rect width="96" height="91.4286" fill="white" transform="translate(258.545 44.5454)"/>
</clipPath>
<clipPath id="clip4_13924_13769">
<rect width="153.818" height="132" fill="white" transform="translate(600 365.273) rotate(90)"/>
</clipPath>
<clipPath id="clip5_13924_13769">
<rect width="110.182" height="110.182" fill="white" transform="translate(0 390.364)"/>
</clipPath>
</defs>
</svg>
