<svg width="40" height="40" viewBox="0 0 40 40" fill="none" xmlns="http://www.w3.org/2000/svg">
<path d="M4.04496 28.2661L4.94932 30.4476C5.05905 30.7143 5.34473 30.8619 5.62663 30.7995L8.01806 30.2621C8.22996 30.2148 8.4551 30.283 8.5951 30.4476C8.89025 30.7957 9.21188 31.1154 9.55432 31.4068C9.71892 31.5468 9.78703 31.77 9.73973 31.98L9.20242 34.3734C9.13998 34.6553 9.28756 34.9409 9.55432 35.0507L11.7357 35.955C12.0025 36.0648 12.309 35.9683 12.4641 35.7242L13.7772 33.6506C13.8926 33.4671 14.0988 33.3593 14.3145 33.3763C14.7629 33.4122 15.2169 33.4141 15.671 33.3763C15.8867 33.3593 16.0948 33.469 16.2102 33.6525L17.5213 35.7242C17.6746 35.9683 17.983 36.0648 18.2497 35.955L20.4311 35.0507C20.6979 34.9409 20.8455 34.6553 20.783 34.3734L20.2457 31.9819C20.1984 31.77 20.2665 31.5468 20.4311 31.4049C20.7793 31.1097 21.099 30.7881 21.3904 30.4457C21.5304 30.2811 21.7536 30.213 21.9636 30.2603L24.3569 30.7976C24.6388 30.86 24.9245 30.7124 25.0343 30.4457L25.9386 28.2642C26.0483 27.9975 25.9518 27.691 25.7078 27.5358L23.6342 26.2247C23.4507 26.1093 23.3428 25.9031 23.3599 25.6874C23.3958 25.239 23.3977 24.785 23.3599 24.3309C23.3428 24.1152 23.4526 23.9071 23.6361 23.7917L25.7078 22.4806C25.9518 22.3273 26.0483 22.0189 25.9386 21.7522L25.0343 19.5707C24.9245 19.304 24.6388 19.1564 24.3569 19.2188L21.9655 19.7562C21.7536 19.8034 21.5285 19.7353 21.3885 19.5707C21.0933 19.2226 20.7717 18.9029 20.4292 18.6115C20.2646 18.4715 20.1965 18.2483 20.2438 18.0383L20.7811 15.6449C20.8436 15.363 20.696 15.0774 20.4292 14.9676L18.2478 14.0633C17.9811 13.9535 17.6746 14.05 17.5194 14.2941L16.2083 16.3677C16.0929 16.5512 15.8867 16.659 15.671 16.642C15.2226 16.6061 14.7685 16.6042 14.3145 16.642C14.0988 16.659 13.8907 16.5493 13.7753 16.3658L12.4641 14.2941C12.3109 14.05 12.0025 13.9535 11.7357 14.0633L9.55432 14.9676C9.28756 15.0774 9.13998 15.363 9.20242 15.6449L9.73973 18.0364C9.78703 18.2483 9.71892 18.4734 9.55432 18.6134C9.2062 18.9086 8.88646 19.2302 8.5951 19.5726C8.4551 19.7372 8.23185 19.8053 8.02184 19.758L5.62853 19.2207C5.34663 19.1583 5.06094 19.3059 4.95121 19.5726L4.04496 21.754C3.93523 22.0208 4.03172 22.3273 4.27578 22.4824L6.34936 23.7936C6.53288 23.909 6.64072 24.1152 6.62369 24.3309C6.58774 24.7793 6.58585 25.2333 6.62369 25.6874C6.64072 25.9031 6.53099 26.1112 6.34747 26.2266L4.27578 27.5377C4.03172 27.691 3.93523 27.9994 4.04496 28.2661ZM11.3403 26.5218C10.506 24.5068 11.4633 22.1949 13.4782 21.3605C15.4931 20.5262 17.8051 21.4835 18.6395 23.4984C19.4738 25.5134 18.5165 27.8253 16.5016 28.6597C14.4866 29.494 12.1747 28.5367 11.3403 26.5218Z" fill="#CE92D6"/>
<path d="M19.7273 11.2916V12.983C19.7273 13.1892 19.8768 13.3651 20.0792 13.4011L21.8085 13.7C21.9617 13.7265 22.0923 13.8325 22.1396 13.9819C22.2398 14.2922 22.3647 14.593 22.5123 14.8806C22.5823 15.0187 22.5671 15.1852 22.4782 15.312L21.466 16.748C21.3468 16.9163 21.3676 17.1472 21.5133 17.2928L22.709 18.4885C22.8547 18.6342 23.0855 18.655 23.2539 18.5358L24.6899 17.5237C24.8167 17.4347 24.9832 17.4177 25.1213 17.4896C25.4088 17.6372 25.7078 17.762 26.0199 17.8623C26.1675 17.9096 26.2754 18.0402 26.3018 18.1934L26.6008 19.9226C26.6367 20.127 26.8127 20.2745 27.0189 20.2745H28.7103C28.9165 20.2745 29.0925 20.1251 29.1284 19.9226L29.4273 18.1934C29.4538 18.0402 29.5598 17.9096 29.7093 17.8623C30.0195 17.762 30.3203 17.6372 30.6079 17.4896C30.746 17.4196 30.9125 17.4347 31.0393 17.5237L32.4753 18.5358C32.6437 18.655 32.8745 18.6342 33.0202 18.4885L34.2159 17.2928C34.3616 17.1472 34.3824 16.9163 34.2632 16.748L33.251 15.312C33.1621 15.1852 33.145 15.0187 33.2169 14.8806C33.3645 14.593 33.4894 14.2941 33.5896 13.9819C33.6369 13.8344 33.7675 13.7265 33.9207 13.7L35.65 13.4011C35.8543 13.3651 36.0019 13.1892 36.0019 12.983V11.2916C36.0019 11.0853 35.8524 10.9094 35.65 10.8735L33.9207 10.5745C33.7675 10.548 33.6369 10.4421 33.5896 10.2926C33.4894 9.98234 33.3645 9.68152 33.2169 9.39395C33.1469 9.25584 33.1621 9.08934 33.251 8.96258L34.2632 7.52659C34.3824 7.35821 34.3616 7.12739 34.2159 6.98171L33.0202 5.786C32.8745 5.64032 32.6437 5.61951 32.4753 5.7387L31.0393 6.75089C30.9125 6.83982 30.746 6.85684 30.6079 6.78495C30.3203 6.63738 30.0214 6.51251 29.7093 6.41224C29.5617 6.36494 29.4538 6.23439 29.4273 6.08114L29.1284 4.3519C29.0925 4.14757 28.9165 4 28.7103 4H27.0189C26.8127 4 26.6367 4.14946 26.6008 4.3519L26.3018 6.08114C26.2754 6.23439 26.1694 6.36494 26.0199 6.41224C25.7097 6.51251 25.4088 6.63738 25.1213 6.78495C24.9832 6.85495 24.8167 6.83982 24.6899 6.75089L23.2539 5.7387C23.0855 5.61951 22.8547 5.64032 22.709 5.786L21.5133 6.98171C21.3676 7.12739 21.3468 7.35821 21.466 7.52659L22.4782 8.96258C22.5671 9.08934 22.5842 9.25584 22.5123 9.39395C22.3647 9.68152 22.2398 9.98045 22.1396 10.2926C22.0923 10.4402 21.9617 10.548 21.8085 10.5745L20.0792 10.8735C19.8749 10.9094 19.7273 11.0853 19.7273 11.2916ZM25.0324 12.1373C25.0324 10.5745 26.3 9.30692 27.8627 9.30692C29.4255 9.30692 30.6931 10.5745 30.6931 12.1373C30.6931 13.7 29.4255 14.9676 27.8627 14.9676C26.3 14.9676 25.0324 13.7 25.0324 12.1373Z" fill="#8B3D99"/>
</svg>
