<svg width="28" height="28" viewBox="0 0 28 28" fill="none" xmlns="http://www.w3.org/2000/svg">
<rect width="28" height="28" rx="14" fill="#10CBB4"/>
<path d="M12.6807 13.1689H13.7334C14.0706 13.1689 14.3486 13.112 14.5674 12.998C14.7861 12.8796 14.9479 12.7155 15.0527 12.5059C15.1621 12.2917 15.2168 12.0433 15.2168 11.7607C15.2168 11.5055 15.1667 11.2799 15.0664 11.084C14.9707 10.8835 14.8226 10.7285 14.6221 10.6191C14.4215 10.5052 14.1686 10.4482 13.8633 10.4482C13.6217 10.4482 13.3984 10.4961 13.1934 10.5918C12.9883 10.6875 12.8242 10.8219 12.7012 10.9951C12.5781 11.1683 12.5166 11.3779 12.5166 11.624H10.541C10.541 11.0771 10.6868 10.6009 10.9785 10.1953C11.2747 9.78971 11.6712 9.47298 12.168 9.24512C12.6647 9.01725 13.2116 8.90332 13.8086 8.90332C14.4831 8.90332 15.0732 9.0127 15.5791 9.23145C16.085 9.44564 16.4792 9.76237 16.7617 10.1816C17.0443 10.6009 17.1855 11.1204 17.1855 11.7402C17.1855 12.0547 17.1126 12.36 16.9668 12.6562C16.821 12.9479 16.6113 13.2122 16.3379 13.4492C16.069 13.6816 15.7409 13.8685 15.3535 14.0098C14.9661 14.1465 14.5309 14.2148 14.0479 14.2148H12.6807V13.1689ZM12.6807 14.666V13.6475H14.0479C14.5902 13.6475 15.0664 13.709 15.4766 13.832C15.8867 13.9551 16.2308 14.1328 16.5088 14.3652C16.7868 14.5931 16.9964 14.8643 17.1377 15.1787C17.279 15.4886 17.3496 15.8327 17.3496 16.2109C17.3496 16.6758 17.2607 17.0905 17.083 17.4551C16.9053 17.8151 16.6546 18.1204 16.3311 18.3711C16.012 18.6217 15.6383 18.8132 15.21 18.9453C14.7816 19.0729 14.3145 19.1367 13.8086 19.1367C13.3893 19.1367 12.9769 19.0798 12.5713 18.9658C12.1702 18.8473 11.8057 18.6719 11.4775 18.4395C11.154 18.2025 10.8942 17.9062 10.6982 17.5508C10.5068 17.1908 10.4111 16.7646 10.4111 16.2725H12.3867C12.3867 16.5277 12.4505 16.7555 12.5781 16.9561C12.7057 17.1566 12.8812 17.3138 13.1045 17.4277C13.3324 17.5417 13.5853 17.5986 13.8633 17.5986C14.1777 17.5986 14.4466 17.5417 14.6699 17.4277C14.8978 17.3092 15.071 17.1452 15.1895 16.9355C15.3125 16.7214 15.374 16.473 15.374 16.1904C15.374 15.8258 15.3079 15.5342 15.1758 15.3154C15.0436 15.0921 14.8545 14.9281 14.6084 14.8232C14.3623 14.7184 14.0706 14.666 13.7334 14.666H12.6807Z" fill="white"/>
</svg>
