<svg width="80" height="80" viewBox="0 0 80 80" fill="none" xmlns="http://www.w3.org/2000/svg">
<path d="M40 76C59.8823 76 76 59.8823 76 40C76 20.1177 59.8823 4 40 4C20.1177 4 4 20.1177 4 40C4 59.8823 20.1177 76 40 76Z" fill="#BD77C7"/>
<path fill-rule="evenodd" clip-rule="evenodd" d="M46.2862 45.6999C49.6617 45.6999 52.7016 47.5687 53.9773 50.4279L54.8916 52.4774C55.7585 54.4205 54.7395 56.6386 52.6157 57.4317C52.438 57.498 52.2555 57.553 52.0696 57.5963C48.0466 58.532 44.0236 58.9999 40.0007 58.9999C35.9777 58.9999 31.9548 58.532 27.9318 57.5963C25.7086 57.0791 24.3646 55.0111 24.9298 52.9771C24.9771 52.8069 25.0372 52.64 25.1098 52.4774L26.0241 50.4279C27.2997 47.5687 30.3397 45.6999 33.7152 45.6999H46.2862ZM40.0007 21C45.2474 21 49.5007 25.2533 49.5007 30.5V34.3C49.5007 39.5467 45.2474 43.8 40.0007 43.8C34.7541 43.8 30.5008 39.5467 30.5008 34.3V30.5C30.5008 25.2533 34.7541 21 40.0007 21Z" fill="#F0CEF5"/>
<circle cx="62.1429" cy="62.1428" r="9.28571" fill="#742384"/>
<path fill-rule="evenodd" clip-rule="evenodd" d="M64.0833 45.3335C65.8815 45.3335 67.3871 46.6311 67.5661 48.3352L67.7395 49.9944C68.5316 50.3599 69.2821 50.7945 69.9823 51.2898L71.6444 50.5776C73.2835 49.8731 75.2163 50.4661 76.1154 51.9492L78.1981 55.3845C79.0972 56.8676 78.67 58.7582 77.2099 59.7577L75.5926 60.8654C75.6257 61.2395 75.6426 61.6179 75.6426 62.0002C75.6426 62.3824 75.6257 62.7609 75.5926 63.1349L77.2099 64.2426C78.67 65.2422 79.0972 67.1328 78.1981 68.6158L76.1154 72.0512C75.2163 73.5342 73.2835 74.1272 71.6444 73.4227L69.9823 72.7105C69.2821 73.2059 68.5316 73.6404 67.7395 74.0059L67.5661 75.6652C67.3961 77.284 66.0287 78.536 64.3507 78.6572L64.0833 78.6668H59.918C58.2097 78.6668 56.7655 77.4957 56.4719 75.9176L56.4352 75.6652L56.2942 74.3263C55.329 73.9461 54.4182 73.4661 53.5759 72.8997L52.3569 73.4227C50.8041 74.0901 48.9876 73.593 48.0362 72.2779L47.8859 72.0512L45.8032 68.6158C44.9541 67.2152 45.288 65.451 46.5577 64.4172L46.7914 64.2426L47.7403 63.5935C47.6749 63.071 47.6413 62.5393 47.6413 62.0002C47.6413 61.461 47.6749 60.9293 47.7403 60.4069L46.7914 59.7577C45.4125 58.8137 44.9548 57.0749 45.6656 55.6352L45.8032 55.3845L47.8859 51.9492C48.7376 50.5442 50.5172 49.938 52.0958 50.4771L52.3569 50.5776L53.5759 51.1006C54.4182 50.5343 55.329 50.0542 56.2942 49.674L56.4352 48.3352C56.6142 46.6311 58.1198 45.3335 59.918 45.3335H64.0833ZM62.0007 55.3335C58.3188 55.3335 55.334 58.3183 55.334 62.0002C55.334 65.6821 58.3188 68.6668 62.0007 68.6668C65.6826 68.6668 68.6673 65.6821 68.6673 62.0002C68.6673 58.3183 65.6826 55.3335 62.0007 55.3335ZM62.0007 58.6668C63.8416 58.6668 65.334 60.1592 65.334 62.0002C65.334 63.8411 63.8416 65.3335 62.0007 65.3335C60.1597 65.3335 58.6673 63.8411 58.6673 62.0002C58.6673 60.1592 60.1597 58.6668 62.0007 58.6668Z" fill="#10CBB4"/>
</svg>
