<svg width="89" height="88" viewBox="0 0 89 88" fill="none" xmlns="http://www.w3.org/2000/svg">
<rect x="0.5" width="88" height="88" rx="16" fill="#F0CEF5"/>
<path fill-rule="evenodd" clip-rule="evenodd" d="M39.5 29C41.341 29 42.8333 30.4924 42.8333 32.3333V39C42.8333 40.841 41.341 42.3333 39.5 42.3333H32.8333C30.9924 42.3333 29.5 40.841 29.5 39V32.3333C29.5 30.4924 30.9924 29 32.8333 29H39.5ZM39.5 33.3333C39.5 32.781 39.0523 32.3333 38.5 32.3333H33.8333C33.281 32.3333 32.8333 32.781 32.8333 33.3333V38C32.8333 38.5523 33.281 39 33.8333 39H38.5C39.0523 39 39.5 38.5523 39.5 38V33.3333ZM39.5 45.6667C41.341 45.6667 42.8333 47.159 42.8333 49V55.6667C42.8333 57.5076 41.341 59 39.5 59H32.8333C30.9924 59 29.5 57.5076 29.5 55.6667V49C29.5 47.159 30.9924 45.6667 32.8333 45.6667H39.5ZM39.5 50C39.5 49.4477 39.0523 49 38.5 49H33.8333C33.281 49 32.8333 49.4477 32.8333 50V54.6667C32.8333 55.219 33.281 55.6667 33.8333 55.6667H38.5C39.0523 55.6667 39.5 55.219 39.5 54.6667V50ZM59.5 32.3333C59.5 30.4924 58.0076 29 56.1667 29H49.5C47.659 29 46.1667 30.4924 46.1667 32.3333V39C46.1667 40.841 47.659 42.3333 49.5 42.3333H56.1667C58.0076 42.3333 59.5 40.841 59.5 39V32.3333ZM55.1667 32.3333C55.719 32.3333 56.1667 32.781 56.1667 33.3333V38C56.1667 38.5523 55.719 39 55.1667 39H50.5C49.9477 39 49.5 38.5523 49.5 38V33.3333C49.5 32.781 49.9477 32.3333 50.5 32.3333H55.1667ZM56.1667 45.6667C58.0076 45.6667 59.5 47.159 59.5 49V55.6667C59.5 57.5076 58.0076 59 56.1667 59H49.5C47.659 59 46.1667 57.5076 46.1667 55.6667V49C46.1667 47.159 47.659 45.6667 49.5 45.6667H56.1667ZM56.1667 50C56.1667 49.4477 55.719 49 55.1667 49H50.5C49.9477 49 49.5 49.4477 49.5 50V54.6667C49.5 55.219 49.9477 55.6667 50.5 55.6667H55.1667C55.719 55.6667 56.1667 55.219 56.1667 54.6667V50ZM37.8333 35.6667C37.8333 36.5871 37.0871 37.3333 36.1667 37.3333C35.2462 37.3333 34.5 36.5871 34.5 35.6667C34.5 34.7462 35.2462 34 36.1667 34C37.0871 34 37.8333 34.7462 37.8333 35.6667ZM52.8333 54C53.7538 54 54.5 53.2538 54.5 52.3333C54.5 51.4129 53.7538 50.6667 52.8333 50.6667C51.9129 50.6667 51.1667 51.4129 51.1667 52.3333C51.1667 53.2538 51.9129 54 52.8333 54Z" fill="#742384"/>
</svg>
