<svg width="28" height="28" viewBox="0 0 28 28" fill="none" xmlns="http://www.w3.org/2000/svg">
<rect width="28" height="28" rx="14" fill="#10CBB4"/>
<path d="M12.5166 14.4678L10.9443 14.0918L11.5117 9.04688H17.1035V10.6396H13.1318L12.8857 12.8477C13.0179 12.7702 13.2184 12.6882 13.4873 12.6016C13.7562 12.5104 14.057 12.4648 14.3896 12.4648C14.8727 12.4648 15.3011 12.54 15.6748 12.6904C16.0485 12.8408 16.3652 13.0596 16.625 13.3467C16.8893 13.6338 17.0898 13.9847 17.2266 14.3994C17.3633 14.8141 17.4316 15.2835 17.4316 15.8076C17.4316 16.2497 17.3633 16.6712 17.2266 17.0723C17.0898 17.4688 16.8825 17.8242 16.6045 18.1387C16.3265 18.4486 15.9779 18.6924 15.5586 18.8701C15.1393 19.0479 14.6426 19.1367 14.0684 19.1367C13.64 19.1367 13.2253 19.0729 12.8242 18.9453C12.4277 18.8177 12.07 18.6286 11.751 18.3779C11.4365 18.1273 11.1836 17.8242 10.9922 17.4688C10.8053 17.1087 10.7074 16.6986 10.6982 16.2383H12.6533C12.6807 16.5208 12.7536 16.7646 12.8721 16.9697C12.9951 17.1702 13.1569 17.3252 13.3574 17.4346C13.5579 17.5439 13.7926 17.5986 14.0615 17.5986C14.3122 17.5986 14.5264 17.5508 14.7041 17.4551C14.8818 17.3594 15.0254 17.2272 15.1348 17.0586C15.2441 16.8854 15.3239 16.6849 15.374 16.457C15.4287 16.2246 15.4561 15.974 15.4561 15.7051C15.4561 15.4362 15.4242 15.1924 15.3604 14.9736C15.2965 14.7549 15.1986 14.5658 15.0664 14.4062C14.9342 14.2467 14.7656 14.1237 14.5605 14.0371C14.36 13.9505 14.1253 13.9072 13.8564 13.9072C13.4919 13.9072 13.2093 13.9642 13.0088 14.0781C12.8128 14.1921 12.6488 14.3219 12.5166 14.4678Z" fill="white"/>
</svg>
