<svg width="420" height="420" viewBox="0 0 420 420" fill="none" xmlns="http://www.w3.org/2000/svg">
<path d="M346.679 0H192.847C182.768 0 174.597 8.17074 174.597 18.2499V344.164C174.597 354.243 182.768 362.414 192.847 362.414H346.679C356.758 362.414 364.929 354.243 364.929 344.164V18.2499C364.929 8.17074 356.758 0 346.679 0Z" fill="#2C2044"/>
<path d="M270.414 354.59C275.812 354.59 280.189 350.213 280.189 344.814C280.189 339.416 275.812 335.039 270.414 335.039C265.015 335.039 260.638 339.416 260.638 344.814C260.638 350.213 265.015 354.59 270.414 354.59Z" fill="#544A69"/>
<g clip-path="url(#clip0_814_5493)">
<rect x="185.06" y="25.6755" width="169.671" height="301.637" rx="6.49832" fill="#742384"/>
<g opacity="0.4" clip-path="url(#clip1_814_5493)">
<path d="M277.142 157.627L420.871 105.78V25.6755H417.813L274.727 153.404L283.738 150.615L277.142 157.627Z" fill="#8B3D99"/>
<path d="M269.895 25.6755L269.895 148.276L395.468 25.6755H326.81L276.183 131.486L301.404 62.5926L295.016 65.9804L296.042 57.1548L286.416 67.3993L295.488 25.6755H269.895Z" fill="#8B3D99"/>
<path d="M263.059 154.151L255.309 139.968L260.389 145.822L222.433 25.6755H152.925L263.059 154.151Z" fill="#8B3D99"/>
<path d="M118.919 67.645L252.659 150.084L138.711 103.928L179.984 128.894L118.919 117.725V67.645Z" fill="#8B3D99"/>
<path d="M118.919 249.652L265.425 198.659L255.197 204.496L264.743 202.064L124.503 327.313H118.919V249.652Z" fill="#8B3D99"/>
<path d="M271.911 208.233L260.837 288.633L253.959 271.636L242.418 327.313H159.381L271.911 208.233Z" fill="#8B3D99"/>
<path d="M276.907 200.949L384.533 327.313H316.337L278.797 209.582L284.604 217.137L276.907 200.949Z" fill="#8B3D99"/>
<path d="M288.429 205.87L420.871 288.075V237.975L360.83 227.038L399.15 250.147L288.429 205.87Z" fill="#8B3D99"/>
</g>
</g>
<g clip-path="url(#clip2_814_5493)">
<path fill-rule="evenodd" clip-rule="evenodd" d="M333.205 182.881C333.579 183.757 334.278 184.455 335.153 184.828C336.269 185.305 337.864 185.986 339.137 186.529C339.915 186.861 339.913 187.962 339.137 188.294L335.153 189.994C334.276 190.368 333.579 191.065 333.205 191.942C332.729 193.058 332.048 194.653 331.505 195.926C331.173 196.703 330.072 196.703 329.74 195.926C329.197 194.653 328.515 193.058 328.039 191.942C327.666 191.065 326.967 190.368 326.092 189.994C324.975 189.518 323.38 188.837 322.108 188.294C321.33 187.962 321.33 186.861 322.108 186.529C323.38 185.986 324.975 185.305 326.092 184.828C326.968 184.455 327.666 183.756 328.039 182.881C328.515 181.765 329.197 180.169 329.74 178.897C330.072 178.119 331.173 178.119 331.505 178.897C332.048 180.169 332.729 181.765 333.205 182.881V182.881Z" fill="#F4C12A"/>
</g>
<g clip-path="url(#clip3_814_5493)">
<path fill-rule="evenodd" clip-rule="evenodd" d="M321.064 121.687C321.195 121.994 321.439 122.238 321.746 122.369C322.136 122.536 322.695 122.774 323.14 122.964C323.412 123.08 323.412 123.466 323.14 123.582L321.746 124.177C321.439 124.308 321.195 124.552 321.064 124.859C320.897 125.249 320.659 125.808 320.469 126.253C320.352 126.525 319.967 126.525 319.851 126.253C319.661 125.808 319.422 125.249 319.256 124.859C319.125 124.552 318.88 124.308 318.574 124.177C318.183 124.01 317.625 123.772 317.18 123.582C316.908 123.466 316.908 123.08 317.18 122.964C317.625 122.774 318.183 122.536 318.574 122.369C318.881 122.238 319.125 121.994 319.256 121.687C319.422 121.297 319.661 120.738 319.851 120.293C319.967 120.021 320.352 120.021 320.469 120.293C320.659 120.738 320.897 121.297 321.064 121.687V121.687Z" fill="#F4C12A"/>
</g>
<g clip-path="url(#clip4_814_5493)">
<path fill-rule="evenodd" clip-rule="evenodd" d="M211.179 189.918C211.272 190.137 211.447 190.311 211.666 190.405C211.945 190.524 212.344 190.694 212.662 190.83C212.856 190.913 212.856 191.188 212.662 191.271L211.666 191.696C211.447 191.789 211.272 191.964 211.179 192.183C211.06 192.462 210.89 192.861 210.754 193.179C210.671 193.373 210.396 193.373 210.313 193.179C210.177 192.861 210.007 192.462 209.888 192.183C209.794 191.964 209.619 191.789 209.401 191.696C209.122 191.577 208.723 191.407 208.405 191.271C208.21 191.188 208.21 190.913 208.405 190.83C208.723 190.694 209.122 190.524 209.401 190.405C209.62 190.311 209.794 190.136 209.888 189.918C210.007 189.639 210.177 189.24 210.313 188.922C210.396 188.727 210.671 188.727 210.754 188.922C210.89 189.24 211.06 189.639 211.179 189.918V189.918Z" fill="#F4C12A"/>
</g>
<g clip-path="url(#clip5_814_5493)">
<path fill-rule="evenodd" clip-rule="evenodd" d="M236.874 107.887C237.294 109.037 238.08 109.952 239.063 110.442C240.317 111.067 242.11 111.962 243.54 112.674C244.414 113.11 244.412 114.554 243.54 114.99L239.063 117.221C238.078 117.711 237.294 118.627 236.874 119.777C236.339 121.242 235.573 123.335 234.963 125.005C234.59 126.025 233.354 126.025 232.98 125.005C232.37 123.335 231.604 121.242 231.069 119.777C230.65 118.627 229.864 117.711 228.881 117.221C227.626 116.597 225.834 115.702 224.404 114.99C223.53 114.554 223.53 113.11 224.404 112.674C225.834 111.962 227.626 111.067 228.881 110.442C229.866 109.952 230.65 109.035 231.069 107.887C231.604 106.422 232.37 104.329 232.98 102.659C233.354 101.638 234.59 101.638 234.963 102.659C235.573 104.329 236.339 106.422 236.874 107.887V107.887Z" fill="#F4C12A"/>
<path fill-rule="evenodd" clip-rule="evenodd" d="M213.164 131.146C213.321 131.575 213.615 131.918 213.982 132.101C214.451 132.334 215.121 132.668 215.656 132.935C215.982 133.098 215.982 133.637 215.656 133.8L213.982 134.634C213.614 134.817 213.321 135.16 213.164 135.589C212.964 136.137 212.678 136.919 212.45 137.543C212.311 137.925 211.849 137.925 211.709 137.543C211.481 136.919 211.195 136.137 210.995 135.589C210.838 135.16 210.544 134.817 210.177 134.634C209.708 134.401 209.038 134.066 208.504 133.8C208.177 133.637 208.177 133.098 208.504 132.935C209.038 132.668 209.708 132.334 210.177 132.101C210.545 131.918 210.838 131.575 210.995 131.146C211.195 130.598 211.481 129.816 211.709 129.192C211.849 128.81 212.311 128.81 212.45 129.192C212.678 129.816 212.964 130.598 213.164 131.146V131.146Z" fill="#F4C12A"/>
</g>
<ellipse cx="270.35" cy="229.033" rx="57.5426" ry="8.41532" fill="#5E186C"/>
<path d="M233.483 158.416H306.307V221.525C306.307 221.863 306.033 222.137 305.695 222.137H234.095C233.757 222.137 233.483 221.863 233.483 221.525V158.416Z" fill="#F0CEF5"/>
<path d="M246.487 195.44C246.487 195.102 246.761 194.828 247.098 194.828H292.691C293.028 194.828 293.302 195.102 293.302 195.44V222.137H246.487V195.44Z" fill="#CE92D6"/>
<path fill-rule="evenodd" clip-rule="evenodd" d="M239.71 139.284C239.883 139.049 240.158 138.91 240.45 138.91H299.34C299.632 138.91 299.907 139.049 300.079 139.284L314.109 158.416H225.68L239.71 139.284Z" fill="#F0CEF5"/>
<rect x="246.487" y="179.223" width="46.8154" height="10.4034" rx="0.305803" fill="#10CBB4"/>
<path d="M225.68 158.416H243.886V164.918C243.886 169.946 239.811 174.021 234.783 174.021V174.021C229.756 174.021 225.68 169.946 225.68 164.918V158.416Z" fill="#8B3D99"/>
<path d="M243.886 158.416H260.792V165.568C260.792 170.237 257.007 174.021 252.339 174.021V174.021C247.671 174.021 243.886 170.237 243.886 165.568V158.416Z" fill="#CE92D6"/>
<path d="M260.792 158.416H278.998V164.918C278.998 169.946 274.922 174.021 269.895 174.021V174.021C264.868 174.021 260.792 169.946 260.792 164.918V158.416Z" fill="#8B3D99"/>
<path d="M260.792 158.416H278.998L276.397 138.91H263.393L260.792 158.416Z" fill="#CE92D6"/>
<path d="M225.68 158.416H243.886L250.388 138.91H239.593C238.223 138.91 236.953 139.629 236.248 140.804L225.68 158.416Z" fill="#CE92D6"/>
<path d="M314.109 158.416H295.903L289.401 138.91H300.197C301.567 138.91 302.837 139.629 303.542 140.804L314.109 158.416Z" fill="#CE92D6"/>
<path d="M278.998 158.416H295.903V165.568C295.903 170.237 292.119 174.021 287.45 174.021V174.021C282.782 174.021 278.998 170.237 278.998 165.568V158.416Z" fill="#CE92D6"/>
<path d="M295.903 158.416H314.109V164.918C314.109 169.946 310.034 174.021 305.006 174.021V174.021C299.979 174.021 295.903 169.946 295.903 164.918V158.416Z" fill="#8B3D99"/>
<path d="M347.227 322.454H344.404V287.46C344.404 279.476 337.516 272.978 329.047 272.978C320.579 272.978 313.691 279.476 313.691 287.46V322.454H310.868V287.46C310.868 277.918 319.022 270.156 329.047 270.156C339.073 270.156 347.227 277.918 347.227 287.46V322.454Z" fill="#004D43"/>
<path d="M365.815 320.793H362.993V285.799C362.993 277.815 356.105 271.318 347.636 271.318C339.168 271.318 332.28 277.815 332.28 285.799V320.793H329.457V285.799C329.457 276.258 337.61 268.495 347.636 268.495C357.662 268.495 365.815 276.258 365.815 285.799V320.793Z" fill="#008C7B"/>
<path d="M392.28 305.823H317.229L324.31 419.951H406.154L392.28 305.823Z" fill="#2BEED5"/>
<path d="M297.813 419.951H324.31L317.229 305.823L307.194 311.115L297.21 305.823L297.813 419.951Z" fill="#00AD97"/>
<path d="M259.507 342.421H256.684V314.592C256.684 308.4 251.335 303.366 244.762 303.366C238.19 303.366 232.84 308.4 232.84 314.592V342.421H230.018V314.592C230.018 306.848 236.632 300.543 244.762 300.543C252.892 300.543 259.507 306.848 259.507 314.592V342.421Z" fill="#004D43"/>
<path d="M274.284 341.103H271.462V313.275C271.462 307.083 266.112 302.049 259.54 302.049C252.967 302.049 247.618 307.083 247.618 313.275V341.103H244.795V313.275C244.795 305.531 251.41 299.226 259.54 299.226C267.67 299.226 274.284 305.531 274.284 313.275V341.103Z" fill="#008C7B"/>
<path d="M295.042 329.196H235.367L240.994 419.951H306.075L295.042 329.196Z" fill="#2BEED5"/>
<path d="M219.921 419.951H240.994L235.367 329.196L227.383 333.407L219.446 329.196L219.921 419.951Z" fill="#00AD97"/>
<path d="M156.525 204.987C145.959 204.987 135.695 199.42 128.146 189.507C120.562 179.555 115.727 165.433 114.162 148.665C113.528 141.853 118.536 135.82 125.342 135.186C132.158 134.557 138.187 139.56 138.821 146.366C141.05 170.297 150.695 180.546 156.827 180.204C162.97 179.848 171.376 168.578 170.836 144.627C170.683 137.791 176.097 132.119 182.938 131.966C189.774 131.807 195.446 137.227 195.599 144.068C195.981 160.851 192.796 175.399 186.4 186.154C179.683 197.443 169.424 204.284 158.259 204.933C157.679 204.968 157.1 204.982 156.525 204.982V204.987Z" fill="#FCDABA"/>
<path d="M146.286 167.662C142.407 169.554 137.444 171.575 131.514 173.096C125.188 174.721 119.541 175.32 115.038 175.489C114.662 171.273 114.389 166.78 114.285 162.044C114.191 157.849 114.236 153.846 114.38 150.057C122.459 148.362 130.538 146.673 138.618 144.979C141.174 152.538 143.73 160.103 146.286 167.662Z" fill="#DE4A65"/>
<path d="M126.496 159.905C133.335 159.905 138.88 154.36 138.88 147.52C138.88 140.681 133.335 135.136 126.496 135.136C119.656 135.136 114.112 140.681 114.112 147.52C114.112 154.36 119.656 159.905 126.496 159.905Z" fill="#DE4A65"/>
<path d="M183.225 156.739C190.064 156.739 195.609 151.194 195.609 144.355C195.609 137.515 190.064 131.971 183.225 131.971C176.385 131.971 170.841 137.515 170.841 144.355C170.841 151.194 176.385 156.739 183.225 156.739Z" fill="#FCDABA"/>
<path d="M179.926 128.028L174.121 135.964L192.325 152.752L204.962 152.241L203.941 127.057L179.926 128.028Z" fill="#FCDABA"/>
<path d="M170.851 144.855C170.732 142.844 170.707 139.763 171.341 136.097C172.183 131.263 173.556 129.093 174.551 125.229C175.175 122.802 175.73 119.414 175.473 115.069C175.364 113.241 176.746 111.671 178.574 111.587C180.263 111.508 181.749 112.726 181.962 114.405C182.368 117.571 182.477 120.835 182.234 124.164C183.339 125.165 185.642 127.542 186.559 131.302C188.238 138.203 183.775 143.701 183.225 144.355L170.851 144.855Z" fill="#FCDABA"/>
<path d="M180.238 147.218C181.169 145.93 183.993 141.7 183.82 135.647C183.656 129.871 180.867 125.932 179.872 124.649C180.322 124.288 181.12 123.55 181.69 122.356C182.274 121.132 182.343 120.028 182.338 119.448C182.353 120.394 182.338 121.37 182.309 122.381C182.289 122.99 182.259 123.584 182.225 124.164C186.609 126.294 189.402 130.683 189.368 135.394C189.328 140.769 185.623 145.628 180.228 147.213L180.238 147.218Z" fill="#DCAC82"/>
<path d="M203.822 99.3646L184.024 100.167C182.657 100.222 181.594 101.375 181.649 102.742L183.621 151.411C183.676 152.778 184.829 153.841 186.196 153.785L205.994 152.983C207.361 152.928 208.424 151.775 208.369 150.408L206.397 101.739C206.342 100.372 205.189 99.3092 203.822 99.3646Z" fill="#2C2044"/>
<path d="M203.658 101.439L184.355 102.221C183.535 102.254 182.897 102.946 182.93 103.766L184.815 150.292C184.848 151.112 185.54 151.75 186.36 151.716L205.664 150.934C206.484 150.901 207.122 150.209 207.088 149.389L205.203 102.863C205.17 102.043 204.478 101.405 203.658 101.439Z" fill="#742384"/>
<path d="M209.631 121.427C211.212 120.79 211.977 118.992 211.34 117.411C210.703 115.83 208.904 115.065 207.324 115.702L204.493 116.843C202.913 117.48 202.147 119.278 202.785 120.859C203.422 122.439 205.22 123.204 206.801 122.567L209.631 121.427Z" fill="#FCDABA"/>
<path d="M210.244 130.214C211.907 129.838 212.949 128.185 212.573 126.523C212.197 124.86 210.544 123.818 208.882 124.194L205.326 124.998C203.664 125.375 202.621 127.027 202.997 128.69C203.373 130.352 205.026 131.395 206.688 131.018L210.244 130.214Z" fill="#FCDABA"/>
<path d="M210.8 138.666C212.489 138.44 213.676 136.887 213.45 135.198C213.224 133.509 211.672 132.322 209.983 132.548L206.477 133.016C204.787 133.242 203.601 134.794 203.827 136.484C204.052 138.173 205.605 139.36 207.294 139.134L210.8 138.666Z" fill="#FCDABA"/>
<path d="M210.096 147.128C211.786 146.903 212.972 145.35 212.747 143.661C212.521 141.971 210.968 140.785 209.279 141.011L206.24 141.417C204.55 141.642 203.364 143.195 203.589 144.884C203.815 146.574 205.368 147.76 207.057 147.535L210.096 147.128Z" fill="#FCDABA"/>
<path d="M110.397 117.288C110.397 113.296 110.54 105.786 110.555 101.11C98.8548 101.229 87.1444 101.348 75.4439 101.085C75.3449 106.475 75.2606 111.057 74.587 116.679C74.2996 119.091 73.4823 124.659 72.8928 127.042C70.5448 136.553 69.1974 146.713 70.099 153.906C71.2432 163.035 76.2217 167.815 82.3939 172.957C97.5619 179.11 115.672 168.89 115.672 153.435C115.672 139.431 110.392 131.297 110.392 117.293L110.397 117.288Z" fill="#2C2044"/>
<path d="M126.491 135.136H54.6634C47.8238 135.136 42.2793 140.681 42.2793 147.52C42.2793 154.36 47.8238 159.905 54.6634 159.905H126.491C133.331 159.905 138.875 154.36 138.875 147.52C138.875 140.681 133.331 135.136 126.491 135.136Z" fill="#DE4A65"/>
<path d="M101.871 130.539V107.302H80.6698V130.539C79.0896 130.633 77.5243 130.738 75.9985 130.861C78.1583 137.326 84.2364 141.858 91.2706 141.858C98.3048 141.858 104.383 137.321 106.543 130.861C105.017 130.733 103.452 130.629 101.871 130.539Z" fill="#FCDABA"/>
<path d="M126.699 147.525C129.3 154.218 129.88 164.358 129.741 169.415C129.444 180.194 124.658 198.577 119.774 215.197H62.7628L56.442 159.909C56.442 159.909 55.476 144.187 54.6587 135.141C62.0842 133.383 65.6558 131.733 75.994 130.866C78.1587 137.331 84.2319 141.863 91.266 141.863C98.3002 141.863 104.378 137.326 106.538 130.866C116.876 131.733 127.205 135.166 127.205 135.166C127.036 139.287 126.868 143.409 126.699 147.53V147.525Z" fill="#DE4A65"/>
<path d="M70.8817 272.714C80.6266 272.714 88.5265 264.814 88.5265 255.069C88.5265 245.324 80.6266 237.424 70.8817 237.424C61.1367 237.424 53.2368 245.324 53.2368 255.069C53.2368 264.814 61.1367 272.714 70.8817 272.714Z" fill="#002649"/>
<path d="M111.571 272.714C121.316 272.714 129.215 264.814 129.215 255.069C129.215 245.324 121.316 237.424 111.571 237.424C101.826 237.424 93.9258 245.324 93.9258 255.069C93.9258 264.814 101.826 272.714 111.571 272.714Z" fill="#002649"/>
<path d="M70.8814 338.265C80.1832 338.265 87.7238 330.725 87.7238 321.423C87.7238 312.121 80.1832 304.581 70.8814 304.581C61.5796 304.581 54.0391 312.121 54.0391 321.423C54.0391 330.725 61.5796 338.265 70.8814 338.265Z" fill="#002649"/>
<path d="M111.571 338.265C120.873 338.265 128.413 330.725 128.413 321.423C128.413 312.121 120.873 304.581 111.571 304.581C102.269 304.581 94.7285 312.121 94.7285 321.423C94.7285 330.725 102.269 338.265 111.571 338.265Z" fill="#002649"/>
<path d="M88.5266 255.178L53.2418 255.074C52.2957 233.902 58.9583 220.294 62.7627 215.197H119.69C123.494 220.294 130.157 233.902 129.211 255.074L93.926 255.178H88.5266Z" fill="#002649"/>
<path d="M88.5264 255.178H53.2417L54.0392 321.423H87.724L88.5264 255.178Z" fill="#002649"/>
<path d="M93.9258 255.178H129.211L128.413 321.423H94.7283L93.9258 255.178Z" fill="#002649"/>
<path d="M101.871 116.54V126.022C98.2105 126.418 92.3108 126.413 87.5355 123.376C83.7311 120.959 82.562 117.833 82.1855 116.54H101.871Z" fill="#DCAC82"/>
<path d="M99.5781 411.326H122.652V392.047H99.5781V411.326Z" fill="#FCDABA"/>
<path d="M97.5024 420H150.64C150.64 414.397 147.366 409.305 142.263 406.987L124.871 399.076C122.726 400.839 119.274 403.222 114.513 404.782C107.053 407.229 100.589 406.268 97.5024 405.595V420Z" fill="#002649"/>
<path d="M97.8196 396.961H124.416L128.413 321.423H94.7285L97.8196 396.961Z" fill="#002649"/>
<path d="M58.8936 411.326H81.9676V392.047H58.8936V411.326Z" fill="#FCDABA"/>
<path d="M56.8135 420H109.951C109.951 414.397 106.677 409.305 101.575 406.987L84.1823 399.076C82.0374 400.839 78.5847 403.222 73.8243 404.782C66.3641 407.229 59.8996 406.268 56.8135 405.595V420Z" fill="#003E75"/>
<path d="M57.1301 396.961H83.7262L87.7238 321.423H54.0391L57.1301 396.961Z" fill="#002649"/>
<path d="M35.2852 247.529C37.4499 247.534 39.6444 246.975 41.6456 245.786C47.5256 242.288 49.4575 234.69 45.9603 228.81C39.0648 217.213 36.6672 207.445 38.8468 199.776C39.5701 197.225 40.6252 195.506 44.5336 189.329C45.7225 187.452 47.0649 185.327 48.6649 182.746C54.6588 173.061 60.3555 163.174 65.6014 153.351C68.8213 147.317 66.5426 139.813 60.514 136.593C54.4805 133.368 46.9758 135.647 43.7559 141.68C38.7577 151.038 33.3235 160.469 27.607 169.703C26.0764 172.175 24.7637 174.25 23.6095 176.073C19.1908 183.053 16.7586 186.897 15.0248 193C10.9133 207.474 14.1629 223.777 24.6745 241.456C26.9829 245.34 31.0795 247.5 35.2901 247.515L35.2852 247.529Z" fill="#FCDABA"/>
<path d="M57.8638 175.583C54.1437 175.023 48.7591 173.775 42.8791 170.768C37.6827 168.108 33.8684 164.972 31.3223 162.53C33.3879 158.077 35.9737 153.257 39.2184 148.274C40.6599 146.059 42.1212 143.989 43.5677 142.062C50.9733 145.703 58.384 149.348 65.7897 152.989C63.1444 160.519 60.5041 168.053 57.8589 175.583H57.8638Z" fill="#DE4A65"/>
<path d="M54.679 159.909C61.5185 159.909 67.0631 154.365 67.0631 147.525C67.0631 140.686 61.5185 135.141 54.679 135.141C47.8395 135.141 42.2949 140.686 42.2949 147.525C42.2949 154.365 47.8395 159.909 54.679 159.909Z" fill="#DE4A65"/>
<path d="M35.3148 247.525C42.1543 247.525 47.6988 241.98 47.6988 235.141C47.6988 228.301 42.1543 222.756 35.3148 222.756C28.4752 222.756 22.9307 228.301 22.9307 235.141C22.9307 241.98 28.4752 247.525 35.3148 247.525Z" fill="#FCDABA"/>
<path d="M61.3512 239.044C60.7567 240.371 59.3202 241.119 57.8985 240.827C57.0712 240.659 56.1796 240.426 55.2433 240.114C53.7473 239.609 52.4842 239.004 51.4687 238.435C52.608 239.945 53.9901 241.565 55.6644 243.195C57.7945 245.266 59.9146 246.9 61.8515 248.158C64.9673 250.189 61.6038 254.281 58.5524 253.077C61.579 255.173 59.0626 259.205 56.1152 259.002C55.2533 261.31 52.291 262.291 50.2105 260.894C49.616 262.98 46.8965 264.927 44.5336 263.054C40.9224 260.191 37.0437 256.684 33.1997 252.429C30.3612 249.283 25.9277 243.215 25.9277 243.215L44.707 227.066C44.707 227.066 49.1801 230.429 52.2811 231.935C54.7876 233.154 57.2099 234.08 59.4539 234.784C61.2323 235.343 62.119 237.34 61.3512 239.044Z" fill="#FCDABA"/>
<path d="M56.1104 259.25C56.1847 259.25 56.2591 259.215 56.3086 259.151C56.3878 259.042 56.368 258.888 56.2591 258.804C54.5649 257.546 52.9104 256.189 51.35 254.777C49.5023 253.107 47.7289 251.309 46.0843 249.442C45.9951 249.338 45.8366 249.328 45.7326 249.422C45.6286 249.511 45.6186 249.67 45.7128 249.774C47.3722 251.656 49.1555 253.469 51.0181 255.153C52.5934 256.575 54.2528 257.942 55.9618 259.21C56.0064 259.245 56.056 259.26 56.1104 259.26V259.25Z" fill="#DCAC82"/>
<path d="M58.5474 253.325C58.6267 253.325 58.7059 253.286 58.7505 253.216C58.8298 253.102 58.8 252.949 58.6861 252.875C57.418 252.003 56.1697 251.066 54.9659 250.096C53.2966 248.748 51.6817 247.302 50.1659 245.796C50.0668 245.702 49.9132 245.702 49.8142 245.796C49.7151 245.89 49.72 246.048 49.8142 246.148C51.3448 247.668 52.9746 249.13 54.6539 250.487C55.8675 251.463 57.1257 252.404 58.4038 253.286C58.4483 253.315 58.4929 253.33 58.5425 253.33L58.5474 253.325Z" fill="#DCAC82"/>
<path d="M50.1659 261.132C50.2452 261.132 50.3195 261.097 50.369 261.028C50.4483 260.914 50.4235 260.76 50.3096 260.681C49.304 259.968 48.3133 259.21 47.3622 258.422C45.4005 256.797 43.5479 254.999 41.8587 253.077C41.7695 252.973 41.611 252.963 41.507 253.057C41.403 253.147 41.3931 253.305 41.4872 253.409C43.1962 255.351 45.0637 257.164 47.0452 258.809C48.0062 259.606 49.0068 260.374 50.0223 261.092C50.0669 261.122 50.1164 261.137 50.1659 261.137V261.132Z" fill="#DCAC82"/>
<path d="M75.9346 96.2703H78.9068V107.168H75.9346C73.7451 107.168 71.9717 105.395 71.9717 103.205V100.233C71.9717 98.0437 73.7451 96.2703 75.9346 96.2703Z" fill="#FCDABA"/>
<path d="M75.1865 103.483C75.1122 103.478 75.0428 103.438 74.9982 103.369C74.9239 103.255 74.9586 103.101 75.0726 103.027L77.1035 101.719L75.0775 100.411C74.9636 100.337 74.9289 100.183 75.0032 100.07C75.0775 99.9556 75.2311 99.9209 75.345 99.9952L77.693 101.511C77.7624 101.556 77.807 101.635 77.807 101.719C77.807 101.803 77.7624 101.883 77.693 101.927L75.3401 103.443C75.2955 103.473 75.241 103.488 75.1865 103.483Z" fill="#DCAC82"/>
<path d="M106.935 96.2949H109.907C112.096 96.2949 113.87 98.0733 113.865 100.263V103.235C113.865 105.424 112.086 107.198 109.897 107.193H106.925L106.935 96.2949Z" fill="#DCAC82"/>
<path d="M93.7676 73.2406H96.2445C104.448 73.2406 111.105 79.8983 111.105 88.1015V110.393C111.105 117.229 105.557 122.777 98.7213 122.777H93.7676C85.5644 122.777 78.9067 116.119 78.9067 107.916V88.1065C78.9067 79.9032 85.5694 73.2406 93.7676 73.2406Z" fill="#FCDABA"/>
<path d="M91.2412 101.521C91.9005 101.521 92.435 100.811 92.435 99.9357C92.435 99.0603 91.9005 98.3506 91.2412 98.3506C90.5819 98.3506 90.0474 99.0603 90.0474 99.9357C90.0474 100.811 90.5819 101.521 91.2412 101.521Z" fill="#2C2044"/>
<path d="M106.429 101.531C107.089 101.531 107.623 100.821 107.623 99.9458C107.623 99.0703 107.089 98.3606 106.429 98.3606C105.77 98.3606 105.235 99.0703 105.235 99.9458C105.235 100.821 105.77 101.531 106.429 101.531Z" fill="#2C2044"/>
<path d="M87.8778 94.6503C87.7985 94.6453 87.7242 94.6007 87.6796 94.5264C87.6103 94.4075 87.6499 94.2589 87.7688 94.1896C88.4029 93.823 89.4332 93.397 90.7509 93.4416C91.9249 93.4763 92.8265 93.8725 93.3862 94.1945C93.5051 94.2639 93.5447 94.4125 93.4754 94.5314C93.406 94.6503 93.2525 94.6899 93.1385 94.6205C92.6333 94.3283 91.811 93.9667 90.741 93.932C89.5372 93.8924 88.5961 94.2837 88.0214 94.6156C87.9769 94.6404 87.9273 94.6503 87.8778 94.6503Z" fill="#2C2044"/>
<path d="M104.799 94.6652C104.73 94.6602 104.666 94.6256 104.621 94.5661C104.542 94.4571 104.562 94.2986 104.671 94.2194C105.111 93.8924 105.835 93.4912 106.766 93.4565C107.821 93.4169 108.638 93.8528 109.139 94.2243C109.248 94.3036 109.272 94.4621 109.188 94.5711C109.109 94.68 108.95 94.7048 108.841 94.6206C108.406 94.2937 107.692 93.9122 106.781 93.9519C105.978 93.9816 105.349 94.3333 104.963 94.6206C104.913 94.6553 104.854 94.6751 104.794 94.6701L104.799 94.6652Z" fill="#2C2044"/>
<path d="M87.8929 104.642C88.8477 104.642 89.6217 104.212 89.6217 103.681C89.6217 103.15 88.8477 102.72 87.8929 102.72C86.9381 102.72 86.1641 103.15 86.1641 103.681C86.1641 104.212 86.9381 104.642 87.8929 104.642Z" fill="#FBCCA1"/>
<path d="M109.377 104.662C110.332 104.662 111.106 104.231 111.106 103.701C111.106 103.17 110.332 102.74 109.377 102.74C108.422 102.74 107.648 103.17 107.648 103.701C107.648 104.231 108.422 104.662 109.377 104.662Z" fill="#FBCCA1"/>
<path d="M77.5544 108.803C78.3915 108.803 79.0702 108.124 79.0702 107.287C79.0702 106.45 78.3915 105.771 77.5544 105.771C76.7172 105.771 76.0386 106.45 76.0386 107.287C76.0386 108.124 76.7172 108.803 77.5544 108.803Z" fill="#57B43C"/>
<path d="M96.2842 73.2406H90.32C82.1119 73.2307 75.4542 79.8785 75.4492 88.0867V96.2651L83.5187 96.2701C83.7466 94.4422 83.9596 92.8075 84.2667 91.2917C91.3603 90.7121 97.5474 87.7498 101.892 83.1826C103.412 84.7875 106.39 87.4873 111.115 89.3696C111.145 88.7009 111.145 88.0322 111.115 87.3684C110.793 79.4624 104.205 73.2505 96.2842 73.2406Z" fill="#2C2044"/>
<path d="M99.1272 109.615C98.4684 109.615 97.8096 109.566 97.1606 109.476C94.7383 109.13 93.6782 109.779 93.8764 111.299C94.0844 112.909 95.0454 114.861 99.1272 114.871C103.204 114.871 104.17 112.919 104.383 111.309C104.581 109.788 103.521 109.14 101.099 109.481C100.45 109.575 99.791 109.62 99.1322 109.62L99.1272 109.615Z" fill="#6B222F"/>
<path d="M102.986 113.86C102.199 114.46 100.985 114.866 99.1226 114.866C97.26 114.861 96.0463 114.455 95.2637 113.851C96.1058 112.924 97.5176 112.315 99.1226 112.32C100.728 112.32 102.144 112.929 102.986 113.86Z" fill="#DE4A65"/>
<path d="M103.13 109.477L102.729 110.309C102.58 110.616 102.288 110.819 101.956 110.864C100.559 111.037 98.8602 111.176 96.9184 111.171C95.8137 111.171 94.7883 111.126 93.8521 111.057C93.7976 109.709 94.8725 109.15 97.1561 109.482C97.8051 109.571 98.4639 109.62 99.1227 109.62C99.7816 109.62 100.445 109.571 101.089 109.482C101.931 109.363 102.61 109.363 103.13 109.482V109.477Z" fill="white"/>
<path fill-rule="evenodd" clip-rule="evenodd" d="M197.556 118.356L196.287 120.95C196.235 121.056 196.108 121.099 196.004 121.046C195.9 120.994 195.856 120.865 195.909 120.759L197.178 118.165C197.23 118.059 197.357 118.016 197.461 118.069C197.566 118.121 197.608 118.25 197.556 118.356ZM194.738 121.16C193.949 121.191 193.712 120.674 193.646 120.413C193.618 120.311 193.615 120.238 193.614 120.203C193.609 120.079 193.704 119.975 193.826 119.97C193.94 119.966 194.036 120.049 194.053 120.16C194.053 120.161 194.054 120.162 194.054 120.163C194.055 120.17 194.056 120.182 194.058 120.198C194.06 120.21 194.063 120.223 194.063 120.236C194.064 120.245 194.065 120.254 194.065 120.264C194.068 120.282 194.071 120.301 194.075 120.322C194.085 120.365 194.102 120.413 194.128 120.461C194.131 120.466 194.133 120.47 194.136 120.475C194.216 120.613 194.375 120.746 194.673 120.75C195.121 120.746 195.247 120.589 195.241 120.401C195.216 120.184 195.197 120.027 194.672 119.833C194.059 119.606 193.668 119.47 193.647 118.947C193.627 118.424 194.098 118.189 194.537 118.173C194.648 118.168 194.744 118.178 194.83 118.195C195.003 118.223 195.195 118.287 195.343 118.423L195.343 118.422C195.38 118.453 195.42 118.499 195.456 118.555C195.46 118.561 195.463 118.566 195.467 118.572C195.476 118.587 195.485 118.604 195.494 118.621C195.497 118.626 195.499 118.632 195.502 118.637C195.549 118.733 195.585 118.847 195.589 118.964C195.59 118.985 195.594 119.02 195.588 119.06C195.588 119.063 195.587 119.067 195.587 119.07C195.585 119.079 195.582 119.088 195.579 119.098C195.577 119.102 195.577 119.106 195.575 119.109C195.574 119.113 195.572 119.116 195.57 119.12C195.537 119.194 195.465 119.248 195.378 119.251C195.302 119.254 195.234 119.217 195.192 119.16C195.189 119.155 195.186 119.149 195.183 119.144C195.176 119.134 195.171 119.123 195.166 119.111C195.166 119.11 195.165 119.109 195.164 119.107C195.162 119.101 195.16 119.095 195.159 119.089C195.147 119.054 195.141 119.016 195.14 118.984C195.139 118.977 195.139 118.971 195.138 118.964C195.137 118.954 195.136 118.944 195.135 118.935C195.126 118.879 195.109 118.836 195.088 118.801C195.085 118.798 195.083 118.794 195.081 118.791C195.077 118.785 195.073 118.779 195.068 118.773C194.952 118.616 194.713 118.543 194.541 118.55C194.309 118.559 194.065 118.698 194.074 118.935C194.083 119.172 194.312 119.306 194.695 119.418C195.445 119.664 195.606 119.88 195.683 120.149C195.768 120.442 195.667 121.125 194.738 121.16ZM198.767 118.521C198.286 116.674 196.391 115.577 194.537 116.072C192.681 116.568 191.568 118.466 192.049 120.313C192.208 120.924 192.521 121.452 192.937 121.868C193.15 122.082 192.741 123.326 193.001 123.476C193.215 123.6 194.092 122.641 194.328 122.717C194.939 122.912 195.612 122.94 196.28 122.762C198.134 122.267 199.248 120.368 198.767 118.521Z" fill="#10CBB4"/>
<path fill-rule="evenodd" clip-rule="evenodd" d="M197.799 124.247C198.064 124.088 198.568 124.023 198.824 124.348C199.08 124.672 199.161 125.302 199.146 125.824C199.13 126.364 198.954 127.298 198.651 127.961C198.358 128.605 197.945 129.066 197.338 128.993C196.86 128.935 196.622 128.655 196.587 128.611L196.583 128.605C196.583 128.605 196.557 128.751 196.49 129.365C196.471 129.537 196.453 129.759 196.432 129.997C196.827 129.925 197.133 129.871 197.266 129.85C197.811 129.761 199.875 129.412 200.453 129.371C201.031 129.33 201.154 129.418 201.252 129.563C201.349 129.709 201.395 129.949 201.227 130.133C201.06 130.316 199.622 130.464 198.946 130.583C198.533 130.656 197.317 130.867 196.299 131.049C196.254 131.273 196.196 131.454 196.121 131.551C195.87 131.868 195.595 131.765 195.508 131.574C195.462 131.471 195.459 131.319 195.466 131.2C195.192 131.25 194.976 131.292 194.855 131.317C194.559 131.381 193.828 131.547 193.061 131.733L192.852 131.784C192.187 131.948 191.521 132.122 191.113 132.253C191.046 132.492 190.978 132.731 190.906 132.968C190.631 133.878 190.265 134.76 189.673 135.511C189.471 135.765 189.246 136.005 188.975 136.181C188.703 136.357 188.381 136.466 188.06 136.443C187.601 136.411 187.22 136.09 187.087 135.648C186.949 135.191 187.074 134.677 187.233 134.238C187.404 133.764 187.667 133.326 187.994 132.945C188.246 132.65 188.533 132.388 188.844 132.157C189.064 131.981 189.345 131.786 189.681 131.61C189.814 131.54 189.962 131.474 190.118 131.413C190.14 131.403 190.162 131.393 190.184 131.383C190.213 131.37 190.243 131.356 190.263 131.331C190.28 131.309 190.287 131.282 190.295 131.255C190.463 130.62 190.649 129.989 190.827 129.356C190.786 129.504 190.624 129.665 190.526 129.773C190.311 130.006 190.022 130.236 189.699 130.27C189.51 130.29 189.312 130.241 189.161 130.123C188.979 129.98 188.882 129.748 188.852 129.516C188.814 129.218 188.863 128.906 188.915 128.612C188.968 128.31 189.041 128.012 189.125 127.718C189.182 127.519 189.244 127.321 189.306 127.125C189.363 126.949 189.445 126.769 189.46 126.584C189.476 126.378 189.419 126.164 189.487 126.018C189.556 125.872 189.747 125.898 189.929 125.928C190.11 125.957 190.315 126.173 190.306 126.421C190.297 126.669 190.199 126.99 190.135 127.235C190.071 127.479 189.931 127.981 189.885 128.225C189.839 128.469 189.765 128.887 189.952 129.011C190.191 129.169 190.492 128.885 190.723 128.497C190.933 128.143 191.208 127.243 191.289 126.973C191.371 126.703 191.55 126.039 191.609 125.832C191.666 125.624 191.812 125.42 192.033 125.275C192.254 125.13 192.492 125.096 192.654 125.145C192.815 125.195 192.708 125.609 192.677 125.752L192.675 125.76C192.645 125.894 192.336 127.206 192.035 128.484L191.987 128.685C191.703 129.889 191.44 131.006 191.44 131.006C191.439 131.008 191.439 131.01 191.438 131.011C191.955 130.884 192.423 130.791 192.685 130.724L192.72 130.716C193.032 130.64 193.942 130.462 194.873 130.286L195.096 130.244C195.272 130.211 195.447 130.179 195.618 130.147C195.658 129.88 195.706 129.564 195.757 129.222C195.526 129.382 195.219 129.527 194.968 129.455C194.591 129.346 194.564 128.913 194.564 128.913C194.375 129.438 193.989 129.851 193.442 129.791C192.895 129.731 192.725 129.356 192.648 129.075C192.57 128.794 192.403 128.109 192.744 126.935C193.085 125.761 193.702 124.996 194.232 124.898C194.763 124.8 195.038 125.134 195.038 125.134L195.102 124.901C195.166 124.668 195.407 124.672 195.654 124.735C195.902 124.798 195.931 125.01 195.888 125.232C195.871 125.324 195.814 125.636 195.755 125.968L195.719 126.168C195.648 126.566 195.581 126.938 195.581 126.938C195.581 126.938 195.254 128.456 195.622 128.331C195.752 128.287 195.848 128.222 195.919 128.157C195.935 128.051 195.951 127.945 195.967 127.839L196.015 127.52C196.236 126.07 196.448 124.693 196.475 124.576C196.535 124.321 196.697 124.336 197.008 124.399C197.32 124.461 197.249 124.588 197.249 124.588L197.211 124.956C197.257 124.831 197.533 124.406 197.799 124.247ZM189.973 132.616C189.973 132.616 189.138 132.964 188.524 133.805C188.034 134.476 187.823 135.147 188.019 135.37C188.264 135.65 188.693 135.156 188.836 134.977C189.126 134.615 189.344 134.2 189.536 133.777C189.629 133.571 189.717 133.363 189.795 133.152C189.833 133.052 189.868 132.951 189.901 132.85C189.911 132.82 189.948 132.626 189.973 132.616ZM200.533 123.989C200.827 123.723 201.159 123.649 201.552 123.7C201.664 123.715 201.774 123.752 201.868 123.813C202.505 124.222 202.162 125.148 201.845 125.66C201.616 126.03 201.273 126.306 200.879 126.49C200.747 126.553 200.495 126.663 200.25 126.678C200.24 126.678 200.152 126.937 200.136 127.088C200.118 127.262 200.144 127.531 200.27 127.64C200.568 127.898 201.062 127.547 201.279 127.35C201.377 127.261 201.481 127.177 201.561 127.072C201.637 126.975 201.766 126.76 201.902 126.798C202.014 126.829 202.089 127.031 202.127 127.116C202.127 127.116 202.236 127.353 202.17 127.501C202.104 127.649 201.609 128.127 201.494 128.223C201.381 128.319 200.97 128.598 200.603 128.704C200.31 128.788 199.971 128.769 199.715 128.595C199.551 128.485 199.432 128.317 199.357 128.135C199.281 127.954 199.248 127.758 199.228 127.563C199.151 126.762 199.334 125.888 199.693 125.165C200.009 124.529 200.139 124.346 200.533 123.989ZM194.913 126.074C194.968 125.726 194.723 125.661 194.518 125.75C194.262 125.861 193.917 126.073 193.656 126.731C193.519 127.079 193.446 127.437 193.435 127.738C193.425 128.039 193.491 128.573 193.848 128.628C194.168 128.676 194.377 128.164 194.559 127.538C194.729 126.953 194.861 126.405 194.913 126.074ZM198.275 125.88C198.287 125.527 198.182 124.843 197.705 125.219C197.32 125.521 197.158 126.207 197.027 126.789C196.888 127.404 196.802 128.01 196.802 128.01C197.043 128.259 197.459 128.106 197.651 127.892C197.87 127.648 197.974 127.322 198.07 127.01C198.183 126.643 198.262 126.266 198.275 125.88ZM201.42 124.687C201.392 124.56 201.28 124.502 201.152 124.539C201.064 124.564 200.992 124.629 200.93 124.696C200.635 125.019 200.41 125.622 200.376 125.862C200.378 125.842 200.441 125.861 200.651 125.766C200.727 125.731 200.798 125.693 200.866 125.645C201.016 125.542 201.155 125.42 201.259 125.271C201.369 125.113 201.465 124.881 201.42 124.687Z" fill="white"/>
<defs>
<clipPath id="clip0_814_5493">
<rect x="185.06" y="25.6755" width="169.671" height="301.637" rx="6.49832" fill="white"/>
</clipPath>
<clipPath id="clip1_814_5493">
<rect width="301.952" height="301.637" fill="white" transform="translate(118.919 25.6755)"/>
</clipPath>
<clipPath id="clip2_814_5493">
<rect width="18.1953" height="18.1953" fill="white" transform="translate(321.524 178.314)"/>
</clipPath>
<clipPath id="clip3_814_5493">
<rect width="6.36835" height="6.36835" fill="white" transform="translate(316.976 120.089)"/>
</clipPath>
<clipPath id="clip4_814_5493">
<rect width="4.54883" height="4.54883" fill="white" transform="translate(208.259 188.776)"/>
</clipPath>
<clipPath id="clip5_814_5493">
<rect width="35.9357" height="35.9357" fill="white" transform="translate(208.259 101.894)"/>
</clipPath>
</defs>
</svg>
