<svg width="100" height="100" viewBox="0 0 100 100" fill="none" xmlns="http://www.w3.org/2000/svg">
<g clip-path="url(#clip0_707_26483)">
<mask id="mask0_707_26483" style="mask-type:alpha" maskUnits="userSpaceOnUse" x="0" y="9" width="100" height="83">
<path d="M28.7584 86.8556C10.4676 78.3708 -3.41628 56.167 0.986903 35.8836C3.21971 25.5978 11.0326 11.7671 22.6212 9.38259C31.076 7.64303 38.5069 12.6198 42.0744 15.0109C54.3958 23.2663 51.7967 32.2111 61.1489 36.883C73.2773 42.9401 83.9716 31.0534 92.9873 37.4534C99.6068 42.1536 101.269 53.8382 98.7948 62.1515C92.5879 83.0092 55.4071 99.2191 28.7584 86.8556Z" fill="#8B3D99"/>
</mask>
<g mask="url(#mask0_707_26483)">
<g clip-path="url(#clip1_707_26483)">
<rect width="153.535" height="86.3636" transform="translate(-20.3704 7.31818)" fill="#CE92D6"/>
<g clip-path="url(#clip2_707_26483)">
<path d="M104.179 62.571V62.5672H104.781V61.0286H91.229V62.5672H91.8322V77.3305H88.9354V67.7134H87.1406V65.4957H85.6438V64.0389H80.8349V65.4957H79.3381V67.7134H77.5433V74.3536H75.9869V62.4593H67.771V71.5833H63.7999V59.8434H62.7816V58.3476H54.8059V59.8434H53.7875V75.9351H50.9092V66.1041H49.7419V64.7813H47.599V60.5486H45.7224V64.7813H43.5795V66.1041H42.4122V73.1443H39.0108V65.2836H31.5322V64.0668H28.6223V65.2836H26.9839V76.7723H23.4634L23.4634 54.8182H12.4158L12.4158 212.032H108.055V66.6325H104.179V62.571Z" fill="#BD77C7"/>
</g>
<g clip-path="url(#clip3_707_26483)">
<path d="M8.5397 62.571V62.5672H9.14103V61.0286H-4.41061V62.5672H-3.8074V77.3305H-6.70428V67.7134H-8.49901V65.4957H-9.99585V64.0389H-14.8047V65.4957H-16.3016V67.7134H-18.0963V74.3536H-19.6527V62.4593H-27.8686V71.5833H-31.8397V59.8434H-32.8581V58.3476H-40.8338V59.8434H-41.8522V75.9351H-44.7304V66.1041H-45.8977V64.7813H-48.0406V60.5486H-49.9173V64.7813H-52.0601V66.1041H-53.2274V73.1443H-56.6288V65.2836H-64.1075V64.0668H-67.0174V65.2836H-68.6557V76.7723H-72.1763L-72.1763 54.8182H-83.2239L-83.2239 212.032H12.4158V66.6325H8.5397V62.571Z" fill="#BD77C7"/>
</g>
<g clip-path="url(#clip4_707_26483)">
<path d="M42.9252 76.4051V76.4014H43.5265V74.8628H29.9749V76.4014H30.5781V91.1646H27.6812V81.5476H25.8865V79.3299H24.3896V77.8731H19.5808V79.3299H18.0839V81.5476H16.2892V88.1878H14.7328V76.2935H6.51689V85.4175H2.54579V73.6776H1.52742V72.1817H-6.4483V73.6776H-7.46667V89.7692H-10.3449V79.9382H-11.5122V78.6154H-13.6551V74.3827H-15.5318V78.6154H-17.6746V79.9382H-18.8419V86.9785H-22.2433V79.1178H-29.722V77.901H-32.6319V79.1178H-34.2702V90.6065H-37.7908L-37.7908 68.6523H-48.8384L-48.8384 225.866H46.8013V80.4666H42.9252V76.4051Z" fill="#A35AAD"/>
</g>
<g clip-path="url(#clip5_707_26483)">
<path d="M138.565 76.4051V76.4014H139.166V74.8628H125.615V76.4014H126.218V91.1646H123.321V81.5476H121.526V79.3299H120.029V77.8731H115.221V79.3299H113.724V81.5476H111.929V88.1878H110.373V76.2935H102.157V85.4175H98.1856V73.6776H97.1672V72.1817H89.1915V73.6776H88.1731V89.7692H85.2948V79.9382H84.1275V78.6154H81.9847V74.3827H80.108V78.6154H77.9651V79.9382H76.7978V86.9785H73.3964V79.1178H65.9178V77.901H63.0079V79.1178H61.3695V90.6065H57.849L57.849 68.6523H46.8014L46.8014 225.866H142.441V80.4666H138.565V76.4051Z" fill="#A35AAD"/>
</g>
<path d="M0.500841 43.3829C0.161422 42.2247 -1.15393 41.3424 -2.76259 41.2501C-3.09361 40.4122 -4.12422 39.8012 -5.34439 39.8012C-5.95159 39.8012 -6.51169 39.9525 -6.96227 40.2077C-7.43739 39.1704 -8.745 38.4251 -10.2842 38.4251C-12.2243 38.4251 -13.7973 39.6095 -13.7973 41.0705C-13.7973 41.521 -13.6476 41.9452 -13.3836 42.3166C-13.5623 42.4316 -13.7225 42.5624 -13.8605 42.7061C-14.0692 42.8537 -14.2366 43.0339 -14.3485 43.2359C-14.4402 43.2814 -14.5281 43.3307 -14.6128 43.383H0.500841V43.3829Z" fill="#E3B2EB"/>
<path d="M12.5758 50.5C12.4406 49.6428 11.8077 48.994 11.0468 48.994C10.9794 48.994 10.9132 48.9997 10.8481 49.0096C10.5024 48.1158 9.74221 47.495 8.85982 47.495C8.48145 47.495 8.12542 47.6093 7.81505 47.8101C7.37065 47.2508 6.74083 46.9015 6.04231 46.9015C5.0446 46.9015 4.1872 47.6138 3.81023 48.6334C3.62496 48.5546 3.42558 48.5115 3.21755 48.5115C2.27443 48.5115 1.50485 49.3929 1.46045 50.5H12.5758Z" fill="#E3B2EB"/>
<path d="M107.979 44.1027C107.992 44.0455 108.004 43.9878 108.014 43.9294C108.335 42.0375 106.779 40.2843 104.54 40.013C103.385 39.8732 102.274 40.1556 101.424 40.7209C100.974 38.8439 99.1711 37.321 96.7983 37.0334C93.7819 36.6682 90.9861 38.4375 90.5538 40.9854C90.5312 41.1184 90.5158 41.2508 90.5069 41.3827C90.5003 41.3818 90.4937 41.3806 90.4868 41.3799C88.4299 41.1308 86.5237 42.3374 86.2287 44.0745C86.2271 44.0838 86.2262 44.0934 86.2249 44.1027H107.979Z" fill="#E3B2EB"/>
<path d="M42.0833 42.823C42.0938 41.2448 43.1404 39.969 44.4303 39.969C44.7787 39.969 45.109 40.0628 45.4064 40.2298C45.9235 39.1502 46.8803 38.4251 47.9755 38.4251C48.9892 38.4251 49.8843 39.0462 50.422 39.9947C50.6107 39.9354 50.8085 39.904 51.0123 39.904C51.8175 39.904 52.5287 40.3959 52.958 41.1475C53.2046 41.0098 53.4784 40.9325 53.767 40.9325C54.7051 40.9325 55.4883 41.7427 55.6776 42.8232H42.0833V42.823Z" fill="#E3B2EB"/>
<path d="M61.4381 53.2986C61.4367 53.2606 61.4351 53.2225 61.4351 53.1841C61.4351 51.3876 62.9067 49.9312 64.7221 49.9312C64.7919 49.9312 64.8609 49.9341 64.9296 49.9383C65.6884 48.739 67.0344 47.9411 68.5694 47.9411C70.1044 47.9411 71.4523 48.7401 72.2108 49.9407C72.2903 49.935 72.3703 49.9312 72.4511 49.9312C73.4696 49.9312 74.3798 50.3897 74.9828 51.1096C75.119 51.0886 75.2586 51.0777 75.4007 51.0777C76.7379 51.0777 77.848 52.0375 78.0681 53.2988H61.4381V53.2986ZM65.8835 48.8785C65.9548 48.8207 66.0288 48.768 66.1156 48.7064C66.0364 48.7613 65.9589 48.8186 65.8835 48.8785Z" fill="#E3B2EB"/>
<path d="M44.8022 44.1027C44.6758 43.2645 44.0839 42.6302 43.3723 42.6302C43.3092 42.6302 43.2473 42.6357 43.1865 42.6454C42.8631 41.7714 42.1521 41.1645 41.3269 41.1645C40.973 41.1645 40.64 41.2762 40.3498 41.4726C39.9341 40.9257 39.3451 40.5842 38.6918 40.5842C37.7587 40.5842 36.9568 41.2806 36.6043 42.2775C36.431 42.2005 36.2445 42.1583 36.0499 42.1583C35.1679 42.1583 34.4481 43.0202 34.4066 44.1027H44.8022Z" fill="#E3B2EB"/>
<g clip-path="url(#clip6_707_26483)">
<path fill-rule="evenodd" clip-rule="evenodd" d="M42.9053 13.9827C42.9865 14.1721 43.1386 14.3228 43.3289 14.4035C43.5718 14.5064 43.9189 14.6537 44.1957 14.771C44.3649 14.8428 44.3646 15.0806 44.1957 15.1523L43.3289 15.5198C43.1383 15.6005 42.9865 15.7513 42.9053 15.9406C42.8017 16.1819 42.6534 16.5266 42.5353 16.8015C42.4631 16.9696 42.2237 16.9696 42.1514 16.8015C42.0333 16.5266 41.885 16.1819 41.7814 15.9406C41.7002 15.7513 41.5481 15.6005 41.3578 15.5198C41.1149 15.4169 40.7678 15.2696 40.491 15.1523C40.3218 15.0806 40.3218 14.8428 40.491 14.771C40.7678 14.6537 41.1149 14.5064 41.3578 14.4035C41.5484 14.3228 41.7002 14.1718 41.7814 13.9827C41.885 13.7415 42.0333 13.3968 42.1514 13.1218C42.2237 12.9538 42.4631 12.9538 42.5353 13.1218C42.6534 13.3968 42.8017 13.7415 42.9053 13.9827Z" fill="#E3B2EB"/>
<path fill-rule="evenodd" clip-rule="evenodd" d="M38.3151 17.8127C38.3454 17.8835 38.4023 17.9398 38.4734 17.97C38.5642 18.0084 38.6939 18.0635 38.7974 18.1073C38.8606 18.1341 38.8605 18.223 38.7974 18.2498L38.4734 18.3872C38.4022 18.4173 38.3454 18.4737 38.3151 18.5444C38.2764 18.6346 38.2209 18.7634 38.1768 18.8662C38.1498 18.929 38.0603 18.929 38.0333 18.8662C37.9892 18.7634 37.9338 18.6346 37.8951 18.5444C37.8647 18.4737 37.8079 18.4173 37.7367 18.3872C37.6459 18.3487 37.5162 18.2937 37.4128 18.2498C37.3495 18.223 37.3495 18.1341 37.4128 18.1073C37.5162 18.0635 37.6459 18.0084 37.7367 17.97C37.808 17.9398 37.8647 17.8834 37.8951 17.8127C37.9338 17.7225 37.9892 17.5937 38.0333 17.4909C38.0603 17.4281 38.1498 17.4281 38.1768 17.4909C38.2209 17.5937 38.2764 17.7225 38.3151 17.8127Z" fill="#E3B2EB"/>
</g>
<g clip-path="url(#clip7_707_26483)">
<path fill-rule="evenodd" clip-rule="evenodd" d="M11.9173 17.9356C11.9551 18.0242 12.0257 18.0947 12.1142 18.1324C12.227 18.1806 12.3883 18.2495 12.5169 18.3043C12.5955 18.3379 12.5954 18.4491 12.5169 18.4827L12.1142 18.6546C12.0256 18.6924 11.9551 18.7629 11.9173 18.8515C11.8692 18.9643 11.8003 19.1256 11.7454 19.2542C11.7118 19.3328 11.6006 19.3328 11.567 19.2542C11.5121 19.1256 11.4432 18.9643 11.3951 18.8515C11.3574 18.7629 11.2867 18.6924 11.1983 18.6546C11.0854 18.6065 10.9242 18.5376 10.7955 18.4827C10.7169 18.4491 10.7169 18.3379 10.7955 18.3043C10.9242 18.2495 11.0854 18.1806 11.1983 18.1324C11.2868 18.0947 11.3574 18.024 11.3951 17.9356C11.4432 17.8227 11.5121 17.6615 11.567 17.5329C11.6006 17.4543 11.7118 17.4543 11.7454 17.5329C11.8003 17.6615 11.8692 17.8227 11.9173 17.9356Z" fill="#E3B2EB"/>
</g>
<g clip-path="url(#clip8_707_26483)">
<path fill-rule="evenodd" clip-rule="evenodd" d="M72.1319 35.928C72.1697 36.0166 72.2403 36.0871 72.3288 36.1248C72.4416 36.173 72.6029 36.2419 72.7315 36.2967C72.8101 36.3303 72.81 36.4415 72.7315 36.4751L72.3288 36.647C72.2402 36.6848 72.1697 36.7553 72.1319 36.8439C72.0838 36.9567 72.0149 37.118 71.96 37.2466C71.9264 37.3252 71.8152 37.3252 71.7816 37.2466C71.7267 37.118 71.6578 36.9567 71.6097 36.8439C71.572 36.7553 71.5013 36.6848 71.4129 36.647C71.3 36.5989 71.1388 36.53 71.0101 36.4751C70.9315 36.4415 70.9315 36.3303 71.0101 36.2967C71.1388 36.2419 71.3 36.173 71.4129 36.1248C71.5014 36.0871 71.572 36.0164 71.6097 35.928C71.6578 35.8151 71.7267 35.6539 71.7816 35.5253C71.8152 35.4467 71.9264 35.4467 71.96 35.5253C72.0149 35.6539 72.0838 35.8151 72.1319 35.928Z" fill="#E3B2EB"/>
</g>
<g clip-path="url(#clip9_707_26483)">
<path fill-rule="evenodd" clip-rule="evenodd" d="M88.3651 28.4112C88.4028 28.4998 88.4735 28.5703 88.5619 28.608C88.6748 28.6561 88.836 28.725 88.9646 28.7799C89.0432 28.8135 89.0431 28.9247 88.9646 28.9583L88.5619 29.1302C88.4733 29.1679 88.4028 29.2385 88.3651 29.327C88.3169 29.4399 88.248 29.6011 88.1931 29.7298C88.1596 29.8084 88.0483 29.8084 88.0148 29.7298C87.9599 29.6011 87.891 29.4399 87.8429 29.327C87.8051 29.2385 87.7345 29.1679 87.646 29.1302C87.5332 29.0821 87.3719 29.0132 87.2433 28.9583C87.1647 28.9247 87.1647 28.8135 87.2433 28.7799C87.3719 28.725 87.5332 28.6561 87.646 28.608C87.7346 28.5703 87.8051 28.4996 87.8429 28.4112C87.891 28.2983 87.9599 28.1371 88.0148 28.0084C88.0483 27.9298 88.1596 27.9298 88.1931 28.0084C88.248 28.1371 88.3169 28.2983 88.3651 28.4112Z" fill="#E3B2EB"/>
</g>
<g clip-path="url(#clip10_707_26483)">
<path fill-rule="evenodd" clip-rule="evenodd" d="M26.6302 28.0525C26.6909 28.195 26.8045 28.3084 26.9468 28.3691C27.1284 28.4465 27.3878 28.5574 27.5947 28.6457C27.7212 28.6997 27.7209 28.8786 27.5947 28.9326L26.9468 29.2091C26.8043 29.2699 26.6909 29.3833 26.6302 29.5258C26.5527 29.7073 26.4419 29.9668 26.3536 30.1737C26.2996 30.3001 26.1207 30.3001 26.0667 30.1737C25.9784 29.9668 25.8675 29.7073 25.7901 29.5258C25.7294 29.3833 25.6157 29.2699 25.4734 29.2091C25.2919 29.1317 25.0325 29.0209 24.8256 28.9326C24.6991 28.8786 24.6991 28.6997 24.8256 28.6457C25.0325 28.5574 25.2919 28.4465 25.4734 28.3691C25.6159 28.3084 25.7294 28.1947 25.7901 28.0525C25.8675 27.8709 25.9784 27.6115 26.0667 27.4046C26.1207 27.2781 26.2996 27.2781 26.3536 27.4046C26.4419 27.6115 26.5527 27.8709 26.6302 28.0525Z" fill="#E3B2EB"/>
</g>
<g clip-path="url(#clip11_707_26483)">
<path fill-rule="evenodd" clip-rule="evenodd" d="M8.47578 32.8527C8.58247 33.103 8.78213 33.3023 9.03209 33.409C9.35103 33.545 9.80675 33.7397 10.1703 33.8948C10.3924 33.9897 10.392 34.3041 10.1703 34.3989L9.03209 34.8847C8.78175 34.9914 8.58247 35.1907 8.47578 35.441C8.33975 35.76 8.14503 36.2157 7.98995 36.5792C7.89507 36.8013 7.58071 36.8013 7.48584 36.5792C7.33075 36.2157 7.13604 35.76 7.00001 35.441C6.89332 35.1907 6.69365 34.9914 6.44369 34.8847C6.12476 34.7487 5.66904 34.554 5.30553 34.3989C5.08338 34.3041 5.08338 33.9897 5.30553 33.8948C5.66904 33.7397 6.12476 33.545 6.44369 33.409C6.69403 33.3023 6.89332 33.1027 7.00001 32.8527C7.13604 32.5338 7.33075 32.0781 7.48584 31.7146C7.58071 31.4924 7.89507 31.4924 7.98995 31.7146C8.14503 32.0781 8.33975 32.5338 8.47578 32.8527Z" fill="#E3B2EB"/>
</g>
<g clip-path="url(#clip12_707_26483)">
<path fill-rule="evenodd" clip-rule="evenodd" d="M83.7241 15.66C83.8308 15.9103 84.0304 16.1096 84.2804 16.2163C84.5993 16.3523 85.055 16.547 85.4185 16.7021C85.6407 16.797 85.6403 17.1113 85.4185 17.2062L84.2804 17.692C84.03 17.7987 83.8308 17.998 83.7241 18.2483C83.588 18.5672 83.3933 19.0229 83.2382 19.3864C83.1434 19.6086 82.829 19.6086 82.7341 19.3864C82.579 19.0229 82.3843 18.5672 82.2483 18.2483C82.1416 17.998 81.9419 17.7987 81.692 17.692C81.3731 17.556 80.9173 17.3613 80.5538 17.2062C80.3317 17.1113 80.3317 16.797 80.5538 16.7021C80.9173 16.547 81.3731 16.3523 81.692 16.2163C81.9423 16.1096 82.1416 15.9099 82.2483 15.66C82.3843 15.341 82.579 14.8853 82.7341 14.5218C82.829 14.2997 83.1434 14.2997 83.2382 14.5218C83.3933 14.8853 83.588 15.341 83.7241 15.66Z" fill="#E3B2EB"/>
</g>
<g clip-path="url(#clip13_707_26483)">
<path fill-rule="evenodd" clip-rule="evenodd" d="M63.9754 19.215C64.0132 19.3036 64.0838 19.3741 64.1723 19.4119C64.2851 19.46 64.4464 19.5289 64.575 19.5838C64.6536 19.6174 64.6535 19.7286 64.575 19.7622L64.1723 19.9341C64.0837 19.9718 64.0132 20.0423 63.9754 20.1309C63.9273 20.2438 63.8584 20.405 63.8035 20.5336C63.7699 20.6122 63.6587 20.6122 63.6251 20.5336C63.5703 20.405 63.5014 20.2438 63.4532 20.1309C63.4155 20.0423 63.3448 19.9718 63.2564 19.9341C63.1435 19.8859 62.9823 19.817 62.8536 19.7622C62.775 19.7286 62.775 19.6174 62.8536 19.5838C62.9823 19.5289 63.1435 19.46 63.2564 19.4119C63.345 19.3741 63.4155 19.3035 63.4532 19.215C63.5014 19.1022 63.5703 18.9409 63.6251 18.8123C63.6587 18.7337 63.7699 18.7337 63.8035 18.8123C63.8584 18.9409 63.9273 19.1022 63.9754 19.215Z" fill="#E3B2EB"/>
</g>
<g clip-path="url(#clip14_707_26483)">
<path fill-rule="evenodd" clip-rule="evenodd" d="M50.454 33.4887C50.5145 33.6313 50.6278 33.7448 50.7696 33.8055C50.9506 33.883 51.2091 33.9939 51.4154 34.0823C51.5414 34.1363 51.5412 34.3154 51.4154 34.3694L50.7696 34.6461C50.6276 34.7069 50.5145 34.8204 50.454 34.963C50.3768 35.1447 50.2663 35.4043 50.1783 35.6113C50.1245 35.7379 49.9461 35.7379 49.8923 35.6113C49.8043 35.4043 49.6938 35.1447 49.6166 34.963C49.5561 34.8204 49.4428 34.7069 49.301 34.6461C49.12 34.5687 48.8615 34.4577 48.6552 34.3694C48.5292 34.3154 48.5292 34.1363 48.6552 34.0823C48.8615 33.9939 49.12 33.883 49.301 33.8055C49.443 33.7448 49.5561 33.631 49.6166 33.4887C49.6938 33.307 49.8043 33.0474 49.8923 32.8404C49.9461 32.7138 50.1245 32.7138 50.1783 32.8404C50.2663 33.0474 50.3768 33.307 50.454 33.4887Z" fill="#E3B2EB"/>
<path fill-rule="evenodd" clip-rule="evenodd" d="M52.0915 28.3979C52.128 28.4839 52.1963 28.5524 52.2819 28.589C52.3911 28.6358 52.5471 28.7027 52.6715 28.756C52.7475 28.7886 52.7474 28.8966 52.6715 28.9292L52.2819 29.0962C52.1962 29.1329 52.128 29.2013 52.0915 29.2874C52.0449 29.397 51.9782 29.5536 51.9252 29.6785C51.8927 29.7548 51.7851 29.7548 51.7526 29.6785C51.6995 29.5536 51.6329 29.397 51.5863 29.2874C51.5498 29.2013 51.4814 29.1329 51.3959 29.0962C51.2867 29.0494 51.1307 28.9825 51.0063 28.9292C50.9302 28.8966 50.9302 28.7886 51.0063 28.756C51.1307 28.7027 51.2867 28.6358 51.3959 28.589C51.4815 28.5524 51.5498 28.4838 51.5863 28.3979C51.6329 28.2883 51.6995 28.1317 51.7526 28.0067C51.7851 27.9304 51.8927 27.9304 51.9252 28.0067C51.9782 28.1317 52.0449 28.2883 52.0915 28.3979Z" fill="#E3B2EB"/>
<path fill-rule="evenodd" clip-rule="evenodd" d="M55.3112 31.8045C55.3322 31.8539 55.3716 31.8933 55.4208 31.9144C55.4836 31.9413 55.5734 31.9798 55.6449 32.0105C55.6887 32.0293 55.6886 32.0914 55.6449 32.1102L55.4208 32.2062C55.3715 32.2273 55.3322 32.2667 55.3112 32.3162C55.2844 32.3793 55.2461 32.4694 55.2155 32.5412C55.1969 32.5852 55.135 32.5852 55.1163 32.5412C55.0857 32.4694 55.0474 32.3793 55.0206 32.3162C54.9996 32.2667 54.9602 32.2273 54.911 32.2062C54.8482 32.1793 54.7585 32.1408 54.6869 32.1102C54.6431 32.0914 54.6431 32.0293 54.6869 32.0105C54.7585 31.9798 54.8482 31.9413 54.911 31.9144C54.9603 31.8933 54.9996 31.8539 55.0206 31.8045C55.0474 31.7414 55.0857 31.6513 55.1163 31.5794C55.135 31.5355 55.1969 31.5355 55.2155 31.5794C55.2461 31.6513 55.2844 31.7414 55.3112 31.8045Z" fill="#E3B2EB"/>
</g>
</g>
</g>
<mask id="mask1_707_26483" style="mask-type:alpha" maskUnits="userSpaceOnUse" x="0" y="5" width="100" height="87">
<path d="M28.7583 86.8558C10.4676 78.371 -3.41633 56.1672 0.986856 35.8838C0.986861 25.1634 0.986861 5.71896 0.986861 5.71896L42.0033 5.71896L100 6.30812C100 24.3216 100 42.0825 98.7947 62.1517C92.5879 83.0094 55.407 99.2193 28.7583 86.8558Z" fill="#8B3D99"/>
</mask>
<g mask="url(#mask1_707_26483)">
<g clip-path="url(#clip15_707_26483)">
<path d="M41.5316 95.0597C49.1315 95.0597 55.2924 88.8988 55.2924 81.299C55.2924 73.6991 49.1315 67.5382 41.5316 67.5382C33.9318 67.5382 27.7709 73.6991 27.7709 81.299C27.7709 88.8988 33.9318 95.0597 41.5316 95.0597Z" fill="#DE4A65"/>
<path d="M40.2044 100.601L23.1696 100.551C22.7129 90.3293 25.9294 83.7598 27.7661 81.299H55.2494C57.0861 83.7598 60.3027 90.3293 59.8459 100.551L42.8111 100.601H40.2044Z" fill="#1172C9"/>
<path d="M54.3669 35.2026C54.0273 33.9112 53.769 32.4858 53.9054 30.563C54.0417 28.6403 53.8312 24.9645 53.671 22.7117C48.0414 23.1876 42.4093 23.6587 36.7654 23.9505C36.9089 26.5501 37.0308 28.7574 36.9089 31.4886C36.8563 32.6604 36.6625 35.37 36.464 36.5394C35.6725 41.2005 35.3855 46.1414 36.0742 49.5732C36.9495 53.9281 39.518 56.0518 42.6724 58.307C50.1961 60.7296 57.4926 55.1669 57.9996 47.7221C58.4564 41.045 55.6918 40.2367 54.3645 35.205L54.3669 35.2026Z" fill="#2C2044"/>
<path d="M68.7017 81.7868C64.5094 81.8084 61.0201 80.0984 58.5617 77.219C52.6666 70.3219 53.6854 58.1683 54.3502 49.8075C54.6133 46.5168 57.4974 44.0607 60.7858 44.3238C64.0765 44.5868 66.5326 47.4662 66.2695 50.7593C66.0184 53.8946 65.5903 57.8382 65.8271 62.0688C66.1189 67.2775 67.2979 69.0377 67.6518 69.4514C67.8527 69.6858 67.9866 69.791 68.4338 69.8221C69.0006 69.8627 69.223 69.7503 69.5124 69.4873C72.6477 66.6294 72.9227 56.2479 73.0662 52.4597C73.1906 49.1594 75.9791 46.5909 79.2674 46.7105C82.5677 46.8349 85.1409 49.6114 85.0166 52.9117C85.0094 53.0935 85.0046 53.335 84.9974 53.6244C84.8133 61.4901 83.8424 72.6082 77.5646 78.3263C75.087 80.5839 72.0402 81.7677 68.6993 81.7868H68.7017Z" fill="#FCDABA"/>
<path d="M79.0427 58.6657C82.3447 58.6657 85.0215 55.9889 85.0215 52.6869C85.0215 49.3849 82.3447 46.7081 79.0427 46.7081C75.7408 46.7081 73.064 49.3849 73.064 52.6869C73.064 55.9889 75.7408 58.6657 79.0427 58.6657Z" fill="#FCDABA"/>
<path d="M77.7297 44.7519L74.793 48.4802L83.2924 56.8912L89.3955 56.8601L89.3334 44.6921L77.7297 44.7519Z" fill="#FCDABA"/>
<path d="M73.0639 52.718C73.04 51.7471 73.0806 50.2595 73.4489 48.5018C73.9368 46.1844 74.6351 45.1584 75.1828 43.3122C75.5248 42.1523 75.85 40.5285 75.7998 38.4263C75.7782 37.5439 76.4718 36.8097 77.3543 36.7977C78.1698 36.7882 78.8657 37.4028 78.9422 38.2159C79.0857 39.7512 79.0809 41.3272 78.9087 42.9296C79.4253 43.4318 80.4967 44.6156 80.8746 46.4475C81.5681 49.8052 79.3201 52.3832 79.0427 52.6869L73.0639 52.718Z" fill="#FCDABA"/>
<path d="M77.5552 54.0166C78.0263 53.4115 79.4612 51.4194 79.4803 48.4946C79.4995 45.7037 78.2224 43.7594 77.7632 43.1233C77.988 42.9558 78.3826 42.6139 78.6792 42.0471C78.9829 41.4683 79.0331 40.935 79.0403 40.6552C79.0307 41.112 79.0092 41.5831 78.9781 42.071C78.959 42.3628 78.9351 42.6497 78.9088 42.9295C80.987 44.032 82.2617 46.1964 82.166 48.4707C82.056 51.0631 80.1834 53.3446 77.5552 54.019V54.0166Z" fill="#DCAC82"/>
<g clip-path="url(#clip16_707_26483)">
<path d="M91.2923 56.6953L91.5179 32.9994C91.523 32.4672 91.0984 32.0317 90.5695 32.0266L80.164 31.9276C79.6351 31.9225 79.2023 32.3499 79.1972 32.8821L78.9716 56.578C78.9666 57.1102 79.3912 57.5457 79.9201 57.5507L90.3256 57.6498C90.8544 57.6548 91.2873 57.2275 91.2923 56.6953Z" fill="#403556"/>
<path d="M91.2994 55.9522L91.525 32.2563C91.5301 31.7241 91.1055 31.2886 90.5766 31.2835L80.1711 31.1845C79.6422 31.1794 79.2094 31.6068 79.2043 32.139L78.9787 55.8349C78.9737 56.3671 79.3983 56.8026 79.9271 56.8076L90.3326 56.9067C90.8615 56.9117 91.2943 56.4844 91.2994 55.9522Z" fill="#2C2044"/>
<path d="M90.7112 54.8863L90.9166 33.3108C90.9191 33.0467 90.7084 32.8306 90.446 32.8281L80.2695 32.7313C80.0071 32.7288 79.7923 32.9408 79.7898 33.2048L79.5844 54.7804C79.5819 55.0444 79.7926 55.2605 80.055 55.263L90.2315 55.3599C90.4939 55.3623 90.7087 55.1503 90.7112 54.8863Z" fill="#742384"/>
<path d="M84.1217 32.2749L86.6031 32.2986C86.7472 32.2999 86.8651 32.1835 86.8665 32.0385L86.8668 32.0063C86.8682 31.8613 86.7525 31.7426 86.6084 31.7412L84.127 31.7176C83.9829 31.7162 83.865 31.8327 83.8636 31.9777L83.8633 32.0099C83.8619 32.1549 83.9776 32.2736 84.1217 32.2749Z" fill="#544A69"/>
<path d="M88.2293 45.9941C87.4954 46.0008 86.6618 46.073 85.8913 46.1636C85.9804 45.851 86.0691 45.5424 86.0691 45.5424C86.0691 45.5424 86.1554 45.7351 86.404 45.718C86.7571 45.6937 87.1899 45.3499 87.4039 44.7145C87.6313 44.0394 87.6188 43.2703 87.1686 43.2014C86.8048 43.1458 86.6278 43.4702 86.6021 43.5349C86.6021 43.5349 86.6823 43.2395 86.4503 43.289C86.2281 43.3364 86.1866 43.4361 86.13 43.6144C86.12 43.6458 85.9266 44.3477 85.7239 45.0873C85.7209 45.0921 85.7185 45.0977 85.7167 45.1039C85.6667 45.2711 85.5706 45.3263 85.5014 45.33C85.2778 45.3426 85.7725 43.8535 85.81 43.7405C85.8596 43.5916 85.8894 43.4786 85.727 43.4147C85.6175 43.3715 85.4667 43.3853 85.4214 43.5044C85.4023 43.5544 85.3885 43.5911 85.3885 43.5911C85.3885 43.5911 85.2648 43.401 84.9869 43.4241C84.7089 43.4471 84.355 43.786 84.1172 44.3844C83.8795 44.9827 83.7705 45.8432 84.3201 45.9342C84.599 45.9804 84.835 45.8208 84.9603 45.5555C84.9603 45.5555 84.9372 45.7338 85.1203 45.8229C85.1923 45.8581 85.3722 45.8464 85.5424 45.7512C85.4962 45.92 85.4527 46.08 85.4139 46.2226C84.224 46.3777 83.2869 46.5547 83.2869 46.5547C83.2871 46.5539 83.9595 44.3299 84.1109 43.8405C84.2376 43.4308 84.0053 43.518 83.8337 43.5667C83.6509 43.6185 83.5631 43.7733 83.4691 44.0549C83.0584 45.2851 82.7407 45.6663 82.5138 45.5813C82.3057 45.5034 82.9751 44.1992 82.8191 44.0247C82.6839 43.8734 82.4023 43.8787 82.3478 43.9667C82.2933 44.0546 82.3723 44.1361 82.3369 44.2609C82.3014 44.3857 82.0319 45.0606 82.0027 45.2121C81.9735 45.3634 81.7372 46.202 82.3417 46.1715C82.6989 46.1534 82.946 45.8823 82.9726 45.8065C82.8581 46.1321 82.6937 46.6577 82.6937 46.6577C82.6937 46.6577 81.9611 46.8358 81.3727 47.4477C80.9055 47.9333 80.5684 48.9859 81.2576 49.1608C82.3288 49.4325 82.8523 47.7774 83.1186 47.1557C83.9911 46.9677 84.6562 46.8437 85.2711 46.7524C85.2616 46.7887 85.2552 46.8133 85.253 46.8235C85.1947 47.0828 85.2061 47.187 85.4068 47.1638C85.623 47.1388 85.6512 47.0268 85.7245 46.7558C85.7294 46.7372 85.7358 46.7142 85.7432 46.6876C86.4717 46.595 87.1867 46.5395 88.1705 46.4658C88.4763 46.4429 88.4734 46.3911 88.5051 46.2067C88.5407 45.9975 88.3017 45.9936 88.2293 45.9941ZM86.3687 44.544C86.5202 44.0591 86.6571 43.8657 86.7846 43.812C87.0885 43.6835 87.1423 44.0689 86.9031 44.6507C86.6262 45.3241 86.3106 45.3057 86.1908 45.1712C86.1906 45.1712 86.2086 45.0558 86.3687 44.544ZM85.014 44.8245C84.8811 45.1406 84.7574 45.3629 84.5901 45.3625C84.3503 45.362 84.3599 44.9969 84.5349 44.5392C84.6822 44.1543 84.9462 43.9136 85.0879 43.8873C85.2293 43.8611 85.3931 43.9227 85.014 44.8245ZM81.8064 48.4876C81.2306 48.9981 81.3813 48.2928 81.5965 47.9897C82.0049 47.414 82.5039 47.2722 82.5039 47.2722C82.2439 48.0187 81.9244 48.3828 81.8064 48.4876Z" fill="white"/>
<path d="M89.0062 44.1329C89.2243 43.8821 89.3278 43.3443 88.9679 43.1425C88.5327 42.8985 87.9578 43.2592 87.7144 44.046C87.4981 44.7456 87.4115 45.6077 88.1232 45.5826C88.4738 45.5703 88.7785 45.3177 88.8898 45.1291C88.9438 45.0375 88.9663 44.8928 88.9576 44.8283C88.9334 44.6474 88.8246 44.6201 88.6372 44.8556C88.591 44.9075 88.2227 45.2328 88.046 45.0358C87.9182 44.8934 88.0294 44.6173 88.0345 44.6172C88.2683 44.6022 88.6781 44.5104 89.0062 44.1329ZM88.4886 43.5154C88.6868 43.3314 88.8725 43.5555 88.6424 43.8734C88.41 44.194 88.1416 44.1833 88.1394 44.1935C88.1681 44.0674 88.2724 43.7163 88.4886 43.5154Z" fill="white"/>
<path d="M85.1621 41.3099C85.1196 41.2816 85.0556 41.2672 84.9704 41.2663L84.7158 41.2639L84.7124 41.6212L84.9754 41.6237C85.1407 41.6253 85.224 41.5657 85.2252 41.445C85.2258 41.3831 85.2048 41.3382 85.1621 41.3099Z" fill="#10CBB4"/>
<path d="M85.3139 39.6481C84.5441 39.6767 83.91 40.2965 83.8554 41.0746C83.8185 41.6015 84.0445 42.0775 84.4144 42.3814C84.4526 42.4127 84.4745 42.4596 84.474 42.5093L84.4708 42.8488C84.4705 42.8749 84.4848 42.8991 84.5074 42.9113L84.5167 42.9164C84.5385 42.9283 84.5649 42.9265 84.585 42.9121L84.8747 42.7049C84.9126 42.6778 84.9602 42.6686 85.0052 42.6798C85.1178 42.7082 85.2353 42.7237 85.3563 42.7249C86.1956 42.7329 86.8824 42.0504 86.8905 41.2004C86.8989 40.3266 86.1862 39.6157 85.3139 39.6481ZM85.4194 41.65C85.3842 41.7044 85.3371 41.7445 85.278 41.7702C85.2411 41.7855 85.1986 41.7959 85.1508 41.8019C85.103 41.8079 85.0472 41.8105 84.9834 41.8099L84.6142 41.8064C84.5609 41.8059 84.523 41.7935 84.5003 41.769C84.4777 41.7445 84.4666 41.7059 84.4671 41.653L84.4759 40.733C84.4764 40.6791 84.4884 40.6403 84.512 40.6169C84.5356 40.5934 84.5735 40.582 84.6256 40.5824L85.017 40.5862C85.0747 40.5867 85.1247 40.5908 85.167 40.5984C85.2093 40.6061 85.247 40.6205 85.2803 40.6412C85.3086 40.6587 85.3338 40.6808 85.3555 40.7075C85.3772 40.7342 85.3938 40.7636 85.4049 40.7956C85.4161 40.8278 85.4215 40.8616 85.4212 40.8972C85.42 41.0198 85.3588 41.1086 85.2373 41.1644C85.3956 41.2171 85.474 41.3175 85.4726 41.4654C85.4724 41.534 85.4546 41.5954 85.4194 41.65ZM86.2786 41.7065C86.2479 41.751 86.203 41.7846 86.1436 41.8071C86.0844 41.8296 86.0124 41.8406 85.9277 41.8398C85.8469 41.839 85.7777 41.8259 85.7203 41.8003C85.6629 41.7747 85.6205 41.743 85.5935 41.7052C85.5663 41.6675 85.553 41.6296 85.5534 41.5918C85.5536 41.5667 85.5625 41.5453 85.5803 41.5276C85.5981 41.51 85.6204 41.5013 85.6473 41.5016C85.6709 41.5018 85.689 41.5078 85.7016 41.5196C85.7142 41.5313 85.7261 41.5479 85.7374 41.5692C85.7601 41.6102 85.7874 41.6407 85.8193 41.6611C85.8511 41.6814 85.895 41.6919 85.9504 41.6924C85.9956 41.6928 86.0325 41.6829 86.0616 41.663C86.0907 41.643 86.1052 41.6199 86.1054 41.5936C86.1058 41.5535 86.091 41.5241 86.0613 41.5055C86.0316 41.4868 85.9825 41.4689 85.9139 41.4516C85.8367 41.4314 85.7737 41.4104 85.7254 41.3884C85.6769 41.3665 85.6384 41.3379 85.6096 41.3025C85.5808 41.2671 85.5666 41.2239 85.5671 41.1728C85.5675 41.127 85.5814 41.0841 85.6087 41.0438C85.636 41.0034 85.6761 40.9715 85.7288 40.9477C85.7815 40.9239 85.845 40.9125 85.919 40.9132C85.9773 40.9138 86.0297 40.9205 86.0759 40.9332C86.1223 40.9458 86.1607 40.9626 86.1916 40.9836C86.2225 41.0045 86.2459 41.0274 86.2619 41.0526C86.2779 41.0779 86.2857 41.1024 86.2855 41.1263C86.2853 41.1523 86.2764 41.1737 86.259 41.1904C86.2416 41.2069 86.2168 41.215 86.1849 41.2147C86.1617 41.2145 86.1422 41.2077 86.1261 41.1941C86.11 41.1805 86.0915 41.1603 86.071 41.1334C86.0542 41.111 86.0344 41.093 86.0113 41.0795C85.9883 41.0659 85.9571 41.059 85.9175 41.0586C85.8769 41.0582 85.8429 41.0667 85.8158 41.0839C85.7888 41.1011 85.7751 41.1228 85.7748 41.1491C85.7746 41.1729 85.7843 41.1927 85.804 41.2083C85.8236 41.2237 85.85 41.2366 85.8836 41.247C85.917 41.2573 85.963 41.27 86.0216 41.285C86.0912 41.3029 86.148 41.3241 86.1921 41.3484C86.236 41.3726 86.2694 41.4012 86.2919 41.4341C86.3144 41.4668 86.3255 41.5042 86.3251 41.546C86.3249 41.6083 86.3093 41.6621 86.2786 41.7065Z" fill="#10CBB4"/>
<path d="M85.0831 41.0721C85.1165 41.0608 85.142 41.0388 85.16 41.006C85.1739 40.9827 85.181 40.9567 85.1813 40.9278C85.1819 40.8661 85.1605 40.8248 85.1173 40.8041C85.0742 40.7834 85.0079 40.7726 84.919 40.7717L84.7205 40.7698L84.7174 41.0863L84.9416 41.0884C85.0026 41.0888 85.0497 41.0834 85.0831 41.0721Z" fill="#10CBB4"/>
</g>
<path d="M92.1712 42.0734C92.9448 41.7929 93.3445 40.9384 93.064 40.1648C92.7835 39.3913 91.929 38.9915 91.1555 39.272L89.7705 39.7742C88.997 40.0547 88.5972 40.9092 88.8777 41.6827C89.1582 42.4563 90.0127 42.856 90.7863 42.5756L92.1712 42.0734Z" fill="#FCDABA"/>
<path d="M92.3175 46.3213C93.126 46.1681 93.6572 45.3885 93.504 44.5801C93.3508 43.7716 92.5712 43.2404 91.7627 43.3936L90.0333 43.7213C89.2249 43.8745 88.6937 44.6541 88.8469 45.4626C89.0001 46.271 89.7796 46.8022 90.5881 46.649L92.3175 46.3213Z" fill="#FCDABA"/>
<path d="M92.4405 50.408C93.2594 50.3278 93.8583 49.599 93.7782 48.78C93.698 47.9611 92.9692 47.3622 92.1502 47.4423L90.4508 47.6087C89.6319 47.6888 89.033 48.4177 89.1131 49.2366C89.1933 50.0556 89.9221 50.6545 90.7411 50.5743L92.4405 50.408Z" fill="#FCDABA"/>
<path d="M91.9581 54.4801C92.777 54.3999 93.3759 53.671 93.2958 52.8521C93.2156 52.0331 92.4868 51.4342 91.6678 51.5144L90.1945 51.6586C89.3756 51.7387 88.7767 52.4676 88.8568 53.2866C88.937 54.1055 89.6658 54.7044 90.4848 54.6243L91.9581 54.4801Z" fill="#FCDABA"/>
<path d="M60.8818 44.33L26.364 41.0124C23.0771 40.6965 20.1565 43.1049 19.8406 46.3918C19.5247 49.6786 21.9331 52.5992 25.2199 52.9151L59.7378 56.2327C63.0247 56.5486 65.9453 54.1402 66.2612 50.8534C66.5771 47.5665 64.1687 44.6459 60.8818 44.33Z" fill="#DE4A65"/>
<path d="M49.2611 40.9852L50.3348 29.8193L40.147 28.8387L39.0732 40.0047C38.3079 39.976 37.5522 39.9545 36.8132 39.9449C37.5546 43.1496 40.2642 45.6104 43.6434 45.9357C47.025 46.2609 50.1531 44.3621 51.4899 41.3559C50.7629 41.2244 50.0168 41.1024 49.2611 40.9852Z" fill="#FCDABA"/>
<path d="M67.6303 61.7843C65.8988 62.3295 63.2969 62.9298 60.109 62.8676C57.2894 62.8126 54.972 62.2626 53.3506 61.7412C53.3051 59.3712 53.4056 56.7334 53.7595 53.8827C53.9174 52.6176 54.1111 51.4099 54.3311 50.2667C58.3154 50.2787 62.302 50.2906 66.2863 50.3026C66.7335 54.129 67.1831 57.9578 67.6303 61.7843Z" fill="#742384"/>
<path d="M60.3074 56.2623C63.6094 56.2623 66.2862 53.5855 66.2862 50.2835C66.2862 46.9815 63.6094 44.3047 60.3074 44.3047C57.0054 44.3047 54.3286 46.9815 54.3286 50.2835C54.3286 53.5855 57.0054 56.2623 60.3074 56.2623Z" fill="#742384"/>
<path d="M60.4078 50.2954C61.3501 53.6316 61.1588 58.5318 60.8574 60.9544C60.2165 66.1201 58.8007 74.1675 55.687 81.9304C52.6832 82.9778 47.9026 84.2429 41.943 84.1497C35.7035 84.0516 30.7794 82.5043 27.7685 81.299C27.2041 71.8645 26.6373 62.4324 26.0729 52.9978C26.0729 52.9978 26.3359 45.3976 26.3622 41.014C30.0117 40.5117 31.8053 39.8852 36.8132 39.945C37.5545 43.152 40.2641 45.6104 43.6433 45.9357C47.0249 46.2609 50.1554 44.3621 51.4899 41.3559C56.4188 42.2504 61.2209 44.3764 61.2209 44.3764C60.9507 46.3494 60.6781 48.3224 60.4078 50.2954Z" fill="#742384"/>
<path d="M11.9893 100.974C15.2913 100.974 17.9681 98.2972 17.9681 94.9952C17.9681 91.6932 15.2913 89.0164 11.9893 89.0164C8.68729 89.0164 6.0105 91.6932 6.0105 94.9952C6.0105 98.2972 8.68729 100.974 11.9893 100.974Z" fill="#FCDABA"/>
<path d="M16.0788 76.5805C19.3807 76.5805 22.0575 73.9038 22.0575 70.6018C22.0575 67.2998 19.3807 64.623 16.0788 64.623C12.7768 64.623 10.1 67.2998 10.1 70.6018C10.1 73.9038 12.7768 76.5805 16.0788 76.5805Z" fill="#FCDABA"/>
<path d="M10.9466 100.883C8.00508 100.367 5.84794 97.7167 6.02012 94.6604C6.50799 85.9768 7.95725 77.3339 10.3272 68.9707C12.7761 60.3254 16.2151 51.9503 20.551 44.0775C22.1437 41.1861 25.7812 40.1315 28.6725 41.7242C31.5639 43.317 32.6185 46.9521 31.0258 49.8458C27.1276 56.9247 24.033 64.4556 21.8328 72.2304C19.702 79.7517 18.3986 87.5241 17.9609 95.3324C17.7768 98.6303 14.9524 101.151 11.6569 100.967C11.4154 100.952 11.181 100.926 10.949 100.885L10.9466 100.883Z" fill="#FCDABA"/>
<path d="M27.3692 60.5048C25.5732 60.2417 22.9688 59.6462 20.1253 58.2018C17.6118 56.9247 15.7656 55.4181 14.5339 54.2438C15.524 52.0915 16.7652 49.7597 18.3245 47.3491C19.018 46.2777 19.7187 45.2756 20.4147 44.343C23.9972 46.0912 27.5772 47.837 31.1597 49.5852C29.8946 53.225 28.6319 56.8649 27.3668 60.5048H27.3692Z" fill="#742384"/>
<path d="M25.7884 52.9404C29.0903 52.9404 31.7671 50.2636 31.7671 46.9617C31.7671 43.6597 29.0903 40.9829 25.7884 40.9829C22.4864 40.9829 19.8096 43.6597 19.8096 46.9617C19.8096 50.2636 22.4864 52.9404 25.7884 52.9404Z" fill="#742384"/>
<path d="M36.8544 23.6914L38.2855 23.5865L38.6699 28.8338L37.2388 28.9386C36.1846 29.0159 35.2681 28.2245 35.1909 27.1703L35.0861 25.7392C35.0088 24.685 35.8002 23.7686 36.8544 23.6914Z" fill="#FCDABA"/>
<path d="M36.751 27.1934C36.7151 27.1934 36.6793 27.1767 36.6554 27.1456C36.6147 27.093 36.6267 27.0188 36.6793 26.9782L37.6096 26.2775L36.586 25.7202C36.5286 25.6892 36.5071 25.615 36.5382 25.5576C36.5693 25.5002 36.6434 25.4787 36.7008 25.5098L37.887 26.1579C37.9229 26.177 37.9468 26.2129 37.9492 26.2535C37.9516 26.2942 37.9348 26.3325 37.9013 26.3588L36.8228 27.1719C36.8012 27.1886 36.7749 27.1958 36.751 27.1958V27.1934Z" fill="#DCAC82"/>
<path d="M51.7793 22.6017L53.2094 22.4965C54.2641 22.4199 55.18 23.2115 55.2566 24.2638L55.3618 25.6939C55.4383 26.7486 54.6467 27.6645 53.5945 27.7411L52.1643 27.8463L51.7793 22.5993V22.6017Z" fill="#DCAC82"/>
<path d="M49.9092 34.2579L49.4715 38.8138C47.6946 38.8353 44.8583 38.5603 42.7036 36.879C40.9865 35.5422 40.5703 33.9853 40.4484 33.3468L49.9092 34.2555V34.2579Z" fill="#DCAC82"/>
<path d="M44.6263 11.9681L45.8189 11.8808C49.7686 11.5914 53.2091 14.5622 53.4984 18.5119L54.2847 29.245C54.5259 32.5364 52.0502 35.4035 48.7588 35.6446L46.3736 35.8194C42.4239 36.1087 38.9834 33.138 38.6941 29.1882L37.9951 19.6477C37.7058 15.6979 40.6765 12.2575 44.6263 11.9681Z" fill="#FCDABA"/>
<path d="M44.4097 25.6753C44.7271 25.6521 44.9594 25.2915 44.9286 24.87C44.8977 24.4484 44.6153 24.1256 44.2978 24.1488C43.9804 24.1721 43.7481 24.5327 43.7789 24.9542C43.8098 25.3757 44.0922 25.6986 44.4097 25.6753Z" fill="#2C2044"/>
<path d="M51.724 25.14C52.0415 25.1167 52.2738 24.7562 52.2429 24.3347C52.212 23.9131 51.9296 23.5903 51.6122 23.6135C51.2947 23.6368 51.0624 23.9974 51.0933 24.4189C51.1241 24.8404 51.4065 25.1633 51.724 25.14Z" fill="#2C2044"/>
<path d="M42.5457 22.4893C42.5074 22.4893 42.4692 22.4701 42.4476 22.4367C42.4094 22.3817 42.4237 22.3075 42.4787 22.2717C42.7705 22.0732 43.2512 21.8316 43.8897 21.8053C44.4565 21.7814 44.9037 21.9392 45.1835 22.0732C45.2433 22.1019 45.2672 22.1736 45.2385 22.2334C45.2098 22.2932 45.1381 22.3171 45.0783 22.2884C44.8224 22.164 44.4158 22.0229 43.8993 22.0421C43.3181 22.066 42.8805 22.286 42.6126 22.4678C42.5911 22.4821 42.5696 22.4893 42.5457 22.4893Z" fill="#2C2044"/>
<path d="M50.6912 21.8938C50.6577 21.8938 50.6242 21.8795 50.6003 21.8532C50.5573 21.8029 50.5621 21.7288 50.6123 21.6834C50.8132 21.5088 51.148 21.2912 51.5928 21.2409C52.0998 21.1835 52.5088 21.3653 52.7623 21.5255C52.8173 21.5614 52.834 21.6355 52.7981 21.6905C52.7623 21.7455 52.6881 21.7623 52.6331 21.7264C52.4107 21.5853 52.0544 21.4275 51.6191 21.4777C51.2341 21.5207 50.9423 21.7121 50.7677 21.8651C50.7462 21.8843 50.7175 21.8938 50.6888 21.8938H50.6912Z" fill="#2C2044"/>
<path d="M42.9083 27.2977C43.368 27.2641 43.7255 27.0296 43.7068 26.774C43.6881 26.5185 43.3002 26.3386 42.8405 26.3723C42.3807 26.406 42.0232 26.6405 42.042 26.896C42.0607 27.1516 42.4485 27.3314 42.9083 27.2977Z" fill="#FBCCA1"/>
<path d="M53.2498 26.5393C53.7095 26.5056 54.067 26.2711 54.0483 26.0156C54.0296 25.76 53.6417 25.5802 53.182 25.6139C52.7223 25.6475 52.3648 25.882 52.3835 26.1375C52.4022 26.3931 52.7901 26.573 53.2498 26.5393Z" fill="#FBCCA1"/>
<path d="M38.0257 29.671C38.4299 29.671 38.7575 29.3434 38.7575 28.9392C38.7575 28.535 38.4299 28.2074 38.0257 28.2074C37.6216 28.2074 37.2939 28.535 37.2939 28.9392C37.2939 29.3434 37.6216 29.671 38.0257 29.671Z" fill="#85D46E"/>
<path d="M45.8292 11.8829L42.9594 12.0934C39.0086 12.3828 36.0383 15.8218 36.3277 19.7725L36.6171 23.7114L40.5057 23.4268C40.5511 22.5395 40.5942 21.7431 40.6874 21.0042C44.0834 20.4709 46.9556 18.8255 48.8855 16.4699C49.6747 17.1873 51.2053 18.3831 53.5466 19.122C53.537 18.7992 53.5131 18.4787 53.4772 18.1583C53.0396 14.3605 49.6436 11.6031 45.8316 11.8829H45.8292Z" fill="#2C2044"/>
<path d="M48.4957 29.2931C48.1777 29.3171 47.8596 29.3171 47.5439 29.2955C46.3673 29.2142 45.877 29.5634 46.0277 30.2904C46.1856 31.0581 46.7189 31.9645 48.6823 31.821C50.6457 31.6751 51.0403 30.7017 51.0858 29.9197C51.1288 29.1807 50.5931 28.9057 49.4404 29.1568C49.1319 29.2238 48.8162 29.2692 48.4981 29.2931H48.4957Z" fill="#6B222F"/>
<path d="M50.5047 31.1992C50.146 31.5149 49.5768 31.754 48.68 31.821C47.7831 31.8832 47.1853 31.7325 46.7859 31.4694C47.159 30.9935 47.8166 30.6515 48.5891 30.5941C49.3615 30.5367 50.0647 30.7807 50.5047 31.1968V31.1992Z" fill="#DE4A65"/>
<path d="M50.4186 29.0827L50.2535 29.4964C50.1938 29.6495 50.0598 29.7571 49.902 29.7906C49.2348 29.9221 48.4216 30.0489 47.4866 30.1182C46.9557 30.1565 46.4582 30.1708 46.0062 30.1708C45.9321 29.5251 46.4295 29.2166 47.5416 29.2931C47.8573 29.3123 48.1753 29.3147 48.4934 29.2907C48.8115 29.2668 49.1295 29.2214 49.4357 29.1544C49.8374 29.0683 50.1627 29.0444 50.4186 29.0803V29.0827Z" fill="white"/>
</g>
</g>
</g>
<defs>
<clipPath id="clip0_707_26483">
<rect width="100" height="100" fill="white"/>
</clipPath>
<clipPath id="clip1_707_26483">
<rect width="153.535" height="86.3636" fill="white" transform="translate(-20.3704 7.31818)"/>
</clipPath>
<clipPath id="clip2_707_26483">
<rect width="95.6397" height="157.214" fill="white" transform="translate(12.4158 54.8182)"/>
</clipPath>
<clipPath id="clip3_707_26483">
<rect width="95.6397" height="157.214" fill="white" transform="translate(-83.2239 54.8182)"/>
</clipPath>
<clipPath id="clip4_707_26483">
<rect width="95.6397" height="157.214" fill="white" transform="translate(-48.8384 68.6523)"/>
</clipPath>
<clipPath id="clip5_707_26483">
<rect width="95.6397" height="157.214" fill="white" transform="translate(46.8014 68.6523)"/>
</clipPath>
<clipPath id="clip6_707_26483">
<rect width="6.95707" height="5.91751" fill="white" transform="translate(37.3654 12.9958)"/>
</clipPath>
<clipPath id="clip7_707_26483">
<rect width="1.83923" height="1.83923" fill="white" transform="translate(10.7366 17.4739)"/>
</clipPath>
<clipPath id="clip8_707_26483">
<rect width="1.83923" height="1.83923" fill="white" transform="translate(70.9512 35.4663)"/>
</clipPath>
<clipPath id="clip9_707_26483">
<rect width="1.83922" height="1.83923" fill="white" transform="translate(87.1843 27.9495)"/>
</clipPath>
<clipPath id="clip10_707_26483">
<rect width="2.95876" height="2.95875" fill="white" transform="translate(24.7307 27.3098)"/>
</clipPath>
<clipPath id="clip11_707_26483">
<rect width="5.19781" height="5.19781" fill="white" transform="translate(5.13892 31.548)"/>
</clipPath>
<clipPath id="clip12_707_26483">
<rect width="5.19781" height="5.19781" fill="white" transform="translate(80.3872 14.3552)"/>
</clipPath>
<clipPath id="clip13_707_26483">
<rect width="1.83923" height="1.83922" fill="white" transform="translate(62.7947 18.7534)"/>
</clipPath>
<clipPath id="clip14_707_26483">
<rect width="7.117" height="7.75673" fill="white" transform="translate(48.5607 27.9495)"/>
</clipPath>
<clipPath id="clip15_707_26483">
<rect width="89.4067" height="168.312" fill="white" transform="translate(4.37708 11.8638)"/>
</clipPath>
<clipPath id="clip16_707_26483">
<rect width="12.3212" height="26.3675" fill="white" transform="translate(79.2134 31.1754) rotate(0.545487)"/>
</clipPath>
</defs>
</svg>
