<svg width="5000" height="1723" viewBox="0 0 5000 1723" fill="none" xmlns="http://www.w3.org/2000/svg">
<g clip-path="url(#clip0_610_7737)">
<rect width="5000" height="1722.22" fill="#742384"/>
<g clip-path="url(#clip1_610_7737)">
<path d="M3043.37 429.65C3413.93 429.446 3370.81 705.889 3784.3 772.084C4197.79 838.279 4513.88 938.665 4513.88 1335.46C4513.88 1703.58 4188.12 1936.76 3822.4 1936.76C3456.69 1936.76 2086.17 2163.48 2084.11 1588.84C2082.36 1101.2 2416.23 1167.33 2518.38 962.677C2620.54 758.029 2658.36 429.873 3043.37 429.65Z" fill="#8B3D99"/>
<mask id="mask0_610_7737" style="mask-type:alpha" maskUnits="userSpaceOnUse" x="2083" y="287" width="2431" height="1694">
<path d="M4513.88 287.798C4513.88 518.879 4513.89 928.429 4513.89 1335.47C4513.89 1703.58 4188.12 1936.77 3822.41 1936.77C3456.7 1936.77 2086.18 2163.48 2084.12 1588.84C2082.35 1097.73 2084.12 523.464 2084.12 287.807C2884.5 287.815 3702.92 287.798 4513.88 287.798Z" fill="#8B3D99"/>
</mask>
<g mask="url(#mask0_610_7737)">
<path d="M3856.16 1862.9C3763.34 1863.38 3686.09 1825.52 3631.65 1761.77C3501.13 1609.06 3523.69 1339.97 3538.41 1154.86C3544.23 1082 3608.09 1027.62 3680.9 1033.44C3753.76 1039.27 3808.13 1103.02 3802.31 1175.93C3796.75 1245.35 3787.27 1332.66 3792.51 1426.33C3798.97 1541.66 3825.08 1580.63 3832.92 1589.79C3837.36 1594.98 3840.33 1597.31 3850.23 1598C3862.78 1598.9 3867.7 1596.41 3874.11 1590.58C3943.53 1527.31 3949.62 1297.45 3952.79 1213.58C3955.55 1140.51 4017.29 1083.64 4090.09 1086.29C4163.16 1089.04 4220.14 1150.52 4217.38 1223.59C4217.23 1227.61 4217.12 1232.96 4216.96 1239.37C4212.88 1413.52 4191.39 1659.68 4052.39 1786.29C3997.54 1836.27 3930.08 1862.48 3856.11 1862.9H3856.16Z" fill="#FCDABA"/>
<path d="M4085.12 1350.98C4158.23 1350.98 4217.49 1291.72 4217.49 1218.61C4217.49 1145.5 4158.23 1086.23 4085.12 1086.23C4012.01 1086.23 3952.74 1145.5 3952.74 1218.61C3952.74 1291.72 4012.01 1350.98 4085.12 1350.98Z" fill="#FCDABA"/>
<path d="M4056.05 1042.97L3991.02 1125.52L4179.21 1311.75L4314.34 1311.01L4312.96 1041.6L4056.05 1042.97Z" fill="#FCDABA"/>
<path d="M3952.74 1219.3C3952.21 1197.8 3953.11 1164.86 3961.27 1125.95C3972.07 1074.64 3987.53 1051.92 3999.66 1011.05C4007.23 985.365 4014.43 949.412 4013.32 902.869C4012.84 883.33 4028.2 867.074 4047.73 866.81C4065.79 866.598 4081.2 880.206 4082.89 898.209C4086.07 932.203 4085.96 967.097 4082.15 1002.57C4093.59 1013.69 4117.31 1039.9 4125.68 1080.46C4141.03 1154.8 4091.26 1211.88 4085.12 1218.61L3952.74 1219.3Z" fill="#FCDABA"/>
<path d="M4052.13 1248.05C4062.56 1234.65 4094.33 1190.55 4094.75 1125.79C4095.18 1064 4066.9 1020.95 4056.74 1006.86C4061.71 1003.16 4070.45 995.585 4077.02 983.036C4083.74 970.222 4084.85 958.414 4085.01 952.219C4084.8 962.333 4084.32 972.764 4083.63 983.566C4083.21 990.025 4082.68 996.379 4082.1 1002.57C4128.11 1026.98 4156.33 1074.9 4154.22 1125.26C4151.78 1182.66 4110.32 1233.17 4052.13 1248.1V1248.05Z" fill="#DCAC82"/>
<g clip-path="url(#clip2_610_7737)">
<path d="M4351.85 1299.58V782.606C4351.85 770.995 4342.41 761.583 4330.76 761.583H4101.53C4089.88 761.583 4080.44 770.995 4080.44 782.606V1299.58C4080.44 1311.19 4089.88 1320.6 4101.53 1320.6H4330.76C4342.41 1320.6 4351.85 1311.19 4351.85 1299.58Z" fill="#403556"/>
<path d="M4351.85 1283.37V766.393C4351.85 754.782 4342.41 745.37 4330.76 745.37H4101.53C4089.88 745.37 4080.44 754.782 4080.44 766.393V1283.37C4080.44 1294.98 4089.88 1304.39 4101.53 1304.39H4330.76C4342.41 1304.39 4351.85 1294.98 4351.85 1283.37Z" fill="#2C2044"/>
<path d="M4338.67 1260.24V789.523C4338.67 783.763 4333.99 779.093 4328.21 779.093H4104.03C4098.25 779.093 4093.56 783.763 4093.56 789.523V1260.24C4093.56 1266 4098.25 1270.67 4104.03 1270.67H4328.21C4333.99 1270.67 4338.67 1266 4338.67 1260.24Z" fill="#742384"/>
<path d="M4188.79 768.339H4243.45C4246.62 768.339 4249.2 765.774 4249.2 762.61V761.907C4249.2 758.744 4246.62 756.179 4243.45 756.179H4188.79C4185.61 756.179 4183.04 758.744 4183.04 761.907V762.61C4183.04 765.774 4185.61 768.339 4188.79 768.339Z" fill="#544A69"/>
<path d="M4282.14 1066.77C4265.97 1067.07 4247.63 1068.82 4230.68 1070.95C4232.57 1064.11 4234.46 1057.36 4234.46 1057.36C4234.46 1057.36 4236.4 1061.55 4241.88 1061.13C4249.65 1060.52 4259.11 1052.93 4263.69 1039.02C4268.56 1024.25 4268.12 1007.47 4258.19 1006.07C4250.16 1004.93 4246.33 1012.04 4245.78 1013.46C4245.78 1013.46 4247.49 1007 4242.39 1008.13C4237.5 1009.21 4236.61 1011.39 4235.4 1015.29C4235.19 1015.98 4231.07 1031.33 4226.76 1047.51C4226.7 1047.61 4226.65 1047.73 4226.61 1047.87C4225.54 1051.53 4223.44 1052.75 4221.91 1052.85C4216.99 1053.17 4227.58 1020.58 4228.38 1018.11C4229.44 1014.85 4230.07 1012.38 4226.48 1011.02C4224.06 1010.1 4220.74 1010.43 4219.77 1013.04C4219.36 1014.13 4219.06 1014.94 4219.06 1014.94C4219.06 1014.94 4216.3 1010.82 4210.18 1011.38C4204.06 1011.94 4196.34 1019.4 4191.23 1032.51C4186.11 1045.61 4183.89 1064.4 4196.02 1066.27C4202.17 1067.22 4207.34 1063.69 4210.04 1057.88C4210.04 1057.88 4209.57 1061.77 4213.62 1063.68C4215.21 1064.43 4219.17 1064.14 4222.9 1062.03C4221.92 1065.72 4221 1069.22 4220.17 1072.34C4194 1075.97 4173.39 1080.02 4173.39 1080.02C4173.4 1080.01 4187.74 1031.35 4190.97 1020.64C4193.68 1011.68 4188.58 1013.63 4184.81 1014.73C4180.79 1015.9 4178.89 1019.29 4176.88 1025.45C4168.09 1052.38 4161.17 1060.76 4156.16 1058.95C4151.56 1057.29 4166.03 1028.71 4162.56 1024.93C4159.55 1021.66 4153.34 1021.83 4152.16 1023.76C4150.98 1025.69 4152.74 1027.45 4151.98 1030.18C4151.23 1032.91 4145.43 1047.69 4144.82 1051C4144.21 1054.31 4139.18 1072.65 4152.49 1071.86C4160.35 1071.39 4165.74 1065.43 4166.31 1063.77C4163.86 1070.89 4160.35 1082.4 4160.35 1082.4C4160.35 1082.4 4144.25 1086.43 4131.41 1099.9C4121.23 1110.59 4114.02 1133.63 4129.24 1137.3C4152.89 1143 4164.07 1106.79 4169.81 1093.17C4188.99 1088.89 4203.61 1086.04 4217.14 1083.93C4216.94 1084.72 4216.8 1085.26 4216.75 1085.48C4215.52 1091.15 4215.8 1093.42 4220.21 1092.87C4224.97 1092.28 4225.57 1089.83 4227.13 1083.9C4227.23 1083.5 4227.37 1082.99 4227.52 1082.41C4243.55 1080.24 4259.29 1078.88 4280.94 1077.07C4287.67 1076.51 4287.6 1075.38 4288.26 1071.35C4289 1066.78 4283.74 1066.74 4282.14 1066.77ZM4240.85 1035.52C4244.09 1024.91 4247.06 1020.66 4249.86 1019.47C4256.53 1016.6 4257.79 1025 4252.65 1037.74C4246.69 1052.49 4239.73 1052.15 4237.07 1049.24C4237.06 1049.24 4237.43 1046.72 4240.85 1035.52ZM4211.07 1041.92C4208.21 1048.85 4205.53 1053.72 4201.85 1053.75C4196.56 1053.79 4196.7 1045.82 4200.46 1035.8C4203.62 1027.37 4209.39 1022.06 4212.5 1021.46C4215.61 1020.86 4219.23 1022.17 4211.07 1041.92ZM4141.18 1122.5C4128.61 1133.75 4131.78 1118.34 4136.46 1111.68C4145.33 1099.04 4156.29 1095.84 4156.29 1095.84C4150.72 1112.18 4143.76 1120.19 4141.18 1122.5Z" fill="white"/>
<path d="M4298.86 1026.01C4303.61 1020.49 4305.78 1008.73 4297.81 1004.41C4288.17 999.176 4275.58 1007.16 4270.39 1024.38C4265.77 1039.69 4264.04 1058.51 4279.71 1057.81C4287.43 1057.47 4294.09 1051.9 4296.51 1047.76C4297.68 1045.75 4298.14 1042.59 4297.94 1041.19C4297.37 1037.24 4294.96 1036.67 4290.88 1041.85C4289.88 1042.99 4281.83 1050.16 4277.9 1045.9C4275.06 1042.82 4277.45 1036.78 4277.56 1036.77C4282.71 1036.4 4291.71 1034.31 4298.86 1026.01ZM4287.33 1012.64C4291.66 1008.59 4295.8 1013.44 4290.79 1020.42C4285.74 1027.46 4279.83 1027.28 4279.78 1027.51C4280.39 1024.75 4282.61 1017.07 4287.33 1012.64Z" fill="white"/>
<path d="M4213.59 965.22C4212.65 964.612 4211.24 964.31 4209.36 964.31H4203.75V972.105H4209.54C4213.19 972.105 4215.01 970.789 4215.01 968.155C4215.01 966.803 4214.54 965.828 4213.59 965.22Z" fill="#10CBB4"/>
<path d="M4216.59 928.936C4199.64 929.719 4185.8 943.373 4184.76 960.36C4184.06 971.861 4189.14 982.198 4197.35 988.751C4198.2 989.425 4198.69 990.444 4198.69 991.529V998.935C4198.69 999.504 4199.01 1000.03 4199.51 1000.29L4199.71 1000.4C4200.2 1000.65 4200.78 1000.61 4201.22 1000.29L4207.56 995.711C4208.38 995.112 4209.43 994.902 4210.43 995.138C4212.91 995.733 4215.5 996.048 4218.17 996.048C4236.66 996.048 4251.64 981.017 4251.64 962.472C4251.64 943.408 4235.8 928.048 4216.59 928.936ZM4219.33 972.587C4218.57 973.781 4217.54 974.665 4216.24 975.238C4215.43 975.579 4214.5 975.815 4213.45 975.955C4212.4 976.095 4211.17 976.165 4209.76 976.165H4201.63C4200.45 976.165 4199.62 975.903 4199.11 975.373C4198.61 974.844 4198.36 974.004 4198.36 972.849V952.778C4198.36 951.601 4198.61 950.753 4199.13 950.237C4199.64 949.72 4200.48 949.462 4201.62 949.462H4210.25C4211.52 949.462 4212.62 949.541 4213.55 949.698C4214.49 949.856 4215.32 950.162 4216.06 950.608C4216.68 950.985 4217.24 951.461 4217.73 952.039C4218.21 952.616 4218.58 953.255 4218.83 953.951C4219.09 954.651 4219.21 955.386 4219.21 956.164C4219.21 958.837 4217.88 960.788 4215.22 962.031C4218.72 963.146 4220.47 965.32 4220.47 968.549C4220.47 970.045 4220.1 971.388 4219.33 972.587ZM4238.27 973.641C4237.6 974.617 4236.62 975.36 4235.32 975.863C4234.02 976.366 4232.43 976.62 4230.57 976.62C4228.79 976.62 4227.26 976.349 4225.99 975.802C4224.72 975.255 4223.78 974.573 4223.18 973.755C4222.57 972.937 4222.27 972.114 4222.27 971.287C4222.27 970.741 4222.46 970.273 4222.85 969.883C4223.24 969.494 4223.73 969.301 4224.32 969.301C4224.84 969.301 4225.24 969.428 4225.52 969.682C4225.8 969.936 4226.07 970.294 4226.32 970.758C4226.83 971.646 4227.44 972.307 4228.14 972.744C4228.85 973.182 4229.82 973.4 4231.04 973.4C4232.03 973.4 4232.84 973.177 4233.48 972.735C4234.12 972.294 4234.43 971.786 4234.43 971.213C4234.43 970.338 4234.1 969.699 4233.44 969.301C4232.78 968.899 4231.7 968.518 4230.18 968.155C4228.48 967.731 4227.09 967.285 4226.02 966.817C4224.95 966.348 4224.09 965.732 4223.45 964.966C4222.81 964.2 4222.49 963.26 4222.49 962.144C4222.49 961.147 4222.78 960.206 4223.38 959.323C4223.97 958.435 4224.85 957.73 4226 957.201C4227.16 956.672 4228.55 956.409 4230.18 956.409C4231.47 956.409 4232.62 956.545 4233.64 956.812C4234.67 957.079 4235.52 957.437 4236.2 957.888C4236.89 958.338 4237.41 958.833 4237.76 959.38C4238.12 959.926 4238.3 960.46 4238.3 960.981C4238.3 961.549 4238.11 962.018 4237.73 962.385C4237.35 962.748 4236.8 962.932 4236.1 962.932C4235.59 962.932 4235.16 962.787 4234.8 962.494C4234.44 962.201 4234.03 961.764 4233.58 961.182C4233.2 960.696 4232.76 960.307 4232.25 960.018C4231.74 959.725 4231.05 959.581 4230.18 959.581C4229.29 959.581 4228.54 959.773 4227.95 960.154C4227.35 960.535 4227.06 961.011 4227.06 961.584C4227.06 962.105 4227.27 962.534 4227.71 962.871C4228.15 963.203 4228.73 963.479 4229.47 963.697C4230.21 963.916 4231.23 964.183 4232.52 964.498C4234.06 964.874 4235.31 965.325 4236.29 965.845C4237.26 966.366 4238 966.983 4238.51 967.696C4239.01 968.405 4239.26 969.218 4239.26 970.128C4239.27 971.489 4238.94 972.665 4238.27 973.641Z" fill="#10CBB4"/>
<path d="M4211.8 960.049C4212.54 959.795 4213.09 959.31 4213.48 958.592C4213.78 958.08 4213.94 957.512 4213.94 956.882C4213.94 955.534 4213.46 954.638 4212.5 954.196C4211.55 953.754 4210.09 953.531 4208.13 953.531H4203.75V960.434H4208.69C4210.03 960.43 4211.07 960.303 4211.8 960.049Z" fill="#10CBB4"/>
</g>
<path d="M4375.77 983.615C4392.9 977.405 4401.75 958.486 4395.54 941.358C4389.33 924.231 4370.41 915.38 4353.29 921.591L4322.62 932.709C4305.49 938.919 4296.64 957.838 4302.85 974.966C4309.06 992.093 4327.98 1000.94 4345.11 994.733L4375.77 983.615Z" fill="#FCDABA"/>
<path d="M4378.99 1077.73C4396.89 1074.33 4408.65 1057.07 4405.26 1039.17C4401.87 1021.27 4384.61 1009.51 4366.71 1012.9L4328.42 1020.16C4310.52 1023.55 4298.76 1040.81 4302.15 1058.71C4305.54 1076.61 4322.8 1088.37 4340.7 1084.98L4378.99 1077.73Z" fill="#FCDABA"/>
<path d="M4381.73 1168.21C4399.87 1166.44 4413.13 1150.3 4411.35 1132.17C4409.58 1114.04 4393.44 1100.78 4375.31 1102.55L4337.68 1106.24C4319.55 1108.01 4306.29 1124.15 4308.06 1142.28C4309.84 1160.41 4325.98 1173.67 4344.11 1171.9L4381.73 1168.21Z" fill="#FCDABA"/>
<path d="M4371.11 1258.31C4389.24 1256.54 4402.5 1240.4 4400.72 1222.27C4398.95 1204.14 4382.81 1190.88 4364.68 1192.65L4332.06 1195.85C4313.93 1197.62 4300.67 1213.76 4302.44 1231.89C4304.22 1250.02 4320.35 1263.28 4338.49 1261.51L4371.11 1258.31Z" fill="#FCDABA"/>
<path d="M3832.44 1420.08C3794.1 1432.16 3736.49 1445.45 3665.91 1444.07C3603.48 1442.85 3552.17 1430.67 3516.27 1419.13C3515.27 1366.66 3517.49 1308.25 3525.33 1245.14C3528.82 1217.13 3533.11 1190.39 3537.98 1165.08C3626.2 1165.34 3714.47 1165.61 3802.68 1165.87C3812.58 1250.59 3822.54 1335.36 3832.44 1420.08Z" fill="#10CBB4"/>
<path d="M3670.3 1297.82C3743.41 1297.82 3802.68 1238.56 3802.68 1165.45C3802.68 1092.34 3743.41 1033.07 3670.3 1033.07C3597.2 1033.07 3537.93 1092.34 3537.93 1165.45C3537.93 1238.56 3597.2 1297.82 3670.3 1297.82Z" fill="#10CBB4"/>
<path d="M3677.71 1033.3L2778.9 984.15C2705.9 980.158 2643.49 1036.1 2639.5 1109.1C2635.51 1182.1 2691.45 1244.51 2764.45 1248.5L3663.25 1297.65C3736.25 1301.65 3798.67 1245.7 3802.66 1172.7C3806.65 1099.7 3750.71 1037.29 3677.71 1033.3Z" fill="#10CBB4"/>
<path d="M3058.26 500.556C3055.98 541.645 3050.95 582.417 3022.99 608.15C2980.1 647.704 3004.94 673.649 3024.9 650.034C3024.9 650.034 3005.09 719.239 3020.5 732.9C3034.16 745.026 3055.93 719.08 3055.93 719.08C3055.93 719.08 3057.25 746.826 3052.38 761.599C3033.32 818.997 3065.83 822.439 3097.44 777.325C3086.85 800.253 3070.81 829.693 3088.12 839.277C3100.03 845.896 3130.37 832.499 3144.19 800.835L3130.32 497.22L3058.26 500.503V500.556Z" fill="#2C2044"/>
<path d="M3344.4 963.39L3357.95 715.373L3131.65 702.983L3118.09 951C3101.15 951.053 3084.41 951.265 3068.05 951.741C3087.33 1021.95 3149.54 1073.95 3224.63 1078.03C3299.71 1082.16 3367.22 1037.26 3394.06 969.585C3377.86 967.362 3361.24 965.296 3344.4 963.39Z" fill="#FCDABA"/>
<path d="M3352.55 814.016L3346.99 915.204C3307.7 917.322 3244.75 913.774 3195.5 878.615C3156.32 850.605 3145.68 816.558 3142.39 802.526L3352.5 814.016H3352.55Z" fill="#DCAC82"/>
<path d="M2528.49 1759.6C2601.6 1759.6 2660.87 1700.33 2660.87 1627.22C2660.87 1554.12 2601.6 1494.85 2528.49 1494.85C2455.38 1494.85 2396.12 1554.12 2396.12 1627.22C2396.12 1700.33 2455.38 1759.6 2528.49 1759.6Z" fill="#FCDABA"/>
<path d="M2378.38 2290.53C2313.94 2275.54 2269.51 2214.33 2276.98 2146.98C2298.27 1955.62 2340.73 1766.27 2403.27 1584.23C2467.86 1396.1 2554.01 1215.06 2659.38 1046.31C2698.09 984.306 2779.74 965.403 2841.74 1004.11C2903.75 1042.82 2922.65 1124.46 2883.94 1186.52C2789.22 1338.33 2711.7 1501.04 2653.61 1670.27C2597.43 1833.94 2559.2 2004.23 2540.09 2176.31C2531.99 2248.96 2466.54 2301.33 2393.89 2293.23C2388.6 2292.65 2383.41 2291.75 2378.33 2290.58L2378.38 2290.53Z" fill="#FCDABA"/>
<path d="M2790.28 1417.65C2750.88 1409.65 2694.07 1393.35 2632.91 1357.97C2578.9 1326.73 2539.93 1291.15 2514.09 1263.67C2538.6 1217.29 2568.84 1167.25 2606.22 1115.83C2622.85 1093.01 2639.53 1071.73 2656.05 1051.87C2733.14 1094.81 2810.18 1137.81 2887.28 1180.75C2854.93 1259.7 2822.58 1338.65 2790.22 1417.6L2790.28 1417.65Z" fill="#10CBB4"/>
<path d="M2771.69 1248.79C2844.8 1248.79 2904.07 1189.53 2904.07 1116.42C2904.07 1043.31 2844.8 984.043 2771.69 984.043C2698.58 984.043 2639.32 1043.31 2639.32 1116.42C2639.32 1189.53 2698.58 1248.79 2771.69 1248.79Z" fill="#10CBB4"/>
<path d="M3067.51 587.606L3099.25 586.154L3104.58 702.522L3072.84 703.974C3049.46 705.044 3029.66 686.974 3028.59 663.595L3027.14 631.858C3026.07 608.479 3044.14 588.676 3067.51 587.606Z" fill="#FCDABA"/>
<path fill-rule="evenodd" clip-rule="evenodd" d="M3059.41 628.688C3060.14 627.424 3061.77 626.996 3063.03 627.731L3088.87 642.769C3089.65 643.221 3090.14 644.037 3090.18 644.935C3090.22 645.833 3089.81 646.691 3089.07 647.213L3064.72 664.58C3063.53 665.429 3061.87 665.152 3061.02 663.962C3060.18 662.771 3060.45 661.118 3061.64 660.269L3082.66 645.283L3060.37 632.308C3059.1 631.572 3058.67 629.951 3059.41 628.688Z" fill="#DCAC82"/>
<path d="M3398.51 572.566L3430.23 571.137C3453.58 570.078 3473.44 588.134 3474.5 611.538L3475.93 643.255C3476.98 666.606 3458.93 686.462 3435.52 687.521L3403.81 688.95L3398.51 572.566Z" fill="#DCAC82"/>
<path d="M3246.72 332.876L3273.17 331.666C3360.76 327.658 3435.1 395.495 3439.11 483.088L3450 721.114C3453.34 794.108 3396.81 856.061 3323.82 859.401L3270.92 861.822C3183.33 865.83 3108.99 797.993 3104.98 710.399L3095.3 498.821C3091.29 411.228 3159.13 336.884 3246.72 332.876Z" fill="#FCDABA"/>
<path d="M3247.47 635.454C3254.52 635.132 3259.88 627.293 3259.45 617.945C3259.02 608.597 3252.97 601.28 3245.93 601.602C3238.89 601.924 3233.52 609.763 3233.95 619.111C3234.38 628.459 3240.43 635.776 3247.47 635.454Z" fill="#2C2044"/>
<path d="M3400.97 628.447C3408.01 628.125 3413.37 620.286 3412.95 610.938C3412.52 601.589 3406.46 594.272 3399.42 594.595C3392.38 594.917 3387.02 602.756 3387.45 612.104C3387.88 621.452 3393.93 628.769 3400.97 628.447Z" fill="#2C2044"/>
<path d="M3208.79 575.374C3207.95 575.374 3207.05 574.95 3206.57 574.156C3205.78 572.938 3206.15 571.297 3207.36 570.503C3213.93 566.32 3224.78 561.236 3238.87 561.025C3251.63 560.76 3261.27 564.572 3267.36 567.749C3268.68 568.438 3269.16 570.026 3268.47 571.297C3267.78 572.621 3266.19 573.097 3264.92 572.409C3259.47 569.602 3250.78 566.267 3239.77 566.267C3239.5 566.267 3239.24 566.267 3238.97 566.267C3226.11 566.478 3216.26 571.085 3210.28 574.897C3209.85 575.162 3209.32 575.321 3208.85 575.321L3208.79 575.374Z" fill="#2C2044"/>
<path d="M3380.78 567.483C3380.03 567.483 3379.24 567.165 3378.71 566.53C3377.81 565.418 3377.97 563.723 3379.08 562.823C3383.63 559.064 3391.15 554.457 3401.06 553.61C3412.28 552.657 3421.23 556.893 3426.79 560.652C3428.01 561.447 3428.32 563.088 3427.53 564.306C3426.74 565.524 3425.04 565.841 3423.88 565.047C3419.06 561.764 3411.27 558.111 3401.53 558.905C3392.95 559.646 3386.44 563.67 3382.42 566.953C3381.94 567.377 3381.31 567.536 3380.72 567.536L3380.78 567.483Z" fill="#2C2044"/>
<path d="M3429.65 435.956C3402.17 444.375 3367.38 452.264 3326.66 455.229C3270.22 459.359 3222.72 452.582 3188.94 445.01C3156.59 486.47 3152.88 526.659 3148.43 583.951L3062.23 587.869L3058.26 500.554C3054.23 412.922 3122.06 338.634 3209.69 334.609L3279.91 331.432C3347.73 328.308 3409.16 371.198 3429.65 435.956Z" fill="#2C2044"/>
<path d="M3213.31 670.435C3223.51 669.968 3231.56 664.996 3231.31 659.328C3231.05 653.661 3222.57 649.445 3212.38 649.911C3202.18 650.378 3194.13 655.35 3194.39 661.018C3194.64 666.685 3203.12 670.901 3213.31 670.435Z" fill="#FBCCA1"/>
<path d="M3428.73 660.596C3438.92 660.129 3446.98 655.157 3446.72 649.49C3446.46 643.822 3437.98 639.606 3427.79 640.073C3417.59 640.539 3409.54 645.512 3409.8 651.179C3410.06 656.846 3418.53 661.062 3428.73 660.596Z" fill="#FBCCA1"/>
<path d="M3259.94 332.331C3318.19 329.684 3324.22 401.431 3326.82 457.664C3288.85 441.355 3286.68 547.255 3240.24 559.857C3221.66 565.152 3235.85 534.97 3245.27 496.105C3217.69 546.99 3204.61 589.297 3181.63 591.415C3161.98 593.268 3172.95 552.073 3179.3 497.905C3147.37 561.975 3145.68 636.793 3113.91 638.223C3102.36 638.752 3092.73 597.292 3089.5 501.188C3087.33 436.642 3086.16 340.221 3259.94 332.278V332.331Z" fill="#2C2044"/>
<path d="M3319.83 334.98C3321.37 369.08 3324.22 401.485 3326.77 457.718C3364.36 436.326 3364.31 543.762 3400.53 552.551C3415.03 556.364 3407.62 525.388 3397.35 487.423C3424.46 543.921 3456.12 569.337 3472.22 562.347C3486.89 555.993 3467.03 542.438 3443.26 453.112C3427.53 395.608 3378.82 341.493 3319.83 334.98Z" fill="#2C2044"/>
<path d="M3316.76 717.755C3309.72 718.072 3302.67 717.914 3295.69 717.225C3269.69 714.737 3258.62 722.15 3261.48 738.299C3264.5 755.349 3275.72 775.735 3319.3 773.829C3362.83 771.817 3372.14 750.478 3373.63 733.216C3375 716.855 3363.36 710.501 3337.67 715.319C3330.79 716.643 3323.8 717.437 3316.76 717.755Z" fill="#6B222F"/>
<path d="M3360.07 761.174C3351.97 767.952 3339.21 772.876 3319.3 773.829C3299.39 774.676 3286.26 770.917 3277.58 764.934C3286.1 754.608 3300.87 747.46 3318.03 746.666C3335.19 745.872 3350.59 751.696 3360.02 761.174H3360.07Z" fill="#DE4A65"/>
<path d="M3359.44 714.311L3355.57 723.418C3354.14 726.754 3351.12 729.084 3347.58 729.719C3332.75 732.261 3314.69 734.538 3293.94 735.491C3282.13 736.02 3271.17 736.073 3261.16 735.755C3259.94 721.406 3271.12 714.893 3295.69 717.276C3302.68 717.911 3309.72 718.123 3316.76 717.805C3323.8 717.488 3330.84 716.64 3337.68 715.37C3346.62 713.675 3353.88 713.358 3359.49 714.311H3359.44Z" fill="white"/>
<path d="M3677.13 1033.34C3647.38 1390.32 3617.57 1747.26 3587.81 2104.25L2794.99 2108.17C2794.83 2049.18 2794.67 1990.19 2794.51 1931.15C2799.22 1436.76 2799.91 1310.21 2799.49 1293.64C2799.49 1292.95 2798.69 1259.96 2798.69 1259.96C2797.27 1209.92 2794.62 1157.77 2790.43 1103.71C2787.26 1062.56 2783.34 1022.69 2778.89 984.092C2820.4 976.149 2864.94 969.054 2912.27 963.494C2967.5 956.981 3019.65 953.328 3068.05 951.686C3087.43 1021.74 3149.59 1073.52 3224.52 1077.6C3299.44 1081.68 3366.9 1036.99 3393.75 969.53C3503.62 985.362 3598.98 1009.14 3677.13 1033.28V1033.34Z" fill="#10CBB4"/>
<path d="M3002.66 2107.16C2985.02 2107.27 2967.39 2107.32 2949.71 2107.43C2954.47 1888.11 2949.65 1666.41 2935.46 1447.83C2925.09 1287.71 2909.36 1126.11 2888.76 966.569C2896.55 965.51 2904.38 964.557 2912.32 963.604C2922.12 962.439 2931.76 961.38 2941.34 960.427C2962.04 1120.87 2977.82 1283.42 2988.31 1444.39C3002.6 1663.97 3007.42 1886.73 3002.66 2107.16Z" fill="#002649"/>
<path d="M3578.97 1005.96C3571.13 1164.86 3561.02 1325.04 3548.78 1483.04C3532.74 1689.6 3512.78 1898.49 3489.22 2104.73C3471.42 2104.83 3453.63 2104.94 3435.84 2104.99C3459.67 1897.37 3479.84 1687 3495.94 1478.96C3508.38 1318.21 3518.71 1155.28 3526.55 993.678C3544.55 997.596 3562.02 1001.73 3578.97 1005.96Z" fill="#002649"/>
</g>
<path d="M3580.78 375.532C3639.53 375.532 3687.17 327.902 3687.17 269.146C3687.17 210.391 3639.53 162.76 3580.78 162.76C3522.02 162.76 3474.39 210.391 3474.39 269.146C3474.39 327.902 3522.02 375.532 3580.78 375.532Z" fill="#E3B2EB"/>
<path d="M3516.64 270.558C3516.64 234.346 3546 204.991 3582.21 204.991C3618.42 204.991 3647.78 234.346 3647.78 270.558C3647.78 306.769 3618.42 336.124 3582.21 336.124C3546 336.124 3516.64 306.769 3516.64 270.558ZM3582.21 195.689C3540.86 195.689 3507.34 229.208 3507.34 270.558C3507.34 311.907 3540.86 345.427 3582.21 345.427C3623.56 345.427 3657.07 311.907 3657.07 270.558C3657.07 229.208 3623.56 195.689 3582.21 195.689Z" fill="white"/>
<path d="M3517.43 240.415C3514.86 240.415 3512.78 242.498 3512.78 245.067C3512.78 247.636 3514.86 249.718 3517.43 249.718H3646.97C3649.53 249.718 3651.62 247.636 3651.62 245.067C3651.62 242.498 3649.53 240.415 3646.97 240.415H3517.43Z" fill="white"/>
<path d="M3646.97 293.085L3517.43 293.109C3514.86 293.11 3512.78 295.193 3512.78 297.761C3512.78 300.331 3514.86 302.412 3517.43 302.412L3646.97 302.387C3649.53 302.387 3651.62 300.304 3651.62 297.735C3651.62 295.166 3649.53 293.084 3646.97 293.085Z" fill="white"/>
<path d="M3608.04 201.132C3606.42 199.132 3603.49 198.818 3601.49 200.431C3599.5 202.044 3599.18 204.972 3600.79 206.971C3611.77 220.577 3619.31 243.758 3619.31 270.561C3619.31 297.364 3611.77 320.545 3600.79 334.151C3599.18 336.15 3599.5 339.078 3601.49 340.691C3603.49 342.304 3606.42 341.99 3608.04 339.99C3620.71 324.274 3628.6 298.818 3628.6 270.561C3628.6 242.304 3620.71 216.848 3608.04 201.132Z" fill="white"/>
<path d="M3563.63 206.971C3565.24 204.972 3564.93 202.044 3562.93 200.431C3560.93 198.818 3558 199.132 3556.39 201.132C3543.71 216.848 3535.82 242.304 3535.82 270.561C3535.82 298.818 3543.71 324.274 3556.39 339.99C3558 341.99 3560.93 342.304 3562.93 340.691C3564.93 339.078 3565.24 336.15 3563.63 334.151C3552.66 320.545 3545.12 297.364 3545.12 270.561C3545.12 243.758 3552.66 220.577 3563.63 206.971Z" fill="white"/>
<path d="M3586.84 200.34C3586.84 197.771 3584.76 195.689 3582.19 195.689C3579.62 195.689 3577.54 197.771 3577.54 200.34V340.776C3577.54 343.345 3579.62 345.427 3582.19 345.427C3584.76 345.427 3586.84 343.345 3586.84 340.776V200.34Z" fill="white"/>
<path d="M4149.03 567.911C4219.54 567.911 4276.69 510.754 4276.69 440.247C4276.69 369.741 4219.54 312.583 4149.03 312.583C4078.52 312.583 4021.36 369.741 4021.36 440.247C4021.36 510.754 4078.52 567.911 4149.03 567.911Z" fill="#F4C12A"/>
<path d="M4170.1 487.08H4132.38C4128.6 487.08 4126.09 484.565 4126.09 480.794V477.65C4126.09 468.849 4122.31 460.048 4115.4 453.133C4105.34 443.075 4100.31 429.873 4100.94 416.043C4102.2 389.64 4124.2 368.266 4150.61 367.637H4151.24C4178.89 367.637 4201.53 390.269 4201.53 417.929C4201.53 431.13 4196.5 444.332 4186.43 453.762C4179.52 460.048 4176.38 468.849 4176.38 477.65V480.794C4176.38 484.565 4173.86 487.08 4170.1 487.08ZM4138.66 474.507H4163.81C4164.44 463.191 4169.47 453.133 4177.64 444.332C4185.18 437.417 4188.95 427.987 4188.95 417.929C4188.95 397.183 4171.98 380.21 4151.24 380.21H4150.61C4131.12 380.839 4114.14 396.555 4113.52 416.672C4112.89 426.73 4117.29 436.788 4124.2 444.332C4133 453.133 4138.03 463.82 4138.66 474.507Z" fill="white"/>
<path d="M4151.24 518.513C4137.42 518.513 4126.1 507.197 4126.1 493.367V480.794C4126.1 477.022 4128.61 474.507 4132.38 474.507H4170.1C4173.88 474.507 4176.39 477.022 4176.39 480.794V493.367C4176.39 507.197 4165.07 518.513 4151.24 518.513ZM4138.67 487.08V493.367C4138.67 500.282 4144.33 505.94 4151.24 505.94C4158.16 505.94 4163.82 500.282 4163.82 493.367V487.08H4138.67ZM4132.38 424.215C4128.61 424.215 4126.1 421.701 4126.1 417.929C4126.1 404.099 4137.42 392.783 4151.24 392.783C4155.02 392.783 4157.53 395.298 4157.53 399.07C4157.53 402.842 4155.02 405.356 4151.24 405.356C4144.33 405.356 4138.67 411.014 4138.67 417.929C4138.67 421.701 4136.16 424.215 4132.38 424.215Z" fill="white"/>
<path d="M3907.14 347.476C3971.78 347.476 4024.17 295.082 4024.17 230.452C4024.17 165.82 3971.78 113.426 3907.14 113.426C3842.52 113.426 3790.12 165.82 3790.12 230.452C3790.12 295.082 3842.52 347.476 3907.14 347.476Z" fill="#10CBB4"/>
<path d="M3934.7 161.302H3879.94C3875.87 161.302 3871.97 162.918 3869.1 165.793C3866.22 168.668 3864.61 172.568 3864.61 176.634V284.273C3864.61 288.339 3866.22 292.239 3869.1 295.114C3871.97 297.989 3875.87 299.604 3879.94 299.604H3934.7C3938.77 299.604 3942.67 297.989 3945.55 295.114C3948.42 292.239 3950.04 288.339 3950.04 284.273V176.634C3950.04 172.568 3948.42 168.668 3945.55 165.793C3942.67 162.918 3938.77 161.302 3934.7 161.302ZM3938.62 284.273C3938.62 285.31 3938.21 286.305 3937.48 287.039C3936.74 287.772 3935.74 288.185 3934.7 288.185H3879.94C3878.9 288.185 3877.91 287.772 3877.17 287.039C3876.44 286.305 3876.02 285.31 3876.02 284.273V176.634C3876.02 175.596 3876.44 174.601 3877.17 173.867C3877.91 173.134 3878.9 172.722 3879.94 172.722H3934.7C3935.74 172.722 3936.74 173.134 3937.48 173.867C3938.21 174.601 3938.62 175.596 3938.62 176.634V284.273Z" fill="white"/>
<path d="M3912.6 272.325H3902.03C3900.51 272.325 3899.06 272.927 3897.99 273.997C3896.91 275.068 3896.31 276.521 3896.31 278.035C3896.31 279.549 3896.91 281.001 3897.99 282.072C3899.06 283.143 3900.51 283.744 3902.03 283.744H3912.6C3914.11 283.744 3915.56 283.143 3916.63 282.072C3917.7 281.001 3918.3 279.549 3918.3 278.035C3918.3 276.521 3917.7 275.068 3916.63 273.997C3915.56 272.927 3914.11 272.325 3912.6 272.325Z" fill="white"/>
<path d="M4283.47 878.083C4359.86 878.083 4421.78 816.165 4421.78 739.779C4421.78 663.4 4359.86 601.481 4283.47 601.481C4207.09 601.481 4145.17 663.4 4145.17 739.779C4145.17 816.165 4207.09 878.083 4283.47 878.083Z" fill="#48A3F3"/>
<path d="M4357.8 724.513C4355.44 714.625 4336.23 681.25 4324.93 662.164L4324.58 661.57C4324.41 661.265 4324.21 660.976 4323.99 660.703C4323.45 660.05 4320.57 656.784 4315.9 656.548C4313.69 656.436 4310.37 656.982 4307.14 660.226C4306.51 660.864 4306.32 661.051 4298.77 674.098C4296.26 678.429 4293.02 684.093 4289.71 690.036C4285.61 682.904 4281.27 675.458 4276.72 667.77C4276.42 667.256 4276.22 666.918 4276.14 666.785C4275.96 666.469 4275.76 666.164 4275.52 665.88C4274.9 665.114 4271.51 661.27 4266.04 660.997C4263.49 660.874 4259.65 661.511 4255.83 665.286C4255.06 665.998 4254.75 666.533 4248.03 678.033C4244.37 684.302 4238.79 693.922 4233.06 704.164C4211.01 743.502 4208.91 751.795 4208.29 754.531C4203.58 771.904 4207.54 790.946 4218.88 805.514C4229.96 819.744 4246.25 827.817 4263.76 827.817C4264.21 827.817 4264.67 827.817 4265.12 827.801H4265.69C4280.82 828.154 4295.24 822.469 4306.32 811.761C4315.56 802.826 4321.76 790.888 4323.78 778.365C4334.49 776.476 4344.14 770.421 4350.82 761.234C4358.66 750.446 4361.2 737.067 4357.81 724.508L4357.8 724.513ZM4265.93 814.958C4265.88 814.958 4265.83 814.958 4265.77 814.958H4265.04C4264.99 814.958 4264.94 814.958 4264.88 814.958C4250.92 815.295 4237.82 808.983 4228.96 797.601C4220.06 786.182 4216.97 771.304 4220.66 757.797C4220.69 757.7 4220.71 757.609 4220.73 757.513C4223.44 745.467 4257.32 687.118 4265.22 674.071C4265.31 674.001 4265.39 673.948 4265.45 673.91C4265.46 673.921 4265.48 673.932 4265.5 673.948C4265.57 674.071 4265.65 674.199 4265.73 674.339C4271.71 684.457 4277.35 694.169 4282.51 703.254C4282.39 703.484 4282.27 703.709 4282.15 703.939C4282.06 704.121 4281.96 704.308 4281.87 704.485C4281.71 704.785 4281.56 705.074 4281.41 705.368C4281.34 705.497 4281.28 705.625 4281.21 705.749C4281 706.155 4280.79 706.557 4280.59 706.948C4280.51 707.108 4280.43 707.264 4280.35 707.424C4280.23 707.654 4280.11 707.89 4280 708.115C4279.91 708.297 4279.82 708.468 4279.73 708.645C4279.63 708.838 4279.53 709.03 4279.44 709.218C4279.35 709.405 4279.26 709.587 4279.16 709.769C4279.08 709.94 4278.99 710.112 4278.91 710.283C4278.82 710.454 4278.74 710.626 4278.65 710.792C4278.57 710.963 4278.48 711.134 4278.4 711.306C4278.32 711.472 4278.24 711.632 4278.16 711.793C4278.08 711.953 4278 712.114 4277.92 712.269C4277.84 712.43 4277.77 712.59 4277.69 712.746C4277.62 712.896 4277.55 713.04 4277.48 713.185C4277.41 713.34 4277.33 713.495 4277.26 713.65C4277.19 713.79 4277.12 713.929 4277.06 714.063C4276.99 714.207 4276.92 714.357 4276.85 714.496C4276.79 714.636 4276.72 714.769 4276.66 714.898C4276.6 715.032 4276.53 715.171 4276.47 715.305C4276.41 715.439 4276.35 715.567 4276.29 715.701C4276.23 715.824 4276.18 715.953 4276.12 716.076C4276.06 716.204 4276 716.333 4275.95 716.456C4275.9 716.574 4275.84 716.691 4275.79 716.809C4275.74 716.932 4275.68 717.05 4275.63 717.173C4275.58 717.286 4275.53 717.393 4275.49 717.5C4275.43 717.628 4275.38 717.746 4275.33 717.869C4275.29 717.966 4275.24 718.062 4275.21 718.153C4275.14 718.314 4275.07 718.463 4275.01 718.619C4274.98 718.688 4274.95 718.758 4274.92 718.827C4274.84 719.004 4274.77 719.181 4274.7 719.347C4274.67 719.422 4274.64 719.497 4274.61 719.572C4274.56 719.684 4274.52 719.796 4274.48 719.904C4274.44 719.979 4274.42 720.053 4274.38 720.128C4274.35 720.23 4274.3 720.326 4274.27 720.423C4274.24 720.498 4274.21 720.573 4274.18 720.642C4274.14 720.733 4274.11 720.824 4274.08 720.915C4274.05 720.985 4274.02 721.055 4274 721.119C4273.97 721.204 4273.94 721.29 4273.9 721.376C4273.88 721.44 4273.86 721.504 4273.84 721.569C4273.8 721.649 4273.78 721.729 4273.75 721.809C4273.73 721.868 4273.71 721.927 4273.69 721.986C4273.66 722.066 4273.63 722.141 4273.61 722.222C4273.59 722.275 4273.57 722.329 4273.55 722.377C4273.53 722.457 4273.5 722.532 4273.48 722.607C4273.46 722.655 4273.45 722.704 4273.43 722.746C4273.4 722.821 4273.38 722.896 4273.36 722.966C4273.35 723.009 4273.33 723.051 4273.32 723.089C4273.3 723.164 4273.28 723.239 4273.25 723.314C4273.24 723.346 4273.23 723.378 4273.23 723.41C4273.21 723.49 4273.19 723.565 4273.16 723.64C4273.16 723.662 4273.15 723.689 4273.14 723.71C4273.12 723.796 4273.09 723.881 4273.07 723.962C4273.07 723.972 4273.07 723.983 4273.07 723.988C4273.02 724.176 4272.97 724.352 4272.93 724.513C4269.44 737.437 4272.38 751.592 4280.81 762.412C4281.24 762.968 4281.69 763.504 4282.13 764.034C4282.19 764.103 4282.25 764.173 4282.31 764.242C4282.74 764.74 4283.18 765.228 4283.64 765.704C4283.72 765.79 4283.8 765.875 4283.88 765.961C4284.33 766.432 4284.79 766.887 4285.25 767.332C4285.33 767.406 4285.41 767.476 4285.48 767.546C4285.97 768.001 4286.46 768.445 4286.96 768.879C4287 768.911 4287.04 768.943 4287.07 768.975C4287.58 769.403 4288.09 769.821 4288.61 770.222C4288.66 770.255 4288.7 770.292 4288.75 770.324C4289.27 770.726 4289.8 771.111 4290.34 771.486C4290.42 771.545 4290.5 771.604 4290.59 771.657C4291.11 772.021 4291.65 772.369 4292.19 772.707C4292.28 772.76 4292.37 772.814 4292.45 772.867C4293.01 773.204 4293.56 773.536 4294.13 773.847C4294.19 773.879 4294.24 773.906 4294.3 773.938C4295.5 774.591 4296.73 775.18 4297.97 775.71C4298.03 775.737 4298.09 775.758 4298.15 775.785C4298.76 776.037 4299.36 776.277 4299.98 776.502C4300.06 776.529 4300.14 776.556 4300.21 776.588C4300.83 776.807 4301.45 777.016 4302.09 777.209C4302.15 777.225 4302.2 777.246 4302.27 777.263C4303.6 777.659 4304.95 777.996 4306.33 778.258C4306.35 778.258 4306.37 778.269 4306.39 778.269C4307.06 778.397 4307.73 778.505 4308.41 778.596C4308.48 778.606 4308.55 778.617 4308.62 778.628C4309.28 778.713 4309.94 778.788 4310.6 778.847C4310.63 778.847 4310.67 778.858 4310.71 778.858C4306.21 799.796 4287.4 815.488 4265.95 814.947L4265.93 814.958ZM4340.48 753.664C4334.99 761.223 4326.7 765.768 4317.73 766.132C4317.72 766.132 4317.71 766.132 4317.69 766.132C4317.39 766.148 4317.08 766.154 4316.76 766.159C4316.44 766.159 4316.11 766.159 4315.78 766.148C4315.72 766.148 4315.67 766.148 4315.61 766.148H4315.09C4315.04 766.148 4314.98 766.148 4314.93 766.148C4305.58 766.379 4296.81 762.138 4290.85 754.499C4284.88 746.832 4282.79 736.848 4285.27 727.795C4285.3 727.704 4285.32 727.607 4285.34 727.516C4285.42 727.19 4285.57 726.654 4285.89 725.798C4285.98 725.541 4286.09 725.246 4286.22 724.931C4286.38 724.54 4286.56 724.101 4286.76 723.614C4286.83 723.448 4286.91 723.276 4286.99 723.094C4287.31 722.361 4287.69 721.515 4288.14 720.551C4288.28 720.257 4288.42 719.946 4288.58 719.625C4288.82 719.122 4289.07 718.587 4289.35 718.019C4289.53 717.655 4289.71 717.286 4289.9 716.895C4289.92 716.857 4289.94 716.82 4289.95 716.782C4289.95 716.782 4289.95 716.782 4289.95 716.777C4290.31 716.054 4290.7 715.283 4291.11 714.47C4291.37 713.956 4291.64 713.431 4291.92 712.88C4292 712.724 4292.08 712.569 4292.17 712.408C4293.12 710.561 4294.2 708.506 4295.44 706.209C4302.74 692.616 4311.62 677.422 4315.34 671.121C4332.42 700.1 4344.14 722.109 4345.36 727.516C4345.38 727.613 4345.4 727.709 4345.43 727.8C4347.83 736.602 4346.03 746.029 4340.48 753.669L4340.48 753.664Z" fill="white"/>
<g clip-path="url(#clip3_610_7737)">
<path fill-rule="evenodd" clip-rule="evenodd" d="M2290.61 912.602C2296.8 925.977 2308.38 936.625 2322.88 942.325C2341.38 949.593 2367.81 959.995 2388.89 968.281C2401.78 973.35 2401.76 990.146 2388.89 995.215L2322.88 1021.17C2308.36 1026.87 2296.8 1037.52 2290.61 1050.89C2282.72 1067.93 2271.43 1092.28 2262.43 1111.7C2256.93 1123.57 2238.69 1123.57 2233.19 1111.7C2224.19 1092.28 2212.9 1067.93 2205.01 1050.89C2198.82 1037.52 2187.24 1026.87 2172.74 1021.17C2154.24 1013.9 2127.81 1003.5 2106.72 995.215C2093.84 990.146 2093.84 973.35 2106.72 968.281C2127.81 959.995 2154.24 949.593 2172.74 942.325C2187.26 936.625 2198.82 925.957 2205.01 912.602C2212.9 895.563 2224.19 871.215 2233.19 851.793C2238.69 839.924 2256.93 839.924 2262.43 851.793C2271.43 871.215 2282.72 895.563 2290.61 912.602V912.602Z" fill="#12DEC4"/>
<path fill-rule="evenodd" clip-rule="evenodd" d="M2458.01 435.1C2461.74 443.169 2468.73 449.593 2477.48 453.032C2488.64 457.416 2504.59 463.692 2517.31 468.691C2525.08 471.749 2525.07 481.882 2517.31 484.94L2477.48 500.6C2468.72 504.039 2461.74 510.462 2458.01 518.532C2453.25 528.812 2446.44 543.501 2441.01 555.218C2437.69 562.379 2426.69 562.379 2423.37 555.218C2417.94 543.501 2411.13 528.812 2406.37 518.532C2402.64 510.462 2395.65 504.039 2386.9 500.6C2375.74 496.215 2359.79 489.939 2347.07 484.94C2339.3 481.882 2339.3 471.749 2347.07 468.691C2359.79 463.692 2375.74 457.416 2386.9 453.032C2395.66 449.593 2402.64 443.157 2406.37 435.1C2411.13 424.82 2417.94 410.13 2423.37 398.413C2426.69 391.253 2437.69 391.253 2441.01 398.413C2446.44 410.13 2453.25 424.82 2458.01 435.1V435.1Z" fill="#12DEC4"/>
<path fill-rule="evenodd" clip-rule="evenodd" d="M2787.15 754.626C2789.3 759.269 2793.32 762.965 2798.35 764.943C2804.78 767.466 2813.95 771.077 2821.27 773.953C2825.74 775.712 2825.73 781.542 2821.27 783.302L2798.35 792.311C2793.31 794.29 2789.3 797.986 2787.15 802.628C2784.42 808.543 2780.5 816.994 2777.37 823.736C2775.46 827.855 2769.13 827.855 2767.22 823.736C2764.1 816.994 2760.18 808.543 2757.44 802.628C2755.29 797.986 2751.27 794.29 2746.24 792.311C2739.82 789.789 2730.65 786.178 2723.33 783.302C2718.85 781.542 2718.85 775.712 2723.33 773.953C2730.65 771.077 2739.82 767.466 2746.24 764.943C2751.28 762.965 2755.29 759.262 2757.44 754.626C2760.18 748.712 2764.1 740.26 2767.22 733.519C2769.13 729.399 2775.46 729.399 2777.37 733.519C2780.5 740.26 2784.42 748.712 2787.15 754.626V754.626Z" fill="#12DEC4"/>
</g>
<g clip-path="url(#clip4_610_7737)">
<path fill-rule="evenodd" clip-rule="evenodd" d="M4416.51 1501.75C4420.74 1511.67 4428.65 1519.57 4438.55 1523.79C4451.18 1529.18 4469.24 1536.89 4483.64 1543.04C4492.44 1546.8 4492.42 1559.25 4483.64 1563.01L4438.55 1582.25C4428.63 1586.48 4420.74 1594.37 4416.51 1604.29C4411.12 1616.93 4403.41 1634.98 4397.27 1649.38C4393.51 1658.18 4381.05 1658.18 4377.29 1649.38C4371.15 1634.98 4363.44 1616.93 4358.05 1604.29C4353.82 1594.37 4345.91 1586.48 4336.01 1582.25C4323.38 1576.86 4305.32 1569.15 4290.92 1563.01C4282.12 1559.25 4282.12 1546.8 4290.92 1543.04C4305.32 1536.89 4323.38 1529.18 4336.01 1523.79C4345.93 1519.57 4353.82 1511.66 4358.05 1501.75C4363.44 1489.12 4371.15 1471.07 4377.29 1456.67C4381.05 1447.87 4393.51 1447.87 4397.27 1456.67C4403.41 1471.07 4411.12 1489.12 4416.51 1501.75V1501.75Z" fill="#12DEC4"/>
</g>
<g clip-path="url(#clip5_610_7737)">
<path fill-rule="evenodd" clip-rule="evenodd" d="M3777.3 716.873C3779.09 721.06 3782.43 724.393 3786.61 726.178C3791.94 728.453 3799.57 731.71 3805.65 734.304C3809.36 735.891 3809.36 741.149 3805.65 742.736L3786.61 750.862C3782.42 752.646 3779.09 755.979 3777.3 760.167C3775.03 765.501 3771.77 773.124 3769.18 779.204C3767.59 782.919 3762.33 782.919 3760.75 779.204C3758.15 773.124 3754.89 765.501 3752.62 760.167C3750.83 755.979 3747.5 752.646 3743.31 750.862C3737.98 748.586 3730.36 745.33 3724.28 742.736C3720.56 741.149 3720.56 735.891 3724.28 734.304C3730.36 731.71 3737.98 728.453 3743.31 726.178C3747.5 724.393 3750.83 721.054 3752.62 716.873C3754.89 711.539 3758.15 703.916 3760.75 697.836C3762.33 694.12 3767.59 694.12 3769.18 697.836C3771.77 703.916 3775.03 711.539 3777.3 716.873V716.873Z" fill="#12DEC4"/>
</g>
</g>
<rect width="5000.03" height="1722.22" fill="url(#paint0_linear_610_7737)" fill-opacity="0.85"/>
</g>
<defs>
<linearGradient id="paint0_linear_610_7737" x1="2500.02" y1="0" x2="2500.02" y2="1722.22" gradientUnits="userSpaceOnUse">
<stop offset="0.0768413" stop-color="#2C2044" stop-opacity="0"/>
<stop offset="0.411596" stop-color="#2C2044" stop-opacity="0.327731"/>
<stop offset="1" stop-color="#2C2044"/>
</linearGradient>
<clipPath id="clip0_610_7737">
<rect width="5000" height="1722.22" fill="white"/>
</clipPath>
<clipPath id="clip1_610_7737">
<rect width="2430.56" height="2430.56" fill="white" transform="translate(2083.33 -170.139)"/>
</clipPath>
<clipPath id="clip2_610_7737">
<rect width="271.412" height="575.232" fill="white" transform="translate(4080.44 745.37)"/>
</clipPath>
<clipPath id="clip3_610_7737">
<rect width="727.561" height="727.561" fill="white" transform="translate(2097.06 393.043)"/>
</clipPath>
<clipPath id="clip4_610_7737">
<rect width="205.914" height="205.914" fill="white" transform="translate(4284.32 1450.07)"/>
</clipPath>
<clipPath id="clip5_610_7737">
<rect width="86.9412" height="86.9413" fill="white" transform="translate(3721.49 695.049)"/>
</clipPath>
</defs>
</svg>
