<svg width="88" height="88" viewBox="0 0 88 88" fill="none" xmlns="http://www.w3.org/2000/svg">
<rect width="88" height="88" rx="16" fill="#F0CEF5"/>
<path fill-rule="evenodd" clip-rule="evenodd" d="M54.0002 55.6667C54.9206 55.6667 55.6668 56.4129 55.6668 57.3333C55.6668 58.2538 54.9206 59 54.0002 59H34.0002C33.0797 59 32.3335 58.2538 32.3335 57.3333C32.3335 56.4129 33.0797 55.6667 34.0002 55.6667H54.0002ZM44.0002 29C44.9206 29 45.6668 29.7462 45.6668 30.6667V46.65L49.4835 42.8333C50.1448 42.267 51.1305 42.3051 51.7461 42.9207C52.3617 43.5363 52.3998 44.5221 51.8335 45.1833L45.1668 51.85C44.5168 52.4962 43.4669 52.4962 42.8168 51.85L36.1502 45.1833C35.6745 44.776 35.4674 44.1365 35.6138 43.5276C35.7603 42.9188 36.2356 42.4434 36.8445 42.297C37.4533 42.1505 38.0928 42.3577 38.5002 42.8333L42.3335 46.65V30.6667C42.3335 29.7462 43.0797 29 44.0002 29Z" fill="#742384"/>
</svg>
