<svg width="172" height="112" viewBox="0 0 172 112" fill="none" xmlns="http://www.w3.org/2000/svg">
<path fill-rule="evenodd" clip-rule="evenodd" d="M60.8002 19.8H111.2C113.188 19.8 114.8 21.4118 114.8 23.4V54C114.8 55.9882 113.188 57.6 111.2 57.6H60.8002C58.812 57.6 57.2002 55.9882 57.2002 54V23.4C57.2002 21.4118 58.812 19.8 60.8002 19.8Z" fill="#CE92D6"/>
<path fill-rule="evenodd" clip-rule="evenodd" d="M57.2002 52.2H114.8V54C114.8 55.9882 113.188 57.6 111.2 57.6H60.8002C58.812 57.6 57.2002 55.9882 57.2002 54V52.2Z" fill="#8B3D99"/>
<path d="M104.9 28.8C106.391 28.8 107.6 27.5912 107.6 26.1C107.6 24.6088 106.391 23.4 104.9 23.4C103.409 23.4 102.2 24.6088 102.2 26.1C102.2 27.5912 103.409 28.8 104.9 28.8Z" fill="#8B3D99"/>
<path fill-rule="evenodd" clip-rule="evenodd" d="M86.0001 21.6C93.953 21.6 100.4 28.0471 100.4 36C100.4 43.9529 93.953 50.4 86.0001 50.4C78.0472 50.4 71.6001 43.9529 71.6001 36C71.6001 28.0471 78.0472 21.6 86.0001 21.6Z" fill="#8B3D99"/>
<path fill-rule="evenodd" clip-rule="evenodd" d="M86.0002 25.2C80.0355 25.2 75.2002 30.0353 75.2002 36C75.2002 41.9647 80.0355 46.8 86.0002 46.8C91.9649 46.8 96.8002 41.9647 96.8002 36C96.8002 30.0353 91.9649 25.2 86.0002 25.2Z" fill="#10CBB4"/>
<path fill-rule="evenodd" clip-rule="evenodd" d="M85.9998 28.8C82.0234 28.8 78.7998 32.0235 78.7998 36C78.7998 39.9764 82.0234 43.2 85.9998 43.2C89.9763 43.2 93.1998 39.9764 93.1998 36C93.1998 32.0235 89.9763 28.8 85.9998 28.8Z" fill="#8B3D99"/>
<path fill-rule="evenodd" clip-rule="evenodd" d="M79.2248 12.6H92.775C94.1386 12.6 95.3851 13.3704 95.9949 14.59L98.5999 19.8H73.3999L76.0049 14.59C76.6147 13.3704 77.8612 12.6 79.2248 12.6Z" fill="#CE92D6"/>
<path fill-rule="evenodd" clip-rule="evenodd" d="M80.7079 14.4H91.2921C91.9863 14.4 92.6187 14.7993 92.9172 15.4261L95 19.8H77L79.0828 15.4261C79.3813 14.7993 80.0137 14.4 80.7079 14.4Z" fill="#8B3D99"/>
<path d="M5.61719 93.625V105H4.13281V93.625H5.61719ZM9.27344 93.625V94.8594H0.484375V93.625H9.27344ZM12.8125 96.5469V105H11.3594V96.5469H12.8125ZM11.25 94.3047C11.25 94.0703 11.3203 93.8724 11.4609 93.7109C11.6068 93.5495 11.8203 93.4688 12.1016 93.4688C12.3776 93.4688 12.5885 93.5495 12.7344 93.7109C12.8854 93.8724 12.9609 94.0703 12.9609 94.3047C12.9609 94.5286 12.8854 94.7214 12.7344 94.8828C12.5885 95.0391 12.3776 95.1172 12.1016 95.1172C11.8203 95.1172 11.6068 95.0391 11.4609 94.8828C11.3203 94.7214 11.25 94.5286 11.25 94.3047ZM19.1406 105.156C18.5521 105.156 18.0182 105.057 17.5391 104.859C17.0651 104.656 16.6562 104.372 16.3125 104.008C15.974 103.643 15.7135 103.211 15.5312 102.711C15.349 102.211 15.2578 101.664 15.2578 101.07V100.742C15.2578 100.055 15.3594 99.4427 15.5625 98.9062C15.7656 98.3646 16.0417 97.9062 16.3906 97.5312C16.7396 97.1562 17.1354 96.8724 17.5781 96.6797C18.0208 96.487 18.4792 96.3906 18.9531 96.3906C19.5573 96.3906 20.0781 96.4948 20.5156 96.7031C20.9583 96.9115 21.3203 97.2031 21.6016 97.5781C21.8828 97.9479 22.0911 98.3854 22.2266 98.8906C22.362 99.3906 22.4297 99.9375 22.4297 100.531V101.18H16.1172V100H20.9844V99.8906C20.9635 99.5156 20.8854 99.151 20.75 98.7969C20.6198 98.4427 20.4115 98.151 20.125 97.9219C19.8385 97.6927 19.4479 97.5781 18.9531 97.5781C18.625 97.5781 18.3229 97.6484 18.0469 97.7891C17.7708 97.9245 17.5339 98.1276 17.3359 98.3984C17.138 98.6693 16.9844 99 16.875 99.3906C16.7656 99.7812 16.7109 100.232 16.7109 100.742V101.07C16.7109 101.471 16.7656 101.849 16.875 102.203C16.9896 102.552 17.1536 102.859 17.3672 103.125C17.5859 103.391 17.849 103.599 18.1562 103.75C18.4688 103.901 18.8229 103.977 19.2188 103.977C19.7292 103.977 20.1615 103.872 20.5156 103.664C20.8698 103.456 21.1797 103.177 21.4453 102.828L22.3203 103.523C22.138 103.799 21.9062 104.062 21.625 104.312C21.3438 104.562 20.9974 104.766 20.5859 104.922C20.1797 105.078 19.6979 105.156 19.1406 105.156ZM26.0625 98.3516V105H24.6172V96.5469H25.9844L26.0625 98.3516ZM25.7188 100.453L25.1172 100.43C25.1224 99.8516 25.2083 99.3177 25.375 98.8281C25.5417 98.3333 25.776 97.9036 26.0781 97.5391C26.3802 97.1745 26.7396 96.8932 27.1562 96.6953C27.5781 96.4922 28.0443 96.3906 28.5547 96.3906C28.9714 96.3906 29.3464 96.4479 29.6797 96.5625C30.013 96.6719 30.2969 96.849 30.5312 97.0938C30.7708 97.3385 30.9531 97.6562 31.0781 98.0469C31.2031 98.4323 31.2656 98.9036 31.2656 99.4609V105H29.8125V99.4453C29.8125 99.0026 29.7474 98.6484 29.6172 98.3828C29.487 98.112 29.2969 97.9167 29.0469 97.7969C28.7969 97.6719 28.4896 97.6094 28.125 97.6094C27.7656 97.6094 27.4375 97.6849 27.1406 97.8359C26.849 97.987 26.5964 98.1953 26.3828 98.4609C26.1745 98.7266 26.0104 99.0312 25.8906 99.375C25.776 99.7135 25.7188 100.073 25.7188 100.453ZM39.2891 103.359V93H40.7422V105H39.4141L39.2891 103.359ZM33.6016 100.867V100.703C33.6016 100.057 33.6797 99.4714 33.8359 98.9453C33.9974 98.4141 34.224 97.9583 34.5156 97.5781C34.8125 97.1979 35.1641 96.9062 35.5703 96.7031C35.9818 96.4948 36.4401 96.3906 36.9453 96.3906C37.4766 96.3906 37.9401 96.4844 38.3359 96.6719C38.737 96.8542 39.0755 97.1224 39.3516 97.4766C39.6328 97.8255 39.8542 98.2474 40.0156 98.7422C40.1771 99.237 40.2891 99.7969 40.3516 100.422V101.141C40.2943 101.76 40.1823 102.318 40.0156 102.812C39.8542 103.307 39.6328 103.729 39.3516 104.078C39.0755 104.427 38.737 104.695 38.3359 104.883C37.9349 105.065 37.4661 105.156 36.9297 105.156C36.4349 105.156 35.9818 105.049 35.5703 104.836C35.1641 104.622 34.8125 104.323 34.5156 103.938C34.224 103.552 33.9974 103.099 33.8359 102.578C33.6797 102.052 33.6016 101.482 33.6016 100.867ZM35.0547 100.703V100.867C35.0547 101.289 35.0964 101.685 35.1797 102.055C35.2682 102.424 35.4036 102.75 35.5859 103.031C35.7682 103.312 36 103.534 36.2812 103.695C36.5625 103.852 36.8984 103.93 37.2891 103.93C37.7682 103.93 38.1615 103.828 38.4688 103.625C38.7812 103.422 39.0312 103.154 39.2188 102.82C39.4062 102.487 39.5521 102.125 39.6562 101.734V99.8516C39.5938 99.5651 39.5026 99.2891 39.3828 99.0234C39.2682 98.7526 39.1172 98.513 38.9297 98.3047C38.7474 98.0911 38.5208 97.9219 38.25 97.7969C37.9844 97.6719 37.6693 97.6094 37.3047 97.6094C36.9089 97.6094 36.5677 97.6927 36.2812 97.8594C36 98.0208 35.7682 98.2448 35.5859 98.5312C35.4036 98.8125 35.2682 99.1406 35.1797 99.5156C35.0964 99.8854 35.0547 100.281 35.0547 100.703ZM48.4766 103.555V99.2031C48.4766 98.8698 48.4089 98.5807 48.2734 98.3359C48.1432 98.0859 47.9453 97.8932 47.6797 97.7578C47.4141 97.6224 47.0859 97.5547 46.6953 97.5547C46.3307 97.5547 46.0104 97.6172 45.7344 97.7422C45.4635 97.8672 45.25 98.0312 45.0938 98.2344C44.9427 98.4375 44.8672 98.6562 44.8672 98.8906H43.4219C43.4219 98.5885 43.5 98.2891 43.6562 97.9922C43.8125 97.6953 44.0365 97.4271 44.3281 97.1875C44.625 96.9427 44.9792 96.75 45.3906 96.6094C45.8073 96.4635 46.2708 96.3906 46.7812 96.3906C47.3958 96.3906 47.9375 96.4948 48.4062 96.7031C48.8802 96.9115 49.25 97.2266 49.5156 97.6484C49.7865 98.0651 49.9219 98.5885 49.9219 99.2188V103.156C49.9219 103.438 49.9453 103.737 49.9922 104.055C50.0443 104.372 50.1198 104.646 50.2188 104.875V105H48.7109C48.638 104.833 48.5807 104.612 48.5391 104.336C48.4974 104.055 48.4766 103.794 48.4766 103.555ZM48.7266 99.875L48.7422 100.891H47.2812C46.8698 100.891 46.5026 100.924 46.1797 100.992C45.8568 101.055 45.5859 101.151 45.3672 101.281C45.1484 101.411 44.9818 101.576 44.8672 101.773C44.7526 101.966 44.6953 102.193 44.6953 102.453C44.6953 102.719 44.7552 102.961 44.875 103.18C44.9948 103.398 45.1745 103.573 45.4141 103.703C45.6589 103.828 45.9583 103.891 46.3125 103.891C46.7552 103.891 47.1458 103.797 47.4844 103.609C47.8229 103.422 48.0911 103.193 48.2891 102.922C48.4922 102.651 48.6016 102.388 48.6172 102.133L49.2344 102.828C49.1979 103.047 49.099 103.289 48.9375 103.555C48.776 103.82 48.5599 104.076 48.2891 104.32C48.0234 104.56 47.7057 104.76 47.3359 104.922C46.9714 105.078 46.5599 105.156 46.1016 105.156C45.5286 105.156 45.026 105.044 44.5938 104.82C44.1667 104.596 43.8333 104.297 43.5938 103.922C43.3594 103.542 43.2422 103.117 43.2422 102.648C43.2422 102.195 43.3307 101.797 43.5078 101.453C43.6849 101.104 43.9401 100.815 44.2734 100.586C44.6068 100.352 45.0078 100.174 45.4766 100.055C45.9453 99.9349 46.4688 99.875 47.0469 99.875H48.7266ZM62.4922 103.359V93H63.9453V105H62.6172L62.4922 103.359ZM56.8047 100.867V100.703C56.8047 100.057 56.8828 99.4714 57.0391 98.9453C57.2005 98.4141 57.4271 97.9583 57.7188 97.5781C58.0156 97.1979 58.3672 96.9062 58.7734 96.7031C59.1849 96.4948 59.6432 96.3906 60.1484 96.3906C60.6797 96.3906 61.1432 96.4844 61.5391 96.6719C61.9401 96.8542 62.2786 97.1224 62.5547 97.4766C62.8359 97.8255 63.0573 98.2474 63.2188 98.7422C63.3802 99.237 63.4922 99.7969 63.5547 100.422V101.141C63.4974 101.76 63.3854 102.318 63.2188 102.812C63.0573 103.307 62.8359 103.729 62.5547 104.078C62.2786 104.427 61.9401 104.695 61.5391 104.883C61.138 105.065 60.6693 105.156 60.1328 105.156C59.638 105.156 59.1849 105.049 58.7734 104.836C58.3672 104.622 58.0156 104.323 57.7188 103.938C57.4271 103.552 57.2005 103.099 57.0391 102.578C56.8828 102.052 56.8047 101.482 56.8047 100.867ZM58.2578 100.703V100.867C58.2578 101.289 58.2995 101.685 58.3828 102.055C58.4714 102.424 58.6068 102.75 58.7891 103.031C58.9714 103.312 59.2031 103.534 59.4844 103.695C59.7656 103.852 60.1016 103.93 60.4922 103.93C60.9714 103.93 61.3646 103.828 61.6719 103.625C61.9844 103.422 62.2344 103.154 62.4219 102.82C62.6094 102.487 62.7552 102.125 62.8594 101.734V99.8516C62.7969 99.5651 62.7057 99.2891 62.5859 99.0234C62.4714 98.7526 62.3203 98.513 62.1328 98.3047C61.9505 98.0911 61.724 97.9219 61.4531 97.7969C61.1875 97.6719 60.8724 97.6094 60.5078 97.6094C60.112 97.6094 59.7708 97.6927 59.4844 97.8594C59.2031 98.0208 58.9714 98.2448 58.7891 98.5312C58.6068 98.8125 58.4714 99.1406 58.3828 99.5156C58.2995 99.8854 58.2578 100.281 58.2578 100.703ZM70.2031 105.156C69.6146 105.156 69.0807 105.057 68.6016 104.859C68.1276 104.656 67.7188 104.372 67.375 104.008C67.0365 103.643 66.776 103.211 66.5938 102.711C66.4115 102.211 66.3203 101.664 66.3203 101.07V100.742C66.3203 100.055 66.4219 99.4427 66.625 98.9062C66.8281 98.3646 67.1042 97.9062 67.4531 97.5312C67.8021 97.1562 68.1979 96.8724 68.6406 96.6797C69.0833 96.487 69.5417 96.3906 70.0156 96.3906C70.6198 96.3906 71.1406 96.4948 71.5781 96.7031C72.0208 96.9115 72.3828 97.2031 72.6641 97.5781C72.9453 97.9479 73.1536 98.3854 73.2891 98.8906C73.4245 99.3906 73.4922 99.9375 73.4922 100.531V101.18H67.1797V100H72.0469V99.8906C72.026 99.5156 71.9479 99.151 71.8125 98.7969C71.6823 98.4427 71.474 98.151 71.1875 97.9219C70.901 97.6927 70.5104 97.5781 70.0156 97.5781C69.6875 97.5781 69.3854 97.6484 69.1094 97.7891C68.8333 97.9245 68.5964 98.1276 68.3984 98.3984C68.2005 98.6693 68.0469 99 67.9375 99.3906C67.8281 99.7812 67.7734 100.232 67.7734 100.742V101.07C67.7734 101.471 67.8281 101.849 67.9375 102.203C68.0521 102.552 68.2161 102.859 68.4297 103.125C68.6484 103.391 68.9115 103.599 69.2188 103.75C69.5312 103.901 69.8854 103.977 70.2812 103.977C70.7917 103.977 71.224 103.872 71.5781 103.664C71.9323 103.456 72.2422 103.177 72.5078 102.828L73.3828 103.523C73.2005 103.799 72.9688 104.062 72.6875 104.312C72.4062 104.562 72.0599 104.766 71.6484 104.922C71.2422 105.078 70.7604 105.156 70.2031 105.156ZM83.6562 105.156C83.0677 105.156 82.5339 105.057 82.0547 104.859C81.5807 104.656 81.1719 104.372 80.8281 104.008C80.4896 103.643 80.2292 103.211 80.0469 102.711C79.8646 102.211 79.7734 101.664 79.7734 101.07V100.742C79.7734 100.055 79.875 99.4427 80.0781 98.9062C80.2812 98.3646 80.5573 97.9062 80.9062 97.5312C81.2552 97.1562 81.651 96.8724 82.0938 96.6797C82.5365 96.487 82.9948 96.3906 83.4688 96.3906C84.0729 96.3906 84.5938 96.4948 85.0312 96.7031C85.474 96.9115 85.8359 97.2031 86.1172 97.5781C86.3984 97.9479 86.6068 98.3854 86.7422 98.8906C86.8776 99.3906 86.9453 99.9375 86.9453 100.531V101.18H80.6328V100H85.5V99.8906C85.4792 99.5156 85.401 99.151 85.2656 98.7969C85.1354 98.4427 84.9271 98.151 84.6406 97.9219C84.3542 97.6927 83.9635 97.5781 83.4688 97.5781C83.1406 97.5781 82.8385 97.6484 82.5625 97.7891C82.2865 97.9245 82.0495 98.1276 81.8516 98.3984C81.6536 98.6693 81.5 99 81.3906 99.3906C81.2812 99.7812 81.2266 100.232 81.2266 100.742V101.07C81.2266 101.471 81.2812 101.849 81.3906 102.203C81.5052 102.552 81.6693 102.859 81.8828 103.125C82.1016 103.391 82.3646 103.599 82.6719 103.75C82.9844 103.901 83.3385 103.977 83.7344 103.977C84.2448 103.977 84.6771 103.872 85.0312 103.664C85.3854 103.456 85.6953 103.177 85.9609 102.828L86.8359 103.523C86.6536 103.799 86.4219 104.062 86.1406 104.312C85.8594 104.562 85.513 104.766 85.1016 104.922C84.6953 105.078 84.2135 105.156 83.6562 105.156ZM90.7031 93V105H89.25V93H90.7031ZM97.0312 105.156C96.4427 105.156 95.9089 105.057 95.4297 104.859C94.9557 104.656 94.5469 104.372 94.2031 104.008C93.8646 103.643 93.6042 103.211 93.4219 102.711C93.2396 102.211 93.1484 101.664 93.1484 101.07V100.742C93.1484 100.055 93.25 99.4427 93.4531 98.9062C93.6562 98.3646 93.9323 97.9062 94.2812 97.5312C94.6302 97.1562 95.026 96.8724 95.4688 96.6797C95.9115 96.487 96.3698 96.3906 96.8438 96.3906C97.4479 96.3906 97.9688 96.4948 98.4062 96.7031C98.849 96.9115 99.2109 97.2031 99.4922 97.5781C99.7734 97.9479 99.9818 98.3854 100.117 98.8906C100.253 99.3906 100.32 99.9375 100.32 100.531V101.18H94.0078V100H98.875V99.8906C98.8542 99.5156 98.776 99.151 98.6406 98.7969C98.5104 98.4427 98.3021 98.151 98.0156 97.9219C97.7292 97.6927 97.3385 97.5781 96.8438 97.5781C96.5156 97.5781 96.2135 97.6484 95.9375 97.7891C95.6615 97.9245 95.4245 98.1276 95.2266 98.3984C95.0286 98.6693 94.875 99 94.7656 99.3906C94.6562 99.7812 94.6016 100.232 94.6016 100.742V101.07C94.6016 101.471 94.6562 101.849 94.7656 102.203C94.8802 102.552 95.0443 102.859 95.2578 103.125C95.4766 103.391 95.7396 103.599 96.0469 103.75C96.3594 103.901 96.7135 103.977 97.1094 103.977C97.6198 103.977 98.0521 103.872 98.4062 103.664C98.7604 103.456 99.0703 103.177 99.3359 102.828L100.211 103.523C100.029 103.799 99.7969 104.062 99.5156 104.312C99.2344 104.562 98.888 104.766 98.4766 104.922C98.0703 105.078 97.5885 105.156 97.0312 105.156ZM105.891 103.969C106.234 103.969 106.552 103.898 106.844 103.758C107.135 103.617 107.375 103.424 107.562 103.18C107.75 102.93 107.857 102.646 107.883 102.328H109.258C109.232 102.828 109.062 103.294 108.75 103.727C108.443 104.154 108.039 104.5 107.539 104.766C107.039 105.026 106.49 105.156 105.891 105.156C105.255 105.156 104.701 105.044 104.227 104.82C103.758 104.596 103.367 104.289 103.055 103.898C102.747 103.508 102.516 103.06 102.359 102.555C102.208 102.044 102.133 101.505 102.133 100.938V100.609C102.133 100.042 102.208 99.5052 102.359 99C102.516 98.4896 102.747 98.0391 103.055 97.6484C103.367 97.2578 103.758 96.9505 104.227 96.7266C104.701 96.5026 105.255 96.3906 105.891 96.3906C106.552 96.3906 107.13 96.526 107.625 96.7969C108.12 97.0625 108.508 97.4271 108.789 97.8906C109.076 98.349 109.232 98.8698 109.258 99.4531H107.883C107.857 99.1042 107.758 98.7891 107.586 98.5078C107.419 98.2266 107.19 98.0026 106.898 97.8359C106.612 97.6641 106.276 97.5781 105.891 97.5781C105.448 97.5781 105.076 97.6667 104.773 97.8438C104.477 98.0156 104.24 98.25 104.062 98.5469C103.891 98.8385 103.766 99.1641 103.688 99.5234C103.615 99.8776 103.578 100.24 103.578 100.609V100.938C103.578 101.307 103.615 101.672 103.688 102.031C103.76 102.391 103.883 102.716 104.055 103.008C104.232 103.299 104.469 103.534 104.766 103.711C105.068 103.883 105.443 103.969 105.891 103.969ZM114.922 96.5469V97.6562H110.352V96.5469H114.922ZM111.898 94.4922H113.344V102.906C113.344 103.193 113.388 103.409 113.477 103.555C113.565 103.701 113.68 103.797 113.82 103.844C113.961 103.891 114.112 103.914 114.273 103.914C114.393 103.914 114.518 103.904 114.648 103.883C114.784 103.857 114.885 103.836 114.953 103.82L114.961 105C114.846 105.036 114.695 105.07 114.508 105.102C114.326 105.138 114.104 105.156 113.844 105.156C113.49 105.156 113.164 105.086 112.867 104.945C112.57 104.805 112.333 104.57 112.156 104.242C111.984 103.909 111.898 103.461 111.898 102.898V94.4922ZM118.562 97.875V105H117.117V96.5469H118.523L118.562 97.875ZM121.203 96.5L121.195 97.8438C121.076 97.8177 120.961 97.8021 120.852 97.7969C120.747 97.7865 120.628 97.7812 120.492 97.7812C120.159 97.7812 119.865 97.8333 119.609 97.9375C119.354 98.0417 119.138 98.1875 118.961 98.375C118.784 98.5625 118.643 98.7865 118.539 99.0469C118.44 99.3021 118.375 99.5833 118.344 99.8906L117.938 100.125C117.938 99.6146 117.987 99.1354 118.086 98.6875C118.19 98.2396 118.349 97.8438 118.562 97.5C118.776 97.151 119.047 96.8802 119.375 96.6875C119.708 96.4896 120.104 96.3906 120.562 96.3906C120.667 96.3906 120.786 96.4036 120.922 96.4297C121.057 96.4505 121.151 96.474 121.203 96.5ZM122.5 100.867V100.688C122.5 100.078 122.589 99.513 122.766 98.9922C122.943 98.4661 123.198 98.0104 123.531 97.625C123.865 97.2344 124.268 96.9323 124.742 96.7188C125.216 96.5 125.747 96.3906 126.336 96.3906C126.93 96.3906 127.464 96.5 127.938 96.7188C128.417 96.9323 128.823 97.2344 129.156 97.625C129.495 98.0104 129.753 98.4661 129.93 98.9922C130.107 99.513 130.195 100.078 130.195 100.688V100.867C130.195 101.477 130.107 102.042 129.93 102.562C129.753 103.083 129.495 103.539 129.156 103.93C128.823 104.315 128.419 104.617 127.945 104.836C127.477 105.049 126.945 105.156 126.352 105.156C125.758 105.156 125.224 105.049 124.75 104.836C124.276 104.617 123.87 104.315 123.531 103.93C123.198 103.539 122.943 103.083 122.766 102.562C122.589 102.042 122.5 101.477 122.5 100.867ZM123.945 100.688V100.867C123.945 101.289 123.995 101.688 124.094 102.062C124.193 102.432 124.341 102.76 124.539 103.047C124.742 103.333 124.995 103.56 125.297 103.727C125.599 103.888 125.951 103.969 126.352 103.969C126.747 103.969 127.094 103.888 127.391 103.727C127.693 103.56 127.943 103.333 128.141 103.047C128.339 102.76 128.487 102.432 128.586 102.062C128.69 101.688 128.742 101.289 128.742 100.867V100.688C128.742 100.271 128.69 99.8776 128.586 99.5078C128.487 99.1328 128.336 98.8021 128.133 98.5156C127.935 98.224 127.685 97.9948 127.383 97.8281C127.086 97.6615 126.737 97.5781 126.336 97.5781C125.94 97.5781 125.591 97.6615 125.289 97.8281C124.992 97.9948 124.742 98.224 124.539 98.5156C124.341 98.8021 124.193 99.1328 124.094 99.5078C123.995 99.8776 123.945 100.271 123.945 100.688ZM125.477 95.2969L126.992 93H128.734L126.641 95.2969H125.477ZM133.953 98.3516V105H132.508V96.5469H133.875L133.953 98.3516ZM133.609 100.453L133.008 100.43C133.013 99.8516 133.099 99.3177 133.266 98.8281C133.432 98.3333 133.667 97.9036 133.969 97.5391C134.271 97.1745 134.63 96.8932 135.047 96.6953C135.469 96.4922 135.935 96.3906 136.445 96.3906C136.862 96.3906 137.237 96.4479 137.57 96.5625C137.904 96.6719 138.188 96.849 138.422 97.0938C138.661 97.3385 138.844 97.6562 138.969 98.0469C139.094 98.4323 139.156 98.9036 139.156 99.4609V105H137.703V99.4453C137.703 99.0026 137.638 98.6484 137.508 98.3828C137.378 98.112 137.188 97.9167 136.938 97.7969C136.688 97.6719 136.38 97.6094 136.016 97.6094C135.656 97.6094 135.328 97.6849 135.031 97.8359C134.74 97.987 134.487 98.1953 134.273 98.4609C134.065 98.7266 133.901 99.0312 133.781 99.375C133.667 99.7135 133.609 100.073 133.609 100.453ZM143.422 96.5469V105H141.969V96.5469H143.422ZM141.859 94.3047C141.859 94.0703 141.93 93.8724 142.07 93.7109C142.216 93.5495 142.43 93.4688 142.711 93.4688C142.987 93.4688 143.198 93.5495 143.344 93.7109C143.495 93.8724 143.57 94.0703 143.57 94.3047C143.57 94.5286 143.495 94.7214 143.344 94.8828C143.198 95.0391 142.987 95.1172 142.711 95.1172C142.43 95.1172 142.216 95.0391 142.07 94.8828C141.93 94.7214 141.859 94.5286 141.859 94.3047ZM149.625 103.969C149.969 103.969 150.286 103.898 150.578 103.758C150.87 103.617 151.109 103.424 151.297 103.18C151.484 102.93 151.591 102.646 151.617 102.328H152.992C152.966 102.828 152.797 103.294 152.484 103.727C152.177 104.154 151.773 104.5 151.273 104.766C150.773 105.026 150.224 105.156 149.625 105.156C148.99 105.156 148.435 105.044 147.961 104.82C147.492 104.596 147.102 104.289 146.789 103.898C146.482 103.508 146.25 103.06 146.094 102.555C145.943 102.044 145.867 101.505 145.867 100.938V100.609C145.867 100.042 145.943 99.5052 146.094 99C146.25 98.4896 146.482 98.0391 146.789 97.6484C147.102 97.2578 147.492 96.9505 147.961 96.7266C148.435 96.5026 148.99 96.3906 149.625 96.3906C150.286 96.3906 150.865 96.526 151.359 96.7969C151.854 97.0625 152.242 97.4271 152.523 97.8906C152.81 98.349 152.966 98.8698 152.992 99.4531H151.617C151.591 99.1042 151.492 98.7891 151.32 98.5078C151.154 98.2266 150.924 98.0026 150.633 97.8359C150.346 97.6641 150.01 97.5781 149.625 97.5781C149.182 97.5781 148.81 97.6667 148.508 97.8438C148.211 98.0156 147.974 98.25 147.797 98.5469C147.625 98.8385 147.5 99.1641 147.422 99.5234C147.349 99.8776 147.312 100.24 147.312 100.609V100.938C147.312 101.307 147.349 101.672 147.422 102.031C147.495 102.391 147.617 102.716 147.789 103.008C147.966 103.299 148.203 103.534 148.5 103.711C148.802 103.883 149.177 103.969 149.625 103.969ZM154.734 100.867V100.688C154.734 100.078 154.823 99.513 155 98.9922C155.177 98.4661 155.432 98.0104 155.766 97.625C156.099 97.2344 156.503 96.9323 156.977 96.7188C157.451 96.5 157.982 96.3906 158.57 96.3906C159.164 96.3906 159.698 96.5 160.172 96.7188C160.651 96.9323 161.057 97.2344 161.391 97.625C161.729 98.0104 161.987 98.4661 162.164 98.9922C162.341 99.513 162.43 100.078 162.43 100.688V100.867C162.43 101.477 162.341 102.042 162.164 102.562C161.987 103.083 161.729 103.539 161.391 103.93C161.057 104.315 160.654 104.617 160.18 104.836C159.711 105.049 159.18 105.156 158.586 105.156C157.992 105.156 157.458 105.049 156.984 104.836C156.51 104.617 156.104 104.315 155.766 103.93C155.432 103.539 155.177 103.083 155 102.562C154.823 102.042 154.734 101.477 154.734 100.867ZM156.18 100.688V100.867C156.18 101.289 156.229 101.688 156.328 102.062C156.427 102.432 156.576 102.76 156.773 103.047C156.977 103.333 157.229 103.56 157.531 103.727C157.833 103.888 158.185 103.969 158.586 103.969C158.982 103.969 159.328 103.888 159.625 103.727C159.927 103.56 160.177 103.333 160.375 103.047C160.573 102.76 160.721 102.432 160.82 102.062C160.924 101.688 160.977 101.289 160.977 100.867V100.688C160.977 100.271 160.924 99.8776 160.82 99.5078C160.721 99.1328 160.57 98.8021 160.367 98.5156C160.169 98.224 159.919 97.9948 159.617 97.8281C159.32 97.6615 158.971 97.5781 158.57 97.5781C158.174 97.5781 157.826 97.6615 157.523 97.8281C157.227 97.9948 156.977 98.224 156.773 98.5156C156.576 98.8021 156.427 99.1328 156.328 99.5078C156.229 99.8776 156.18 100.271 156.18 100.688ZM169.664 102.758C169.664 102.549 169.617 102.357 169.523 102.18C169.435 101.997 169.25 101.833 168.969 101.688C168.693 101.536 168.276 101.406 167.719 101.297C167.25 101.198 166.826 101.081 166.445 100.945C166.07 100.81 165.75 100.646 165.484 100.453C165.224 100.26 165.023 100.034 164.883 99.7734C164.742 99.513 164.672 99.2083 164.672 98.8594C164.672 98.526 164.745 98.2109 164.891 97.9141C165.042 97.6172 165.253 97.3542 165.523 97.125C165.799 96.8958 166.13 96.7161 166.516 96.5859C166.901 96.4557 167.331 96.3906 167.805 96.3906C168.482 96.3906 169.06 96.5104 169.539 96.75C170.018 96.9896 170.385 97.3099 170.641 97.7109C170.896 98.1068 171.023 98.5469 171.023 99.0312H169.578C169.578 98.7969 169.508 98.5703 169.367 98.3516C169.232 98.1276 169.031 97.9427 168.766 97.7969C168.505 97.651 168.185 97.5781 167.805 97.5781C167.404 97.5781 167.078 97.6406 166.828 97.7656C166.583 97.8854 166.404 98.0391 166.289 98.2266C166.18 98.4141 166.125 98.612 166.125 98.8203C166.125 98.9766 166.151 99.1172 166.203 99.2422C166.26 99.362 166.359 99.474 166.5 99.5781C166.641 99.6771 166.839 99.7708 167.094 99.8594C167.349 99.9479 167.674 100.036 168.07 100.125C168.763 100.281 169.333 100.469 169.781 100.688C170.229 100.906 170.562 101.174 170.781 101.492C171 101.81 171.109 102.195 171.109 102.648C171.109 103.018 171.031 103.357 170.875 103.664C170.724 103.971 170.503 104.237 170.211 104.461C169.924 104.68 169.581 104.852 169.18 104.977C168.784 105.096 168.339 105.156 167.844 105.156C167.099 105.156 166.469 105.023 165.953 104.758C165.438 104.492 165.047 104.148 164.781 103.727C164.516 103.305 164.383 102.859 164.383 102.391H165.836C165.857 102.786 165.971 103.102 166.18 103.336C166.388 103.565 166.643 103.729 166.945 103.828C167.247 103.922 167.547 103.969 167.844 103.969C168.24 103.969 168.57 103.917 168.836 103.812C169.107 103.708 169.312 103.565 169.453 103.383C169.594 103.201 169.664 102.992 169.664 102.758Z" fill="black"/>
</svg>
