<svg width="300" height="300" viewBox="0 0 300 300" fill="none" xmlns="http://www.w3.org/2000/svg">
<path d="M300 124.012C300 192.025 251.325 260.208 150 260.208C67.1573 260.208 0 205.073 0 137.061C0 99.1661 15.5941 53.0598 55.6931 41.6422C95.7921 30.2245 99.5937 68.1672 142.663 68.1671C185.732 68.1669 211.957 43.755 255.163 54.3336C287.772 62.3174 300 91.3802 300 124.012Z" fill="#F6E1F9"/>
<mask id="mask0_838_6928" style="mask-type:alpha" maskUnits="userSpaceOnUse" x="0" y="39" width="300" height="222">
<path d="M300 124.012C300 192.025 251.325 260.208 150 260.208C67.1573 260.208 0 205.073 0 137.061C0 99.1661 15.5941 53.0598 55.6931 41.6422C95.7921 30.2245 99.5937 68.1672 142.663 68.1671C185.732 68.1669 211.957 43.755 255.163 54.3336C287.772 62.3174 300 91.3802 300 124.012Z" fill="#F6E1F9"/>
</mask>
<g mask="url(#mask0_838_6928)">
<path d="M334.583 186.053C339.572 186.993 344.585 187.8 349.623 188.475C375.71 191.984 402.187 191.915 428.298 188.274C440.566 186.56 449.123 175.24 447.418 162.974C445.713 150.707 434.383 142.157 422.117 143.862C400.037 146.94 377.659 146.996 355.602 144.037C331.312 140.775 307.696 133.89 285.39 123.584C274.15 118.382 260.824 123.291 255.631 134.532C250.438 145.774 255.338 159.099 266.58 164.291C288.323 174.337 311.141 181.637 334.583 186.053Z" fill="#DCAC82"/>
<path d="M271.84 165.967C259.672 163.675 251.665 151.953 253.957 139.785C256.249 127.616 267.972 119.61 280.14 121.902C292.308 124.194 300.315 135.916 298.023 148.085C295.731 160.253 284.008 168.259 271.84 165.967Z" fill="#DCAC82"/>
<path d="M246.897 115.64L280.14 121.901L271.838 165.976L238.595 159.714L246.897 115.64Z" fill="#DCAC82"/>
<path d="M266.64 140.713C270.815 143.69 278.242 144.419 280.575 144.25L273.289 130.558L247.564 125.713L243.912 145.101L260.657 148.256C263.09 148.714 265.435 147.113 265.893 144.68L266.64 140.713Z" fill="#BE906A"/>
<path d="M238.727 114.101L253.445 116.874C256.487 117.447 258.489 120.377 257.916 123.419C257.343 126.461 254.412 128.463 251.37 127.89L236.652 125.118C233.61 124.545 231.608 121.614 232.181 118.572C232.754 115.53 235.685 113.528 238.727 114.101Z" fill="#DCAC82"/>
<path d="M236.652 125.117L251.37 127.89C254.412 128.463 256.413 131.393 255.84 134.435C255.267 137.478 252.337 139.479 249.295 138.906L234.577 136.134C231.535 135.561 229.533 132.63 230.106 129.588C230.679 126.546 233.61 124.544 236.652 125.117Z" fill="#DCAC82"/>
<path d="M234.577 136.134L249.295 138.906C252.337 139.479 254.339 142.41 253.766 145.452C253.193 148.494 250.262 150.495 247.22 149.922L232.502 147.15C229.46 146.577 227.458 143.647 228.031 140.604C228.604 137.562 231.535 135.561 234.577 136.134Z" fill="#DCAC82"/>
<path d="M232.5 147.158L247.218 149.931C250.26 150.504 252.262 153.434 251.689 156.476C251.116 159.519 248.185 161.52 245.143 160.947L230.425 158.175C227.383 157.602 225.382 154.671 225.955 151.629C226.528 148.587 229.458 146.585 232.5 147.158Z" fill="#DCAC82"/>
<path fill-rule="evenodd" clip-rule="evenodd" d="M253.353 117.313C256.151 117.839 257.993 120.537 257.466 123.335C256.94 126.132 254.242 127.974 251.444 127.448L236.021 124.543C235.778 124.497 235.544 124.657 235.498 124.9C235.452 125.144 235.612 125.378 235.855 125.424L251.278 128.329C254.562 128.947 257.729 126.784 258.348 123.501C258.966 120.217 256.803 117.05 253.519 116.431C253.276 116.385 253.042 116.546 252.996 116.789C252.95 117.032 253.11 117.267 253.353 117.313Z" fill="#9F7554"/>
<path fill-rule="evenodd" clip-rule="evenodd" d="M251.278 128.329C254.075 128.856 255.918 131.554 255.391 134.351C254.864 137.148 252.166 138.991 249.369 138.464L233.946 135.559C233.703 135.513 233.468 135.673 233.423 135.917C233.377 136.16 233.537 136.394 233.78 136.44L249.203 139.345C252.487 139.964 255.654 137.801 256.273 134.517C256.891 131.233 254.728 128.066 251.444 127.448C251.201 127.402 250.966 127.562 250.921 127.805C250.875 128.049 251.035 128.283 251.278 128.329Z" fill="#9F7554"/>
<path fill-rule="evenodd" clip-rule="evenodd" d="M249.202 139.354C251.999 139.88 253.841 142.578 253.315 145.376C252.788 148.173 250.09 150.016 247.293 149.489L231.87 146.584C231.626 146.538 231.392 146.698 231.346 146.941C231.3 147.185 231.46 147.419 231.704 147.465L247.127 150.37C250.41 150.988 253.577 148.826 254.196 145.542C254.814 142.258 252.651 139.091 249.368 138.472C249.124 138.426 248.89 138.587 248.844 138.83C248.798 139.073 248.958 139.308 249.202 139.354Z" fill="#9F7554"/>
<path fill-rule="evenodd" clip-rule="evenodd" d="M247.135 150.372C249.932 150.899 251.775 153.597 251.248 156.394C250.721 159.191 248.023 161.034 245.226 160.507C244.983 160.461 244.748 160.621 244.702 160.865C244.657 161.108 244.817 161.343 245.06 161.388C248.344 162.007 251.511 159.844 252.129 156.56C252.748 153.276 250.585 150.109 247.301 149.491C247.058 149.445 246.823 149.605 246.778 149.848C246.732 150.092 246.892 150.326 247.135 150.372Z" fill="#9F7554"/>
<g clip-path="url(#clip0_838_6928)">
<path d="M269.846 96.1443L197.291 82.4778C195.91 82.2177 194.581 83.1208 194.322 84.4949L186.129 127.991C185.87 129.365 186.78 130.69 188.161 130.95L260.715 144.616C262.096 144.876 263.425 143.973 263.684 142.599L271.877 99.1033C272.136 97.7292 271.226 96.4044 269.846 96.1443Z" fill="#4C9E34"/>
<path d="M258.097 128.472L244.935 125.993C244.762 125.96 244.596 126.073 244.563 126.245L243.129 133.86C243.097 134.032 243.21 134.198 243.383 134.23L256.546 136.709C256.718 136.742 256.884 136.629 256.917 136.457L258.351 128.842C258.383 128.67 258.27 128.505 258.097 128.472Z" fill="white"/>
<path d="M205.909 100.589L197.926 99.0857C197.753 99.0532 197.587 99.1661 197.555 99.3379L196.703 103.861C196.67 104.033 196.784 104.198 196.957 104.231L204.94 105.734C205.113 105.767 205.279 105.654 205.311 105.482L206.163 100.959C206.195 100.788 206.082 100.622 205.909 100.589Z" fill="#F4C12A"/>
<path d="M202.548 120.201L194.627 118.71C194.238 118.636 193.863 118.889 193.79 119.274C193.718 119.659 193.975 120.031 194.365 120.105L202.285 121.597C202.675 121.67 203.05 121.417 203.122 121.032C203.195 120.647 202.938 120.275 202.548 120.201Z" fill="#346B22"/>
<path d="M215.112 122.568L207.191 121.076C206.802 121.003 206.427 121.255 206.354 121.641C206.282 122.026 206.539 122.398 206.929 122.471L214.849 123.963C215.239 124.036 215.614 123.784 215.686 123.398C215.759 123.013 215.502 122.641 215.112 122.568Z" fill="#346B22"/>
<path d="M227.676 124.935L219.756 123.443C219.366 123.369 218.991 123.622 218.919 124.007C218.846 124.393 219.103 124.764 219.493 124.838L227.414 126.33C227.803 126.403 228.178 126.15 228.251 125.765C228.323 125.38 228.066 125.008 227.676 124.935Z" fill="#346B22"/>
<path d="M231.85 130.708L193.72 123.525C193.33 123.452 192.956 123.705 192.883 124.09C192.811 124.475 193.068 124.847 193.457 124.921L231.588 132.103C231.977 132.176 232.352 131.923 232.424 131.538C232.497 131.153 232.24 130.781 231.85 130.708Z" fill="#346B22"/>
<path d="M256.356 114.841C256.258 114.823 256.156 114.776 256.078 114.697C255.858 114.49 255.851 114.139 256.058 113.92C257.325 112.595 258.173 110.942 258.512 109.138C258.852 107.334 258.664 105.486 257.966 103.79C257.852 103.511 257.986 103.196 258.268 103.074C258.548 102.961 258.865 103.095 258.988 103.375C259.77 105.262 259.973 107.324 259.593 109.341C259.213 111.358 258.266 113.195 256.859 114.678C256.721 114.818 256.535 114.875 256.356 114.841Z" fill="white"/>
<path d="M254.606 113.085C254.508 113.067 254.406 113.02 254.328 112.941C254.108 112.734 254.101 112.383 254.317 112.166C255.246 111.209 255.87 110.011 256.119 108.687C256.368 107.363 256.224 106.02 255.706 104.791C255.592 104.512 255.717 104.195 255.999 104.073C256.279 103.96 256.598 104.085 256.72 104.365C257.32 105.794 257.489 107.353 257.201 108.882C256.913 110.41 256.189 111.801 255.11 112.914C254.973 113.053 254.788 113.101 254.61 113.068L254.606 113.085Z" fill="white"/>
<path d="M252.751 111.595C252.644 111.575 252.551 111.53 252.464 111.449C252.246 111.233 252.245 110.893 252.462 110.676C253.124 110.009 253.568 109.173 253.744 108.24C253.919 107.307 253.81 106.366 253.436 105.504C253.313 105.223 253.437 104.906 253.719 104.785C254.001 104.663 254.32 104.787 254.443 105.068C254.908 106.131 255.04 107.297 254.824 108.443C254.608 109.589 254.063 110.618 253.241 111.448C253.105 111.579 252.921 111.627 252.751 111.595Z" fill="white"/>
<path d="M250.948 109.976C250.832 109.955 250.731 109.899 250.646 109.809C250.439 109.586 250.458 109.24 250.681 109.034C251.05 108.698 251.287 108.274 251.377 107.794C251.468 107.314 251.403 106.823 251.18 106.386C251.047 106.112 251.164 105.785 251.43 105.651C251.704 105.518 252.033 105.636 252.169 105.9C252.488 106.559 252.593 107.278 252.458 107.997C252.322 108.717 251.973 109.341 251.427 109.837C251.293 109.959 251.119 109.999 250.949 109.967L250.948 109.976Z" fill="white"/>
</g>
<path d="M275.99 143.934L298.031 148.086C299.239 140.803 298.002 135.259 297.096 132.314C294.307 123.192 287.186 115.791 279.38 110.625C275.567 108.1 274.642 108.263 268.911 104.483C265.55 102.271 262.69 100.108 260.347 98.2063C258.059 96.3517 254.751 96.5224 252.663 98.5932C250.431 100.801 250.363 104.411 252.558 106.659C253.813 107.945 255.233 109.271 256.838 110.586C259.566 112.816 262.194 114.515 264.498 115.798C264.139 116.88 260.278 129.048 267.669 138.014C270.418 141.343 273.746 143.056 275.99 143.934Z" fill="#DCAC82"/>
<path d="M-11.0005 237.261C-15.8192 238.857 -20.6801 240.324 -25.5833 241.665C-50.9704 248.616 -77.2213 252.075 -103.584 251.943C-115.972 251.879 -125.96 241.8 -125.904 229.415C-125.848 217.031 -115.758 207.049 -103.373 207.104C-81.0799 207.214 -58.8941 204.289 -37.4283 198.418C-13.7891 191.951 8.70003 181.982 29.4344 168.796C39.8811 162.144 53.7428 165.234 60.3866 175.684C67.0304 186.133 63.9485 199.992 53.499 206.636C33.2871 219.488 11.6454 229.762 -11.0005 237.261Z" fill="#815C41"/>
<path d="M48.5084 208.997C60.2631 205.104 66.6368 192.42 62.7445 180.665C58.8522 168.911 46.1678 162.537 34.4131 166.429C22.6584 170.321 16.2847 183.006 20.1771 194.761C24.0694 206.515 36.7538 212.889 48.5084 208.997Z" fill="#815C41"/>
<path d="M66.526 155.796L34.4131 166.429L48.5112 209.005L80.6241 198.372L66.526 155.796Z" fill="#815C41"/>
<path d="M50.2978 183.275C46.5565 186.781 39.2936 188.494 36.9581 188.637L42.3561 174.096L67.2063 165.868L73.4082 184.597L57.2326 189.954C54.8817 190.732 52.345 189.458 51.5665 187.107L50.2978 183.275Z" fill="#624029"/>
<path d="M74.4183 153.183L60.2008 157.89C57.2621 158.864 55.6687 162.035 56.6418 164.973C57.6149 167.912 60.786 169.505 63.7246 168.532L77.9422 163.824C80.8808 162.851 82.4743 159.68 81.5012 156.742C80.5281 153.803 77.357 152.21 74.4183 153.183Z" fill="#815C41"/>
<path d="M77.9418 163.824L63.7242 168.532C60.7856 169.505 59.1922 172.676 60.1652 175.615C61.1383 178.554 64.3094 180.147 67.2481 179.174L81.4656 174.466C84.4043 173.493 85.9977 170.322 85.0246 167.383C84.0515 164.445 80.8804 162.851 77.9418 163.824Z" fill="#815C41"/>
<path d="M81.4657 174.467L67.2482 179.174C64.3095 180.147 62.7161 183.319 63.6892 186.257C64.6622 189.196 67.8333 190.789 70.772 189.816L84.9895 185.108C87.9282 184.135 89.5216 180.964 88.5485 178.026C87.5755 175.087 84.4044 173.493 81.4657 174.467Z" fill="#815C41"/>
<path d="M84.9925 185.116L70.775 189.824C67.8364 190.797 66.2429 193.968 67.216 196.907C68.1891 199.846 71.3602 201.439 74.2989 200.466L88.5164 195.758C91.4551 194.785 93.0485 191.614 92.0754 188.675C91.1023 185.737 87.9312 184.143 84.9925 185.116Z" fill="#815C41"/>
<path fill-rule="evenodd" clip-rule="evenodd" d="M60.3503 158.313C57.6482 159.208 56.1813 162.127 57.076 164.829C57.9707 167.532 60.8902 168.998 63.5922 168.104L78.4908 163.17C78.7259 163.093 78.9796 163.22 79.0574 163.455C79.1353 163.69 79.0078 163.944 78.7727 164.022L63.8741 168.955C60.7019 170.006 57.2751 168.284 56.2246 165.111C55.1742 161.939 56.8961 158.512 60.0684 157.462C60.3035 157.384 60.5572 157.512 60.635 157.747C60.7129 157.982 60.5854 158.235 60.3503 158.313Z" fill="#624029"/>
<path fill-rule="evenodd" clip-rule="evenodd" d="M63.8737 168.955C61.1717 169.85 59.7047 172.769 60.5994 175.472C61.4942 178.174 64.4136 179.641 67.1156 178.746L82.0142 173.812C82.2493 173.735 82.503 173.862 82.5809 174.097C82.6587 174.332 82.5312 174.586 82.2962 174.664L67.3976 179.597C64.2253 180.648 60.7985 178.926 59.7481 175.753C58.6977 172.581 60.4196 169.154 63.5918 168.104C63.8269 168.026 64.0806 168.154 64.1584 168.389C64.2363 168.624 64.1088 168.877 63.8737 168.955Z" fill="#624029"/>
<path fill-rule="evenodd" clip-rule="evenodd" d="M67.4006 179.605C64.6985 180.5 63.2316 183.419 64.1263 186.121C65.021 188.823 67.9404 190.29 70.6425 189.395L85.5411 184.462C85.7762 184.384 86.0299 184.512 86.1077 184.747C86.1856 184.982 86.0581 185.236 85.823 185.313L70.9244 190.247C67.7522 191.297 64.3254 189.575 63.2749 186.403C62.2245 183.231 63.9464 179.804 67.1187 178.754C67.3538 178.676 67.6075 178.803 67.6853 179.038C67.7631 179.273 67.6357 179.527 67.4006 179.605Z" fill="#624029"/>
<path fill-rule="evenodd" clip-rule="evenodd" d="M70.9157 190.25C68.2137 191.145 66.7467 194.064 67.6414 196.766C68.5362 199.469 71.4556 200.935 74.1576 200.041C74.3927 199.963 74.6464 200.09 74.7243 200.325C74.8021 200.561 74.6746 200.814 74.4396 200.892C71.2673 201.943 67.8405 200.221 66.7901 197.048C65.7397 193.876 67.4616 190.449 70.6338 189.399C70.8689 189.321 71.1226 189.449 71.2004 189.684C71.2783 189.919 71.1508 190.172 70.9157 190.25Z" fill="#624029"/>
<g clip-path="url(#clip1_838_6928)">
<path d="M111.273 116.322L41.1854 139.53C39.8514 139.972 39.1263 141.406 39.5659 142.733L53.479 184.75C53.9186 186.078 55.3563 186.796 56.6902 186.354L126.778 163.146C128.112 162.704 128.837 161.27 128.398 159.943L114.485 117.925C114.045 116.598 112.607 115.88 111.273 116.322Z" fill="#003E75"/>
<path d="M116.664 150.293L103.949 154.503C103.783 154.559 103.692 154.738 103.747 154.904L106.183 162.26C106.238 162.426 106.417 162.516 106.584 162.46L119.299 158.25C119.466 158.195 119.557 158.016 119.502 157.85L117.066 150.493C117.011 150.327 116.831 150.238 116.664 150.293Z" fill="white"/>
<path d="M57.5015 151.196L49.7897 153.749C49.623 153.805 49.5323 153.984 49.5873 154.15L51.034 158.519C51.089 158.685 51.2687 158.775 51.4354 158.719L59.1473 156.166C59.314 156.111 59.4046 155.931 59.3497 155.765L57.903 151.396C57.848 151.23 57.6683 151.141 57.5015 151.196Z" fill="#F4C12A"/>
<path d="M64.0658 169.979L56.4144 172.513C56.038 172.638 55.8328 173.04 55.956 173.413C56.0793 173.785 56.4843 173.985 56.8606 173.861L64.5121 171.327C64.8884 171.203 65.0937 170.8 64.9704 170.428C64.8472 170.056 64.4422 169.855 64.0658 169.979Z" fill="#1172C9"/>
<path d="M76.203 165.961L68.5516 168.494C68.1752 168.619 67.97 169.022 68.0932 169.394C68.2165 169.766 68.6215 169.967 68.9978 169.842L76.6493 167.308C77.0257 167.184 77.2309 166.781 77.1076 166.409C76.9844 166.037 76.5794 165.836 76.203 165.961Z" fill="#1172C9"/>
<path d="M88.3402 161.942L80.6888 164.475C80.3124 164.6 80.1072 165.003 80.2304 165.375C80.3537 165.747 80.7587 165.948 81.135 165.823L88.7865 163.289C89.1629 163.165 89.3681 162.762 89.2448 162.39C89.1216 162.018 88.7166 161.817 88.3402 161.942Z" fill="#1172C9"/>
<path d="M94.7889 164.969L57.9549 177.165C57.5785 177.29 57.3733 177.693 57.4966 178.065C57.6198 178.437 58.0248 178.638 58.4011 178.513L95.2351 166.316C95.6115 166.192 95.8167 165.789 95.6935 165.417C95.5702 165.045 95.1652 164.844 94.7889 164.969Z" fill="#1172C9"/>
<path d="M108.535 139.213C108.44 139.245 108.328 139.253 108.222 139.222C107.929 139.147 107.752 138.844 107.828 138.552C108.294 136.779 108.234 134.922 107.657 133.18C107.08 131.437 106.02 129.912 104.588 128.767C104.353 128.578 104.317 128.237 104.504 127.994C104.695 127.76 105.037 127.723 105.28 127.909C106.878 129.18 108.056 130.886 108.701 132.834C109.346 134.783 109.408 136.848 108.895 138.827C108.843 139.016 108.708 139.156 108.535 139.213Z" fill="white"/>
<path d="M106.154 138.526C106.059 138.557 105.947 138.566 105.841 138.534C105.548 138.46 105.371 138.156 105.455 137.862C105.804 136.575 105.769 135.224 105.345 133.945C104.922 132.666 104.144 131.562 103.096 130.737C102.861 130.548 102.816 130.211 103.004 129.968C103.194 129.733 103.533 129.688 103.777 129.874C104.994 130.833 105.897 132.115 106.386 133.591C106.875 135.067 106.916 136.635 106.511 138.131C106.459 138.32 106.32 138.451 106.148 138.509L106.154 138.526Z" fill="white"/>
<path d="M103.809 138.121C103.705 138.155 103.602 138.161 103.487 138.132C103.191 138.049 103.026 137.752 103.11 137.457C103.366 136.553 103.349 135.606 103.051 134.705C102.752 133.804 102.201 133.034 101.456 132.461C101.212 132.275 101.168 131.938 101.355 131.695C101.543 131.452 101.882 131.406 102.125 131.592C103.048 132.296 103.728 133.252 104.094 134.359C104.461 135.467 104.483 136.631 104.166 137.755C104.111 137.935 103.972 138.067 103.809 138.121Z" fill="white"/>
<path d="M101.447 137.579C101.335 137.616 101.22 137.616 101.102 137.579C100.812 137.484 100.661 137.173 100.757 136.884C100.917 136.412 100.918 135.925 100.765 135.462C100.611 134.998 100.317 134.601 99.91 134.326C99.6607 134.151 99.6045 133.808 99.7719 133.562C99.948 133.313 100.293 133.256 100.539 133.422C101.138 133.843 101.578 134.421 101.809 135.116C102.039 135.812 102.036 136.527 101.798 137.225C101.74 137.396 101.608 137.516 101.444 137.571L101.447 137.579Z" fill="white"/>
</g>
<path d="M41.4611 187.713L20.1688 194.763C18.002 187.706 18.4897 182.046 18.9948 179.007C20.5449 169.595 26.6161 161.311 33.6644 155.152C37.1076 152.141 38.0462 152.18 43.2223 147.669C46.2592 145.029 48.8052 142.505 50.8741 140.308C52.8947 138.165 56.1963 137.894 58.541 139.668C61.0471 141.559 61.5958 145.128 59.7191 147.648C58.6471 149.09 57.4161 150.593 56.0008 152.11C53.5936 154.683 51.2159 156.718 49.1028 158.296C49.6027 159.321 55.0504 170.866 48.9193 180.737C46.6376 184.402 43.5677 186.543 41.4611 187.713Z" fill="#815C41"/>
</g>
<g clip-path="url(#clip2_838_6928)">
<path d="M190.463 206.553V53.0113C190.463 49.563 187.647 46.7676 184.174 46.7676L115.827 46.7676C112.353 46.7676 109.537 49.563 109.537 53.0113L109.537 206.553C109.537 210.002 112.353 212.797 115.827 212.797H184.174C187.647 212.797 190.463 210.002 190.463 206.553Z" fill="#403556"/>
<path d="M190.463 201.738V48.1962C190.463 44.7478 187.647 41.9524 184.174 41.9524L115.827 41.9524C112.353 41.9524 109.537 44.7478 109.537 48.1962L109.537 201.738C109.537 205.186 112.353 207.982 115.827 207.982H184.174C187.647 207.982 190.463 205.186 190.463 201.738Z" fill="#2C2044"/>
<path d="M186.534 194.868V55.0658C186.534 53.355 185.137 51.968 183.414 51.968L116.57 51.968C114.847 51.968 113.45 53.355 113.45 55.0658L113.45 194.868C113.45 196.579 114.847 197.966 116.57 197.966H183.414C185.137 197.966 186.534 196.579 186.534 194.868Z" fill="#742384"/>
<path d="M141.843 48.7739H158.141C159.088 48.7739 159.855 48.0122 159.855 47.0725V46.8639C159.855 45.9242 159.088 45.1625 158.141 45.1625H141.843C140.896 45.1625 140.129 45.9242 140.129 46.8639V47.0725C140.129 48.0122 140.896 48.7739 141.843 48.7739Z" fill="#544A69"/>
</g>
<g clip-path="url(#clip3_838_6928)">
<path fill-rule="evenodd" clip-rule="evenodd" d="M234.11 191.166C234.748 192.662 235.941 193.853 237.435 194.491C239.341 195.304 242.064 196.467 244.237 197.394C245.564 197.961 245.562 199.84 244.237 200.407L237.435 203.31C235.939 203.948 234.748 205.139 234.11 206.635C233.297 208.54 232.134 211.264 231.207 213.436C230.64 214.764 228.761 214.764 228.194 213.436C227.268 211.264 226.104 208.54 225.291 206.635C224.653 205.139 223.46 203.948 221.966 203.31C220.06 202.497 217.337 201.334 215.165 200.407C213.837 199.84 213.837 197.961 215.165 197.394C217.337 196.467 220.06 195.304 221.966 194.491C223.462 193.853 224.653 192.66 225.291 191.166C226.104 189.26 227.268 186.537 228.194 184.365C228.761 183.037 230.64 183.037 231.207 184.365C232.134 186.537 233.297 189.26 234.11 191.166Z" fill="#E3B2EB"/>
</g>
<g clip-path="url(#clip4_838_6928)">
<path fill-rule="evenodd" clip-rule="evenodd" d="M73.4935 62.6673C74.2477 64.446 75.6591 65.862 77.426 66.6201C79.6805 67.5866 82.9019 68.9701 85.4715 70.072C87.0418 70.7461 87.0391 72.9797 85.4715 73.6539L77.426 77.1058C75.6564 77.8638 74.2477 79.2798 73.4935 81.0586C72.5319 83.3247 71.1555 86.5627 70.0593 89.1455C69.3886 90.724 67.1664 90.724 66.4957 89.1455C65.3995 86.5627 64.0231 83.3247 63.0615 81.0586C62.3073 79.2798 60.8959 77.8638 59.129 77.1058C56.8745 76.1392 53.6531 74.7558 51.0835 73.6539C49.5132 72.9797 49.5132 70.7461 51.0835 70.072C53.6531 68.9701 56.8745 67.5866 59.129 66.6201C60.8986 65.862 62.3073 64.4433 63.0615 62.6673C64.0231 60.4012 65.3995 57.1631 66.4957 54.5803C67.1664 53.0019 69.3886 53.0019 70.0593 54.5803C71.1555 57.1631 72.5319 60.4012 73.4935 62.6673Z" fill="#E3B2EB"/>
<path fill-rule="evenodd" clip-rule="evenodd" d="M30.8864 98.644C31.1683 99.3088 31.6958 99.838 32.3561 100.121C33.1987 100.483 34.4027 101 35.363 101.411C35.9499 101.663 35.9489 102.498 35.363 102.75L32.3561 104.04C31.6948 104.324 31.1683 104.853 30.8864 105.518C30.527 106.364 30.0126 107.575 29.6029 108.54C29.3523 109.13 28.5218 109.13 28.2711 108.54C27.8614 107.575 27.347 106.364 26.9876 105.518C26.7057 104.853 26.1782 104.324 25.5179 104.04C24.6753 103.679 23.4713 103.162 22.511 102.75C21.9241 102.498 21.9241 101.663 22.511 101.411C23.4713 101 24.6753 100.483 25.5179 100.121C26.1792 99.838 26.7057 99.3078 26.9876 98.644C27.347 97.7971 27.8614 96.5869 28.2711 95.6216C28.5218 95.0317 29.3523 95.0317 29.6029 95.6216C30.0126 96.5869 30.527 97.7971 30.8864 98.644Z" fill="#E3B2EB"/>
</g>
<path fill-rule="evenodd" clip-rule="evenodd" d="M160.839 103.017L156.407 111.221C156.224 111.557 155.808 111.68 155.477 111.496C155.146 111.315 155.022 110.895 155.204 110.559L159.636 102.354C159.818 102.02 160.235 101.896 160.566 102.079C160.897 102.261 161.019 102.681 160.839 103.017ZM151.364 111.709C148.806 111.709 148.102 110.012 147.921 109.165C147.844 108.83 147.842 108.595 147.842 108.483C147.842 108.082 148.163 107.758 148.558 107.758C148.928 107.758 149.229 108.04 149.269 108.4C149.269 108.403 149.272 108.405 149.272 108.408C149.276 108.43 149.279 108.469 149.282 108.521C149.287 108.562 149.294 108.603 149.294 108.646C149.294 108.675 149.296 108.703 149.297 108.734C149.304 108.793 149.311 108.857 149.322 108.923C149.349 109.064 149.396 109.22 149.474 109.379C149.485 109.394 149.491 109.41 149.5 109.425C149.742 109.88 150.241 110.328 151.204 110.379C152.654 110.42 153.082 109.931 153.087 109.323C153.032 108.619 152.99 108.113 151.316 107.422C149.357 106.615 148.108 106.127 148.108 104.437C148.108 102.749 149.662 102.052 151.085 102.052C151.443 102.052 151.754 102.094 152.032 102.162C152.587 102.273 153.202 102.503 153.662 102.959V102.955C153.779 103.06 153.903 103.214 154.012 103.399C154.024 103.418 154.035 103.436 154.045 103.455C154.074 103.505 154.1 103.559 154.127 103.615C154.136 103.634 154.144 103.651 154.152 103.669C154.293 103.983 154.393 104.354 154.393 104.734C154.393 104.802 154.402 104.915 154.378 105.042C154.376 105.053 154.373 105.064 154.371 105.075C154.365 105.104 154.355 105.133 154.343 105.163C154.338 105.177 154.335 105.189 154.328 105.2C154.325 105.211 154.32 105.221 154.313 105.233C154.194 105.469 153.955 105.633 153.674 105.633C153.426 105.633 153.213 105.506 153.083 105.315C153.074 105.298 153.064 105.281 153.055 105.264C153.035 105.231 153.019 105.194 153.005 105.156C153.003 105.152 153 105.147 153 105.142C152.993 105.123 152.987 105.102 152.983 105.084C152.95 104.969 152.935 104.846 152.935 104.743C152.935 104.721 152.933 104.701 152.932 104.679C152.932 104.644 152.93 104.614 152.927 104.583C152.905 104.403 152.853 104.262 152.789 104.147C152.783 104.135 152.776 104.123 152.769 104.112C152.756 104.091 152.744 104.073 152.731 104.052C152.373 103.532 151.608 103.269 151.05 103.269C150.297 103.269 149.49 103.686 149.49 104.453C149.49 105.217 150.214 105.677 151.441 106.085C153.84 106.972 154.335 107.689 154.55 108.564C154.788 109.521 154.376 111.709 151.364 111.709ZM164.737 103.698C163.409 97.6841 157.412 93.9139 151.345 95.2796C145.275 96.6477 141.434 102.631 142.763 108.645C143.201 110.632 144.15 112.374 145.444 113.767C146.108 114.485 144.628 118.442 145.451 118.958C146.128 119.384 149.088 116.402 149.844 116.676C151.796 117.38 153.972 117.554 156.156 117.063C162.223 115.696 166.067 109.713 164.737 103.698Z" fill="#10CBB4"/>
<path fill-rule="evenodd" clip-rule="evenodd" d="M171.554 123.198C171.268 123.269 171.03 123.464 170.822 123.671C169.838 124.662 169.045 126.553 168.904 127.314C168.908 127.29 168.939 127.285 169.013 127.273C169.134 127.253 169.372 127.214 169.797 127.043C170.044 126.941 170.277 126.827 170.503 126.684C170.995 126.374 171.455 126.003 171.807 125.541C172.178 125.053 172.513 124.325 172.394 123.701C172.318 123.295 171.967 123.096 171.554 123.198ZM172.673 131.161C172.932 130.835 173.309 130.36 173.678 130.478C173.992 130.579 174.198 131.106 174.318 131.414C174.333 131.452 174.346 131.486 174.359 131.516C174.359 131.516 174.679 132.284 174.449 132.748C174.22 133.211 172.575 134.671 172.196 134.963C171.821 135.255 170.471 136.092 169.281 136.385C168.335 136.617 167.249 136.515 166.451 135.93C165.939 135.557 165.579 135.01 165.361 134.421C165.142 133.835 165.058 133.209 165.02 132.584C164.871 130.026 165.564 127.267 166.804 125.013C167.893 123.028 168.332 122.46 169.639 121.374C170.613 120.562 171.684 120.368 172.938 120.578C173.294 120.638 173.641 120.769 173.935 120.975C175.925 122.357 174.712 125.26 173.636 126.849C172.856 127.999 171.725 128.835 170.439 129.374C170.007 129.557 169.189 129.875 168.401 129.893C168.369 129.895 168.054 130.707 167.985 131.184C167.907 131.737 167.956 132.596 168.347 132.958C169.271 133.817 170.894 132.759 171.614 132.159C171.68 132.104 171.746 132.05 171.813 131.995C172.075 131.782 172.338 131.567 172.553 131.31C172.589 131.267 172.629 131.216 172.673 131.161ZM162.173 127.114C162.084 128.342 161.785 129.529 161.378 130.685C161.034 131.666 160.659 132.69 159.928 133.439C159.288 134.097 157.936 134.532 157.195 133.713C157.195 133.713 157.546 131.792 158.066 129.852C158.557 128.017 159.162 125.854 160.431 124.94C162.003 123.804 162.256 125.992 162.173 127.114ZM164.12 122.305C163.34 121.239 161.719 121.387 160.851 121.86C159.98 122.333 159.043 123.651 158.881 124.044L159.048 122.878C159.048 122.878 159.29 122.481 158.299 122.245C157.31 122.008 156.795 121.942 156.572 122.745C156.454 123.168 155.357 128.825 154.347 134.071C154.113 134.271 153.796 134.464 153.378 134.588C152.182 134.943 153.418 130.149 153.418 130.149C153.418 130.149 154.448 125.459 154.61 124.759C154.774 124.058 154.707 123.381 153.923 123.149C153.139 122.919 152.366 122.876 152.132 123.61L151.898 124.345C151.898 124.345 151.059 123.249 149.349 123.496C147.639 123.743 145.567 126.101 144.331 129.795C143.095 133.489 143.544 135.689 143.759 136.592C143.973 137.496 144.471 138.71 146.214 138.966C147.958 139.225 149.248 137.959 149.917 136.312C149.917 136.312 149.949 137.693 151.145 138.086C151.938 138.346 152.94 137.92 153.7 137.441C153.492 138.523 153.301 139.52 153.139 140.366C149.34 140.918 144.793 141.606 143.678 141.844C143.296 141.925 142.781 142.018 142.177 142.127C141.438 142.26 140.567 142.418 139.648 142.606L139.651 142.599C139.652 142.596 139.653 142.593 139.654 142.589C139.654 142.589 144.143 126.478 144.262 126.023C144.271 125.99 144.281 125.953 144.292 125.912L144.292 125.91L144.292 125.91C144.433 125.384 144.735 124.253 144.262 124.088C143.752 123.911 142.985 123.99 142.259 124.424C141.532 124.86 141.042 125.49 140.832 126.145C140.771 126.332 140.674 126.636 140.559 126.996C140.274 127.893 139.879 129.131 139.669 129.737C139.374 130.587 138.383 133.417 137.666 134.517C136.88 135.723 135.88 136.592 135.134 136.058C134.551 135.641 134.84 134.319 135.015 133.549C135.149 132.967 135.475 131.921 135.727 131.112C135.808 130.852 135.881 130.616 135.938 130.429C135.974 130.311 136.013 130.187 136.053 130.06C136.276 129.355 136.537 128.529 136.587 127.86C136.645 127.072 136.017 126.36 135.439 126.245C134.863 126.128 134.251 126.023 134.015 126.478C133.866 126.763 133.872 127.139 133.879 127.54C133.882 127.781 133.886 128.031 133.857 128.275C133.804 128.714 133.633 129.137 133.466 129.553C133.408 129.696 133.351 129.838 133.299 129.979C133.074 130.596 132.852 131.217 132.646 131.843C132.341 132.769 132.068 133.709 131.861 134.663C131.659 135.591 131.463 136.578 131.551 137.531C131.618 138.272 131.901 139.022 132.466 139.5C132.933 139.895 133.562 140.073 134.17 140.033C135.207 139.965 136.163 139.269 136.879 138.553C136.913 138.519 136.95 138.482 136.988 138.444L136.989 138.444C137.316 138.119 137.759 137.679 137.896 137.265C137.712 137.827 137.527 138.389 137.341 138.95C136.87 140.378 136.398 141.806 135.956 143.243C135.929 143.327 135.903 143.413 135.845 143.478C135.779 143.556 135.681 143.596 135.585 143.635C135.52 143.661 135.455 143.688 135.39 143.715L135.371 143.722C134.864 143.897 134.382 144.089 133.946 144.294C132.848 144.815 131.925 145.401 131.2 145.934C130.176 146.632 129.222 147.428 128.379 148.336C127.287 149.508 126.389 150.872 125.785 152.358C125.221 153.736 124.756 155.358 125.142 156.828C125.514 158.25 126.696 159.319 128.16 159.477C129.187 159.59 130.231 159.28 131.122 158.755C132.012 158.229 132.764 157.491 133.44 156.706C135.429 154.391 136.711 151.629 137.704 148.767C137.962 148.02 138.209 147.268 138.454 146.517C141.45 145.685 148.685 144.321 150.552 143.997C150.942 143.93 151.641 143.825 152.525 143.698C152.487 144.077 152.477 144.562 152.613 144.894C152.867 145.511 153.737 145.873 154.578 144.894C154.832 144.597 155.038 144.026 155.211 143.32C157.427 143.014 159.935 142.675 161.74 142.432L161.742 142.432C162.608 142.315 163.313 142.22 163.744 142.161C164.331 142.081 165.095 142.002 165.908 141.917C168.119 141.687 170.698 141.418 171.106 141.007C171.666 140.444 171.547 139.674 171.254 139.198C170.959 138.725 170.576 138.428 168.721 138.489C167.118 138.539 161.933 139.187 159.419 139.502L159.416 139.502L159.411 139.503C159.019 139.552 158.692 139.593 158.455 139.622C158.027 139.674 157.04 139.809 155.766 139.989C155.792 139.786 155.817 139.587 155.841 139.393L155.842 139.39C155.908 138.865 155.968 138.383 156.028 137.986C156.318 136.039 156.42 135.578 156.42 135.578C156.42 135.578 157.134 136.64 158.792 136.903C160.725 137.21 162.104 135.794 163.124 133.781C164.176 131.709 164.854 128.758 164.969 127.041C165.082 125.383 164.902 123.369 164.12 122.305ZM150.07 131.937C150.688 130.095 151.177 128.367 151.385 127.319C151.604 126.218 150.827 125.983 150.158 126.242C149.325 126.562 148.195 127.196 147.279 129.256C146.795 130.347 146.517 131.478 146.446 132.434C146.376 133.391 146.522 135.099 147.659 135.316C148.676 135.508 149.409 133.905 150.07 131.937ZM134.124 149.215C134.255 148.902 134.381 148.587 134.498 148.27C134.507 148.245 134.523 148.189 134.542 148.117C134.601 147.903 134.697 147.554 134.758 147.531C134.758 147.531 132.04 148.538 129.971 151.139C128.321 153.212 127.56 155.325 128.16 156.058C128.911 156.978 130.347 155.459 130.827 154.907C131.801 153.789 132.55 152.496 133.216 151.174C133.539 150.53 133.845 149.879 134.124 149.215Z" fill="white"/>
<path d="M149.574 155.457H147.125V154.159H149.574C150.001 154.159 150.346 154.089 150.608 153.95C150.871 153.811 151.063 153.619 151.184 153.375C151.309 153.128 151.371 152.845 151.371 152.527C151.371 152.227 151.309 151.947 151.184 151.685C151.063 151.42 150.871 151.207 150.608 151.046C150.346 150.885 150.001 150.805 149.574 150.805H147.622V159H146V149.5H149.574C150.303 149.5 150.921 149.63 151.429 149.891C151.942 150.148 152.332 150.504 152.599 150.961C152.866 151.414 153 151.932 153 152.514C153 153.128 152.866 153.654 152.599 154.094C152.332 154.533 151.942 154.87 151.429 155.105C150.921 155.34 150.303 155.457 149.574 155.457Z" fill="white"/>
<path d="M161.5 154.233V154.768C161.5 155.503 161.411 156.162 161.233 156.746C161.055 157.33 160.801 157.827 160.469 158.237C160.142 158.647 159.749 158.961 159.29 159.179C158.83 159.393 158.321 159.5 157.762 159.5C157.208 159.5 156.701 159.393 156.241 159.179C155.786 158.961 155.391 158.647 155.055 158.237C154.72 157.827 154.459 157.33 154.273 156.746C154.091 156.162 154 155.503 154 154.768V154.233C154 153.497 154.091 152.84 154.273 152.261C154.455 151.677 154.712 151.18 155.043 150.77C155.378 150.356 155.774 150.041 156.229 149.827C156.688 149.61 157.195 149.5 157.75 149.5C158.309 149.5 158.818 149.61 159.277 149.827C159.737 150.041 160.132 150.356 160.463 150.77C160.794 151.18 161.049 151.677 161.227 152.261C161.409 152.84 161.5 153.497 161.5 154.233ZM159.942 154.768V154.22C159.942 153.675 159.892 153.197 159.793 152.782C159.697 152.363 159.555 152.013 159.364 151.733C159.178 151.447 158.948 151.233 158.675 151.091C158.402 150.944 158.094 150.87 157.75 150.87C157.406 150.87 157.1 150.944 156.831 151.091C156.562 151.233 156.332 151.447 156.142 151.733C155.956 152.013 155.813 152.363 155.714 152.782C155.614 153.197 155.565 153.675 155.565 154.22V154.768C155.565 155.311 155.614 155.792 155.714 156.212C155.813 156.63 155.958 156.984 156.148 157.274C156.343 157.559 156.575 157.776 156.844 157.923C157.113 158.065 157.419 158.137 157.762 158.137C158.11 158.137 158.418 158.065 158.687 157.923C158.957 157.776 159.184 157.559 159.37 157.274C159.557 156.984 159.697 156.63 159.793 156.212C159.892 155.792 159.942 155.311 159.942 154.768Z" fill="white"/>
<path d="M168.383 156.86C168.383 156.659 168.353 156.481 168.293 156.325C168.238 156.169 168.137 156.027 167.992 155.897C167.846 155.768 167.641 155.643 167.376 155.523C167.115 155.398 166.781 155.271 166.375 155.142C165.93 154.999 165.519 154.841 165.143 154.667C164.771 154.489 164.446 154.284 164.168 154.053C163.89 153.816 163.674 153.547 163.52 153.244C163.366 152.936 163.289 152.581 163.289 152.18C163.289 151.784 163.368 151.423 163.526 151.098C163.689 150.773 163.918 150.491 164.213 150.255C164.512 150.015 164.865 149.83 165.271 149.701C165.678 149.567 166.127 149.5 166.619 149.5C167.312 149.5 167.908 149.634 168.409 149.901C168.914 150.169 169.301 150.527 169.57 150.977C169.844 151.427 169.981 151.924 169.981 152.468H168.383C168.383 152.147 168.317 151.864 168.184 151.619C168.056 151.369 167.859 151.174 167.594 151.031C167.333 150.888 167.002 150.817 166.599 150.817C166.219 150.817 165.902 150.877 165.65 150.997C165.398 151.118 165.209 151.28 165.085 151.486C164.961 151.69 164.899 151.922 164.899 152.18C164.899 152.363 164.94 152.531 165.021 152.682C165.102 152.829 165.226 152.967 165.393 153.096C165.56 153.221 165.77 153.339 166.022 153.451C166.274 153.562 166.572 153.669 166.914 153.771C167.431 153.932 167.883 154.11 168.268 154.306C168.653 154.498 168.973 154.716 169.23 154.961C169.487 155.206 169.679 155.485 169.808 155.797C169.936 156.104 170 156.455 170 156.846C170 157.257 169.921 157.626 169.763 157.956C169.604 158.282 169.378 158.56 169.083 158.792C168.792 159.019 168.441 159.195 168.03 159.32C167.624 159.44 167.171 159.5 166.67 159.5C166.221 159.5 165.778 159.438 165.342 159.313C164.91 159.189 164.516 158.999 164.161 158.745C163.806 158.486 163.524 158.166 163.314 157.782C163.105 157.395 163 156.942 163 156.425H164.61C164.61 156.741 164.662 157.011 164.764 157.234C164.871 157.457 165.019 157.64 165.207 157.782C165.395 157.921 165.613 158.023 165.862 158.09C166.114 158.157 166.383 158.19 166.67 158.19C167.046 158.19 167.361 158.134 167.613 158.023C167.87 157.911 168.062 157.756 168.191 157.555C168.319 157.355 168.383 157.122 168.383 156.86Z" fill="white"/>
<defs>
<clipPath id="clip0_838_6928">
<rect width="78.9192" height="49.3245" fill="white" transform="translate(194.791 82.0068) rotate(10.6673)"/>
</clipPath>
<clipPath id="clip1_838_6928">
<rect width="78.9192" height="49.3245" fill="white" transform="translate(38.77 140.33) rotate(-18.3212)"/>
</clipPath>
<clipPath id="clip2_838_6928">
<rect width="80.9264" height="170.845" fill="white" transform="translate(109.537 41.9524)"/>
</clipPath>
<clipPath id="clip3_838_6928">
<rect width="31.0627" height="31.0627" fill="white" transform="translate(214.169 183.369)"/>
</clipPath>
<clipPath id="clip4_838_6928">
<rect width="64.5777" height="55.5858" fill="white" transform="translate(22.0708 53.3965)"/>
</clipPath>
</defs>
</svg>
