<?xml version="1.0" encoding="utf-8"?>
<!-- Generator: Adobe Illustrator 27.8.1, SVG Export Plug-In . SVG Version: 6.00 Build 0)  -->
<svg version="1.1" id="Layer_1" xmlns="http://www.w3.org/2000/svg" xmlns:xlink="http://www.w3.org/1999/xlink" x="0px" y="0px"
	 viewBox="0 0 1280 1024" style="enable-background:new 0 0 1280 1024;" xml:space="preserve">
<style type="text/css">
	.st0{fill:url(#SVGID_1_);}
	.st1{fill:none;}
	.st2{fill:url(#SVGID_00000092440301123772019460000014263235785872829356_);}
	.st3{fill:#7C2283;}
	.st4{fill:#FFFFFF;}
	.st5{fill:#F4C12A;}
	.st6{fill:#F9F9F9;}
	.st7{fill:#10CBB4;}
	.st8{opacity:0.5;}
	.st9{fill:#742384;}
	.st10{opacity:0.85;}
	.st11{fill:#492759;}
	.st12{fill:#F5F5F4;}
	.st13{fill:#00B5B4;}
</style>
<g>
	
		<image style="overflow:visible;enable-background:new    ;" width="535" height="165" xlink:href="C3D5A21C.png"  transform="matrix(1 0 0 1 301 620)">
	</image>
</g>
<linearGradient id="SVGID_1_" gradientUnits="userSpaceOnUse" x1="338.6703" y1="808.5981" x2="394.1501" y2="166.4268" gradientTransform="matrix(1 0 0 -1 0 1024)">
	<stop  offset="0.384" style="stop-color:#FFFFFF"/>
	<stop  offset="1" style="stop-color:#6D6D6D"/>
</linearGradient>
<polygon class="st0" points="337,690 371,182 422,686 "/>
<line class="st1" x1="337" y1="690" x2="419" y2="686"/>
<linearGradient id="SVGID_00000106862228552140140720000013711317627599384209_" gradientUnits="userSpaceOnUse" x1="379.5" y1="275" x2="379.5" y2="338" gradientTransform="matrix(1 0 0 -1 0 1024)">
	<stop  offset="0.384" style="stop-color:#FFFFFF"/>
	<stop  offset="1" style="stop-color:#808080"/>
</linearGradient>
<path style="fill:url(#SVGID_00000106862228552140140720000013711317627599384209_);" d="M417,749c0,0-51-52-80-59l85-4L417,749z"/>
<polygon class="st3" points="371,182 723.4,194.6 799.7,724.3 417,749 "/>
<g>
	<g>
		<g>
			<path class="st4" d="M719.2,657.4l-244.5,16.2c-2.9,0.2-5.4-2.2-5.5-5.2l-6.8-257.4c-0.1-3,2.2-5.4,5.1-5.3l239.4,8.5
				c2.9,0.1,5.3,2.4,5.5,5.2L724.3,652C724.5,654.8,722.2,657.2,719.2,657.4z"/>
			<path class="st5" d="M482.9,443.5c-0.9,0-1.7-0.8-1.7-1.8l-0.4-14.7c0-1,0.7-1.8,1.6-1.7l13.9,0.4c0.9,0,1.7,0.9,1.7,1.8
				c0,1-0.7,1.8-1.6,1.7l-12.2-0.4l0.4,12.9C484.6,442.7,483.8,443.5,482.9,443.5z"/>
			<path class="st5" d="M691.2,447.8c-0.8,0-1.4-0.8-1.4-1.7l-0.6-11.9l-9.8-0.2c-0.8,0-1.4-0.8-1.4-1.7c0-0.9,0.5-1.6,1.3-1.6
				l11.2,0.3c0.8,0,1.4,0.8,1.4,1.7l0.7,13.5C692.6,447.1,692,447.8,691.2,447.8z"/>
			<path class="st5" d="M502.9,652.7l-14.1,0.8c-1,0-1.7-0.7-1.8-1.7l-0.4-14.8c0-1,0.7-1.8,1.7-1.9s1.7,0.7,1.8,1.7l0.4,13
				l12.4-0.7c1,0,1.7,0.7,1.8,1.7S503.9,652.7,502.9,652.7z"/>
			<path class="st5" d="M703.7,640.8l-14.1,0.9c-1,0.1-1.8-0.6-1.8-1.6c0-0.9,0.7-1.7,1.6-1.8l12.4-0.8l-0.6-12
				c0-0.9,0.7-1.7,1.6-1.8s1.8,0.7,1.8,1.6l0.7,13.6C705.4,640,704.7,640.8,703.7,640.8z"/>
			<g>
				<path class="st6" d="M524.9,382.6l-1.5-0.1l-0.3,7l-7.4-0.3l1.1-22.3l8.5,0.5c2.9,0.1,4.9,0.9,6.2,2.1c1.2,1.3,1.8,3.2,1.7,6
					c-0.1,2.7-0.9,4.6-2.2,5.7C529.6,382.2,527.6,382.7,524.9,382.6z M525.5,377.4c0.2-0.4,0.3-1,0.4-1.9c0-0.9,0-1.5-0.2-2
					c-0.2-0.4-0.6-0.6-1.2-0.6l-0.7,0l-0.2,5l0.9,0C524.9,377.9,525.3,377.8,525.5,377.4z"/>
				<path class="st6" d="M552.4,390.8l-7.4-0.3l-0.5-3.4l-3.9-0.2l-0.9,3.4l-7-0.3l5.6-21.9l10.7,0.6L552.4,390.8z M544.2,382.4
					l-1-7.5l-0.1,0l-1.7,7.3L544.2,382.4z"/>
				<path class="st6" d="M563.7,385.9c0.4,0,1,0,1.7-0.1l0.1-2.1l-1.8-0.1l0.2-4.9l8.3,0.4l-0.6,12.5l-5.3-0.2l-0.5-1.1l-0.1,0
					c-1.3,0.9-2.7,1.4-4.4,1.3c-5.5-0.2-8-4.1-7.7-11.5c0.2-3.7,1.1-6.5,2.6-8.4c1.6-1.9,4.1-2.7,7.7-2.5c2.6,0.1,5.1,0.6,7.4,1.5
					l-1.5,6.5c-2.6-0.9-4.4-1.3-5.6-1.4s-1.9,0.3-2.3,1c-0.4,0.7-0.6,2-0.7,3.8c-0.1,1.8,0,3.1,0.3,4
					C561.9,385.3,562.6,385.8,563.7,385.9z"/>
				<path class="st6" d="M592.9,392.5l-7.4-0.3l-0.5-3.4l-3.9-0.2l-0.9,3.3l-7-0.3l5.5-21.5l10.7,0.6L592.9,392.5z M584.7,384.3
					l-1-7.3l-0.1,0l-1.7,7.2L584.7,384.3z"/>
				<path class="st5" d="M619.3,393.6l-7.4-0.3l-0.5-3.4l-3.9-0.2l-0.9,3.3l-7-0.3l5.5-21.3l10.7,0.5L619.3,393.6z M611.1,385.5
					l-1-7.2l-0.1,0l-1.7,7.1L611.1,385.5z"/>
				<path class="st5" d="M623.2,374.6c1.6-1.6,4.2-2.4,7.8-2.2c3.5,0.2,6,1.1,7.5,2.9s2.1,4.5,2,8.2c-0.1,2.5-0.5,4.5-1.2,5.9
					s-1.9,2.5-3.5,3.4l0,0.1l5,0.2L640,398l-1.5-0.1c-2.3-0.1-4.1-0.6-5.6-1.6l-3-2c-3.6-0.1-6.1-1.2-7.5-3.1
					c-1.4-1.9-2.1-4.8-1.9-8.5C620.6,379,621.5,376.3,623.2,374.6z M632.6,379.3c-0.3-0.6-0.9-0.9-1.9-1s-1.7,0.2-2,0.8
					c-0.3,0.6-0.5,1.8-0.6,3.6l-0.1,1.5c-0.1,1.9,0,3.2,0.3,3.8c0.3,0.6,0.9,0.9,2,1c1,0,1.7-0.2,2-0.7c0.3-0.5,0.5-1.8,0.5-3.6
					l0.1-1.6C632.9,381.1,632.8,379.9,632.6,379.3z"/>
				<path class="st5" d="M650.3,387.4c0,1.2,0.5,1.9,1.6,1.9c1.1,0,1.7-0.5,1.8-1.8l0.6-13.6l7.5,0.4l-0.6,14
					c-0.1,2.5-1,4.3-2.7,5.5c-1.7,1.1-4,1.7-7,1.5c-6.1-0.2-9.1-2.8-8.9-7.8l0.6-14.1l7.6,0.4L650.3,387.4z"/>
				<path class="st5" d="M671.4,395.8l-7.4-0.3l0.9-21l7.4,0.4L671.4,395.8z M674.8,369.5l-4.8,3.9l-4.6-0.2l2.3-4.1L674.8,369.5z"
					/>
			</g>
			<g>
				<path class="st6" d="M476.8,696.8l-4.3,0.3l0.1,3l5.1-0.4l0,1.9l-7.3,0.5l-0.3-11.3l7.3-0.5l0,1.9l-5.1,0.3l0.1,2.7l4.3-0.3
					L476.8,696.8z"/>
				<path class="st6" d="M483.2,699c0-0.3-0.1-0.5-0.4-0.6s-0.7-0.2-1.3-0.3c-1.9-0.3-2.9-1.1-3-2.3c0-0.8,0.3-1.4,0.9-1.9
					c0.6-0.5,1.4-0.8,2.3-0.9c1-0.1,1.9,0.1,2.5,0.6s1,1.1,1,1.9l-2.2,0.2c0-0.3-0.1-0.6-0.3-0.8c-0.2-0.2-0.5-0.3-1-0.2
					c-0.4,0-0.6,0.1-0.8,0.3c-0.2,0.2-0.3,0.4-0.3,0.7c0,0.2,0.1,0.4,0.4,0.6c0.2,0.1,0.6,0.2,1.2,0.3s1,0.2,1.4,0.3
					c1.2,0.3,1.8,1.1,1.8,2.1c0,0.8-0.3,1.4-0.9,1.9s-1.4,0.8-2.4,0.9c-0.7,0-1.3,0-1.8-0.2c-0.5-0.2-1-0.5-1.3-0.9
					c-0.3-0.4-0.5-0.9-0.5-1.4l2.1-0.2c0,0.4,0.2,0.7,0.5,0.9s0.6,0.3,1.1,0.2c0.4,0,0.7-0.1,0.9-0.3
					C483.1,699.5,483.2,699.2,483.2,699z"/>
				<path class="st6" d="M490.1,699.1c0.4,0,0.7-0.2,1-0.4c0.2-0.2,0.4-0.6,0.4-0.9l2-0.2c0,0.6-0.1,1.1-0.4,1.6
					c-0.3,0.5-0.7,0.9-1.2,1.2c-0.5,0.3-1.1,0.5-1.7,0.5c-1.2,0.1-2.1-0.2-2.8-0.9s-1-1.7-1.1-3.1v-0.2c0-1.3,0.3-2.3,0.9-3.2
					c0.6-0.8,1.5-1.3,2.7-1.3c1-0.1,1.8,0.2,2.5,0.7s1,1.3,1,2.3l-2,0.1c0-0.4-0.2-0.8-0.4-1s-0.6-0.4-1-0.3c-0.5,0-0.9,0.2-1.1,0.7
					s-0.4,1-0.3,1.9l0,0.2c0,0.9,0.2,1.5,0.4,1.8C489.2,699,489.6,699.2,490.1,699.1z"/>
				<path class="st6" d="M499.5,700.1c-0.1-0.2-0.2-0.4-0.2-0.7c-0.5,0.6-1.2,1-2,1c-0.8,0.1-1.5-0.1-2-0.6s-0.8-1-0.8-1.7
					c0-0.9,0.3-1.6,0.9-2.1c0.6-0.5,1.5-0.8,2.8-0.9l1-0.1l0-0.5c0-0.4-0.1-0.7-0.3-0.9s-0.5-0.3-0.9-0.3c-0.4,0-0.6,0.1-0.9,0.3
					s-0.3,0.5-0.3,0.8l-2.2,0.2c0-0.5,0.1-0.9,0.4-1.4c0.3-0.4,0.7-0.8,1.2-1.1c0.5-0.3,1.1-0.4,1.8-0.5c1-0.1,1.8,0.1,2.4,0.6
					c0.6,0.5,0.9,1.2,0.9,2.1l0.1,3.6c0,0.8,0.1,1.4,0.4,1.8v0.1L499.5,700.1z M497.6,698.7c0.3,0,0.6-0.1,0.9-0.3
					c0.3-0.2,0.5-0.4,0.6-0.6l0-1.4l-0.8,0.1c-1.1,0.1-1.6,0.5-1.7,1.3v0.1c0,0.3,0.1,0.5,0.3,0.7
					C497.1,698.6,497.3,698.7,497.6,698.7z"/>
				<path class="st6" d="M504.8,691.4l0.1,1c0.6-0.8,1.3-1.2,2.3-1.3c0.9-0.1,1.5,0.2,1.9,0.6c0.4,0.5,0.7,1.2,0.7,2.3l0.1,5.4
					l-2.2,0.2l-0.1-5.3c0-0.5-0.1-0.8-0.3-1s-0.5-0.3-1-0.2c-0.6,0-1.1,0.3-1.4,0.9l0.2,5.9l-2.2,0.2l-0.2-8.3L504.8,691.4z"/>
				<path class="st6" d="M515.4,699.1c-1.2,0.1-2.2-0.2-2.9-0.9c-0.8-0.7-1.2-1.7-1.2-2.9l0-0.2c0-0.8,0.1-1.6,0.4-2.3
					c0.3-0.7,0.7-1.2,1.3-1.6s1.2-0.6,2-0.7c1.1-0.1,2,0.2,2.7,0.9c0.7,0.7,1,1.7,1,3l0,0.9l-5.2,0.4c0.1,0.5,0.3,1,0.7,1.3
					s0.8,0.4,1.3,0.4c0.8-0.1,1.5-0.4,1.9-1.1l1.1,1.1c-0.3,0.5-0.7,0.9-1.3,1.2C516.7,698.9,516,699,515.4,699.1z M514.9,692.3
					c-0.4,0-0.8,0.2-1,0.5s-0.4,0.8-0.5,1.3l3-0.2l0-0.2c0-0.5-0.2-0.9-0.4-1.1C515.8,692.4,515.4,692.2,514.9,692.3z"/>
				<path class="st6" d="M524.7,698.2c-0.1-0.2-0.2-0.4-0.2-0.7c-0.5,0.6-1.2,1-2,1c-0.8,0.1-1.5-0.1-2-0.6s-0.8-1-0.8-1.7
					c0-0.9,0.3-1.6,0.9-2.1c0.6-0.5,1.5-0.8,2.7-0.9l1-0.1l0-0.5c0-0.4-0.1-0.7-0.3-0.9c-0.2-0.2-0.5-0.3-0.9-0.3
					c-0.4,0-0.7,0.1-0.8,0.3c-0.2,0.2-0.3,0.5-0.3,0.8l-2.2,0.2c0-0.5,0.1-0.9,0.4-1.4s0.7-0.8,1.2-1c0.5-0.3,1.1-0.4,1.8-0.5
					c1-0.1,1.8,0.1,2.4,0.6c0.6,0.5,0.9,1.2,1,2.1l0.1,3.6c0,0.8,0.2,1.4,0.4,1.8v0.1L524.7,698.2z M522.8,696.8
					c0.3,0,0.6-0.1,0.9-0.3c0.3-0.2,0.5-0.4,0.6-0.6l0-1.4l-0.8,0.1c-1.1,0.1-1.7,0.5-1.7,1.3v0.1c0,0.3,0.1,0.5,0.3,0.7
					C522.2,696.8,522.5,696.9,522.8,696.8z"/>
				<path class="st6" d="M535.8,697.6c-1.2,0.1-2.2-0.2-2.9-0.9s-1.2-1.7-1.2-2.9l0-0.2c0-0.8,0.1-1.6,0.4-2.3
					c0.3-0.7,0.7-1.2,1.3-1.6c0.6-0.4,1.2-0.6,2-0.7c1.1-0.1,2,0.2,2.7,0.9c0.7,0.7,1,1.7,1,3l0,0.9l-5.2,0.4c0.1,0.5,0.3,1,0.7,1.2
					s0.8,0.4,1.4,0.4c0.8-0.1,1.5-0.4,1.9-1.1l1.1,1.1c-0.3,0.5-0.7,0.9-1.3,1.2C537,697.3,536.4,697.5,535.8,697.6z M535.3,690.8
					c-0.4,0-0.8,0.2-1,0.5c-0.3,0.3-0.4,0.8-0.5,1.3l3-0.2l0-0.2c0-0.5-0.2-0.9-0.4-1.1C536.1,690.9,535.8,690.8,535.3,690.8z"/>
				<path class="st6" d="M542.6,696.9l-2.2,0.2l-0.4-11.7l2.2-0.2L542.6,696.9z"/>
				<path class="st6" d="M557.2,690.6c0,1-0.1,1.9-0.4,2.7s-0.7,1.4-1.3,1.9l1.9,1.3l-1.4,1.4l-2.4-1.7c-0.3,0.1-0.5,0.1-0.8,0.1
					c-0.9,0.1-1.7-0.1-2.5-0.5c-0.7-0.4-1.3-1-1.7-1.8c-0.4-0.8-0.6-1.7-0.7-2.8l0-0.5c0-1.1,0.1-2,0.5-2.9c0.4-0.8,0.9-1.5,1.6-2
					s1.5-0.8,2.4-0.8s1.7,0.1,2.5,0.5c0.7,0.4,1.3,1,1.7,1.8c0.4,0.8,0.6,1.7,0.7,2.8L557.2,690.6z M554.9,690.2
					c0-1.2-0.3-2-0.7-2.6s-1-0.8-1.8-0.8c-0.8,0-1.3,0.4-1.7,1c-0.4,0.6-0.6,1.5-0.5,2.7l0,0.5c0,1.1,0.3,2,0.7,2.6s1,0.9,1.8,0.8
					c0.8-0.1,1.3-0.4,1.7-1c0.4-0.6,0.6-1.5,0.5-2.7L554.9,690.2z"/>
				<path class="st6" d="M562.9,691.4l-1.8,0.1l0.1,4l-2.2,0.2l-0.4-11l4.1-0.3c1.3-0.1,2.3,0.1,3,0.7c0.7,0.5,1.1,1.3,1.1,2.4
					c0,0.8-0.1,1.4-0.4,1.9s-0.8,1-1.4,1.3l2.5,4.3v0.1l-2.4,0.2L562.9,691.4z M561.1,689.7l1.8-0.1c0.6,0,1-0.2,1.3-0.5
					c0.3-0.3,0.4-0.7,0.4-1.2c0-0.5-0.2-0.9-0.5-1.2c-0.3-0.3-0.8-0.4-1.4-0.3l-1.8,0.1L561.1,689.7z"/>
				<path class="st6" d="M575.9,693.4c0.5,0,0.9-0.2,1.3-0.5c0.4-0.3,0.5-0.7,0.6-1.2l1.3-0.1c0,0.5-0.2,0.9-0.4,1.4
					c-0.3,0.4-0.7,0.8-1.2,1.1c-0.5,0.3-1,0.5-1.5,0.5c-1.1,0.1-2-0.2-2.7-0.9s-1-1.7-1.1-3l0-0.2c0-0.8,0.1-1.5,0.4-2.1
					c0.3-0.6,0.7-1.1,1.2-1.5s1.2-0.6,1.9-0.7c0.9-0.1,1.7,0.2,2.3,0.7s1,1.2,1,2l-1.3,0.1c-0.1-0.5-0.3-0.9-0.6-1.2
					s-0.8-0.5-1.3-0.4c-0.7,0-1.2,0.3-1.6,0.9s-0.5,1.3-0.5,2.2l0,0.3c0,0.9,0.2,1.6,0.7,2.1S575.2,693.5,575.9,693.4z"/>
				<path class="st6" d="M580.2,689.9c0-0.8,0.1-1.5,0.4-2.2c0.3-0.7,0.7-1.2,1.2-1.6c0.5-0.4,1.2-0.6,1.9-0.7c1.1-0.1,2,0.2,2.7,1
					c0.7,0.7,1.1,1.7,1.1,3v0.1c0,0.8-0.1,1.5-0.4,2.2s-0.7,1.2-1.2,1.6s-1.2,0.6-1.9,0.7c-1.1,0.1-2-0.2-2.7-0.9
					c-0.7-0.7-1.1-1.7-1.1-3L580.2,689.9z M581.7,690c0,0.9,0.3,1.6,0.7,2.1c0.4,0.5,1,0.7,1.7,0.7c0.7,0,1.3-0.4,1.7-1
					c0.4-0.6,0.6-1.4,0.5-2.4c0-0.9-0.3-1.6-0.7-2.1c-0.4-0.5-1-0.8-1.7-0.7c-0.7,0-1.2,0.4-1.6,0.9
					C581.8,688.2,581.6,689,581.7,690z"/>
				<path class="st6" d="M590.6,685.2l0.1,1c0.6-0.8,1.4-1.3,2.4-1.3c1.7-0.1,2.6,0.8,2.7,2.7l0.2,5.3l-1.4,0.1l-0.2-5.3
					c0-0.6-0.2-1-0.5-1.3s-0.7-0.4-1.2-0.3c-0.5,0-0.8,0.2-1.2,0.4c-0.3,0.3-0.6,0.6-0.8,1l0.2,5.7l-1.4,0.1l-0.3-8.1L590.6,685.2z"
					/>
				<path class="st6" d="M603.3,692.3l-1.4,0.1l-0.4-11.4l1.4-0.1L603.3,692.3z"/>
				<path class="st6" d="M610.6,691.8c-0.1-0.2-0.2-0.4-0.2-0.8c-0.6,0.7-1.4,1.1-2.3,1.2c-0.8,0.1-1.5-0.1-2-0.5
					c-0.5-0.4-0.8-1-0.8-1.6c0-0.8,0.3-1.5,0.9-2c0.6-0.5,1.5-0.8,2.7-0.9l1.3-0.1l0-0.6c0-0.5-0.2-0.8-0.5-1.1s-0.7-0.4-1.3-0.3
					c-0.5,0-0.9,0.2-1.2,0.5c-0.3,0.3-0.5,0.6-0.5,0.9l-1.4,0.1c0-0.4,0.1-0.8,0.4-1.2c0.3-0.4,0.7-0.7,1.1-1c0.5-0.2,1-0.4,1.6-0.5
					c0.9-0.1,1.7,0.1,2.2,0.5c0.5,0.4,0.8,1,0.9,1.8l0.1,3.7c0,0.7,0.2,1.3,0.3,1.7v0.1L610.6,691.8z M608.2,690.9
					c0.4,0,0.8-0.2,1.2-0.4c0.4-0.2,0.7-0.6,0.8-0.9l-0.1-1.6l-1.1,0.1c-1.7,0.1-2.5,0.7-2.5,1.7c0,0.4,0.2,0.8,0.5,1
					C607.4,690.8,607.8,690.9,608.2,690.9z"/>
				<path class="st6" d="M622.8,690.8c-0.1-0.2-0.2-0.4-0.2-0.8c-0.6,0.7-1.4,1.1-2.3,1.2c-0.8,0.1-1.5-0.1-2-0.5s-0.8-1-0.8-1.6
					c0-0.8,0.3-1.5,0.9-2s1.5-0.8,2.7-0.9l1.3-0.1l0-0.6c0-0.5-0.2-0.8-0.5-1.1c-0.3-0.3-0.7-0.4-1.3-0.3c-0.5,0-0.9,0.2-1.2,0.5
					c-0.3,0.3-0.5,0.6-0.5,0.9l-1.4,0.1c0-0.4,0.1-0.8,0.4-1.2c0.3-0.4,0.7-0.7,1.1-1c0.5-0.2,1-0.4,1.6-0.4
					c0.9-0.1,1.7,0.1,2.2,0.5c0.5,0.4,0.8,1,0.9,1.8l0.1,3.7c0,0.7,0.2,1.3,0.3,1.7v0.1L622.8,690.8z M620.4,690
					c0.4,0,0.8-0.2,1.2-0.4c0.4-0.2,0.7-0.6,0.8-0.9l-0.1-1.6l-1.1,0.1c-1.7,0.1-2.5,0.7-2.5,1.7c0,0.4,0.2,0.8,0.5,1
					C619.6,689.9,620,690,620.4,690z"/>
				<path class="st6" d="M632.8,686.2c0,1.2-0.2,2.2-0.7,3c-0.5,0.8-1.3,1.2-2.2,1.3c-1,0.1-1.8-0.2-2.4-0.7l0.2,3.8l-1.4,0.1
					l-0.4-11l1.3-0.1l0.1,0.9c0.5-0.7,1.3-1.1,2.3-1.2c1-0.1,1.8,0.2,2.4,0.9c0.6,0.7,0.9,1.7,1,2.9L632.8,686.2z M631.4,686.1
					c0-0.9-0.3-1.6-0.7-2.1c-0.4-0.5-1-0.7-1.6-0.7c-0.8,0.1-1.5,0.5-1.8,1.2l0.2,3.8c0.4,0.7,1.1,1,2,0.9c0.7,0,1.2-0.3,1.6-0.9
					C631.3,687.9,631.5,687.1,631.4,686.1z"/>
				<path class="st6" d="M641.5,685.5c0,1.2-0.2,2.2-0.7,3c-0.5,0.8-1.3,1.2-2.2,1.3c-1,0.1-1.8-0.2-2.4-0.7l0.2,3.8l-1.4,0.1
					l-0.4-11l1.3-0.1l0.1,0.9c0.5-0.7,1.3-1.1,2.3-1.2c1-0.1,1.8,0.2,2.4,0.9c0.6,0.7,0.9,1.7,1,2.9V685.5z M640.1,685.4
					c0-0.9-0.3-1.6-0.7-2.1s-1-0.7-1.6-0.7c-0.8,0.1-1.5,0.5-1.8,1.2l0.2,3.8c0.4,0.7,1.1,1,2,0.9c0.7,0,1.2-0.3,1.6-0.9
					C639.9,687.2,640.1,686.5,640.1,685.4z"/>
				<path class="st6" d="M646.7,684.9c0-1.2,0.2-2.2,0.8-3c0.6-0.8,1.3-1.2,2.3-1.3s1.7,0.2,2.3,0.8l-0.2-4.1l1.4-0.1l0.5,11.2
					l-1.3,0.1l-0.1-0.8c-0.5,0.7-1.3,1.1-2.3,1.2c-0.9,0.1-1.7-0.2-2.3-0.9s-1-1.7-1-2.9V684.9z M648.1,685c0,0.9,0.3,1.6,0.7,2
					c0.4,0.5,0.9,0.7,1.6,0.6c0.9-0.1,1.5-0.5,1.9-1.3l-0.2-3.6c-0.5-0.7-1.1-1-2-1c-0.7,0-1.2,0.3-1.6,0.9
					C648.2,683.2,648,684,648.1,685z"/>
				<path class="st6" d="M659.3,688.1c-1.1,0.1-2-0.2-2.7-0.8c-0.7-0.7-1.1-1.5-1.2-2.7l0-0.2c0-0.8,0.1-1.5,0.4-2.1
					c0.3-0.6,0.7-1.2,1.2-1.5c0.5-0.4,1.1-0.6,1.8-0.7c1.1-0.1,1.9,0.2,2.5,0.8c0.6,0.6,1,1.6,1,2.8l0,0.6l-5.5,0.4
					c0,0.8,0.3,1.4,0.8,1.8c0.5,0.4,1,0.6,1.7,0.6c0.5,0,0.9-0.2,1.2-0.4c0.3-0.2,0.6-0.5,0.9-0.8l0.9,0.6
					C661.6,687.4,660.6,688,659.3,688.1z M658.8,681.1c-0.6,0-1,0.3-1.4,0.7c-0.4,0.4-0.6,1-0.6,1.7l4.1-0.3v-0.1
					c-0.1-0.7-0.3-1.2-0.6-1.5C659.8,681.2,659.4,681.1,658.8,681.1z"/>
				<path class="st6" d="M669.3,677.5l0.1,1.9l1.5-0.1l0,1l-1.5,0.1l0.2,4.8c0,0.3,0.1,0.5,0.2,0.7c0.1,0.2,0.4,0.2,0.7,0.2
					c0.2,0,0.4-0.1,0.7-0.1l0,1.1c-0.4,0.1-0.7,0.2-1.1,0.2c-0.6,0-1.1-0.1-1.4-0.4c-0.3-0.3-0.5-0.8-0.5-1.5l-0.2-4.8l-1.5,0.1l0-1
					l1.5-0.1l-0.1-1.9L669.3,677.5z"/>
				<path class="st6" d="M677.9,685.7c-0.5,0.7-1.3,1-2.3,1.1c-0.9,0.1-1.5-0.1-2-0.6c-0.5-0.5-0.7-1.1-0.8-2.1l-0.2-5.1l1.4-0.1
					l0.2,5c0,1.2,0.6,1.7,1.6,1.7c1.1-0.1,1.8-0.5,2.1-1.3l-0.2-5.7l1.4-0.1l0.3,7.8l-1.3,0.1L677.9,685.7z"/>
				<path class="st6" d="M691.9,681.6c0,1.2-0.2,2.2-0.7,2.9s-1.3,1.2-2.2,1.3c-1,0.1-1.8-0.2-2.4-0.8l0,0.9l-1.3,0.1l-0.5-11
					l1.4-0.1l0.2,4.1c0.5-0.7,1.3-1.1,2.3-1.2c1-0.1,1.8,0.2,2.4,0.9c0.6,0.7,0.9,1.6,1,2.8L691.9,681.6z M690.5,681.6
					c0-0.9-0.3-1.6-0.7-2c-0.4-0.5-0.9-0.7-1.6-0.6c-0.9,0.1-1.6,0.5-1.9,1.4l0.2,3.4c0.5,0.8,1.2,1.1,2,1.1c0.7,0,1.2-0.3,1.5-0.9
					C690.4,683.3,690.5,682.5,690.5,681.6z"/>
				<path class="st6" d="M698.8,684.8c-0.1-0.2-0.2-0.4-0.2-0.8c-0.6,0.7-1.4,1.1-2.3,1.1c-0.8,0.1-1.5-0.1-2-0.5s-0.8-0.9-0.8-1.6
					c0-0.8,0.3-1.5,0.9-2c0.6-0.5,1.5-0.8,2.7-0.9l1.3-0.1l0-0.6c0-0.5-0.2-0.8-0.5-1.1c-0.3-0.2-0.7-0.4-1.3-0.3
					c-0.5,0-0.9,0.2-1.2,0.5s-0.5,0.6-0.5,0.9l-1.4,0.1c0-0.4,0.1-0.8,0.4-1.2s0.7-0.7,1.1-0.9c0.5-0.2,1-0.4,1.6-0.4
					c0.9-0.1,1.7,0.1,2.2,0.5c0.5,0.4,0.9,1,0.9,1.8l0.2,3.5c0,0.7,0.2,1.3,0.4,1.7l0,0.1L698.8,684.8z M696.5,684
					c0.4,0,0.8-0.2,1.2-0.4c0.4-0.2,0.7-0.5,0.8-0.9l-0.1-1.6l-1.1,0.1c-1.7,0.1-2.5,0.7-2.5,1.6c0,0.4,0.2,0.7,0.5,0.9
					S696,684.1,696.5,684z"/>
				<path class="st6" d="M703.1,676.8l0.1,1c0.6-0.8,1.4-1.2,2.4-1.3c1.7-0.1,2.6,0.7,2.7,2.5l0.2,5.1l-1.4,0.1l-0.2-5.1
					c0-0.5-0.2-1-0.5-1.2c-0.3-0.2-0.7-0.3-1.2-0.3c-0.5,0-0.8,0.2-1.2,0.4s-0.6,0.6-0.8,1l0.3,5.5l-1.4,0.1l-0.4-7.7L703.1,676.8z"
					/>
				<path class="st6" d="M713.9,682.7c0.5,0,0.9-0.2,1.3-0.5c0.4-0.3,0.5-0.7,0.6-1.1l1.3-0.1c0,0.4-0.1,0.9-0.4,1.3
					c-0.3,0.4-0.7,0.8-1.1,1c-0.5,0.3-1,0.4-1.5,0.5c-1.1,0.1-2-0.2-2.7-0.8c-0.7-0.7-1.1-1.6-1.1-2.8l0-0.2c0-0.8,0.1-1.4,0.3-2
					c0.3-0.6,0.7-1.1,1.2-1.5s1.2-0.6,1.9-0.6c0.9-0.1,1.7,0.1,2.3,0.6s1,1.1,1.1,1.9l-1.3,0.1c-0.1-0.5-0.3-0.9-0.7-1.2
					c-0.4-0.3-0.8-0.4-1.3-0.4c-0.7,0-1.2,0.3-1.6,0.8c-0.4,0.5-0.5,1.2-0.5,2.1l0,0.2c0,0.9,0.3,1.5,0.7,2
					C712.6,682.6,713.2,682.8,713.9,682.7z"/>
				<path class="st6" d="M718.2,679.4c0-0.8,0.1-1.4,0.4-2.1c0.3-0.6,0.7-1.1,1.2-1.5s1.2-0.6,1.9-0.6c1.1-0.1,2,0.2,2.7,0.9
					c0.7,0.7,1.1,1.6,1.2,2.8v0.1c0,0.7-0.1,1.4-0.4,2c-0.3,0.6-0.7,1.1-1.2,1.5c-0.5,0.4-1.2,0.6-1.9,0.7c-1.1,0.1-2-0.2-2.7-0.9
					S718.2,680.7,718.2,679.4L718.2,679.4z M719.6,679.4c0,0.8,0.3,1.5,0.7,2c0.4,0.5,1,0.7,1.7,0.6c0.7-0.1,1.3-0.4,1.7-0.9
					c0.4-0.5,0.6-1.3,0.5-2.2c0-0.8-0.3-1.5-0.7-2s-1-0.7-1.7-0.7c-0.7,0-1.2,0.3-1.6,0.9C719.7,677.7,719.5,678.5,719.6,679.4z"/>
			</g>
			<g>
				<g>
					<g>
						<path class="st4" d="M623.5,313.2c-9.3-0.5-19.9-0.3-29.6,0.2c0.9-3.9,1.9-7.7,1.9-7.7s1.2,2.5,4.4,2.5c4.5,0,9.8-4,12-11.7
							c2.4-8.3,1.8-17.9-4-19.2c-4.7-1.1-6.7,2.8-7,3.6c0,0,0.8-3.6-2.1-3.2c-2.8,0.4-3.2,1.6-3.8,3.8c-0.1,0.4-2.1,9.1-4.2,18.2
							c0,0.1-0.1,0.1-0.1,0.2c-0.5,2.1-1.7,2.7-2.6,2.7c-2.8,0,2.5-18.5,2.9-19.9c0.5-1.8,0.8-3.2-1.3-4.2c-1.4-0.7-3.3-0.6-3.8,0.8
							c-0.2,0.6-0.4,1.1-0.4,1.1s-1.7-2.5-5.2-2.5s-7.8,4-10.4,11.4c-2.7,7.4-3.5,18.3,3.5,20c3.6,0.8,6.5-1,7.9-4.3
							c0,0-0.2,2.2,2.2,3.5c0.9,0.5,3.2,0.5,5.3-0.5c-0.5,2.1-0.9,4.1-1.3,5.9c-15,1-26.9,2.5-26.9,2.5c0,0,7.2-27.9,8.8-34
							c1.3-5.1-1.5-4.2-3.7-3.8c-2.3,0.5-3.3,2.4-4.3,5.9c-4.5,15.4-8.3,20-11.2,18.7c-2.7-1.2,5-17.4,3-19.8
							c-1.8-2.1-5.4-2.3-6-1.2c-0.6,1.1,0.4,2.2,0,3.8c-0.4,1.6-3.4,10-3.7,12c-0.3,1.9-2.8,12.6,4.9,12.7c4.5,0.1,7.5-3.2,7.8-4.2
							c-1.3,4.1-3,10.7-3,10.7s-9.2,1.7-16.3,9.2c-5.7,6-9.4,19.4-0.5,22.1c13.8,4.2,19.5-16.8,22.5-24.6c11-1.7,19.4-2.8,27.2-3.5
							c-0.1,0.5-0.2,0.8-0.2,0.9c-0.6,3.2-0.4,4.6,2.2,4.4c2.7-0.1,3-1.5,3.8-4.9c0-0.2,0.1-0.5,0.2-0.9c9.2-0.6,18.3-0.7,30.8-0.8
							c3.9,0,3.8-0.7,4.1-3C627.5,313.5,624.5,313.3,623.5,313.2z M598.9,293.3c1.6-6,3.2-8.3,4.8-8.8c3.8-1.3,4.7,3.6,2,10.7
							c-3.1,8.2-7.1,7.7-8.7,5.9C597.1,301.1,597.2,299.7,598.9,293.3z M581.9,295.6c-1.5,3.9-2.9,6.6-5,6.5
							c-3-0.2-3.2-4.9-1.2-10.5c1.6-4.8,4.8-7.6,6.6-7.8C584,283.6,586.2,284.5,581.9,295.6z M543.3,340c-7,6.2-5.5-2.8-3-6.6
							c4.9-7.1,11.1-8.6,11.1-8.6C548.6,334.3,544.8,338.8,543.3,340z"/>
						<path class="st4" d="M632.2,290.7c2.6-2.9,3.5-9.5-1.2-12.4c-5.7-3.5-12.7,0.4-15.3,10c-2.3,8.6-2.8,19.3,6.2,19.6
							c4.5,0.1,8.2-2.7,9.4-5c0.6-1.1,0.8-2.9,0.7-3.7c-0.4-2.3-1.8-2.7-4,0c-0.5,0.6-5,4.3-7.4,1.7c-1.7-1.9-0.5-5.2-0.4-5.2
							C623.1,295.8,628.2,295.1,632.2,290.7z M625.2,282.5c2.4-2.1,4.9,0.9,2.2,4.6c-2.7,3.8-6.2,3.4-6.2,3.5
							C621.5,289.1,622.6,284.8,625.2,282.5z"/>
					</g>
					<g>
						<path class="st7" d="M581.6,251.1c-0.6-0.4-1.4-0.7-2.5-0.8l-3.2-0.3l0.2,4.5l3.3,0.3c2.1,0.2,3.1-0.4,3-2
							C582.4,252.1,582.1,251.6,581.6,251.1z"/>
						<path class="st7" d="M582.4,230.2c-9.7-0.6-17.3,6.5-17.5,16.4c-0.1,6.7,3,13,7.9,17.3c0.5,0.4,0.8,1.1,0.8,1.7l0.2,4.3
							c0,0.3,0.2,0.7,0.5,0.8l0.1,0.1c0.3,0.2,0.6,0.2,0.9,0l3.5-2.3c0.5-0.3,1.1-0.4,1.6-0.2c1.4,0.5,2.9,0.8,4.5,1
							c10.6,1,18.9-6.9,18.5-17.6C602.9,240.8,593.4,230.9,582.4,230.2z M585,255.8c-0.4,0.6-1,1.1-1.7,1.4c-0.5,0.1-1,0.2-1.6,0.3
							c-0.6,0-1.3,0-2.1-0.1l-4.7-0.5c-0.7-0.1-1.2-0.3-1.5-0.6c-0.3-0.3-0.5-0.8-0.5-1.5l-0.5-11.7c0-0.7,0.1-1.2,0.4-1.4
							s0.8-0.4,1.4-0.3l5,0.5c0.7,0.1,1.4,0.2,1.9,0.3c0.5,0.1,1,0.4,1.5,0.7c0.4,0.3,0.7,0.6,1,0.9c0.3,0.4,0.5,0.8,0.7,1.2
							s0.2,0.9,0.3,1.3c0.1,1.6-0.7,2.6-2.2,3.2c2,0.9,3.1,2.2,3.2,4.1C585.6,254.3,585.5,255.1,585,255.8z M596,257.4
							c-0.4,0.5-0.9,0.9-1.6,1.1c-0.7,0.2-1.6,0.3-2.7,0.2c-1-0.1-1.9-0.3-2.7-0.7c-0.7-0.4-1.3-0.8-1.7-1.4s-0.6-1-0.6-1.5
							c0-0.3,0.1-0.6,0.3-0.8c0.2-0.2,0.5-0.3,0.8-0.2c0.3,0,0.5,0.1,0.7,0.3c0.2,0.2,0.3,0.4,0.5,0.7c0.3,0.5,0.7,1,1.1,1.2
							c0.4,0.3,1,0.5,1.7,0.5c0.6,0.1,1,0,1.4-0.2s0.5-0.5,0.5-0.8c0-0.5-0.2-0.9-0.6-1.2s-1-0.6-1.9-0.9c-1-0.3-1.8-0.7-2.4-1
							c-0.6-0.3-1.1-0.7-1.5-1.2s-0.6-1.1-0.6-1.7c0-0.6,0.1-1.1,0.4-1.6c0.3-0.5,0.8-0.8,1.5-1.1s1.5-0.3,2.4-0.2
							c0.7,0.1,1.4,0.2,2,0.4c0.6,0.2,1.1,0.5,1.5,0.8c0.4,0.3,0.7,0.6,0.9,0.9c0.2,0.3,0.3,0.7,0.3,1c0,0.3-0.1,0.6-0.3,0.8
							c-0.2,0.2-0.5,0.3-0.9,0.2c-0.3,0-0.5-0.1-0.8-0.3c-0.2-0.2-0.5-0.5-0.7-0.8c-0.2-0.3-0.5-0.6-0.8-0.8s-0.7-0.3-1.2-0.4
							c-0.5-0.1-0.9,0-1.3,0.2c-0.3,0.2-0.5,0.4-0.5,0.8c0,0.3,0.2,0.6,0.4,0.8c0.3,0.2,0.6,0.4,1,0.6c0.4,0.2,1,0.4,1.8,0.6
							c0.9,0.3,1.6,0.6,2.2,1c0.6,0.4,1,0.8,1.3,1.2s0.5,0.9,0.5,1.4C596.5,256.2,596.3,256.9,596,257.4z"/>
						<path class="st7" d="M580.4,248c0.4-0.1,0.7-0.4,0.9-0.8c0.2-0.3,0.2-0.6,0.2-1c0-0.8-0.3-1.3-0.9-1.6
							c-0.6-0.3-1.4-0.5-2.5-0.6l-2.5-0.3l0.2,4l2.8,0.3C579.4,248.1,580,248.1,580.4,248z"/>
					</g>
				</g>
			</g>
		</g>
		<g>
			<path class="st4" d="M498.2,637.8c-1.9-66.7-3.8-133.2-5.8-199.6c63.5,1.6,127.1,3.1,190.7,4.4c3,61.5,5.9,123.1,8.8,184.9
				C627.4,631,562.8,634.5,498.2,637.8z M674.2,510.3c2.5,0,4.9,0,7.4-0.1c-0.1-2.4-0.2-4.6-0.3-6.9c-2.4,0-4.8,0-7.2,0
				c0,0.9,0.1,1.8,0.1,2.6C674.1,507.5,674.1,508.9,674.2,510.3c-2.3,0-4.6,0.1-7,0.1c0.1,2.4,0.2,4.7,0.3,7c2.4,0,4.7,0,7.1-0.1
				c0-0.8-0.1-1.5-0.1-2.3C674.4,513.5,674.3,511.9,674.2,510.3z M627.4,611.9c-0.1-2.4-0.2-4.9-0.3-7.3c2.4-0.1,4.9-0.2,7.5-0.3
				c0.1,2.4,0.2,4.8,0.3,7.1c4.9-0.2,9.7-0.5,14.6-0.7c-0.2-4.8-0.4-9.5-0.6-14.3c2.5-0.1,4.9-0.2,7.3-0.3c0-0.4,0-0.7,0-1
				c-0.4-10.1-0.9-20.2-1.3-30.2c-0.2-3.8-0.3-7.7-0.5-11.5c2.5-0.1,4.9-0.1,7.4-0.2c0,0.4,0,0.7,0,1.1c0.6,13.5,1.2,27,1.8,40.5
				c0,0.4,0,0.8,0.1,1.3c-2.5,0.1-4.9,0.2-7.3,0.3c0.2,4.8,0.4,9.5,0.6,14.2c1.6-0.1,3.1-0.2,4.6-0.2c0.9,0,1.9,0,2.8,0l0,0
				c0,0.2-0.1,0.4-0.1,0.5c0.2,4.3,0.4,8.7,0.6,13c0,0.2,0.1,0.3,0.1,0.5c7.3-0.4,14.6-0.8,21.9-1.2c-0.1-2.3-0.2-4.6-0.3-7
				c-2.5,0.1-4.9,0.2-7.3,0.4c-0.2-4.8-0.4-9.4-0.7-14.1c2.5-0.1,4.8-0.2,7.2-0.3c-0.1-2.4-0.2-4.7-0.3-7c-4.9,0.2-9.7,0.4-14.5,0.6
				c-0.1-2.4-0.2-4.8-0.3-7.2c2.4-0.1,4.8-0.2,7.1-0.3c-0.1-2.4-0.2-4.7-0.3-7c-2.4,0.1-4.8,0.2-7.1,0.3c-0.1-2.4-0.2-4.7-0.3-7.1
				c2.4-0.1,4.8-0.2,7.2-0.2c-0.1-2.4-0.2-4.7-0.3-7.1c2.5-0.1,4.9-0.2,7.2-0.2c-0.2-4.8-0.4-9.4-0.7-14c-2.5,0.1-4.8,0.1-7.3,0.2
				c0.1,2.4,0.2,4.6,0.3,6.9c-2.5,0.1-4.8,0.1-7.3,0.2c-0.1-2.4-0.2-4.7-0.3-7c-2.5,0.1-4.8,0.1-7.2,0.2c-0.1-2.3-0.2-4.7-0.3-7.1
				c4.9-0.1,9.6-0.2,14.5-0.3c0-1.1-0.1-2.1-0.1-3.1c0-1.3,0-2.6-0.1-3.9c1.3-0.1,2.7-0.2,4-0.2c1,0,2.1,0,3.2-0.1
				c-0.2-4.8-0.4-9.4-0.7-14c-2.4,0-4.8,0.1-7.2,0.1c0.1,2.3,0.2,4.7,0.3,7c-2.5,0-4.8,0.1-7.3,0.1c-0.1-2.4-0.2-4.7-0.3-7
				c-4.9,0.1-9.7,0.1-14.5,0.2c0.1,2.3,0.2,4.6,0.3,7c2.4,0,4.8-0.1,7.2-0.1c0.1,2.4,0.2,4.8,0.3,7.2c-4.9,0.1-9.7,0.2-14.5,0.3
				c0.1,2.4,0.2,4.7,0.3,7.1c2.4,0,4.8-0.1,7.3-0.2c0.1,2.4,0.2,4.8,0.3,7.1c-2.5,0-4.9,0.1-7.3,0.2l0,0c-0.1-2.3-0.2-4.6-0.3-7
				c-5,0.1-9.8,0.2-14.7,0.3c0.2,4.8,0.4,9.5,0.6,14.1c-0.2,0.1-0.2,0.1-0.3,0.1c-4.8,0.1-9.6,0.2-14.5,0.4
				c-0.1-2.4-0.2-4.8-0.3-7.3c2.5-0.1,4.9-0.1,7.3-0.2c-0.2-4.8-0.4-9.5-0.6-14.3c-2.4,0-4.8,0.1-7.2,0.1c-0.1-2.5-0.2-4.9-0.3-7.3
				c2.4,0,4.8-0.1,7.2-0.1c-0.1-2.4-0.2-4.7-0.3-7.2c-2.4,0-4.8,0.1-7.2,0.1c-0.1-2.4-0.2-4.8-0.3-7.2c2.5,0,4.9,0,7.3-0.1l0,0
				c0.1,2.3,0.2,4.7,0.3,7c9.8-0.1,19.5-0.2,29.3-0.4c-0.1-2.3-0.2-4.6-0.3-7c2.5,0,4.8,0,7.2-0.1c-0.2-4.8-0.4-9.4-0.6-14.2
				c-0.4,0-0.8,0-1.2,0c-13.8,0.1-27.6,0.1-41.5,0.2c-0.4,0-0.8,0-1.1,0c-0.1-2.4-0.2-4.9-0.3-7.3c2.4,0,4.8,0,7.2,0
				c-0.1-2.5-0.2-4.8-0.3-7.1c-2.4,0-4.8,0-7.2,0c0.1,2.4,0.2,4.8,0.3,7.2c-2.4,0-4.8,0-7.3,0c-0.1-2.5-0.2-4.8-0.3-7.2
				c-2.4,0-4.7,0-7,0c0.2,4.8,0.4,9.6,0.6,14.4c1.3,0,2.5,0,3.7,0c3.5,0,7.1,0,10.7,0c0.1,2.4,0.2,4.7,0.3,7.2c-2.5,0-4.8,0-7.3,0
				c0.2,4.9,0.4,9.6,0.6,14.4c-2.4,0-4.8,0-7.2,0.1c0.3,7.3,0.6,14.6,0.8,21.8c-2.5,0-4.9,0.1-7.4,0.2c-0.1-2.4-0.2-4.8-0.3-7.2
				c-2.5,0-4.8,0.1-7.3,0.1c0.1,2.4,0.2,4.8,0.3,7.3c-2.5,0-4.9,0.1-7.2,0.1c0.2,4.9,0.4,9.7,0.5,14.5c2.4-0.1,4.8-0.1,7.2-0.2
				c-0.1-2.4-0.2-4.8-0.3-7.2c7.3-0.2,14.6-0.3,22-0.5c0.1,2.4,0.2,4.8,0.3,7.2c2.5-0.1,4.9-0.1,7.3-0.2c0.4,8.7,0.7,17.3,1.1,26
				c0.1,3.4,0.3,6.9,0.4,10.3c-4.8,0.2-9.7,0.4-14.6,0.6c0.1,2.5,0.2,4.8,0.3,7.2c-2.5,0.1-4.9,0.2-7.5,0.3
				c-0.3-7.3-0.5-14.6-0.8-21.9c-2.5,0.1-4.8,0.2-7.3,0.2c0.1,2.5,0.2,4.8,0.3,7.2c-2.5,0.1-4.9,0.2-7.5,0.3
				c-0.3-7.3-0.5-14.6-0.8-22c-2.5,0.1-4.8,0.1-7.2,0.2l0,0c-0.1-2.4-0.2-4.8-0.3-7.4c-2.5,0.1-4.9,0.1-7.4,0.2
				c-0.1-2.5-0.2-4.9-0.3-7.4c-2.5,0-4.8,0.1-7.3,0.2c-0.1-2.5-0.2-4.8-0.2-7.2c-7.3,0.1-14.6,0.3-21.9,0.4c0.1,2.5,0.2,4.8,0.2,7.2
				c-2.5,0-4.9,0.1-7.4,0.2c-0.2-7.5-0.5-14.9-0.7-22.4c-2.5,0-4.9,0.1-7.3,0.1c-0.1-2.6-0.2-5-0.2-7.4c-2.5,0-4.8,0-7.3,0.1
				c0.2,5,0.3,10,0.5,15c-2.4,0-4.8,0.1-7.1,0.1c-0.1-5.1-0.3-10.1-0.5-15.2c2.4,0,4.7,0,7-0.1c-0.1-2.5-0.2-4.9-0.2-7.3
				c-4.8,0-9.6,0-14.4,0.1c0.3,10.1,0.6,20.1,0.9,30.2c4.9-0.1,9.6-0.2,14.5-0.2c0,1.1,0.1,2.2,0.1,3.2c0.1,3.9,0.2,7.9,0.3,11.8
				c-0.3,0-0.7,0.1-1,0.1c-4.1,0.1-8.2,0.2-12.3,0.3c-0.4,0-0.7,0-1.1,0c0.1,2.6,0.1,5,0.2,7.5c4.9-0.1,9.6-0.2,14.4-0.4
				c-0.1-2.6-0.2-5-0.2-7.5c0.2,0,0.5,0,0.8,0c9.5-0.2,19.1-0.5,28.6-0.7c0.1,2.5,0.2,4.9,0.2,7.4c2.5-0.1,4.9-0.1,7.3-0.2
				c-0.1-2.5-0.2-5-0.2-7.4c2.4-0.1,4.8-0.1,7.4-0.2c0.3,7.5,0.5,14.8,0.8,22.3c2.5-0.1,4.8-0.2,7.4-0.2c0.1,2.6,0.2,5,0.3,7.5
				c-2.5,0.1-4.9,0.2-7.4,0.3c0.1,2.5,0.2,4.8,0.2,7.3c2.4-0.1,4.8-0.2,7.3-0.3c-0.1-2.5-0.2-4.9-0.3-7.3c2.4-0.1,4.8-0.2,7.4-0.3
				c0.1,2.5,0.2,5,0.3,7.4c-2.4,0.1-4.9,0.2-7.3,0.3c0.2,4.9,0.3,9.8,0.5,14.7c2.5-0.1,4.8-0.2,7.2-0.3c0-0.5,0-1,0-1.4
				c-0.1-4.4-0.3-8.8-0.4-13.2c0.1,0,0.2-0.1,0.4-0.1c4.5-0.2,9-0.4,13.6-0.5c0.2,0,0.4,0,0.6,0.1c0.1,2.4,0.2,4.8,0.3,7.3
				c-2.5,0.1-4.8,0.2-7.4,0.3c0.1,2.5,0.2,4.9,0.3,7.4c-2.5,0.1-4.8,0.2-7.2,0.3c0.1,2.4,0.2,4.8,0.3,7.2c0.4,0,0.7,0,1,0
				c1.6-0.1,3.3-0.2,4.9-0.2c1.5-0.1,1.3-0.2,1.4,1.3c0,1.2,0.1,2.4,0.1,3.6c0,0.8,0.1,1.5,0.1,2.3c5-0.2,9.8-0.5,14.7-0.8
				c-0.2-4.9-0.4-9.7-0.5-14.4c2.5-0.1,4.9-0.2,7.4-0.3c0.1,2.4,0.2,4.7,0.3,7.2c2.4-0.1,4.8-0.2,7.3-0.4c0.1,2.5,0.2,4.8,0.3,7.2
				c2.5-0.1,4.8-0.2,7.3-0.4c-0.2-4.8-0.4-9.6-0.6-14.4C622.4,612,624.9,611.9,627.4,611.9c0.2,4.7,0.4,9.4,0.5,14.2
				c2.6-0.1,4.9-0.3,7.3-0.4c-0.2-4.8-0.4-9.5-0.6-14.2C632.2,611.7,629.8,611.8,627.4,611.9z M571.8,496.3c2.3,0,4.7,0,7.1,0
				c-0.1-2.5-0.2-4.8-0.3-7.3c-2.4,0-4.8,0-7.1,0c-0.2-4.9-0.4-9.7-0.5-14.7c-2.5,0-4.8,0-7.3-0.1c-0.1-2.5-0.2-5-0.3-7.5
				c4.8,0.1,9.6,0.1,14.5,0.2c0.1,2.5,0.2,4.9,0.3,7.3c2.5,0,4.8,0,7.2,0.1c-0.1-2.4-0.2-4.8-0.3-7.3c2.5,0,4.8,0.1,7.2,0.1
				c-0.1-2.4-0.2-4.8-0.3-7.2c-2.4,0-4.8-0.1-7.2-0.1c-0.2-4.9-0.4-9.7-0.5-14.5c-9.7-0.2-19.3-0.4-28.8-0.6
				c0.1,2.5,0.2,4.8,0.3,7.3c2.4,0,4.8,0.1,7.2,0.1c0.2,5,0.3,9.8,0.5,14.6c-2.4,0-4.8-0.1-7.3-0.1c0.4,12.4,0.9,24.7,1.3,37
				c-4.9,0-9.7,0-14.5,0c0.1,2.5,0.2,4.9,0.2,7.4c4.8,0,9.6,0,14.4-0.1c0.1,2.5,0.2,4.9,0.3,7.4c-7.3,0-14.5,0.1-21.9,0.2
				c-0.2-5-0.3-9.9-0.5-14.8c-2.5,0-4.8,0-7.2,0c0.1,2.5,0.2,4.9,0.2,7.5c-2.5,0-4.8,0-7.2,0c0.2,5,0.3,9.8,0.5,14.9
				c2.4,0,4.8,0,7.3-0.1c0.1,2.6,0.2,5,0.2,7.5c2.5,0,4.8-0.1,7.3-0.1c0.1,2.5,0.2,5,0.2,7.4c4.9-0.1,9.7-0.2,14.5-0.2
				c-0.1-2.5-0.2-4.8-0.2-7.3c-2.4,0-4.8,0.1-7.1,0.1c-0.1-2.6-0.2-5-0.2-7.5c2.4,0,4.8,0,7.2-0.1c0.1,2.5,0.2,4.9,0.2,7.3
				c2.5,0,4.8-0.1,7.3-0.1c-0.1-2.5-0.2-4.9-0.3-7.4c2.5,0,4.8,0,7.3-0.1c-0.2-4.9-0.3-9.7-0.5-14.6c9.7,0,19.4-0.1,29-0.1
				c-0.3-7.3-0.6-14.5-0.8-21.7c-2.4,0-4.7,0-7.2,0c0.1,2.4,0.2,4.8,0.3,7.2c-2.5,0-4.8,0-7.3,0c0.1,2.5,0.2,4.8,0.3,7.2
				c-2.5,0-4.8,0-7.2,0C571.9,501.1,571.8,498.7,571.8,496.3z M552.6,578c-0.4,0-0.6,0-0.9,0c-16.4,0.5-32.9,1-49.3,1.4
				c-0.8,0-1,0.3-1,1.1c0.5,17,1,33.9,1.5,50.9c0,0.3,0,0.7,0.1,1.1c17.2-0.8,34.2-1.7,51.3-2.5C553.8,612.6,553.2,595.3,552.6,578z
				 M549.8,496.2c-0.6-17.3-1.2-34.5-1.8-51.7c-16.9-0.4-33.7-0.8-50.6-1.2c0.5,17.6,1,35.1,1.6,52.7
				C515.9,496.1,532.8,496.1,549.8,496.2z M630,496.2c0.3,0,0.6,0.1,0.8,0.1c16.4,0,32.8,0,49.2-0.1c0.7,0,0.9-0.2,0.8-0.9
				c-0.8-15.8-1.5-31.5-2.3-47.3c0-0.3-0.1-0.6-0.1-0.9c-16.9-0.3-33.8-0.6-50.6-1C628.6,462.9,629.3,479.5,630,496.2z M600.3,481.7
				c7.3,0,14.5,0.1,21.7,0.1c-0.2-4.8-0.4-9.6-0.6-14.3c-2.4,0-4.8,0-7.2-0.1c0.1,2.4,0.2,4.8,0.3,7.1c-2.5,0-4.8,0-7.3-0.1
				c-0.1-2.4-0.2-4.8-0.3-7.1c-4.8-0.1-9.6-0.1-14.3-0.2c0.3,7.3,0.6,14.5,0.8,21.7c2.4,0,4.8,0,7.2,0
				C600.5,486.6,600.4,484.2,600.3,481.7z M606.1,445.7c0.1,2.4,0.2,4.8,0.3,7.2c2.4,0,4.8,0.1,7.2,0.1c0.1,2.4,0.2,4.7,0.3,7
				c2.5,0,4.8,0.1,7.2,0.1c-0.2-4.8-0.4-9.4-0.6-14.1C615.7,445.9,610.9,445.8,606.1,445.7z M610.9,568.9c-4.8,0.1-9.6,0.3-14.4,0.4
				c0.2,4.8,0.4,9.6,0.5,14.4c2.4-0.1,4.8-0.2,7.3-0.2c-0.1-2.4-0.2-4.8-0.3-7.2c2.5-0.1,4.8-0.2,7.2-0.2
				C611.1,573.6,611,571.3,610.9,568.9z M580.2,533c-2.4,0-4.8,0.1-7.2,0.1c-0.1-2.5-0.2-4.9-0.3-7.3c-2.5,0-4.8,0-7.2,0.1
				c0.2,4.9,0.3,9.8,0.5,14.6c4.8-0.1,9.6-0.2,14.4-0.2C580.4,537.8,580.3,535.5,580.2,533z M646.3,539.1c-0.1-2.4-0.2-4.6-0.3-7
				c-7.3,0.1-14.5,0.2-21.8,0.3c0.1,2.4,0.2,4.7,0.3,7C631.8,539.3,639,539.2,646.3,539.1z M601.9,525.3c-0.2-4.8-0.4-9.6-0.6-14.3
				c-2.4,0-4.7,0-7.1,0c0.2,4.8,0.4,9.6,0.5,14.4C597.2,525.3,599.5,525.3,601.9,525.3z M587.3,525.4c-0.1-2.4-0.2-4.7-0.3-7.1
				c-4.8,0-9.6,0.1-14.3,0.1c0.1,2.4,0.2,4.8,0.3,7.1C577.7,525.5,582.5,525.5,587.3,525.4z M506.4,503.8c-2.4,0-4.8,0-7.2,0
				c0.1,2.5,0.1,4.9,0.2,7.4c2.4,0,4.8,0,7.2,0C506.6,508.7,506.5,506.3,506.4,503.8z M657.2,617.5c-2.5,0.1-4.9,0.2-7.3,0.4
				c0.1,2.4,0.2,4.7,0.3,7.1c2.3-0.1,4.5-0.2,6.7-0.4c0.2,0,0.6-0.4,0.6-0.6C657.4,621.9,657.2,619.8,657.2,617.5z M561.8,629.5
				c2.5-0.1,4.8-0.2,7.2-0.4c-0.1-2.5-0.2-4.8-0.2-7.3c-2.4,0.1-4.8,0.2-7.2,0.3C561.7,624.7,561.8,627,561.8,629.5z M559,548
				c2.4,0,4.8-0.1,7.2-0.1c-0.1-2.4-0.2-4.8-0.2-7.2c-2.4,0-4.8,0.1-7.2,0.1C558.9,543.2,558.9,545.5,559,548z M611.7,590.6
				c-0.1-2.4-0.2-4.8-0.3-7.1c-2.4,0.1-4.7,0.2-7.1,0.2c0.1,2.4,0.2,4.8,0.3,7.2C607,590.7,609.3,590.7,611.7,590.6z M596,562
				c-2.5,0.1-4.8,0.1-7.1,0.2c0.1,2.4,0.2,4.8,0.3,7.2c2.4-0.1,4.8-0.1,7.2-0.2C596.2,566.7,596.1,564.4,596,562z M592,452.6
				c2.4,0,4.7,0.1,7.1,0.1c-0.1-2.4-0.2-4.8-0.3-7.1c-2.4,0-4.7-0.1-7-0.1C591.8,447.8,591.9,450.2,592,452.6z M606.5,460
				c-0.1-2.4-0.2-4.7-0.3-7c-2.4,0-4.7-0.1-7-0.1c0.1,2.4,0.2,4.7,0.3,7C601.9,459.9,604.2,460,606.5,460z M594.9,532.7
				c-0.1-2.4-0.2-4.8-0.3-7.1c-2.4,0-4.8,0-7.1,0.1c0.1,2.4,0.2,4.8,0.3,7.1C590.1,532.7,592.5,532.7,594.9,532.7z"/>
			<path d="M515.5,563.9c-0.1-3.9-0.2-7.9-0.3-11.8c0-1-0.1-2-0.1-3.2c-4.9,0.1-9.6,0.2-14.5,0.2c-0.3-10.1-0.6-20.1-0.9-30.2
				c4.8,0,9.5,0,14.3-0.1c0.1,2.4,0.2,4.8,0.2,7.3c-2.3,0-4.6,0-7,0.1c0.1,5.1,0.3,10.1,0.5,15.2c2.4,0,4.7-0.1,7.1-0.1
				c-0.2-5-0.3-10-0.5-15c2.5,0,4.8,0,7.3-0.1c0.1,2.4,0.2,4.8,0.2,7.4c2.5,0,4.9-0.1,7.3-0.1c0.2,7.5,0.5,14.9,0.7,22.4
				c2.5,0,4.9-0.1,7.4-0.2c-0.1-2.4-0.2-4.8-0.2-7.2c7.3-0.1,14.6-0.3,21.9-0.4c0.1,2.4,0.2,4.8,0.2,7.2c2.5,0,4.8-0.1,7.3-0.2
				c0.1,2.5,0.2,4.9,0.3,7.4c2.5-0.1,4.9-0.1,7.4-0.2c0.1,2.5,0.2,5,0.3,7.4c-2.4,0.1-4.9,0.1-7.3,0.2c0.1,2.5,0.2,5,0.3,7.4
				c2.5-0.1,4.9-0.2,7.3-0.2c-0.1-2.5-0.2-4.9-0.3-7.3c2.3-0.1,4.7-0.1,7.2-0.2c0.3,7.4,0.5,14.7,0.8,22c2.5-0.1,4.9-0.2,7.5-0.3
				c-0.1-2.4-0.2-4.8-0.3-7.2c2.5-0.1,4.8-0.2,7.3-0.2c0.3,7.3,0.5,14.5,0.8,21.9c2.5-0.1,4.9-0.2,7.5-0.3c-0.1-2.4-0.2-4.8-0.3-7.2
				c5-0.2,9.8-0.4,14.6-0.6l0,0c0.1,2.4,0.2,4.9,0.3,7.3l0,0c-2.4,0.1-4.9,0.2-7.3,0.3c0.1,2.5,0.2,4.8,0.3,7.3
				c2.5-0.1,4.9-0.2,7.3-0.3l0,0c0.2,4.8,0.4,9.5,0.6,14.4c-2.5,0.1-4.8,0.2-7.3,0.4c-0.1-2.4-0.2-4.8-0.3-7.2
				c-2.5,0.1-4.8,0.2-7.3,0.4c-0.1-2.4-0.2-4.8-0.3-7.2c-2.5,0.1-4.9,0.2-7.4,0.3c0.2,4.8,0.4,9.6,0.5,14.4
				c-4.9,0.2-9.8,0.5-14.7,0.8c0-0.8-0.1-1.5-0.1-2.3c0-1.2-0.1-2.4-0.1-3.6c-0.1-1.5,0.1-1.4-1.4-1.3c-1.6,0.1-3.3,0.2-4.9,0.2
				c-0.3,0-0.6,0-1,0c-0.1-2.5-0.2-4.8-0.3-7.2c2.4-0.1,4.7-0.2,7.2-0.3c-0.1-2.5-0.2-4.9-0.3-7.4c2.5-0.1,4.9-0.2,7.4-0.3
				c-0.1-2.5-0.2-4.9-0.3-7.3c-0.2,0-0.4-0.1-0.6-0.1c-4.5,0.2-9,0.4-13.6,0.5c-0.1,0-0.2,0-0.4,0.1l0,0c-0.1-2.4-0.2-4.9-0.3-7.4
				c-2.5,0.1-5,0.2-7.4,0.3l0,0c-0.1-2.5-0.2-4.9-0.3-7.5c-2.5,0.1-4.9,0.2-7.4,0.2c-0.3-7.4-0.5-14.8-0.8-22.3
				c-2.5,0.1-5,0.1-7.4,0.2l0,0c-0.1-2.5-0.2-4.9-0.2-7.4c-2.5,0-4.9,0.1-7.4,0.2c0.1,2.5,0.2,5,0.2,7.4l0,0
				c-9.5,0.2-19.1,0.5-28.6,0.7C515.9,563.9,515.7,563.9,515.5,563.9L515.5,563.9z"/>
			<path d="M563.4,466.7c0.1,2.5,0.2,4.9,0.3,7.5c2.5,0,4.8,0,7.3,0.1c0.2,5,0.4,9.8,0.5,14.7l0,0c-2.4,0-4.8,0-7.3,0
				c0.1,2.5,0.2,5,0.3,7.4c2.5,0,4.9,0,7.3,0l0,0c0.1,2.4,0.2,4.8,0.3,7.3c2.4,0,4.8,0,7.2,0c-0.1-2.4-0.2-4.8-0.3-7.2
				c2.5,0,4.8,0,7.3,0c-0.1-2.5-0.2-4.8-0.3-7.2c2.4,0,4.8,0,7.2,0c0.3,7.2,0.6,14.4,0.8,21.7c-9.6,0-19.3,0.1-29,0.1
				c0.2,4.9,0.3,9.7,0.5,14.6c-2.5,0-4.8,0-7.3,0.1c0.1,2.5,0.2,4.9,0.3,7.4c-2.5,0-4.8,0.1-7.3,0.1c-0.1-2.4-0.2-4.8-0.2-7.3
				c-2.5,0-4.8,0-7.2,0.1c0.1,2.5,0.2,4.9,0.2,7.5c2.4,0,4.7-0.1,7.1-0.1c0.1,2.5,0.2,4.9,0.2,7.3c-4.8,0.1-9.6,0.2-14.5,0.2
				c-0.1-2.4-0.2-4.9-0.2-7.4c-2.5,0-4.9,0.1-7.3,0.1c-0.1-2.5-0.2-4.9-0.2-7.5c-2.5,0-4.9,0-7.3,0.1c-0.2-5-0.3-9.9-0.5-14.9
				c2.4,0,4.7,0,7.2,0c-0.1-2.5-0.2-5-0.2-7.5c2.5,0,4.8,0,7.2,0c0.2,4.9,0.3,9.8,0.5,14.8c7.3,0,14.6-0.1,21.9-0.2
				c-0.1-2.4-0.2-4.8-0.3-7.4c-4.8,0-9.6,0-14.4,0.1c-0.1-2.5-0.2-4.9-0.2-7.4c4.8,0,9.6,0,14.5,0c-0.4-12.4-0.9-24.6-1.3-37
				C558.6,466.7,561,466.7,563.4,466.7L563.4,466.7z"/>
			<path d="M618,561.3c-2.4,0.1-4.8,0.1-7.3,0.2c-0.1-2.4-0.2-4.8-0.3-7.2c-7.3,0.2-14.6,0.3-22,0.5c0.1,2.4,0.2,4.8,0.3,7.2
				c-2.5,0.1-4.8,0.1-7.2,0.2c-0.2-4.8-0.3-9.6-0.5-14.5c2.4,0,4.8-0.1,7.2-0.1c-0.1-2.5-0.2-4.9-0.3-7.3c2.5,0,4.8-0.1,7.3-0.1
				c0.1,2.4,0.2,4.7,0.3,7.2c2.5,0,4.9-0.1,7.4-0.2c-0.3-7.2-0.6-14.5-0.8-21.8c2.5,0,4.8-0.1,7.2-0.1c-0.2-4.8-0.4-9.6-0.6-14.5
				c2.5,0,4.8,0,7.3,0c-0.1-2.5-0.2-4.9-0.3-7.2l0,0c0.4,0,0.7,0,1.1,0c13.8,0,27.6-0.1,41.5-0.2c0.4,0,0.7,0,1.2,0
				c0.2,4.8,0.4,9.4,0.6,14.2c-2.4,0-4.8,0-7.2,0.1c0.1,2.4,0.2,4.6,0.3,7c-9.8,0.1-19.4,0.2-29.3,0.4c-0.1-2.3-0.2-4.7-0.3-7
				c7.3-0.1,14.6-0.1,21.9-0.2c-0.1-2.5-0.2-4.8-0.3-7.1c-7.3,0-14.5,0.1-21.8,0.1c0.1,2.5,0.2,4.8,0.3,7.2c-2.4,0-4.8,0-7.3,0.1
				c0.1,2.4,0.2,4.7,0.3,7.2c2.4,0,4.7-0.1,7.2-0.1c0.1,2.4,0.2,4.7,0.3,7.2c-2.4,0-4.8,0.1-7.2,0.1c0.1,2.5,0.2,4.8,0.3,7.3
				c2.4,0,4.8-0.1,7.2-0.1c0.2,4.8,0.4,9.5,0.6,14.3c-2.4,0.1-4.8,0.1-7.3,0.2C617.8,556.5,617.9,558.9,618,561.3
				C618,561.3,618,561.3,618,561.3z"/>
			<path d="M619.5,597.7c-0.1-3.4-0.2-6.9-0.4-10.3c-0.3-8.7-0.7-17.4-1.1-26l0,0c4.8-0.1,9.6-0.2,14.5-0.4c0,0,0.1,0,0.3-0.1
				c-0.2-4.6-0.4-9.3-0.6-14.1c4.9-0.1,9.7-0.2,14.7-0.3c0.1,2.4,0.2,4.7,0.3,7c-2.4,0.1-4.9,0.1-7.3,0.2c0.1,2.4,0.2,4.8,0.3,7.1
				c2.5-0.1,4.8-0.1,7.3-0.2c-0.1-2.4-0.2-4.8-0.3-7.1c2.5,0,4.9-0.1,7.3-0.2l0,0c0.2,3.8,0.3,7.7,0.5,11.5
				c0.4,10.1,0.9,20.2,1.3,30.2c0,0.3,0,0.6,0,1c-2.4,0.1-4.8,0.2-7.3,0.3c0.2,4.8,0.4,9.5,0.6,14.3c-4.9,0.2-9.7,0.5-14.6,0.7
				c-0.1-2.3-0.2-4.7-0.3-7.1c-2.6,0.1-5,0.2-7.5,0.3l0,0c-0.1-2.4-0.2-4.8-0.3-7.3C624.3,597.4,621.9,597.5,619.5,597.7
				L619.5,597.7z M647.6,567.8c-7.3,0.2-14.6,0.4-21.9,0.7c0.3,7.2,0.6,14.4,0.9,21.5c7.3-0.3,14.6-0.6,21.9-0.8
				C648.2,582,647.9,575,647.6,567.8z"/>
			<path d="M552.6,578c0.6,17.3,1.2,34.6,1.8,51.9c-17.1,0.8-34.2,1.7-51.4,2.5c0-0.4-0.1-0.7-0.1-1.1c-0.5-17-1-33.9-1.5-50.9
				c0-0.8,0.1-1.1,1-1.1c16.4-0.5,32.9-0.9,49.3-1.4C552,578,552.2,578,552.6,578z M545.6,585.6c-12.2,0.4-24.4,0.8-36.5,1.2
				c0.4,12.6,0.8,25.2,1.1,37.7c12.2-0.6,24.4-1.1,36.6-1.7C546.4,610.4,546,598,545.6,585.6z"/>
			<path d="M549.8,496.2c-17,0-33.8-0.1-50.8-0.1c-0.5-17.6-1-35.1-1.6-52.7c16.8,0.4,33.7,0.8,50.6,1.2
				C548.6,461.7,549.2,478.9,549.8,496.2z M542.3,488.8c-0.4-12.4-0.8-24.8-1.3-37c-12.1-0.2-24.1-0.5-36.1-0.7
				c0.4,12.6,0.8,25,1.1,37.6C518.2,488.7,530.2,488.7,542.3,488.8z"/>
			<path d="M630,496.2c-0.7-16.7-1.4-33.3-2.1-50c16.9,0.3,33.7,0.6,50.6,1c0,0.3,0.1,0.6,0.1,0.9c0.8,15.8,1.5,31.5,2.3,47.3
				c0,0.6-0.1,0.9-0.8,0.9c-16.4,0-32.8,0-49.2,0.1C630.6,496.3,630.4,496.2,630,496.2z M673.3,489.2c-0.5-11.8-1.1-23.4-1.7-35.1
				c-12.1-0.2-24.1-0.4-36.2-0.6c0.5,11.9,1,23.8,1.5,35.7C649.1,489.1,661.1,489.2,673.3,489.2z"/>
			<path d="M664.4,610.2c-0.9,0-1.9,0-2.8,0c-1.5,0-3.1,0.1-4.6,0.2c-0.2-4.8-0.4-9.5-0.6-14.2c2.4-0.1,4.8-0.2,7.3-0.3
				c0-0.5,0-0.9-0.1-1.3c-0.6-13.5-1.2-27-1.8-40.5c0-0.4,0-0.7,0-1.1l0,0c2.4-0.1,4.8-0.1,7.2-0.2c0.1,2.4,0.2,4.7,0.3,7
				c2.5-0.1,4.8-0.1,7.3-0.2c-0.1-2.3-0.2-4.6-0.3-6.9c2.5-0.1,4.8-0.1,7.3-0.2c0.2,4.6,0.4,9.2,0.7,14c-2.4,0.1-4.8,0.2-7.2,0.2
				c0.1,2.4,0.2,4.7,0.3,7.1c-2.4,0.1-4.8,0.2-7.2,0.2c0.1,2.4,0.2,4.7,0.3,7.1c2.4-0.1,4.7-0.2,7.1-0.3c0.1,2.4,0.2,4.7,0.3,7
				c-2.3,0.1-4.7,0.2-7.1,0.3c0.1,2.4,0.2,4.7,0.3,7.2c4.8-0.2,9.6-0.4,14.5-0.6c0.1,2.4,0.2,4.7,0.3,7c-2.4,0.1-4.8,0.2-7.2,0.3
				c0.2,4.7,0.4,9.3,0.7,14.1c2.4-0.1,4.8-0.2,7.3-0.4c0.1,2.4,0.2,4.7,0.3,7c-7.3,0.4-14.6,0.8-21.9,1.2c0-0.2-0.1-0.3-0.1-0.5
				c-0.2-4.3-0.4-8.7-0.6-13C664.3,610.5,664.3,610.3,664.4,610.2c2.4-0.1,4.8-0.2,7.2-0.3c-0.1-2.5-0.2-4.8-0.3-7.2
				c-2.5,0.1-4.9,0.2-7.3,0.3c0.1,2,0.2,3.9,0.3,5.8C664.2,609.2,664.3,609.7,664.4,610.2z"/>
			<path d="M563.4,466.8c-0.2-4.8-0.3-9.7-0.5-14.6c-2.5,0-4.8-0.1-7.2-0.1c-0.1-2.5-0.2-4.9-0.3-7.3c9.6,0.2,19.2,0.4,28.8,0.6
				c0.2,4.8,0.4,9.6,0.5,14.5c2.5,0,4.8,0.1,7.2,0.1c0.1,2.5,0.2,4.8,0.3,7.2c-2.4,0-4.7-0.1-7.2-0.1c0.1,2.5,0.2,4.9,0.3,7.3
				c-2.4,0-4.8,0-7.2-0.1c-0.1-2.4-0.2-4.8-0.3-7.3C573,466.8,568.2,466.8,563.4,466.8C563.4,466.7,563.4,466.8,563.4,466.8z"/>
			<path d="M654.4,553.2c-0.1-2.3-0.2-4.6-0.3-7.1c-2.5,0-4.9,0.1-7.3,0.2c-0.1-2.4-0.2-4.7-0.3-7.1c4.8-0.1,9.7-0.2,14.5-0.3
				c-0.1-2.4-0.2-4.8-0.3-7.2c-2.4,0-4.8,0.1-7.2,0.1c-0.1-2.4-0.2-4.7-0.3-7c4.8-0.1,9.6-0.1,14.5-0.2c0.1,2.3,0.2,4.6,0.3,7
				c2.5,0,4.8-0.1,7.3-0.1c-0.1-2.3-0.2-4.6-0.3-7c2.5,0,4.8-0.1,7.2-0.1c0.2,4.6,0.4,9.2,0.7,14c-1,0-2.1,0-3.2,0.1
				c-1.3,0-2.7,0.1-4,0.2c0,1.3,0,2.6,0.1,3.9c0,1,0.1,2,0.1,3.1c-4.9,0.1-9.7,0.2-14.5,0.3c0.1,2.4,0.2,4.8,0.3,7.1l0,0
				C659.3,553.1,656.8,553.2,654.4,553.2C654.4,553.2,654.4,553.2,654.4,553.2z"/>
			<path d="M600.3,481.7c0.1,2.5,0.2,4.8,0.3,7.2c-2.4,0-4.8,0-7.2,0c-0.3-7.2-0.6-14.4-0.8-21.7c4.7,0.1,9.5,0.1,14.3,0.2
				c0.1,2.4,0.2,4.7,0.3,7.1c2.5,0,4.8,0,7.3,0.1c-0.1-2.3-0.2-4.7-0.3-7.1c2.4,0,4.8,0,7.2,0.1c0.2,4.7,0.4,9.4,0.6,14.3
				C614.8,481.8,607.6,481.8,600.3,481.7z"/>
			<path d="M606.1,445.7c4.8,0.1,9.6,0.2,14.4,0.3c0.2,4.7,0.4,9.4,0.6,14.1c-2.4,0-4.7-0.1-7.2-0.1c-0.1-2.3-0.2-4.6-0.3-7
				c-2.4,0-4.8-0.1-7.2-0.1C606.3,450.5,606.2,448.2,606.1,445.7z"/>
			<path d="M610.9,568.9c0.1,2.4,0.2,4.7,0.3,7.1c-2.3,0.1-4.7,0.2-7.2,0.2c0.1,2.5,0.2,4.8,0.3,7.2c-2.5,0.1-4.8,0.2-7.3,0.2
				c-0.2-4.8-0.4-9.6-0.5-14.4C601.3,569.2,606,569.1,610.9,568.9z"/>
			<path d="M615.7,503.6c-3.5,0-7.1,0-10.7,0c-1.2,0-2.4,0-3.7,0c-0.2-4.8-0.4-9.6-0.6-14.4c2.3,0,4.6,0,7,0
				c0.1,2.4,0.2,4.7,0.3,7.2c2.5,0,4.9,0,7.3,0l0,0C615.4,498.8,615.5,501.2,615.7,503.6C615.6,503.6,615.7,503.6,615.7,503.6z"/>
			<path d="M580.2,533c0.1,2.5,0.2,4.9,0.3,7.3c-4.8,0.1-9.5,0.2-14.4,0.2c-0.2-4.8-0.3-9.7-0.5-14.6c2.4,0,4.7,0,7.2-0.1
				c0.1,2.4,0.2,4.8,0.3,7.3C575.5,533,577.8,533,580.2,533z"/>
			<path d="M646.3,539.1c-7.3,0.1-14.5,0.3-21.8,0.4c-0.1-2.3-0.2-4.7-0.3-7c7.3-0.1,14.5-0.2,21.8-0.3
				C646.1,534.4,646.2,536.7,646.3,539.1z"/>
			<path d="M575.5,599.4c0.1,4.4,0.3,8.8,0.4,13.2c0,0.4,0,0.9,0,1.4c-2.4,0.1-4.8,0.2-7.2,0.3c-0.2-4.8-0.3-9.7-0.5-14.7
				C570.7,599.6,573.1,599.5,575.5,599.4C575.6,599.4,575.5,599.4,575.5,599.4z"/>
			<path d="M515.5,563.8c0.1,2.5,0.2,5,0.2,7.5c-4.8,0.1-9.6,0.2-14.4,0.4c-0.1-2.5-0.1-4.9-0.2-7.5c0.4,0,0.8,0,1.1,0
				c4.1-0.1,8.2-0.2,12.3-0.3C514.8,563.9,515.2,563.9,515.5,563.8C515.5,563.9,515.5,563.8,515.5,563.8z"/>
			<path d="M627.4,611.9c2.4-0.1,4.8-0.2,7.3-0.3c0.2,4.7,0.4,9.4,0.6,14.2c-2.4,0.1-4.7,0.2-7.3,0.4
				C627.8,621.3,627.6,616.6,627.4,611.9L627.4,611.9z"/>
			<path d="M601.9,525.3c-2.4,0-4.7,0-7.1,0.1c-0.2-4.8-0.4-9.5-0.5-14.4c2.3,0,4.7,0,7.1,0C601.5,515.7,601.7,520.4,601.9,525.3z"
				/>
			<path d="M587.3,525.4c-4.8,0-9.5,0.1-14.3,0.2c-0.1-2.4-0.2-4.7-0.3-7.1c4.8,0,9.5-0.1,14.3-0.1
				C587.1,520.7,587.2,523,587.3,525.4z"/>
			<path d="M615.4,496.4c-0.1-2.4-0.2-4.7-0.3-7.2c2.4,0,4.8,0,7.2,0c0.1,2.3,0.2,4.6,0.3,7.1C620.2,496.3,617.8,496.3,615.4,496.4
				C615.3,496.3,615.4,496.4,615.4,496.4z"/>
			<path d="M552.2,563c0.1,2.4,0.2,4.9,0.2,7.4c-2.5,0.1-4.8,0.1-7.3,0.2c-0.1-2.5-0.2-4.9-0.2-7.4l0,0
				C547.3,563.2,549.7,563.1,552.2,563L552.2,563z"/>
			<path d="M627.4,611.8c-2.5,0.1-4.9,0.2-7.4,0.3l0,0c-0.1-2.4-0.2-4.9-0.3-7.3l0,0c2.5-0.1,4.9-0.2,7.4-0.3l0,0
				C627.2,607,627.3,609.5,627.4,611.8C627.4,611.9,627.4,611.8,627.4,611.8z"/>
			<path d="M506.4,503.8c0.1,2.5,0.1,4.9,0.2,7.4c-2.4,0-4.8,0-7.2,0c-0.1-2.5-0.1-4.9-0.2-7.4C501.6,503.8,504,503.8,506.4,503.8z"
				/>
			<path d="M657.2,617.5c0.1,2.3,0.2,4.4,0.3,6.5c0,0.2-0.4,0.6-0.6,0.6c-2.2,0.2-4.4,0.3-6.7,0.4c-0.1-2.4-0.2-4.7-0.3-7.1
				C652.3,617.8,654.7,617.7,657.2,617.5z"/>
			<path d="M674.2,510.4c0-1.4,0-2.9-0.1-4.3c0-0.9-0.1-1.7-0.1-2.6c2.5,0,4.8,0,7.2,0c0.1,2.3,0.2,4.6,0.3,6.9
				C679.1,510.3,676.6,510.3,674.2,510.4L674.2,510.4z"/>
			<path d="M567.9,592.3c0.1,2.4,0.2,4.8,0.3,7.3c-2.5,0.1-4.9,0.2-7.3,0.3c-0.1-2.4-0.2-4.8-0.2-7.3
				C563,592.5,565.5,592.4,567.9,592.3C567.9,592.3,567.9,592.3,567.9,592.3z"/>
			<path d="M561.8,629.5c-0.1-2.5-0.2-4.9-0.2-7.3c2.4-0.1,4.8-0.2,7.2-0.3c0.1,2.4,0.2,4.8,0.2,7.3
				C566.7,629.3,564.3,629.4,561.8,629.5z"/>
			<path d="M559,548c-0.1-2.5-0.2-4.8-0.2-7.2c2.4,0,4.7-0.1,7.2-0.1c0.1,2.4,0.2,4.7,0.2,7.2C563.8,547.9,561.5,547.9,559,548z"/>
			<path d="M571.5,488.9c2.3,0,4.7,0,7.1,0c0.1,2.5,0.2,4.8,0.3,7.3c-2.4,0-4.8,0-7.1,0l0,0C571.7,493.8,571.6,491.4,571.5,488.9
				L571.5,488.9z"/>
			<path d="M611.7,590.6c-2.4,0.1-4.7,0.2-7.1,0.3c-0.1-2.4-0.2-4.8-0.3-7.2c2.3-0.1,4.7-0.2,7.1-0.2
				C611.5,585.8,611.7,588.1,611.7,590.6z"/>
			<path d="M596,562c0.1,2.4,0.2,4.7,0.3,7.1c-2.4,0.1-4.7,0.1-7.2,0.2c-0.1-2.4-0.2-4.7-0.3-7.2C591.2,562.1,593.5,562.1,596,562z"
				/>
			<path d="M674.2,510.3c0.1,1.6,0.2,3.2,0.3,4.8c0,0.7,0.1,1.5,0.1,2.3c-2.4,0-4.7,0-7.1,0.1c-0.1-2.3-0.2-4.6-0.3-7
				C669.5,510.4,671.9,510.4,674.2,510.3C674.2,510.4,674.2,510.3,674.2,510.3z"/>
			<path d="M592,452.6c-0.1-2.4-0.2-4.8-0.3-7.2c2.4,0,4.7,0.1,7,0.1c0.1,2.4,0.2,4.7,0.3,7.1C596.7,452.7,594.3,452.6,592,452.6z"
				/>
			<path d="M606.5,460c-2.4,0-4.7-0.1-7-0.1c-0.1-2.4-0.2-4.7-0.3-7c2.3,0,4.7,0.1,7,0.1C606.3,455.3,606.4,457.6,606.5,460z"/>
			<path d="M594.9,532.7c-2.4,0-4.7,0.1-7.1,0.1c-0.1-2.4-0.2-4.7-0.3-7.1c2.3,0,4.7,0,7.1-0.1C594.7,527.9,594.8,530.2,594.9,532.7
				z"/>
			<path class="st4" d="M619.8,604.9c0.1,2.4,0.2,4.9,0.3,7.3c-2.4,0.1-4.8,0.2-7.3,0.3c-0.1-2.5-0.2-4.8-0.3-7.3
				C614.9,605.1,617.3,605,619.8,604.9z"/>
			<path class="st4" d="M627.1,604.6c-2.5,0.1-4.9,0.2-7.4,0.3c-0.1-2.4-0.2-4.9-0.3-7.3c2.4-0.1,4.9-0.2,7.4-0.3
				C626.9,599.8,627,602.2,627.1,604.6z"/>
			<path class="st4" d="M552.2,563c-2.5,0.1-4.9,0.1-7.4,0.2c-0.1-2.4-0.2-4.9-0.2-7.4c2.5,0,4.8-0.1,7.4-0.2
				C552,558.1,552.1,560.6,552.2,563z"/>
			<path class="st4" d="M574.4,569.8c0.1,2.4,0.2,4.8,0.3,7.3c-2.4,0.1-4.8,0.2-7.3,0.2c-0.1-2.4-0.2-4.8-0.3-7.4
				C569.6,570,572,569.9,574.4,569.8C574.5,569.9,574.4,569.8,574.4,569.8z"/>
			<path class="st4" d="M571.5,488.9c0.1,2.5,0.2,4.9,0.3,7.4c-2.4,0-4.8,0-7.3,0c-0.1-2.5-0.2-4.9-0.3-7.4
				C566.7,488.9,569.1,488.9,571.5,488.9z"/>
			<path class="st4" d="M623.6,518c-0.1-2.4-0.2-4.7-0.3-7.2c7.3,0,14.5-0.1,21.8-0.1c0.1,2.3,0.2,4.6,0.3,7.1
				C638.1,517.8,630.8,517.9,623.6,518C623.5,518,623.6,518,623.6,518z"/>
			<path class="st4" d="M647.6,567.8c0.3,7.2,0.6,14.2,0.9,21.4c-7.3,0.3-14.6,0.6-21.9,0.8c-0.3-7.2-0.6-14.3-0.9-21.5
				C633,568.2,640.3,568,647.6,567.8z M640.6,575.2c-1.7,0.1-3.3,0.1-4.9,0.2c-2.4,0.1-2.4,0.1-2.3,2.5c0.1,1.6,0.1,3.1,0.2,4.7
				c2.5-0.1,4.8-0.2,7.2-0.3C640.8,579.9,640.7,577.6,640.6,575.2z"/>
			<path class="st4" d="M647,553.4c0.1,2.3,0.2,4.7,0.3,7.1c-2.5,0.1-4.9,0.1-7.3,0.2c-0.1-2.3-0.2-4.7-0.3-7.1
				C642.2,553.5,644.6,553.5,647,553.4C647.1,553.4,647,553.4,647,553.4z"/>
			<path class="st4" d="M545.6,585.6c0.4,12.4,0.8,24.8,1.2,37.2c-12.2,0.6-24.4,1.1-36.6,1.7c-0.4-12.6-0.7-25.1-1.1-37.7
				C521.2,586.4,533.3,586,545.6,585.6z M538.4,593.4c-7.3,0.3-14.6,0.5-21.9,0.8c0.2,7.5,0.5,15,0.7,22.5c7.3-0.3,14.6-0.6,22-1
				C538.9,608.3,538.7,600.8,538.4,593.4z"/>
			<path class="st4" d="M542.3,488.8c-12.1-0.1-24.1-0.1-36.2-0.2c-0.4-12.5-0.8-25-1.1-37.6c12,0.2,24,0.5,36.1,0.7
				C541.5,464,541.9,476.4,542.3,488.8z M534.8,481.2c-0.2-7.5-0.5-14.9-0.7-22.3c-7.2-0.1-14.4-0.2-21.7-0.4
				c0.2,7.5,0.5,15,0.7,22.5C520.3,481.1,527.5,481.2,534.8,481.2z"/>
			<path class="st4" d="M673.3,489.2c-12.1,0-24.2,0-36.3,0c-0.5-11.9-1-23.8-1.5-35.7c12.1,0.2,24.1,0.4,36.2,0.6
				C672.2,465.7,672.7,477.4,673.3,489.2z M665.7,482.1c-0.3-7.1-0.7-14.1-1-21.1c-7.3-0.1-14.5-0.2-21.7-0.3
				c0.3,7.1,0.6,14.2,0.9,21.3C651.2,482,658.4,482,665.7,482.1z"/>
			<path class="st4" d="M664.4,610.2c-0.1-0.5-0.2-0.9-0.2-1.4c-0.1-1.9-0.2-3.8-0.3-5.8c2.5-0.1,4.9-0.2,7.3-0.3
				c0.1,2.3,0.2,4.7,0.3,7.2C669.1,609.9,666.7,610,664.4,610.2C664.4,610.2,664.4,610.2,664.4,610.2z"/>
			<path d="M640.6,575.2c0.1,2.4,0.2,4.7,0.3,7c-2.4,0.1-4.8,0.2-7.2,0.3c-0.1-1.6-0.1-3.1-0.2-4.7c-0.1-2.4-0.1-2.4,2.3-2.5
				C637.3,575.3,638.9,575.2,640.6,575.2z"/>
			<path d="M538.4,593.4c0.2,7.5,0.5,14.9,0.7,22.3c-7.3,0.3-14.6,0.6-22,1c-0.2-7.5-0.5-15-0.7-22.5
				C523.8,593.9,531.1,593.6,538.4,593.4z"/>
			<path d="M534.8,481.2c-7.3-0.1-14.5-0.1-21.7-0.2c-0.2-7.5-0.5-14.9-0.7-22.5c7.2,0.1,14.4,0.2,21.7,0.4
				C534.3,466.4,534.5,473.8,534.8,481.2z"/>
			<path d="M665.7,482.1c-7.3,0-14.4-0.1-21.7-0.1c-0.3-7.1-0.6-14.2-0.9-21.3c7.2,0.1,14.4,0.2,21.7,0.3
				C665,468,665.4,475,665.7,482.1z"/>
		</g>
	</g>
</g>
<g class="st8">
	
		<image style="overflow:visible;enable-background:new    ;" width="395" height="525" xlink:href="C3D5A21D.png"  transform="matrix(1 0 0 1 605 238)">
	</image>
</g>
<g>
	
		<image style="overflow:visible;enable-background:new    ;" width="250" height="172" xlink:href="C3D5A21B.png"  transform="matrix(1 0 0 1 717 638)">
	</image>
</g>
<g>
	<g>
		<g>
			<g>
				<g>
					<g>
						<g>
							<path class="st9" d="M679.6,269h255.8c13.6,0,25.6,11,26.8,24.6l25.5,284c1.4,15.4-3.5,30.2-13.7,41l-88.3,93.8
								c-21,22.2-57.9,22.2-82.6,0l-103.9-93.8c-12-10.8-19.3-25.6-20.5-41l-21.8-284C655.8,280,666,269,679.6,269z"/>
						</g>
						<g>
							<g class="st10">
								<path class="st11" d="M974.1,618.6c10.2-10.8,15.1-25.6,13.7-41l-2.6-29l-134.9-123l-3.3,38.1l-35.6,26.9l15.1,14l-15.5,9.8
									l-2.7,11.5l-12.6-11.5l-7.5,21.2l-20.9-19.1l-9.7,51.2l24.7,22.5l-21.5,4.8l-16.5,20.4l-3.4,19.2L844.7,729
									c15.3,0.3,30.3-5.2,41.1-16.6L974.1,618.6z"/>
							</g>
						</g>
						<g>
							<path class="st12" d="M703.1,350.7h-2l-0.1,8.7l-9.5,0l0.2-27.8l11,0c3.7,0,6.4,0.8,8.1,2.2s2.5,4,2.5,7.4
								c0,3.4-0.9,5.9-2.5,7.3C709.2,350,706.6,350.7,703.1,350.7z M703.7,344.2c0.3-0.5,0.4-1.3,0.4-2.4c0-1.1-0.1-1.9-0.4-2.4
								c-0.3-0.5-0.8-0.7-1.6-0.7h-1l0,6.3h1.2C702.9,344.9,703.4,344.7,703.7,344.2z"/>
							<path class="st12" d="M739.1,359.4l-9.5,0l-0.9-4.3h-5l-1,4.3l-9.1,0l6-27.8l13.8,0L739.1,359.4z M728,349.3l-1.7-9.3h-0.2
								l-1.8,9.3H728z"/>
							<path class="st12" d="M753.3,352.6c0.5,0,1.3-0.1,2.2-0.3l0-2.7h-2.3l0-6.2l10.7,0l-0.1,16H757l-0.7-1.4h-0.2
								c-1.6,1.2-3.4,1.9-5.6,1.9c-7.1,0-10.6-4.7-10.5-14.2c0-4.7,1-8.3,2.9-10.8c1.9-2.5,5.2-3.7,9.7-3.7c3.4,0,6.6,0.5,9.6,1.4
								l-1.5,8.4c-3.4-0.9-5.8-1.4-7.3-1.4c-1.5,0-2.4,0.5-2.9,1.4c-0.5,1-0.7,2.6-0.7,4.9c0,2.3,0.2,4,0.6,5.1
								C751,352,751.9,352.6,753.3,352.6z"/>
							<path class="st12" d="M791.4,359.4l-9.5,0l-0.9-4.3h-5l-1,4.3l-9.1,0l6-27.8l13.8,0L791.4,359.4z M780.3,349.4l-1.7-9.3h-0.2
								l-1.8,9.3H780.3z"/>
							<path class="st12" d="M810.7,345.9c0,2.3,0.2,3.9,0.8,5s1.4,1.5,2.6,1.5s3.2-0.3,6-1l1.4,7.1c-3,0.9-5.8,1.4-8.6,1.4
								c-4.2,0-7.2-1.2-9.2-3.6s-2.9-5.9-2.8-10.6c0-4.7,1-8.3,3-10.8c2-2.5,5.2-3.7,9.7-3.7c2.6,0,5.2,0.5,7.9,1.5l-1.5,8
								c-3-0.9-5-1.3-6.1-1.3s-1.9,0.5-2.4,1.5C811,342,810.7,343.6,810.7,345.9z"/>
							<path class="st12" d="M822,345.4c0-5,1-8.6,3-10.8c2-2.2,5.3-3.4,9.9-3.4c4.6,0,7.9,1.1,9.9,3.3c2,2.2,3,5.8,3,10.8
								s-1,8.6-3.1,11s-5.3,3.6-9.9,3.6s-7.8-1.2-9.8-3.5C823,354,822,350.3,822,345.4z M837.5,340c-0.4-0.8-1.2-1.1-2.5-1.1
								c-1.3,0-2.1,0.4-2.5,1.1s-0.5,2.3-0.5,4.8v2c0,2.5,0.2,4.1,0.6,4.9c0.4,0.8,1.2,1.1,2.6,1.1s2.2-0.4,2.5-1.1
								c0.3-0.7,0.5-2.3,0.5-4.8v-2.1C838,342.4,837.8,340.8,837.5,340z"/>
							<path class="st12" d="M874.3,359.5l-9.2,0l-5.7-11h-0.3l0,11l-8.6,0l0-27.8l9.5,0l5.3,11.3h0.3l0-11.3l8.7,0L874.3,359.5z"/>
							<path class="st5" d="M888.6,334.6c2-2.2,5.3-3.4,9.9-3.4c4.6,0,7.9,1.1,9.8,3.3c2,2.2,3,5.8,3,10.6c0,3.3-0.4,5.9-1.3,7.8
								c-0.9,1.9-2.3,3.4-4.3,4.6v0.2h6.4l-0.6,6.3h-1.9c-2.9,0-5.4-0.6-7.3-1.8l-4-2.4c-4.6,0-7.9-1.2-9.8-3.7
								c-2-2.4-2.9-6.1-2.9-11C885.6,340.4,886.6,336.8,888.6,334.6z M901,340.1c-0.4-0.8-1.2-1.1-2.5-1.1s-2.1,0.4-2.5,1.1
								s-0.5,2.3-0.5,4.8v2c0,2.5,0.2,4.1,0.6,4.9c0.4,0.8,1.2,1.1,2.6,1.1s2.2-0.4,2.5-1.1c0.3-0.7,0.5-2.3,0.5-4.8v-2.1
								C901.6,342.5,901.4,340.8,901,340.1z"/>
							<path class="st5" d="M936.5,340.7c0,1.8-0.3,3.2-0.9,4.3c-0.6,1.1-1.5,2-2.7,2.8l4.2,11.8l-10,0l-2.8-9.6h-0.7l0,9.6l-9.3,0
								l0-27.8l12,0c3.5,0,6.1,0.7,7.7,2.2C935.7,335.3,936.5,337.6,936.5,340.7z M926,343.9c0.3-0.4,0.4-1.1,0.4-2.1
								c0-1-0.2-1.7-0.5-2.1c-0.3-0.4-0.8-0.6-1.4-0.6h-1.2l0,5.4h1.1C925.2,344.5,925.7,344.3,926,343.9z"/>
						</g>
					</g>
				</g>
			</g>
			<g>
				<path class="st9" d="M861.4,449.9c1.6,18.5-12.3,33.4-30.9,33.4s-35-15-36.5-33.4c-1.5-18.5,12.3-33.4,30.9-33.4
					S859.9,431.5,861.4,449.9z"/>
				<g>
					<path class="st4" d="M907.3,562c-17.7,0.3-37.6,2.2-55.9,4.5c1.5-7.4,2.9-14.6,2.9-14.6s2.5,4.5,8.5,4
						c8.4-0.7,18.1-8.8,21.8-23.8c4-15.9,1.9-34-9-35.5c-8.9-1.2-12.4,6.4-12.9,8c0,0,1.3-7-4.2-5.7c-5.2,1.2-6,3.5-7,7.7
						c-0.2,0.7-3.3,17.3-6.5,34.7c-0.1,0.1-0.1,0.2-0.1,0.4c-0.8,3.9-3,5.3-4.7,5.4c-5.3,0.3,3.3-34.8,3.9-37.4
						c0.9-3.5,1.3-6.2-2.7-7.6c-2.7-1-6.3-0.6-7.1,2.2c-0.3,1.2-0.6,2-0.6,2s-3.4-4.4-10-3.8c-6.6,0.6-14.4,8.6-18.8,22.8
						c-4.4,14.1-5.2,34.3,8.2,36.4c6.8,1,12.2-2.8,14.6-9c0,0-0.2,4.2,4.4,6.2c1.8,0.8,6.1,0.5,10-1.8c-0.7,4-1.4,7.8-2.1,11.1
						c-28.3,3.9-50.5,8.3-50.5,8.3c0,0,11.4-52.4,14-64c2.2-9.6-3.2-7.5-7.2-6.4c-4.3,1.3-6.1,4.9-7.7,11.5
						c-7.2,29-14.1,38-19.7,36.1c-5.2-1.8,8.2-32.6,4-36.6c-3.6-3.5-10.3-3.3-11.5-1.3s1,4,0.4,6.9s-5.6,18.9-6,22.4
						s-4.3,23.3,10.2,22.5c8.6-0.5,13.9-6.9,14.4-8.7c-2.1,7.7-4.9,20.1-4.9,20.1s-17.3,4.3-30.2,18.9
						c-10.2,11.5-16.2,36.3,0.8,40.3c26.5,6.1,35.6-32.9,40.7-47.5c20.6-4.6,36.4-7.7,51-10c-0.2,0.8-0.2,1.4-0.3,1.7
						c-0.8,6.1-0.3,8.5,4.5,8c5.2-0.6,5.6-3.3,6.8-9.7c0.1-0.4,0.2-1,0.3-1.6c17.3-2.3,34.5-3.8,58-5.8c7.3-0.6,7.1-1.8,7.5-6.2
						C914.8,562,909.1,562,907.3,562z M859.3,528.3c2.6-11.4,5.4-16,8.4-17.3c7-3.1,9.2,6,4.7,19.7c-5.2,15.9-12.8,15.5-16,12.4
						C856.4,543.1,856.6,540.4,859.3,528.3z M827.4,535.2c-2.5,7.5-5,12.7-9,12.7c-5.8,0-6.3-8.5-3.1-19.3
						c2.7-9.1,8.5-14.8,11.9-15.4C830.5,512.5,834.5,514,827.4,535.2z M758,622c-12.8,12.1-10.7-4.5-6.1-11.7
						c8.6-13.6,20.4-17.1,20.4-17.1C767.5,610.9,760.6,619.5,758,622z"/>
					<path class="st4" d="M921.8,518.1c4.7-5.9,5.9-18.6-3.2-23.3c-11-5.6-24,3-28.1,21.5c-3.6,16.5-3.8,36.8,13.3,36
						c8.4-0.4,15.2-6.4,17.4-10.8c1.1-2.2,1.3-5.6,1-7.1c-1-4.2-3.7-4.9-7.6,0.7c-1,1.2-9.1,9-13.8,4.4c-3.4-3.3-1.3-9.8-1.2-9.8
						C905.1,529.3,914.8,527,921.8,518.1z M908,503.7c4.3-4.4,9.3,0.9,4.5,8.4c-4.9,7.6-11.3,7.4-11.4,7.6
						C901.5,516.7,903.2,508.5,908,503.7z"/>
					<path class="st13" d="M823.2,452.6c-1.1-0.6-2.7-1-4.7-1h-6.1l0.7,8.4h6.3c4,0,5.8-1.4,5.6-4.2
						C824.9,454.3,824.3,453.3,823.2,452.6z"/>
					<path class="st7" d="M823.2,413.5c-18.3,0.8-32.2,15.5-31.8,33.8c0.2,12.4,6.7,23.5,16.2,30.6c1,0.7,1.6,1.8,1.7,3l0.7,8
						c0,0.6,0.4,1.2,1,1.5l0.2,0.1c0.5,0.3,1.2,0.2,1.6-0.1l6.5-4.9c0.8-0.6,2-0.9,3.1-0.6c2.8,0.6,5.6,1,8.5,1
						c20.2,0,35.1-16.2,33.4-36.2C862.7,429.1,844,412.6,823.2,413.5z M830.2,460.6c-0.7,1.3-1.8,2.2-3.1,2.9
						c-0.8,0.4-1.8,0.6-3,0.8s-2.5,0.2-4,0.2h-8.9c-1.3,0-2.2-0.3-2.8-0.9c-0.6-0.6-0.9-1.5-1-2.7l-1.8-21.6
						c-0.1-1.3,0.1-2.2,0.6-2.7s1.4-0.8,2.7-0.8h9.4c1.4,0,2.6,0.1,3.6,0.2c1,0.2,2,0.5,2.8,1c0.7,0.4,1.4,0.9,2,1.5s1,1.3,1.4,2.1
						s0.5,1.5,0.6,2.4c0.2,2.9-1,5-3.8,6.3c3.9,1.2,6,3.5,6.3,7C831.2,457.8,830.9,459.3,830.2,460.6z M850.9,461.7
						c-0.6,1-1.6,1.9-3,2.4s-3.1,0.8-5.1,0.8c-1.9,0-3.6-0.3-5.1-0.9s-2.5-1.3-3.2-2.2c-0.7-0.9-1.1-1.8-1.2-2.7
						c0-0.6,0.1-1.1,0.5-1.5s0.9-0.6,1.5-0.6c0.6,0,1,0.1,1.3,0.4s0.7,0.7,1,1.2c0.6,1,1.4,1.7,2.2,2.1s1.9,0.7,3.2,0.7
						c1.1,0,2-0.2,2.6-0.7c0.7-0.5,1-1,0.9-1.6c-0.1-0.9-0.5-1.6-1.2-2.1s-2-0.8-3.7-1.2c-1.9-0.5-3.5-0.9-4.7-1.4
						c-1.2-0.5-2.2-1.2-3-2c-0.8-0.8-1.2-1.8-1.3-3c-0.1-1.1,0.2-2.1,0.7-3c0.6-1,1.5-1.7,2.7-2.3c1.2-0.6,2.7-0.9,4.5-0.9
						c1.4,0,2.7,0.1,3.8,0.4c1.1,0.3,2.1,0.7,2.9,1.2c0.8,0.5,1.4,1,1.8,1.6s0.7,1.2,0.7,1.7c0,0.6-0.1,1.1-0.5,1.5s-1,0.6-1.7,0.6
						c-0.6,0-1-0.2-1.5-0.5c-0.4-0.3-0.9-0.8-1.5-1.4c-0.5-0.5-1-0.9-1.5-1.2c-0.6-0.3-1.3-0.5-2.3-0.5c-1,0-1.8,0.2-2.4,0.6
						s-0.9,0.9-0.8,1.5c0,0.6,0.3,1,0.8,1.4c0.5,0.4,1.2,0.6,2,0.9c0.8,0.2,2,0.5,3.4,0.9c1.7,0.4,3.1,0.9,4.2,1.5
						c1.1,0.6,2,1.2,2.6,2c0.6,0.8,1,1.6,1,2.6C851.8,459.4,851.5,460.6,850.9,461.7z"/>
					<path class="st13" d="M820.8,447.1c0.8-0.3,1.3-0.8,1.7-1.6c0.3-0.5,0.4-1.2,0.3-1.8c-0.1-1.5-0.7-2.4-1.8-2.9
						c-1.1-0.5-2.7-0.7-4.8-0.7h-4.8l0.6,7.4h5.4C818.9,447.5,820.1,447.3,820.8,447.1z"/>
				</g>
			</g>
		</g>
		<g>
			<path class="st12" d="M715.4,387.3c-0.1-1.3,0.1-2.4,0.7-3.2s1.4-1.2,2.4-1.2s1.8,0.3,2.5,1l-0.3-4.5h1.5l1,12.2h-1.4l-0.1-0.9
				c-0.5,0.7-1.3,1.1-2.4,1.1c-1,0-1.8-0.4-2.5-1.2s-1.1-1.9-1.2-3.2L715.4,387.3z M716.9,387.5c0.1,1,0.3,1.7,0.8,2.3
				c0.5,0.5,1,0.8,1.7,0.8c0.9,0,1.6-0.4,2-1.2l-0.3-3.9c-0.5-0.8-1.2-1.2-2.1-1.2c-0.7,0-1.3,0.3-1.6,0.8
				C716.9,385.6,716.8,386.4,716.9,387.5z"/>
			<path class="st12" d="M728.9,391.9c-1.2,0-2.2-0.4-3-1.1c-0.8-0.8-1.2-1.8-1.3-3.1l0-0.3c-0.1-0.9,0-1.6,0.3-2.3s0.7-1.2,1.2-1.6
				s1.2-0.6,1.9-0.6c1.1,0,2,0.4,2.7,1.1s1.1,1.8,1.2,3.1l0,0.6h-5.9c0.1,0.8,0.4,1.5,0.9,2c0.5,0.5,1.1,0.8,1.9,0.8
				c0.5,0,1-0.1,1.3-0.3c0.3-0.2,0.6-0.5,0.9-0.8l1,0.7C731.4,391.3,730.4,391.9,728.9,391.9z M728.1,384.2c-0.6,0-1.1,0.2-1.5,0.6
				s-0.6,1-0.6,1.8h4.3l0-0.1c-0.1-0.7-0.3-1.3-0.7-1.7C729.2,384.4,728.7,384.2,728.1,384.2z"/>
			<path class="st12" d="M738.8,389.4c0-0.4-0.2-0.7-0.5-0.9c-0.3-0.2-0.9-0.4-1.6-0.6s-1.4-0.4-1.8-0.6s-0.8-0.5-1-0.8
				c-0.2-0.3-0.4-0.7-0.4-1.1c-0.1-0.7,0.2-1.3,0.8-1.8c0.6-0.5,1.3-0.7,2.2-0.7c1,0,1.8,0.2,2.4,0.8s1,1.1,1.1,1.9h-1.5
				c0-0.4-0.2-0.8-0.6-1s-0.8-0.4-1.3-0.4c-0.5,0-1,0.1-1.2,0.4s-0.4,0.5-0.4,0.9c0,0.4,0.2,0.6,0.5,0.8s0.8,0.4,1.6,0.5
				s1.4,0.4,1.8,0.6c0.5,0.2,0.8,0.5,1.1,0.8c0.2,0.3,0.4,0.7,0.4,1.2c0.1,0.8-0.2,1.4-0.8,1.8s-1.4,0.7-2.3,0.7
				c-0.7,0-1.3-0.1-1.9-0.4s-1-0.6-1.3-1c-0.3-0.4-0.5-0.9-0.6-1.4h1.5c0.1,0.5,0.3,0.9,0.7,1.2s0.9,0.4,1.5,0.4
				c0.6,0,1-0.1,1.3-0.3C738.7,390.1,738.9,389.8,738.8,389.4z"/>
			<path class="st12" d="M741.7,387.3c-0.1-1.3,0.1-2.4,0.7-3.2s1.4-1.2,2.4-1.2s1.8,0.3,2.5,1l-0.4-4.5h1.5l1,12.2H748l-0.2-0.9
				c-0.5,0.7-1.3,1.1-2.4,1.1c-1,0-1.8-0.4-2.5-1.2s-1.1-1.9-1.2-3.2L741.7,387.3z M743.2,387.5c0.1,1,0.3,1.7,0.8,2.3
				c0.5,0.5,1,0.8,1.7,0.8c0.9,0,1.6-0.4,2-1.2l-0.3-3.9c-0.5-0.8-1.2-1.2-2.1-1.2c-0.7,0-1.3,0.3-1.6,0.8
				C743.2,385.6,743.1,386.4,743.2,387.5z"/>
			<path class="st12" d="M755.2,391.9c-1.2,0-2.2-0.4-3-1.1c-0.8-0.8-1.2-1.8-1.3-3.1l0-0.3c-0.1-0.9,0-1.6,0.3-2.3
				c0.3-0.7,0.7-1.2,1.2-1.6s1.2-0.6,1.9-0.6c1.1,0,2,0.4,2.7,1.1s1.1,1.8,1.2,3.1l0,0.6h-5.9c0.1,0.8,0.4,1.5,0.9,2
				c0.5,0.5,1.2,0.8,1.9,0.8c0.5,0,1-0.1,1.3-0.3c0.3-0.2,0.6-0.5,0.9-0.8l1,0.7C757.7,391.3,756.7,391.9,755.2,391.9z M754.5,384.2
				c-0.6,0-1.1,0.2-1.5,0.6s-0.6,1-0.6,1.8h4.3l0-0.1c-0.1-0.7-0.3-1.3-0.8-1.7C755.6,384.4,755.1,384.2,754.5,384.2z"/>
			<path class="st12" d="M766,391.7h-1.5l-1-12.2h1.5L766,391.7z"/>
			<path class="st12" d="M773.7,391.7c-0.1-0.2-0.2-0.5-0.3-0.9c-0.6,0.7-1.4,1.1-2.4,1.1c-0.8,0-1.6-0.2-2.2-0.7
				c-0.6-0.5-0.9-1.1-1-1.8c-0.1-0.9,0.2-1.6,0.9-2.1c0.6-0.5,1.6-0.7,2.8-0.7h1.4l0-0.7c0-0.5-0.2-0.9-0.6-1.2s-0.8-0.5-1.4-0.5
				c-0.5,0-1,0.1-1.3,0.4c-0.3,0.3-0.5,0.6-0.5,1h-1.5c0-0.4,0.1-0.8,0.4-1.2c0.3-0.4,0.7-0.7,1.2-1c0.5-0.2,1.1-0.4,1.7-0.4
				c1,0,1.8,0.2,2.4,0.7c0.6,0.5,1,1.2,1,2l0.3,3.9c0.1,0.8,0.2,1.4,0.5,1.9l0,0.1H773.7z M771.1,390.6c0.5,0,0.9-0.1,1.3-0.4
				c0.4-0.2,0.7-0.5,0.8-0.9l-0.1-1.8H772c-1.8,0-2.7,0.5-2.6,1.6c0,0.5,0.2,0.8,0.5,1.1C770.2,390.5,770.7,390.6,771.1,390.6z"/>
			<path class="st12" d="M786.6,391.7c-0.1-0.2-0.2-0.5-0.3-0.9c-0.6,0.7-1.4,1.1-2.4,1.1c-0.8,0-1.6-0.2-2.2-0.7
				c-0.6-0.5-0.9-1.1-1-1.8c-0.1-0.9,0.2-1.6,0.9-2.1c0.6-0.5,1.6-0.7,2.8-0.7h1.4l-0.1-0.7c0-0.5-0.2-0.9-0.6-1.2s-0.8-0.5-1.4-0.5
				c-0.5,0-1,0.1-1.3,0.4c-0.3,0.3-0.5,0.6-0.5,1h-1.5c0-0.4,0.1-0.8,0.4-1.2c0.3-0.4,0.7-0.7,1.2-1c0.5-0.2,1.1-0.4,1.7-0.4
				c1,0,1.8,0.2,2.4,0.7c0.6,0.5,1,1.2,1,2l0.3,3.9c0.1,0.8,0.2,1.4,0.5,1.9l0,0.1H786.6z M784.1,390.6c0.5,0,0.9-0.1,1.3-0.4
				c0.4-0.2,0.7-0.5,0.8-0.9l-0.1-1.8h-1.2c-1.8,0-2.7,0.5-2.6,1.6c0,0.5,0.2,0.8,0.5,1.1C783.2,390.5,783.6,390.6,784.1,390.6z"/>
			<path class="st12" d="M797.2,387.5c0.1,1.3-0.1,2.4-0.6,3.1c-0.5,0.8-1.3,1.2-2.3,1.2c-1,0-1.9-0.3-2.6-1l0.3,4.1h-1.5l-1-11.9
				h1.3l0.2,1c0.5-0.7,1.3-1.1,2.4-1.1c1,0,1.9,0.4,2.6,1.2c0.7,0.8,1.1,1.9,1.2,3.2L797.2,387.5z M795.7,387.3
				c-0.1-1-0.3-1.7-0.8-2.3s-1-0.8-1.8-0.8c-0.9,0-1.5,0.4-1.9,1.2l0.3,4.1c0.5,0.8,1.2,1.2,2.1,1.2c0.7,0,1.2-0.3,1.6-0.8
				C795.6,389.3,795.8,388.4,795.7,387.3z"/>
			<path class="st12" d="M806.3,387.5c0.1,1.3-0.1,2.4-0.6,3.1c-0.5,0.8-1.3,1.2-2.3,1.2c-1,0-1.9-0.3-2.6-1l0.3,4.1h-1.5l-1-11.9
				h1.3l0.2,1c0.5-0.7,1.3-1.1,2.4-1.1c1,0,1.9,0.4,2.6,1.2c0.7,0.8,1.1,1.9,1.2,3.2L806.3,387.5z M804.8,387.3
				c-0.1-1-0.3-1.7-0.8-2.3s-1-0.8-1.8-0.8c-0.9,0-1.5,0.4-1.9,1.2l0.3,4.1c0.5,0.8,1.2,1.2,2.1,1.2c0.7,0,1.2-0.3,1.6-0.8
				C804.8,389.3,804.9,388.4,804.8,387.3z"/>
			<path class="st12" d="M811.9,387.3c-0.1-1.3,0.1-2.4,0.7-3.2c0.6-0.8,1.3-1.2,2.4-1.2c1,0,1.8,0.3,2.5,1l-0.4-4.5h1.5l1,12.2
				h-1.4l-0.2-0.9c-0.5,0.7-1.3,1.1-2.4,1.1c-1,0-1.8-0.4-2.5-1.2s-1.1-1.9-1.2-3.2L811.9,387.3z M813.4,387.5
				c0.1,1,0.3,1.7,0.8,2.3s1,0.8,1.8,0.8c0.9,0,1.6-0.4,2-1.2l-0.3-3.9c-0.5-0.8-1.2-1.2-2.1-1.2c-0.7,0-1.3,0.3-1.6,0.8
				C813.4,385.6,813.3,386.4,813.4,387.5z"/>
			<path class="st12" d="M825.4,391.9c-1.2,0-2.2-0.4-3-1.1c-0.8-0.8-1.2-1.8-1.4-3.1l0-0.3c-0.1-0.9,0-1.6,0.3-2.3
				c0.3-0.7,0.7-1.2,1.2-1.6c0.6-0.4,1.2-0.6,1.9-0.6c1.1,0,2,0.4,2.7,1.1s1.1,1.8,1.2,3.1l0,0.6h-5.9c0.1,0.8,0.4,1.5,0.9,2
				c0.5,0.5,1.2,0.8,1.9,0.8c0.5,0,1-0.1,1.3-0.3c0.3-0.2,0.6-0.5,0.9-0.8l1,0.7C827.9,391.3,826.9,391.9,825.4,391.9z M824.6,384.2
				c-0.6,0-1.1,0.2-1.5,0.6s-0.6,1-0.6,1.8h4.3l0-0.1c-0.1-0.7-0.4-1.3-0.8-1.7S825.2,384.2,824.6,384.2z"/>
			<path class="st12" d="M835.7,381l0.2,2.1h1.6l0.1,1.1h-1.6l0.5,5.3c0,0.3,0.1,0.6,0.3,0.8c0.2,0.2,0.4,0.3,0.8,0.3
				c0.2,0,0.4,0,0.7-0.1l0.1,1.2c-0.4,0.1-0.8,0.2-1.1,0.2c-0.7,0-1.2-0.2-1.5-0.6c-0.4-0.4-0.6-1-0.7-1.7l-0.5-5.3h-1.6l-0.1-1.1
				h1.6l-0.2-2.1H835.7z"/>
			<path class="st12" d="M845.2,390.9c-0.5,0.7-1.3,1-2.5,1c-0.9,0-1.7-0.3-2.2-0.8c-0.5-0.5-0.8-1.3-0.9-2.4l-0.5-5.6h1.5l0.5,5.5
				c0.1,1.3,0.7,2,1.8,2c1.1,0,1.8-0.4,2.2-1.2l-0.5-6.2h1.5l0.7,8.6h-1.4L845.2,390.9z"/>
			<path class="st12" d="M859.9,387.5c0.1,1.3-0.1,2.4-0.6,3.2c-0.5,0.8-1.3,1.2-2.3,1.2c-1.1,0-2-0.4-2.6-1.1l0,1H853l-1-12.2h1.5
				l0.4,4.5c0.5-0.7,1.3-1.1,2.4-1.1s1.9,0.4,2.6,1.2c0.7,0.8,1.1,1.9,1.2,3.2L859.9,387.5z M858.5,387.3c-0.1-1-0.3-1.8-0.8-2.3
				c-0.4-0.5-1-0.8-1.8-0.8c-1,0-1.6,0.5-2,1.4l0.3,3.7c0.5,0.9,1.3,1.4,2.2,1.4c0.7,0,1.2-0.3,1.6-0.8
				C858.4,389.2,858.5,388.4,858.5,387.3z"/>
			<path class="st12" d="M867.5,391.7c-0.1-0.2-0.2-0.5-0.3-0.9c-0.6,0.7-1.4,1.1-2.4,1.1c-0.8,0-1.6-0.2-2.2-0.7
				c-0.6-0.5-0.9-1.1-1-1.8c-0.1-0.9,0.2-1.6,0.8-2.1c0.6-0.5,1.6-0.7,2.8-0.7h1.4l-0.1-0.7c0-0.5-0.2-0.9-0.6-1.2s-0.8-0.5-1.4-0.5
				c-0.5,0-1,0.1-1.3,0.4c-0.3,0.3-0.5,0.6-0.5,1h-1.5c0-0.4,0.1-0.8,0.3-1.2c0.3-0.4,0.7-0.7,1.2-1c0.5-0.2,1.1-0.4,1.7-0.4
				c1,0,1.8,0.2,2.4,0.7c0.6,0.5,1,1.2,1,2l0.3,3.9c0.1,0.8,0.2,1.4,0.5,1.9l0,0.1H867.5z M865,390.6c0.5,0,0.9-0.1,1.3-0.4
				c0.4-0.2,0.7-0.5,0.8-0.9l-0.2-1.8h-1.2c-1.8,0-2.7,0.5-2.6,1.6c0,0.5,0.2,0.8,0.6,1.1C864.1,390.5,864.5,390.6,865,390.6z"/>
			<path class="st12" d="M871.7,383.1l0.1,1.1c0.6-0.8,1.4-1.2,2.5-1.2c1.8,0,2.8,1,3,3.1l0.5,5.7h-1.5l-0.5-5.7
				c-0.1-0.6-0.2-1.1-0.5-1.4c-0.3-0.3-0.8-0.4-1.3-0.4c-0.5,0-0.9,0.1-1.2,0.4c-0.3,0.2-0.6,0.6-0.8,1l0.5,6.1h-1.5l-0.7-8.6
				L871.7,383.1L871.7,383.1z"/>
			<path class="st12" d="M883.5,390.7c0.5,0,1-0.2,1.3-0.5c0.4-0.3,0.5-0.7,0.5-1.2h1.4c0,0.5-0.1,1-0.4,1.4s-0.7,0.8-1.2,1.1
				s-1,0.4-1.6,0.4c-1.2,0-2.2-0.4-2.9-1.2c-0.8-0.8-1.2-1.8-1.3-3.2l0-0.2c-0.1-0.8,0-1.6,0.3-2.2c0.2-0.6,0.7-1.1,1.2-1.5
				c0.5-0.4,1.2-0.5,2-0.5c1,0,1.8,0.3,2.5,0.9c0.7,0.6,1.1,1.3,1.2,2.2h-1.4c-0.1-0.5-0.3-1-0.8-1.4s-0.9-0.5-1.5-0.5
				c-0.8,0-1.3,0.3-1.7,0.8c-0.4,0.5-0.5,1.3-0.4,2.3l0,0.3c0.1,1,0.4,1.8,0.8,2.3C882.1,390.4,882.7,390.7,883.5,390.7z"/>
			<path class="st12" d="M887.9,387.3c-0.1-0.8,0-1.6,0.3-2.3c0.3-0.7,0.7-1.2,1.3-1.5c0.6-0.4,1.2-0.5,2-0.5c1.2,0,2.2,0.4,3,1.2
				c0.8,0.8,1.2,1.9,1.4,3.2l0,0.1c0.1,0.8,0,1.6-0.3,2.2s-0.7,1.2-1.2,1.5s-1.2,0.5-2,0.5c-1.2,0-2.2-0.4-3-1.2
				C888.5,389.8,888,388.8,887.9,387.3L887.9,387.3z M889.4,387.5c0.1,1,0.4,1.7,0.9,2.3c0.5,0.6,1.1,0.9,1.9,0.9s1.3-0.3,1.7-0.9
				c0.4-0.6,0.5-1.4,0.5-2.5c-0.1-0.9-0.4-1.7-0.9-2.3c-0.5-0.6-1.1-0.9-1.9-0.9c-0.7,0-1.3,0.3-1.7,0.9
				C889.5,385.6,889.3,386.4,889.4,387.5z"/>
			<path class="st12" d="M905.6,391.9c-1.2,0-2.2-0.4-3-1.1c-0.8-0.8-1.3-1.8-1.4-3.1l0-0.3c-0.1-0.9,0-1.6,0.3-2.3
				c0.3-0.7,0.7-1.2,1.2-1.6s1.2-0.6,1.9-0.6c1.1,0,2,0.4,2.7,1.1c0.7,0.7,1.1,1.8,1.2,3.1l0,0.6h-5.9c0.1,0.8,0.4,1.5,0.9,2
				c0.5,0.5,1.2,0.8,1.9,0.8c0.5,0,1-0.1,1.3-0.3c0.3-0.2,0.6-0.5,0.9-0.8l1,0.7C908.1,391.3,907.1,391.9,905.6,391.9z M904.8,384.2
				c-0.6,0-1.1,0.2-1.5,0.6s-0.6,1-0.6,1.8h4.3l0-0.1c-0.1-0.7-0.4-1.3-0.8-1.7C905.9,384.4,905.4,384.2,904.8,384.2z"/>
			<path class="st12" d="M911.4,383.1l0.1,1.1c0.6-0.8,1.4-1.2,2.5-1.2c1.8,0,2.8,1,3,3.1l0.5,5.7H916l-0.5-5.7
				c-0.1-0.6-0.2-1.1-0.5-1.4s-0.8-0.4-1.3-0.4c-0.5,0-0.9,0.1-1.2,0.4c-0.3,0.2-0.6,0.6-0.8,1l0.5,6.1h-1.5l-0.8-8.6L911.4,383.1
				L911.4,383.1z"/>
		</g>
	</g>
</g>
</svg>
