<svg width="600" height="600" viewBox="0 0 600 600" fill="none" xmlns="http://www.w3.org/2000/svg">
<g clip-path="url(#clip0_14643_15406)">
<path d="M600 260.845C600 397.287 502.649 534.072 300 534.072C134.315 534.072 0 423.464 0 287.022C0 211 31.1881 118.504 111.386 95.5988C191.584 72.6934 199.187 148.812 285.326 148.811C371.465 148.811 423.913 99.8374 510.326 121.059C575.543 137.076 600 195.38 600 260.845Z" fill="#8B3D99"/>
<path fill-rule="evenodd" clip-rule="evenodd" d="M356.671 141C356.671 141 294.33 108.356 266.603 108.2C266.603 108.2 228.136 125.423 236.239 132.74C244.338 140.057 269.143 142.93 269.143 142.93L356.671 141Z" fill="#10CBB4"/>
<path fill-rule="evenodd" clip-rule="evenodd" d="M356.671 142.929C356.671 142.929 260.416 104.883 241.252 108.463L238.977 133.905L356.671 142.929Z" fill="#008C7B"/>
<path fill-rule="evenodd" clip-rule="evenodd" d="M247.794 173.397C258.375 168.429 290.518 155.645 354.981 147.61C359.385 147.06 359.94 141.185 355.701 139.926C336.397 134.202 297.702 126.479 231.482 127.604C228.651 127.654 226.684 130.36 227.648 132.901L242.103 171.178C242.938 173.39 245.581 174.434 247.794 173.397Z" fill="#10CBB4"/>
<path d="M491.102 456.361C491.406 454.236 491.566 452.067 491.566 449.859C491.566 424.126 470.266 403.267 443.991 403.267C439.059 403.267 434.301 404.002 429.827 405.365C421.939 394.658 409.088 387.687 394.573 387.687C377.693 387.687 363.062 397.113 355.869 410.882C347.655 403.947 336.96 399.752 325.263 399.752C308.439 399.752 293.69 408.43 285.417 421.461C266.9 425.673 251.958 439.004 245.783 456.361H491.102Z" fill="#A35AAD"/>
<path d="M600 230.458C597.737 218.404 587.138 209.281 574.395 209.281C573.266 209.281 572.157 209.36 571.068 209.5C565.279 196.93 552.547 188.202 537.77 188.202C531.434 188.202 525.472 189.809 520.274 192.633C512.832 184.767 502.284 179.855 490.586 179.855C473.878 179.855 459.519 189.871 453.206 204.209C450.104 203.101 446.765 202.495 443.281 202.495C427.487 202.495 414.599 214.889 413.855 230.458H600Z" fill="#A35AAD"/>
<path d="M184.305 192.504C184.32 192.081 184.337 191.657 184.337 191.229C184.337 171.231 168.028 155.02 147.909 155.02C147.136 155.02 146.37 155.052 145.609 155.1C137.2 141.749 122.282 132.868 105.27 132.868C88.2587 132.868 73.321 141.762 64.9141 155.126C64.0336 155.063 63.1466 155.02 62.2509 155.02C50.9634 155.02 40.8759 160.124 34.193 168.137C32.6842 167.904 31.1363 167.783 29.5623 167.783C14.742 167.783 2.43925 178.466 0 192.506H184.305V192.504ZM135.037 143.303C134.248 142.659 133.428 142.073 132.465 141.386C133.344 141.998 134.202 142.635 135.037 143.303Z" fill="#A35AAD"/>
<mask id="mask0_14643_15406" style="mask-type:alpha" maskUnits="userSpaceOnUse" x="0" y="91" width="600" height="444">
<path d="M600 260.845C600 397.287 502.649 534.072 300 534.072C134.315 534.072 0 423.464 0 287.022C0 211 31.1881 118.504 111.386 95.5988C191.584 72.6935 199.187 148.812 285.326 148.811C371.465 148.811 423.913 99.8374 510.326 121.059C575.543 137.076 600 195.38 600 260.845Z" fill="#8B3D99"/>
</mask>
<g mask="url(#mask0_14643_15406)">
<path d="M624.438 624.031C642.93 636.718 668.397 633.618 683.268 616.174C699.166 597.521 696.929 569.504 678.259 553.609C641.476 522.268 608.668 486.381 580.751 446.932C552.665 407.223 529.613 364.054 512.253 318.615C503.508 295.717 477.856 284.244 454.958 292.989C432.06 301.734 420.587 327.385 429.332 350.283C449.346 402.666 475.897 452.444 508.289 498.199C540.472 543.666 578.289 585.054 620.686 621.186C621.895 622.213 623.146 623.161 624.423 624.052L624.438 624.031Z" fill="#DCAC82"/>
<path d="M477.924 378.254C502.12 374.335 518.558 351.543 514.638 327.347C510.719 303.15 487.927 286.713 463.73 290.633C439.534 294.552 423.097 317.344 427.017 341.54C430.936 365.736 453.728 382.174 477.924 378.254Z" fill="#DCAC82"/>
<path d="M473.286 274.787L498.31 299.598L443.325 369.274L398.326 374.585L387.752 284.884L473.286 274.787Z" fill="#DCAC82"/>
<path d="M514.893 329.248C514.178 322.062 512.535 311.142 508.227 298.532C502.53 281.902 496.447 274.993 490.742 261.871C487.161 253.639 483.291 241.965 481.766 226.44C481.121 219.908 475.349 215.142 468.829 215.856C462.805 216.526 458.246 221.689 458.417 227.74C458.759 239.177 460.227 250.79 462.94 262.436C459.585 266.594 452.779 276.311 451.656 290.143C449.597 315.511 468.491 332.449 470.813 334.464L514.896 329.266L514.893 329.248Z" fill="#DCAC82"/>
<path d="M482.986 342.887C478.953 338.864 466.587 325.473 463.784 303.95C461.105 283.415 468.755 267.914 471.563 262.819C469.761 261.799 466.534 259.642 463.832 255.727C461.063 251.734 460.202 247.863 459.902 245.789C460.391 249.145 460.968 252.594 461.652 256.152C462.072 258.296 462.5 260.385 462.955 262.415C448.64 272.413 441.216 289.532 443.986 306.186C447.154 325.186 463.017 340.295 482.983 342.869L482.986 342.887Z" fill="#9F7554"/>
<g clip-path="url(#clip1_14643_15406)">
<path d="M475.657 363.033L455.16 191.629C454.7 187.779 451.198 185.033 447.339 185.494L371.415 194.573C367.556 195.035 364.801 198.53 365.262 202.379L385.758 373.783C386.219 377.632 389.72 380.379 393.579 379.917L469.503 370.838C473.362 370.377 476.117 366.882 475.657 363.033Z" fill="#7D758D"/>
<path d="M475.014 357.657L454.517 186.253C454.057 182.404 450.556 179.657 446.697 180.119L370.772 189.198C366.914 189.659 364.158 193.154 364.619 197.004L385.116 368.407C385.576 372.257 389.078 375.003 392.936 374.542L468.861 365.463C472.72 365.001 475.475 361.507 475.014 357.657Z" fill="#69607B"/>
<path d="M469.733 350.51L451.07 194.444C450.841 192.534 449.104 191.171 447.19 191.4L372.936 200.28C371.021 200.509 369.654 202.243 369.883 204.153L388.546 360.219C388.774 362.128 390.511 363.491 392.426 363.262L466.68 354.383C468.594 354.154 469.961 352.42 469.733 350.51Z" fill="#F6E1F9"/>
<path d="M400.584 193.357L418.689 191.192C419.74 191.066 420.491 190.114 420.366 189.065L420.338 188.832C420.212 187.783 419.258 187.035 418.207 187.16L400.101 189.326C399.05 189.451 398.299 190.404 398.425 191.453L398.452 191.686C398.578 192.734 399.532 193.483 400.584 193.357Z" fill="#544A69"/>
</g>
<path d="M418.498 262.744C431.491 261.19 440.764 249.398 439.21 236.406C437.656 223.413 425.864 214.14 412.872 215.694C399.879 217.248 390.607 229.04 392.16 242.032C393.714 255.025 405.506 264.298 418.498 262.744Z" fill="#CE92D6"/>
<path fill-rule="evenodd" clip-rule="evenodd" d="M421.66 242.702C424.369 242.378 426.988 243.586 428.286 245.759L429.216 247.316C430.098 248.792 429.493 250.669 427.865 251.51C427.729 251.58 427.588 251.642 427.443 251.694C424.304 252.831 421.12 253.593 417.892 253.979C414.664 254.365 411.39 254.376 408.072 254.011C406.238 253.809 404.961 252.278 405.22 250.592C405.241 250.451 405.273 250.311 405.316 250.174L405.853 248.441C406.602 246.024 408.863 244.233 411.571 243.909L421.66 242.702ZM414.245 223.484C418.456 222.98 422.277 225.985 422.781 230.196L423.145 233.245C423.649 237.456 420.644 241.277 416.433 241.781C412.223 242.284 408.401 239.279 407.898 235.069L407.533 232.019C407.03 227.809 410.035 223.987 414.245 223.484Z" fill="#8B3D99"/>
<path d="M391.704 288.105C391.482 286.249 392.807 284.565 394.663 284.343L446.754 278.114C448.61 277.892 450.294 279.216 450.516 281.072C450.738 282.928 449.414 284.613 447.557 284.835L395.467 291.064C393.611 291.286 391.926 289.961 391.704 288.105Z" fill="#CE92D6"/>
<path d="M394.015 307.43C393.793 305.573 395.118 303.889 396.974 303.667L449.065 297.438C450.921 297.216 452.605 298.541 452.827 300.397C453.049 302.253 451.725 303.937 449.869 304.159L397.778 310.388C395.922 310.61 394.237 309.286 394.015 307.43Z" fill="#CE92D6"/>
<path d="M396.326 326.753C396.104 324.897 397.429 323.213 399.285 322.991L451.376 316.762C453.232 316.54 454.916 317.864 455.138 319.72C455.36 321.576 454.035 323.261 452.179 323.483L400.089 329.712C398.232 329.934 396.548 328.609 396.326 326.753Z" fill="#CE92D6"/>
<path d="M375.1 270.604C381.054 271.968 386.987 268.248 388.351 262.294C389.716 256.34 385.995 250.407 380.042 249.043L369.382 246.6C363.428 245.235 357.496 248.956 356.131 254.91C354.766 260.863 358.487 266.796 364.441 268.161L375.1 270.604Z" fill="#DCAC82"/>
<path d="M380.315 300.427C386.41 300.822 391.672 296.201 392.067 290.106C392.462 284.01 387.841 278.749 381.746 278.353L368.707 277.508C362.612 277.113 357.35 281.734 356.955 287.83C356.56 293.925 361.181 299.187 367.276 299.582L380.315 300.427Z" fill="#DCAC82"/>
<path d="M382.714 329.501C388.82 329.349 393.647 324.275 393.494 318.168C393.341 312.062 388.267 307.236 382.161 307.388L369.49 307.705C363.383 307.857 358.557 312.931 358.709 319.038C358.862 325.144 363.936 329.97 370.042 329.818L382.714 329.501Z" fill="#DCAC82"/>
<path d="M388.279 359.078C394.385 358.926 399.211 353.852 399.059 347.745C398.906 341.639 393.832 336.813 387.726 336.965L376.74 337.24C370.634 337.392 365.808 342.466 365.96 348.573C366.113 354.679 371.187 359.505 377.293 359.353L388.279 359.078Z" fill="#DCAC82"/>
<path d="M21.0604 687.199C5.00555 702.854 -20.6172 704.169 -38.2425 689.505C-57.0904 673.845 -59.6694 645.858 -44.0091 627.01C-13.1213 589.845 13.0648 548.883 33.8364 505.242C54.7379 461.316 70.0621 414.849 79.3979 367.112C84.1017 343.051 107.422 327.358 131.463 332.077C155.524 336.781 171.199 360.099 166.498 384.142C155.744 439.173 138.077 492.751 113.976 543.381C90.0472 593.677 59.8619 640.908 24.2505 683.756C23.2367 684.976 22.18 686.119 21.0579 687.216L21.0604 687.199Z" fill="#FCDABA"/>
<path d="M116.761 419.576C141.035 422.983 163.474 406.067 166.882 381.794C170.289 357.52 153.373 335.081 129.1 331.673C104.826 328.266 82.3866 345.182 78.9795 369.455C75.5724 393.729 92.4879 416.168 116.761 419.576Z" fill="#FCDABA"/>
<path d="M118.615 316.075L94.3745 341.642L151.489 409.588L196.635 413.505L204.426 323.513L118.615 316.075Z" fill="#FCDABA"/>
<path d="M78.7066 371.784C79.1962 364.592 80.505 353.607 84.4256 340.874C89.5991 324.068 95.4716 316.968 100.759 303.692C104.08 295.356 107.582 283.568 108.638 267.994C109.072 261.458 114.716 256.496 121.24 257.017C127.284 257.507 131.996 262.506 132.006 268.567C132.014 280.005 130.915 291.665 128.554 303.38C132.036 307.437 139.146 316.932 140.689 330.719C143.538 356.019 125.16 373.536 122.916 375.605L78.7066 371.784Z" fill="#FCDABA"/>
<path d="M111.027 384.44C114.925 380.291 126.878 366.533 129.014 344.927C131.047 324.309 122.933 309.062 119.979 304.058C121.744 302.979 124.912 300.717 127.495 296.741C130.129 292.665 130.875 288.754 131.111 286.69C130.728 290.06 130.259 293.526 129.683 297.12C129.344 299.278 128.96 301.375 128.584 303.419C143.196 312.982 151.136 329.854 148.895 346.588C146.323 365.677 130.941 381.266 111.042 384.46L111.027 384.44Z" fill="#DCAC82"/>
<g clip-path="url(#clip2_14643_15406)">
<path d="M209.707 410.683L224.798 238.718C225.137 234.856 222.273 231.45 218.402 231.11L142.229 224.426C138.358 224.086 134.945 226.941 134.606 230.803L119.515 402.767C119.176 406.629 122.039 410.036 125.911 410.375L202.083 417.06C205.955 417.4 209.368 414.545 209.707 410.683Z" fill="#403556"/>
<path d="M210.18 405.289L225.271 233.325C225.61 229.463 222.747 226.057 218.875 225.717L142.703 219.033C138.831 218.693 135.418 221.548 135.079 225.41L119.988 397.374C119.649 401.236 122.513 404.643 126.384 404.982L202.557 411.667C206.428 412.007 209.841 409.151 210.18 405.289Z" fill="#2C2044"/>
<path d="M206.477 397.211L220.217 240.635C220.386 238.719 218.965 237.029 217.044 236.86L142.547 230.323C140.627 230.154 138.933 231.571 138.765 233.487L125.024 390.063C124.856 391.979 126.277 393.669 128.198 393.838L202.694 400.375C204.615 400.544 206.308 399.127 206.477 397.211Z" fill="#F6E1F9"/>
<path d="M171.027 229.217L189.192 230.811C190.247 230.904 191.177 230.126 191.269 229.073L191.29 228.84C191.382 227.787 190.602 226.859 189.547 226.767L171.382 225.173C170.327 225.08 169.397 225.858 169.305 226.91L169.284 227.144C169.192 228.197 169.972 229.125 171.027 229.217Z" fill="#544A69"/>
</g>
<path d="M174.33 300.805C187.365 301.948 198.859 292.309 200.003 279.274C201.147 266.239 191.508 254.745 178.473 253.601C165.438 252.457 153.944 262.097 152.8 275.132C151.656 288.166 161.295 299.661 174.33 300.805Z" fill="#CE92D6"/>
<path fill-rule="evenodd" clip-rule="evenodd" d="M181.535 281.837C184.253 282.076 186.568 283.795 187.393 286.187L187.985 287.902C188.545 289.528 187.568 291.242 185.802 291.73C185.654 291.771 185.504 291.802 185.351 291.824C182.046 292.293 178.774 292.386 175.535 292.101C172.296 291.817 169.09 291.156 165.917 290.119C164.163 289.545 163.227 287.785 163.826 286.187C163.876 286.054 163.936 285.924 164.006 285.798L164.887 284.212C166.116 282 168.696 280.711 171.414 280.949L181.535 281.837ZM178.22 261.507C182.444 261.877 185.568 265.602 185.197 269.827L184.929 272.886C184.558 277.11 180.833 280.234 176.609 279.864C172.384 279.493 169.26 275.768 169.631 271.544L169.9 268.484C170.27 264.26 173.995 261.136 178.22 261.507Z" fill="#8B3D99"/>
<path d="M142.905 320.131C143.069 318.269 144.711 316.892 146.573 317.056L198.834 321.642C200.696 321.805 202.073 323.447 201.91 325.31C201.746 327.172 200.104 328.549 198.242 328.385L145.981 323.799C144.119 323.636 142.742 321.994 142.905 320.131Z" fill="#CE92D6"/>
<path d="M141.203 339.518C141.367 337.656 143.009 336.278 144.871 336.442L197.132 341.028C198.994 341.192 200.371 342.834 200.208 344.696C200.044 346.558 198.402 347.935 196.54 347.772L144.279 343.185C142.417 343.022 141.04 341.38 141.203 339.518Z" fill="#CE92D6"/>
<path d="M139.503 358.905C139.666 357.043 141.308 355.666 143.17 355.829L195.431 360.415C197.293 360.579 198.67 362.221 198.507 364.083C198.344 365.945 196.702 367.322 194.839 367.159L142.578 362.572C140.716 362.409 139.339 360.767 139.503 358.905Z" fill="#CE92D6"/>
<path d="M227.202 306.095C233.111 304.547 236.646 298.502 235.098 292.593C233.55 286.685 227.505 283.149 221.596 284.697L211.018 287.469C205.109 289.017 201.574 295.062 203.122 300.97C204.67 306.879 210.715 310.414 216.623 308.867L227.202 306.095Z" fill="#FCDABA"/>
<path d="M225.329 337.593C231.41 337.01 235.867 331.609 235.285 325.529C234.702 319.448 229.301 314.991 223.221 315.573L210.214 316.819C204.134 317.401 199.677 322.802 200.259 328.883C200.841 334.963 206.242 339.42 212.323 338.838L225.329 337.593Z" fill="#FCDABA"/>
<path d="M223.51 367.896C229.618 367.859 234.54 362.878 234.504 356.77C234.468 350.662 229.487 345.74 223.379 345.776L210.703 345.851C204.595 345.888 199.673 350.869 199.709 356.977C199.745 363.085 204.726 368.007 210.835 367.971L223.51 367.896Z" fill="#FCDABA"/>
<path d="M217.198 397.65C223.306 397.613 228.229 392.632 228.192 386.524C228.156 380.416 223.175 375.494 217.067 375.53L206.078 375.595C199.97 375.631 195.048 380.612 195.084 386.721C195.12 392.829 200.101 397.751 206.209 397.715L217.198 397.65Z" fill="#FCDABA"/>
</g>
</g>
<defs>
<clipPath id="clip0_14643_15406">
<rect width="600" height="600" fill="white"/>
</clipPath>
<clipPath id="clip1_14643_15406">
<rect width="90.539" height="192.078" fill="white" transform="translate(363.785 190.034) rotate(-6.81922)"/>
</clipPath>
<clipPath id="clip2_14643_15406">
<rect width="90.539" height="192.078" fill="white" transform="translate(135.693 218.417) rotate(5.0153)"/>
</clipPath>
</defs>
</svg>
