<svg width="28" height="28" viewBox="0 0 28 28" fill="none" xmlns="http://www.w3.org/2000/svg">
<rect width="28" height="28" rx="14" fill="#10CBB4"/>
<path d="M11.4434 9.02637V19H9.47461V11.2959L7.10938 12.0479V10.4961L11.2314 9.02637H11.4434ZM21.4922 17.4619V19H14.6836V17.6875L17.9033 14.2354C18.2269 13.8753 18.4821 13.5586 18.6689 13.2852C18.8558 13.0072 18.9902 12.7588 19.0723 12.54C19.1589 12.3167 19.2021 12.1048 19.2021 11.9043C19.2021 11.6035 19.152 11.346 19.0518 11.1318C18.9515 10.9131 18.8034 10.7445 18.6074 10.626C18.416 10.5075 18.179 10.4482 17.8965 10.4482C17.5957 10.4482 17.3359 10.5212 17.1172 10.667C16.903 10.8128 16.7389 11.0156 16.625 11.2754C16.5156 11.5352 16.4609 11.8291 16.4609 12.1572H14.4854C14.4854 11.5648 14.6266 11.0225 14.9092 10.5303C15.1917 10.0335 15.5905 9.63932 16.1055 9.34766C16.6204 9.05143 17.2311 8.90332 17.9375 8.90332C18.6348 8.90332 19.2227 9.01725 19.7012 9.24512C20.1842 9.46842 20.5488 9.79199 20.7949 10.2158C21.0456 10.6351 21.1709 11.1364 21.1709 11.7197C21.1709 12.0479 21.1185 12.3691 21.0137 12.6836C20.9089 12.9935 20.7585 13.3034 20.5625 13.6133C20.3711 13.9186 20.1387 14.2285 19.8652 14.543C19.5918 14.8574 19.2887 15.1833 18.9561 15.5205L17.2266 17.4619H21.4922Z" fill="white"/>
</svg>
