<svg width="172" height="112" viewBox="0 0 172 112" fill="none" xmlns="http://www.w3.org/2000/svg">
<path d="M62.2827 21.7059H109.718V62.2706C109.718 62.7904 109.297 63.2118 108.777 63.2118H63.2239C62.7041 63.2118 62.2827 62.7904 62.2827 62.2706V21.7059Z" fill="#F0CEF5"/>
<path d="M70.7529 46.3647C70.7529 45.8449 71.1743 45.4235 71.6941 45.4235H100.306C100.826 45.4235 101.247 45.8449 101.247 46.3647V63.2118H70.7529V46.3647Z" fill="#CE92D6"/>
<path fill-rule="evenodd" clip-rule="evenodd" d="M66.0948 9.5769C66.3607 9.21425 66.7835 9 67.2332 9H104.767C105.217 9 105.64 9.21425 105.906 9.5769L114.8 21.7059H57.2002L66.0948 9.5769Z" fill="#F0CEF5"/>
<rect x="70.7529" y="35.2588" width="30.4941" height="6.77647" rx="0.470588" fill="#10CBB4"/>
<path d="M57.2002 21.7059H69.059V25.9412C69.059 29.2159 66.4043 31.8706 63.1296 31.8706C59.8549 31.8706 57.2002 29.2159 57.2002 25.9412V21.7059Z" fill="#8B3D99"/>
<path d="M69.0591 21.7059H80.0708V26.3647C80.0708 29.4055 77.6058 31.8706 74.565 31.8706C71.5241 31.8706 69.0591 29.4055 69.0591 26.3647V21.7059Z" fill="#CE92D6"/>
<path d="M80.0708 21.7059H91.9296V25.9412C91.9296 29.2159 89.2749 31.8706 86.0002 31.8706C82.7255 31.8706 80.0708 29.2159 80.0708 25.9412V21.7059Z" fill="#8B3D99"/>
<path d="M80.0708 21.7059H91.9296L90.2355 9H81.7649L80.0708 21.7059Z" fill="#CE92D6"/>
<path d="M57.2002 21.7059H69.059L73.2943 9H66.2625C65.3699 9 64.5427 9.46834 64.0835 10.2338L57.2002 21.7059Z" fill="#CE92D6"/>
<path d="M114.8 21.7059H102.941L98.7061 9H105.738C106.63 9 107.458 9.46834 107.917 10.2338L114.8 21.7059Z" fill="#CE92D6"/>
<path d="M91.9297 21.7059H102.941V26.3647C102.941 29.4055 100.476 31.8706 97.4356 31.8706C94.3948 31.8706 91.9297 29.4055 91.9297 26.3647V21.7059Z" fill="#CE92D6"/>
<path d="M102.941 21.7059H114.8V25.9412C114.8 29.2159 112.146 31.8706 108.871 31.8706C105.596 31.8706 102.941 29.2159 102.941 25.9412V21.7059Z" fill="#8B3D99"/>
<path d="M13.9609 100.539H10.9219V99.3125H13.9609C14.5495 99.3125 15.026 99.2188 15.3906 99.0312C15.7552 98.8438 16.0208 98.5833 16.1875 98.25C16.3594 97.9167 16.4453 97.5365 16.4453 97.1094C16.4453 96.7188 16.3594 96.3516 16.1875 96.0078C16.0208 95.6641 15.7552 95.388 15.3906 95.1797C15.026 94.9661 14.5495 94.8594 13.9609 94.8594H11.2734V105H9.76562V93.625H13.9609C14.8203 93.625 15.5469 93.7734 16.1406 94.0703C16.7344 94.3672 17.1849 94.7786 17.4922 95.3047C17.7995 95.8255 17.9531 96.4219 17.9531 97.0938C17.9531 97.8229 17.7995 98.4453 17.4922 98.9609C17.1849 99.4766 16.7344 99.8698 16.1406 100.141C15.5469 100.406 14.8203 100.539 13.9609 100.539ZM25.3125 103.047V96.5469H26.7656V105H25.3828L25.3125 103.047ZM25.5859 101.266L26.1875 101.25C26.1875 101.812 26.1276 102.333 26.0078 102.812C25.8932 103.286 25.7057 103.698 25.4453 104.047C25.1849 104.396 24.8438 104.669 24.4219 104.867C24 105.06 23.487 105.156 22.8828 105.156C22.4714 105.156 22.0938 105.096 21.75 104.977C21.4115 104.857 21.1198 104.672 20.875 104.422C20.6302 104.172 20.4401 103.846 20.3047 103.445C20.1745 103.044 20.1094 102.562 20.1094 102V96.5469H21.5547V102.016C21.5547 102.396 21.5964 102.711 21.6797 102.961C21.7682 103.206 21.8854 103.401 22.0312 103.547C22.1823 103.688 22.349 103.786 22.5312 103.844C22.7188 103.901 22.9115 103.93 23.1094 103.93C23.724 103.93 24.2109 103.812 24.5703 103.578C24.9297 103.339 25.1875 103.018 25.3438 102.617C25.5052 102.211 25.5859 101.76 25.5859 101.266ZM32.9766 105.156C32.388 105.156 31.8542 105.057 31.375 104.859C30.901 104.656 30.4922 104.372 30.1484 104.008C29.8099 103.643 29.5495 103.211 29.3672 102.711C29.1849 102.211 29.0938 101.664 29.0938 101.07V100.742C29.0938 100.055 29.1953 99.4427 29.3984 98.9062C29.6016 98.3646 29.8776 97.9062 30.2266 97.5312C30.5755 97.1562 30.9714 96.8724 31.4141 96.6797C31.8568 96.487 32.3151 96.3906 32.7891 96.3906C33.3932 96.3906 33.9141 96.4948 34.3516 96.7031C34.7943 96.9115 35.1562 97.2031 35.4375 97.5781C35.7188 97.9479 35.9271 98.3854 36.0625 98.8906C36.1979 99.3906 36.2656 99.9375 36.2656 100.531V101.18H29.9531V100H34.8203V99.8906C34.7995 99.5156 34.7214 99.151 34.5859 98.7969C34.4557 98.4427 34.2474 98.151 33.9609 97.9219C33.6745 97.6927 33.2839 97.5781 32.7891 97.5781C32.4609 97.5781 32.1589 97.6484 31.8828 97.7891C31.6068 97.9245 31.3698 98.1276 31.1719 98.3984C30.974 98.6693 30.8203 99 30.7109 99.3906C30.6016 99.7812 30.5469 100.232 30.5469 100.742V101.07C30.5469 101.471 30.6016 101.849 30.7109 102.203C30.8255 102.552 30.9896 102.859 31.2031 103.125C31.4219 103.391 31.6849 103.599 31.9922 103.75C32.3047 103.901 32.6589 103.977 33.0547 103.977C33.5651 103.977 33.9974 103.872 34.3516 103.664C34.7057 103.456 35.0156 103.177 35.2812 102.828L36.1562 103.523C35.974 103.799 35.7422 104.062 35.4609 104.312C35.1797 104.562 34.8333 104.766 34.4219 104.922C34.0156 105.078 33.5339 105.156 32.9766 105.156ZM43.375 102.758C43.375 102.549 43.3281 102.357 43.2344 102.18C43.1458 101.997 42.9609 101.833 42.6797 101.688C42.4036 101.536 41.987 101.406 41.4297 101.297C40.9609 101.198 40.5365 101.081 40.1562 100.945C39.7812 100.81 39.4609 100.646 39.1953 100.453C38.9349 100.26 38.7344 100.034 38.5938 99.7734C38.4531 99.513 38.3828 99.2083 38.3828 98.8594C38.3828 98.526 38.4557 98.2109 38.6016 97.9141C38.7526 97.6172 38.9635 97.3542 39.2344 97.125C39.5104 96.8958 39.8411 96.7161 40.2266 96.5859C40.612 96.4557 41.0417 96.3906 41.5156 96.3906C42.1927 96.3906 42.7708 96.5104 43.25 96.75C43.7292 96.9896 44.0964 97.3099 44.3516 97.7109C44.6068 98.1068 44.7344 98.5469 44.7344 99.0312H43.2891C43.2891 98.7969 43.2188 98.5703 43.0781 98.3516C42.9427 98.1276 42.7422 97.9427 42.4766 97.7969C42.2161 97.651 41.8958 97.5781 41.5156 97.5781C41.1146 97.5781 40.7891 97.6406 40.5391 97.7656C40.2943 97.8854 40.1146 98.0391 40 98.2266C39.8906 98.4141 39.8359 98.612 39.8359 98.8203C39.8359 98.9766 39.862 99.1172 39.9141 99.2422C39.9714 99.362 40.0703 99.474 40.2109 99.5781C40.3516 99.6771 40.5495 99.7708 40.8047 99.8594C41.0599 99.9479 41.3854 100.036 41.7812 100.125C42.474 100.281 43.0443 100.469 43.4922 100.688C43.9401 100.906 44.2734 101.174 44.4922 101.492C44.7109 101.81 44.8203 102.195 44.8203 102.648C44.8203 103.018 44.7422 103.357 44.5859 103.664C44.4349 103.971 44.2135 104.237 43.9219 104.461C43.6354 104.68 43.2917 104.852 42.8906 104.977C42.4948 105.096 42.0495 105.156 41.5547 105.156C40.8099 105.156 40.1797 105.023 39.6641 104.758C39.1484 104.492 38.7578 104.148 38.4922 103.727C38.2266 103.305 38.0938 102.859 38.0938 102.391H39.5469C39.5677 102.786 39.6823 103.102 39.8906 103.336C40.099 103.565 40.3542 103.729 40.6562 103.828C40.9583 103.922 41.2578 103.969 41.5547 103.969C41.9505 103.969 42.2812 103.917 42.5469 103.812C42.8177 103.708 43.0234 103.565 43.1641 103.383C43.3047 103.201 43.375 102.992 43.375 102.758ZM50.7578 96.5469V97.6562H46.1875V96.5469H50.7578ZM47.7344 94.4922H49.1797V102.906C49.1797 103.193 49.224 103.409 49.3125 103.555C49.401 103.701 49.5156 103.797 49.6562 103.844C49.7969 103.891 49.9479 103.914 50.1094 103.914C50.2292 103.914 50.3542 103.904 50.4844 103.883C50.6198 103.857 50.7214 103.836 50.7891 103.82L50.7969 105C50.6823 105.036 50.5312 105.07 50.3438 105.102C50.1615 105.138 49.9401 105.156 49.6797 105.156C49.3255 105.156 49 105.086 48.7031 104.945C48.4062 104.805 48.1693 104.57 47.9922 104.242C47.8203 103.909 47.7344 103.461 47.7344 102.898V94.4922ZM52.4141 100.867V100.688C52.4141 100.078 52.5026 99.513 52.6797 98.9922C52.8568 98.4661 53.112 98.0104 53.4453 97.625C53.7786 97.2344 54.1823 96.9323 54.6562 96.7188C55.1302 96.5 55.6615 96.3906 56.25 96.3906C56.8438 96.3906 57.3776 96.5 57.8516 96.7188C58.3307 96.9323 58.737 97.2344 59.0703 97.625C59.4089 98.0104 59.6667 98.4661 59.8438 98.9922C60.0208 99.513 60.1094 100.078 60.1094 100.688V100.867C60.1094 101.477 60.0208 102.042 59.8438 102.562C59.6667 103.083 59.4089 103.539 59.0703 103.93C58.737 104.315 58.3333 104.617 57.8594 104.836C57.3906 105.049 56.8594 105.156 56.2656 105.156C55.6719 105.156 55.138 105.049 54.6641 104.836C54.1901 104.617 53.7839 104.315 53.4453 103.93C53.112 103.539 52.8568 103.083 52.6797 102.562C52.5026 102.042 52.4141 101.477 52.4141 100.867ZM53.8594 100.688V100.867C53.8594 101.289 53.9089 101.688 54.0078 102.062C54.1068 102.432 54.2552 102.76 54.4531 103.047C54.6562 103.333 54.9089 103.56 55.2109 103.727C55.513 103.888 55.8646 103.969 56.2656 103.969C56.6615 103.969 57.0078 103.888 57.3047 103.727C57.6068 103.56 57.8568 103.333 58.0547 103.047C58.2526 102.76 58.401 102.432 58.5 102.062C58.6042 101.688 58.6562 101.289 58.6562 100.867V100.688C58.6562 100.271 58.6042 99.8776 58.5 99.5078C58.401 99.1328 58.25 98.8021 58.0469 98.5156C57.849 98.224 57.599 97.9948 57.2969 97.8281C57 97.6615 56.651 97.5781 56.25 97.5781C55.8542 97.5781 55.5052 97.6615 55.2031 97.8281C54.9062 97.9948 54.6562 98.224 54.4531 98.5156C54.2552 98.8021 54.1068 99.1328 54.0078 99.5078C53.9089 99.8776 53.8594 100.271 53.8594 100.688ZM67.3438 102.758C67.3438 102.549 67.2969 102.357 67.2031 102.18C67.1146 101.997 66.9297 101.833 66.6484 101.688C66.3724 101.536 65.9557 101.406 65.3984 101.297C64.9297 101.198 64.5052 101.081 64.125 100.945C63.75 100.81 63.4297 100.646 63.1641 100.453C62.9036 100.26 62.7031 100.034 62.5625 99.7734C62.4219 99.513 62.3516 99.2083 62.3516 98.8594C62.3516 98.526 62.4245 98.2109 62.5703 97.9141C62.7214 97.6172 62.9323 97.3542 63.2031 97.125C63.4792 96.8958 63.8099 96.7161 64.1953 96.5859C64.5807 96.4557 65.0104 96.3906 65.4844 96.3906C66.1615 96.3906 66.7396 96.5104 67.2188 96.75C67.6979 96.9896 68.0651 97.3099 68.3203 97.7109C68.5755 98.1068 68.7031 98.5469 68.7031 99.0312H67.2578C67.2578 98.7969 67.1875 98.5703 67.0469 98.3516C66.9115 98.1276 66.7109 97.9427 66.4453 97.7969C66.1849 97.651 65.8646 97.5781 65.4844 97.5781C65.0833 97.5781 64.7578 97.6406 64.5078 97.7656C64.263 97.8854 64.0833 98.0391 63.9688 98.2266C63.8594 98.4141 63.8047 98.612 63.8047 98.8203C63.8047 98.9766 63.8307 99.1172 63.8828 99.2422C63.9401 99.362 64.0391 99.474 64.1797 99.5781C64.3203 99.6771 64.5182 99.7708 64.7734 99.8594C65.0286 99.9479 65.3542 100.036 65.75 100.125C66.4427 100.281 67.013 100.469 67.4609 100.688C67.9089 100.906 68.2422 101.174 68.4609 101.492C68.6797 101.81 68.7891 102.195 68.7891 102.648C68.7891 103.018 68.7109 103.357 68.5547 103.664C68.4036 103.971 68.1823 104.237 67.8906 104.461C67.6042 104.68 67.2604 104.852 66.8594 104.977C66.4635 105.096 66.0182 105.156 65.5234 105.156C64.7786 105.156 64.1484 105.023 63.6328 104.758C63.1172 104.492 62.7266 104.148 62.4609 103.727C62.1953 103.305 62.0625 102.859 62.0625 102.391H63.5156C63.5365 102.786 63.651 103.102 63.8594 103.336C64.0677 103.565 64.3229 103.729 64.625 103.828C64.9271 103.922 65.2266 103.969 65.5234 103.969C65.9193 103.969 66.25 103.917 66.5156 103.812C66.7865 103.708 66.9922 103.565 67.1328 103.383C67.2734 103.201 67.3438 102.992 67.3438 102.758ZM80.9844 103.359V93H82.4375V105H81.1094L80.9844 103.359ZM75.2969 100.867V100.703C75.2969 100.057 75.375 99.4714 75.5312 98.9453C75.6927 98.4141 75.9193 97.9583 76.2109 97.5781C76.5078 97.1979 76.8594 96.9062 77.2656 96.7031C77.6771 96.4948 78.1354 96.3906 78.6406 96.3906C79.1719 96.3906 79.6354 96.4844 80.0312 96.6719C80.4323 96.8542 80.7708 97.1224 81.0469 97.4766C81.3281 97.8255 81.5495 98.2474 81.7109 98.7422C81.8724 99.237 81.9844 99.7969 82.0469 100.422V101.141C81.9896 101.76 81.8776 102.318 81.7109 102.812C81.5495 103.307 81.3281 103.729 81.0469 104.078C80.7708 104.427 80.4323 104.695 80.0312 104.883C79.6302 105.065 79.1615 105.156 78.625 105.156C78.1302 105.156 77.6771 105.049 77.2656 104.836C76.8594 104.622 76.5078 104.323 76.2109 103.938C75.9193 103.552 75.6927 103.099 75.5312 102.578C75.375 102.052 75.2969 101.482 75.2969 100.867ZM76.75 100.703V100.867C76.75 101.289 76.7917 101.685 76.875 102.055C76.9635 102.424 77.099 102.75 77.2812 103.031C77.4635 103.312 77.6953 103.534 77.9766 103.695C78.2578 103.852 78.5938 103.93 78.9844 103.93C79.4635 103.93 79.8568 103.828 80.1641 103.625C80.4766 103.422 80.7266 103.154 80.9141 102.82C81.1016 102.487 81.2474 102.125 81.3516 101.734V99.8516C81.2891 99.5651 81.1979 99.2891 81.0781 99.0234C80.9635 98.7526 80.8125 98.513 80.625 98.3047C80.4427 98.0911 80.2161 97.9219 79.9453 97.7969C79.6797 97.6719 79.3646 97.6094 79 97.6094C78.6042 97.6094 78.263 97.6927 77.9766 97.8594C77.6953 98.0208 77.4635 98.2448 77.2812 98.5312C77.099 98.8125 76.9635 99.1406 76.875 99.5156C76.7917 99.8854 76.75 100.281 76.75 100.703ZM88.6953 105.156C88.1068 105.156 87.5729 105.057 87.0938 104.859C86.6198 104.656 86.2109 104.372 85.8672 104.008C85.5286 103.643 85.2682 103.211 85.0859 102.711C84.9036 102.211 84.8125 101.664 84.8125 101.07V100.742C84.8125 100.055 84.9141 99.4427 85.1172 98.9062C85.3203 98.3646 85.5964 97.9062 85.9453 97.5312C86.2943 97.1562 86.6901 96.8724 87.1328 96.6797C87.5755 96.487 88.0339 96.3906 88.5078 96.3906C89.112 96.3906 89.6328 96.4948 90.0703 96.7031C90.513 96.9115 90.875 97.2031 91.1562 97.5781C91.4375 97.9479 91.6458 98.3854 91.7812 98.8906C91.9167 99.3906 91.9844 99.9375 91.9844 100.531V101.18H85.6719V100H90.5391V99.8906C90.5182 99.5156 90.4401 99.151 90.3047 98.7969C90.1745 98.4427 89.9661 98.151 89.6797 97.9219C89.3932 97.6927 89.0026 97.5781 88.5078 97.5781C88.1797 97.5781 87.8776 97.6484 87.6016 97.7891C87.3255 97.9245 87.0885 98.1276 86.8906 98.3984C86.6927 98.6693 86.5391 99 86.4297 99.3906C86.3203 99.7812 86.2656 100.232 86.2656 100.742V101.07C86.2656 101.471 86.3203 101.849 86.4297 102.203C86.5443 102.552 86.7083 102.859 86.9219 103.125C87.1406 103.391 87.4036 103.599 87.7109 103.75C88.0234 103.901 88.3776 103.977 88.7734 103.977C89.2839 103.977 89.7161 103.872 90.0703 103.664C90.4245 103.456 90.7344 103.177 91 102.828L91.875 103.523C91.6927 103.799 91.4609 104.062 91.1797 104.312C90.8984 104.562 90.5521 104.766 90.1406 104.922C89.7344 105.078 89.2526 105.156 88.6953 105.156ZM100.078 98.2266V105H98.625V96.5469H100L100.078 98.2266ZM99.7812 100.453L99.1094 100.43C99.1146 99.8516 99.1901 99.3177 99.3359 98.8281C99.4818 98.3333 99.6979 97.9036 99.9844 97.5391C100.271 97.1745 100.628 96.8932 101.055 96.6953C101.482 96.4922 101.977 96.3906 102.539 96.3906C102.935 96.3906 103.299 96.4479 103.633 96.5625C103.966 96.6719 104.255 96.8464 104.5 97.0859C104.745 97.3255 104.935 97.6328 105.07 98.0078C105.206 98.3828 105.273 98.8359 105.273 99.3672V105H103.828V99.4375C103.828 98.9948 103.753 98.6406 103.602 98.375C103.456 98.1094 103.247 97.9167 102.977 97.7969C102.706 97.6719 102.388 97.6094 102.023 97.6094C101.596 97.6094 101.24 97.6849 100.953 97.8359C100.667 97.987 100.438 98.1953 100.266 98.4609C100.094 98.7266 99.9688 99.0312 99.8906 99.375C99.8177 99.7135 99.7812 100.073 99.7812 100.453ZM105.258 99.6562L104.289 99.9531C104.294 99.4896 104.37 99.0443 104.516 98.6172C104.667 98.1901 104.883 97.8099 105.164 97.4766C105.451 97.1432 105.802 96.8802 106.219 96.6875C106.635 96.4896 107.112 96.3906 107.648 96.3906C108.102 96.3906 108.503 96.4505 108.852 96.5703C109.206 96.6901 109.503 96.875 109.742 97.125C109.987 97.3698 110.172 97.6849 110.297 98.0703C110.422 98.4557 110.484 98.9141 110.484 99.4453V105H109.031V99.4297C109.031 98.9557 108.956 98.5885 108.805 98.3281C108.659 98.0625 108.451 97.8776 108.18 97.7734C107.914 97.6641 107.596 97.6094 107.227 97.6094C106.909 97.6094 106.628 97.6641 106.383 97.7734C106.138 97.8828 105.932 98.0339 105.766 98.2266C105.599 98.4141 105.471 98.6302 105.383 98.875C105.299 99.1198 105.258 99.3802 105.258 99.6562ZM116.68 105.156C116.091 105.156 115.557 105.057 115.078 104.859C114.604 104.656 114.195 104.372 113.852 104.008C113.513 103.643 113.253 103.211 113.07 102.711C112.888 102.211 112.797 101.664 112.797 101.07V100.742C112.797 100.055 112.898 99.4427 113.102 98.9062C113.305 98.3646 113.581 97.9062 113.93 97.5312C114.279 97.1562 114.674 96.8724 115.117 96.6797C115.56 96.487 116.018 96.3906 116.492 96.3906C117.096 96.3906 117.617 96.4948 118.055 96.7031C118.497 96.9115 118.859 97.2031 119.141 97.5781C119.422 97.9479 119.63 98.3854 119.766 98.8906C119.901 99.3906 119.969 99.9375 119.969 100.531V101.18H113.656V100H118.523V99.8906C118.503 99.5156 118.424 99.151 118.289 98.7969C118.159 98.4427 117.951 98.151 117.664 97.9219C117.378 97.6927 116.987 97.5781 116.492 97.5781C116.164 97.5781 115.862 97.6484 115.586 97.7891C115.31 97.9245 115.073 98.1276 114.875 98.3984C114.677 98.6693 114.523 99 114.414 99.3906C114.305 99.7812 114.25 100.232 114.25 100.742V101.07C114.25 101.471 114.305 101.849 114.414 102.203C114.529 102.552 114.693 102.859 114.906 103.125C115.125 103.391 115.388 103.599 115.695 103.75C116.008 103.901 116.362 103.977 116.758 103.977C117.268 103.977 117.701 103.872 118.055 103.664C118.409 103.456 118.719 103.177 118.984 102.828L119.859 103.523C119.677 103.799 119.445 104.062 119.164 104.312C118.883 104.562 118.536 104.766 118.125 104.922C117.719 105.078 117.237 105.156 116.68 105.156ZM123.602 97.875V105H122.156V96.5469H123.562L123.602 97.875ZM126.242 96.5L126.234 97.8438C126.115 97.8177 126 97.8021 125.891 97.7969C125.786 97.7865 125.667 97.7812 125.531 97.7812C125.198 97.7812 124.904 97.8333 124.648 97.9375C124.393 98.0417 124.177 98.1875 124 98.375C123.823 98.5625 123.682 98.7865 123.578 99.0469C123.479 99.3021 123.414 99.5833 123.383 99.8906L122.977 100.125C122.977 99.6146 123.026 99.1354 123.125 98.6875C123.229 98.2396 123.388 97.8438 123.602 97.5C123.815 97.151 124.086 96.8802 124.414 96.6875C124.747 96.4896 125.143 96.3906 125.602 96.3906C125.706 96.3906 125.826 96.4036 125.961 96.4297C126.096 96.4505 126.19 96.474 126.242 96.5ZM131.305 103.969C131.648 103.969 131.966 103.898 132.258 103.758C132.549 103.617 132.789 103.424 132.977 103.18C133.164 102.93 133.271 102.646 133.297 102.328H134.672C134.646 102.828 134.477 103.294 134.164 103.727C133.857 104.154 133.453 104.5 132.953 104.766C132.453 105.026 131.904 105.156 131.305 105.156C130.669 105.156 130.115 105.044 129.641 104.82C129.172 104.596 128.781 104.289 128.469 103.898C128.161 103.508 127.93 103.06 127.773 102.555C127.622 102.044 127.547 101.505 127.547 100.938V100.609C127.547 100.042 127.622 99.5052 127.773 99C127.93 98.4896 128.161 98.0391 128.469 97.6484C128.781 97.2578 129.172 96.9505 129.641 96.7266C130.115 96.5026 130.669 96.3906 131.305 96.3906C131.966 96.3906 132.544 96.526 133.039 96.7969C133.534 97.0625 133.922 97.4271 134.203 97.8906C134.49 98.349 134.646 98.8698 134.672 99.4531H133.297C133.271 99.1042 133.172 98.7891 133 98.5078C132.833 98.2266 132.604 98.0026 132.312 97.8359C132.026 97.6641 131.69 97.5781 131.305 97.5781C130.862 97.5781 130.49 97.6667 130.188 97.8438C129.891 98.0156 129.654 98.25 129.477 98.5469C129.305 98.8385 129.18 99.1641 129.102 99.5234C129.029 99.8776 128.992 100.24 128.992 100.609V100.938C128.992 101.307 129.029 101.672 129.102 102.031C129.174 102.391 129.297 102.716 129.469 103.008C129.646 103.299 129.883 103.534 130.18 103.711C130.482 103.883 130.857 103.969 131.305 103.969ZM141.781 103.555V99.2031C141.781 98.8698 141.714 98.5807 141.578 98.3359C141.448 98.0859 141.25 97.8932 140.984 97.7578C140.719 97.6224 140.391 97.5547 140 97.5547C139.635 97.5547 139.315 97.6172 139.039 97.7422C138.768 97.8672 138.555 98.0312 138.398 98.2344C138.247 98.4375 138.172 98.6562 138.172 98.8906H136.727C136.727 98.5885 136.805 98.2891 136.961 97.9922C137.117 97.6953 137.341 97.4271 137.633 97.1875C137.93 96.9427 138.284 96.75 138.695 96.6094C139.112 96.4635 139.576 96.3906 140.086 96.3906C140.701 96.3906 141.242 96.4948 141.711 96.7031C142.185 96.9115 142.555 97.2266 142.82 97.6484C143.091 98.0651 143.227 98.5885 143.227 99.2188V103.156C143.227 103.438 143.25 103.737 143.297 104.055C143.349 104.372 143.424 104.646 143.523 104.875V105H142.016C141.943 104.833 141.885 104.612 141.844 104.336C141.802 104.055 141.781 103.794 141.781 103.555ZM142.031 99.875L142.047 100.891H140.586C140.174 100.891 139.807 100.924 139.484 100.992C139.161 101.055 138.891 101.151 138.672 101.281C138.453 101.411 138.286 101.576 138.172 101.773C138.057 101.966 138 102.193 138 102.453C138 102.719 138.06 102.961 138.18 103.18C138.299 103.398 138.479 103.573 138.719 103.703C138.964 103.828 139.263 103.891 139.617 103.891C140.06 103.891 140.451 103.797 140.789 103.609C141.128 103.422 141.396 103.193 141.594 102.922C141.797 102.651 141.906 102.388 141.922 102.133L142.539 102.828C142.503 103.047 142.404 103.289 142.242 103.555C142.081 103.82 141.865 104.076 141.594 104.32C141.328 104.56 141.01 104.76 140.641 104.922C140.276 105.078 139.865 105.156 139.406 105.156C138.833 105.156 138.331 105.044 137.898 104.82C137.471 104.596 137.138 104.297 136.898 103.922C136.664 103.542 136.547 103.117 136.547 102.648C136.547 102.195 136.635 101.797 136.812 101.453C136.99 101.104 137.245 100.815 137.578 100.586C137.911 100.352 138.312 100.174 138.781 100.055C139.25 99.9349 139.773 99.875 140.352 99.875H142.031ZM151.328 103.359V93H152.781V105H151.453L151.328 103.359ZM145.641 100.867V100.703C145.641 100.057 145.719 99.4714 145.875 98.9453C146.036 98.4141 146.263 97.9583 146.555 97.5781C146.852 97.1979 147.203 96.9062 147.609 96.7031C148.021 96.4948 148.479 96.3906 148.984 96.3906C149.516 96.3906 149.979 96.4844 150.375 96.6719C150.776 96.8542 151.115 97.1224 151.391 97.4766C151.672 97.8255 151.893 98.2474 152.055 98.7422C152.216 99.237 152.328 99.7969 152.391 100.422V101.141C152.333 101.76 152.221 102.318 152.055 102.812C151.893 103.307 151.672 103.729 151.391 104.078C151.115 104.427 150.776 104.695 150.375 104.883C149.974 105.065 149.505 105.156 148.969 105.156C148.474 105.156 148.021 105.049 147.609 104.836C147.203 104.622 146.852 104.323 146.555 103.938C146.263 103.552 146.036 103.099 145.875 102.578C145.719 102.052 145.641 101.482 145.641 100.867ZM147.094 100.703V100.867C147.094 101.289 147.135 101.685 147.219 102.055C147.307 102.424 147.443 102.75 147.625 103.031C147.807 103.312 148.039 103.534 148.32 103.695C148.602 103.852 148.938 103.93 149.328 103.93C149.807 103.93 150.201 103.828 150.508 103.625C150.82 103.422 151.07 103.154 151.258 102.82C151.445 102.487 151.591 102.125 151.695 101.734V99.8516C151.633 99.5651 151.542 99.2891 151.422 99.0234C151.307 98.7526 151.156 98.513 150.969 98.3047C150.786 98.0911 150.56 97.9219 150.289 97.7969C150.023 97.6719 149.708 97.6094 149.344 97.6094C148.948 97.6094 148.607 97.6927 148.32 97.8594C148.039 98.0208 147.807 98.2448 147.625 98.5312C147.443 98.8125 147.307 99.1406 147.219 99.5156C147.135 99.8854 147.094 100.281 147.094 100.703ZM155.148 100.867V100.688C155.148 100.078 155.237 99.513 155.414 98.9922C155.591 98.4661 155.846 98.0104 156.18 97.625C156.513 97.2344 156.917 96.9323 157.391 96.7188C157.865 96.5 158.396 96.3906 158.984 96.3906C159.578 96.3906 160.112 96.5 160.586 96.7188C161.065 96.9323 161.471 97.2344 161.805 97.625C162.143 98.0104 162.401 98.4661 162.578 98.9922C162.755 99.513 162.844 100.078 162.844 100.688V100.867C162.844 101.477 162.755 102.042 162.578 102.562C162.401 103.083 162.143 103.539 161.805 103.93C161.471 104.315 161.068 104.617 160.594 104.836C160.125 105.049 159.594 105.156 159 105.156C158.406 105.156 157.872 105.049 157.398 104.836C156.924 104.617 156.518 104.315 156.18 103.93C155.846 103.539 155.591 103.083 155.414 102.562C155.237 102.042 155.148 101.477 155.148 100.867ZM156.594 100.688V100.867C156.594 101.289 156.643 101.688 156.742 102.062C156.841 102.432 156.99 102.76 157.188 103.047C157.391 103.333 157.643 103.56 157.945 103.727C158.247 103.888 158.599 103.969 159 103.969C159.396 103.969 159.742 103.888 160.039 103.727C160.341 103.56 160.591 103.333 160.789 103.047C160.987 102.76 161.135 102.432 161.234 102.062C161.339 101.688 161.391 101.289 161.391 100.867V100.688C161.391 100.271 161.339 99.8776 161.234 99.5078C161.135 99.1328 160.984 98.8021 160.781 98.5156C160.583 98.224 160.333 97.9948 160.031 97.8281C159.734 97.6615 159.385 97.5781 158.984 97.5781C158.589 97.5781 158.24 97.6615 157.938 97.8281C157.641 97.9948 157.391 98.224 157.188 98.5156C156.99 98.8021 156.841 99.1328 156.742 99.5078C156.643 99.8776 156.594 100.271 156.594 100.688Z" fill="black"/>
</svg>
