<svg width="28" height="28" viewBox="0 0 28 28" fill="none" xmlns="http://www.w3.org/2000/svg">
<rect width="28" height="28" rx="14" fill="#10CBB4"/>
<path d="M15.7432 8.94434H16.0303V10.5166H15.9141C15.3945 10.5166 14.932 10.5941 14.5264 10.749C14.1208 10.904 13.7767 11.125 13.4941 11.4121C13.2161 11.6947 13.002 12.0365 12.8516 12.4375C12.7057 12.8385 12.6328 13.2874 12.6328 13.7842V15.4385C12.6328 15.7939 12.667 16.1084 12.7354 16.3818C12.8083 16.6507 12.9108 16.8763 13.043 17.0586C13.1797 17.2363 13.3392 17.3708 13.5215 17.4619C13.7038 17.5485 13.9089 17.5918 14.1367 17.5918C14.3509 17.5918 14.5446 17.5462 14.7178 17.4551C14.8955 17.3639 15.0459 17.2363 15.1689 17.0723C15.2965 16.9036 15.3923 16.7077 15.4561 16.4844C15.5244 16.2565 15.5586 16.0081 15.5586 15.7393C15.5586 15.4704 15.5244 15.222 15.4561 14.9941C15.3923 14.7663 15.2965 14.5703 15.1689 14.4062C15.0413 14.2376 14.8864 14.1077 14.7041 14.0166C14.5218 13.9255 14.3167 13.8799 14.0889 13.8799C13.779 13.8799 13.5055 13.9528 13.2686 14.0986C13.0361 14.2399 12.8538 14.4222 12.7217 14.6455C12.5895 14.8688 12.5189 15.1035 12.5098 15.3496L11.915 14.9668C11.9287 14.6159 12.0016 14.2832 12.1338 13.9688C12.2705 13.6543 12.4574 13.3763 12.6943 13.1348C12.9359 12.8887 13.2253 12.6973 13.5625 12.5605C13.8997 12.4193 14.2803 12.3486 14.7041 12.3486C15.1689 12.3486 15.5768 12.4375 15.9277 12.6152C16.2832 12.793 16.5794 13.0368 16.8164 13.3467C17.0534 13.6566 17.2311 14.0143 17.3496 14.4199C17.4681 14.8255 17.5273 15.2585 17.5273 15.7188C17.5273 16.2018 17.4476 16.6507 17.2881 17.0654C17.1331 17.4801 16.9076 17.8424 16.6113 18.1523C16.3197 18.4622 15.9688 18.7038 15.5586 18.877C15.1484 19.0501 14.6882 19.1367 14.1777 19.1367C13.6491 19.1367 13.1683 19.041 12.7354 18.8496C12.307 18.6536 11.9378 18.3802 11.6279 18.0293C11.318 17.6784 11.0788 17.2614 10.9102 16.7783C10.7461 16.2952 10.6641 15.7666 10.6641 15.1924V14.4268C10.6641 13.6247 10.7803 12.891 11.0127 12.2256C11.2497 11.5557 11.5892 10.9769 12.0312 10.4893C12.4733 9.99707 13.0065 9.61654 13.6309 9.34766C14.2552 9.07878 14.9593 8.94434 15.7432 8.94434Z" fill="white"/>
</svg>
