<svg width="600" height="600" viewBox="0 0 600 600" fill="none" xmlns="http://www.w3.org/2000/svg">
<g clip-path="url(#clip0_568_10370)">
<g clip-path="url(#clip1_568_10370)">
<path d="M260.714 521.114C148.774 504.679 39.0349 406.224 30.9023 288.402C26.778 228.655 47.1666 140.465 105.895 108.549C148.744 85.2639 196.625 100.284 219.615 107.505C299.012 132.428 299.055 185.46 356.815 195.682C431.719 208.929 470.696 126.642 529.357 146.839C572.429 161.675 599.753 222.696 599.474 272.079C598.785 395.977 423.808 545.066 260.714 521.114Z" fill="#8B3D99"/>
</g>
<mask id="mask0_568_10370" style="mask-type:alpha" maskUnits="userSpaceOnUse" x="29" y="94" width="571" height="430">
<path d="M260.713 521.112C192.561 511.106 125.224 470.697 81.1373 414.025C50.5452 378.566 40.8323 366.422 29.5064 338.247C29.5064 275.583 29.5074 153.658 29.5074 94.394C219.834 94.394 409.189 95.3668 599.473 95.3646C599.473 136.655 599.752 222.694 599.473 272.077C599.258 310.764 591.681 352.334 553.517 389.47C490.671 472.208 372.882 537.585 260.713 521.112Z" fill="#8B3D99"/>
</mask>
<g mask="url(#mask0_568_10370)">
<g clip-path="url(#clip2_568_10370)">
<path d="M196.179 321.08C171.516 316.797 141.925 308.711 109.958 293.835C104.225 291.164 101.752 284.391 104.443 278.699C107.133 273.008 113.955 270.553 119.687 273.224C156.55 290.372 197.474 300.784 234.93 302.54C271.53 304.263 343.097 295.751 352.361 288.948C357.453 285.21 364.622 286.271 368.397 291.329C372.162 296.385 371.092 303.513 365.999 307.251C349.648 319.27 270.583 327.012 233.843 325.287C223.317 324.788 210.586 323.594 196.188 321.093L196.179 321.08Z" fill="#DE4A65"/>
<path d="M497.01 697.456C499.949 697.654 502.826 696.925 505.325 695.337C511.668 691.305 513.544 682.887 509.495 676.578C508.04 674.164 504.132 653.411 502.853 646.582C500.918 636.264 498.914 625.598 496.577 615.937C487.993 580.254 465.643 499.308 465.209 498.104C463.376 492.994 458.678 489.448 453.222 489.08C451.347 488.953 449.49 489.215 447.701 489.836C440.589 492.344 436.861 500.124 439.387 507.197C439.483 507.477 461.609 587.655 469.923 622.259C472.096 631.293 474.032 641.6 475.91 651.572C479.994 673.295 482.322 684.929 486.438 691.265C488.797 694.904 492.641 697.149 496.999 697.444" fill="#DE4A65"/>
<path d="M292.929 664.454C299.666 664.909 305.656 660.5 307.183 653.975L307.187 653.918C308.058 650.269 315.777 617.787 321.336 601.905C326.594 586.894 379.565 479.46 385.096 468.346C385.282 467.97 385.376 467.771 385.389 467.749C386.958 464.479 387.153 460.796 385.928 457.37C384.704 453.945 382.215 451.198 378.909 449.64C377.339 448.907 375.681 448.464 373.953 448.347C368.315 447.966 363.098 450.99 360.659 456.05C360.607 456.149 359.911 457.574 359.911 457.574C347.404 482.797 300.546 578.494 295.475 592.959C289.047 611.303 280.594 647.443 280.5 647.802C278.793 655.102 283.381 662.428 290.734 664.123C291.446 664.297 292.186 664.392 292.918 664.442" fill="#DE4A65"/>
<path d="M465.209 498.104L476.066 535.504L445.673 525.955L437.462 498.739L465.208 498.116L465.209 498.104Z" fill="#973043"/>
<path d="M374.213 491.134L345.984 486.728L343.025 493.19L366.567 504.786L374.225 491.135L374.213 491.134Z" fill="#973043"/>
<path d="M289.329 395.471C286.691 395.123 284.052 394.573 281.402 393.788C261.698 387.953 247.327 370.988 238.664 343.375C232.243 322.898 228.393 295.6 226.898 259.908C226.252 244.424 238.381 231.364 254.008 230.713C269.636 230.074 282.818 242.09 283.474 257.574C285.864 314.506 294.323 333.378 297.902 338.91C303.655 336.284 319.769 325.782 349.869 284.211C358.986 271.622 376.674 268.738 389.38 277.771C402.086 286.803 404.997 304.329 395.88 316.918C367.037 356.761 329.338 400.699 289.34 395.482L289.329 395.471Z" fill="#DCAC82"/>
<path d="M492.471 471.038C497.06 436.439 505.277 316.592 513.113 250.897C520.949 185.213 539.46 135.765 508.671 136.685C470.163 137.905 382.041 139.935 358.435 143.188C358.435 143.188 341.634 145.395 339.209 164.5C337.909 174.748 326.102 239.365 320.273 303.28C315.249 358.453 316.078 413.405 315.527 428.986C314.324 462.616 314.818 487.93 349.062 490.244C374.842 491.986 428.468 500.379 463.551 501.518C461.991 501.469 460.41 501.408 458.783 501.332C467.657 501.282 488.835 498.264 492.459 471.038" fill="#DE4A65"/>
<path d="M483.103 433.374C487.006 404.102 492.406 321.141 496.966 265.354C501.697 207.412 518.446 170.429 493.089 168.716C460.229 166.495 385.431 169.277 365.25 172.009C365.25 172.009 350.886 173.868 348.824 190.031C347.649 199.295 338.343 250.049 333.159 307.401C330.091 341.419 328.106 376.582 326.333 410.652C325.336 429.888 324.438 448.343 349.544 450.039C371.584 451.529 428.409 458.164 458.402 459.141C457.072 459.097 455.72 459.04 454.322 458.98C461.908 458.945 480.019 456.404 483.092 433.373" fill="#742384"/>
<path fill-rule="evenodd" clip-rule="evenodd" d="M442.733 237.986C445.065 238.039 446.032 239.37 446.23 241.877C444.602 252.204 433.717 260.08 420.644 259.894C407.57 259.709 396.905 251.528 395.559 241.16C395.353 238.918 396.413 237.116 399.162 237.368C399.162 237.368 413.993 241.26 421.193 241.34C428.392 241.42 442.733 237.986 442.733 237.986Z" fill="#3F0D4A"/>
<mask id="mask1_568_10370" style="mask-type:luminance" maskUnits="userSpaceOnUse" x="395" y="237" width="52" height="23">
<path fill-rule="evenodd" clip-rule="evenodd" d="M446.23 241.875C444.602 252.202 433.718 260.078 420.644 259.893C407.57 259.708 396.905 251.526 395.56 241.158C395.354 238.917 396.414 237.115 399.162 237.367C399.162 237.367 413.993 241.258 421.193 241.339C428.392 241.419 442.733 237.984 442.733 237.984C442.844 237.987 442.952 237.992 443.057 238C445.156 238.166 446.042 239.488 446.23 241.875Z" fill="white"/>
</mask>
<g mask="url(#mask1_568_10370)">
<path fill-rule="evenodd" clip-rule="evenodd" d="M441.636 257.811C441.636 257.811 434.404 246.898 421.245 246.752C408.085 246.604 401.471 258.06 401.471 258.06C401.471 258.06 405.677 265.339 422.517 263.637C439.357 261.936 441.636 257.811 441.636 257.811Z" fill="#DE4A65"/>
</g>
<path d="M469.807 214.795C461.833 214.275 454.946 220.246 454.426 228.131C454.378 228.847 454.407 229.471 454.501 230.445C454.611 231.577 455.628 232.408 456.772 232.301C457.917 232.193 458.757 231.188 458.648 230.056L458.609 229.631L458.571 228.953L458.582 228.402C458.952 222.787 463.857 218.535 469.536 218.905C475.215 219.276 479.518 224.129 479.148 229.741C479.13 230.006 479.094 230.27 479.031 230.602L478.864 231.379C478.608 232.487 479.31 233.592 480.431 233.846C481.552 234.099 482.669 233.406 482.925 232.297C483.145 231.342 483.255 230.731 483.304 230.015C483.824 222.13 477.782 215.316 469.807 214.795Z" fill="#DE4A65"/>
<path d="M379.161 214.246C371.187 213.725 364.299 219.697 363.779 227.583C363.731 228.297 363.761 228.92 363.855 229.896C363.964 231.028 364.98 231.859 366.125 231.752C367.27 231.645 368.11 230.64 368.001 229.508L367.937 228.719C367.918 228.382 367.917 228.117 367.935 227.854C368.306 222.238 373.211 217.985 378.889 218.356C384.568 218.726 388.871 223.579 388.499 229.197C388.483 229.46 388.448 229.718 388.385 230.049L388.217 230.829C387.961 231.938 388.663 233.042 389.784 233.296C390.906 233.55 392.022 232.856 392.278 231.748C392.501 230.78 392.61 230.177 392.656 229.466C393.178 221.58 387.135 214.766 379.161 214.246Z" fill="#DE4A65"/>
<path d="M547.345 190.202C548.929 178.319 552.601 165.824 547.997 154.208C542.364 140 521.35 136.276 508.671 136.685C539.46 135.765 520.948 185.213 513.113 250.897C505.277 316.592 497.061 436.428 492.47 471.05C489.888 490.44 476.363 500.501 459.23 501.351C475.464 500.543 494.428 503.992 507.697 490.788C518.82 479.732 520.769 463.037 521.816 447.752C523.788 419 532.183 303.922 547.332 190.213" fill="#973043"/>
<path d="M441.925 362.489C433.606 362.643 424.164 363.548 415.438 364.654C416.414 361.114 417.386 357.62 417.386 357.62C417.386 357.62 418.385 359.787 421.203 359.567C425.203 359.255 430.072 355.325 432.429 348.126C434.935 340.478 434.71 331.793 429.598 331.064C425.468 330.475 423.497 334.158 423.212 334.891C423.212 334.891 424.089 331.546 421.465 332.131C418.951 332.69 418.491 333.82 417.869 335.84C417.759 336.196 415.642 344.143 413.424 352.517C413.39 352.572 413.363 352.635 413.343 352.705C412.795 354.599 411.711 355.233 410.928 355.282C408.393 355.448 413.842 338.578 414.255 337.299C414.8 335.612 415.126 334.332 413.278 333.628C412.032 333.152 410.324 333.324 409.823 334.674C409.612 335.24 409.459 335.657 409.459 335.657C409.459 335.657 408.036 333.524 404.889 333.813C401.739 334.103 397.764 337.969 395.133 344.752C392.502 351.534 391.359 361.263 397.6 362.233C400.767 362.724 403.425 360.897 404.817 357.887C404.817 357.887 404.575 359.902 406.66 360.89C407.479 361.279 409.518 361.128 411.437 360.034C410.932 361.945 410.456 363.757 410.032 365.372C396.558 367.251 385.953 369.351 385.953 369.351C385.955 369.342 393.339 344.154 395.002 338.61C396.394 333.97 393.77 334.98 391.83 335.548C389.763 336.153 388.784 337.91 387.749 341.101C383.226 355.038 379.665 359.377 377.084 358.442C374.715 357.583 382.164 342.784 380.377 340.829C378.828 339.135 375.636 339.226 375.027 340.225C374.419 341.223 375.324 342.136 374.935 343.549C374.547 344.962 371.563 352.612 371.249 354.327C370.935 356.039 368.346 365.535 375.196 365.125C379.243 364.882 382.016 361.793 382.31 360.935C381.046 364.624 379.239 370.578 379.239 370.578C379.239 370.578 370.953 372.668 364.348 379.641C359.104 385.176 355.396 397.1 363.228 399C375.402 401.953 381.158 383.206 384.11 376.156C393.981 373.939 401.508 372.467 408.469 371.371C408.366 371.781 408.297 372.059 408.272 372.175C407.639 375.11 407.78 376.285 410.052 376.002C412.501 375.696 412.809 374.428 413.61 371.359C413.664 371.149 413.734 370.888 413.815 370.587C422.065 369.464 430.164 368.759 441.31 367.822C444.774 367.53 444.736 366.945 445.075 364.86C445.456 362.493 442.747 362.475 441.925 362.489ZM420.675 346.312C422.341 340.82 423.872 338.621 425.311 338.001C428.743 336.517 429.394 340.863 426.745 347.46C423.679 355.094 420.098 354.92 418.726 353.414C418.724 353.414 418.915 352.11 420.675 346.312ZM405.347 349.625C403.874 353.21 402.496 355.733 400.599 355.747C397.88 355.767 397.95 351.643 399.885 346.455C401.513 342.093 404.48 339.346 406.083 339.033C407.684 338.723 409.547 339.4 405.347 349.625ZM369.377 391.338C362.905 397.165 364.537 389.185 366.943 385.738C371.512 379.193 377.153 377.537 377.153 377.537C374.286 385.996 370.704 390.142 369.377 391.338Z" fill="white"/>
<path d="M450.532 341.387C452.977 338.531 454.092 332.446 449.991 330.206C445.03 327.497 438.551 331.633 435.877 340.544C433.5 348.468 432.611 358.213 440.677 357.853C444.65 357.676 448.078 354.791 449.32 352.649C449.921 351.609 450.161 349.972 450.056 349.245C449.762 347.204 448.525 346.908 446.426 349.587C445.907 350.178 441.768 353.892 439.743 351.686C438.279 350.092 439.509 346.962 439.568 346.96C442.217 346.765 446.852 345.685 450.532 341.387ZM444.596 334.468C446.823 332.369 448.954 334.88 446.379 338.495C443.779 342.141 440.735 342.048 440.71 342.163C441.022 340.737 442.167 336.76 444.596 334.468Z" fill="white"/>
<path d="M406.644 309.919C406.159 309.604 405.432 309.448 404.467 309.448L401.58 309.448L401.58 313.483L404.561 313.483C406.435 313.483 407.374 312.802 407.374 311.438C407.374 310.739 407.131 310.234 406.644 309.919Z" fill="#10CBB4"/>
<path d="M408.187 291.136C399.463 291.541 392.34 298.609 391.806 307.403C391.444 313.357 394.057 318.708 398.285 322.1C398.72 322.449 398.974 322.977 398.974 323.539L398.974 327.373C398.974 327.667 399.138 327.939 399.396 328.075L399.501 328.131C399.751 328.263 400.049 328.24 400.276 328.075L403.538 325.704C403.964 325.393 404.503 325.285 405.015 325.407C406.294 325.715 407.628 325.878 409 325.878C418.516 325.878 426.229 318.097 426.229 308.497C426.229 298.627 418.073 290.676 408.187 291.136ZM409.599 313.733C409.206 314.351 408.676 314.808 408.01 315.105C407.592 315.282 407.112 315.404 406.571 315.476C406.029 315.549 405.396 315.585 404.674 315.585L400.487 315.585C399.883 315.585 399.452 315.449 399.192 315.175C398.933 314.901 398.803 314.466 398.803 313.868L398.803 303.478C398.803 302.869 398.936 302.43 399.201 302.162C399.465 301.895 399.894 301.762 400.485 301.762L404.923 301.762C405.576 301.762 406.144 301.802 406.624 301.884C407.105 301.965 407.534 302.124 407.913 302.355C408.236 302.55 408.524 302.796 408.773 303.095C409.022 303.394 409.213 303.725 409.343 304.085C409.473 304.447 409.538 304.828 409.538 305.231C409.538 306.615 408.854 307.625 407.482 308.268C409.282 308.845 410.183 309.971 410.183 311.642C410.187 312.417 409.992 313.112 409.599 313.733ZM419.346 314.278C419.003 314.783 418.498 315.168 417.826 315.429C417.157 315.689 416.343 315.821 415.382 315.821C414.466 315.821 413.68 315.68 413.027 315.397C412.374 315.114 411.889 314.761 411.579 314.337C411.267 313.914 411.112 313.488 411.112 313.06C411.112 312.777 411.211 312.535 411.411 312.333C411.61 312.131 411.862 312.032 412.167 312.032C412.434 312.032 412.641 312.097 412.784 312.229C412.928 312.36 413.065 312.546 413.195 312.786C413.458 313.246 413.77 313.588 414.134 313.814C414.497 314.041 414.996 314.154 415.624 314.154C416.136 314.154 416.554 314.038 416.881 313.81C417.209 313.581 417.371 313.318 417.371 313.021C417.371 312.569 417.2 312.238 416.861 312.032C416.522 311.823 415.963 311.626 415.184 311.438C414.306 311.219 413.59 310.988 413.04 310.745C412.488 310.503 412.048 310.184 411.718 309.787C411.388 309.391 411.222 308.904 411.222 308.327C411.222 307.81 411.375 307.324 411.68 306.866C411.985 306.406 412.436 306.042 413.031 305.768C413.626 305.494 414.345 305.358 415.184 305.358C415.844 305.358 416.439 305.428 416.964 305.566C417.492 305.704 417.93 305.89 418.282 306.123C418.635 306.357 418.902 306.612 419.086 306.896C419.27 307.179 419.362 307.455 419.362 307.724C419.362 308.019 419.263 308.261 419.068 308.451C418.873 308.639 418.592 308.734 418.231 308.734C417.968 308.734 417.746 308.66 417.562 308.508C417.377 308.356 417.166 308.13 416.931 307.829C416.738 307.577 416.511 307.376 416.248 307.226C415.986 307.074 415.631 307 415.182 307C414.722 307 414.338 307.099 414.033 307.296C413.727 307.493 413.575 307.74 413.575 308.037C413.575 308.306 413.687 308.528 413.911 308.703C414.136 308.875 414.437 309.018 414.818 309.131C415.198 309.244 415.721 309.382 416.387 309.545C417.178 309.74 417.824 309.973 418.327 310.243C418.828 310.512 419.209 310.832 419.467 311.201C419.726 311.568 419.856 311.989 419.856 312.46C419.86 313.164 419.69 313.773 419.346 314.278Z" fill="#10CBB4"/>
<path d="M405.724 307.242C406.101 307.111 406.388 306.859 406.588 306.488C406.743 306.223 406.822 305.929 406.822 305.602C406.822 304.905 406.575 304.441 406.083 304.212C405.591 303.983 404.839 303.868 403.831 303.868L401.58 303.868L401.58 307.441L404.121 307.441C404.812 307.439 405.347 307.373 405.724 307.242Z" fill="#10CBB4"/>
<path d="M400.929 472.177C400.627 476.572 396.791 479.895 392.353 479.595C387.915 479.295 384.58 475.487 384.881 471.092C385.182 466.698 389.018 463.374 393.445 463.674C397.871 463.973 401.23 467.782 400.929 472.177Z" fill="#973043"/>
<path d="M406.462 159.85L449.628 158.398C451.791 158.692 453.804 157.163 454.088 155.026C454.385 152.878 452.844 150.88 450.692 150.598L407.526 152.05C405.363 151.756 403.35 153.285 403.066 155.422C402.769 157.57 404.31 159.568 406.462 159.85Z" fill="#973043"/>
<path fill-rule="evenodd" clip-rule="evenodd" d="M114.291 294.946C102.776 293.848 75.6931 286.325 65.7972 276.899C55.9013 267.473 60.8482 251.22 63.8025 238.746C66.7568 226.271 79.5302 221.545 89.1896 232.247C98.849 242.949 109.831 251.824 109.831 251.824C109.831 251.824 115.306 229.076 124.136 230.609C132.967 232.143 125.932 255.891 125.253 275.925C120.404 288.451 114.289 294.957 114.289 294.957L114.291 294.946Z" fill="#DE4A65"/>
</g>
<path d="M294.934 309.142C287.018 312.464 275.026 316.447 259.975 317.602C246.669 318.623 235.492 317.098 227.61 315.392C226.319 304.351 225.583 291.975 225.957 278.511C226.115 272.531 226.489 266.808 226.999 261.367C245.786 259.628 264.573 257.877 283.36 256.138C287.211 273.81 291.072 291.482 294.922 309.154L294.934 309.142Z" fill="#F4C12A"/>
<path d="M255.189 286.792C270.825 286.792 283.5 274.234 283.5 258.742C283.5 243.25 270.825 230.691 255.189 230.691C239.553 230.691 226.878 243.25 226.878 258.742C226.878 274.234 239.553 286.792 255.189 286.792Z" fill="#10CBB4"/>
<path d="M145.082 107.504C142.623 127.035 132.787 129.477 131.557 150.229C129.098 164.877 134.614 170.939 126.638 189.249C124.175 194.902 121.721 207.56 121.721 207.56C121.721 207.56 147.541 206.339 153.688 206.339C162.81 208.165 203.916 212.161 215.164 213.705C221.484 214.573 242.213 222.25 242.213 222.25C240.984 208.822 236.27 208.92 237.5 200.375C242.213 181.625 234.78 180.78 231.654 165.464C230.941 161.963 231.091 156.367 231.25 150.375C231.409 144.383 228.521 139.415 228.125 133.188C202.271 131.83 170.879 111.274 145.082 107.504Z" fill="#2C2044"/>
<path d="M258.885 230.92L96.0856 209.684C80.5836 207.662 66.3623 218.474 64.3215 233.833C62.2806 249.192 73.193 263.283 88.6949 265.305L251.494 286.541C266.996 288.563 281.217 277.751 283.258 262.392C285.299 247.032 274.387 232.942 258.885 230.92Z" fill="#F4C12A"/>
<path d="M108.546 530.73C130.824 530.73 148.884 512.836 148.884 490.763C148.884 468.69 130.824 450.797 108.546 450.797C86.2686 450.797 68.2089 468.69 68.2089 490.763C68.2089 512.836 86.2686 530.73 108.546 530.73Z" fill="#002649"/>
<path d="M201.552 530.73C223.83 530.73 241.89 512.836 241.89 490.763C241.89 468.69 223.83 450.797 201.552 450.797C179.274 450.797 161.214 468.69 161.214 490.763C161.214 512.836 179.274 530.73 201.552 530.73Z" fill="#002649"/>
<path d="M148.884 491L68.2198 490.764C66.0569 442.809 81.2882 411.987 89.9853 400.442H220.125C228.823 411.987 244.054 442.809 241.891 490.764L161.227 491H148.884Z" fill="#002649"/>
<path d="M148.884 490.999H68.2089L70.0434 641.058H147.049L148.884 490.999Z" fill="#002649"/>
<path d="M161.229 490.999H241.893L240.058 641.058H163.052L161.229 490.999Z" fill="#002649"/>
<path d="M255.662 258.808C259.886 280.889 258.097 298.056 256.025 308.861C253.488 322.09 248.517 333.557 238.687 355.941C230.975 373.501 224.033 387.695 219.164 397.31C221.95 402.46 224.735 407.599 227.533 412.749C208.938 416.093 186.617 418.696 161.353 418.82C130.924 418.965 104.504 415.487 83.3616 411.223C86.0341 401.697 88.718 392.183 91.3906 382.657C91.8322 343.723 92.2852 304.788 92.7268 265.854C93.2025 259.111 93.6441 252.312 94.0858 245.49C94.8219 234.023 95.6599 219.986 96.0789 209.708C113.439 207.958 125.08 204.049 148.77 205.16C151.749 220.319 161.104 233.551 177.048 235.627C193.004 237.714 208.347 227.573 215.164 213.705C238.334 218.709 260.498 231.206 260.498 231.206C258.89 240.418 257.282 249.619 255.662 258.83V258.808Z" fill="#F4C12A"/>
<path d="M56.668 313.933C55.5129 312.688 54.2899 311.083 53.248 309.108C49.6469 302.242 50.6321 295.397 51.221 292.547C44.6868 287.005 36.6804 279.072 29.195 268.289C27.1679 265.372 25.3673 262.5 23.7593 259.728C28.9798 253.523 35.0724 247.285 42.0142 241.013L75.3646 286.971C61.3563 300.671 57.2229 310.017 56.668 313.922V313.933Z" fill="#9F7554"/>
</g>
<path d="M532.377 343.1C531.999 358.025 529.395 373.362 529.256 387.978C525.732 380.723 522.126 371.931 519.208 361.712C515.108 347.324 516.813 332.599 516.394 322.347C522.213 321.741 527.788 322.954 533.607 322.347C533.368 329.407 532.557 335.95 532.377 343.1Z" fill="#6B222F"/>
<path fill-rule="evenodd" clip-rule="evenodd" d="M397.286 405.341C400.151 398.442 399.762 387.757 409.276 390.216C422.489 393.623 411.868 432.4 410.186 439.539C406.999 453.065 402.025 453.266 388.265 450.171C387.208 449.93 378.845 447.905 378.029 447.719C367.324 445.315 368.117 429.351 371.293 415.836C374.392 402.686 384.345 402.956 394.781 404.702L397.286 405.352L397.286 405.341Z" fill="#DE4A65"/>
<path d="M478.154 457.629C454.974 457.823 427.423 454.832 395.362 448.668C389.15 447.48 385.086 441.504 386.284 435.336C387.481 429.168 393.5 425.134 399.713 426.323C474.617 440.711 506.301 436.82 523.921 415.08C537.161 398.738 534.863 369.676 517.09 328.7C514.588 322.927 517.271 316.235 523.086 313.739C528.9 311.255 535.641 313.919 538.154 319.691C559.856 369.718 561.054 405.585 541.789 429.352C526.755 447.906 517.267 457.303 478.154 457.629Z" fill="#DE4A65"/>
<g clip-path="url(#clip3_568_10370)">
<path fill-rule="evenodd" clip-rule="evenodd" d="M302.215 180.885C302.738 182.102 303.715 183.07 304.938 183.589C306.5 184.25 308.73 185.196 310.51 185.95C311.597 186.411 311.595 187.939 310.51 188.4L304.938 190.761C303.713 191.279 302.738 192.248 302.215 193.464C301.55 195.014 300.597 197.229 299.837 198.995C299.373 200.075 297.834 200.075 297.37 198.995C296.611 197.229 295.658 195.014 294.992 193.464C294.47 192.248 293.492 191.279 292.269 190.761C290.708 190.1 288.477 189.153 286.698 188.4C285.61 187.939 285.61 186.411 286.698 185.95C288.477 185.196 290.708 184.25 292.269 183.589C293.494 183.07 294.47 182.1 294.992 180.885C295.658 179.336 296.611 177.121 297.37 175.354C297.834 174.275 299.373 174.275 299.837 175.354C300.597 177.121 301.55 179.336 302.215 180.885Z" fill="#BD77C7"/>
</g>
<g clip-path="url(#clip4_568_10370)">
<path fill-rule="evenodd" clip-rule="evenodd" d="M388.896 128.898C389.218 129.647 389.819 130.243 390.572 130.562C391.533 130.969 392.906 131.551 394.001 132.015C394.67 132.299 394.669 133.239 394.001 133.522L390.572 134.975C389.818 135.294 389.218 135.89 388.896 136.639C388.487 137.593 387.9 138.956 387.433 140.043C387.147 140.707 386.2 140.707 385.915 140.043C385.447 138.956 384.861 137.593 384.451 136.639C384.13 135.89 383.528 135.294 382.775 134.975C381.815 134.568 380.442 133.986 379.347 133.522C378.678 133.239 378.678 132.299 379.347 132.015C380.442 131.551 381.815 130.969 382.775 130.562C383.53 130.243 384.13 129.646 384.451 128.898C384.861 127.945 385.447 126.582 385.915 125.495C386.2 124.83 387.147 124.83 387.433 125.495C387.9 126.582 388.487 127.945 388.896 128.898Z" fill="#BD77C7"/>
</g>
<g clip-path="url(#clip5_568_10370)">
<path fill-rule="evenodd" clip-rule="evenodd" d="M588.58 235.536C589.122 236.8 590.137 237.805 591.408 238.344C593.029 239.03 595.345 240.013 597.193 240.795C598.322 241.274 598.32 242.861 597.193 243.339L591.408 245.791C590.135 246.33 589.122 247.335 588.58 248.599C587.889 250.208 586.899 252.508 586.111 254.342C585.628 255.463 584.03 255.463 583.548 254.342C582.76 252.508 581.77 250.208 581.079 248.599C580.536 247.335 579.521 246.33 578.251 245.791C576.63 245.105 574.313 244.122 572.466 243.339C571.336 242.861 571.336 241.274 572.466 240.795C574.313 240.013 576.63 239.03 578.251 238.344C579.523 237.805 580.536 236.798 581.079 235.536C581.77 233.927 582.76 231.627 583.548 229.792C584.03 228.671 585.628 228.671 586.111 229.792C586.899 231.627 587.889 233.927 588.58 235.536Z" fill="#BD77C7"/>
</g>
<path d="M205.213 211.725L212.143 159.54L164.094 153.268L157.163 205.453C153.551 205.195 151.029 205.329 147.541 205.16C150.508 220.307 161.874 231.922 177.819 233.997C193.764 236.073 208.893 227.692 215.71 213.812C212.29 213.072 208.78 212.376 205.224 211.703L205.213 211.725Z" fill="#DCAC82"/>
<path d="M209.398 180.285L206.567 201.581C198.153 201.39 184.779 199.629 174.859 191.404C166.954 184.852 165.244 177.491 164.768 174.473L209.387 180.296L209.398 180.285Z" fill="#9F7554"/>
<path d="M147.691 132.234L154.486 132.225L154.521 156.909L147.726 156.919C142.721 156.925 138.661 152.914 138.654 147.955L138.644 141.223C138.637 136.263 142.686 132.241 147.691 132.234Z" fill="#DCAC82"/>
<path d="M146.062 148.566C145.881 148.566 145.7 148.476 145.586 148.308C145.417 148.049 145.496 147.702 145.756 147.533L150.388 144.56L145.745 141.609C145.485 141.441 145.405 141.093 145.575 140.835C145.745 140.577 146.096 140.498 146.357 140.667L151.736 144.089C151.894 144.19 151.996 144.369 151.996 144.56C151.996 144.751 151.894 144.93 151.736 145.031L146.368 148.476C146.277 148.532 146.164 148.566 146.062 148.566Z" fill="#9F7554"/>
<path d="M218.56 132.127H225.354C230.36 132.116 234.425 136.122 234.425 141.081V147.813C234.436 152.772 230.394 156.8 225.388 156.8H218.593L218.56 132.127Z" fill="#9F7554"/>
<path d="M188.387 79.9814L194.049 79.9736C212.802 79.9477 228.043 95.0066 228.07 113.587L228.141 164.078C228.163 179.562 215.497 192.146 199.869 192.168L188.545 192.183C169.792 192.209 154.551 177.151 154.524 158.57L154.461 113.689C154.435 95.1084 169.634 80.0074 188.387 79.9814Z" fill="#DCAC82"/>
<path d="M182.713 144.046C184.221 144.043 185.44 142.434 185.437 140.451C185.435 138.468 184.211 136.863 182.703 136.865C181.196 136.867 179.976 138.476 179.979 140.459C179.982 142.442 181.206 144.048 182.713 144.046Z" fill="#2C2044"/>
<path d="M217.433 144.008C218.94 144.006 220.159 142.397 220.157 140.414C220.154 138.431 218.93 136.825 217.422 136.827C215.915 136.829 214.696 138.439 214.698 140.422C214.701 142.404 215.925 144.01 217.433 144.008Z" fill="#2C2044"/>
<path d="M175.025 127.146C174.833 127.146 174.64 127.045 174.538 126.866C174.38 126.596 174.471 126.26 174.742 126.103C176.192 125.272 178.547 124.308 181.56 124.386C184.221 124.465 186.305 125.351 187.584 126.08C187.856 126.237 187.947 126.574 187.788 126.843C187.629 127.113 187.29 127.202 187.018 127.045C185.852 126.383 183.96 125.575 181.526 125.497C178.762 125.418 176.622 126.305 175.309 127.056C175.218 127.113 175.116 127.135 175.025 127.135V127.146Z" fill="#2C2044"/>
<path d="M213.7 127.09C213.531 127.09 213.361 127.011 213.247 126.865C213.055 126.619 213.112 126.271 213.361 126.08C214.369 125.328 216.022 124.419 218.151 124.341C220.563 124.251 222.431 125.227 223.587 126.069C223.836 126.26 223.892 126.607 223.7 126.854C223.507 127.101 223.156 127.157 222.907 126.966C221.899 126.226 220.303 125.362 218.196 125.452C216.362 125.53 214.923 126.316 214.04 126.978C213.938 127.056 213.825 127.09 213.7 127.09Z" fill="#2C2044"/>
<path d="M175.071 151.136C177.254 151.133 179.022 150.156 179.02 148.954C179.019 147.751 177.248 146.779 175.065 146.782C172.882 146.785 171.114 147.762 171.116 148.964C171.118 150.167 172.889 151.139 175.071 151.136Z" fill="#BE906A"/>
<path d="M224.184 151.079C226.367 151.076 228.135 150.099 228.134 148.897C228.132 147.695 226.361 146.722 224.178 146.725C221.995 146.729 220.227 147.706 220.229 148.908C220.231 150.11 222.002 151.082 224.184 151.079Z" fill="#BE906A"/>
<path d="M211.812 79.516C192.742 69.9452 171.814 81.5581 169.561 82.8596C156.764 81.2327 143.662 93.3393 145.326 111.067C145.847 116.655 146.346 124.049 146.549 129.513V132.24L165.008 132.217C165.201 129.255 165.62 125.945 166.412 122.4C168.202 114.31 171.259 107.847 174 103.191C179.911 105.031 182.64 109.732 189.061 111.853C198.302 114.905 209.479 112.178 212.525 110.36C212.208 111.269 210.147 112.683 208.075 114.119C205.493 115.892 204.972 117.575 205.606 118.473C208.007 121.872 223.216 114.747 225.514 109.362C225.854 109.766 226.205 110.226 226.556 110.742C227.236 111.763 227.711 112.75 228.051 113.603C229.116 110.697 230.644 105.165 229.161 98.7811C226.375 86.8428 215.243 81.2664 211.801 79.5384L211.812 79.516Z" fill="#2C2044"/>
<path d="M151.448 160.604C153.362 160.604 154.913 159.067 154.913 157.171C154.913 155.275 153.362 153.737 151.448 153.737C149.534 153.737 147.983 155.275 147.983 157.171C147.983 159.067 149.534 160.604 151.448 160.604Z" fill="#57B43C"/>
<path d="M190.258 164.856C189.522 164.755 188.865 165.384 188.99 166.113C189.658 170.152 193.168 173.215 199.567 173.204C205.965 173.204 209.464 170.13 210.121 166.09C210.234 165.361 209.589 164.733 208.853 164.834C206.135 165.215 203.009 165.485 199.555 165.485C196.101 165.485 192.976 165.227 190.258 164.856Z" fill="white"/>
<g clip-path="url(#clip6_568_10370)">
<path fill-rule="evenodd" clip-rule="evenodd" d="M94.3824 146.166C95.3195 148.374 97.0732 150.131 99.2687 151.071C102.07 152.271 106.073 153.988 109.266 155.355C111.217 156.192 111.213 158.963 109.266 159.8L99.2687 164.084C97.0698 165.024 95.3195 166.781 94.3824 168.989C93.1876 171.801 91.4773 175.819 90.1152 179.024C89.2818 180.983 86.5207 180.983 85.6874 179.024C84.3252 175.819 82.615 171.801 81.4202 168.989C80.4831 166.781 78.7294 165.024 76.5338 164.084C73.7326 162.884 69.7298 161.167 66.5369 159.8C64.5858 158.963 64.5858 156.192 66.5369 155.355C69.7298 153.988 73.7326 152.271 76.5338 151.071C78.7327 150.131 80.4831 148.37 81.4202 146.166C82.615 143.354 84.3252 139.336 85.6874 136.131C86.5207 134.172 89.2818 134.172 90.1152 136.131C91.4773 139.336 93.1876 143.354 94.3824 146.166Z" fill="#BD77C7"/>
<path fill-rule="evenodd" clip-rule="evenodd" d="M41.4409 190.811C41.7911 191.636 42.4465 192.293 43.2671 192.645C44.314 193.093 45.81 193.735 47.0033 194.246C47.7325 194.558 47.7313 195.594 47.0033 195.907L43.2671 197.508C42.4453 197.859 41.7911 198.516 41.4409 199.341C40.9943 200.392 40.3551 201.894 39.8461 203.092C39.5346 203.824 38.5027 203.824 38.1912 203.092C37.6821 201.894 37.043 200.392 36.5964 199.341C36.2462 198.516 35.5907 197.859 34.7702 197.508C33.7233 197.06 32.2273 196.418 31.034 195.907C30.3048 195.594 30.3048 194.558 31.034 194.246C32.2273 193.735 33.7233 193.093 34.7702 192.645C35.592 192.293 36.2462 191.635 36.5964 190.811C37.043 189.76 37.6821 188.259 38.1912 187.061C38.5027 186.329 39.5346 186.329 39.8461 187.061C40.3551 188.259 40.9943 189.76 41.4409 190.811Z" fill="#BD77C7"/>
</g>
<path d="M6.4909 341.456C0.828704 330.898 -6.23772 308.794 10.126 279.285C21.8241 258.202 44.1106 236.39 76.3738 214.477L108.388 260.749C66.9406 288.901 57.5413 307.975 56.658 314.045C61.7993 315.067 79.8277 316.065 126.575 298.012L147.129 350.287C110.732 364.334 82.455 370.977 60.7008 370.607C37.5424 370.203 17.3623 361.709 6.47958 341.456H6.4909Z" fill="#DCAC82"/>
<path d="M71.9586 298.293C64.7903 293.591 54.8248 285.894 45.5275 274.091C37.3173 263.667 32.4251 253.591 29.5034 246.141C38.076 238.971 48.0754 231.532 59.615 224.396C64.7336 221.221 69.7503 218.371 74.6198 215.79C86.4652 230.343 98.3105 244.896 110.156 259.448C97.4159 272.396 84.6872 285.344 71.9473 298.293H71.9586Z" fill="#F4C12A"/>
<path d="M92.3847 265.664C108.02 265.664 120.696 253.105 120.696 237.613C120.696 222.122 108.02 209.563 92.3847 209.563C76.749 209.563 64.0737 222.122 64.0737 237.613C64.0737 253.105 76.749 265.664 92.3847 265.664Z" fill="#F4C12A"/>
<path d="M114.24 335.81L90.213 343.234C87.9251 335.331 88.5866 329.038 89.2148 325.663C91.1439 315.212 98.1217 306.109 106.153 299.39C110.076 296.106 111.128 296.168 117.025 291.249C120.485 288.37 123.392 285.609 125.757 283.205C128.067 280.859 131.776 280.623 134.371 282.646C137.144 284.802 137.687 288.788 135.531 291.557C134.299 293.141 132.888 294.79 131.27 296.452C128.517 299.269 125.809 301.487 123.407 303.202C123.947 304.353 129.824 317.32 122.747 328.19C120.113 332.227 116.626 334.549 114.24 335.81Z" fill="#DCAC82"/>
<path d="M196.014 302.983L146.078 298.896C144.354 298.755 142.842 300.007 142.701 301.691L140.664 325.935C140.523 327.62 141.805 329.1 143.529 329.241L193.465 333.328C195.189 333.469 196.701 332.218 196.842 330.533L198.879 306.289C199.02 304.605 197.738 303.124 196.014 302.983Z" fill="#006B5F"/>
<path fill-rule="evenodd" clip-rule="evenodd" d="M195.417 310.126L194.004 326.941C192.388 327.429 191.036 328.541 190.275 330.011L148.013 326.552C147.426 324.725 145.974 323.244 144.089 322.604L145.46 306.288C147.698 305.919 149.566 304.381 150.31 302.296L192.058 305.713C192.396 307.626 193.66 309.262 195.417 310.126Z" fill="#004D43"/>
<path fill-rule="evenodd" clip-rule="evenodd" d="M171.25 307.834C175.989 308.222 179.517 312.271 179.13 316.878C178.743 321.485 174.587 324.905 169.848 324.517C165.109 324.129 161.581 320.08 161.968 315.473C162.355 310.866 166.511 307.446 171.25 307.834ZM175.787 312.746L175.458 312.719C175.097 312.69 174.864 312.83 174.728 313.139L171.696 320.19C171.531 320.581 171.707 320.852 172.145 320.887L172.474 320.914C172.836 320.944 173.068 320.803 173.205 320.495L176.235 313.454C176.402 313.052 176.226 312.782 175.787 312.746ZM168.749 311.447C166.961 311.301 165.517 312.225 165.385 313.797C165.161 316.464 169.074 316.592 168.973 317.795C168.945 318.128 168.627 318.366 167.986 318.313C167.221 318.251 166.698 317.824 166.426 317.658C166.037 317.411 165.752 317.411 165.476 317.736L165.049 318.241C164.691 318.655 164.854 318.932 165.096 319.156C165.535 319.551 166.591 320.129 167.824 320.23C169.81 320.393 171.023 319.257 171.143 317.828C171.369 315.138 167.447 315.117 167.551 313.878C167.579 313.545 167.885 313.306 168.563 313.362C169.143 313.409 169.532 313.645 169.923 313.869C170.255 314.064 170.582 314.162 170.867 313.718L171.21 313.183C171.424 312.853 171.412 312.552 171.076 312.273C170.68 311.953 169.772 311.531 168.749 311.447Z" fill="#006B5F"/>
<circle cx="10.9454" cy="10.9454" r="10.9454" transform="matrix(0.348373 0.93687 -0.937537 0.349191 176.777 300.219)" fill="#00AD97"/>
<path fill-rule="evenodd" clip-rule="evenodd" d="M170.242 323.85C170.747 323.946 171.034 323.691 171.143 323.128L171.251 322.564C173.155 322.598 174.469 321.353 174.788 319.693C175.454 316.231 170.755 315.441 171.011 314.11C171.132 313.483 171.756 313.342 172.275 313.44C172.88 313.554 173.41 313.897 173.766 314.224C174.187 314.596 174.559 314.601 174.903 314.131L175.39 313.46C175.697 313.031 175.738 312.584 175.371 312.239C174.997 311.86 174.371 311.384 173.456 311.098L173.595 310.377C173.682 309.923 173.5 309.629 172.996 309.534L172.91 309.518C172.391 309.42 172.103 309.674 171.995 310.238L171.877 310.849C170.215 310.876 168.822 311.911 168.485 313.665C167.837 317.033 172.497 318.027 172.256 319.28C172.126 319.953 171.522 320.066 171.004 319.968C170.313 319.838 169.713 319.384 169.313 318.984C168.923 318.602 168.557 318.565 168.164 318.978L167.6 319.585C167.227 319.97 167.169 320.429 167.515 320.803C167.932 321.271 168.634 321.891 169.681 322.267L169.543 322.988C169.455 323.442 169.637 323.736 170.156 323.834L170.242 323.85Z" fill="#006B5F"/>
<path d="M185.191 319.671C186.483 319.777 187.617 318.844 187.722 317.588C187.828 316.331 186.866 315.227 185.573 315.121C184.281 315.015 183.147 315.948 183.042 317.205C182.936 318.461 183.898 319.565 185.191 319.671Z" fill="#006B5F"/>
<path d="M154.746 317.166C156.038 317.272 157.172 316.339 157.277 315.082C157.383 313.826 156.421 312.722 155.128 312.616C153.836 312.51 152.702 313.443 152.597 314.699C152.491 315.956 153.453 317.06 154.746 317.166Z" fill="#006B5F"/>
<path d="M189.096 272.979L134.124 293.43C132.226 294.136 131.259 296.215 131.964 298.073L142.102 324.812C142.807 326.67 144.916 327.604 146.813 326.898L201.785 306.447C203.683 305.741 204.65 303.662 203.945 301.804L193.807 275.065C193.103 273.207 190.993 272.273 189.096 272.979Z" fill="#00AD97"/>
<path fill-rule="evenodd" clip-rule="evenodd" d="M192.088 280.855L199.12 299.401C197.655 300.722 196.787 302.574 196.726 304.511L150.2 321.822C148.652 320.174 146.362 319.323 144.041 319.58L137.218 301.584C139.402 300.081 140.601 297.522 140.331 294.939L186.292 277.839C187.621 279.701 189.789 280.81 192.088 280.855Z" fill="#008C7B"/>
<path fill-rule="evenodd" clip-rule="evenodd" d="M165.331 290.42C170.547 288.48 176.336 291.025 178.262 296.104C180.189 301.184 177.522 306.874 172.307 308.814C167.092 310.754 161.302 308.209 159.376 303.13C157.45 298.05 160.116 292.36 165.331 290.42ZM172.627 293.38L172.265 293.514C171.867 293.662 171.692 293.927 171.705 294.322L172.07 303.307C172.093 303.804 172.416 304.003 172.899 303.824L173.261 303.689C173.659 303.541 173.834 303.276 173.822 302.881L173.461 293.908C173.433 293.4 173.11 293.2 172.627 293.38ZM164.515 295.494C162.547 296.226 161.487 297.923 162.144 299.656C163.259 302.596 167.468 300.791 167.971 302.117C168.11 302.484 167.894 302.894 167.188 303.157C166.347 303.47 165.577 303.277 165.205 303.236C164.668 303.166 164.365 303.308 164.238 303.79L164.042 304.537C163.873 305.154 164.186 305.367 164.556 305.484C165.221 305.686 166.633 305.775 167.99 305.27C170.175 304.458 170.883 302.651 170.286 301.076C169.161 298.109 164.997 300.033 164.479 298.667C164.34 298.3 164.543 297.895 165.289 297.617C165.927 297.38 166.459 297.437 166.987 297.48C167.436 297.523 167.833 297.465 167.91 296.852L168.002 296.114C168.061 295.658 167.896 295.345 167.398 295.215C166.817 295.072 165.641 295.075 164.515 295.494Z" fill="#00AD97"/>
<circle cx="12.0843" cy="12.0843" r="12.0843" transform="matrix(0.83636 0.552267 -0.549036 0.833101 163.89 282.494)" fill="#10CBB4"/>
<path fill-rule="evenodd" clip-rule="evenodd" d="M171.96 307.609C172.594 307.311 172.704 306.799 172.363 306.088L172.023 305.377C174.152 303.891 174.586 301.461 173.584 299.367C171.493 295.001 165.663 297.888 164.859 296.209C164.481 295.419 165.054 294.763 165.706 294.456C166.467 294.098 167.333 294.054 167.992 294.131C168.76 294.206 169.175 293.914 169.171 293.117L169.161 291.984C169.149 291.264 168.83 290.736 168.144 290.647C167.421 290.528 166.343 290.502 165.099 290.917L164.664 290.009C164.39 289.436 163.949 289.256 163.315 289.554L163.206 289.606C162.554 289.912 162.444 290.424 162.784 291.135L163.153 291.905C161.341 293.266 160.649 295.527 161.708 297.74C163.741 301.987 169.695 299.356 170.452 300.937C170.858 301.786 170.284 302.395 169.632 302.701C168.763 303.11 167.731 303.087 166.962 302.965C166.221 302.854 165.787 303.106 165.69 303.878L165.563 305.002C165.465 305.726 165.776 306.282 166.463 306.418C167.306 306.603 168.586 306.727 170.048 306.305L170.483 307.214C170.758 307.787 171.199 307.967 171.851 307.66L171.96 307.609Z" fill="#008C7B"/>
<path d="M186.099 296.034C187.522 295.505 188.249 293.953 187.724 292.567C187.198 291.182 185.619 290.488 184.197 291.017C182.775 291.546 182.047 293.098 182.573 294.483C183.098 295.869 184.677 296.563 186.099 296.034Z" fill="#00AD97"/>
<path d="M152.571 308.537C153.994 308.008 154.721 306.456 154.195 305.071C153.67 303.686 152.091 302.992 150.669 303.521C149.246 304.05 148.519 305.602 149.045 306.987C149.57 308.372 151.149 309.066 152.571 308.537Z" fill="#00AD97"/>
<path d="M169.245 245.775L119.165 291.876C117.436 293.467 117.313 296.126 118.89 297.814L141.58 322.11C143.157 323.799 145.837 323.878 147.566 322.286L197.646 276.185C199.375 274.594 199.498 271.935 197.921 270.247L175.23 245.95C173.653 244.262 170.974 244.183 169.245 245.775Z" fill="#12DEC4"/>
<path fill-rule="evenodd" clip-rule="evenodd" d="M175.931 252.933L191.667 269.784C190.674 271.845 190.558 274.216 191.347 276.326L148.964 315.341C146.573 314.25 143.736 314.339 141.354 315.634L126.085 299.284C127.77 296.71 127.93 293.434 126.501 290.776L168.37 252.235C170.619 253.653 173.439 253.894 175.931 252.933Z" fill="#00AD97"/>
<path fill-rule="evenodd" clip-rule="evenodd" d="M151.374 274.946C156.127 270.571 163.477 270.767 167.79 275.386C172.104 280.004 171.747 287.295 166.993 291.671C162.24 296.047 154.89 295.85 150.577 291.232C146.264 286.613 146.62 279.322 151.374 274.946ZM160.527 274.928L160.197 275.232C159.835 275.566 159.763 275.927 159.951 276.347L164.308 285.851C164.552 286.376 164.988 286.448 165.428 286.043L165.758 285.739C166.12 285.405 166.192 285.044 166.004 284.624L161.657 275.131C161.403 274.596 160.967 274.523 160.527 274.928ZM152.734 280.763C150.941 282.414 150.55 284.705 152.021 286.28C154.518 288.954 158.248 285.165 159.374 286.37C159.686 286.704 159.635 287.24 158.991 287.832C158.225 288.538 157.311 288.669 156.893 288.787C156.284 288.948 156.022 289.234 156.098 289.808L156.216 290.698C156.307 291.435 156.738 291.527 157.187 291.491C157.991 291.416 159.549 290.892 160.786 289.754C162.777 287.921 162.743 285.667 161.405 284.234C158.886 281.537 155.256 285.433 154.097 284.192C153.785 283.858 153.824 283.333 154.504 282.707C155.085 282.172 155.683 281.999 156.27 281.814C156.772 281.663 157.173 281.427 156.986 280.734L156.759 279.899C156.621 279.383 156.305 279.118 155.712 279.198C155.024 279.299 153.761 279.818 152.734 280.763Z" fill="#12DEC4"/>
<path d="M176.188 271.901C177.484 270.708 177.581 268.719 176.405 267.459C175.229 266.2 173.224 266.146 171.928 267.34C170.631 268.533 170.534 270.522 171.71 271.781C172.887 273.041 174.891 273.094 176.188 271.901Z" fill="#12DEC4"/>
<path d="M145.667 299.999C146.963 298.805 147.06 296.817 145.884 295.557C144.708 294.298 142.703 294.244 141.407 295.438C140.111 296.631 140.013 298.619 141.189 299.879C142.366 301.139 144.37 301.192 145.667 299.999Z" fill="#12DEC4"/>
<path d="M147.324 228.068L107.275 292.923C105.893 295.162 106.565 298.067 108.776 299.411L140.599 318.753C142.81 320.097 145.723 319.372 147.106 317.133L187.155 252.278C188.537 250.039 187.865 247.135 185.654 245.791L153.831 226.448C151.62 225.104 148.707 225.829 147.324 228.068Z" fill="#5FF7E4"/>
<path fill-rule="evenodd" clip-rule="evenodd" d="M156.704 233.771L178.771 247.184C178.325 249.708 178.917 252.299 180.406 254.336L146.516 309.219C143.608 308.764 140.576 309.718 138.399 311.835L116.987 298.82C118.025 295.534 117.206 291.953 114.861 289.519L148.34 235.303C151.194 236.152 154.308 235.56 156.704 233.771Z" fill="#12DEC4"/>
<ellipse cx="15.5581" cy="15.647" rx="15.5581" ry="15.647" transform="matrix(1.00285 -0.00146192 -0.00144629 0.997143 131.293 256.515)" fill="#5FF7E4"/>
<path fill-rule="evenodd" clip-rule="evenodd" d="M156.168 277.75C156.549 277.126 156.351 276.617 155.645 276.193L154.94 275.77C155.941 273.253 154.922 270.887 152.845 269.639C148.516 267.037 145.097 272.9 143.432 271.9C142.649 271.429 142.77 270.528 143.162 269.886C143.619 269.137 144.348 268.601 144.966 268.29C145.678 267.914 145.872 267.421 145.41 266.73L144.751 265.749C144.326 265.129 143.745 264.852 143.096 265.169C142.398 265.48 141.444 266.077 140.6 267.153L139.699 266.611C139.131 266.27 138.643 266.367 138.262 266.99L138.197 267.097C137.806 267.739 138.004 268.248 138.709 268.672L139.473 269.131C138.677 271.356 139.373 273.724 141.567 275.042C145.779 277.573 149.453 271.863 151.02 272.805C151.862 273.311 151.712 274.171 151.32 274.813C150.798 275.668 149.886 276.241 149.146 276.576C148.437 276.904 148.204 277.374 148.563 278.101L149.099 279.154C149.43 279.84 150.019 280.145 150.696 279.87C151.536 279.547 152.723 278.919 153.754 277.712L154.655 278.254C155.223 278.595 155.711 278.498 156.103 277.857L156.168 277.75Z" fill="#00AD97"/>
<path d="M162.697 254.166C163.734 252.486 163.237 250.311 161.586 249.308C159.936 248.305 157.757 248.853 156.719 250.533C155.682 252.213 156.179 254.388 157.83 255.391C159.48 256.394 161.659 255.846 162.697 254.166Z" fill="#5FF7E4"/>
<path d="M138.332 293.656C139.369 291.977 138.872 289.802 137.221 288.798C135.571 287.795 133.392 288.344 132.354 290.023C131.317 291.703 131.814 293.878 133.465 294.881C135.116 295.884 137.294 295.336 138.332 293.656Z" fill="#5FF7E4"/>
<path d="M143.003 300.767L106.766 311.964L121.719 359.664L157.956 348.467L143.003 300.767Z" fill="#DCAC82"/>
<path d="M151.91 298.015L135.866 302.973C132.55 303.997 130.699 307.497 131.731 310.789C132.763 314.082 136.288 315.92 139.604 314.895L155.647 309.938C158.963 308.913 160.815 305.413 159.783 302.121C158.751 298.829 155.226 296.99 151.91 298.015Z" fill="#DCAC82"/>
<path d="M155.651 309.937L139.608 314.895C136.291 315.919 134.44 319.419 135.472 322.711C136.504 326.004 140.029 327.842 143.345 326.817L159.389 321.86C162.705 320.835 164.556 317.335 163.524 314.043C162.492 310.751 158.967 308.912 155.651 309.937Z" fill="#DCAC82"/>
<path d="M159.392 321.86L143.349 326.817C140.033 327.842 138.181 331.342 139.214 334.634C140.246 337.926 143.77 339.765 147.087 338.74L163.13 333.782C166.446 332.758 168.298 329.258 167.266 325.966C166.233 322.673 162.709 320.835 159.392 321.86Z" fill="#DCAC82"/>
<path d="M163.119 333.793L147.076 338.75C143.76 339.775 141.908 343.275 142.94 346.567C143.973 349.859 147.497 351.698 150.813 350.673L166.857 345.715C170.173 344.691 172.025 341.191 170.992 337.899C169.96 334.606 166.435 332.768 163.119 333.793Z" fill="#DCAC82"/>
</g>
<defs>
<clipPath id="clip0_568_10370">
<rect width="600" height="600" fill="white"/>
</clipPath>
<clipPath id="clip1_568_10370">
<rect width="567.748" height="412.143" fill="white" transform="matrix(0.993896 0.110326 0.111903 -0.993719 4.06494 492.773)"/>
</clipPath>
<clipPath id="clip2_568_10370">
<rect width="502.012" height="578.978" fill="white" transform="matrix(0.997127 0.0757528 -0.0768431 0.997043 69.083 102.621)"/>
</clipPath>
<clipPath id="clip3_568_10370">
<rect width="25.4422" height="25.26" fill="white" transform="translate(285.882 174.545)"/>
</clipPath>
<clipPath id="clip4_568_10370">
<rect width="15.6568" height="15.5446" fill="white" transform="translate(378.845 124.996)"/>
</clipPath>
<clipPath id="clip5_568_10370">
<rect width="26.4207" height="26.2315" fill="white" transform="translate(571.619 228.952)"/>
</clipPath>
<clipPath id="clip6_568_10370">
<rect width="80.2407" height="68.9791" fill="white" transform="translate(30.4871 134.662)"/>
</clipPath>
</defs>
</svg>
