<svg width="64" height="64" viewBox="0 0 64 64" fill="none" xmlns="http://www.w3.org/2000/svg">
<path d="M8 25.4172C8 20.5697 11.9297 16.64 16.7771 16.64H46.0343C50.8818 16.64 54.8114 20.5697 54.8114 25.4172C54.8114 30.2646 50.8818 34.1943 46.0343 34.1943H16.7771C11.9297 34.1943 8 30.2646 8 25.4172Z" fill="#2BEED5"/>
<path fill-rule="evenodd" clip-rule="evenodd" d="M27.5631 6.40002C28.5154 6.40002 29.2874 7.172 29.2874 8.12427V11.5728C29.2874 12.525 28.5154 13.297 27.5631 13.297C26.6108 13.297 25.8389 12.525 25.8389 11.5728V8.12427C25.8389 7.172 26.6108 6.40002 27.5631 6.40002Z" fill="#CE92D6"/>
<path fill-rule="evenodd" clip-rule="evenodd" d="M41.7584 18.4706C41.7584 19.4228 40.9865 20.1948 40.0342 20.1948L36.5857 20.1948C35.6334 20.1948 34.8614 19.4228 34.8614 18.4706C34.8614 17.5183 35.6334 16.7463 36.5857 16.7463L40.0342 16.7463C40.9865 16.7463 41.7584 17.5183 41.7584 18.4706Z" fill="#CE92D6"/>
<path fill-rule="evenodd" clip-rule="evenodd" d="M12.7767 18.4706C12.7767 19.4228 13.5487 20.1948 14.501 20.1948L17.9495 20.1948C18.9017 20.1948 19.6737 19.4228 19.6737 18.4706C19.6737 17.5183 18.9017 16.7463 17.9495 16.7463L14.501 16.7463C13.5487 16.7463 12.7767 17.5183 12.7767 18.4706Z" fill="#CE92D6"/>
<path fill-rule="evenodd" clip-rule="evenodd" d="M37.6563 9.63936C38.3297 10.3127 38.3297 11.4045 37.6563 12.0778L35.2179 14.5163C34.5445 15.1896 33.4528 15.1896 32.7794 14.5163C32.1061 13.8429 32.1061 12.7512 32.7794 12.0778L35.2179 9.63936C35.8912 8.966 36.983 8.966 37.6563 9.63936Z" fill="#CE92D6"/>
<path fill-rule="evenodd" clip-rule="evenodd" d="M22.5475 14.7254C21.8741 15.3988 20.7824 15.3988 20.109 14.7254L17.6705 12.287C16.9972 11.6136 16.9972 10.5219 17.6705 9.84853C18.3439 9.17517 19.4356 9.17517 20.109 9.84853L22.5475 12.287C23.2208 12.9603 23.2208 14.0521 22.5475 14.7254Z" fill="#CE92D6"/>
<path d="M45.2435 33.9657C43.5606 33.6915 42.1031 35.0019 42.1031 36.6476C42.1031 35.1391 40.9011 33.92 39.4136 33.92C37.926 33.92 36.724 35.1391 36.724 36.6476C36.724 35.1391 35.5219 33.92 34.0344 33.92C32.7723 33.92 31.7205 34.8038 31.435 35.9924C31.42 35.0476 31.3899 34.1029 31.3448 33.1429C31.2246 30.2629 31.0293 27.52 30.7589 24.9143C30.6386 23.5276 29.4817 22.4915 28.1144 22.4915C26.5367 22.4915 25.3046 23.8629 25.4548 25.4476C25.6952 27.901 25.8756 30.461 25.9807 33.1429C26.116 36.3429 26.131 39.3753 26.0709 42.2553C24.1326 40.0305 22.1943 38.141 20.4063 36.5562C19.2944 35.581 17.6265 35.3829 16.4696 36.2819C14.9971 37.44 14.9219 39.6343 16.3043 40.8838C18.5281 42.8953 20.9321 45.3486 23.3062 48.32C24.8688 50.2857 26.2061 52.2057 27.3481 54.0191C28.7454 56.2438 31.1195 57.6 33.7189 57.6H39.9845C44.1316 57.6 47.4973 54.1867 47.4973 49.981V36.7695C47.4973 35.4134 46.5807 34.1486 45.2585 33.9353L45.2435 33.9657Z" fill="#8B3D99"/>
</svg>
