<svg width="64" height="64" viewBox="0 0 64 64" fill="none" xmlns="http://www.w3.org/2000/svg">
<path d="M17.6001 9.60002C17.6001 7.83271 19.0328 6.40002 20.8001 6.40002H43.2001C44.9674 6.40002 46.4001 7.83271 46.4001 9.60002V54.4C46.4001 56.1673 44.9674 57.6 43.2001 57.6H20.8001C19.0328 57.6 17.6001 56.1673 17.6001 54.4V9.60002Z" fill="#CE92D6"/>
<path d="M19.2002 12.8C19.2002 11.9164 19.9165 11.2 20.8002 11.2H43.2002C44.0838 11.2 44.8002 11.9164 44.8002 12.8V51.2C44.8002 52.0837 44.0838 52.8 43.2002 52.8H20.8002C19.9165 52.8 19.2002 52.0837 19.2002 51.2V12.8Z" fill="#F0CEF5"/>
<path d="M27.2002 55.2C27.2002 54.7582 27.5584 54.4 28.0002 54.4H36.0002C36.442 54.4 36.8002 54.7582 36.8002 55.2C36.8002 55.6419 36.442 56 36.0002 56H28.0002C27.5584 56 27.2002 55.6419 27.2002 55.2Z" fill="#8B3D99"/>
<rect x="38.3999" y="16" width="22.4" height="16" rx="1.11919" fill="#10CBB4"/>
<rect x="53.2764" y="18.4794" width="5.37212" height="4.54564" rx="0.559596" fill="#F4C12A"/>
<rect x="41.2925" y="24.678" width="2.47944" height="1.65296" rx="0.559596" fill="#008C7B"/>
<rect x="45.0117" y="24.678" width="2.47944" height="1.65296" rx="0.559596" fill="#008C7B"/>
<rect x="48.731" y="24.678" width="2.47944" height="1.65296" rx="0.559596" fill="#008C7B"/>
<rect x="52.4502" y="24.678" width="2.47944" height="1.65296" rx="0.559596" fill="#008C7B"/>
<rect x="56.1694" y="24.678" width="2.47944" height="1.65296" rx="0.559596" fill="#008C7B"/>
<rect x="41.2925" y="27.5707" width="5.78536" height="1.65296" rx="0.559596" fill="#008C7B"/>
</svg>
