<svg width="89" height="88" viewBox="0 0 89 88" fill="none" xmlns="http://www.w3.org/2000/svg">
<rect x="0.5" width="88" height="88" rx="16" fill="#F0CEF5"/>
<path fill-rule="evenodd" clip-rule="evenodd" d="M55.3643 30.6667C56.7279 30.6667 57.8334 31.7722 57.8334 33.1359V39.8643C57.8334 41.2279 56.7279 42.3334 55.3643 42.3334H48.6359C47.2722 42.3334 46.1667 41.2279 46.1667 39.8643V33.1359C46.1667 31.7722 47.2722 30.6667 48.6359 30.6667H55.3643ZM54.4984 34.0001H49.4984V39.0001H54.4984V34.0001ZM40.3643 30.6667C41.7279 30.6667 42.8334 31.7722 42.8334 33.1359V39.8643C42.8334 41.2279 41.7279 42.3334 40.3643 42.3334H33.6359C32.2722 42.3334 31.1667 41.2279 31.1667 39.8643V33.1359C31.1667 31.7722 32.2722 30.6667 33.6359 30.6667H40.3643ZM39.5001 34.0001H34.5001V39.0001H39.5001V34.0001ZM55.3643 45.6667C56.7279 45.6667 57.8334 46.7722 57.8334 48.1359V54.8643C57.8334 56.2279 56.7279 57.3334 55.3643 57.3334H48.6359C47.2722 57.3334 46.1667 56.2279 46.1667 54.8643V48.1359C46.1667 46.7722 47.2722 45.6667 48.6359 45.6667H55.3643ZM54.4984 48.9984H49.4984V53.9984H54.4984V48.9984ZM40.3643 45.6667C41.7279 45.6667 42.8334 46.7722 42.8334 48.1359V54.8643C42.8334 56.2279 41.7279 57.3334 40.3643 57.3334H33.6359C32.2722 57.3334 31.1667 56.2279 31.1667 54.8643V48.1359C31.1667 46.7722 32.2722 45.6667 33.6359 45.6667H40.3643ZM39.5001 48.9984H34.5001V53.9984H39.5001V48.9984Z" fill="#742384"/>
</svg>
