<svg width="88" height="88" viewBox="0 0 88 88" fill="none" xmlns="http://www.w3.org/2000/svg">
<rect width="88" height="88" rx="16" fill="#F0CEF5"/>
<path fill-rule="evenodd" clip-rule="evenodd" d="M50.6666 27.3333H37.3333C34.5718 27.3333 32.3333 29.5718 32.3333 32.3333V55.6666C32.3333 58.428 34.5718 60.6666 37.3333 60.6666H50.6666C53.428 60.6666 55.6666 58.428 55.6666 55.6666V52.6621C54.6543 53.2477 53.5298 53.6609 52.3333 53.8617V55.6666C52.3333 56.5871 51.5871 57.3333 50.6666 57.3333H37.3333C36.4128 57.3333 35.6666 56.5871 35.6666 55.6666V32.3333C35.6666 31.4128 36.4128 30.6666 37.3333 30.6666H38.9999V31.9999C38.9999 33.1045 39.8953 33.9999 40.9999 33.9999H46.9999C48.1045 33.9999 48.9999 33.1045 48.9999 31.9999V30.6666H50.6666C51.5871 30.6666 52.3333 31.4128 52.3333 32.3333V34.1382C53.5298 34.3389 54.6543 34.7522 55.6666 35.3377V32.3333C55.6666 29.5718 53.428 27.3333 50.6666 27.3333ZM43.9999 55.6666C44.9204 55.6666 45.6666 54.9204 45.6666 53.9999C45.6666 53.0794 44.9204 52.3333 43.9999 52.3333C43.0794 52.3333 42.3333 53.0794 42.3333 53.9999C42.3333 54.9204 43.0794 55.6666 43.9999 55.6666Z" fill="#742384"/>
<path d="M49.4506 42.7251C49.3491 42.9132 49.2033 43.0406 49.0121 43.1072C48.8209 43.1739 48.5502 43.2074 48.1999 43.2089L46.9125 43.2103L46.9158 41.4013L48.0565 41.4002C48.5671 41.3997 48.948 41.4577 49.1968 41.5733C49.4457 41.6888 49.5704 41.9237 49.5697 42.2767C49.5694 42.4418 49.5293 42.5909 49.4506 42.7251Z" fill="#742384"/>
<path d="M49.4796 44.4614C49.2342 44.3023 48.8659 44.2236 48.3768 44.2241L46.9143 44.2256L46.9105 46.2685L48.4209 46.2669C49.3705 46.266 49.8465 45.9204 49.8478 45.2303C49.8485 44.876 49.7261 44.6205 49.4796 44.4614Z" fill="#742384"/>
<path fill-rule="evenodd" clip-rule="evenodd" d="M58.9999 44.0001C58.9999 39.3977 55.269 35.6667 50.6666 35.6667C46.0642 35.6667 42.3333 39.3977 42.3333 44.0001C42.3333 48.6025 46.0642 52.3334 50.6666 52.3334C55.269 52.3334 58.9999 48.6025 58.9999 44.0001ZM50.1628 47.0861C50.5008 46.9356 50.7696 46.7038 50.9692 46.3906C51.1688 46.0763 51.2684 45.7243 51.2669 45.3323C51.2684 44.4863 50.8134 43.917 49.9018 43.6256C50.5973 43.2994 50.9451 42.7877 50.9464 42.0873C50.9468 41.8833 50.9141 41.6907 50.8485 41.5074C50.7829 41.3252 50.6865 41.1579 50.5605 41.0067C50.4346 40.8555 50.2892 40.7307 50.1257 40.6323C49.9337 40.5156 49.7166 40.4356 49.4733 40.3945C49.23 40.3535 48.9423 40.3332 48.6114 40.3335L46.363 40.3358C46.0639 40.3361 45.8465 40.4039 45.7121 40.5393C45.5776 40.6747 45.5101 40.8972 45.5096 41.2056L45.5 46.465C45.4994 46.7676 45.565 46.9876 45.6955 47.1262C45.8272 47.2648 46.0454 47.3333 46.3513 47.333L48.4723 47.3309C48.8385 47.3305 49.1593 47.3118 49.4334 47.2749C49.7076 47.2379 49.9511 47.1758 50.1628 47.0861ZM55.1358 47.245C55.4761 47.1129 55.7323 46.9177 55.9068 46.6619C56.0812 46.4061 56.1682 46.0977 56.1666 45.7411C56.167 45.5027 56.1015 45.2896 55.971 45.104C55.8406 44.9173 55.6475 44.7558 55.3942 44.6197C55.1397 44.4835 54.8124 44.3658 54.4122 44.2676C54.0746 44.1854 53.8097 44.1157 53.6176 44.0586C53.4244 44.0015 53.2721 43.9294 53.1586 43.8424C53.045 43.7543 52.9884 43.642 52.9886 43.5056C52.9889 43.3554 53.0664 43.2304 53.2213 43.1305C53.3761 43.0306 53.5707 42.98 53.8038 42.9797C54.0313 42.9795 54.2109 43.0171 54.3438 43.0938C54.4768 43.1693 54.5914 43.2712 54.689 43.3984C54.8082 43.5507 54.9149 43.6652 55.008 43.742C55.1011 43.8187 55.2136 43.8564 55.3467 43.8562C55.5298 43.8561 55.672 43.8078 55.7711 43.7125C55.8702 43.6161 55.9205 43.4934 55.9208 43.3444C55.921 43.208 55.8747 43.0682 55.7817 42.925C55.6887 42.7818 55.5536 42.6524 55.3752 42.5345C55.1969 42.4166 54.9753 42.3228 54.7082 42.2532C54.4422 42.1835 54.1409 42.1483 53.8065 42.1486C53.3812 42.1491 53.0171 42.2182 52.7155 42.3572C52.4139 42.4962 52.1849 42.681 52.0298 42.9139C51.8747 43.1456 51.797 43.3921 51.7965 43.6535C51.7959 43.9458 51.8797 44.1922 52.0465 44.3926C52.2133 44.5931 52.4359 44.7545 52.7154 44.8769C52.9938 44.9992 53.3564 45.1158 53.8009 45.2265C54.1953 45.3213 54.4783 45.4207 54.6499 45.526C54.8214 45.6302 54.9075 45.7974 54.9071 46.0267C54.9068 46.1769 54.8247 46.3099 54.6585 46.4259C54.4922 46.5418 54.2806 46.6005 54.0213 46.6008C53.7028 46.6011 53.4505 46.544 53.2664 46.4296C53.0824 46.3151 52.9247 46.1422 52.792 45.9096C52.7263 45.7882 52.6571 45.6943 52.5844 45.6278C52.5117 45.5614 52.4072 45.5283 52.2718 45.5284C52.1172 45.5286 51.9897 45.5792 51.8883 45.6813C51.7869 45.7834 51.7366 45.9061 51.7364 46.0494C51.736 46.2661 51.8141 46.4815 51.9717 46.6957C52.1283 46.9099 52.3736 47.0885 52.7043 47.2314C53.035 47.3744 53.4329 47.4451 53.8969 47.4446C54.3837 47.4441 54.7966 47.3772 55.1358 47.245Z" fill="#742384"/>
</svg>
