<svg width="600" height="600" viewBox="0 0 600 600" fill="none" xmlns="http://www.w3.org/2000/svg">
<path d="M600 257.42C600 393.692 502.649 530.308 300 530.308C134.315 530.308 0 419.837 0 283.564C0 207.637 31.1881 115.256 111.386 92.3791C191.584 69.5022 199.187 145.526 285.326 145.526C371.465 145.525 423.913 96.6125 510.326 117.808C575.543 133.805 600 192.036 600 257.42Z" fill="#8B3D99"/>
<mask id="mask0_13960_17479" style="mask-type:alpha" maskUnits="userSpaceOnUse" x="0" y="62" width="600" height="469">
<path d="M600 257.42C600 393.693 502.649 530.308 300 530.308C134.315 530.308 0 419.837 0 283.565C0 207.637 31.1881 115.256 111.386 92.3795C191.584 69.5026 199.187 62.0003 285.326 62C371.465 61.9997 423.913 96.6129 510.326 117.809C575.543 133.805 600 192.037 600 257.42Z" fill="#F6E1F9"/>
</mask>
<g mask="url(#mask0_13960_17479)">
<path d="M397.058 243.671H173.835C155.705 243.671 141.008 258.368 141.008 276.498C141.008 294.628 155.705 309.325 173.835 309.325H397.058C415.188 309.325 429.885 294.628 429.885 276.498C429.885 258.368 415.188 243.671 397.058 243.671Z" fill="#DE4A65"/>
<path d="M319.546 230.547V168.951H263.346V230.547C259.157 230.797 255.008 231.073 250.964 231.401C256.689 248.537 272.8 260.551 291.446 260.551C310.092 260.551 326.203 248.523 331.928 231.401C327.884 231.06 323.735 230.784 319.546 230.547Z" fill="#DCAC82"/>
<path d="M319.547 178.083C319.547 191.936 319.547 205.776 319.547 219.629C318.102 220.154 298.432 226.877 281.546 214.127C266.997 203.149 265.907 186.303 265.789 183.939C283.713 181.983 301.623 180.039 319.547 178.083Z" fill="#BE906A"/>
<path d="M233.224 581.539C258.605 581.539 279.181 560.963 279.181 535.582C279.181 510.2 258.605 489.624 233.224 489.624C207.842 489.624 187.266 510.2 187.266 535.582C187.266 560.963 207.842 581.539 233.224 581.539Z" fill="#002649"/>
<path d="M337.667 581.539C363.048 581.539 383.624 560.963 383.624 535.582C383.624 510.2 363.048 489.624 337.667 489.624C312.285 489.624 291.709 510.2 291.709 535.582C291.709 560.963 312.285 581.539 337.667 581.539Z" fill="#002649"/>
<path d="M337.72 581.539C363.102 581.539 383.678 560.963 383.678 535.582C383.678 510.2 363.102 489.624 337.72 489.624C312.339 489.624 291.763 510.2 291.763 535.582C291.763 560.963 312.339 581.539 337.72 581.539Z" fill="#002649"/>
<path d="M187.74 473.538V529.016L278.71 542.134H292.182L383.165 529.016V473.538H187.74Z" fill="#002649"/>
<path d="M184.445 522.477C185.601 470.728 186.861 363.988 182.475 312.411C180.059 284.022 176.658 260.61 173.967 244.38C193.65 239.456 223.587 234.86 251.004 232.431C253.972 237.473 260.248 246.533 271.541 253.558C279.196 258.312 286.444 260.452 291.447 261.489C296.437 260.452 303.698 258.312 311.353 253.558C322.646 246.533 328.922 237.473 331.89 232.431C359.307 234.86 377.244 239.456 396.927 244.38C394.236 260.61 390.835 284.022 388.419 312.411C384.033 363.988 385.294 470.728 386.449 522.477C358.743 527.716 324.577 531.944 285.447 531.944C246.317 531.944 212.164 527.716 184.445 522.477Z" fill="#DE4A65"/>
<path d="M192.389 341.784C182.423 341.652 168.019 366.29 151.5 360.5C136.899 355.379 125.567 329.795 118.004 324.293C121.838 311.859 126.893 298.268 133.642 284.021C136.636 277.692 139.722 271.731 142.834 266.137C163.594 273.044 184.353 279.964 205.113 286.871C200.872 307.604 196.631 321.05 192.389 341.784Z" fill="#DE4A65"/>
<path d="M378.492 349.058C388.458 348.927 403.06 347.574 419.578 341.784C434.18 336.663 445.315 329.795 452.878 324.293C449.044 311.859 443.989 298.268 437.239 284.021C434.245 277.692 431.16 271.731 428.048 266.137C407.288 273.044 386.528 279.964 365.768 286.871C370.01 307.604 374.251 328.325 378.492 349.058Z" fill="#DE4A65"/>
<path d="M173.977 243.684V309.325" stroke="#2C2044" stroke-miterlimit="10"/>
<path d="M173.98 309.325C192.109 309.325 206.807 294.628 206.807 276.498C206.807 258.368 192.109 243.671 173.98 243.671C155.85 243.671 141.153 258.368 141.153 276.498C141.153 294.628 155.85 309.325 173.98 309.325Z" fill="#DE4A65"/>
<path d="M396.915 309.325C415.044 309.325 429.742 294.628 429.742 276.498C429.742 258.368 415.044 243.671 396.915 243.671C378.785 243.671 364.088 258.368 364.088 276.498C364.088 294.628 378.785 309.325 396.915 309.325Z" fill="#DE4A65"/>
<path d="M183.085 219.747C182.993 219.721 182.914 219.681 182.822 219.655C175.883 217.264 168.262 220.562 165.292 227.277C164.122 229.905 162.992 232.73 161.954 235.753C157.473 248.762 156.343 260.392 156.224 268.776C146.158 278.132 136.093 287.489 126.027 296.845C114.252 308.383 110.573 325.663 116.67 340.053C123.385 355.901 140.771 365.493 158.761 362.984C160.784 362.708 162.729 361.998 164.464 360.92C171.166 356.755 175.358 352.182 177.815 349.028C188.078 335.861 188.919 320.735 189.445 311.326C189.865 303.77 189.208 297.45 188.735 293.008C188.42 289.946 188.012 287.068 187.566 284.387C185.253 270.576 186.068 256.384 190.115 242.98C190.233 242.573 190.365 242.152 190.496 241.732C190.917 240.392 191.35 239.077 191.797 237.803C194.386 230.404 190.496 222.31 183.085 219.747Z" fill="#BE906A"/>
<path d="M241.04 240.242L167.921 252.477C165.397 252.9 163.688 255.254 164.103 257.735L170.079 293.446C170.494 295.928 172.876 297.597 175.4 297.175L248.519 284.939C251.043 284.517 252.752 282.163 252.337 279.681L246.362 243.971C245.946 241.489 243.564 239.82 241.04 240.242Z" fill="#006B5F"/>
<path fill-rule="evenodd" clip-rule="evenodd" d="M242.799 250.764L246.943 275.53C244.804 276.821 243.274 278.916 242.722 281.312L180.842 291.667C179.33 289.245 176.703 287.636 173.765 287.397L169.744 263.367C172.819 262.021 174.933 259.126 175.234 255.847L236.363 245.619C237.55 248.255 239.963 250.156 242.799 250.764Z" fill="#004D43"/>
<path fill-rule="evenodd" clip-rule="evenodd" d="M207.307 256.226C214.248 255.065 220.795 259.626 221.931 266.415C223.067 273.203 218.361 279.648 211.421 280.809C204.48 281.971 197.932 277.409 196.796 270.621C195.66 263.832 200.366 257.387 207.307 256.226Z" fill="#006B5F"/>
<path fill-rule="evenodd" clip-rule="evenodd" d="M208.251 259.758L208.613 261.491C209.656 261.416 210.556 261.592 211.312 262.018C212.197 262.515 212.817 263.312 213.178 264.412C213.258 264.656 213.12 264.915 212.878 264.966L211.111 265.334C210.924 265.373 210.729 265.275 210.652 265.092C210.455 264.619 210.149 264.281 209.735 264.072C209.546 263.979 209.339 263.915 209.111 263.88L209.807 267.22C210.618 267.265 211.207 267.313 211.579 267.364C212.001 267.422 212.376 267.506 212.705 267.612C213.294 267.807 213.77 268.125 214.138 268.571C214.506 269.016 214.762 269.588 214.908 270.287C215.199 271.683 214.973 272.857 214.227 273.813C213.625 274.585 212.729 275.156 211.542 275.528L211.898 277.236C211.946 277.467 211.805 277.69 211.584 277.737L210.435 277.976C210.214 278.022 209.996 277.873 209.948 277.643L209.588 275.919C208.421 276.021 207.414 275.843 206.571 275.384C205.603 274.861 204.919 274.001 204.519 272.81C204.439 272.571 204.583 272.316 204.822 272.266L206.673 271.88C206.856 271.842 207.046 271.936 207.126 272.111C207.378 272.661 207.741 273.044 208.213 273.261C208.465 273.377 208.752 273.446 209.077 273.471L208.325 269.862L208.218 269.861C206.958 269.838 206.036 269.71 205.451 269.475C204.932 269.269 204.5 268.931 204.154 268.468C203.808 268.005 203.562 267.425 203.416 266.726C203.144 265.421 203.363 264.331 204.071 263.457C204.64 262.754 205.502 262.225 206.658 261.87L206.302 260.165C206.254 259.935 206.395 259.711 206.616 259.665L207.765 259.425C207.986 259.379 208.203 259.528 208.251 259.758ZM210.392 270.024L211.051 273.182C211.49 273.027 211.827 272.822 212.056 272.568C212.389 272.203 212.494 271.74 212.378 271.185C212.263 270.629 211.598 270.224 210.392 270.024ZM207.75 267.111L207.129 264.135C206.759 264.278 206.47 264.468 206.262 264.705C205.944 265.066 205.84 265.509 205.949 266.032C206.072 266.618 206.672 266.979 207.75 267.111Z" fill="#004D43"/>
<path d="M231.63 268.237C233.523 267.921 234.806 266.163 234.496 264.311C234.186 262.46 232.401 261.216 230.508 261.533C228.615 261.849 227.332 263.607 227.641 265.459C227.951 267.31 229.737 268.554 231.63 268.237Z" fill="#006B5F"/>
<path d="M187.075 275.691C188.968 275.375 190.251 273.617 189.941 271.766C189.631 269.914 187.846 268.67 185.953 268.987C184.06 269.304 182.777 271.061 183.086 272.913C183.396 274.764 185.182 276.008 187.075 275.691Z" fill="#006B5F"/>
<path d="M220.192 199.379L148.828 249.024C146.365 250.738 145.734 254.09 147.419 256.512L171.665 291.366C173.35 293.788 176.713 294.362 179.176 292.649L250.54 243.004C253.003 241.29 253.634 237.937 251.949 235.515L227.703 200.662C226.018 198.24 222.655 197.666 220.192 199.379Z" fill="#00AD97"/>
<path fill-rule="evenodd" clip-rule="evenodd" d="M227.335 209.648L244.151 233.82C242.531 236.261 241.96 239.25 242.577 242.066L182.182 284.081C179.365 282.272 175.773 281.883 172.539 283.105L156.224 259.651C158.808 256.682 159.596 252.553 158.271 248.927L217.932 207.423C220.513 209.621 224.024 210.427 227.335 209.648Z" fill="#008C7B"/>
<path d="M213.066 236.705C208.457 230.08 199.229 228.529 192.455 233.241C185.681 237.954 183.926 247.145 188.535 253.771C193.144 260.396 202.372 261.947 209.146 257.235C215.92 252.522 217.675 243.331 213.066 236.705Z" fill="#00AD97"/>
<path fill-rule="evenodd" clip-rule="evenodd" d="M192.629 232.991L194.328 234.888C195.573 234.043 196.821 233.613 198.07 233.597C199.53 233.579 200.877 234.125 202.119 235.235C202.394 235.481 202.41 235.903 202.145 236.14L200.21 237.873C200.005 238.057 199.691 238.074 199.464 237.901C198.878 237.454 198.252 237.254 197.586 237.293C197.285 237.313 196.98 237.383 196.671 237.504L199.946 241.16C200.988 240.633 201.756 240.268 202.256 240.063C202.823 239.832 203.351 239.665 203.836 239.56C204.711 239.378 205.533 239.432 206.312 239.721C207.091 240.011 207.824 240.537 208.509 241.303C209.878 242.831 210.442 244.457 210.203 246.185C210.009 247.58 209.305 248.937 208.095 250.257L209.77 252.127C209.996 252.379 209.982 252.759 209.739 252.976L208.482 254.103C208.239 254.32 207.86 254.292 207.635 254.04L205.944 252.152C204.564 253.12 203.182 253.624 201.801 253.66C200.218 253.707 198.747 253.129 197.39 251.934C197.118 251.694 197.114 251.273 197.375 251.039L199.403 249.223C199.603 249.044 199.906 249.024 200.133 249.185C200.843 249.688 201.571 249.903 202.316 249.833C202.712 249.796 203.12 249.675 203.543 249.471L200.004 245.52L199.87 245.595C198.285 246.475 197.044 246.98 196.146 247.11C195.352 247.226 194.571 247.118 193.806 246.791C193.041 246.464 192.317 245.918 191.631 245.153C190.351 243.724 189.838 242.209 190.089 240.611C190.292 239.324 190.983 238.044 192.167 236.769L190.495 234.902C190.269 234.65 190.283 234.27 190.525 234.053L191.783 232.927C192.025 232.71 192.403 232.739 192.629 232.991ZM202.696 244.231L205.792 247.688C206.227 247.179 206.499 246.681 206.601 246.2C206.752 245.505 206.551 244.853 206.006 244.245C205.461 243.636 204.341 243.611 202.696 244.231ZM197.305 242.509L194.387 239.25C194.029 239.695 193.806 240.14 193.718 240.585C193.583 241.264 193.773 241.89 194.285 242.462C194.86 243.105 195.867 243.122 197.305 242.509Z" fill="#008C7B"/>
<path d="M224.259 233.771C226.106 232.486 226.585 229.979 225.328 228.172C224.071 226.365 221.554 225.942 219.707 227.228C217.859 228.513 217.381 231.02 218.638 232.827C219.895 234.633 222.411 235.056 224.259 233.771Z" fill="#00AD97"/>
<path d="M180.775 264.024C182.623 262.739 183.101 260.232 181.844 258.425C180.587 256.618 178.07 256.196 176.223 257.481C174.375 258.766 173.897 261.273 175.154 263.08C176.411 264.887 178.928 265.31 180.775 264.024Z" fill="#00AD97"/>
<path d="M181.695 167.334L126.783 252.14C124.887 255.067 125.684 258.951 128.562 260.815L169.981 287.634C172.859 289.497 176.729 288.635 178.624 285.708L233.537 200.902C235.433 197.975 234.636 194.091 231.758 192.227L190.339 165.408C187.461 163.544 183.591 164.406 181.695 167.334Z" fill="#12DEC4"/>
<path fill-rule="evenodd" clip-rule="evenodd" d="M193.899 175.234L222.624 193.833C221.955 197.172 222.657 200.638 224.56 203.396L178.087 275.167C174.261 274.461 170.227 275.624 167.285 278.361L139.414 260.314C140.887 255.983 139.918 251.194 136.897 247.877L182.805 176.978C186.549 178.207 190.68 177.528 193.899 175.234Z" fill="#00AD97"/>
<path fill-rule="evenodd" clip-rule="evenodd" d="M166.761 215.96C171.974 207.91 182.582 205.517 190.456 210.616C198.33 215.714 200.487 226.373 195.274 234.423C190.062 242.473 179.453 244.866 171.58 239.768C163.706 234.669 161.549 224.01 166.761 215.96ZM179.876 212.6L179.515 213.159C179.117 213.774 179.147 214.322 179.569 214.859L189.294 226.997C189.837 227.665 190.488 227.611 190.97 226.866L191.332 226.308C191.73 225.693 191.7 225.145 191.278 224.607L181.571 212.482C181.01 211.802 180.359 211.856 179.876 212.6ZM170.841 223.864C168.874 226.902 169.152 230.352 171.838 232.091C176.396 235.043 180.357 228.212 182.412 229.543C182.981 229.912 183.104 230.705 182.398 231.794C181.557 233.093 180.296 233.614 179.74 233.937C178.926 234.391 178.655 234.9 178.973 235.701L179.469 236.943C179.869 237.975 180.52 237.951 181.151 237.735C182.276 237.334 184.318 236.01 185.674 233.915C187.858 230.543 186.983 227.3 184.541 225.719C179.943 222.742 176.165 229.69 174.049 228.32C173.479 227.951 173.344 227.179 174.09 226.027C174.727 225.043 175.521 224.576 176.294 224.095C176.958 223.693 177.447 223.207 176.924 222.274L176.294 221.152C175.907 220.455 175.358 220.189 174.537 220.52C173.587 220.916 171.966 222.126 170.841 223.864Z" fill="#12DEC4"/>
<path d="M201.206 202.537C202.628 200.341 202.04 197.434 199.892 196.044C197.745 194.653 194.852 195.306 193.43 197.502C192.008 199.697 192.597 202.604 194.744 203.994C196.891 205.385 199.785 204.732 201.206 202.537Z" fill="#12DEC4"/>
<path d="M167.746 254.212C169.168 252.016 168.579 249.109 166.432 247.719C164.285 246.328 161.392 246.981 159.97 249.177C158.548 251.372 159.137 254.279 161.284 255.669C163.431 257.06 166.325 256.407 167.746 254.212Z" fill="#12DEC4"/>
<path d="M143.68 149.759L110.099 257.88C108.94 261.612 110.975 265.562 114.645 266.702L167.45 283.102C171.12 284.242 175.034 282.14 176.193 278.408L209.774 170.287C210.933 166.554 208.898 162.605 205.229 161.465L152.423 145.065C148.753 143.925 144.839 146.027 143.68 149.759Z" fill="#5FF7E4"/>
<path fill-rule="evenodd" clip-rule="evenodd" d="M159.244 154.592L195.866 165.966C196.155 169.77 197.961 173.297 200.849 175.698L172.429 267.2C168.087 267.598 164.087 270.073 161.742 273.916L126.208 262.88C126.486 257.761 123.992 252.888 119.728 250.223L147.802 159.832C152.213 160.024 156.465 158.041 159.244 154.592Z" fill="#12DEC4"/>
<path d="M166.236 193.81C156.198 190.692 145.476 196.485 142.288 206.748C139.101 217.011 144.654 227.859 154.693 230.976C164.731 234.094 175.453 228.302 178.64 218.038C181.828 207.775 176.275 196.927 166.236 193.81Z" fill="#5FF7E4"/>
<path d="M175.386 181.837C176.256 179.038 174.741 176.079 172.003 175.229C169.266 174.379 166.341 175.959 165.472 178.758C164.603 181.557 166.117 184.515 168.855 185.366C171.593 186.216 174.517 184.636 175.386 181.837Z" fill="#5FF7E4"/>
<path d="M154.924 247.724C155.793 244.925 154.279 241.967 151.541 241.117C148.803 240.266 145.879 241.846 145.01 244.645C144.14 247.444 145.655 250.403 148.393 251.253C151.131 252.103 154.055 250.523 154.924 247.724Z" fill="#5FF7E4"/>
<path fill-rule="evenodd" clip-rule="evenodd" d="M148.176 207.172L150.611 207.916C151.239 206.549 152.085 205.536 153.145 204.876C154.385 204.104 155.82 203.875 157.457 204.181C157.82 204.249 158.052 204.603 157.948 204.942L157.189 207.427C157.109 207.69 156.849 207.868 156.565 207.837C155.833 207.758 155.194 207.91 154.644 208.288C154.396 208.461 154.172 208.679 153.97 208.942L158.664 210.376C159.283 209.386 159.751 208.676 160.073 208.241C160.439 207.75 160.805 207.334 161.165 206.993C161.819 206.385 162.551 206.006 163.367 205.85C164.184 205.694 165.083 205.766 166.066 206.067C168.028 206.666 169.352 207.765 170.042 209.368C170.598 210.661 170.698 212.186 170.345 213.942L172.747 214.676C173.07 214.775 173.255 215.107 173.16 215.418L172.667 217.033C172.572 217.344 172.233 217.516 171.909 217.417L169.485 216.677C168.805 218.219 167.884 219.366 166.721 220.112C165.391 220.97 163.833 221.238 162.053 220.918C161.696 220.853 161.475 220.494 161.578 220.16L162.373 217.557C162.451 217.3 162.701 217.126 162.977 217.146C163.846 217.208 164.58 217.015 165.181 216.571C165.501 216.333 165.788 216.019 166.044 215.626L160.971 214.077L160.895 214.21C159.994 215.783 159.193 216.858 158.492 217.434C157.873 217.944 157.149 218.256 156.325 218.372C155.501 218.488 154.599 218.396 153.616 218.096C151.782 217.535 150.559 216.505 149.946 215.007C149.454 213.801 149.383 212.348 149.735 210.645L147.339 209.913C147.016 209.814 146.831 209.482 146.926 209.17L147.419 207.556C147.514 207.244 147.853 207.072 148.176 207.171L148.176 207.172ZM162.607 211.58L167.046 212.936C167.154 212.275 167.129 211.709 166.967 211.244C166.737 210.571 166.227 210.118 165.446 209.879C164.665 209.64 163.695 210.2 162.608 211.582L162.607 211.58ZM157.103 212.897L152.919 211.619C152.843 212.185 152.883 212.68 153.037 213.107C153.273 213.758 153.76 214.196 154.494 214.42C155.319 214.672 156.19 214.164 157.103 212.895L157.103 212.897Z" fill="#12DEC4"/>
<path d="M174.163 319.962C173.65 322.209 173.138 324.443 172.625 326.69C170.089 337.82 167.553 348.964 165.003 360.094C156.869 380.607 139.26 394.694 119.851 395.851C118.695 395.916 112.597 396.205 105.107 394.326C99.0622 392.815 92.0975 389.885 86.0658 384.313C82.1892 380.725 78.6411 373.038 71.5582 357.65C64.0809 341.434 62.504 334.193 63.1217 326.571C63.4896 321.959 64.5934 318.253 65.4345 315.862L174.15 319.962H174.163Z" fill="#DCAC82"/>
<path d="M176.616 269.833C175.704 266.808 174.792 263.768 173.894 260.729C172.609 256.419 171.352 252.122 170.122 247.853C166.6 241.706 161.225 233.886 153.254 226.205C150.021 223.097 146.816 220.444 143.777 218.192C138.651 214.393 132.172 212.818 125.914 213.979C125.707 214.02 125.499 214.061 125.292 214.103C125.237 214.103 125.196 214.117 125.14 214.13C119.324 215.374 114.433 219.325 111.905 224.713C109.985 228.816 107.498 234.301 105.744 238.86C103.63 244.386 101.074 252.509 99.6789 263.161C111.67 265.882 123.662 268.604 135.654 271.339L139.936 252.841C142.741 255.659 145.559 258.463 148.364 261.282C149.054 265.164 150.16 269.681 151.914 274.599C152.342 275.801 152.798 276.962 153.254 278.081C155.658 283.966 162.165 287.047 168.244 285.182L168.465 285.113C174.93 283.123 178.577 276.299 176.629 269.819L176.616 269.833Z" fill="#DCAC82"/>
<path d="M172.627 326.688C172.062 329.146 171.51 331.603 170.945 334.06C168.961 342.746 166.99 351.419 165.006 360.106C160.288 371.998 152.39 381.749 142.784 388.043C135.833 392.603 128.001 395.376 119.853 395.862C118.697 395.928 112.6 396.217 105.109 394.338C101.272 391.184 98.7753 387.662 97.1983 384.916C99.8528 385.665 103.322 386.388 107.409 386.571C110.957 386.729 114.058 386.44 116.542 386.046C109.012 381.552 92.9275 370.474 83.4266 349.751C79.2741 340.696 77.5132 332.273 76.7642 325.768C108.723 326.084 140.669 326.399 172.627 326.701V326.688Z" fill="#BE906A"/>
<path d="M170.943 334.062C168.959 342.748 166.988 351.421 165.004 360.108C160.286 372 152.388 381.751 142.782 388.045C144.596 385.641 146.685 382.421 148.525 378.4C150.259 374.589 151.284 371.093 151.902 368.255C149.878 369.687 143.19 374.011 134.096 373.249C128.84 372.802 124.897 370.831 122.703 369.503L121.271 334.075H170.943V334.062Z" fill="#BE906A"/>
<path d="M139.922 252.842C138.236 251.474 136.413 249.789 134.575 247.772C133.332 246.404 132.241 245.05 131.315 243.779C128.801 245.768 125.513 248.822 122.501 253.201C118.868 258.492 117.127 263.549 116.256 266.947C122.708 268.411 129.174 269.862 135.625 271.326L139.908 252.828L139.922 252.842Z" fill="#9F7554"/>
<path d="M108.156 365.559C93.622 360.08 84.0685 351.538 74.791 343.102C73.8448 342.234 72.9381 341.393 72.0577 340.565C65.3952 334.231 62.859 324.691 65.4478 315.874C68.6542 304.901 74.3705 291.247 84.765 277.804C92.1371 268.264 100.008 261.233 106.789 256.174C109.851 253.888 113.728 252.955 117.499 253.625C125.121 254.978 133.662 257.015 142.809 260.064C146.619 261.339 150.233 262.692 153.637 264.085C162.086 267.528 169.025 273.901 173.112 282.062C173.821 283.468 174.518 284.927 175.201 286.411C179.59 295.886 182.547 304.835 184.571 312.746C185.464 316.228 184.86 319.934 182.888 322.93C182.153 324.047 181.298 325.204 180.3 326.36C177.777 329.304 175.162 331.301 173.177 332.602C172.652 335.138 171.285 339.961 167.435 344.718C164.084 348.857 160.312 351.118 158.078 352.248C157.421 354.626 155.989 358.674 152.691 362.708C151.495 364.166 150.273 365.375 149.077 366.387C146.514 368.569 143.308 369.857 139.957 370.132C135.818 370.474 130.798 370.54 125.16 369.83C122.992 369.554 116.356 368.634 108.156 365.533V365.559Z" fill="#DCAC82"/>
<path d="M173.191 333.914C172.771 333.914 172.35 333.704 172.1 333.336C167.291 326.148 162.087 319.235 156.647 312.783C151.062 306.16 148.407 303.085 143.821 299.524C139.826 296.436 135.989 294.373 127.684 290.023C122.362 287.237 116.909 284.543 111.508 282.046C110.851 281.744 110.561 280.956 110.864 280.299C111.166 279.642 111.941 279.353 112.611 279.655C118.065 282.178 123.545 284.872 128.906 287.697C136.764 291.81 141.088 294.084 145.424 297.448C150.431 301.324 153.348 304.793 158.657 311.088C164.163 317.619 169.42 324.61 174.295 331.877C174.702 332.481 174.532 333.296 173.94 333.704C173.717 333.848 173.467 333.927 173.204 333.927L173.191 333.914Z" fill="#9F7554"/>
<path d="M158.091 353.562C157.985 353.562 157.894 353.562 157.788 353.522C152.677 352.34 147.552 350.855 142.571 349.107C137.919 347.478 129.246 344.442 119.154 338.45C115.212 336.111 111.532 333.43 104.173 328.095C99.5871 324.757 95.0272 321.327 90.6118 317.884C90.0336 317.437 89.9416 316.61 90.3884 316.044C90.8352 315.466 91.6631 315.374 92.2282 315.821C96.6172 319.251 101.151 322.667 105.711 325.979C112.991 331.275 116.644 333.929 120.481 336.203C130.337 342.064 138.852 345.047 143.425 346.637C148.314 348.345 153.347 349.817 158.367 350.973C159.076 351.131 159.51 351.84 159.352 352.55C159.208 353.154 158.669 353.562 158.077 353.562H158.091Z" fill="#9F7554"/>
<path d="M293.805 78.3479H287.24C265.484 78.3479 247.848 95.9845 247.848 117.74V170.263C247.848 192.019 265.484 209.656 287.24 209.656H293.805C315.561 209.656 333.198 192.019 333.198 170.263V117.74C333.198 95.9845 315.561 78.3479 293.805 78.3479Z" fill="#DCAC82"/>
<path d="M341.077 168.95H333.198V140.062H341.077C346.881 140.062 351.582 144.763 351.582 150.567V158.446C351.582 164.249 346.881 168.95 341.077 168.95Z" fill="#DCAC82"/>
<path fill-rule="evenodd" clip-rule="evenodd" d="M343.594 149.55C343.799 149.849 343.707 150.249 343.389 150.442L337.775 153.849L343.389 157.257C343.707 157.45 343.799 157.85 343.594 158.149C343.389 158.449 342.965 158.535 342.647 158.342L336.139 154.392C335.943 154.273 335.825 154.069 335.825 153.849C335.825 153.63 335.943 153.426 336.139 153.307L342.647 149.357C342.965 149.164 343.389 149.25 343.594 149.55Z" fill="#9F7554"/>
<path d="M239.97 140.062H247.849V168.949H239.97C234.167 168.949 229.466 164.249 229.466 158.445V150.566C229.466 144.763 234.167 140.062 239.97 140.062Z" fill="#DCAC82"/>
<path fill-rule="evenodd" clip-rule="evenodd" d="M237.451 149.55C237.656 149.25 238.08 149.164 238.398 149.357L244.907 153.307C245.102 153.426 245.221 153.63 245.221 153.849C245.221 154.069 245.102 154.273 244.907 154.392L238.398 158.342C238.08 158.535 237.656 158.449 237.451 158.149C237.247 157.85 237.338 157.45 237.656 157.257L243.271 153.849L237.656 150.442C237.338 150.249 237.247 149.849 237.451 149.55Z" fill="#9F7554"/>
<path d="M336.441 92.79C329.825 81.5189 317.62 77.841 309.237 75.3231C302.054 73.1612 283.55 67.5982 268.024 77.3796C264.215 79.7788 261.565 82.4944 259.918 84.4059C248.728 84.4059 237.433 93.8842 238.764 110.56C240.477 131.995 241.729 140.036 241.743 140.063H248.53C249.321 133.709 250.033 128.211 251.338 123.189C256.702 118.074 260.577 112.05 263.081 105.498C266.271 107.33 269.829 109.031 273.704 110.824C293.619 120.065 303.702 115.609 285.909 107.199C299.59 113.46 312.611 116.084 326.253 116.69C329.1 123.453 330.088 130.848 331.222 140.01V140.063H338.009V139.997C338.102 139.048 339.327 131.191 340.975 110.56C341.542 103.428 339.71 98.3662 336.428 92.79H336.441Z" fill="#2C2044"/>
<path d="M270.5 153.469C272.248 153.469 273.665 151.588 273.665 149.267C273.665 146.946 272.248 145.065 270.5 145.065C268.753 145.065 267.336 146.946 267.336 149.267C267.336 151.588 268.753 153.469 270.5 153.469Z" fill="#2C2044"/>
<path d="M310.758 153.469C312.505 153.469 313.922 151.588 313.922 149.267C313.922 146.946 312.505 145.065 310.758 145.065C309.01 145.065 307.593 146.946 307.593 149.267C307.593 151.588 309.01 153.469 310.758 153.469Z" fill="#2C2044"/>
<path d="M275.858 138.133C275.753 138.133 275.634 138.106 275.529 138.041C274.177 137.266 271.984 136.307 269.161 136.229C265.983 136.124 263.475 137.161 261.952 138.041C261.637 138.224 261.23 138.119 261.059 137.804C260.875 137.489 260.98 137.095 261.296 136.911C262.976 135.94 265.734 134.824 269.2 134.915C272.286 135.007 274.702 136.058 276.186 136.911C276.501 137.095 276.606 137.489 276.422 137.804C276.304 138.014 276.081 138.133 275.858 138.133Z" fill="#2C2044"/>
<path d="M305.401 138.133C305.177 138.133 304.954 138.014 304.836 137.804C304.652 137.489 304.757 137.095 305.072 136.911C306.543 136.058 308.959 135.021 312.058 134.915C315.538 134.824 318.295 135.94 319.963 136.911C320.278 137.095 320.383 137.489 320.199 137.804C320.015 138.119 319.621 138.224 319.306 138.041C317.783 137.161 315.288 136.137 312.097 136.229C309.274 136.32 307.081 137.266 305.742 138.041C305.637 138.106 305.519 138.133 305.414 138.133H305.401Z" fill="#2C2044"/>
<path d="M261.621 161.755C264.152 161.755 266.204 160.614 266.204 159.207C266.204 157.8 264.152 156.66 261.621 156.66C259.091 156.66 257.039 157.8 257.039 159.207C257.039 160.614 259.091 161.755 261.621 161.755Z" fill="#BE906A"/>
<path d="M319.635 161.755C322.166 161.755 324.218 160.614 324.218 159.207C324.218 157.8 322.166 156.66 319.635 156.66C317.105 156.66 315.053 157.8 315.053 159.207C315.053 160.614 317.105 161.755 319.635 161.755Z" fill="#BE906A"/>
<path d="M290.627 184.3C284.745 184.3 280.582 181.963 278.127 180.006C277.838 179.783 277.799 179.363 278.022 179.087C278.245 178.798 278.665 178.759 278.941 178.982C281.226 180.807 285.112 182.987 290.627 182.987C296.142 182.987 300.016 180.807 302.314 178.982C302.603 178.759 303.01 178.798 303.233 179.087C303.456 179.376 303.417 179.783 303.128 180.006C300.672 181.963 296.51 184.3 290.627 184.3Z" fill="#2C2044"/>
</g>
<path d="M400 474.05C425.594 474.05 446.341 453.302 446.341 427.708C446.341 402.115 425.594 381.367 400 381.367C374.406 381.367 353.659 402.115 353.659 427.708C353.659 453.302 374.406 474.05 400 474.05Z" fill="#DCAC82"/>
<path d="M388.477 362.132L362.037 395.354L437.683 471H492.292V362.132H388.477Z" fill="#DCAC82"/>
<path d="M353.683 427.699C353.547 420.097 353.91 408.457 356.805 394.72C360.626 376.601 366.017 368.618 370.265 354.194C372.933 345.134 375.484 332.437 375.184 315.989C375.057 309.083 380.394 303.365 387.147 303.318C393.391 303.272 398.682 308.108 399.227 314.476C400.253 326.487 400.162 338.823 398.782 351.354C402.712 355.298 410.854 364.618 413.676 378.959C418.841 405.264 401.541 425.323 399.418 427.708H353.683V427.699Z" fill="#DCAC82"/>
<path d="M368.293 460.906C374.54 462.399 391.704 465.686 400.842 456.336C403.971 453.14 405.329 449.311 405.922 420.673C406.561 389.563 405.165 383.94 403.277 379.031C398.991 367.904 392.151 360.357 387.563 356.062C389.98 354.001 393.3 350.072 396.912 345.539C396.912 345.539 400.66 339.733 400.915 335.09V335.025C400.915 335.025 400.915 335.025 400.915 335.035C400.824 338.551 400.642 342.196 400.368 345.96C400.204 348.222 400.012 350.43 399.794 352.591C405.22 356.007 445.075 381.907 446.27 421.617C446.47 428.339 446.908 442.598 437.177 455.576C425.959 470.54 409.388 473.251 407.09 473.59C385.411 476.74 370.208 462.737 368.293 460.915V460.906Z" fill="#BE906A"/>
<g clip-path="url(#clip0_13960_17479)">
<path d="M519 511.352V274.089C519 268.761 514.825 264.441 509.674 264.441H408.327C403.176 264.441 399 268.761 399 274.089V511.352C399 516.68 403.176 521 408.327 521H509.674C514.825 521 519 516.68 519 511.352Z" fill="#403556"/>
<path d="M519 503.911V266.648C519 261.32 514.825 257 509.674 257H408.327C403.176 257 399 261.32 399 266.648V503.911C399 509.24 403.176 513.559 408.327 513.559H509.674C514.825 513.559 519 509.24 519 503.911Z" fill="#2C2044"/>
<path d="M513.174 493.296V277.264C513.174 274.62 511.103 272.477 508.547 272.477H409.43C406.874 272.477 404.803 274.62 404.803 277.264V493.296C404.803 495.939 406.874 498.082 409.43 498.082H508.547C511.103 498.082 513.174 495.939 513.174 493.296Z" fill="#742384"/>
<path d="M446.905 267.541H471.072C472.476 267.541 473.614 266.364 473.614 264.912V264.59C473.614 263.138 472.476 261.961 471.072 261.961H446.905C445.501 261.961 444.363 263.138 444.363 264.59V264.912C444.363 266.364 445.501 267.541 446.905 267.541Z" fill="#544A69"/>
<path fill-rule="evenodd" clip-rule="evenodd" d="M474.627 349.172L468.336 361.3C468.077 361.797 467.486 361.979 467.016 361.707C466.546 361.44 466.37 360.818 466.629 360.322L472.92 348.192C473.178 347.697 473.769 347.515 474.24 347.784C474.71 348.054 474.883 348.675 474.627 349.172ZM461.178 362.021C457.547 362.021 456.547 359.513 456.291 358.26C456.182 357.766 456.179 357.418 456.179 357.252C456.179 356.66 456.635 356.181 457.195 356.181C457.72 356.181 458.147 356.598 458.204 357.129C458.204 357.134 458.209 357.137 458.209 357.141C458.214 357.174 458.218 357.232 458.223 357.309C458.23 357.369 458.24 357.429 458.24 357.493C458.24 357.536 458.242 357.578 458.244 357.624C458.254 357.711 458.264 357.805 458.28 357.903C458.318 358.11 458.384 358.342 458.496 358.577C458.51 358.599 458.52 358.622 458.532 358.644C458.876 359.318 459.583 359.979 460.951 360.055C463.009 360.116 463.616 359.393 463.624 358.494C463.546 357.454 463.486 356.705 461.11 355.684C458.33 354.491 456.557 353.769 456.557 351.271C456.557 348.775 458.762 347.744 460.782 347.744C461.291 347.744 461.732 347.807 462.126 347.907C462.914 348.071 463.787 348.411 464.44 349.085V349.08C464.606 349.234 464.782 349.462 464.936 349.736C464.953 349.764 464.97 349.791 464.984 349.819C465.024 349.894 465.062 349.973 465.1 350.056C465.112 350.083 465.124 350.108 465.136 350.136C465.335 350.599 465.478 351.149 465.478 351.71C465.478 351.81 465.49 351.977 465.456 352.165C465.454 352.182 465.449 352.197 465.447 352.215C465.437 352.257 465.423 352.299 465.406 352.344C465.399 352.364 465.395 352.382 465.385 352.399C465.38 352.414 465.373 352.429 465.364 352.447C465.195 352.796 464.856 353.038 464.457 353.038C464.105 353.038 463.802 352.851 463.619 352.569C463.605 352.544 463.591 352.519 463.578 352.494C463.55 352.445 463.527 352.389 463.507 352.334C463.505 352.327 463.5 352.32 463.5 352.312C463.491 352.285 463.481 352.255 463.477 352.228C463.429 352.058 463.408 351.876 463.408 351.723C463.408 351.69 463.405 351.66 463.403 351.628C463.403 351.578 463.4 351.533 463.396 351.486C463.365 351.221 463.291 351.012 463.201 350.842C463.192 350.825 463.182 350.807 463.173 350.79C463.154 350.76 463.137 350.732 463.118 350.702C462.61 349.933 461.525 349.544 460.733 349.544C459.664 349.544 458.517 350.161 458.517 351.294C458.517 352.424 459.545 353.103 461.288 353.707C464.692 355.018 465.395 356.078 465.701 357.372C466.038 358.786 465.454 362.021 461.178 362.021ZM480.16 350.178C478.275 341.288 469.762 335.714 461.15 337.733C452.536 339.755 447.083 348.6 448.97 357.491C449.592 360.429 450.938 363.005 452.775 365.064C453.718 366.125 451.616 371.975 452.785 372.738C453.746 373.368 457.948 368.96 459.021 369.364C461.791 370.405 464.879 370.662 467.98 369.936C476.592 367.916 482.047 359.071 480.16 350.178Z" fill="#10CBB4"/>
<path fill-rule="evenodd" clip-rule="evenodd" d="M474.703 377.294C475.948 376.586 478.274 376.364 479.393 377.96C480.515 379.554 480.774 382.57 480.612 385.054C480.447 387.626 479.473 392.046 477.963 395.148C476.5 398.164 474.521 400.285 471.747 399.826C469.558 399.463 468.515 398.087 468.362 397.869L468.342 397.84C468.342 397.84 468.197 398.531 467.78 401.447C467.663 402.263 467.543 403.318 467.404 404.447C469.233 404.178 470.649 403.976 471.263 403.898C473.783 403.575 483.333 402.287 485.996 402.2C488.659 402.11 489.207 402.554 489.631 403.263C490.052 403.975 490.223 405.128 489.419 405.973C488.618 406.814 481.983 407.258 478.854 407.7C476.945 407.973 471.316 408.757 466.607 409.437C466.36 410.495 466.064 411.35 465.699 411.794C464.492 413.26 463.244 412.719 462.879 411.794C462.684 411.296 462.698 410.57 462.753 410.003C461.485 410.193 460.482 410.351 459.923 410.451C458.552 410.699 455.164 411.355 451.606 412.103L450.633 412.309C447.547 412.968 444.46 413.674 442.56 414.224C442.209 415.35 441.855 416.476 441.483 417.595C440.059 421.882 438.22 426.019 435.364 429.486C434.394 430.662 433.315 431.767 432.038 432.555C430.759 433.342 429.261 433.806 427.787 433.636C425.686 433.399 423.99 431.798 423.456 429.669C422.902 427.467 423.57 425.037 424.378 422.973C425.246 420.748 426.535 418.706 428.101 416.95C429.311 415.59 430.681 414.397 432.15 413.352C433.191 412.553 434.515 411.675 436.091 410.896C436.717 410.589 437.409 410.301 438.136 410.039C438.239 409.995 438.34 409.95 438.443 409.908C438.58 409.85 438.721 409.79 438.816 409.673C438.899 409.575 438.937 409.448 438.975 409.321C439.86 406.324 440.825 403.351 441.759 400.367C441.54 401.061 440.77 401.803 440.3 402.297C439.272 403.368 437.901 404.412 436.412 404.514C435.54 404.574 434.637 404.307 433.966 403.715C433.155 402.999 432.749 401.875 432.654 400.766C432.528 399.339 432.809 397.861 433.099 396.47C433.396 395.041 433.788 393.634 434.225 392.246C434.52 391.309 434.839 390.378 435.162 389.454C435.455 388.625 435.861 387.784 435.963 386.902C436.075 385.926 435.849 384.893 436.189 384.211C436.529 383.529 437.406 383.687 438.233 383.862C439.063 384.034 439.964 385.1 439.881 386.281C439.796 387.464 439.289 388.975 438.949 390.128C438.614 391.282 437.88 393.649 437.625 394.802C437.373 395.955 436.959 397.936 437.796 398.56C438.866 399.359 440.302 398.058 441.429 396.252C442.458 394.604 443.88 390.365 444.303 389.092C444.726 387.821 445.668 384.69 445.972 383.712C446.274 382.731 446.978 381.787 448.021 381.135C449.063 380.484 450.164 380.366 450.896 380.631C451.628 380.898 451.064 382.85 450.896 383.529L450.886 383.568C450.722 384.201 449.071 390.394 447.461 396.429L447.207 397.38C445.69 403.067 444.282 408.342 444.282 408.342C444.28 408.352 444.277 408.359 444.274 408.367C446.671 407.855 448.839 407.496 450.057 407.226L450.217 407.191C451.665 406.888 455.879 406.208 460.187 405.541L461.221 405.381C462.036 405.256 462.847 405.132 463.635 405.013C463.867 403.745 464.142 402.252 464.439 400.631C463.35 401.348 461.911 401.987 460.773 401.598C459.057 401.009 459.011 398.94 459.011 398.94C458.05 401.406 456.2 403.304 453.697 402.916C451.194 402.531 450.48 400.714 450.174 399.36C449.865 398.006 449.221 394.711 450.994 389.179C452.768 383.645 455.741 380.114 458.195 379.744C460.649 379.374 461.854 381.016 461.854 381.016L462.189 379.915C462.525 378.815 463.635 378.88 464.759 379.225C465.884 379.573 465.981 380.586 465.746 381.637C465.649 382.073 465.335 383.548 465.003 385.119L464.803 386.066C464.405 387.953 464.035 389.71 464.035 389.71C464.035 389.71 462.262 396.889 463.977 396.358C464.578 396.172 465.033 395.882 465.37 395.582C465.461 395.082 465.554 394.58 465.646 394.078L465.926 392.566C467.196 385.693 468.413 379.172 468.561 378.619C468.88 377.416 469.62 377.516 471.039 377.87C472.461 378.225 472.115 378.818 472.115 378.818L471.875 380.565C472.107 379.976 473.452 378.003 474.703 377.294ZM437.257 415.745C437.257 415.745 433.355 417.252 430.386 421.148C428.018 424.253 426.926 427.417 427.787 428.515C428.864 429.894 430.925 427.619 431.615 426.792C433.013 425.118 434.087 423.18 435.043 421.2C435.506 420.236 435.946 419.26 436.346 418.266C436.534 417.797 436.714 417.325 436.883 416.85C436.933 416.706 437.14 415.789 437.257 415.745ZM487.314 376.566C488.711 375.35 490.249 375.06 492.048 375.374C492.559 375.463 493.056 375.66 493.479 375.968C496.335 378.038 494.593 382.386 493.049 384.766C491.93 386.489 490.306 387.741 488.462 388.549C487.842 388.822 486.668 389.299 485.536 389.326C485.491 389.328 485.039 390.544 484.94 391.26C484.828 392.087 484.898 393.374 485.459 393.916C486.785 395.203 489.115 393.618 490.148 392.72C490.613 392.313 491.108 391.932 491.495 391.447C491.858 391 492.492 389.996 493.109 390.203C493.616 390.372 493.926 391.347 494.087 391.757C494.087 391.757 494.546 392.907 494.216 393.601C493.887 394.295 491.526 396.483 490.983 396.92C490.445 397.356 488.507 398.611 486.8 399.049C485.443 399.396 483.884 399.244 482.738 398.368C482.004 397.81 481.487 396.989 481.175 396.108C480.86 395.23 480.74 394.292 480.685 393.357C480.471 389.525 481.465 385.393 483.245 382.017C484.808 379.044 485.438 378.192 487.314 376.566ZM461.118 385.47C461.431 383.822 460.316 383.47 459.356 383.856C458.161 384.336 456.54 385.287 455.225 388.371C454.53 390.006 454.131 391.699 454.03 393.131C453.929 394.565 454.138 397.123 455.77 397.448C457.23 397.736 458.282 395.335 459.231 392.387C460.117 389.628 460.818 387.04 461.118 385.47ZM476.6 385.163C476.718 383.483 476.355 380.205 474.099 381.907C472.277 383.276 471.41 386.516 470.705 389.265C469.958 392.171 469.455 395.047 469.455 395.047C470.518 396.274 472.459 395.623 473.377 394.637C474.426 393.515 474.964 391.981 475.459 390.512C476.042 388.781 476.471 387.002 476.6 385.163ZM491.267 380.051C491.159 379.442 490.654 379.145 490.061 379.298C489.651 379.404 489.31 379.697 489.012 380.006C487.6 381.49 486.461 384.323 486.259 385.462C486.274 385.368 486.56 385.47 487.54 385.056C487.895 384.904 488.229 384.734 488.553 384.52C489.259 384.055 489.92 383.499 490.424 382.807C490.957 382.076 491.437 380.986 491.267 380.051Z" fill="white"/>
</g>
<path d="M530.589 352.213C537.475 349.757 541.066 342.184 538.61 335.298C536.154 328.412 528.581 324.821 521.695 327.277L509.367 331.675C502.481 334.131 498.89 341.704 501.346 348.589C503.802 355.475 511.375 359.066 518.26 356.61L530.589 352.213Z" fill="#DCAC82"/>
<path d="M531.644 389.971C538.834 388.648 543.59 381.746 542.266 374.556C540.943 367.366 534.041 362.611 526.851 363.934L511.46 366.767C504.27 368.091 499.514 374.992 500.838 382.182C502.161 389.372 509.063 394.128 516.253 392.804L531.644 389.971Z" fill="#DCAC82"/>
<path d="M532.571 426.294C539.851 425.62 545.206 419.172 544.532 411.892C543.858 404.613 537.41 399.258 530.13 399.932L515.027 401.33C507.748 402.005 502.393 408.452 503.067 415.732C503.741 423.011 510.189 428.366 517.468 427.692L532.571 426.294Z" fill="#DCAC82"/>
<path d="M528.093 462.424C535.373 461.75 540.727 455.302 540.053 448.023C539.379 440.743 532.932 435.388 525.652 436.062L512.56 437.275C505.28 437.949 499.925 444.396 500.599 451.676C501.273 458.955 507.721 464.31 515.001 463.636L528.093 462.424Z" fill="#DCAC82"/>
<g clip-path="url(#clip1_13960_17479)">
<path fill-rule="evenodd" clip-rule="evenodd" d="M78.2115 92.986C79.2734 95.4775 81.2606 97.4609 83.7485 98.5228C86.9227 99.8766 91.4585 101.815 95.0765 103.358C97.2875 104.302 97.2837 107.431 95.0765 108.375L83.7485 113.211C81.2568 114.272 79.2734 116.256 78.2115 118.747C76.8576 121.922 74.9196 126.457 73.3761 130.075C72.4318 132.286 69.303 132.286 68.3587 130.075C66.8151 126.457 64.8772 121.922 63.5233 118.747C62.4614 116.256 60.4742 114.272 57.9863 113.211C54.812 111.857 50.2763 109.919 46.6583 108.375C44.4472 107.431 44.4472 104.302 46.6583 103.358C50.2763 101.815 54.812 99.8766 57.9863 98.5228C60.478 97.4609 62.4614 95.4737 63.5233 92.986C64.8772 89.8118 66.8151 85.2761 68.3587 81.6582C69.303 79.4473 72.4318 79.4473 73.3761 81.6582C74.9196 85.2761 76.8576 89.8118 78.2115 92.986Z" fill="#12DEC4"/>
</g>
<g clip-path="url(#clip2_13960_17479)">
<path fill-rule="evenodd" clip-rule="evenodd" d="M492.211 101.986C493.273 104.478 495.261 106.461 497.748 107.523C500.923 108.877 505.459 110.815 509.077 112.358C511.288 113.302 511.284 116.431 509.077 117.375L497.748 122.211C495.257 123.272 493.273 125.256 492.211 127.747C490.858 130.922 488.92 135.457 487.376 139.075C486.432 141.286 483.303 141.286 482.359 139.075C480.815 135.457 478.877 130.922 477.523 127.747C476.461 125.256 474.474 123.272 471.986 122.211C468.812 120.857 464.276 118.919 460.658 117.375C458.447 116.431 458.447 113.302 460.658 112.358C464.276 110.815 468.812 108.877 471.986 107.523C474.478 106.461 476.461 104.474 477.523 101.986C478.877 98.8118 480.815 94.2761 482.359 90.6582C483.303 88.4473 486.432 88.4473 487.376 90.6582C488.92 94.2761 490.858 98.8118 492.211 101.986Z" fill="#12DEC4"/>
</g>
<g clip-path="url(#clip3_13960_17479)">
<path fill-rule="evenodd" clip-rule="evenodd" d="M398.333 167.777C398.888 169.078 399.925 170.113 401.223 170.667C402.88 171.374 405.247 172.385 407.135 173.191C408.289 173.684 408.287 175.316 407.135 175.809L401.223 178.333C399.923 178.887 398.888 179.922 398.333 181.223C397.627 182.879 396.615 185.246 395.81 187.135C395.317 188.288 393.684 188.288 393.191 187.135C392.385 185.246 391.374 182.879 390.667 181.223C390.113 179.922 389.076 178.887 387.778 178.333C386.121 177.626 383.754 176.615 381.865 175.809C380.712 175.316 380.712 173.684 381.865 173.191C383.754 172.385 386.121 171.374 387.778 170.667C389.078 170.113 390.113 169.076 390.667 167.777C391.374 166.121 392.385 163.754 393.191 161.865C393.684 160.712 395.317 160.712 395.81 161.865C396.615 163.754 397.627 166.121 398.333 167.777Z" fill="#12DEC4"/>
</g>
<g clip-path="url(#clip4_13960_17479)">
<path fill-rule="evenodd" clip-rule="evenodd" d="M547.481 169.271C547.913 170.283 548.719 171.088 549.729 171.519C551.018 172.068 552.859 172.855 554.327 173.482C555.225 173.865 555.223 175.135 554.327 175.518L549.729 177.481C548.718 177.912 547.913 178.717 547.481 179.729C546.932 181.017 546.145 182.858 545.519 184.327C545.135 185.224 543.865 185.224 543.482 184.327C542.855 182.858 542.069 181.017 541.519 179.729C541.088 178.717 540.281 177.912 539.272 177.481C537.983 176.932 536.142 176.145 534.673 175.518C533.776 175.135 533.776 173.865 534.673 173.482C536.142 172.855 537.983 172.068 539.272 171.519C540.283 171.088 541.088 170.281 541.519 169.271C542.069 167.983 542.855 166.142 543.482 164.673C543.865 163.776 545.135 163.776 545.519 164.673C546.145 166.142 546.932 167.983 547.481 169.271Z" fill="#12DEC4"/>
</g>
<g clip-path="url(#clip5_13960_17479)">
<path fill-rule="evenodd" clip-rule="evenodd" d="M17.3333 215.777C17.8875 217.078 18.9247 218.113 20.2231 218.667C21.8798 219.374 24.247 220.385 26.1353 221.191C27.2892 221.684 27.2872 223.316 26.1353 223.809L20.2231 226.333C18.9227 226.887 17.8875 227.922 17.3333 229.223C16.6267 230.879 15.6153 233.246 14.8097 235.135C14.3168 236.288 12.6839 236.288 12.1911 235.135C11.3855 233.246 10.3741 230.879 9.66744 229.223C9.11323 227.922 8.07608 226.887 6.77765 226.333C5.12097 225.626 2.75371 224.615 0.865453 223.809C-0.288484 223.316 -0.288484 221.684 0.865453 221.191C2.75371 220.385 5.12097 219.374 6.77765 218.667C8.07806 218.113 9.11323 217.076 9.66744 215.777C10.3741 214.121 11.3855 211.754 12.1911 209.865C12.6839 208.712 14.3168 208.712 14.8097 209.865C15.6153 211.754 16.6267 214.121 17.3333 215.777Z" fill="#12DEC4"/>
</g>
<g clip-path="url(#clip6_13960_17479)">
<path fill-rule="evenodd" clip-rule="evenodd" d="M94.4815 166.271C94.9125 167.283 95.7192 168.088 96.7291 168.519C98.0176 169.068 99.8588 169.855 101.327 170.482C102.225 170.865 102.223 172.135 101.327 172.518L96.7291 174.481C95.7176 174.912 94.9125 175.717 94.4815 176.729C93.9319 178.017 93.1452 179.858 92.5186 181.327C92.1353 182.224 90.8653 182.224 90.4819 181.327C89.8554 179.858 89.0687 178.017 88.5191 176.729C88.0881 175.717 87.2814 174.912 86.2715 174.481C84.983 173.932 83.1418 173.145 81.6731 172.518C80.7756 172.135 80.7756 170.865 81.6731 170.482C83.1418 169.855 84.983 169.068 86.2715 168.519C87.2829 168.088 88.0881 167.281 88.5191 166.271C89.0687 164.983 89.8554 163.142 90.4819 161.673C90.8653 160.776 92.1353 160.776 92.5186 161.673C93.1452 163.142 93.9319 164.983 94.4815 166.271Z" fill="#12DEC4"/>
</g>
<defs>
<clipPath id="clip0_13960_17479">
<rect width="120" height="264" fill="white" transform="translate(399 257)"/>
</clipPath>
<clipPath id="clip1_13960_17479">
<rect width="51.7333" height="51.7333" fill="white" transform="translate(45 80)"/>
</clipPath>
<clipPath id="clip2_13960_17479">
<rect width="51.7333" height="51.7333" fill="white" transform="translate(459 89)"/>
</clipPath>
<clipPath id="clip3_13960_17479">
<rect width="27" height="27" fill="white" transform="translate(381 161)"/>
</clipPath>
<clipPath id="clip4_13960_17479">
<rect width="21" height="21" fill="white" transform="translate(534 164)"/>
</clipPath>
<clipPath id="clip5_13960_17479">
<rect width="27" height="27" fill="white" transform="translate(0 209)"/>
</clipPath>
<clipPath id="clip6_13960_17479">
<rect width="21" height="21" fill="white" transform="translate(81 161)"/>
</clipPath>
</defs>
</svg>
