<svg width="64" height="64" viewBox="0 0 64 64" fill="none" xmlns="http://www.w3.org/2000/svg">
<path d="M51.7615 14.4H12.2387C10.8745 14.4 9.76855 15.4874 9.76855 16.8288V36.4801C9.76855 37.8215 10.8745 38.9089 12.2387 38.9089H51.7615C53.1258 38.9089 54.2317 37.8215 54.2317 36.4801V16.8288C54.2317 15.4874 53.1258 14.4 51.7615 14.4Z" fill="#BD77C7"/>
<path fill-rule="evenodd" clip-rule="evenodd" d="M51.7618 20.1709V33.7505C50.5232 34.2479 49.5343 35.2292 49.033 36.458H15.585C15.003 35.0314 13.7638 33.9385 12.2397 33.549V20.3725C13.9751 19.9289 15.3414 18.5733 15.7883 16.8514H48.8297C49.2222 18.3637 50.3238 19.5934 51.7618 20.1709Z" fill="#742384"/>
<path fill-rule="evenodd" clip-rule="evenodd" d="M32.6177 19.9146C36.3694 19.9146 39.4107 22.9321 39.4107 26.6545C39.4107 30.3768 36.3694 33.3944 32.6177 33.3944C28.866 33.3944 25.8247 30.3768 25.8247 26.6545C25.8247 22.9321 28.866 19.9146 32.6177 19.9146Z" fill="#BD77C7"/>
<path d="M44.3512 28.4925C45.3743 28.4925 46.2038 27.6696 46.2038 26.6544C46.2038 25.6392 45.3743 24.8162 44.3512 24.8162C43.328 24.8162 42.4985 25.6392 42.4985 26.6544C42.4985 27.6696 43.328 28.4925 44.3512 28.4925Z" fill="#BD77C7"/>
<path d="M20.2667 28.4925C21.2899 28.4925 22.1193 27.6696 22.1193 26.6544C22.1193 25.6392 21.2899 24.8162 20.2667 24.8162C19.2435 24.8162 18.4141 25.6392 18.4141 26.6544C18.4141 27.6696 19.2435 28.4925 20.2667 28.4925Z" fill="#BD77C7"/>
<path fill-rule="evenodd" clip-rule="evenodd" d="M32.9125 28.66C32.7483 28.9172 32.5269 29.1075 32.2482 29.2309C32.0736 29.3044 31.8728 29.3553 31.6467 29.3854C31.4205 29.4156 31.1559 29.4306 30.8537 29.4306H29.1037C28.8513 29.4306 28.6711 29.3741 28.5622 29.2601C28.4543 29.1461 28.3999 28.9652 28.3999 28.7165V24.3941C28.3999 24.1407 28.4553 23.9579 28.566 23.8467C28.6767 23.7356 28.8559 23.68 29.1027 23.68H30.9579C31.231 23.68 31.4684 23.697 31.6692 23.7309C31.87 23.7648 32.0492 23.8307 32.2078 23.9268C32.3429 24.0078 32.463 24.1105 32.5672 24.2349C32.6714 24.3593 32.7511 24.4968 32.8056 24.6466C32.86 24.7973 32.8872 24.9556 32.8872 25.1233C32.8872 25.6989 32.601 26.1191 32.0276 26.3867C32.7802 26.6269 33.1565 27.0951 33.1565 27.7904C33.1584 28.1126 33.0767 28.4018 32.9125 28.66ZM31.2927 25.9599C31.4504 25.9053 31.5705 25.8007 31.654 25.6462C31.7187 25.536 31.7516 25.4135 31.7516 25.2778C31.7516 24.9877 31.6484 24.7945 31.4429 24.6994C31.2374 24.6042 30.923 24.5562 30.5017 24.5562H29.5605V26.0428H30.6227C30.9117 26.0419 31.1351 26.0146 31.2927 25.9599ZM30.7672 26.8775C31.1707 26.8775 31.4748 26.9425 31.6775 27.0735C31.8811 27.2045 31.9824 27.4145 31.9824 27.7057C31.9824 28.2728 31.5902 28.5564 30.8067 28.5564H29.5605V26.8775H30.7672Z" fill="#742384"/>
<path d="M36.9869 28.887C36.8434 29.0971 36.6322 29.2573 36.3517 29.3656C36.072 29.474 35.7314 29.5286 35.3298 29.5286C34.9469 29.5286 34.6185 29.4702 34.3454 29.3524C34.0724 29.2347 33.8697 29.0877 33.7402 28.9115C33.6097 28.7353 33.545 28.5582 33.545 28.3802C33.545 28.2624 33.5863 28.1616 33.6698 28.0778C33.7533 27.9939 33.8584 27.9525 33.986 27.9525C34.0977 27.9525 34.184 27.9798 34.2441 28.0344C34.3041 28.0891 34.3614 28.1663 34.4158 28.2662C34.5256 28.4574 34.656 28.5997 34.808 28.6939C34.9601 28.7881 35.1684 28.8352 35.4311 28.8352C35.6451 28.8352 35.8196 28.7872 35.9566 28.692C36.0936 28.5969 36.1612 28.4876 36.1612 28.3642C36.1612 28.1757 36.0899 28.0382 35.9482 27.9525C35.8065 27.8658 35.5728 27.7838 35.2472 27.7056C34.8803 27.6142 34.5809 27.5181 34.351 27.4173C34.1202 27.3165 33.9363 27.1837 33.7984 27.0188C33.6604 26.854 33.591 26.6514 33.591 26.4112C33.591 26.1964 33.6548 25.9938 33.7824 25.8035C33.91 25.6123 34.0986 25.4606 34.3473 25.3466C34.596 25.2326 34.8962 25.1761 35.2472 25.1761C35.5231 25.1761 35.7717 25.2053 35.9913 25.2627C36.2118 25.3202 36.3948 25.3975 36.5421 25.4945C36.6895 25.5915 36.8011 25.698 36.8781 25.8158C36.955 25.9335 36.9935 26.0485 36.9935 26.1606C36.9935 26.283 36.9522 26.3838 36.8706 26.463C36.7889 26.5412 36.6716 26.5807 36.5206 26.5807C36.4108 26.5807 36.3179 26.5497 36.2409 26.4865C36.164 26.4234 36.0758 26.3292 35.9772 26.2039C35.8965 26.0993 35.8018 26.0155 35.692 25.9533C35.5822 25.8902 35.4339 25.8591 35.2463 25.8591C35.0539 25.8591 34.8934 25.9005 34.7658 25.9825C34.6382 26.0645 34.5744 26.1672 34.5744 26.2906C34.5744 26.4027 34.6213 26.495 34.7151 26.5676C34.809 26.6392 34.9347 26.6985 35.0942 26.7456C35.2528 26.7927 35.4715 26.8502 35.7502 26.918C36.0805 26.999 36.3507 27.0961 36.5609 27.2082C36.7702 27.3203 36.9297 27.4531 37.0376 27.6067C37.1455 27.7593 37.1999 27.9346 37.1999 28.1305C37.2018 28.4235 37.1305 28.6769 36.9869 28.887Z" fill="#742384"/>
<path d="M54.7555 22.3488H9.24435C7.6734 22.3488 6.3999 23.601 6.3999 25.1456V47.3729C6.3999 48.9175 7.6734 50.1697 9.24435 50.1697H54.7555C56.3264 50.1697 57.5999 48.9175 57.5999 47.3729V25.1456C57.5999 23.601 56.3264 22.3488 54.7555 22.3488Z" fill="#CE92D6"/>
<path fill-rule="evenodd" clip-rule="evenodd" d="M54.755 28.8995V44.3146C53.329 44.8792 52.1903 45.993 51.6132 47.3879H13.0975C12.4273 45.7683 11.0001 44.5277 9.24512 44.0855V29.1285C11.2435 28.6251 12.8167 27.0864 13.3314 25.1318H51.3792C51.8312 26.8482 53.0995 28.2439 54.755 28.8995Z" fill="#8B3D99"/>
<path fill-rule="evenodd" clip-rule="evenodd" d="M32.7109 28.6085C37.031 28.6085 40.5331 32.0339 40.5331 36.2593C40.5331 40.4846 37.031 43.91 32.7109 43.91C28.3908 43.91 24.8887 40.4846 24.8887 36.2593C24.8887 32.0339 28.3908 28.6085 32.7109 28.6085Z" fill="#CE92D6"/>
<path d="M46.2222 38.3458C47.4004 38.3458 48.3555 37.4116 48.3555 36.2592C48.3555 35.1069 47.4004 34.1727 46.2222 34.1727C45.044 34.1727 44.0889 35.1069 44.0889 36.2592C44.0889 37.4116 45.044 38.3458 46.2222 38.3458Z" fill="#CE92D6"/>
<path d="M18.4888 38.3458C19.667 38.3458 20.6221 37.4116 20.6221 36.2592C20.6221 35.1069 19.667 34.1727 18.4888 34.1727C17.3106 34.1727 16.3555 35.1069 16.3555 36.2592C16.3555 37.4116 17.3106 38.3458 18.4888 38.3458Z" fill="#CE92D6"/>
<path fill-rule="evenodd" clip-rule="evenodd" d="M32.9381 38.5695C32.7584 38.8509 32.516 39.0592 32.2111 39.1942C32.0201 39.2746 31.8003 39.3303 31.5529 39.3633C31.3054 39.3963 31.0158 39.4128 30.6852 39.4128H28.7701C28.4939 39.4128 28.2968 39.3509 28.1776 39.2262C28.0596 39.1014 28 38.9035 28 38.6313V33.9014C28 33.6241 28.0606 33.4241 28.1817 33.3025C28.3029 33.1808 28.499 33.12 28.7691 33.12H30.7992C31.098 33.12 31.3578 33.1386 31.5775 33.1757C31.7972 33.2128 31.9934 33.2849 32.1669 33.3901C32.3148 33.4788 32.4462 33.5911 32.5602 33.7272C32.6742 33.8633 32.7614 34.0138 32.821 34.1777C32.8806 34.3427 32.9103 34.5159 32.9103 34.6994C32.9103 35.3293 32.5971 35.7891 31.9698 36.0818C32.7933 36.3447 33.205 36.8571 33.205 37.6179C33.2071 37.9705 33.1178 38.287 32.9381 38.5695ZM31.1655 35.6149C31.3381 35.5551 31.4695 35.4406 31.5609 35.2716C31.6317 35.1509 31.6677 35.0169 31.6677 34.8685C31.6677 34.5509 31.5547 34.3396 31.3298 34.2355C31.105 34.1314 30.761 34.0788 30.2999 34.0788H29.27V35.7056H30.4324C30.7487 35.7045 30.993 35.6746 31.1655 35.6149ZM37.3966 38.8179C37.2395 39.0478 37.0084 39.2231 36.7014 39.3416C36.3954 39.4602 36.0227 39.52 35.5832 39.52C35.1642 39.52 34.8048 39.4561 34.506 39.3272C34.2072 39.1983 33.9854 39.0375 33.8437 38.8447C33.701 38.6519 33.6301 38.4581 33.6301 38.2633C33.6301 38.1344 33.6753 38.0241 33.7667 37.9324C33.8581 37.8406 33.9731 37.7953 34.1128 37.7953C34.235 37.7953 34.3294 37.8251 34.3951 37.8849C34.4609 37.9447 34.5235 38.0293 34.5831 38.1386C34.7032 38.3478 34.8459 38.5035 35.0123 38.6066C35.1786 38.7097 35.4066 38.7612 35.6941 38.7612C35.9282 38.7612 36.1192 38.7087 36.2691 38.6045C36.419 38.5004 36.493 38.3808 36.493 38.2458C36.493 38.0396 36.4149 37.8891 36.2599 37.7953C36.1048 37.7004 35.8491 37.6107 35.4928 37.5251C35.0913 37.4251 34.7638 37.32 34.5122 37.2097C34.2596 37.0994 34.0583 36.954 33.9074 36.7736C33.7564 36.5932 33.6805 36.3715 33.6805 36.1087C33.6805 35.8736 33.7503 35.652 33.8899 35.4437C34.0296 35.2344 34.236 35.0684 34.5081 34.9437C34.7802 34.819 35.1088 34.7571 35.4928 34.7571C35.7947 34.7571 36.0668 34.7891 36.3071 34.852C36.5484 34.9148 36.7487 34.9994 36.9099 35.1056C37.0711 35.2117 37.1933 35.3282 37.2775 35.4571C37.3617 35.586 37.4038 35.7117 37.4038 35.8344C37.4038 35.9684 37.3586 36.0788 37.2693 36.1654C37.1799 36.2509 37.0516 36.2942 36.8862 36.2942C36.7661 36.2942 36.6645 36.2602 36.5802 36.1911C36.496 36.1221 36.3995 36.019 36.2917 35.8818C36.2034 35.7674 36.0997 35.6757 35.9795 35.6076C35.8594 35.5386 35.6972 35.5045 35.4918 35.5045C35.2813 35.5045 35.1057 35.5499 34.9661 35.6396C34.8264 35.7293 34.7566 35.8416 34.7566 35.9767C34.7566 36.0994 34.8079 36.2004 34.9106 36.2798C35.0133 36.3581 35.1509 36.4231 35.3255 36.4746C35.499 36.5262 35.7382 36.5891 36.0432 36.6633C36.4047 36.752 36.7004 36.8581 36.9304 36.9808C37.1594 37.1035 37.3339 37.2489 37.452 37.4169C37.5701 37.5839 37.6297 37.7757 37.6297 37.9901C37.6317 38.3107 37.5537 38.588 37.3966 38.8179ZM30.5905 36.619C31.0321 36.619 31.3648 36.6901 31.5866 36.8334C31.8094 36.9767 31.9203 37.2066 31.9203 37.5252C31.9203 38.1458 31.4911 38.4561 30.6337 38.4561H29.27V36.619H30.5905Z" fill="#8B3D99"/>
</svg>
