<svg width="600" height="600" viewBox="0 0 600 600" fill="none" xmlns="http://www.w3.org/2000/svg">
<path d="M600 248.025C600 384.05 502.649 520.417 300 520.417C134.315 520.417 0 410.147 0 274.122C0 198.332 31.1881 106.12 111.386 83.2844C191.584 60.4491 199.187 136.334 285.326 136.334C371.465 136.334 423.913 87.51 510.326 108.667C575.543 124.635 600 182.76 600 248.025Z" fill="#F6E1F9"/>
<mask id="mask0_568_10368" style="mask-type:alpha" maskUnits="userSpaceOnUse" x="0" y="79" width="600" height="442">
<path d="M600 248.025C600 384.05 502.649 520.417 300 520.417C134.315 520.417 0 410.147 0 274.122C0 198.332 31.1881 106.12 111.386 83.2844C191.584 60.4491 199.187 136.334 285.326 136.334C371.465 136.334 423.913 87.5101 510.326 108.667C575.543 124.635 600 182.76 600 248.025Z" fill="#F6E1F9"/>
</mask>
<g mask="url(#mask0_568_10368)">
<path d="M669.167 372.106C679.143 373.985 689.169 375.6 699.245 376.95C751.419 383.967 804.374 383.83 856.595 376.547C881.132 373.119 898.246 350.48 894.836 325.947C891.427 301.413 868.767 284.314 844.233 287.724C800.073 293.879 755.317 293.991 711.205 288.073C662.624 281.55 615.391 267.78 570.78 247.167C548.3 236.764 521.647 246.582 511.262 269.064C500.876 291.547 510.676 318.197 533.159 328.583C576.646 348.674 622.281 363.274 669.167 372.106Z" fill="#DCAC82"/>
<path d="M543.679 331.935C519.343 327.351 503.33 303.906 507.914 279.569C512.498 255.232 535.943 239.219 560.28 243.804C584.617 248.388 600.629 271.833 596.045 296.169C591.461 320.506 568.016 336.519 543.679 331.935Z" fill="#DCAC82"/>
<path d="M493.794 231.279L560.28 243.802L543.676 331.951L477.19 319.428L493.794 231.279Z" fill="#DCAC82"/>
<path d="M533.281 281.426C541.63 287.379 556.483 288.838 561.151 288.501L546.577 261.116L495.128 251.425L487.824 290.203L521.314 296.511C526.181 297.428 530.87 294.226 531.786 289.359L533.281 281.426Z" fill="#BE906A"/>
<path d="M477.454 228.202L506.89 233.747C512.974 234.893 516.977 240.754 515.831 246.838C514.685 252.923 508.824 256.926 502.74 255.78L473.304 250.235C467.22 249.089 463.217 243.228 464.363 237.144C465.509 231.06 471.37 227.056 477.454 228.202Z" fill="#DCAC82"/>
<path d="M473.304 250.235L502.74 255.78C508.824 256.926 512.827 262.787 511.681 268.871C510.535 274.955 504.674 278.958 498.59 277.812L469.154 272.268C463.07 271.122 459.067 265.261 460.213 259.176C461.359 253.092 467.22 249.089 473.304 250.235Z" fill="#DCAC82"/>
<path d="M469.154 272.267L498.59 277.812C504.674 278.958 508.677 284.819 507.531 290.903C506.385 296.988 500.524 300.991 494.44 299.845L465.004 294.3C458.92 293.154 454.917 287.293 456.063 281.209C457.209 275.125 463.07 271.121 469.154 272.267Z" fill="#DCAC82"/>
<path d="M465.001 294.317L494.436 299.861C500.521 301.007 504.524 306.869 503.378 312.953C502.232 319.037 496.371 323.04 490.286 321.894L460.851 316.35C454.766 315.204 450.763 309.342 451.909 303.258C453.055 297.174 458.917 293.171 465.001 294.317Z" fill="#DCAC82"/>
<path fill-rule="evenodd" clip-rule="evenodd" d="M506.707 234.625C512.301 235.678 515.986 241.075 514.933 246.669C513.879 252.263 508.483 255.949 502.888 254.895L472.043 249.085C471.556 248.993 471.087 249.313 470.995 249.8C470.904 250.287 471.224 250.756 471.711 250.847L502.556 256.657C509.124 257.895 515.458 253.569 516.695 247.001C517.932 240.433 513.606 234.099 507.039 232.862C506.552 232.77 506.083 233.091 505.991 233.577C505.9 234.064 506.22 234.533 506.707 234.625Z" fill="#9F7554"/>
<path fill-rule="evenodd" clip-rule="evenodd" d="M502.556 256.658C508.151 257.711 511.836 263.107 510.782 268.702C509.729 274.296 504.333 277.982 498.738 276.928L467.892 271.118C467.406 271.026 466.937 271.346 466.845 271.833C466.753 272.32 467.074 272.789 467.56 272.88L498.406 278.69C504.974 279.928 511.308 275.602 512.545 269.034C513.782 262.466 509.456 256.132 502.888 254.895C502.402 254.803 501.933 255.124 501.841 255.61C501.749 256.097 502.07 256.566 502.556 256.658Z" fill="#9F7554"/>
<path fill-rule="evenodd" clip-rule="evenodd" d="M498.403 278.707C503.997 279.761 507.683 285.157 506.629 290.751C505.575 296.345 500.179 300.031 494.585 298.977L463.739 293.167C463.252 293.075 462.783 293.396 462.692 293.882C462.6 294.369 462.92 294.838 463.407 294.93L494.253 300.74C500.821 301.977 507.155 297.651 508.392 291.083C509.629 284.515 505.303 278.181 498.735 276.944C498.248 276.853 497.779 277.173 497.688 277.66C497.596 278.146 497.916 278.615 498.403 278.707Z" fill="#9F7554"/>
<path fill-rule="evenodd" clip-rule="evenodd" d="M494.271 300.744C499.865 301.798 503.55 307.194 502.497 312.788C501.443 318.383 496.047 322.068 490.452 321.014C489.966 320.923 489.497 321.243 489.405 321.73C489.313 322.216 489.634 322.685 490.12 322.777C496.688 324.014 503.022 319.688 504.259 313.12C505.496 306.553 501.17 300.219 494.603 298.982C494.116 298.89 493.647 299.21 493.555 299.697C493.464 300.184 493.784 300.653 494.271 300.744Z" fill="#9F7554"/>
<g clip-path="url(#clip0_568_10368)">
<path d="M539.691 192.288L394.582 164.955C391.82 164.435 389.161 166.241 388.644 168.99L372.258 255.982C371.74 258.73 373.559 261.379 376.321 261.9L521.431 289.233C524.192 289.753 526.851 287.947 527.369 285.198L543.754 198.206C544.272 195.458 542.453 192.809 539.691 192.288Z" fill="#10CBB4"/>
<path d="M516.195 256.944L489.869 251.986C489.524 251.921 489.192 252.146 489.127 252.49L486.258 267.72C486.194 268.064 486.421 268.395 486.766 268.46L513.091 273.419C513.437 273.484 513.769 273.258 513.834 272.914L516.702 257.684C516.767 257.34 516.54 257.009 516.195 256.944Z" fill="white"/>
<path d="M411.818 201.179L395.852 198.171C395.507 198.106 395.174 198.332 395.11 198.676L393.406 207.721C393.341 208.065 393.568 208.396 393.914 208.461L409.88 211.469C410.225 211.534 410.558 211.308 410.622 210.964L412.326 201.919C412.391 201.575 412.164 201.244 411.818 201.179Z" fill="#F4C12A"/>
<path d="M405.096 240.403L389.254 237.419C388.475 237.272 387.726 237.778 387.581 238.548C387.436 239.319 387.95 240.062 388.729 240.209L404.57 243.193C405.35 243.34 406.099 242.834 406.244 242.064C406.389 241.293 405.875 240.55 405.096 240.403Z" fill="#008C7B"/>
<path d="M430.224 245.136L414.383 242.152C413.604 242.005 412.854 242.511 412.709 243.281C412.564 244.052 413.078 244.795 413.857 244.942L429.699 247.926C430.478 248.073 431.227 247.567 431.372 246.797C431.518 246.026 431.004 245.283 430.224 245.136Z" fill="#008C7B"/>
<path d="M455.353 249.869L439.511 246.885C438.732 246.738 437.983 247.244 437.838 248.015C437.693 248.785 438.207 249.529 438.986 249.675L454.827 252.659C455.607 252.806 456.356 252.3 456.501 251.53C456.646 250.76 456.132 250.016 455.353 249.869Z" fill="#008C7B"/>
<path d="M463.701 261.415L387.44 247.051C386.661 246.904 385.912 247.41 385.766 248.18C385.621 248.951 386.135 249.694 386.915 249.841L463.175 264.206C463.954 264.352 464.704 263.847 464.849 263.076C464.994 262.306 464.48 261.562 463.701 261.415Z" fill="#008C7B"/>
<path d="M512.712 229.682C512.515 229.645 512.311 229.551 512.156 229.393C511.716 228.979 511.7 228.277 512.116 227.84C514.649 225.189 516.345 221.883 517.024 218.275C517.704 214.668 517.327 210.971 515.932 207.58C515.704 207.022 515.971 206.391 516.534 206.148C517.095 205.922 517.729 206.189 517.974 206.75C519.538 210.523 519.945 214.648 519.185 218.682C518.425 222.716 516.531 226.39 513.716 229.356C513.442 229.635 513.069 229.749 512.712 229.682Z" fill="white"/>
<path d="M509.212 226.17C509.016 226.133 508.812 226.04 508.656 225.882C508.217 225.468 508.201 224.765 508.634 224.332C510.492 222.418 511.739 220.022 512.238 217.374C512.736 214.726 512.447 212.04 511.412 209.581C511.185 209.023 511.433 208.389 511.997 208.146C512.557 207.92 513.195 208.169 513.44 208.73C514.641 211.588 514.978 214.706 514.402 217.763C513.826 220.82 512.378 223.602 510.22 225.827C509.946 226.106 509.576 226.202 509.219 226.135L509.212 226.17Z" fill="white"/>
<path d="M505.502 223.19C505.287 223.149 505.101 223.059 504.928 222.898C504.492 222.466 504.49 221.785 504.923 221.351C506.247 220.018 507.136 218.345 507.487 216.479C507.839 214.613 507.62 212.731 506.872 211.008C506.626 210.446 506.875 209.812 507.439 209.569C508.002 209.325 508.64 209.574 508.885 210.136C509.816 212.262 510.08 214.593 509.648 216.886C509.216 219.178 508.126 221.237 506.482 222.896C506.211 223.158 505.841 223.254 505.502 223.19Z" fill="white"/>
<path d="M501.895 219.953C501.663 219.909 501.462 219.797 501.292 219.618C500.877 219.172 500.915 218.48 501.363 218.067C502.099 217.396 502.573 216.547 502.754 215.587C502.935 214.628 502.805 213.646 502.36 212.771C502.093 212.224 502.328 211.569 502.859 211.301C503.408 211.036 504.067 211.271 504.337 211.8C504.976 213.117 505.186 214.555 504.915 215.994C504.644 217.434 503.947 218.683 502.854 219.673C502.586 219.917 502.238 219.999 501.898 219.935L501.895 219.953Z" fill="white"/>
</g>
<path d="M551.98 287.869L596.063 296.173C598.478 281.607 596.004 270.518 594.193 264.628C588.613 246.384 574.372 231.583 558.761 221.25C551.134 216.2 549.283 216.527 537.822 208.965C531.099 204.542 525.38 200.216 520.694 196.413C516.118 192.703 509.501 193.045 505.326 197.187C500.863 201.602 500.725 208.822 505.117 213.318C507.626 215.89 510.466 218.542 513.676 221.172C519.133 225.631 524.388 229.03 528.997 231.596C528.279 233.76 520.556 258.095 535.338 276.028C540.837 282.686 547.492 286.111 551.98 287.869Z" fill="#DCAC82"/>
<path d="M-22.0013 474.522C-31.6385 477.713 -41.3604 480.649 -51.1668 483.329C-101.941 497.232 -154.443 504.15 -207.169 503.887C-231.943 503.758 -251.92 483.6 -251.808 458.831C-251.696 434.062 -231.516 414.097 -206.747 414.209C-162.16 414.428 -117.788 408.577 -74.8569 396.836C-27.5784 383.902 17.3998 363.963 58.8686 337.592C79.762 324.287 107.485 330.468 120.773 351.367C134.061 372.266 127.897 399.984 106.998 413.271C66.574 438.976 23.2905 459.524 -22.0013 474.522Z" fill="#815C41"/>
<path d="M97.0174 417.993C120.527 410.209 133.274 384.84 125.49 361.33C117.705 337.821 92.3361 325.074 68.8267 332.858C45.3174 340.643 32.57 366.012 40.3547 389.521C48.1393 413.03 73.5081 425.778 97.0174 417.993Z" fill="#815C41"/>
<path d="M133.053 311.591L68.8268 332.859L97.0231 418.01L161.249 396.743L133.053 311.591Z" fill="#815C41"/>
<path d="M100.596 366.551C93.1137 373.563 78.5878 376.988 73.9168 377.275L84.7129 348.193L134.413 331.736L146.817 369.195L114.466 379.908C109.764 381.465 104.691 378.916 103.134 374.214L100.596 366.551Z" fill="#624029"/>
<path d="M148.836 306.365L120.401 315.781C114.524 317.727 111.337 324.069 113.283 329.946C115.23 335.824 121.572 339.01 127.449 337.064L155.884 327.649C161.761 325.702 164.948 319.36 163.002 313.483C161.056 307.606 154.714 304.419 148.836 306.365Z" fill="#815C41"/>
<path d="M155.884 327.649L127.449 337.064C121.572 339.011 118.385 345.353 120.331 351.23C122.277 357.107 128.619 360.294 134.497 358.348L162.932 348.932C168.809 346.986 171.996 340.644 170.05 334.767C168.104 328.889 161.761 325.703 155.884 327.649Z" fill="#815C41"/>
<path d="M162.932 348.933L134.497 358.349C128.619 360.295 125.432 366.637 127.379 372.515C129.325 378.392 135.667 381.579 141.544 379.633L169.979 370.217C175.857 368.271 179.044 361.929 177.097 356.051C175.151 350.174 168.809 346.987 162.932 348.933Z" fill="#815C41"/>
<path d="M169.985 370.233L141.55 379.649C135.673 381.595 132.486 387.937 134.432 393.814C136.378 399.692 142.72 402.879 148.598 400.932L177.033 391.517C182.91 389.571 186.097 383.228 184.151 377.351C182.204 371.474 175.862 368.287 169.985 370.233Z" fill="#815C41"/>
<path fill-rule="evenodd" clip-rule="evenodd" d="M120.7 316.627C115.296 318.416 112.362 324.255 114.152 329.659C115.941 335.063 121.78 337.997 127.184 336.208L156.981 326.341C157.452 326.185 157.959 326.44 158.115 326.91C158.27 327.381 158.015 327.888 157.545 328.044L127.748 337.91C121.403 340.011 114.55 336.567 112.449 330.223C110.348 323.878 113.792 317.025 120.136 314.924C120.607 314.768 121.114 315.023 121.27 315.493C121.425 315.964 121.17 316.471 120.7 316.627Z" fill="#624029"/>
<path fill-rule="evenodd" clip-rule="evenodd" d="M127.748 337.91C122.344 339.7 119.41 345.539 121.199 350.943C122.989 356.347 128.828 359.281 134.232 357.491L164.029 347.625C164.499 347.469 165.007 347.724 165.162 348.194C165.318 348.664 165.063 349.172 164.593 349.327L134.796 359.194C128.451 361.295 121.598 357.851 119.497 351.507C117.396 345.162 120.84 338.309 127.184 336.208C127.654 336.052 128.162 336.307 128.317 336.777C128.473 337.247 128.218 337.755 127.748 337.91Z" fill="#624029"/>
<path fill-rule="evenodd" clip-rule="evenodd" d="M134.801 359.21C129.397 361 126.463 366.839 128.253 372.243C130.042 377.647 135.881 380.581 141.285 378.791L171.082 368.924C171.552 368.769 172.06 369.024 172.215 369.494C172.371 369.964 172.116 370.471 171.646 370.627L141.849 380.494C135.504 382.595 128.651 379.151 126.55 372.806C124.449 366.462 127.893 359.608 134.237 357.507C134.708 357.352 135.215 357.607 135.371 358.077C135.526 358.547 135.271 359.054 134.801 359.21Z" fill="#624029"/>
<path fill-rule="evenodd" clip-rule="evenodd" d="M141.832 380.5C136.428 382.29 133.494 388.129 135.283 393.533C137.073 398.937 142.911 401.871 148.316 400.081C148.786 399.926 149.293 400.18 149.449 400.651C149.605 401.121 149.35 401.628 148.879 401.784C142.535 403.885 135.681 400.441 133.58 394.096C131.48 387.752 134.923 380.898 141.268 378.798C141.738 378.642 142.245 378.897 142.401 379.367C142.557 379.837 142.302 380.345 141.832 380.5Z" fill="#624029"/>
<g clip-path="url(#clip1_568_10368)">
<path d="M222.547 232.643L82.3709 279.059C79.703 279.943 78.2529 282.811 79.132 285.466L106.958 369.5C107.837 372.155 110.713 373.591 113.381 372.708L253.557 326.291C256.225 325.408 257.675 322.54 256.796 319.885L228.969 235.85C228.09 233.195 225.215 231.76 222.547 232.643Z" fill="#003E75"/>
<path d="M233.329 300.586L207.899 309.006C207.565 309.117 207.384 309.475 207.494 309.807L212.365 324.52C212.475 324.852 212.835 325.031 213.168 324.921L238.598 316.5C238.932 316.39 239.113 316.031 239.003 315.699L234.131 300.987C234.022 300.655 233.662 300.475 233.329 300.586Z" fill="white"/>
<path d="M115.003 302.391L99.5796 307.498C99.2461 307.609 99.0648 307.967 99.1747 308.299L102.068 317.037C102.178 317.369 102.538 317.549 102.871 317.438L118.295 312.331C118.628 312.221 118.809 311.862 118.7 311.53L115.806 302.792C115.696 302.46 115.337 302.281 115.003 302.391Z" fill="#F4C12A"/>
<path d="M128.132 339.959L112.829 345.026C112.077 345.275 111.666 346.081 111.913 346.825C112.159 347.569 112.969 347.971 113.722 347.721L129.025 342.654C129.777 342.405 130.188 341.599 129.941 340.855C129.695 340.111 128.885 339.71 128.132 339.959Z" fill="#1172C9"/>
<path d="M152.406 331.921L137.104 336.988C136.351 337.238 135.94 338.043 136.187 338.787C136.433 339.532 137.243 339.933 137.996 339.684L153.299 334.616C154.052 334.367 154.462 333.562 154.216 332.817C153.969 332.073 153.159 331.672 152.406 331.921Z" fill="#1172C9"/>
<path d="M176.681 323.883L161.378 328.95C160.625 329.2 160.215 330.005 160.461 330.749C160.707 331.494 161.517 331.895 162.27 331.646L177.573 326.578C178.326 326.329 178.736 325.524 178.49 324.779C178.243 324.035 177.433 323.634 176.681 323.883Z" fill="#1172C9"/>
<path d="M189.578 329.937L115.91 354.331C115.158 354.58 114.747 355.385 114.994 356.13C115.24 356.874 116.05 357.275 116.803 357.026L190.471 332.632C191.223 332.383 191.634 331.578 191.387 330.833C191.141 330.089 190.331 329.688 189.578 329.937Z" fill="#1172C9"/>
<path d="M217.07 278.427C216.88 278.49 216.656 278.507 216.444 278.444C215.858 278.295 215.504 277.688 215.656 277.104C216.587 273.558 216.468 269.844 215.314 266.359C214.16 262.874 212.039 259.824 209.175 257.534C208.706 257.156 208.633 256.475 209.008 255.989C209.389 255.52 210.073 255.446 210.56 255.818C213.756 258.36 216.111 261.771 217.401 265.668C218.692 269.565 218.815 273.696 217.791 277.655C217.686 278.032 217.415 278.313 217.07 278.427Z" fill="white"/>
<path d="M212.307 277.051C212.117 277.114 211.893 277.131 211.681 277.068C211.096 276.919 210.741 276.312 210.91 275.723C211.608 273.149 211.537 270.448 210.69 267.89C209.843 265.332 208.289 263.123 206.192 261.474C205.722 261.096 205.633 260.421 206.008 259.935C206.388 259.466 207.067 259.375 207.553 259.747C209.988 261.665 211.794 264.229 212.772 267.182C213.75 270.135 213.831 273.27 213.022 276.262C212.917 276.64 212.641 276.903 212.296 277.017L212.307 277.051Z" fill="white"/>
<path d="M207.617 276.242C207.41 276.311 207.203 276.322 206.973 276.265C206.382 276.098 206.051 275.503 206.22 274.914C206.732 273.106 206.698 271.212 206.101 269.41C205.504 267.607 204.401 266.068 202.911 264.923C202.424 264.55 202.335 263.875 202.71 263.389C203.085 262.903 203.763 262.812 204.25 263.184C206.095 264.592 207.455 266.504 208.189 268.719C208.922 270.933 208.966 273.262 208.332 275.51C208.221 275.871 207.945 276.134 207.617 276.242Z" fill="white"/>
<path d="M202.893 275.158C202.669 275.233 202.439 275.233 202.204 275.158C201.624 274.969 201.322 274.345 201.514 273.767C201.833 272.824 201.836 271.851 201.529 270.924C201.222 269.997 200.633 269.201 199.82 268.652C199.321 268.302 199.209 267.616 199.543 267.124C199.896 266.626 200.585 266.512 201.078 266.844C202.276 267.686 203.156 268.842 203.617 270.233C204.077 271.623 204.072 273.054 203.596 274.449C203.48 274.793 203.215 275.033 202.887 275.141L202.893 275.158Z" fill="white"/>
</g>
<path d="M82.922 375.425L40.3375 389.526C36.0038 375.411 36.9792 364.092 37.9895 358.014C41.0897 339.189 53.2321 322.623 67.3286 310.303C74.215 304.282 76.0922 304.359 86.4444 295.339C92.5181 290.059 97.6102 285.01 101.748 280.617C105.789 276.331 112.393 275.788 117.082 279.337C122.094 283.119 123.192 290.256 119.438 295.297C117.294 298.179 114.832 301.186 112.001 304.221C107.187 309.367 102.432 313.436 98.2055 316.592C99.2053 318.642 110.101 341.731 97.8384 361.473C93.275 368.804 87.1352 373.085 82.922 375.425Z" fill="#815C41"/>
</g>
<g clip-path="url(#clip2_568_10368)">
<path d="M380.927 413.106V106.023C380.927 99.1259 375.295 93.535 368.347 93.535L231.654 93.535C224.706 93.535 219.074 99.1259 219.074 106.023L219.074 413.106C219.074 420.003 224.706 425.594 231.654 425.594H368.347C375.295 425.594 380.927 420.003 380.927 413.106Z" fill="#403556"/>
<path d="M380.927 403.476V96.3921C380.927 89.4954 375.295 83.9045 368.347 83.9045L231.654 83.9045C224.706 83.9045 219.074 89.4954 219.074 96.3921L219.074 403.476C219.074 410.373 224.706 415.963 231.654 415.963H368.347C375.295 415.963 380.927 410.373 380.927 403.476Z" fill="#2C2044"/>
<path d="M373.069 389.736V110.132C373.069 106.71 370.275 103.936 366.828 103.936L233.141 103.936C229.694 103.936 226.9 106.71 226.9 110.132L226.9 389.736C226.9 393.158 229.694 395.932 233.141 395.932H366.828C370.275 395.932 373.069 393.158 373.069 389.736Z" fill="#742384"/>
<path d="M283.686 97.5477H316.283C318.176 97.5477 319.711 96.0243 319.711 94.145V93.7276C319.711 91.8483 318.176 90.3249 316.283 90.3249H283.686C281.793 90.3249 280.258 91.8483 280.258 93.7276V94.145C280.258 96.0243 281.793 97.5477 283.686 97.5477Z" fill="#544A69"/>
</g>
<g clip-path="url(#clip3_568_10368)">
<path fill-rule="evenodd" clip-rule="evenodd" d="M468.221 382.333C469.496 385.325 471.882 387.707 474.87 388.982C478.682 390.608 484.129 392.935 488.474 394.789C491.129 395.923 491.124 399.68 488.474 400.814L474.87 406.62C471.878 407.895 469.496 410.277 468.221 413.269C466.595 417.081 464.268 422.528 462.414 426.873C461.28 429.528 457.523 429.528 456.389 426.873C454.535 422.528 452.208 417.081 450.582 413.269C449.307 410.277 446.92 407.895 443.933 406.62C440.121 404.994 434.674 402.667 430.329 400.814C427.674 399.68 427.674 395.923 430.329 394.789C434.674 392.935 440.121 390.608 443.933 388.982C446.925 387.707 449.307 385.321 450.582 382.333C452.208 378.521 454.535 373.074 456.389 368.73C457.523 366.075 461.28 366.075 462.414 368.73C464.268 373.074 466.595 378.521 468.221 382.333Z" fill="#E3B2EB"/>
</g>
<g clip-path="url(#clip4_568_10368)">
<path fill-rule="evenodd" clip-rule="evenodd" d="M146.988 125.335C148.496 128.892 151.319 131.724 154.853 133.24C159.361 135.173 165.804 137.94 170.944 140.144C174.084 141.492 174.079 145.959 170.944 147.308L154.853 154.212C151.313 155.728 148.496 158.56 146.988 162.117C145.064 166.649 142.312 173.125 140.119 178.291C138.778 181.448 134.333 181.448 132.992 178.291C130.8 173.125 128.047 166.649 126.124 162.117C124.615 158.56 121.792 155.728 118.259 154.212C113.75 152.278 107.307 149.512 102.168 147.308C99.0269 145.959 99.0269 141.492 102.168 140.144C107.307 137.94 113.75 135.173 118.259 133.24C121.798 131.724 124.615 128.887 126.124 125.335C128.047 120.802 130.8 114.326 132.992 109.161C134.333 106.004 138.778 106.004 140.119 109.161C142.312 114.326 145.064 120.802 146.988 125.335Z" fill="#E3B2EB"/>
<path fill-rule="evenodd" clip-rule="evenodd" d="M61.7729 197.288C62.3366 198.618 63.3916 199.676 64.7124 200.243C66.3975 200.965 68.8055 201.999 70.7262 202.823C71.9 203.327 71.8979 204.996 70.7262 205.5L64.7124 208.08C63.3896 208.647 62.3366 209.705 61.7729 211.035C61.0542 212.729 60.0253 215.149 59.2059 217.08C58.7046 218.26 57.0436 218.26 56.5423 217.08C55.7229 215.149 54.694 212.729 53.9753 211.035C53.4116 209.705 52.3566 208.647 51.0358 208.08C49.3507 207.358 46.9427 206.324 45.022 205.5C43.8482 204.996 43.8482 203.327 45.022 202.823C46.9427 201.999 49.3507 200.965 51.0358 200.243C52.3586 199.676 53.4116 198.616 53.9753 197.288C54.694 195.594 55.7229 193.174 56.5423 191.243C57.0436 190.063 58.7046 190.063 59.2059 191.243C60.0253 193.174 61.0542 195.594 61.7729 197.288Z" fill="#E3B2EB"/>
</g>
<path d="M299.149 310.914H294.249V308.317H299.149C300.002 308.317 300.691 308.178 301.217 307.9C301.743 307.621 302.126 307.238 302.367 306.751C302.617 306.255 302.742 305.689 302.742 305.055C302.742 304.454 302.617 303.893 302.367 303.371C302.126 302.841 301.743 302.414 301.217 302.092C300.691 301.771 300.002 301.609 299.149 301.609H295.245V318H292V299H299.149C300.605 299 301.842 299.261 302.859 299.783C303.884 300.296 304.664 301.009 305.198 301.922C305.733 302.827 306 303.863 306 305.029C306 306.255 305.733 307.307 305.198 308.187C304.664 309.066 303.884 309.739 302.859 310.209C301.842 310.679 300.605 310.914 299.149 310.914Z" fill="white"/>
<path d="M323 308.466V309.536C323 311.006 322.822 312.325 322.466 313.492C322.11 314.66 321.601 315.654 320.939 316.474C320.285 317.293 319.498 317.922 318.58 318.359C317.661 318.787 316.642 319 315.525 319C314.416 319 313.401 318.787 312.483 318.359C311.572 317.922 310.781 317.293 310.111 316.474C309.44 315.654 308.919 314.66 308.546 313.492C308.182 312.325 308 311.006 308 309.536V308.466C308 306.995 308.182 305.681 308.546 304.522C308.911 303.355 309.424 302.36 310.086 301.541C310.757 300.711 311.547 300.083 312.458 299.655C313.377 299.219 314.391 299 315.5 299C316.618 299 317.636 299.219 318.555 299.655C319.474 300.083 320.264 300.711 320.926 301.541C321.589 302.36 322.098 303.355 322.454 304.522C322.818 305.681 323 306.995 323 308.466ZM319.883 309.536V308.439C319.883 307.351 319.784 306.394 319.585 305.564C319.395 304.727 319.109 304.027 318.729 303.465C318.356 302.895 317.897 302.467 317.35 302.182C316.804 301.887 316.187 301.74 315.5 301.74C314.813 301.74 314.2 301.887 313.662 302.182C313.124 302.467 312.665 302.895 312.284 303.465C311.911 304.027 311.626 304.727 311.427 305.564C311.229 306.394 311.129 307.351 311.129 308.439V309.536C311.129 310.623 311.229 311.585 311.427 312.423C311.626 313.26 311.916 313.969 312.296 314.548C312.685 315.119 313.149 315.551 313.687 315.846C314.225 316.131 314.838 316.273 315.525 316.273C316.22 316.273 316.837 316.131 317.375 315.846C317.913 315.551 318.368 315.119 318.741 314.548C319.113 313.969 319.395 313.26 319.585 312.423C319.784 311.585 319.883 310.623 319.883 309.536Z" fill="white"/>
<path d="M336.766 313.719C336.766 313.319 336.706 312.962 336.587 312.65C336.475 312.339 336.274 312.053 335.984 311.794C335.693 311.536 335.282 311.287 334.752 311.046C334.23 310.796 333.562 310.542 332.75 310.284C331.86 309.999 331.039 309.682 330.286 309.335C329.542 308.978 328.892 308.568 328.335 308.105C327.779 307.633 327.347 307.093 327.039 306.487C326.731 305.872 326.577 305.163 326.577 304.361C326.577 303.568 326.736 302.846 327.052 302.195C327.377 301.545 327.835 300.983 328.425 300.51C329.024 300.029 329.73 299.659 330.543 299.402C331.355 299.133 332.254 299 333.237 299C334.623 299 335.817 299.268 336.818 299.802C337.827 300.337 338.601 301.055 339.14 301.955C339.688 302.855 339.962 303.849 339.962 304.936H336.766C336.766 304.295 336.634 303.729 336.368 303.238C336.112 302.739 335.718 302.347 335.188 302.062C334.666 301.777 334.003 301.634 333.199 301.634C332.438 301.634 331.805 301.754 331.3 301.995C330.795 302.235 330.419 302.561 330.171 302.971C329.922 303.381 329.798 303.844 329.798 304.361C329.798 304.727 329.88 305.061 330.042 305.364C330.205 305.658 330.453 305.934 330.786 306.193C331.12 306.443 331.539 306.679 332.044 306.901C332.549 307.124 333.143 307.338 333.828 307.543C334.863 307.864 335.765 308.22 336.535 308.613C337.305 308.996 337.947 309.433 338.46 309.922C338.973 310.413 339.358 310.97 339.615 311.594C339.872 312.209 340 312.909 340 313.693C340 314.513 339.842 315.252 339.525 315.912C339.209 316.563 338.755 317.12 338.165 317.583C337.583 318.038 336.882 318.39 336.061 318.639C335.248 318.88 334.341 319 333.34 319C332.442 319 331.556 318.876 330.684 318.626C329.82 318.377 329.033 317.997 328.323 317.49C327.613 316.973 327.048 316.332 326.629 315.565C326.21 314.789 326 313.884 326 312.851H329.221C329.221 313.483 329.324 314.023 329.529 314.469C329.743 314.914 330.038 315.28 330.414 315.565C330.791 315.841 331.227 316.046 331.723 316.18C332.228 316.313 332.767 316.381 333.34 316.381C334.093 316.381 334.722 316.269 335.226 316.046C335.74 315.823 336.125 315.511 336.381 315.11C336.638 314.709 336.766 314.245 336.766 313.719Z" fill="white"/>
<path d="M335.865 275.565C326.749 275.733 316.403 276.721 306.841 277.926C307.911 274.067 308.976 270.257 308.976 270.257C308.976 270.257 310.071 272.62 313.158 272.381C317.542 272.04 322.877 267.756 325.46 259.908C328.205 251.571 327.959 242.102 322.358 241.307C317.832 240.666 315.672 244.68 315.36 245.48C315.36 245.48 316.321 241.833 313.446 242.47C310.691 243.08 310.187 244.312 309.505 246.514C309.385 246.902 307.065 255.565 304.635 264.695C304.598 264.754 304.568 264.823 304.546 264.9C303.946 266.964 302.758 267.655 301.899 267.709C299.122 267.89 305.092 249.499 305.545 248.104C306.143 246.265 306.499 244.87 304.475 244.102C303.11 243.584 301.238 243.771 300.689 245.243C300.458 245.86 300.291 246.314 300.291 246.314C300.291 246.314 298.731 243.989 295.282 244.305C291.831 244.621 287.475 248.835 284.592 256.229C281.709 263.624 280.457 274.23 287.295 275.286C290.766 275.822 293.679 273.83 295.204 270.549C295.204 270.549 294.938 272.746 297.223 273.822C298.121 274.247 300.355 274.082 302.458 272.889C301.904 274.973 301.383 276.948 300.918 278.708C286.154 280.757 274.534 283.046 274.534 283.046C274.536 283.036 282.627 255.577 284.449 249.534C285.974 244.475 283.099 245.576 280.974 246.196C278.708 246.855 277.636 248.771 276.502 252.249C271.545 267.443 267.644 272.173 264.815 271.154C262.22 270.218 270.382 254.084 268.424 251.953C266.726 250.106 263.228 250.205 262.562 251.294C261.895 252.383 262.886 253.378 262.461 254.918C262.035 256.459 258.766 264.799 258.422 266.668C258.077 268.534 255.241 278.886 262.746 278.439C267.181 278.175 270.219 274.807 270.541 273.872C269.157 277.894 267.176 284.384 267.176 284.384C267.176 284.384 258.097 286.663 250.86 294.265C245.114 300.298 241.051 313.297 249.633 315.368C262.973 318.588 269.28 298.151 272.514 290.465C283.33 288.048 291.578 286.443 299.206 285.248C299.093 285.695 299.017 285.999 298.989 286.125C298.296 289.324 298.451 290.606 300.94 290.297C303.624 289.964 303.961 288.581 304.839 285.236C304.898 285.006 304.974 284.722 305.063 284.394C314.103 283.169 322.978 282.402 335.191 281.38C338.986 281.061 338.945 280.424 339.316 278.15C339.734 275.57 336.765 275.551 335.865 275.565ZM312.58 257.93C314.405 251.943 316.083 249.546 317.66 248.87C321.421 247.252 322.134 251.99 319.231 259.182C315.871 267.505 311.948 267.314 310.445 265.673C310.442 265.673 310.652 264.251 312.58 257.93ZM295.784 261.542C294.171 265.45 292.66 268.201 290.582 268.216C287.603 268.238 287.679 263.742 289.799 258.086C291.583 253.331 294.835 250.336 296.591 249.995C298.345 249.657 300.387 250.395 295.784 261.542ZM256.37 307.016C249.279 313.369 251.067 304.668 253.704 300.911C258.71 293.776 264.891 291.971 264.891 291.971C261.75 301.192 257.824 305.713 256.37 307.016Z" fill="white"/>
<path d="M345.296 252.561C347.974 249.447 349.197 242.814 344.703 240.372C339.266 237.419 332.167 241.927 329.238 251.642C326.633 260.281 325.659 270.904 334.497 270.512C338.851 270.319 342.607 267.174 343.967 264.838C344.626 263.705 344.89 261.92 344.774 261.128C344.452 258.903 343.096 258.58 340.796 261.5C340.228 262.145 335.692 266.194 333.474 263.789C331.87 262.051 333.218 258.639 333.282 258.637C336.184 258.424 341.264 257.247 345.296 252.561ZM338.792 245.018C341.232 242.73 343.566 245.468 340.745 249.408C337.896 253.383 334.561 253.282 334.534 253.408C334.876 251.852 336.13 247.517 338.792 245.018Z" fill="white"/>
<path d="M297.206 218.256C296.675 217.913 295.878 217.742 294.82 217.742H291.656V222.142H294.923C296.977 222.142 298.005 221.399 298.005 219.912C298.005 219.149 297.74 218.599 297.206 218.256Z" fill="#10CBB4"/>
<path d="M298.896 197.779C289.337 198.221 281.532 205.926 280.947 215.513C280.551 222.003 283.414 227.837 288.046 231.536C288.523 231.916 288.801 232.491 288.801 233.103V237.283C288.801 237.604 288.981 237.9 289.264 238.049L289.379 238.11C289.652 238.253 289.979 238.229 290.228 238.049L293.802 235.464C294.269 235.125 294.86 235.007 295.42 235.14C296.823 235.476 298.284 235.654 299.787 235.654C310.214 235.654 318.666 227.171 318.666 216.705C318.666 205.946 309.729 197.278 298.896 197.779ZM300.443 222.413C300.013 223.087 299.432 223.586 298.702 223.909C298.244 224.102 297.718 224.235 297.125 224.314C296.532 224.393 295.839 224.433 295.047 224.433H290.459C289.797 224.433 289.325 224.285 289.04 223.986C288.757 223.687 288.614 223.213 288.614 222.561V211.234C288.614 210.57 288.759 210.091 289.05 209.8C289.34 209.509 289.81 209.363 290.457 209.363H295.32C296.035 209.363 296.658 209.407 297.184 209.496C297.711 209.585 298.18 209.758 298.596 210.01C298.95 210.222 299.265 210.491 299.538 210.817C299.811 211.143 300.02 211.503 300.163 211.896C300.306 212.291 300.377 212.706 300.377 213.145C300.377 214.654 299.627 215.755 298.124 216.456C300.097 217.085 301.083 218.312 301.083 220.135C301.088 220.979 300.874 221.737 300.443 222.413ZM311.124 223.008C310.748 223.559 310.194 223.979 309.459 224.262C308.726 224.546 307.833 224.69 306.78 224.69C305.776 224.69 304.915 224.537 304.2 224.228C303.484 223.919 302.953 223.534 302.613 223.072C302.271 222.611 302.101 222.147 302.101 221.68C302.101 221.371 302.21 221.107 302.429 220.888C302.647 220.668 302.923 220.559 303.258 220.559C303.55 220.559 303.777 220.631 303.934 220.774C304.091 220.917 304.241 221.12 304.384 221.381C304.672 221.882 305.014 222.255 305.412 222.502C305.811 222.749 306.357 222.872 307.046 222.872C307.607 222.872 308.064 222.747 308.423 222.497C308.782 222.248 308.959 221.961 308.959 221.638C308.959 221.144 308.772 220.784 308.401 220.559C308.03 220.332 307.417 220.117 306.564 219.912C305.602 219.673 304.817 219.421 304.214 219.157C303.609 218.893 303.127 218.545 302.766 218.113C302.404 217.68 302.222 217.15 302.222 216.52C302.222 215.957 302.389 215.426 302.724 214.928C303.058 214.427 303.553 214.029 304.205 213.73C304.856 213.432 305.644 213.283 306.564 213.283C307.287 213.283 307.939 213.36 308.514 213.511C309.092 213.661 309.572 213.864 309.958 214.118C310.344 214.372 310.637 214.651 310.839 214.96C311.04 215.268 311.141 215.57 311.141 215.863C311.141 216.184 311.033 216.449 310.819 216.656C310.605 216.861 310.298 216.965 309.902 216.965C309.614 216.965 309.37 216.883 309.169 216.718C308.967 216.552 308.736 216.305 308.477 215.977C308.266 215.703 308.017 215.483 307.73 215.32C307.442 215.155 307.053 215.073 306.561 215.073C306.057 215.073 305.636 215.182 305.302 215.397C304.967 215.612 304.8 215.881 304.8 216.204C304.8 216.498 304.923 216.74 305.169 216.93C305.415 217.118 305.744 217.273 306.163 217.397C306.578 217.52 307.151 217.671 307.882 217.848C308.748 218.061 309.456 218.315 310.007 218.609C310.556 218.903 310.974 219.251 311.257 219.653C311.54 220.053 311.682 220.512 311.682 221.026C311.687 221.794 311.5 222.458 311.124 223.008Z" fill="#10CBB4"/>
<path d="M296.197 215.338C296.611 215.194 296.925 214.92 297.144 214.515C297.314 214.227 297.4 213.906 297.4 213.55C297.4 212.79 297.13 212.284 296.591 212.034C296.052 211.785 295.228 211.659 294.124 211.659H291.656V215.555H294.441C295.199 215.552 295.784 215.481 296.197 215.338Z" fill="#10CBB4"/>
<defs>
<clipPath id="clip0_568_10368">
<rect width="157.838" height="98.6489" fill="white" transform="translate(389.581 164.014) rotate(10.6673)"/>
</clipPath>
<clipPath id="clip1_568_10368">
<rect width="157.838" height="98.6489" fill="white" transform="translate(77.5403 280.659) rotate(-18.3212)"/>
</clipPath>
<clipPath id="clip2_568_10368">
<rect width="161.853" height="341.689" fill="white" transform="translate(219.074 83.9047)"/>
</clipPath>
<clipPath id="clip3_568_10368">
<rect width="62.1253" height="62.1253" fill="white" transform="translate(428.338 366.739)"/>
</clipPath>
<clipPath id="clip4_568_10368">
<rect width="129.155" height="111.172" fill="white" transform="translate(44.1417 106.793)"/>
</clipPath>
</defs>
</svg>
