<svg width="104" height="30" viewBox="0 0 104 30" fill="none" xmlns="http://www.w3.org/2000/svg">
<path d="M21.2517 15.9381C21.2937 20.4779 25.2346 21.9889 25.2781 22.0082C25.2448 22.1144 24.6486 24.1612 23.2021 26.2749C21.9517 28.1024 20.6538 29.9232 18.6096 29.9613C16.601 29.998 15.9551 28.7698 13.6584 28.7698C11.3624 28.7698 10.6449 29.9232 8.74328 29.998C6.76991 30.0729 5.26719 28.0215 4.00642 26.201C1.43032 22.4764 -0.538459 15.6761 2.10502 11.0858C3.41818 8.80627 5.76536 7.36295 8.31272 7.32576C10.2504 7.28881 12.0793 8.62926 13.2638 8.62926C14.4475 8.62926 16.6701 7.01715 19.0066 7.2538C19.9849 7.29461 22.7305 7.64886 24.4935 10.2298C24.3518 10.3179 21.2176 12.1425 21.2517 15.9381ZM17.4766 4.78998C18.5242 3.52198 19.2293 1.75628 19.0371 0C17.5268 0.0606113 15.7008 1.00624 14.6177 2.27377C13.647 3.39592 12.797 5.19253 13.0262 6.91404C14.7095 7.04444 16.4288 6.05872 17.4766 4.78998Z" fill="black"/>
<path d="M46.1179 10.4287L42.823 19.5H41.4763L45.2703 9.54688H46.1384L46.1179 10.4287ZM48.8796 19.5L45.5779 10.4287L45.5574 9.54688H46.4255L50.2332 19.5H48.8796ZM48.7087 15.8154V16.8955H43.1169V15.8154H48.7087ZM52.6294 13.5254V22.3438H51.3579V12.1035H52.52L52.6294 13.5254ZM57.6128 15.7402V15.8838C57.6128 16.4215 57.549 16.9206 57.4214 17.3809C57.2938 17.8366 57.1069 18.2331 56.8608 18.5703C56.6193 18.9076 56.3208 19.1696 55.9653 19.3564C55.6099 19.5433 55.202 19.6367 54.7417 19.6367C54.2723 19.6367 53.8576 19.5592 53.4976 19.4043C53.1375 19.2493 52.8322 19.0238 52.5816 18.7275C52.3309 18.4313 52.1304 18.0758 51.98 17.6611C51.8342 17.2464 51.7339 16.7793 51.6792 16.2598V15.4941C51.7339 14.9473 51.8364 14.4574 51.9868 14.0244C52.1372 13.5915 52.3355 13.2223 52.5816 12.917C52.8322 12.6071 53.1353 12.3724 53.4907 12.2129C53.8462 12.0488 54.2564 11.9668 54.7212 11.9668C55.186 11.9668 55.5985 12.0579 55.9585 12.2402C56.3185 12.418 56.6216 12.6732 56.8677 13.0059C57.1138 13.3385 57.2983 13.7373 57.4214 14.2021C57.549 14.6624 57.6128 15.1751 57.6128 15.7402ZM56.3413 15.8838V15.7402C56.3413 15.3711 56.3026 15.0247 56.2251 14.7012C56.1476 14.373 56.0269 14.0859 55.8628 13.8398C55.7033 13.5892 55.4982 13.3932 55.2476 13.252C54.9969 13.1061 54.6984 13.0332 54.3521 13.0332C54.033 13.0332 53.7551 13.0879 53.5181 13.1973C53.2857 13.3066 53.0874 13.4548 52.9233 13.6416C52.7593 13.8239 52.6248 14.0335 52.52 14.2705C52.4198 14.5029 52.3446 14.7445 52.2944 14.9951V16.7656C52.3856 17.0846 52.5132 17.3854 52.6773 17.668C52.8413 17.946 53.0601 18.1715 53.3335 18.3447C53.6069 18.5133 53.951 18.5977 54.3657 18.5977C54.7075 18.5977 55.0015 18.527 55.2476 18.3857C55.4982 18.2399 55.7033 18.0417 55.8628 17.791C56.0269 17.5404 56.1476 17.2533 56.2251 16.9297C56.3026 16.6016 56.3413 16.2529 56.3413 15.8838ZM60.4807 13.5254V22.3438H59.2092V12.1035H60.3714L60.4807 13.5254ZM65.4641 15.7402V15.8838C65.4641 16.4215 65.4003 16.9206 65.2727 17.3809C65.1451 17.8366 64.9583 18.2331 64.7122 18.5703C64.4706 18.9076 64.1721 19.1696 63.8167 19.3564C63.4612 19.5433 63.0533 19.6367 62.593 19.6367C62.1236 19.6367 61.7089 19.5592 61.3489 19.4043C60.9889 19.2493 60.6835 19.0238 60.4329 18.7275C60.1822 18.4313 59.9817 18.0758 59.8313 17.6611C59.6855 17.2464 59.5852 16.7793 59.5305 16.2598V15.4941C59.5852 14.9473 59.6878 14.4574 59.8382 14.0244C59.9885 13.5915 60.1868 13.2223 60.4329 12.917C60.6835 12.6071 60.9866 12.3724 61.3421 12.2129C61.6975 12.0488 62.1077 11.9668 62.5725 11.9668C63.0374 11.9668 63.4498 12.0579 63.8098 12.2402C64.1699 12.418 64.4729 12.6732 64.719 13.0059C64.9651 13.3385 65.1497 13.7373 65.2727 14.2021C65.4003 14.6624 65.4641 15.1751 65.4641 15.7402ZM64.1926 15.8838V15.7402C64.1926 15.3711 64.1539 15.0247 64.0764 14.7012C63.999 14.373 63.8782 14.0859 63.7141 13.8398C63.5546 13.5892 63.3495 13.3932 63.0989 13.252C62.8482 13.1061 62.5497 13.0332 62.2034 13.0332C61.8844 13.0332 61.6064 13.0879 61.3694 13.1973C61.137 13.3066 60.9387 13.4548 60.7747 13.6416C60.6106 13.8239 60.4762 14.0335 60.3714 14.2705C60.2711 14.5029 60.1959 14.7445 60.1458 14.9951V16.7656C60.2369 17.0846 60.3645 17.3854 60.5286 17.668C60.6926 17.946 60.9114 18.1715 61.1848 18.3447C61.4583 18.5133 61.8023 18.5977 62.2171 18.5977C62.5589 18.5977 62.8528 18.527 63.0989 18.3857C63.3495 18.2399 63.5546 18.0417 63.7141 17.791C63.8782 17.5404 63.999 17.2533 64.0764 16.9297C64.1539 16.6016 64.1926 16.2529 64.1926 15.8838ZM76.0262 16.9844C76.0262 16.752 75.9897 16.5469 75.9168 16.3691C75.8484 16.1868 75.7254 16.0228 75.5476 15.877C75.3745 15.7311 75.1329 15.5921 74.823 15.46C74.5177 15.3278 74.1303 15.1934 73.6609 15.0566C73.1687 14.9108 72.7244 14.749 72.3279 14.5713C71.9314 14.389 71.5919 14.1816 71.3094 13.9492C71.0268 13.7168 70.8103 13.4502 70.66 13.1494C70.5096 12.8486 70.4344 12.5046 70.4344 12.1172C70.4344 11.7298 70.5141 11.3721 70.6736 11.0439C70.8331 10.7158 71.061 10.431 71.3572 10.1895C71.658 9.94336 72.0157 9.75195 72.4305 9.61523C72.8452 9.47852 73.3077 9.41016 73.8182 9.41016C74.5655 9.41016 75.199 9.55371 75.7185 9.84082C76.2426 10.1234 76.6414 10.4948 76.9148 10.9551C77.1883 11.4108 77.325 11.8984 77.325 12.418H76.0125C76.0125 12.0443 75.9327 11.7139 75.7732 11.4268C75.6137 11.1351 75.3722 10.9072 75.0486 10.7432C74.7251 10.5745 74.3149 10.4902 73.8182 10.4902C73.3488 10.4902 72.9614 10.5609 72.656 10.7021C72.3507 10.8434 72.1228 11.0348 71.9725 11.2764C71.8266 11.5179 71.7537 11.7936 71.7537 12.1035C71.7537 12.3132 71.797 12.5046 71.8836 12.6777C71.9747 12.8464 72.1137 13.0036 72.3006 13.1494C72.492 13.2952 72.7335 13.4297 73.0252 13.5527C73.3214 13.6758 73.6746 13.7943 74.0848 13.9082C74.6499 14.0677 75.1375 14.2454 75.5476 14.4414C75.9578 14.6374 76.295 14.8584 76.5594 15.1045C76.8282 15.346 77.0265 15.6217 77.1541 15.9316C77.2863 16.237 77.3523 16.5833 77.3523 16.9707C77.3523 17.3763 77.2703 17.7432 77.1062 18.0713C76.9422 18.3994 76.7075 18.6797 76.4021 18.9121C76.0968 19.1445 75.7299 19.3245 75.3016 19.4521C74.8777 19.5752 74.4038 19.6367 73.8797 19.6367C73.4194 19.6367 72.9659 19.5729 72.5193 19.4453C72.0773 19.3177 71.6739 19.1263 71.3094 18.8711C70.9493 18.6159 70.66 18.3014 70.4412 17.9277C70.227 17.5495 70.1199 17.112 70.1199 16.6152H71.4324C71.4324 16.957 71.4985 17.251 71.6307 17.4971C71.7628 17.7386 71.9428 17.9391 72.1707 18.0986C72.4031 18.2581 72.6652 18.3766 72.9568 18.4541C73.253 18.527 73.5607 18.5635 73.8797 18.5635C74.34 18.5635 74.7296 18.4997 75.0486 18.3721C75.3676 18.2445 75.6092 18.0622 75.7732 17.8252C75.9419 17.5882 76.0262 17.3079 76.0262 16.9844ZM81.9292 12.1035V13.0742H77.9302V12.1035H81.9292ZM79.2837 10.3057H80.5484V17.668C80.5484 17.9186 80.5871 18.1077 80.6646 18.2354C80.7421 18.363 80.8423 18.4473 80.9654 18.4883C81.0884 18.5293 81.2206 18.5498 81.3619 18.5498C81.4667 18.5498 81.5761 18.5407 81.69 18.5225C81.8085 18.4997 81.8973 18.4814 81.9566 18.4678L81.9634 19.5C81.8632 19.5319 81.731 19.5615 81.5669 19.5889C81.4074 19.6208 81.2138 19.6367 80.9859 19.6367C80.676 19.6367 80.3912 19.5752 80.1314 19.4521C79.8716 19.3291 79.6643 19.124 79.5093 18.8369C79.3589 18.5452 79.2837 18.1533 79.2837 17.6611V10.3057ZM82.931 15.8838V15.7266C82.931 15.1934 83.0084 14.6989 83.1634 14.2432C83.3183 13.7829 83.5416 13.3841 83.8333 13.0469C84.125 12.7051 84.4782 12.4408 84.8929 12.2539C85.3076 12.0625 85.7724 11.9668 86.2874 11.9668C86.8069 11.9668 87.2741 12.0625 87.6888 12.2539C88.108 12.4408 88.4635 12.7051 88.7552 13.0469C89.0514 13.3841 89.277 13.7829 89.4319 14.2432C89.5869 14.6989 89.6644 15.1934 89.6644 15.7266V15.8838C89.6644 16.417 89.5869 16.9115 89.4319 17.3672C89.277 17.8229 89.0514 18.2217 88.7552 18.5635C88.4635 18.9007 88.1103 19.165 87.6956 19.3564C87.2855 19.5433 86.8206 19.6367 86.3011 19.6367C85.7816 19.6367 85.3144 19.5433 84.8997 19.3564C84.485 19.165 84.1295 18.9007 83.8333 18.5635C83.5416 18.2217 83.3183 17.8229 83.1634 17.3672C83.0084 16.9115 82.931 16.417 82.931 15.8838ZM84.1956 15.7266V15.8838C84.1956 16.2529 84.2389 16.6016 84.3255 16.9297C84.4121 17.2533 84.542 17.5404 84.7151 17.791C84.8929 18.0417 85.1139 18.2399 85.3782 18.3857C85.6426 18.527 85.9502 18.5977 86.3011 18.5977C86.6474 18.5977 86.9505 18.527 87.2103 18.3857C87.4746 18.2399 87.6933 18.0417 87.8665 17.791C88.0397 17.5404 88.1696 17.2533 88.2562 16.9297C88.3473 16.6016 88.3929 16.2529 88.3929 15.8838V15.7266C88.3929 15.362 88.3473 15.0179 88.2562 14.6943C88.1696 14.3662 88.0374 14.0768 87.8597 13.8262C87.6865 13.571 87.4677 13.3704 87.2034 13.2246C86.9437 13.0788 86.6383 13.0059 86.2874 13.0059C85.9411 13.0059 85.6357 13.0788 85.3714 13.2246C85.1116 13.3704 84.8929 13.571 84.7151 13.8262C84.542 14.0768 84.4121 14.3662 84.3255 14.6943C84.2389 15.0179 84.1956 15.362 84.1956 15.7266ZM92.505 13.2656V19.5H91.2403V12.1035H92.4708L92.505 13.2656ZM94.8155 12.0625L94.8087 13.2383C94.7038 13.2155 94.6036 13.2018 94.5079 13.1973C94.4167 13.1882 94.3119 13.1836 94.1934 13.1836C93.9018 13.1836 93.6443 13.2292 93.421 13.3203C93.1977 13.4115 93.0085 13.5391 92.8536 13.7031C92.6986 13.8672 92.5756 14.0632 92.4844 14.291C92.3979 14.5143 92.3409 14.7604 92.3135 15.0293L91.9581 15.2344C91.9581 14.7878 92.0014 14.3685 92.088 13.9766C92.1791 13.5846 92.3181 13.2383 92.505 12.9375C92.6918 12.6322 92.9288 12.3952 93.2159 12.2266C93.5076 12.0534 93.8539 11.9668 94.255 11.9668C94.3461 11.9668 94.4509 11.9782 94.5694 12.001C94.6879 12.0192 94.7699 12.0397 94.8155 12.0625ZM98.9071 19.6367C98.3921 19.6367 97.925 19.5501 97.5057 19.377C97.091 19.1992 96.7332 18.9508 96.4324 18.6318C96.1362 18.3128 95.9084 17.9346 95.7489 17.4971C95.5894 17.0596 95.5096 16.5811 95.5096 16.0615V15.7744C95.5096 15.1729 95.5985 14.6374 95.7762 14.168C95.9539 13.694 96.1955 13.293 96.5008 12.9648C96.8061 12.6367 97.1525 12.3883 97.5399 12.2197C97.9272 12.0511 98.3283 11.9668 98.743 11.9668C99.2716 11.9668 99.7274 12.0579 100.11 12.2402C100.498 12.4225 100.814 12.6777 101.06 13.0059C101.306 13.3294 101.489 13.7122 101.607 14.1543C101.726 14.5918 101.785 15.0703 101.785 15.5898V16.1572H96.2616V15.125H100.52V15.0293C100.502 14.7012 100.434 14.3822 100.315 14.0723C100.201 13.7624 100.019 13.5072 99.7684 13.3066C99.5177 13.1061 99.1759 13.0059 98.743 13.0059C98.4559 13.0059 98.1916 13.0674 97.95 13.1904C97.7085 13.3089 97.5011 13.4867 97.328 13.7236C97.1548 13.9606 97.0203 14.25 96.9246 14.5918C96.8289 14.9336 96.7811 15.3278 96.7811 15.7744V16.0615C96.7811 16.4124 96.8289 16.7428 96.9246 17.0527C97.0249 17.3581 97.1685 17.627 97.3553 17.8594C97.5467 18.0918 97.7769 18.2741 98.0457 18.4062C98.3192 18.5384 98.6291 18.6045 98.9754 18.6045C99.422 18.6045 99.8003 18.5133 100.11 18.3311C100.42 18.1488 100.691 17.9049 100.924 17.5996L101.689 18.208C101.53 18.4495 101.327 18.6797 101.081 18.8984C100.835 19.1172 100.532 19.2949 100.172 19.4316C99.8162 19.5684 99.3947 19.6367 98.9071 19.6367Z" fill="#2C2044"/>
</svg>
