<svg width="64" height="64" viewBox="0 0 64 64" fill="none" xmlns="http://www.w3.org/2000/svg">
<path fill-rule="evenodd" clip-rule="evenodd" d="M15.3735 8.62359L48.5336 19.3237C49.4616 19.6231 49.9711 20.6181 49.6717 21.546C49.6709 21.5483 49.6702 21.5506 49.6694 21.5529L43.7356 39.6894C43.4333 40.6135 42.4407 41.1192 41.5154 40.8206L8.35531 30.1206C7.42736 29.8211 6.91784 28.8261 7.21727 27.8982C7.218 27.8959 7.21874 27.8936 7.21949 27.8914L13.1533 9.7548C13.4557 8.83073 14.4482 8.32502 15.3735 8.62359Z" fill="#8B3D99"/>
<path fill-rule="evenodd" clip-rule="evenodd" d="M16.9165 12.1537L27.4098 15.5396C27.8738 15.6894 28.1285 16.1868 27.9788 16.6508C27.9784 16.652 27.9781 16.6531 27.9777 16.6542L27.6477 17.6628C27.4966 18.1248 27.0003 18.3777 26.5376 18.2284L16.0443 14.8424C15.5804 14.6927 15.3256 14.1952 15.4753 13.7313C15.4757 13.7301 15.4761 13.729 15.4764 13.7278L15.8064 12.7193C15.9576 12.2572 16.4539 12.0044 16.9165 12.1537Z" fill="#CE92D6"/>
<path d="M52.3033 20.1318H8.16542C7.19035 20.1318 6.3999 20.9222 6.3999 21.8973V55.4421C6.3999 56.4172 7.19035 57.2076 8.16542 57.2076H52.3033C53.2784 57.2076 54.0689 56.4172 54.0689 55.4421V21.8973C54.0689 20.9222 53.2784 20.1318 52.3033 20.1318Z" fill="#CE92D6"/>
<path d="M55.8343 32.4904H47.0067C46.0317 32.4904 45.2412 33.2809 45.2412 34.2559V41.318C45.2412 42.2931 46.0317 43.0835 47.0067 43.0835H55.8343C56.8094 43.0835 57.5998 42.2931 57.5998 41.318V34.2559C57.5998 33.2809 56.8094 32.4904 55.8343 32.4904Z" fill="#10CBB4"/>
<path fill-rule="evenodd" clip-rule="evenodd" d="M50.5379 37.787C50.5379 38.762 49.7474 39.5525 48.7724 39.5525C47.7974 39.5525 47.0068 38.762 47.0068 37.787C47.0068 36.812 47.7974 36.0215 48.7724 36.0215C49.7474 36.0215 50.5379 36.812 50.5379 37.787Z" fill="white"/>
</svg>
