<svg width="172" height="112" viewBox="0 0 172 112" fill="none" xmlns="http://www.w3.org/2000/svg">
<path fill-rule="evenodd" clip-rule="evenodd" d="M64 32.8H108.8V61.6C108.8 63.3673 107.367 64.8 105.6 64.8H67.2C65.4327 64.8 64 63.3673 64 61.6V32.8Z" fill="#CE92D6"/>
<path fill-rule="evenodd" clip-rule="evenodd" d="M91.6 42.4H98.8C100.788 42.4 102.4 44.0715 102.4 46.1334V64.8H88V46.1334C88 44.0715 89.6118 42.4 91.6 42.4Z" fill="#8B3D99"/>
<path d="M79.111 42.4H72.8888C71.5142 42.4 70.3999 43.5143 70.3999 44.8889V51.1111C70.3999 52.4857 71.5142 53.6 72.8888 53.6H79.111C80.4856 53.6 81.5999 52.4857 81.5999 51.1111V44.8889C81.5999 43.5143 80.4856 42.4 79.111 42.4Z" fill="white"/>
<path d="M67.1998 24.8L105.6 24.8L112 29.6H60.7998L67.1998 24.8Z" fill="#A35AAD"/>
<path d="M67.1998 20.1993C67.1998 19.2052 68.0057 18.4 68.9998 18.4H103.8C104.794 18.4 105.6 19.2057 105.6 20.1998C105.6 21.816 105.6 23.8327 105.6 24.8H67.1998C67.1998 24.2007 67.1998 21.9595 67.1998 20.1993Z" fill="#8B3D99"/>
<path d="M60.7998 29.6H112V34.4C112 36.1673 110.567 37.6 108.8 37.6H63.9998C62.2325 37.6 60.7998 36.1673 60.7998 34.4V29.6Z" fill="#8B3D99"/>
<path d="M95.9998 16.8C95.9998 22.4643 89.5341 27.4524 87.2152 29.0593C86.7196 29.4027 86.0801 29.4027 85.5844 29.0593C83.2656 27.4524 76.7998 22.4643 76.7998 16.8C76.7998 11.4981 81.0979 7.20001 86.3998 7.20001C91.7017 7.20001 95.9998 11.4981 95.9998 16.8Z" fill="#10CBB4"/>
<ellipse cx="86.3997" cy="16.8" rx="3.2" ry="3.2" fill="white"/>
<path d="M25.6406 93.625V105H24.1562V93.625H25.6406ZM29.2969 93.625V94.8594H20.5078V93.625H29.2969ZM32.8359 96.5469V105H31.3828V96.5469H32.8359ZM31.2734 94.3047C31.2734 94.0703 31.3438 93.8724 31.4844 93.7109C31.6302 93.5495 31.8438 93.4688 32.125 93.4688C32.401 93.4688 32.612 93.5495 32.7578 93.7109C32.9089 93.8724 32.9844 94.0703 32.9844 94.3047C32.9844 94.5286 32.9089 94.7214 32.7578 94.8828C32.612 95.0391 32.401 95.1172 32.125 95.1172C31.8438 95.1172 31.6302 95.0391 31.4844 94.8828C31.3438 94.7214 31.2734 94.5286 31.2734 94.3047ZM39.1641 105.156C38.5755 105.156 38.0417 105.057 37.5625 104.859C37.0885 104.656 36.6797 104.372 36.3359 104.008C35.9974 103.643 35.737 103.211 35.5547 102.711C35.3724 102.211 35.2812 101.664 35.2812 101.07V100.742C35.2812 100.055 35.3828 99.4427 35.5859 98.9062C35.7891 98.3646 36.0651 97.9062 36.4141 97.5312C36.763 97.1562 37.1589 96.8724 37.6016 96.6797C38.0443 96.487 38.5026 96.3906 38.9766 96.3906C39.5807 96.3906 40.1016 96.4948 40.5391 96.7031C40.9818 96.9115 41.3438 97.2031 41.625 97.5781C41.9062 97.9479 42.1146 98.3854 42.25 98.8906C42.3854 99.3906 42.4531 99.9375 42.4531 100.531V101.18H36.1406V100H41.0078V99.8906C40.987 99.5156 40.9089 99.151 40.7734 98.7969C40.6432 98.4427 40.4349 98.151 40.1484 97.9219C39.862 97.6927 39.4714 97.5781 38.9766 97.5781C38.6484 97.5781 38.3464 97.6484 38.0703 97.7891C37.7943 97.9245 37.5573 98.1276 37.3594 98.3984C37.1615 98.6693 37.0078 99 36.8984 99.3906C36.7891 99.7812 36.7344 100.232 36.7344 100.742V101.07C36.7344 101.471 36.7891 101.849 36.8984 102.203C37.013 102.552 37.1771 102.859 37.3906 103.125C37.6094 103.391 37.8724 103.599 38.1797 103.75C38.4922 103.901 38.8464 103.977 39.2422 103.977C39.7526 103.977 40.1849 103.872 40.5391 103.664C40.8932 103.456 41.2031 103.177 41.4688 102.828L42.3438 103.523C42.1615 103.799 41.9297 104.062 41.6484 104.312C41.3672 104.562 41.0208 104.766 40.6094 104.922C40.2031 105.078 39.7214 105.156 39.1641 105.156ZM46.0859 98.3516V105H44.6406V96.5469H46.0078L46.0859 98.3516ZM45.7422 100.453L45.1406 100.43C45.1458 99.8516 45.2318 99.3177 45.3984 98.8281C45.5651 98.3333 45.7995 97.9036 46.1016 97.5391C46.4036 97.1745 46.763 96.8932 47.1797 96.6953C47.6016 96.4922 48.0677 96.3906 48.5781 96.3906C48.9948 96.3906 49.3698 96.4479 49.7031 96.5625C50.0365 96.6719 50.3203 96.849 50.5547 97.0938C50.7943 97.3385 50.9766 97.6562 51.1016 98.0469C51.2266 98.4323 51.2891 98.9036 51.2891 99.4609V105H49.8359V99.4453C49.8359 99.0026 49.7708 98.6484 49.6406 98.3828C49.5104 98.112 49.3203 97.9167 49.0703 97.7969C48.8203 97.6719 48.513 97.6094 48.1484 97.6094C47.7891 97.6094 47.4609 97.6849 47.1641 97.8359C46.8724 97.987 46.6198 98.1953 46.4062 98.4609C46.1979 98.7266 46.0339 99.0312 45.9141 99.375C45.7995 99.7135 45.7422 100.073 45.7422 100.453ZM59.3125 103.359V93H60.7656V105H59.4375L59.3125 103.359ZM53.625 100.867V100.703C53.625 100.057 53.7031 99.4714 53.8594 98.9453C54.0208 98.4141 54.2474 97.9583 54.5391 97.5781C54.8359 97.1979 55.1875 96.9062 55.5938 96.7031C56.0052 96.4948 56.4635 96.3906 56.9688 96.3906C57.5 96.3906 57.9635 96.4844 58.3594 96.6719C58.7604 96.8542 59.099 97.1224 59.375 97.4766C59.6562 97.8255 59.8776 98.2474 60.0391 98.7422C60.2005 99.237 60.3125 99.7969 60.375 100.422V101.141C60.3177 101.76 60.2057 102.318 60.0391 102.812C59.8776 103.307 59.6562 103.729 59.375 104.078C59.099 104.427 58.7604 104.695 58.3594 104.883C57.9583 105.065 57.4896 105.156 56.9531 105.156C56.4583 105.156 56.0052 105.049 55.5938 104.836C55.1875 104.622 54.8359 104.323 54.5391 103.938C54.2474 103.552 54.0208 103.099 53.8594 102.578C53.7031 102.052 53.625 101.482 53.625 100.867ZM55.0781 100.703V100.867C55.0781 101.289 55.1198 101.685 55.2031 102.055C55.2917 102.424 55.4271 102.75 55.6094 103.031C55.7917 103.312 56.0234 103.534 56.3047 103.695C56.5859 103.852 56.9219 103.93 57.3125 103.93C57.7917 103.93 58.1849 103.828 58.4922 103.625C58.8047 103.422 59.0547 103.154 59.2422 102.82C59.4297 102.487 59.5755 102.125 59.6797 101.734V99.8516C59.6172 99.5651 59.526 99.2891 59.4062 99.0234C59.2917 98.7526 59.1406 98.513 58.9531 98.3047C58.7708 98.0911 58.5443 97.9219 58.2734 97.7969C58.0078 97.6719 57.6927 97.6094 57.3281 97.6094C56.9323 97.6094 56.5911 97.6927 56.3047 97.8594C56.0234 98.0208 55.7917 98.2448 55.6094 98.5312C55.4271 98.8125 55.2917 99.1406 55.2031 99.5156C55.1198 99.8854 55.0781 100.281 55.0781 100.703ZM68.5 103.555V99.2031C68.5 98.8698 68.4323 98.5807 68.2969 98.3359C68.1667 98.0859 67.9688 97.8932 67.7031 97.7578C67.4375 97.6224 67.1094 97.5547 66.7188 97.5547C66.3542 97.5547 66.0339 97.6172 65.7578 97.7422C65.487 97.8672 65.2734 98.0312 65.1172 98.2344C64.9661 98.4375 64.8906 98.6562 64.8906 98.8906H63.4453C63.4453 98.5885 63.5234 98.2891 63.6797 97.9922C63.8359 97.6953 64.0599 97.4271 64.3516 97.1875C64.6484 96.9427 65.0026 96.75 65.4141 96.6094C65.8307 96.4635 66.2943 96.3906 66.8047 96.3906C67.4193 96.3906 67.9609 96.4948 68.4297 96.7031C68.9036 96.9115 69.2734 97.2266 69.5391 97.6484C69.8099 98.0651 69.9453 98.5885 69.9453 99.2188V103.156C69.9453 103.438 69.9688 103.737 70.0156 104.055C70.0677 104.372 70.1432 104.646 70.2422 104.875V105H68.7344C68.6615 104.833 68.6042 104.612 68.5625 104.336C68.5208 104.055 68.5 103.794 68.5 103.555ZM68.75 99.875L68.7656 100.891H67.3047C66.8932 100.891 66.526 100.924 66.2031 100.992C65.8802 101.055 65.6094 101.151 65.3906 101.281C65.1719 101.411 65.0052 101.576 64.8906 101.773C64.776 101.966 64.7188 102.193 64.7188 102.453C64.7188 102.719 64.7786 102.961 64.8984 103.18C65.0182 103.398 65.1979 103.573 65.4375 103.703C65.6823 103.828 65.9818 103.891 66.3359 103.891C66.7786 103.891 67.1693 103.797 67.5078 103.609C67.8464 103.422 68.1146 103.193 68.3125 102.922C68.5156 102.651 68.625 102.388 68.6406 102.133L69.2578 102.828C69.2214 103.047 69.1224 103.289 68.9609 103.555C68.7995 103.82 68.5833 104.076 68.3125 104.32C68.0469 104.56 67.7292 104.76 67.3594 104.922C66.9948 105.078 66.5833 105.156 66.125 105.156C65.5521 105.156 65.0495 105.044 64.6172 104.82C64.1901 104.596 63.8568 104.297 63.6172 103.922C63.3828 103.542 63.2656 103.117 63.2656 102.648C63.2656 102.195 63.3542 101.797 63.5312 101.453C63.7083 101.104 63.9635 100.815 64.2969 100.586C64.6302 100.352 65.0312 100.174 65.5 100.055C65.9688 99.9349 66.4922 99.875 67.0703 99.875H68.75ZM77.6406 102.758C77.6406 102.549 77.5938 102.357 77.5 102.18C77.4115 101.997 77.2266 101.833 76.9453 101.688C76.6693 101.536 76.2526 101.406 75.6953 101.297C75.2266 101.198 74.8021 101.081 74.4219 100.945C74.0469 100.81 73.7266 100.646 73.4609 100.453C73.2005 100.26 73 100.034 72.8594 99.7734C72.7188 99.513 72.6484 99.2083 72.6484 98.8594C72.6484 98.526 72.7214 98.2109 72.8672 97.9141C73.0182 97.6172 73.2292 97.3542 73.5 97.125C73.776 96.8958 74.1068 96.7161 74.4922 96.5859C74.8776 96.4557 75.3073 96.3906 75.7812 96.3906C76.4583 96.3906 77.0365 96.5104 77.5156 96.75C77.9948 96.9896 78.362 97.3099 78.6172 97.7109C78.8724 98.1068 79 98.5469 79 99.0312H77.5547C77.5547 98.7969 77.4844 98.5703 77.3438 98.3516C77.2083 98.1276 77.0078 97.9427 76.7422 97.7969C76.4818 97.651 76.1615 97.5781 75.7812 97.5781C75.3802 97.5781 75.0547 97.6406 74.8047 97.7656C74.5599 97.8854 74.3802 98.0391 74.2656 98.2266C74.1562 98.4141 74.1016 98.612 74.1016 98.8203C74.1016 98.9766 74.1276 99.1172 74.1797 99.2422C74.237 99.362 74.3359 99.474 74.4766 99.5781C74.6172 99.6771 74.8151 99.7708 75.0703 99.8594C75.3255 99.9479 75.651 100.036 76.0469 100.125C76.7396 100.281 77.3099 100.469 77.7578 100.688C78.2057 100.906 78.5391 101.174 78.7578 101.492C78.9766 101.81 79.0859 102.195 79.0859 102.648C79.0859 103.018 79.0078 103.357 78.8516 103.664C78.7005 103.971 78.4792 104.237 78.1875 104.461C77.901 104.68 77.5573 104.852 77.1562 104.977C76.7604 105.096 76.3151 105.156 75.8203 105.156C75.0755 105.156 74.4453 105.023 73.9297 104.758C73.4141 104.492 73.0234 104.148 72.7578 103.727C72.4922 103.305 72.3594 102.859 72.3594 102.391H73.8125C73.8333 102.786 73.9479 103.102 74.1562 103.336C74.3646 103.565 74.6198 103.729 74.9219 103.828C75.224 103.922 75.5234 103.969 75.8203 103.969C76.2161 103.969 76.5469 103.917 76.8125 103.812C77.0833 103.708 77.2891 103.565 77.4297 103.383C77.5703 103.201 77.6406 102.992 77.6406 102.758ZM91.2812 103.359V93H92.7344V105H91.4062L91.2812 103.359ZM85.5938 100.867V100.703C85.5938 100.057 85.6719 99.4714 85.8281 98.9453C85.9896 98.4141 86.2161 97.9583 86.5078 97.5781C86.8047 97.1979 87.1562 96.9062 87.5625 96.7031C87.974 96.4948 88.4323 96.3906 88.9375 96.3906C89.4688 96.3906 89.9323 96.4844 90.3281 96.6719C90.7292 96.8542 91.0677 97.1224 91.3438 97.4766C91.625 97.8255 91.8464 98.2474 92.0078 98.7422C92.1693 99.237 92.2812 99.7969 92.3438 100.422V101.141C92.2865 101.76 92.1745 102.318 92.0078 102.812C91.8464 103.307 91.625 103.729 91.3438 104.078C91.0677 104.427 90.7292 104.695 90.3281 104.883C89.9271 105.065 89.4583 105.156 88.9219 105.156C88.4271 105.156 87.974 105.049 87.5625 104.836C87.1562 104.622 86.8047 104.323 86.5078 103.938C86.2161 103.552 85.9896 103.099 85.8281 102.578C85.6719 102.052 85.5938 101.482 85.5938 100.867ZM87.0469 100.703V100.867C87.0469 101.289 87.0885 101.685 87.1719 102.055C87.2604 102.424 87.3958 102.75 87.5781 103.031C87.7604 103.312 87.9922 103.534 88.2734 103.695C88.5547 103.852 88.8906 103.93 89.2812 103.93C89.7604 103.93 90.1536 103.828 90.4609 103.625C90.7734 103.422 91.0234 103.154 91.2109 102.82C91.3984 102.487 91.5443 102.125 91.6484 101.734V99.8516C91.5859 99.5651 91.4948 99.2891 91.375 99.0234C91.2604 98.7526 91.1094 98.513 90.9219 98.3047C90.7396 98.0911 90.513 97.9219 90.2422 97.7969C89.9766 97.6719 89.6615 97.6094 89.2969 97.6094C88.901 97.6094 88.5599 97.6927 88.2734 97.8594C87.9922 98.0208 87.7604 98.2448 87.5781 98.5312C87.3958 98.8125 87.2604 99.1406 87.1719 99.5156C87.0885 99.8854 87.0469 100.281 87.0469 100.703ZM98.9922 105.156C98.4036 105.156 97.8698 105.057 97.3906 104.859C96.9167 104.656 96.5078 104.372 96.1641 104.008C95.8255 103.643 95.5651 103.211 95.3828 102.711C95.2005 102.211 95.1094 101.664 95.1094 101.07V100.742C95.1094 100.055 95.2109 99.4427 95.4141 98.9062C95.6172 98.3646 95.8932 97.9062 96.2422 97.5312C96.5911 97.1562 96.987 96.8724 97.4297 96.6797C97.8724 96.487 98.3307 96.3906 98.8047 96.3906C99.4089 96.3906 99.9297 96.4948 100.367 96.7031C100.81 96.9115 101.172 97.2031 101.453 97.5781C101.734 97.9479 101.943 98.3854 102.078 98.8906C102.214 99.3906 102.281 99.9375 102.281 100.531V101.18H95.9688V100H100.836V99.8906C100.815 99.5156 100.737 99.151 100.602 98.7969C100.471 98.4427 100.263 98.151 99.9766 97.9219C99.6901 97.6927 99.2995 97.5781 98.8047 97.5781C98.4766 97.5781 98.1745 97.6484 97.8984 97.7891C97.6224 97.9245 97.3854 98.1276 97.1875 98.3984C96.9896 98.6693 96.8359 99 96.7266 99.3906C96.6172 99.7812 96.5625 100.232 96.5625 100.742V101.07C96.5625 101.471 96.6172 101.849 96.7266 102.203C96.8411 102.552 97.0052 102.859 97.2188 103.125C97.4375 103.391 97.7005 103.599 98.0078 103.75C98.3203 103.901 98.6745 103.977 99.0703 103.977C99.5807 103.977 100.013 103.872 100.367 103.664C100.721 103.456 101.031 103.177 101.297 102.828L102.172 103.523C101.99 103.799 101.758 104.062 101.477 104.312C101.195 104.562 100.849 104.766 100.438 104.922C100.031 105.078 99.5495 105.156 98.9922 105.156ZM108.93 93H110.383V103.359L110.258 105H108.93V93ZM116.094 100.703V100.867C116.094 101.482 116.021 102.052 115.875 102.578C115.729 103.099 115.516 103.552 115.234 103.938C114.953 104.323 114.609 104.622 114.203 104.836C113.797 105.049 113.331 105.156 112.805 105.156C112.268 105.156 111.797 105.065 111.391 104.883C110.99 104.695 110.651 104.427 110.375 104.078C110.099 103.729 109.878 103.307 109.711 102.812C109.549 102.318 109.438 101.76 109.375 101.141V100.422C109.438 99.7969 109.549 99.237 109.711 98.7422C109.878 98.2474 110.099 97.8255 110.375 97.4766C110.651 97.1224 110.99 96.8542 111.391 96.6719C111.792 96.4844 112.258 96.3906 112.789 96.3906C113.32 96.3906 113.792 96.4948 114.203 96.7031C114.615 96.9062 114.958 97.1979 115.234 97.5781C115.516 97.9583 115.729 98.4141 115.875 98.9453C116.021 99.4714 116.094 100.057 116.094 100.703ZM114.641 100.867V100.703C114.641 100.281 114.602 99.8854 114.523 99.5156C114.445 99.1406 114.32 98.8125 114.148 98.5312C113.977 98.2448 113.75 98.0208 113.469 97.8594C113.188 97.6927 112.841 97.6094 112.43 97.6094C112.065 97.6094 111.747 97.6719 111.477 97.7969C111.211 97.9219 110.984 98.0911 110.797 98.3047C110.609 98.513 110.456 98.7526 110.336 99.0234C110.221 99.2891 110.135 99.5651 110.078 99.8516V101.734C110.161 102.099 110.297 102.451 110.484 102.789C110.677 103.122 110.932 103.396 111.25 103.609C111.573 103.823 111.971 103.93 112.445 103.93C112.836 103.93 113.169 103.852 113.445 103.695C113.727 103.534 113.953 103.312 114.125 103.031C114.302 102.75 114.432 102.424 114.516 102.055C114.599 101.685 114.641 101.289 114.641 100.867ZM123.406 103.555V99.2031C123.406 98.8698 123.339 98.5807 123.203 98.3359C123.073 98.0859 122.875 97.8932 122.609 97.7578C122.344 97.6224 122.016 97.5547 121.625 97.5547C121.26 97.5547 120.94 97.6172 120.664 97.7422C120.393 97.8672 120.18 98.0312 120.023 98.2344C119.872 98.4375 119.797 98.6562 119.797 98.8906H118.352C118.352 98.5885 118.43 98.2891 118.586 97.9922C118.742 97.6953 118.966 97.4271 119.258 97.1875C119.555 96.9427 119.909 96.75 120.32 96.6094C120.737 96.4635 121.201 96.3906 121.711 96.3906C122.326 96.3906 122.867 96.4948 123.336 96.7031C123.81 96.9115 124.18 97.2266 124.445 97.6484C124.716 98.0651 124.852 98.5885 124.852 99.2188V103.156C124.852 103.438 124.875 103.737 124.922 104.055C124.974 104.372 125.049 104.646 125.148 104.875V105H123.641C123.568 104.833 123.51 104.612 123.469 104.336C123.427 104.055 123.406 103.794 123.406 103.555ZM123.656 99.875L123.672 100.891H122.211C121.799 100.891 121.432 100.924 121.109 100.992C120.786 101.055 120.516 101.151 120.297 101.281C120.078 101.411 119.911 101.576 119.797 101.773C119.682 101.966 119.625 102.193 119.625 102.453C119.625 102.719 119.685 102.961 119.805 103.18C119.924 103.398 120.104 103.573 120.344 103.703C120.589 103.828 120.888 103.891 121.242 103.891C121.685 103.891 122.076 103.797 122.414 103.609C122.753 103.422 123.021 103.193 123.219 102.922C123.422 102.651 123.531 102.388 123.547 102.133L124.164 102.828C124.128 103.047 124.029 103.289 123.867 103.555C123.706 103.82 123.49 104.076 123.219 104.32C122.953 104.56 122.635 104.76 122.266 104.922C121.901 105.078 121.49 105.156 121.031 105.156C120.458 105.156 119.956 105.044 119.523 104.82C119.096 104.596 118.763 104.297 118.523 103.922C118.289 103.542 118.172 103.117 118.172 102.648C118.172 102.195 118.26 101.797 118.438 101.453C118.615 101.104 118.87 100.815 119.203 100.586C119.536 100.352 119.938 100.174 120.406 100.055C120.875 99.9349 121.398 99.875 121.977 99.875H123.656ZM129.07 97.875V105H127.625V96.5469H129.031L129.07 97.875ZM131.711 96.5L131.703 97.8438C131.583 97.8177 131.469 97.8021 131.359 97.7969C131.255 97.7865 131.135 97.7812 131 97.7812C130.667 97.7812 130.372 97.8333 130.117 97.9375C129.862 98.0417 129.646 98.1875 129.469 98.375C129.292 98.5625 129.151 98.7865 129.047 99.0469C128.948 99.3021 128.883 99.5833 128.852 99.8906L128.445 100.125C128.445 99.6146 128.495 99.1354 128.594 98.6875C128.698 98.2396 128.857 97.8438 129.07 97.5C129.284 97.151 129.555 96.8802 129.883 96.6875C130.216 96.4896 130.612 96.3906 131.07 96.3906C131.174 96.3906 131.294 96.4036 131.43 96.4297C131.565 96.4505 131.659 96.474 131.711 96.5ZM134.992 97.875V105H133.547V96.5469H134.953L134.992 97.875ZM137.633 96.5L137.625 97.8438C137.505 97.8177 137.391 97.8021 137.281 97.7969C137.177 97.7865 137.057 97.7812 136.922 97.7812C136.589 97.7812 136.294 97.8333 136.039 97.9375C135.784 98.0417 135.568 98.1875 135.391 98.375C135.214 98.5625 135.073 98.7865 134.969 99.0469C134.87 99.3021 134.805 99.5833 134.773 99.8906L134.367 100.125C134.367 99.6146 134.417 99.1354 134.516 98.6875C134.62 98.2396 134.779 97.8438 134.992 97.5C135.206 97.151 135.477 96.8802 135.805 96.6875C136.138 96.4896 136.534 96.3906 136.992 96.3906C137.096 96.3906 137.216 96.4036 137.352 96.4297C137.487 96.4505 137.581 96.474 137.633 96.5ZM141.039 96.5469V105H139.586V96.5469H141.039ZM139.477 94.3047C139.477 94.0703 139.547 93.8724 139.688 93.7109C139.833 93.5495 140.047 93.4688 140.328 93.4688C140.604 93.4688 140.815 93.5495 140.961 93.7109C141.112 93.8724 141.188 94.0703 141.188 94.3047C141.188 94.5286 141.112 94.7214 140.961 94.8828C140.815 95.0391 140.604 95.1172 140.328 95.1172C140.047 95.1172 139.833 95.0391 139.688 94.8828C139.547 94.7214 139.477 94.5286 139.477 94.3047ZM143.477 100.867V100.688C143.477 100.078 143.565 99.513 143.742 98.9922C143.919 98.4661 144.174 98.0104 144.508 97.625C144.841 97.2344 145.245 96.9323 145.719 96.7188C146.193 96.5 146.724 96.3906 147.312 96.3906C147.906 96.3906 148.44 96.5 148.914 96.7188C149.393 96.9323 149.799 97.2344 150.133 97.625C150.471 98.0104 150.729 98.4661 150.906 98.9922C151.083 99.513 151.172 100.078 151.172 100.688V100.867C151.172 101.477 151.083 102.042 150.906 102.562C150.729 103.083 150.471 103.539 150.133 103.93C149.799 104.315 149.396 104.617 148.922 104.836C148.453 105.049 147.922 105.156 147.328 105.156C146.734 105.156 146.201 105.049 145.727 104.836C145.253 104.617 144.846 104.315 144.508 103.93C144.174 103.539 143.919 103.083 143.742 102.562C143.565 102.042 143.477 101.477 143.477 100.867ZM144.922 100.688V100.867C144.922 101.289 144.971 101.688 145.07 102.062C145.169 102.432 145.318 102.76 145.516 103.047C145.719 103.333 145.971 103.56 146.273 103.727C146.576 103.888 146.927 103.969 147.328 103.969C147.724 103.969 148.07 103.888 148.367 103.727C148.669 103.56 148.919 103.333 149.117 103.047C149.315 102.76 149.464 102.432 149.562 102.062C149.667 101.688 149.719 101.289 149.719 100.867V100.688C149.719 100.271 149.667 99.8776 149.562 99.5078C149.464 99.1328 149.312 98.8021 149.109 98.5156C148.911 98.224 148.661 97.9948 148.359 97.8281C148.062 97.6615 147.714 97.5781 147.312 97.5781C146.917 97.5781 146.568 97.6615 146.266 97.8281C145.969 97.9948 145.719 98.224 145.516 98.5156C145.318 98.8021 145.169 99.1328 145.07 99.5078C144.971 99.8776 144.922 100.271 144.922 100.688Z" fill="black"/>
</svg>
