<svg width="100" height="100" viewBox="0 0 100 100" fill="none" xmlns="http://www.w3.org/2000/svg">
<g clip-path="url(#clip0_707_26481)">
<path d="M33.1341 46.4977L6.47025 50.403C6.00547 50.4562 5.38142 50.4755 4.66095 50.352C4.17342 50.2681 3.74222 50.1355 3.37386 49.9893C2.83107 49.774 2.44646 49.2629 2.35762 48.6634C1.81917 45.0222 1.34897 41.1918 0.974109 37.1834C0.496325 32.0599 0.225472 27.1812 0.109547 22.5824C0.0802952 21.4355 0.611166 20.3442 1.53207 19.7198C1.55048 19.7073 1.56782 19.696 1.58407 19.6846C2.17778 19.2982 2.76282 19.1713 3.55154 19.0001C4.20809 18.8573 4.76388 18.8052 5.15282 18.7848C13.6392 18.0879 22.1255 17.3909 30.6119 16.6951C30.6509 17.1348 31.1482 22.7852 31.6866 28.8754C32.1417 34.025 33.1059 46.1838 33.133 46.4977H33.1341Z" fill="#A59FB2"/>
<path d="M33.8782 46.3878L9.20355 50.0018C7.66619 50.2273 6.22851 49.1529 5.93815 47.5584C5.26319 43.8515 4.63589 39.9973 4.07252 36.0014C3.4008 31.2371 2.8721 26.6349 2.46257 22.2118C2.30223 20.487 3.5059 18.9525 5.15376 18.7848C13.6932 17.9133 22.2337 17.0407 30.7732 16.1692C31.8598 16.0581 32.8295 16.8877 32.9367 18.0244C33.2477 21.304 33.6225 24.6721 34.07 28.1218C34.7309 33.2215 35.5001 38.1127 36.3462 42.784C36.6572 44.5032 35.5358 46.1464 33.8782 46.3889V46.3878Z" fill="#CECAD6"/>
<path d="M33.577 24.1146C29.3517 24.6268 25.1232 25.1221 20.8935 25.6003C14.9326 26.2746 8.96953 26.9183 3.00319 27.5268C2.80276 25.7284 2.62291 23.9559 2.46148 22.2118C2.30114 20.487 3.50373 18.9525 5.15268 18.7837C13.6921 17.9122 22.2326 17.0407 30.7721 16.1681C31.8587 16.0571 32.8284 16.8866 32.9357 18.0233C33.1253 20.0212 33.3387 22.052 33.577 24.1146Z" fill="#973043"/>
<path d="M38.8663 41.6632C30.8524 43.7643 22.8384 45.8665 14.8244 47.9676C13.0194 48.4413 11.1408 47.5868 10.2286 45.8903C8.61753 42.8917 6.95883 39.2732 5.54714 35.0574C3.94695 30.2796 3.04555 25.8802 2.53743 22.1472C2.311 20.4836 3.45291 18.9571 5.05203 18.7939C13.6586 17.9156 22.2642 17.0362 30.8708 16.1579C31.8859 16.0548 32.7884 16.8322 32.8827 17.893C33.1362 20.7329 33.6855 24.1361 34.8133 27.8578C36.2228 32.5098 38.1145 36.2689 39.8425 39.1032C40.4384 40.0801 39.9411 41.381 38.8663 41.6632Z" fill="#F6F4FB"/>
<path d="M12.9912 35.1979C11.598 35.3691 10.2199 35.53 8.85586 35.6784C8.7291 35.3135 8.60451 34.9429 8.48317 34.5656C7.95555 32.928 7.54168 31.3562 7.21558 29.875C8.50375 29.7152 9.79301 29.5543 11.0812 29.3945C11.6283 31.244 12.2589 33.1852 12.9912 35.1979Z" fill="#EEECF3"/>
<path d="M20.2642 34.2154C18.6185 34.4579 16.9901 34.6845 15.3791 34.8953C14.6575 32.8419 14.0844 30.8904 13.6272 29.0783C15.1992 28.8822 16.7713 28.6873 18.3433 28.4924C18.8947 30.3203 19.5307 32.2333 20.2642 34.2154Z" fill="#EEECF3"/>
<path d="M26.9715 33.1535C25.705 33.3677 24.4245 33.5774 23.1319 33.7802C22.964 33.8063 22.7961 33.8324 22.6282 33.8584C21.9077 31.8616 21.3291 29.9566 20.8633 28.1785C22.2804 28.0028 23.6964 27.826 25.1135 27.6504C25.652 29.4126 26.2673 31.2519 26.9715 33.1535Z" fill="#EEECF3"/>
<path d="M33.8707 31.9034C32.3724 32.1924 30.8556 32.4735 29.3171 32.7455C28.6335 30.8506 28.0777 29.0385 27.6227 27.3386C29.0972 27.155 30.5717 26.9726 32.0462 26.789C32.4601 28.1297 32.9411 29.5258 33.4991 30.9674C33.6215 31.2835 33.745 31.5952 33.8707 31.9034Z" fill="#EEECF3"/>
<path d="M16.6977 44.0476C15.4973 44.3105 14.2968 44.5723 13.0964 44.8352C12.1289 43.1954 11.1398 41.3085 10.22 39.1791C11.5656 38.9536 12.9112 38.7258 14.2557 38.4957C15.0531 40.4721 15.8743 42.3239 16.6977 44.0476Z" fill="#EEECF3"/>
<path d="M23.7625 42.503C22.2165 42.8418 20.6705 43.1796 19.1234 43.5173C18.274 41.8899 17.417 40.0801 16.6001 38.0923C18.2133 37.8135 19.8265 37.5302 21.4397 37.2424C22.2002 39.11 22.9803 40.8643 23.7625 42.503Z" fill="#EEECF3"/>
<path d="M30.3019 41.0728C28.9314 41.3731 27.5598 41.6723 26.1882 41.9726C25.3789 40.4212 24.5631 38.7054 23.7809 36.8253C24.1395 36.7607 24.4992 36.6961 24.8578 36.6315C25.9369 36.4366 27.0149 36.2405 28.0929 36.0411C28.8166 37.8214 29.5587 39.4987 30.3019 41.0728Z" fill="#EEECF3"/>
<path d="M37.5619 39.485C35.9465 39.8385 34.3311 40.1921 32.7158 40.5446C31.9455 39.0486 31.1708 37.4031 30.4276 35.6103C31.9856 35.3213 33.5435 35.0278 35.1004 34.7309C35.9021 36.458 36.7341 38.0423 37.5619 39.485Z" fill="#EEECF3"/>
<path d="M33.8491 24.169C28.834 24.6563 23.8199 25.164 18.8081 25.6921C13.6868 26.2327 8.56769 26.7925 3.44966 27.375C3.05422 25.5221 2.75845 23.7723 2.53743 22.1484C2.311 20.4836 3.45291 18.9582 5.05203 18.7939C13.6586 17.9156 22.2642 17.0373 30.8708 16.1579C31.8859 16.0548 32.7884 16.8322 32.8827 17.8941C33.0506 19.764 33.3453 21.8798 33.8491 24.169Z" fill="#DE4A65"/>
<path d="M3.4734 19.016C3.4084 17.5099 4.1332 16.4628 5.20036 15.8848C6.45712 15.2048 8.06165 15.5051 9.01396 16.5999C10.1006 17.8487 10.106 19.7957 9.0248 21.1284C8.92838 21.2474 8.79078 21.3086 8.65211 21.3086C8.54051 21.3086 8.42892 21.2689 8.33683 21.1873C8.13099 21.0049 8.10607 20.683 8.2805 20.4689C9.04538 19.526 9.04972 18.157 8.29133 17.2866C7.63045 16.5273 6.51887 16.3188 5.64673 16.7903C4.90459 17.1914 4.44631 17.9349 4.44739 18.846L3.47124 19.016H3.4734Z" fill="#69607B"/>
<path d="M10.1538 18.2737C10.0888 16.7676 10.8158 15.8009 11.8829 15.2229C13.1397 14.543 14.7442 14.8433 15.6965 15.938C16.7832 17.1869 16.7886 19.1338 15.7074 20.4665C15.611 20.5855 15.4734 20.6467 15.3347 20.6467C15.2231 20.6467 15.1115 20.6071 15.0194 20.5255C14.8136 20.343 14.7886 20.0212 14.9631 19.807C15.728 18.8641 15.7323 17.4951 14.9739 16.6248C14.313 15.8655 13.2014 15.657 12.3293 16.1284C11.5872 16.5296 11.131 17.2617 11.1321 18.1728L10.1516 18.2725L10.1538 18.2737Z" fill="#69607B"/>
<path d="M16.8113 17.5937C16.7463 16.0876 17.4776 15.1062 18.5447 14.5282C19.8015 13.8483 21.406 14.1486 22.3583 15.2433C23.445 16.4922 23.4504 18.4391 22.3692 19.7718C22.2727 19.8908 22.1351 19.952 21.9965 19.952C21.8849 19.952 21.7733 19.9124 21.6812 19.8308C21.4753 19.6483 21.4504 19.3265 21.6249 19.1123C22.3897 18.1694 22.3941 16.8004 21.6357 15.9301C20.9748 15.1708 19.8632 14.9623 18.9911 15.4337C18.2489 15.8349 17.7939 16.5817 17.7961 17.4928L16.8102 17.5937H16.8113Z" fill="#69607B"/>
<path d="M23.3379 16.9274C23.2729 15.4213 24.0042 14.4399 25.0713 13.8619C26.3281 13.1819 27.9326 13.4823 28.8849 14.577C29.9716 15.8259 29.977 17.7728 28.8958 19.1055C28.7993 19.2245 28.6618 19.2857 28.5231 19.2857C28.4115 19.2857 28.2999 19.2461 28.2078 19.1645C28.002 18.982 27.977 18.6602 28.1515 18.446C28.9164 17.5031 28.9207 16.1341 28.1623 15.2638C27.5014 14.5045 26.3898 14.2959 25.5177 14.7674C24.7756 15.1686 24.3205 15.9154 24.3227 16.8265L23.3368 16.9274H23.3379Z" fill="#69607B"/>
<path d="M34.1422 37.0818C35.1496 43.3062 31.3827 49.3412 25.4505 50.6214C19.1885 51.9734 12.9494 47.5598 11.8375 40.6937C10.7255 33.8292 15.2534 27.6717 21.6215 26.9777C27.6549 26.3197 33.1347 30.8574 34.1422 37.0818Z" fill="#5E186C"/>
<path d="M36.1032 36.2229C37.1107 42.4473 33.3437 48.4824 27.4115 49.7625C21.1496 51.1129 14.9104 46.6993 13.7985 39.8348C12.6881 32.9703 17.2144 26.8128 23.5825 26.1188C29.6159 25.4608 35.0957 29.9985 36.1032 36.2229Z" fill="#A35AAD"/>
<path d="M33.8107 36.5952C34.601 41.4742 31.6194 46.1654 26.9821 47.1092C22.1473 48.0938 17.381 44.6566 16.5286 39.3923C15.6763 34.1296 19.1134 29.3633 24.012 28.7706C28.7097 28.2024 33.0188 31.7147 33.8091 36.5936L33.8107 36.5952Z" fill="#E3B2EB"/>
<path d="M26.1281 37.8395L24.8643 38.0436L23.9009 32.0902C23.8405 31.7179 24.0772 31.3799 24.4283 31.3326C24.7777 31.2869 25.1092 31.5481 25.1696 31.9188L26.1281 37.8379V37.8395Z" fill="#5E186C"/>
<path d="M25.7836 38.553L25.2104 37.3267L28.8419 35.4914C29.1489 35.3362 29.5212 35.4816 29.673 35.8147C29.8265 36.1478 29.704 36.5429 29.3987 36.6997L25.7819 38.553H25.7836Z" fill="#5E186C"/>
<path d="M26.8646 37.7202C26.9952 38.5236 26.4906 39.2763 25.7346 39.4037C24.9786 39.5311 24.2455 38.9775 24.1132 38.166C23.981 37.3545 24.4969 36.5985 25.2611 36.4793C26.0253 36.3601 26.7356 36.9169 26.8646 37.7202Z" fill="#5E186C"/>
<path d="M71.3971 53.9775C73.7585 53.9775 76.0481 53.0268 77.8649 51.2209C78.3653 50.7234 78.3683 49.9143 77.8698 49.4139C77.3724 48.9135 76.5633 48.9106 76.0629 49.409C74.1674 51.2936 71.689 51.8943 69.2657 51.0577C65.8789 49.8897 63.4103 46.2355 62.8234 41.5205C62.7359 40.8206 62.0969 40.3231 61.3969 40.4106C60.6969 40.4981 60.1995 41.1361 60.287 41.8371C60.6487 44.7373 61.6279 47.3553 63.1203 49.407C64.5389 51.3575 66.3753 52.7643 68.432 53.4741C69.4131 53.8123 70.412 53.9785 71.3971 53.9785V53.9775Z" fill="#DE4A65"/>
<path d="M40.6326 83.3802C41.017 83.3802 41.3955 83.2052 41.6432 82.8729C42.2754 82.0245 42.7905 80.1064 43.6468 76.7894C44.0695 75.1516 44.507 73.4577 44.9681 71.9781C46.7279 66.339 48.7039 61.7616 48.7236 61.7154C49.0018 61.0745 48.7069 60.3293 48.0659 60.052C47.4269 59.7738 46.6807 60.0678 46.4025 60.7097C46.3199 60.9004 44.3546 65.4503 42.5526 71.225C42.0719 72.7646 41.6275 74.4889 41.1969 76.1583C40.6847 78.1412 39.9838 80.8585 39.6141 81.3618C39.2022 81.9232 39.3182 82.7166 39.8795 83.1314C40.1066 83.2995 40.3711 83.3811 40.6326 83.3811H40.6316L40.6326 83.3802Z" fill="#DE4A65"/>
<path d="M45.3732 63.194C45.6357 62.5461 46.375 62.2335 47.0199 62.495C47.6678 62.7575 47.9912 63.484 47.7297 64.1319C47.7199 64.1555 46.493 67.441 46.493 67.441L43.4168 68.5667C44.4697 65.4375 45.3211 63.3228 45.3722 63.193L45.3732 63.194Z" fill="#973043"/>
<path d="M43.4532 77.5356C43.4532 77.5356 42.9774 80.9873 42.2735 83.8717C41.7338 86.0847 40.4086 86.4455 38.4001 86.3482C36.3316 86.2469 36.3936 85.2294 37.878 83.0931C38.5928 82.0638 39.9396 81.0807 40.851 79.2816C41.5549 77.8895 43.0256 75.653 43.4542 77.5356H43.4532Z" fill="#DE4A65"/>
<path d="M61.1323 81.6549C61.2002 81.6549 61.268 81.65 61.3358 81.6392C62.026 81.5271 62.4939 80.8782 62.3829 80.1881C62.3425 79.9394 61.3889 74.0781 60.571 71.0875C59.7521 68.0949 57.6423 62.7527 57.5538 62.5266C57.2963 61.8777 56.5609 61.5592 55.912 61.8158C55.2622 62.0734 54.9437 62.8087 55.2022 63.4576C55.2239 63.5116 57.3503 68.8961 58.1319 71.754C58.9145 74.6149 59.8759 80.5332 59.8858 80.5921C59.987 81.2135 60.5228 81.6549 61.1333 81.6549H61.1323Z" fill="#DE4A65"/>
<path d="M55.2023 63.4575C54.9448 62.8076 55.2633 62.0723 55.9131 61.8157C56.563 61.5601 57.2973 61.8776 57.5549 62.5265C57.5805 62.5914 57.7722 63.077 58.0514 63.8065L56.4597 66.7666C55.7942 64.9587 55.2132 63.486 55.2023 63.4575Z" fill="#973043"/>
<path d="M42.2587 60.6419C42.009 56.677 42.009 43.003 41.6325 35.4822C41.257 27.9615 39.5513 22.2044 43.0167 22.5445H43.0177C47.3503 22.9791 57.2708 23.8855 59.9065 24.436C59.9065 24.436 61.7842 24.8165 61.9091 27.0039C61.9759 28.1777 62.8096 35.6071 62.9708 42.9096C63.1104 49.2153 62.5924 55.4482 62.5343 57.2227C62.4095 61.0509 62.1588 63.9235 58.2795 63.9235C55.3596 63.9235 49.2477 64.4652 45.2828 64.3256C45.4588 64.3325 45.6377 64.3374 45.8215 64.3404C44.8207 64.2666 42.4564 63.7613 42.2587 60.6419Z" fill="#DE4A65"/>
<path d="M43.5407 56.5807C43.3274 53.2254 43.3588 43.762 43.2762 37.3924C43.1897 30.7761 41.5873 26.4465 44.4609 26.4465C48.1829 26.4465 56.5964 27.3362 58.8506 27.8022C58.8506 27.8022 60.4551 28.1237 60.5622 29.9749C60.6242 31.0367 61.2809 36.8714 61.4215 43.4248C61.505 47.312 61.4559 51.3201 61.392 55.2034C61.3566 57.3957 61.3143 59.4986 58.4711 59.4986C55.9741 59.4986 49.517 59.8161 46.1263 59.6972C46.2767 59.7021 46.4301 59.706 46.5864 59.71C45.7311 59.648 43.7088 59.2204 43.5397 56.5807H43.5407Z" fill="#742384"/>
<path d="M50.1177 35.499C50.1177 36.3189 51.1854 36.1861 52.3966 36.1861C53.9223 36.1861 54.9163 36.3189 54.9163 35.499C54.9163 34.679 53.6077 33.2162 52.3966 33.2162C51.1854 33.2162 50.1177 34.679 50.1177 35.499Z" fill="#3F0D4A"/>
<path d="M38.2428 28.3262C38.1563 26.9646 37.8388 25.5175 38.4473 24.2336C39.1915 22.6626 41.5903 22.401 43.0158 22.5446C39.5504 22.2044 41.2561 27.9615 41.6316 35.4823C42.0072 43.003 42.0072 56.6771 42.2579 60.6429C42.3984 62.8647 43.8466 64.1113 45.7725 64.3394C43.9488 64.1231 41.783 64.3689 40.389 62.7674C39.221 61.4255 39.1306 59.5153 39.1306 57.7713C39.1306 54.4897 39.0736 41.3573 38.2438 28.3272L38.2428 28.3262Z" fill="#973043"/>
<path d="M38.8956 42.7819C38.8425 40.9631 38.7766 39.0549 38.696 37.0927L40.6062 38.0502C40.6062 38.0502 40.1982 42.4909 38.8956 42.7819Z" fill="#6B222F"/>
<path d="M52.5726 61.4746C52.5726 61.977 52.9796 62.383 53.482 62.383C53.9844 62.383 54.3904 61.976 54.3904 61.4746C54.3904 60.9732 53.9834 60.5662 53.482 60.5662C52.9806 60.5662 52.5726 60.9732 52.5726 61.4746Z" fill="#973043"/>
<path d="M59.5191 78.4411C59.5191 78.4411 59.8101 81.0689 60.1099 81.414C60.6791 82.0678 66.1138 83.0695 66.9828 83.0371C68.1163 82.9958 67.1509 80.5577 65.1483 79.4743C63.1448 78.3909 61.269 78.0193 59.5181 78.4411H59.5191Z" fill="#DE4A65"/>
<path d="M54.0501 26.183C54.2615 26.183 54.4444 26.0248 54.4699 25.8095C54.4975 25.5774 54.3303 25.3671 54.0993 25.3405L49.3902 24.788C49.1572 24.7585 48.9478 24.9276 48.9203 25.1586C48.8928 25.3907 49.0599 25.601 49.2909 25.6276L54 26.1801C54.0167 26.1821 54.0334 26.183 54.0501 26.183Z" fill="#973043"/>
<path d="M25.9165 40.8608C27.6536 37.4101 32.3794 35.9561 39.213 36.7652C39.2966 36.775 39.3605 36.7829 39.4008 36.7868C40.0713 36.8183 40.6071 37.3718 40.6071 38.0501C40.6071 38.7285 40.0408 39.3154 39.3418 39.3154C39.2926 39.3154 39.1462 39.3055 38.9161 39.278C33.2967 38.6144 29.3819 39.6044 28.1757 41.9992C26.0669 46.1863 34.21 50.6299 37.2743 52.3022C37.2743 52.3022 40.7172 53.2706 41.25 54.9359C41.7838 56.6013 41.9274 58.4781 40.8076 59.237C39.3388 60.2319 36.3168 56.1235 36.6884 54.8671C36.5036 54.7639 36.2912 54.6479 36.0622 54.524C32.0658 52.3435 22.7076 47.2353 25.9165 40.8618V40.8608Z" fill="#DE4A65"/>
<path d="M39.3409 39.3154C39.2928 39.3154 39.1453 39.3056 38.9153 39.278C34.2937 38.7324 30.8292 39.3075 29.0724 40.8598C29.095 40.7143 29.1383 40.5708 29.2326 40.4302C30.2905 38.8612 34.1236 38.4925 36.8222 38.6075C39.5209 38.7236 38.4355 36.6728 38.4355 36.6728C38.696 36.6993 39.3596 36.7829 39.3999 36.7868C40.0704 36.8183 40.6062 37.3718 40.6062 38.0501C40.6062 38.7285 40.0399 39.3154 39.3409 39.3154Z" fill="#973043"/>
<path d="M57.4402 49.1727C56.4428 49.1955 55.3113 49.3084 54.2658 49.4447C54.3809 49.0227 54.4956 48.6062 54.4956 48.6062C54.4956 48.6062 54.6165 48.8637 54.9542 48.836C55.4336 48.7966 56.0153 48.3262 56.2941 47.4678C56.5904 46.5559 56.5588 45.522 55.9456 45.4379C55.4501 45.37 55.2157 45.8095 55.1819 45.897C55.1819 45.897 55.2854 45.4983 54.9711 45.5693C54.6699 45.6372 54.6154 45.772 54.5419 46.0128C54.5289 46.0552 54.2793 47.0025 54.0179 48.0008C54.0139 48.0073 54.0107 48.0148 54.0083 48.0232C53.9436 48.2489 53.814 48.325 53.7201 48.3314C53.4163 48.3524 54.0605 46.341 54.1094 46.1884C54.1739 45.9873 54.2122 45.8347 53.9903 45.7519C53.8407 45.6959 53.636 45.7173 53.5767 45.8783C53.5517 45.9458 53.5336 45.9955 53.5336 45.9955C53.5336 45.9955 53.3618 45.7423 52.9846 45.7785C52.6072 45.8147 52.1326 46.2771 51.8208 47.086C51.509 47.895 51.3771 49.0539 52.1259 49.166C52.5059 49.2228 52.8236 49.0038 52.9888 48.6447C52.9888 48.6447 52.9608 48.8848 53.2114 49.0012C53.3099 49.0472 53.5542 49.028 53.7837 48.8968C53.7241 49.1246 53.6681 49.3406 53.618 49.533C52.0037 49.7641 50.7334 50.0197 50.7334 50.0197C50.7336 50.0186 51.6054 47.0158 51.8019 46.3549C51.9663 45.8016 51.6522 45.9233 51.42 45.992C51.1724 46.0651 51.056 46.2749 50.9336 46.6553C50.3987 48.3171 49.9742 48.8356 49.6642 48.7256C49.3798 48.6247 50.2649 46.8587 50.0496 46.6269C49.863 46.4261 49.4803 46.4386 49.4079 46.5578C49.3355 46.677 49.4445 46.7852 49.3987 46.9537C49.3529 47.1221 48.9992 48.0345 48.9625 48.2388C48.9257 48.4428 48.6204 49.5748 49.4414 49.5223C49.9265 49.4913 50.2573 49.122 50.2921 49.0197C50.1425 49.4596 49.929 50.1694 49.929 50.1694C49.929 50.1694 48.9367 50.4227 48.1486 51.2565C47.5228 51.9183 47.0846 53.3399 48.0246 53.5619C49.4857 53.907 50.1658 51.6719 50.516 50.8309C51.6982 50.5617 52.5999 50.3824 53.4339 50.2481C53.4217 50.297 53.4136 50.3302 53.4107 50.344C53.3363 50.6937 53.3539 50.8336 53.6261 50.7987C53.9196 50.761 53.9558 50.6098 54.0502 50.244C54.0566 50.2189 54.0648 50.1879 54.0743 50.152C55.0628 50.0138 56.0335 49.9256 57.3693 49.808C57.7844 49.7714 57.7795 49.7018 57.8191 49.4533C57.8636 49.1714 57.5387 49.1707 57.4402 49.1727ZM54.8839 47.2581C55.0807 46.6034 55.2631 46.3407 55.4353 46.2661C55.846 46.0876 55.9263 46.6047 55.6123 47.3916C55.2487 48.3021 54.8193 48.2833 54.6541 48.1047C54.6538 48.1047 54.676 47.9493 54.8839 47.2581ZM53.048 47.6608C52.8733 48.0884 52.7094 48.3895 52.482 48.3922C52.1561 48.396 52.1622 47.905 52.3915 47.2862C52.5843 46.7661 52.9386 46.4374 53.1306 46.3993C53.3223 46.3615 53.5461 46.4412 53.048 47.6608ZM48.7577 52.6464C47.9849 53.3437 48.1763 52.3926 48.463 51.9809C49.0072 51.1993 49.6827 50.9991 49.6827 50.9991C49.3435 52.0077 48.9161 52.5034 48.7577 52.6464Z" fill="white"/>
<path d="M58.4608 46.6557C58.7524 46.3144 58.8829 45.5893 58.39 45.3248C57.7938 45.005 57.0192 45.5008 56.7034 46.5632C56.4226 47.508 56.3212 48.6687 57.2881 48.6215C57.7644 48.5983 58.1738 48.253 58.3215 47.9972C58.3931 47.8731 58.421 47.6781 58.408 47.5916C58.3716 47.3488 58.2232 47.3141 57.9729 47.6342C57.9111 47.7049 57.4168 48.1493 57.1728 47.8878C56.9965 47.6987 57.1423 47.3254 57.1493 47.3251C57.4668 47.3005 58.022 47.1694 58.4608 46.6557ZM57.7455 45.8351C58.0114 45.584 58.2682 45.8819 57.9614 46.3136C57.6517 46.7491 57.2867 46.7397 57.2838 46.7534C57.3204 46.5834 57.4556 46.1093 57.7455 45.8351Z" fill="white"/>
<path d="M53.1824 42.9326C53.1241 42.8954 53.0368 42.8772 52.9211 42.8777L52.575 42.8793L52.5771 43.3598L52.9345 43.3582C53.1593 43.3572 53.2714 43.2755 53.2707 43.1132C53.2703 43.0299 53.241 42.9699 53.1824 42.9326Z" fill="#10CBB4"/>
<path d="M53.3573 40.6955C52.3117 40.7484 51.4614 41.5938 51.4021 42.641C51.3619 43.3501 51.678 43.9858 52.1866 44.3875C52.239 44.4288 52.2697 44.4915 52.27 44.5583L52.2721 45.0148C52.2722 45.0499 52.292 45.0821 52.323 45.0982L52.3357 45.1049C52.3656 45.1204 52.4014 45.1175 52.4285 45.0977L52.8183 44.8136C52.8693 44.7765 52.9338 44.7632 52.9953 44.7775C53.1488 44.8135 53.3088 44.8322 53.4732 44.8315C54.6141 44.8264 55.5348 43.8958 55.5296 42.7528C55.5244 41.5778 54.5424 40.6355 53.3573 40.6955ZM53.5386 43.3851C53.4919 43.4589 53.4286 43.5137 53.3488 43.5494C53.2989 43.5706 53.2413 43.5854 53.1765 43.5944C53.1117 43.6033 53.0358 43.6079 52.9491 43.6083L52.4472 43.6106C52.3748 43.6109 52.323 43.5949 52.2917 43.5625C52.2606 43.53 52.2447 43.4783 52.2444 43.4071L52.2389 42.17C52.2386 42.0975 52.2542 42.0451 52.2858 42.0131C52.3174 41.9812 52.3688 41.965 52.4396 41.9647L52.9716 41.9624C53.05 41.962 53.1181 41.9666 53.1757 41.976C53.2334 41.9855 53.2849 42.0041 53.3305 42.0314C53.3693 42.0544 53.4039 42.0836 53.4339 42.1191C53.464 42.1546 53.487 42.1938 53.5028 42.2366C53.5186 42.2797 53.5266 42.325 53.5268 42.373C53.5276 42.5377 53.446 42.6583 53.2819 42.7356C53.4981 42.8034 53.6066 42.937 53.6075 43.1359C53.6085 43.2282 53.5854 43.311 53.5386 43.3851ZM54.7075 43.4449C54.6666 43.5052 54.6063 43.5513 54.5259 43.5827C54.4459 43.614 54.3482 43.6301 54.2331 43.6306C54.1232 43.6311 54.029 43.6148 53.9505 43.5815C53.872 43.5481 53.8137 43.5063 53.7763 43.4561C53.7387 43.4058 53.7199 43.3552 53.7197 43.3042C53.7195 43.2705 53.7312 43.2416 53.7551 43.2175C53.7789 43.1934 53.809 43.1814 53.8456 43.1813C53.8777 43.1811 53.9025 43.1888 53.9198 43.2044C53.937 43.2199 53.9536 43.242 53.9693 43.2705C54.001 43.3251 54.0386 43.3656 54.0823 43.3924C54.1261 43.4192 54.1859 43.4324 54.2612 43.432C54.3226 43.4318 54.3726 43.4178 54.4118 43.3904C54.4509 43.363 54.4702 43.3316 54.47 43.2963C54.4698 43.2424 54.4492 43.2031 54.4084 43.1787C54.3677 43.1541 54.3005 43.131 54.207 43.109C54.1017 43.0833 54.0157 43.0562 53.9496 43.0276C53.8833 42.9991 53.8304 42.9613 53.7906 42.9143C53.7508 42.8673 53.7307 42.8094 53.7304 42.7406C53.7301 42.6792 53.7481 42.6211 53.7845 42.5665C53.8208 42.5116 53.8747 42.4679 53.9459 42.435C54.0171 42.402 54.1031 42.3855 54.2038 42.385C54.2829 42.3847 54.3543 42.3927 54.4173 42.4089C54.4807 42.425 54.5332 42.4469 54.5756 42.4745C54.618 42.5021 54.6502 42.5324 54.6724 42.566C54.6946 42.5996 54.7058 42.6325 54.7059 42.6646C54.7061 42.6996 54.6944 42.7285 54.6711 42.7513C54.6478 42.7738 54.6142 42.7852 54.5708 42.7854C54.5393 42.7856 54.5127 42.7768 54.4905 42.7588C54.4684 42.7408 54.4429 42.714 54.4145 42.6783C54.3912 42.6484 54.3639 42.6246 54.3324 42.6069C54.3008 42.589 54.2582 42.5803 54.2044 42.5805C54.1492 42.5808 54.1033 42.5928 54.0668 42.6165C54.0303 42.6401 54.0121 42.6695 54.0123 42.7049C54.0124 42.737 54.026 42.7633 54.053 42.784C54.08 42.8043 54.1161 42.8212 54.1619 42.8344C54.2075 42.8477 54.2703 42.8639 54.3503 42.8829C54.4451 42.9057 54.5228 42.9331 54.5832 42.9649C54.6434 42.9968 54.6893 43.0346 54.7204 43.0784C54.7516 43.1219 54.7674 43.172 54.7677 43.2281C54.7686 43.3119 54.7485 43.3846 54.7075 43.4449Z" fill="#10CBB4"/>
<path d="M53.0707 42.6144C53.1158 42.5986 53.1501 42.5685 53.1739 42.5242C53.1923 42.4926 53.2016 42.4575 53.2014 42.4186C53.201 42.3356 53.1712 42.2804 53.1121 42.2535C53.053 42.2265 52.9628 42.2132 52.842 42.2137L52.572 42.2149L52.5739 42.6404L52.8786 42.639C52.9615 42.6384 53.0255 42.6303 53.0707 42.6144Z" fill="#10CBB4"/>
<path d="M47.9115 32.0935C47.9115 32.6037 48.2025 33.0166 48.5614 33.0166C48.9202 33.0166 49.2102 32.6037 49.2102 32.0935C49.2102 31.5833 48.9192 31.1703 48.5614 31.1703C48.2035 31.1703 47.9115 31.5833 47.9115 32.0935Z" fill="#DE4A65"/>
<path d="M55.569 32.4454C55.569 32.9556 55.86 33.3686 56.2188 33.3686C56.5777 33.3686 56.8677 32.9556 56.8677 32.4454C56.8677 31.9352 56.5767 31.5223 56.2188 31.5223C55.861 31.5223 55.569 31.9352 55.569 32.4454Z" fill="#DE4A65"/>
<path d="M50.1492 35.7191C50.335 36.2933 51.3083 36.1861 52.3956 36.1861C53.2175 36.1861 53.885 36.2245 54.3254 36.1311C53.888 34.8186 51.5167 33.8306 50.1482 35.7191H50.1492Z" fill="#DE4A65"/>
<path d="M81.3342 50.9249C80.4229 51.6967 77.4932 52.2089 76.2466 50.9554C75 49.7019 76.2515 47.3995 76.4924 46.8598C76.8896 45.971 78.9059 45.0017 80.3413 47.077C81.2231 48.3521 82.2721 50.1296 81.3352 50.9239L81.3342 50.9249Z" fill="#DE4A65"/>
<path d="M75.8829 48.3688C75.9212 48.4976 75.9841 48.6913 76.0736 48.9203C76.3685 49.6744 76.5406 50.1128 76.8778 50.2102C77.2612 50.3212 77.6889 49.9437 77.8511 49.7855C77.9474 50.2279 78.1293 50.7784 78.4871 51.3338C78.5746 51.4705 78.6661 51.5944 78.7565 51.7084C79.8163 51.6661 80.8554 51.3319 81.3342 50.9249C82.2711 50.1315 81.2221 48.3531 80.3403 47.078C78.9059 45.0036 76.8896 45.972 76.4924 46.8607C76.3862 47.0996 76.0815 47.6836 75.8829 48.3688Z" fill="#973043"/>
<path d="M76.1624 42.6523C76.2884 43.1634 76.4769 43.6387 76.7161 44.0638C76.4047 44.0284 76.0833 44.0031 75.7564 43.9894C75.7332 43.9882 75.7055 43.9875 75.6768 43.9868C75.6314 43.9855 75.5806 43.9835 75.5275 43.9825C75.4843 43.9814 75.4401 43.9802 75.3969 43.9791C75.2243 43.9746 75.0694 43.9709 75.0685 43.9686C74.8806 43.7252 74.7218 43.457 74.5985 43.167C74.4681 42.8607 74.3767 42.5307 74.3314 42.1843C74.2347 41.4422 74.3653 40.7224 74.6681 40.0979C74.692 40.0483 74.9648 40.0064 75.0174 39.9908C75.2167 39.9303 75.4173 39.8677 75.6139 39.8003C75.7174 39.7644 75.821 39.7285 75.9247 39.6903C75.9663 39.6746 76.2157 39.6115 76.2273 39.5739C76.0037 40.303 75.9277 41.1272 76.0383 41.9828C76.0679 42.2122 76.1103 42.4362 76.1634 42.6535L76.1624 42.6523Z" fill="#AFDDFD"/>
<path d="M79.0447 50.3914C78.7872 50.4248 78.5373 50.1361 78.4865 49.746L77.7868 44.3525L80.0408 44.3548L80.0443 45.6031L79.7428 46.1079L79.9321 47.006L79.7309 47.9915L80.4424 49.5512C80.5598 50.4585 79.0446 50.3925 79.0446 50.3925L79.0447 50.3914Z" fill="#61BDFF"/>
<path d="M78.5354 50.4577C78.2779 50.4911 78.0281 50.2025 77.9772 49.8123L77.2776 44.4188L79.5315 44.4211L79.535 45.6695L79.2335 46.1743L79.4229 47.0724L79.2216 48.0578L79.9331 49.6175C80.0505 50.5249 78.5353 50.4588 78.5353 50.4588L78.5354 50.4577Z" fill="#AFDDFD"/>
<path d="M79.4498 37.7766C79.4329 37.8115 79.4159 37.8475 79.399 37.8824C78.879 38.9892 78.6803 40.2312 78.8204 41.4459C78.9704 42.7482 79.5922 43.7884 80.1105 44.961C79.6488 44.7471 78.5133 44.7967 78.1444 44.8353C77.8283 44.8671 76.9649 44.8814 76.3881 44.9885C74.98 43.6976 74.4253 41.7469 75.1505 39.949C75.3158 39.54 75.5386 39.1425 75.8139 38.7637C75.8166 38.7584 76.1979 38.6645 76.5702 38.5719C77.5366 38.333 78.4994 38.0749 79.4498 37.7766Z" fill="#0759A4"/>
<path d="M94.0054 48.6438C93.3787 48.0502 92.4683 47.5072 91.3371 47.0403C88.9877 46.0686 85.6893 45.4252 82.0268 45.3446C81.5708 45.3343 81.0146 45.4246 80.5731 45.317C80.0806 45.1976 79.6968 44.3239 79.4879 43.9063C79.1752 43.2807 78.9618 42.6053 78.8532 41.9141C78.6392 40.5542 78.8273 39.1359 79.3977 37.8833C79.4135 37.8484 79.4305 37.8124 79.4485 37.7776C79.5105 37.6498 79.5756 37.5234 79.6462 37.3986C79.6516 37.3892 80.5741 37.1347 80.9491 37.0268C84.295 36.0654 87.1926 34.6962 89.2094 33.2408C90.3298 32.432 91.1788 31.5987 91.6811 30.7928C91.5417 31.0902 91.4149 31.4177 91.3018 31.7722C90.8357 33.2296 90.7 34.8508 90.6581 36.3785C90.6137 37.9858 90.7407 39.5974 91.0318 41.1782C91.2754 42.4979 91.6343 43.7961 92.1052 45.0526C92.5831 46.3265 93.1258 47.5971 94.0041 48.6459L94.0054 48.6438Z" fill="#AFDDFD"/>
<path d="M99.4285 38.8574C99.7837 41.594 99.6857 44.1421 99.237 46.1094C98.729 48.3401 97.771 49.8235 96.5129 49.9869C96.1115 50.0387 95.5497 49.8711 95.3041 49.746C95.2862 49.7364 95.2682 49.7279 95.2503 49.7183C95.2304 49.7074 95.2104 49.6964 95.1905 49.6855C95.179 49.6788 95.1664 49.6719 95.1548 49.6652C95.1339 49.6531 95.1131 49.6398 95.0921 49.6277C95.0765 49.6183 95.0609 49.6078 95.0453 49.5974C95.0297 49.588 95.0141 49.5775 94.9996 49.5671C94.9976 49.5658 94.9944 49.5644 94.9923 49.5631C94.9778 49.5527 94.9622 49.5433 94.9477 49.5329C94.9312 49.5213 94.9156 49.5108 94.9001 49.4992C94.8979 49.499 94.8971 49.4967 94.895 49.4954C93.9744 48.8249 93.297 47.7324 92.7931 46.732C92.2387 45.63 91.8142 44.4404 91.4987 43.2486C90.9345 41.1195 90.6318 38.8541 90.6338 36.6467C90.6361 34.5647 90.8788 32.066 91.9724 30.246C92.1812 29.8981 92.4131 29.6069 92.6638 29.3809C92.9989 29.0781 93.3697 28.8922 93.7711 28.8403C96.139 28.5326 98.6727 33.0177 99.4296 38.8575L99.4285 38.8574Z" fill="#AFDDFD"/>
<path d="M97.1685 39.4212C97.4204 41.3608 97.3406 43.204 96.9982 44.774C96.5523 46.8226 95.657 48.4078 94.4641 49.1337C93.5218 48.2324 92.8608 46.872 92.339 45.6902C90.9038 42.443 90.436 38.6331 90.7372 35.1131C90.8639 33.6341 91.0726 32.0048 91.7553 30.6418C94.2436 31.1053 96.563 34.7508 97.1685 39.4212Z" fill="#61BDFF"/>
<path d="M93.1874 41.1116C92.4582 41.2773 91.7693 41.4715 91.1432 41.68C91.028 41.129 90.9304 40.5576 90.8544 39.9696C90.7781 39.3849 90.7273 38.8117 90.6984 38.2518C91.3574 38.2941 92.0729 38.3056 92.8209 38.2806C93.5512 38.2559 93.9053 38.2424 94.5474 38.1587C94.842 38.1202 95.1562 38.6784 95.2513 39.4037C95.3452 40.13 95.1827 40.7489 94.8892 40.7875C94.2462 40.87 93.901 40.9476 93.1887 41.1106L93.1874 41.1116Z" fill="#AFDDFD"/>
<path d="M95.251 39.4059C95.2981 39.7668 95.3211 40.234 95.1382 40.5668C94.9786 40.8566 94.7172 40.7665 94.5362 40.5526C94.3155 40.2925 94.2439 39.9102 94.1957 39.5813C94.1498 39.2615 94.0534 38.2255 94.5471 38.1609C94.8417 38.1224 95.1559 38.6806 95.251 39.4059Z" fill="#0759A4"/>
<path d="M98.4076 48.9959C98.889 48.2955 99.2683 47.3472 99.534 46.1776C100.007 44.1019 100.076 41.4887 99.7299 38.8184C99.3589 35.9559 98.5552 33.3195 97.4676 31.3938C96.334 29.3868 95.0062 28.3727 93.7302 28.5376C91.5231 28.8241 90.6345 32.0042 90.3865 33.8212C90.0856 36.0234 90.3197 38.2983 90.638 40.4654C90.9325 42.4659 91.3573 44.4831 92.1953 46.3332C92.9149 47.9215 94.4707 50.5576 96.5507 50.288C97.2557 50.1963 97.8795 49.7613 98.4065 48.9958L98.4076 48.9959ZM94.5566 48.796C92.4271 46.6133 91.6423 43.179 91.2266 40.2653C91.192 40.0199 91.1596 39.7736 91.1296 39.5265C90.9193 37.7643 90.8542 35.9716 91.0921 34.2089C91.2986 32.6771 91.665 30.6902 92.867 29.6058C93.1617 29.34 93.4795 29.1841 93.8101 29.1405C94.3037 29.077 94.8238 29.2614 95.3577 29.6902C95.9067 30.1327 96.4399 30.8055 96.9399 31.6923C97.99 33.5509 98.7674 36.1091 99.1285 38.8952C99.4655 41.4958 99.3997 44.0327 98.9423 46.0413C98.4466 48.2178 97.5467 49.5463 96.4753 49.6845C96.0097 49.7453 95.5552 49.5699 95.163 49.3065C94.9378 49.1558 94.7322 48.976 94.5567 48.7949L94.5566 48.796ZM91.1856 40.1468L91.1858 40.1446C91.1858 40.1446 91.1857 40.1457 91.1856 40.1468Z" fill="#0759A4"/>
<path d="M82.2869 46.4163C80.9853 44.3203 79.1754 45.2729 78.381 46.781C77.5867 48.2891 78.5393 52.02 80.1595 51.8303C81.7796 51.6405 84.7172 50.3291 82.2869 46.4163Z" fill="#DE4A65"/>
<path d="M78.3653 47.8557C78.9532 48.9086 80.0002 49.7659 80.652 49.1937C81.1809 48.7297 80.5095 46.9395 79.0329 45.8403C77.8364 44.9496 76.23 45.9908 75.8191 48.6127C75.2892 51.9867 78.1756 50.2515 78.3663 47.8557H78.3653Z" fill="#DE4A65"/>
</g>
<defs>
<clipPath id="clip0_707_26481">
<rect width="100" height="100" fill="white"/>
</clipPath>
</defs>
</svg>
