<svg width="88" height="88" viewBox="0 0 88 88" fill="none" xmlns="http://www.w3.org/2000/svg">
<rect width="88" height="88" rx="16" fill="#F0CEF5"/>
<path fill-rule="evenodd" clip-rule="evenodd" d="M29.833 43.7225C29.833 51.8478 36.4302 58.445 44.5555 58.445C52.6808 58.445 59.278 51.8478 59.278 43.7225C59.278 35.5971 52.6808 29 44.5555 29C36.4302 29 29.833 35.5971 29.833 43.7225ZM32.7775 43.7225C32.7775 37.2225 38.0555 31.9445 44.5555 31.9445C51.0555 31.9445 56.3335 37.2225 56.3335 43.7225C56.3335 50.2225 51.0555 55.5005 44.5555 55.5005C38.0555 55.5005 32.7775 50.2225 32.7775 43.7225ZM38.216 41.835C39.8384 40.27 42.0806 39.3057 44.554 39.3057C47.0289 39.3057 49.2711 40.2715 50.895 41.838C51.4795 42.4019 52.4114 42.3857 52.9768 41.7997C53.5406 41.2152 53.5244 40.2833 52.9385 39.718C50.7919 37.6465 47.8283 36.3612 44.554 36.3612C41.2812 36.3612 38.319 37.6451 36.1725 39.715C35.588 40.2789 35.5704 41.2123 36.1342 41.7968C36.6981 42.3827 37.6315 42.3989 38.216 41.835ZM41.2002 46.215C42.0733 45.3434 43.2776 44.8031 44.607 44.8031C45.9365 44.8031 47.1408 45.3419 48.0138 46.215C48.588 46.7892 49.5214 46.7892 50.0956 46.2135C50.6697 45.6393 50.6697 44.706 50.0956 44.1318C48.6896 42.7273 46.7492 41.8586 44.607 41.8586C42.4649 41.8586 40.5245 42.7272 39.1185 44.1332C38.5443 44.7074 38.5443 45.6408 39.1185 46.215C39.6927 46.7892 40.6261 46.7892 41.2002 46.215ZM44.1094 50.6671C44.2375 50.5434 44.4142 50.4698 44.607 50.4698C44.8014 50.4698 44.978 50.5434 45.1046 50.6671C45.6877 51.2339 46.6196 51.2206 47.1864 50.6376C47.7532 50.0561 47.74 49.1227 47.1584 48.5559C46.5047 47.9213 45.6037 47.5253 44.607 47.5253C43.6118 47.5253 42.7093 47.9213 42.0571 48.5559C41.4741 49.1227 41.4608 50.0561 42.0276 50.6376C42.5945 51.2206 43.5279 51.2339 44.1094 50.6671Z" fill="#742384"/>
</svg>
