<svg width="256" height="256" viewBox="0 0 256 256" fill="none" xmlns="http://www.w3.org/2000/svg">
<g clip-path="url(#clip0_536_9542)">
<g clip-path="url(#clip1_536_9542)">
<path d="M88.6294 214.998C39.8145 200.258 -2.92182 150.307 0.781242 98.9579C2.65894 72.9185 17.2179 36.2941 45.3483 26.5515C65.8718 19.4438 86.2552 29.1939 96.0416 33.8792C129.841 50.054 126.563 72.9189 151.643 81.2762C184.167 92.1101 206.635 59.3015 231.496 72.0207C249.75 81.3623 258.121 109.537 254.927 130.808C246.919 184.173 159.751 236.479 88.6294 214.998Z" fill="#F6E1F9"/>
</g>
<rect x="172.816" y="39.2585" width="193.161" height="101.444" rx="22.8883" transform="rotate(90 172.816 39.2585)" fill="#2C2044"/>
<rect x="167.258" y="53.155" width="160.504" height="90.327" rx="6.53951" transform="rotate(90 167.258 53.155)" fill="#742384"/>
<ellipse cx="122.441" cy="223.039" rx="5.21117" ry="5.21117" fill="#544A69"/>
<rect x="108.198" y="44.1223" width="28.4877" height="4.16893" rx="2.08447" fill="#403556"/>
<path fill-rule="evenodd" clip-rule="evenodd" d="M133.94 115.529L129.171 124.394C128.975 124.757 128.527 124.89 128.171 124.692C127.814 124.496 127.681 124.042 127.877 123.679L132.646 114.812C132.842 114.451 133.29 114.317 133.646 114.514C134.003 114.711 134.134 115.166 133.94 115.529ZM123.745 124.921C120.992 124.921 120.235 123.088 120.04 122.172C119.958 121.811 119.956 121.557 119.956 121.435C119.956 121.002 120.301 120.652 120.726 120.652C121.124 120.652 121.447 120.957 121.491 121.345C121.491 121.349 121.494 121.351 121.494 121.354C121.498 121.378 121.501 121.42 121.505 121.476C121.51 121.52 121.518 121.564 121.518 121.612C121.518 121.643 121.52 121.674 121.521 121.707C121.529 121.77 121.536 121.84 121.548 121.911C121.577 122.063 121.627 122.232 121.712 122.403C121.723 122.42 121.73 122.437 121.739 122.453C122 122.945 122.536 123.429 123.573 123.484C125.133 123.529 125.593 123 125.599 122.343C125.54 121.583 125.495 121.035 123.693 120.289C121.586 119.417 120.242 118.889 120.242 117.063C120.242 115.239 121.914 114.485 123.445 114.485C123.83 114.485 124.165 114.531 124.463 114.604C125.061 114.724 125.723 114.973 126.218 115.465V115.461C126.344 115.574 126.477 115.741 126.594 115.941C126.607 115.962 126.619 115.981 126.63 116.001C126.661 116.056 126.689 116.115 126.718 116.175C126.727 116.195 126.736 116.213 126.745 116.233C126.896 116.572 127.004 116.974 127.004 117.384C127.004 117.457 127.013 117.579 126.988 117.716C126.986 117.729 126.983 117.74 126.981 117.753C126.974 117.784 126.963 117.815 126.95 117.848C126.945 117.862 126.941 117.875 126.934 117.888C126.931 117.899 126.925 117.91 126.918 117.923C126.79 118.178 126.533 118.355 126.23 118.355C125.964 118.355 125.734 118.218 125.595 118.012C125.585 117.993 125.574 117.975 125.565 117.957C125.543 117.921 125.525 117.881 125.511 117.84C125.509 117.835 125.506 117.83 125.506 117.824C125.498 117.804 125.491 117.782 125.488 117.762C125.451 117.638 125.435 117.505 125.435 117.394C125.435 117.37 125.434 117.348 125.432 117.324C125.432 117.287 125.43 117.255 125.426 117.22C125.403 117.027 125.347 116.874 125.279 116.75C125.272 116.737 125.264 116.724 125.257 116.711C125.243 116.689 125.23 116.669 125.216 116.647C124.831 116.085 124.008 115.8 123.407 115.8C122.597 115.8 121.728 116.251 121.728 117.08C121.728 117.906 122.507 118.402 123.828 118.844C126.409 119.802 126.941 120.577 127.174 121.522C127.429 122.557 126.986 124.921 123.745 124.921ZM138.134 116.264C136.705 109.765 130.252 105.691 123.724 107.167C117.194 108.645 113.06 115.111 114.491 121.61C114.962 123.757 115.983 125.64 117.375 127.145C118.09 127.921 116.497 132.197 117.382 132.756C118.111 133.215 121.296 129.994 122.11 130.289C124.21 131.05 126.551 131.238 128.901 130.707C135.429 129.23 139.565 122.765 138.134 116.264Z" fill="#10CBB4"/>
<path fill-rule="evenodd" clip-rule="evenodd" d="M133.997 136.086C134.941 135.568 136.704 135.406 137.553 136.573C138.403 137.738 138.6 139.942 138.477 141.758C138.352 143.638 137.613 146.869 136.469 149.137C135.36 151.341 133.859 152.892 131.756 152.556C130.097 152.291 129.307 151.285 129.191 151.126L129.176 151.105C129.176 151.105 129.066 151.61 128.75 153.741C128.661 154.338 128.57 155.109 128.464 155.934C129.851 155.737 130.924 155.59 131.39 155.533C133.3 155.297 140.539 154.355 142.558 154.292C144.576 154.226 144.992 154.551 145.313 155.069C145.632 155.589 145.762 156.432 145.153 157.05C144.546 157.664 139.516 157.989 137.144 158.312C135.697 158.512 131.43 159.085 127.86 159.582C127.673 160.355 127.449 160.98 127.172 161.305C126.257 162.376 125.311 161.981 125.034 161.305C124.887 160.941 124.897 160.41 124.939 159.995C123.978 160.134 123.217 160.25 122.793 160.323C121.754 160.504 119.186 160.984 116.489 161.531L115.752 161.681C113.412 162.163 111.072 162.679 109.632 163.081C109.365 163.904 109.097 164.727 108.816 165.545C107.736 168.679 106.342 171.703 104.177 174.238C103.442 175.097 102.624 175.904 101.656 176.481C100.686 177.056 99.551 177.395 98.4335 177.271C96.8405 177.098 95.5553 175.927 95.1501 174.371C94.7301 172.761 95.2363 170.985 95.8495 169.476C96.507 167.85 97.4839 166.357 98.6714 165.074C99.5888 164.079 100.627 163.207 101.741 162.444C102.53 161.86 103.534 161.218 104.728 160.648C105.202 160.424 105.727 160.214 106.278 160.022C106.356 159.989 106.433 159.957 106.511 159.926C106.615 159.884 106.722 159.84 106.794 159.754C106.857 159.683 106.886 159.59 106.914 159.497C107.585 157.306 108.317 155.133 109.025 152.952C108.859 153.459 108.275 154.002 107.918 154.363C107.14 155.146 106.1 155.909 104.972 155.983C104.31 156.027 103.626 155.832 103.117 155.399C102.503 154.876 102.195 154.054 102.122 153.244C102.027 152.2 102.24 151.12 102.46 150.103C102.685 149.059 102.982 148.03 103.314 147.015C103.537 146.33 103.779 145.65 104.024 144.975C104.246 144.368 104.554 143.754 104.631 143.109C104.716 142.395 104.545 141.64 104.803 141.142C105.06 140.643 105.725 140.759 106.352 140.887C106.981 141.012 107.664 141.792 107.601 142.655C107.536 143.52 107.152 144.624 106.895 145.467C106.641 146.311 106.084 148.041 105.891 148.884C105.7 149.727 105.386 151.174 106.02 151.631C106.831 152.215 107.92 151.264 108.775 149.944C109.555 148.739 110.632 145.641 110.953 144.71C111.274 143.781 111.988 141.492 112.218 140.777C112.447 140.06 112.981 139.37 113.772 138.893C114.561 138.417 115.396 138.331 115.95 138.525C116.506 138.72 116.078 140.147 115.95 140.643L115.943 140.671C115.819 141.134 114.567 145.662 113.347 150.073L113.155 150.768C112.005 154.925 110.937 158.781 110.937 158.781C110.935 158.789 110.933 158.794 110.931 158.799C112.748 158.425 114.392 158.163 115.315 157.965L115.436 157.94C116.534 157.718 119.728 157.221 122.994 156.734L123.778 156.617C124.395 156.525 125.01 156.435 125.607 156.348C125.784 155.421 125.991 154.33 126.217 153.145C125.391 153.669 124.301 154.136 123.438 153.851C122.137 153.421 122.102 151.909 122.102 151.909C121.374 153.712 119.971 155.098 118.074 154.815C116.177 154.534 115.636 153.205 115.403 152.215C115.169 151.226 114.681 148.817 116.025 144.773C117.37 140.728 119.624 138.147 121.484 137.876C123.344 137.606 124.257 138.806 124.257 138.806L124.512 138.002C124.766 137.197 125.607 137.245 126.46 137.497C127.312 137.751 127.386 138.492 127.208 139.26C127.134 139.579 126.896 140.657 126.645 141.806L126.493 142.498C126.191 143.877 125.911 145.161 125.911 145.161C125.911 145.161 124.566 150.409 125.867 150.021C126.323 149.885 126.667 149.673 126.923 149.454C126.992 149.088 127.062 148.721 127.132 148.354L127.344 147.249C128.307 142.225 129.23 137.459 129.341 137.054C129.584 136.175 130.144 136.248 131.22 136.507C132.298 136.766 132.036 137.2 132.036 137.2L131.853 138.476C132.03 138.046 133.049 136.604 133.997 136.086ZM105.612 164.193C105.612 164.193 102.654 165.295 100.403 168.142C98.6083 170.412 97.781 172.725 98.4335 173.528C99.25 174.535 100.812 172.873 101.335 172.268C102.395 171.044 103.209 169.627 103.934 168.181C104.285 167.476 104.618 166.762 104.921 166.036C105.064 165.693 105.201 165.348 105.329 165.001C105.366 164.895 105.523 164.225 105.612 164.193ZM143.557 135.554C144.616 134.665 145.782 134.452 147.145 134.682C147.533 134.747 147.91 134.891 148.23 135.116C150.395 136.629 149.075 139.808 147.905 141.547C147.056 142.807 145.825 143.722 144.427 144.312C143.957 144.512 143.067 144.861 142.209 144.881C142.175 144.882 141.832 145.771 141.758 146.295C141.673 146.899 141.725 147.84 142.151 148.236C143.156 149.177 144.922 148.018 145.705 147.361C146.058 147.065 146.433 146.786 146.726 146.432C147.001 146.104 147.482 145.37 147.95 145.522C148.334 145.645 148.569 146.358 148.691 146.658C148.691 146.658 149.039 147.499 148.789 148.006C148.54 148.513 146.75 150.112 146.339 150.432C145.931 150.751 144.462 151.668 143.167 151.988C142.138 152.242 140.957 152.131 140.088 151.49C139.532 151.082 139.14 150.483 138.903 149.839C138.665 149.196 138.574 148.511 138.532 147.827C138.37 145.026 139.123 142.006 140.473 139.538C141.658 137.365 142.135 136.742 143.557 135.554ZM123.699 142.062C123.937 140.857 123.092 140.6 122.364 140.883C121.458 141.233 120.229 141.928 119.232 144.183C118.705 145.378 118.403 146.616 118.326 147.662C118.25 148.71 118.409 150.58 119.646 150.818C120.752 151.028 121.55 149.273 122.269 147.118C122.94 145.101 123.472 143.21 123.699 142.062ZM135.435 141.838C135.525 140.609 135.25 138.213 133.54 139.457C132.159 140.458 131.501 142.826 130.967 144.836C130.401 146.96 130.019 149.063 130.019 149.063C130.825 149.959 132.296 149.484 132.992 148.763C133.788 147.943 134.195 146.822 134.57 145.748C135.013 144.482 135.338 143.182 135.435 141.838ZM146.553 138.101C146.471 137.656 146.089 137.438 145.64 137.55C145.328 137.628 145.07 137.842 144.844 138.068C143.774 139.153 142.91 141.224 142.757 142.057C142.768 141.988 142.985 142.062 143.728 141.76C143.997 141.648 144.25 141.524 144.496 141.368C145.031 141.028 145.532 140.621 145.915 140.115C146.319 139.581 146.683 138.785 146.553 138.101Z" fill="white"/>
<g clip-path="url(#clip2_536_9542)">
<path fill-rule="evenodd" clip-rule="evenodd" d="M46.9759 54.5505C47.6576 56.1514 48.9332 57.4257 50.5301 58.108C52.5677 58.9779 55.4792 60.223 57.8016 61.2147C59.2209 61.8215 59.2184 63.8317 57.8016 64.4384L50.5301 67.5452C48.9307 68.2274 47.6576 69.5018 46.9759 71.1027C46.1068 73.1421 44.8629 76.0564 43.8721 78.3809C43.2659 79.8015 41.2576 79.8015 40.6514 78.3809C39.6606 76.0564 38.4166 73.1421 37.5476 71.1027C36.8659 69.5018 35.5903 68.2274 33.9934 67.5452C31.9558 66.6753 29.0442 65.4301 26.7218 64.4384C25.3026 63.8317 25.3026 61.8215 26.7218 61.2147C29.0442 60.223 31.9558 58.9779 33.9934 58.108C35.5927 57.4257 36.8659 56.1489 37.5476 54.5505C38.4166 52.511 39.6606 49.5968 40.6514 47.2722C41.2576 45.8516 43.2659 45.8516 43.8721 47.2722C44.8629 49.5968 46.1068 52.511 46.9759 54.5505V54.5505Z" fill="#F4C12A"/>
<path fill-rule="evenodd" clip-rule="evenodd" d="M8.46753 86.9294C8.72227 87.5277 9.19902 88.004 9.79586 88.259C10.5574 88.5841 11.6455 89.0494 12.5135 89.4201C13.0439 89.6468 13.043 90.3981 12.5135 90.6249L9.79586 91.786C9.19811 92.041 8.72227 92.5172 8.46753 93.1156C8.14272 93.8778 7.6778 94.9669 7.3075 95.8357C7.08096 96.3666 6.33036 96.3666 6.10381 95.8357C5.73351 94.9669 5.2686 93.8778 4.94379 93.1156C4.68904 92.5172 4.21229 92.041 3.61545 91.786C2.85393 91.4609 1.76579 90.9955 0.897819 90.6249C0.367394 90.3981 0.367394 89.6468 0.897819 89.4201C1.76579 89.0494 2.85393 88.5841 3.61545 88.259C4.2132 88.004 4.68904 87.5268 4.94379 86.9294C5.2686 86.1672 5.73351 85.078 6.10381 84.2092C6.33036 83.6783 7.08096 83.6783 7.3075 84.2092C7.6778 85.078 8.14272 86.1672 8.46753 86.9294V86.9294Z" fill="#F4C12A"/>
</g>
<g clip-path="url(#clip3_536_9542)">
<path fill-rule="evenodd" clip-rule="evenodd" d="M39.0927 172.687C39.549 173.758 40.4031 174.61 41.4724 175.067C42.8366 175.649 44.7861 176.482 46.341 177.145C47.2913 177.551 47.2897 178.895 46.341 179.301L41.4724 181.379C40.4015 181.836 39.549 182.688 39.0927 183.759C38.5108 185.123 37.6779 187.073 37.0145 188.628C36.6086 189.578 35.2639 189.578 34.858 188.628C34.1947 187.073 33.3618 185.123 32.7799 183.759C32.3235 182.688 31.4694 181.836 30.4001 181.379C29.0359 180.798 27.0865 179.965 25.5315 179.301C24.5812 178.895 24.5812 177.551 25.5315 177.145C27.0865 176.482 29.0359 175.649 30.4001 175.067C31.471 174.61 32.3235 173.756 32.7799 172.687C33.3618 171.323 34.1947 169.374 34.858 167.819C35.2639 166.868 36.6086 166.868 37.0145 167.819C37.6779 169.374 38.5108 171.323 39.0927 172.687V172.687Z" fill="#F4C12A"/>
</g>
<g clip-path="url(#clip4_536_9542)">
<path fill-rule="evenodd" clip-rule="evenodd" d="M217.671 105.627C217.927 106.229 218.408 106.709 219.009 106.965C219.777 107.293 220.873 107.761 221.748 108.134C222.283 108.363 222.282 109.119 221.748 109.347L219.009 110.516C218.407 110.773 217.927 111.252 217.671 111.855C217.343 112.622 216.875 113.719 216.502 114.593C216.273 115.128 215.517 115.128 215.289 114.593C214.916 113.719 214.447 112.622 214.12 111.855C213.863 111.252 213.383 110.773 212.781 110.516C212.014 110.189 210.917 109.72 210.043 109.347C209.508 109.119 209.508 108.363 210.043 108.134C210.917 107.761 212.014 107.293 212.781 106.965C213.384 106.709 213.863 106.228 214.12 105.627C214.447 104.859 214.916 103.763 215.289 102.888C215.517 102.354 216.273 102.354 216.502 102.888C216.875 103.763 217.343 104.859 217.671 105.627V105.627Z" fill="#F4C12A"/>
</g>
<g clip-path="url(#clip5_536_9542)">
<path fill-rule="evenodd" clip-rule="evenodd" d="M213.588 178.946C214.158 180.285 215.226 181.35 216.562 181.921C218.268 182.648 220.704 183.689 222.648 184.518C223.836 185.026 223.834 186.707 222.648 187.214L216.562 189.812C215.224 190.382 214.158 191.448 213.588 192.786C212.86 194.491 211.819 196.928 210.99 198.872C210.483 200.06 208.802 200.06 208.294 198.872C207.465 196.928 206.424 194.491 205.697 192.786C205.126 191.448 204.058 190.382 202.722 189.812C201.017 189.084 198.58 188.043 196.636 187.214C195.448 186.707 195.448 185.026 196.636 184.518C198.58 183.689 201.017 182.648 202.722 181.921C204.061 181.35 205.126 180.283 205.697 178.946C206.424 177.241 207.465 174.804 208.294 172.861C208.802 171.673 210.483 171.673 210.99 172.861C211.819 174.804 212.86 177.241 213.588 178.946V178.946Z" fill="#F4C12A"/>
</g>
<path d="M109.587 45.777C109.587 36.8046 116.861 29.531 125.833 29.531H219.699C228.671 29.531 235.945 36.8046 235.945 45.777V70.1459C235.945 79.1183 228.671 86.3919 219.699 86.3919H157.066L137.332 102.487V86.3919H125.833C116.861 86.3919 109.587 79.1183 109.587 70.1459V45.777Z" fill="#C2FFF7"/>
<path fill-rule="evenodd" clip-rule="evenodd" d="M130.92 48.9861C129.875 48.9861 129.028 49.8328 129.028 50.8773V53.2328L127.367 51.5711C126.628 50.8325 125.431 50.8325 124.692 51.5711C123.954 52.3096 123.954 53.5071 124.692 54.2456L126.367 55.9205H123.985C122.941 55.9205 122.094 56.7672 122.094 57.8117C122.094 58.8562 122.941 59.7029 123.985 59.7029H126.367L124.692 61.3779C123.954 62.1164 123.954 63.3139 124.692 64.0525C125.431 64.791 126.628 64.791 127.367 64.0525L129.028 62.3907V64.7461C129.028 65.7906 129.875 66.6373 130.92 66.6373C131.964 66.6373 132.811 65.7906 132.811 64.7461V62.3643L134.499 64.0524C135.237 64.791 136.435 64.791 137.174 64.0524C137.912 63.3138 137.912 62.1164 137.174 61.3778L135.499 59.7029H137.854C138.899 59.7029 139.745 58.8562 139.745 57.8117C139.745 56.7672 138.899 55.9205 137.854 55.9205H135.499L137.173 54.2457C137.912 53.5071 137.912 52.3097 137.173 51.5711C136.435 50.8326 135.237 50.8326 134.499 51.5711L132.811 53.2592V50.8773C132.811 49.8328 131.964 48.9861 130.92 48.9861Z" fill="#10CBB4"/>
<path fill-rule="evenodd" clip-rule="evenodd" d="M158.993 48.9861C157.949 48.9861 157.102 49.8328 157.102 50.8773V53.2328L155.44 51.5711C154.702 50.8325 153.504 50.8325 152.766 51.5711C152.027 52.3096 152.027 53.5071 152.766 54.2456L154.441 55.9205H152.059C151.014 55.9205 150.168 56.7672 150.168 57.8117C150.168 58.8562 151.014 59.7029 152.059 59.7029H154.441L152.766 61.3779C152.027 62.1164 152.027 63.3139 152.766 64.0525C153.504 64.791 154.702 64.791 155.44 64.0525L157.102 62.3907V64.7461C157.102 65.7906 157.949 66.6373 158.993 66.6373C160.038 66.6373 160.884 65.7906 160.884 64.7461V62.3643L162.573 64.0524C163.311 64.791 164.509 64.791 165.247 64.0524C165.986 63.3138 165.986 62.1164 165.247 61.3778L163.572 59.7029H165.928C166.972 59.7029 167.819 58.8562 167.819 57.8117C167.819 56.7672 166.972 55.9205 165.928 55.9205H163.572L165.247 54.2457C165.986 53.5071 165.986 52.3097 165.247 51.5711C164.509 50.8326 163.311 50.8326 162.573 51.5711L160.884 53.2592V50.8773C160.884 49.8328 160.038 48.9861 158.993 48.9861Z" fill="#10CBB4"/>
<path fill-rule="evenodd" clip-rule="evenodd" d="M187.067 48.9861C186.022 48.9861 185.176 49.8328 185.176 50.8773V53.2328L183.514 51.5711C182.776 50.8325 181.578 50.8325 180.839 51.5711C180.101 52.3096 180.101 53.5071 180.839 54.2456L182.514 55.9205H180.133C179.088 55.9205 178.241 56.7672 178.241 57.8117C178.241 58.8562 179.088 59.7029 180.133 59.7029H182.514L180.839 61.3779C180.101 62.1164 180.101 63.3139 180.839 64.0525C181.578 64.791 182.775 64.791 183.514 64.0525L185.176 62.3907V64.7461C185.176 65.7906 186.022 66.6373 187.067 66.6373C188.111 66.6373 188.958 65.7906 188.958 64.7461V62.3643L190.646 64.0524C191.385 64.791 192.582 64.791 193.321 64.0524C194.059 63.3138 194.059 62.1164 193.321 61.3778L191.646 59.7029H194.001C195.046 59.7029 195.893 58.8562 195.893 57.8117C195.893 56.7672 195.046 55.9205 194.001 55.9205H191.646L193.321 54.2457C194.059 53.5071 194.059 52.3097 193.321 51.5711C192.582 50.8326 191.385 50.8326 190.646 51.5711L188.958 53.2592V50.8773C188.958 49.8328 188.111 48.9861 187.067 48.9861Z" fill="#10CBB4"/>
<path fill-rule="evenodd" clip-rule="evenodd" d="M215.141 48.9861C214.096 48.9861 213.249 49.8328 213.249 50.8773V53.2328L211.588 51.5711C210.849 50.8325 209.652 50.8325 208.913 51.5711C208.175 52.3096 208.175 53.5071 208.913 54.2456L210.588 55.9205H208.206C207.162 55.9205 206.315 56.7672 206.315 57.8117C206.315 58.8562 207.162 59.7029 208.206 59.7029H210.588L208.913 61.3779C208.175 62.1164 208.175 63.3139 208.913 64.0525C209.652 64.791 210.849 64.791 211.588 64.0525L213.249 62.3907V64.7461C213.249 65.7906 214.096 66.6373 215.141 66.6373C216.185 66.6373 217.032 65.7906 217.032 64.7461V62.3643L218.72 64.0524C219.458 64.791 220.656 64.791 221.394 64.0524C222.133 63.3138 222.133 62.1164 221.394 61.3778L219.72 59.7029H222.075C223.119 59.7029 223.966 58.8562 223.966 57.8117C223.966 56.7672 223.119 55.9205 222.075 55.9205H219.72L221.394 54.2457C222.133 53.5071 222.133 52.3097 221.394 51.5711C220.656 50.8326 219.458 50.8326 218.72 51.5711L217.032 53.2592V50.8773C217.032 49.8328 216.185 48.9861 215.141 48.9861Z" fill="#10CBB4"/>
</g>
<defs>
<clipPath id="clip0_536_9542">
<rect width="255" height="255" fill="white" transform="translate(0.5 0.597412)"/>
</clipPath>
<clipPath id="clip1_536_9542">
<rect width="255.879" height="179.401" fill="white" transform="matrix(0.966582 0.256357 0.256357 -0.966582 -23.8705 185.228)"/>
</clipPath>
<clipPath id="clip2_536_9542">
<rect width="58.3651" height="50.0272" fill="white" transform="translate(0.5 46.2068)"/>
</clipPath>
<clipPath id="clip3_536_9542">
<rect width="22.2343" height="22.2343" fill="white" transform="translate(24.8188 167.106)"/>
</clipPath>
<clipPath id="clip4_536_9542">
<rect width="12.5068" height="12.5068" fill="white" transform="translate(209.642 102.487)"/>
</clipPath>
<clipPath id="clip5_536_9542">
<rect width="27.7929" height="27.7929" fill="white" transform="translate(195.745 171.97)"/>
</clipPath>
</defs>
</svg>
