<svg width="28" height="28" viewBox="0 0 28 28" fill="none" xmlns="http://www.w3.org/2000/svg">
<rect width="28" height="28" rx="14" fill="#10CBB4"/>
<path d="M12.0586 17.5029H12.1885C12.7354 17.5029 13.2048 17.4368 13.5967 17.3047C13.9932 17.168 14.319 16.972 14.5742 16.7168C14.8294 16.4616 15.0186 16.1494 15.1416 15.7803C15.2646 15.4066 15.3262 14.9827 15.3262 14.5088V12.6221C15.3262 12.262 15.2897 11.9453 15.2168 11.6719C15.1484 11.3984 15.0482 11.1729 14.916 10.9951C14.7884 10.8128 14.638 10.6761 14.4648 10.585C14.2962 10.4938 14.1094 10.4482 13.9043 10.4482C13.6855 10.4482 13.4919 10.5029 13.3232 10.6123C13.1546 10.7171 13.0111 10.8607 12.8926 11.043C12.7786 11.2253 12.6898 11.4349 12.626 11.6719C12.5667 11.9043 12.5371 12.1481 12.5371 12.4033C12.5371 12.6585 12.5667 12.9023 12.626 13.1348C12.6852 13.3626 12.7741 13.5654 12.8926 13.7432C13.0111 13.9163 13.1592 14.0553 13.3369 14.1602C13.5146 14.2604 13.7243 14.3105 13.9658 14.3105C14.1982 14.3105 14.4056 14.2673 14.5879 14.1807C14.7747 14.0895 14.932 13.971 15.0596 13.8252C15.1917 13.6794 15.292 13.5176 15.3604 13.3398C15.4333 13.1621 15.4697 12.9821 15.4697 12.7998L16.1191 13.1553C16.1191 13.4743 16.0508 13.7887 15.9141 14.0986C15.7773 14.4085 15.5859 14.6911 15.3398 14.9463C15.0983 15.1969 14.818 15.3975 14.499 15.5479C14.18 15.6982 13.8382 15.7734 13.4736 15.7734C13.0088 15.7734 12.5964 15.6891 12.2363 15.5205C11.8763 15.3473 11.571 15.1104 11.3203 14.8096C11.0742 14.5042 10.8874 14.1488 10.7598 13.7432C10.6322 13.3376 10.5684 12.8978 10.5684 12.4238C10.5684 11.9408 10.6458 11.4873 10.8008 11.0635C10.9603 10.6396 11.1859 10.266 11.4775 9.94238C11.7738 9.61882 12.127 9.36589 12.5371 9.18359C12.9518 8.99674 13.4121 8.90332 13.918 8.90332C14.4238 8.90332 14.8841 9.0013 15.2988 9.19727C15.7135 9.39323 16.069 9.67122 16.3652 10.0312C16.6615 10.3867 16.8893 10.8128 17.0488 11.3096C17.2129 11.8063 17.2949 12.3577 17.2949 12.9639V13.6475C17.2949 14.2946 17.2243 14.8962 17.083 15.4521C16.9463 16.0081 16.7389 16.5117 16.4609 16.9629C16.1875 17.4095 15.8457 17.7923 15.4355 18.1113C15.0299 18.4303 14.5583 18.6742 14.0205 18.8428C13.4827 19.0114 12.8812 19.0957 12.2158 19.0957H12.0586V17.5029Z" fill="white"/>
</svg>
