<svg width="325" height="315" viewBox="0 0 325 315" fill="none" xmlns="http://www.w3.org/2000/svg">
<g clip-path="url(#clip0_770_6472)">
<path d="M229.624 193.428L224.654 195.787L217.446 199.209L213.32 201.169L198.001 208.445L193.557 210.556L189.822 212.329L188.468 208.445L186.352 202.379L186.131 201.746L185.93 201.169L184.963 198.396L184.564 201.169L183.519 208.445L180.705 228.035L179.659 235.311L174.979 267.873H64.4796L63.4702 235.311L63.2463 228.035L62.6393 208.445L62.4154 201.169L62.331 198.432L62.2369 195.437L61.9642 195.824L61.3638 196.676L58.2025 201.169L53.0808 208.445L50.7796 211.713C47.5112 216.354 43.0354 219.651 38.0727 221.447C35.7553 222.289 33.3275 222.804 30.8673 222.974C30.2538 223.017 29.6404 223.04 29.0237 223.04C24.2461 223.04 19.4165 221.745 15.0705 219.045C10.77 216.37 7.48532 212.667 5.33667 208.445C4.16498 206.148 3.33084 203.693 2.85372 201.169C1.62361 194.68 2.74012 187.718 6.5246 181.688L6.59276 181.58L11.1627 174.304L23.4671 154.711L28.037 147.435L30.8673 142.928L38.0727 131.457L40.3414 127.845L44.9114 120.569L51.5358 110.019C53.0451 107.616 54.8075 105.437 56.7744 103.503C58.3777 101.927 60.1142 100.511 61.9642 99.2784C63.7299 98.0952 65.5929 97.0726 67.5371 96.2271C68.0759 95.9911 68.6211 95.7715 69.1696 95.565C74.5056 93.5461 80.3478 92.8086 86.2258 93.569L93.0612 94.4539L94.155 94.5949L95.424 94.762L100.267 95.388L104.47 95.9321L106.755 96.2271L111.549 96.8465L111.672 96.2271L118.614 61.0759L124.158 62.1936L131.364 63.6422L155.255 68.4536L157.014 68.8075L155.255 77.7125L151.597 96.2271L150.481 101.884L155.255 102.503L156.55 102.671L162.461 103.434L162.727 103.47L162.983 103.503L164.181 103.657L184.21 106.246L186.303 106.518C186.32 106.522 186.336 106.522 186.352 106.525C188.936 106.866 191.376 107.718 193.557 108.993C197.407 111.231 200.451 114.781 202.064 119.127L202.6 120.569L205.297 127.845L212.564 147.435L215.261 154.711L217.446 160.597L222.532 174.304L224.654 180.029L225.229 181.58L229.624 193.428Z" fill="#742384"/>
<path d="M83.4052 153.682C83.2397 154.039 69.5364 183.159 62.331 198.433L62.2369 195.437L61.9642 195.824L61.3638 196.676C68.6828 181.16 81.7759 153.328 81.9414 152.98C82.1329 152.571 82.6165 152.397 83.0223 152.59C83.4247 152.784 83.5967 153.272 83.4052 153.682Z" fill="#5E186C"/>
<path d="M193.463 223.24L189.857 209.169L228.066 189.223L235.359 209.874L193.463 223.24Z" fill="#FCDABA"/>
<path d="M150.481 101.884L156.55 102.671L130.958 123.673L104.47 95.9321L111.549 96.8465L118.614 61.0759L124.242 62.2099L157.014 68.8075L150.682 100.875L150.481 101.884Z" fill="#FCDABA"/>
<path d="M157.014 68.8076L150.682 100.875L121.191 78.6466L124.242 62.21L157.014 68.8076Z" fill="#FBCCA1"/>
<path d="M191.256 171.636L186.576 198.59L186.131 201.746L185.93 201.169L184.963 198.396L184.973 198.331L189.656 171.351C191.769 159.204 192.077 146.841 190.578 134.607C190.523 134.158 190.841 133.748 191.285 133.692C191.724 133.636 192.136 133.954 192.191 134.403C193.707 146.802 193.395 159.329 191.256 171.636Z" fill="#5E186C"/>
<path d="M95.4077 94.7588L115.213 135.308L130.958 123.673L104.47 95.9321L95.4077 94.7588Z" fill="#8B3D99"/>
<path d="M156.55 102.671L130.958 123.673L148.072 136.376L162.529 103.444L156.55 102.671Z" fill="#8B3D99"/>
<path d="M54.3303 172.878C51.6818 171.675 48.6828 170.476 45.3495 169.391C45.3105 169.378 45.2748 169.368 45.2359 169.355C35.898 166.329 25.7163 167.162 17.0211 171.741C16.2194 172.163 15.4145 172.619 14.6031 173.114C13.5158 173.776 12.4934 174.464 11.5391 175.166C1.2146 182.717 -2.84901 196.45 2.09742 208.314C3.64886 212.034 5.95979 215.308 8.96206 217.862C15.1711 223.145 22.4576 223.748 25.5345 223.81C35.1353 206.836 44.7328 189.859 54.3336 172.884L54.3303 172.878Z" fill="#8B3D99"/>
<path d="M233.642 194.676L188.056 218.307L184.489 207.698L229.676 184.883L233.642 194.676Z" fill="#8B3D99"/>
<path d="M182.48 245.245C182.353 225.21 182.181 205.181 181.961 185.149C181.831 173.304 181.685 160.679 181.519 148.831C154.687 148.572 127.855 149.09 101.026 148.831C95.9239 160.161 90.8834 172.629 86.1933 186.201C80.2375 203.447 75.8006 219.743 72.4673 234.688C71.7468 237.92 69.3547 240.525 66.2031 241.436C66.1837 241.443 66.1609 241.45 66.1415 241.453C63.9506 242.082 61.961 242.407 60.296 242.574L61.8344 255.916C59.6598 264.1 57.3976 272.369 55.0445 280.717C51.7988 292.231 48.4882 303.529 45.1191 314.6H193.463L182.48 245.245Z" fill="#F4C12A"/>
<path d="M160.935 244.675C160.916 244.675 160.896 244.675 160.877 244.675C157.326 244.36 153.72 244.147 150.159 244.042C143.691 243.852 137.138 244.016 130.676 244.524C130.328 244.547 130.026 244.301 129.981 243.957C129.936 243.613 130.163 243.291 130.5 243.226C135.943 242.164 141.536 241.312 147.121 240.689C149.536 240.42 151.785 240.198 153.795 240.011C150.432 239.88 147.069 239.807 143.726 239.788C132.513 239.735 121.156 240.325 109.987 241.548C109.627 241.587 109.312 241.328 109.273 240.968C109.234 240.607 109.491 240.286 109.848 240.247C121.065 239.018 132.474 238.424 143.733 238.477C150.325 238.51 156.998 238.765 163.571 239.237C163.911 239.26 164.184 239.549 164.184 239.893C164.184 240.506 163.597 240.551 163.314 240.571C163.136 240.584 162.873 240.604 162.529 240.627C160.351 240.778 154.561 241.177 147.267 241.99C145.43 242.194 143.593 242.423 141.763 242.679C144.58 242.629 147.401 242.646 150.202 242.728C153.788 242.833 157.42 243.046 160.997 243.364C161.354 243.396 161.617 243.714 161.587 244.075C161.558 244.416 161.276 244.675 160.942 244.675H160.935Z" fill="#DBAD25"/>
<path d="M104.57 148.831H101.023L94.155 94.595L95.4241 94.7621L104.57 148.831Z" fill="#F4C12A"/>
<path d="M181.568 148.831H178.02L162.727 103.47L164.181 103.657L181.568 148.831Z" fill="#DBAD25"/>
<path d="M162.353 8.53125L145.102 5.0571C135.434 3.11027 126.034 9.44567 124.103 19.2093L120.03 39.8346L115.872 38.9956C111.555 38.127 107.358 40.9555 106.498 45.3146C105.638 49.6736 108.439 53.9114 112.756 54.78L116.914 55.6157L115.807 61.217C113.704 71.8688 120.549 82.2257 131.097 84.3495L145.164 87.1813C155.713 89.3051 165.966 82.3929 168.072 71.741L176.368 29.7301C178.296 19.9664 172.022 10.4748 162.353 8.52797V8.53125Z" fill="#FCDABA"/>
<path d="M111.85 50.0833C111.669 50.0833 111.493 49.9784 111.409 49.8014C111.295 49.5556 111.399 49.2639 111.643 49.1459L115.615 47.2515L112.665 43.9642C112.483 43.7643 112.5 43.4529 112.698 43.2694C112.896 43.0858 113.204 43.1022 113.386 43.3021L116.777 47.0811C116.881 47.1958 116.923 47.3531 116.894 47.5072C116.865 47.6612 116.764 47.789 116.625 47.8546L112.058 50.0308C111.99 50.0636 111.922 50.0767 111.85 50.0767V50.0833Z" fill="#DCAC82"/>
<path d="M136.011 49.3557C133.678 48.8871 131.562 49.6278 131.289 51.0109C131.016 52.394 132.688 53.8984 135.021 54.367C137.355 54.8357 139.471 54.095 139.744 52.7119C140.017 51.3288 138.345 49.8244 136.011 49.3557Z" fill="#FBCCA1"/>
<path d="M165.93 55.3798C163.596 54.9111 161.48 55.6485 161.208 57.0349C160.935 58.418 162.606 59.9224 164.94 60.391C167.274 60.8597 169.39 60.119 169.663 58.7359C169.935 57.3528 168.264 55.8484 165.93 55.3798Z" fill="#FBCCA1"/>
<path d="M138.731 59.7485C138.718 59.9583 138.712 60.1681 138.712 60.3811C138.712 65.9659 143.194 70.4954 148.725 70.4954C151.766 70.4954 154.489 69.1255 156.326 66.9656L138.731 59.7485Z" fill="white"/>
<path d="M189.283 24.5778C189.283 24.5549 189.276 24.5352 189.276 24.5123C189.049 22.6605 187.624 21.1922 185.797 20.9201C183.281 20.5465 179.981 19.678 178.984 17.6689C180.552 17.9999 182.298 17.8196 183.687 17.541C185.118 17.2559 186.005 15.8007 185.615 14.3815C185.31 13.2606 184.284 12.4871 183.135 12.5265C172.941 12.8542 166.54 5.11933 162.025 3.31015C157.235 1.38954 141.951 -4.4444 125.3 6.30578C108.65 17.056 115.872 38.9955 115.872 38.9955L116.264 39.0742C116.729 39.3528 117.387 39.828 117.985 40.5917C118.919 41.7847 119.189 43.017 119.28 43.6364C121.156 43.9806 123.035 44.3247 124.911 44.6689C126.534 42.9875 128.877 40.1426 130.597 36.0359C132.697 31.0279 132.86 26.5541 132.765 24.0436C132.765 24.0436 135.109 25.7118 135.57 26.0265C138.225 27.8324 141.918 27.8684 143.246 27.8815C150.698 27.9569 152.399 23.8043 157.997 24.0436C163.077 24.2599 164.041 27.7767 169.477 29.8775C173.109 31.2803 178.559 31.985 186.615 28.9795C188.406 28.3109 189.513 26.4919 189.279 24.5778H189.283Z" fill="#2C2044"/>
<path d="M140.822 42.4074C139.89 42.2206 138.984 42.8302 138.799 43.7709L138.257 46.5076C138.072 47.4482 138.676 48.3626 139.608 48.5495C140.539 48.7363 141.445 48.1267 141.63 47.186L142.172 44.4493C142.357 43.5087 141.753 42.5943 140.822 42.4074Z" fill="black"/>
<path d="M163.551 46.9861C162.62 46.7992 161.714 47.4088 161.529 48.3495L160.987 51.0862C160.802 52.0268 161.406 52.9413 162.337 53.1281C163.269 53.3149 164.174 52.7053 164.359 51.7646L164.901 49.0279C165.086 48.0873 164.483 47.1729 163.551 46.9861Z" fill="black"/>
<path d="M187.9 147.785C187.9 150.004 186.144 151.817 183.944 151.866L161.987 152.335C162.681 153.311 163.798 155.17 164.22 157.759C164.573 159.906 164.32 161.784 163.954 163.183C163.463 165.051 163.308 166.992 163.418 168.922C163.652 172.986 163.885 177.053 164.119 181.118C164.366 185.411 161.643 189.305 157.556 190.504L119.65 201.628C111.727 203.568 103.801 205.512 95.8785 207.452C74.5413 212.683 53.2041 217.911 31.8637 223.142C26.161 224.541 20.1111 223.768 15.0348 220.798C14.8303 220.677 14.6226 220.556 14.4181 220.428C14.3597 220.388 14.298 220.352 14.2396 220.313C6.89138 215.669 3.77227 206.466 6.62848 198.203C7.88456 194.565 9.8125 190.501 12.7823 186.47C12.9673 186.217 13.1523 185.971 13.3406 185.726C19.8839 177.217 30.0234 172.317 40.692 172.206C64.814 171.96 88.9327 171.711 113.055 171.465C120.955 163.747 128.858 156.032 136.761 148.313C138.728 146.392 141.328 145.275 144.061 145.173L183.71 143.705C183.762 143.702 183.811 143.702 183.863 143.702C186.086 143.702 187.9 145.524 187.9 147.785Z" fill="#FCDABA"/>
<path d="M309.406 156.471V166.038L301.519 169.109L285.206 175.461L235.248 234.105C230.308 239.903 223.681 242.571 217.137 242.571C206.452 242.571 195.995 235.458 193.46 223.237L263.762 145.206L265.829 129.697L271.798 124.381L281.155 132.365L309.406 156.471Z" fill="#FCDABA"/>
<path d="M309.406 156.471V166.038L301.519 169.109H283.272C281.175 169.109 279.471 167.388 279.471 165.271V160.935L269.552 131.686L281.155 132.365L309.406 156.471Z" fill="#DCAC82"/>
<g clip-path="url(#clip1_770_6472)">
<path d="M314.271 172.903V101.434C314.271 99.8293 312.982 98.5281 311.392 98.5281H280.115C278.525 98.5281 277.237 99.8293 277.237 101.434V172.903C277.237 174.508 278.525 175.809 280.115 175.809H311.392C312.982 175.809 314.271 174.508 314.271 172.903Z" fill="#403556"/>
<path d="M314.271 170.662V99.1931C314.271 97.588 312.982 96.2869 311.392 96.2869H280.115C278.525 96.2869 277.237 97.588 277.237 99.1931V170.662C277.237 172.267 278.525 173.568 280.115 173.568H311.392C312.982 173.568 314.271 172.267 314.271 170.662Z" fill="#2C2044"/>
<path d="M312.473 167.464V102.391C312.473 101.594 311.833 100.949 311.045 100.949H280.455C279.667 100.949 279.027 101.594 279.027 102.391V167.464C279.027 168.26 279.667 168.906 280.455 168.906H311.045C311.833 168.906 312.473 168.26 312.473 167.464Z" fill="#742384"/>
<path d="M292.02 99.4622H299.479C299.912 99.4622 300.263 99.1076 300.263 98.6702V98.5731C300.263 98.1357 299.912 97.7812 299.479 97.7812H292.02C291.587 97.7812 291.236 98.1357 291.236 98.5731V98.6702C291.236 99.1076 291.587 99.4622 292.02 99.4622Z" fill="#544A69"/>
<path d="M304.758 140.718C302.553 140.759 300.05 141.001 297.736 141.297C297.995 140.351 298.253 139.418 298.253 139.418C298.253 139.418 298.518 139.997 299.265 139.938C300.325 139.855 301.616 138.805 302.241 136.883C302.905 134.841 302.846 132.521 301.491 132.327C300.395 132.169 299.873 133.153 299.797 133.349C299.797 133.349 300.03 132.455 299.334 132.611C298.668 132.761 298.546 133.063 298.381 133.602C298.352 133.697 297.791 135.819 297.203 138.056C297.194 138.07 297.186 138.087 297.181 138.106C297.036 138.611 296.748 138.781 296.541 138.794C295.869 138.838 297.313 134.333 297.423 133.991C297.567 133.541 297.654 133.199 297.164 133.011C296.834 132.884 296.381 132.93 296.248 133.291C296.192 133.442 296.151 133.553 296.151 133.553C296.151 133.553 295.774 132.983 294.94 133.061C294.105 133.138 293.051 134.17 292.353 135.982C291.656 137.793 291.353 140.391 293.007 140.65C293.847 140.781 294.552 140.293 294.921 139.489C294.921 139.489 294.856 140.028 295.409 140.291C295.627 140.395 296.167 140.355 296.676 140.063C296.542 140.573 296.416 141.057 296.303 141.488C292.731 141.99 289.92 142.551 289.92 142.551C289.92 142.548 291.878 135.822 292.319 134.342C292.688 133.102 291.992 133.372 291.478 133.524C290.93 133.685 290.67 134.155 290.396 135.007C289.197 138.729 288.253 139.887 287.568 139.638C286.94 139.408 288.915 135.456 288.441 134.934C288.031 134.482 287.184 134.506 287.023 134.773C286.862 135.04 287.102 135.283 286.999 135.661C286.896 136.038 286.105 138.081 286.022 138.539C285.938 138.996 285.252 141.532 287.068 141.422C288.141 141.358 288.876 140.533 288.954 140.303C288.619 141.289 288.14 142.879 288.14 142.879C288.14 142.879 285.943 143.437 284.192 145.299C282.802 146.777 281.819 149.961 283.895 150.469C287.123 151.257 288.649 146.251 289.431 144.368C292.048 143.776 294.043 143.383 295.889 143.09C295.862 143.2 295.843 143.274 295.837 143.305C295.669 144.089 295.706 144.403 296.309 144.327C296.958 144.245 297.039 143.907 297.252 143.087C297.266 143.031 297.285 142.961 297.306 142.881C299.493 142.581 301.64 142.393 304.595 142.143C305.514 142.065 305.504 141.909 305.593 141.352C305.695 140.72 304.976 140.715 304.758 140.718ZM299.125 136.398C299.566 134.932 299.972 134.345 300.354 134.179C301.264 133.783 301.436 134.943 300.734 136.705C299.921 138.744 298.972 138.697 298.608 138.295C298.608 138.295 298.658 137.947 299.125 136.398ZM295.061 137.283C294.671 138.241 294.305 138.914 293.802 138.918C293.082 138.923 293.1 137.822 293.613 136.437C294.045 135.272 294.831 134.538 295.256 134.455C295.681 134.372 296.175 134.553 295.061 137.283ZM285.525 148.423C283.809 149.979 284.242 147.847 284.88 146.927C286.091 145.179 287.587 144.737 287.587 144.737C286.827 146.996 285.877 148.103 285.525 148.423Z" fill="white"/>
<path d="M307.04 135.083C307.688 134.32 307.984 132.695 306.897 132.097C305.581 131.374 303.864 132.478 303.155 134.858C302.525 136.974 302.289 139.577 304.427 139.48C305.481 139.433 306.39 138.663 306.719 138.091C306.878 137.813 306.942 137.376 306.914 137.182C306.836 136.637 306.508 136.558 305.952 137.273C305.814 137.431 304.717 138.423 304.18 137.834C303.792 137.408 304.118 136.572 304.133 136.571C304.836 136.519 306.065 136.231 307.04 135.083ZM305.467 133.236C306.057 132.675 306.622 133.346 305.939 134.311C305.25 135.285 304.443 135.26 304.436 135.291C304.519 134.91 304.823 133.848 305.467 133.236Z" fill="white"/>
<path d="M295.405 126.68C295.277 126.596 295.084 126.554 294.828 126.554H294.062V127.632H294.853C295.35 127.632 295.599 127.45 295.599 127.086C295.599 126.899 295.534 126.764 295.405 126.68Z" fill="#10CBB4"/>
<path d="M295.814 121.664C293.501 121.772 291.613 123.66 291.471 126.008C291.376 127.598 292.068 129.027 293.189 129.933C293.305 130.026 293.372 130.167 293.372 130.317V131.341C293.372 131.419 293.415 131.492 293.484 131.528L293.512 131.543C293.578 131.578 293.657 131.572 293.717 131.528L294.582 130.895C294.695 130.812 294.838 130.783 294.973 130.816C295.313 130.898 295.666 130.942 296.03 130.942C298.552 130.942 300.597 128.864 300.597 126.3C300.597 123.664 298.435 121.541 295.814 121.664ZM296.189 127.698C296.084 127.863 295.944 127.985 295.767 128.065C295.657 128.112 295.529 128.145 295.386 128.164C295.242 128.183 295.074 128.193 294.883 128.193H293.773C293.613 128.193 293.499 128.157 293.429 128.083C293.361 128.01 293.327 127.894 293.327 127.734V124.96C293.327 124.797 293.362 124.68 293.432 124.608C293.502 124.537 293.616 124.501 293.772 124.501H294.949C295.122 124.501 295.273 124.512 295.4 124.534C295.527 124.556 295.641 124.598 295.742 124.66C295.827 124.712 295.903 124.778 295.97 124.858C296.036 124.937 296.086 125.026 296.121 125.122C296.155 125.219 296.172 125.32 296.172 125.428C296.172 125.797 295.991 126.067 295.627 126.239C296.105 126.393 296.343 126.694 296.343 127.14C296.344 127.347 296.293 127.532 296.189 127.698ZM298.773 127.844C298.682 127.979 298.548 128.082 298.37 128.151C298.192 128.221 297.976 128.256 297.722 128.256C297.479 128.256 297.271 128.218 297.097 128.143C296.924 128.067 296.796 127.973 296.713 127.86C296.631 127.747 296.59 127.633 296.59 127.519C296.59 127.443 296.616 127.378 296.669 127.324C296.722 127.271 296.788 127.244 296.869 127.244C296.94 127.244 296.995 127.262 297.033 127.297C297.071 127.332 297.107 127.381 297.142 127.445C297.212 127.568 297.294 127.659 297.391 127.72C297.487 127.78 297.619 127.811 297.786 127.811C297.922 127.811 298.032 127.78 298.119 127.719C298.206 127.658 298.249 127.588 298.249 127.508C298.249 127.387 298.204 127.299 298.114 127.244C298.024 127.188 297.876 127.136 297.669 127.086C297.437 127.027 297.247 126.965 297.101 126.9C296.955 126.836 296.838 126.751 296.75 126.645C296.663 126.539 296.619 126.409 296.619 126.255C296.619 126.117 296.659 125.987 296.74 125.865C296.821 125.742 296.941 125.644 297.099 125.571C297.256 125.498 297.447 125.462 297.669 125.462C297.844 125.462 298.002 125.48 298.141 125.517C298.281 125.554 298.397 125.604 298.491 125.666C298.584 125.728 298.655 125.797 298.704 125.872C298.752 125.948 298.777 126.022 298.777 126.094C298.777 126.172 298.751 126.237 298.699 126.288C298.647 126.338 298.573 126.363 298.477 126.363C298.407 126.363 298.348 126.343 298.3 126.303C298.251 126.262 298.195 126.202 298.132 126.122C298.081 126.054 298.021 126.001 297.951 125.961C297.882 125.92 297.788 125.9 297.669 125.9C297.547 125.9 297.445 125.927 297.364 125.979C297.283 126.032 297.243 126.098 297.243 126.177C297.243 126.249 297.272 126.308 297.332 126.355C297.391 126.401 297.471 126.439 297.572 126.469C297.673 126.5 297.812 126.536 297.988 126.58C298.198 126.632 298.369 126.694 298.502 126.766C298.635 126.838 298.736 126.923 298.805 127.022C298.873 127.12 298.908 127.233 298.908 127.358C298.909 127.546 298.864 127.709 298.773 127.844Z" fill="#10CBB4"/>
<path d="M295.161 125.965C295.261 125.93 295.337 125.863 295.39 125.763C295.431 125.693 295.452 125.614 295.452 125.527C295.452 125.341 295.387 125.217 295.256 125.156C295.126 125.095 294.927 125.064 294.659 125.064H294.062V126.018H294.736C294.92 126.017 295.061 126 295.161 125.965Z" fill="#10CBB4"/>
</g>
<path d="M282.983 134.371C279.494 131.162 276.005 127.953 272.515 124.745C271.571 123.876 270.211 123.617 269.036 124.122C268.234 124.466 267.358 125.036 266.644 125.99C266.112 126.698 265.81 127.435 265.644 128.104C265.326 129.372 265.794 130.713 266.813 131.522L277.851 140.293C279.487 141.591 281.882 141.466 283.265 139.9C284.69 138.284 284.557 135.822 282.98 134.374L282.983 134.371Z" fill="#FCDABA"/>
<path d="M323.732 124.473C323.009 122.159 320.568 120.877 318.276 121.605L308.844 124.61C306.553 125.341 305.284 127.806 306.004 130.12C306.728 132.434 309.169 133.715 311.46 132.987L320.892 129.982C323.184 129.251 324.453 126.786 323.732 124.473Z" fill="#FCDABA"/>
<path d="M320.746 139.231L310.412 142.525C309.977 142.663 309.536 142.731 309.101 142.731C307.254 142.731 305.543 141.532 304.956 139.657C304.245 137.389 305.456 134.977 307.66 134.194C307.705 134.177 307.751 134.161 307.796 134.148L318.13 130.854C319.863 130.303 321.681 130.903 322.778 132.227C323.132 132.653 323.411 133.158 323.586 133.722C324.31 136.036 323.038 138.503 320.746 139.231Z" fill="#FCDABA"/>
<path d="M321.661 148.152L311.327 151.443C310.892 151.581 310.451 151.649 310.016 151.649C308.169 151.649 306.455 150.45 305.871 148.578C305.19 146.405 306.274 144.095 308.309 143.216C308.438 143.161 308.572 143.108 308.711 143.066L319.045 139.775C320.516 139.306 322.044 139.667 323.145 140.594C323.761 141.112 324.242 141.81 324.501 142.64C325.225 144.954 323.953 147.422 321.661 148.152Z" fill="#FCDABA"/>
<path d="M323.145 140.594L312.577 143.964C312.106 144.115 311.629 144.183 311.159 144.183C310.12 144.183 309.12 143.836 308.309 143.216C308.439 143.161 308.572 143.108 308.711 143.066L319.046 139.775C320.516 139.306 322.045 139.667 323.145 140.594Z" fill="#FBCCA1"/>
<path d="M321.957 157.274L311.623 160.564C311.188 160.702 310.746 160.771 310.311 160.771C308.465 160.771 306.754 159.571 306.167 157.7C305.462 155.448 306.65 153.049 308.828 152.249C308.887 152.226 308.945 152.207 309.007 152.187L319.341 148.896C320.769 148.441 322.259 148.769 323.349 149.64C324.008 150.165 324.524 150.892 324.797 151.761C325.521 154.075 324.248 156.543 321.957 157.274Z" fill="#FCDABA"/>
<path d="M323.349 149.64L313.242 152.862C312.72 153.029 312.191 153.108 311.671 153.108C310.649 153.108 309.662 152.8 308.828 152.249C308.887 152.226 308.945 152.207 309.007 152.187L319.341 148.896C320.769 148.441 322.259 148.769 323.349 149.64Z" fill="#FBCCA1"/>
<path d="M322.778 132.227C322.668 132.276 322.551 132.319 322.434 132.355L312.473 135.531C310.691 136.098 308.825 135.514 307.66 134.194C307.705 134.177 307.751 134.161 307.796 134.148L318.13 130.854C319.863 130.303 321.681 130.903 322.778 132.227Z" fill="#FBCCA1"/>
<path d="M164.119 181.117C164.366 185.411 161.643 189.305 157.556 190.504L119.65 201.628C111.727 203.568 103.801 205.512 95.8784 207.452C99.1111 206.062 102.386 204.611 105.697 203.093C107.397 202.313 109.079 201.526 110.744 200.74C115.609 198.432 120.65 196.528 125.817 195.04C134.502 192.543 147.787 188.721 153.609 187.053C162.629 184.474 159.263 172.511 159.533 165.716C159.802 158.922 156.303 152.334 156.303 152.334H161.987C162.681 153.311 163.798 155.17 164.22 157.759C164.573 159.905 164.32 161.783 163.954 163.183C163.463 165.051 163.308 166.991 163.418 168.922C163.652 172.986 163.885 177.053 164.119 181.117Z" fill="#FBCCA1"/>
</g>
<defs>
<clipPath id="clip0_770_6472">
<rect width="325" height="314.6" fill="white"/>
</clipPath>
<clipPath id="clip1_770_6472">
<rect width="37.0342" height="79.5226" fill="white" transform="translate(277.236 96.2869)"/>
</clipPath>
</defs>
</svg>
