<svg width="600" height="600" viewBox="0 0 600 600" fill="none" xmlns="http://www.w3.org/2000/svg">
<g clip-path="url(#clip0_568_10362)">
<path d="M130.525 93.6562H49.6499C43.2161 93.6562 38.0005 98.8969 38.0005 105.362V186.625C38.0005 193.09 43.2161 198.331 49.6499 198.331H130.525C136.959 198.331 142.174 193.09 142.174 186.625V105.362C142.174 98.8969 136.959 93.6562 130.525 93.6562Z" fill="#10CBB4"/>
<path d="M545.963 276.461H487.635C482.997 276.461 479.236 280.196 479.236 284.804V342.743C479.236 347.35 482.997 351.085 487.635 351.085H545.963C550.601 351.085 554.362 347.35 554.362 342.743V284.804C554.362 280.196 550.601 276.461 545.963 276.461Z" fill="#10CBB4"/>
<path d="M236.038 287.999C224.733 287.999 208.507 284.143 195.367 265.784C186.375 253.217 180.249 235.917 176.647 212.892C175.032 202.579 182.106 192.908 192.448 191.297C202.783 189.694 212.488 196.741 214.103 207.055C218.265 233.663 226.674 250.193 236.045 250.193C247.805 250.193 259.709 229.588 259.709 190.208C259.709 179.766 268.193 171.305 278.664 171.305C289.135 171.305 297.62 179.766 297.62 190.208C297.62 219.342 292.312 242.798 281.849 259.932C270.786 278.033 254.523 287.999 236.053 287.999H236.038Z" fill="#FCDABA"/>
<path d="M337.526 331.257C361.522 331.257 380.974 311.805 380.974 287.809C380.974 263.814 361.522 244.362 337.526 244.362C313.531 244.362 294.078 263.814 294.078 287.809C294.078 311.805 313.531 331.257 337.526 331.257Z" fill="#002649"/>
<path d="M368.613 375.497C383.467 375.497 395.509 363.455 395.509 348.601C395.509 333.747 383.467 321.705 368.613 321.705C353.759 321.705 341.717 333.747 341.717 348.601C341.717 363.455 353.759 375.497 368.613 375.497Z" fill="#002649"/>
<path d="M306.597 375.497C321.452 375.497 333.494 363.455 333.494 348.601C333.494 333.747 321.452 321.705 306.597 321.705C291.743 321.705 279.701 333.747 279.701 348.601C279.701 363.455 291.743 375.497 306.597 375.497Z" fill="#002649"/>
<path d="M368.613 475.41C382.792 475.41 394.286 463.916 394.286 449.737C394.286 435.559 382.792 424.064 368.613 424.064C354.434 424.064 342.94 435.559 342.94 449.737C342.94 463.916 354.434 475.41 368.613 475.41Z" fill="#002649"/>
<path d="M279.641 471.756C293.82 471.756 305.314 460.262 305.314 446.083C305.314 431.904 293.82 420.41 279.641 420.41C265.462 420.41 253.968 431.904 253.968 446.083C253.968 460.262 265.462 471.756 279.641 471.756Z" fill="#002649"/>
<path d="M341.717 348.76L395.502 348.601C396.944 316.329 386.788 295.587 380.989 287.817C351.601 288.481 322.22 289.146 292.832 289.81C288.762 307.071 284.7 324.333 280.63 341.594C298.246 343.988 315.87 346.374 333.486 348.767H341.717V348.76Z" fill="#002649"/>
<path d="M341.717 348.76H395.509L394.286 449.738H342.94L341.717 348.76Z" fill="#002649"/>
<path d="M332.474 355.918L280.63 341.586L254.896 439.242L304.385 452.924L332.474 355.918Z" fill="#002649"/>
<path d="M279.535 586.786H244.364L248.819 557.398H283.991L279.535 586.786Z" fill="#FCDABA"/>
<path d="M282.699 600H201.701C201.701 591.46 206.692 583.698 214.469 580.164L240.981 568.105C244.25 570.793 249.513 574.425 256.769 576.804C268.141 580.534 277.995 579.069 282.699 578.042C282.699 585.359 282.699 592.683 282.699 600Z" fill="#002649"/>
<path d="M285.772 562.955L245.564 557.798L254.18 442.813L305.103 449.352L285.772 562.955Z" fill="#002649"/>
<path d="M386.886 586.786H351.714V557.398H386.886V586.786Z" fill="#FCDABA"/>
<path d="M348.399 600H429.397C429.397 591.46 424.406 583.698 416.629 580.164L390.118 568.105C386.848 570.793 381.585 574.425 374.329 576.804C362.957 580.534 353.103 579.069 348.399 578.042V600Z" fill="#002649"/>
<path d="M389.574 564.888H349.034L342.94 449.737H394.286L389.574 564.888Z" fill="#002649"/>
<path d="M351.682 160.638C352.326 155.521 352.129 123.329 350.5 114.19C332.461 116.027 313.991 118.083 295.959 119.806C297.209 131.469 296.755 140.162 291.368 146.042C284.777 153.23 279.398 161.084 275.481 169.647C270.518 180.517 270.768 190.759 275.807 201.061C287.05 224.069 318.407 221.968 334.636 203.729C349.197 187.365 349.167 180.562 351.682 160.645V160.638Z" fill="#2C2044"/>
<path d="M195.668 228.562C206.093 228.562 214.545 220.11 214.545 209.684C214.545 199.259 206.093 190.807 195.668 190.807C185.242 190.807 176.791 199.259 176.791 209.684C176.791 220.11 185.242 228.562 195.668 228.562Z" fill="#FCDABA"/>
<path d="M199.813 184.631L209.086 196.402L182.25 222.959L162.98 222.861L163.177 184.442L199.813 184.631Z" fill="#FCDABA"/>
<path d="M214.545 209.783C214.62 206.717 214.492 202.02 213.329 196.47C211.789 189.154 209.584 185.914 207.855 180.085C206.775 176.423 205.748 171.296 205.907 164.659C205.975 161.872 203.785 159.554 200.999 159.516C198.424 159.486 196.226 161.427 195.985 163.994C195.532 168.842 195.547 173.818 196.09 178.877C194.459 180.463 191.077 184.2 189.884 189.984C187.694 200.586 194.792 208.726 195.668 209.684L214.545 209.783Z" fill="#FCDABA"/>
<path d="M200.372 213.883C198.884 211.972 194.354 205.682 194.293 196.448C194.233 187.636 198.265 181.497 199.715 179.488C199.005 178.96 197.759 177.88 196.823 176.091C195.864 174.263 195.705 172.579 195.683 171.696C195.713 173.138 195.781 174.626 195.879 176.166C195.939 177.087 196.015 177.993 196.098 178.877C189.536 182.358 185.512 189.191 185.814 196.372C186.161 204.557 192.073 211.761 200.372 213.89V213.883Z" fill="#DCAC82"/>
<g clip-path="url(#clip1_568_10362)">
<path d="M196 221.003V147.308C196 145.653 194.643 144.311 192.969 144.311H160.031C158.357 144.311 157 145.653 157 147.308V221.003C157 222.658 158.357 224 160.031 224H192.969C194.643 224 196 222.658 196 221.003Z" fill="#403556"/>
<path d="M196 218.692V144.997C196 143.342 194.643 142 192.969 142H160.031C158.357 142 157 143.342 157 144.997V218.692C157 220.347 158.357 221.689 160.031 221.689H192.969C194.643 221.689 196 220.347 196 218.692Z" fill="#2C2044"/>
<path d="M194.107 215.395V148.294C194.107 147.473 193.433 146.807 192.603 146.807H160.39C159.559 146.807 158.886 147.473 158.886 148.294V215.395C158.886 216.216 159.559 216.882 160.39 216.882H192.603C193.433 216.882 194.107 216.216 194.107 215.395Z" fill="#742384"/>
<path d="M172.569 145.274H180.424C180.88 145.274 181.25 144.909 181.25 144.458V144.357C181.25 143.906 180.88 143.541 180.424 143.541H172.569C172.113 143.541 171.743 143.906 171.743 144.357V144.458C171.743 144.909 172.113 145.274 172.569 145.274Z" fill="#544A69"/>
<path d="M185.983 187.816C183.66 187.858 181.024 188.108 178.588 188.412C178.861 187.437 179.132 186.475 179.132 186.475C179.132 186.475 179.411 187.072 180.198 187.011C181.314 186.925 182.674 185.843 183.332 183.861C184.031 181.755 183.969 179.363 182.542 179.162C181.388 179 180.838 180.014 180.758 180.216C180.758 180.216 181.004 179.295 180.271 179.456C179.569 179.61 179.44 179.921 179.267 180.478C179.236 180.576 178.645 182.764 178.026 185.07C178.017 185.085 178.009 185.102 178.003 185.122C177.85 185.643 177.548 185.818 177.329 185.831C176.621 185.877 178.143 181.232 178.258 180.879C178.41 180.415 178.501 180.062 177.985 179.868C177.637 179.737 177.16 179.785 177.021 180.157C176.962 180.312 176.919 180.427 176.919 180.427C176.919 180.427 176.522 179.84 175.643 179.92C174.764 179.999 173.654 181.064 172.919 182.932C172.185 184.799 171.866 187.478 173.608 187.745C174.492 187.881 175.234 187.377 175.623 186.549C175.623 186.549 175.555 187.104 176.138 187.375C176.366 187.483 176.935 187.441 177.471 187.14C177.33 187.666 177.197 188.165 177.079 188.61C173.317 189.127 170.357 189.705 170.357 189.705C170.357 189.703 172.419 182.767 172.883 181.24C173.272 179.963 172.539 180.241 171.997 180.397C171.42 180.564 171.147 181.048 170.858 181.926C169.595 185.764 168.601 186.959 167.88 186.701C167.219 186.465 169.299 182.39 168.8 181.852C168.367 181.385 167.476 181.41 167.306 181.685C167.136 181.96 167.389 182.211 167.281 182.6C167.172 182.99 166.339 185.096 166.252 185.568C166.164 186.04 165.441 188.655 167.353 188.542C168.483 188.475 169.257 187.624 169.339 187.388C168.987 188.404 168.482 190.043 168.482 190.043C168.482 190.043 166.169 190.619 164.325 192.539C162.861 194.063 161.826 197.346 164.012 197.87C167.411 198.683 169.018 193.521 169.842 191.579C172.598 190.969 174.699 190.563 176.643 190.262C176.614 190.374 176.594 190.451 176.588 190.483C176.411 191.291 176.45 191.615 177.085 191.537C177.768 191.453 177.854 191.103 178.078 190.258C178.093 190.2 178.112 190.129 178.135 190.046C180.438 189.736 182.699 189.543 185.811 189.284C186.778 189.204 186.768 189.043 186.862 188.469C186.969 187.817 186.212 187.812 185.983 187.816ZM180.05 183.361C180.515 181.849 180.943 181.243 181.344 181.073C182.303 180.664 182.485 181.861 181.745 183.677C180.889 185.78 179.889 185.732 179.506 185.317C179.506 185.317 179.559 184.958 180.05 183.361ZM175.771 184.274C175.36 185.261 174.975 185.956 174.445 185.959C173.686 185.965 173.706 184.829 174.246 183.401C174.7 182.199 175.529 181.443 175.977 181.357C176.423 181.272 176.944 181.458 175.771 184.274ZM165.729 195.76C163.922 197.365 164.378 195.167 165.049 194.218C166.325 192.416 167.9 191.96 167.9 191.96C167.099 194.289 166.099 195.431 165.729 195.76Z" fill="white"/>
<path d="M188.386 182.005C189.068 181.219 189.38 179.543 188.235 178.926C186.85 178.18 185.041 179.319 184.294 181.773C183.631 183.955 183.383 186.638 185.634 186.539C186.744 186.491 187.701 185.696 188.047 185.106C188.215 184.82 188.282 184.369 188.253 184.169C188.171 183.607 187.825 183.525 187.239 184.263C187.095 184.426 185.939 185.449 185.374 184.841C184.965 184.402 185.308 183.54 185.325 183.54C186.064 183.486 187.359 183.189 188.386 182.005ZM186.729 180.1C187.35 179.522 187.945 180.213 187.226 181.209C186.501 182.213 185.651 182.187 185.644 182.219C185.731 181.826 186.051 180.731 186.729 180.1Z" fill="white"/>
<path d="M176.133 173.34C175.998 173.253 175.795 173.21 175.525 173.21H174.719V174.321H175.552C176.075 174.321 176.337 174.134 176.337 173.758C176.337 173.566 176.269 173.426 176.133 173.34Z" fill="#10CBB4"/>
<path d="M176.564 168.168C174.128 168.279 172.14 170.226 171.99 172.647C171.89 174.286 172.619 175.76 173.799 176.694C173.921 176.79 173.992 176.936 173.992 177.09V178.146C173.992 178.227 174.037 178.302 174.109 178.339L174.139 178.355C174.208 178.391 174.292 178.385 174.355 178.339L175.266 177.686C175.385 177.601 175.535 177.571 175.678 177.605C176.035 177.69 176.408 177.734 176.791 177.734C179.447 177.734 181.601 175.592 181.601 172.948C181.601 170.23 179.324 168.041 176.564 168.168ZM176.958 174.39C176.848 174.56 176.7 174.686 176.514 174.768C176.398 174.817 176.264 174.85 176.113 174.87C175.961 174.89 175.785 174.9 175.583 174.9H174.414C174.245 174.9 174.125 174.863 174.052 174.787C173.98 174.712 173.944 174.592 173.944 174.427V171.566C173.944 171.399 173.981 171.278 174.055 171.204C174.129 171.13 174.249 171.094 174.413 171.094H175.652C175.835 171.094 175.993 171.105 176.128 171.127C176.262 171.15 176.381 171.193 176.487 171.257C176.578 171.311 176.658 171.379 176.727 171.461C176.797 171.543 176.85 171.634 176.887 171.733C176.923 171.833 176.941 171.938 176.941 172.049C176.941 172.43 176.75 172.708 176.367 172.885C176.87 173.044 177.121 173.354 177.121 173.814C177.122 174.028 177.068 174.219 176.958 174.39ZM179.679 174.54C179.583 174.679 179.442 174.785 179.255 174.857C179.068 174.929 178.841 174.965 178.572 174.965C178.317 174.965 178.097 174.926 177.915 174.848C177.733 174.77 177.597 174.673 177.511 174.557C177.424 174.44 177.38 174.323 177.38 174.205C177.38 174.127 177.408 174.06 177.464 174.005C177.52 173.949 177.59 173.922 177.675 173.922C177.75 173.922 177.807 173.94 177.847 173.976C177.887 174.012 177.926 174.063 177.962 174.129C178.035 174.256 178.122 174.35 178.224 174.412C178.325 174.475 178.465 174.506 178.64 174.506C178.783 174.506 178.9 174.474 178.991 174.411C179.083 174.348 179.128 174.276 179.128 174.194C179.128 174.069 179.08 173.978 178.985 173.922C178.891 173.864 178.735 173.81 178.517 173.758C178.272 173.698 178.072 173.634 177.919 173.567C177.765 173.501 177.642 173.413 177.55 173.304C177.457 173.195 177.411 173.06 177.411 172.901C177.411 172.759 177.454 172.625 177.539 172.499C177.624 172.373 177.75 172.272 177.916 172.197C178.082 172.121 178.283 172.084 178.517 172.084C178.702 172.084 178.868 172.103 179.014 172.141C179.162 172.179 179.284 172.23 179.382 172.295C179.481 172.359 179.555 172.429 179.607 172.507C179.658 172.585 179.684 172.661 179.684 172.736C179.684 172.817 179.656 172.883 179.602 172.936C179.547 172.987 179.469 173.014 179.368 173.014C179.294 173.014 179.232 172.993 179.181 172.951C179.13 172.91 179.071 172.847 179.005 172.764C178.951 172.695 178.888 172.64 178.814 172.598C178.741 172.557 178.642 172.536 178.517 172.536C178.388 172.536 178.281 172.563 178.196 172.618C178.111 172.672 178.068 172.74 178.068 172.822C178.068 172.896 178.099 172.957 178.162 173.005C178.225 173.052 178.309 173.092 178.415 173.123C178.521 173.154 178.667 173.192 178.853 173.237C179.074 173.291 179.254 173.355 179.395 173.429C179.534 173.503 179.641 173.591 179.713 173.693C179.785 173.794 179.822 173.91 179.822 174.04C179.823 174.233 179.775 174.401 179.679 174.54Z" fill="#10CBB4"/>
<path d="M175.876 172.603C175.981 172.567 176.062 172.497 176.117 172.395C176.161 172.322 176.183 172.241 176.183 172.151C176.183 171.959 176.114 171.831 175.976 171.768C175.839 171.705 175.629 171.674 175.348 171.674H174.719V172.658H175.429C175.622 172.657 175.771 172.639 175.876 172.603Z" fill="#10CBB4"/>
</g>
<path d="M158.587 177.765C161.029 178.651 163.727 177.389 164.613 174.946C165.499 172.504 164.237 169.806 161.794 168.92L157.421 167.335C154.979 166.449 152.281 167.711 151.395 170.154C150.51 172.596 151.772 175.294 154.214 176.18L158.587 177.765Z" fill="#FCDABA"/>
<path d="M159.231 190.611C161.784 191.095 164.245 189.417 164.729 186.865C165.213 184.312 163.535 181.851 160.983 181.367L155.523 180.332C152.97 179.849 150.508 181.526 150.025 184.078C149.541 186.631 151.218 189.092 153.771 189.576L159.231 190.611Z" fill="#FCDABA"/>
<path d="M158.732 203.015C161.318 203.268 163.619 201.377 163.872 198.791C164.125 196.206 162.234 193.904 159.649 193.651L154.283 193.126C151.697 192.873 149.396 194.764 149.143 197.35C148.89 199.936 150.781 202.237 153.366 202.49L158.732 203.015Z" fill="#FCDABA"/>
<path d="M159.543 215.793C162.128 216.046 164.43 214.155 164.683 211.57C164.936 208.984 163.045 206.683 160.459 206.43L155.807 205.974C153.222 205.721 150.92 207.612 150.667 210.198C150.414 212.784 152.305 215.085 154.891 215.338L159.543 215.793Z" fill="#FCDABA"/>
<path d="M280.056 208.651L389.041 198.176C399.419 197.179 407.023 187.958 406.026 177.58C405.029 167.202 395.807 159.598 385.429 160.595L276.444 171.07C266.066 172.068 258.462 181.289 259.459 191.667C260.457 202.044 269.678 209.649 280.056 208.651Z" fill="#DE4A65"/>
<path d="M313.021 160.405L309.613 124.827L341.945 121.703L345.353 157.281C347.781 157.19 350.18 157.121 352.525 157.091C350.172 167.301 341.573 175.142 330.849 176.179C320.117 177.215 310.19 171.165 305.947 161.586C308.255 161.167 310.622 160.779 313.021 160.405Z" fill="#FCDABA"/>
<path d="M248.853 221.119C253.921 223.819 261.653 227.19 271.61 228.857C280.408 230.328 287.936 229.973 293.277 229.302C294.805 221.986 296.031 213.75 296.598 204.706C296.848 200.694 296.946 196.84 296.931 193.159C284.531 190.874 272.139 188.596 259.739 186.311C256.108 197.911 252.484 209.511 248.853 221.119Z" fill="#DE4A65"/>
<path d="M278.401 208.848C288.912 208.848 297.433 200.439 297.433 190.067C297.433 179.694 288.912 171.286 278.401 171.286C267.89 171.286 259.37 179.694 259.37 190.067C259.37 200.439 267.89 208.848 278.401 208.848Z" fill="#DE4A65"/>
<path d="M277.818 189.994C277.147 194.907 276.287 201.747 275.465 209.97C274.018 224.452 274.236 227.77 274.96 231.004C275.888 235.139 278.285 242.107 285.675 249.522C288.02 263.006 290.365 276.489 292.71 289.966C302.18 293.276 317.253 297.274 336.044 296.98C355.716 296.67 371.242 291.78 380.735 287.97C382.514 258.153 384.301 228.344 386.081 198.527C386.081 198.527 385.252 174.507 385.169 160.653C373.662 159.066 368.007 157.086 352.218 157.275C349.88 167.41 341.337 175.18 330.683 176.208C320.021 177.236 310.151 171.235 305.943 161.734C290.403 164.561 275.262 171.28 275.262 171.28C276.114 177.515 276.973 183.751 277.825 189.986L277.818 189.994Z" fill="#DE4A65"/>
<path d="M416.297 331.936C412.997 331.936 409.652 331.068 406.617 329.248C397.677 323.887 394.769 312.297 400.123 303.356C410.694 285.71 414.394 270.835 411.11 259.138C410.015 255.25 408.421 252.622 402.494 243.191C400.697 240.322 398.651 237.075 396.234 233.141C387.143 218.356 378.505 203.247 370.561 188.251C365.684 179.039 369.187 167.614 378.399 162.729C387.611 157.843 399.036 161.355 403.921 170.567C411.495 184.861 419.733 199.26 428.401 213.365C430.727 217.141 432.713 220.304 434.464 223.098C441.162 233.76 444.854 239.627 447.467 248.945C453.659 271.031 448.63 295.866 432.516 322.762C428.975 328.667 422.723 331.944 416.305 331.944L416.297 331.936Z" fill="#FCDABA"/>
<path d="M382.242 222.154C387.913 221.324 396.136 219.444 405.114 214.883C413.05 210.851 418.879 206.094 422.768 202.386C419.642 195.59 415.723 188.228 410.8 180.617C408.61 177.234 406.398 174.07 404.2 171.126C392.889 176.645 381.585 182.157 370.274 187.677C374.269 199.17 378.255 210.662 382.25 222.154H382.242Z" fill="#DE4A65"/>
<path d="M387.233 198.278C397.659 198.278 406.111 189.827 406.111 179.401C406.111 168.976 397.659 160.524 387.233 160.524C376.808 160.524 368.356 168.976 368.356 179.401C368.356 189.827 376.808 198.278 387.233 198.278Z" fill="#DE4A65"/>
<path d="M416.312 331.929C426.738 331.929 435.189 323.477 435.189 313.052C435.189 302.626 426.738 294.174 416.312 294.174C405.886 294.174 397.435 302.626 397.435 313.052C397.435 323.477 405.886 331.929 416.312 331.929Z" fill="#FCDABA"/>
<path d="M376.609 318.874C377.515 320.897 379.69 322.045 381.865 321.615C383.126 321.365 384.485 321.018 385.912 320.542C388.192 319.78 390.118 318.866 391.673 318.005C389.929 320.301 387.815 322.762 385.255 325.239C382 328.388 378.754 330.864 375.801 332.775C371.044 335.856 376.149 342.108 380.807 340.296C376.186 343.474 379.999 349.628 384.492 349.334C385.799 352.86 390.306 354.37 393.485 352.249C394.384 355.435 398.514 358.41 402.123 355.571C407.643 351.222 413.571 345.898 419.445 339.427C423.787 334.647 430.575 325.42 430.575 325.42L402.033 300.706C402.033 300.706 395.199 305.811 390.465 308.091C386.637 309.941 382.937 311.33 379.516 312.395C376.798 313.233 375.446 316.276 376.602 318.874H376.609Z" fill="#FCDABA"/>
<path d="M384.5 349.704C384.387 349.704 384.273 349.651 384.198 349.553C384.077 349.387 384.107 349.145 384.281 349.024C386.871 347.114 389.393 345.06 391.779 342.916C394.603 340.378 397.314 337.653 399.836 334.806C399.972 334.647 400.213 334.632 400.372 334.776C400.531 334.912 400.546 335.153 400.402 335.312C397.865 338.174 395.132 340.922 392.285 343.482C389.884 345.641 387.339 347.71 384.727 349.636C384.659 349.689 384.583 349.711 384.5 349.711V349.704Z" fill="#DCAC82"/>
<path d="M380.815 340.658C380.694 340.658 380.573 340.597 380.505 340.492C380.384 340.318 380.43 340.084 380.603 339.971C382.536 338.642 384.447 337.23 386.289 335.757C388.841 333.711 391.31 331.514 393.629 329.226C393.78 329.082 394.014 329.082 394.165 329.226C394.316 329.369 394.308 329.611 394.165 329.762C391.824 332.072 389.332 334.292 386.765 336.346C384.915 337.826 382.982 339.261 381.034 340.597C380.966 340.643 380.898 340.665 380.822 340.665L380.815 340.658Z" fill="#DCAC82"/>
<path d="M393.553 352.603C393.433 352.603 393.319 352.55 393.244 352.445C393.123 352.271 393.168 352.037 393.334 351.916C394.867 350.836 396.385 349.681 397.835 348.488C400.832 346.019 403.664 343.286 406.254 340.363C406.39 340.205 406.631 340.19 406.79 340.333C406.949 340.469 406.964 340.711 406.82 340.869C404.208 343.822 401.346 346.578 398.318 349.07C396.853 350.278 395.32 351.441 393.772 352.535C393.704 352.581 393.629 352.603 393.553 352.603Z" fill="#DCAC82"/>
<path d="M310.956 139.398L312.485 155.255C318.693 155.33 328.603 154.373 336.131 148.521C342.131 143.868 343.585 138.449 344.011 136.227L310.956 139.39V139.398Z" fill="#FBCCA1"/>
<path d="M294.266 111.415L298.658 110.305L302.73 126.41L298.338 127.52C295.102 128.339 291.819 126.381 291.001 123.145L289.89 118.753C289.072 115.517 291.03 112.234 294.266 111.415Z" fill="#FCDABA"/>
<path d="M295.853 122.37C295.739 122.392 295.619 122.354 295.528 122.271C295.377 122.128 295.369 121.894 295.513 121.735L298.02 119.047L294.531 117.869C294.335 117.801 294.229 117.59 294.297 117.393C294.365 117.197 294.577 117.091 294.773 117.159L298.813 118.519C298.933 118.556 299.024 118.662 299.062 118.783C299.092 118.904 299.062 119.04 298.971 119.13L296.064 122.249C296.004 122.309 295.936 122.347 295.853 122.362V122.37Z" fill="#DCAC82"/>
<path d="M340.064 99.8529L344.458 98.7429C347.69 97.9274 350.975 99.8831 351.798 103.122L352.908 107.517C353.723 110.749 351.768 114.033 348.528 114.856L344.134 115.966L340.064 99.8604V99.8529Z" fill="#DCAC82"/>
<path d="M312.008 70.7087L315.668 69.7832C327.791 66.7179 340.118 74.0689 343.183 86.1916L351.512 119.134C354.067 129.236 347.941 139.508 337.839 142.063L330.518 143.914C318.395 146.979 306.069 139.628 303.004 127.505L295.6 98.2232C292.534 86.1004 299.885 73.774 312.008 70.7087Z" fill="#FCDABA"/>
<path d="M318.835 113.443C319.809 113.197 320.334 111.949 320.007 110.655C319.679 109.361 318.624 108.512 317.65 108.758C316.676 109.005 316.151 110.253 316.478 111.547C316.805 112.841 317.86 113.69 318.835 113.443Z" fill="#2C2044"/>
<path d="M341.285 107.774C342.259 107.527 342.784 106.279 342.457 104.985C342.13 103.691 341.075 102.842 340.1 103.089C339.126 103.335 338.601 104.584 338.929 105.877C339.256 107.171 340.311 108.02 341.285 107.774Z" fill="#2C2044"/>
<path d="M311.295 104.564C311.174 104.587 311.053 104.549 310.963 104.459C310.819 104.308 310.819 104.074 310.963 103.923C311.763 103.145 313.122 102.133 315.093 101.695C316.837 101.31 318.325 101.552 319.269 101.824C319.472 101.884 319.586 102.088 319.525 102.292C319.465 102.496 319.261 102.609 319.057 102.548C318.196 102.307 316.852 102.08 315.251 102.435C313.462 102.828 312.216 103.757 311.491 104.466C311.438 104.519 311.363 104.557 311.295 104.564Z" fill="#2C2044"/>
<path d="M336.295 98.2445C336.19 98.2596 336.076 98.2445 335.993 98.169C335.835 98.0406 335.805 97.799 335.94 97.6404C336.469 96.991 337.39 96.1227 338.749 95.7225C340.297 95.2694 341.664 95.6017 342.547 95.9717C342.736 96.0547 342.834 96.2737 342.751 96.4625C342.676 96.6588 342.449 96.7494 342.261 96.6664C341.49 96.3492 340.297 96.0547 338.968 96.4474C337.79 96.7947 336.998 97.5498 336.529 98.1161C336.469 98.1916 336.386 98.2369 336.303 98.252L336.295 98.2445Z" fill="#2C2044"/>
<path d="M315.059 119.313C316.47 118.956 317.453 118.031 317.255 117.247C317.057 116.463 315.752 116.116 314.341 116.473C312.93 116.83 311.947 117.755 312.145 118.539C312.344 119.323 313.648 119.67 315.059 119.313Z" fill="#FBCCA1"/>
<path d="M346.805 111.286C348.216 110.929 349.199 110.004 349 109.219C348.802 108.435 347.497 108.088 346.086 108.445C344.675 108.802 343.692 109.727 343.891 110.511C344.089 111.296 345.394 111.642 346.805 111.286Z" fill="#FBCCA1"/>
<path d="M300.776 129.414C302.052 129.414 303.087 128.38 303.087 127.104C303.087 125.828 302.052 124.793 300.776 124.793C299.5 124.793 298.466 125.828 298.466 127.104C298.466 128.38 299.5 129.414 300.776 129.414Z" fill="#64C846"/>
<path d="M315.689 69.7852L306.878 72.0127C294.751 75.0783 287.404 87.3938 290.47 99.5281L293.528 111.617L305.458 108.597C305.111 105.81 304.809 103.319 304.695 100.963C314.957 97.444 322.991 90.7539 327.703 82.3725C330.55 84.1696 335.964 87.0465 343.65 88.0583C343.446 87.0616 343.197 86.0724 342.91 85.0983C339.467 73.5304 327.401 66.8177 315.697 69.7776L315.689 69.7852Z" fill="#2C2044"/>
<path d="M333.524 122.46C332.55 122.709 331.561 122.883 330.564 122.989C326.857 123.381 325.528 124.741 326.389 126.908C327.303 129.203 329.454 131.733 335.48 130.215C341.506 128.682 342.2 125.435 341.906 122.981C341.634 120.656 339.822 120.097 336.371 121.516C335.45 121.894 334.491 122.211 333.517 122.453L333.524 122.46Z" fill="#4D1822"/>
<path d="M340.819 127.285C339.882 128.463 338.236 129.52 335.488 130.222C332.732 130.91 330.791 130.766 329.409 130.17C330.308 128.486 332.165 127.059 334.536 126.462C336.907 125.866 339.233 126.236 340.819 127.285Z" fill="#DE4A65"/>
<path d="M339.392 120.754L339.113 122.135C339.007 122.641 338.652 123.057 338.176 123.245C336.175 124.023 333.721 124.861 330.844 125.586C329.213 126.001 327.681 126.319 326.269 126.56C325.687 124.589 327.061 123.359 330.557 122.989C331.547 122.875 332.543 122.702 333.517 122.46C334.491 122.218 335.45 121.894 336.372 121.524C337.572 121.033 338.576 120.776 339.384 120.754H339.392Z" fill="white"/>
<path d="M547.765 72.621H453.278C445.763 72.621 439.67 78.6885 439.67 86.1732V180.271C439.67 187.755 445.763 193.823 453.278 193.823H547.765C555.28 193.823 561.373 187.755 561.373 180.271V86.1732C561.373 78.6885 555.28 72.621 547.765 72.621Z" fill="#5FF7E4"/>
<path d="M371.579 0H336.977C334.223 0 331.991 2.2574 331.991 5.04205V40.0331C331.991 42.8177 334.223 45.0751 336.977 45.0751H371.579C374.333 45.0751 376.565 42.8177 376.565 40.0331V5.04205C376.565 2.2574 374.333 0 371.579 0Z" fill="#10CBB4"/>
<path d="M172.01 288.982H118.348C114.081 288.982 110.622 292.416 110.622 296.653V349.925C110.622 354.162 114.081 357.596 118.348 357.596H172.01C176.277 357.596 179.737 354.162 179.737 349.925V296.653C179.737 292.416 176.277 288.982 172.01 288.982Z" fill="#5FF7E4"/>
<path fill-rule="evenodd" clip-rule="evenodd" d="M365.572 16.853C365.573 10.4197 360.364 5.2044 353.939 5.20001C347.514 5.19561 342.29 10.4086 342.285 16.8436C342.282 22.9356 345.976 24.9922 347.619 27.8443C348.241 28.9242 348.215 30.3223 348.215 30.3223L359.679 30.3244C359.679 30.3244 359.66 28.9347 360.269 27.8468C362.07 24.6216 365.573 22.3797 365.572 16.853Z" fill="#008C7B"/>
<path fill-rule="evenodd" clip-rule="evenodd" d="M349.42 36.844C349.944 38.6621 351.769 40.0005 353.933 40.0024C356.097 40.0044 357.928 38.6612 358.451 36.8463L349.414 36.8415L349.42 36.844Z" fill="#008C7B"/>
<path d="M348.209 30.3194L348.208 36.8423L359.657 36.8457L359.659 30.3228L348.209 30.3194Z" fill="#008C7B"/>
<path d="M348.218 30.3235C347.47 30.3233 346.863 30.9286 346.863 31.6755C346.863 32.4225 347.469 33.0281 348.217 33.0284L359.649 33.0318C360.397 33.032 361.004 32.4267 361.004 31.6798C361.005 30.9329 360.398 30.3272 359.65 30.3269L348.218 30.3235Z" fill="#006B5F"/>
<path fill-rule="evenodd" clip-rule="evenodd" d="M359.654 34.1461L348.218 34.1423C347.472 34.1436 346.867 34.7482 346.864 35.4962C346.861 36.2443 347.47 36.8476 348.218 36.8504L359.654 36.8542C360.4 36.8529 361.005 36.2483 361.008 35.5003C361.011 34.7522 360.402 34.1489 359.654 34.1461Z" fill="#006B5F"/>
<path d="M357.741 17.1392C357.11 17.1378 356.512 17.4843 356.103 18.0869C355.695 18.6895 355.482 19.5267 355.483 20.5097L355.485 22.1809C355.041 22.2149 354.533 22.2357 353.954 22.2326C353.424 22.2335 352.909 22.2237 352.42 22.1938L352.423 20.511C352.423 19.528 352.207 18.6899 351.8 18.087C351.393 17.48 350.797 17.1366 350.165 17.1352C349.11 17.1354 348.041 18.1335 348.041 20.0513C348.041 22.1957 349.54 23.0001 351.166 23.3052L351.165 30.3262L352.423 30.3265L352.426 23.454C352.979 23.4871 353.504 23.4878 353.954 23.4904C353.954 23.4904 353.954 23.4904 353.958 23.4887C353.962 23.487 353.958 23.4887 353.962 23.487C354.405 23.4871 354.935 23.4861 355.485 23.4528L355.483 30.3252L356.74 30.3255L356.741 23.3044C358.373 23.0002 359.871 22.1956 359.871 20.0511C359.873 18.1375 358.805 17.1357 357.748 17.1317L357.741 17.1392ZM351.162 22.025C350.045 21.7754 349.29 21.2263 349.289 20.0508C349.289 18.9715 349.74 18.3904 350.159 18.3905C350.371 18.3918 350.583 18.5333 350.758 18.7904C350.945 19.0624 351.165 19.5858 351.164 20.5066L351.162 22.025ZM356.735 22.006L356.735 20.5075C356.734 19.5826 356.954 19.065 357.142 18.7874C357.317 18.5289 357.529 18.3857 357.738 18.3887C358.157 18.3888 358.607 18.9691 358.607 20.0484C358.606 20.8728 358.426 21.6344 356.733 22.0019L356.735 22.006Z" fill="#006B5F"/>
<path d="M119.256 136.751H61.6048C58.8587 136.751 56.6248 138.985 56.6248 141.731V176.322C56.6248 179.068 58.8587 181.302 61.6048 181.302H119.256C122.002 181.302 124.237 179.068 124.237 176.322V141.731C124.237 138.985 122.002 136.751 119.256 136.751Z" fill="#008C7B"/>
<path d="M58.2658 119.003C57.5204 119.109 56.8613 119.498 56.4086 120.099C55.9559 120.701 55.7645 121.442 55.8698 122.188L56.7785 128.633C56.8941 129.449 57.3659 130.135 58.0114 130.569L62.5422 118.4L58.2658 119.003Z" fill="#008C7B"/>
<path d="M121.33 122.368C122.076 122.263 122.736 121.874 123.188 121.272C123.641 120.671 123.832 119.929 123.727 119.183L122.816 112.739C122.717 112.032 122.359 111.422 121.849 110.988L117.407 122.922L121.33 122.369V122.368Z" fill="#008C7B"/>
<path d="M112.394 123.63L117.212 110.684L108.732 111.881L103.913 124.827L112.394 123.63Z" fill="#008C7B"/>
<path d="M71.4052 129.414L76.2246 116.469L67.5562 117.693L62.7368 130.638L71.4052 129.414Z" fill="#008C7B"/>
<path d="M85.2374 127.463L90.0567 114.516L81.2386 115.761L76.4199 128.707L85.2374 127.463Z" fill="#008C7B"/>
<path d="M98.8977 125.535L103.717 112.589L95.0698 113.809L90.2505 126.755L98.8977 125.535Z" fill="#008C7B"/>
<path d="M179.456 41.5693H114.909C109.775 41.5693 105.613 45.7815 105.613 50.9774V116.302C105.613 121.497 109.775 125.71 114.909 125.71H179.456C184.59 125.71 188.752 121.497 188.752 116.302V50.9774C188.752 45.7815 184.59 41.5693 179.456 41.5693Z" fill="#5FF7E4"/>
<path d="M137.777 326.474C137.768 326.326 137.916 326.183 138.177 326.096C138.37 326.031 138.539 325.963 138.685 325.898C139.154 325.687 139.408 325.396 139.406 325.097C139.38 321.839 139.195 299.02 139.056 298.529C138.906 297.999 137.59 297.997 137.59 297.997C128.799 298.09 128.699 321.233 129.305 324.05C129.59 325.37 130.925 325.978 132.267 326.254C132.632 326.328 132.856 326.497 132.845 326.68L131.581 346.485C131.507 347.628 133.197 348.579 135.319 348.579C137.44 348.579 139.128 347.628 139.056 346.485L137.779 326.474H137.777Z" fill="#00AD97"/>
<path d="M160.808 312.701C160.808 312.701 162.217 311.795 159.711 298.227C159.702 298.179 159.631 298.142 159.537 298.134L158.612 298.062C158.49 298.053 158.378 298.099 158.375 298.162L157.885 308.047C157.878 308.186 157.724 308.314 157.472 308.371C157.294 308.41 157.068 308.423 156.807 308.347C156.59 308.284 156.46 308.164 156.453 308.038L155.969 298.097C155.967 298.04 155.876 297.997 155.763 297.997H155.081C154.968 297.997 154.877 298.042 154.875 298.099L154.545 308.021C154.542 308.097 154.495 308.171 154.408 308.232C154.258 308.316 154.115 308.364 153.978 308.386C153.969 308.386 153.958 308.388 153.947 308.39C153.932 308.392 153.915 308.395 153.9 308.397C153.887 308.397 153.871 308.399 153.858 308.399C153.845 308.399 153.832 308.399 153.819 308.399C153.806 308.399 153.791 308.399 153.778 308.399C153.765 308.399 153.75 308.399 153.737 308.399C153.724 308.399 153.711 308.399 153.698 308.399C153.685 308.399 153.669 308.399 153.656 308.397C153.641 308.397 153.624 308.392 153.609 308.39C153.6 308.39 153.589 308.388 153.578 308.386C153.441 308.364 153.298 308.314 153.148 308.232C153.061 308.171 153.014 308.097 153.011 308.021L152.686 298.099C152.686 298.042 152.592 297.997 152.479 297.997H151.797C151.687 297.997 151.595 298.04 151.591 298.097L151.105 308.043C151.098 308.169 150.97 308.288 150.751 308.351C150.49 308.427 150.264 308.414 150.086 308.375C149.834 308.319 149.682 308.188 149.674 308.051L149.185 298.164C149.183 298.101 148.025 298.136 148.025 298.136C147.932 298.142 147.86 298.181 147.852 298.229C145.345 311.795 146.755 312.703 146.755 312.703C146.992 313.415 150.082 315.016 151.411 315.676C151.669 315.804 151.808 315.98 151.797 316.163L150.041 346.29C149.967 347.541 151.656 348.581 153.778 348.581C155.9 348.581 157.587 347.541 157.515 346.29L155.758 316.167C155.748 315.985 155.889 315.809 156.145 315.68C157.468 315.022 160.571 313.415 160.81 312.703L160.808 312.701Z" fill="#00AD97"/>
<path d="M544.171 116.872L531.972 145.466C530.669 148.518 527.685 150.496 524.381 150.496H480.958V155.453H527.791C532.876 155.453 536.947 159.889 536.364 165.109C535.924 169.079 532.729 172.284 528.778 172.731C523.582 173.317 519.167 169.227 519.167 164.118C519.167 163.26 519.295 162.43 519.53 161.642H497.233C497.467 162.43 497.6 163.26 497.6 164.118C497.6 169.324 493.006 173.469 487.687 172.695C484.189 172.183 481.325 169.49 480.554 166.022C480.21 164.487 480.302 163.002 480.706 161.642H477.553C476.033 161.642 474.799 160.401 474.799 158.875V109.129L471.953 103.407C471.022 101.53 469.112 100.35 467.029 100.35H458.776C457.078 100.35 455.697 98.9618 455.697 97.2557C455.697 95.5449 457.078 94.157 458.776 94.157H469.131C472.261 94.157 475.12 95.9323 476.52 98.7451L479.783 105.302H536.575C542.505 105.302 546.507 111.394 544.167 116.872H544.171ZM526.717 142.072L537.567 116.636C538.604 114.202 536.828 111.495 534.193 111.495H480.958V144.308H523.344C524.812 144.308 526.139 143.427 526.717 142.072ZM530.26 164.118C530.26 162.753 529.154 161.642 527.791 161.642C526.428 161.642 525.326 162.753 525.326 164.118C525.326 165.483 526.432 166.594 527.791 166.594C529.149 166.594 530.26 165.483 530.26 164.118ZM491.436 164.118C491.436 162.753 490.33 161.642 488.972 161.642C487.613 161.642 486.507 162.753 486.507 164.118C486.507 165.483 487.613 166.594 488.972 166.594C490.33 166.594 491.436 165.483 491.436 164.118Z" fill="#00AD97"/>
<path d="M545.347 310.008C545.347 310.008 543.178 306.202 539.282 306.422C536.788 306.563 534.46 308.646 533.106 310.125C533.532 309.113 534.17 307.635 534.68 306.642C535.52 305.005 538.132 303.588 538.132 303.588C538.132 303.588 534.194 302.35 532.378 305.27C531.629 306.475 531.336 307.912 531.252 309.183C529.868 307.821 527.87 306.304 525.755 306.185C521.859 305.963 519.691 309.77 519.691 309.77C519.691 309.77 520.929 308.84 524.161 308.84C526.022 308.84 528.451 309.749 530.18 310.52C528.345 310.614 525.003 311.13 523.932 313.589C522.426 317.041 523.932 319.961 523.932 319.961C525.798 314.488 529.089 312.653 530.946 312.043C525.733 318.005 523.115 329.211 523.115 333.725H529.015C528.973 330.938 529.015 319.814 532.245 312.382C533.84 312.743 537.82 314.253 539.946 320.491C539.946 320.491 541.451 317.571 539.946 314.119C538.957 311.852 536.036 311.236 534.15 311.079C535.866 310.267 538.747 309.074 540.876 309.074C544.106 309.074 545.347 310.004 545.347 310.004V310.008Z" fill="#008C7B"/>
<path d="M517.652 314.834C517.652 314.834 519.718 310.824 517.652 306.085C516.18 302.709 511.594 301.999 509.074 301.869C511.446 300.809 514.783 299.563 517.336 299.563C521.771 299.563 523.473 300.839 523.473 300.839C523.473 300.839 520.495 295.613 515.148 295.917C512.243 296.082 509.501 298.166 507.602 300.034C507.484 298.288 507.084 296.315 506.055 294.661C503.563 290.652 498.156 292.353 498.156 292.353C498.156 292.353 501.742 294.298 502.896 296.545C503.594 297.907 504.472 299.936 505.056 301.326C503.198 299.292 500.001 296.435 496.578 296.241C491.229 295.937 488.251 301.163 488.251 301.163C488.251 301.163 489.953 299.887 494.388 299.887C497.312 299.887 501.267 301.524 503.622 302.64C501.029 302.854 497.022 303.7 495.664 306.815C493.597 311.554 495.664 315.564 495.664 315.564C498.566 307.046 503.985 304.948 506.199 304.438C510.453 311.672 510.852 329.862 510.793 333.73H517.962C517.597 328.771 516.985 323.941 515.544 319.167C514.282 314.983 512.504 310.914 510.161 307.219C509.562 306.273 508.844 305.046 507.998 303.955C510.544 304.787 515.081 307.297 517.65 314.834H517.652Z" fill="#008C7B"/>
<path fill-rule="evenodd" clip-rule="evenodd" d="M140.387 70.7992H127.859L123.356 102.821C122.548 108.562 127.005 113.69 132.802 113.69H143.883H147.335H150.791H161.872C167.669 113.69 172.126 108.562 171.318 102.821L166.815 70.7992H154.287H147.335H140.387ZM139.162 74.9194C139.162 74.114 138.511 73.4634 137.706 73.4634C136.905 73.4634 136.254 74.1187 136.254 74.9194C136.254 75.7202 136.9 76.3708 137.706 76.3708C138.511 76.3708 139.162 75.7248 139.162 74.9194ZM158.421 74.9194C158.421 74.114 157.77 73.4634 156.965 73.4634C156.164 73.4634 155.513 74.1187 155.513 74.9194C155.513 75.7202 156.159 76.3708 156.965 76.3708C157.77 76.3708 158.421 75.7248 158.421 74.9194Z" fill="#00AD97"/>
<path d="M147.335 53.5895C147.543 53.5895 147.764 53.5983 148.007 53.6115C151.238 53.8017 153.778 55.3638 155.504 58.3997C157.15 61.2848 158.026 65.5156 158.026 71.1889C158.026 72.3571 157.986 73.6139 157.906 74.9592C157.88 75.4504 157.455 75.8264 156.964 75.8C156.473 75.769 156.097 75.3487 156.123 74.8531C156.198 73.5875 156.238 72.3659 156.238 71.1889C156.238 65.8298 155.442 61.8912 153.955 59.2804C152.552 56.8155 150.503 55.5455 147.901 55.3949C147.737 55.3817 147.551 55.3773 147.334 55.3773C147.118 55.3773 146.936 55.3817 146.772 55.3949C144.17 55.5453 142.121 56.8155 140.719 59.2804C139.232 61.8912 138.435 65.8298 138.435 71.1889C138.435 72.3659 138.475 73.5875 138.55 74.8531C138.577 75.3487 138.201 75.769 137.709 75.8C137.218 75.8267 136.793 75.4504 136.767 74.9592C136.687 73.6139 136.647 72.3571 136.647 71.1889C136.647 65.5156 137.524 61.2851 139.165 58.3997C140.896 55.3641 143.436 53.802 146.666 53.6115C146.91 53.5983 147.131 53.5895 147.335 53.5895Z" fill="#00AD97"/>
</g>
<defs>
<clipPath id="clip0_568_10362">
<rect width="600" height="600" fill="white"/>
</clipPath>
<clipPath id="clip1_568_10362">
<rect width="39" height="82" fill="white" transform="translate(157 142)"/>
</clipPath>
</defs>
</svg>
