<svg width="64" height="64" viewBox="0 0 64 64" fill="none" xmlns="http://www.w3.org/2000/svg">
<rect x="9.6001" y="3.20001" width="44.8" height="57.6" rx="2" fill="#BD77C7"/>
<rect x="16" y="9.59998" width="32" height="32" rx="2" fill="#F0CEF5"/>
<path fill-rule="evenodd" clip-rule="evenodd" d="M28 13.6C29.4728 13.6 30.6667 14.7939 30.6667 16.2666V21.6C30.6667 23.0727 29.4728 24.2666 28 24.2666H22.6667C21.1939 24.2666 20 23.0727 20 21.6V16.2666C20 14.7939 21.1939 13.6 22.6667 13.6H28ZM28 17.2666C28 16.7144 27.5523 16.2666 27 16.2666H23.6667C23.1144 16.2666 22.6667 16.7144 22.6667 17.2666V20.6C22.6667 21.1523 23.1144 21.6 23.6667 21.6H27C27.5523 21.6 28 21.1523 28 20.6V17.2666ZM28 26.9333C29.4728 26.9333 30.6667 28.1272 30.6667 29.6V34.9333C30.6667 36.4061 29.4728 37.6 28 37.6H22.6667C21.1939 37.6 20 36.4061 20 34.9333V29.6C20 28.1272 21.1939 26.9333 22.6667 26.9333H28ZM28 30.6C28 30.0477 27.5523 29.6 27 29.6H23.6667C23.1144 29.6 22.6667 30.0477 22.6667 30.6V33.9333C22.6667 34.4856 23.1144 34.9333 23.6667 34.9333H27C27.5523 34.9333 28 34.4856 28 33.9333V30.6ZM44 16.2666C44 14.7939 42.8061 13.6 41.3333 13.6H36C34.5272 13.6 33.3333 14.7939 33.3333 16.2666V21.6C33.3333 23.0727 34.5272 24.2666 36 24.2666H41.3333C42.8061 24.2666 44 23.0727 44 21.6V16.2666ZM40.3333 16.2666C40.8856 16.2666 41.3333 16.7144 41.3333 17.2666V20.6C41.3333 21.1523 40.8856 21.6 40.3333 21.6H37C36.4477 21.6 36 21.1523 36 20.6V17.2666C36 16.7144 36.4477 16.2666 37 16.2666H40.3333ZM41.3333 26.9333C42.8061 26.9333 44 28.1272 44 29.6V34.9333C44 36.4061 42.8061 37.6 41.3333 37.6H36C34.5272 37.6 33.3333 36.4061 33.3333 34.9333V29.6C33.3333 28.1272 34.5272 26.9333 36 26.9333H41.3333ZM41.3333 30.6C41.3333 30.0477 40.8856 29.6 40.3333 29.6H37C36.4477 29.6 36 30.0477 36 30.6V33.9333C36 34.4856 36.4477 34.9333 37 34.9333H40.3333C40.8856 34.9333 41.3333 34.4856 41.3333 33.9333V30.6ZM26.6667 18.9333C26.6667 19.6697 26.0697 20.2666 25.3333 20.2666C24.597 20.2666 24 19.6697 24 18.9333C24 18.1969 24.597 17.6 25.3333 17.6C26.0697 17.6 26.6667 18.1969 26.6667 18.9333ZM38.6667 33.6C39.403 33.6 40 33.003 40 32.2666C40 31.5303 39.403 30.9333 38.6667 30.9333C37.9303 30.9333 37.3333 31.5303 37.3333 32.2666C37.3333 33.003 37.9303 33.6 38.6667 33.6Z" fill="#742384"/>
<rect x="16" y="46.4" width="32" height="7.2" rx="2" fill="#10CBB4"/>
</svg>
