<svg width="16" height="16" viewBox="0 0 16 16" fill="none" xmlns="http://www.w3.org/2000/svg">
<path fill-rule="evenodd" clip-rule="evenodd" d="M8.00001 1.33325C11.682 1.33325 14.6667 4.31859 14.6667 7.99992C14.6667 11.6813 11.682 14.6666 8.00001 14.6666C4.31801 14.6666 1.33334 11.6813 1.33334 7.99992C1.33334 4.31859 4.31801 1.33325 8.00001 1.33325ZM8.00001 2.66659C5.05934 2.66659 2.66668 5.05925 2.66668 7.99992C2.66668 10.9406 5.05934 13.3333 8.00001 13.3333C10.9407 13.3333 13.3333 10.9406 13.3333 7.99992C13.3333 5.05925 10.9407 2.66659 8.00001 2.66659ZM10 9.33325H8.00001C7.63134 9.33325 7.33334 9.03525 7.33334 8.66658V5.33325C7.33334 4.96459 7.63134 4.66658 8.00001 4.66658C8.36868 4.66658 8.66668 4.96459 8.66668 5.33325V7.99992H10C10.3687 7.99992 10.6667 8.29792 10.6667 8.66658C10.6667 9.03525 10.3687 9.33325 10 9.33325Z" fill="#7D758D"/>
</svg>
