<svg width="487" height="487" viewBox="0 0 100 100" fill="none" xmlns="http://www.w3.org/2000/svg">
<path d="M99.9307 52.2887C99.9307 74.9262 83.7294 97.6206 50.0042 97.6206C22.4306 97.6206 0.0777588 79.2693 0.0777588 56.6318C0.0777588 44.0188 5.26813 28.6726 18.6148 24.8723C31.9615 21.0721 33.2269 33.701 47.5622 33.701C61.8975 33.7009 70.626 25.5756 85.007 29.0966C95.8606 31.7539 99.9307 41.4273 99.9307 52.2887Z" fill="#8B3D99"/>
<mask id="mask0_686_12448" style="mask-type:alpha" maskUnits="userSpaceOnUse" x="0" y="23" width="100" height="75">
<path d="M99.9307 52.289C99.9307 74.9265 83.7294 97.621 50.0042 97.621C22.4306 97.621 0.0777588 79.2696 0.0777588 56.6321C0.0777588 44.0191 5.26813 28.673 18.6148 24.8727C31.9615 21.0724 33.2269 26.656 47.5622 26.656C61.8975 26.6559 70.626 25.5759 85.007 29.0969C95.8606 31.7543 99.9307 41.4276 99.9307 52.289Z" fill="#8B3D99"/>
</mask>
<g mask="url(#mask0_686_12448)">
<path fill-rule="evenodd" clip-rule="evenodd" d="M54.8852 65.7405C61.881 64.9842 68.1653 70.0423 68.9216 77.0381C70.8643 95.0077 79.8415 136.875 86.643 156.551C88.942 163.201 85.4144 170.456 78.7639 172.755C72.1135 175.054 64.8586 171.526 62.5597 164.876C55.0916 143.272 45.722 99.5203 43.5876 79.777C42.8313 72.7812 47.8894 66.4968 54.8852 65.7405Z" fill="#DCAC82"/>
<path d="M52.6526 91.6041C59.4765 93.4307 66.5379 89.1977 68.4245 82.1494C70.3112 75.1012 66.3088 67.9066 59.4848 66.08C52.6609 64.2534 45.5996 68.4864 43.7129 75.5347C41.8262 82.5829 45.8287 89.7775 52.6526 91.6041Z" fill="#DCAC82"/>
<path d="M63.3208 62.6318L67.2547 72.2134L44.8839 85.4653L32.2888 82.0227L39.3748 56.0852L63.3208 62.6318Z" fill="#DCAC82"/>
<path d="M68.4067 82.2156C69.0109 80.1563 69.7768 76.9586 70.02 73.0028C70.3359 67.7864 69.4789 65.2101 69.402 60.9663C69.358 58.3013 69.6136 54.6552 70.9185 50.1958C71.4672 48.324 70.4535 46.3732 68.6366 45.8595C66.9567 45.388 65.1673 46.3149 64.5446 48.0082C63.3708 51.2061 62.4802 54.5729 61.9205 58.0883C60.566 58.8746 57.6755 60.8088 55.8479 64.51C52.4961 71.2935 55.6689 78.0401 56.0686 78.8419L68.4067 82.2156Z" fill="#DCAC82"/>
<path d="M58.3879 82.5045C57.76 80.9524 55.9328 75.9063 57.5644 69.6525C59.1196 63.6846 62.8697 60.2409 64.1821 59.137C63.8131 58.6553 63.1931 57.707 62.9041 56.3331C62.6071 54.9298 62.808 53.7636 62.953 53.1624C62.7118 54.1427 62.4871 55.1602 62.2726 56.2188C62.1454 56.8522 62.0309 57.478 61.9254 58.0898C57.0006 59.2935 53.1297 63.2082 52.0279 68.1158C50.774 73.7103 53.3402 79.6161 58.3865 82.5096L58.3879 82.5045Z" fill="#BE906A"/>
<g clip-path="url(#clip0_686_12448)">
<path d="M54.793 88.4739L67.5145 39.4672C67.8002 38.3665 67.1344 37.2413 66.0273 36.954L44.2455 31.2996C43.1384 31.0123 42.0094 31.6715 41.7236 32.7721L29.0021 81.7789C28.7164 82.8795 29.3822 84.0047 30.4893 84.2921L52.2711 89.9464C53.3782 90.2338 54.5073 89.5745 54.793 88.4739Z" fill="#403556"/>
<path d="M55.192 86.937L67.9136 37.9302C68.1993 36.8296 67.5335 35.7044 66.4264 35.417L44.6445 29.7627C43.5375 29.4753 42.4084 30.1346 42.1227 31.2352L29.4011 80.2419C29.1154 81.3426 29.7812 82.4677 30.8883 82.7551L52.6702 88.4094C53.7772 88.6968 54.9063 88.0376 55.192 86.937Z" fill="#2C2044"/>
<path d="M54.509 84.4193L66.0922 39.7979C66.234 39.2518 65.9036 38.6935 65.3543 38.5509L44.0517 33.021C43.5025 32.8784 42.9423 33.2055 42.8005 33.7516L31.2173 78.373C31.0756 78.9191 31.4059 79.4774 31.9552 79.6199L53.2578 85.1498C53.8071 85.2924 54.3673 84.9653 54.509 84.4193Z" fill="#742384"/>
<path d="M52.3705 34.0923L57.5647 35.4407C57.8664 35.519 58.1741 35.3394 58.2519 35.0394L58.2692 34.9729C58.3471 34.6729 58.1656 34.3663 57.864 34.288L52.6697 32.9397C52.368 32.8613 52.0604 33.041 51.9825 33.3409L51.9652 33.4075C51.8874 33.7074 52.0688 34.014 52.3705 34.0923Z" fill="#544A69"/>
</g>
<g clip-path="url(#clip1_686_12448)">
<rect x="43.0834" y="32.7284" width="24.0355" height="48.071" rx="10" transform="rotate(14.5521 43.0834 32.7284)" fill="#742384"/>
<g opacity="0.4" clip-path="url(#clip2_686_12448)">
<path d="M50.5512 56.3929L74.8251 54.1575L78.0327 41.8011L77.5603 41.6785L50.3472 55.6446L51.8506 55.5756L50.5512 56.3929Z" fill="#8B3D99"/>
<path d="M54.7156 35.7483L49.8063 54.66L74.1093 40.7827L63.5057 38.0301L51.4498 52.3221L58.1037 42.7061L56.9814 42.9726L57.4932 41.6523L55.5963 42.8467L58.6683 36.7743L54.7156 35.7483Z" fill="#8B3D99"/>
<path d="M48.5154 55.292L47.8864 52.7936L48.4365 53.9003L47.3854 33.8454L36.6505 31.0587L48.5154 55.292Z" fill="#8B3D99"/>
<path d="M29.718 36.1694L47.072 54.2478L31.3218 42.5597L36.6963 48.0655L27.7127 43.8945L29.718 36.1694Z" fill="#8B3D99"/>
<path d="M22.4299 64.2448L47.0984 62.2525L45.2852 62.7429L46.8567 62.7503L20.1825 76.4481L19.3202 76.2243L22.4299 64.2448Z" fill="#8B3D99"/>
<path d="M47.7168 63.9894L42.787 75.9475L42.4054 73.0498L38.3935 81.1755L25.5691 77.8464L47.7168 63.9894Z" fill="#8B3D99"/>
<path d="M48.7802 63.0661L60.3423 86.8732L49.8099 84.1391L48.7264 64.4735L49.3207 65.8717L48.7802 63.0661Z" fill="#8B3D99"/>
<path d="M50.3625 64.2871L67.5255 82.2774L69.5317 74.5493L60.6968 70.455L65.6897 75.556L50.3625 64.2871Z" fill="#8B3D99"/>
</g>
</g>
<path fill-rule="evenodd" clip-rule="evenodd" d="M50.9038 48.7843C51.1788 48.732 51.4626 48.8057 51.6775 48.9851C52.8557 49.9688 56.7711 53.2375 58.1113 54.3564C58.389 54.5881 58.508 54.959 58.4172 55.309L56.9098 61.1158C55.4635 66.6871 49.4566 68.6494 47.005 69.2267C46.3419 69.3829 45.6444 69.2018 45.1411 68.7428C43.2797 67.0457 38.9856 62.4094 40.4318 56.8383L41.9392 51.0314C42.0301 50.6813 42.3145 50.4152 42.6698 50.3477C44.385 50.0221 49.3957 49.0706 50.9038 48.7843Z" fill="#00AD97"/>
<path fill-rule="evenodd" clip-rule="evenodd" d="M46.4686 67.4591C46.1065 67.3651 45.769 67.182 45.4925 66.9301C44.6847 66.1937 43.5423 64.986 42.6874 63.4153C42.1905 62.5025 41.8533 61.5738 41.6846 60.6551C41.4828 59.555 41.5206 58.4574 41.797 57.3928L43.0877 52.46C43.1846 52.09 43.4857 51.8087 43.8614 51.7374L50.4365 50.4886C50.7278 50.4332 51.0285 50.5113 51.2561 50.7014L56.4019 54.9972C56.696 55.2427 56.8222 55.6359 56.726 56.0066L55.4465 60.9356C55.1701 62.0004 54.6692 62.9779 53.9579 63.8407C53.3638 64.5614 52.6173 65.2087 51.7391 65.7646C50.2282 66.721 48.6427 67.2206 47.5784 67.4712C47.2143 67.557 46.8306 67.5526 46.4683 67.4586L46.4686 67.4591Z" fill="#10CBB4"/>
<path fill-rule="evenodd" clip-rule="evenodd" d="M47.4463 59.8957C47.4463 59.8957 46.4992 58.2844 45.9258 57.309C45.8123 57.1161 45.6271 56.9762 45.4104 56.9199C45.1937 56.8636 44.9638 56.8959 44.7709 57.0092C44.5779 57.1224 44.4381 57.3078 44.3818 57.5245C44.3255 57.7412 44.3576 57.9711 44.4711 58.1641L46.3062 61.2863C46.4495 61.53 46.6838 61.7069 46.9575 61.778C47.2311 61.849 47.5219 61.8084 47.7657 61.6651L53.214 58.4625C53.6157 58.2264 53.7499 57.7093 53.5137 57.3078C53.2776 56.9061 52.7605 56.7718 52.359 57.008C50.8349 57.9039 47.446 59.896 47.446 59.896L47.4463 59.8957Z" fill="white"/>
<path d="M37.5705 50.7643C39.0089 51.7909 41.0032 51.4104 42.0249 49.9143C43.0465 48.4183 42.7087 46.3732 41.2703 45.3465L38.6951 43.5085C37.2566 42.4819 35.2624 42.8624 34.2407 44.3585C33.219 45.8546 33.5569 47.8996 34.9953 48.9263L37.5705 50.7643Z" fill="#DCAC82"/>
<path d="M35.6749 59.5698C37.2581 60.344 39.1727 59.6414 39.9513 58.0004C40.7298 56.3595 40.0775 54.4016 38.4942 53.6273L35.1075 51.9711C33.5243 51.1969 31.6097 51.8995 30.8311 53.5405C30.0526 55.1814 30.7049 57.1394 32.2882 57.9136L35.6749 59.5698Z" fill="#DCAC82"/>
<path d="M33.105 67.8624C34.7516 68.4866 36.6001 67.6113 37.2337 65.9076C37.8673 64.2039 37.046 62.3168 35.3994 61.6927L31.9824 60.3975C30.3357 59.7734 28.4872 60.6486 27.8537 62.3523C27.2201 64.0561 28.0414 65.9432 29.688 66.5673L33.105 67.8624Z" fill="#DCAC82"/>
<path d="M31.3178 76.6418C32.9644 77.2659 34.8129 76.3907 35.4464 74.687C36.08 72.9833 35.2588 71.0962 33.6121 70.472L30.6498 69.3492C29.0031 68.7251 27.1547 69.6003 26.5211 71.304C25.8875 73.0078 26.7088 74.8949 28.3554 75.519L31.3178 76.6418Z" fill="#DCAC82"/>
</g>
<ellipse cx="50.3636" cy="15.0606" rx="12.7273" ry="12.7273" fill="#FDF0FF"/>
<ellipse cx="12.909" cy="41.6061" rx="12.7273" ry="12.7273" fill="#FDF0FF"/>
<ellipse cx="86.909" cy="41.6061" rx="12.7273" ry="12.7273" fill="#FDF0FF"/>
<path d="M80.3208 37.6355H93.4973V48.2237C93.4973 48.7435 93.0759 49.1649 92.5561 49.1649H81.262C80.7422 49.1649 80.3208 48.7435 80.3208 48.2237V37.6355Z" fill="#F0CEF5"/>
<path d="M82.6737 45.1649C82.6737 44.6451 83.0951 44.2237 83.6149 44.2237H90.2031C90.7229 44.2237 91.1443 44.6451 91.1443 45.1649V49.1649H82.6737V45.1649Z" fill="#CE92D6"/>
<path fill-rule="evenodd" clip-rule="evenodd" d="M81.0742 34.6829C81.3402 34.3203 81.763 34.106 82.2127 34.106H91.6054C92.0551 34.106 92.4779 34.3203 92.7439 34.6829L94.9091 37.6355H78.9091L81.0742 34.6829Z" fill="#F0CEF5"/>
<rect x="82.6737" y="41.4001" width="8.47059" height="1.88235" rx="0.470588" fill="#10CBB4"/>
<path d="M78.9091 37.6355H82.2032V38.8119C82.2032 39.7216 81.4658 40.459 80.5561 40.459C79.6465 40.459 78.9091 39.7216 78.9091 38.8119V37.6355Z" fill="#8B3D99"/>
<path d="M82.2031 37.6355H85.2619V38.9296C85.2619 39.7743 84.5772 40.459 83.7325 40.459C82.8879 40.459 82.2031 39.7743 82.2031 38.9296V37.6355Z" fill="#CE92D6"/>
<path d="M85.262 37.6355H88.5561V38.8119C88.5561 39.7216 87.8187 40.459 86.909 40.459C85.9994 40.459 85.262 39.7216 85.262 38.8119V37.6355Z" fill="#8B3D99"/>
<path d="M85.262 37.6355H88.5561L88.0855 34.106H85.7326L85.262 37.6355Z" fill="#CE92D6"/>
<path d="M78.9091 37.6355H82.2032L83.3796 34.106H81.4264C81.1784 34.106 80.9486 34.2361 80.8211 34.4488L78.9091 37.6355Z" fill="#CE92D6"/>
<path d="M94.9091 37.6355H91.6149L90.4385 34.106H92.3917C92.6397 34.106 92.8695 34.2361 92.997 34.4488L94.9091 37.6355Z" fill="#CE92D6"/>
<path d="M88.5562 37.6355H91.615V38.9296C91.615 39.7743 90.9302 40.459 90.0856 40.459C89.2409 40.459 88.5562 39.7743 88.5562 38.9296V37.6355Z" fill="#CE92D6"/>
<path d="M91.615 37.6355H94.9091V38.8119C94.9091 39.7216 94.1717 40.459 93.262 40.459C92.3524 40.459 91.615 39.7216 91.615 38.8119V37.6355Z" fill="#8B3D99"/>
<path d="M15.3091 36.8061H17.7091C18.5927 36.8061 19.3091 37.5224 19.3091 38.4061V40.4061C19.3091 41.2897 18.5927 42.0061 17.7091 42.0061H15.3091V36.8061Z" fill="#F4C12A"/>
<path d="M8.20327 36.686C8.72202 37.2048 8.59334 37.8103 8.48089 38.1082C8.43371 38.2333 8.33629 38.3307 8.21128 38.3779C7.91334 38.4903 7.30781 38.619 6.78905 38.1002C6.06909 37.3803 6.41621 36.3132 6.41621 36.3132C6.41621 36.3132 7.4833 35.9661 8.20327 36.686Z" fill="#10CBB4"/>
<rect x="10.109" y="34.406" width="5.2" height="7.6" rx="1.6" fill="#10CBB4"/>
<ellipse cx="9.30903" cy="40.406" rx="2.8" ry="2.8" fill="#F4C12A"/>
<rect x="12.109" y="36.8061" width="4.8" height="5.2" rx="1.6" fill="#F9DD8F"/>
<path d="M5.90652 43.7827C5.80121 42.8349 6.54311 42.006 7.49673 42.006H18.3215C19.2751 42.006 20.017 42.8349 19.9117 43.7827L19.7835 44.9361C19.5134 47.367 17.4587 49.206 15.0129 49.206H10.8053C8.35948 49.206 6.30477 47.367 6.03467 44.9361L5.90652 43.7827Z" fill="#8B3D99"/>
<rect x="4.90906" y="40.406" width="16" height="2.8" rx="1.4" fill="#CE92D6"/>
<rect x="8.90906" y="44.006" width="1.6" height="3.6" rx="0.8" fill="#CE92D6"/>
<rect x="12.109" y="44.006" width="1.6" height="3.6" rx="0.8" fill="#CE92D6"/>
<rect x="15.3091" y="44.006" width="1.6" height="3.6" rx="0.8" fill="#CE92D6"/>
<rect x="19.9204" y="36.8095" width="1.6" height="9.6" rx="0.8" transform="rotate(60 19.9204 36.8095)" fill="#CE92D6"/>
<path fill-rule="evenodd" clip-rule="evenodd" d="M11.7091 34.006C11.7091 33.7851 11.8882 33.606 12.1091 33.606H13.3091C13.53 33.606 13.7091 33.7851 13.7091 34.006C13.7091 34.227 13.53 34.406 13.3091 34.406H12.1091C11.8882 34.406 11.7091 34.227 11.7091 34.006Z" fill="#8B3D99"/>
<path fill-rule="evenodd" clip-rule="evenodd" d="M12.109 38.606C12.109 38.2747 12.3776 38.006 12.709 38.006H13.509C13.8404 38.006 14.109 38.2747 14.109 38.606C14.109 38.9374 13.8404 39.206 13.509 39.206H12.709C12.3776 39.206 12.109 38.9374 12.109 38.606Z" fill="#F4C12A"/>
<g clip-path="url(#clip3_686_12448)">
<path d="M56.0495 14.2385L48.6449 18.4198C48.3893 18.5641 48.2987 18.8839 48.4424 19.134L50.5108 22.7328C50.6546 22.9829 50.9783 23.0687 51.2339 22.9243L58.6385 18.7431C58.8941 18.5987 58.9847 18.279 58.841 18.0289L56.7725 14.4301C56.6288 14.18 56.3051 14.0942 56.0495 14.2385Z" fill="#006B5F"/>
<path fill-rule="evenodd" clip-rule="evenodd" d="M56.6593 15.2988L58.0939 17.795C57.9144 18.0175 57.8328 18.3024 57.8687 18.5813L51.6018 22.1203C51.342 21.9196 50.9943 21.8498 50.6676 21.9395L49.2756 19.5175C49.5539 19.2524 49.6667 18.8587 49.5686 18.4949L55.7593 14.9989C55.9926 15.2353 56.3289 15.3448 56.6593 15.2988Z" fill="#004D43"/>
<path d="M56.152 17.6098C56.3436 17.5017 56.412 17.2628 56.3048 17.0763C56.1976 16.8898 55.9554 16.8264 55.7638 16.9345C55.5722 17.0427 55.5038 17.2816 55.611 17.4681C55.7181 17.6546 55.9604 17.718 56.152 17.6098Z" fill="#006B5F"/>
<path d="M51.6355 20.1628C51.8271 20.0546 51.8955 19.8157 51.7883 19.6293C51.6811 19.4428 51.4389 19.3793 51.2473 19.4875C51.0557 19.5957 50.9873 19.8345 51.0945 20.021C51.2017 20.2075 51.4439 20.271 51.6355 20.1628Z" fill="#006B5F"/>
<path fill-rule="evenodd" clip-rule="evenodd" d="M53.0456 17.2777C53.748 16.8811 54.6361 17.1141 55.0293 17.798C55.4224 18.4819 55.1717 19.3577 54.4694 19.7543C53.767 20.1508 52.8788 19.9178 52.4857 19.234C52.0925 18.5501 52.3432 17.6742 53.0456 17.2777Z" fill="#006B5F"/>
<path fill-rule="evenodd" clip-rule="evenodd" d="M54.0094 18.8692C54.0064 18.9313 53.9863 18.9873 53.9493 19.0372C53.9257 19.0677 53.8952 19.0969 53.858 19.125C53.8208 19.1531 53.7752 19.1823 53.7215 19.2127L53.41 19.3885C53.3651 19.4139 53.3272 19.422 53.2963 19.4127C53.2654 19.4034 53.2373 19.3768 53.212 19.3327L52.7717 18.5668C52.7459 18.5219 52.7371 18.484 52.7455 18.4531C52.7539 18.4223 52.7801 18.3945 52.8241 18.3697L53.1542 18.1832C53.2028 18.1558 53.2468 18.135 53.286 18.1208C53.3252 18.1066 53.3638 18.1003 53.4018 18.1014C53.4341 18.1022 53.466 18.1083 53.4972 18.1199C53.5284 18.1314 53.5566 18.1478 53.5815 18.1689C53.6066 18.1901 53.6276 18.2154 53.6446 18.2451C53.7033 18.3471 53.6951 18.4503 53.6203 18.5554C53.7788 18.5223 53.8934 18.5675 53.9642 18.6907C53.9974 18.7476 54.0123 18.807 54.0094 18.8692ZM53.4461 18.5536C53.4686 18.5281 53.4793 18.4975 53.4784 18.4617C53.4787 18.4357 53.4721 18.4107 53.4583 18.3866C53.4287 18.3352 53.3907 18.3113 53.3444 18.3151C53.2981 18.3189 53.2373 18.342 53.1623 18.3843L52.9948 18.4789L53.1462 18.7423L53.3353 18.6356C53.3866 18.6064 53.4236 18.5791 53.4461 18.5536ZM54.7577 18.5001C54.7535 18.5517 54.7323 18.6013 54.6934 18.6487C54.6546 18.696 54.5996 18.7399 54.5281 18.7803C54.4599 18.8187 54.3955 18.8414 54.335 18.848C54.2744 18.8545 54.2233 18.8489 54.1823 18.8307C54.1412 18.8125 54.1116 18.7877 54.0935 18.7561C54.0815 18.7353 54.0785 18.7132 54.0849 18.69C54.0912 18.6667 54.1057 18.6488 54.1284 18.636C54.1483 18.6248 54.1664 18.621 54.1827 18.6246C54.1989 18.6283 54.217 18.6362 54.2368 18.6484C54.2759 18.6713 54.3136 18.6834 54.3502 18.6848C54.3869 18.6862 54.4287 18.6736 54.4755 18.6472C54.5136 18.6257 54.5397 18.5997 54.5544 18.569C54.5691 18.5384 54.57 18.5123 54.5574 18.4904C54.5383 18.457 54.5116 18.4398 54.4776 18.4389C54.4436 18.4377 54.3936 18.4467 54.3277 18.4656C54.2531 18.4862 54.19 18.4993 54.1388 18.5045C54.0875 18.5099 54.0412 18.5048 53.9999 18.4894C53.9585 18.4741 53.9255 18.4452 53.9011 18.4026C53.8792 18.3645 53.8699 18.3222 53.8732 18.2757C53.8765 18.229 53.8946 18.1832 53.9272 18.138C53.9599 18.0928 54.0076 18.0526 54.07 18.0173C54.1191 17.9896 54.1664 17.9698 54.2113 17.9579C54.2564 17.9459 54.2968 17.9412 54.3329 17.9436C54.3691 17.946 54.3998 17.9537 54.4255 17.9668C54.4512 17.9799 54.4697 17.9964 54.4811 18.0163C54.4936 18.038 54.4965 18.06 54.4901 18.0822C54.4835 18.1043 54.4666 18.1231 54.4398 18.1383C54.4202 18.1493 54.4005 18.1531 54.3804 18.1497C54.3603 18.1462 54.335 18.1384 54.3047 18.1261C54.2797 18.1157 54.2542 18.1103 54.2284 18.1104C54.2024 18.1102 54.1728 18.1196 54.1394 18.1385C54.1052 18.1578 54.0809 18.1813 54.0665 18.2086C54.0521 18.2359 54.0512 18.2606 54.0638 18.2824C54.0752 18.3023 54.093 18.3139 54.1171 18.3174C54.1411 18.3206 54.1695 18.3185 54.2027 18.3108C54.2357 18.3032 54.2805 18.2914 54.337 18.2755C54.404 18.2566 54.462 18.2467 54.5108 18.2454C54.5595 18.2442 54.6014 18.2518 54.6363 18.2681C54.671 18.2843 54.6986 18.3099 54.7185 18.3446C54.7487 18.3964 54.7618 18.4484 54.7577 18.5001ZM53.4452 18.7691C53.517 18.7285 53.5778 18.7095 53.6272 18.7123C53.6768 18.7151 53.7162 18.7421 53.7459 18.7937C53.8036 18.8942 53.7627 18.9838 53.6233 19.0626L53.4015 19.1878L53.2305 18.8903L53.4452 18.7691Z" fill="#004D43"/>
<path d="M52.1946 10.5807L46.4591 18.7499C46.2611 19.0318 46.3266 19.4165 46.6054 19.6091L50.6174 22.3796C50.8962 22.5722 51.2827 22.4997 51.4807 22.2177L57.2163 14.0485C57.4143 13.7665 57.3487 13.3818 57.0699 13.1893L53.0579 10.4187C52.7791 10.2262 52.3926 10.2987 52.1946 10.5807Z" fill="#00AD97"/>
<path fill-rule="evenodd" clip-rule="evenodd" d="M53.3768 11.3975L56.1591 13.3188C56.0813 13.6452 56.1388 13.9884 56.3178 14.2658L51.4642 21.179C51.0874 21.0974 50.6836 21.1989 50.3827 21.4588L47.6831 19.5946C47.8441 19.1731 47.7646 18.699 47.4767 18.363L52.2714 11.5338C52.6381 11.6666 53.0499 11.6129 53.3768 11.3975Z" fill="#008C7B"/>
<path d="M54.0047 14.1083C54.1532 13.8968 54.105 13.6088 53.8969 13.4651C53.6888 13.3214 53.3997 13.3764 53.2511 13.588C53.1026 13.7995 53.1509 14.0875 53.359 14.2312C53.567 14.3749 53.8561 14.3199 54.0047 14.1083Z" fill="#00AD97"/>
<path d="M50.5137 19.0828C50.6623 18.8712 50.614 18.5832 50.4059 18.4395C50.1978 18.2958 49.9087 18.3509 49.7602 18.5624C49.6116 18.774 49.6599 19.062 49.868 19.2057C50.0761 19.3494 50.3652 19.2943 50.5137 19.0828Z" fill="#00AD97"/>
<path fill-rule="evenodd" clip-rule="evenodd" d="M50.5459 15.3177C51.0906 14.5419 52.1506 14.3401 52.9136 14.8669C53.6765 15.3937 53.8534 16.4497 53.3087 17.2255C52.764 18.0012 51.7039 18.2031 50.941 17.6762C50.178 17.1494 50.0011 16.0935 50.5459 15.3177Z" fill="#00AD97"/>
<path fill-rule="evenodd" clip-rule="evenodd" d="M52.3729 16.5188C52.401 16.5862 52.4081 16.6557 52.394 16.7272C52.3844 16.7715 52.3668 16.8179 52.3415 16.8665C52.3163 16.915 52.2828 16.9691 52.2411 17.0284L51.9997 17.3722C51.9649 17.4218 51.9289 17.4495 51.8913 17.4553C51.8539 17.461 51.8107 17.447 51.7616 17.4131L50.9078 16.8235C50.8577 16.7889 50.8293 16.7531 50.8226 16.7162C50.8159 16.6793 50.8296 16.6365 50.8637 16.588L51.1196 16.2236C51.1572 16.1699 51.1933 16.1256 51.2277 16.0908C51.2621 16.056 51.2999 16.0297 51.3407 16.0117C51.3754 15.9962 51.4122 15.9866 51.4512 15.9831C51.4901 15.9796 51.5283 15.9827 51.5654 15.9924C51.6026 16.0023 51.6377 16.0185 51.6708 16.0414C51.7845 16.1199 51.828 16.2335 51.8018 16.3826C51.953 16.2675 52.0974 16.2575 52.2348 16.3523C52.2987 16.3959 52.3445 16.4514 52.3729 16.5188ZM51.6161 16.4688C51.627 16.4304 51.623 16.3925 51.604 16.355C51.5911 16.3273 51.5715 16.3041 51.5447 16.2856C51.4873 16.246 51.435 16.2399 51.3878 16.2673C51.3407 16.2947 51.2878 16.3499 51.2297 16.4327L51.0999 16.6176L51.3935 16.8204L51.5401 16.6117C51.5797 16.5548 51.6051 16.5072 51.6161 16.4688ZM52.9797 15.7494C53.0014 15.8062 53.0039 15.8696 52.9866 15.9395C52.9695 16.0092 52.9333 16.0835 52.8779 16.1624C52.8251 16.2377 52.7682 16.2942 52.7073 16.3318C52.6464 16.3694 52.5894 16.3892 52.5367 16.3906C52.4839 16.3922 52.44 16.3807 52.4048 16.3564C52.3816 16.3404 52.3674 16.3185 52.3623 16.2907C52.3573 16.2628 52.3636 16.2365 52.3812 16.2114C52.3966 16.1895 52.4139 16.1763 52.433 16.1719C52.452 16.1676 52.4752 16.1669 52.5024 16.1698C52.5554 16.1743 52.6014 16.1681 52.641 16.1511C52.6806 16.1341 52.7186 16.0996 52.7549 16.048C52.7844 16.0059 52.799 15.9651 52.7991 15.9252C52.7992 15.8853 52.7869 15.8571 52.7625 15.8403C52.7253 15.8146 52.6883 15.8098 52.6518 15.826C52.6152 15.842 52.5667 15.8767 52.5064 15.93C52.4377 15.9896 52.3775 16.0353 52.3258 16.0667C52.2741 16.0983 52.2225 16.1164 52.1709 16.121C52.1193 16.1256 52.0697 16.1116 52.0222 16.0788C51.9798 16.0495 51.9486 16.0094 51.9286 15.9583C51.9084 15.9072 51.9045 15.8494 51.9163 15.785C51.9281 15.7206 51.9583 15.6539 52.0067 15.585C52.0448 15.5308 52.0849 15.4859 52.1265 15.4506C52.1683 15.4151 52.2088 15.3897 52.2483 15.374C52.2877 15.3583 52.3242 15.3509 52.358 15.3518C52.3919 15.3528 52.4199 15.3609 52.4421 15.3762C52.4663 15.3929 52.4805 15.4148 52.4849 15.4416C52.489 15.4683 52.4807 15.4967 52.4598 15.5264C52.4447 15.548 52.4257 15.562 52.4027 15.5685C52.3796 15.575 52.3488 15.5795 52.3105 15.5818C52.2787 15.5833 52.249 15.5905 52.2216 15.6036C52.194 15.6166 52.1674 15.6415 52.1415 15.6783C52.115 15.7161 52.101 15.7533 52.0996 15.7896C52.0982 15.8258 52.1097 15.8523 52.1341 15.8692C52.1562 15.8845 52.1809 15.8878 52.2082 15.8793C52.2353 15.8706 52.2644 15.854 52.2957 15.8291C52.3268 15.8044 52.3684 15.7693 52.4202 15.7238C52.4818 15.6699 52.5382 15.6301 52.5893 15.6041C52.6404 15.5783 52.6886 15.565 52.7338 15.5648C52.7788 15.5644 52.821 15.5776 52.8597 15.6043C52.9178 15.6439 52.958 15.6925 52.9797 15.7494ZM51.7256 16.6971C51.7813 16.6178 51.8361 16.567 51.8899 16.545C51.9438 16.5229 51.9993 16.5316 52.0568 16.5713C52.1688 16.6487 52.1708 16.7644 52.0627 16.9184L51.8908 17.1632L51.5592 16.9342L51.7256 16.6971Z" fill="#008C7B"/>
<path d="M46.9141 8.75574L44.3673 20.0589C44.2794 20.4491 44.5207 20.8341 44.9062 20.9189L50.4543 22.1391C50.8398 22.2239 51.2237 21.9764 51.3116 21.5862L53.8584 10.283C53.9463 9.89286 53.705 9.50783 53.3195 9.42304L47.7714 8.20282C47.3858 8.11803 47.002 8.36557 46.9141 8.75574Z" fill="#12DEC4"/>
<path fill-rule="evenodd" clip-rule="evenodd" d="M48.5493 9.11582L52.3963 9.96201C52.4575 10.3471 52.6717 10.6911 52.9876 10.911L50.8325 20.4761C50.3909 20.5537 50.0014 20.84 49.7928 21.2516L46.0601 20.4305C46.0462 19.9066 45.7502 19.4314 45.2913 19.1963L47.4201 9.74737C47.8737 9.72934 48.293 9.49099 48.5493 9.11582Z" fill="#00AD97"/>
<path d="M50.4259 11.756C50.4919 11.4633 50.312 11.1746 50.0242 11.1113C49.7363 11.048 49.4495 11.234 49.3835 11.5268C49.3175 11.8196 49.4974 12.1082 49.7852 12.1715C50.0731 12.2348 50.3599 12.0488 50.4259 11.756Z" fill="#12DEC4"/>
<path d="M48.8817 18.6387C48.9477 18.3459 48.7679 18.0573 48.48 17.994C48.1921 17.9307 47.9053 18.1167 47.8393 18.4095C47.7733 18.7022 47.9532 18.9909 48.2411 19.0542C48.5289 19.1175 48.8158 18.9314 48.8817 18.6387Z" fill="#12DEC4"/>
<path fill-rule="evenodd" clip-rule="evenodd" d="M47.2427 14.5756C47.4855 13.5014 48.5372 12.818 49.5919 13.0493C50.6466 13.2806 51.3048 14.339 51.062 15.4132C50.8193 16.4875 49.7675 17.1709 48.7129 16.9396C47.6582 16.7083 47 15.6499 47.2427 14.5756Z" fill="#12DEC4"/>
<path fill-rule="evenodd" clip-rule="evenodd" d="M49.7411 15.0643C49.8011 15.1243 49.8394 15.1959 49.8559 15.2791C49.8652 15.331 49.8668 15.3887 49.8611 15.452C49.8554 15.5153 49.8432 15.5882 49.8246 15.6704L49.7169 16.1465C49.7014 16.2151 49.6749 16.2608 49.6371 16.2836C49.5993 16.3061 49.5466 16.3101 49.4788 16.2953L48.2997 16.037C48.2306 16.0218 48.1841 15.9959 48.1606 15.9591C48.1371 15.9223 48.133 15.8702 48.1482 15.8031L48.2623 15.2984C48.2791 15.2242 48.2984 15.1606 48.32 15.108C48.3416 15.0554 48.3706 15.0106 48.4066 14.9732C48.437 14.9413 48.4724 14.9147 48.5127 14.8938C48.5531 14.8729 48.5955 14.8594 48.6397 14.8536C48.6842 14.8478 48.729 14.8498 48.7748 14.8599C48.9318 14.8943 49.0288 14.9972 49.0665 15.1692C49.1783 14.9788 49.3292 14.9044 49.5189 14.946C49.6069 14.9647 49.6808 15.0042 49.7411 15.0643ZM48.9049 15.3436C48.8997 15.2974 48.8785 15.2585 48.8415 15.2266C48.8154 15.2024 48.784 15.1861 48.747 15.178C48.6679 15.1607 48.6089 15.1772 48.5702 15.2274C48.5316 15.2776 48.4992 15.3603 48.4733 15.4749L48.4153 15.7309L48.8209 15.8198L48.8862 15.5308C48.9038 15.4521 48.9101 15.3897 48.9049 15.3436ZM50.0538 13.9695C50.1022 14.0211 50.1329 14.0881 50.1452 14.1709C50.1576 14.2534 50.1515 14.3494 50.1268 14.4586C50.1032 14.5628 50.0671 14.6486 50.0181 14.7159C49.9692 14.7831 49.9167 14.8295 49.8606 14.8542C49.8045 14.8791 49.7522 14.8862 49.7037 14.8755C49.6716 14.8685 49.6466 14.8512 49.6289 14.8235C49.6111 14.7958 49.6063 14.7647 49.6141 14.73C49.621 14.6996 49.6338 14.6778 49.6524 14.6647C49.671 14.6516 49.6956 14.6407 49.7262 14.6318C49.7851 14.6134 49.8319 14.5864 49.867 14.5507C49.902 14.515 49.9277 14.4611 49.9439 14.3896C49.957 14.3314 49.9547 14.2811 49.9372 14.2381C49.9196 14.1952 49.894 14.1703 49.8603 14.1629C49.8089 14.1516 49.767 14.1628 49.7349 14.1962C49.7025 14.2296 49.6658 14.2883 49.6244 14.3722C49.5769 14.4665 49.5323 14.5422 49.4906 14.5987C49.4489 14.6555 49.4014 14.6976 49.3479 14.7253C49.2945 14.7529 49.2349 14.7597 49.1694 14.7454C49.1108 14.7325 49.0595 14.7031 49.0154 14.657C48.9711 14.6108 48.9413 14.5505 48.9255 14.476C48.9097 14.4015 48.9128 14.3165 48.9344 14.221C48.9514 14.146 48.9747 14.0801 49.0038 14.0238C49.0331 13.9672 49.0654 13.922 49.101 13.8878C49.1365 13.8535 49.1724 13.8295 49.2093 13.8156C49.2461 13.8017 49.2798 13.7981 49.3104 13.8048C49.3438 13.8121 49.3688 13.8294 49.3854 13.8563C49.4017 13.8832 49.4052 13.9174 49.3959 13.9585C49.3892 13.9884 49.375 14.0118 49.353 14.029C49.3311 14.0461 49.3 14.0645 49.2597 14.0838C49.2262 14.0995 49.1975 14.1203 49.1738 14.1465C49.1498 14.1725 49.1322 14.211 49.1207 14.2621C49.1088 14.3144 49.1103 14.3605 49.1248 14.4001C49.1393 14.4398 49.1634 14.4633 49.197 14.4706C49.2276 14.4773 49.2557 14.4701 49.2812 14.4489C49.3065 14.4276 49.3305 14.397 49.3531 14.3564C49.3757 14.3161 49.4049 14.26 49.4405 14.1883C49.483 14.1033 49.5261 14.0355 49.5696 13.9851C49.613 13.9348 49.6591 13.8994 49.7076 13.8792C49.7559 13.859 49.807 13.8546 49.8605 13.8663C49.9405 13.8833 50.0053 13.9179 50.0538 13.9695ZM49.1251 15.5411C49.1499 15.4313 49.1864 15.3525 49.2346 15.3052C49.2828 15.2576 49.3464 15.2426 49.4258 15.26C49.5805 15.2939 49.6337 15.4176 49.5855 15.6307L49.5088 15.9697L49.0508 15.8694L49.1251 15.5411Z" fill="#00AD97"/>
<path d="M41.9454 8.29789L42.6554 21.2599C42.68 21.7073 43.0589 22.0509 43.5019 22.0273L49.8763 21.6882C50.3192 21.6647 50.6585 21.2829 50.634 20.8355L49.9239 7.87346C49.8994 7.42604 49.5204 7.08244 49.0774 7.10601L42.7031 7.4451C42.2601 7.46866 41.9209 7.85047 41.9454 8.29789Z" fill="#5FF7E4"/>
<path fill-rule="evenodd" clip-rule="evenodd" d="M43.8241 8.19812L48.2446 7.96296C48.4288 8.36049 48.7659 8.66779 49.1749 8.8109L49.7758 19.7803C49.3218 19.9959 48.9883 20.4213 48.8889 20.9278L44.5998 21.156C44.4243 20.5946 43.9585 20.17 43.39 20.0532L42.7964 9.21705C43.2815 9.06214 43.662 8.67964 43.8241 8.19812Z" fill="#12DEC4"/>
<path d="M46.6679 10.4851C46.6495 10.1495 46.3666 9.89165 46.036 9.90923C45.7054 9.92682 45.4523 10.2131 45.4707 10.5488C45.4891 10.8844 45.772 11.1422 46.1026 11.1246C46.4332 11.107 46.6863 10.8207 46.6679 10.4851Z" fill="#5FF7E4"/>
<path d="M47.0976 18.3822C47.0792 18.0465 46.7963 17.7887 46.4657 17.8063C46.1351 17.8239 45.882 18.1102 45.9004 18.4458C45.9188 18.7815 46.2017 19.0393 46.5323 19.0217C46.8629 19.0041 47.1159 18.7178 47.0976 18.3822Z" fill="#5FF7E4"/>
<path fill-rule="evenodd" clip-rule="evenodd" d="M44.0848 14.4801C44.0169 13.2491 44.9441 12.1992 46.1558 12.1351C47.3675 12.0711 48.4048 13.0171 48.4726 14.2482C48.5405 15.4792 47.6133 16.5291 46.4016 16.5931C45.1899 16.6572 44.1526 15.7111 44.0848 14.4801Z" fill="#5FF7E4"/>
<path fill-rule="evenodd" clip-rule="evenodd" d="M46.9372 14.2647C47.0206 14.3117 47.0841 14.3776 47.1277 14.4625C47.1537 14.5157 47.1731 14.5775 47.1865 14.6475C47.1999 14.7175 47.2092 14.7998 47.2144 14.894L47.2446 15.4397C47.249 15.5184 47.2344 15.5755 47.2005 15.6113C47.1666 15.6468 47.1109 15.6668 47.0329 15.6709L45.6776 15.7422C45.5982 15.7463 45.5399 15.7321 45.5031 15.6994C45.4663 15.6667 45.4458 15.6117 45.4416 15.5348L45.4095 14.9563C45.4048 14.8712 45.406 14.7969 45.4132 14.7337C45.4203 14.6705 45.4379 14.6135 45.4653 14.5625C45.4884 14.519 45.5185 14.4799 45.5557 14.4454C45.5929 14.4108 45.6346 14.3837 45.6806 14.3643C45.727 14.3448 45.7761 14.3337 45.8287 14.3309C46.0092 14.3214 46.1459 14.4038 46.2397 14.5781C46.302 14.3395 46.4423 14.2145 46.6603 14.203C46.7613 14.1971 46.8534 14.2178 46.9372 14.2647ZM46.1186 14.8143C46.0987 14.7661 46.0638 14.7303 46.014 14.7068C45.9783 14.6885 45.9393 14.6803 45.8968 14.6825C45.8058 14.6873 45.747 14.7226 45.7207 14.7883C45.6945 14.8539 45.6848 14.9527 45.6921 15.0841L45.7084 15.3776L46.1745 15.3531L46.1561 15.0219C46.1509 14.9318 46.1384 14.8626 46.1186 14.8143ZM46.9379 12.9905C47.0063 13.0318 47.0602 13.095 47.099 13.1807C47.1378 13.2661 47.1608 13.3715 47.1677 13.4967C47.1744 13.6161 47.1617 13.7194 47.1295 13.8065C47.0973 13.8936 47.0547 13.9592 47.0017 14.0025C46.9487 14.0461 46.8943 14.0692 46.8385 14.0721C46.8016 14.0741 46.7693 14.0629 46.7415 14.0382C46.7138 14.0135 46.699 13.9815 46.6968 13.9417C46.6948 13.9068 46.7019 13.8795 46.718 13.8599C46.7341 13.8402 46.7573 13.8211 46.7877 13.8025C46.8458 13.7651 46.8881 13.7221 46.915 13.6731C46.942 13.6242 46.9531 13.5584 46.9486 13.4765C46.9449 13.4098 46.9268 13.3562 46.8946 13.315C46.8624 13.2739 46.827 13.2546 46.7883 13.2566C46.7292 13.2597 46.6873 13.2843 46.6629 13.3298C46.6381 13.3755 46.6165 13.4497 46.5976 13.5525C46.5753 13.6684 46.5503 13.7633 46.5227 13.8367C46.4951 13.9103 46.4566 13.9698 46.4073 14.0156C46.358 14.0613 46.2957 14.0863 46.2203 14.0903C46.153 14.0938 46.0884 14.0772 46.0265 14.0406C45.9643 14.0039 45.9135 13.9476 45.8735 13.872C45.8334 13.7963 45.8105 13.7036 45.8045 13.5942C45.7997 13.5082 45.8045 13.4301 45.8188 13.3607C45.833 13.291 45.854 13.2327 45.8819 13.1852C45.9098 13.1376 45.9412 13.101 45.9768 13.0751C46.0124 13.0492 46.0478 13.0353 46.083 13.0334C46.1214 13.0314 46.1537 13.0426 46.1799 13.0668C46.2058 13.0909 46.2203 13.1269 46.2229 13.174C46.2248 13.2082 46.2166 13.2377 46.1982 13.2627C46.1797 13.2878 46.1517 13.3168 46.1141 13.3496C46.0827 13.3765 46.0581 13.4074 46.0405 13.4427C46.0226 13.478 46.0154 13.5247 46.0186 13.5832C46.022 13.6432 46.0377 13.6926 46.0656 13.731C46.0935 13.7694 46.1268 13.7876 46.1655 13.7856C46.2007 13.7838 46.2288 13.7676 46.2499 13.7372C46.2708 13.7067 46.2872 13.6665 46.2992 13.616C46.3113 13.5658 46.3255 13.4967 46.3419 13.4086C46.3616 13.3043 46.3874 13.2184 46.4189 13.1511C46.4504 13.084 46.4893 13.032 46.5356 12.9958C46.5816 12.9597 46.6356 12.9398 46.6971 12.9366C46.7889 12.9312 46.8696 12.9492 46.9379 12.9905ZM46.4152 14.9621C46.4083 14.8363 46.4234 14.7404 46.4609 14.6751C46.4985 14.6094 46.5626 14.5743 46.6539 14.5695C46.8317 14.5602 46.9274 14.6778 46.941 14.9221L46.9625 15.3107L46.4361 15.3384L46.4152 14.9621Z" fill="#12DEC4"/>
</g>
<g clip-path="url(#clip4_686_12448)">
<path fill-rule="evenodd" clip-rule="evenodd" d="M96.3308 81.2929C95.6268 81.5923 95.0663 82.1526 94.7663 82.8541C94.3838 83.7491 93.8362 85.0279 93.4001 86.048C93.1333 86.6714 92.2493 86.6703 91.9824 86.048L90.6162 82.8541C90.3162 82.1516 89.7558 81.5923 89.0518 81.2929C88.1549 80.9112 86.8733 80.3648 85.8511 79.9296C85.2264 79.6633 85.2264 78.7812 85.8511 78.5149C86.8733 78.0797 88.1549 77.5333 89.0518 77.1516C89.7558 76.8522 90.3162 76.2919 90.6162 75.5904C90.9988 74.6955 91.5463 73.4166 91.9824 72.3965C92.2493 71.7731 93.1333 71.7731 93.4001 72.3965C93.8362 73.4166 94.3838 74.6955 94.7663 75.5904C95.0663 76.293 95.6278 76.8522 96.3308 77.1516C97.2277 77.5333 98.5092 78.0797 99.5315 78.5149C100.156 78.7812 100.156 79.6633 99.5315 79.9296C98.5092 80.3648 97.2277 80.9112 96.3308 81.2929Z" fill="#BD77C7"/>
<path fill-rule="evenodd" clip-rule="evenodd" d="M82.0918 64.3784C81.8287 64.4903 81.6192 64.6998 81.5071 64.9619C81.3641 65.2964 81.1595 65.7744 80.9965 66.1556C80.8968 66.3886 80.5664 66.3882 80.4667 66.1556L79.9561 64.9619C79.8439 64.6994 79.6345 64.4903 79.3714 64.3784C79.0362 64.2358 78.5572 64.0316 78.1752 63.8689C77.9417 63.7694 77.9417 63.4397 78.1752 63.3402C78.5572 63.1776 79.0362 62.9733 79.3714 62.8307C79.6345 62.7188 79.8439 62.5094 79.9561 62.2472C80.099 61.9127 80.3037 61.4348 80.4667 61.0535C80.5664 60.8205 80.8968 60.8205 80.9965 61.0535C81.1595 61.4348 81.3641 61.9127 81.5071 62.2472C81.6192 62.5098 81.8291 62.7188 82.0918 62.8307C82.427 62.9733 82.906 63.1776 83.288 63.3402C83.5215 63.4397 83.5215 63.7694 83.288 63.8689C82.906 64.0316 82.427 64.2358 82.0918 64.3784Z" fill="#BD77C7"/>
</g>
<g clip-path="url(#clip5_686_12448)">
<path fill-rule="evenodd" clip-rule="evenodd" d="M11.789 69.6702C12.1659 70.5546 12.8713 71.2587 13.7544 71.6356C14.8812 72.1162 16.4912 72.8041 17.7755 73.3519C18.5604 73.6871 18.559 74.7977 17.7755 75.1329L13.7544 76.8493C12.87 77.2262 12.1659 77.9302 11.789 78.8147C11.3084 79.9414 10.6205 81.5514 10.0726 82.8356C9.73738 83.6204 8.62676 83.6204 8.29156 82.8356C7.74366 81.5514 7.05575 79.9414 6.57516 78.8147C6.19823 77.9302 5.49282 77.2262 4.60971 76.8493C3.48295 76.3687 1.8729 75.6808 0.588624 75.1329C-0.196208 74.7977 -0.196208 73.6871 0.588624 73.3519C1.8729 72.8041 3.48295 72.1162 4.60971 71.6356C5.49417 71.2587 6.19823 70.5533 6.57516 69.6702C7.05575 68.5435 7.74366 66.9335 8.29156 65.6492C8.62676 64.8644 9.73738 64.8644 10.0726 65.6492C10.6205 66.9335 11.3084 68.5435 11.789 69.6702Z" fill="#BD77C7"/>
</g>
<defs>
<clipPath id="clip0_686_12448">
<rect width="26.6457" height="56.3366" fill="white" transform="translate(42.6399 29.2424) rotate(14.5521)"/>
</clipPath>
<clipPath id="clip1_686_12448">
<rect x="43.0834" y="32.7284" width="24.0355" height="48.071" rx="10" transform="rotate(14.5521 43.0834 32.7284)" fill="white"/>
</clipPath>
<clipPath id="clip2_686_12448">
<rect width="48.1798" height="48.071" fill="white" transform="translate(31.3986 29.6954) rotate(14.5521)"/>
</clipPath>
<clipPath id="clip3_686_12448">
<rect width="18.1667" height="17.1667" fill="white" transform="translate(41.3334 6.5)"/>
</clipPath>
<clipPath id="clip4_686_12448">
<rect width="25.6364" height="22" fill="white" transform="translate(100 60.8788) rotate(90)"/>
</clipPath>
<clipPath id="clip5_686_12448">
<rect width="18.3636" height="18.3636" fill="white" transform="translate(0 65.0606)"/>
</clipPath>
</defs>
</svg>
