<svg width="80" height="80" viewBox="0 0 40 40" fill="none" xmlns="http://www.w3.org/2000/svg">
<path d="M18.181 7.1552L5.15149 12.7512C6.11796 12.3366 7.23657 12.784 7.6512 13.7475L13.8319 28.1342C14.0914 28.7398 14.7924 29.0202 15.3979 28.7607L26.2349 24.1073C26.8405 23.8477 27.1209 23.1468 26.8613 22.5412L20.6807 8.1515C20.2661 7.18503 19.1475 6.74057 18.181 7.1552Z" fill="#E3B2EB"/>
<path d="M5.1515 12.7512C4.18503 13.1658 3.74057 14.2844 4.1552 15.2509L5.45278 18.2756C5.64667 18.729 6.17465 18.9408 6.62806 18.7439L9.30077 17.5955L7.64822 13.7505C7.23359 12.784 6.11499 12.3396 5.14852 12.7542L5.1515 12.7512Z" fill="#A35AAD"/>
<path fill-rule="evenodd" clip-rule="evenodd" d="M23.2311 20.131L14.5836 23.8447C14.2733 23.979 13.9154 23.8358 13.7811 23.5256C13.6469 23.2153 13.7901 22.8574 14.1003 22.7232L22.7479 19.0094C23.0581 18.8752 23.4161 19.0183 23.5503 19.3286C23.6845 19.6388 23.5413 19.9967 23.2311 20.131Z" fill="#A35AAD"/>
<path fill-rule="evenodd" clip-rule="evenodd" d="M18.8074 23.1915L23.6487 21.1124C23.959 20.9782 24.3169 21.1214 24.4511 21.4316C24.5854 21.7418 24.4422 22.0998 24.132 22.234L19.2906 24.3131C18.9804 24.4473 18.6225 24.3042 18.4882 23.9939C18.354 23.6837 18.4972 23.3258 18.8074 23.1915Z" fill="#A35AAD"/>
<path d="M16.6278 24.128L14.986 24.833C14.6847 24.9624 14.5454 25.3115 14.6747 25.6127L14.6889 25.6456C14.8182 25.9468 15.1673 26.0862 15.4685 25.9568L17.1103 25.2518C17.4116 25.1224 17.5509 24.7733 17.4216 24.4721L17.4074 24.4392C17.2781 24.138 16.929 23.9986 16.6278 24.128Z" fill="#A35AAD"/>
<path fill-rule="evenodd" clip-rule="evenodd" d="M35.4845 23.0213C36.9486 19.3814 35.1873 15.2453 31.5529 13.7812C27.9185 12.3171 23.7769 14.0784 22.31 17.7183C20.9223 21.1646 22.5445 23.1685 22.8254 25.1561C22.9317 25.9087 22.5991 26.6939 22.5991 26.6939L29.0854 29.3032C29.0854 29.3032 29.3908 28.5125 29.9824 28.0353C31.7356 26.6203 34.2276 26.1486 35.4845 23.0213Z" fill="#F4C12A"/>
<path fill-rule="evenodd" clip-rule="evenodd" d="M21.7974 30.6582C21.6802 31.8061 22.4082 32.9785 23.6324 33.472C24.8566 33.9655 26.198 33.6219 26.9069 32.714L21.7947 30.6555L21.7974 30.6582Z" fill="#918AA0"/>
<path d="M22.5969 26.6911L21.1118 30.3815L27.5896 32.9881L29.0746 29.2978L22.5969 26.6911Z" fill="#918AA0"/>
<path d="M22.6008 26.6953C22.1775 26.525 21.6965 26.7295 21.5265 27.152C21.3564 27.5746 21.5617 28.0553 21.985 28.2256L28.4527 30.8282C28.8759 30.9985 29.3569 30.794 29.527 30.3714C29.697 29.9489 29.4917 29.4682 29.0684 29.2979L22.6008 26.6953Z" fill="#544A69"/>
<path fill-rule="evenodd" clip-rule="evenodd" d="M28.202 31.4598L21.732 28.856C21.3094 28.687 20.8295 28.8915 20.6578 29.3141C20.486 29.7367 20.6932 30.2165 21.1158 30.3883L27.5858 32.9921C28.0084 33.1612 28.4883 32.9567 28.66 32.5341C28.8318 32.1114 28.6246 31.6316 28.202 31.4598Z" fill="#544A69"/>
<path d="M30.9885 21.4018C30.6313 21.2573 30.2141 21.3173 29.8461 21.5654C29.478 21.8135 29.1672 22.2388 28.9436 22.795L28.5646 23.7411C28.3056 23.6593 28.0138 23.5557 27.6867 23.4221C27.3868 23.3021 27.0977 23.1795 26.8278 23.0513L27.2123 22.0998C27.4358 21.5436 27.504 21.0201 27.4113 20.5866C27.3186 20.1503 27.0596 19.8204 26.7024 19.6759C26.1053 19.436 25.2737 19.7577 24.8375 20.8428C24.3494 22.0561 25.0147 22.8523 25.8654 23.3948L24.2676 27.3674L24.9793 27.6536L26.5443 23.7656C26.8496 23.9102 27.1468 24.0301 27.4004 24.1337C27.4004 24.1337 27.4004 24.1337 27.4031 24.1337C27.4058 24.1337 27.4031 24.1337 27.4058 24.1337C27.6567 24.2346 27.9566 24.3546 28.2756 24.4609L26.7106 28.3489L27.4222 28.6352L29.0199 24.6627C30.0124 24.8617 31.043 24.7472 31.531 23.5339C31.9673 22.4515 31.591 21.6417 30.9939 21.399L30.9885 21.4018ZM26.1544 22.6696C25.5791 22.2743 25.2764 21.7917 25.5436 21.1264C25.789 20.5157 26.1762 20.2894 26.4134 20.3848C26.5334 20.4339 26.6206 20.562 26.6615 20.7474C26.7051 20.9437 26.7106 21.29 26.5006 21.8108L26.1544 22.6696ZM29.3117 23.9265L29.6525 23.0786C29.8624 22.5551 30.1051 22.3124 30.2741 22.1979C30.4323 22.0916 30.5849 22.0589 30.7022 22.1079C30.9394 22.2034 31.0621 22.6342 30.8167 23.2449C30.6286 23.7111 30.3532 24.101 29.3117 23.9238V23.9265Z" fill="#AA841B"/>
<path d="M15.6047 19.5716L13.7286 20.373C13.4578 20.4887 13.2381 20.5116 13.0695 20.4416C12.9026 20.3677 12.7625 20.1981 12.6492 19.9329L10.6778 15.3179C10.5621 15.0471 10.5378 14.828 10.605 14.6607C10.6738 14.4893 10.8408 14.347 11.106 14.2337L13.0952 13.384C13.3884 13.2588 13.6502 13.1684 13.8806 13.1128C14.1111 13.0573 14.3336 13.0448 14.548 13.0754C14.7302 13.0999 14.9057 13.1553 15.0746 13.2416C15.2423 13.3251 15.3901 13.4353 15.5179 13.5722C15.6445 13.7063 15.746 13.8627 15.8223 14.0414C16.0847 14.6556 15.9696 15.2362 15.477 15.7834C16.3936 15.6956 17.0105 16.023 17.3277 16.7656C17.4744 17.109 17.5189 17.4565 17.461 17.808C17.402 18.1568 17.2512 18.4605 17.0085 18.7194C16.8549 18.8774 16.6637 19.0251 16.4352 19.1624C16.2054 19.2968 15.9286 19.4332 15.6047 19.5716ZM14.348 16.8847L13.054 17.4375L13.8196 19.2298L15.1555 18.6592C15.9959 18.3002 16.2867 17.8178 16.0279 17.212C15.8955 16.9021 15.6906 16.7238 15.4132 16.6773C15.1358 16.6307 14.7807 16.6998 14.348 16.8847ZM11.9949 14.9583L12.6729 16.5455L13.812 16.0589C14.1219 15.9265 14.3481 15.7952 14.4905 15.665C14.6358 15.5337 14.7179 15.3665 14.7369 15.1636C14.7566 15.0166 14.7354 14.8704 14.6734 14.7253C14.541 14.4154 14.3431 14.2573 14.0796 14.251C13.8149 14.2419 13.4565 14.334 13.0042 14.5272L11.9949 14.9583Z" fill="#A35AAD"/>
<path d="M22.1635 15.1258C22.2983 15.4412 22.3372 15.7448 22.2803 16.0366C22.2221 16.3255 22.0673 16.593 21.8159 16.8391C21.5661 17.0812 21.2262 17.294 20.7962 17.4777C20.3858 17.653 20.0072 17.7405 19.6604 17.7401C19.3136 17.7396 19.0304 17.6757 18.8109 17.5483C18.5902 17.4181 18.4394 17.2581 18.3583 17.0682C18.3046 16.9426 18.3033 16.816 18.3545 16.6885C18.4057 16.561 18.4997 16.468 18.6365 16.4096C18.7565 16.3583 18.8612 16.3483 18.9504 16.3795C19.0397 16.4107 19.1363 16.4668 19.2403 16.5478C19.4446 16.7015 19.6492 16.7941 19.854 16.8254C20.0617 16.8556 20.3065 16.8104 20.5885 16.6899C20.8174 16.5921 20.983 16.462 21.0852 16.2995C21.1891 16.133 21.213 15.9841 21.1569 15.8529C21.0711 15.6519 20.9317 15.5381 20.7388 15.5115C20.5486 15.4838 20.2612 15.5026 19.8764 15.5679C19.441 15.6384 19.0764 15.6736 18.7827 15.6737C18.4905 15.6697 18.2328 15.6114 18.0097 15.4988C17.7866 15.3861 17.6202 15.2013 17.5105 14.9445C17.4127 14.7155 17.3886 14.4699 17.4384 14.2077C17.4881 13.9455 17.62 13.6977 17.8339 13.4643C18.0495 13.227 18.3457 13.0278 18.7226 12.8668C19.0185 12.7404 19.2969 12.6578 19.5576 12.619C19.8212 12.5791 20.0532 12.5774 20.2536 12.6139C20.4569 12.6492 20.6259 12.7124 20.7605 12.8034C20.8979 12.8933 20.9923 12.9982 21.0435 13.1183C21.0996 13.2495 21.1008 13.3761 21.0473 13.498C20.9965 13.6187 20.8902 13.7137 20.7282 13.7828C20.611 13.8329 20.4962 13.8424 20.3838 13.8111C20.2742 13.7787 20.1377 13.7182 19.9744 13.6295C19.8401 13.5548 19.7001 13.509 19.5542 13.4921C19.4083 13.4751 19.2349 13.5096 19.0339 13.5955C18.8273 13.6837 18.6746 13.8018 18.576 13.9495C18.4762 14.0945 18.4543 14.2326 18.5103 14.3638C18.5616 14.4839 18.6542 14.5615 18.7881 14.5968C18.9208 14.6292 19.0831 14.6342 19.2748 14.6117C19.4666 14.5892 19.7274 14.5504 20.0571 14.4954C20.4486 14.4305 20.7817 14.4104 21.0563 14.435C21.3338 14.4585 21.5649 14.5281 21.7497 14.6439C21.9362 14.7557 22.0741 14.9164 22.1635 15.1258Z" fill="#A35AAD"/>
</svg>
