<svg width="600" height="600" viewBox="0 0 600 600" fill="none" xmlns="http://www.w3.org/2000/svg">
<g clip-path="url(#clip0_568_10366)">
<path d="M521.001 555.913V37.3499C521.001 25.7037 511.536 16.2626 499.86 16.2626L270.141 16.2626C258.466 16.2626 249.001 25.7037 249.001 37.3499L249.001 555.913C249.001 567.559 258.466 577 270.141 577H499.86C511.536 577 521.001 567.559 521.001 555.913Z" fill="#403556"/>
<path d="M521.001 539.65V21.0872C521.001 9.44098 511.536 -0.00012207 499.86 -0.00012207L270.141 -0.00012207C258.466 -0.00012207 249.001 9.44098 249.001 21.0872L249.001 539.65C249.001 551.296 258.466 560.737 270.141 560.737H499.86C511.536 560.737 521.001 551.296 521.001 539.65Z" fill="#2C2044"/>
<path d="M507.795 516.448L507.795 44.2885C507.795 38.5103 503.099 33.8262 497.306 33.8262L272.641 33.8262C266.849 33.8262 262.153 38.5103 262.153 44.2885V516.448C262.153 522.227 266.849 526.911 272.641 526.911H497.306C503.099 526.911 507.795 522.227 507.795 516.448Z" fill="#742384"/>
<path d="M357.584 23.0387L412.364 23.0387C415.546 23.0387 418.125 20.4661 418.125 17.2925V16.5878C418.125 13.4143 415.546 10.8417 412.364 10.8417L357.584 10.8417C354.402 10.8417 351.823 13.4143 351.823 16.5878V17.2925C351.823 20.4661 354.402 23.0387 357.584 23.0387Z" fill="#544A69"/>
<path fill-rule="evenodd" clip-rule="evenodd" d="M420.42 201.451L406.161 227.958C405.575 229.043 404.235 229.442 403.17 228.848C402.103 228.263 401.706 226.906 402.293 225.82L416.551 199.308C417.137 198.228 418.477 197.83 419.543 198.418C420.609 199.007 421.001 200.366 420.42 201.451ZM389.938 229.534C381.706 229.534 379.44 224.052 378.859 221.313C378.612 220.234 378.606 219.475 378.606 219.11C378.606 217.817 379.64 216.77 380.91 216.77C382.099 216.77 383.067 217.681 383.197 218.843C383.197 218.854 383.206 218.859 383.206 218.869C383.218 218.94 383.228 219.067 383.24 219.235C383.255 219.366 383.276 219.498 383.276 219.638C383.276 219.731 383.283 219.824 383.287 219.923C383.31 220.113 383.331 220.32 383.368 220.533C383.454 220.987 383.605 221.493 383.858 222.006C383.89 222.055 383.911 222.106 383.938 222.154C384.719 223.626 386.322 225.071 389.422 225.236C394.087 225.372 395.464 223.789 395.481 221.825C395.303 219.552 395.169 217.914 389.782 215.684C383.481 213.076 379.462 211.499 379.462 206.04C379.462 200.584 384.46 198.331 389.039 198.331C390.192 198.331 391.192 198.468 392.085 198.686C393.872 199.045 395.851 199.788 397.331 201.262V201.25C397.708 201.588 398.106 202.085 398.456 202.683C398.493 202.746 398.531 202.804 398.563 202.865C398.655 203.028 398.741 203.203 398.827 203.383C398.854 203.443 398.881 203.497 398.908 203.557C399.36 204.571 399.683 205.771 399.683 206.999C399.683 207.217 399.71 207.583 399.634 207.992C399.629 208.029 399.618 208.063 399.613 208.101C399.591 208.194 399.559 208.287 399.521 208.385C399.505 208.429 399.494 208.467 399.473 208.505C399.462 208.538 399.446 208.57 399.424 208.61C399.042 209.371 398.273 209.902 397.369 209.902C396.572 209.902 395.884 209.492 395.469 208.876C395.438 208.82 395.405 208.767 395.377 208.711C395.313 208.604 395.26 208.483 395.216 208.362C395.212 208.348 395.201 208.331 395.201 208.315C395.179 208.255 395.158 208.188 395.147 208.13C395.038 207.759 394.991 207.36 394.991 207.027C394.991 206.955 394.986 206.89 394.98 206.819C394.98 206.709 394.974 206.612 394.964 206.509C394.894 205.93 394.726 205.472 394.523 205.101C394.501 205.063 394.48 205.025 394.458 204.987C394.415 204.921 394.378 204.861 394.335 204.795C393.183 203.115 390.723 202.263 388.927 202.263C386.505 202.263 383.906 203.612 383.906 206.089C383.906 208.559 386.236 210.044 390.185 211.364C397.901 214.228 399.494 216.546 400.189 219.372C400.953 222.465 399.629 229.534 389.938 229.534ZM432.963 203.65C428.691 184.219 409.394 172.037 389.874 176.45C370.348 180.87 357.987 200.202 362.265 219.634C363.675 226.055 366.726 231.684 370.89 236.184C373.027 238.503 368.264 251.289 370.912 252.958C373.091 254.333 382.614 244.7 385.047 245.584C391.326 247.859 398.327 248.42 405.354 246.833C424.875 242.418 437.24 223.087 432.963 203.65Z" fill="#10CBB4"/>
<path fill-rule="evenodd" clip-rule="evenodd" d="M420.592 262.915C423.414 261.366 428.687 260.882 431.224 264.371C433.767 267.855 434.355 274.446 433.987 279.874C433.613 285.497 431.405 295.157 427.983 301.938C424.667 308.529 420.18 313.164 413.892 312.16C408.931 311.367 406.567 308.361 406.221 307.885L406.176 307.821C406.176 307.821 405.846 309.331 404.902 315.704C404.635 317.487 404.363 319.794 404.048 322.261C408.193 321.673 411.403 321.23 412.795 321.06C418.508 320.355 440.154 317.54 446.189 317.35C452.226 317.152 453.47 318.124 454.429 319.673C455.383 321.229 455.771 323.75 453.949 325.595C452.134 327.434 437.094 328.404 430.002 329.371C425.675 329.967 412.917 331.68 402.242 333.166C401.683 335.478 401.011 337.347 400.184 338.318C397.449 341.522 394.62 340.34 393.792 338.318C393.351 337.231 393.382 335.643 393.507 334.403C390.632 334.819 388.358 335.163 387.091 335.383C383.984 335.926 376.305 337.359 368.241 338.994L366.035 339.445C359.04 340.884 352.042 342.427 347.737 343.63C346.939 346.09 346.137 348.552 345.295 350.996C342.068 360.366 337.897 369.408 331.425 376.987C329.226 379.557 326.781 381.971 323.886 383.693C320.987 385.413 317.592 386.427 314.251 386.056C309.487 385.539 305.644 382.039 304.433 377.386C303.177 372.572 304.691 367.263 306.524 362.751C308.49 357.888 311.411 353.424 314.962 349.588C317.705 346.614 320.809 344.007 324.14 341.724C326.499 339.978 329.501 338.059 333.074 336.355C334.491 335.685 336.059 335.056 337.709 334.483C337.94 334.386 338.171 334.289 338.403 334.196C338.715 334.069 339.033 333.939 339.249 333.682C339.438 333.469 339.524 333.19 339.61 332.912C341.615 326.363 343.803 319.865 345.92 313.344C345.424 314.86 343.679 316.482 342.612 317.562C340.284 319.903 337.175 322.184 333.801 322.407C331.823 322.538 329.776 321.954 328.256 320.662C326.418 319.095 325.498 316.639 325.281 314.216C324.997 311.095 325.633 307.866 326.29 304.826C326.964 301.704 327.852 298.627 328.844 295.593C329.512 293.546 330.234 291.512 330.967 289.493C331.63 287.68 332.552 285.841 332.782 283.915C333.036 281.781 332.524 279.522 333.296 278.032C334.065 276.543 336.054 276.887 337.929 277.269C339.81 277.645 341.852 279.975 341.664 282.556C341.47 285.143 340.322 288.445 339.551 290.965C338.792 293.487 337.127 298.659 336.55 301.181C335.979 303.701 335.041 308.029 336.937 309.394C339.362 311.14 342.618 308.297 345.172 304.35C347.505 300.749 350.728 291.484 351.687 288.701C352.646 285.923 354.78 279.08 355.47 276.941C356.154 274.797 357.75 272.734 360.114 271.31C362.475 269.886 364.971 269.63 366.63 270.207C368.29 270.791 367.012 275.058 366.63 276.543L366.607 276.626C366.236 278.01 362.494 291.546 358.844 304.737L358.27 306.815C354.831 319.244 351.639 330.773 351.639 330.773C351.633 330.796 351.627 330.811 351.621 330.827C357.054 329.708 361.969 328.924 364.728 328.334L365.091 328.259C368.374 327.596 377.926 326.109 387.69 324.651L390.035 324.302C391.882 324.028 393.719 323.758 395.505 323.497C396.033 320.727 396.654 317.463 397.329 313.921C394.859 315.487 391.598 316.883 389.017 316.033C385.129 314.745 385.025 310.225 385.025 310.225C382.847 315.615 378.652 319.761 372.979 318.913C367.307 318.073 365.689 314.101 364.994 311.142C364.294 308.184 362.833 300.982 366.853 288.89C370.874 276.796 377.613 269.079 383.176 268.269C388.738 267.46 391.468 271.05 391.468 271.05L392.229 268.644C392.989 266.239 395.505 266.38 398.054 267.135C400.604 267.895 400.822 270.11 400.291 272.406C400.07 273.36 399.36 276.583 398.607 280.017L398.153 282.087C397.25 286.212 396.413 290.05 396.413 290.05C396.413 290.05 392.393 305.742 396.282 304.58C397.644 304.176 398.675 303.54 399.439 302.886C399.645 301.793 399.855 300.695 400.065 299.597L400.698 296.293C403.577 281.272 406.336 267.02 406.67 265.81C407.395 263.182 409.071 263.4 412.288 264.174C415.511 264.949 414.727 266.246 414.727 266.246L414.182 270.063C414.709 268.776 417.758 264.463 420.592 262.915ZM335.714 346.953C335.714 346.953 326.871 350.248 320.14 358.762C314.773 365.549 312.3 372.463 314.251 374.865C316.692 377.877 321.364 372.905 322.927 371.099C326.095 367.439 328.531 363.203 330.698 358.877C331.748 356.769 332.745 354.636 333.65 352.464C334.076 351.439 334.486 350.407 334.868 349.369C334.981 349.053 335.45 347.05 335.714 346.953ZM449.178 261.324C452.346 258.666 455.83 258.032 459.907 258.719C461.067 258.914 462.194 259.344 463.152 260.017C469.626 264.54 465.678 274.043 462.178 279.245C459.641 283.011 455.961 285.748 451.779 287.513C450.374 288.11 447.713 289.153 445.148 289.213C445.045 289.217 444.021 291.874 443.798 293.439C443.543 295.247 443.701 298.06 444.974 299.243C447.98 302.057 453.26 298.592 455.602 296.629C456.657 295.741 457.778 294.907 458.655 293.849C459.477 292.87 460.915 290.676 462.314 291.128C463.462 291.498 464.165 293.628 464.529 294.525C464.529 294.525 465.57 297.039 464.823 298.556C464.077 300.073 458.726 304.854 457.495 305.81C456.276 306.763 451.883 309.505 448.012 310.463C444.936 311.221 441.403 310.889 438.806 308.974C437.141 307.754 435.97 305.961 435.263 304.035C434.549 302.115 434.277 300.066 434.152 298.022C433.667 289.647 435.92 280.616 439.955 273.237C443.499 266.739 444.926 264.878 449.178 261.324ZM389.8 280.785C390.511 277.182 387.983 276.412 385.807 277.258C383.099 278.306 379.424 280.383 376.442 287.126C374.868 290.697 373.964 294.399 373.734 297.529C373.504 300.662 373.98 306.253 377.678 306.963C380.987 307.593 383.373 302.345 385.523 295.901C387.53 289.871 389.121 284.216 389.8 280.785ZM424.892 280.114C425.161 276.44 424.337 269.277 419.224 272.997C415.095 275.989 413.129 283.07 411.53 289.078C409.838 295.429 408.697 301.715 408.697 301.715C411.107 304.397 415.507 302.975 417.588 300.82C419.966 298.368 421.184 295.015 422.306 291.803C423.629 288.02 424.601 284.133 424.892 280.114ZM458.138 268.94C457.893 267.61 456.749 266.96 455.406 267.294C454.474 267.525 453.701 268.166 453.026 268.842C449.826 272.086 447.245 278.277 446.787 280.768C446.82 280.562 447.468 280.785 449.689 279.88C450.494 279.547 451.251 279.175 451.986 278.707C453.587 277.692 455.084 276.476 456.228 274.963C457.435 273.367 458.524 270.985 458.138 268.94Z" fill="white"/>
</g>
<g clip-path="url(#clip1_568_10366)">
<rect width="246" height="493" transform="translate(262 34)" fill="#742384"/>
<g opacity="0.4" clip-path="url(#clip2_568_10366)">
<path d="M395.507 249.664L603.894 164.923V34H599.46L392.005 242.762L405.069 238.202L395.507 249.664Z" fill="#8B3D99"/>
<path d="M385 34L385 234.381L567.063 34H467.519L394.116 206.938L430.684 94.3377L421.422 99.8749L422.909 85.45L408.953 102.194L422.107 34H385Z" fill="#8B3D99"/>
<path d="M375.089 243.982L363.852 220.801L371.218 230.369L316.186 34H215.409L375.089 243.982Z" fill="#8B3D99"/>
<path d="M166.106 102.595L360.01 237.335L194.801 161.897L254.64 202.702L166.106 184.447V102.595Z" fill="#8B3D99"/>
<path d="M166.106 400.071L378.518 316.726L363.69 326.267L377.529 322.291L174.201 527H166.106V400.071Z" fill="#8B3D99"/>
<path d="M387.923 332.375L371.866 463.782L361.894 436L345.161 527H224.769L387.923 332.375Z" fill="#8B3D99"/>
<path d="M395.166 320.469L551.21 527H452.334L397.907 334.579L406.326 346.927L395.166 320.469Z" fill="#8B3D99"/>
<path d="M411.871 328.513L603.894 462.869V380.985L516.843 363.109L572.402 400.879L411.871 328.513Z" fill="#8B3D99"/>
</g>
</g>
<g clip-path="url(#clip3_568_10366)">
<path fill-rule="evenodd" clip-rule="evenodd" d="M476.007 293.696C476.541 294.948 477.539 295.945 478.789 296.478C480.384 297.159 482.663 298.132 484.481 298.908C485.592 299.382 485.59 300.954 484.481 301.429L478.789 303.858C477.537 304.392 476.541 305.388 476.007 306.64C475.327 308.235 474.353 310.514 473.578 312.332C473.103 313.443 471.531 313.443 471.057 312.332C470.281 310.514 469.308 308.235 468.627 306.64C468.094 305.388 467.095 304.392 465.845 303.858C464.25 303.178 461.971 302.204 460.153 301.429C459.043 300.954 459.043 299.382 460.153 298.908C461.971 298.132 464.25 297.159 465.845 296.478C467.097 295.945 468.094 294.946 468.627 293.696C469.308 292.102 470.281 289.823 471.057 288.005C471.531 286.894 473.103 286.894 473.578 288.005C474.353 289.823 475.327 292.102 476.007 293.696Z" fill="#F4C12A"/>
</g>
<g clip-path="url(#clip4_568_10366)">
<path fill-rule="evenodd" clip-rule="evenodd" d="M458.662 203.277C458.849 203.715 459.199 204.064 459.636 204.251C460.194 204.489 460.992 204.829 461.628 205.101C462.017 205.267 462.016 205.817 461.628 205.983L459.636 206.833C459.198 207.02 458.849 207.369 458.662 207.807C458.424 208.365 458.084 209.163 457.812 209.799C457.646 210.188 457.096 210.188 456.93 209.799C456.658 209.163 456.318 208.365 456.079 207.807C455.893 207.369 455.543 207.02 455.106 206.833C454.548 206.595 453.75 206.255 453.114 205.983C452.725 205.817 452.725 205.267 453.114 205.101C453.75 204.829 454.548 204.489 455.106 204.251C455.544 204.064 455.893 203.714 456.079 203.277C456.318 202.719 456.658 201.921 456.93 201.285C457.096 200.896 457.646 200.896 457.812 201.285C458.084 201.921 458.424 202.719 458.662 203.277Z" fill="#F4C12A"/>
</g>
<g clip-path="url(#clip5_568_10366)">
<path fill-rule="evenodd" clip-rule="evenodd" d="M301.684 295.631C301.817 295.944 302.067 296.193 302.38 296.327C302.778 296.497 303.348 296.74 303.803 296.934C304.08 297.053 304.08 297.446 303.803 297.564L302.38 298.172C302.067 298.305 301.817 298.554 301.684 298.867C301.514 299.266 301.271 299.836 301.077 300.29C300.958 300.568 300.565 300.568 300.446 300.29C300.253 299.836 300.009 299.266 299.839 298.867C299.706 298.554 299.456 298.305 299.144 298.172C298.745 298.002 298.175 297.758 297.721 297.564C297.443 297.446 297.443 297.053 297.721 296.934C298.175 296.74 298.745 296.497 299.144 296.327C299.457 296.193 299.706 295.944 299.839 295.631C300.009 295.232 300.253 294.663 300.446 294.208C300.565 293.931 300.958 293.931 301.077 294.208C301.271 294.663 301.514 295.232 301.684 295.631Z" fill="#F4C12A"/>
</g>
<g clip-path="url(#clip6_568_10366)">
<path fill-rule="evenodd" clip-rule="evenodd" d="M338.392 186.562C338.991 188.205 340.113 189.513 341.518 190.213C343.31 191.105 345.871 192.383 347.914 193.401C349.162 194.023 349.16 196.086 347.914 196.709L341.518 199.897C340.111 200.597 338.991 201.905 338.392 203.548C337.627 205.64 336.533 208.631 335.661 211.016C335.128 212.474 333.362 212.474 332.829 211.016C331.957 208.631 330.863 205.64 330.099 203.548C329.499 201.905 328.377 200.597 326.972 199.897C325.18 199.004 322.619 197.727 320.576 196.709C319.328 196.086 319.328 194.023 320.576 193.401C322.619 192.383 325.18 191.105 326.972 190.213C328.379 189.513 329.499 188.202 330.099 186.562C330.863 184.469 331.957 181.479 332.829 179.093C333.362 177.636 335.128 177.636 335.661 179.093C336.533 181.479 337.627 184.469 338.392 186.562Z" fill="#F4C12A"/>
<path fill-rule="evenodd" clip-rule="evenodd" d="M304.52 219.789C304.744 220.403 305.164 220.891 305.689 221.153C306.359 221.487 307.316 221.964 308.079 222.344C308.546 222.577 308.545 223.348 308.079 223.581L305.689 224.772C305.163 225.034 304.744 225.523 304.52 226.137C304.235 226.919 303.826 228.037 303.5 228.928C303.301 229.473 302.641 229.473 302.441 228.928C302.116 228.037 301.707 226.919 301.421 226.137C301.197 225.523 300.778 225.034 300.253 224.772C299.583 224.439 298.626 223.961 297.862 223.581C297.396 223.348 297.396 222.577 297.862 222.344C298.626 221.964 299.583 221.487 300.253 221.153C300.778 220.891 301.197 220.402 301.421 219.789C301.707 219.006 302.116 217.889 302.441 216.997C302.641 216.452 303.301 216.452 303.5 216.997C303.826 217.889 304.235 219.006 304.52 219.789Z" fill="#F4C12A"/>
</g>
<ellipse cx="386" cy="338" rx="73" ry="12" fill="#5E186C"/>
<path d="M333.547 247.605H437.581V338.023C437.581 338.361 437.308 338.635 436.97 338.635H334.159C333.821 338.635 333.547 338.361 333.547 338.023V247.605Z" fill="#F0CEF5"/>
<path d="M352.125 300.234C352.125 299.896 352.399 299.622 352.736 299.622H418.392C418.73 299.622 419.004 299.896 419.004 300.234V338.635H352.125V300.234Z" fill="#CE92D6"/>
<path fill-rule="evenodd" clip-rule="evenodd" d="M342.561 220.114C342.734 219.878 343.009 219.739 343.301 219.739H427.828C428.12 219.739 428.395 219.878 428.568 220.114L448.728 247.605H322.401L342.561 220.114Z" fill="#F0CEF5"/>
<rect x="352.125" y="277.329" width="66.8791" height="14.862" rx="0.305803" fill="#10CBB4"/>
<path d="M322.401 247.605H348.409V256.894C348.409 264.076 342.587 269.898 335.405 269.898C328.223 269.898 322.401 264.076 322.401 256.894V247.605Z" fill="#8B3D99"/>
<path d="M348.409 247.605H372.56V257.823C372.56 264.492 367.154 269.898 360.485 269.898C353.816 269.898 348.409 264.492 348.409 257.823V247.605Z" fill="#CE92D6"/>
<path d="M372.56 247.605H398.569V256.894C398.569 264.076 392.746 269.898 385.564 269.898C378.382 269.898 372.56 264.076 372.56 256.894V247.605Z" fill="#8B3D99"/>
<path d="M372.56 247.605H398.569L394.853 219.739H376.276L372.56 247.605Z" fill="#CE92D6"/>
<path d="M322.401 247.605H348.409L357.698 219.739H342.276C340.318 219.739 338.504 220.766 337.497 222.444L322.401 247.605Z" fill="#CE92D6"/>
<path d="M448.728 247.605H422.719L413.431 219.739H428.853C430.81 219.739 432.624 220.766 433.632 222.444L448.728 247.605Z" fill="#CE92D6"/>
<path d="M398.569 247.605H422.719V257.823C422.719 264.492 417.313 269.898 410.644 269.898C403.975 269.898 398.569 264.492 398.569 257.823V247.605Z" fill="#CE92D6"/>
<path d="M422.719 247.605H448.728V256.894C448.728 264.076 442.906 269.898 435.724 269.898C428.542 269.898 422.719 264.076 422.719 256.894V247.605Z" fill="#8B3D99"/>
<path d="M496.039 460.648H492.006V410.657C492.006 399.251 482.166 389.969 470.068 389.969C457.97 389.969 448.131 399.251 448.131 410.657V460.648H444.098V410.657C444.098 397.026 455.746 385.936 470.068 385.936C484.391 385.936 496.039 397.026 496.039 410.657V460.648Z" fill="#004D43"/>
<path d="M522.594 458.276H518.561V408.284C518.561 396.879 508.721 387.597 496.623 387.597C484.525 387.597 474.686 396.879 474.686 408.284V458.276H470.653V408.284C470.653 394.654 482.301 383.564 496.623 383.564C510.946 383.564 522.594 394.654 522.594 408.284V458.276Z" fill="#008C7B"/>
<path d="M560.4 436.889H453.185L463.3 599.93H580.22L560.4 436.889Z" fill="#2BEED5"/>
<path d="M425.447 599.93H463.3L453.185 436.889L438.849 444.451L424.587 436.889L425.447 599.93Z" fill="#00AD97"/>
<path d="M370.724 489.172H366.691V449.417C366.691 440.572 359.049 433.38 349.66 433.38C340.271 433.38 332.629 440.572 332.629 449.417V489.172H328.596V449.417C328.596 438.354 338.046 429.348 349.66 429.348C361.274 429.348 370.724 438.354 370.724 449.417V489.172Z" fill="#004D43"/>
<path d="M391.835 487.291H387.802V447.535C387.802 438.69 380.16 431.499 370.771 431.499C361.382 431.499 353.74 438.69 353.74 447.535V487.291H349.707V447.535C349.707 436.472 359.157 427.466 370.771 427.466C382.385 427.466 391.835 436.472 391.835 447.535V487.291Z" fill="#008C7B"/>
<path d="M421.488 470.28H336.238L344.276 599.93H437.249L421.488 470.28Z" fill="#2BEED5"/>
<path d="M314.172 599.93H344.276L336.238 470.28L324.832 476.295L313.494 470.28L314.172 599.93Z" fill="#00AD97"/>
<path d="M223.607 292.839C208.513 292.839 193.85 284.885 183.066 270.725C172.231 256.508 165.324 236.332 163.088 212.378C162.182 202.648 169.337 194.028 179.06 193.123C188.798 192.224 197.41 199.371 198.316 209.095C201.5 243.282 215.278 257.923 224.039 257.435C232.814 256.925 244.823 240.826 244.052 206.611C243.832 196.845 251.567 188.742 261.34 188.523C271.106 188.296 279.208 196.038 279.428 205.811C279.973 229.787 275.422 250.571 266.287 265.934C256.691 282.062 242.035 291.834 226.084 292.761C225.256 292.811 224.428 292.832 223.607 292.832V292.839Z" fill="#FCDABA"/>
<path d="M208.98 239.517C203.439 242.22 196.348 245.107 187.878 247.28C178.841 249.601 170.774 250.457 164.341 250.698C163.803 244.676 163.414 238.257 163.265 231.492C163.131 225.498 163.194 219.78 163.4 214.367C174.942 211.946 186.484 209.533 198.026 207.113C201.677 217.912 205.329 228.718 208.98 239.517Z" fill="#DE4A65"/>
<path d="M180.709 228.435C190.48 228.435 198.4 220.514 198.4 210.744C198.4 200.973 190.48 193.052 180.709 193.052C170.938 193.052 163.017 200.973 163.017 210.744C163.017 220.514 170.938 228.435 180.709 228.435Z" fill="#DE4A65"/>
<path d="M261.75 223.913C271.521 223.913 279.442 215.992 279.442 206.221C279.442 196.451 271.521 188.53 261.75 188.53C251.98 188.53 244.059 196.451 244.059 206.221C244.059 215.992 251.98 223.913 261.75 223.913Z" fill="#FCDABA"/>
<path d="M257.037 182.897L248.744 194.234L274.75 218.217L292.803 217.488L291.345 181.51L257.037 182.897Z" fill="#FCDABA"/>
<path d="M244.073 206.936C243.903 204.063 243.868 199.662 244.774 194.425C245.977 187.518 247.937 184.419 249.359 178.899C250.251 175.431 251.044 170.591 250.676 164.385C250.52 161.773 252.494 159.53 255.105 159.41C257.519 159.297 259.642 161.037 259.946 163.436C260.526 167.958 260.682 172.622 260.335 177.377C261.913 178.807 265.204 182.204 266.513 187.575C268.912 197.432 262.536 205.287 261.75 206.222L244.073 206.936Z" fill="#FCDABA"/>
<path d="M257.483 210.312C258.814 208.472 262.847 202.428 262.6 193.781C262.366 185.529 258.382 179.904 256.96 178.071C257.604 177.554 258.743 176.5 259.557 174.794C260.392 173.046 260.491 171.468 260.484 170.64C260.505 171.992 260.484 173.386 260.441 174.83C260.413 175.7 260.371 176.549 260.321 177.377C266.584 180.42 270.575 186.69 270.525 193.42C270.469 201.098 265.176 208.04 257.469 210.305L257.483 210.312Z" fill="#DCAC82"/>
<g clip-path="url(#clip7_568_10366)">
<path d="M297.473 215.055L294.359 146.8C294.289 145.267 292.999 144.08 291.478 144.15L261.546 145.516C260.024 145.585 258.848 146.884 258.918 148.417L262.032 216.672C262.102 218.204 263.392 219.391 264.913 219.321L294.845 217.956C296.367 217.886 297.543 216.587 297.473 215.055Z" fill="#403556"/>
<path d="M297.376 212.914L294.262 144.659C294.192 143.126 292.902 141.94 291.38 142.009L261.448 143.375C259.927 143.444 258.75 144.743 258.82 146.276L261.934 214.531C262.004 216.064 263.294 217.25 264.815 217.181L294.748 215.815C296.269 215.746 297.446 214.447 297.376 212.914Z" fill="#2C2044"/>
<path d="M295.516 209.939L292.68 147.792C292.646 147.031 292.006 146.442 291.251 146.477L261.977 147.813C261.222 147.847 260.638 148.491 260.673 149.252L263.508 211.399C263.543 212.16 264.183 212.748 264.938 212.714L294.212 211.378C294.967 211.344 295.55 210.699 295.516 209.939Z" fill="#742384"/>
<path d="M272.98 145.888L280.118 145.562C280.533 145.543 280.853 145.189 280.834 144.771L280.83 144.679C280.811 144.261 280.459 143.938 280.045 143.957L272.907 144.282C272.492 144.301 272.172 144.655 272.191 145.073L272.195 145.166C272.214 145.583 272.566 145.907 272.98 145.888Z" fill="#544A69"/>
<path d="M286.968 184.732C284.859 184.868 282.474 185.208 280.273 185.591C280.479 184.677 280.685 183.775 280.685 183.775C280.685 183.775 280.964 184.316 281.676 184.227C282.688 184.101 283.877 183.043 284.391 181.179C284.938 179.2 284.78 176.988 283.475 176.861C282.42 176.758 281.963 177.72 281.899 177.911C281.899 177.911 282.083 177.047 281.424 177.227C280.792 177.399 280.689 177.692 280.554 178.215C280.531 178.307 280.086 180.358 279.621 182.519C279.613 182.534 279.607 182.55 279.602 182.568C279.486 183.057 279.218 183.232 279.02 183.253C278.379 183.325 279.565 178.959 279.654 178.628C279.773 178.192 279.841 177.862 279.364 177.703C279.042 177.597 278.611 177.66 278.5 178.01C278.453 178.157 278.419 178.265 278.419 178.265C278.419 178.265 278.033 177.738 277.238 177.848C276.442 177.958 275.478 178.99 274.89 180.751C274.301 182.511 274.124 185.005 275.719 185.18C276.528 185.269 277.182 184.772 277.5 183.988C277.5 183.988 277.462 184.505 278.002 184.733C278.215 184.823 278.73 184.76 279.204 184.459C279.098 184.953 278.999 185.42 278.91 185.837C275.513 186.472 272.847 187.13 272.847 187.13C272.848 187.128 274.428 180.619 274.785 179.186C275.084 177.986 274.43 178.274 273.945 178.441C273.427 178.62 273.199 179.079 272.974 179.905C271.989 183.512 271.136 184.66 270.47 184.451C269.859 184.259 271.577 180.399 271.1 179.921C270.688 179.507 269.879 179.567 269.736 179.829C269.593 180.09 269.834 180.313 269.752 180.678C269.669 181.043 269.001 183.028 268.942 183.469C268.882 183.909 268.336 186.361 270.069 186.177C271.093 186.069 271.76 185.249 271.825 185.026C271.547 185.982 271.158 187.521 271.158 187.521C271.158 187.521 269.08 188.15 267.485 190.005C266.219 191.477 265.417 194.561 267.427 194.955C270.55 195.567 271.792 190.72 272.459 188.887C274.937 188.208 276.83 187.745 278.583 187.385C278.562 187.491 278.547 187.563 278.542 187.592C278.416 188.348 278.466 188.646 279.039 188.548C279.656 188.441 279.72 188.114 279.887 187.323C279.899 187.268 279.913 187.201 279.93 187.123C282.01 186.741 284.057 186.468 286.874 186.1C287.749 185.985 287.733 185.837 287.794 185.301C287.864 184.693 287.176 184.719 286.968 184.732ZM281.388 180.853C281.747 179.433 282.11 178.854 282.468 178.679C283.321 178.261 283.537 179.362 282.942 181.075C282.252 183.058 281.342 183.055 280.976 182.687C280.976 182.687 281.009 182.352 281.388 180.853ZM277.538 181.875C277.206 182.807 276.886 183.466 276.405 183.491C275.715 183.528 275.685 182.475 276.115 181.13C276.477 179.999 277.198 179.264 277.601 179.165C278.004 179.068 278.485 179.219 277.538 181.875ZM268.897 192.93C267.323 194.491 267.644 192.437 268.215 191.53C269.298 189.808 270.71 189.32 270.71 189.32C270.081 191.511 269.22 192.61 268.897 192.93Z" fill="white"/>
<path d="M288.906 179.251C289.493 178.494 289.705 176.93 288.639 176.406C287.348 175.772 285.753 176.902 285.178 179.206C284.667 181.254 284.555 183.75 286.597 183.565C287.603 183.474 288.439 182.698 288.729 182.137C288.87 181.865 288.912 181.445 288.877 181.261C288.778 180.744 288.461 180.682 287.96 181.39C287.835 181.547 286.828 182.542 286.288 182.003C285.899 181.613 286.174 180.801 286.189 180.799C286.859 180.719 288.022 180.39 288.906 179.251ZM287.319 177.555C287.86 176.994 288.43 177.61 287.819 178.561C287.201 179.521 286.428 179.533 286.423 179.563C286.486 179.195 286.73 178.168 287.319 177.555Z" fill="white"/>
<path d="M277.405 171.734C277.278 171.659 277.092 171.628 276.847 171.639L276.115 171.672L276.162 172.701L276.918 172.667C277.394 172.645 277.624 172.46 277.608 172.113C277.6 171.934 277.532 171.808 277.405 171.734Z" fill="#10CBB4"/>
<path d="M277.578 166.925C275.369 167.13 273.644 169.015 273.611 171.264C273.589 172.786 274.314 174.121 275.426 174.937C275.54 175.021 275.611 175.153 275.617 175.296L275.662 176.274C275.665 176.349 275.71 176.416 275.777 176.448L275.805 176.461C275.869 176.492 275.945 176.483 276.001 176.438L276.801 175.795C276.905 175.711 277.041 175.677 277.172 175.702C277.5 175.766 277.84 175.792 278.188 175.777C280.603 175.666 282.469 173.593 282.357 171.144C282.242 168.627 280.081 166.694 277.578 166.925ZM278.199 172.672C278.107 172.834 277.977 172.957 277.812 173.04C277.708 173.09 277.587 173.127 277.451 173.152C277.315 173.177 277.154 173.193 276.971 173.201L275.909 173.25C275.756 173.257 275.645 173.227 275.575 173.16C275.507 173.094 275.469 172.984 275.462 172.832L275.341 170.182C275.334 170.026 275.362 169.913 275.426 169.842C275.49 169.77 275.598 169.731 275.747 169.724L276.873 169.673C277.039 169.666 277.184 169.669 277.306 169.685C277.429 169.7 277.54 169.735 277.639 169.79C277.723 169.836 277.799 169.895 277.866 169.969C277.932 170.042 277.985 170.124 278.022 170.215C278.059 170.305 278.08 170.402 278.085 170.505C278.101 170.857 277.939 171.123 277.598 171.303C278.062 171.429 278.303 171.706 278.323 172.132C278.333 172.33 278.291 172.509 278.199 172.672ZM280.678 172.698C280.597 172.831 280.473 172.935 280.306 173.009C280.139 173.084 279.934 173.126 279.69 173.138C279.458 173.148 279.257 173.121 279.088 173.057C278.919 172.992 278.792 172.908 278.708 172.803C278.624 172.699 278.58 172.592 278.575 172.483C278.572 172.411 278.594 172.348 278.642 172.294C278.691 172.24 278.753 172.212 278.831 172.209C278.899 172.205 278.952 172.22 278.99 172.252C279.028 172.283 279.065 172.329 279.1 172.389C279.172 172.503 279.256 172.587 279.35 172.64C279.445 172.694 279.573 172.717 279.733 172.71C279.862 172.704 279.967 172.669 280.048 172.607C280.128 172.545 280.166 172.476 280.163 172.401C280.157 172.285 280.11 172.203 280.022 172.154C279.933 172.105 279.789 172.061 279.589 172.022C279.364 171.976 279.18 171.926 279.037 171.87C278.894 171.815 278.779 171.739 278.691 171.641C278.602 171.544 278.555 171.422 278.548 171.275C278.542 171.143 278.575 171.017 278.647 170.897C278.719 170.776 278.829 170.678 278.977 170.601C279.125 170.524 279.306 170.481 279.519 170.471C279.686 170.464 279.838 170.475 279.973 170.504C280.108 170.533 280.221 170.575 280.313 170.631C280.406 170.686 280.476 170.748 280.526 170.819C280.576 170.889 280.603 170.958 280.606 171.027C280.609 171.102 280.587 171.165 280.54 171.216C280.493 171.266 280.422 171.293 280.331 171.297C280.264 171.3 280.207 171.284 280.158 171.247C280.11 171.211 280.054 171.155 279.99 171.081C279.939 171.02 279.879 170.971 279.81 170.936C279.742 170.9 279.651 170.885 279.537 170.89C279.42 170.896 279.324 170.925 279.249 170.979C279.174 171.033 279.138 171.098 279.141 171.173C279.145 171.242 279.176 171.297 279.235 171.339C279.294 171.381 279.372 171.414 279.47 171.438C279.567 171.462 279.702 171.492 279.873 171.526C280.075 171.566 280.242 171.618 280.373 171.681C280.503 171.744 280.603 171.821 280.673 171.912C280.743 172.003 280.781 172.109 280.786 172.229C280.796 172.408 280.76 172.566 280.678 172.698Z" fill="#10CBB4"/>
<path d="M277.14 171.062C277.234 171.024 277.304 170.956 277.351 170.859C277.387 170.79 277.404 170.714 277.4 170.631C277.392 170.453 277.324 170.337 277.196 170.285C277.069 170.232 276.877 170.211 276.621 170.223L276.05 170.249L276.091 171.16L276.736 171.131C276.911 171.122 277.046 171.099 277.14 171.062Z" fill="#10CBB4"/>
</g>
<path d="M299.473 173.467C301.731 172.557 302.824 169.988 301.914 167.73C301.004 165.471 298.436 164.378 296.177 165.288L292.134 166.918C289.876 167.828 288.783 170.397 289.693 172.655C290.603 174.913 293.172 176.006 295.43 175.096L299.473 173.467Z" fill="#FCDABA"/>
<path d="M300.349 186.02C302.724 185.482 304.213 183.122 303.676 180.747C303.139 178.372 300.778 176.882 298.403 177.42L293.323 178.569C290.948 179.107 289.459 181.467 289.996 183.842C290.533 186.217 292.894 187.707 295.269 187.169L300.349 186.02Z" fill="#FCDABA"/>
<path d="M301.143 198.094C303.557 197.771 305.252 195.553 304.929 193.14C304.607 190.727 302.389 189.032 299.976 189.354L294.967 190.023C292.554 190.346 290.859 192.563 291.181 194.977C291.504 197.39 293.722 199.085 296.135 198.763L301.143 198.094Z" fill="#FCDABA"/>
<path d="M300.138 210.184C302.551 209.861 304.247 207.643 303.924 205.23C303.602 202.816 301.384 201.121 298.97 201.444L294.628 202.024C292.215 202.346 290.52 204.564 290.842 206.978C291.165 209.391 293.383 211.086 295.796 210.764L300.138 210.184Z" fill="#FCDABA"/>
<path d="M157.71 167.555C157.71 161.851 157.915 151.123 157.936 144.442C141.221 144.612 124.492 144.782 107.777 144.407C107.636 152.106 107.515 158.652 106.553 166.684C106.142 170.131 104.975 178.085 104.133 181.489C100.778 195.076 98.8535 209.59 100.141 219.865C101.776 232.907 108.888 239.736 117.706 247.082C139.374 255.871 165.246 241.272 165.246 219.193C165.246 199.187 157.703 187.567 157.703 167.562L157.71 167.555Z" fill="#2C2044"/>
<path d="M180.702 193.052H78.0908C68.32 193.052 60.3992 200.973 60.3992 210.744C60.3992 220.514 68.32 228.435 78.0908 228.435H180.702C190.473 228.435 198.393 220.514 198.393 210.744C198.393 200.973 190.473 193.052 180.702 193.052Z" fill="#DE4A65"/>
<path d="M145.531 186.485V153.289H115.243V186.485C112.986 186.619 110.749 186.768 108.57 186.945C111.655 196.18 120.338 202.655 130.387 202.655C140.436 202.655 149.119 196.173 152.204 186.945C150.025 186.761 147.788 186.612 145.531 186.485Z" fill="#FCDABA"/>
<path d="M180.999 210.751C184.714 220.311 185.542 234.797 185.344 242.022C184.919 257.421 178.083 283.682 171.106 307.424H89.6611L80.6313 228.442C80.6313 228.442 79.2514 205.981 78.0837 193.059C88.6916 190.547 93.7938 188.19 108.563 186.952C111.655 196.187 120.331 202.662 130.38 202.662C140.429 202.662 149.112 196.18 152.197 186.952C166.966 188.19 181.721 193.094 181.721 193.094C181.48 198.982 181.24 204.87 180.999 210.758V210.751Z" fill="#DE4A65"/>
<path d="M101.26 389.591C115.181 389.591 126.467 378.305 126.467 364.384C126.467 350.463 115.181 339.177 101.26 339.177C87.3383 339.177 76.0527 350.463 76.0527 364.384C76.0527 378.305 87.3383 389.591 101.26 389.591Z" fill="#002649"/>
<path d="M159.387 389.591C173.308 389.591 184.594 378.305 184.594 364.384C184.594 350.463 173.308 339.177 159.387 339.177C145.466 339.177 134.18 350.463 134.18 364.384C134.18 378.305 145.466 389.591 159.387 389.591Z" fill="#002649"/>
<path d="M101.26 483.236C114.548 483.236 125.32 472.464 125.32 459.176C125.32 445.887 114.548 435.115 101.26 435.115C87.9713 435.115 77.199 445.887 77.199 459.176C77.199 472.464 87.9713 483.236 101.26 483.236Z" fill="#002649"/>
<path d="M159.387 483.236C172.675 483.236 183.448 472.464 183.448 459.176C183.448 445.887 172.675 435.115 159.387 435.115C146.099 435.115 135.327 445.887 135.327 459.176C135.327 472.464 146.099 483.236 159.387 483.236Z" fill="#002649"/>
<path d="M126.467 364.54L76.0598 364.391C74.7082 334.146 84.2263 314.706 89.6611 307.424H170.986C176.42 314.706 185.939 334.146 184.587 364.391L134.18 364.54H126.467Z" fill="#002649"/>
<path d="M126.467 364.54H76.0599L77.1992 459.175H125.32L126.467 364.54Z" fill="#002649"/>
<path d="M134.18 364.54H184.587L183.447 459.175H135.326L134.18 364.54Z" fill="#002649"/>
<path d="M145.531 166.486V180.031C140.301 180.597 131.873 180.59 125.051 176.252C119.616 172.799 117.946 168.333 117.409 166.486H145.531Z" fill="#DCAC82"/>
<path d="M142.255 587.609H175.218V560.067H142.255V587.609Z" fill="#FCDABA"/>
<path d="M139.289 600H215.2C215.2 591.996 210.523 584.721 203.234 581.409L178.388 570.108C175.324 572.627 170.391 576.031 163.591 578.26C152.933 581.756 143.698 580.383 139.289 579.421V600Z" fill="#002649"/>
<path d="M139.742 567.087H177.737L183.448 459.176H135.327L139.742 567.087Z" fill="#002649"/>
<path d="M84.1342 587.609H117.097V560.067H84.1342V587.609Z" fill="#FCDABA"/>
<path d="M81.1621 600H157.073C157.073 591.996 152.395 584.721 145.106 581.409L120.26 570.108C117.196 572.627 112.264 576.031 105.463 578.26C94.8058 581.756 85.5708 580.383 81.1621 579.421V600Z" fill="#003E75"/>
<path d="M81.6148 567.087H119.609L125.32 459.176H77.199L81.6148 567.087Z" fill="#002649"/>
<path d="M50.4071 353.613C53.4996 353.62 56.6345 352.821 59.4935 351.122C67.8934 346.126 70.6533 335.271 65.6572 326.871C55.8066 310.304 52.3815 296.349 55.4952 285.395C56.5284 281.75 58.0357 279.295 63.6192 270.47C65.3175 267.788 67.2353 264.752 69.5211 261.065C78.0838 247.23 86.2219 233.106 93.716 219.073C98.3158 210.453 95.0606 199.732 86.4483 195.132C77.829 190.526 67.1079 193.781 62.5081 202.4C55.3678 215.768 47.6048 229.242 39.4383 242.433C37.2517 245.964 35.3764 248.929 33.7275 251.533C27.4152 261.504 23.9405 266.995 21.4637 275.714C15.5901 296.392 20.2324 319.681 35.249 344.937C38.5467 350.485 44.3991 353.571 50.4142 353.592L50.4071 353.613Z" fill="#FCDABA"/>
<path d="M82.6625 250.833C77.348 250.033 69.6557 248.25 61.2557 243.954C53.8324 240.154 48.3834 235.675 44.746 232.186C47.6969 225.824 51.3909 218.938 56.0261 211.819C58.0854 208.656 60.173 205.698 62.2394 202.945C72.8189 208.147 83.4056 213.355 93.9851 218.556C90.2062 229.313 86.4343 240.076 82.6554 250.833H82.6625Z" fill="#DE4A65"/>
<path d="M78.1123 228.442C87.8831 228.442 95.8039 220.521 95.8039 210.75C95.8039 200.98 87.8831 193.059 78.1123 193.059C68.3416 193.059 60.4208 200.98 60.4208 210.75C60.4208 220.521 68.3416 228.442 78.1123 228.442Z" fill="#DE4A65"/>
<path d="M50.4497 353.606C60.2204 353.606 68.1412 345.686 68.1412 335.915C68.1412 326.144 60.2204 318.223 50.4497 318.223C40.6789 318.223 32.7581 326.144 32.7581 335.915C32.7581 345.686 40.6789 353.606 50.4497 353.606Z" fill="#FCDABA"/>
<path d="M87.6445 341.491C86.7953 343.388 84.7431 344.456 82.7121 344.039C81.5303 343.798 80.2565 343.466 78.919 343.02C76.7819 342.298 74.9773 341.435 73.5266 340.621C75.1542 342.779 77.1286 345.093 79.5205 347.421C82.5635 350.379 85.5923 352.715 88.3592 354.512C92.8104 357.414 88.0054 363.259 83.6462 361.539C87.97 364.533 84.3751 370.293 80.1645 370.003C78.9332 373.301 74.7013 374.702 71.7291 372.706C70.88 375.685 66.9949 378.466 63.6193 375.792C58.4605 371.701 52.9195 366.691 47.428 360.612C43.3731 356.119 37.0396 347.45 37.0396 347.45L63.867 324.38C63.867 324.38 70.2572 329.185 74.6872 331.336C78.2679 333.077 81.7284 334.4 84.9341 335.405C87.4746 336.205 88.7413 339.057 87.6445 341.491Z" fill="#FCDABA"/>
<path d="M80.1575 370.357C80.2636 370.357 80.3698 370.307 80.4405 370.215C80.5538 370.06 80.5255 369.84 80.3698 369.72C77.9496 367.923 75.586 365.984 73.3568 363.967C70.7173 361.582 68.1838 359.013 65.8344 356.345C65.707 356.197 65.4806 356.182 65.332 356.317C65.1833 356.444 65.1692 356.671 65.3037 356.819C67.6743 359.509 70.2219 362.099 72.8827 364.505C75.1331 366.536 77.5037 368.489 79.9452 370.3C80.0089 370.35 80.0796 370.371 80.1575 370.371V370.357Z" fill="#DCAC82"/>
<path d="M83.6391 361.893C83.7523 361.893 83.8656 361.837 83.9292 361.738C84.0425 361.575 84 361.355 83.8372 361.249C82.0256 360.004 80.2423 358.666 78.5227 357.279C76.1379 355.354 73.8309 353.288 71.6655 351.137C71.5239 351.002 71.3046 351.002 71.163 351.137C71.0215 351.271 71.0286 351.498 71.163 351.639C73.3497 353.812 75.6779 355.899 78.0769 357.838C79.8106 359.232 81.6081 360.577 83.4339 361.837C83.4976 361.879 83.5613 361.9 83.632 361.9L83.6391 361.893Z" fill="#DCAC82"/>
<path d="M71.6655 373.045C71.7787 373.045 71.8848 372.996 71.9556 372.897C72.0688 372.734 72.0334 372.515 71.8707 372.401C70.4341 371.382 69.0188 370.3 67.6601 369.175C64.8577 366.853 62.2111 364.285 59.798 361.539C59.6706 361.39 59.4441 361.376 59.2955 361.511C59.1469 361.638 59.1328 361.864 59.2672 362.013C61.7086 364.787 64.3765 367.377 67.2072 369.727C68.58 370.866 70.0095 371.963 71.4602 372.989C71.5239 373.031 71.5947 373.053 71.6655 373.053V373.045Z" fill="#DCAC82"/>
<path d="M108.478 137.529H112.724V153.097H108.478C105.35 153.097 102.817 150.564 102.817 147.436V143.19C102.817 140.062 105.35 137.529 108.478 137.529Z" fill="#FCDABA"/>
<path d="M107.409 147.832C107.303 147.825 107.204 147.769 107.141 147.669C107.034 147.507 107.084 147.287 107.247 147.181L110.148 145.313L107.254 143.445C107.091 143.339 107.041 143.119 107.148 142.956C107.254 142.794 107.473 142.744 107.636 142.85L110.99 145.016C111.089 145.079 111.153 145.193 111.153 145.313C111.153 145.433 111.089 145.546 110.99 145.61L107.629 147.776C107.565 147.818 107.487 147.839 107.409 147.832Z" fill="#DCAC82"/>
<path d="M152.764 137.564H157.01C160.138 137.564 162.671 140.105 162.664 143.233V147.479C162.664 150.606 160.123 153.14 156.995 153.133H152.75L152.764 137.564Z" fill="#DCAC82"/>
<path d="M133.954 104.629H137.492C149.211 104.629 158.722 114.14 158.722 125.859V157.704C158.722 167.47 150.796 175.396 141.03 175.396H133.954C122.235 175.396 112.724 165.885 112.724 154.166V125.866C112.724 114.147 122.242 104.629 133.954 104.629Z" fill="#FCDABA"/>
<path d="M130.345 145.03C131.287 145.03 132.05 144.016 132.05 142.765C132.05 141.515 131.287 140.501 130.345 140.501C129.403 140.501 128.639 141.515 128.639 142.765C128.639 144.016 129.403 145.03 130.345 145.03Z" fill="#2C2044"/>
<path d="M152.042 145.044C152.984 145.044 153.747 144.03 153.747 142.78C153.747 141.529 152.984 140.515 152.042 140.515C151.1 140.515 150.336 141.529 150.336 142.78C150.336 144.03 151.1 145.044 152.042 145.044Z" fill="#2C2044"/>
<path d="M125.54 135.215C125.427 135.208 125.32 135.144 125.257 135.038C125.158 134.868 125.214 134.656 125.384 134.557C126.29 134.033 127.762 133.424 129.644 133.488C131.321 133.538 132.609 134.104 133.409 134.564C133.579 134.663 133.635 134.875 133.536 135.045C133.437 135.215 133.218 135.271 133.055 135.172C132.333 134.755 131.159 134.238 129.63 134.189C127.91 134.132 126.566 134.691 125.745 135.165C125.681 135.201 125.611 135.215 125.54 135.215Z" fill="#2C2044"/>
<path d="M149.714 135.236C149.614 135.229 149.522 135.179 149.459 135.094C149.346 134.939 149.374 134.712 149.53 134.599C150.159 134.132 151.193 133.559 152.523 133.509C154.03 133.453 155.198 134.075 155.913 134.606C156.068 134.719 156.104 134.946 155.983 135.102C155.87 135.257 155.644 135.293 155.488 135.172C154.865 134.705 153.846 134.16 152.544 134.217C151.398 134.259 150.499 134.762 149.947 135.172C149.876 135.222 149.791 135.25 149.706 135.243L149.714 135.236Z" fill="#2C2044"/>
<path d="M125.561 149.488C126.925 149.488 128.031 148.874 128.031 148.116C128.031 147.357 126.925 146.743 125.561 146.743C124.197 146.743 123.091 147.357 123.091 148.116C123.091 148.874 124.197 149.488 125.561 149.488Z" fill="#FBCCA1"/>
<path d="M156.252 149.516C157.616 149.516 158.722 148.902 158.722 148.143C158.722 147.385 157.616 146.771 156.252 146.771C154.888 146.771 153.783 147.385 153.783 148.143C153.783 148.902 154.888 149.516 156.252 149.516Z" fill="#FBCCA1"/>
<path d="M110.792 155.433C111.988 155.433 112.958 154.463 112.958 153.267C112.958 152.071 111.988 151.102 110.792 151.102C109.596 151.102 108.627 152.071 108.627 153.267C108.627 154.463 109.596 155.433 110.792 155.433Z" fill="#57B43C"/>
<path d="M137.549 104.629H129.029C117.303 104.615 107.792 114.112 107.785 125.838V137.522L119.312 137.529C119.638 134.917 119.942 132.582 120.381 130.417C130.515 129.589 139.353 125.357 145.56 118.832C147.732 121.125 151.985 124.982 158.736 127.671C158.779 126.716 158.779 125.76 158.736 124.812C158.276 113.518 148.864 104.644 137.549 104.629Z" fill="#2C2044"/>
<path d="M141.611 156.593C140.669 156.593 139.728 156.522 138.801 156.395C135.341 155.899 133.826 156.827 134.109 158.999C134.407 161.299 135.779 164.087 141.611 164.101C147.435 164.101 148.815 161.313 149.119 159.013C149.402 156.841 147.888 155.914 144.427 156.402C143.5 156.536 142.559 156.6 141.618 156.6L141.611 156.593Z" fill="#6B222F"/>
<path d="M147.123 162.658C145.998 163.514 144.264 164.094 141.604 164.094C138.943 164.087 137.209 163.507 136.091 162.644C137.294 161.32 139.311 160.45 141.604 160.457C143.897 160.457 145.92 161.327 147.123 162.658Z" fill="#DE4A65"/>
<path d="M147.329 156.395L146.755 157.584C146.543 158.023 146.126 158.313 145.651 158.376C143.656 158.624 141.229 158.822 138.455 158.815C136.876 158.815 135.412 158.751 134.074 158.652C133.996 156.728 135.532 155.928 138.794 156.402C139.721 156.529 140.662 156.6 141.604 156.6C142.545 156.6 143.493 156.529 144.413 156.402C145.616 156.232 146.586 156.232 147.329 156.402V156.395Z" fill="white"/>
<defs>
<clipPath id="clip0_568_10366">
<rect width="272" height="577" fill="white" transform="translate(249)"/>
</clipPath>
<clipPath id="clip1_568_10366">
<rect width="246" height="493" fill="white" transform="translate(262 34)"/>
</clipPath>
<clipPath id="clip2_568_10366">
<rect width="437.789" height="493" fill="white" transform="translate(166.106 34)"/>
</clipPath>
<clipPath id="clip3_568_10366">
<rect width="25.9933" height="25.9933" fill="white" transform="translate(459.32 287.172)"/>
</clipPath>
<clipPath id="clip4_568_10366">
<rect width="9.09764" height="9.09764" fill="white" transform="translate(452.822 200.993)"/>
</clipPath>
<clipPath id="clip5_568_10366">
<rect width="6.49832" height="6.49832" fill="white" transform="translate(297.512 294)"/>
</clipPath>
<clipPath id="clip6_568_10366">
<rect width="51.3367" height="51.3367" fill="white" transform="translate(297.512 178)"/>
</clipPath>
<clipPath id="clip7_568_10366">
<rect width="35.4785" height="76.0255" fill="white" transform="translate(258.693 143.501) rotate(-2.61233)"/>
</clipPath>
</defs>
</svg>
