<svg width="172" height="112" viewBox="0 0 172 112" fill="none" xmlns="http://www.w3.org/2000/svg">
<path d="M71.9351 9C79.7934 12.5296 84.1774 12.5934 92.0281 9V17.0372H71.9351V9Z" fill="#F4C12A"/>
<path d="M65.403 12.3442L71.9351 9C71.9351 9 75.49 16.3674 81.9816 16.3674C88.4732 16.3674 92.0281 9 92.0281 9L97.4152 12.3762C97.8053 12.6207 98.1517 12.9288 98.44 13.2877L105.096 21.5749C105.308 21.8391 105.429 22.1688 105.403 22.5067C105.15 25.7793 102.534 28.5078 98.7296 29.2807C98.2757 29.373 97.8124 29.2101 97.4849 28.8825L94.295 25.6927C94.295 25.6927 92.4403 31.0508 93.3676 38.4698C94.0755 44.1323 96.404 49.9148 97.4669 52.3355C97.7662 53.0172 97.5378 53.8095 96.87 54.1386C94.7252 55.1958 89.5391 57.2233 81.3118 57.2233C73.0845 57.2233 67.8984 55.1957 65.7536 54.1386C65.0859 53.8095 64.8575 53.0172 65.1568 52.3355C66.2197 49.9148 68.5482 44.1323 69.256 38.4698C70.1834 31.0508 68.3286 25.6927 68.3286 25.6927L65.0551 28.9662C64.776 29.2453 64.3955 29.4131 64.004 29.3626C60.8804 28.9598 58.4931 25.5588 57.4465 22.7219C57.2775 22.2637 57.3827 21.756 57.6885 21.3752L64.0677 13.4321C64.4312 12.9795 64.8863 12.6087 65.403 12.3442Z" fill="#61BDFF"/>
<path d="M98.0044 29.4022C102.407 28.8183 105.423 25.6927 105.423 21.9832" stroke="#F9DD8F" stroke-width="0.744186" stroke-linecap="round"/>
<path d="M65.403 12.3442L71.9351 9C71.9351 9 75.2839 14.3581 78.6328 15.6977C81.9816 17.0372 83.9909 17.0372 83.9909 17.0372C83.9909 17.0372 85.3304 25.6927 85.3304 33.1116C85.3304 40.947 82.6514 53.2046 81.3118 57.2233C73.0845 57.2233 67.8984 55.1958 65.7536 54.1386C65.0859 53.8095 64.8575 53.0172 65.1568 52.3355C66.2197 49.9148 68.5482 44.1323 69.256 38.4698C70.1834 31.0508 68.3286 25.6927 68.3286 25.6927L65.0551 28.9662C64.776 29.2453 64.3955 29.4131 64.004 29.3626C60.8804 28.9598 58.4931 25.5588 57.4465 22.7219C57.2775 22.2637 57.3827 21.756 57.6885 21.3752L64.0677 13.4321C64.4312 12.9795 64.8863 12.6087 65.403 12.3442Z" fill="#61BDFF"/>
<path d="M57.2002 21.9832C58.1276 25.1075 60.9097 29.4022 64.6192 29.4022" stroke="#F9DD8F" stroke-width="0.744186" stroke-linecap="round"/>
<path d="M71.9351 10.3395C71.9351 10.3395 74.5789 17.0372 81.9816 17.0372C89.3843 17.0372 92.0281 10.3395 92.0281 10.3395" stroke="#F9DD8F" stroke-width="1.48837" stroke-linecap="round"/>
<mask id="mask0_804_5021" style="mask-type:alpha" maskUnits="userSpaceOnUse" x="57" y="9" width="49" height="49">
<path d="M65.403 12.3442L71.9351 9C71.9351 9 75.49 16.3674 81.9816 16.3674C88.4732 16.3674 92.0281 9 92.0281 9L97.4152 12.3762C97.8053 12.6207 98.1517 12.9288 98.44 13.2877L105.096 21.5749C105.308 21.8391 105.429 22.1688 105.403 22.5067C105.15 25.7793 102.534 28.5078 98.7296 29.2807C98.2757 29.373 97.8124 29.2101 97.4849 28.8825L94.295 25.6927C94.295 25.6927 92.4403 31.0508 93.3676 38.4698C94.0755 44.1323 96.404 49.9148 97.4669 52.3355C97.7662 53.0172 97.5378 53.8095 96.87 54.1386C94.7252 55.1958 89.5391 57.2233 81.3118 57.2233C73.0845 57.2233 67.8984 55.1957 65.7536 54.1386C65.0859 53.8095 64.8575 53.0172 65.1568 52.3355C66.2197 49.9148 68.5482 44.1323 69.256 38.4698C70.1834 31.0508 68.3286 25.6927 68.3286 25.6927L65.0551 28.9662C64.776 29.2453 64.3955 29.4131 64.004 29.3626C60.8804 28.9598 58.4931 25.5588 57.4465 22.7219C57.2775 22.2637 57.3827 21.756 57.6885 21.3752L64.0677 13.4321C64.4312 12.9795 64.8863 12.6087 65.403 12.3442Z" fill="#61BDFF"/>
</mask>
<g mask="url(#mask0_804_5021)">
<path fill-rule="evenodd" clip-rule="evenodd" d="M61.8575 14.5561C62.4863 14.17 63.3085 14.3652 63.6969 14.9917L63.7004 14.9972C63.7053 15.0048 63.7149 15.0196 63.7294 15.0412C63.7585 15.0845 63.807 15.1548 63.8759 15.2483C64.0138 15.4355 64.233 15.7152 64.5409 16.057C65.1566 16.7407 66.1252 17.6712 67.5055 18.6078C70.2531 20.4722 74.681 22.3953 81.312 22.3953C87.9429 22.3953 92.3709 20.4722 95.1184 18.6078C96.4987 17.6712 97.4673 16.7407 98.083 16.057C98.3909 15.7152 98.6101 15.4355 98.748 15.2483C98.8169 15.1548 98.8655 15.0845 98.8945 15.0412C98.909 15.0196 98.9187 15.0048 98.9235 14.9972L98.9254 14.9943L98.9247 14.9954C98.9255 14.9941 98.9263 14.9928 98.9271 14.9915C99.3155 14.3652 100.138 14.17 100.766 14.5561C101.397 14.9432 101.594 15.7681 101.207 16.3985L100.127 15.7353C101.207 16.3986 101.207 16.3993 101.206 16.4L101.205 16.4017L101.203 16.4056L101.196 16.4156L101.178 16.4442C101.164 16.467 101.144 16.4973 101.119 16.5345C101.069 16.609 100.998 16.7113 100.905 16.8376C100.719 17.0899 100.445 17.4382 100.074 17.8498C99.3324 18.6731 98.2035 19.752 96.6227 20.8246C93.4482 22.9788 88.4994 25.0743 81.312 25.0743C74.1246 25.0743 69.1757 22.9788 66.0012 20.8246C64.4204 19.752 63.2915 18.6731 62.5501 17.8498C62.1794 17.4382 61.9051 17.0899 61.7191 16.8376C61.6261 16.7113 61.5551 16.609 61.5051 16.5345C61.4801 16.4973 61.4604 16.467 61.4457 16.4442L61.4275 16.4156L61.4213 16.4056L61.4189 16.4017L61.4179 16.4C61.4174 16.3993 61.417 16.3985 62.5585 15.6976L61.417 16.3985C61.0298 15.7681 61.2271 14.9432 61.8575 14.5561Z" fill="#AFDDFD"/>
<path fill-rule="evenodd" clip-rule="evenodd" d="M68.9152 28.2C68.426 27.6529 67.5863 27.601 67.0334 28.086C66.4772 28.5739 66.4218 29.4202 66.9097 29.9764L67.9167 29.093C66.9097 29.9764 66.9103 29.9771 66.9109 29.9778L66.9123 29.9793L66.9152 29.9826L66.922 29.9902L66.9397 30.0098C66.9534 30.0247 66.9708 30.0433 66.9919 30.0654C67.0342 30.1095 67.0916 30.1673 67.1648 30.2369C67.3113 30.376 67.521 30.562 67.7997 30.7786C68.3573 31.212 69.1889 31.7663 70.3383 32.3123C72.6426 33.4068 76.1891 34.4512 81.312 34.4512C86.435 34.4512 89.9815 33.4068 92.2858 32.3123C93.4352 31.7663 94.2668 31.212 94.8244 30.7786C95.1031 30.562 95.3128 30.376 95.4593 30.2369C95.5325 30.1673 95.5899 30.1095 95.6322 30.0654C95.6533 30.0433 95.6707 30.0247 95.6844 30.0098L95.7021 29.9902L95.7089 29.9826L95.7118 29.9793L95.7132 29.9778C95.7138 29.9771 95.7144 29.9764 94.7074 29.093L95.7144 29.9764C96.2023 29.4202 96.1469 28.5739 95.5907 28.086C95.0378 27.601 94.1981 27.6529 93.7089 28.2L93.6986 28.211C93.6845 28.2257 93.6565 28.2542 93.614 28.2945C93.5292 28.3752 93.3864 28.5031 93.1803 28.6633C92.7686 28.9834 92.102 29.4337 91.1363 29.8924C89.2105 30.8071 86.0593 31.7721 81.312 31.7721C76.5648 31.7721 73.4136 30.8071 71.4878 29.8924C70.5221 29.4337 69.8555 28.9834 69.4438 28.6633C69.2377 28.5031 69.0949 28.3752 69.0101 28.2945C68.9676 28.2542 68.9396 28.2257 68.9255 28.211L68.9152 28.2Z" fill="#AFDDFD"/>
<path fill-rule="evenodd" clip-rule="evenodd" d="M64.9992 33.6888C64.5802 33.0832 63.75 32.9292 63.1414 33.3456C62.5308 33.7634 62.3745 34.597 62.7922 35.2076L63.8978 34.4511C62.7922 35.2076 62.7927 35.2083 62.7933 35.209L62.7944 35.2107L62.797 35.2144L62.8034 35.2237L62.8217 35.2495C62.8362 35.2699 62.8556 35.2964 62.8797 35.3288C62.9281 35.3934 62.996 35.4813 63.0845 35.589C63.2613 35.8043 63.5202 36.0992 63.8688 36.4465C64.566 37.1414 65.6222 38.0464 67.0963 38.9441C70.055 40.7458 74.6494 42.4883 81.3117 42.4883C87.9741 42.4883 92.5685 40.7458 95.5272 38.9441C97.0012 38.0464 98.0574 37.1414 98.7547 36.4465C99.1033 36.0992 99.3622 35.8043 99.539 35.589C99.6274 35.4813 99.6953 35.3934 99.7437 35.3288C99.7679 35.2964 99.7872 35.2699 99.8017 35.2495L99.82 35.2237L99.8265 35.2144L99.8291 35.2107L99.8302 35.209C99.8307 35.2083 99.8312 35.2076 98.7863 34.4926L99.8312 35.2076C100.249 34.597 100.093 33.7634 99.4821 33.3456C98.872 32.9282 98.0391 33.0839 97.6211 33.6934C97.6208 33.6938 97.6205 33.6943 97.6201 33.6947L98.7257 34.4511C97.6201 33.6947 97.6206 33.694 97.6211 33.6934L97.6219 33.6922L97.6225 33.6912C97.624 33.6891 97.6247 33.6881 97.6247 33.6881L97.6246 33.6883L97.6232 33.6903L97.6225 33.6912C97.619 33.6962 97.611 33.7072 97.5985 33.724C97.5734 33.7574 97.5304 33.8135 97.4684 33.8889C97.3445 34.0399 97.1452 34.2682 96.8636 34.5488C96.3007 35.1098 95.4093 35.8791 94.1337 36.6559C91.5933 38.203 87.4807 39.8093 81.3117 39.8093C75.1428 39.8093 71.0302 38.203 68.4897 36.6559C67.2142 35.8791 66.3228 35.1098 65.7598 34.5488C65.4783 34.2682 65.279 34.0399 65.155 33.8889C65.0931 33.8135 65.05 33.7574 65.025 33.724C65.0125 33.7072 65.0045 33.6962 65.0009 33.6912M64.9993 33.6889C64.9993 33.6889 64.9993 33.6888 64.9992 33.6888L64.9993 33.6889Z" fill="#AFDDFD"/>
<path fill-rule="evenodd" clip-rule="evenodd" d="M64.9992 43.0655C64.5802 42.4599 63.75 42.3059 63.1414 42.7223C62.5308 43.1401 62.3745 43.9737 62.7922 44.5843L63.8978 43.8279C62.7922 44.5843 62.7927 44.585 62.7933 44.5858L62.7944 44.5874L62.797 44.5911L62.8034 44.6004L62.8217 44.6262C62.8362 44.6466 62.8556 44.6731 62.8797 44.7055C62.9281 44.7701 62.996 44.858 63.0845 44.9657C63.2613 45.181 63.5202 45.4759 63.8688 45.8232C64.566 46.5181 65.6222 47.4231 67.0963 48.3208C70.055 50.1225 74.6494 51.8651 81.3117 51.8651C87.9741 51.8651 92.5685 50.1225 95.5272 48.3208C97.0012 47.4231 98.0574 46.5181 98.7547 45.8232C99.1033 45.4759 99.3622 45.181 99.539 44.9657C99.6274 44.858 99.6953 44.7701 99.7437 44.7055C99.7679 44.6731 99.7872 44.6466 99.8017 44.6262L99.82 44.6004L99.8265 44.5911L99.8291 44.5874L99.8302 44.5858C99.8307 44.585 99.8312 44.5843 98.7863 43.8693L99.8312 44.5843C100.249 43.9737 100.093 43.1401 99.4821 42.7223C98.872 42.3049 98.0391 42.4606 97.6211 43.0701C97.6208 43.0705 97.6205 43.071 97.6201 43.0714L98.7257 43.8279C97.6201 43.0714 97.6206 43.0708 97.6211 43.0701L97.6219 43.0689L97.6225 43.0679C97.624 43.0658 97.6247 43.0648 97.6247 43.0648L97.6246 43.065L97.6232 43.067L97.6225 43.0679C97.619 43.0729 97.611 43.084 97.5985 43.1007C97.5734 43.1341 97.5304 43.1902 97.4684 43.2656C97.3445 43.4166 97.1452 43.645 96.8636 43.9255C96.3007 44.4865 95.4093 45.2558 94.1337 46.0326C91.5933 47.5797 87.4807 49.186 81.3117 49.186C75.1428 49.186 71.0302 47.5797 68.4897 46.0326C67.2142 45.2558 66.3228 44.4865 65.7598 43.9255C65.4783 43.645 65.279 43.4166 65.155 43.2656C65.0931 43.1902 65.05 43.1341 65.025 43.1007C65.0125 43.084 65.0045 43.0729 65.0009 43.0679M64.9993 43.0656C64.9993 43.0656 64.9993 43.0656 64.9992 43.0655L64.9993 43.0656Z" fill="#AFDDFD"/>
</g>
<path d="M74.6442 52.5784L73.8348 51.3556C73.8348 51.3556 76.6606 48.2676 80.8934 45.4659C85.9728 42.1038 91.1831 41.6986 92.8763 40.5779C94.5694 39.4572 97.8246 34.2589 102.057 31.4571C106.29 28.6554 110.237 27.2605 110.237 27.2605L111.046 28.4833C111.218 28.7431 111.112 29.1102 111.075 29.4195C110.978 30.2201 111.966 31.7116 113.313 33.7468C114.994 36.2864 114.695 41.3537 110.463 44.1555C106.23 46.9572 102.61 46.4806 100.042 44.9658C97.4738 43.451 95.5141 41.8755 94.2771 42.6943C93.0402 43.513 94.0125 45.7421 94.1159 48.8883C94.2194 52.0344 93.5315 55.3625 89.2987 58.1642C85.0659 60.966 80.2848 59.2608 78.6038 56.7211C77.2567 54.686 76.2694 53.1945 75.4947 52.9705C75.1955 52.884 74.8161 52.8381 74.6442 52.5784Z" fill="#A35AAD"/>
<path d="M91.5946 45.0788C94.1162 48.8883 90.99 54.7119 88.2209 56.5448C85.1819 58.5564 82.154 58.4057 80.2972 55.6005C78.4403 52.7952 77.7816 49.9608 81.1678 47.7194C84.2069 45.7078 89.7378 42.2736 91.5946 45.0788Z" fill="#2BEED5"/>
<path d="M97.5202 41.1564C100.042 44.9659 105.527 45.0894 108.988 42.7983C112.027 40.7867 113.476 37.6728 111.619 34.8675C109.763 32.0623 107.411 30.3486 104.025 32.59C100.986 34.6015 95.6634 38.3512 97.5202 41.1564Z" fill="#2BEED5"/>
<path d="M35.2578 93.625V105H33.7734V93.625H35.2578ZM38.9141 93.625V94.8594H30.125V93.625H38.9141ZM42.4531 96.5469V105H41V96.5469H42.4531ZM40.8906 94.3047C40.8906 94.0703 40.9609 93.8724 41.1016 93.7109C41.2474 93.5495 41.4609 93.4688 41.7422 93.4688C42.0182 93.4688 42.2292 93.5495 42.375 93.7109C42.526 93.8724 42.6016 94.0703 42.6016 94.3047C42.6016 94.5286 42.526 94.7214 42.375 94.8828C42.2292 95.0391 42.0182 95.1172 41.7422 95.1172C41.4609 95.1172 41.2474 95.0391 41.1016 94.8828C40.9609 94.7214 40.8906 94.5286 40.8906 94.3047ZM48.7812 105.156C48.1927 105.156 47.6589 105.057 47.1797 104.859C46.7057 104.656 46.2969 104.372 45.9531 104.008C45.6146 103.643 45.3542 103.211 45.1719 102.711C44.9896 102.211 44.8984 101.664 44.8984 101.07V100.742C44.8984 100.055 45 99.4427 45.2031 98.9062C45.4062 98.3646 45.6823 97.9062 46.0312 97.5312C46.3802 97.1562 46.776 96.8724 47.2188 96.6797C47.6615 96.487 48.1198 96.3906 48.5938 96.3906C49.1979 96.3906 49.7188 96.4948 50.1562 96.7031C50.599 96.9115 50.9609 97.2031 51.2422 97.5781C51.5234 97.9479 51.7318 98.3854 51.8672 98.8906C52.0026 99.3906 52.0703 99.9375 52.0703 100.531V101.18H45.7578V100H50.625V99.8906C50.6042 99.5156 50.526 99.151 50.3906 98.7969C50.2604 98.4427 50.0521 98.151 49.7656 97.9219C49.4792 97.6927 49.0885 97.5781 48.5938 97.5781C48.2656 97.5781 47.9635 97.6484 47.6875 97.7891C47.4115 97.9245 47.1745 98.1276 46.9766 98.3984C46.7786 98.6693 46.625 99 46.5156 99.3906C46.4062 99.7812 46.3516 100.232 46.3516 100.742V101.07C46.3516 101.471 46.4062 101.849 46.5156 102.203C46.6302 102.552 46.7943 102.859 47.0078 103.125C47.2266 103.391 47.4896 103.599 47.7969 103.75C48.1094 103.901 48.4635 103.977 48.8594 103.977C49.3698 103.977 49.8021 103.872 50.1562 103.664C50.5104 103.456 50.8203 103.177 51.0859 102.828L51.9609 103.523C51.7786 103.799 51.5469 104.062 51.2656 104.312C50.9844 104.562 50.638 104.766 50.2266 104.922C49.8203 105.078 49.3385 105.156 48.7812 105.156ZM55.7031 98.3516V105H54.2578V96.5469H55.625L55.7031 98.3516ZM55.3594 100.453L54.7578 100.43C54.763 99.8516 54.849 99.3177 55.0156 98.8281C55.1823 98.3333 55.4167 97.9036 55.7188 97.5391C56.0208 97.1745 56.3802 96.8932 56.7969 96.6953C57.2188 96.4922 57.6849 96.3906 58.1953 96.3906C58.612 96.3906 58.987 96.4479 59.3203 96.5625C59.6536 96.6719 59.9375 96.849 60.1719 97.0938C60.4115 97.3385 60.5938 97.6562 60.7188 98.0469C60.8438 98.4323 60.9062 98.9036 60.9062 99.4609V105H59.4531V99.4453C59.4531 99.0026 59.388 98.6484 59.2578 98.3828C59.1276 98.112 58.9375 97.9167 58.6875 97.7969C58.4375 97.6719 58.1302 97.6094 57.7656 97.6094C57.4062 97.6094 57.0781 97.6849 56.7812 97.8359C56.4896 97.987 56.237 98.1953 56.0234 98.4609C55.8151 98.7266 55.651 99.0312 55.5312 99.375C55.4167 99.7135 55.3594 100.073 55.3594 100.453ZM68.9297 103.359V93H70.3828V105H69.0547L68.9297 103.359ZM63.2422 100.867V100.703C63.2422 100.057 63.3203 99.4714 63.4766 98.9453C63.638 98.4141 63.8646 97.9583 64.1562 97.5781C64.4531 97.1979 64.8047 96.9062 65.2109 96.7031C65.6224 96.4948 66.0807 96.3906 66.5859 96.3906C67.1172 96.3906 67.5807 96.4844 67.9766 96.6719C68.3776 96.8542 68.7161 97.1224 68.9922 97.4766C69.2734 97.8255 69.4948 98.2474 69.6562 98.7422C69.8177 99.237 69.9297 99.7969 69.9922 100.422V101.141C69.9349 101.76 69.8229 102.318 69.6562 102.812C69.4948 103.307 69.2734 103.729 68.9922 104.078C68.7161 104.427 68.3776 104.695 67.9766 104.883C67.5755 105.065 67.1068 105.156 66.5703 105.156C66.0755 105.156 65.6224 105.049 65.2109 104.836C64.8047 104.622 64.4531 104.323 64.1562 103.938C63.8646 103.552 63.638 103.099 63.4766 102.578C63.3203 102.052 63.2422 101.482 63.2422 100.867ZM64.6953 100.703V100.867C64.6953 101.289 64.737 101.685 64.8203 102.055C64.9089 102.424 65.0443 102.75 65.2266 103.031C65.4089 103.312 65.6406 103.534 65.9219 103.695C66.2031 103.852 66.5391 103.93 66.9297 103.93C67.4089 103.93 67.8021 103.828 68.1094 103.625C68.4219 103.422 68.6719 103.154 68.8594 102.82C69.0469 102.487 69.1927 102.125 69.2969 101.734V99.8516C69.2344 99.5651 69.1432 99.2891 69.0234 99.0234C68.9089 98.7526 68.7578 98.513 68.5703 98.3047C68.388 98.0911 68.1615 97.9219 67.8906 97.7969C67.625 97.6719 67.3099 97.6094 66.9453 97.6094C66.5495 97.6094 66.2083 97.6927 65.9219 97.8594C65.6406 98.0208 65.4089 98.2448 65.2266 98.5312C65.0443 98.8125 64.9089 99.1406 64.8203 99.5156C64.737 99.8854 64.6953 100.281 64.6953 100.703ZM78.1172 103.555V99.2031C78.1172 98.8698 78.0495 98.5807 77.9141 98.3359C77.7839 98.0859 77.5859 97.8932 77.3203 97.7578C77.0547 97.6224 76.7266 97.5547 76.3359 97.5547C75.9714 97.5547 75.651 97.6172 75.375 97.7422C75.1042 97.8672 74.8906 98.0312 74.7344 98.2344C74.5833 98.4375 74.5078 98.6562 74.5078 98.8906H73.0625C73.0625 98.5885 73.1406 98.2891 73.2969 97.9922C73.4531 97.6953 73.6771 97.4271 73.9688 97.1875C74.2656 96.9427 74.6198 96.75 75.0312 96.6094C75.4479 96.4635 75.9115 96.3906 76.4219 96.3906C77.0365 96.3906 77.5781 96.4948 78.0469 96.7031C78.5208 96.9115 78.8906 97.2266 79.1562 97.6484C79.4271 98.0651 79.5625 98.5885 79.5625 99.2188V103.156C79.5625 103.438 79.5859 103.737 79.6328 104.055C79.6849 104.372 79.7604 104.646 79.8594 104.875V105H78.3516C78.2786 104.833 78.2214 104.612 78.1797 104.336C78.138 104.055 78.1172 103.794 78.1172 103.555ZM78.3672 99.875L78.3828 100.891H76.9219C76.5104 100.891 76.1432 100.924 75.8203 100.992C75.4974 101.055 75.2266 101.151 75.0078 101.281C74.7891 101.411 74.6224 101.576 74.5078 101.773C74.3932 101.966 74.3359 102.193 74.3359 102.453C74.3359 102.719 74.3958 102.961 74.5156 103.18C74.6354 103.398 74.8151 103.573 75.0547 103.703C75.2995 103.828 75.599 103.891 75.9531 103.891C76.3958 103.891 76.7865 103.797 77.125 103.609C77.4635 103.422 77.7318 103.193 77.9297 102.922C78.1328 102.651 78.2422 102.388 78.2578 102.133L78.875 102.828C78.8385 103.047 78.7396 103.289 78.5781 103.555C78.4167 103.82 78.2005 104.076 77.9297 104.32C77.6641 104.56 77.3464 104.76 76.9766 104.922C76.612 105.078 76.2005 105.156 75.7422 105.156C75.1693 105.156 74.6667 105.044 74.2344 104.82C73.8073 104.596 73.474 104.297 73.2344 103.922C73 103.542 72.8828 103.117 72.8828 102.648C72.8828 102.195 72.9714 101.797 73.1484 101.453C73.3255 101.104 73.5807 100.815 73.9141 100.586C74.2474 100.352 74.6484 100.174 75.1172 100.055C75.5859 99.9349 76.1094 99.875 76.6875 99.875H78.3672ZM92.1328 103.359V93H93.5859V105H92.2578L92.1328 103.359ZM86.4453 100.867V100.703C86.4453 100.057 86.5234 99.4714 86.6797 98.9453C86.8411 98.4141 87.0677 97.9583 87.3594 97.5781C87.6562 97.1979 88.0078 96.9062 88.4141 96.7031C88.8255 96.4948 89.2839 96.3906 89.7891 96.3906C90.3203 96.3906 90.7839 96.4844 91.1797 96.6719C91.5807 96.8542 91.9193 97.1224 92.1953 97.4766C92.4766 97.8255 92.6979 98.2474 92.8594 98.7422C93.0208 99.237 93.1328 99.7969 93.1953 100.422V101.141C93.138 101.76 93.026 102.318 92.8594 102.812C92.6979 103.307 92.4766 103.729 92.1953 104.078C91.9193 104.427 91.5807 104.695 91.1797 104.883C90.7786 105.065 90.3099 105.156 89.7734 105.156C89.2786 105.156 88.8255 105.049 88.4141 104.836C88.0078 104.622 87.6562 104.323 87.3594 103.938C87.0677 103.552 86.8411 103.099 86.6797 102.578C86.5234 102.052 86.4453 101.482 86.4453 100.867ZM87.8984 100.703V100.867C87.8984 101.289 87.9401 101.685 88.0234 102.055C88.112 102.424 88.2474 102.75 88.4297 103.031C88.612 103.312 88.8438 103.534 89.125 103.695C89.4062 103.852 89.7422 103.93 90.1328 103.93C90.612 103.93 91.0052 103.828 91.3125 103.625C91.625 103.422 91.875 103.154 92.0625 102.82C92.25 102.487 92.3958 102.125 92.5 101.734V99.8516C92.4375 99.5651 92.3464 99.2891 92.2266 99.0234C92.112 98.7526 91.9609 98.513 91.7734 98.3047C91.5911 98.0911 91.3646 97.9219 91.0938 97.7969C90.8281 97.6719 90.513 97.6094 90.1484 97.6094C89.7526 97.6094 89.4115 97.6927 89.125 97.8594C88.8438 98.0208 88.612 98.2448 88.4297 98.5312C88.2474 98.8125 88.112 99.1406 88.0234 99.5156C87.9401 99.8854 87.8984 100.281 87.8984 100.703ZM99.8438 105.156C99.2552 105.156 98.7214 105.057 98.2422 104.859C97.7682 104.656 97.3594 104.372 97.0156 104.008C96.6771 103.643 96.4167 103.211 96.2344 102.711C96.0521 102.211 95.9609 101.664 95.9609 101.07V100.742C95.9609 100.055 96.0625 99.4427 96.2656 98.9062C96.4688 98.3646 96.7448 97.9062 97.0938 97.5312C97.4427 97.1562 97.8385 96.8724 98.2812 96.6797C98.724 96.487 99.1823 96.3906 99.6562 96.3906C100.26 96.3906 100.781 96.4948 101.219 96.7031C101.661 96.9115 102.023 97.2031 102.305 97.5781C102.586 97.9479 102.794 98.3854 102.93 98.8906C103.065 99.3906 103.133 99.9375 103.133 100.531V101.18H96.8203V100H101.688V99.8906C101.667 99.5156 101.589 99.151 101.453 98.7969C101.323 98.4427 101.115 98.151 100.828 97.9219C100.542 97.6927 100.151 97.5781 99.6562 97.5781C99.3281 97.5781 99.026 97.6484 98.75 97.7891C98.474 97.9245 98.237 98.1276 98.0391 98.3984C97.8411 98.6693 97.6875 99 97.5781 99.3906C97.4688 99.7812 97.4141 100.232 97.4141 100.742V101.07C97.4141 101.471 97.4688 101.849 97.5781 102.203C97.6927 102.552 97.8568 102.859 98.0703 103.125C98.2891 103.391 98.5521 103.599 98.8594 103.75C99.1719 103.901 99.526 103.977 99.9219 103.977C100.432 103.977 100.865 103.872 101.219 103.664C101.573 103.456 101.883 103.177 102.148 102.828L103.023 103.523C102.841 103.799 102.609 104.062 102.328 104.312C102.047 104.562 101.701 104.766 101.289 104.922C100.883 105.078 100.401 105.156 99.8438 105.156ZM111.234 97.875V105H109.789V96.5469H111.195L111.234 97.875ZM113.875 96.5L113.867 97.8438C113.747 97.8177 113.633 97.8021 113.523 97.7969C113.419 97.7865 113.299 97.7812 113.164 97.7812C112.831 97.7812 112.536 97.8333 112.281 97.9375C112.026 98.0417 111.81 98.1875 111.633 98.375C111.456 98.5625 111.315 98.7865 111.211 99.0469C111.112 99.3021 111.047 99.5833 111.016 99.8906L110.609 100.125C110.609 99.6146 110.659 99.1354 110.758 98.6875C110.862 98.2396 111.021 97.8438 111.234 97.5C111.448 97.151 111.719 96.8802 112.047 96.6875C112.38 96.4896 112.776 96.3906 113.234 96.3906C113.339 96.3906 113.458 96.4036 113.594 96.4297C113.729 96.4505 113.823 96.474 113.875 96.5ZM115.172 100.867V100.688C115.172 100.078 115.26 99.513 115.438 98.9922C115.615 98.4661 115.87 98.0104 116.203 97.625C116.536 97.2344 116.94 96.9323 117.414 96.7188C117.888 96.5 118.419 96.3906 119.008 96.3906C119.602 96.3906 120.135 96.5 120.609 96.7188C121.089 96.9323 121.495 97.2344 121.828 97.625C122.167 98.0104 122.424 98.4661 122.602 98.9922C122.779 99.513 122.867 100.078 122.867 100.688V100.867C122.867 101.477 122.779 102.042 122.602 102.562C122.424 103.083 122.167 103.539 121.828 103.93C121.495 104.315 121.091 104.617 120.617 104.836C120.148 105.049 119.617 105.156 119.023 105.156C118.43 105.156 117.896 105.049 117.422 104.836C116.948 104.617 116.542 104.315 116.203 103.93C115.87 103.539 115.615 103.083 115.438 102.562C115.26 102.042 115.172 101.477 115.172 100.867ZM116.617 100.688V100.867C116.617 101.289 116.667 101.688 116.766 102.062C116.865 102.432 117.013 102.76 117.211 103.047C117.414 103.333 117.667 103.56 117.969 103.727C118.271 103.888 118.622 103.969 119.023 103.969C119.419 103.969 119.766 103.888 120.062 103.727C120.365 103.56 120.615 103.333 120.812 103.047C121.01 102.76 121.159 102.432 121.258 102.062C121.362 101.688 121.414 101.289 121.414 100.867V100.688C121.414 100.271 121.362 99.8776 121.258 99.5078C121.159 99.1328 121.008 98.8021 120.805 98.5156C120.607 98.224 120.357 97.9948 120.055 97.8281C119.758 97.6615 119.409 97.5781 119.008 97.5781C118.612 97.5781 118.263 97.6615 117.961 97.8281C117.664 97.9948 117.414 98.224 117.211 98.5156C117.013 98.8021 116.865 99.1328 116.766 99.5078C116.667 99.8776 116.617 100.271 116.617 100.688ZM126.625 98.1719V108.25H125.172V96.5469H126.5L126.625 98.1719ZM132.32 100.703V100.867C132.32 101.482 132.247 102.052 132.102 102.578C131.956 103.099 131.742 103.552 131.461 103.938C131.185 104.323 130.844 104.622 130.438 104.836C130.031 105.049 129.565 105.156 129.039 105.156C128.503 105.156 128.029 105.068 127.617 104.891C127.206 104.714 126.857 104.456 126.57 104.117C126.284 103.779 126.055 103.372 125.883 102.898C125.716 102.424 125.602 101.891 125.539 101.297V100.422C125.602 99.7969 125.719 99.237 125.891 98.7422C126.062 98.2474 126.289 97.8255 126.57 97.4766C126.857 97.1224 127.203 96.8542 127.609 96.6719C128.016 96.4844 128.484 96.3906 129.016 96.3906C129.547 96.3906 130.018 96.4948 130.43 96.7031C130.841 96.9062 131.188 97.1979 131.469 97.5781C131.75 97.9583 131.961 98.4141 132.102 98.9453C132.247 99.4714 132.32 100.057 132.32 100.703ZM130.867 100.867V100.703C130.867 100.281 130.823 99.8854 130.734 99.5156C130.646 99.1406 130.508 98.8125 130.32 98.5312C130.138 98.2448 129.904 98.0208 129.617 97.8594C129.331 97.6927 128.99 97.6094 128.594 97.6094C128.229 97.6094 127.911 97.6719 127.641 97.7969C127.375 97.9219 127.148 98.0911 126.961 98.3047C126.773 98.513 126.62 98.7526 126.5 99.0234C126.385 99.2891 126.299 99.5651 126.242 99.8516V101.875C126.346 102.24 126.492 102.583 126.68 102.906C126.867 103.224 127.117 103.482 127.43 103.68C127.742 103.872 128.135 103.969 128.609 103.969C129 103.969 129.336 103.888 129.617 103.727C129.904 103.56 130.138 103.333 130.32 103.047C130.508 102.76 130.646 102.432 130.734 102.062C130.823 101.688 130.867 101.289 130.867 100.867ZM139.648 103.555V99.2031C139.648 98.8698 139.581 98.5807 139.445 98.3359C139.315 98.0859 139.117 97.8932 138.852 97.7578C138.586 97.6224 138.258 97.5547 137.867 97.5547C137.503 97.5547 137.182 97.6172 136.906 97.7422C136.635 97.8672 136.422 98.0312 136.266 98.2344C136.115 98.4375 136.039 98.6562 136.039 98.8906H134.594C134.594 98.5885 134.672 98.2891 134.828 97.9922C134.984 97.6953 135.208 97.4271 135.5 97.1875C135.797 96.9427 136.151 96.75 136.562 96.6094C136.979 96.4635 137.443 96.3906 137.953 96.3906C138.568 96.3906 139.109 96.4948 139.578 96.7031C140.052 96.9115 140.422 97.2266 140.688 97.6484C140.958 98.0651 141.094 98.5885 141.094 99.2188V103.156C141.094 103.438 141.117 103.737 141.164 104.055C141.216 104.372 141.292 104.646 141.391 104.875V105H139.883C139.81 104.833 139.753 104.612 139.711 104.336C139.669 104.055 139.648 103.794 139.648 103.555ZM139.898 99.875L139.914 100.891H138.453C138.042 100.891 137.674 100.924 137.352 100.992C137.029 101.055 136.758 101.151 136.539 101.281C136.32 101.411 136.154 101.576 136.039 101.773C135.924 101.966 135.867 102.193 135.867 102.453C135.867 102.719 135.927 102.961 136.047 103.18C136.167 103.398 136.346 103.573 136.586 103.703C136.831 103.828 137.13 103.891 137.484 103.891C137.927 103.891 138.318 103.797 138.656 103.609C138.995 103.422 139.263 103.193 139.461 102.922C139.664 102.651 139.773 102.388 139.789 102.133L140.406 102.828C140.37 103.047 140.271 103.289 140.109 103.555C139.948 103.82 139.732 104.076 139.461 104.32C139.195 104.56 138.878 104.76 138.508 104.922C138.143 105.078 137.732 105.156 137.273 105.156C136.701 105.156 136.198 105.044 135.766 104.82C135.339 104.596 135.005 104.297 134.766 103.922C134.531 103.542 134.414 103.117 134.414 102.648C134.414 102.195 134.503 101.797 134.68 101.453C134.857 101.104 135.112 100.815 135.445 100.586C135.779 100.352 136.18 100.174 136.648 100.055C137.117 99.9349 137.641 99.875 138.219 99.875H139.898Z" fill="black"/>
</svg>
