<svg width="40" height="40" viewBox="0 0 40 40" fill="none" xmlns="http://www.w3.org/2000/svg">
<path fill-rule="evenodd" clip-rule="evenodd" d="M6 16H34V34C34 35.1046 33.1046 36 32 36H8C6.89543 36 6 35.1046 6 34V16Z" fill="#CE92D6"/>
<path fill-rule="evenodd" clip-rule="evenodd" d="M24 24H28C29.1046 24 30 24.8954 30 26V36H22V26C22 24.8954 22.8954 24 24 24Z" fill="#8B3D99"/>
<path d="M16 19H11C9.89543 19 9 19.8954 9 21V26C9 27.1046 9.89543 28 11 28H16C17.1046 28 18 27.1046 18 26V21C18 19.8954 17.1046 19 16 19Z" fill="#10CBB4"/>
<path d="M34 4H6C4.89543 4 4 4.89543 4 6V14C4 15.1046 4.89543 16 6 16H34C35.1046 16 36 15.1046 36 14V6C36 4.89543 35.1046 4 34 4Z" fill="#8B3D99"/>
<path fill-rule="evenodd" clip-rule="evenodd" d="M14.1608 11.6427C14.1608 11.6427 14.1171 11.8475 14.3084 11.8644C14.4051 11.8675 14.5079 11.8675 14.616 11.8675C15.3057 11.8675 15.9366 11.6169 15.9508 11.0015C15.9638 10.4561 15.4728 10.2917 14.8811 10.2917H14.4636L14.1608 11.6427ZM17.2899 11.0316C17.2899 11.8478 16.5966 12.9247 14.1989 12.7921C13.9179 12.7765 13.7452 12.7535 13.4918 12.692C12.5886 12.4723 12.9063 11.419 12.9063 11.419L13.8253 7.34318C14.3309 7.26175 14.898 7.2123 15.4805 7.2123C16.7629 7.2123 17.6127 7.66458 17.6127 8.51101C17.6127 9.30355 16.8388 9.73429 16.2529 9.8319C16.7172 9.86618 17.2899 10.2203 17.2899 11.0316ZM14.9453 8.15878L14.7135 9.20886C14.7135 9.20886 14.6559 9.43366 14.8523 9.43366H15.1227C15.8184 9.43366 16.3002 9.16426 16.3123 8.68968C16.3221 8.29819 15.9811 8.12857 15.4969 8.12857C15.2755 8.12857 15.0431 8.14349 14.9453 8.15878ZM23.1528 12.8068H22.3916L23.5986 7.37343C24.0978 7.2581 24.6232 7.23529 25.2317 7.24039C26.717 7.24625 27.3979 7.80787 27.3979 8.78684C27.3979 9.68387 26.6835 11.0037 24.6292 11.0037C24.4188 11.0037 24.2378 10.9799 24.1072 10.9712C24.1072 10.9712 23.9399 11.7267 23.8403 12.1718C23.7149 12.7306 23.3475 12.8068 23.1528 12.8068ZM24.804 8.19833L24.4685 9.71331C24.4685 9.71331 24.3603 10.0353 24.7465 10.0353C24.7942 10.0374 24.8459 10.0388 24.9029 10.0388C25.7664 10.0322 26.2099 9.46901 26.2099 8.88599C26.2099 8.31239 25.8136 8.17132 25.3364 8.17132C25.0928 8.17132 24.9099 8.18279 24.804 8.19833ZM19.3785 10.4064C19.3785 11.264 19.8766 11.8124 20.7312 11.8124C21.0831 11.8124 21.4676 11.7534 21.9861 11.3731L21.7829 12.2866C21.7829 12.2866 21.7264 12.5896 21.3896 12.7074C21.116 12.8099 20.8273 12.8566 20.3898 12.8566C19.1712 12.8566 17.9819 12.2566 17.9819 10.4789C17.9819 8.81593 19.0475 7.12573 21.1046 7.12573C21.5082 7.12573 21.7936 7.18257 22.1589 7.30045C22.7223 7.48217 22.7908 7.78726 22.7534 7.97013C22.7153 8.15734 22.5824 8.60719 22.5824 8.60719C22.228 8.29064 21.6107 8.20156 21.2675 8.20156C19.9526 8.20156 19.3785 9.52194 19.3785 10.4064ZM31.1528 9.09865C31.1942 9.15485 31.6859 9.76681 31.2331 10.4904C30.7375 11.2822 29.385 12.1847 29.0018 12.32C28.2565 12.6319 27.752 12.0535 27.7089 11.9929C27.5699 11.8138 27.5361 11.776 27.4689 11.6454C27.4557 11.667 28.8996 10.9954 29.4167 10.1266C29.9769 9.38029 30.0258 7.91642 29.4139 7.64115C29.599 7.73431 30.0349 7.9846 30.4283 8.33518C30.8208 8.66792 31.1602 9.10426 31.1528 9.09865ZM29.4366 9.69644C28.9768 9.1979 28.4917 8.89651 28.1336 8.72473C28.1336 8.72473 27.9592 8.6382 27.8681 8.5885C28.0009 8.29004 28.1756 8.07684 28.1756 8.07684C28.2003 8.04459 28.7295 7.4227 29.1951 7.64113C29.7035 7.86988 29.7553 8.91983 29.4366 9.69644ZM12.3044 9.09865C12.3458 9.15485 12.8374 9.76681 12.3847 10.4904C11.8891 11.2822 10.5366 12.1847 10.1534 12.32C9.40811 12.6319 8.90359 12.0535 8.86051 11.9929C8.72148 11.8138 8.68771 11.776 8.62042 11.6454C8.60729 11.667 10.0512 10.9954 10.5683 10.1266C11.1285 9.38029 11.1773 7.91642 10.5655 7.64115C10.7505 7.73431 11.1865 7.9846 11.5799 8.33518C11.9724 8.66792 12.3118 9.10426 12.3044 9.09865ZM10.5881 9.69644C10.1283 9.1979 9.64331 8.89651 9.28521 8.72473C9.28521 8.72473 9.11075 8.6382 9.01963 8.5885C9.15242 8.29004 9.32714 8.07684 9.32714 8.07684C9.35186 8.04459 9.88111 7.4227 10.3466 7.64113C10.8551 7.86988 10.9069 8.91983 10.5881 9.69644Z" fill="white"/>
</svg>
