<svg width="40" height="40" viewBox="0 0 40 40" fill="none" xmlns="http://www.w3.org/2000/svg">
<path fill-rule="evenodd" clip-rule="evenodd" d="M28.7873 18.3505H25.2096V12.9691C25.2096 9.99698 22.8069 7.58763 19.8431 7.58763C16.8792 7.58763 14.4765 9.99698 14.4765 12.9691V18.3505H10.8988V12.9691C10.8988 8.01559 14.9033 4 19.8431 4C24.7829 4 28.7873 8.01559 28.7873 12.9691V18.3505Z" fill="#8B3D99"/>
<path fill-rule="evenodd" clip-rule="evenodd" d="M8.81015 14.7217H30.5319C31.5317 14.7217 32.3421 15.5156 32.3421 16.4949V34.2268C32.3421 35.2061 31.5317 36 30.5319 36H8.81015C7.81043 36 7 35.2061 7 34.2268V16.4949C7 15.5156 7.81043 14.7217 8.81015 14.7217Z" fill="#CE92D6"/>
<path fill-rule="evenodd" clip-rule="evenodd" d="M19.9482 21.5445C21.1779 21.5445 22.1747 22.4921 22.1747 23.661C22.1747 24.4439 21.7275 25.1275 21.0626 25.4937L21.0614 27.8939C21.0614 28.4784 20.563 28.9522 19.9482 28.9522C19.3334 28.9522 18.8349 28.4784 18.8349 27.8939L18.8349 25.4943C18.1694 25.1283 17.7217 24.4443 17.7217 23.661C17.7217 22.4921 18.7185 21.5445 19.9482 21.5445Z" fill="#8B3D99"/>
<path d="M34.25 31H26.75C24.6789 31 23 32.567 23 34.5C23 36.433 24.6789 38 26.75 38H34.25C36.3211 38 38 36.433 38 34.5C38 32.567 36.3211 31 34.25 31Z" fill="#10CBB4"/>
<path d="M30.3143 35.5714C30.8192 35.5714 31.2286 35.1621 31.2286 34.6571C31.2286 34.1522 30.8192 33.7429 30.3143 33.7429C29.8093 33.7429 29.4 34.1522 29.4 34.6571C29.4 35.1621 29.8093 35.5714 30.3143 35.5714Z" fill="white"/>
<path d="M33.9714 35.5714C34.4764 35.5714 34.8857 35.1621 34.8857 34.6571C34.8857 34.1522 34.4764 33.7429 33.9714 33.7429C33.4665 33.7429 33.0571 34.1522 33.0571 34.6571C33.0571 35.1621 33.4665 35.5714 33.9714 35.5714Z" fill="white"/>
<path d="M26.6571 35.5714C27.1621 35.5714 27.5714 35.1621 27.5714 34.6571C27.5714 34.1522 27.1621 33.7429 26.6571 33.7429C26.1522 33.7429 25.7429 34.1522 25.7429 34.6571C25.7429 35.1621 26.1522 35.5714 26.6571 35.5714Z" fill="white"/>
</svg>
