<svg width="117" height="30" viewBox="0 0 117 30" fill="none" xmlns="http://www.w3.org/2000/svg">
<path d="M14.7907 15.4477C14.79 15.3538 14.7725 15.261 14.7391 15.1747C14.7058 15.0884 14.6573 15.0104 14.5964 14.945L1.90762 1.34001C1.83 1.25679 1.73461 1.19673 1.63036 1.16543C1.52611 1.13413 1.4164 1.13263 1.31148 1.16105C1.20656 1.18948 1.10985 1.2469 1.0304 1.32797C0.950947 1.40903 0.891338 1.51109 0.857143 1.6246C0.769699 1.90431 0.723946 2.19794 0.72168 2.49394V28.1933C0.72168 28.7256 0.857143 29.2254 1.12296 29.6785C1.17503 29.7666 1.24412 29.8408 1.32525 29.8958C1.40637 29.9507 1.4975 29.9849 1.59204 29.996C1.68658 30.0071 1.78217 29.9948 1.87189 29.96C1.96161 29.9252 2.04322 29.8687 2.11082 29.7946L14.6028 15.9546C14.6627 15.8879 14.7101 15.8088 14.7423 15.7218C14.7745 15.6349 14.791 15.5417 14.7907 15.4477ZM15.514 13.9596C15.6341 14.0899 15.7958 14.1623 15.9639 14.161C16.1319 14.1597 16.2927 14.0847 16.4111 13.9525L19.6379 10.3775C19.7076 10.2995 19.76 10.2047 19.7911 10.1005C19.8222 9.99638 19.8311 9.88566 19.8171 9.77705C19.8031 9.66844 19.7666 9.56489 19.7105 9.47451C19.6544 9.38413 19.5801 9.30938 19.4935 9.2561L4.36001 0.0742304C4.22337 -0.000983146 4.067 -0.0197768 3.91898 0.0212225C3.77096 0.0622218 3.64097 0.16033 3.55235 0.297937C3.46451 0.43632 3.4241 0.604877 3.43839 0.77331C3.45268 0.941743 3.52073 1.09901 3.6303 1.21683L15.514 13.9596ZM25.5651 12.9388L21.8284 10.6705C21.7069 10.5976 21.5676 10.5699 21.4308 10.5916C21.2941 10.6133 21.1673 10.6831 21.0693 10.7909L17.344 14.9181C17.2842 14.9846 17.237 15.0635 17.205 15.1503C17.1729 15.2372 17.1568 15.3302 17.1575 15.424C17.1583 15.5178 17.1758 15.6105 17.2091 15.6967C17.2424 15.7829 17.2909 15.8609 17.3517 15.9262L21.0654 19.9091C21.1638 20.0135 21.2896 20.0807 21.4247 20.1008C21.5597 20.1209 21.6971 20.0929 21.8169 20.0209L25.5651 17.747C26.3702 17.2586 26.8507 16.3595 26.8507 15.3429C26.8507 14.3263 26.3702 13.4272 25.5651 12.9388ZM16.4328 16.9131C16.3123 16.7841 16.1509 16.7127 15.9833 16.7143C15.8158 16.7159 15.6555 16.7903 15.537 16.9216L4.90442 28.7016C4.79151 28.8207 4.722 28.9816 4.7091 29.1538C4.6962 29.326 4.7408 29.4974 4.83443 29.6356C4.92807 29.7737 5.06422 29.8689 5.21706 29.9032C5.36989 29.9375 5.52876 29.9084 5.66353 29.8215L19.4705 21.4453C19.5585 21.3921 19.634 21.3168 19.6908 21.2253C19.7476 21.1338 19.7842 21.0288 19.7975 20.9188C19.8108 20.8087 19.8005 20.6967 19.7675 20.5919C19.7344 20.4871 19.6795 20.3923 19.6073 20.3154L16.4328 16.9131Z" fill="black"/>
<path d="M51.3616 14.5439V18.1875C51.2385 18.3698 51.0426 18.5749 50.7737 18.8027C50.5048 19.026 50.1334 19.222 49.6594 19.3906C49.19 19.5547 48.5839 19.6367 47.8411 19.6367C47.2349 19.6367 46.6767 19.5319 46.1663 19.3223C45.6604 19.1081 45.2206 18.7982 44.8469 18.3926C44.4778 17.9824 44.1907 17.4857 43.9856 16.9023C43.7851 16.3145 43.6848 15.6491 43.6848 14.9062V14.1338C43.6848 13.391 43.7714 12.7279 43.9446 12.1445C44.1223 11.5612 44.3821 11.0667 44.7239 10.6611C45.0657 10.251 45.4849 9.94108 45.9817 9.73145C46.4784 9.51725 47.0481 9.41016 47.6907 9.41016C48.4517 9.41016 49.0875 9.54232 49.5979 9.80664C50.1129 10.0664 50.5139 10.4264 50.801 10.8867C51.0927 11.347 51.2795 11.8711 51.3616 12.459H50.0422C49.983 12.099 49.8645 11.7708 49.6868 11.4746C49.5136 11.1784 49.2652 10.9414 48.9417 10.7637C48.6181 10.5814 48.2011 10.4902 47.6907 10.4902C47.2304 10.4902 46.8316 10.5745 46.4944 10.7432C46.1571 10.9118 45.8792 11.1533 45.6604 11.4678C45.4417 11.7822 45.2776 12.1628 45.1682 12.6094C45.0634 13.056 45.011 13.5596 45.011 14.1201V14.9062C45.011 15.4805 45.0771 15.9932 45.2092 16.4443C45.3459 16.8955 45.5396 17.2806 45.7903 17.5996C46.0409 17.9141 46.3394 18.1533 46.6858 18.3174C47.0367 18.4814 47.4241 18.5635 47.8479 18.5635C48.3173 18.5635 48.6978 18.5247 48.9895 18.4473C49.2812 18.3652 49.509 18.2695 49.6731 18.1602C49.8372 18.0462 49.9625 17.9391 50.0491 17.8389V15.6104H47.7454V14.5439H51.3616ZM53.0127 15.8838V15.7266C53.0127 15.1934 53.0902 14.6989 53.2451 14.2432C53.4001 13.7829 53.6234 13.3841 53.915 13.0469C54.2067 12.7051 54.5599 12.4408 54.9746 12.2539C55.3893 12.0625 55.8542 11.9668 56.3692 11.9668C56.8887 11.9668 57.3558 12.0625 57.7705 12.2539C58.1898 12.4408 58.5453 12.7051 58.8369 13.0469C59.1331 13.3841 59.3587 13.7829 59.5137 14.2432C59.6686 14.6989 59.7461 15.1934 59.7461 15.7266V15.8838C59.7461 16.417 59.6686 16.9115 59.5137 17.3672C59.3587 17.8229 59.1331 18.2217 58.8369 18.5635C58.5453 18.9007 58.1921 19.165 57.7774 19.3564C57.3672 19.5433 56.9024 19.6367 56.3828 19.6367C55.8633 19.6367 55.3962 19.5433 54.9815 19.3564C54.5667 19.165 54.2113 18.9007 53.915 18.5635C53.6234 18.2217 53.4001 17.8229 53.2451 17.3672C53.0902 16.9115 53.0127 16.417 53.0127 15.8838ZM54.2774 15.7266V15.8838C54.2774 16.2529 54.3206 16.6016 54.4072 16.9297C54.4938 17.2533 54.6237 17.5404 54.7969 17.791C54.9746 18.0417 55.1956 18.2399 55.46 18.3857C55.7243 18.527 56.0319 18.5977 56.3828 18.5977C56.7292 18.5977 57.0322 18.527 57.292 18.3857C57.5563 18.2399 57.7751 18.0417 57.9483 17.791C58.1214 17.5404 58.2513 17.2533 58.3379 16.9297C58.429 16.6016 58.4746 16.2529 58.4746 15.8838V15.7266C58.4746 15.362 58.429 15.0179 58.3379 14.6943C58.2513 14.3662 58.1192 14.0768 57.9414 13.8262C57.7682 13.571 57.5495 13.3704 57.2852 13.2246C57.0254 13.0788 56.7201 13.0059 56.3692 13.0059C56.0228 13.0059 55.7175 13.0788 55.4531 13.2246C55.1934 13.3704 54.9746 13.571 54.7969 13.8262C54.6237 14.0768 54.4938 14.3662 54.4072 14.6943C54.3206 15.0179 54.2774 15.362 54.2774 15.7266ZM60.9871 15.8838V15.7266C60.9871 15.1934 61.0646 14.6989 61.2195 14.2432C61.3744 13.7829 61.5978 13.3841 61.8894 13.0469C62.1811 12.7051 62.5343 12.4408 62.949 12.2539C63.3637 12.0625 63.8286 11.9668 64.3435 11.9668C64.8631 11.9668 65.3302 12.0625 65.7449 12.2539C66.1642 12.4408 66.5196 12.7051 66.8113 13.0469C67.1075 13.3841 67.3331 13.7829 67.4881 14.2432C67.643 14.6989 67.7205 15.1934 67.7205 15.7266V15.8838C67.7205 16.417 67.643 16.9115 67.4881 17.3672C67.3331 17.8229 67.1075 18.2217 66.8113 18.5635C66.5196 18.9007 66.1664 19.165 65.7517 19.3564C65.3416 19.5433 64.8767 19.6367 64.3572 19.6367C63.8377 19.6367 63.3705 19.5433 62.9558 19.3564C62.5411 19.165 62.1856 18.9007 61.8894 18.5635C61.5978 18.2217 61.3744 17.8229 61.2195 17.3672C61.0646 16.9115 60.9871 16.417 60.9871 15.8838ZM62.2517 15.7266V15.8838C62.2517 16.2529 62.295 16.6016 62.3816 16.9297C62.4682 17.2533 62.5981 17.5404 62.7713 17.791C62.949 18.0417 63.17 18.2399 63.4343 18.3857C63.6987 18.527 64.0063 18.5977 64.3572 18.5977C64.7036 18.5977 65.0066 18.527 65.2664 18.3857C65.5307 18.2399 65.7494 18.0417 65.9226 17.791C66.0958 17.5404 66.2257 17.2533 66.3123 16.9297C66.4034 16.6016 66.449 16.2529 66.449 15.8838V15.7266C66.449 15.362 66.4034 15.0179 66.3123 14.6943C66.2257 14.3662 66.0935 14.0768 65.9158 13.8262C65.7426 13.571 65.5239 13.3704 65.2595 13.2246C64.9998 13.0788 64.6944 13.0059 64.3435 13.0059C63.9972 13.0059 63.6918 13.0788 63.4275 13.2246C63.1677 13.3704 62.949 13.571 62.7713 13.8262C62.5981 14.0768 62.4682 14.3662 62.3816 14.6943C62.295 15.0179 62.2517 15.362 62.2517 15.7266ZM74.0884 12.1035H75.2368V19.3428C75.2368 19.9945 75.1047 20.5505 74.8404 21.0107C74.576 21.471 74.2069 21.8197 73.7329 22.0566C73.2635 22.2982 72.7212 22.4189 72.106 22.4189C71.8508 22.4189 71.55 22.3779 71.2036 22.2959C70.8618 22.2184 70.5246 22.084 70.1919 21.8926C69.8638 21.7057 69.5881 21.4528 69.3648 21.1338L70.0279 20.3818C70.3378 20.7555 70.6613 21.0153 70.9986 21.1611C71.3404 21.307 71.6776 21.3799 72.0103 21.3799C72.4113 21.3799 72.7577 21.3047 73.0493 21.1543C73.341 21.0039 73.5666 20.7806 73.7261 20.4844C73.8902 20.1927 73.9722 19.8327 73.9722 19.4043V13.7305L74.0884 12.1035ZM68.9956 15.8838V15.7402C68.9956 15.1751 69.0617 14.6624 69.1939 14.2021C69.3306 13.7373 69.5243 13.3385 69.7749 13.0059C70.0301 12.6732 70.3378 12.418 70.6978 12.2402C71.0578 12.0579 71.4634 11.9668 71.9146 11.9668C72.3794 11.9668 72.785 12.0488 73.1314 12.2129C73.4823 12.3724 73.7785 12.6071 74.02 12.917C74.2661 13.2223 74.4598 13.5915 74.6011 14.0244C74.7424 14.4574 74.8404 14.9473 74.895 15.4941V16.123C74.8449 16.6654 74.7469 17.153 74.6011 17.5859C74.4598 18.0189 74.2661 18.388 74.02 18.6934C73.7785 18.9987 73.4823 19.2334 73.1314 19.3975C72.7805 19.557 72.3703 19.6367 71.9009 19.6367C71.4589 19.6367 71.0578 19.5433 70.6978 19.3564C70.3423 19.1696 70.037 18.9076 69.7818 18.5703C69.5266 18.2331 69.3306 17.8366 69.1939 17.3809C69.0617 16.9206 68.9956 16.4215 68.9956 15.8838ZM70.2603 15.7402V15.8838C70.2603 16.2529 70.2967 16.5993 70.3697 16.9229C70.4471 17.2464 70.5633 17.5312 70.7183 17.7773C70.8778 18.0234 71.0806 18.2171 71.3267 18.3584C71.5728 18.4951 71.8667 18.5635 72.2085 18.5635C72.6278 18.5635 72.9741 18.4746 73.2476 18.2969C73.521 18.1191 73.7375 17.8844 73.897 17.5928C74.0611 17.3011 74.1887 16.9844 74.2798 16.6426V14.9951C74.2297 14.7445 74.1522 14.5029 74.0474 14.2705C73.9471 14.0335 73.815 13.8239 73.6509 13.6416C73.4914 13.4548 73.2932 13.3066 73.0562 13.1973C72.8192 13.0879 72.5412 13.0332 72.2222 13.0332C71.8758 13.0332 71.5773 13.1061 71.3267 13.252C71.0806 13.3932 70.8778 13.5892 70.7183 13.8398C70.5633 14.0859 70.4471 14.373 70.3697 14.7012C70.2967 15.0247 70.2603 15.3711 70.2603 15.7402ZM78.5218 9V19.5H77.2503V9H78.5218ZM83.6114 19.6367C83.0964 19.6367 82.6293 19.5501 82.21 19.377C81.7953 19.1992 81.4375 18.9508 81.1368 18.6318C80.8405 18.3128 80.6127 17.9346 80.4532 17.4971C80.2937 17.0596 80.2139 16.5811 80.2139 16.0615V15.7744C80.2139 15.1729 80.3028 14.6374 80.4805 14.168C80.6583 13.694 80.8998 13.293 81.2051 12.9648C81.5105 12.6367 81.8568 12.3883 82.2442 12.2197C82.6316 12.0511 83.0326 11.9668 83.4473 11.9668C83.976 11.9668 84.4317 12.0579 84.8145 12.2402C85.2019 12.4225 85.5186 12.6777 85.7647 13.0059C86.0108 13.3294 86.1931 13.7122 86.3116 14.1543C86.4301 14.5918 86.4893 15.0703 86.4893 15.5898V16.1572H80.9659V15.125H85.2247V15.0293C85.2064 14.7012 85.1381 14.3822 85.0196 14.0723C84.9056 13.7624 84.7234 13.5072 84.4727 13.3066C84.2221 13.1061 83.8803 13.0059 83.4473 13.0059C83.1602 13.0059 82.8959 13.0674 82.6543 13.1904C82.4128 13.3089 82.2055 13.4867 82.0323 13.7236C81.8591 13.9606 81.7247 14.25 81.629 14.5918C81.5333 14.9336 81.4854 15.3278 81.4854 15.7744V16.0615C81.4854 16.4124 81.5333 16.7428 81.629 17.0527C81.7292 17.3581 81.8728 17.627 82.0596 17.8594C82.251 18.0918 82.4812 18.2741 82.75 18.4062C83.0235 18.5384 83.3334 18.6045 83.6797 18.6045C84.1264 18.6045 84.5046 18.5133 84.8145 18.3311C85.1244 18.1488 85.3956 17.9049 85.628 17.5996L86.3936 18.208C86.2341 18.4495 86.0313 18.6797 85.7852 18.8984C85.5391 19.1172 85.2361 19.2949 84.876 19.4316C84.5206 19.5684 84.099 19.6367 83.6114 19.6367ZM95.2808 15.5967H92.6217V14.5234H95.2808C95.7958 14.5234 96.2128 14.4414 96.5318 14.2773C96.8508 14.1133 97.0832 13.8854 97.2291 13.5938C97.3795 13.3021 97.4547 12.9694 97.4547 12.5957C97.4547 12.2539 97.3795 11.9326 97.2291 11.6318C97.0832 11.3311 96.8508 11.0895 96.5318 10.9072C96.2128 10.7204 95.7958 10.627 95.2808 10.627H92.9293V19.5H91.6099V9.54688H95.2808C96.0328 9.54688 96.6685 9.67676 97.1881 9.93652C97.7076 10.1963 98.1018 10.5563 98.3707 11.0166C98.6396 11.4723 98.774 11.9941 98.774 12.582C98.774 13.2201 98.6396 13.7646 98.3707 14.2158C98.1018 14.667 97.7076 15.0111 97.1881 15.248C96.6685 15.4805 96.0328 15.5967 95.2808 15.5967ZM101.615 9V19.5H100.343V9H101.615ZM107.996 18.2354V14.4277C107.996 14.1361 107.937 13.8831 107.818 13.6689C107.705 13.4502 107.531 13.2816 107.299 13.1631C107.066 13.0446 106.779 12.9854 106.438 12.9854C106.119 12.9854 105.838 13.04 105.597 13.1494C105.36 13.2588 105.173 13.4023 105.036 13.5801C104.904 13.7578 104.838 13.9492 104.838 14.1543H103.573C103.573 13.89 103.642 13.6279 103.778 13.3682C103.915 13.1084 104.111 12.8737 104.366 12.6641C104.626 12.4499 104.936 12.2812 105.296 12.1582C105.661 12.0306 106.066 11.9668 106.513 11.9668C107.051 11.9668 107.525 12.0579 107.935 12.2402C108.349 12.4225 108.673 12.6982 108.905 13.0674C109.142 13.432 109.261 13.89 109.261 14.4414V17.8867C109.261 18.1328 109.281 18.3949 109.322 18.6729C109.368 18.9508 109.434 19.1901 109.521 19.3906V19.5H108.201C108.137 19.3542 108.087 19.1605 108.051 18.9189C108.014 18.6729 107.996 18.445 107.996 18.2354ZM108.215 15.0156L108.229 15.9043H106.95C106.59 15.9043 106.269 15.9339 105.986 15.9932C105.704 16.0479 105.467 16.1322 105.275 16.2461C105.084 16.36 104.938 16.5036 104.838 16.6768C104.738 16.8454 104.688 17.0436 104.688 17.2715C104.688 17.5039 104.74 17.7158 104.845 17.9072C104.95 18.0986 105.107 18.2513 105.316 18.3652C105.531 18.4746 105.793 18.5293 106.103 18.5293C106.49 18.5293 106.832 18.4473 107.128 18.2832C107.424 18.1191 107.659 17.9186 107.832 17.6816C108.01 17.4447 108.106 17.2145 108.119 16.9912L108.659 17.5996C108.627 17.791 108.541 18.0029 108.4 18.2354C108.258 18.4678 108.069 18.6911 107.832 18.9053C107.6 19.1149 107.322 19.2904 106.998 19.4316C106.679 19.5684 106.319 19.6367 105.918 19.6367C105.417 19.6367 104.977 19.5387 104.599 19.3428C104.225 19.1468 103.933 18.8848 103.724 18.5566C103.519 18.224 103.416 17.8525 103.416 17.4424C103.416 17.0459 103.494 16.6973 103.649 16.3965C103.803 16.0911 104.027 15.8382 104.318 15.6377C104.61 15.4326 104.961 15.2777 105.371 15.1729C105.781 15.068 106.239 15.0156 106.745 15.0156H108.215ZM113.209 18.7344L115.266 12.1035H116.62L113.653 20.6416C113.585 20.8239 113.494 21.0199 113.38 21.2295C113.27 21.4437 113.129 21.6465 112.956 21.8379C112.783 22.0293 112.573 22.1842 112.327 22.3027C112.085 22.4258 111.796 22.4873 111.459 22.4873C111.359 22.4873 111.231 22.4736 111.076 22.4463C110.921 22.4189 110.812 22.3962 110.748 22.3779L110.741 21.3525C110.778 21.3571 110.834 21.3617 110.912 21.3662C110.994 21.3753 111.051 21.3799 111.083 21.3799C111.37 21.3799 111.614 21.3411 111.814 21.2637C112.015 21.1908 112.183 21.0654 112.32 20.8877C112.461 20.7145 112.582 20.4753 112.682 20.1699L113.209 18.7344ZM111.698 12.1035L113.619 17.8457L113.947 19.1787L113.038 19.6436L110.317 12.1035H111.698Z" fill="#2C2044"/>
</svg>
