<svg width="80" height="80" viewBox="0 0 40 40" fill="none" xmlns="http://www.w3.org/2000/svg">
<path d="M9 8C9 7.44772 9.44772 7 10 7H30C30.5523 7 31 7.44772 31 8V35C31 35.5523 30.5523 36 30 36H10C9.44772 36 9 35.5523 9 35V8Z" fill="#8B3D99"/>
<path d="M11 10C11 9.44772 11.4477 9 12 9H28C28.5523 9 29 9.44772 29 10V33C29 33.5523 28.5523 34 28 34H12C11.4477 34 11 33.5523 11 33V10Z" fill="#FDF0FF"/>
<path d="M22 6H23C23.5523 6 24 6.44772 24 7V9C24 9.55228 23.5523 10 23 10H17C16.4477 10 16 9.55228 16 9V7C16 6.44772 16.4477 6 17 6H18C18 4.89543 18.8954 4 20 4C21.1046 4 22 4.89543 22 6Z" fill="#918AA0"/>
<path d="M13 17.5C13 17.2239 13.2239 17 13.5 17H26.5C26.7761 17 27 17.2239 27 17.5C27 17.7761 26.7761 18 26.5 18H13.5C13.2239 18 13 17.7761 13 17.5Z" fill="#CE92D6"/>
<path d="M13 13.5C13 13.2239 13.2239 13 13.5 13H26.5C26.7761 13 27 13.2239 27 13.5C27 13.7761 26.7761 14 26.5 14H13.5C13.2239 14 13 13.7761 13 13.5Z" fill="#CE92D6"/>
<path d="M13 21.5C13 21.2239 13.2239 21 13.5 21H26.5C26.7761 21 27 21.2239 27 21.5C27 21.7761 26.7761 22 26.5 22H13.5C13.2239 22 13 21.7761 13 21.5Z" fill="#CE92D6"/>
<path d="M13 25.5C13 25.2239 13.2239 25 13.5 25H26.5C26.7761 25 27 25.2239 27 25.5C27 25.7761 26.7761 26 26.5 26H13.5C13.2239 26 13 25.7761 13 25.5Z" fill="#CE92D6"/>
<path d="M13 29.5C13 29.2239 13.2239 29 13.5 29H19.5C19.7761 29 20 29.2239 20 29.5C20 29.7761 19.7761 30 19.5 30H13.5C13.2239 30 13 29.7761 13 29.5Z" fill="#CE92D6"/>
</svg>
