<svg width="375" height="464" viewBox="0 0 375 464" fill="none" xmlns="http://www.w3.org/2000/svg">
<g clip-path="url(#clip0_804_5029)">
<path d="M343.078 101.732C340.373 89.5595 339.198 88.7049 335.553 89.8811C331.907 91.053 329.912 94.4584 330.613 101.146C331.178 106.52 336.493 126.962 337.548 133.53C337.548 133.53 348.313 136.548 352.462 134.715C350.887 129.984 345.585 113.032 343.074 101.732H343.078Z" fill="#FBCCA1"/>
<path d="M321.031 259.786C319.093 256.852 317.005 253.579 314.803 249.957C314.264 249.072 313.717 248.169 313.165 247.239C305.489 234.331 296.644 217.397 288.434 196.312C286.161 190.409 282.33 182.369 275.832 174.043C275.77 173.968 275.713 173.893 275.656 173.818C269.225 165.642 260.547 159.584 250.779 156.267C248.418 155.465 245.99 154.826 243.518 154.355C232.708 152.289 220.367 150.482 206.719 149.416C205.025 149.28 203.308 149.161 201.568 149.051C201.065 149.02 200.558 148.989 200.05 148.963C183.494 147.993 165.18 148.156 145.494 150.24C128.942 151.993 113.524 154.879 99.3337 158.443C97.1047 159.007 94.9022 159.584 92.7305 160.183C87.6325 161.575 82.7022 163.051 77.9484 164.589C68.7763 167.558 60.2531 170.752 52.414 174.003C41.11 178.695 31.3774 186.034 23.8693 195.167C15.5006 205.335 9.88609 217.731 7.91308 231.19C6.35498 241.798 4.98225 252.768 3.83023 264.094C0.368334 298.15 -0.481249 329.795 0.233871 358.451C0.580112 372.325 3.04334 386.068 7.61369 399.172C8.77921 402.514 9.98489 405.884 11.2323 409.28C18.4888 429.034 26.2749 447.281 34.2023 464C51.6725 463.793 69.1427 463.59 86.6129 463.383C86.9881 463.379 87.3588 463.374 87.734 463.37C88.2902 463.366 88.8463 463.357 89.398 463.352H262.268C262.467 433.484 262.666 403.615 262.864 373.746C262.975 357.287 263.081 340.824 263.191 324.365C264.753 320.977 266.298 317.048 267.618 312.607C268.452 309.801 269.092 307.131 269.582 304.638C286.006 314.365 302.43 324.092 318.855 333.815C329.514 330.669 344.027 324.643 347.558 312.858C351.804 298.712 337.627 284.941 321.031 259.786ZM88.7933 373.746C88.1666 378.063 87.5795 382.469 87.0499 386.953C85.7169 398.192 84.8164 409.033 84.2603 419.452C82.3402 401.491 81.3162 391.293 78.1029 376.741C76.3726 368.922 74.6203 362.613 73.4374 358.582C74.3202 349.912 75.1853 341.247 76.0372 332.577C76.9332 323.471 77.8072 314.356 78.6679 305.241L78.6811 305.272L80.6012 309.387L94.8889 340.013C92.6069 350.582 90.528 361.838 88.7933 373.746Z" fill="#BDE8B0"/>
<path d="M262.864 373.746C262.666 403.615 262.467 433.484 262.268 463.352H89.398C88.8463 463.357 88.2901 463.366 87.734 463.37C86.6835 452.039 84.94 432.391 84.2603 419.452L85.2666 373.746H262.864Z" fill="#8AD2FF"/>
<path d="M81.069 299.294C81.0558 302.576 80.8969 305.964 80.6012 309.387L78.6811 305.272C78.7959 303.245 78.8533 301.245 78.8621 299.285C78.9548 276.698 76.2711 257.275 70.8906 241.56C66.3531 228.296 59.8912 217.639 51.699 209.89C51.2532 209.471 51.2355 208.771 51.6548 208.33C52.0741 207.89 52.7759 207.872 53.2173 208.291C61.6744 216.286 68.3217 227.243 72.9828 240.847C78.4428 256.794 81.1617 276.46 81.069 299.294Z" fill="#85D46E"/>
<path d="M270.443 291.294C269.847 291.294 269.353 290.818 269.34 290.219C268.929 272.504 263.646 243.058 250.108 218.357C250.002 218.163 249.958 217.943 249.98 217.723C251.318 204.031 251.812 190.867 251.446 178.589C251.428 177.981 251.905 177.475 252.514 177.457C252.527 177.457 252.536 177.457 252.549 177.457C253.145 177.457 253.635 177.928 253.653 178.527C254.014 190.797 253.529 203.942 252.209 217.604C265.817 242.591 271.132 272.284 271.546 290.175C271.56 290.782 271.079 291.289 270.469 291.302C270.461 291.302 270.452 291.302 270.443 291.302V291.294Z" fill="#85D46E"/>
<path d="M356.382 173.025C355.759 185.347 354.616 207.088 354.616 207.088L328.062 209.78C328.062 209.78 317.451 199.29 317.076 180.541C317.076 180.382 317.067 180.224 317.067 180.065C316.458 180.047 315.889 180.03 315.359 179.999C312.031 179.823 310.084 179.386 307.264 178.342C305.86 177.827 304.783 176.668 304.386 175.228C301.87 166.047 300.581 156.456 301.115 150.967C301.27 149.407 301.852 147.932 302.753 146.654C308.84 138.037 319.217 130.557 320.912 130.239C322.015 130.032 343.621 131.301 349.637 131.922C349.792 131.94 349.942 131.971 350.092 132.028C350.608 132.204 351.09 132.596 351.527 133.165C355.936 138.812 356.934 162.122 356.382 173.025Z" fill="#FCDABA"/>
<path d="M217.979 99.9211C218.46 98.6788 220.985 91.8063 217.472 84.8193C215.578 81.057 212.762 78.9028 211.204 77.8895C211.614 77.0481 215.379 68.9949 211.036 60.8184C207.461 54.0913 200.928 52.0516 199.688 51.6903C200.981 47.1175 199.666 42.3024 196.303 39.3507C192.493 36.007 187.757 36.5444 186.989 36.6458C187.192 36.0202 190.008 26.8084 183.772 19.2355C179.442 13.9754 172.437 11.5612 165.648 12.9797C165.489 12.2572 164.289 7.2042 159.553 4.86491C155.103 2.671 149.378 3.77677 145.494 7.73726C145.013 6.9575 141.261 1.09385 133.806 0.129063C125.499 -0.945864 120.026 5.03232 119.58 5.53895C114.738 2.08067 108.365 1.62251 103.152 4.35388C97.6697 7.23063 94.3945 13.156 94.8536 19.3985C94.3151 19.2795 86.1317 17.6143 80.12 23.6233C75.9974 27.7424 74.5011 33.8703 76.2269 39.5137C75.7944 39.6018 66.0794 41.7429 62.8484 51.1793C59.794 60.0959 65.3202 67.3913 65.7263 67.9156C65.2098 68.061 57.459 70.4047 55.0579 78.3961C52.6346 86.4669 57.9402 92.727 58.2756 93.1059C56.9868 93.5068 50.4056 95.6875 47.0996 102.401C44.032 108.622 44.9721 116.305 49.4699 122.177C44.8044 127.424 45.0251 135.407 49.8098 140.266C54.3781 144.901 61.8994 145.469 67.2535 141.451C68.0392 142.447 72.815 148.302 81.3117 149.059C89.8703 149.822 95.6348 144.83 96.575 143.989C98.0978 145.694 101.629 149.148 107.226 150.579C117.846 153.297 126.422 146.315 127.38 145.509C128.417 146.354 135.642 152.042 145.503 150.24C154.035 148.681 158.617 142.597 159.561 141.279C160.497 141.755 168.155 145.473 176.497 141.619C184.412 137.962 186.685 130.38 186.998 129.279C191.05 133.006 196.982 133.808 201.732 131.305C206.088 129.015 208.741 124.318 208.507 119.305C208.847 119.349 215.397 120.129 219.175 115.415C222.526 111.239 222.234 104.569 217.988 99.9211H217.979Z" fill="#2C2044"/>
<path d="M216.995 150.381C215.159 155.253 211.804 162.43 205.643 169.501C190.039 187.391 168.579 190.673 158.083 192.277C147.856 193.841 119.373 198.193 96.4869 180.303C89.0053 174.457 84.3133 167.941 81.5635 163.443C90.6561 160.61 100.949 157.835 112.333 155.452L114.142 111.763H166.721L168.553 146.073L168.689 148.601C186.989 147.949 203.281 148.874 216.995 150.381Z" fill="#FCDABA"/>
<path d="M168.553 146.073C161.636 144.125 153.81 141.407 145.481 137.561C138.463 134.319 132.332 130.856 127.084 127.512C124.996 122.266 122.913 117.014 120.83 111.763H166.721L168.553 146.073Z" fill="#FBCCA1"/>
<path d="M150.566 130.535L142.312 131.182C122.79 132.715 105.721 118.164 104.185 98.6788L104.167 98.4806L98.3807 98.9343C91.9717 99.4366 86.3705 94.6611 85.8629 88.2644L85.7746 87.1366C85.2714 80.7399 90.0561 75.1494 96.4651 74.6471L102.256 74.189L101.245 61.3339C99.6122 40.5887 115.136 22.4471 135.921 20.817L139.593 20.5263C143.041 20.2576 146.417 20.4558 149.657 21.0726C165.953 24.1784 178.824 37.8353 180.188 55.1398L181.949 77.5019L182.421 83.458L183.132 92.4848C184.668 111.966 170.084 129.006 150.566 130.535Z" fill="#FCDABA"/>
<path fill-rule="evenodd" clip-rule="evenodd" d="M93.2735 81.2168C93.5167 80.9442 93.9352 80.9199 94.2083 81.1626L100.719 86.9469C100.86 87.0723 100.941 87.252 100.941 87.4406C100.941 87.6293 100.86 87.8089 100.719 87.9343L94.2037 93.7186C93.9305 93.9612 93.512 93.9368 93.269 93.6641C93.0259 93.3914 93.0504 92.9737 93.3236 92.7311L99.2826 87.4403L93.3279 82.1498C93.0547 81.9071 93.0304 81.4894 93.2735 81.2168Z" fill="#DCAC82"/>
<path d="M100.437 103.785C102.575 103.785 104.308 102.055 104.308 99.9211C104.308 97.7873 102.575 96.0576 100.437 96.0576C98.2995 96.0576 96.5664 97.7873 96.5664 99.9211C96.5664 102.055 98.2995 103.785 100.437 103.785Z" fill="#F4C12A"/>
<path d="M136.786 93.2072C136.794 94.2821 136.953 99.2074 140.948 102.181C143.755 104.274 146.999 104.313 150.186 104.353C152.949 104.388 156.45 104.428 159.954 102.393C164.973 99.4718 166.398 94.3879 166.712 93.1059L136.781 93.2072H136.786Z" fill="white"/>
<path d="M132.144 69.2028L132.417 69.1813C133.953 69.0607 135.296 70.2058 135.417 71.7385L135.712 75.4804C135.833 77.0132 134.686 78.3539 133.15 78.4745L132.877 78.4959C131.341 78.6166 129.998 77.4715 129.877 75.9387L129.582 72.1969C129.461 70.6641 130.609 69.3234 132.144 69.2028Z" fill="#2C2044"/>
<path d="M166.253 66.5138L166.525 66.4923C168.061 66.3717 169.404 67.5168 169.525 69.0495L169.82 72.7914C169.941 74.3242 168.794 75.6649 167.258 75.7855L166.99 75.8066C165.454 75.9272 164.111 74.7822 163.99 73.2494L163.695 69.5075C163.574 67.9748 164.721 66.6341 166.257 66.5134L166.253 66.5138Z" fill="#2C2044"/>
<path d="M123.826 81.5152C119.717 81.8368 116.53 83.9382 116.707 86.2026C116.883 88.467 120.361 90.0441 124.471 89.7225C128.58 89.4009 131.767 87.2995 131.59 85.0351C131.414 82.7707 127.936 81.1936 123.826 81.5152Z" fill="#FBCCA1"/>
<path d="M182.421 83.458C181.145 84.2598 179.375 84.8281 177.394 84.9867C173.284 85.3083 169.806 83.7311 169.63 81.4667C169.453 79.1979 172.64 77.101 176.749 76.7794C178.727 76.6252 180.558 76.9071 181.949 77.5018L182.421 83.458Z" fill="#FBCCA1"/>
<path d="M146.05 32.8042C140.573 39.593 132.23 39.1613 131.476 39.1084C131.206 40.016 129.825 44.3069 125.327 46.862C121.16 49.2277 117.117 48.5229 116.098 48.3158C119.17 51.5538 119.779 56.272 117.718 59.792C115.219 64.0432 110.126 64.3032 109.781 64.3164C112.147 69.1051 111.613 74.559 108.488 78.0481C106.683 80.0658 104.436 80.9513 102.821 81.3478L101.245 61.3339C99.6117 40.5887 115.135 22.4471 135.92 20.817L139.593 20.5263C143.04 20.2576 146.417 20.4558 149.656 21.0726C149.837 24.3414 149.281 28.7953 146.05 32.8042Z" fill="#2C2044"/>
<path d="M121.734 239.041C118.265 239.732 114.796 240.428 111.326 241.12C110.885 227.622 109.071 210.617 103.915 191.603C100.676 179.651 96.7207 169.144 92.7261 160.183C94.8977 159.584 97.1002 159.007 99.3293 158.443C103.624 166.743 107.941 176.474 111.648 187.585C118.26 207.379 120.825 225.194 121.734 239.041Z" fill="#B9B4C4"/>
<path d="M233.843 234.754C229.95 235.481 226.053 236.203 222.16 236.93C221.983 231.851 221.603 226.3 220.928 220.344C220.297 214.824 218.567 201.599 213.844 185.087C210.988 175.109 206.684 162.699 200.046 148.962C200.553 148.989 201.061 149.02 201.564 149.051C203.303 149.161 205.02 149.28 206.715 149.416C212.771 161.65 217.344 172.333 220.703 180.774C228.171 199.533 230.246 208.687 231.186 213.383C232.929 222.115 233.578 229.529 233.839 234.754H233.843Z" fill="#B9B4C4"/>
<path d="M321.565 157.205C320.629 159.192 318.131 169.932 317.076 180.541C317.076 180.382 317.067 180.224 317.067 180.065C316.458 180.047 315.888 180.03 315.359 179.999C315.619 177.448 315.959 174.893 316.338 172.439C315.169 172.131 313.218 171.615 311.951 169.871C309.735 166.813 308.932 164.267 308.398 162.584C308.314 162.311 308.235 162.055 308.155 161.822C307.996 161.359 308.243 160.862 308.707 160.703C309.17 160.549 309.669 160.796 309.828 161.258C309.907 161.5 309.991 161.769 310.084 162.055C310.609 163.725 311.333 166.012 313.381 168.835C314.233 170.012 315.579 170.413 316.621 170.69C317.76 163.848 319.172 158.143 319.967 156.452C320.174 156.011 320.699 155.826 321.141 156.029C321.582 156.236 321.772 156.765 321.565 157.205Z" fill="#DCAC82"/>
<path d="M351.526 133.165C350.286 134.068 349.346 134.971 348.423 135.861C347.108 137.129 345.744 138.442 343.625 139.61C342.063 140.464 340.324 141.086 338.646 141.685C335.526 142.799 332.304 143.954 329.81 146.707C329.638 146.896 329.395 146.998 329.157 146.998C328.945 146.998 328.733 146.923 328.565 146.769C328.203 146.443 328.172 145.887 328.499 145.526C331.288 142.442 334.727 141.213 338.051 140.028C339.741 139.425 341.334 138.852 342.773 138.063C344.689 137.015 345.907 135.839 347.196 134.592C348.07 133.751 348.962 132.891 350.092 132.028C350.608 132.204 351.089 132.596 351.526 133.165Z" fill="#DCAC82"/>
<path d="M82.5078 346.52C82.5078 346.52 100.464 329.586 90.113 242.243C134.486 231.186 184.297 224.031 238.583 224.683C245.081 224.763 251.485 224.952 257.806 225.238C263.332 234.23 276.181 257.949 273.281 289.104C271.873 304.232 267.203 316.272 263.186 324.365C263.186 324.365 265.919 396.006 268.373 410.703C270.827 425.4 282.232 464 282.232 464H126.4C123.928 453.497 119.042 438.307 108.823 422.214C100.534 409.165 91.3974 399.703 84.163 393.297C85.1429 382.53 85.6682 351.895 82.5078 346.52Z" fill="#E2DFE8"/>
<path d="M325.017 205.665C320.894 224.89 316.246 244.724 310.989 265.103C308.76 273.742 306.915 282.372 304.174 290.597C300.14 302.712 301.265 312.131 304.624 319.325C312.786 336.806 334.705 342.643 351.01 332.299C366.613 322.405 376.363 304.422 374.845 290.386C374.134 283.835 373.3 277.13 372.325 270.288C368.599 244.16 363.444 220.406 357.768 199.286C353.883 200.762 349.372 202.198 344.279 203.334C337.009 204.956 330.45 205.55 325.012 205.665H325.017Z" fill="#BDE8B0"/>
<path d="M314.802 249.957C314.387 251.702 313.933 253.583 313.456 255.565C310.636 267.275 307.127 281.848 306.336 292.443C306.297 293.025 305.811 293.465 305.237 293.465C305.211 293.465 305.184 293.465 305.153 293.465C304.549 293.421 304.09 292.893 304.138 292.285C304.937 281.509 308.473 266.843 311.311 255.059C311.986 252.261 312.626 249.605 313.165 247.243C313.716 248.173 314.264 249.076 314.802 249.962V249.957Z" fill="#85D46E"/>
<path d="M172.543 334.956C172.097 334.956 171.678 334.683 171.51 334.247C171.294 333.678 171.581 333.044 172.15 332.828C190.596 325.837 218.505 322.206 235.22 320.554C215.415 319.687 176.749 320.013 132.981 331.053C132.394 331.202 131.789 330.846 131.639 330.255C131.489 329.665 131.847 329.066 132.438 328.916C196.06 312.867 249 319.325 249.53 319.391C250.095 319.462 250.514 319.955 250.492 320.524C250.475 321.092 250.02 321.55 249.455 321.585C248.965 321.612 200.306 324.511 172.936 334.885C172.808 334.934 172.675 334.956 172.543 334.956Z" fill="#B9B4C4"/>
</g>
<defs>
<clipPath id="clip0_804_5029">
<rect width="375" height="464" fill="white"/>
</clipPath>
</defs>
</svg>
