<svg width="80" height="80" viewBox="0 0 80 80" fill="none" xmlns="http://www.w3.org/2000/svg">
<rect x="9" y="10" width="61" height="38" rx="3" fill="#BD77C7"/>
<path fill-rule="evenodd" clip-rule="evenodd" d="M19 16C19 18.7614 16.7614 21 14 21C13.6575 21 13.3231 20.9656 13 20.9V38.1C13.3231 38.0344 13.6575 38 14 38C16.7614 38 19 40.2386 19 43C19 43.3425 18.9656 43.6769 18.9 44H60.1C60.0344 43.6769 60 43.3425 60 43C60 40.2386 62.2386 38 65 38C65.3425 38 65.6769 38.0344 66 38.1V20.9C65.6769 20.9656 65.3425 21 65 21C62.2386 21 60 18.7614 60 16C60 15.6575 60.0344 15.3231 60.1 15H18.9C18.9656 15.3231 19 15.6575 19 16Z" fill="#F0CEF5"/>
<circle cx="39.5" cy="29.5" r="10.5" fill="#10CBB4"/>
<path fill-rule="evenodd" clip-rule="evenodd" d="M41.1585 25.888C40.741 25.5809 39.7949 25.1907 38.7453 25.1453C36.9115 25.066 35.4752 26.0518 35.4066 27.6388C35.3561 28.8071 36.0811 29.4648 36.9141 29.9343L37.2114 30.0927L37.5672 30.2648L38.0834 30.5015L38.3999 30.6527C38.9016 30.9038 39.2582 31.1585 39.2423 31.5265C39.2278 31.8631 38.9128 32.1145 38.2552 32.086C37.6849 32.0614 37.2372 31.8382 36.9259 31.6579L36.634 31.486C36.226 31.2515 35.9341 31.263 35.6661 31.6007L35.2507 32.1248L35.1795 32.2214C34.9305 32.597 35.1006 32.8447 35.3376 33.0439C35.8026 33.4254 36.9069 33.967 38.1715 34.0216C40.2076 34.1096 41.3994 32.9205 41.4617 31.4779C41.5136 30.2781 40.7608 29.6331 39.9086 29.1791L39.6218 29.0344L39.4774 28.9664L38.783 28.6586L38.4662 28.5128C37.9643 28.2695 37.6075 28.0172 37.6239 27.6383C37.6384 27.3017 37.9407 27.0497 38.6363 27.0798C39.0821 27.0991 39.4233 27.229 39.7386 27.3815L40.1281 27.5788C40.4467 27.7321 40.7544 27.7736 41.0066 27.3509L41.3345 26.799L41.3846 26.7071C41.532 26.4038 41.482 26.1319 41.1585 25.888ZM45.4471 27.2229C45.528 26.9046 45.348 26.7025 44.9679 26.6861L44.6569 26.6727L44.5476 26.6733C44.2686 26.6898 44.0884 26.8247 43.9852 27.0771L41.4097 33.5646L41.3812 33.652C41.3006 33.9628 41.4806 34.1649 41.8607 34.1813L42.1717 34.1948L42.281 34.1941C42.56 34.1777 42.7402 34.0427 42.8434 33.7903L45.4185 27.3125L45.4471 27.2229Z" fill="white"/>
<rect x="18" y="27" width="6" height="4" rx="2" fill="#BD77C7"/>
<rect x="55" y="27" width="6" height="4" rx="2" fill="#BD77C7"/>
<rect x="9" y="58" width="61" height="4" rx="2" fill="#A35AAD"/>
<rect x="9" y="65" width="61" height="4" rx="2" fill="#BD77C7"/>
<path d="M9 53C9 51.8954 9.89543 51 11 51H68C69.1046 51 70 51.8954 70 53C70 54.1046 69.1046 55 68 55H11C9.89543 55 9 54.1046 9 53Z" fill="#742384"/>
</svg>
