<svg width="64" height="64" viewBox="0 0 64 64" fill="none" xmlns="http://www.w3.org/2000/svg">
<path fill-rule="evenodd" clip-rule="evenodd" d="M20.8002 19.2H42.2452C45.0729 19.2 47.3652 21.4923 47.3652 24.32C47.3652 24.3717 47.3644 24.4234 47.3629 24.4751L46.3932 51.3551C46.3094 54.1211 44.0428 56.32 41.2755 56.32H21.7699C19.0026 56.32 16.7361 54.1211 16.6523 51.3551L15.6826 24.4751C15.5969 21.6487 17.8187 19.288 20.6451 19.2024C20.6968 19.2008 20.7485 19.2 20.8002 19.2Z" fill="#CE92D6"/>
<path fill-rule="evenodd" clip-rule="evenodd" d="M20.8 20.48C20.7612 20.48 20.7224 20.4806 20.6837 20.4818C18.565 20.546 16.8993 22.3146 16.9616 24.4329C16.9617 24.4341 16.9617 24.4352 16.9617 24.4364L17.9315 51.3163C17.9943 53.3909 19.6942 55.04 21.7697 55.04H41.2753C43.3508 55.04 45.0507 53.3909 45.1135 51.3163L45.1137 51.309L46.0832 24.4364C46.0833 24.4352 46.0833 24.434 46.0833 24.4328C46.0844 24.3952 46.085 24.3576 46.085 24.32C46.085 22.1993 44.3658 20.48 42.245 20.48H20.8ZM20.6061 17.923C20.6707 17.921 20.7354 17.92 20.8 17.92H42.245C45.7796 17.92 48.645 20.7854 48.645 24.32C48.645 24.3847 48.644 24.4493 48.642 24.5139L48.6418 24.5213L47.6723 51.3939C47.6723 51.3952 47.6723 51.3966 47.6722 51.3979C47.5654 54.8536 44.7331 57.6 41.2753 57.6H21.7697C18.3118 57.6 15.4795 54.8535 15.3727 51.3978C15.3727 51.3965 15.3727 51.3952 15.3726 51.3939L14.4029 24.5139C14.2958 20.9809 17.0731 18.03 20.6061 17.923Z" fill="#8B3D99"/>
<path fill-rule="evenodd" clip-rule="evenodd" d="M23.5127 15.36H39.5327C42.3604 15.36 44.6527 17.6523 44.6527 20.48C44.6527 20.5803 44.6497 20.6806 44.6438 20.7807L43.9662 31.0207C43.807 33.7269 41.5659 35.84 38.855 35.84H24.1904C21.4795 35.84 19.2384 33.7269 19.0792 31.0207L18.4016 20.7807C18.2355 17.9579 20.3893 15.5349 23.2121 15.3689C23.3122 15.363 23.4124 15.36 23.5127 15.36Z" fill="#10CBB4"/>
<path fill-rule="evenodd" clip-rule="evenodd" d="M21.8283 38.4H25.8563C26.5089 38.4 27.0426 38.9159 27.0426 39.5464V41.0936C27.0426 41.7241 26.5089 42.24 25.8563 42.24H21.8283C21.1759 42.24 20.6426 41.7241 20.6426 41.0936V39.5464C20.6426 38.9159 21.1759 38.4 21.8283 38.4Z" fill="#FDF0FF"/>
<path fill-rule="evenodd" clip-rule="evenodd" d="M29.508 38.4H33.536C34.1886 38.4 34.7223 38.9159 34.7223 39.5464V41.0936C34.7223 41.7241 34.1886 42.24 33.536 42.24H29.508C28.8556 42.24 28.3223 41.7241 28.3223 41.0936V39.5464C28.3223 38.9159 28.8556 38.4 29.508 38.4Z" fill="#FDF0FF"/>
<path fill-rule="evenodd" clip-rule="evenodd" d="M37.1882 38.4H41.2161C41.8687 38.4 42.4024 38.9159 42.4024 39.5464V41.0936C42.4024 41.7241 41.8687 42.24 41.2161 42.24H37.1882C36.5357 42.24 36.0024 41.7241 36.0024 41.0936V39.5464C36.0024 38.9159 36.5357 38.4 37.1882 38.4Z" fill="#FDF0FF"/>
<path fill-rule="evenodd" clip-rule="evenodd" d="M21.8283 43.52H25.8563C26.5089 43.52 27.0426 44.0359 27.0426 44.6664V46.2136C27.0426 46.8441 26.5089 47.36 25.8563 47.36H21.8283C21.1759 47.36 20.6426 46.8441 20.6426 46.2136V44.6664C20.6426 44.0359 21.1759 43.52 21.8283 43.52Z" fill="#FDF0FF"/>
<path fill-rule="evenodd" clip-rule="evenodd" d="M29.508 43.52H33.536C34.1886 43.52 34.7223 44.0359 34.7223 44.6664V46.2136C34.7223 46.8441 34.1886 47.36 33.536 47.36H29.508C28.8556 47.36 28.3223 46.8441 28.3223 46.2136V44.6664C28.3223 44.0359 28.8556 43.52 29.508 43.52Z" fill="#FDF0FF"/>
<path fill-rule="evenodd" clip-rule="evenodd" d="M41.2161 43.52C41.8687 43.52 42.4024 43.9714 42.4024 44.5231V51.4769C42.4024 52.0286 41.8687 52.48 41.2161 52.48H37.1882C36.5357 52.48 36.0024 52.0286 36.0024 51.4769V44.5231C36.0024 43.9714 36.5357 43.52 37.1882 43.52H41.2161Z" fill="#FDF0FF"/>
<path fill-rule="evenodd" clip-rule="evenodd" d="M21.8283 48.64H25.8563C26.5089 48.64 27.0426 49.1559 27.0426 49.7864V51.3336C27.0426 51.9641 26.5089 52.48 25.8563 52.48H21.8283C21.1759 52.48 20.6426 51.9641 20.6426 51.3336V49.7864C20.6426 49.1559 21.1759 48.64 21.8283 48.64Z" fill="#FDF0FF"/>
<path fill-rule="evenodd" clip-rule="evenodd" d="M29.508 48.64H33.536C34.1886 48.64 34.7223 49.1559 34.7223 49.7864V51.3336C34.7223 51.9641 34.1886 52.48 33.536 52.48H29.508C28.8556 52.48 28.3223 51.9641 28.3223 51.3336V49.7864C28.3223 49.1559 28.8556 48.64 29.508 48.64Z" fill="#FDF0FF"/>
<path fill-rule="evenodd" clip-rule="evenodd" d="M39.0422 23.04H24.0034C23.5629 23.04 23.2026 23.3446 23.2026 23.7169V32.6032C23.2026 32.9754 23.5629 33.28 24.0034 33.28H39.0422C39.4823 33.28 39.8426 32.9754 39.8426 32.6032V23.7169C39.8426 23.3446 39.4823 23.04 39.0422 23.04Z" fill="white"/>
<path fill-rule="evenodd" clip-rule="evenodd" d="M35.4905 24.576C36.056 25.0002 36.1706 25.8025 35.7465 26.368L31.9065 31.488C31.6838 31.7849 31.3433 31.9705 30.9732 31.9968C30.6031 32.0231 30.2398 31.8875 29.9774 31.6251L27.4174 29.0651C26.9175 28.5652 26.9175 27.7548 27.4174 27.2549C27.9173 26.7551 28.7277 26.7551 29.2276 27.2549L30.744 28.7713L33.6985 24.832C34.1226 24.2665 34.9249 24.1519 35.4905 24.576Z" fill="#10CBB4"/>
<path fill-rule="evenodd" clip-rule="evenodd" d="M21.9224 6.40002V19.2H41.1224V6.40002L39.2024 8.32002L37.2824 6.40002L35.3624 8.32002L33.4424 6.40002L31.5224 8.32002L29.6024 6.40002L27.6824 8.32002L25.7624 6.40002L23.8424 8.32002L21.9224 6.40002Z" fill="#F4C12A"/>
<path d="M21.9224 19.2H41.1224" stroke="#10CBB4" stroke-width="1.6" stroke-linecap="round" stroke-linejoin="round"/>
<path fill-rule="evenodd" clip-rule="evenodd" d="M24.4824 14.08H34.7224V12.8H24.4824V14.08Z" fill="#795B11"/>
<path fill-rule="evenodd" clip-rule="evenodd" d="M24.4824 16.64H38.5624V15.36H24.4824V16.64Z" fill="#795B11"/>
</svg>
