<svg width="80" height="80" viewBox="0 0 40 40" fill="none" xmlns="http://www.w3.org/2000/svg">
<path fill-rule="evenodd" clip-rule="evenodd" d="M6 4H34C35.1046 4 36 4.89543 36 6V34C36 35.1046 35.1046 36 34 36H6C4.89543 36 4 35.1046 4 34V6C4 4.89543 4.89543 4 6 4Z" fill="#CE92D6"/>
<path fill-rule="evenodd" clip-rule="evenodd" d="M9 7H31C31.5523 7 32 7.44772 32 8V17C32 17.5523 31.5523 18 31 18H9C8.44772 18 8 17.5523 8 17V8C8 7.44772 8.44772 7 9 7Z" fill="#8B3D99"/>
<path fill-rule="evenodd" clip-rule="evenodd" d="M13 8H27C27.5523 8 28 8.44772 28 9V16C28 16.5523 27.5523 17 27 17H13C12.4477 17 12 16.5523 12 16V9C12 8.44772 12.4477 8 13 8Z" fill="#F0CEF5"/>
<path fill-rule="evenodd" clip-rule="evenodd" d="M21.9167 21H31.0833C31.5896 21 32 21.4477 32 22V24C32 24.5523 31.5896 25 31.0833 25H21.9167C21.4104 25 21 24.5523 21 24V22C21 21.4477 21.4104 21 21.9167 21Z" fill="#8B3D99"/>
<path fill-rule="evenodd" clip-rule="evenodd" d="M22.9 22H30.1C30.5971 22 31 22.4477 31 23C31 23.5523 30.5971 24 30.1 24H22.9C22.4029 24 22 23.5523 22 23C22 22.4477 22.4029 22 22.9 22Z" fill="#8B3D99"/>
<path fill-rule="evenodd" clip-rule="evenodd" d="M30.5 23V31C30.5 31.5523 30.0523 32 29.5 32H23.5C22.9477 32 22.5 31.5523 22.5 31V23H30.5Z" fill="#10CBB4"/>
<path fill-rule="evenodd" clip-rule="evenodd" d="M24.3 23V25.38C24.3 25.6009 24.1209 25.78 23.9 25.78C23.6791 25.78 23.5 25.6009 23.5 25.38V23H24.3Z" fill="#008C7B"/>
<path fill-rule="evenodd" clip-rule="evenodd" d="M25.8 23V30.38C25.8 30.6009 25.6209 30.78 25.4 30.78C25.1791 30.78 25 30.6009 25 30.38V23H25.8Z" fill="#008C7B"/>
<path fill-rule="evenodd" clip-rule="evenodd" d="M28.5 23V24.28C28.5 24.5562 28.2761 24.78 28 24.78H27C26.7239 24.78 26.5 24.5562 26.5 24.28V23H28.5Z" fill="white"/>
<path fill-rule="evenodd" clip-rule="evenodd" d="M23.9 26.78C24.1209 26.78 24.3 26.9591 24.3 27.18V28.38C24.3 28.6009 24.1209 28.78 23.9 28.78C23.6791 28.78 23.5 28.6009 23.5 28.38V27.18C23.5 26.9591 23.6791 26.78 23.9 26.78Z" fill="#008C7B"/>
<path d="M9.5 24C10.3284 24 11 23.3284 11 22.5C11 21.6716 10.3284 21 9.5 21C8.67157 21 8 21.6716 8 22.5C8 23.3284 8.67157 24 9.5 24Z" fill="#8B3D99"/>
<path d="M9.5 28C10.3284 28 11 27.3284 11 26.5C11 25.6716 10.3284 25 9.5 25C8.67157 25 8 25.6716 8 26.5C8 27.3284 8.67157 28 9.5 28Z" fill="#8B3D99"/>
<path d="M9.5 32C10.3284 32 11 31.3284 11 30.5C11 29.6716 10.3284 29 9.5 29C8.67157 29 8 29.6716 8 30.5C8 31.3284 8.67157 32 9.5 32Z" fill="#8B3D99"/>
<path d="M13.5 24C14.3284 24 15 23.3284 15 22.5C15 21.6716 14.3284 21 13.5 21C12.6716 21 12 21.6716 12 22.5C12 23.3284 12.6716 24 13.5 24Z" fill="#8B3D99"/>
<path d="M13.5 28C14.3284 28 15 27.3284 15 26.5C15 25.6716 14.3284 25 13.5 25C12.6716 25 12 25.6716 12 26.5C12 27.3284 12.6716 28 13.5 28Z" fill="#8B3D99"/>
<path d="M13.5 32C14.3284 32 15 31.3284 15 30.5C15 29.6716 14.3284 29 13.5 29C12.6716 29 12 29.6716 12 30.5C12 31.3284 12.6716 32 13.5 32Z" fill="#8B3D99"/>
<path d="M17.5 24C18.3284 24 19 23.3284 19 22.5C19 21.6716 18.3284 21 17.5 21C16.6716 21 16 21.6716 16 22.5C16 23.3284 16.6716 24 17.5 24Z" fill="#8B3D99"/>
<path d="M17.5 28C18.3284 28 19 27.3284 19 26.5C19 25.6716 18.3284 25 17.5 25C16.6716 25 16 25.6716 16 26.5C16 27.3284 16.6716 28 17.5 28Z" fill="#8B3D99"/>
<path d="M17.5 32C18.3284 32 19 31.3284 19 30.5C19 29.6716 18.3284 29 17.5 29C16.6716 29 16 29.6716 16 30.5C16 31.3284 16.6716 32 17.5 32Z" fill="#8B3D99"/>
</svg>
