<svg width="285" height="341" viewBox="0 0 285 341" fill="none" xmlns="http://www.w3.org/2000/svg">
<g clip-path="url(#clip0_548_5551)">
<path d="M216.166 340.597H71.1353C71.4344 336.346 71.9673 331.679 72.8509 326.68C73.621 322.326 74.5527 318.308 75.5532 314.65H211.766C212.842 318.249 213.856 322.326 214.647 326.828C215.534 331.858 215.977 336.49 216.166 340.597Z" fill="#8AD2FF"/>
<path d="M278.708 259.965L278.557 260.02L230.376 278.021L217.452 249.644C216.101 261.232 215.799 270.692 215.792 277.393C215.785 282.917 215.977 288.25 215.475 294.546C215.255 297.349 214.894 300.345 214.32 303.632C213.502 308.295 212.508 312.09 211.766 314.65C190.869 316.784 167.704 318.157 142.602 318.116C118.323 318.078 95.8721 316.726 75.5532 314.65C74.9378 312.873 74.0852 310.227 73.2566 306.974C72.0051 302.054 71.6648 299.082 71.1559 294.628C70.9221 292.594 70.654 290.247 70.2517 287.261C70.2517 287.261 70.0901 286.064 66.5077 265.123L48.671 284.729L11.3509 266.519L2.14719 262.028C3.14766 259.368 4.72573 255.265 6.77481 250.306C15.0262 230.326 22.7309 216.316 24.5737 212.861C29.521 203.562 35.6167 188.725 41.6574 163.745C44.8823 150.398 55.1965 139.881 68.5258 136.487C75.2197 134.785 82.2712 133.148 89.6596 131.625C92.5785 131.024 95.549 130.445 98.571 129.882C112.354 127.326 127.224 125.208 143.077 123.826C155 122.783 166.445 122.244 177.351 122.096C180.572 122.052 183.746 122.041 186.871 122.062C196.6 122.124 205.863 122.491 214.599 123.067C229.836 124.076 242.591 134.967 245.906 149.845C249.354 165.32 253.428 181.492 258.252 198.24C264.64 220.434 271.585 241.032 278.708 259.965Z" fill="#F0CEF5"/>
<path d="M217.452 249.644C216.101 261.231 215.799 270.692 215.792 277.393C215.785 282.917 215.977 288.249 215.475 294.546C215.396 294.395 215.314 294.261 215.221 294.144L215.193 294.11C214.238 292.889 212.938 291.983 211.47 291.482C208.761 290.555 204.044 288.431 200.699 284.139C195.737 277.781 189.57 268.266 188.6 260.453C187.627 252.643 184.526 251.312 184.526 251.312C181.17 246.021 177.818 240.726 174.463 235.435C188.793 240.17 203.122 244.909 217.452 249.644Z" fill="#E3B2EB"/>
<path d="M220.581 240.665C220.45 240.665 220.32 240.634 220.196 240.572C219.773 240.359 219.601 239.845 219.811 239.419C223.919 231.232 225.803 222.674 225.566 213.259C225.284 202.097 222.09 189.706 215.799 175.384C215.609 174.952 215.805 174.444 216.242 174.255C216.675 174.067 217.184 174.262 217.373 174.698C223.758 189.23 227 201.829 227.285 213.218C227.529 222.921 225.587 231.747 221.348 240.191C221.196 240.493 220.894 240.665 220.577 240.665H220.581Z" fill="#E3B2EB"/>
<path d="M70.4064 233.342C70.0248 233.342 69.6741 233.085 69.5744 232.697C65.184 215.592 70.403 186.618 74.7074 176.537C74.8931 176.101 75.3985 175.899 75.8351 176.084C76.2718 176.269 76.4746 176.774 76.2889 177.21C72.0636 187.099 66.9409 215.516 71.2419 232.271C71.3588 232.731 71.0837 233.198 70.623 233.315C70.5508 233.332 70.4786 233.342 70.4099 233.342H70.4064Z" fill="#E3B2EB"/>
<path d="M177.351 122.096C166.445 122.244 155 122.783 143.077 123.826C127.224 125.208 112.354 127.326 98.5711 129.882C95.549 130.445 92.5785 131.024 89.6596 131.625C91.5196 134.089 93.9847 136.919 97.1718 139.702C115.191 155.438 147.725 162.143 169.553 146.156C173.263 143.439 181.717 136.364 186.871 122.062C183.746 122.041 180.572 122.052 177.351 122.096Z" fill="#E3B2EB"/>
<path d="M101.817 62.8895V121.084C107.018 124.282 121.819 132.438 142.011 131.114C159.112 129.992 171.19 122.652 176.343 119.08C175.896 98.9798 175.449 78.8827 175.003 58.7822L101.817 62.8929V62.8895Z" fill="#2C2044"/>
<path d="M177.351 122.096C173.851 135.657 157.716 146.373 137.909 147.206C120.382 147.941 105.066 140.718 98.571 129.882C102.649 129.127 106.826 128.41 111.092 127.737L111.728 116.894L113.891 80.0081L122.17 81.6173L158.012 88.5794L158.813 88.7338L164.001 118.219L164.743 122.439C169.02 122.264 173.225 122.151 177.351 122.096Z" fill="#FCDABA"/>
<path d="M122.17 81.6173L113.891 80.0081C113.169 92.3024 112.45 104.6 111.728 116.894C118.144 115.827 127.485 113.473 137.497 107.863C144.589 103.89 149.977 99.4292 153.831 95.6993C155.223 93.3249 156.619 90.9539 158.012 88.5794L122.17 81.6173Z" fill="#FBCCA1"/>
<path d="M170.946 66.6571L165.225 38.0435C162.574 24.785 151.359 15.4039 138.466 14.5014C135.905 14.323 133.275 14.4774 130.631 15.0024L127.819 15.5651C111.894 18.7357 101.559 34.1936 104.736 50.0874L107.799 65.4218L110.453 78.7009C113.437 93.6304 127.984 103.317 142.939 100.335L149.262 99.0759C164.217 96.101 173.926 81.5797 170.939 66.6536L170.946 66.6571Z" fill="#FCDABA"/>
<path d="M130.088 74.192C130.284 75.2248 131.291 79.9429 135.369 82.1629C138.236 83.7241 141.127 83.2403 143.974 82.76C146.439 82.3448 149.561 81.8198 152.325 79.2909C156.282 75.6675 156.654 70.5377 156.712 69.2544L130.088 74.192Z" fill="white"/>
<path d="M150.789 49.2912L150.992 49.2377C152.152 48.9316 153.341 49.6222 153.648 50.7799L154.396 53.6063C154.703 54.764 154.011 55.951 152.851 56.2571L152.645 56.3115C151.485 56.6176 150.296 55.927 149.989 54.7693L149.24 51.943C148.934 50.7852 149.625 49.5982 150.785 49.2921L150.789 49.2912Z" fill="black"/>
<path d="M122.016 72.882C125.121 72.0629 127.269 70.0117 126.816 68.3005C126.363 66.5893 123.479 65.8662 120.375 66.6853C117.271 67.5044 115.122 69.5556 115.575 71.2668C116.028 72.978 118.912 73.7011 122.016 72.882Z" fill="#FBCCA1"/>
<path d="M166.707 57.2963C166.253 55.5841 163.368 54.8601 160.264 55.6802C157.159 56.5003 155.01 58.5522 155.464 60.2644C155.918 61.9766 158.802 62.7006 161.907 61.8805C165.012 61.0605 167.16 59.0085 166.707 57.2963Z" fill="#FBCCA1"/>
<path d="M131.422 60.2884C130.459 59.3826 129.349 58.7237 128.131 58.2742C124.48 56.8914 120.11 58.2502 117.821 61.3899C117.663 61.6026 117.69 61.908 117.896 62.0864C118.113 62.2751 118.446 62.2477 118.629 62.0281C120.839 59.4649 124.473 58.5316 127.568 59.6982C125.501 59.8973 123.511 60.8477 122.27 62.5359C121.912 63.0163 122.541 63.6236 123.012 63.2496C124.126 62.3918 125.336 61.757 126.646 61.4653C127.953 61.184 129.335 61.256 130.645 61.6026C130.923 61.6884 131.239 61.6198 131.453 61.3933C131.748 61.081 131.735 60.5869 131.422 60.2918V60.2884Z" fill="black"/>
<path d="M93.6959 245.187C92.3104 253.515 90.1444 280.619 80.9785 286.267C75.3745 289.725 72.6997 292.059 71.156 294.629C70.9222 292.594 70.654 290.247 70.2518 287.262C70.2518 287.262 70.0902 286.064 66.5077 265.123C64.2592 258.651 62.0073 252.177 59.7588 245.705C64.1217 244.106 67.6182 242.569 70.073 241.416C76.1962 238.544 79.2595 237.11 81.893 235.411C84.8188 233.524 85.534 232.701 86.837 232.838C90.2166 233.191 92.3619 239.467 93.6959 245.191V245.187Z" fill="#E3B2EB"/>
<path d="M107.476 222.527C107.314 232.186 102.398 244.061 94.466 245.328C91.1345 253.086 82.5669 278.896 72.318 282.207C58.2185 286.764 59.8791 289.344 53.694 299.954C47.5055 310.56 24.1749 307.65 18.3164 303.594C8.48012 296.787 -3.17146 282.718 0.79606 266.886C7.28712 240.973 23.2328 229.969 36.0843 225.062C48.8361 220.19 72.6721 208.932 74.9034 205.662C74.9206 205.634 74.9344 205.61 74.9516 205.586C77.6126 201.05 81.4564 191.813 93.5137 193.237C111.629 195.378 107.634 212.871 107.476 222.527Z" fill="#F0CEF5"/>
<path d="M80.2668 201.798C76.7703 201.442 74.3877 204.883 74.2983 205.017C74.2777 205.048 74.2571 205.079 74.2399 205.106C72.9059 207.062 61.5947 212.943 50.1597 218.131C49.2624 218.334 47.9421 218.289 46.2712 218.238C41.7674 218.087 34.96 217.864 25.1375 221.672C24.694 221.844 24.4774 222.342 24.6493 222.784C24.7799 223.124 25.1066 223.33 25.4504 223.33C25.5535 223.33 25.6601 223.313 25.7632 223.271C35.1663 219.624 41.7227 219.802 46.0925 219.946C42.455 221.539 38.9241 223.004 35.8264 224.188C28.1595 227.114 21.4828 231.4 15.9854 236.921C15.6519 237.257 15.6519 237.799 15.9888 238.136C16.1573 238.3 16.3739 238.386 16.5939 238.386C16.814 238.386 17.034 238.3 17.2025 238.132C22.528 232.786 28.9984 228.635 36.4384 225.793C48.3719 221.233 73.1362 209.773 75.677 206.05L75.7079 205.998C75.7285 205.971 77.6264 203.257 80.0914 203.507C80.5625 203.555 80.9853 203.212 81.0335 202.742C81.0816 202.272 80.7378 201.85 80.2668 201.802V201.798Z" fill="#E3B2EB"/>
<path d="M107.476 222.527C107.314 232.186 102.398 244.061 94.466 245.328C89.1852 246.522 77.9049 252.945 70.6953 244.171C63.967 235.984 68.9144 215.324 74.9035 205.662C74.9207 205.634 74.9344 205.61 74.9516 205.586C77.6127 201.05 81.4564 191.813 93.5137 193.237C111.629 195.378 107.634 212.871 107.476 222.527Z" fill="#CE92D6"/>
<path d="M282.851 277.108C277.632 293.698 260.817 307.588 241.873 302.572C222.929 297.555 222.737 290.61 220.804 288.874L218.869 287.138C218.869 287.138 210.752 286.946 204.759 281.545C198.766 276.144 191.034 267.847 188.717 260.322C186.396 252.801 183.109 252.029 183.109 252.029C183.109 252.029 174.992 251.075 170.433 238.139C167.563 229.993 167.453 225.213 174.411 208.043C179.18 196.284 191.034 195.89 200.121 204.379C206.052 209.92 208.029 211.433 210.731 212.679C212.168 213.334 213.811 213.918 216.359 214.988C223.703 218.076 238.779 212.48 261.783 229.842C284.783 247.204 288.07 260.518 282.851 277.108Z" fill="#F0CEF5"/>
<path d="M261.992 226.754C262.23 226.754 262.467 226.654 262.639 226.462C262.952 226.105 262.917 225.563 262.56 225.251C257.007 220.375 248.642 217.894 238.376 218.069C232.741 216.604 227.973 216.316 224.119 216.083C220.739 215.88 218.071 215.719 216.084 214.882C214.922 214.394 213.949 214.007 213.096 213.667C212.065 213.255 211.247 212.933 210.483 212.583C207.815 211.354 205.873 209.831 200.1 204.433C199.753 204.111 199.21 204.128 198.887 204.475C198.564 204.821 198.581 205.363 198.928 205.686C204.797 211.169 206.925 212.83 209.768 214.141C210.573 214.508 211.449 214.854 212.46 215.259C213.309 215.595 214.272 215.98 215.417 216.46C217.676 217.411 220.474 217.579 224.016 217.791C232.178 218.282 244.513 219.023 260.655 231.208C260.81 231.324 260.992 231.383 261.174 231.383C261.435 231.383 261.69 231.266 261.862 231.043C262.147 230.666 262.075 230.127 261.693 229.842C255.367 225.066 249.612 222.009 244.448 220.022C251.52 220.722 257.317 222.932 261.425 226.538C261.59 226.682 261.79 226.751 261.992 226.751V226.754Z" fill="#E3B2EB"/>
<path d="M183.109 252.029C183.109 252.029 174.992 251.075 170.433 238.139C167.563 229.993 167.453 225.213 174.411 208.043C179.18 196.284 191.034 195.89 200.121 204.379C206.052 209.92 208.029 211.433 210.731 212.679C215.881 241.43 198.213 254.698 183.109 252.029Z" fill="#CE92D6"/>
<path d="M168.59 192.263C164.75 187.737 160.542 181.132 160.439 175.546C160.322 169.259 151.916 169.259 151.098 175.285C150.145 182.295 155.213 190.979 160.178 193.694C165.142 196.408 168.59 192.263 168.59 192.263Z" fill="#FBCCA1"/>
<path d="M123.181 165.955C121.09 163.635 114.586 162.325 114.431 170.591C114.369 173.916 114.118 176.887 113.843 179.258C113.454 182.576 111.739 185.589 109.081 187.62C105.22 190.568 99.4856 195.845 96.7007 202.814C93.2352 211.495 106.3 221.36 115.748 212.548C121.991 206.726 123.102 194.469 122.483 191.298C121.864 188.131 122.792 185.812 123.645 181.022C124.497 176.232 125.271 168.271 123.181 165.955Z" fill="#FBCCA1"/>
<path d="M118.151 189.878C115.596 192.458 107.469 199.568 103.752 202.272C100.036 204.976 94.4591 209.227 94.4591 209.227L88.9272 201.592C92.2931 196.476 93.6099 194.236 98.6398 190.526C103.467 186.968 106.87 184.906 109.459 182.085C109.573 181.965 109.683 181.842 109.789 181.718C110.051 181.42 110.312 181.128 110.573 180.854C112.918 178.366 115.177 177.035 117.687 179.399C120.475 182.027 120.705 187.298 118.151 189.878Z" fill="#FCDABA"/>
<path d="M124.828 220.9C124.552 221.285 123.459 222.64 121.94 224.386C121.702 224.658 121.455 224.942 121.2 225.231C119.44 227.217 117.26 229.547 115.125 231.52C114.871 231.76 114.616 231.99 114.362 232.217C111.794 234.498 109.377 236.132 107.957 235.854C104.086 235.092 101.858 234.018 101.724 233.953C101.72 233.953 101.72 233.949 101.717 233.949C101.717 233.949 101.579 234.323 101.208 234.848C100.386 236.019 98.4232 237.937 94.3147 238.091C88.3669 238.318 76.4781 231.599 78.0493 223.426C80.3596 211.392 84.2172 206.856 88.9273 201.592C93.6409 196.332 99.4993 194.651 107.957 198.123C116.411 201.592 122.359 204.506 123.593 208.424C124.828 212.343 125.835 219.497 124.828 220.9Z" fill="#FCDABA"/>
<path d="M178.554 236.736C176.206 237.552 174.143 237.889 172.242 238.012C171.375 238.074 170.543 238.084 169.732 238.077C167.704 238.07 165.799 237.943 163.822 238.098C159.311 238.448 156.64 241.237 153.969 238.849C153.13 238.098 151.789 236.646 150.273 234.821C150.059 234.564 149.843 234.299 149.626 234.028C147.491 231.39 145.116 228.133 143.338 225.097C143.159 224.791 142.991 224.489 142.826 224.191C142.186 223.031 141.65 221.919 141.265 220.9C138.961 214.806 139.79 212.844 141.633 211.557C143.472 210.277 151.448 206.976 158.252 204.409C158.266 204.403 158.283 204.399 158.297 204.392C158.297 204.392 156.712 204.55 154.735 204.248H154.732C153.889 204.121 152.982 203.908 152.091 203.565H152.088C150.269 202.869 148.547 201.627 147.708 199.431C146.03 195.035 148.715 190.804 151.823 189.874C152.167 189.772 152.514 189.706 152.865 189.689C153.669 189.648 154.818 189.686 156.138 189.789C160.573 190.132 166.94 191.189 168.591 192.263C172.159 195.293 183.158 203.932 185.826 205.954C188.497 207.975 189.968 211.742 190.522 220.084C191.076 228.425 184.629 234.622 178.554 236.736Z" fill="#FCDABA"/>
<path d="M160.171 196.867C160.171 199.324 159.738 201.023 158.802 202.207C158.703 202.334 158.551 202.402 158.397 202.402C158.287 202.402 158.173 202.368 158.077 202.292C157.854 202.117 157.816 201.791 157.991 201.568C158.765 200.59 159.139 199.053 159.139 196.867C159.139 194.682 158.545 193.048 157.369 191.875C156.131 190.643 154.261 189.971 151.823 189.874C152.167 189.772 152.514 189.706 152.865 189.689C153.669 189.648 154.818 189.686 156.138 189.789C156.891 190.142 157.544 190.595 158.098 191.148C159.473 192.52 160.171 194.442 160.171 196.867Z" fill="#DCAC82"/>
<path d="M109.593 262.131C109.222 262.131 108.878 261.887 108.768 261.516C108.634 261.063 108.895 260.587 109.349 260.453C110.865 260.007 146.845 249.579 177.529 254.62C177.997 254.695 178.317 255.138 178.238 255.604C178.162 256.071 177.719 256.387 177.251 256.311C146.948 251.332 111.336 261.654 109.834 262.096C109.752 262.12 109.672 262.131 109.59 262.131H109.593Z" fill="#E3B2EB"/>
<path d="M129.111 264.752C128.771 264.752 128.448 264.55 128.314 264.214C128.138 263.774 128.351 263.273 128.792 263.098C128.988 263.019 148.543 255.306 173.108 256.833C173.583 256.864 173.944 257.269 173.913 257.742C173.882 258.216 173.479 258.576 173.002 258.545C148.842 257.039 129.624 264.612 129.431 264.69C129.328 264.732 129.218 264.752 129.111 264.752Z" fill="#E3B2EB"/>
<path d="M163.293 126.169C161.914 126.125 161.044 124.67 161.653 123.434C164.217 118.236 169.811 105.681 171.485 92.0759C173.682 74.2298 168.9 56.4248 164.884 41.7663C160.934 27.3549 155.859 17.0267 134.378 21.6041C134.014 21.683 133.643 21.7654 133.265 21.8511C133.075 21.8957 132.886 21.9404 132.701 21.985C110.841 27.2383 110.728 39.9272 111.808 51.597C112.897 63.3663 108.026 89.2966 107.527 100.5C107.063 110.845 108.308 117.841 114.524 125.819C115.225 126.718 114.647 128.039 113.513 128.149C110.157 128.475 105.984 128.595 101.335 128.221C86.421 127.02 75.6908 113.377 77.898 98.6091C80.5522 80.8487 84.4785 57.6292 87.2598 41.636C91.4577 17.5174 102.147 5.11331 125.945 1.36291C126.392 1.29085 126.846 1.22222 127.303 1.15703C127.437 1.13644 127.571 1.11929 127.702 1.10556C152.215 -2.19191 167.116 11.1798 172.531 23.2717C177.973 35.4288 187.82 79.013 189.246 104.494C190.395 125.051 170.873 126.409 163.293 126.169Z" fill="#403556"/>
<path d="M179.128 227.9C178.86 227.9 178.633 227.694 178.616 227.42C178.358 223.704 177.248 220.468 174.793 216.251C173.634 214.264 173.039 212.71 172.462 211.203C171.688 209.186 171.021 207.443 169.154 205.037C168.979 204.811 169.02 204.488 169.247 204.317C169.474 204.142 169.797 204.183 169.969 204.41C171.929 206.938 172.654 208.832 173.424 210.84C173.988 212.305 174.569 213.822 175.683 215.736C178.224 220.101 179.372 223.463 179.644 227.351C179.665 227.636 179.448 227.88 179.166 227.9C179.152 227.9 179.142 227.9 179.128 227.9Z" fill="#DCAC82"/>
<path d="M178.434 232.755C177.395 234.423 175.054 236.478 172.242 238.012C171.375 238.074 170.543 238.084 169.732 238.077C173.242 236.65 176.354 234.148 177.557 232.213C177.708 231.97 178.028 231.897 178.269 232.045C178.509 232.196 178.585 232.512 178.434 232.755Z" fill="#DCAC82"/>
<path d="M165.428 226.339C160.322 228.748 152.573 232.872 150.273 234.821C150.059 234.564 149.843 234.299 149.626 234.028C152.418 231.688 161.041 227.269 164.987 225.406C165.245 225.285 165.555 225.395 165.675 225.653C165.795 225.91 165.685 226.215 165.428 226.339Z" fill="#DCAC82"/>
<path d="M161.188 216.934C160.491 217.325 158.971 217.888 157.046 218.601C152.765 220.19 146.48 222.52 143.338 225.097C143.159 224.791 142.991 224.489 142.826 224.191C146.164 221.538 152.408 219.222 156.688 217.634C158.569 216.937 160.054 216.388 160.686 216.035C160.934 215.897 161.247 215.983 161.388 216.234C161.525 216.481 161.436 216.793 161.188 216.934Z" fill="#DCAC82"/>
<path d="M166.583 202.189C163.894 202.941 160.69 203.782 158.252 204.409C158.266 204.403 158.283 204.399 158.297 204.392C158.297 204.392 156.712 204.55 154.735 204.248C156.444 203.816 162.027 202.392 166.304 201.198C166.579 201.119 166.865 201.28 166.94 201.555C167.016 201.826 166.858 202.111 166.583 202.189Z" fill="#DCAC82"/>
<path d="M101.717 233.949C101.717 233.949 101.579 234.323 101.208 234.848C101.184 234.831 101.163 234.818 101.143 234.804C99.5681 233.747 92.5029 230.24 91.4199 230.051C91.2136 230.017 90.8492 230.024 90.4263 230.031C88.6385 230.058 85.3173 230.11 82.8247 227.21C82.6391 226.994 82.6632 226.672 82.8798 226.486C83.0964 226.301 83.4195 226.325 83.6052 226.541C85.7849 229.074 88.6798 229.026 90.4091 229.002C90.9042 228.991 91.2961 228.988 91.5952 229.039C92.9223 229.269 100.177 232.917 101.717 233.949Z" fill="#DCAC82"/>
<path d="M115.125 231.52C114.871 231.76 114.616 231.99 114.362 232.217C113.389 230.971 112.485 230.134 110.756 228.796C109.607 227.907 105.643 225.529 101.81 223.227C98.5813 221.288 95.5318 219.459 94.1394 218.509C93.9056 218.347 93.8437 218.028 94.0053 217.795C94.1669 217.558 94.4866 217.5 94.7238 217.658C96.0887 218.591 99.1245 220.416 102.343 222.345C106.2 224.661 110.188 227.056 111.388 227.982C113.169 229.362 114.118 230.237 115.125 231.52Z" fill="#DCAC82"/>
<path d="M121.94 224.386C121.702 224.657 121.455 224.942 121.2 225.23C120.234 223.182 118.639 219.994 117.167 217.994C115.197 215.311 109.927 213.097 105.275 211.145C104.601 210.864 103.941 210.586 103.309 210.315C103.047 210.201 102.927 209.899 103.04 209.639C103.151 209.378 103.453 209.254 103.718 209.368C104.347 209.639 105.004 209.913 105.677 210.198C110.45 212.202 115.861 214.473 118 217.386C119.44 219.346 120.953 222.31 121.94 224.386Z" fill="#DCAC82"/>
<path d="M111.746 189C111.649 189.068 111.539 189.103 111.433 189.103C111.278 189.103 111.123 189.034 111.02 188.9C109.838 187.353 109.332 185.187 109.459 182.086C109.573 181.965 109.683 181.842 109.789 181.718C110.051 181.42 110.312 181.128 110.573 180.854C110.25 184.398 110.659 186.732 111.842 188.276C112.014 188.502 111.969 188.825 111.746 189Z" fill="#DCAC82"/>
<path d="M134.379 21.604C134.014 21.6829 133.643 21.7653 133.265 21.851C133.075 21.8957 132.886 21.9403 132.701 21.9849C130.483 12.9194 127.788 5.73771 125.945 1.36282C126.392 1.29076 126.846 1.22213 127.303 1.15694C127.437 1.13635 127.571 1.11919 127.702 1.10547C129.569 5.58673 132.206 12.7067 134.379 21.604Z" fill="#2C2044"/>
</g>
<defs>
<clipPath id="clip0_548_5551">
<rect width="285" height="340" fill="white" transform="translate(0 0.597412)"/>
</clipPath>
</defs>
</svg>
