<svg width="64" height="64" viewBox="0 0 64 64" fill="none" xmlns="http://www.w3.org/2000/svg">
<path d="M31.9999 57.6C46.1384 57.6 57.5999 46.1385 57.5999 32C57.5999 17.8615 46.1384 6.40002 31.9999 6.40002C17.8614 6.40002 6.3999 17.8615 6.3999 32C6.3999 46.1385 17.8614 57.6 31.9999 57.6Z" fill="#CE92D6"/>
<path fill-rule="evenodd" clip-rule="evenodd" d="M37.9628 36.5038C40.9107 36.5038 43.5654 38.1357 44.6794 40.6327L45.4779 42.4225C46.235 44.1194 45.3451 46.0564 43.4904 46.749C43.3352 46.807 43.1758 46.855 43.0134 46.8928C39.5002 47.71 35.987 48.1186 32.4737 48.1186C28.9605 48.1186 25.4473 47.71 21.934 46.8928C19.9925 46.4412 18.8188 44.6351 19.3124 42.8589C19.3537 42.7103 19.4062 42.5645 19.4695 42.4225L20.2681 40.6327C21.382 38.1357 24.0368 36.5038 26.9846 36.5038H37.9628ZM32.4738 14.9334C37.0557 14.9334 40.7701 18.6478 40.7701 23.2297V26.5482C40.7701 31.1301 37.0557 34.8445 32.4738 34.8445C27.8919 34.8445 24.1775 31.1301 24.1775 26.5482V23.2297C24.1775 18.6478 27.8919 14.9334 32.4738 14.9334Z" fill="#8B3D99"/>
</svg>
