<svg width="80" height="80" viewBox="0 0 80 80" fill="none" xmlns="http://www.w3.org/2000/svg">
<path d="M12 23H68V70C68 71.1046 67.1046 72 66 72H14C12.8954 72 12 71.1046 12 70V23Z" fill="#F0CEF5"/>
<path d="M22 53C22 51.8954 22.8954 51 24 51H56C57.1046 51 58 51.8954 58 53V72H22V53Z" fill="#A35AAD"/>
<path fill-rule="evenodd" clip-rule="evenodd" d="M16.101 9.22591C16.6661 8.45528 17.5646 8 18.5202 8H61.4798C62.4354 8 63.3339 8.45528 63.899 9.22591L74 23H6L16.101 9.22591Z" fill="#F0CEF5"/>
<rect x="22" y="39" width="36" height="8" rx="1" fill="#10CBB4"/>
<path d="M6 23H20V28C20 31.866 16.866 35 13 35C9.13401 35 6 31.866 6 28V23Z" fill="#742384"/>
<path d="M20 23H33V28.5C33 32.0899 30.0899 35 26.5 35C22.9101 35 20 32.0899 20 28.5V23Z" fill="#A35AAD"/>
<path d="M33 23H47V28C47 31.866 43.866 35 40 35C36.134 35 33 31.866 33 28V23Z" fill="#742384"/>
<path d="M33 23H47L45 8H35L33 23Z" fill="#A35AAD"/>
<path d="M6 23H20L25 8H16.6986C15.6448 8 14.6683 8.5529 14.1261 9.45651L6 23Z" fill="#A35AAD"/>
<path d="M74 23H60L55 8H63.3014C64.3552 8 65.3317 8.5529 65.8739 9.45651L74 23Z" fill="#A35AAD"/>
<path d="M47 23H60V28.5C60 32.0899 57.0899 35 53.5 35C49.9101 35 47 32.0899 47 28.5V23Z" fill="#A35AAD"/>
<path d="M60 23H74V28C74 31.866 70.866 35 67 35C63.134 35 60 31.866 60 28V23Z" fill="#742384"/>
</svg>
