<svg width="172" height="112" viewBox="0 0 172 112" fill="none" xmlns="http://www.w3.org/2000/svg">
<path d="M83.1201 20.16L81.6801 53.28H61.5201L60.0801 20.16H83.1201Z" fill="#BD77C7"/>
<path d="M78.8004 20.16L77.3604 53.28H81.6804L83.1204 20.16H78.8004Z" fill="#BD77C7"/>
<path d="M83.1201 11.52V14.4H60.0801V11.52L61.5201 10.08H81.6801L83.1201 11.52Z" fill="#10CBB4"/>
<path d="M81.6803 10.08H78.8003L80.2403 11.52V14.4H83.1203V11.52L81.6803 10.08Z" fill="#10CBB4"/>
<path d="M84.5601 14.4V18.72H82.9401H60.2601H58.6401V14.4H60.2601H82.9401H84.5601Z" fill="#10CBB4"/>
<path d="M83.1202 14.4H80.2402V20.16H83.1202H84.5602V14.4H83.1202Z" fill="#12DEC4"/>
<path d="M83.1202 27.36L82.4779 40.32H60.0803L59.438 27.36H83.1202Z" fill="#12DEC4"/>
<path d="M78.0804 27.36L77.3604 40.32H83.1204L83.8404 27.36H78.0804Z" fill="#12DEC4"/>
<path d="M85.2002 14.4H58.0002C57.5584 14.4 57.2002 14.7582 57.2002 15.2V20.8C57.2002 21.2418 57.5584 21.6 58.0002 21.6H85.2002C85.642 21.6 86.0002 21.2418 86.0002 20.8V15.2C86.0002 14.7582 85.642 14.4 85.2002 14.4Z" fill="#12DEC4"/>
<path d="M96.9078 14.1568H91.9702V22.854H96.9078V14.1568Z" fill="#F4C12A"/>
<path d="M101.848 10.6789V22.855H96.9106V14.1578V7.20001H101.848V10.6789Z" fill="#F4C12A"/>
<path d="M106.782 14.158V22.8552H101.844V10.6791H106.782V14.158Z" fill="#F4C12A"/>
<path d="M112.335 14.1568H107.397V22.854H112.335V14.1568Z" fill="#F4C12A"/>
<path d="M93.8194 14.1568H91.3506V22.854H93.8194V14.1568Z" fill="#DBAD25"/>
<path d="M99.3794 7.20001H96.9106V14.1578V22.855H99.3794V14.1578V7.20001Z" fill="#DBAD25"/>
<path d="M104.313 10.6791H101.844V22.8552H104.313V10.6791Z" fill="#DBAD25"/>
<path d="M109.238 14.1568H106.77V22.854H109.238V14.1568Z" fill="#DBAD25"/>
<path d="M114.8 22.8522V27.4903H112.948H90.7313H88.8799V22.8522H90.7313H96.2856H101.84H107.394H112.948H114.8Z" fill="#E3647B"/>
<path d="M112.955 27.4898H90.7383V51.8399H112.955V27.4898Z" fill="#E3647B"/>
<path d="M90.7383 27.4898V30.5336H109.715V51.8399H112.955V27.4898H90.7383Z" fill="#BE3C54"/>
<path d="M106.16 59.04V60.48C106.16 63.36 104 64.8 101.84 64.8H78.8C76.8559 64.8 74.48 63.36 74.48 60.48V59.04C85.4414 59.04 95.3128 59.04 106.16 59.04Z" fill="#DCAC82"/>
<path d="M104.805 53.28C106.23 53.28 107.6 54.5694 107.6 56.16C107.6 57.7506 106.23 59.04 104.805 59.04H91.7603V53.28C96.161 53.28 104.805 53.28 104.805 53.28Z" fill="#BE3C54"/>
<path d="M103.074 59.04V60.96C103.074 63.0808 101.232 64.8 98.96 64.8H101.84C104 64.8 106.16 63.36 106.16 60.48V59.04H103.074Z" fill="#DCAC82"/>
<path d="M106.16 47.52H74.48C74.48 43.2 77.36 41.76 80.24 41.76H100.4C103.28 41.76 106.16 43.2 106.16 47.52Z" fill="#DCAC82"/>
<path d="M101.84 41.76L97.52 41.76C101.151 41.76 103.28 44.5787 103.28 47.52H106.16C106.16 43.2 103.28 41.76 101.84 41.76Z" fill="#DCAC82"/>
<path d="M91.76 53.28V59.04H75.848C74.2156 59.04 73.04 57.7506 73.04 56.16C73.04 54.5694 74.2156 53.28 75.848 53.28H91.76Z" fill="#BE3C54"/>
<path d="M104.72 47.52C106.073 47.52 107.6 48.24 107.6 50.4C107.6 52.56 106.073 53.28 104.72 53.28H97.52V55.44C97.52 56.4067 96.8 57.6 95.36 57.6C93.92 57.6 93.2 56.4067 93.2 55.44V53.28H90.32V58.32C90.32 59.76 88.88 60.48 88.16 60.48C87.44 60.48 86 59.76 86 58.32V53.28H75.92C74.567 53.28 73.04 52.56 73.04 50.4C73.04 48.24 74.567 47.52 75.92 47.52H104.72Z" fill="#F4C12A"/>
<path d="M88.88 57.6C88.88 59.04 86.72 59.04 86 58.32C86 59.8738 87.44 60.48 88.16 60.48C88.88 60.48 90.32 59.76 90.32 58.32L90.32 53.28H88.88L88.88 57.6Z" fill="#F4C12A"/>
<path d="M96.0802 54.72C96.0802 56.16 93.9202 56.16 93.2002 55.44C93.2002 56.9938 94.6402 57.6 95.3602 57.6C96.0802 57.6 97.5202 56.88 97.5202 55.44L97.5202 53.28H96.0802L96.0802 54.72Z" fill="#F4C12A"/>
<path d="M104.72 47.52L101.84 47.52C103.749 47.52 105.296 48.8094 105.296 50.4C105.296 51.9906 103.749 53.28 101.84 53.28H104.72C106.629 53.28 107.6 51.9906 107.6 50.4C107.6 48.8094 106.629 47.52 104.72 47.52Z" fill="#F4C12A"/>
<path d="M37.5625 93.625H41.3281C42.1823 93.625 42.9036 93.7552 43.4922 94.0156C44.0859 94.276 44.5365 94.6615 44.8438 95.1719C45.1562 95.6771 45.3125 96.2995 45.3125 97.0391C45.3125 97.5599 45.2057 98.0365 44.9922 98.4688C44.7839 98.8958 44.4818 99.2604 44.0859 99.5625C43.6953 99.8594 43.2266 100.081 42.6797 100.227L42.2578 100.391H38.7188L38.7031 99.1641H41.375C41.9167 99.1641 42.3672 99.0703 42.7266 98.8828C43.0859 98.6901 43.3568 98.4323 43.5391 98.1094C43.7214 97.7865 43.8125 97.4297 43.8125 97.0391C43.8125 96.6016 43.7266 96.2188 43.5547 95.8906C43.3828 95.5625 43.112 95.3099 42.7422 95.1328C42.3776 94.9505 41.9062 94.8594 41.3281 94.8594H39.0703V105H37.5625V93.625ZM44.2109 105L41.4453 99.8438L43.0156 99.8359L45.8203 104.906V105H44.2109ZM51.2109 105.156C50.6224 105.156 50.0885 105.057 49.6094 104.859C49.1354 104.656 48.7266 104.372 48.3828 104.008C48.0443 103.643 47.7839 103.211 47.6016 102.711C47.4193 102.211 47.3281 101.664 47.3281 101.07V100.742C47.3281 100.055 47.4297 99.4427 47.6328 98.9062C47.8359 98.3646 48.112 97.9062 48.4609 97.5312C48.8099 97.1562 49.2057 96.8724 49.6484 96.6797C50.0911 96.487 50.5495 96.3906 51.0234 96.3906C51.6276 96.3906 52.1484 96.4948 52.5859 96.7031C53.0286 96.9115 53.3906 97.2031 53.6719 97.5781C53.9531 97.9479 54.1615 98.3854 54.2969 98.8906C54.4323 99.3906 54.5 99.9375 54.5 100.531V101.18H48.1875V100H53.0547V99.8906C53.0339 99.5156 52.9557 99.151 52.8203 98.7969C52.6901 98.4427 52.4818 98.151 52.1953 97.9219C51.9089 97.6927 51.5182 97.5781 51.0234 97.5781C50.6953 97.5781 50.3932 97.6484 50.1172 97.7891C49.8411 97.9245 49.6042 98.1276 49.4062 98.3984C49.2083 98.6693 49.0547 99 48.9453 99.3906C48.8359 99.7812 48.7812 100.232 48.7812 100.742V101.07C48.7812 101.471 48.8359 101.849 48.9453 102.203C49.0599 102.552 49.224 102.859 49.4375 103.125C49.6562 103.391 49.9193 103.599 50.2266 103.75C50.5391 103.901 50.8932 103.977 51.2891 103.977C51.7995 103.977 52.2318 103.872 52.5859 103.664C52.9401 103.456 53.25 103.177 53.5156 102.828L54.3906 103.523C54.2083 103.799 53.9766 104.062 53.6953 104.312C53.4141 104.562 53.0677 104.766 52.6562 104.922C52.25 105.078 51.7682 105.156 51.2109 105.156ZM61.6094 102.758C61.6094 102.549 61.5625 102.357 61.4688 102.18C61.3802 101.997 61.1953 101.833 60.9141 101.688C60.638 101.536 60.2214 101.406 59.6641 101.297C59.1953 101.198 58.7708 101.081 58.3906 100.945C58.0156 100.81 57.6953 100.646 57.4297 100.453C57.1693 100.26 56.9688 100.034 56.8281 99.7734C56.6875 99.513 56.6172 99.2083 56.6172 98.8594C56.6172 98.526 56.6901 98.2109 56.8359 97.9141C56.987 97.6172 57.1979 97.3542 57.4688 97.125C57.7448 96.8958 58.0755 96.7161 58.4609 96.5859C58.8464 96.4557 59.276 96.3906 59.75 96.3906C60.4271 96.3906 61.0052 96.5104 61.4844 96.75C61.9635 96.9896 62.3307 97.3099 62.5859 97.7109C62.8411 98.1068 62.9688 98.5469 62.9688 99.0312H61.5234C61.5234 98.7969 61.4531 98.5703 61.3125 98.3516C61.1771 98.1276 60.9766 97.9427 60.7109 97.7969C60.4505 97.651 60.1302 97.5781 59.75 97.5781C59.349 97.5781 59.0234 97.6406 58.7734 97.7656C58.5286 97.8854 58.349 98.0391 58.2344 98.2266C58.125 98.4141 58.0703 98.612 58.0703 98.8203C58.0703 98.9766 58.0964 99.1172 58.1484 99.2422C58.2057 99.362 58.3047 99.474 58.4453 99.5781C58.5859 99.6771 58.7839 99.7708 59.0391 99.8594C59.2943 99.9479 59.6198 100.036 60.0156 100.125C60.7083 100.281 61.2786 100.469 61.7266 100.688C62.1745 100.906 62.5078 101.174 62.7266 101.492C62.9453 101.81 63.0547 102.195 63.0547 102.648C63.0547 103.018 62.9766 103.357 62.8203 103.664C62.6693 103.971 62.4479 104.237 62.1562 104.461C61.8698 104.68 61.526 104.852 61.125 104.977C60.7292 105.096 60.2839 105.156 59.7891 105.156C59.0443 105.156 58.4141 105.023 57.8984 104.758C57.3828 104.492 56.9922 104.148 56.7266 103.727C56.4609 103.305 56.3281 102.859 56.3281 102.391H57.7812C57.8021 102.786 57.9167 103.102 58.125 103.336C58.3333 103.565 58.5885 103.729 58.8906 103.828C59.1927 103.922 59.4922 103.969 59.7891 103.969C60.1849 103.969 60.5156 103.917 60.7812 103.812C61.0521 103.708 61.2578 103.565 61.3984 103.383C61.5391 103.201 61.6094 102.992 61.6094 102.758ZM68.9922 96.5469V97.6562H64.4219V96.5469H68.9922ZM65.9688 94.4922H67.4141V102.906C67.4141 103.193 67.4583 103.409 67.5469 103.555C67.6354 103.701 67.75 103.797 67.8906 103.844C68.0312 103.891 68.1823 103.914 68.3438 103.914C68.4635 103.914 68.5885 103.904 68.7188 103.883C68.8542 103.857 68.9557 103.836 69.0234 103.82L69.0312 105C68.9167 105.036 68.7656 105.07 68.5781 105.102C68.3958 105.138 68.1745 105.156 67.9141 105.156C67.5599 105.156 67.2344 105.086 66.9375 104.945C66.6406 104.805 66.4036 104.57 66.2266 104.242C66.0547 103.909 65.9688 103.461 65.9688 102.898V94.4922ZM76.1719 103.555V99.2031C76.1719 98.8698 76.1042 98.5807 75.9688 98.3359C75.8385 98.0859 75.6406 97.8932 75.375 97.7578C75.1094 97.6224 74.7812 97.5547 74.3906 97.5547C74.026 97.5547 73.7057 97.6172 73.4297 97.7422C73.1589 97.8672 72.9453 98.0312 72.7891 98.2344C72.638 98.4375 72.5625 98.6562 72.5625 98.8906H71.1172C71.1172 98.5885 71.1953 98.2891 71.3516 97.9922C71.5078 97.6953 71.7318 97.4271 72.0234 97.1875C72.3203 96.9427 72.6745 96.75 73.0859 96.6094C73.5026 96.4635 73.9661 96.3906 74.4766 96.3906C75.0911 96.3906 75.6328 96.4948 76.1016 96.7031C76.5755 96.9115 76.9453 97.2266 77.2109 97.6484C77.4818 98.0651 77.6172 98.5885 77.6172 99.2188V103.156C77.6172 103.438 77.6406 103.737 77.6875 104.055C77.7396 104.372 77.8151 104.646 77.9141 104.875V105H76.4062C76.3333 104.833 76.276 104.612 76.2344 104.336C76.1927 104.055 76.1719 103.794 76.1719 103.555ZM76.4219 99.875L76.4375 100.891H74.9766C74.5651 100.891 74.1979 100.924 73.875 100.992C73.5521 101.055 73.2812 101.151 73.0625 101.281C72.8438 101.411 72.6771 101.576 72.5625 101.773C72.4479 101.966 72.3906 102.193 72.3906 102.453C72.3906 102.719 72.4505 102.961 72.5703 103.18C72.6901 103.398 72.8698 103.573 73.1094 103.703C73.3542 103.828 73.6536 103.891 74.0078 103.891C74.4505 103.891 74.8411 103.797 75.1797 103.609C75.5182 103.422 75.7865 103.193 75.9844 102.922C76.1875 102.651 76.2969 102.388 76.3125 102.133L76.9297 102.828C76.8932 103.047 76.7943 103.289 76.6328 103.555C76.4714 103.82 76.2552 104.076 75.9844 104.32C75.7188 104.56 75.401 104.76 75.0312 104.922C74.6667 105.078 74.2552 105.156 73.7969 105.156C73.224 105.156 72.7214 105.044 72.2891 104.82C71.862 104.596 71.5286 104.297 71.2891 103.922C71.0547 103.542 70.9375 103.117 70.9375 102.648C70.9375 102.195 71.026 101.797 71.2031 101.453C71.3802 101.104 71.6354 100.815 71.9688 100.586C72.3021 100.352 72.7031 100.174 73.1719 100.055C73.6406 99.9349 74.1641 99.875 74.7422 99.875H76.4219ZM85.5625 103.047V96.5469H87.0156V105H85.6328L85.5625 103.047ZM85.8359 101.266L86.4375 101.25C86.4375 101.812 86.3776 102.333 86.2578 102.812C86.1432 103.286 85.9557 103.698 85.6953 104.047C85.4349 104.396 85.0938 104.669 84.6719 104.867C84.25 105.06 83.737 105.156 83.1328 105.156C82.7214 105.156 82.3438 105.096 82 104.977C81.6615 104.857 81.3698 104.672 81.125 104.422C80.8802 104.172 80.6901 103.846 80.5547 103.445C80.4245 103.044 80.3594 102.562 80.3594 102V96.5469H81.8047V102.016C81.8047 102.396 81.8464 102.711 81.9297 102.961C82.0182 103.206 82.1354 103.401 82.2812 103.547C82.4323 103.688 82.599 103.786 82.7812 103.844C82.9688 103.901 83.1615 103.93 83.3594 103.93C83.974 103.93 84.4609 103.812 84.8203 103.578C85.1797 103.339 85.4375 103.018 85.5938 102.617C85.7552 102.211 85.8359 101.76 85.8359 101.266ZM91.1641 97.875V105H89.7188V96.5469H91.125L91.1641 97.875ZM93.8047 96.5L93.7969 97.8438C93.6771 97.8177 93.5625 97.8021 93.4531 97.7969C93.349 97.7865 93.2292 97.7812 93.0938 97.7812C92.7604 97.7812 92.4661 97.8333 92.2109 97.9375C91.9557 98.0417 91.7396 98.1875 91.5625 98.375C91.3854 98.5625 91.2448 98.7865 91.1406 99.0469C91.0417 99.3021 90.9766 99.5833 90.9453 99.8906L90.5391 100.125C90.5391 99.6146 90.5885 99.1354 90.6875 98.6875C90.7917 98.2396 90.9505 97.8438 91.1641 97.5C91.3776 97.151 91.6484 96.8802 91.9766 96.6875C92.3099 96.4896 92.7057 96.3906 93.1641 96.3906C93.2682 96.3906 93.388 96.4036 93.5234 96.4297C93.6589 96.4505 93.7526 96.474 93.8047 96.5ZM100.312 103.555V99.2031C100.312 98.8698 100.245 98.5807 100.109 98.3359C99.9792 98.0859 99.7812 97.8932 99.5156 97.7578C99.25 97.6224 98.9219 97.5547 98.5312 97.5547C98.1667 97.5547 97.8464 97.6172 97.5703 97.7422C97.2995 97.8672 97.0859 98.0312 96.9297 98.2344C96.7786 98.4375 96.7031 98.6562 96.7031 98.8906H95.2578C95.2578 98.5885 95.3359 98.2891 95.4922 97.9922C95.6484 97.6953 95.8724 97.4271 96.1641 97.1875C96.4609 96.9427 96.8151 96.75 97.2266 96.6094C97.6432 96.4635 98.1068 96.3906 98.6172 96.3906C99.2318 96.3906 99.7734 96.4948 100.242 96.7031C100.716 96.9115 101.086 97.2266 101.352 97.6484C101.622 98.0651 101.758 98.5885 101.758 99.2188V103.156C101.758 103.438 101.781 103.737 101.828 104.055C101.88 104.372 101.956 104.646 102.055 104.875V105H100.547C100.474 104.833 100.417 104.612 100.375 104.336C100.333 104.055 100.312 103.794 100.312 103.555ZM100.562 99.875L100.578 100.891H99.1172C98.7057 100.891 98.3385 100.924 98.0156 100.992C97.6927 101.055 97.4219 101.151 97.2031 101.281C96.9844 101.411 96.8177 101.576 96.7031 101.773C96.5885 101.966 96.5312 102.193 96.5312 102.453C96.5312 102.719 96.5911 102.961 96.7109 103.18C96.8307 103.398 97.0104 103.573 97.25 103.703C97.4948 103.828 97.7943 103.891 98.1484 103.891C98.5911 103.891 98.9818 103.797 99.3203 103.609C99.6589 103.422 99.9271 103.193 100.125 102.922C100.328 102.651 100.438 102.388 100.453 102.133L101.07 102.828C101.034 103.047 100.935 103.289 100.773 103.555C100.612 103.82 100.396 104.076 100.125 104.32C99.8594 104.56 99.5417 104.76 99.1719 104.922C98.8073 105.078 98.3958 105.156 97.9375 105.156C97.3646 105.156 96.862 105.044 96.4297 104.82C96.0026 104.596 95.6693 104.297 95.4297 103.922C95.1953 103.542 95.0781 103.117 95.0781 102.648C95.0781 102.195 95.1667 101.797 95.3438 101.453C95.5208 101.104 95.776 100.815 96.1094 100.586C96.4427 100.352 96.8438 100.174 97.3125 100.055C97.7812 99.9349 98.3047 99.875 98.8828 99.875H100.562ZM105.977 98.3516V105H104.531V96.5469H105.898L105.977 98.3516ZM105.633 100.453L105.031 100.43C105.036 99.8516 105.122 99.3177 105.289 98.8281C105.456 98.3333 105.69 97.9036 105.992 97.5391C106.294 97.1745 106.654 96.8932 107.07 96.6953C107.492 96.4922 107.958 96.3906 108.469 96.3906C108.885 96.3906 109.26 96.4479 109.594 96.5625C109.927 96.6719 110.211 96.849 110.445 97.0938C110.685 97.3385 110.867 97.6562 110.992 98.0469C111.117 98.4323 111.18 98.9036 111.18 99.4609V105H109.727V99.4453C109.727 99.0026 109.661 98.6484 109.531 98.3828C109.401 98.112 109.211 97.9167 108.961 97.7969C108.711 97.6719 108.404 97.6094 108.039 97.6094C107.68 97.6094 107.352 97.6849 107.055 97.8359C106.763 97.987 106.51 98.1953 106.297 98.4609C106.089 98.7266 105.924 99.0312 105.805 99.375C105.69 99.7135 105.633 100.073 105.633 100.453ZM117.414 96.5469V97.6562H112.844V96.5469H117.414ZM114.391 94.4922H115.836V102.906C115.836 103.193 115.88 103.409 115.969 103.555C116.057 103.701 116.172 103.797 116.312 103.844C116.453 103.891 116.604 103.914 116.766 103.914C116.885 103.914 117.01 103.904 117.141 103.883C117.276 103.857 117.378 103.836 117.445 103.82L117.453 105C117.339 105.036 117.188 105.07 117 105.102C116.818 105.138 116.596 105.156 116.336 105.156C115.982 105.156 115.656 105.086 115.359 104.945C115.062 104.805 114.826 104.57 114.648 104.242C114.477 103.909 114.391 103.461 114.391 102.898V94.4922ZM123.117 105.156C122.529 105.156 121.995 105.057 121.516 104.859C121.042 104.656 120.633 104.372 120.289 104.008C119.951 103.643 119.69 103.211 119.508 102.711C119.326 102.211 119.234 101.664 119.234 101.07V100.742C119.234 100.055 119.336 99.4427 119.539 98.9062C119.742 98.3646 120.018 97.9062 120.367 97.5312C120.716 97.1562 121.112 96.8724 121.555 96.6797C121.997 96.487 122.456 96.3906 122.93 96.3906C123.534 96.3906 124.055 96.4948 124.492 96.7031C124.935 96.9115 125.297 97.2031 125.578 97.5781C125.859 97.9479 126.068 98.3854 126.203 98.8906C126.339 99.3906 126.406 99.9375 126.406 100.531V101.18H120.094V100H124.961V99.8906C124.94 99.5156 124.862 99.151 124.727 98.7969C124.596 98.4427 124.388 98.151 124.102 97.9219C123.815 97.6927 123.424 97.5781 122.93 97.5781C122.602 97.5781 122.299 97.6484 122.023 97.7891C121.747 97.9245 121.51 98.1276 121.312 98.3984C121.115 98.6693 120.961 99 120.852 99.3906C120.742 99.7812 120.688 100.232 120.688 100.742V101.07C120.688 101.471 120.742 101.849 120.852 102.203C120.966 102.552 121.13 102.859 121.344 103.125C121.562 103.391 121.826 103.599 122.133 103.75C122.445 103.901 122.799 103.977 123.195 103.977C123.706 103.977 124.138 103.872 124.492 103.664C124.846 103.456 125.156 103.177 125.422 102.828L126.297 103.523C126.115 103.799 125.883 104.062 125.602 104.312C125.32 104.562 124.974 104.766 124.562 104.922C124.156 105.078 123.674 105.156 123.117 105.156ZM133.516 102.758C133.516 102.549 133.469 102.357 133.375 102.18C133.286 101.997 133.102 101.833 132.82 101.688C132.544 101.536 132.128 101.406 131.57 101.297C131.102 101.198 130.677 101.081 130.297 100.945C129.922 100.81 129.602 100.646 129.336 100.453C129.076 100.26 128.875 100.034 128.734 99.7734C128.594 99.513 128.523 99.2083 128.523 98.8594C128.523 98.526 128.596 98.2109 128.742 97.9141C128.893 97.6172 129.104 97.3542 129.375 97.125C129.651 96.8958 129.982 96.7161 130.367 96.5859C130.753 96.4557 131.182 96.3906 131.656 96.3906C132.333 96.3906 132.911 96.5104 133.391 96.75C133.87 96.9896 134.237 97.3099 134.492 97.7109C134.747 98.1068 134.875 98.5469 134.875 99.0312H133.43C133.43 98.7969 133.359 98.5703 133.219 98.3516C133.083 98.1276 132.883 97.9427 132.617 97.7969C132.357 97.651 132.036 97.5781 131.656 97.5781C131.255 97.5781 130.93 97.6406 130.68 97.7656C130.435 97.8854 130.255 98.0391 130.141 98.2266C130.031 98.4141 129.977 98.612 129.977 98.8203C129.977 98.9766 130.003 99.1172 130.055 99.2422C130.112 99.362 130.211 99.474 130.352 99.5781C130.492 99.6771 130.69 99.7708 130.945 99.8594C131.201 99.9479 131.526 100.036 131.922 100.125C132.615 100.281 133.185 100.469 133.633 100.688C134.081 100.906 134.414 101.174 134.633 101.492C134.852 101.81 134.961 102.195 134.961 102.648C134.961 103.018 134.883 103.357 134.727 103.664C134.576 103.971 134.354 104.237 134.062 104.461C133.776 104.68 133.432 104.852 133.031 104.977C132.635 105.096 132.19 105.156 131.695 105.156C130.951 105.156 130.32 105.023 129.805 104.758C129.289 104.492 128.898 104.148 128.633 103.727C128.367 103.305 128.234 102.859 128.234 102.391H129.688C129.708 102.786 129.823 103.102 130.031 103.336C130.24 103.565 130.495 103.729 130.797 103.828C131.099 103.922 131.398 103.969 131.695 103.969C132.091 103.969 132.422 103.917 132.688 103.812C132.958 103.708 133.164 103.565 133.305 103.383C133.445 103.201 133.516 102.992 133.516 102.758Z" fill="black"/>
</svg>
