<svg width="89" height="88" viewBox="0 0 89 88" fill="none" xmlns="http://www.w3.org/2000/svg">
<rect x="0.5" width="88" height="88" rx="16" fill="#F0CEF5"/>
<path fill-rule="evenodd" clip-rule="evenodd" d="M37.8333 27.3333H51.1666C53.928 27.3333 56.1666 29.5718 56.1666 32.3333V55.6666C56.1666 58.428 53.928 60.6666 51.1666 60.6666H37.8333C35.0718 60.6666 32.8333 58.428 32.8333 55.6666V32.3333C32.8333 29.5718 35.0718 27.3333 37.8333 27.3333ZM39.4999 30.6666H37.8333C36.9128 30.6666 36.1666 31.4128 36.1666 32.3333V55.6666C36.1666 56.5871 36.9128 57.3333 37.8333 57.3333H51.1666C52.0871 57.3333 52.8333 56.5871 52.8333 55.6666V32.3333C52.8333 31.4128 52.0871 30.6666 51.1666 30.6666H49.4999V31.9999C49.4999 33.1045 48.6045 33.9999 47.4999 33.9999H41.4999C40.3953 33.9999 39.4999 33.1045 39.4999 31.9999V30.6666ZM46.1666 53.9999C46.1666 54.9204 45.4204 55.6666 44.4999 55.6666C43.5794 55.6666 42.8333 54.9204 42.8333 53.9999C42.8333 53.0794 43.5794 52.3333 44.4999 52.3333C45.4204 52.3333 46.1666 53.0794 46.1666 53.9999Z" fill="#742384"/>
</svg>
