<svg width="88" height="89" viewBox="0 0 88 89" fill="none" xmlns="http://www.w3.org/2000/svg">
<path d="M17.6001 13.5438C17.6001 11.3838 19.3512 9.63269 21.5112 9.63269H68.4445C70.6046 9.63269 72.3556 11.3838 72.3556 13.5438V76.1216C72.3556 78.2816 70.6046 80.0327 68.4445 80.0327H21.5112C19.3512 80.0327 17.6001 78.2816 17.6001 76.1216V13.5438Z" fill="#CE92D6"/>
<path d="M25.4224 19.4105C25.4224 18.3305 26.2979 17.455 27.3779 17.455H62.5779C63.6579 17.455 64.5335 18.3305 64.5335 19.4105V54.6105C64.5335 55.6905 63.6579 56.5661 62.5779 56.5661H27.3779C26.2979 56.5661 25.4224 55.6905 25.4224 54.6105V19.4105Z" fill="#F0CEF5"/>
<path fill-rule="evenodd" clip-rule="evenodd" d="M40.0888 22.3438C41.8889 22.3438 43.3481 23.803 43.3481 25.603V32.1215C43.3481 33.9216 41.8889 35.3808 40.0888 35.3808H33.5703C31.7703 35.3808 30.3111 33.9216 30.3111 32.1215V25.603C30.3111 23.803 31.7703 22.3438 33.5703 22.3438H40.0888ZM40.0889 26.5808C40.0889 26.0408 39.6511 25.603 39.1111 25.603H34.5481C34.0081 25.603 33.5704 26.0408 33.5704 26.5808V31.1438C33.5704 31.6838 34.0081 32.1215 34.5481 32.1215H39.1111C39.6511 32.1215 40.0889 31.6838 40.0889 31.1438V26.5808ZM40.0888 38.6401C41.8889 38.6401 43.3481 40.0993 43.3481 41.8993V48.4178C43.3481 50.2179 41.8889 51.6771 40.0888 51.6771H33.5703C31.7703 51.6771 30.311 50.2179 30.311 48.4178V41.8993C30.311 40.0993 31.7703 38.6401 33.5703 38.6401H40.0888ZM40.0888 42.8771C40.0888 42.3371 39.6511 41.8993 39.1111 41.8993H34.5481C34.0081 41.8993 33.5703 42.3371 33.5703 42.8771V47.4401C33.5703 47.9801 34.0081 48.4178 34.5481 48.4178H39.1111C39.6511 48.4178 40.0888 47.9801 40.0888 47.4401V42.8771ZM59.6444 25.603C59.6444 23.803 58.1851 22.3438 56.3851 22.3438H49.8666C48.0665 22.3438 46.6073 23.803 46.6073 25.603V32.1215C46.6073 33.9216 48.0665 35.3808 49.8666 35.3808H56.3851C58.1851 35.3808 59.6444 33.9216 59.6444 32.1215V25.603ZM55.4074 25.603C55.9474 25.603 56.3851 26.0408 56.3851 26.5808V31.1438C56.3851 31.6838 55.9474 32.1216 55.4074 32.1216H50.8444C50.3044 32.1216 49.8666 31.6838 49.8666 31.1438V26.5808C49.8666 26.0408 50.3044 25.603 50.8444 25.603H55.4074ZM56.3851 38.6401C58.1851 38.6401 59.6444 40.0993 59.6444 41.8993V48.4178C59.6444 50.2179 58.1851 51.6771 56.3851 51.6771H49.8666C48.0665 51.6771 46.6073 50.2179 46.6073 48.4178V41.8993C46.6073 40.0993 48.0665 38.6401 49.8666 38.6401H56.3851ZM56.3851 42.8771C56.3851 42.3371 55.9474 41.8993 55.4074 41.8993H50.8444C50.3044 41.8993 49.8666 42.3371 49.8666 42.8771V47.4401C49.8666 47.9801 50.3044 48.4178 50.8444 48.4178H55.4074C55.9474 48.4178 56.3851 47.9801 56.3851 47.4401V42.8771ZM38.4592 28.8623C38.4592 29.7623 37.7296 30.4919 36.8296 30.4919C35.9296 30.4919 35.2 29.7623 35.2 28.8623C35.2 27.9623 35.9296 27.2326 36.8296 27.2326C37.7296 27.2326 38.4592 27.9623 38.4592 28.8623ZM53.1258 46.7882C54.0259 46.7882 54.7555 46.0586 54.7555 45.1586C54.7555 44.2586 54.0259 43.5289 53.1258 43.5289C52.2258 43.5289 51.4962 44.2586 51.4962 45.1586C51.4962 46.0586 52.2258 46.7882 53.1258 46.7882Z" fill="#742384"/>
<path d="M25.4224 64.3883C25.4224 63.3083 26.2979 62.4327 27.3779 62.4327H62.5779C63.6579 62.4327 64.5335 63.3083 64.5335 64.3883V69.2772C64.5335 70.3572 63.6579 71.2327 62.5779 71.2327H27.3779C26.2979 71.2327 25.4224 70.3572 25.4224 69.2772V64.3883Z" fill="#10CBB4"/>
</svg>
