<svg width="319" height="306" viewBox="0 0 319 306" fill="none" xmlns="http://www.w3.org/2000/svg">
<g clip-path="url(#clip0_609_5521)">
<path d="M225.384 188.14L220.507 190.436L213.431 193.764L209.382 195.67L194.345 202.747L189.984 204.8L186.317 206.525L184.989 202.747L182.912 196.846L182.695 196.231L182.497 195.67L181.548 192.973L181.156 195.67L180.13 202.747L177.368 221.801L176.343 228.878L171.749 260.55H63.2892L62.2984 228.878L62.0786 221.801L61.4828 202.747L61.263 195.67L61.1802 193.008L61.0878 190.094L60.8202 190.471L60.2308 191.299L57.1279 195.67L52.1007 202.747L49.842 205.926C46.634 210.44 42.2408 213.647 37.3697 215.394C35.0951 216.213 32.7121 216.713 30.2973 216.879C29.6952 216.921 29.0931 216.943 28.4878 216.943C23.7984 216.943 19.0579 215.684 14.7922 213.057C10.571 210.456 7.34704 206.853 5.23807 202.747C4.088 200.512 3.26926 198.125 2.80095 195.67C1.59355 189.358 2.68945 182.587 6.40406 176.721L6.47096 176.616L10.9565 169.539L23.0338 150.482L27.5193 143.404L30.2973 139.021L37.3697 127.863L39.5966 124.35L44.0821 117.273L50.5843 107.011C52.0657 104.675 53.7956 102.555 55.7261 100.674C57.2999 99.1405 59.0043 97.7633 60.8202 96.5647C62.5532 95.4138 64.3819 94.4192 66.2901 93.5967C66.819 93.3672 67.3542 93.1536 67.8926 92.9528C73.13 90.989 78.8644 90.2717 84.6338 91.0113L91.343 91.8721L92.4166 92.0091L93.6623 92.1717L98.4155 92.7806L102.541 93.3098L104.784 93.5967L109.489 94.1992L109.61 93.5967L116.425 59.4065L121.866 60.4936L128.938 61.9026L152.389 66.5825L154.115 66.9267L152.389 75.5883L148.798 93.5967L147.702 99.099L152.389 99.7015L153.66 99.8641L159.461 100.607L159.722 100.642L159.974 100.674L161.15 100.824L180.809 103.342L182.864 103.607C182.88 103.61 182.896 103.61 182.912 103.613C185.447 103.945 187.843 104.773 189.984 106.014C193.762 108.191 196.751 111.643 198.334 115.871L198.86 117.273L201.507 124.35L208.64 143.404L211.287 150.482L213.431 156.207L218.423 169.539L220.507 175.108L221.071 176.616L225.384 188.14Z" fill="#742384"/>
<path d="M81.8653 149.48C81.7028 149.828 68.2525 178.152 61.1801 193.008L61.0877 190.094L60.8201 190.47L60.2307 191.299C67.4146 176.208 80.266 149.136 80.4285 148.798C80.6165 148.4 81.0911 148.231 81.4894 148.419C81.8844 148.607 82.0532 149.082 81.8653 149.48Z" fill="#5E186C"/>
<path d="M189.892 217.137L186.352 203.452L223.855 184.05L231.014 204.137L189.892 217.137Z" fill="#FCDABA"/>
<path d="M147.702 99.099L153.66 99.8641L128.54 120.292L102.541 93.3098L109.489 94.1992L116.425 59.4065L121.949 60.5095L154.115 66.9267L147.9 98.1172L147.702 99.099Z" fill="#FCDABA"/>
<path d="M154.115 66.9268L147.9 98.1172L118.954 76.4968L121.949 60.5095L154.115 66.9268Z" fill="#FBCCA1"/>
<path d="M187.725 166.944L183.131 193.161L182.695 196.231L182.497 195.67L181.548 192.973L181.558 192.909L186.155 166.666C188.229 154.852 188.531 142.827 187.059 130.927C187.005 130.49 187.318 130.092 187.754 130.037C188.184 129.983 188.589 130.292 188.643 130.729C190.131 142.789 189.825 154.973 187.725 166.944Z" fill="#5E186C"/>
<path d="M93.6465 92.1685L113.086 131.609L128.54 120.292L102.541 93.3097L93.6465 92.1685Z" fill="#8B3D99"/>
<path d="M153.66 99.864L128.54 120.292L145.339 132.648L159.528 100.616L153.66 99.864Z" fill="#8B3D99"/>
<path d="M53.3273 168.152C50.7277 166.982 47.784 165.815 44.5123 164.76C44.474 164.747 44.439 164.738 44.4008 164.725C35.2353 161.783 25.2415 162.592 16.7069 167.046C15.92 167.457 15.1299 167.9 14.3335 168.381C13.2662 169.025 12.2627 169.695 11.3261 170.377C1.19217 177.722 -2.79641 191.079 2.0587 202.62C3.5815 206.238 5.84977 209.423 8.7966 211.906C14.891 217.045 22.043 217.631 25.0631 217.692C34.4866 201.182 43.907 184.668 53.3305 168.158L53.3273 168.152Z" fill="#8B3D99"/>
<path d="M229.328 189.355L184.584 212.34L181.083 202.02L225.435 179.829L229.328 189.355Z" fill="#8B3D99"/>
<path d="M179.111 238.541C178.987 219.053 178.818 199.572 178.601 180.088C178.474 168.566 178.331 156.287 178.168 144.762C151.831 144.511 125.495 145.014 99.161 144.762C94.153 155.783 89.2055 167.91 84.602 181.111C78.7562 197.886 74.4012 213.736 71.1294 228.273C70.4222 231.416 68.0743 233.95 64.9809 234.837C64.9618 234.843 64.9395 234.849 64.9204 234.852C62.77 235.465 60.8171 235.78 59.1828 235.943L60.6928 248.921C58.5584 256.881 56.3379 264.924 54.0282 273.043C50.8424 284.243 47.593 295.231 44.2861 306H189.892L179.111 238.541Z" fill="#F4C12A"/>
<path d="M157.964 237.986C157.945 237.986 157.926 237.986 157.907 237.986C154.421 237.68 150.882 237.473 147.387 237.371C141.038 237.186 134.606 237.345 128.263 237.839C127.922 237.862 127.626 237.623 127.581 237.288C127.537 236.953 127.76 236.641 128.091 236.577C133.434 235.544 138.923 234.715 144.405 234.11C146.776 233.848 148.983 233.631 150.955 233.45C147.655 233.322 144.354 233.252 141.073 233.233C130.066 233.182 118.919 233.756 107.957 234.945C107.603 234.983 107.294 234.731 107.256 234.381C107.218 234.03 107.469 233.717 107.82 233.679C118.83 232.484 130.028 231.907 141.079 231.958C147.55 231.99 154.1 232.238 160.551 232.697C160.885 232.72 161.153 233 161.153 233.335C161.153 233.931 160.576 233.976 160.299 233.995C160.124 234.008 159.866 234.027 159.528 234.049C157.39 234.196 151.707 234.585 144.549 235.375C142.746 235.573 140.942 235.796 139.146 236.045C141.911 235.997 144.679 236.013 147.429 236.092C150.949 236.194 154.514 236.402 158.024 236.711C158.375 236.743 158.633 237.052 158.604 237.403C158.576 237.734 158.298 237.986 157.97 237.986H157.964Z" fill="#DBAD25"/>
<path d="M102.64 144.762H99.1578L92.4167 92.009L93.6624 92.1716L102.64 144.762Z" fill="#F4C12A"/>
<path d="M178.216 144.762H174.734L159.722 100.642L161.15 100.824L178.216 144.762Z" fill="#DBAD25"/>
<path d="M159.356 8.298L142.424 4.91883C132.933 3.02522 123.707 9.18743 121.812 18.6842L117.814 38.7456L113.733 37.9295C109.496 37.0847 105.376 39.8359 104.532 44.0758C103.688 48.3157 106.437 52.4377 110.674 53.2825L114.755 54.0954L113.669 59.5435C111.605 69.9042 118.323 79.9779 128.677 82.0437L142.484 84.798C152.838 86.8638 162.902 80.1405 164.969 69.7798L173.112 28.9173C175.005 19.4206 168.847 10.1884 159.356 8.29482V8.298Z" fill="#FCDABA"/>
<path d="M109.786 48.7141C109.607 48.7141 109.435 48.612 109.352 48.4399C109.241 48.2008 109.343 47.9171 109.582 47.8023L113.481 45.9597L110.585 42.7623C110.407 42.5678 110.423 42.2649 110.617 42.0864C110.811 41.9079 111.114 41.9238 111.292 42.1183L114.622 45.7939C114.723 45.9055 114.765 46.0585 114.736 46.2084C114.708 46.3582 114.609 46.4825 114.472 46.5463L109.989 48.6631C109.923 48.6949 109.856 48.7077 109.786 48.7077V48.7141Z" fill="#DCAC82"/>
<path d="M133.5 48.0064C131.21 47.5506 129.133 48.271 128.865 49.6163C128.597 50.9616 130.238 52.4249 132.529 52.8807C134.819 53.3366 136.896 52.6161 137.164 51.2709C137.432 49.9256 135.791 48.4623 133.5 48.0064Z" fill="#FBCCA1"/>
<path d="M162.867 53.8659C160.576 53.41 158.499 54.1273 158.231 55.4758C157.964 56.8211 159.605 58.2843 161.895 58.7402C164.186 59.1961 166.263 58.4756 166.53 57.1303C166.798 55.785 165.157 54.3218 162.867 53.8659Z" fill="#FBCCA1"/>
<path d="M136.17 58.1152C136.157 58.3193 136.151 58.5233 136.151 58.7305C136.151 64.1627 140.55 68.5684 145.979 68.5684C148.964 68.5684 151.637 67.2358 153.44 65.135L136.17 58.1152Z" fill="white"/>
<path d="M185.788 23.9059C185.788 23.8836 185.782 23.8645 185.782 23.8422C185.559 22.041 184.16 20.6128 182.367 20.3483C179.898 19.9848 176.658 19.14 175.68 17.1859C177.219 17.5078 178.933 17.3325 180.296 17.0615C181.701 16.7842 182.571 15.3688 182.188 13.9884C181.889 12.8981 180.882 12.1458 179.754 12.184C169.748 12.5028 163.466 4.97939 159.034 3.21967C154.332 1.35156 139.33 -4.3229 122.987 6.13341C106.644 16.5897 113.733 37.9295 113.733 37.9295L114.118 38.006C114.574 38.277 115.22 38.7392 115.806 39.482C116.724 40.6424 116.988 41.8411 117.078 42.4436C118.919 42.7783 120.764 43.113 122.605 43.4478C124.198 41.8124 126.498 39.0453 128.186 35.0508C130.248 30.1797 130.407 25.8283 130.314 23.3863C130.314 23.3863 132.615 25.009 133.067 25.315C135.673 27.0715 139.298 27.1066 140.601 27.1194C147.916 27.1927 149.585 23.1536 155.081 23.3863C160.066 23.5967 161.013 27.0173 166.349 29.0608C169.914 30.4252 175.262 31.1106 183.17 28.1873C184.928 27.537 186.014 25.7677 185.785 23.9059H185.788Z" fill="black"/>
<path d="M138.222 41.2481C137.308 41.0664 136.419 41.6593 136.237 42.5742L135.705 45.2361C135.523 46.1511 136.116 47.0405 137.03 47.2222C137.945 47.4039 138.834 46.811 139.015 45.896L139.547 43.2341C139.729 42.3192 139.136 41.4298 138.222 41.2481Z" fill="black"/>
<path d="M160.532 45.7017C159.617 45.52 158.729 46.1129 158.547 47.0278L158.015 49.6897C157.833 50.6047 158.426 51.4941 159.34 51.6758C160.254 51.8575 161.143 51.2646 161.325 50.3496L161.857 47.6877C162.039 46.7728 161.446 45.8834 160.532 45.7017Z" fill="black"/>
<path d="M184.431 143.746C184.431 145.904 182.708 147.667 180.548 147.714L158.996 148.17C159.678 149.12 160.774 150.928 161.188 153.446C161.535 155.534 161.287 157.361 160.927 158.722C160.446 160.539 160.293 162.427 160.401 164.304C160.63 168.257 160.86 172.213 161.089 176.166C161.331 180.343 158.658 184.13 154.648 185.297L117.441 196.116C109.664 198.004 101.885 199.894 94.1084 201.781C73.1651 206.869 52.2219 211.954 31.2754 217.042C25.678 218.403 19.7398 217.651 14.7572 214.762C14.5565 214.644 14.3526 214.526 14.1519 214.402C14.0946 214.364 14.0341 214.329 13.9767 214.291C6.76413 209.773 3.70261 200.822 6.50608 192.785C7.73898 189.246 9.63132 185.293 12.5463 181.372C12.7279 181.127 12.9095 180.888 13.0943 180.649C19.5168 172.373 29.4691 167.607 39.9407 167.499C63.6174 167.259 87.2908 167.017 110.967 166.778C118.722 159.271 126.479 151.766 134.236 144.259C136.167 142.391 138.719 141.304 141.401 141.205L180.318 139.777C180.369 139.773 180.417 139.773 180.468 139.773C182.65 139.773 184.431 141.546 184.431 143.746Z" fill="#FCDABA"/>
<path d="M303.694 152.193V161.499L295.952 164.486L279.941 170.664L230.905 227.705C226.056 233.345 219.551 235.94 213.129 235.94C202.641 235.94 192.377 229.022 189.888 217.134L258.892 141.237L260.922 126.151L266.78 120.981L275.965 128.746L303.694 152.193Z" fill="#FCDABA"/>
<path d="M303.694 152.193V161.499L295.952 164.486H278.042C275.984 164.486 274.311 162.812 274.311 160.753V156.535L264.576 128.086L275.965 128.746L303.694 152.193Z" fill="#DCAC82"/>
<path d="M305.596 97.9353H275.283C273.699 97.9353 272.416 99.2198 272.416 100.804V159.191C272.416 160.775 273.699 162.06 275.283 162.06H305.596C307.179 162.06 308.463 160.775 308.463 159.191V100.804C308.463 99.2198 307.179 97.9353 305.596 97.9353Z" fill="black"/>
<path d="M304.71 102.558H276.165C275.286 102.558 274.573 103.271 274.573 104.152V153.95C274.573 154.83 275.286 155.544 276.165 155.544H304.71C305.59 155.544 306.303 154.83 306.303 153.95V104.152C306.303 103.271 305.59 102.558 304.71 102.558Z" fill="#742384"/>
<path d="M277.759 130.697C274.334 127.576 270.909 124.455 267.484 121.334C266.557 120.49 265.222 120.238 264.069 120.729C263.282 121.064 262.422 121.618 261.721 122.546C261.199 123.234 260.903 123.952 260.74 124.602C260.428 125.836 260.887 127.14 261.887 127.927L272.722 136.458C274.327 137.72 276.679 137.599 278.036 136.075C279.434 134.504 279.304 132.11 277.755 130.701L277.759 130.697Z" fill="#FCDABA"/>
<path d="M317.756 121.07C317.045 118.819 314.649 117.573 312.4 118.281L303.142 121.204C300.893 121.915 299.648 124.312 300.355 126.563C301.065 128.813 303.461 130.06 305.71 129.352L314.968 126.429C317.217 125.718 318.463 123.321 317.756 121.07Z" fill="#FCDABA"/>
<path d="M314.825 135.425L304.681 138.629C304.254 138.763 303.821 138.83 303.394 138.83C301.581 138.83 299.903 137.663 299.326 135.839C298.628 133.633 299.817 131.287 301.98 130.525C302.024 130.509 302.069 130.493 302.114 130.481L312.257 127.277C313.958 126.741 315.742 127.325 316.819 128.612C317.166 129.027 317.44 129.518 317.612 130.066C318.323 132.317 317.074 134.717 314.825 135.425Z" fill="#FCDABA"/>
<path d="M315.723 144.103L305.58 147.303C305.153 147.437 304.719 147.504 304.292 147.504C302.48 147.504 300.798 146.337 300.224 144.517C299.555 142.403 300.619 140.156 302.617 139.302C302.744 139.247 302.875 139.196 303.012 139.155L313.155 135.954C314.598 135.498 316.099 135.849 317.179 136.751C317.784 137.255 318.256 137.934 318.511 138.741C319.221 140.991 317.972 143.392 315.723 144.103Z" fill="#FCDABA"/>
<path d="M317.179 136.751L306.806 140.028C306.344 140.175 305.876 140.242 305.414 140.242C304.395 140.242 303.413 139.904 302.617 139.302C302.744 139.247 302.875 139.196 303.012 139.155L313.155 135.954C314.599 135.498 316.099 135.849 317.179 136.751Z" fill="#FBCCA1"/>
<path d="M316.013 152.974L305.87 156.175C305.443 156.309 305.009 156.376 304.583 156.376C302.77 156.376 301.091 155.209 300.514 153.389C299.823 151.199 300.989 148.865 303.127 148.087C303.184 148.065 303.241 148.046 303.302 148.027L313.445 144.826C314.847 144.383 316.309 144.702 317.38 145.55C318.026 146.06 318.533 146.768 318.801 147.612C319.511 149.863 318.262 152.264 316.013 152.974Z" fill="#FCDABA"/>
<path d="M317.38 145.55L307.459 148.683C306.946 148.846 306.427 148.923 305.917 148.923C304.914 148.923 303.945 148.623 303.127 148.087C303.184 148.065 303.241 148.046 303.302 148.027L313.445 144.826C314.847 144.383 316.309 144.702 317.38 145.55Z" fill="#FBCCA1"/>
<path d="M290.451 160.071C291.334 160.071 292.05 159.354 292.05 158.47C292.05 157.587 291.334 156.87 290.451 156.87C289.567 156.87 288.851 157.587 288.851 158.47C288.851 159.354 289.567 160.071 290.451 160.071Z" fill="black"/>
<path d="M316.819 128.612C316.711 128.66 316.596 128.702 316.481 128.737L306.704 131.826C304.955 132.377 303.123 131.81 301.98 130.525C302.024 130.509 302.069 130.493 302.114 130.481L312.257 127.277C313.958 126.741 315.742 127.325 316.819 128.612Z" fill="#FBCCA1"/>
<path d="M161.089 176.167C161.331 180.343 158.658 184.13 154.648 185.297L117.441 196.116C109.665 198.004 101.885 199.894 94.1084 201.781C97.2814 200.43 100.496 199.017 103.745 197.541C105.415 196.783 107.065 196.018 108.699 195.252C113.475 193.008 118.422 191.156 123.494 189.709C132.019 187.28 145.058 183.562 150.774 181.94C159.627 179.431 156.323 167.795 156.588 161.187C156.852 154.578 153.418 148.17 153.418 148.17H158.996C159.678 149.12 160.774 150.928 161.188 153.446C161.535 155.534 161.287 157.361 160.927 158.722C160.446 160.539 160.293 162.427 160.401 164.304C160.63 168.257 160.86 172.214 161.089 176.167Z" fill="#FBCCA1"/>
<path fill-rule="evenodd" clip-rule="evenodd" d="M293.528 117.978L291.808 121.178C291.738 121.309 291.575 121.357 291.448 121.287C291.32 121.217 291.273 121.051 291.343 120.92L293.063 117.716C293.133 117.586 293.296 117.538 293.423 117.608C293.55 117.678 293.598 117.844 293.528 117.974V117.978ZM289.849 121.37C288.855 121.37 288.581 120.706 288.51 120.375C288.482 120.244 288.479 120.152 288.479 120.11C288.479 119.954 288.603 119.827 288.756 119.827C288.899 119.827 289.017 119.938 289.033 120.078C289.033 120.088 289.033 120.101 289.036 120.123C289.036 120.139 289.039 120.155 289.039 120.171C289.039 120.184 289.039 120.193 289.039 120.206C289.039 120.228 289.046 120.254 289.049 120.279C289.058 120.333 289.078 120.394 289.109 120.458C289.113 120.464 289.116 120.471 289.119 120.477C289.215 120.655 289.406 120.831 289.782 120.85C290.345 120.866 290.511 120.675 290.514 120.439C290.492 120.165 290.476 119.967 289.826 119.696C289.065 119.38 288.581 119.189 288.581 118.532C288.581 117.876 289.183 117.601 289.737 117.601C289.877 117.601 289.998 117.617 290.103 117.643C290.32 117.688 290.559 117.777 290.737 117.955C290.782 117.994 290.83 118.054 290.874 118.127C290.878 118.134 290.884 118.143 290.887 118.15C290.897 118.169 290.909 118.191 290.919 118.214C290.922 118.22 290.925 118.226 290.928 118.236C290.983 118.357 291.021 118.504 291.021 118.65C291.021 118.676 291.024 118.72 291.014 118.771C291.014 118.775 291.014 118.781 291.014 118.784C291.014 118.797 291.008 118.806 291.005 118.819C291.005 118.826 291.002 118.829 290.999 118.835C290.999 118.838 290.995 118.842 290.992 118.848C290.948 118.94 290.852 119.004 290.744 119.004C290.648 119.004 290.565 118.953 290.514 118.88C290.511 118.873 290.508 118.867 290.505 118.861C290.498 118.848 290.492 118.832 290.486 118.819C290.486 118.819 290.486 118.816 290.486 118.813C290.486 118.806 290.479 118.797 290.479 118.791C290.467 118.746 290.46 118.698 290.46 118.657C290.46 118.647 290.46 118.641 290.46 118.631C290.46 118.618 290.46 118.606 290.46 118.593C290.451 118.523 290.432 118.469 290.406 118.424C290.406 118.421 290.4 118.414 290.4 118.411C290.393 118.405 290.39 118.395 290.384 118.389C290.244 118.185 289.947 118.083 289.731 118.083C289.438 118.083 289.125 118.245 289.125 118.545C289.125 118.845 289.406 119.023 289.884 119.183C290.814 119.53 291.008 119.807 291.091 120.149C291.183 120.522 291.024 121.376 289.855 121.376L289.849 121.37ZM295.041 118.242C294.525 115.896 292.196 114.423 289.839 114.955C287.481 115.491 285.991 117.825 286.507 120.171C286.675 120.946 287.045 121.628 287.548 122.17C287.806 122.45 287.23 123.993 287.548 124.197C287.813 124.363 288.96 123.199 289.256 123.308C290.014 123.582 290.858 123.649 291.706 123.458C294.063 122.925 295.554 120.589 295.038 118.242H295.041Z" fill="#10CBB4"/>
<path fill-rule="evenodd" clip-rule="evenodd" d="M293.55 125.402C293.891 125.214 294.528 125.157 294.834 125.578C295.14 125.998 295.213 126.795 295.169 127.452C295.124 128.131 294.857 129.298 294.446 130.117C294.044 130.914 293.503 131.472 292.744 131.351C292.145 131.255 291.859 130.892 291.817 130.835L291.811 130.828C291.811 130.828 291.773 131.01 291.658 131.781C291.626 131.998 291.594 132.275 291.556 132.572C292.056 132.502 292.445 132.448 292.611 132.428C293.299 132.342 295.914 132.004 296.641 131.979C297.37 131.957 297.52 132.071 297.635 132.26C297.749 132.448 297.797 132.75 297.577 132.974C297.357 133.197 295.541 133.312 294.688 133.429C294.165 133.503 292.626 133.71 291.336 133.889C291.269 134.169 291.186 134.392 291.088 134.51C290.756 134.896 290.416 134.756 290.317 134.51C290.263 134.379 290.266 134.188 290.282 134.038C289.934 134.089 289.661 134.131 289.508 134.156C289.132 134.223 288.205 134.395 287.233 134.593L286.965 134.647C286.121 134.823 285.277 135.007 284.758 135.154C284.662 135.451 284.563 135.75 284.461 136.044C284.073 137.175 283.569 138.269 282.786 139.184C282.521 139.493 282.225 139.786 281.874 139.993C281.524 140.201 281.116 140.325 280.712 140.28C280.138 140.216 279.673 139.796 279.527 139.231C279.374 138.651 279.558 138.007 279.778 137.462C280.017 136.876 280.368 136.337 280.798 135.871C281.129 135.511 281.505 135.199 281.906 134.921C282.19 134.711 282.553 134.478 282.986 134.274C283.158 134.195 283.346 134.118 283.547 134.048C283.576 134.035 283.604 134.026 283.63 134.013C283.668 133.997 283.706 133.981 283.732 133.952C283.754 133.927 283.764 133.892 283.776 133.86C284.019 133.069 284.283 132.285 284.538 131.494C284.477 131.676 284.267 131.874 284.14 132.004C283.859 132.288 283.483 132.562 283.076 132.591C282.837 132.607 282.588 132.537 282.407 132.381C282.184 132.193 282.072 131.896 282.047 131.603C282.011 131.227 282.088 130.835 282.168 130.468C282.25 130.092 282.356 129.719 282.477 129.352C282.556 129.103 282.645 128.858 282.731 128.616C282.811 128.396 282.923 128.176 282.951 127.943C282.983 127.685 282.919 127.414 283.012 127.232C283.104 127.054 283.346 127.095 283.573 127.14C283.799 127.184 284.047 127.468 284.025 127.777C284.003 128.09 283.862 128.488 283.77 128.794C283.678 129.1 283.477 129.725 283.407 130.028C283.337 130.334 283.225 130.857 283.455 131.019C283.748 131.23 284.14 130.886 284.449 130.411C284.729 129.977 285.121 128.855 285.235 128.52C285.35 128.185 285.608 127.357 285.691 127.098C285.774 126.84 285.965 126.591 286.252 126.419C286.535 126.247 286.838 126.215 287.039 126.285C287.239 126.356 287.083 126.872 287.039 127.05V127.06C286.991 127.226 286.538 128.861 286.099 130.455L286.029 130.707C285.615 132.208 285.229 133.602 285.229 133.602C285.229 133.602 285.229 133.605 285.229 133.608C285.885 133.474 286.478 133.378 286.812 133.308L286.857 133.299C287.252 133.219 288.405 133.041 289.584 132.862L289.868 132.821C290.091 132.789 290.314 132.754 290.527 132.722C290.591 132.387 290.667 131.992 290.747 131.565C290.447 131.753 290.056 131.922 289.743 131.82C289.275 131.663 289.262 131.118 289.262 131.118C288.998 131.769 288.495 132.269 287.81 132.167C287.125 132.065 286.93 131.587 286.844 131.23C286.758 130.873 286.583 130.002 287.067 128.542C287.552 127.082 288.367 126.148 289.039 126.053C289.711 125.954 290.04 126.387 290.04 126.387L290.132 126.097C290.224 125.807 290.527 125.823 290.836 125.916C291.145 126.008 291.171 126.276 291.107 126.553C291.081 126.668 290.995 127.057 290.903 127.471L290.849 127.72C290.74 128.217 290.639 128.683 290.639 128.683C290.639 128.683 290.154 130.579 290.623 130.439C290.788 130.391 290.913 130.315 291.005 130.235C291.03 130.104 291.056 129.971 291.081 129.837L291.158 129.438C291.505 127.624 291.84 125.903 291.878 125.756C291.964 125.437 292.168 125.466 292.556 125.559C292.945 125.651 292.849 125.81 292.849 125.81L292.783 126.273C292.846 126.116 293.213 125.597 293.557 125.409L293.55 125.402ZM283.305 135.556C283.305 135.556 282.238 135.954 281.425 136.984C280.779 137.803 280.479 138.638 280.715 138.929C281.011 139.292 281.575 138.693 281.763 138.473C282.145 138.03 282.438 137.52 282.7 136.997C282.827 136.742 282.948 136.483 283.056 136.222C283.107 136.098 283.158 135.973 283.203 135.849C283.216 135.811 283.273 135.569 283.305 135.556ZM297.001 125.211C297.383 124.889 297.803 124.813 298.297 124.895C298.437 124.918 298.574 124.972 298.689 125.052C299.47 125.597 298.995 126.748 298.571 127.376C298.265 127.832 297.819 128.16 297.316 128.373C297.147 128.447 296.825 128.571 296.516 128.577C296.504 128.577 296.379 128.899 296.354 129.088C296.322 129.308 296.341 129.645 296.497 129.789C296.86 130.13 297.498 129.709 297.781 129.473C297.908 129.365 298.042 129.266 298.151 129.139C298.249 129.021 298.425 128.756 298.593 128.81C298.73 128.855 298.816 129.113 298.861 129.221C298.861 129.221 298.985 129.524 298.896 129.709C298.807 129.891 298.16 130.471 298.01 130.586C297.864 130.701 297.332 131.032 296.867 131.147C296.494 131.239 296.07 131.198 295.755 130.968C295.554 130.822 295.414 130.605 295.328 130.372C295.242 130.14 295.21 129.894 295.194 129.645C295.137 128.635 295.408 127.541 295.895 126.652C296.322 125.868 296.494 125.641 297.007 125.214L297.001 125.211ZM289.833 127.561C289.919 127.124 289.613 127.031 289.352 127.133C289.023 127.261 288.581 127.51 288.221 128.326C288.029 128.756 287.921 129.205 287.892 129.582C287.864 129.961 287.921 130.637 288.367 130.723C288.765 130.799 289.055 130.165 289.313 129.387C289.555 128.66 289.747 127.975 289.829 127.561H289.833ZM294.07 127.481C294.101 127.038 294.003 126.171 293.385 126.62C292.888 126.98 292.649 127.838 292.454 128.562C292.251 129.33 292.114 130.089 292.114 130.089C292.403 130.414 292.935 130.242 293.187 129.98C293.474 129.684 293.62 129.279 293.757 128.89C293.917 128.434 294.035 127.962 294.07 127.478V127.481ZM298.084 126.132C298.055 125.973 297.915 125.893 297.752 125.935C297.641 125.963 297.545 126.04 297.466 126.123C297.08 126.515 296.768 127.264 296.714 127.564C296.717 127.538 296.797 127.564 297.064 127.455C297.16 127.414 297.252 127.369 297.341 127.315C297.536 127.194 297.714 127.044 297.854 126.862C298.001 126.668 298.131 126.381 298.084 126.136V126.132Z" fill="white"/>
</g>
<defs>
<clipPath id="clip0_609_5521">
<rect width="319" height="306" fill="white"/>
</clipPath>
</defs>
</svg>
