<svg width="89" height="88" viewBox="0 0 89 88" fill="none" xmlns="http://www.w3.org/2000/svg">
<rect x="0.5" width="88" height="88" rx="16" fill="#F0CEF5"/>
<path fill-rule="evenodd" clip-rule="evenodd" d="M30.333 43.7225C30.333 51.8478 36.9302 58.445 45.0555 58.445C53.1808 58.445 59.778 51.8478 59.778 43.7225C59.778 35.5971 53.1808 29 45.0555 29C36.9302 29 30.333 35.5971 30.333 43.7225ZM33.2775 43.7225C33.2775 37.2225 38.5555 31.9445 45.0555 31.9445C51.5555 31.9445 56.8335 37.2225 56.8335 43.7225C56.8335 50.2225 51.5555 55.5005 45.0555 55.5005C38.5555 55.5005 33.2775 50.2225 33.2775 43.7225ZM38.716 41.835C40.3384 40.27 42.5806 39.3057 45.054 39.3057C47.5289 39.3057 49.7711 40.2715 51.395 41.838C51.9795 42.4019 52.9114 42.3857 53.4768 41.7997C54.0406 41.2152 54.0244 40.2833 53.4385 39.718C51.2919 37.6465 48.3283 36.3612 45.054 36.3612C41.7812 36.3612 38.819 37.6451 36.6725 39.715C36.088 40.2789 36.0704 41.2123 36.6342 41.7968C37.1981 42.3827 38.1315 42.3989 38.716 41.835ZM41.7002 46.215C42.5733 45.3434 43.7776 44.8031 45.107 44.8031C46.4365 44.8031 47.6408 45.3419 48.5138 46.215C49.088 46.7892 50.0214 46.7892 50.5956 46.2135C51.1697 45.6393 51.1697 44.706 50.5956 44.1318C49.1896 42.7273 47.2492 41.8586 45.107 41.8586C42.9649 41.8586 41.0245 42.7272 39.6185 44.1332C39.0443 44.7074 39.0443 45.6408 39.6185 46.215C40.1927 46.7892 41.1261 46.7892 41.7002 46.215ZM44.6094 50.6671C44.7375 50.5434 44.9142 50.4698 45.107 50.4698C45.3014 50.4698 45.478 50.5434 45.6046 50.6671C46.1877 51.2339 47.1196 51.2206 47.6864 50.6376C48.2532 50.0561 48.24 49.1227 47.6584 48.5559C47.0047 47.9213 46.1037 47.5253 45.107 47.5253C44.1118 47.5253 43.2093 47.9213 42.5571 48.5559C41.9741 49.1227 41.9608 50.0561 42.5276 50.6376C43.0945 51.2206 44.0279 51.2339 44.6094 50.6671Z" fill="#742384"/>
</svg>
