<?xml version="1.0" encoding="utf-8"?>
<!-- Generator: Adobe Illustrator 27.8.1, SVG Export Plug-In . SVG Version: 6.00 Build 0)  -->
<svg version="1.1" id="Layer_1" xmlns="http://www.w3.org/2000/svg" xmlns:xlink="http://www.w3.org/1999/xlink" x="0px" y="0px"
	 viewBox="0 0 600 600" style="enable-background:new 0 0 600 600;" xml:space="preserve">
<style type="text/css">
	.st0{clip-path:url(#SVGID_00000029762203074644025400000008159577960792486329_);fill:none;}
	.st1{clip-path:url(#SVGID_00000029762203074644025400000008159577960792486329_);fill:#8B3D99;}
	.st2{clip-path:url(#SVGID_00000029762203074644025400000008159577960792486329_);fill:#DCAC82;}
	.st3{clip-path:url(#SVGID_00000029762203074644025400000008159577960792486329_);fill:#9F7554;}
	.st4{clip-path:url(#SVGID_00000029762203074644025400000008159577960792486329_);}
	.st5{clip-path:url(#SVGID_00000138538157946592746720000018008697350666641316_);}
	.st6{fill:#403556;}
	.st7{fill:#2C2044;}
	.st8{fill:#742384;}
	.st9{fill:#544A69;}
	.st10{fill:#FFFFFF;}
	.st11{fill:#10CBB4;}
	.st12{opacity:0.9;}
	.st13{clip-path:url(#SVGID_00000145751339641806887970000015213275775644699789_);}
	.st14{fill:#F6F4FB;}
	.st15{fill:#918AA0;}
	.st16{fill:#B9B4C4;}
	.st17{fill:#BD77C7;}
	.st18{opacity:0.7;}
	.st19{clip-path:url(#SVGID_00000008125261194461243790000004211841058887187638_);}
	.st20{opacity:0.5;}
	.st21{clip-path:url(#SVGID_00000083789017802054743140000009148429565647276697_);}
	.st22{clip-path:url(#SVGID_00000172405096012090982020000007714753773368203176_);}
	.st23{fill-rule:evenodd;clip-rule:evenodd;fill:#BD77C7;}
	.st24{clip-path:url(#SVGID_00000019673116879420402550000003793334808569169314_);}
	.st25{clip-path:url(#SVGID_00000011000373061719791830000011015699912223782835_);}
	.st26{clip-path:url(#SVGID_00000129900503163861468280000005648552756378173591_);}
	.st27{fill:#F9DD8F;}
	.st28{fill:#DBAD25;}
	.st29{fill:#F7D163;}
	.st30{clip-path:url(#SVGID_00000149370429553619034610000001165493713124520079_);}
	.st31{clip-path:url(#SVGID_00000016057436484449875680000009567354907884321941_);}
</style>
<g>
	<g>
		<defs>
			<path id="SVGID_1_" d="M600,248.3c0,136-97.4,272.3-300,272.3C134.3,520.7,0,410.4,0,274.4c0-75.8,31.2-168,111.4-190.8
				c10.9-3.8,21.9-4.3,29.9-4.3c52.6,0,58.7,0,144,0c50.4,0,106,0,147.3,0c20.7,7.6,46.7,17.4,77.7,29.7
				C575.5,125,600,183.1,600,248.3z"/>
		</defs>
		<clipPath id="SVGID_00000161600086107021287840000008938702393860632980_">
			<use xlink:href="#SVGID_1_"  style="overflow:visible;"/>
		</clipPath>
		
			<rect y="0.3" style="clip-path:url(#SVGID_00000161600086107021287840000008938702393860632980_);fill:none;" width="600" height="600"/>
		<path style="clip-path:url(#SVGID_00000161600086107021287840000008938702393860632980_);fill:#8B3D99;" d="M600,248.3
			c0,136-97.4,272.3-300,272.3C134.3,520.7,0,410.4,0,274.4c0-75.8,31.2-168,111.4-190.8c80.2-22.8,87.8,53,173.9,53
			c86.1,0,138.6-48.8,225-27.7C575.5,125,600,183.1,600,248.3z"/>
		<path style="clip-path:url(#SVGID_00000161600086107021287840000008938702393860632980_);fill:#DCAC82;" d="M158.8,1081.7
			c-6.7,0.1-13.5-0.6-20.4-2.1c-47.7-10.7-77.8-58-67.2-105.8c29.3-131.2,54.5-458.7,53.1-581.9c-0.6-48.9,38.7-89,87.6-89.6
			c48.9-0.6,89,38.7,89.6,87.6c1.5,131.1-24.8,476.4-57.4,622.6C235.1,1053.3,199,1081.3,158.8,1081.7L158.8,1081.7z"/>
		<path style="clip-path:url(#SVGID_00000161600086107021287840000008938702393860632980_);fill:#DCAC82;" d="M212.8,479.4
			c48.9,0.1,88.7-39.5,88.8-88.4c0.1-48.9-39.5-88.7-88.4-88.8c-48.9-0.1-88.7,39.5-88.8,88.4C124.3,439.5,163.8,479.2,212.8,479.4z
			"/>
		<path style="clip-path:url(#SVGID_00000161600086107021287840000008938702393860632980_);fill:#DCAC82;" d="M193.9,273.1
			l-43.7,55.1l125.5,125.1l90.4-0.1l-0.3-180.3L193.9,273.1z"/>
		<path style="clip-path:url(#SVGID_00000161600086107021287840000008938702393860632980_);fill:#DCAC82;" d="M124.4,390.9
			c-0.3-14.4,0.4-36.4,6-62.5c7.3-34.3,17.8-49.5,26-76.8c5.1-17.2,10.1-41.2,9.4-72.4c-0.3-13.1,10.1-23.9,23.1-24
			c12.1-0.1,22.4,9.1,23.4,21.1c2,22.8,1.9,46.1-0.8,69.9c7.6,7.5,23.4,25.1,28.9,52.2c10.1,49.8-23.4,87.9-27.5,92.4L124.4,390.9
			L124.4,390.9z"/>
		<path style="clip-path:url(#SVGID_00000161600086107021287840000008938702393860632980_);fill:#9F7554;" d="M190.9,410.4
			c7-8.9,28.4-38.4,28.8-81.7c0.5-41.4-18.4-70.3-25.1-79.7c3.3-2.5,9.2-7.5,13.6-15.9c4.5-8.6,5.3-16.5,5.4-20.6
			c-0.2,6.8-0.5,13.7-1,21c-0.3,4.3-0.7,8.6-1.1,12.7c30.8,16.4,49.5,48.6,48,82.3C257.7,366.9,229.9,400.6,190.9,410.4L190.9,410.4
			z"/>
		<g style="clip-path:url(#SVGID_00000161600086107021287840000008938702393860632980_);">
			<defs>
				
					<rect id="SVGID_00000109747744257462825000000005978506368307501454_" x="115.1" y="179.3" transform="matrix(2.417449e-03 -1 1 2.417449e-03 32.6158 568.4131)" width="372.1" height="177.2"/>
			</defs>
			<clipPath id="SVGID_00000123401723339171012340000017286614957535634361_">
				<use xlink:href="#SVGID_00000109747744257462825000000005978506368307501454_"  style="overflow:visible;"/>
			</clipPath>
			<g style="clip-path:url(#SVGID_00000123401723339171012340000017286614957535634361_);">
				<path class="st6" d="M389.4,440.5l0.8-334.4c0-7.5-6.1-13.6-13.7-13.6l-149.7-0.4c-7.6,0-13.8,6.1-13.8,13.6l-0.8,334.4
					c0,7.5,6.1,13.6,13.7,13.6l149.7,0.4C383.2,454.1,389.4,448,389.4,440.5z"/>
				<path class="st7" d="M389.4,430l0.8-334.4c0-7.5-6.1-13.6-13.7-13.6l-149.7-0.4c-7.6,0-13.8,6.1-13.8,13.6l-0.8,334.4
					c0,7.5,6.1,13.6,13.7,13.6l149.7,0.4C383.2,443.6,389.4,437.6,389.4,430z"/>
				<path class="st8" d="M380.8,415.1l0.7-304.5c0-3.7-3-6.8-6.8-6.8l-146.4-0.4c-3.8,0-6.8,3-6.8,6.7l-0.7,304.5
					c0,3.7,3,6.8,6.8,6.8l146.4,0.4C377.8,421.8,380.8,418.8,380.8,415.1z"/>
				<path class="st9" d="M283.8,96.6l35.7,0.1c2.1,0,3.8-1.7,3.8-3.7l0-0.5c0-2-1.7-3.7-3.7-3.7l-35.7-0.1c-2.1,0-3.8,1.7-3.8,3.7
					l0,0.5C280,94.9,281.7,96.6,283.8,96.6z"/>
				<g>
					<g>
						<g>
							<path class="st10" d="M321.5,159.9c-4.4,0-9.3,0.4-13.9,0.9c0.5-1.8,1.1-3.6,1.1-3.6s0.5,1.1,2,1c2.1-0.1,4.7-2.1,6-5.8
								c1.4-4,1.3-8.5-1.3-8.9c-2.2-0.3-3.2,1.6-3.4,1.9c0,0,0.5-1.7-0.9-1.5c-1.3,0.3-1.6,0.9-1.9,1.9c-0.1,0.2-1.2,4.3-2.5,8.6
								c0,0,0,0.1,0,0.1c-0.3,1-0.9,1.3-1.3,1.3c-1.3,0.1,1.7-8.7,1.9-9.3c0.3-0.9,0.5-1.5-0.5-1.9c-0.6-0.3-1.5-0.2-1.8,0.5
								c-0.1,0.3-0.2,0.5-0.2,0.5s-0.7-1.1-2.4-1c-1.7,0.1-3.8,2.1-5.2,5.6c-1.4,3.5-2.1,8.5,1.1,9.1c1.7,0.3,3.1-0.6,3.8-2.2
								c0,0-0.1,1,0.9,1.6c0.4,0.2,1.5,0.1,2.5-0.4c-0.3,1-0.5,1.9-0.8,2.8c-7.1,0.9-12.7,1.8-12.7,1.8c0,0,4.1-13,5-15.9
								c0.8-2.4-0.6-1.9-1.6-1.6c-1.1,0.3-1.6,1.2-2.2,2.8c-2.5,7.2-4.4,9.4-5.7,8.9c-1.2-0.5,2.8-8.1,1.9-9.1
								c-0.8-0.9-2.5-0.9-2.8-0.4c-0.3,0.5,0.1,1-0.1,1.7c-0.2,0.7-1.8,4.7-2,5.6c-0.2,0.9-1.6,5.8,2,5.6c2.1-0.1,3.6-1.7,3.8-2.1
								c-0.7,1.9-1.7,5-1.7,5s-4.4,1-7.9,4.6c-2.8,2.8-4.9,9-0.8,10c6.4,1.6,9.5-8,11.2-11.7c5.2-1.1,9.2-1.8,12.8-2.3
								c-0.1,0.2-0.1,0.4-0.1,0.4c-0.4,1.5-0.3,2.1,0.9,2c1.3-0.1,1.5-0.8,1.9-2.4c0-0.1,0.1-0.2,0.1-0.4c4.3-0.5,8.6-0.8,14.4-1.2
								c1.8-0.1,1.8-0.4,2-1.5C323.4,159.9,322,159.9,321.5,159.9z M310.6,151.3c0.9-2.8,1.7-4,2.5-4.3c1.8-0.7,2.1,1.5,0.7,4.9
								c-1.7,3.9-3.6,3.8-4.3,3C309.5,154.9,309.6,154.3,310.6,151.3z M302.5,152.8c-0.8,1.8-1.5,3.1-2.5,3.1
								c-1.4,0-1.4-2.2-0.3-4.8c0.9-2.3,2.5-3.7,3.3-3.8C303.8,147.2,304.8,147.6,302.5,152.8z M283.3,174.2c-3.4,3-2.5-1.2-1.2-2.9
								c2.5-3.4,5.4-4.2,5.4-4.2C285.9,171.5,284,173.6,283.3,174.2z"/>
							<path class="st10" d="M326.3,149c1.3-1.5,1.9-4.6-0.2-5.8c-2.6-1.5-6,0.6-7.5,5.2c-1.3,4.1-1.9,9.2,2.4,9
								c2.1-0.1,3.9-1.5,4.6-2.6c0.3-0.5,0.5-1.4,0.4-1.8c-0.1-1.1-0.8-1.2-1.9,0.1c-0.3,0.3-2.5,2.2-3.5,1c-0.8-0.8-0.1-2.5,0-2.5
								C321.8,151.7,324.3,151.2,326.3,149z M323.2,145.3c1.2-1.1,2.3,0.3,0.9,2.1c-1.4,1.9-3,1.8-3,1.9
								C321.3,148.5,321.9,146.5,323.2,145.3z"/>
						</g>
						<g>
							<path class="st11" d="M303.5,132.2c-0.3-0.2-0.6-0.3-1.1-0.3l-1.5,0l0,2.1l1.6,0c1,0,1.5-0.3,1.5-1
								C303.9,132.7,303.8,132.4,303.5,132.2z"/>
							<path class="st11" d="M304.5,122.5c-4.6,0.1-8.4,3.7-8.7,8.3c-0.2,3.1,1.1,5.9,3.3,7.7c0.2,0.2,0.4,0.5,0.3,0.8l0,2
								c0,0.2,0.1,0.3,0.2,0.4l0.1,0c0.1,0.1,0.3,0.1,0.4,0l1.7-1.2c0.2-0.2,0.5-0.2,0.8-0.1c0.7,0.2,1.4,0.3,2.1,0.3
								c5,0.1,9.1-3.9,9.2-8.9C313.9,126.5,309.7,122.3,304.5,122.5z M305,134.2c-0.2,0.3-0.5,0.6-0.8,0.7c-0.2,0.1-0.5,0.1-0.8,0.2
								c-0.3,0-0.6,0-1,0l-2.2,0c-0.3,0-0.5-0.1-0.7-0.2c-0.1-0.1-0.2-0.4-0.2-0.7l0.1-5.4c0-0.3,0.1-0.5,0.2-0.7
								c0.1-0.1,0.4-0.2,0.7-0.2l2.3,0c0.3,0,0.6,0,0.9,0.1s0.5,0.1,0.7,0.3c0.2,0.1,0.3,0.2,0.4,0.4s0.2,0.3,0.3,0.5
								c0.1,0.2,0.1,0.4,0.1,0.6c0,0.7-0.4,1.2-1.1,1.6c0.9,0.3,1.4,0.9,1.4,1.8C305.4,133.6,305.3,133.9,305,134.2z M310.2,134.6
								c-0.2,0.3-0.5,0.5-0.8,0.6c-0.4,0.1-0.8,0.2-1.3,0.2c-0.5,0-0.9-0.1-1.2-0.2s-0.6-0.3-0.7-0.6c-0.2-0.2-0.2-0.4-0.2-0.7
								c0-0.1,0.1-0.3,0.2-0.4c0.1-0.1,0.2-0.2,0.4-0.1c0.1,0,0.2,0,0.3,0.1c0.1,0.1,0.1,0.2,0.2,0.3c0.1,0.2,0.3,0.4,0.5,0.5
								c0.2,0.1,0.4,0.2,0.8,0.2c0.3,0,0.5-0.1,0.7-0.2s0.3-0.3,0.3-0.4c0-0.2-0.1-0.4-0.3-0.5c-0.2-0.1-0.5-0.2-0.9-0.3
								c-0.5-0.1-0.8-0.2-1.1-0.4s-0.5-0.3-0.7-0.5s-0.3-0.5-0.2-0.8c0-0.3,0.1-0.5,0.3-0.8c0.2-0.2,0.4-0.4,0.7-0.6
								c0.3-0.1,0.7-0.2,1.1-0.2c0.3,0,0.7,0,0.9,0.1c0.3,0.1,0.5,0.2,0.7,0.3s0.3,0.3,0.4,0.4c0.1,0.1,0.1,0.3,0.1,0.4
								c0,0.2-0.1,0.3-0.2,0.4c-0.1,0.1-0.3,0.1-0.4,0.1c-0.1,0-0.3,0-0.3-0.1c-0.1-0.1-0.2-0.2-0.3-0.4c-0.1-0.1-0.2-0.2-0.4-0.3
								c-0.1-0.1-0.3-0.1-0.6-0.1c-0.2,0-0.4,0-0.6,0.1c-0.2,0.1-0.2,0.2-0.2,0.4c0,0.1,0.1,0.3,0.2,0.3c0.1,0.1,0.3,0.2,0.5,0.2
								c0.2,0.1,0.5,0.1,0.8,0.2c0.4,0.1,0.7,0.2,1,0.4c0.3,0.1,0.5,0.3,0.6,0.5c0.1,0.2,0.2,0.4,0.2,0.7
								C310.4,134,310.3,134.3,310.2,134.6z"/>
							<path class="st11" d="M303.1,130.8c0.2-0.1,0.4-0.2,0.5-0.4c0.1-0.1,0.1-0.3,0.1-0.5c0-0.4-0.1-0.6-0.4-0.7s-0.6-0.2-1.2-0.2
								l-1.2,0l0,1.9l1.3,0C302.6,130.9,302.9,130.9,303.1,130.8z"/>
						</g>
					</g>
				</g>
			</g>
		</g>
		<path style="clip-path:url(#SVGID_00000161600086107021287840000008938702393860632980_);fill:#DCAC82;" d="M408.2,234.2
			c11.5-4.1,17.4-16.8,13.3-28.2c-4.1-11.5-16.8-17.4-28.2-13.3l-20.6,7.4c-11.5,4.1-17.4,16.8-13.3,28.2
			c4.1,11.5,16.8,17.4,28.2,13.3L408.2,234.2z"/>
		<path style="clip-path:url(#SVGID_00000161600086107021287840000008938702393860632980_);fill:#DCAC82;" d="M410,297.1
			c12-2.2,19.9-13.7,17.7-25.7c-2.2-12-13.7-19.9-25.7-17.7l-25.6,4.8c-12,2.2-19.9,13.7-17.7,25.7c2.2,12,13.7,19.9,25.7,17.7
			L410,297.1z"/>
		<path style="clip-path:url(#SVGID_00000161600086107021287840000008938702393860632980_);fill:#DCAC82;" d="M411.6,357.7
			c12.1-1.1,21.1-11.9,19.9-24c-1.1-12.1-11.9-21.1-24-19.9l-25.2,2.4c-12.1,1.1-21.1,11.9-19.9,24c1.1,12.1,11.9,21.1,24,19.9
			L411.6,357.7z"/>
		<path style="clip-path:url(#SVGID_00000161600086107021287840000008938702393860632980_);fill:#DCAC82;" d="M404.3,418
			c12.1-1.1,21.1-11.9,19.9-24c-1.1-12.1-11.9-21.1-24.1-19.9l-21.8,2.1c-12.1,1.1-21.1,11.9-19.9,24c1.1,12.1,11.9,21.1,24,19.9
			L404.3,418z"/>
	</g>
	<g>
		<g class="st12">
			<defs>
				
					<rect id="SVGID_00000160906902177623132510000011138305339445511354_" x="171" y="197.4" class="st12" width="257" height="65.5"/>
			</defs>
			<clipPath id="SVGID_00000017495998378051908550000006958018109467641233_">
				<use xlink:href="#SVGID_00000160906902177623132510000011138305339445511354_"  style="overflow:visible;"/>
			</clipPath>
			<g style="clip-path:url(#SVGID_00000017495998378051908550000006958018109467641233_);">
				<path class="st14" d="M171,206.1c0-4.8,3.9-8.6,8.6-8.6h239.8c4.8,0,8.6,3.9,8.6,8.6v48.3c0,4.8-3.9,8.6-8.6,8.6H179.6
					c-4.8,0-8.6-3.9-8.6-8.6V206.1z"/>
				<path class="st8" d="M221.8,229.7c0,10.1-8.2,18.3-18.3,18.3s-18.3-8.2-18.3-18.3c0-10.1,8.2-18.3,18.3-18.3
					S221.8,219.5,221.8,229.7z"/>
				<path class="st15" d="M230.1,214.7c0-1.9,1.5-3.4,3.5-3.4h96.6c1.9,0,3.5,1.5,3.5,3.4c0,1.9-1.5,3.4-3.5,3.4h-96.6
					C231.7,218.1,230.1,216.6,230.1,214.7z"/>
				<path class="st15" d="M230.1,228.5c0-1.9,1.5-3.5,3.5-3.5h62.1c1.9,0,3.4,1.5,3.4,3.5s-1.5,3.5-3.4,3.5h-62.1
					C231.7,231.9,230.1,230.4,230.1,228.5z"/>
				<path class="st16" d="M230.1,245.7c0-1.9,1.5-3.5,3.5-3.5h8.6c1.9,0,3.4,1.5,3.4,3.5c0,1.9-1.5,3.4-3.4,3.4h-8.6
					C231.7,249.2,230.1,247.6,230.1,245.7z"/>
				<path class="st16" d="M250.8,245.7c0-1.9,1.5-3.5,3.4-3.5h8.6c1.9,0,3.5,1.5,3.5,3.5c0,1.9-1.5,3.4-3.5,3.4h-8.6
					C252.4,249.2,250.8,247.6,250.8,245.7z"/>
				<path class="st16" d="M271.5,245.7c0-1.9,1.5-3.5,3.4-3.5h8.6c1.9,0,3.5,1.5,3.5,3.5c0,1.9-1.5,3.4-3.5,3.4H275
					C273.1,249.2,271.5,247.6,271.5,245.7z"/>
				<path class="st17" d="M371.1,230.2c0-1.9,1.5-3.5,3.5-3.5h36.2c1.9,0,3.4,1.5,3.4,3.5s-1.5,3.4-3.4,3.4h-36.2
					C372.6,233.7,371.1,232.1,371.1,230.2z"/>
				<g>
					<g>
						<g>
							<path class="st10" d="M210.6,232.8c-1.7,0-3.6,0.1-5.3,0.3c0.2-0.7,0.4-1.4,0.4-1.4s0.2,0.4,0.8,0.4c0.8,0,1.8-0.8,2.3-2.2
								c0.5-1.5,0.5-3.2-0.5-3.4c-0.8-0.1-1.2,0.6-1.3,0.7c0,0,0.2-0.7-0.3-0.6c-0.5,0.1-0.6,0.3-0.7,0.7c0,0.1-0.5,1.6-0.9,3.3
								c0,0,0,0,0,0c-0.1,0.4-0.3,0.5-0.5,0.5c-0.5,0,0.6-3.3,0.7-3.6c0.1-0.3,0.2-0.6-0.2-0.7c-0.2-0.1-0.6-0.1-0.7,0.2
								c0,0.1-0.1,0.2-0.1,0.2s-0.3-0.4-0.9-0.4c-0.6,0-1.4,0.8-2,2.1c-0.5,1.3-0.8,3.3,0.4,3.5c0.6,0.1,1.2-0.2,1.5-0.8
								c0,0-0.1,0.4,0.4,0.6c0.2,0.1,0.6,0.1,1-0.2c-0.1,0.4-0.2,0.7-0.3,1.1c-2.7,0.3-4.8,0.7-4.8,0.7c0,0,1.6-5,1.9-6.1
								c0.3-0.9-0.2-0.7-0.6-0.6c-0.4,0.1-0.6,0.5-0.8,1.1c-1,2.7-1.7,3.6-2.2,3.4c-0.5-0.2,1.1-3.1,0.7-3.5
								c-0.3-0.3-0.9-0.3-1.1-0.1c-0.1,0.2,0.1,0.4,0,0.7s-0.7,1.8-0.8,2.1c-0.1,0.3-0.6,2.2,0.8,2.2c0.8,0,1.4-0.6,1.4-0.8
								c-0.3,0.7-0.6,1.9-0.6,1.9s-1.7,0.4-3,1.7c-1.1,1.1-1.8,3.4-0.3,3.8c2.4,0.6,3.6-3.1,4.3-4.5c2-0.4,3.5-0.7,4.9-0.9
								c0,0.1,0,0.1,0,0.2c-0.1,0.6-0.1,0.8,0.3,0.8c0.5-0.1,0.6-0.3,0.7-0.9c0,0,0-0.1,0-0.2c1.7-0.2,3.3-0.3,5.5-0.5
								c0.7,0,0.7-0.2,0.8-0.6C211.4,232.9,210.8,232.8,210.6,232.8z M206.5,229.6c0.4-1.1,0.7-1.5,1-1.6c0.7-0.3,0.8,0.6,0.3,1.9
								c-0.6,1.5-1.4,1.5-1.6,1.2C206,231,206.1,230.7,206.5,229.6z M203.4,230.2c-0.3,0.7-0.6,1.2-1,1.2c-0.5,0-0.5-0.8-0.1-1.8
								c0.3-0.9,0.9-1.4,1.3-1.4C203.9,228,204.3,228.2,203.4,230.2z M196,238.3c-1.3,1.1-1-0.4-0.5-1.1c0.9-1.3,2.1-1.6,2.1-1.6
								C197,237.3,196.3,238.1,196,238.3z"/>
							<path class="st10" d="M212.4,228.7c0.5-0.6,0.7-1.8-0.1-2.2c-1-0.6-2.3,0.2-2.9,2c-0.5,1.6-0.7,3.5,0.9,3.4
								c0.8,0,1.5-0.6,1.7-1c0.1-0.2,0.2-0.5,0.2-0.7c-0.1-0.4-0.3-0.5-0.7,0.1c-0.1,0.1-0.9,0.8-1.3,0.4c-0.3-0.3,0-0.9,0-0.9
								C210.8,229.7,211.7,229.5,212.4,228.7z M211.3,227.3c0.5-0.4,0.9,0.1,0.3,0.8c-0.5,0.7-1.1,0.7-1.1,0.7
								C210.5,228.5,210.8,227.8,211.3,227.3z"/>
						</g>
						<g>
							<path class="st11" d="M203.8,222.3c-0.1-0.1-0.2-0.1-0.4-0.1l-0.6,0l0,0.8l0.6,0c0.4,0,0.6-0.1,0.6-0.4
								C203.9,222.5,203.9,222.4,203.8,222.3z"/>
							<path class="st11" d="M204.2,218.6c-1.7,0-3.2,1.4-3.3,3.2c-0.1,1.2,0.4,2.2,1.2,2.9c0.1,0.1,0.1,0.2,0.1,0.3l0,0.8
								c0,0.1,0,0.1,0.1,0.1l0,0c0,0,0.1,0,0.2,0l0.7-0.5c0.1-0.1,0.2-0.1,0.3-0.1c0.3,0.1,0.5,0.1,0.8,0.1c1.9,0,3.5-1.5,3.5-3.4
								C207.7,220.1,206.1,218.5,204.2,218.6z M204.4,223.1c-0.1,0.1-0.2,0.2-0.3,0.3c-0.1,0-0.2,0.1-0.3,0.1c-0.1,0-0.2,0-0.4,0
								l-0.8,0c-0.1,0-0.2,0-0.3-0.1c-0.1-0.1-0.1-0.1-0.1-0.3l0-2.1c0-0.1,0-0.2,0.1-0.3c0.1-0.1,0.1-0.1,0.3-0.1l0.9,0
								c0.1,0,0.2,0,0.3,0c0.1,0,0.2,0.1,0.3,0.1c0.1,0,0.1,0.1,0.2,0.1c0,0.1,0.1,0.1,0.1,0.2c0,0.1,0,0.1,0,0.2
								c0,0.3-0.1,0.5-0.4,0.6c0.4,0.1,0.5,0.3,0.5,0.7C204.5,222.8,204.4,223,204.4,223.1z M206.3,223.2c-0.1,0.1-0.2,0.2-0.3,0.2
								c-0.1,0-0.3,0.1-0.5,0.1c-0.2,0-0.3,0-0.5-0.1c-0.1-0.1-0.2-0.1-0.3-0.2c-0.1-0.1-0.1-0.2-0.1-0.3c0-0.1,0-0.1,0.1-0.1
								c0,0,0.1-0.1,0.2-0.1c0.1,0,0.1,0,0.1,0c0,0,0.1,0.1,0.1,0.1c0.1,0.1,0.1,0.2,0.2,0.2s0.2,0.1,0.3,0.1c0.1,0,0.2,0,0.3-0.1
								c0.1,0,0.1-0.1,0.1-0.2c0-0.1,0-0.2-0.1-0.2c-0.1,0-0.2-0.1-0.3-0.1c-0.2,0-0.3-0.1-0.4-0.1c-0.1,0-0.2-0.1-0.3-0.2
								s-0.1-0.2-0.1-0.3c0-0.1,0-0.2,0.1-0.3c0.1-0.1,0.2-0.2,0.3-0.2c0.1-0.1,0.3-0.1,0.4-0.1c0.1,0,0.3,0,0.4,0
								c0.1,0,0.2,0.1,0.3,0.1s0.1,0.1,0.2,0.2s0.1,0.1,0.1,0.2c0,0.1,0,0.1-0.1,0.1c0,0-0.1,0.1-0.2,0.1c-0.1,0-0.1,0-0.1,0
								c0,0-0.1-0.1-0.1-0.1c0-0.1-0.1-0.1-0.1-0.1c-0.1,0-0.1,0-0.2,0c-0.1,0-0.2,0-0.2,0.1c-0.1,0-0.1,0.1-0.1,0.1
								c0,0.1,0,0.1,0.1,0.1c0,0,0.1,0.1,0.2,0.1c0.1,0,0.2,0.1,0.3,0.1c0.2,0,0.3,0.1,0.4,0.1c0.1,0.1,0.2,0.1,0.2,0.2
								c0.1,0.1,0.1,0.2,0.1,0.3C206.4,223,206.4,223.1,206.3,223.2z"/>
							<path class="st11" d="M203.6,221.8c0.1,0,0.1-0.1,0.2-0.1c0-0.1,0-0.1,0-0.2c0-0.1,0-0.2-0.1-0.3c-0.1,0-0.2-0.1-0.4-0.1
								l-0.5,0l0,0.7l0.5,0C203.4,221.8,203.5,221.8,203.6,221.8z"/>
						</g>
					</g>
				</g>
			</g>
		</g>
		<g class="st18">
			<defs>
				
					<rect id="SVGID_00000173123587611397881550000004741709398430188734_" x="171" y="270.1" class="st18" width="257" height="65.5"/>
			</defs>
			<clipPath id="SVGID_00000044877649425275086480000009694944675131664303_">
				<use xlink:href="#SVGID_00000173123587611397881550000004741709398430188734_"  style="overflow:visible;"/>
			</clipPath>
			<g style="clip-path:url(#SVGID_00000044877649425275086480000009694944675131664303_);">
				<path class="st14" d="M171,278.7c0-4.8,3.9-8.6,8.6-8.6h239.8c4.8,0,8.6,3.9,8.6,8.6V327c0,4.8-3.9,8.6-8.6,8.6H179.6
					c-4.8,0-8.6-3.9-8.6-8.6V278.7z"/>
				<path class="st8" d="M221.8,302.3c0,10.1-8.2,18.3-18.3,18.3s-18.3-8.2-18.3-18.3c0-10.1,8.2-18.3,18.3-18.3
					S221.8,292.2,221.8,302.3z"/>
				<path class="st15" d="M230.1,287.3c0-1.9,1.5-3.4,3.5-3.4h96.6c1.9,0,3.5,1.5,3.5,3.4c0,1.9-1.5,3.4-3.5,3.4h-96.6
					C231.7,290.8,230.1,289.2,230.1,287.3z"/>
				<path class="st15" d="M230.1,301.1c0-1.9,1.5-3.5,3.5-3.5h62.1c1.9,0,3.4,1.5,3.4,3.5s-1.5,3.5-3.4,3.5h-62.1
					C231.7,304.6,230.1,303,230.1,301.1z"/>
				<path class="st16" d="M230.1,318.4c0-1.9,1.5-3.5,3.5-3.5h8.6c1.9,0,3.4,1.5,3.4,3.5s-1.5,3.4-3.4,3.4h-8.6
					C231.7,321.8,230.1,320.3,230.1,318.4z"/>
				<path class="st16" d="M250.8,318.4c0-1.9,1.5-3.5,3.4-3.5h8.6c1.9,0,3.5,1.5,3.5,3.5s-1.5,3.4-3.5,3.4h-8.6
					C252.4,321.8,250.8,320.3,250.8,318.4z"/>
				<path class="st16" d="M271.5,318.4c0-1.9,1.5-3.5,3.4-3.5h8.6c1.9,0,3.5,1.5,3.5,3.5s-1.5,3.4-3.5,3.4H275
					C273.1,321.8,271.5,320.3,271.5,318.4z"/>
				<path class="st17" d="M371.1,302.8c0-1.9,1.5-3.5,3.5-3.5h36.2c1.9,0,3.4,1.5,3.4,3.5s-1.5,3.4-3.4,3.4h-36.2
					C372.6,306.3,371.1,304.7,371.1,302.8z"/>
				<g>
					<g>
						<g>
							<path class="st10" d="M210.6,305.5c-1.7,0-3.6,0.1-5.3,0.3c0.2-0.7,0.4-1.4,0.4-1.4s0.2,0.4,0.8,0.4c0.8,0,1.8-0.8,2.3-2.2
								c0.5-1.5,0.5-3.2-0.5-3.4c-0.8-0.1-1.2,0.6-1.3,0.7c0,0,0.2-0.7-0.3-0.6c-0.5,0.1-0.6,0.3-0.7,0.7c0,0.1-0.5,1.6-0.9,3.3
								c0,0,0,0,0,0c-0.1,0.4-0.3,0.5-0.5,0.5c-0.5,0,0.6-3.3,0.7-3.6c0.1-0.3,0.2-0.6-0.2-0.7c-0.2-0.1-0.6-0.1-0.7,0.2
								c0,0.1-0.1,0.2-0.1,0.2s-0.3-0.4-0.9-0.4c-0.6,0-1.4,0.8-2,2.1c-0.5,1.3-0.8,3.3,0.4,3.5c0.6,0.1,1.2-0.2,1.5-0.8
								c0,0-0.1,0.4,0.4,0.6c0.2,0.1,0.6,0.1,1-0.2c-0.1,0.4-0.2,0.7-0.3,1.1c-2.7,0.3-4.8,0.7-4.8,0.7c0,0,1.6-5,1.9-6.1
								c0.3-0.9-0.2-0.7-0.6-0.6c-0.4,0.1-0.6,0.5-0.8,1.1c-1,2.7-1.7,3.6-2.2,3.4c-0.5-0.2,1.1-3.1,0.7-3.5
								c-0.3-0.3-0.9-0.3-1.1-0.1s0.1,0.4,0,0.7s-0.7,1.8-0.8,2.1c-0.1,0.3-0.6,2.2,0.8,2.2c0.8,0,1.4-0.6,1.4-0.8
								c-0.3,0.7-0.6,1.9-0.6,1.9s-1.7,0.4-3,1.7c-1.1,1.1-1.8,3.4-0.3,3.8c2.4,0.6,3.6-3.1,4.3-4.5c2-0.4,3.5-0.7,4.9-0.9
								c0,0.1,0,0.1,0,0.2c-0.1,0.6-0.1,0.8,0.3,0.8c0.5-0.1,0.6-0.3,0.7-0.9c0,0,0-0.1,0-0.2c1.7-0.2,3.3-0.3,5.5-0.5
								c0.7,0,0.7-0.2,0.8-0.6C211.4,305.5,210.8,305.5,210.6,305.5z M206.5,302.2c0.4-1.1,0.7-1.5,1-1.6c0.7-0.3,0.8,0.6,0.3,1.9
								c-0.6,1.5-1.4,1.5-1.6,1.2C206,303.6,206.1,303.3,206.5,302.2z M203.4,302.8c-0.3,0.7-0.6,1.2-1,1.2c-0.5,0-0.5-0.8-0.1-1.8
								c0.3-0.9,0.9-1.4,1.3-1.4C203.9,300.6,204.3,300.8,203.4,302.8z M196,310.9c-1.3,1.1-1-0.4-0.5-1.1c0.9-1.3,2.1-1.6,2.1-1.6
								C197,309.9,196.3,310.7,196,310.9z"/>
							<path class="st10" d="M212.4,301.3c0.5-0.6,0.7-1.8-0.1-2.2c-1-0.6-2.3,0.2-2.9,2c-0.5,1.6-0.7,3.5,0.9,3.4
								c0.8,0,1.5-0.6,1.7-1c0.1-0.2,0.2-0.5,0.2-0.7c-0.1-0.4-0.3-0.5-0.7,0.1c-0.1,0.1-0.9,0.8-1.3,0.4c-0.3-0.3,0-0.9,0-0.9
								C210.8,302.3,211.7,302.1,212.4,301.3z M211.3,299.9c0.5-0.4,0.9,0.1,0.3,0.8c-0.5,0.7-1.1,0.7-1.1,0.7
								C210.5,301.1,210.8,300.4,211.3,299.9z"/>
						</g>
						<g>
							<path class="st11" d="M203.8,294.9c-0.1-0.1-0.2-0.1-0.4-0.1l-0.6,0l0,0.8l0.6,0c0.4,0,0.6-0.1,0.6-0.4
								C203.9,295.1,203.9,295,203.8,294.9z"/>
							<path class="st11" d="M204.2,291.2c-1.7,0-3.2,1.4-3.3,3.2c-0.1,1.2,0.4,2.2,1.2,2.9c0.1,0.1,0.1,0.2,0.1,0.3l0,0.8
								c0,0.1,0,0.1,0.1,0.1l0,0c0,0,0.1,0,0.2,0l0.7-0.5c0.1-0.1,0.2-0.1,0.3-0.1c0.3,0.1,0.5,0.1,0.8,0.1c1.9,0,3.5-1.5,3.5-3.4
								C207.7,292.8,206.1,291.1,204.2,291.2z M204.4,295.7c-0.1,0.1-0.2,0.2-0.3,0.3c-0.1,0-0.2,0.1-0.3,0.1s-0.2,0-0.4,0l-0.8,0
								c-0.1,0-0.2,0-0.3-0.1c-0.1-0.1-0.1-0.1-0.1-0.3l0-2.1c0-0.1,0-0.2,0.1-0.3c0.1-0.1,0.1-0.1,0.3-0.1l0.9,0c0.1,0,0.2,0,0.3,0
								s0.2,0.1,0.3,0.1c0.1,0,0.1,0.1,0.2,0.1c0,0.1,0.1,0.1,0.1,0.2c0,0.1,0,0.1,0,0.2c0,0.3-0.1,0.5-0.4,0.6
								c0.4,0.1,0.5,0.3,0.5,0.7C204.5,295.4,204.4,295.6,204.4,295.7z M206.3,295.8c-0.1,0.1-0.2,0.2-0.3,0.2
								c-0.1,0-0.3,0.1-0.5,0.1c-0.2,0-0.3,0-0.5-0.1c-0.1-0.1-0.2-0.1-0.3-0.2c-0.1-0.1-0.1-0.2-0.1-0.3c0-0.1,0-0.1,0.1-0.1
								s0.1-0.1,0.2-0.1c0.1,0,0.1,0,0.1,0c0,0,0.1,0.1,0.1,0.1c0.1,0.1,0.1,0.2,0.2,0.2s0.2,0.1,0.3,0.1c0.1,0,0.2,0,0.3-0.1
								c0.1,0,0.1-0.1,0.1-0.2c0-0.1,0-0.2-0.1-0.2c-0.1,0-0.2-0.1-0.3-0.1c-0.2,0-0.3-0.1-0.4-0.1c-0.1,0-0.2-0.1-0.3-0.2
								s-0.1-0.2-0.1-0.3c0-0.1,0-0.2,0.1-0.3c0.1-0.1,0.2-0.2,0.3-0.2c0.1-0.1,0.3-0.1,0.4-0.1c0.1,0,0.3,0,0.4,0
								c0.1,0,0.2,0.1,0.3,0.1c0.1,0,0.1,0.1,0.2,0.2s0.1,0.1,0.1,0.2c0,0.1,0,0.1-0.1,0.1c0,0-0.1,0.1-0.2,0.1c-0.1,0-0.1,0-0.1,0
								s-0.1-0.1-0.1-0.1c0-0.1-0.1-0.1-0.1-0.1c-0.1,0-0.1,0-0.2,0c-0.1,0-0.2,0-0.2,0.1c-0.1,0-0.1,0.1-0.1,0.1
								c0,0.1,0,0.1,0.1,0.1c0,0,0.1,0.1,0.2,0.1c0.1,0,0.2,0.1,0.3,0.1c0.2,0,0.3,0.1,0.4,0.1c0.1,0.1,0.2,0.1,0.2,0.2
								c0.1,0.1,0.1,0.2,0.1,0.3C206.4,295.6,206.4,295.7,206.3,295.8z"/>
							<path class="st11" d="M203.6,294.4c0.1,0,0.1-0.1,0.2-0.1c0-0.1,0-0.1,0-0.2c0-0.1,0-0.2-0.1-0.3c-0.1,0-0.2-0.1-0.4-0.1
								l-0.5,0l0,0.7l0.5,0C203.4,294.4,203.5,294.4,203.6,294.4z"/>
						</g>
					</g>
				</g>
			</g>
		</g>
		<g class="st20">
			<defs>
				
					<rect id="SVGID_00000028312457912046412680000000353176874761205939_" x="171" y="341.7" class="st20" width="257" height="65.5"/>
			</defs>
			<clipPath id="SVGID_00000168819657625168476700000002718371865101372819_">
				<use xlink:href="#SVGID_00000028312457912046412680000000353176874761205939_"  style="overflow:visible;"/>
			</clipPath>
			<g style="clip-path:url(#SVGID_00000168819657625168476700000002718371865101372819_);">
				<path class="st14" d="M171,350.4c0-4.8,3.9-8.6,8.6-8.6h239.8c4.8,0,8.6,3.9,8.6,8.6v48.3c0,4.8-3.9,8.6-8.6,8.6H179.6
					c-4.8,0-8.6-3.9-8.6-8.6V350.4z"/>
				<path class="st8" d="M221.8,374c0,10.1-8.2,18.3-18.3,18.3s-18.3-8.2-18.3-18.3c0-10.1,8.2-18.3,18.3-18.3
					S221.8,363.8,221.8,374z"/>
				<path class="st15" d="M230.1,359c0-1.9,1.5-3.4,3.5-3.4h96.6c1.9,0,3.5,1.5,3.5,3.4c0,1.9-1.5,3.4-3.5,3.4h-96.6
					C231.7,362.4,230.1,360.9,230.1,359z"/>
				<path class="st15" d="M230.1,372.8c0-1.9,1.5-3.5,3.5-3.5h62.1c1.9,0,3.4,1.5,3.4,3.5s-1.5,3.5-3.4,3.5h-62.1
					C231.7,376.2,230.1,374.7,230.1,372.8z"/>
				<path class="st16" d="M230.1,390c0-1.9,1.5-3.5,3.5-3.5h8.6c1.9,0,3.4,1.5,3.4,3.5s-1.5,3.4-3.4,3.4h-8.6
					C231.7,393.5,230.1,391.9,230.1,390z"/>
				<path class="st16" d="M250.8,390c0-1.9,1.5-3.5,3.4-3.5h8.6c1.9,0,3.5,1.5,3.5,3.5s-1.5,3.4-3.5,3.4h-8.6
					C252.4,393.5,250.8,391.9,250.8,390z"/>
				<path class="st16" d="M271.5,390c0-1.9,1.5-3.5,3.4-3.5h8.6c1.9,0,3.5,1.5,3.5,3.5s-1.5,3.4-3.5,3.4H275
					C273.1,393.5,271.5,391.9,271.5,390z"/>
				<path class="st17" d="M371.1,374.5c0-1.9,1.5-3.5,3.5-3.5h36.2c1.9,0,3.4,1.5,3.4,3.5s-1.5,3.4-3.4,3.4h-36.2
					C372.6,378,371.1,376.4,371.1,374.5z"/>
				<g>
					<g>
						<g>
							<path class="st10" d="M210.6,377.1c-1.7,0-3.6,0.1-5.3,0.3c0.2-0.7,0.4-1.4,0.4-1.4s0.2,0.4,0.8,0.4c0.8,0,1.8-0.8,2.3-2.2
								c0.5-1.5,0.5-3.2-0.5-3.4c-0.8-0.1-1.2,0.6-1.3,0.7c0,0,0.2-0.7-0.3-0.6c-0.5,0.1-0.6,0.3-0.7,0.7c0,0.1-0.5,1.6-0.9,3.3
								c0,0,0,0,0,0c-0.1,0.4-0.3,0.5-0.5,0.5c-0.5,0,0.6-3.3,0.7-3.6c0.1-0.3,0.2-0.6-0.2-0.7c-0.2-0.1-0.6-0.1-0.7,0.2
								c0,0.1-0.1,0.2-0.1,0.2s-0.3-0.4-0.9-0.4c-0.6,0-1.4,0.8-2,2.1c-0.5,1.3-0.8,3.3,0.4,3.5c0.6,0.1,1.2-0.2,1.5-0.8
								c0,0-0.1,0.4,0.4,0.6c0.2,0.1,0.6,0.1,1-0.2c-0.1,0.4-0.2,0.7-0.3,1.1c-2.7,0.3-4.8,0.7-4.8,0.7c0,0,1.6-5,1.9-6.1
								c0.3-0.9-0.2-0.7-0.6-0.6c-0.4,0.1-0.6,0.5-0.8,1.1c-1,2.7-1.7,3.6-2.2,3.4c-0.5-0.2,1.1-3.1,0.7-3.5
								c-0.3-0.3-0.9-0.3-1.1-0.1c-0.1,0.2,0.1,0.4,0,0.7s-0.7,1.8-0.8,2.1c-0.1,0.3-0.6,2.2,0.8,2.2c0.8,0,1.4-0.6,1.4-0.8
								c-0.3,0.7-0.6,1.9-0.6,1.9s-1.7,0.4-3,1.7c-1.1,1.1-1.8,3.4-0.3,3.8c2.4,0.6,3.6-3.1,4.3-4.5c2-0.4,3.5-0.7,4.9-0.9
								c0,0.1,0,0.1,0,0.2c-0.1,0.6-0.1,0.8,0.3,0.8c0.5-0.1,0.6-0.3,0.7-0.9c0,0,0-0.1,0-0.2c1.7-0.2,3.3-0.3,5.5-0.5
								c0.7,0,0.7-0.2,0.8-0.6C211.4,377.1,210.8,377.1,210.6,377.1z M206.5,373.8c0.4-1.1,0.7-1.5,1-1.6c0.7-0.3,0.8,0.6,0.3,1.9
								c-0.6,1.5-1.4,1.5-1.6,1.2C206,375.2,206.1,375,206.5,373.8z M203.4,374.5c-0.3,0.7-0.6,1.2-1,1.2c-0.5,0-0.5-0.8-0.1-1.8
								c0.3-0.9,0.9-1.4,1.3-1.4C203.9,372.3,204.3,372.4,203.4,374.5z M196,382.6c-1.3,1.1-1-0.4-0.5-1.1c0.9-1.3,2.1-1.6,2.1-1.6
								C197,381.6,196.3,382.4,196,382.6z"/>
							<path class="st10" d="M212.4,373c0.5-0.6,0.7-1.8-0.1-2.2c-1-0.6-2.3,0.2-2.9,2c-0.5,1.6-0.7,3.5,0.9,3.4
								c0.8,0,1.5-0.6,1.7-1c0.1-0.2,0.2-0.5,0.2-0.7c-0.1-0.4-0.3-0.5-0.7,0.1c-0.1,0.1-0.9,0.8-1.3,0.4c-0.3-0.3,0-0.9,0-0.9
								C210.8,374,211.7,373.8,212.4,373z M211.3,371.6c0.5-0.4,0.9,0.1,0.3,0.8c-0.5,0.7-1.1,0.7-1.1,0.7
								C210.5,372.8,210.8,372,211.3,371.6z"/>
						</g>
						<g>
							<path class="st11" d="M203.8,366.6c-0.1-0.1-0.2-0.1-0.4-0.1l-0.6,0l0,0.8l0.6,0c0.4,0,0.6-0.1,0.6-0.4
								C203.9,366.8,203.9,366.7,203.8,366.6z"/>
							<path class="st11" d="M204.2,362.9c-1.7,0-3.2,1.4-3.3,3.2c-0.1,1.2,0.4,2.2,1.2,2.9c0.1,0.1,0.1,0.2,0.1,0.3l0,0.8
								c0,0.1,0,0.1,0.1,0.1l0,0c0,0,0.1,0,0.2,0l0.7-0.5c0.1-0.1,0.2-0.1,0.3-0.1c0.3,0.1,0.5,0.1,0.8,0.1c1.9,0,3.5-1.5,3.5-3.4
								C207.7,364.4,206.1,362.8,204.2,362.9z M204.4,367.4c-0.1,0.1-0.2,0.2-0.3,0.3c-0.1,0-0.2,0.1-0.3,0.1c-0.1,0-0.2,0-0.4,0
								l-0.8,0c-0.1,0-0.2,0-0.3-0.1c-0.1-0.1-0.1-0.1-0.1-0.3l0-2.1c0-0.1,0-0.2,0.1-0.3s0.1-0.1,0.3-0.1l0.9,0c0.1,0,0.2,0,0.3,0
								c0.1,0,0.2,0.1,0.3,0.1c0.1,0,0.1,0.1,0.2,0.1c0,0.1,0.1,0.1,0.1,0.2c0,0.1,0,0.1,0,0.2c0,0.3-0.1,0.5-0.4,0.6
								c0.4,0.1,0.5,0.3,0.5,0.7C204.5,367.1,204.4,367.2,204.4,367.4z M206.3,367.5c-0.1,0.1-0.2,0.2-0.3,0.2
								c-0.1,0-0.3,0.1-0.5,0.1c-0.2,0-0.3,0-0.5-0.1c-0.1-0.1-0.2-0.1-0.3-0.2c-0.1-0.1-0.1-0.2-0.1-0.3c0-0.1,0-0.1,0.1-0.1
								c0,0,0.1-0.1,0.2-0.1c0.1,0,0.1,0,0.1,0c0,0,0.1,0.1,0.1,0.1c0.1,0.1,0.1,0.2,0.2,0.2s0.2,0.1,0.3,0.1c0.1,0,0.2,0,0.3-0.1
								c0.1,0,0.1-0.1,0.1-0.2c0-0.1,0-0.2-0.1-0.2c-0.1,0-0.2-0.1-0.3-0.1c-0.2,0-0.3-0.1-0.4-0.1c-0.1,0-0.2-0.1-0.3-0.2
								s-0.1-0.2-0.1-0.3c0-0.1,0-0.2,0.1-0.3c0.1-0.1,0.2-0.2,0.3-0.2c0.1-0.1,0.3-0.1,0.4-0.1c0.1,0,0.3,0,0.4,0
								c0.1,0,0.2,0.1,0.3,0.1s0.1,0.1,0.2,0.2s0.1,0.1,0.1,0.2c0,0.1,0,0.1-0.1,0.1c0,0-0.1,0.1-0.2,0.1c-0.1,0-0.1,0-0.1,0
								c0,0-0.1-0.1-0.1-0.1c0-0.1-0.1-0.1-0.1-0.1c-0.1,0-0.1,0-0.2,0c-0.1,0-0.2,0-0.2,0.1s-0.1,0.1-0.1,0.1c0,0.1,0,0.1,0.1,0.1
								c0,0,0.1,0.1,0.2,0.1c0.1,0,0.2,0.1,0.3,0.1c0.2,0,0.3,0.1,0.4,0.1c0.1,0.1,0.2,0.1,0.2,0.2c0.1,0.1,0.1,0.2,0.1,0.3
								C206.4,367.3,206.4,367.4,206.3,367.5z"/>
							<path class="st11" d="M203.6,366.1c0.1,0,0.1-0.1,0.2-0.1c0-0.1,0-0.1,0-0.2c0-0.1,0-0.2-0.1-0.3c-0.1,0-0.2-0.1-0.4-0.1
								l-0.5,0l0,0.7l0.5,0C203.4,366.1,203.5,366.1,203.6,366.1z"/>
						</g>
					</g>
				</g>
			</g>
		</g>
		<g>
			<defs>
				<rect id="SVGID_00000057149092638637329250000002436602443599409310_" x="440.9" y="328.1" width="21.5" height="21.5"/>
			</defs>
			<clipPath id="SVGID_00000008848256955160560600000012912396649465166994_">
				<use xlink:href="#SVGID_00000057149092638637329250000002436602443599409310_"  style="overflow:visible;"/>
			</clipPath>
			<g style="clip-path:url(#SVGID_00000008848256955160560600000012912396649465166994_);">
				<g>
					<path class="st23" d="M454.8,333.5c0.4,1,1.3,1.9,2.3,2.3c1.3,0.6,3.2,1.4,4.7,2c0.9,0.4,0.9,1.7,0,2.1l-4.7,2
						c-1,0.4-1.9,1.3-2.3,2.3c-0.6,1.3-1.4,3.2-2,4.7c-0.4,0.9-1.7,0.9-2.1,0c-0.6-1.5-1.4-3.4-2-4.7c-0.4-1-1.3-1.9-2.3-2.3
						c-1.3-0.6-3.2-1.4-4.7-2c-0.9-0.4-0.9-1.7,0-2.1c1.5-0.6,3.4-1.4,4.7-2c1-0.4,1.9-1.3,2.3-2.3c0.6-1.3,1.4-3.2,2-4.7
						c0.4-0.9,1.7-0.9,2.1,0C453.4,330.3,454.2,332.2,454.8,333.5z"/>
				</g>
			</g>
		</g>
		<g>
			<defs>
				<rect id="SVGID_00000132068622990468185550000016869766801632292791_" x="381" y="430.1" width="25" height="25"/>
			</defs>
			<clipPath id="SVGID_00000122681437617987516810000013131568269539999903_">
				<use xlink:href="#SVGID_00000132068622990468185550000016869766801632292791_"  style="overflow:visible;"/>
			</clipPath>
			<g style="clip-path:url(#SVGID_00000122681437617987516810000013131568269539999903_);">
				<g>
					<path class="st23" d="M397.1,436.4c0.5,1.2,1.5,2.2,2.7,2.7c1.5,0.7,3.7,1.6,5.5,2.3c1.1,0.5,1.1,2,0,2.4l-5.5,2.3
						c-1.2,0.5-2.2,1.5-2.7,2.7c-0.7,1.5-1.6,3.7-2.3,5.5c-0.5,1.1-2,1.1-2.4,0c-0.7-1.7-1.7-3.9-2.3-5.5c-0.5-1.2-1.5-2.2-2.7-2.7
						c-1.5-0.7-3.7-1.6-5.5-2.3c-1.1-0.5-1.1-2,0-2.4c1.7-0.7,3.9-1.7,5.5-2.3c1.2-0.5,2.2-1.5,2.7-2.7c0.7-1.5,1.6-3.7,2.3-5.5
						c0.5-1.1,2-1.1,2.4,0C395.5,432.7,396.4,434.9,397.1,436.4z"/>
				</g>
			</g>
		</g>
		<g>
			<defs>
				<rect id="SVGID_00000013192481348412664040000005922889798414236586_" x="111.6" y="148" width="51" height="59.5"/>
			</defs>
			<clipPath id="SVGID_00000055708835511156420070000002743484418204881796_">
				<use xlink:href="#SVGID_00000013192481348412664040000005922889798414236586_"  style="overflow:visible;"/>
			</clipPath>
			<g style="clip-path:url(#SVGID_00000055708835511156420070000002743484418204881796_);">
				<g>
					<path class="st23" d="M120.1,160.1c1.6-0.7,2.9-2,3.6-3.6c0.9-2.1,2.2-5,3.2-7.4c0.6-1.4,2.7-1.4,3.3,0l3.2,7.4
						c0.7,1.6,2,2.9,3.6,3.6c2.1,0.9,5,2.2,7.4,3.2c1.4,0.6,1.4,2.7,0,3.3c-2.4,1-5.3,2.3-7.4,3.2c-1.6,0.7-2.9,2-3.6,3.6
						c-0.9,2.1-2.2,5-3.2,7.4c-0.6,1.4-2.7,1.4-3.3,0c-1-2.4-2.3-5.3-3.2-7.4c-0.7-1.6-2-2.9-3.6-3.6c-2.1-0.9-5-2.2-7.4-3.2
						c-1.4-0.6-1.4-2.7,0-3.3C115,162.2,118,161,120.1,160.1z"/>
					<path class="st23" d="M153,199.3c0.6-0.3,1.1-0.7,1.4-1.4c0.3-0.8,0.8-1.9,1.2-2.8c0.2-0.5,1-0.5,1.2,0l1.2,2.8
						c0.3,0.6,0.7,1.1,1.4,1.4c0.8,0.3,1.9,0.8,2.8,1.2c0.5,0.2,0.5,1,0,1.2c-0.9,0.4-2,0.9-2.8,1.2c-0.6,0.3-1.1,0.7-1.4,1.4
						c-0.3,0.8-0.8,1.9-1.2,2.8c-0.2,0.5-1,0.5-1.2,0c-0.4-0.9-0.9-2-1.2-2.8c-0.3-0.6-0.7-1.1-1.4-1.4c-0.8-0.3-1.9-0.8-2.8-1.2
						c-0.5-0.2-0.5-1,0-1.2C151.1,200.1,152.3,199.7,153,199.3z"/>
				</g>
			</g>
		</g>
		<g>
			<defs>
				<rect id="SVGID_00000153698698772286703930000009923917305335733914_" x="402.8" y="396.3" width="42.7" height="33.9"/>
			</defs>
			<clipPath id="SVGID_00000106137138271245138510000009653976303153355182_">
				<use xlink:href="#SVGID_00000153698698772286703930000009923917305335733914_"  style="overflow:visible;"/>
			</clipPath>
			<g style="clip-path:url(#SVGID_00000106137138271245138510000009653976303153355182_);">
				<path class="st27" d="M438,408.1c4.2,5.8,1.8,11.9-5.4,13.6c-7.2,1.7-16.5-1.7-20.8-7.5s-1.8-11.9,5.4-13.6
					C424.4,399,433.7,402.3,438,408.1L438,408.1z"/>
				<path class="st28" d="M410.4,404.2c0.9-2.6,3.4-4.7,7.3-5.6c0.1,0,0.2-0.1,0.3-0.1c0,0,0.1,0,0.1,0c0.1,0,0.2,0,0.2,0
					c0,0,0.1,0,0.1,0c0.1,0,0.1,0,0.2,0c0,0,0.1,0,0.2,0c0.1,0,0.1,0,0.2,0c0,0,0,0,0,0c0.1,0,0.1,0,0.2,0c0.1,0,0.1,0,0.2,0
					c0.1,0,0.1,0,0.2,0c0,0,0.1,0,0.1,0c0.1,0,0.2,0,0.2,0c0,0,0.1,0,0.1,0c0.1,0,0.2,0,0.4,0c0.1,0,0.2,0,0.3,0c0,0,0.1,0,0.1,0
					c0.1,0,0.2,0,0.2,0c0,0,0.1,0,0.1,0c0.1,0,0.1,0,0.2,0c0,0,0.1,0,0.1,0c0,0,0,0,0.1,0c0.1,0,0.1,0,0.2,0c0,0,0,0,0,0
					c0.1,0,0.2,0,0.3,0c0,0,0.1,0,0.1,0c0.1,0,0.2,0,0.3,0c0,0,0.1,0,0.1,0c0,0,0,0,0.1,0c0,0,0.1,0,0.1,0c0.1,0,0.2,0,0.3,0
					c0,0,0.1,0,0.1,0c0.1,0,0.3,0,0.4,0c0,0,0,0,0,0h0c0.1,0,0.3,0,0.4,0.1c0,0,0.1,0,0.1,0c0.1,0,0.2,0,0.3,0c0,0,0,0,0.1,0
					c0,0,0,0,0.1,0c0.1,0,0.2,0,0.3,0c0,0,0.1,0,0.1,0c0.1,0,0.3,0,0.4,0.1c0,0,0,0,0,0c0.1,0,0.3,0.1,0.4,0.1c0,0,0.1,0,0.1,0
					c0.1,0,0.2,0,0.3,0.1c0,0,0,0,0.1,0c0,0,0.1,0,0.1,0c0.1,0,0.2,0,0.3,0.1c0.1,0,0.1,0,0.2,0c0.1,0,0.2,0.1,0.3,0.1
					c0,0,0.1,0,0.1,0c0,0,0,0,0,0c0.1,0,0.3,0.1,0.4,0.1c0,0,0,0,0.1,0c0.1,0,0.2,0.1,0.4,0.1c0,0,0,0,0,0c0,0,0.1,0,0.1,0
					c0.1,0,0.2,0.1,0.3,0.1c0,0,0.1,0,0.1,0c0.1,0,0.2,0.1,0.3,0.1c0,0,0.1,0,0.1,0c0,0,0,0,0,0c0.1,0.1,0.3,0.1,0.4,0.2
					c0,0,0,0,0,0c0.1,0.1,0.3,0.1,0.4,0.2c0,0,0,0,0,0c0,0,0.1,0,0.1,0c0.1,0,0.2,0.1,0.3,0.1c0,0,0.1,0,0.1,0.1
					c0.1,0.1,0.3,0.1,0.4,0.2c0,0,0,0,0,0c0.1,0.1,0.3,0.1,0.4,0.2c0,0,0.1,0,0.1,0.1c0.1,0.1,0.3,0.1,0.4,0.2c0,0,0,0,0.1,0
					c0,0,0,0,0,0c0,0,0.1,0,0.1,0c0.1,0,0.2,0.1,0.2,0.1c0,0,0.1,0,0.1,0.1c0.1,0,0.1,0.1,0.2,0.1c0,0,0.1,0,0.1,0.1
					c0.1,0,0.1,0.1,0.2,0.1c0,0,0.1,0,0.1,0c0,0,0,0,0,0c0.1,0,0.1,0.1,0.2,0.1c0,0,0.1,0.1,0.1,0.1c0.1,0,0.1,0.1,0.2,0.1
					c0,0,0.1,0.1,0.1,0.1c0.1,0,0.1,0.1,0.2,0.1c0,0,0.1,0,0.1,0.1c0.1,0.1,0.2,0.1,0.2,0.2c0,0,0,0,0.1,0c0.1,0.1,0.2,0.1,0.3,0.2
					c0,0,0.1,0,0.1,0.1c0.1,0,0.1,0.1,0.2,0.1c0,0,0,0,0.1,0.1c0.1,0.1,0.2,0.1,0.3,0.2c0,0,0,0,0,0c0.1,0.1,0.2,0.1,0.2,0.2
					c0,0,0.1,0,0.1,0.1c0.1,0.1,0.1,0.1,0.2,0.2c0,0,0,0,0.1,0.1c0.1,0.1,0.2,0.1,0.2,0.2c0,0,0,0,0,0c0,0,0,0,0,0
					c0.1,0.1,0.1,0.1,0.2,0.2c0,0,0,0,0.1,0.1c0.1,0.1,0.2,0.1,0.2,0.2c0,0,0,0,0,0c0.1,0.1,0.1,0.1,0.2,0.2c0,0,0,0,0.1,0.1
					c0.1,0.1,0.2,0.1,0.2,0.2c0,0,0,0,0,0c0.1,0.1,0.1,0.1,0.2,0.2c0,0,0,0,0.1,0.1c0.1,0.1,0.1,0.1,0.2,0.2c0,0,0,0,0,0
					c0.1,0.1,0.1,0.2,0.2,0.2c0,0,0,0,0.1,0.1c0.1,0.1,0.1,0.1,0.2,0.2c0,0,0,0,0,0c0.1,0.1,0.1,0.2,0.2,0.2c0,0,0,0,0,0.1
					c0.1,0.1,0.1,0.1,0.2,0.2c0,0,0,0,0,0.1c0.1,0.1,0.1,0.1,0.2,0.2c0,0,0,0,0,0.1c0.1,0.1,0.1,0.2,0.2,0.2c0,0,0,0,0,0.1
					c0,0.1,0.1,0.1,0.1,0.2c0,0,0,0,0,0c0.1,0.1,0.1,0.2,0.2,0.2c0,0,0,0,0,0.1c0,0.1,0.1,0.1,0.1,0.2c0,0,0,0,0,0.1
					c0,0.1,0.1,0.2,0.1,0.2c0,0,0,0,0,0.1c0,0,0,0.1,0.1,0.1c0,0,0,0,0,0.1c0,0,0,0.1,0.1,0.1c0,0,0,0.1,0.1,0.1c0,0,0,0.1,0.1,0.1
					c0,0,0,0.1,0.1,0.1c0,0,0,0.1,0.1,0.1c0,0,0,0.1,0.1,0.1c0,0,0,0.1,0.1,0.1c0,0,0,0,0,0.1c0,0,0,0.1,0,0.1c0,0,0,0.1,0,0.1
					c0,0.1,0,0.1,0.1,0.2c0,0,0,0,0,0.1c0,0.1,0.1,0.2,0.1,0.2c0,0,0,0,0,0c0,0.1,0,0.1,0.1,0.2c0,0,0,0,0,0c0,0,0,0,0,0.1
					c0,0.1,0,0.1,0.1,0.2c0,0,0,0,0,0.1c0,0.1,0,0.2,0.1,0.2c0,0,0,0,0,0c0,0.1,0,0.1,0,0.1c0,0,0,0,0,0.1c0,0,0,0,0,0.1
					c0,0.1,0,0.1,0,0.2c0,0,0,0,0,0c0,0.1,0,0.2,0,0.2c0,0,0,0,0,0.1c0,0,0,0,0,0.1c0,0,0,0,0,0.1c0,0.1,0,0.1,0,0.2
					c0,0,0,0.1,0,0.1c0,0.1,0,0.2,0,0.3c0,0,0,0,0,0c0,0.1,0,0.2,0,0.3c0,0,0,0.1,0,0.1c0,0.1,0,0.1,0,0.2c0,0,0,0,0,0.1
					c0,0,0,0,0,0c0,0.1,0,0.1,0,0.2c0,0,0,0.1,0,0.1c0,0.1,0,0.2,0,0.3c0,0,0,0,0,0c0,0.1,0,0.2,0,0.3c0,0,0,0.1,0,0.1
					c0,0.1,0,0.1,0,0.2c0,0,0,0,0,0c0,0,0,0,0,0c0,0.1,0,0.1,0,0.2c0,0,0,0.1,0,0.1c0,0.1-0.1,0.2-0.1,0.3c0,0,0,0,0,0
					c0,0.1,0,0.2-0.1,0.2l-1.5,4.2c0-0.1,0.1-0.2,0.1-0.2c0-0.1,0.1-0.2,0.1-0.3c0,0,0-0.1,0-0.1c0-0.1,0-0.1,0-0.2c0,0,0-0.1,0-0.1
					c0-0.1,0-0.1,0-0.2c0,0,0-0.1,0-0.1c0-0.1,0-0.2,0-0.3c0,0,0,0,0,0c0-0.1,0-0.2,0-0.3c0,0,0-0.1,0-0.1c0-0.1,0-0.1,0-0.2
					c0,0,0-0.1,0-0.1c0-0.1,0-0.1,0-0.2c0,0,0-0.1,0-0.1c0-0.1,0-0.2,0-0.3c0,0,0,0,0,0c0-0.1,0-0.2,0-0.3c0,0,0-0.1,0-0.1
					c0-0.1,0-0.1,0-0.2c0,0,0-0.1,0-0.1c0,0,0,0,0-0.1c0-0.1,0-0.2,0-0.2c0,0,0,0,0,0c0-0.1,0-0.1,0-0.2c0,0,0,0,0-0.1
					c0-0.1,0-0.1,0-0.2c0,0,0,0,0,0c0-0.1,0-0.2-0.1-0.2c0,0,0,0,0-0.1c0-0.1,0-0.1-0.1-0.2c0,0,0,0,0-0.1c0-0.1,0-0.1-0.1-0.2
					c0,0,0,0,0,0c0-0.1-0.1-0.2-0.1-0.2c0,0,0,0,0-0.1c0-0.1,0-0.1-0.1-0.2c0,0,0-0.1,0-0.1c0-0.1,0-0.1-0.1-0.2c0,0,0-0.1-0.1-0.1
					c0,0,0-0.1-0.1-0.1c0,0,0-0.1-0.1-0.1c0,0,0-0.1-0.1-0.1c0,0,0-0.1-0.1-0.1c0,0,0-0.1-0.1-0.1c0,0,0-0.1-0.1-0.1
					c0-0.1-0.1-0.1-0.1-0.2c0,0,0,0,0-0.1c0-0.1-0.1-0.2-0.1-0.2c0,0,0,0,0-0.1c0-0.1-0.1-0.1-0.1-0.2c0,0,0,0,0-0.1
					c0-0.1-0.1-0.2-0.2-0.2c0,0,0,0,0,0c0-0.1-0.1-0.1-0.1-0.2c0,0,0,0,0-0.1c-0.1-0.1-0.1-0.2-0.2-0.2c-0.1-0.1-0.1-0.2-0.2-0.3
					c0,0,0,0,0,0c-0.1-0.1-0.1-0.1-0.2-0.2c0,0,0,0,0-0.1c-0.1-0.1-0.1-0.2-0.2-0.2c0,0,0,0,0,0c-0.1-0.1-0.1-0.1-0.2-0.2
					c0,0,0,0-0.1-0.1c-0.1-0.1-0.1-0.2-0.2-0.2c0,0,0,0,0,0c-0.1-0.1-0.1-0.1-0.2-0.2c0,0,0,0-0.1-0.1c-0.1-0.1-0.1-0.1-0.2-0.2
					c0,0,0,0,0,0c-0.1-0.1-0.2-0.1-0.2-0.2c0,0,0,0-0.1-0.1c-0.1-0.1-0.1-0.1-0.2-0.2c0,0,0,0,0,0c-0.1-0.1-0.2-0.1-0.2-0.2
					c0,0,0,0-0.1-0.1c-0.1-0.1-0.1-0.1-0.2-0.2c0,0,0,0,0,0c-0.1-0.1-0.2-0.1-0.3-0.2c0,0,0,0-0.1-0.1c-0.1-0.1-0.1-0.1-0.2-0.2
					c0,0-0.1,0-0.1-0.1c-0.1-0.1-0.2-0.1-0.2-0.2c0,0,0,0,0,0c-0.1-0.1-0.2-0.1-0.3-0.2c0,0,0,0-0.1-0.1c-0.1,0-0.1-0.1-0.2-0.1
					c0,0-0.1,0-0.1-0.1c-0.1-0.1-0.2-0.1-0.3-0.2c0,0,0,0-0.1,0c-0.1-0.1-0.2-0.1-0.2-0.2c0,0-0.1,0-0.1-0.1c-0.1,0-0.1-0.1-0.2-0.1
					c0,0-0.1-0.1-0.1-0.1c-0.1,0-0.1-0.1-0.2-0.1c0,0-0.1-0.1-0.1-0.1c-0.1,0-0.1-0.1-0.2-0.1c0,0-0.1,0-0.1,0
					c-0.1,0-0.1-0.1-0.2-0.1c0,0-0.1,0-0.1-0.1c-0.1,0-0.1-0.1-0.2-0.1c0,0-0.1,0-0.1-0.1c-0.1,0-0.2-0.1-0.2-0.1c0,0-0.1,0-0.1,0
					c0,0,0,0-0.1,0c-0.1-0.1-0.3-0.1-0.4-0.2c0,0-0.1,0-0.1-0.1c-0.1-0.1-0.3-0.1-0.4-0.2c0,0,0,0,0,0c-0.1-0.1-0.3-0.1-0.4-0.2
					c0,0-0.1,0-0.1-0.1c-0.1,0-0.2-0.1-0.3-0.1c0,0-0.1,0-0.1,0c-0.1-0.1-0.3-0.1-0.4-0.2c-0.1-0.1-0.3-0.1-0.4-0.2c0,0-0.1,0-0.1,0
					c-0.1,0-0.2-0.1-0.3-0.1c0,0-0.1,0-0.1,0c-0.1,0-0.2-0.1-0.3-0.1c0,0-0.1,0-0.1,0c-0.1,0-0.2-0.1-0.4-0.1c0,0,0,0-0.1,0
					c-0.1,0-0.3-0.1-0.4-0.1c0,0-0.1,0-0.1,0c-0.1,0-0.2-0.1-0.3-0.1c-0.1,0-0.1,0-0.2,0c-0.1,0-0.2,0-0.3-0.1c-0.1,0-0.1,0-0.2,0
					c-0.1,0-0.2,0-0.3-0.1c0,0-0.1,0-0.1,0c-0.1,0-0.3-0.1-0.4-0.1c0,0,0,0,0,0c-0.1,0-0.3,0-0.4-0.1c0,0-0.1,0-0.1,0
					c-0.1,0-0.2,0-0.3,0c0,0-0.1,0-0.2,0c-0.1,0-0.2,0-0.3,0c0,0-0.1,0-0.1,0c-0.1,0-0.3,0-0.4-0.1c0,0,0,0,0,0c-0.1,0-0.3,0-0.4,0
					c0,0-0.1,0-0.1,0c-0.1,0-0.2,0-0.3,0c0,0-0.1,0-0.1,0c0,0-0.1,0-0.1,0c-0.1,0-0.2,0-0.3,0c0,0-0.1,0-0.1,0c-0.1,0-0.2,0-0.3,0
					c0,0,0,0,0,0c-0.1,0-0.2,0-0.3,0c0,0-0.1,0-0.1,0c-0.1,0-0.1,0-0.2,0c0,0-0.1,0-0.1,0c-0.1,0-0.2,0-0.2,0c0,0-0.1,0-0.1,0
					c-0.1,0-0.2,0-0.3,0c-0.1,0-0.2,0-0.4,0c0,0-0.1,0-0.1,0c-0.1,0-0.2,0-0.3,0c0,0-0.1,0-0.1,0c-0.1,0-0.2,0-0.2,0
					c-0.1,0-0.1,0-0.2,0c-0.1,0-0.1,0-0.2,0c-0.1,0-0.1,0-0.2,0c0,0-0.1,0-0.2,0c-0.1,0-0.1,0-0.2,0c0,0-0.1,0-0.1,0
					c-0.1,0-0.2,0-0.2,0c0,0-0.1,0-0.1,0c-0.1,0-0.2,0-0.3,0.1c-3.8,0.9-6.3,3-7.3,5.6L410.4,404.2L410.4,404.2z"/>
				<path class="st29" d="M407.1,415.3c5.8,7.9,18.4,12.4,28.2,10.2c9.8-2.3,13.1-10.5,7.3-18.4c-5.8-7.9-18.4-12.4-28.2-10.2
					C404.6,399.2,401.4,407.4,407.1,415.3z M417.2,400.7c7.2-1.7,16.5,1.7,20.8,7.5c4.2,5.8,1.8,11.9-5.4,13.6
					c-7.2,1.7-16.5-1.7-20.7-7.5C407.6,408.4,410,402.3,417.2,400.7L417.2,400.7z"/>
				<path class="st28" d="M405.2,418.7C405.2,418.7,405.2,418.7,405.2,418.7c-0.1-0.2-0.2-0.3-0.2-0.4c0,0,0-0.1,0-0.1
					c-0.1-0.1-0.1-0.2-0.2-0.3c0,0,0,0,0-0.1c-0.1-0.1-0.1-0.2-0.2-0.3c0,0,0,0,0-0.1c0-0.1-0.1-0.1-0.1-0.2c0,0,0-0.1,0-0.1
					c0-0.1-0.1-0.1-0.1-0.2c0-0.1-0.1-0.1-0.1-0.2c0-0.1-0.1-0.1-0.1-0.2c0-0.1-0.1-0.1-0.1-0.2c0-0.1-0.1-0.1-0.1-0.2
					c0-0.1-0.1-0.1-0.1-0.2c0-0.1,0-0.1-0.1-0.2c0,0,0-0.1,0-0.1c0,0,0-0.1,0-0.1c0,0,0-0.1,0-0.1c0-0.1-0.1-0.2-0.1-0.2
					c0,0,0-0.1,0-0.1c0-0.1-0.1-0.2-0.1-0.3c0,0,0,0,0-0.1c0-0.1,0-0.1-0.1-0.2c0,0,0,0,0-0.1c0,0,0-0.1,0-0.1c0-0.1,0-0.2-0.1-0.2
					c0,0,0-0.1,0-0.1c0-0.1-0.1-0.2-0.1-0.3c0,0,0,0,0,0c0-0.1,0-0.1,0-0.2c0,0,0-0.1,0-0.1c0,0,0-0.1,0-0.1c0-0.1,0-0.2-0.1-0.3
					c0,0,0,0,0,0c0-0.1,0-0.2,0-0.3c0,0,0-0.1,0-0.1c0,0,0-0.1,0-0.1c0-0.1,0-0.1,0-0.2c0,0,0,0,0,0c0-0.1,0-0.2,0-0.3
					c0,0,0,0,0-0.1c0-0.1,0-0.2,0-0.3c0,0,0,0,0,0c0-0.1,0-0.2,0-0.3c0,0,0,0,0-0.1c0-0.1,0-0.2,0-0.3c0,0,0,0,0,0c0,0,0-0.1,0-0.1
					c0,0,0-0.1,0-0.1c0,0,0,0,0-0.1c0-0.1,0-0.2,0-0.3c0,0,0,0,0-0.1c0-0.1,0-0.2,0-0.3v0c0-0.1,0-0.2,0-0.3c0,0,0,0,0-0.1
					c0-0.1,0-0.2,0.1-0.3c0,0,0,0,0,0c0,0,0-0.1,0-0.1c0,0,0-0.1,0-0.1c0,0,0,0,0,0c0-0.1,0-0.2,0.1-0.3c0,0,0,0,0-0.1
					c0-0.1,0.1-0.2,0.1-0.3c0,0,0,0,0,0c0,0,0,0,0,0c0-0.1,0.1-0.2,0.1-0.3l1.5-4.1c0,0.1-0.1,0.2-0.1,0.3c0,0,0,0,0,0
					c0,0.1-0.1,0.2-0.1,0.3c0,0,0,0,0,0.1c0,0.1,0,0.2-0.1,0.3c0,0,0,0,0,0c0,0.1,0,0.2-0.1,0.3c0,0,0,0,0,0c0,0.1,0,0.2-0.1,0.3
					c0,0,0,0,0,0.1c0,0.1,0,0.2,0,0.3c0,0,0,0,0,0c0,0.1,0,0.2,0,0.3c0,0,0,0,0,0.1c0,0.1,0,0.2,0,0.3c0,0,0,0,0,0.1
					c0,0.1,0,0.2,0,0.3c0,0,0,0,0,0c0,0.1,0,0.2,0,0.3c0,0,0,0,0,0.1c0,0.1,0,0.2,0,0.3c0,0,0,0,0,0c0,0.1,0,0.2,0,0.3
					c0,0,0,0,0,0.1c0,0.1,0,0.2,0,0.3c0,0,0,0,0,0c0,0.1,0,0.2,0,0.3c0,0,0,0.1,0,0.1c0,0.1,0,0.2,0,0.3c0,0,0,0,0,0
					c0,0.1,0,0.2,0.1,0.3c0,0,0,0.1,0,0.1c0,0.1,0,0.2,0.1,0.3c0,0,0,0,0,0c0,0.1,0,0.2,0.1,0.3c0,0,0,0.1,0,0.1
					c0,0.1,0,0.2,0.1,0.2c0,0,0,0.1,0,0.1c0,0.1,0.1,0.2,0.1,0.3c0,0,0,0,0,0.1c0,0.1,0.1,0.2,0.1,0.3c0,0,0,0.1,0,0.1
					c0,0.1,0.1,0.2,0.1,0.2c0,0,0,0.1,0,0.1c0,0.1,0.1,0.1,0.1,0.2c0,0.1,0,0.1,0.1,0.2c0,0.1,0.1,0.1,0.1,0.2
					c0,0.1,0.1,0.1,0.1,0.2s0.1,0.1,0.1,0.2c0,0.1,0.1,0.1,0.1,0.2c0,0.1,0.1,0.1,0.1,0.2c0,0.1,0.1,0.1,0.1,0.2
					c0,0.1,0.1,0.2,0.1,0.2c0,0,0,0,0,0.1c0.1,0.1,0.1,0.2,0.2,0.3c0,0,0,0,0,0.1c0.1,0.1,0.1,0.2,0.2,0.3c0,0,0,0.1,0,0.1
					c0.1,0.1,0.1,0.2,0.2,0.3c0,0,0,0,0,0.1c0.1,0.1,0.1,0.2,0.2,0.3c0,0,0,0.1,0.1,0.1c0.1,0.1,0.1,0.2,0.2,0.3
					c0.1,0.1,0.2,0.2,0.3,0.3c0,0,0,0,0,0.1c0.1,0.1,0.1,0.2,0.2,0.3c0,0,0,0.1,0.1,0.1c0.1,0.1,0.2,0.2,0.3,0.3c0,0,0,0,0,0
					c0.1,0.1,0.2,0.2,0.2,0.3c0,0,0,0.1,0.1,0.1c0.1,0.1,0.2,0.2,0.3,0.3c0,0,0,0,0,0c0.1,0.1,0.2,0.2,0.3,0.3c0,0,0.1,0.1,0.1,0.1
					c0.1,0.1,0.2,0.2,0.3,0.3c0,0,0,0,0,0c0.1,0.1,0.2,0.2,0.3,0.3c0,0,0.1,0.1,0.1,0.1c0.1,0.1,0.2,0.2,0.3,0.3c0,0,0,0,0,0
					c0.1,0.1,0.2,0.2,0.3,0.3c0,0,0.1,0,0.1,0.1c0.1,0.1,0.2,0.2,0.3,0.2c0,0,0,0,0.1,0.1c0.1,0.1,0.2,0.2,0.3,0.3
					c0,0,0.1,0,0.1,0.1c0.1,0.1,0.2,0.1,0.3,0.2c0,0,0.1,0.1,0.1,0.1c0.1,0.1,0.2,0.2,0.3,0.2c0,0,0,0,0,0c0.1,0.1,0.2,0.2,0.4,0.3
					c0,0,0.1,0,0.1,0.1c0.1,0.1,0.2,0.1,0.3,0.2c0,0,0.1,0,0.1,0.1c0.1,0.1,0.2,0.2,0.4,0.2c0,0,0.1,0,0.1,0.1
					c0.1,0.1,0.2,0.1,0.3,0.2c0.1,0,0.1,0.1,0.2,0.1c0.1,0.1,0.2,0.1,0.3,0.2c0.1,0,0.1,0.1,0.2,0.1c0.1,0.1,0.2,0.1,0.2,0.2
					c0.1,0,0.1,0.1,0.2,0.1c0.1,0,0.2,0.1,0.2,0.1c0,0,0.1,0,0.1,0.1c0.1,0.1,0.2,0.1,0.3,0.2c0,0,0.1,0.1,0.1,0.1
					c0.1,0.1,0.2,0.1,0.3,0.1c0,0,0.1,0.1,0.1,0.1c0.1,0.1,0.2,0.1,0.3,0.2c0,0,0.1,0,0.1,0.1c0.1,0.1,0.3,0.1,0.4,0.2
					c0,0,0.1,0,0.1,0c0.1,0.1,0.2,0.1,0.3,0.2c0,0,0.1,0,0.1,0.1c0.1,0.1,0.3,0.1,0.4,0.2c0,0,0,0,0,0c0,0,0,0,0,0
					c0.2,0.1,0.4,0.2,0.5,0.2c0.1,0,0.1,0,0.2,0.1c0.1,0.1,0.3,0.1,0.4,0.2c0.1,0,0.1,0,0.2,0.1c0.2,0.1,0.4,0.1,0.5,0.2
					c0,0,0,0,0,0c0.2,0.1,0.4,0.1,0.6,0.2c0.1,0,0.1,0,0.2,0.1c0.1,0,0.2,0.1,0.4,0.1c0.1,0,0.1,0,0.2,0.1c0.1,0,0.3,0.1,0.4,0.1
					c0.1,0,0.1,0,0.2,0.1c0.2,0,0.3,0.1,0.5,0.1c0,0,0,0,0.1,0c0.2,0.1,0.4,0.1,0.5,0.2c0.1,0,0.1,0,0.2,0c0.1,0,0.3,0.1,0.4,0.1
					c0.1,0,0.1,0,0.2,0.1c0.1,0,0.2,0.1,0.4,0.1c0.1,0,0.1,0,0.2,0c0.1,0,0.3,0.1,0.4,0.1c0.1,0,0.1,0,0.2,0c0.2,0,0.4,0.1,0.6,0.1
					c0,0,0,0,0,0c0.2,0,0.4,0.1,0.5,0.1c0.1,0,0.1,0,0.2,0c0.1,0,0.3,0,0.4,0.1c0.1,0,0.1,0,0.2,0c0.1,0,0.3,0,0.4,0.1
					c0.1,0,0.1,0,0.2,0c0.2,0,0.4,0,0.6,0.1c0.1,0,0.3,0,0.4,0c0,0,0.1,0,0.1,0c0.1,0,0.3,0,0.4,0c0,0,0,0,0.1,0c0.1,0,0.3,0,0.4,0
					c0,0,0.1,0,0.1,0c0.1,0,0.2,0,0.3,0c0,0,0.1,0,0.1,0c0.1,0,0.3,0,0.4,0c0,0,0,0,0.1,0c0.1,0,0.2,0,0.4,0c0.1,0,0.1,0,0.2,0
					c0.1,0,0.2,0,0.3,0c0.1,0,0.1,0,0.2,0c0.1,0,0.2,0,0.3,0c0,0,0.1,0,0.1,0c0.2,0,0.3,0,0.5,0c0.2,0,0.3,0,0.5,0
					c0.1,0,0.1,0,0.2,0c0.1,0,0.2,0,0.3,0c0.1,0,0.1,0,0.2,0c0.1,0,0.2,0,0.3,0c0.1,0,0.1,0,0.2,0c0.1,0,0.2,0,0.3,0
					c0.1,0,0.2,0,0.3,0c0.1,0,0.1,0,0.2,0c0.1,0,0.2,0,0.3,0c0.1,0,0.1,0,0.2,0c0.1,0,0.2,0,0.3-0.1c0.1,0,0.1,0,0.2,0
					c0.2,0,0.3-0.1,0.5-0.1c5-1.2,8.4-3.9,9.6-7.4l-1.5,4.1c-1.2,3.5-4.6,6.2-9.6,7.4c-0.2,0-0.3,0.1-0.5,0.1c0,0-0.1,0-0.2,0
					c-0.1,0-0.2,0-0.3,0.1c-0.1,0-0.1,0-0.2,0c-0.1,0-0.2,0-0.3,0c-0.1,0-0.1,0-0.2,0c-0.1,0-0.2,0-0.2,0c0,0,0,0,0,0
					c-0.1,0-0.2,0-0.3,0c-0.1,0-0.1,0-0.2,0c-0.1,0-0.2,0-0.3,0c-0.1,0-0.1,0-0.2,0c-0.1,0-0.2,0-0.3,0c-0.1,0-0.1,0-0.2,0
					c-0.2,0-0.3,0-0.5,0c-0.1,0-0.3,0-0.5,0c0,0-0.1,0-0.1,0c-0.1,0-0.2,0-0.3,0c-0.1,0-0.1,0-0.2,0c-0.1,0-0.2,0-0.3,0
					c-0.1,0-0.1,0-0.2,0c0,0-0.1,0-0.1,0c-0.1,0-0.2,0-0.3,0c0,0,0,0-0.1,0c-0.1,0-0.3,0-0.4,0c0,0-0.1,0-0.1,0c-0.1,0-0.2,0-0.3,0
					c0,0-0.1,0-0.1,0c0,0-0.1,0-0.1,0c-0.1,0-0.2,0-0.4,0c0,0,0,0-0.1,0c-0.1,0-0.3,0-0.4,0c0,0-0.1,0-0.1,0c-0.1,0-0.3,0-0.4,0
					c0,0,0,0,0,0c-0.2,0-0.4,0-0.6-0.1c-0.1,0-0.1,0-0.2,0c-0.1,0-0.3,0-0.4-0.1c0,0-0.1,0-0.1,0c0,0-0.1,0-0.1,0
					c-0.1,0-0.3,0-0.4-0.1c-0.1,0-0.1,0-0.2,0c-0.2,0-0.4-0.1-0.5-0.1c0,0,0,0,0,0c0,0,0,0,0,0c-0.2,0-0.4-0.1-0.6-0.1
					c-0.1,0-0.1,0-0.2,0c-0.1,0-0.3-0.1-0.4-0.1c0,0-0.1,0-0.1,0c0,0-0.1,0-0.1,0c-0.1,0-0.2-0.1-0.4-0.1c-0.1,0-0.1,0-0.2-0.1
					c-0.1,0-0.3-0.1-0.4-0.1c0,0-0.1,0-0.1,0c0,0,0,0,0,0c-0.2-0.1-0.4-0.1-0.5-0.2c0,0,0,0-0.1,0c-0.2,0-0.3-0.1-0.5-0.1
					c0,0,0,0-0.1,0c0,0-0.1,0-0.1,0c-0.1,0-0.3-0.1-0.4-0.1c-0.1,0-0.1,0-0.2-0.1c-0.1,0-0.2-0.1-0.4-0.1c0,0-0.1,0-0.1,0
					c0,0,0,0-0.1,0c-0.2-0.1-0.4-0.1-0.6-0.2c0,0,0,0,0,0c-0.2-0.1-0.4-0.1-0.5-0.2c0,0,0,0-0.1,0c0,0-0.1,0-0.1,0
					c-0.1-0.1-0.3-0.1-0.4-0.2c-0.1,0-0.1,0-0.2-0.1c-0.2-0.1-0.4-0.2-0.5-0.2c0,0,0,0,0,0c0,0,0,0,0,0c0,0,0,0,0,0
					c-0.1-0.1-0.3-0.1-0.4-0.2c0,0-0.1,0-0.1-0.1c-0.1-0.1-0.2-0.1-0.3-0.2c0,0-0.1,0-0.1,0c-0.1-0.1-0.2-0.1-0.4-0.2c0,0,0,0,0,0
					c0,0-0.1,0-0.1-0.1c-0.1-0.1-0.2-0.1-0.3-0.2c0,0-0.1-0.1-0.1-0.1c-0.1,0-0.2-0.1-0.3-0.1c0,0-0.1-0.1-0.1-0.1
					c-0.1-0.1-0.2-0.1-0.3-0.2c0,0-0.1,0-0.1-0.1c0,0,0,0,0,0c-0.1,0-0.1-0.1-0.2-0.1c-0.1,0-0.1-0.1-0.2-0.1
					c-0.1,0-0.2-0.1-0.2-0.2c-0.1,0-0.1-0.1-0.2-0.1c-0.1-0.1-0.2-0.1-0.3-0.2c-0.1,0-0.1-0.1-0.2-0.1c-0.1-0.1-0.2-0.1-0.3-0.2
					c0,0-0.1,0-0.1-0.1c-0.1-0.1-0.2-0.2-0.4-0.2c0,0-0.1,0-0.1-0.1c-0.1-0.1-0.2-0.1-0.3-0.2c0,0-0.1,0-0.1-0.1
					c-0.1-0.1-0.2-0.2-0.4-0.3c0,0,0,0,0,0c-0.1-0.1-0.2-0.2-0.3-0.2c0,0-0.1-0.1-0.1-0.1c-0.1-0.1-0.2-0.1-0.3-0.2
					c0,0-0.1,0-0.1-0.1c-0.1-0.1-0.2-0.2-0.3-0.3c0,0,0,0,0,0c0,0,0,0-0.1-0.1c-0.1-0.1-0.2-0.2-0.3-0.2c0,0-0.1,0-0.1-0.1
					c-0.1-0.1-0.2-0.2-0.3-0.3c0,0,0,0,0,0c-0.1-0.1-0.2-0.2-0.3-0.3c0,0-0.1-0.1-0.1-0.1c-0.1-0.1-0.2-0.2-0.3-0.3c0,0,0,0,0,0
					c-0.1-0.1-0.2-0.2-0.3-0.3c0,0-0.1-0.1-0.1-0.1c-0.1-0.1-0.2-0.2-0.3-0.3c0,0,0,0,0,0c-0.1-0.1-0.2-0.2-0.3-0.3
					c0,0,0-0.1-0.1-0.1c-0.1-0.1-0.2-0.2-0.2-0.3c0,0,0,0,0-0.1c-0.1-0.1-0.2-0.2-0.3-0.3c0,0,0-0.1-0.1-0.1
					c-0.1-0.1-0.1-0.2-0.2-0.3c0,0,0,0-0.1-0.1c-0.1-0.1-0.1-0.2-0.2-0.3c0,0,0,0,0-0.1c-0.1-0.1-0.2-0.2-0.2-0.3c0,0,0-0.1-0.1-0.1
					C405.3,418.9,405.3,418.8,405.2,418.7L405.2,418.7z"/>
			</g>
		</g>
		<g>
			<defs>
				<rect id="SVGID_00000080195734181721021340000009846907118350928261_" x="118.8" y="303" width="65.7" height="52.8"/>
			</defs>
			<clipPath id="SVGID_00000103949411596632730790000017060251602003827125_">
				<use xlink:href="#SVGID_00000080195734181721021340000009846907118350928261_"  style="overflow:visible;"/>
			</clipPath>
			<g style="clip-path:url(#SVGID_00000103949411596632730790000017060251602003827125_);">
				<path class="st27" d="M129.9,322.1c6.1-9.6,20.1-14.8,31.2-11.7c11.1,3.1,15.1,13.3,8.9,22.9c-6.1,9.6-20.1,14.8-31.2,11.7
					C127.8,341.9,123.8,331.6,129.9,322.1L129.9,322.1z"/>
				<path class="st28" d="M128.5,340.2l3.6,3.6c-4.9-4.9-5.7-12.4-1.1-19.5c6.5-10.1,21.2-15.6,32.9-12.3c3.4,1,6.2,2.6,8.3,4.6
					l-3.6-3.6c-2.1-2.1-4.9-3.7-8.3-4.6c-11.7-3.3-26.4,2.3-32.9,12.3C122.8,327.8,123.5,335.3,128.5,340.2z"/>
				<path class="st28" d="M128.5,340.2l3.6,3.6c-4.9-4.9-5.7-12.4-1.1-19.5c6.5-10.1,21.2-15.6,32.9-12.3c3.4,1,6.2,2.6,8.3,4.6
					l-3.6-3.6c-2.1-2.1-4.9-3.7-8.3-4.6c-11.7-3.3-26.4,2.3-32.9,12.3C122.8,327.8,123.5,335.3,128.5,340.2z"/>
				<path class="st28" d="M124.2,345.2l3.4,3.4c2.7,2.7,6.3,4.7,10.7,6c15,4.2,34-2.9,42.3-15.9c5.9-9.2,4.9-18.8-1.4-25.1l-3.4-3.4
					c6.4,6.4,7.3,16,1.4,25.1c-8.3,13-27.3,20.1-42.3,15.9C130.4,349.9,126.8,347.8,124.2,345.2z"/>
				<path class="st28" d="M124.2,345.2l3.4,3.4c2.7,2.7,6.3,4.7,10.7,6c15,4.2,34-2.9,42.3-15.9c5.9-9.2,4.9-18.8-1.4-25.1l-3.4-3.4
					c6.4,6.4,7.3,16,1.4,25.1c-8.3,13-27.3,20.1-42.3,15.9C130.4,349.9,126.8,347.8,124.2,345.2z"/>
				<path class="st29" d="M177.2,335.3c-8.3,13-27.3,20.1-42.3,15.9c-15-4.2-20.5-18.1-12.1-31.1c8.3-13,27.3-20.1,42.3-15.9
					C180.1,308.4,185.5,322.3,177.2,335.3z M138.9,345c11.1,3.1,25-2.1,31.2-11.7c6.1-9.6,2.1-19.8-8.9-22.9
					c-11.1-3.1-25,2.1-31.2,11.7C123.8,331.6,127.8,341.9,138.9,345"/>
			</g>
		</g>
		<g>
			<defs>
				<rect id="SVGID_00000048475305573669515660000011424830003051184047_" x="386.2" y="177.7" width="33.2" height="26.4"/>
			</defs>
			<clipPath id="SVGID_00000108285323404740063030000011904074382148997043_">
				<use xlink:href="#SVGID_00000048475305573669515660000011424830003051184047_"  style="overflow:visible;"/>
			</clipPath>
			<g style="clip-path:url(#SVGID_00000108285323404740063030000011904074382148997043_);">
				<path class="st27" d="M408.5,180.9c5.6-0.3,7.3,3.4,3.8,8.2c-3.4,4.8-10.7,9-16.3,9.3c-5.6,0.3-7.3-3.4-3.8-8.2
					C395.7,185.4,403,181.2,408.5,180.9L408.5,180.9z"/>
				<path class="st28" d="M413.8,181.9c-0.7-1.6-2.6-2.5-5.5-2.4c-0.1,0-0.2,0-0.3,0c0,0-0.1,0-0.1,0c-0.1,0-0.1,0-0.2,0
					c0,0-0.1,0-0.1,0c-0.1,0-0.1,0-0.2,0c0,0-0.1,0-0.1,0c0,0-0.1,0-0.1,0c0,0,0,0,0,0c-0.1,0-0.1,0-0.2,0c0,0-0.1,0-0.1,0
					c-0.1,0-0.1,0-0.2,0c0,0-0.1,0-0.1,0c-0.1,0-0.1,0-0.2,0c0,0-0.1,0-0.1,0c-0.1,0-0.2,0-0.3,0.1c-0.1,0-0.2,0-0.3,0.1
					c0,0-0.1,0-0.1,0c-0.1,0-0.1,0-0.2,0c0,0-0.1,0-0.1,0c-0.1,0-0.1,0-0.2,0c0,0-0.1,0-0.1,0c0,0,0,0-0.1,0c-0.1,0-0.1,0-0.2,0
					c0,0,0,0,0,0c-0.1,0-0.2,0-0.3,0.1c0,0,0,0-0.1,0c-0.1,0-0.1,0-0.2,0.1c0,0-0.1,0-0.1,0c0,0,0,0,0,0c0,0,0,0-0.1,0
					c-0.1,0-0.2,0.1-0.3,0.1c0,0-0.1,0-0.1,0c-0.1,0-0.2,0.1-0.3,0.1c0,0,0,0,0,0c0,0,0,0,0,0c-0.1,0-0.2,0.1-0.3,0.1
					c0,0-0.1,0-0.1,0c-0.1,0-0.2,0.1-0.2,0.1c0,0,0,0-0.1,0c0,0,0,0-0.1,0c-0.1,0-0.2,0.1-0.2,0.1c0,0-0.1,0-0.1,0
					c-0.1,0-0.2,0.1-0.3,0.1c0,0,0,0,0,0c-0.1,0-0.2,0.1-0.3,0.1c0,0-0.1,0-0.1,0c-0.1,0-0.2,0.1-0.2,0.1c0,0,0,0-0.1,0
					c0,0,0,0-0.1,0c-0.1,0-0.1,0.1-0.2,0.1c0,0-0.1,0-0.1,0.1c-0.1,0-0.2,0.1-0.2,0.1c0,0-0.1,0-0.1,0c0,0,0,0,0,0
					c-0.1,0.1-0.2,0.1-0.3,0.2c0,0,0,0,0,0c-0.1,0-0.2,0.1-0.3,0.1c0,0,0,0,0,0c0,0,0,0-0.1,0c-0.1,0-0.2,0.1-0.2,0.1
					c0,0-0.1,0-0.1,0.1c-0.1,0-0.1,0.1-0.2,0.1c0,0,0,0-0.1,0c0,0,0,0,0,0c-0.1,0.1-0.2,0.1-0.3,0.2c0,0,0,0,0,0
					c-0.1,0.1-0.2,0.1-0.3,0.2c0,0,0,0,0,0c0,0,0,0-0.1,0c-0.1,0.1-0.2,0.1-0.3,0.2c0,0-0.1,0-0.1,0.1c-0.1,0.1-0.2,0.1-0.3,0.2
					c0,0,0,0,0,0c-0.1,0.1-0.2,0.2-0.4,0.2c0,0-0.1,0-0.1,0.1c-0.1,0.1-0.2,0.1-0.3,0.2c0,0,0,0,0,0c0,0,0,0,0,0c0,0,0,0-0.1,0
					c-0.1,0-0.1,0.1-0.2,0.1c0,0-0.1,0-0.1,0.1c-0.1,0-0.1,0.1-0.2,0.1c0,0-0.1,0-0.1,0.1c-0.1,0-0.1,0.1-0.2,0.1c0,0,0,0-0.1,0.1
					c0,0,0,0,0,0c0,0-0.1,0.1-0.1,0.1c0,0-0.1,0.1-0.1,0.1c-0.1,0-0.1,0.1-0.1,0.1c0,0-0.1,0.1-0.1,0.1c-0.1,0-0.1,0.1-0.2,0.1
					c0,0-0.1,0.1-0.1,0.1c-0.1,0.1-0.1,0.1-0.2,0.2c0,0,0,0-0.1,0c-0.1,0.1-0.1,0.1-0.2,0.2c0,0,0,0-0.1,0.1c-0.1,0-0.1,0.1-0.2,0.1
					c0,0,0,0-0.1,0.1c-0.1,0.1-0.1,0.1-0.2,0.2c0,0,0,0,0,0c-0.1,0.1-0.1,0.1-0.2,0.2c0,0,0,0-0.1,0.1c-0.1,0.1-0.1,0.1-0.2,0.1
					c0,0,0,0-0.1,0c-0.1,0.1-0.1,0.1-0.2,0.2c0,0,0,0,0,0c0,0,0,0,0,0c-0.1,0.1-0.1,0.1-0.2,0.2c0,0,0,0,0,0.1
					c-0.1,0.1-0.1,0.1-0.2,0.2c0,0,0,0,0,0c-0.1,0.1-0.1,0.1-0.2,0.2c0,0,0,0,0,0.1c-0.1,0.1-0.1,0.1-0.2,0.2c0,0,0,0,0,0
					c-0.1,0.1-0.1,0.1-0.2,0.2c0,0,0,0,0,0.1c-0.1,0.1-0.1,0.1-0.2,0.2c0,0,0,0,0,0c-0.1,0.1-0.1,0.1-0.2,0.2c0,0,0,0,0,0.1
					c0,0.1-0.1,0.1-0.1,0.2c0,0,0,0,0,0c-0.1,0.1-0.1,0.1-0.2,0.2c0,0,0,0,0,0.1c0,0.1-0.1,0.1-0.1,0.2c0,0,0,0,0,0
					c0,0.1-0.1,0.1-0.1,0.2c0,0,0,0,0,0c0,0.1-0.1,0.1-0.1,0.2c0,0,0,0,0,0.1c0,0.1-0.1,0.1-0.1,0.2c0,0,0,0,0,0
					c0,0.1-0.1,0.1-0.1,0.2c0,0,0,0,0,0.1c0,0.1-0.1,0.1-0.1,0.2c0,0,0,0,0,0c0,0.1-0.1,0.1-0.1,0.2c0,0,0,0,0,0c0,0,0,0.1-0.1,0.1
					c0,0,0,0,0,0c0,0,0,0.1-0.1,0.1c0,0,0,0.1-0.1,0.1c0,0,0,0.1-0.1,0.1c0,0,0,0.1-0.1,0.1c0,0,0,0.1-0.1,0.1c0,0,0,0.1-0.1,0.1
					c0,0,0,0.1,0,0.1c0,0,0,0,0,0.1c0,0,0,0,0,0.1c0,0,0,0,0,0.1c0,0,0,0.1-0.1,0.1c0,0,0,0,0,0.1c0,0.1,0,0.1-0.1,0.2c0,0,0,0,0,0
					c0,0,0,0.1,0,0.1c0,0,0,0,0,0c0,0,0,0,0,0.1c0,0,0,0.1,0,0.1c0,0,0,0,0,0c0,0.1,0,0.1-0.1,0.2c0,0,0,0,0,0c0,0,0,0.1,0,0.1
					c0,0,0,0,0,0c0,0,0,0,0,0c0,0.1,0,0.1,0,0.2v0c0,0.1,0,0.1,0,0.2c0,0,0,0,0,0c0,0,0,0,0,0c0,0,0,0,0,0c0,0.1,0,0.1,0,0.2
					c0,0,0,0,0,0.1c0,0.1,0,0.1,0,0.2c0,0,0,0,0,0c0,0.1,0,0.1,0,0.2c0,0,0,0,0,0.1c0,0,0,0.1,0,0.1c0,0,0,0,0,0c0,0,0,0,0,0
					c0,0,0,0.1,0,0.1c0,0,0,0,0,0.1c0,0.1,0,0.1,0,0.2c0,0,0,0,0,0c0,0.1,0,0.1,0,0.2c0,0,0,0,0,0.1c0,0,0,0.1,0,0.1c0,0,0,0,0,0
					c0,0,0,0,0,0c0,0,0,0.1,0,0.1c0,0,0,0,0,0.1c0,0.1,0,0.1,0.1,0.2c0,0,0,0.1,0.1,0.1l1.1,2.6c0,0,0-0.1-0.1-0.1
					c0-0.1,0-0.1-0.1-0.2c0,0,0,0,0-0.1c0,0,0-0.1,0-0.1c0,0,0,0,0-0.1c0,0,0-0.1,0-0.1c0,0,0,0,0-0.1c0-0.1,0-0.1,0-0.2
					c0,0,0,0,0,0c0-0.1,0-0.1,0-0.2c0,0,0,0,0-0.1c0,0,0-0.1,0-0.1c0,0,0,0,0-0.1c0,0,0-0.1,0-0.1c0,0,0,0,0-0.1c0-0.1,0-0.1,0-0.2
					c0,0,0,0,0,0c0-0.1,0-0.1,0-0.2c0,0,0,0,0-0.1c0-0.1,0-0.1,0-0.2c0,0,0-0.1,0-0.1c0,0,0,0,0,0c0-0.1,0-0.1,0-0.2c0,0,0,0,0,0
					c0-0.1,0-0.1,0-0.2c0,0,0,0,0,0c0-0.1,0-0.1,0-0.2c0,0,0,0,0,0c0-0.1,0-0.1,0.1-0.2c0,0,0,0,0,0c0,0,0-0.1,0-0.1c0,0,0,0,0-0.1
					c0-0.1,0-0.1,0.1-0.2c0,0,0,0,0,0c0-0.1,0-0.1,0.1-0.2c0,0,0,0,0-0.1c0,0,0-0.1,0.1-0.1c0,0,0,0,0-0.1c0,0,0-0.1,0.1-0.1
					c0,0,0-0.1,0-0.1c0,0,0-0.1,0.1-0.1c0,0,0-0.1,0.1-0.1c0,0,0-0.1,0.1-0.1c0,0,0-0.1,0.1-0.1c0,0,0-0.1,0.1-0.1
					c0,0,0-0.1,0.1-0.1c0,0,0.1-0.1,0.1-0.1c0,0,0,0,0,0c0-0.1,0.1-0.1,0.1-0.2c0,0,0,0,0,0c0-0.1,0.1-0.1,0.1-0.2c0,0,0,0,0-0.1
					c0-0.1,0.1-0.1,0.1-0.2c0,0,0,0,0,0c0-0.1,0.1-0.1,0.1-0.2c0,0,0,0,0-0.1c0-0.1,0.1-0.1,0.1-0.2c0.1-0.1,0.1-0.1,0.2-0.2
					c0,0,0,0,0,0c0-0.1,0.1-0.1,0.1-0.2c0,0,0,0,0-0.1c0.1-0.1,0.1-0.1,0.2-0.2c0,0,0,0,0,0c0-0.1,0.1-0.1,0.1-0.2c0,0,0,0,0-0.1
					c0.1-0.1,0.1-0.1,0.2-0.2c0,0,0,0,0,0c0.1-0.1,0.1-0.1,0.2-0.2c0,0,0,0,0-0.1c0.1-0.1,0.1-0.1,0.2-0.2c0,0,0,0,0,0
					c0.1-0.1,0.1-0.1,0.2-0.2c0,0,0,0,0-0.1c0.1-0.1,0.1-0.1,0.2-0.2c0,0,0,0,0,0c0.1-0.1,0.1-0.1,0.2-0.2c0,0,0,0,0-0.1
					c0.1-0.1,0.1-0.1,0.2-0.2c0,0,0,0,0,0c0.1-0.1,0.1-0.1,0.2-0.2c0,0,0,0,0,0c0.1-0.1,0.1-0.1,0.2-0.1c0,0,0,0,0.1-0.1
					c0.1-0.1,0.1-0.1,0.2-0.2c0,0,0,0,0,0c0.1-0.1,0.1-0.1,0.2-0.2c0,0,0,0,0.1-0.1c0.1,0,0.1-0.1,0.2-0.1c0,0,0,0,0.1-0.1
					c0.1-0.1,0.1-0.1,0.2-0.2c0,0,0,0,0.1,0c0.1-0.1,0.1-0.1,0.2-0.2c0,0,0.1-0.1,0.1-0.1c0.1,0,0.1-0.1,0.2-0.1
					c0,0,0.1-0.1,0.1-0.1c0,0,0.1-0.1,0.1-0.1c0,0,0.1-0.1,0.1-0.1c0,0,0.1-0.1,0.1-0.1c0,0,0,0,0.1-0.1c0.1,0,0.1-0.1,0.2-0.1
					c0,0,0.1,0,0.1-0.1c0.1,0,0.1-0.1,0.2-0.1c0,0,0.1,0,0.1-0.1c0.1,0,0.1-0.1,0.2-0.1c0,0,0,0,0.1,0c0,0,0,0,0.1,0
					c0.1-0.1,0.2-0.1,0.3-0.2c0,0,0.1,0,0.1-0.1c0.1-0.1,0.2-0.2,0.4-0.2c0,0,0,0,0,0c0.1-0.1,0.2-0.1,0.3-0.2c0,0,0.1,0,0.1-0.1
					c0.1-0.1,0.2-0.1,0.3-0.2c0,0,0.1,0,0.1-0.1c0.1-0.1,0.2-0.1,0.3-0.2c0.1-0.1,0.2-0.1,0.3-0.2c0,0,0.1,0,0.1-0.1
					c0.1,0,0.1-0.1,0.2-0.1c0,0,0.1,0,0.1-0.1c0.1,0,0.1-0.1,0.2-0.1c0,0,0.1,0,0.1-0.1c0.1-0.1,0.2-0.1,0.3-0.1c0,0,0,0,0,0
					c0.1-0.1,0.2-0.1,0.3-0.2c0,0,0.1,0,0.1,0c0.1,0,0.2-0.1,0.2-0.1c0,0,0.1,0,0.1-0.1c0.1,0,0.1-0.1,0.2-0.1c0,0,0.1,0,0.1-0.1
					c0.1,0,0.2-0.1,0.2-0.1c0,0,0.1,0,0.1,0c0.1,0,0.2-0.1,0.3-0.1c0,0,0,0,0,0c0.1,0,0.2-0.1,0.3-0.1c0,0,0.1,0,0.1,0
					c0.1,0,0.2-0.1,0.2-0.1c0,0,0.1,0,0.1,0c0.1,0,0.2-0.1,0.2-0.1c0,0,0.1,0,0.1,0c0.1,0,0.2-0.1,0.3-0.1c0,0,0,0,0,0
					c0.1,0,0.2-0.1,0.3-0.1c0,0,0.1,0,0.1,0c0.1,0,0.2-0.1,0.3-0.1c0,0,0.1,0,0.1,0c0,0,0.1,0,0.1,0c0.1,0,0.1,0,0.2-0.1
					c0,0,0,0,0.1,0c0.1,0,0.2-0.1,0.3-0.1c0,0,0,0,0,0c0.1,0,0.1,0,0.2-0.1c0,0,0.1,0,0.1,0c0.1,0,0.1,0,0.2,0c0,0,0.1,0,0.1,0
					c0.1,0,0.1,0,0.2,0c0,0,0.1,0,0.1,0c0.1,0,0.2,0,0.3-0.1c0.1,0,0.2,0,0.3-0.1c0,0,0.1,0,0.1,0c0.1,0,0.1,0,0.2,0
					c0,0,0.1,0,0.1,0c0.1,0,0.1,0,0.2,0c0,0,0.1,0,0.1,0c0.1,0,0.1,0,0.2,0c0.1,0,0.1,0,0.2,0c0,0,0.1,0,0.1,0c0.1,0,0.1,0,0.2,0
					c0,0,0.1,0,0.1,0c0.1,0,0.1,0,0.2,0c0,0,0.1,0,0.1,0c0.1,0,0.2,0,0.3,0c2.9-0.2,4.8,0.8,5.5,2.4L413.8,181.9L413.8,181.9z"/>
				<path class="st29" d="M410.8,177.7c-7.5,0.4-17.5,6.1-22.1,12.7c-4.7,6.6-2.3,11.6,5.2,11.2c7.5-0.4,17.5-6.1,22.1-12.7
					C420.7,182.3,418.3,177.3,410.8,177.7z M412.4,189.1c-3.4,4.8-10.7,9-16.3,9.3c-5.6,0.3-7.3-3.4-3.8-8.2
					c3.4-4.8,10.7-9,16.3-9.3C414.1,180.6,415.8,184.2,412.4,189.1L412.4,189.1z"/>
				<path class="st28" d="M417.4,190.8C417.4,190.8,417.4,190.8,417.4,190.8c0.1-0.1,0.1-0.2,0.2-0.3c0,0,0,0,0-0.1
					c0-0.1,0.1-0.1,0.1-0.2c0,0,0,0,0-0.1c0.1-0.1,0.1-0.2,0.1-0.3c0,0,0,0,0-0.1c0,0,0-0.1,0.1-0.1c0,0,0,0,0-0.1
					c0,0,0.1-0.1,0.1-0.1c0,0,0.1-0.1,0.1-0.1c0,0,0-0.1,0.1-0.1c0,0,0-0.1,0.1-0.1c0,0,0-0.1,0.1-0.1c0,0,0-0.1,0.1-0.1
					c0,0,0-0.1,0.1-0.1c0,0,0,0,0-0.1c0,0,0-0.1,0-0.1c0,0,0-0.1,0-0.1c0-0.1,0.1-0.1,0.1-0.2c0,0,0,0,0-0.1c0-0.1,0.1-0.2,0.1-0.2
					c0,0,0,0,0,0c0-0.1,0-0.1,0.1-0.2c0,0,0,0,0,0c0,0,0,0,0-0.1c0-0.1,0-0.1,0.1-0.2c0,0,0,0,0-0.1c0-0.1,0-0.2,0.1-0.2
					c0,0,0,0,0,0c0,0,0-0.1,0-0.1c0,0,0,0,0-0.1c0,0,0,0,0-0.1c0-0.1,0-0.1,0-0.2c0,0,0,0,0,0c0-0.1,0-0.1,0-0.2c0,0,0,0,0-0.1
					c0,0,0,0,0-0.1c0,0,0-0.1,0-0.1c0,0,0,0,0,0c0-0.1,0-0.1,0-0.2c0,0,0,0,0-0.1c0-0.1,0-0.1,0-0.2c0,0,0,0,0,0c0-0.1,0-0.1,0-0.2
					c0,0,0,0,0,0c0-0.1,0-0.1,0-0.2c0,0,0,0,0,0c0,0,0-0.1,0-0.1c0,0,0-0.1,0-0.1c0,0,0,0,0,0c0-0.1,0-0.1,0-0.2c0,0,0,0,0,0
					c0-0.1,0-0.1,0-0.2c0,0,0,0,0,0c0-0.1,0-0.1,0-0.2c0,0,0,0,0,0c0-0.1,0-0.1,0-0.2c0,0,0,0,0,0c0,0,0-0.1,0-0.1c0,0,0-0.1,0-0.1
					c0,0,0,0,0,0c0-0.1,0-0.1,0-0.2c0,0,0,0,0,0c0-0.1,0-0.1-0.1-0.2c0,0,0,0,0,0c0-0.1,0-0.1-0.1-0.2l-1-2.5c0,0.1,0.1,0.1,0.1,0.2
					c0,0,0,0,0,0c0,0.1,0,0.1,0.1,0.2c0,0,0,0,0,0c0,0.1,0,0.1,0,0.2c0,0,0,0,0,0c0,0.1,0,0.1,0,0.2c0,0,0,0,0,0c0,0.1,0,0.1,0,0.2
					c0,0,0,0,0,0c0,0.1,0,0.1,0,0.2c0,0,0,0,0,0c0,0.1,0,0.1,0,0.2c0,0,0,0,0,0c0,0.1,0,0.1,0,0.2c0,0,0,0,0,0c0,0.1,0,0.1,0,0.2
					c0,0,0,0,0,0c0,0.1,0,0.1,0,0.2c0,0,0,0,0,0c0,0.1,0,0.1,0,0.2c0,0,0,0,0,0c0,0.1,0,0.1,0,0.2c0,0,0,0,0,0.1c0,0.1,0,0.1,0,0.2
					c0,0,0,0,0,0c0,0.1,0,0.1,0,0.2c0,0,0,0,0,0.1c0,0.1,0,0.1,0,0.2c0,0,0,0,0,0c0,0.1,0,0.1,0,0.2c0,0,0,0,0,0.1
					c0,0.1,0,0.1-0.1,0.2c0,0,0,0,0,0c0,0.1,0,0.2-0.1,0.2c0,0,0,0,0,0.1c0,0.1,0,0.1-0.1,0.2c0,0,0,0,0,0.1c0,0.1,0,0.1-0.1,0.2
					c0,0,0,0,0,0c0,0.1-0.1,0.2-0.1,0.2c0,0,0,0,0,0.1c0,0.1-0.1,0.1-0.1,0.2c0,0,0,0.1,0,0.1c0,0.1,0,0.1-0.1,0.2
					c0,0,0,0.1-0.1,0.1c0,0,0,0.1-0.1,0.1c0,0,0,0.1-0.1,0.1c0,0,0,0.1-0.1,0.1c0,0,0,0.1-0.1,0.1c0,0-0.1,0.1-0.1,0.1
					c0,0-0.1,0.1-0.1,0.1c0,0.1-0.1,0.1-0.1,0.2c0,0,0,0,0,0.1c0,0.1-0.1,0.2-0.1,0.3c0,0,0,0,0,0.1c0,0.1-0.1,0.1-0.1,0.2
					c0,0,0,0,0,0.1c-0.1,0.1-0.1,0.2-0.2,0.3c0,0,0,0,0,0c-0.1,0.1-0.1,0.1-0.2,0.2c0,0,0,0,0,0.1c-0.1,0.1-0.1,0.2-0.2,0.3
					c-0.1,0.1-0.1,0.2-0.2,0.3c0,0,0,0,0,0.1c-0.1,0.1-0.1,0.2-0.2,0.2c0,0,0,0-0.1,0.1c-0.1,0.1-0.1,0.2-0.2,0.3c0,0,0,0,0,0
					c-0.1,0.1-0.1,0.2-0.2,0.2c0,0,0,0-0.1,0.1c-0.1,0.1-0.1,0.2-0.2,0.3c0,0,0,0,0,0c-0.1,0.1-0.1,0.2-0.2,0.2c0,0,0,0-0.1,0.1
					c-0.1,0.1-0.2,0.2-0.2,0.3c0,0,0,0,0,0c-0.1,0.1-0.2,0.2-0.2,0.3c0,0,0,0-0.1,0.1c-0.1,0.1-0.1,0.2-0.2,0.2c0,0,0,0,0,0
					c-0.1,0.1-0.2,0.2-0.3,0.3c0,0,0,0-0.1,0.1c-0.1,0.1-0.1,0.1-0.2,0.2c0,0,0,0,0,0c-0.1,0.1-0.2,0.2-0.3,0.3c0,0,0,0-0.1,0.1
					c-0.1,0.1-0.1,0.1-0.2,0.2c0,0-0.1,0.1-0.1,0.1c-0.1,0.1-0.2,0.1-0.2,0.2c0,0,0,0,0,0c-0.1,0.1-0.2,0.2-0.3,0.3
					c0,0-0.1,0-0.1,0.1c-0.1,0.1-0.1,0.1-0.2,0.2c0,0-0.1,0-0.1,0.1c-0.1,0.1-0.2,0.2-0.3,0.2c0,0,0,0-0.1,0.1
					c-0.1,0.1-0.2,0.1-0.2,0.2c0,0-0.1,0.1-0.1,0.1c-0.1,0.1-0.1,0.1-0.2,0.2c0,0-0.1,0.1-0.1,0.1c-0.1,0.1-0.1,0.1-0.2,0.2
					c0,0-0.1,0.1-0.1,0.1c-0.1,0-0.1,0.1-0.2,0.1c0,0-0.1,0-0.1,0.1c-0.1,0.1-0.2,0.1-0.2,0.2c0,0-0.1,0.1-0.1,0.1
					c-0.1,0.1-0.1,0.1-0.2,0.2c0,0-0.1,0.1-0.1,0.1c-0.1,0.1-0.2,0.1-0.2,0.2c0,0-0.1,0-0.1,0.1c-0.1,0.1-0.2,0.1-0.3,0.2
					c0,0-0.1,0-0.1,0.1c-0.1,0.1-0.2,0.1-0.3,0.2c0,0-0.1,0-0.1,0.1c-0.1,0.1-0.2,0.1-0.3,0.2c0,0,0,0,0,0c0,0,0,0,0,0
					c-0.1,0.1-0.3,0.2-0.4,0.3c0,0-0.1,0.1-0.1,0.1c-0.1,0.1-0.2,0.1-0.3,0.2c0,0-0.1,0.1-0.1,0.1c-0.1,0.1-0.3,0.2-0.4,0.3
					c0,0,0,0,0,0c-0.1,0.1-0.3,0.2-0.4,0.3c0,0-0.1,0.1-0.1,0.1c-0.1,0.1-0.2,0.1-0.3,0.2c-0.1,0-0.1,0.1-0.2,0.1
					c-0.1,0.1-0.2,0.1-0.3,0.2c0,0-0.1,0.1-0.1,0.1c-0.1,0.1-0.2,0.1-0.4,0.2c0,0,0,0-0.1,0c-0.1,0.1-0.3,0.1-0.4,0.2
					c0,0-0.1,0-0.1,0.1c-0.1,0.1-0.2,0.1-0.3,0.1c-0.1,0-0.1,0.1-0.2,0.1c-0.1,0-0.2,0.1-0.3,0.1c-0.1,0-0.1,0-0.2,0.1
					c-0.1,0-0.2,0.1-0.3,0.1c0,0-0.1,0-0.1,0.1c-0.1,0.1-0.3,0.1-0.4,0.2c0,0,0,0,0,0c-0.1,0.1-0.3,0.1-0.4,0.2c0,0-0.1,0-0.1,0.1
					c-0.1,0-0.2,0.1-0.3,0.1c-0.1,0-0.1,0-0.2,0.1c-0.1,0-0.2,0.1-0.3,0.1c0,0-0.1,0-0.1,0.1c-0.2,0.1-0.3,0.1-0.4,0.2
					c-0.1,0-0.2,0.1-0.3,0.1c0,0-0.1,0-0.1,0c-0.1,0-0.2,0.1-0.3,0.1c0,0,0,0,0,0c-0.1,0-0.2,0.1-0.3,0.1c0,0-0.1,0-0.1,0
					c-0.1,0-0.2,0.1-0.3,0.1c0,0-0.1,0-0.1,0c-0.1,0-0.2,0.1-0.3,0.1c0,0,0,0-0.1,0c-0.1,0-0.2,0.1-0.3,0.1c0,0-0.1,0-0.1,0
					c-0.1,0-0.2,0-0.2,0.1c0,0-0.1,0-0.1,0c-0.1,0-0.2,0-0.2,0.1c0,0-0.1,0-0.1,0c-0.1,0-0.2,0.1-0.3,0.1c-0.1,0-0.3,0.1-0.4,0.1
					c0,0-0.1,0-0.1,0c-0.1,0-0.2,0-0.3,0c-0.1,0-0.1,0-0.2,0c-0.1,0-0.2,0-0.2,0c-0.1,0-0.1,0-0.2,0c-0.1,0-0.1,0-0.2,0
					c-0.1,0-0.1,0-0.2,0c-0.1,0-0.1,0-0.2,0c-0.1,0-0.1,0-0.2,0c0,0-0.1,0-0.1,0c-0.1,0-0.2,0-0.2,0c0,0-0.1,0-0.1,0
					c-0.1,0-0.2,0-0.3,0c-3.9,0.2-6.4-1-7.3-3.1l1,2.5c0.9,2.1,3.4,3.4,7.3,3.1c0.1,0,0.2,0,0.3,0c0,0,0.1,0,0.1,0
					c0.1,0,0.2,0,0.2,0c0,0,0.1,0,0.1,0c0.1,0,0.1,0,0.2,0c0.1,0,0.1,0,0.2,0c0.1,0,0.1,0,0.2,0c0,0,0,0,0,0c0.1,0,0.1,0,0.2,0
					c0.1,0,0.1,0,0.2,0c0.1,0,0.2,0,0.2,0c0.1,0,0.1,0,0.2,0c0.1,0,0.2,0,0.3,0c0,0,0.1,0,0.1,0c0.1,0,0.3-0.1,0.4-0.1
					c0.1,0,0.2-0.1,0.3-0.1c0,0,0.1,0,0.1,0c0.1,0,0.2,0,0.2-0.1c0,0,0.1,0,0.1,0c0.1,0,0.2,0,0.2-0.1c0,0,0.1,0,0.1,0
					c0,0,0,0,0.1,0c0.1,0,0.1,0,0.2-0.1c0,0,0,0,0.1,0c0.1,0,0.2-0.1,0.3-0.1c0,0,0.1,0,0.1,0c0.1,0,0.2-0.1,0.3-0.1
					c0,0,0.1,0,0.1,0c0,0,0,0,0.1,0c0.1,0,0.2-0.1,0.3-0.1c0,0,0,0,0,0c0.1,0,0.2-0.1,0.3-0.1c0,0,0.1,0,0.1,0
					c0.1,0,0.2-0.1,0.3-0.1c0,0,0,0,0,0c0.2-0.1,0.3-0.1,0.4-0.2c0,0,0.1,0,0.1-0.1c0.1,0,0.2-0.1,0.3-0.1c0,0,0.1,0,0.1,0
					c0,0,0.1,0,0.1,0c0.1,0,0.2-0.1,0.3-0.1c0,0,0.1,0,0.1-0.1c0.1-0.1,0.3-0.1,0.4-0.2c0,0,0,0,0,0c0,0,0,0,0,0
					c0.1-0.1,0.3-0.1,0.4-0.2c0,0,0.1,0,0.1-0.1c0.1,0,0.2-0.1,0.3-0.1c0,0,0,0,0.1,0c0,0,0.1,0,0.1,0c0.1,0,0.2-0.1,0.3-0.1
					c0.1,0,0.1-0.1,0.2-0.1c0.1,0,0.2-0.1,0.3-0.1c0,0,0.1,0,0.1,0c0,0,0,0,0,0c0.1-0.1,0.3-0.1,0.4-0.2c0,0,0,0,0.1,0
					c0.1-0.1,0.2-0.1,0.4-0.2c0,0,0,0,0,0c0,0,0.1,0,0.1-0.1c0.1-0.1,0.2-0.1,0.3-0.2c0.1,0,0.1-0.1,0.2-0.1
					c0.1-0.1,0.2-0.1,0.3-0.2c0,0,0.1,0,0.1-0.1c0,0,0,0,0,0c0.1-0.1,0.3-0.2,0.4-0.3c0,0,0,0,0,0c0.1-0.1,0.3-0.2,0.4-0.3
					c0,0,0,0,0,0c0,0,0.1,0,0.1-0.1c0.1-0.1,0.2-0.1,0.3-0.2c0,0,0.1-0.1,0.1-0.1c0.1-0.1,0.3-0.2,0.4-0.3c0,0,0,0,0,0c0,0,0,0,0,0
					c0,0,0,0,0,0c0.1-0.1,0.2-0.1,0.3-0.2c0,0,0.1,0,0.1-0.1c0.1-0.1,0.2-0.1,0.3-0.2c0,0,0.1,0,0.1-0.1c0.1-0.1,0.2-0.1,0.3-0.2
					c0,0,0,0,0,0c0,0,0.1,0,0.1-0.1c0.1-0.1,0.2-0.1,0.2-0.2c0,0,0.1-0.1,0.1-0.1c0.1-0.1,0.1-0.1,0.2-0.2c0,0,0.1-0.1,0.1-0.1
					c0.1-0.1,0.2-0.1,0.2-0.2c0,0,0.1,0,0.1-0.1c0,0,0,0,0,0c0.1,0,0.1-0.1,0.2-0.1c0,0,0.1-0.1,0.1-0.1c0.1-0.1,0.1-0.1,0.2-0.2
					c0,0,0.1-0.1,0.1-0.1c0.1-0.1,0.1-0.1,0.2-0.2c0,0,0.1-0.1,0.1-0.1c0.1-0.1,0.2-0.1,0.2-0.2c0,0,0.1,0,0.1-0.1
					c0.1-0.1,0.2-0.2,0.3-0.2c0,0,0.1,0,0.1-0.1c0.1-0.1,0.1-0.1,0.2-0.2c0,0,0.1,0,0.1-0.1c0.1-0.1,0.2-0.2,0.3-0.3c0,0,0,0,0,0
					c0.1-0.1,0.2-0.1,0.2-0.2c0,0,0.1-0.1,0.1-0.1c0.1-0.1,0.1-0.1,0.2-0.2c0,0,0,0,0.1-0.1c0.1-0.1,0.2-0.2,0.2-0.2c0,0,0,0,0,0
					c0,0,0,0,0,0c0.1-0.1,0.1-0.1,0.2-0.2c0,0,0,0,0.1-0.1c0.1-0.1,0.2-0.2,0.3-0.3c0,0,0,0,0,0c0.1-0.1,0.1-0.2,0.2-0.2
					c0,0,0,0,0.1-0.1c0.1-0.1,0.2-0.2,0.2-0.3c0,0,0,0,0,0c0.1-0.1,0.2-0.2,0.2-0.3c0,0,0,0,0.1-0.1c0.1-0.1,0.1-0.2,0.2-0.2
					c0,0,0,0,0,0c0.1-0.1,0.1-0.2,0.2-0.3c0,0,0,0,0.1-0.1c0.1-0.1,0.1-0.2,0.2-0.2c0,0,0,0,0,0c0.1-0.1,0.1-0.2,0.2-0.3
					c0,0,0,0,0.1-0.1c0.1-0.1,0.1-0.1,0.2-0.2c0,0,0,0,0-0.1c0.1-0.1,0.1-0.2,0.2-0.2c0,0,0,0,0-0.1c0.1-0.1,0.1-0.2,0.2-0.3
					c0,0,0,0,0-0.1C417.3,191,417.4,190.9,417.4,190.8L417.4,190.8z"/>
			</g>
		</g>
	</g>
</g>
</svg>
