<svg width="600" height="600" viewBox="0 0 600 600" fill="none" xmlns="http://www.w3.org/2000/svg">
<path d="M236.991 148.062C328.466 148.012 317.823 216.254 419.896 232.594C521.969 248.935 599.998 273.716 599.998 371.669C599.998 462.541 519.581 520.104 429.302 520.104C339.023 520.104 0.701189 576.07 0.191756 434.217C-0.240352 313.84 82.1786 330.163 107.395 279.644C132.612 229.125 141.95 148.117 236.991 148.062Z" fill="#8B3D99"/>
<mask id="mask0_568_10364" style="mask-type:alpha" maskUnits="userSpaceOnUse" x="0" y="113" width="600" height="418">
<path d="M599.998 113.045C599.998 170.089 600 271.189 600 371.67C600 462.542 519.583 520.105 429.304 520.105C339.025 520.105 0.702966 576.071 0.193534 434.218C-0.241882 312.982 0.193486 171.221 0.193407 113.047C197.774 113.049 399.806 113.045 599.998 113.045Z" fill="#8B3D99"/>
</mask>
<g mask="url(#mask0_568_10364)">
<path d="M437.635 501.871C414.722 501.989 395.651 492.643 382.214 476.905C349.994 439.209 355.562 372.781 359.196 327.085C360.633 309.099 376.397 295.675 394.37 297.113C412.356 298.551 425.78 314.288 424.342 332.287C422.969 349.423 420.63 370.978 421.924 394.1C423.518 422.569 429.962 432.189 431.897 434.451C432.995 435.732 433.727 436.307 436.171 436.477C439.269 436.699 440.485 436.085 442.066 434.647C459.202 419.027 460.706 362.285 461.49 341.581C462.17 323.543 477.41 309.504 495.383 310.158C513.421 310.838 527.486 326.013 526.806 344.051C526.767 345.045 526.741 346.365 526.701 347.946C525.695 390.937 520.388 451.704 486.076 482.957C472.535 495.296 455.882 501.767 437.622 501.871H437.635Z" fill="#FCDABA"/>
<path d="M494.155 375.5C512.202 375.5 526.833 360.87 526.833 342.822C526.833 324.775 512.202 310.145 494.155 310.145C476.107 310.145 461.477 324.775 461.477 342.822C461.477 360.87 476.107 375.5 494.155 375.5Z" fill="#FCDABA"/>
<path d="M486.979 299.465L470.927 319.843L517.382 365.814L550.739 365.631L550.399 299.126L486.979 299.465Z" fill="#FCDABA"/>
<path d="M461.477 342.992C461.346 337.685 461.568 329.555 463.581 319.948C466.248 307.282 470.065 301.675 473.058 291.584C474.927 285.244 476.705 276.369 476.43 264.88C476.313 260.056 480.103 256.043 484.926 255.978C489.384 255.926 493.187 259.285 493.606 263.729C494.39 272.121 494.364 280.735 493.423 289.492C496.246 292.237 502.102 298.707 504.167 308.72C507.958 327.072 495.671 341.162 494.155 342.822L461.477 342.992Z" fill="#FCDABA"/>
<path d="M486.011 350.09C488.586 346.783 496.429 335.895 496.534 319.909C496.638 304.655 489.658 294.028 487.149 290.551C488.377 289.636 490.534 287.767 492.155 284.669C493.815 281.506 494.089 278.591 494.129 277.062C494.076 279.559 493.959 282.134 493.789 284.8C493.684 286.395 493.553 287.963 493.41 289.493C504.768 295.518 511.735 307.348 511.212 319.778C510.611 333.947 500.377 346.417 486.011 350.103V350.09Z" fill="#DCAC82"/>
<g clip-path="url(#clip0_568_10364)">
<path d="M560 362.81V235.192C560 232.326 557.669 230.002 554.793 230.002H498.207C495.331 230.002 493 232.326 493 235.192V362.81C493 365.676 495.331 368 498.207 368H554.793C557.669 368 560 365.676 560 362.81Z" fill="#403556"/>
<path d="M560 358.808V231.19C560 228.323 557.669 226 554.793 226H498.207C495.331 226 493 228.323 493 231.19V358.808C493 361.674 495.331 363.998 498.207 363.998H554.793C557.669 363.998 560 361.674 560 358.808Z" fill="#2C2044"/>
<path d="M556.747 353.098V236.899C556.747 235.477 555.59 234.325 554.164 234.325H498.823C497.396 234.325 496.24 235.477 496.24 236.899V353.098C496.24 354.52 497.396 355.673 498.823 355.673H554.164C555.59 355.673 556.747 354.52 556.747 353.098Z" fill="#742384"/>
<path d="M519.747 231.67H533.24C534.024 231.67 534.659 231.037 534.659 230.256V230.082C534.659 229.301 534.024 228.668 533.24 228.668H519.747C518.963 228.668 518.328 229.301 518.328 230.082V230.256C518.328 231.037 518.963 231.67 519.747 231.67Z" fill="#544A69"/>
<path d="M542.791 305.34C538.801 305.413 534.272 305.845 530.087 306.372C530.555 304.684 531.022 303.018 531.022 303.018C531.022 303.018 531.501 304.051 532.852 303.946C534.771 303.797 537.106 301.924 538.237 298.491C539.438 294.844 539.33 290.702 536.879 290.355C534.898 290.074 533.952 291.83 533.816 292.18C533.816 292.18 534.237 290.585 532.978 290.863C531.772 291.13 531.551 291.669 531.253 292.632C531.2 292.802 530.185 296.591 529.121 300.585C529.105 300.611 529.092 300.641 529.082 300.674C528.82 301.577 528.3 301.879 527.924 301.903C526.708 301.982 529.322 293.938 529.52 293.328C529.781 292.523 529.937 291.913 529.051 291.577C528.454 291.35 527.634 291.432 527.394 292.076C527.293 292.346 527.22 292.545 527.22 292.545C527.22 292.545 526.537 291.527 525.028 291.666C523.517 291.804 521.61 293.647 520.348 296.882C519.086 300.116 518.538 304.755 521.532 305.218C523.051 305.452 524.326 304.58 524.993 303.145C524.993 303.145 524.877 304.106 525.877 304.577C526.27 304.763 527.248 304.691 528.168 304.169C527.926 305.08 527.698 305.944 527.494 306.714C521.032 307.611 515.946 308.612 515.946 308.612C515.947 308.607 519.488 296.597 520.286 293.953C520.953 291.74 519.695 292.222 518.765 292.493C517.773 292.781 517.303 293.619 516.807 295.141C514.638 301.787 512.93 303.856 511.692 303.41C510.556 303 514.128 295.943 513.271 295.011C512.528 294.203 510.997 294.247 510.705 294.723C510.414 295.199 510.848 295.634 510.661 296.308C510.475 296.982 509.044 300.63 508.893 301.448C508.743 302.264 507.501 306.792 510.786 306.597C512.728 306.481 514.057 305.008 514.198 304.599C513.592 306.358 512.725 309.197 512.725 309.197C512.725 309.197 508.751 310.194 505.584 313.519C503.068 316.158 501.29 321.844 505.046 322.75C510.885 324.158 513.646 315.219 515.062 311.857C519.796 310.8 523.406 310.098 526.745 309.575C526.695 309.77 526.662 309.903 526.65 309.958C526.347 311.358 526.414 311.918 527.504 311.783C528.679 311.638 528.826 311.033 529.211 309.57C529.236 309.469 529.27 309.345 529.309 309.201C533.265 308.666 537.15 308.33 542.496 307.883C544.157 307.743 544.139 307.465 544.302 306.47C544.485 305.342 543.185 305.333 542.791 305.34ZM532.599 297.626C533.398 295.007 534.132 293.958 534.822 293.662C536.469 292.955 536.781 295.027 535.51 298.173C534.04 301.814 532.322 301.73 531.664 301.012C531.663 301.012 531.755 300.39 532.599 297.626ZM525.247 299.206C524.541 300.915 523.88 302.118 522.97 302.125C521.666 302.134 521.7 300.168 522.628 297.694C523.408 295.614 524.832 294.304 525.6 294.155C526.368 294.007 527.262 294.33 525.247 299.206ZM507.995 319.097C504.891 321.875 505.674 318.07 506.828 316.426C509.019 313.305 511.725 312.516 511.725 312.516C510.35 316.549 508.632 318.526 507.995 319.097Z" fill="white"/>
<path d="M546.919 295.277C548.091 293.915 548.626 291.013 546.659 289.945C544.28 288.654 541.173 290.626 539.89 294.875C538.75 298.654 538.324 303.301 542.192 303.129C544.098 303.045 545.742 301.669 546.337 300.647C546.626 300.152 546.741 299.371 546.691 299.024C546.55 298.051 545.956 297.91 544.95 299.187C544.701 299.469 542.715 301.24 541.744 300.188C541.042 299.428 541.632 297.936 541.66 297.935C542.931 297.842 545.154 297.327 546.919 295.277ZM544.072 291.978C545.14 290.977 546.162 292.174 544.927 293.898C543.68 295.636 542.22 295.592 542.208 295.647C542.358 294.967 542.907 293.071 544.072 291.978Z" fill="white"/>
<path d="M525.869 280.271C525.637 280.121 525.288 280.047 524.825 280.047H523.44V281.971H524.87C525.769 281.971 526.219 281.646 526.219 280.996C526.219 280.662 526.103 280.421 525.869 280.271Z" fill="#10CBB4"/>
<path d="M526.609 271.315C522.425 271.508 519.009 274.878 518.753 279.072C518.579 281.911 519.833 284.463 521.86 286.08C522.069 286.247 522.191 286.498 522.191 286.766V288.594C522.191 288.735 522.269 288.864 522.393 288.929L522.444 288.956C522.563 289.019 522.706 289.008 522.815 288.929L524.38 287.798C524.584 287.65 524.843 287.599 525.088 287.657C525.702 287.804 526.341 287.882 526.999 287.882C531.563 287.882 535.263 284.171 535.263 279.593C535.263 274.887 531.351 271.095 526.609 271.315ZM527.287 282.09C527.098 282.385 526.844 282.603 526.524 282.744C526.324 282.829 526.094 282.887 525.834 282.921C525.575 282.956 525.271 282.973 524.924 282.973H522.916C522.627 282.973 522.42 282.909 522.295 282.778C522.171 282.647 522.109 282.44 522.109 282.155V277.2C522.109 276.91 522.172 276.7 522.299 276.573C522.426 276.445 522.632 276.381 522.915 276.381H525.044C525.357 276.381 525.63 276.401 525.86 276.44C526.09 276.479 526.296 276.554 526.478 276.664C526.633 276.757 526.771 276.875 526.89 277.018C527.01 277.16 527.101 277.318 527.164 277.489C527.226 277.662 527.258 277.844 527.258 278.036C527.258 278.696 526.929 279.177 526.271 279.484C527.135 279.759 527.567 280.296 527.567 281.093C527.569 281.463 527.475 281.794 527.287 282.09ZM531.962 282.35C531.797 282.591 531.555 282.775 531.233 282.899C530.912 283.023 530.521 283.086 530.06 283.086C529.621 283.086 529.244 283.019 528.931 282.884C528.617 282.749 528.385 282.58 528.236 282.378C528.087 282.176 528.012 281.973 528.012 281.769C528.012 281.634 528.06 281.519 528.156 281.423C528.251 281.326 528.372 281.279 528.518 281.279C528.647 281.279 528.746 281.31 528.814 281.373C528.883 281.436 528.949 281.524 529.012 281.639C529.137 281.858 529.287 282.021 529.462 282.129C529.636 282.237 529.875 282.291 530.176 282.291C530.422 282.291 530.622 282.236 530.779 282.127C530.937 282.018 531.014 281.892 531.014 281.751C531.014 281.535 530.932 281.377 530.77 281.279C530.607 281.18 530.339 281.086 529.965 280.996C529.544 280.891 529.201 280.781 528.937 280.666C528.672 280.55 528.461 280.398 528.303 280.209C528.145 280.02 528.065 279.788 528.065 279.512C528.065 279.266 528.138 279.034 528.285 278.816C528.431 278.596 528.648 278.423 528.933 278.292C529.218 278.161 529.563 278.096 529.965 278.096C530.282 278.096 530.567 278.13 530.819 278.196C531.072 278.262 531.282 278.35 531.451 278.461C531.62 278.573 531.748 278.695 531.837 278.83C531.925 278.965 531.969 279.096 531.969 279.225C531.969 279.365 531.922 279.481 531.828 279.572C531.734 279.661 531.6 279.707 531.427 279.707C531.301 279.707 531.194 279.671 531.106 279.599C531.017 279.526 530.916 279.418 530.803 279.275C530.711 279.155 530.602 279.059 530.476 278.987C530.35 278.915 530.18 278.879 529.964 278.879C529.744 278.879 529.56 278.927 529.413 279.021C529.267 279.115 529.193 279.232 529.193 279.374C529.193 279.502 529.247 279.608 529.355 279.691C529.463 279.774 529.607 279.842 529.79 279.896C529.972 279.95 530.223 280.015 530.543 280.093C530.922 280.186 531.232 280.297 531.473 280.426C531.713 280.554 531.896 280.707 532.02 280.883C532.144 281.058 532.206 281.258 532.206 281.483C532.208 281.819 532.126 282.109 531.962 282.35Z" fill="#10CBB4"/>
<path d="M525.428 278.995C525.609 278.932 525.747 278.812 525.843 278.635C525.917 278.509 525.955 278.369 525.955 278.213C525.955 277.88 525.836 277.659 525.6 277.55C525.364 277.441 525.004 277.386 524.52 277.386H523.44V279.09H524.659C524.991 279.089 525.247 279.058 525.428 278.995Z" fill="#10CBB4"/>
</g>
<path d="M565.906 284.812C570.134 283.279 572.318 278.609 570.785 274.381C569.252 270.153 564.582 267.968 560.354 269.501L552.784 272.246C548.556 273.779 546.372 278.449 547.905 282.677C549.438 286.905 554.108 289.09 558.336 287.557L565.906 284.812Z" fill="#FCDABA"/>
<path d="M566.699 308.045C571.118 307.207 574.021 302.946 573.184 298.528C572.347 294.109 568.086 291.205 563.667 292.043L554.215 293.834C549.796 294.671 546.893 298.932 547.73 303.351C548.567 307.77 552.828 310.673 557.247 309.836L566.699 308.045Z" fill="#FCDABA"/>
<path d="M567.377 330.382C571.853 329.944 575.126 325.96 574.688 321.484C574.25 317.008 570.266 313.735 565.79 314.173L556.502 315.082C552.026 315.52 548.753 319.504 549.191 323.98C549.629 328.456 553.613 331.729 558.089 331.291L567.377 330.382Z" fill="#FCDABA"/>
<path d="M564.753 352.624C569.229 352.186 572.503 348.202 572.064 343.726C571.626 339.25 567.643 335.977 563.167 336.415L555.114 337.203C550.638 337.641 547.365 341.625 547.803 346.101C548.241 350.577 552.225 353.85 556.701 353.412L564.753 352.624Z" fill="#FCDABA"/>
<path d="M431.779 392.558C422.315 395.538 408.094 398.819 390.67 398.479C375.26 398.178 362.594 395.172 353.732 392.322C353.483 379.369 354.032 364.952 355.967 349.371C356.829 342.456 357.888 335.855 359.091 329.607C380.867 329.673 402.657 329.738 424.433 329.803C426.877 350.717 429.335 371.644 431.779 392.558Z" fill="#10CBB4"/>
<path d="M391.755 362.377C409.803 362.377 424.433 347.746 424.433 329.699C424.433 311.652 409.803 297.021 391.755 297.021C373.708 297.021 359.078 311.652 359.078 329.699C359.078 347.746 373.708 362.377 391.755 362.377Z" fill="#10CBB4"/>
<path d="M393.583 297.077L171.706 284.944C153.686 283.959 138.279 297.769 137.293 315.789C136.308 333.809 150.117 349.217 168.138 350.202L390.015 362.335C408.035 363.321 423.442 349.511 424.428 331.49C425.413 313.47 411.604 298.063 393.583 297.077Z" fill="#10CBB4"/>
<path d="M240.666 165.566C240.104 175.709 238.863 185.774 231.961 192.126C221.374 201.89 227.504 208.295 232.432 202.466C232.432 202.466 227.543 219.549 231.347 222.922C234.719 225.915 240.091 219.51 240.091 219.51C240.091 219.51 240.418 226.359 239.216 230.006C234.51 244.175 242.536 245.025 250.339 233.888C247.725 239.548 243.764 246.816 248.038 249.182C250.979 250.815 258.469 247.508 261.881 239.692L258.456 164.742L240.666 165.553V165.566Z" fill="#2C2044"/>
<path d="M175.573 518.72V573.946L266.129 587.017H279.54L370.109 573.946V518.72H175.573Z" fill="#002649"/>
<path d="M311.303 279.82L314.649 218.595L258.783 215.536L255.437 276.761C251.254 276.774 247.124 276.826 243.085 276.944C247.843 294.276 263.201 307.112 281.736 308.119C300.271 309.138 316.936 298.054 323.563 281.349C319.563 280.8 315.459 280.29 311.303 279.82Z" fill="#FCDABA"/>
<path d="M313.316 242.946L311.943 267.925C302.245 268.447 286.703 267.572 274.547 258.892C264.874 251.978 262.247 243.573 261.437 240.109L313.303 242.946H313.316Z" fill="#DCAC82"/>
<path d="M109.891 476.369C127.938 476.369 142.568 461.739 142.568 443.692C142.568 425.644 127.938 411.014 109.891 411.014C91.8432 411.014 77.2129 425.644 77.2129 443.692C77.2129 461.739 91.8432 476.369 109.891 476.369Z" fill="#FCDABA"/>
<path d="M72.8343 607.433C56.9268 603.734 45.9602 588.624 47.8032 571.997C53.0578 524.759 63.5408 478.017 78.9777 433.078C94.9244 386.637 116.191 341.947 142.202 300.289C151.757 284.983 171.913 280.317 187.219 289.872C202.525 299.427 207.192 319.582 197.637 334.901C174.253 372.376 155.117 412.544 140.778 454.319C126.909 494.721 117.472 536.758 112.753 579.239C110.753 597.172 94.5976 610.1 76.6641 608.1C75.357 607.956 74.0761 607.734 72.8212 607.446L72.8343 607.433Z" fill="#FCDABA"/>
<path d="M174.514 391.957C164.789 389.983 150.764 385.957 135.667 377.226C122.334 369.514 112.714 360.73 106.335 353.946C112.387 342.496 119.851 330.144 129.079 317.452C133.183 311.818 137.301 306.564 141.379 301.662C160.41 312.263 179.429 322.876 198.46 333.477C190.474 352.966 182.487 372.455 174.501 391.944L174.514 391.957Z" fill="#10CBB4"/>
<path d="M169.926 350.273C187.974 350.273 202.604 335.643 202.604 317.596C202.604 299.548 187.974 284.918 169.926 284.918C151.879 284.918 137.249 299.548 137.249 317.596C137.249 335.643 151.879 350.273 169.926 350.273Z" fill="#10CBB4"/>
<path d="M242.952 187.055L250.786 186.696L252.101 215.423L244.266 215.781C238.495 216.045 233.607 211.585 233.342 205.813L232.984 197.979C232.72 192.207 237.181 187.319 242.952 187.055Z" fill="#FCDABA"/>
<path fill-rule="evenodd" clip-rule="evenodd" d="M240.951 197.196C241.133 196.884 241.533 196.778 241.845 196.96L248.224 200.672C248.415 200.784 248.537 200.985 248.548 201.207C248.558 201.428 248.455 201.64 248.274 201.769L242.262 206.056C241.968 206.266 241.56 206.198 241.35 205.904C241.141 205.61 241.209 205.202 241.503 204.992L246.691 201.293L241.187 198.09C240.876 197.908 240.77 197.508 240.951 197.196Z" fill="#DCAC82"/>
<path d="M324.661 183.342L332.491 182.989C338.255 182.728 343.157 187.185 343.418 192.962L343.771 200.792C344.032 206.556 339.575 211.458 333.798 211.719L325.968 212.072L324.661 183.342Z" fill="#DCAC82"/>
<path d="M287.19 124.173L293.719 123.874C315.342 122.885 333.694 139.631 334.683 161.254L337.372 220.012C338.197 238.031 324.242 253.325 306.222 254.149L293.165 254.747C271.542 255.736 253.19 238.99 252.2 217.367L249.81 165.138C248.821 143.515 265.567 125.162 287.19 124.173Z" fill="#FCDABA"/>
<path d="M287.376 198.866C289.114 198.787 290.438 196.852 290.332 194.544C290.226 192.236 288.732 190.43 286.994 190.51C285.256 190.589 283.933 192.524 284.038 194.832C284.144 197.14 285.638 198.946 287.376 198.866Z" fill="#2C2044"/>
<path d="M325.268 197.137C327.006 197.057 328.33 195.122 328.224 192.814C328.118 190.507 326.624 188.7 324.886 188.78C323.148 188.859 321.825 190.795 321.93 193.102C322.036 195.41 323.53 197.216 325.268 197.137Z" fill="#2C2044"/>
<path d="M277.828 184.035C277.619 184.035 277.396 183.931 277.279 183.735C277.083 183.434 277.174 183.029 277.475 182.833C279.096 181.8 281.775 180.545 285.252 180.493C288.402 180.428 290.781 181.369 292.284 182.153C292.611 182.323 292.729 182.715 292.559 183.029C292.389 183.355 291.997 183.473 291.683 183.303C290.337 182.61 288.193 181.787 285.474 181.787C285.409 181.787 285.344 181.787 285.278 181.787C282.102 181.839 279.671 182.976 278.194 183.918C278.089 183.983 277.958 184.022 277.841 184.022L277.828 184.035Z" fill="#2C2044"/>
<path d="M320.283 182.087C320.1 182.087 319.903 182.009 319.773 181.852C319.551 181.577 319.59 181.159 319.864 180.937C320.988 180.009 322.844 178.872 325.289 178.663C328.06 178.427 330.269 179.473 331.641 180.401C331.942 180.597 332.02 181.002 331.824 181.303C331.628 181.604 331.21 181.682 330.922 181.486C329.733 180.676 327.811 179.774 325.406 179.97C323.289 180.153 321.681 181.146 320.688 181.957C320.57 182.061 320.413 182.1 320.269 182.1L320.283 182.087Z" fill="#2C2044"/>
<path d="M332.347 149.619C325.563 151.697 316.976 153.645 306.924 154.377C292.99 155.396 281.265 153.723 272.926 151.854C264.94 162.089 264.025 172.01 262.927 186.152L241.647 187.12L240.667 165.565C239.673 143.933 256.417 125.594 278.05 124.601L295.382 123.816C312.126 123.045 327.289 133.633 332.347 149.619Z" fill="#2C2044"/>
<path d="M278.944 207.502C281.46 207.386 283.449 206.159 283.385 204.76C283.321 203.361 281.228 202.32 278.712 202.435C276.195 202.55 274.207 203.778 274.271 205.177C274.335 206.576 276.427 207.617 278.944 207.502Z" fill="#FBCCA1"/>
<path d="M332.12 205.073C334.637 204.958 336.625 203.73 336.561 202.331C336.497 200.932 334.405 199.891 331.888 200.006C329.372 200.122 327.383 201.349 327.447 202.748C327.511 204.147 329.603 205.188 332.12 205.073Z" fill="#FBCCA1"/>
<path d="M290.454 124.038C304.832 123.385 306.322 141.096 306.963 154.978C297.591 150.952 297.055 177.094 285.592 180.205C281.004 181.512 284.507 174.061 286.833 164.467C280.023 177.028 276.795 187.472 271.122 187.995C266.273 188.453 268.978 178.283 270.547 164.912C262.665 180.728 262.247 199.197 254.404 199.55C251.555 199.681 249.176 189.446 248.378 165.722C247.842 149.788 247.555 125.986 290.454 124.025V124.038Z" fill="#2C2044"/>
<path d="M305.238 124.692C305.617 133.11 306.323 141.11 306.95 154.991C316.231 149.71 316.217 176.231 325.158 178.401C328.74 179.342 326.91 171.696 324.374 162.324C331.066 176.271 338.883 182.545 342.856 180.819C346.477 179.251 341.575 175.905 335.706 153.854C331.824 139.659 319.799 126.3 305.238 124.692Z" fill="#2C2044"/>
<path d="M304.48 219.183C302.741 219.261 301.003 219.222 299.277 219.052C292.86 218.438 290.128 220.268 290.834 224.254C291.579 228.463 294.35 233.496 305.107 233.025C315.852 232.528 318.152 227.261 318.518 223C318.858 218.961 315.982 217.392 309.643 218.582C307.944 218.908 306.218 219.104 304.48 219.183Z" fill="#6B222F"/>
<path d="M315.172 229.901C313.172 231.574 310.022 232.79 305.107 233.025C300.192 233.234 296.951 232.306 294.807 230.829C296.911 228.28 300.558 226.516 304.793 226.32C309.028 226.124 312.832 227.562 315.159 229.901H315.172Z" fill="#DE4A65"/>
<path d="M315.015 218.333L314.061 220.581C313.708 221.404 312.963 221.98 312.087 222.136C308.427 222.764 303.97 223.326 298.846 223.561C295.931 223.692 293.226 223.705 290.755 223.627C290.455 220.084 293.213 218.477 299.278 219.065C301.003 219.222 302.741 219.274 304.48 219.195C306.218 219.117 307.957 218.908 309.643 218.594C311.852 218.176 313.643 218.097 315.028 218.333H315.015Z" fill="white"/>
<path d="M393.441 297.086C386.095 385.211 378.736 473.323 371.39 561.448L175.677 562.416C175.638 547.855 175.599 533.293 175.559 518.719C176.723 396.675 176.893 365.435 176.788 361.343C176.788 361.174 176.592 353.03 176.592 353.03C176.239 340.678 175.586 327.803 174.553 314.458C173.769 304.301 172.801 294.459 171.703 284.93C181.951 282.969 192.944 281.218 204.63 279.845C218.263 278.238 231.138 277.336 243.085 276.931C247.869 294.224 263.214 307.007 281.71 308.014C300.205 309.02 316.858 297.988 323.485 281.335C350.607 285.244 374.148 291.113 393.441 297.073V297.086Z" fill="#10CBB4"/>
<path d="M226.942 562.168C222.589 562.194 218.236 562.208 213.871 562.234C215.047 508.093 213.858 453.365 210.355 399.407C207.793 359.881 203.911 319.988 198.826 280.605C200.747 280.343 202.682 280.108 204.643 279.873C207.061 279.585 209.44 279.324 211.805 279.088C216.916 318.694 220.811 358.822 223.4 398.558C226.929 452.764 228.118 507.753 226.942 562.168Z" fill="#002649"/>
<path d="M369.207 290.329C367.273 329.555 364.776 369.095 361.757 408.099C357.796 459.089 352.869 510.655 347.052 561.567C342.66 561.593 338.268 561.619 333.876 561.632C339.758 510.38 344.738 458.449 348.712 407.093C351.784 367.409 354.333 327.189 356.267 287.296C360.711 288.264 365.025 289.283 369.207 290.329Z" fill="#002649"/>
</g>
<path d="M369.655 134.703C384.159 134.703 395.918 122.945 395.918 108.441C395.918 93.9365 384.159 82.1784 369.655 82.1784C355.151 82.1784 343.393 93.9365 343.393 108.441C343.393 122.945 355.151 134.703 369.655 134.703Z" fill="#E3B2EB"/>
<path d="M353.823 108.789C353.823 99.85 361.07 92.6035 370.008 92.6035C378.947 92.6035 386.194 99.85 386.194 108.789C386.194 117.728 378.947 124.975 370.008 124.975C361.07 124.975 353.823 117.728 353.823 108.789ZM370.008 90.3071C359.801 90.3071 351.526 98.5817 351.526 108.789C351.526 118.996 359.801 127.271 370.008 127.271C380.216 127.271 388.49 118.996 388.49 108.789C388.49 98.5817 380.216 90.3071 370.008 90.3071Z" fill="white"/>
<path d="M354.018 101.348C353.384 101.348 352.87 101.862 352.87 102.497C352.87 103.131 353.384 103.645 354.018 103.645H385.994C386.628 103.645 387.143 103.131 387.143 102.497C387.143 101.862 386.628 101.348 385.994 101.348H354.018Z" fill="white"/>
<path d="M385.994 114.35L354.018 114.356C353.384 114.356 352.87 114.87 352.87 115.504C352.87 116.139 353.384 116.653 354.018 116.653L385.994 116.646C386.628 116.646 387.143 116.132 387.143 115.498C387.143 114.864 386.628 114.35 385.994 114.35Z" fill="white"/>
<path d="M376.384 91.6508C375.985 91.1572 375.262 91.0797 374.768 91.4779C374.276 91.876 374.197 92.5988 374.596 93.0923C377.305 96.4511 379.166 102.173 379.166 108.79C379.166 115.406 377.305 121.129 374.596 124.487C374.197 124.981 374.276 125.704 374.768 126.102C375.262 126.5 375.985 126.423 376.384 125.929C379.513 122.049 381.461 115.765 381.461 108.79C381.461 101.815 379.513 95.5305 376.384 91.6508Z" fill="white"/>
<path d="M365.422 93.0923C365.819 92.5988 365.742 91.876 365.248 91.4779C364.755 91.0797 364.033 91.1572 363.634 91.6508C360.505 95.5305 358.556 101.815 358.556 108.79C358.556 115.765 360.505 122.049 363.634 125.929C364.033 126.423 364.755 126.5 365.248 126.102C365.742 125.704 365.819 124.981 365.422 124.487C362.713 121.129 360.852 115.406 360.852 108.79C360.852 102.173 362.713 96.4511 365.422 93.0923Z" fill="white"/>
<path d="M371.152 91.4554C371.152 90.8211 370.638 90.3071 370.004 90.3071C369.37 90.3071 368.857 90.8211 368.857 91.4554V126.123C368.857 126.757 369.37 127.271 370.004 127.271C370.638 127.271 371.152 126.757 371.152 126.123V91.4554Z" fill="white"/>
<path d="M509.932 182.193C527.337 182.193 541.447 168.083 541.447 150.678C541.447 133.273 527.337 119.163 509.932 119.163C492.526 119.163 478.416 133.273 478.416 150.678C478.416 168.083 492.526 182.193 509.932 182.193Z" fill="#F4C12A"/>
<path d="M515.132 162.239H505.821C504.889 162.239 504.269 161.618 504.269 160.687V159.911C504.269 157.739 503.337 155.566 501.63 153.859C499.148 151.376 497.905 148.117 498.061 144.703C498.372 138.185 503.803 132.909 510.321 132.754H510.476C517.304 132.754 522.891 138.341 522.891 145.169C522.891 148.428 521.65 151.687 519.165 154.014C517.459 155.566 516.683 157.739 516.683 159.911V160.687C516.683 161.618 516.062 162.239 515.132 162.239ZM507.372 159.135H513.58C513.735 156.342 514.976 153.859 516.994 151.686C518.856 149.98 519.788 147.652 519.788 145.169C519.788 140.048 515.597 135.858 510.476 135.858H510.321C505.51 136.013 501.319 139.892 501.165 144.858C501.01 147.341 502.096 149.824 503.803 151.686C505.975 153.859 507.216 156.497 507.372 159.135Z" fill="white"/>
<path d="M510.478 169.999C507.065 169.999 504.271 167.205 504.271 163.791V160.688C504.271 159.756 504.892 159.136 505.822 159.136H515.133C516.065 159.136 516.686 159.756 516.686 160.688V163.791C516.686 167.205 513.892 169.999 510.478 169.999ZM507.375 162.239V163.791C507.375 165.498 508.772 166.895 510.478 166.895C512.186 166.895 513.583 165.498 513.583 163.791V162.239H507.375ZM505.822 146.721C504.892 146.721 504.271 146.1 504.271 145.169C504.271 141.755 507.065 138.961 510.478 138.961C511.41 138.961 512.03 139.582 512.03 140.513C512.03 141.444 511.41 142.065 510.478 142.065C508.772 142.065 507.375 143.462 507.375 145.169C507.375 146.1 506.754 146.721 505.822 146.721Z" fill="white"/>
<path d="M450.221 127.777C466.177 127.777 479.11 114.843 479.11 98.8887C479.11 82.9339 466.177 70.0001 450.221 70.0001C434.267 70.0001 421.333 82.9339 421.333 98.8887C421.333 114.843 434.267 127.777 450.221 127.777Z" fill="#10CBB4"/>
<path d="M457.025 81.8186H443.505C442.501 81.8186 441.539 82.2174 440.829 82.9272C440.119 83.6369 439.721 84.5996 439.721 85.6033V112.175C439.721 113.179 440.119 114.141 440.829 114.851C441.539 115.561 442.501 115.959 443.505 115.959H457.025C458.029 115.959 458.992 115.561 459.702 114.851C460.412 114.141 460.81 113.179 460.81 112.175V85.6033C460.81 84.5996 460.412 83.6369 459.702 82.9272C458.992 82.2174 458.029 81.8186 457.025 81.8186ZM457.991 112.175C457.991 112.431 457.89 112.677 457.709 112.858C457.527 113.039 457.281 113.14 457.025 113.14H443.505C443.248 113.14 443.003 113.039 442.822 112.858C442.641 112.677 442.538 112.431 442.538 112.175V85.6033C442.538 85.3472 442.641 85.1015 442.822 84.9205C443.003 84.7394 443.248 84.6376 443.505 84.6376H457.025C457.281 84.6376 457.527 84.7394 457.709 84.9205C457.89 85.1015 457.991 85.3472 457.991 85.6033V112.175Z" fill="white"/>
<path d="M451.567 109.225H448.958C448.583 109.225 448.225 109.374 447.961 109.638C447.695 109.902 447.547 110.261 447.547 110.635C447.547 111.009 447.695 111.367 447.961 111.631C448.225 111.896 448.583 112.044 448.958 112.044H451.567C451.941 112.044 452.299 111.896 452.564 111.631C452.828 111.367 452.976 111.009 452.976 110.635C452.976 110.261 452.828 109.902 452.564 109.638C452.299 109.374 451.941 109.225 451.567 109.225Z" fill="white"/>
<path d="M543.12 258.761C561.976 258.761 577.261 243.476 577.261 224.62C577.261 205.765 561.976 190.48 543.12 190.48C524.265 190.48 508.98 205.765 508.98 224.62C508.98 243.476 524.265 258.761 543.12 258.761Z" fill="#48A3F3"/>
<path d="M561.468 220.851C560.887 218.41 556.143 210.171 553.355 205.46L553.268 205.313C553.225 205.238 553.176 205.167 553.121 205.099C552.989 204.938 552.279 204.132 551.125 204.074C550.579 204.046 549.761 204.181 548.964 204.982C548.807 205.139 548.761 205.185 546.897 208.406C546.277 209.475 545.477 210.873 544.659 212.34C543.649 210.58 542.576 208.742 541.454 206.844C541.379 206.717 541.331 206.634 541.311 206.601C541.266 206.523 541.216 206.447 541.158 206.377C541.004 206.188 540.166 205.239 538.816 205.172C538.188 205.142 537.239 205.299 536.297 206.23C536.106 206.406 536.029 206.538 534.371 209.377C533.467 210.925 532.091 213.3 530.676 215.828C525.232 225.539 524.713 227.586 524.561 228.261C523.399 232.55 524.376 237.251 527.176 240.847C529.911 244.36 533.932 246.353 538.253 246.353C538.365 246.353 538.478 246.353 538.59 246.349H538.731C542.466 246.436 546.026 245.032 548.76 242.389C551.041 240.183 552.571 237.236 553.07 234.145C555.714 233.679 558.096 232.184 559.745 229.916C561.68 227.253 562.308 223.95 561.47 220.85L561.468 220.851ZM538.79 243.178C538.777 243.178 538.764 243.178 538.751 243.178H538.57C538.557 243.178 538.544 243.178 538.531 243.178C535.084 243.261 531.852 241.703 529.662 238.894C527.467 236.075 526.702 232.402 527.614 229.068C527.621 229.044 527.626 229.021 527.631 228.997C528.301 226.024 536.664 211.62 538.615 208.399C538.638 208.382 538.656 208.369 538.67 208.36C538.674 208.362 538.678 208.365 538.684 208.369C538.702 208.399 538.72 208.431 538.74 208.465C540.218 210.963 541.608 213.36 542.883 215.603C542.853 215.66 542.824 215.716 542.795 215.772C542.771 215.817 542.747 215.864 542.724 215.907C542.686 215.981 542.647 216.053 542.611 216.125C542.595 216.157 542.578 216.189 542.562 216.219C542.509 216.319 542.458 216.419 542.409 216.515C542.388 216.555 542.369 216.593 542.349 216.633C542.32 216.69 542.29 216.748 542.262 216.803C542.24 216.848 542.217 216.89 542.196 216.934C542.173 216.982 542.148 217.029 542.125 217.075C542.101 217.122 542.079 217.167 542.057 217.212C542.036 217.254 542.013 217.296 541.994 217.338C541.973 217.381 541.951 217.423 541.93 217.464C541.909 217.506 541.888 217.549 541.867 217.591C541.848 217.632 541.828 217.671 541.808 217.711C541.788 217.751 541.77 217.79 541.75 217.829C541.73 217.868 541.712 217.908 541.694 217.946C541.677 217.983 541.658 218.019 541.641 218.055C541.623 218.093 541.604 218.131 541.586 218.17C541.569 218.204 541.553 218.238 541.537 218.271C541.52 218.307 541.503 218.344 541.486 218.379C541.47 218.413 541.454 218.446 541.438 218.478C541.423 218.511 541.407 218.545 541.392 218.578C541.377 218.611 541.362 218.643 541.348 218.676C541.333 218.706 541.319 218.738 541.306 218.768C541.291 218.8 541.277 218.832 541.263 218.862C541.25 218.891 541.237 218.92 541.224 218.949C541.211 218.98 541.198 219.009 541.184 219.039C541.173 219.067 541.16 219.093 541.149 219.12C541.136 219.152 541.123 219.181 541.11 219.211C541.099 219.235 541.088 219.259 541.079 219.281C541.062 219.321 541.046 219.358 541.031 219.396C541.023 219.413 541.016 219.43 541.008 219.448C540.99 219.491 540.971 219.535 540.954 219.576C540.946 219.594 540.94 219.613 540.932 219.631C540.92 219.659 540.91 219.687 540.899 219.713C540.891 219.732 540.885 219.75 540.877 219.769C540.867 219.794 540.857 219.818 540.848 219.842C540.84 219.86 540.833 219.879 540.827 219.896C540.817 219.918 540.81 219.941 540.8 219.963C540.794 219.98 540.787 219.997 540.782 220.013C540.774 220.034 540.766 220.056 540.758 220.077C540.752 220.093 540.746 220.108 540.741 220.124C540.733 220.144 540.727 220.164 540.72 220.184C540.715 220.198 540.71 220.213 540.704 220.227C540.698 220.247 540.691 220.266 540.685 220.286C540.681 220.299 540.675 220.312 540.671 220.324C540.665 220.344 540.658 220.362 540.653 220.381C540.649 220.393 540.645 220.405 540.641 220.415C540.635 220.434 540.629 220.452 540.624 220.469C540.621 220.48 540.617 220.49 540.615 220.5C540.61 220.518 540.603 220.537 540.598 220.555C540.595 220.563 540.592 220.571 540.591 220.579C540.586 220.599 540.581 220.617 540.575 220.636C540.574 220.641 540.571 220.648 540.57 220.653C540.564 220.674 540.558 220.695 540.553 220.715C540.553 220.718 540.553 220.72 540.552 220.722C540.54 220.768 540.528 220.812 540.519 220.851C539.657 224.042 540.382 227.536 542.462 230.207C542.569 230.344 542.679 230.476 542.79 230.607C542.804 230.624 542.818 230.642 542.833 230.659C542.94 230.782 543.049 230.902 543.161 231.019C543.18 231.041 543.2 231.062 543.22 231.083C543.332 231.199 543.445 231.312 543.559 231.421C543.578 231.44 543.597 231.457 543.616 231.474C543.735 231.586 543.856 231.696 543.981 231.803C543.991 231.811 544 231.819 544.009 231.827C544.134 231.933 544.26 232.036 544.389 232.135C544.4 232.143 544.41 232.152 544.422 232.16C544.551 232.259 544.681 232.354 544.814 232.447C544.835 232.461 544.855 232.476 544.876 232.489C545.006 232.579 545.138 232.665 545.272 232.748C545.293 232.761 545.315 232.775 545.337 232.788C545.473 232.871 545.611 232.953 545.751 233.03C545.765 233.038 545.779 233.044 545.793 233.052C546.089 233.213 546.392 233.359 546.699 233.49C546.714 233.496 546.728 233.501 546.743 233.508C546.893 233.57 547.043 233.63 547.195 233.685C547.214 233.692 547.234 233.698 547.252 233.706C547.405 233.76 547.559 233.812 547.715 233.86C547.73 233.864 547.744 233.869 547.76 233.873C548.089 233.971 548.423 234.054 548.762 234.119C548.768 234.119 548.773 234.121 548.778 234.121C548.943 234.153 549.108 234.179 549.275 234.202C549.293 234.205 549.311 234.207 549.328 234.21C549.49 234.231 549.653 234.249 549.816 234.264C549.825 234.264 549.835 234.267 549.844 234.267C548.732 239.435 544.089 243.309 538.795 243.175L538.79 243.178ZM557.194 228.047C555.838 229.913 553.791 231.035 551.578 231.125C551.574 231.125 551.571 231.125 551.567 231.125C551.492 231.129 551.416 231.131 551.337 231.132C551.258 231.132 551.178 231.132 551.096 231.129C551.082 231.129 551.069 231.129 551.054 231.129H550.925C550.912 231.129 550.899 231.129 550.886 231.129C548.578 231.186 546.411 230.139 544.942 228.253C543.467 226.361 542.953 223.896 543.564 221.661C543.571 221.639 543.576 221.615 543.582 221.593C543.6 221.512 543.637 221.38 543.716 221.168C543.739 221.105 543.767 221.032 543.799 220.954C543.837 220.858 543.881 220.749 543.933 220.629C543.95 220.588 543.968 220.546 543.988 220.501C544.067 220.32 544.16 220.111 544.272 219.873C544.306 219.801 544.342 219.724 544.38 219.645C544.439 219.52 544.502 219.388 544.571 219.248C544.614 219.158 544.659 219.067 544.706 218.971C544.712 218.961 544.716 218.952 544.72 218.943C544.72 218.943 544.72 218.943 544.72 218.942C544.808 218.763 544.904 218.573 545.005 218.372C545.069 218.245 545.135 218.116 545.206 217.979C545.226 217.941 545.246 217.903 545.267 217.863C545.502 217.407 545.769 216.9 546.073 216.333C547.876 212.977 550.069 209.227 550.987 207.671C555.202 214.825 558.095 220.258 558.396 221.593C558.402 221.616 558.407 221.64 558.414 221.663C559.008 223.835 558.564 226.163 557.193 228.049L557.194 228.047Z" fill="white"/>
<g clip-path="url(#clip1_568_10364)">
<path fill-rule="evenodd" clip-rule="evenodd" d="M51.1676 267.282C52.6953 270.584 55.5542 273.212 59.1332 274.62C63.6998 276.414 70.2251 278.982 75.43 281.027C78.6108 282.278 78.6054 286.424 75.43 287.676L59.1332 294.083C55.5487 295.49 52.6953 298.119 51.1676 301.421C49.2198 305.627 46.4319 311.637 44.2113 316.432C42.8528 319.362 38.3517 319.362 36.9931 316.432C34.7726 311.637 31.9846 305.627 30.0368 301.421C28.5092 298.119 25.6503 295.49 22.0712 294.083C17.5046 292.289 10.9793 289.721 5.77439 287.676C2.59359 286.424 2.59359 282.278 5.77439 281.027C10.9793 278.982 17.5046 276.414 22.0712 274.62C25.6557 273.212 28.5092 270.579 30.0368 267.282C31.9846 263.076 34.7726 257.066 36.9931 252.271C38.3517 249.341 42.8528 249.341 44.2113 252.271C46.4319 257.066 49.2198 263.076 51.1676 267.282Z" fill="#12DEC4"/>
<path fill-rule="evenodd" clip-rule="evenodd" d="M92.492 149.407C93.4136 151.399 95.1384 152.985 97.2977 153.834C100.053 154.916 103.989 156.466 107.13 157.7C109.049 158.455 109.045 160.956 107.13 161.711L97.2977 165.577C95.1351 166.426 93.4136 168.011 92.492 170.003C91.3169 172.541 89.6349 176.167 88.2952 179.06C87.4756 180.827 84.76 180.827 83.9404 179.06C82.6008 176.167 80.9188 172.541 79.7437 170.003C78.822 168.011 77.0972 166.426 74.938 165.577C72.1829 164.494 68.2462 162.945 65.106 161.711C63.187 160.956 63.187 158.455 65.106 157.7C68.2462 156.466 72.1829 154.916 74.938 153.834C77.1005 152.985 78.822 151.396 79.7437 149.407C80.9188 146.87 82.6008 143.244 83.9404 140.351C84.76 138.584 87.4756 138.584 88.2952 140.351C89.6349 143.244 91.3169 146.87 92.492 149.407Z" fill="#12DEC4"/>
<path fill-rule="evenodd" clip-rule="evenodd" d="M173.743 228.285C174.274 229.431 175.266 230.343 176.508 230.832C178.093 231.454 180.358 232.346 182.165 233.056C183.269 233.49 183.267 234.929 182.165 235.364L176.508 237.588C175.264 238.076 174.274 238.988 173.743 240.134C173.067 241.595 172.1 243.681 171.329 245.345C170.857 246.362 169.295 246.362 168.823 245.345C168.053 243.681 167.085 241.595 166.409 240.134C165.879 238.988 164.886 238.076 163.644 237.588C162.059 236.965 159.794 236.074 157.987 235.364C156.883 234.929 156.883 233.49 157.987 233.056C159.794 232.346 162.059 231.454 163.644 230.832C164.888 230.343 165.879 229.429 166.409 228.285C167.085 226.825 168.053 224.739 168.823 223.074C169.295 222.057 170.857 222.057 171.329 223.074C172.1 224.739 173.067 226.825 173.743 228.285Z" fill="#12DEC4"/>
</g>
<g clip-path="url(#clip2_568_10364)">
<path fill-rule="evenodd" clip-rule="evenodd" d="M575.962 412.719C577.005 415.167 578.958 417.115 581.402 418.159C584.521 419.489 588.978 421.393 592.533 422.91C594.705 423.838 594.701 426.912 592.533 427.84L581.402 432.59C578.954 433.634 577.005 435.583 575.962 438.031C574.631 441.15 572.727 445.606 571.211 449.161C570.283 451.333 567.209 451.333 566.281 449.161C564.764 445.606 562.86 441.15 561.53 438.031C560.486 435.583 558.534 433.634 556.089 432.59C552.97 431.26 548.514 429.356 544.959 427.84C542.786 426.912 542.786 423.838 544.959 422.91C548.514 421.393 552.97 419.489 556.089 418.159C558.537 417.115 560.486 415.163 561.53 412.719C562.86 409.6 564.764 405.143 566.281 401.588C567.209 399.416 570.283 399.416 571.211 401.588C572.727 405.143 574.631 409.6 575.962 412.719Z" fill="#12DEC4"/>
</g>
<g clip-path="url(#clip3_568_10364)">
<path fill-rule="evenodd" clip-rule="evenodd" d="M418.169 218.965C418.609 219.999 419.434 220.822 420.466 221.262C421.783 221.824 423.664 222.628 425.165 223.268C426.083 223.66 426.081 224.958 425.165 225.35L420.466 227.356C419.432 227.796 418.609 228.619 418.169 229.653C417.607 230.969 416.803 232.851 416.163 234.352C415.771 235.269 414.473 235.269 414.081 234.352C413.441 232.851 412.637 230.969 412.075 229.653C411.635 228.619 410.81 227.796 409.778 227.356C408.461 226.794 406.58 225.99 405.079 225.35C404.161 224.958 404.161 223.66 405.079 223.268C406.58 222.628 408.461 221.824 409.778 221.262C410.812 220.822 411.635 219.997 412.075 218.965C412.637 217.648 413.441 215.767 414.081 214.266C414.473 213.349 415.771 213.349 416.163 214.266C416.803 215.767 417.607 217.648 418.169 218.965Z" fill="#12DEC4"/>
</g>
<defs>
<clipPath id="clip0_568_10364">
<rect width="67" height="142" fill="white" transform="translate(493 226)"/>
</clipPath>
<clipPath id="clip1_568_10364">
<rect width="179.604" height="179.604" fill="white" transform="translate(3.38879 139.025)"/>
</clipPath>
<clipPath id="clip2_568_10364">
<rect width="50.8312" height="50.8312" fill="white" transform="translate(543.329 399.959)"/>
</clipPath>
<clipPath id="clip3_568_10364">
<rect width="21.4621" height="21.4621" fill="white" transform="translate(404.391 213.578)"/>
</clipPath>
</defs>
</svg>
