<svg width="1222" height="1300" viewBox="0 0 1222 1300" fill="none" xmlns="http://www.w3.org/2000/svg">
<path fill-rule="evenodd" clip-rule="evenodd" d="M828.562 45.554C826.082 52.6005 826.067 59.8101 828.92 65.6579C832.535 73.0768 836.686 77.7047 840.027 78.0416C843.549 78.4352 849.112 74.4882 854.131 68.0907C854.656 66.4239 852.032 58.5937 843.867 52.1394C840.57 49.54 835.285 46.3306 828.562 45.554ZM783.256 96.7767C779.553 96.7767 776.031 94.6879 774.489 91.2125C769.197 79.258 768.018 51.8167 801.463 33.5037C806.497 30.7446 811.453 28.968 816.262 27.9963C818.553 24.4429 821.288 21.0526 824.445 17.9071C842.681 -0.281892 868.885 -4.94527 894.543 5.43828C899.385 7.39938 901.654 12.7578 899.614 17.407C897.566 22.0598 891.985 24.2337 887.136 22.2761C862.805 12.428 846.506 22.9428 839.535 29.28C848.79 32.2128 856.626 37.7344 862.196 43.8057C873.428 56.0475 876.303 70.2291 869.344 79.0913C859.838 91.2019 848.79 97.2731 838.046 96.2199C827.405 95.1525 818.527 87.4747 811.668 73.403C808.319 66.541 807.125 58.8739 807.912 51.1181C784.28 65.7714 791.935 83.8752 792.016 84.0597C794.078 88.7053 791.82 94.0708 786.978 96.0461C785.762 96.5426 784.502 96.7767 783.256 96.7767Z" fill="#F4C12A"/>
<path fill-rule="evenodd" clip-rule="evenodd" d="M1093.92 497.851L1089.62 450.959L1005.12 477.737L1093.92 497.851Z" fill="#F4C12A"/>
<path fill-rule="evenodd" clip-rule="evenodd" d="M177.047 659.448C177.187 664.714 179.253 669.046 181.014 671.8C185.477 678.793 191.509 681.536 193.076 681.162C198.102 677.922 201.502 673.88 201.499 670.972C201.499 668.232 198.344 664.657 192.847 661.164C188.597 658.464 182.858 657.968 177.047 659.448ZM147.782 713.354C144.689 713.354 141.821 711.302 140.811 708.066C134.286 687.156 139.797 666.88 155.556 653.833C158.212 651.631 161.018 649.765 163.903 648.238C164.975 644.66 166.631 641.028 169.004 637.41C177.925 619.346 198.706 611.647 216.551 619.857C220.255 621.562 221.939 626.083 220.307 629.957C218.671 633.832 214.339 635.58 210.645 633.878C200.304 629.115 188.337 633.239 182.667 643.24C189.007 643.161 195.189 644.728 200.461 648.071C210.874 654.685 216.159 662.388 216.162 670.965C216.169 679.603 210.594 687.912 200.471 694.359C192.923 699.165 181.905 695.743 173.039 685.861C168.71 681.033 164.961 674.497 163.289 667.048C157.772 672.164 148.731 684.034 154.75 703.318C156.006 707.339 153.907 711.663 150.056 712.976C149.298 713.233 148.533 713.354 147.782 713.354Z" fill="#F4C12A"/>
<path fill-rule="evenodd" clip-rule="evenodd" d="M162.094 1026.81C155.748 1027.9 150.289 1030.74 147.197 1034.95C143.172 1040.43 141.519 1045.02 142.668 1047.52C143.887 1050.19 148.925 1052.45 155.507 1053.28C156.953 1052.93 161.801 1047.9 163.295 1039.58C163.877 1036.37 164.11 1031.62 162.094 1026.81ZM104.479 1010.22C104.801 1009.08 105.409 1007.99 106.306 1007.06C120.625 992.174 144.458 990.543 160.826 1003.24C164.729 1005.56 167.917 1008.21 170.49 1011.05C174.026 1011.22 177.621 1011.75 181.216 1012.65C202.396 1017.92 216.477 1034.11 218.89 1055.96C219.35 1060.16 216.184 1063.9 211.814 1064.35C207.44 1064.79 203.526 1061.75 203.063 1057.57C200.809 1037.19 186.539 1030.19 178.911 1027.88C180.364 1035.37 179.378 1042.9 177.106 1049.11C172.432 1061.85 162.921 1069.61 153.428 1068.41C146.063 1067.48 132.971 1064.33 128.086 1053.65C124.494 1045.8 126.544 1036.55 134.187 1026.16C138.024 1020.94 143.457 1016.95 149.818 1014.37C140.021 1007.54 126.34 1008.74 118.008 1017.4C115.032 1020.5 109.994 1020.7 106.762 1017.84C104.505 1015.84 103.723 1012.88 104.479 1010.22Z" fill="#10CBB4"/>
<path fill-rule="evenodd" clip-rule="evenodd" d="M1195.79 720.304C1193.12 714.701 1188.99 710.384 1184.13 708.62C1177.79 706.324 1172.92 705.996 1170.78 707.722C1168.5 709.554 1167.58 714.825 1168.44 721.149C1169.14 722.4 1175.26 725.576 1183.69 724.777C1186.96 724.471 1191.63 723.437 1195.79 720.304ZM1197.32 662.471C1198.52 662.471 1199.73 662.753 1200.86 663.341C1218.91 672.712 1226.52 694.401 1218.34 712.929C1217.06 717.164 1215.31 720.817 1213.19 723.95C1213.92 727.28 1214.32 730.755 1214.36 734.326C1214.6 755.364 1202.44 772.694 1181.85 780.675C1177.89 782.207 1173.46 780.254 1171.92 776.315C1170.39 772.373 1172.35 767.939 1176.29 766.41C1195.5 758.964 1198.69 743.876 1198.99 736.191C1192.09 739.509 1184.54 740.575 1177.94 740.097C1164.39 739.11 1154.47 732.323 1153.23 723.198C1152.27 716.119 1152.02 703.141 1161.15 695.799C1167.87 690.402 1177.36 689.871 1189.37 694.234C1195.41 696.422 1200.65 700.411 1204.76 705.64C1208.91 694.754 1204.28 682.371 1193.78 676.918C1190.02 674.968 1188.56 670.345 1190.51 666.595C1191.88 663.975 1194.55 662.471 1197.32 662.471Z" fill="#F4C12A"/>
<path fill-rule="evenodd" clip-rule="evenodd" d="M1179.77 319.746C1180.01 313.688 1178.36 308.116 1174.88 304.329C1170.3 299.367 1166.14 296.837 1163.49 297.4C1160.74 297.985 1157.69 302.133 1155.71 307.977C1155.57 309.372 1158.82 314.516 1165.85 317.777C1168.55 319.023 1173.8 320.843 1179.77 319.746ZM1203.65 269.378C1206.01 269.378 1208.32 270.485 1209.78 272.556C1221.22 288.808 1218.02 311.036 1202.55 323.418C1199.53 326.512 1196.37 328.899 1193.13 330.678C1192.27 333.872 1191.05 337.05 1189.49 340.147C1180.23 358.505 1161.9 368.117 1140.51 365.82C1136.41 365.385 1133.43 361.703 1133.87 357.6C1134.3 353.497 1138.02 350.532 1142.1 350.96C1161.94 353.069 1171.48 341.581 1175.27 335.021C1167.91 334.847 1161.01 332.494 1155.61 329.24C1144.24 322.391 1138.58 311.923 1141.53 303.191C1145.39 291.787 1152.09 284.538 1160.39 282.78C1168.68 281.016 1177.28 284.865 1185.89 294.213C1190.13 298.817 1192.87 304.632 1194.07 311.008C1202.61 303.439 1204.2 290.611 1197.54 281.152C1195.16 277.773 1195.97 273.116 1199.35 270.739C1200.66 269.82 1202.17 269.378 1203.65 269.378Z" fill="#DE4A65"/>
<path fill-rule="evenodd" clip-rule="evenodd" d="M171.681 113.928C177.306 111.686 181.718 107.918 183.752 103.193C186.418 96.9967 187.035 92.1707 185.442 89.9767C183.79 87.702 178.763 86.5945 172.63 87.1655C171.299 87.6017 167.928 92.6581 167.816 100.411C167.775 103.378 168.25 108.912 171.681 113.928ZM227.342 115.294C228.299 117.443 228.231 120.007 226.936 122.182C216.766 139.239 195.188 145.34 177.597 136.229C173.549 134.731 170.084 132.81 167.146 130.577C163.879 131.082 160.487 131.265 157.027 131.096C136.513 130.089 120.288 117.245 113.681 96.7661C112.408 92.8387 114.555 88.6211 118.476 87.3559C122.396 86.0875 126.615 88.2837 127.881 92.1796C134.031 111.169 148.393 115.224 155.915 116.014C153.082 109.225 152.422 101.966 153.19 95.7027C154.812 82.5319 162.06 73.1128 171.226 72.2634C183.199 71.1594 192.535 74.3317 197.516 81.2053C202.498 88.0633 202.485 97.4813 197.46 109.145C194.987 114.893 190.798 119.761 185.47 123.445C195.849 128.175 208.197 124.417 214.115 114.488C216.231 110.944 220.807 109.791 224.352 111.918C225.723 112.742 226.737 113.935 227.342 115.294Z" fill="#DE4A65"/>
<path fill-rule="evenodd" clip-rule="evenodd" d="M69.2806 562.744L27.5934 584.651L0.439453 501.842L69.2806 562.744Z" fill="#3F0D4A"/>
<path fill-rule="evenodd" clip-rule="evenodd" d="M229.229 899.923L209.955 854.34L292.764 831.082L229.229 899.923Z" fill="#BD77C7"/>
<path fill-rule="evenodd" clip-rule="evenodd" d="M1019.09 1110.63L987.439 1078.51L941.268 1152.34L1019.09 1110.63Z" fill="#BD77C7"/>
<path fill-rule="evenodd" clip-rule="evenodd" d="M368.59 136.585L409.044 150.652L419.472 67.8433L368.59 136.585Z" fill="#BD77C7"/>
<path fill-rule="evenodd" clip-rule="evenodd" d="M920.351 840.442C916.161 843.482 913.78 847.635 912.499 850.69C909.255 858.432 910.386 865.179 911.578 866.353C917.324 869.181 922.713 870.067 925.112 868.497C927.267 867.081 928.438 862.522 928.306 855.995C928.199 850.595 925.183 844.986 920.351 840.442ZM921.86 884.958C916.667 884.958 910.843 883.421 904.693 880.362C896.324 876.195 892.94 864.363 896.288 850.906C897.862 844.565 901.117 837.833 906.203 832.338C898.612 830.08 883.757 828.445 870.898 843.544C868.114 846.808 863.267 847.148 860.08 844.294C856.897 841.437 856.568 836.476 859.352 833.205C873.582 816.51 893.883 810.938 913.669 818.314C916.646 819.426 919.469 820.78 922.096 822.335C926.172 821.102 930.722 820.498 935.823 820.754C966.973 822.258 976.492 843.694 977.17 854.824C977.43 859.153 974.225 862.881 969.996 863.152C965.899 863.433 962.187 860.173 961.876 855.885C961.712 854.012 959.671 838.66 937.379 836.607C941.258 842.436 943.496 848.989 943.628 855.677C943.881 868.332 940.43 877.099 933.374 881.731C930.094 883.886 926.197 884.958 921.86 884.958Z" fill="#10CBB4"/>
<path fill-rule="evenodd" clip-rule="evenodd" d="M563.611 86.7421L603.491 45.181L669.21 135.831L563.611 86.7421Z" fill="#742384"/>
<path fill-rule="evenodd" clip-rule="evenodd" d="M1052.01 925.863L1062.63 971.757L1143.8 933.485L1052.01 925.863Z" fill="#742384"/>
<path fill-rule="evenodd" clip-rule="evenodd" d="M66.2884 268.381L38.3516 305.722L116.172 346.201L66.2884 268.381Z" fill="#742384"/>
<path fill-rule="evenodd" clip-rule="evenodd" d="M539.578 1066.57C520.89 1066.57 505.092 1059.18 493.736 1045.07C453.747 995.393 483.881 871.527 490.328 847.2C493.383 835.665 505.2 828.796 516.736 831.856C528.265 834.909 535.136 846.736 532.081 858.271C518.399 910.031 507.903 993.798 527.383 1017.98C529.788 1020.97 533.114 1023.7 540.87 1023.34C596.542 1020.89 711.399 950.692 750.956 923.852C760.829 917.152 774.255 919.73 780.954 929.602C787.648 939.47 785.079 952.903 775.209 959.603C759.624 970.184 620.694 1063.07 542.771 1066.5C541.698 1066.55 540.633 1066.57 539.578 1066.57Z" fill="#DE4A65"/>
<path fill-rule="evenodd" clip-rule="evenodd" d="M660.382 1027.16C672.983 1020.84 685.286 1014.26 696.901 1007.75L678.595 968.282C668.606 973.902 658.254 979.514 647.791 984.904C650.123 995.571 654.554 1013.64 660.382 1027.16Z" fill="#973043"/>
<path fill-rule="evenodd" clip-rule="evenodd" d="M746.953 1097.24C734.121 1097.24 721.789 1093.05 710.71 1084.84C652.022 1041.31 639.687 883.638 638.474 865.802C637.668 853.9 646.656 843.599 658.552 842.786C670.444 841.933 680.753 850.965 681.566 862.861C681.595 863.264 684.417 903.442 693.412 947.488C704.228 1000.47 719.914 1037.89 736.443 1050.13C741.341 1053.77 745.758 1054.78 751.2 1053.52C825.69 1036.32 891.346 984.35 892.001 983.825C901.313 976.387 914.904 977.892 922.348 987.202C929.799 996.508 928.305 1010.09 919.004 1017.54C916.031 1019.93 845.227 1076.15 760.915 1095.62C756.221 1096.7 751.553 1097.24 746.953 1097.24Z" fill="#DE4A65"/>
<path fill-rule="evenodd" clip-rule="evenodd" d="M739.184 937.154C739.184 937.154 753.218 899.848 782.391 918.714C793.56 925.939 839.34 979.143 845.549 990.966C853.644 1006.39 813.821 1012.15 784.1 993.764C754.384 975.363 746.94 963.688 739.184 937.154Z" fill="#DE4A65"/>
<path fill-rule="evenodd" clip-rule="evenodd" d="M482.125 883.415L523.824 895.919C526.174 882.814 528.935 870.267 531.847 859.142L486.624 862.174C485.235 868.186 483.676 875.369 482.125 883.415Z" fill="#973043"/>
<path fill-rule="evenodd" clip-rule="evenodd" d="M638.727 869.279C639.223 875.748 640.3 887.953 642.276 903.456L686.944 910.203C684.309 892.144 682.808 877.282 682.092 869.279H638.727Z" fill="#973043"/>
<path fill-rule="evenodd" clip-rule="evenodd" d="M323.256 215.309C325.139 211.525 329.004 207.179 336.527 204.27C339.212 203.23 342.117 203.522 344.957 204.522C343.661 184.167 345.083 164.02 353.315 162C362.706 159.696 364.84 190.647 367.986 219.928C368.907 228.493 373.306 246.191 368.119 250.868C363.508 255.03 343.931 263.653 338.097 265.589C328.058 268.927 324.491 252.438 324.491 252.438C324.491 252.438 305.965 248.568 308.124 228.482C309.294 217.631 316.691 215.237 323.256 215.309Z" fill="#DE4A65"/>
<mask id="mask0_11107_16677" style="mask-type:alpha" maskUnits="userSpaceOnUse" x="327" y="220" width="153" height="366">
<path d="M455.303 585.242C459.814 585.843 464.554 585.026 468.816 582.599C479.182 576.698 482.803 563.511 476.907 553.142C476.011 551.565 381.591 351.9 370.703 240.462C369.541 228.589 358.969 219.908 347.106 221.064C335.238 222.223 326.553 232.79 327.716 244.664C339.504 365.314 435.521 567.755 439.369 574.513C442.842 580.615 448.843 584.381 455.303 585.242Z" fill="white"/>
</mask>
<g mask="url(#mask0_11107_16677)">
<path d="M455.303 585.242C459.814 585.843 464.554 585.026 468.816 582.6C479.182 576.699 482.803 563.511 476.907 553.142C476.011 551.566 381.591 351.901 370.703 240.463C369.541 228.589 358.969 219.909 347.106 221.065C335.238 222.224 326.553 232.791 327.716 244.664C339.504 365.315 435.521 567.756 439.369 574.513C442.842 580.616 448.843 584.382 455.303 585.242Z" fill="#DE4A65"/>
<path fill-rule="evenodd" clip-rule="evenodd" d="M430.115 442.921L421.984 538.419L432.147 560.77L440.277 465.272L430.115 442.921Z" fill="#973043"/>
</g>
<path fill-rule="evenodd" clip-rule="evenodd" d="M308.311 232.374C308.462 233.656 308.693 234.923 308.898 236.176C309.585 238.606 310.345 241.04 311.86 242.901C313.303 244.788 315.207 246.149 317.338 246.855C318.411 247.236 319.61 247.441 320.787 247.503C319.764 244.903 319.718 242.131 320.113 239.686C320.761 236.061 322.334 232.839 324.21 229.923C326.153 227.104 328.565 224.526 331.434 222.481C333.755 220.857 336.451 219.73 339.241 219.187C339.262 219.158 339.287 219.129 339.309 219.104C339.59 218.758 339.867 218.395 340.13 218.017C340.659 217.264 341.156 216.465 341.609 215.623C342.012 216.49 342.372 217.401 342.685 218.348C342.739 218.514 342.782 218.694 342.833 218.863C349.326 218.902 355.258 222.143 359.109 226.661C353.811 223.043 347.462 221.124 341.739 222.33C335.98 223.417 331.48 227.633 328.338 232.641C326.812 235.129 325.606 237.8 325.181 240.511C324.696 243.179 325.12 245.944 326.438 247.459C327.694 248.827 329.925 249.076 332.416 247.816C334.828 246.559 337.07 244.489 339.133 242.268L342.149 244.302C341.357 245.58 340.673 246.912 340.569 248.277C340.407 249.634 340.821 250.998 341.688 252.251C343.474 254.771 346.583 256.539 349.632 258.073C346.281 257.371 342.775 256.374 340.007 253.666C338.874 252.579 338.028 251.027 337.729 249.346C336.771 250.235 335.753 251.074 334.547 251.776C333.68 252.172 332.834 252.611 331.912 252.939C330.897 253.112 329.965 253.522 328.846 253.407C327.334 253.533 325.783 252.989 324.451 252.143L324.49 252.438C321.215 252.478 318.454 251.79 315.773 250.386C313.141 249 310.993 246.783 309.679 244.273C308.279 241.76 307.915 238.988 307.624 236.353C307.624 235.017 307.606 233.692 307.667 232.382L308.124 228.483L308.311 232.374Z" fill="#973043"/>
<path fill-rule="evenodd" clip-rule="evenodd" d="M978.171 226.427C976.803 222.431 973.542 217.61 966.473 213.733C963.946 212.35 961.03 212.253 958.079 212.872C962.045 192.866 963.291 172.708 955.401 169.619C946.392 166.095 940.201 196.498 933.221 225.106C931.181 233.476 924.489 250.441 929.014 255.762C933.034 260.493 951.308 271.621 956.834 274.314C966.343 278.944 972.055 263.067 972.055 263.067C972.055 263.067 990.927 261.677 991.435 241.48C991.704 230.567 984.689 227.219 978.171 226.427Z" fill="#DE4A65"/>
<path fill-rule="evenodd" clip-rule="evenodd" d="M877.74 997.51C877.74 997.51 898.62 963.557 923.669 987.635C933.257 996.855 968.071 1057.81 971.915 1070.6C976.929 1087.27 936.738 1085.35 911.063 1061.64C885.389 1037.92 880.307 1025.04 877.74 997.51Z" fill="#DE4A65"/>
<path fill-rule="evenodd" clip-rule="evenodd" d="M745.394 830.125C753.694 767.311 768.599 549.764 782.77 430.517C796.941 311.278 830.35 221.546 774.858 223.177L774.844 223.173C705.451 225.366 546.675 228.969 504.144 234.852C504.144 234.852 473.87 238.859 469.489 273.533C467.142 292.135 445.798 409.431 435.259 525.437C426.163 625.603 427.603 725.34 426.599 753.631C424.414 814.68 425.267 860.644 486.982 864.87C533.429 868.057 630.044 883.343 693.271 885.431C690.463 885.345 687.605 885.23 684.686 885.089C700.675 885.007 738.85 879.549 745.394 830.125Z" fill="#DE4A65"/>
<path fill-rule="evenodd" clip-rule="evenodd" d="M729.418 764.114C736.469 710.967 746.281 560.377 754.546 459.117C763.134 353.947 793.34 286.806 747.642 283.674C688.435 279.616 553.645 284.599 517.288 289.56C517.288 289.56 491.408 292.93 487.686 322.261C485.555 339.089 468.746 431.2 459.355 535.301C453.787 597.059 450.198 660.877 446.977 722.732C445.156 757.651 443.525 791.148 488.755 794.247C528.467 796.969 630.838 809.066 684.89 810.873C682.496 810.79 680.049 810.693 677.551 810.578C691.225 810.52 723.853 805.923 729.418 764.114Z" fill="#742384"/>
<path fill-rule="evenodd" clip-rule="evenodd" d="M844.495 320.366C847.353 298.794 853.987 276.123 845.694 255.026C835.572 229.223 797.707 222.451 774.858 223.175C830.35 221.544 796.944 311.276 782.773 430.515C768.602 549.762 753.693 767.31 745.393 830.13C740.739 865.326 716.335 883.586 685.467 885.113C714.712 883.662 748.892 889.933 772.817 865.974C792.858 845.906 796.389 815.61 798.29 787.852C801.868 735.646 817.093 526.771 844.495 320.366Z" fill="#973043"/>
<path fill-rule="evenodd" clip-rule="evenodd" d="M580.426 832.121C579.879 840.11 572.957 846.137 564.974 845.586C556.998 845.042 550.969 838.126 551.519 830.137C552.066 822.159 558.977 816.129 566.954 816.672C574.941 817.22 580.973 824.143 580.426 832.121Z" fill="#973043"/>
<path fill-rule="evenodd" clip-rule="evenodd" d="M595.402 269.039C592.036 268.809 589.301 266.087 589.135 262.638C588.955 258.916 591.827 255.762 595.546 255.578L671.043 251.928C674.779 251.719 677.921 254.621 678.105 258.336C678.285 262.055 675.413 265.216 671.698 265.396L596.197 269.047C595.927 269.061 595.664 269.057 595.402 269.039Z" fill="#973043"/>
<path fill-rule="evenodd" clip-rule="evenodd" d="M779.715 554.676C783.78 612.923 793.265 644.078 808.17 648.142C808.17 648.142 810.881 620.373 816.301 564.835L779.715 554.676Z" fill="#6B222F"/>
<mask id="mask1_11107_16677" style="mask-type:alpha" maskUnits="userSpaceOnUse" x="568" y="507" width="75" height="79">
<path d="M597.929 508.6C577.921 513.003 565.257 532.279 569.641 551.654C571.084 558.052 574.21 563.665 578.477 568.155C580.666 570.468 575.787 583.213 578.501 584.879C579.639 585.581 582.75 583.412 585.853 581.241C588.812 579.171 591.765 577.098 592.986 577.525C599.416 579.794 606.59 580.355 613.79 578.772C633.795 574.372 646.465 555.096 642.081 535.715C638.308 519.023 623.106 507.696 606.177 507.696C603.458 507.696 600.698 507.991 597.929 508.6ZM611.554 560.839C610.459 560.258 610.055 558.904 610.655 557.818L625.263 531.387C625.866 530.31 627.239 529.912 628.33 530.501C629.422 531.087 629.823 532.444 629.229 533.524L614.618 559.952C614.208 560.694 613.433 561.116 612.634 561.116C612.268 561.116 611.896 561.026 611.554 560.839ZM603.675 553.84C603.493 551.57 603.353 549.942 597.838 547.713C591.379 545.114 587.261 543.543 587.261 538.097C587.261 532.661 592.383 530.411 597.074 530.411C598.257 530.411 599.281 530.55 600.194 530.766C602.027 531.127 604.052 531.864 605.571 533.336V533.325C605.955 533.66 606.364 534.156 606.724 534.754C606.762 534.815 606.797 534.872 606.833 534.933C606.926 535.097 607.014 535.271 607.105 535.45C607.131 535.51 607.16 535.565 607.187 535.626C607.649 536.636 607.98 537.832 607.98 539.056C607.98 539.273 608.006 539.639 607.93 540.046C607.927 540.084 607.916 540.119 607.907 540.153C607.886 540.249 607.851 540.338 607.816 540.436C607.798 540.482 607.787 540.517 607.766 540.56C607.755 540.589 607.737 540.621 607.717 540.661C607.321 541.421 606.534 541.949 605.609 541.949C604.793 541.949 604.087 541.542 603.663 540.927C603.631 540.872 603.598 540.82 603.569 540.765C603.502 540.656 603.446 540.537 603.402 540.416C603.396 540.399 603.388 540.381 603.388 540.367C603.367 540.306 603.344 540.243 603.332 540.182C603.221 539.813 603.171 539.417 603.171 539.082C603.171 539.013 603.165 538.949 603.159 538.874C603.159 538.767 603.156 538.669 603.145 538.565C603.075 537.991 602.902 537.532 602.691 537.162C602.671 537.124 602.647 537.087 602.627 537.049C602.58 536.983 602.545 536.925 602.501 536.859C601.318 535.184 598.801 534.335 596.957 534.335C594.478 534.335 591.815 535.678 591.815 538.147C591.815 540.612 594.2 542.091 598.248 543.407C606.157 546.263 607.787 548.573 608.498 551.391C609.282 554.475 607.927 561.526 597.996 561.526C589.561 561.526 587.24 556.057 586.643 553.329C586.388 552.252 586.383 551.498 586.383 551.131C586.383 549.841 587.442 548.798 588.745 548.798C589.962 548.798 590.954 549.708 591.089 550.863C591.089 550.877 591.098 550.88 591.098 550.892C591.109 550.961 591.121 551.088 591.133 551.255C591.148 551.385 591.171 551.518 591.171 551.66C591.171 551.752 591.174 551.844 591.18 551.943C591.203 552.13 591.227 552.335 591.262 552.549C591.352 553.002 591.508 553.508 591.765 554.022C591.8 554.068 591.821 554.117 591.847 554.166C592.649 555.633 594.291 557.076 597.467 557.238C597.66 557.244 597.85 557.244 598.034 557.244C602.36 557.244 603.657 555.716 603.675 553.84Z" fill="white"/>
</mask>
<g mask="url(#mask1_11107_16677)">
<path fill-rule="evenodd" clip-rule="evenodd" d="M560.664 593.014H651.054V499.701H560.664V593.014Z" fill="#10CBB4"/>
</g>
<mask id="mask2_11107_16677" style="mask-type:alpha" maskUnits="userSpaceOnUse" x="510" y="603" width="153" height="117">
<path d="M567.12 604.562C564.747 605.989 563.147 608.053 562.465 610.202C561.775 612.339 559.637 619.191 558.674 621.969C557.714 624.759 554.484 634.03 552.148 637.637C549.589 641.586 546.33 644.434 543.9 642.685C541.997 641.32 542.937 636.987 543.51 634.465C544.086 631.942 545.757 626.763 546.517 624.237C547.288 621.714 548.44 618.408 548.635 615.819C548.821 613.235 546.777 610.904 544.892 610.527C543.015 610.147 541.02 609.802 540.249 611.292C539.478 612.783 539.988 615.045 539.736 617.179C539.504 619.107 538.581 620.952 537.919 622.764C537.182 624.785 536.46 626.824 535.79 628.871C534.798 631.907 533.907 634.989 533.23 638.112C532.574 641.154 531.938 644.39 532.222 647.514C532.437 649.938 533.359 652.397 535.202 653.966C536.724 655.259 538.773 655.845 540.759 655.711C544.138 655.488 547.253 653.206 549.583 650.863C550.655 649.781 552.4 648.157 552.899 646.638C550.775 653.165 548.586 659.672 546.577 666.229C546.488 666.504 546.405 666.783 546.216 666.994C545.998 667.252 545.683 667.383 545.367 667.51C545.135 667.603 544.903 667.702 544.671 667.8C543.017 668.372 541.45 669.001 540.028 669.674C536.449 671.376 533.442 673.301 531.078 675.05C527.742 677.329 524.633 679.942 521.884 682.92C518.325 686.759 515.402 691.228 513.43 696.093C511.593 700.611 510.077 705.93 511.335 710.746C512.55 715.403 516.399 718.906 521.171 719.422C524.518 719.796 527.917 718.778 530.823 717.059C533.72 715.333 536.174 712.921 538.378 710.346C544.86 702.76 549.039 693.71 552.271 684.329C553.117 681.885 553.916 679.417 554.716 676.955C564.477 674.229 588.058 669.758 594.142 668.702C600.289 667.638 630.032 663.659 637.13 662.682C644.238 661.717 659.304 660.742 661.124 658.901C662.946 657.054 662.556 654.534 661.602 652.974C660.642 651.425 659.395 650.451 653.348 650.648C647.301 650.84 625.618 653.658 619.895 654.36C614.169 655.062 577.738 660.354 571.739 661.644C568.977 662.233 564.053 663.022 558.611 664.141C558.616 664.123 558.622 664.109 558.628 664.086C558.628 664.086 573.258 611.292 573.645 609.802C574.029 608.317 575.307 604.043 573.645 603.46C573.104 603.272 572.473 603.17 571.788 603.17C570.369 603.17 568.713 603.599 567.12 604.562ZM521.171 708.223C519.216 705.819 521.695 698.898 527.072 692.103C533.815 683.581 542.671 680.281 542.671 680.281C542.41 680.38 541.94 682.386 541.825 682.702C541.444 683.738 541.034 684.77 540.607 685.799C539.702 687.971 538.699 690.111 537.647 692.216C535.477 696.549 533.038 700.788 529.863 704.454C528.648 705.854 525.553 709.169 523.088 709.169C522.374 709.169 521.718 708.896 521.171 708.223Z" fill="white"/>
</mask>
<g mask="url(#mask2_11107_16677)">
<path fill-rule="evenodd" clip-rule="evenodd" d="M502.936 727.536H670.346V595.138H502.936V727.536Z" fill="white"/>
</g>
<mask id="mask3_11107_16677" style="mask-type:alpha" maskUnits="userSpaceOnUse" x="572" y="599" width="39" height="53">
<path d="M601.274 601.128L600.507 603.521C600.507 603.521 597.756 599.945 592.151 600.752C586.543 601.558 579.75 609.246 575.696 621.29C571.645 633.333 573.117 640.507 573.823 643.452C574.525 646.399 576.156 650.356 581.872 651.191C587.588 652.035 591.817 647.905 594.012 642.536C594.012 642.536 594.118 647.042 598.037 648.321C601.956 649.596 607.438 645.793 609.402 643.98C611.369 642.169 610.476 632.742 610.476 632.742C610.476 632.742 609.279 635.764 605.357 636.918C601.441 638.074 605.492 622.446 605.492 622.446C605.492 622.446 608.866 607.154 609.402 604.872C609.934 602.585 609.715 600.379 607.145 599.624C606.162 599.334 605.181 599.136 604.3 599.136C602.892 599.136 601.745 599.65 601.274 601.128ZM586.607 639.291C582.881 638.579 582.401 633.015 582.633 629.896C582.864 626.776 583.774 623.089 585.361 619.53C588.366 612.818 592.072 610.747 594.803 609.705C596.995 608.861 599.541 609.627 598.824 613.217C598.142 616.635 596.538 622.265 594.516 628.271C592.467 634.338 590.207 639.342 587.146 639.342C586.967 639.342 586.789 639.325 586.607 639.291Z" fill="white"/>
</mask>
<g mask="url(#mask3_11107_16677)">
<path fill-rule="evenodd" clip-rule="evenodd" d="M564.863 659.25H618.785V591.185H564.863V659.25Z" fill="white"/>
</g>
<mask id="mask4_11107_16677" style="mask-type:alpha" maskUnits="userSpaceOnUse" x="603" y="595" width="41" height="79">
<path d="M629.856 596.364C627.082 597.906 624.1 602.211 623.583 603.493L624.117 599.687C624.117 599.687 624.885 598.394 621.728 597.62C618.578 596.846 616.94 596.627 616.229 599.251C615.522 601.873 603.625 665.803 603.625 665.803C603.625 665.803 602.817 669.568 603.625 671.59C604.435 673.608 607.203 674.789 609.883 671.59C612.559 668.387 613.57 655.383 614.5 649.03C615.422 642.672 615.747 641.168 615.747 641.168C615.747 641.168 618.019 644.633 623.301 645.493C629.453 646.495 633.845 641.87 637.093 635.295C640.44 628.53 642.6 618.894 642.968 613.284C643.328 607.867 642.752 601.293 640.263 597.816C638.899 595.902 636.727 595.186 634.587 595.186C632.832 595.186 631.103 595.665 629.856 596.364ZM618.213 635.073C618.213 635.073 619.331 628.801 620.989 622.463C622.553 616.472 624.476 609.406 628.517 606.421C633.523 602.708 634.327 609.857 634.065 613.524C633.78 617.532 632.829 621.412 631.534 625.186C630.438 628.388 629.242 631.735 626.916 634.18C625.669 635.494 623.58 636.534 621.603 636.534C620.344 636.534 619.132 636.112 618.213 635.073Z" fill="white"/>
</mask>
<g mask="url(#mask4_11107_16677)">
<path fill-rule="evenodd" clip-rule="evenodd" d="M595.363 681.567H650.973V587.187H595.363V681.567Z" fill="white"/>
</g>
<mask id="mask5_11107_16677" style="mask-type:alpha" maskUnits="userSpaceOnUse" x="642" y="589" width="34" height="54">
<path d="M658.16 592.718C653.851 596.29 652.408 598.158 648.817 604.69C644.734 612.105 642.451 621.182 642.943 629.598C643.069 631.653 643.344 633.71 644.067 635.642C644.784 637.576 645.969 639.378 647.655 640.606C650.287 642.529 653.866 642.862 656.98 642.101C660.899 641.14 665.348 638.382 666.583 637.427C667.83 636.462 673.248 631.659 674.003 630.132C674.761 628.608 673.707 626.086 673.707 626.086C673.338 625.182 672.627 623.041 671.462 622.668C670.046 622.215 668.591 624.418 667.757 625.403C666.87 626.467 665.732 627.308 664.663 628.198C662.292 630.172 656.945 633.653 653.901 630.824C652.61 629.635 652.452 626.809 652.713 624.992C652.935 623.42 653.974 620.748 654.08 620.745C656.676 620.685 659.371 619.635 660.794 619.038C665.026 617.262 668.755 614.513 671.325 610.727C674.869 605.502 678.867 595.949 672.314 591.403C671.339 590.726 670.201 590.296 669.024 590.101C668.017 589.934 667.043 589.842 666.1 589.842C663.191 589.842 660.583 590.7 658.16 592.718ZM662.055 600.273C662.74 599.593 663.522 598.948 664.464 598.718C665.828 598.379 666.987 599.034 667.233 600.371C667.625 602.426 666.522 604.819 665.298 606.423C664.139 607.941 662.623 609.164 661.002 610.188C660.258 610.656 659.491 611.032 658.675 611.365C656.427 612.274 655.771 612.053 655.739 612.257C656.202 609.755 658.815 603.53 662.055 600.273Z" fill="white"/>
</mask>
<g mask="url(#mask5_11107_16677)">
<path fill-rule="evenodd" clip-rule="evenodd" d="M634.768 650.429H683.924V581.894H634.768V650.429Z" fill="white"/>
</g>
<path fill-rule="evenodd" clip-rule="evenodd" d="M652.524 383.908C656.008 384.014 657.437 386.037 657.7 389.826C655.141 405.407 638.78 417.182 619.251 416.753C599.722 416.325 583.889 403.844 582.008 388.167C581.728 384.777 583.333 382.068 587.437 382.48C587.437 382.48 609.546 388.527 620.302 388.73C631.056 388.932 652.524 383.908 652.524 383.908Z" fill="#3F0D4A"/>
<mask id="mask6_11107_16677" style="mask-type:alpha" maskUnits="userSpaceOnUse" x="581" y="382" width="77" height="35">
<path d="M657.698 389.829C655.139 405.41 638.78 417.185 619.249 416.757C599.72 416.329 583.887 403.847 582.007 388.17C581.728 384.782 583.333 382.072 587.436 382.484C587.436 382.484 609.544 388.53 620.3 388.734C631.054 388.936 652.522 383.911 652.522 383.911C652.689 383.916 652.85 383.925 653.007 383.939C656.141 384.213 657.447 386.22 657.698 389.829Z" fill="white"/>
</mask>
<g mask="url(#mask6_11107_16677)">
<path fill-rule="evenodd" clip-rule="evenodd" d="M650.637 413.847C650.637 413.847 639.969 397.279 620.311 396.908C600.652 396.536 590.627 413.767 590.627 413.767C590.627 413.767 596.821 424.811 622.001 422.43C647.18 420.052 650.637 413.847 650.637 413.847Z" fill="#DE4A65"/>
</g>
<path d="M693.266 349.183C681.36 348.307 670.996 357.249 670.12 369.155C670.041 370.235 670.077 371.179 670.205 372.651C670.354 374.363 671.863 375.63 673.575 375.48C675.286 375.331 676.553 373.823 676.404 372.111L676.352 371.468L676.303 370.444L676.326 369.612C676.95 361.133 684.33 354.765 692.809 355.389C701.29 356.014 707.658 363.393 707.035 371.867C707.005 372.268 706.948 372.665 706.849 373.167L706.59 374.338C706.195 376.01 707.229 377.687 708.901 378.083C710.573 378.479 712.25 377.444 712.646 375.772C712.987 374.332 713.159 373.41 713.24 372.329C714.116 360.423 705.174 350.06 693.266 349.183Z" fill="#DE4A65"/>
<path d="M557.852 347.324C545.945 346.447 535.581 355.39 534.705 367.296C534.626 368.375 534.661 369.316 534.79 370.792C534.938 372.503 536.447 373.771 538.159 373.622C539.871 373.473 541.138 371.965 540.989 370.253L540.904 369.06C540.879 368.551 540.882 368.151 540.911 367.753C541.535 359.274 548.916 352.905 557.395 353.53C565.875 354.154 572.243 361.533 571.618 370.016C571.589 370.412 571.534 370.803 571.436 371.302L571.176 372.478C570.78 374.15 571.814 375.826 573.486 376.222C575.158 376.618 576.835 375.584 577.231 373.912C577.576 372.452 577.746 371.543 577.824 370.469C578.701 358.562 569.759 348.2 557.852 347.324Z" fill="#DE4A65"/>
<path fill-rule="evenodd" clip-rule="evenodd" d="M800.263 575.887C795.721 575.887 791.144 574.463 787.248 571.515C777.777 564.345 775.928 550.878 783.123 541.436C784.215 540.001 903.818 355.677 929.233 247.325C931.94 235.779 943.537 228.616 955.111 231.307C966.697 234.004 973.892 245.554 971.185 257.096C943.669 374.407 822.12 561.254 817.427 567.408C813.191 572.964 806.765 575.887 800.263 575.887Z" fill="#DE4A65"/>
<path fill-rule="evenodd" clip-rule="evenodd" d="M973.311 262.929C984.286 268.446 991.861 253.526 992.601 245.909C993.34 238.295 988.196 228.031 980.272 229.365" fill="#DE4A65"/>
<path fill-rule="evenodd" clip-rule="evenodd" d="M975.291 246.137C984.647 240.698 982.116 215.174 959.854 215.346L975.291 246.137Z" fill="#DE4A65"/>
<path fill-rule="evenodd" clip-rule="evenodd" d="M991.988 247.53C991.669 248.775 991.274 249.991 990.908 251.197C989.906 253.505 988.836 255.802 987.095 257.44C985.418 259.108 983.357 260.199 981.157 260.614C980.047 260.85 978.834 260.889 977.663 260.8C979.017 258.374 979.423 255.648 979.354 253.19C979.193 249.533 978.062 246.152 976.59 243.032C975.039 240.002 972.992 237.147 970.425 234.757C968.343 232.85 965.823 231.386 963.137 230.488C963.119 230.456 963.101 230.424 963.08 230.395C962.847 230.016 962.624 229.622 962.412 229.218C961.989 228.41 961.604 227.554 961.263 226.664C960.75 227.469 960.276 228.317 959.842 229.207C959.766 229.368 959.702 229.537 959.626 229.698C953.207 228.885 946.913 231.3 942.512 235.247C948.227 232.374 954.754 231.315 960.258 233.258C965.809 235.082 969.7 239.823 972.149 245.168C973.334 247.823 974.174 250.61 974.238 253.337C974.368 256.027 973.585 258.696 972.084 260.016C970.659 261.201 968.422 261.154 966.121 259.584C963.902 258.034 961.96 255.698 960.208 253.24L956.962 254.846C957.58 256.21 958.079 257.612 958 258.968C957.982 260.328 957.393 261.619 956.373 262.739C954.277 264.986 950.97 266.321 947.753 267.433C951.157 267.179 954.754 266.657 957.849 264.353C959.113 263.43 960.154 262.009 960.671 260.396C961.497 261.394 962.398 262.36 963.493 263.204C964.304 263.709 965.08 264.253 965.949 264.696C966.929 265 967.797 265.526 968.918 265.562C970.397 265.881 972.002 265.548 973.43 264.893L973.355 265.176C976.583 265.644 979.408 265.33 982.244 264.299C985.027 263.276 987.439 261.376 989.073 259.072C990.785 256.782 991.511 254.099 992.146 251.544C992.319 250.224 992.512 248.921 992.624 247.623L992.681 243.723L991.988 247.53Z" fill="#973043"/>
<path fill-rule="evenodd" clip-rule="evenodd" d="M477.932 1211.43C529.949 1236.79 612.266 1262.04 724.883 1287.2C724.883 1287.2 868.444 1320.23 907.227 1280.17C932.123 1254.45 532.911 1193.63 532.911 1193.63C532.911 1193.63 399.906 1173.4 477.932 1211.43Z" fill="#742384"/>
</svg>
