<svg width="600" height="600" viewBox="0 0 600 600" fill="none" xmlns="http://www.w3.org/2000/svg">
<g clip-path="url(#clip0_568_10363)">
<g clip-path="url(#clip1_568_10363)">
<path d="M198.632 476.937C85.0174 434.514 -11.1984 317.386 2.02542 207.315C8.73094 151.498 46.2169 75.5776 113.29 60.6463C162.226 49.7533 209.352 75.2297 231.977 87.4701C310.12 129.73 300.398 178.389 358.702 201.877C434.311 232.329 490.08 166.364 547.485 199.223C589.634 223.355 606.867 286.008 597.482 331.241C573.947 444.731 364.165 538.752 198.632 476.937Z" fill="#742384"/>
</g>
<path d="M274.172 591.119C389.384 591.119 482.782 559.987 482.782 521.583C482.782 483.179 389.384 452.046 274.172 452.046C158.961 452.046 65.563 483.179 65.563 521.583C65.563 559.987 158.961 591.119 274.172 591.119Z" fill="#3F0D4A"/>
<path d="M298.724 400.554C294.919 376.025 299.904 350.087 299.904 350.087C228.293 357.976 113.089 374.832 113.089 374.832C145.394 391.359 257.338 403.852 257.338 403.852C271.353 403.015 285.229 401.886 298.724 400.567V400.554Z" fill="#624029"/>
<path d="M298.724 400.554C376.74 392.944 441.629 379.107 441.705 379.094C423.847 360.665 299.904 350.087 299.904 350.087C299.904 350.087 294.919 376.025 298.724 400.554Z" fill="#815C41"/>
<g clip-path="url(#clip2_568_10363)">
<path d="M132.464 96.6266C132.464 96.6266 89.0824 106.88 67.5026 85.9374C57.6048 76.3345 56.427 65.5842 61.8885 60.9115C59.0836 52.2946 61.3737 46.7144 67.0271 42.731C68.6586 41.5836 70.8659 41.1604 73.4832 41.2738C91.3464 30.7155 109.698 54.4936 120.233 59.7989C133.686 66.5746 141.891 68.5728 152.557 65.5842C158.686 55.1567 167.393 55.5887 175.655 58.3635C181.718 60.401 192.475 70.9506 180.745 77.194C174.198 80.68 171.166 76.4959 164.474 78.0797C156.095 84.5761 147.902 93.1275 132.469 96.6266H132.464Z" fill="#DE4A65"/>
<path d="M142.105 88.4853C142.105 88.4853 192.846 193.781 202.657 216.822L193.003 262.393C163.693 191.386 170.996 136.107 121.838 93.5245L142.105 88.4853Z" fill="#DE4A65"/>
<path d="M61.8885 60.9114C61.8885 60.9114 52.9591 67.8398 63.6639 81.6049C66.8789 85.741 72.2357 90.2479 81.3308 94.6283C107.19 103.062 122.318 99.1353 122.318 99.1353L190.233 255.456L199.324 209.278L143.675 91.9495C154.838 88.8213 164.457 76.1731 164.457 76.1731C164.457 76.1731 175.236 79.4889 180.532 77.6259C185.832 75.7586 184.767 69.5414 184.767 69.5414C184.767 69.5414 182.486 71.1993 177.722 72.4296C172.954 73.66 163.423 72.4296 163.423 72.4296C163.423 72.4296 154.097 76.5875 148.709 79.0744C143.322 81.5613 137.725 79.9034 126.118 73.8912C114.51 67.8791 101.039 78.6599 101.039 78.6599C101.039 78.6599 97.3096 77.4165 112.647 74.7202C127.985 72.0239 133.581 85.2916 133.581 85.2916C133.581 85.2916 114.514 94.4102 93.1698 88.8169C71.8212 83.2192 65.6487 69.825 64.8199 64.6418C64.5102 62.7003 64.7109 60.4621 66.2813 59.6069C68.41 58.4464 71.5595 59.1794 71.5595 59.1794C65.1689 53.1934 63.882 46.9893 67.6161 42.3645C56.5623 48.6865 61.8885 60.9114 61.8885 60.9114Z" fill="#BE3C54"/>
<path d="M73.4833 41.2738C73.4833 41.2738 81.3352 45.519 88.5896 51.1166C95.8439 56.7143 108.765 63.2762 108.765 63.2762H119.129C119.129 63.2762 105.589 58.8478 98.1297 54.703C92.6377 51.6533 83.32 45.0608 78.8531 41.793C77.2522 40.6237 73.4833 41.2738 73.4833 41.2738Z" fill="#BE3C54"/>
<path d="M83.2196 67.8398C83.2196 67.8398 86.5785 71.2167 92.9604 74.0308C90.932 75.0561 88.0922 79.4453 88.0922 79.4453L83.224 67.8354L83.2196 67.8398Z" fill="#BE3C54"/>
<path d="M152.557 65.5842C158.686 55.1567 167.393 55.5887 175.655 58.3635C181.718 60.401 192.475 70.9506 180.745 77.194C174.198 80.68 171.166 76.4959 164.474 78.0797C156.095 84.5761 147.902 93.1275 132.469 96.6266" fill="#BE3C54"/>
<path d="M335.167 387.265C339.625 358.373 348.633 258.453 356.289 204.217C363.905 150.269 379.845 111.269 354.714 108.542H354.705C322.617 105.13 246.309 96.3473 225.1 96.2775C225.1 96.2775 209.815 96.1379 207.224 112.621C205.832 121.478 193.697 177.141 187.04 233.108C181.269 281.624 180.933 330.407 180.104 344.207C178.311 374.006 178.254 396.505 209.767 399.538C233.039 401.776 280.177 410.41 310.272 412.212C308.95 412.134 307.602 412.042 306.224 411.942C313.762 412.107 331.642 410.057 335.167 387.265Z" fill="#DE4A65"/>
<path d="M328.41 356.357C332.214 331.886 338.255 262.502 343.071 216.075C348.057 168.013 362.505 138.851 341.627 134.741C314.098 129.323 249.166 123.354 231.098 123.433C231.098 123.433 218.094 123.411 215.909 137.329C214.653 145.321 205.165 188.934 199.271 238.972C195.764 268.745 193.243 299.657 190.927 329.669C189.618 346.632 188.418 362.919 211.42 365.402C231.321 367.553 281.32 375.358 307.07 377.23C305.94 377.147 304.78 377.055 303.602 376.955C310.063 377.182 325.404 375.655 328.414 356.357H328.41Z" fill="#742384"/>
<path d="M385.219 157.036C386.702 147.394 389.878 137.481 386.384 127.425C382.109 115.086 365.114 109.65 354.714 108.542C379.845 111.269 363.901 150.265 356.289 204.217C348.633 258.453 339.63 358.373 335.167 387.269C332.663 403.495 321.116 411.645 306.59 411.963C320.353 411.662 336.192 414.996 347.451 404.245C356.812 395.306 358.714 381.453 359.853 368.753C361.99 344.892 370.92 249.788 385.219 157.036Z" fill="#973043"/>
<path d="M269.747 118.594C268.116 118.271 266.811 116.81 266.768 115.16C266.72 113.385 268.146 112.071 269.952 112.228L306.167 115.322C307.934 115.461 309.391 117.015 309.439 118.76C309.487 120.509 308.1 121.805 306.342 121.661L270.131 118.651C270 118.638 269.874 118.62 269.747 118.594Z" fill="#973043"/>
<path d="M240.765 160.496C241.615 160.614 242.383 160.103 242.531 159.292C242.575 159.047 243.744 153.279 248.935 153.877C248.996 153.877 249.053 153.895 249.11 153.899C254.231 154.606 255.26 160.273 255.304 160.522C255.461 161.434 256.333 162.123 257.263 162.058C258.183 161.992 258.802 161.198 258.65 160.286C258.131 157.25 255.448 151.329 249.005 150.57C242.488 149.811 239.705 155.361 239.151 158.402C238.989 159.292 239.618 160.212 240.551 160.452C240.621 160.478 240.699 160.491 240.769 160.5L240.765 160.496Z" fill="#DE4A65"/>
<path d="M315.166 170.596C315.236 170.609 315.306 170.609 315.376 170.609C316.27 170.622 316.933 169.894 316.855 168.995C316.593 165.928 314.455 159.85 308.252 158.838C308.161 158.82 308.082 158.816 307.999 158.803C301.962 157.961 298.961 162.913 298.211 165.688C297.979 166.534 298.507 167.477 299.388 167.782C300.283 168.096 301.164 167.655 301.395 166.809C301.465 166.582 302.974 161.351 307.864 162.027C307.916 162.036 307.969 162.045 308.03 162.049C313.02 162.865 313.583 168.716 313.605 168.964C313.675 169.793 314.346 170.483 315.158 170.587L315.166 170.596Z" fill="#DE4A65"/>
<path fill-rule="evenodd" clip-rule="evenodd" d="M267.13 167.298C265.529 166.041 259.832 163.009 260.691 170.819C261.551 178.633 269.529 182.716 276.605 184.195C283.654 185.661 292.819 178.519 293.111 174.331C293.412 170.147 288.788 169.706 285.687 170.452C282.777 171.159 269.677 169.313 267.134 167.302L267.13 167.298Z" fill="#3F0D4A"/>
<path fill-rule="evenodd" clip-rule="evenodd" d="M267.13 167.298C266.729 166.983 266.061 166.552 265.302 166.211C265.341 167.298 265.826 169.174 268.36 170.439C272.116 172.306 279.58 173.467 283.34 173.131C286.171 172.869 287.392 171.599 287.711 170.164C287.004 170.199 286.315 170.304 285.682 170.452C282.773 171.159 269.673 169.313 267.13 167.302V167.298Z" fill="white"/>
<path fill-rule="evenodd" clip-rule="evenodd" d="M267.13 167.298C266.729 166.983 266.061 166.552 265.302 166.211C265.341 167.228 265.76 168.934 267.893 170.182C267.557 169.723 266.938 168.838 266.881 168.397C266.807 167.786 267.344 167.843 267.972 168.175C268.591 168.506 273.032 169.985 276.975 170.491C280.91 171.006 283.689 171.032 284.374 170.984C284.997 170.945 286.454 170.897 285.137 172.777C286.721 172.25 287.475 171.255 287.719 170.164C287.013 170.199 286.324 170.304 285.691 170.452C282.781 171.159 269.682 169.313 267.139 167.302L267.13 167.298Z" fill="#E2DFE8"/>
<path fill-rule="evenodd" clip-rule="evenodd" d="M263.815 177.642C266.973 181.15 271.981 183.231 276.605 184.195C279.955 184.889 283.78 183.646 286.904 181.695C284.251 178.135 280.984 175.181 276.347 174.178C271.736 173.179 267.051 174.457 263.815 177.647V177.642Z" fill="#DE4A65"/>
<path fill-rule="evenodd" clip-rule="evenodd" d="M263.815 177.642C264.608 178.523 265.511 179.313 266.506 180.02C266.196 179.44 265.826 178.528 266.1 177.791C266.537 176.613 269.847 174.213 274.245 175.077C278.629 175.954 283.636 179.078 283.414 180.757C283.261 181.879 282.341 183.187 281.137 184.108C283.139 183.676 285.137 182.799 286.904 181.695C284.251 178.135 280.984 175.181 276.347 174.178C271.736 173.179 267.051 174.457 263.815 177.647V177.642Z" fill="#DE4A65"/>
<path fill-rule="evenodd" clip-rule="evenodd" d="M274.349 182.62C274.349 182.62 269.826 180.919 269.472 180.212C269.11 179.505 269.546 179.44 271.344 179.867C273.137 180.291 275.309 181.477 276.997 181.97C278.672 182.463 279.095 182.9 278.153 183.166C277.211 183.432 276.395 183.471 274.349 182.625V182.62Z" fill="#E77E91"/>
<path d="M369.975 271.245C372.017 255.819 374.242 239.64 376.639 223.022L359.561 229.503C359.561 229.503 359.158 267.636 369.979 271.241L369.975 271.245Z" fill="#6B222F"/>
<path d="M381.415 202.926C392.15 197.886 406.921 190.203 412.304 183.724C412.304 183.724 435.284 133.847 439.502 110.414L463.08 105.03C463.08 105.03 460.794 169.846 441.164 194.71C428.296 211.01 396.041 233.767 375.347 247.515C357.148 253.662 355.495 233.012 355.495 233.012C355.495 233.012 353.126 212.786 381.411 202.926H381.415Z" fill="#DE4A65"/>
<path d="M462.866 107.106L445.308 109.593C445.308 109.593 435.018 155.806 422.655 189.671C414.59 200.395 404.05 208.611 392.709 215.596C381.607 222.437 370.03 228.506 359.752 236.603C358.801 237.349 357.733 237.864 356.616 238.174C358.461 243.833 363.246 251.603 375.352 247.511C396.046 233.767 428.3 211.006 441.168 194.706C460.794 169.841 462.866 107.098 462.866 107.098V107.106Z" fill="#BE3C54"/>
<path d="M446.7 141.665C446.7 141.665 496.464 160.832 525.433 139.493C538.716 129.711 541.852 117.154 536.133 110.732C540.853 100.972 539.039 93.987 532.98 88.3544C531.235 86.7314 528.683 85.8719 525.564 85.584C506.095 70.1784 480.502 95.4006 467.154 99.9861C450.115 105.841 440.065 106.884 427.903 101.622C422.324 88.2672 411.929 87.3771 401.69 89.3317C394.174 90.7671 379.718 101.531 392.613 110.832C399.81 116.024 404.081 111.552 411.758 114.51C420.644 123.568 428.972 135.025 446.704 141.67L446.7 141.665Z" fill="#DE4A65"/>
<path d="M536.129 110.732C536.129 110.732 545.595 120.387 530.681 134.977C526.201 139.362 519.125 143.838 507.635 147.56C475.621 153.38 450.957 144.292 450.957 144.292L434.167 134.305C421.443 128.79 412.081 112.246 412.081 112.246C412.081 112.246 398.772 114.436 392.792 111.369C386.811 108.302 389.08 101.103 389.08 101.103C389.08 101.103 391.514 103.437 396.966 105.667C402.419 107.896 413.918 107.979 413.918 107.979C413.918 107.979 424.3 114.414 430.285 118.236C436.27 122.054 443.171 120.994 457.902 115.745C472.629 110.496 486.858 125.448 486.858 125.448C486.858 125.448 491.482 124.576 473.737 118.904C455.991 113.232 447.215 128.053 447.215 128.053C447.215 128.053 468.341 141.945 494.549 138.76C520.757 135.575 530.236 120.693 532.055 114.685C532.735 112.434 532.858 109.75 531.139 108.481C528.805 106.762 524.953 107.119 524.953 107.119C533.494 101.059 536.024 93.9128 532.347 87.8265C544.426 97.1065 536.138 110.736 536.138 110.736L536.129 110.732Z" fill="#BE3C54"/>
<path d="M525.56 85.584C525.56 85.584 515.566 89.3492 506.061 94.8116C496.56 100.274 480.18 105.968 480.18 105.968L467.896 104.292C467.896 104.292 484.66 101.234 494.174 97.5254C501.175 94.7942 513.284 88.4853 519.108 85.3353C521.197 84.2053 525.56 85.5883 525.56 85.5883V85.584Z" fill="#BE3C54"/>
<path d="M509.725 115.501C509.725 115.501 505.201 118.961 497.179 121.269C499.421 122.809 502.078 128.476 502.078 128.476L509.725 115.505V115.501Z" fill="#BE3C54"/>
<path d="M427.899 101.622C422.319 88.2672 411.924 87.3771 401.686 89.3317C394.17 90.7672 379.714 101.531 392.609 110.832C399.806 116.024 404.077 111.552 411.754 114.51C420.64 123.568 428.967 135.025 446.7 141.67" fill="#BE3C54"/>
<ellipse cx="252.81" cy="386.899" rx="7.86142" ry="7.86278" fill="#973043"/>
</g>
<path d="M257.338 403.852V567.735C257.338 567.735 391.338 560.049 441.704 519.931C441.704 519.931 450.177 487.842 451.99 451.263C401.206 464.708 332.436 477.226 332.436 477.226C293.676 465.405 257.338 403.852 257.338 403.852Z" fill="#FBCCA1"/>
<path d="M257.338 403.852C241.382 434.939 210.879 464.099 210.879 464.099C179.03 464.784 136.528 453.457 102.828 442.334C100.368 473.003 101.256 506.512 113.089 525.055C113.089 525.055 171.978 559.199 257.338 567.735V403.852Z" fill="#DCAC82"/>
<path d="M441.704 379.094C441.628 379.107 376.752 392.944 298.724 400.555C285.229 401.874 271.353 403.002 257.338 403.84C257.338 403.84 293.663 465.392 332.436 477.213C332.436 477.213 401.206 464.682 451.99 451.25C471.764 446.025 488.811 440.647 498.006 435.827C498.006 435.827 453.069 393.972 441.704 379.094Z" fill="#BE906A"/>
<path d="M210.878 464.098C210.878 464.098 241.382 434.952 257.337 403.852C257.337 403.852 145.393 391.359 113.089 374.832C113.089 374.832 73.5544 406.706 47.2743 421.596C47.2743 421.596 71.1699 431.882 102.828 442.333C136.528 453.457 179.03 464.783 210.878 464.098Z" fill="#BE906A"/>
<path d="M221.671 552.623C221.037 545.013 221.037 536.135 220.403 525.988L246.256 530.744C246.13 540.771 246.321 546.755 246.256 558.496C237.349 557.946 228.387 556.048 221.671 552.623Z" fill="#815C41"/>
<g clip-path="url(#clip3_568_10363)">
<path fill-rule="evenodd" clip-rule="evenodd" d="M343.384 17.6682C344.092 19.3314 345.419 20.6553 347.08 21.3641C349.198 22.2679 352.226 23.5614 354.641 24.5917C356.117 25.222 356.115 27.3105 354.641 27.9408L347.08 31.1684C345.416 31.8772 344.092 33.2011 343.384 34.8643C342.48 36.9831 341.186 40.0106 340.156 42.4256C339.526 43.9015 337.437 43.9015 336.807 42.4256C335.776 40.0106 334.483 36.9831 333.579 34.8643C332.87 33.2011 331.544 31.8772 329.883 31.1684C327.764 30.2646 324.737 28.9711 322.322 27.9408C320.846 27.3105 320.846 25.222 322.322 24.5917C324.737 23.5614 327.764 22.2679 329.883 21.3641C331.546 20.6553 332.87 19.3289 333.579 17.6682C334.483 15.5494 335.776 12.5219 336.807 10.1069C337.437 8.63104 339.526 8.63104 340.156 10.1069C341.186 12.5219 342.48 15.5494 343.384 17.6682Z" fill="#12DEC4"/>
</g>
<g clip-path="url(#clip4_568_10363)">
<path fill-rule="evenodd" clip-rule="evenodd" d="M79.1217 216.205C80.274 219.047 82.4304 221.309 85.13 222.52C88.5744 224.064 93.4963 226.274 97.4222 228.034C99.8214 229.111 99.8173 232.679 97.4222 233.756L85.13 239.271C82.4262 240.482 80.274 242.744 79.1217 245.585C77.6526 249.205 75.5497 254.378 73.8748 258.504C72.8501 261.026 69.455 261.026 68.4303 258.504C66.7554 254.378 64.6525 249.205 63.1834 245.585C62.0311 242.744 59.8747 240.482 57.1751 239.271C53.7306 237.727 48.8088 235.517 44.8829 233.756C42.4837 232.679 42.4837 229.111 44.8829 228.034C48.8088 226.274 53.7306 224.064 57.1751 222.52C59.8788 221.309 62.0311 219.043 63.1834 216.205C64.6525 212.585 66.7554 207.413 68.4303 203.287C69.455 200.765 72.8501 200.765 73.8748 203.287C75.5497 207.413 77.6526 212.585 79.1217 216.205Z" fill="#12DEC4"/>
<path fill-rule="evenodd" clip-rule="evenodd" d="M14.0246 273.678C14.4552 274.74 15.2612 275.585 16.2701 276.038C17.5574 276.615 19.3969 277.441 20.8642 278.099C21.7608 278.501 21.7593 279.835 20.8642 280.237L16.2701 282.298C15.2596 282.751 14.4552 283.596 14.0246 284.658C13.4755 286.011 12.6896 287.944 12.0636 289.486C11.6807 290.429 10.4118 290.429 10.0288 289.486C9.40284 287.944 8.61691 286.011 8.06784 284.658C7.6372 283.596 6.83127 282.751 5.82233 282.298C4.53501 281.721 2.69553 280.895 1.22826 280.237C0.331597 279.835 0.331597 278.501 1.22826 278.099C2.69553 277.441 4.53501 276.615 5.82233 276.038C6.83281 275.585 7.6372 274.738 8.06784 273.678C8.61691 272.325 9.40284 270.392 10.0288 268.85C10.4118 267.907 11.6807 267.907 12.0636 268.85C12.6896 270.392 13.4755 272.325 14.0246 273.678Z" fill="#12DEC4"/>
</g>
<g clip-path="url(#clip5_568_10363)">
<path fill-rule="evenodd" clip-rule="evenodd" d="M497.087 316.245C498.136 318.694 500.099 320.643 502.556 321.687C505.692 323.017 510.173 324.922 513.747 326.439C515.931 327.367 515.928 330.441 513.747 331.37L502.556 336.121C500.095 337.165 498.136 339.114 497.087 341.563C495.749 344.682 493.835 349.14 492.31 352.695C491.377 354.868 488.286 354.868 487.353 352.695C485.828 349.14 483.914 344.682 482.576 341.563C481.527 339.114 479.564 337.165 477.107 336.121C473.971 334.791 469.49 332.886 465.916 331.37C463.732 330.441 463.732 327.367 465.916 326.439C469.49 324.922 473.971 323.017 477.107 321.687C479.568 320.643 481.527 318.69 482.576 316.245C483.914 313.126 485.828 308.668 487.353 305.113C488.286 302.94 491.377 302.94 492.31 305.113C493.835 308.668 495.749 313.126 497.087 316.245Z" fill="#12DEC4"/>
<path fill-rule="evenodd" clip-rule="evenodd" d="M525.463 228.828C526.096 230.305 527.28 231.481 528.763 232.11C530.655 232.913 533.358 234.062 535.515 234.977C536.832 235.537 536.83 237.392 535.515 237.952L528.763 240.819C527.278 241.449 526.096 242.625 525.463 244.102C524.656 245.984 523.501 248.673 522.581 250.818C522.019 252.129 520.154 252.129 519.591 250.818C518.671 248.673 517.516 245.984 516.709 244.102C516.076 242.625 514.892 241.449 513.409 240.819C511.517 240.016 508.814 238.867 506.658 237.952C505.34 237.392 505.34 235.537 506.658 234.977C508.814 234.062 511.517 232.913 513.409 232.11C514.894 231.481 516.076 230.303 516.709 228.828C517.516 226.946 518.671 224.256 519.591 222.111C520.154 220.8 522.019 220.8 522.581 222.111C523.501 224.256 524.656 226.946 525.463 228.828Z" fill="#12DEC4"/>
<path fill-rule="evenodd" clip-rule="evenodd" d="M581.257 287.324C581.621 288.174 582.303 288.851 583.156 289.213C584.244 289.675 585.799 290.336 587.04 290.863C587.798 291.185 587.797 292.252 587.04 292.574L583.156 294.223C582.301 294.586 581.621 295.262 581.257 296.112C580.793 297.195 580.128 298.742 579.599 299.976C579.275 300.731 578.202 300.731 577.878 299.976C577.349 298.742 576.685 297.195 576.22 296.112C575.856 295.262 575.175 294.586 574.322 294.223C573.233 293.762 571.678 293.101 570.437 292.574C569.679 292.252 569.679 291.185 570.437 290.863C571.678 290.336 573.233 289.675 574.322 289.213C575.176 288.851 575.856 288.173 576.22 287.324C576.685 286.242 577.349 284.694 577.878 283.46C578.202 282.706 579.275 282.706 579.599 283.46C580.128 284.694 580.793 286.242 581.257 287.324Z" fill="#12DEC4"/>
</g>
<path d="M293.614 296.423C286.414 295.879 278.183 295.89 270.554 296.13C271.685 293.166 272.807 290.241 272.807 290.241C272.807 290.241 273.495 292.185 275.947 292.226C279.428 292.282 283.953 289.3 286.573 283.301C289.356 276.929 289.865 269.443 285.508 268.4C281.987 267.558 279.986 270.564 279.68 271.172C279.68 271.172 280.71 268.367 278.395 268.656C276.177 268.932 275.688 269.867 274.987 271.553C274.864 271.85 272.391 278.511 269.797 285.531C269.764 285.575 269.735 285.627 269.712 285.686C269.086 287.27 268.097 287.727 267.417 287.706C265.213 287.642 271.286 273.58 271.747 272.513C272.355 271.107 272.739 270.033 271.2 269.277C270.162 268.767 268.672 268.776 268.131 269.896C267.902 270.365 267.737 270.711 267.737 270.711C267.737 270.711 266.68 268.761 263.937 268.754C261.193 268.748 257.445 271.748 254.623 277.366C251.8 282.984 250.025 291.257 255.339 292.598C258.036 293.278 260.48 291.923 261.926 289.448C261.926 289.448 261.554 291.161 263.276 292.18C263.952 292.582 265.725 292.617 267.472 291.832C266.881 293.435 266.323 294.954 265.826 296.308C254.033 296.828 244.7 297.771 244.7 297.771C244.703 297.763 253.121 276.706 255.007 272.075C256.585 268.198 254.236 268.853 252.515 269.184C250.679 269.536 249.691 270.967 248.539 273.627C243.503 285.242 240.075 288.683 237.92 287.669C235.944 286.738 243.577 274.619 242.192 272.793C240.99 271.211 238.225 271.029 237.619 271.838C237.012 272.647 237.72 273.506 237.27 274.689C236.82 275.873 233.623 282.208 233.213 283.656C232.803 285.103 229.798 293.057 235.748 293.262C239.265 293.383 241.91 290.952 242.234 290.238C240.843 293.307 238.8 298.28 238.8 298.28C238.8 298.28 231.472 299.403 225.201 304.862C220.223 309.194 216.053 319.145 222.666 321.416C232.945 324.945 239.436 309.294 242.557 303.472C251.265 302.369 257.887 301.715 263.99 301.339C263.868 301.683 263.785 301.917 263.755 302.014C262.97 304.486 262.997 305.509 264.983 305.45C267.124 305.386 267.492 304.321 268.433 301.747C268.496 301.571 268.578 301.352 268.672 301.1C275.891 300.805 282.945 300.859 292.651 300.959C295.667 300.99 295.682 300.484 296.143 298.718C296.665 296.714 294.325 296.478 293.614 296.423ZM276.564 280.785C278.448 276.199 279.949 274.433 281.242 274.016C284.328 273.02 284.538 276.81 281.716 282.266C278.448 288.581 275.369 288.14 274.306 286.734C274.304 286.733 274.574 285.627 276.564 280.785ZM263.053 282.387C261.49 285.35 260.095 287.407 258.455 287.265C256.105 287.061 256.499 283.521 258.591 279.217C260.35 275.599 263.136 273.478 264.546 273.34C265.954 273.203 267.509 273.937 263.053 282.387ZM228.599 315.328C222.536 319.812 224.592 313.083 226.95 310.315C231.427 305.059 236.435 304.094 236.435 304.094C233.273 311.134 229.842 314.408 228.599 315.328Z" fill="white"/>
<path d="M302.758 278.979C305.102 276.722 306.558 271.581 303.196 269.321C299.129 266.589 293.197 269.617 290.165 277.062C287.47 283.682 285.913 291.989 292.911 292.336C296.358 292.507 299.553 290.305 300.799 288.564C301.403 287.719 301.743 286.331 301.711 285.697C301.622 283.919 300.578 283.563 298.547 285.696C298.051 286.162 294.174 289.019 292.603 286.957C291.468 285.467 292.784 282.876 292.835 282.879C295.139 282.927 299.232 282.375 302.758 278.979ZM298.19 272.547C300.284 270.923 301.922 273.256 299.404 276.154C296.863 279.078 294.241 278.751 294.21 278.848C294.595 277.646 295.906 274.32 298.19 272.547Z" fill="white"/>
<path d="M267.388 248.352C266.995 248.041 266.379 247.848 265.545 247.769L263.051 247.535L262.724 251.005L265.3 251.247C266.919 251.4 267.785 250.89 267.895 249.718C267.952 249.116 267.784 248.662 267.388 248.352Z" fill="#10CBB4"/>
<path d="M270.241 232.327C262.672 231.965 255.945 237.463 254.772 244.981C253.978 250.071 255.802 254.885 259.18 258.146C259.528 258.481 259.704 258.956 259.659 259.438L259.348 262.735C259.324 262.988 259.444 263.235 259.656 263.373L259.743 263.43C259.947 263.564 260.207 263.568 260.416 263.445L263.426 261.671C263.82 261.439 264.294 261.39 264.727 261.536C265.807 261.905 266.946 262.154 268.131 262.265C276.353 263.04 283.647 256.976 284.424 248.722C285.223 240.236 278.82 232.735 270.241 232.327ZM269.632 251.871C269.243 252.371 268.748 252.721 268.148 252.922C267.773 253.04 267.348 253.106 266.875 253.124C266.401 253.142 265.851 253.122 265.227 253.063L261.61 252.723C261.088 252.674 260.727 252.522 260.524 252.265C260.323 252.008 260.246 251.624 260.294 251.11L261.135 242.176C261.184 241.652 261.334 241.285 261.585 241.077C261.835 240.869 262.217 240.789 262.727 240.837L266.561 241.198C267.126 241.251 267.613 241.332 268.021 241.441C268.43 241.55 268.788 241.721 269.097 241.951C269.36 242.145 269.588 242.38 269.78 242.658C269.971 242.935 270.109 243.235 270.192 243.555C270.275 243.877 270.301 244.21 270.268 244.556C270.156 245.746 269.483 246.559 268.246 247C269.754 247.643 270.441 248.684 270.306 250.121C270.247 250.788 270.022 251.37 269.632 251.871ZM278.009 253.133C277.672 253.54 277.204 253.83 276.603 253.999C276.004 254.168 275.289 254.215 274.459 254.137C273.668 254.062 273.001 253.878 272.459 253.581C271.918 253.285 271.527 252.941 271.294 252.552C271.059 252.163 270.959 251.784 270.994 251.416C271.017 251.172 271.122 250.972 271.311 250.815C271.5 250.658 271.725 250.593 271.989 250.618C272.219 250.639 272.393 250.713 272.506 250.837C272.62 250.962 272.723 251.133 272.816 251.35C273.006 251.766 273.248 252.086 273.543 252.31C273.839 252.534 274.261 252.672 274.804 252.723C275.246 252.765 275.616 252.7 275.918 252.53C276.219 252.36 276.38 252.147 276.404 251.892C276.441 251.502 276.32 251.204 276.044 250.999C275.768 250.793 275.301 250.578 274.643 250.353C273.903 250.093 273.303 249.836 272.847 249.583C272.39 249.329 272.035 249.019 271.782 248.651C271.529 248.284 271.425 247.852 271.472 247.355C271.514 246.911 271.685 246.505 271.986 246.136C272.287 245.766 272.706 245.489 273.242 245.302C273.779 245.115 274.41 245.056 275.136 245.124C275.706 245.178 276.214 245.287 276.657 245.448C277.101 245.61 277.465 245.805 277.75 246.035C278.036 246.264 278.246 246.506 278.382 246.764C278.518 247.022 278.575 247.267 278.554 247.499C278.53 247.752 278.425 247.953 278.241 248.1C278.057 248.246 277.807 248.305 277.494 248.276C277.267 248.254 277.081 248.172 276.935 248.026C276.788 247.881 276.624 247.669 276.445 247.391C276.298 247.159 276.119 246.967 275.904 246.818C275.689 246.666 275.389 246.573 275.001 246.536C274.603 246.499 274.263 246.553 273.984 246.698C273.704 246.842 273.552 247.042 273.528 247.297C273.506 247.529 273.585 247.729 273.765 247.897C273.945 248.063 274.194 248.21 274.514 248.339C274.833 248.467 275.273 248.628 275.836 248.823C276.503 249.055 277.043 249.308 277.456 249.58C277.866 249.853 278.17 250.158 278.363 250.497C278.557 250.833 278.635 251.206 278.597 251.611C278.544 252.217 278.347 252.727 278.009 253.133Z" fill="#10CBB4"/>
<path d="M266.81 245.975C267.146 245.893 267.415 245.7 267.617 245.397C267.773 245.182 267.864 244.935 267.891 244.655C267.947 244.055 267.771 243.636 267.365 243.399C266.959 243.162 266.319 243.002 265.448 242.92L263.502 242.737L263.213 245.809L265.409 246.016C266.006 246.07 266.473 246.057 266.81 245.975Z" fill="#10CBB4"/>
</g>
<defs>
<clipPath id="clip0_568_10363">
<rect width="600" height="600" fill="white"/>
</clipPath>
<clipPath id="clip1_568_10363">
<rect width="608.635" height="384.791" fill="white" transform="matrix(0.947112 0.320903 0.320903 -0.947112 -63.576 388.24)"/>
</clipPath>
<clipPath id="clip2_568_10363">
<rect width="480.692" height="552.52" fill="white" transform="translate(58.3987 38.5993)"/>
</clipPath>
<clipPath id="clip3_568_10363">
<rect width="34.5325" height="34.5325" fill="white" transform="translate(321.215 9)"/>
</clipPath>
<clipPath id="clip4_568_10363">
<rect width="98.6643" height="88.7978" fill="white" transform="translate(0.555763 201.395)"/>
</clipPath>
<clipPath id="clip5_568_10363">
<rect width="123.33" height="133.197" fill="white" transform="translate(464.278 221.128)"/>
</clipPath>
</defs>
</svg>
