<svg width="100" height="100" viewBox="0 0 100 100" fill="none" xmlns="http://www.w3.org/2000/svg">
<g clip-path="url(#clip0_707_26493)">
<path d="M59.5001 17.4997C58.7739 14.2294 55.9599 11.7379 52.5185 11.4773C51.8103 9.11121 49.6055 7.38589 46.9951 7.38589C45.6961 7.38589 44.4978 7.81311 43.5339 8.53377C42.5174 5.60455 39.72 3.5 36.4272 3.5C32.2765 3.5 28.9114 6.84452 28.9114 10.9699C28.9114 12.2421 29.2317 13.4401 29.7965 14.4888C29.4142 14.8135 29.0714 15.1829 28.7762 15.5887C28.3298 16.0055 27.9715 16.5143 27.7322 17.0847C27.536 17.2132 27.3478 17.3522 27.1667 17.5H59.5001V17.4997Z" fill="#F0CEF5"/>
<path d="M98.9951 29.333C98.9974 29.2679 99.0001 29.2028 99.0001 29.137C99.0001 26.0633 96.4933 23.5715 93.401 23.5715C93.282 23.5715 93.1644 23.5765 93.0474 23.5838C91.7549 21.5318 89.462 20.1667 86.8472 20.1667C84.2324 20.1667 81.9365 21.5338 80.6443 23.5878C80.5089 23.5782 80.3726 23.5715 80.2349 23.5715C78.5 23.5715 76.9495 24.3561 75.9223 25.5877C75.6904 25.5518 75.4525 25.5332 75.2106 25.5332C72.9327 25.5332 71.0417 27.1753 70.6667 29.3333H98.9951V29.333ZM91.4225 21.7706C91.3011 21.6716 91.1751 21.5815 91.0271 21.476C91.1621 21.57 91.2941 21.668 91.4225 21.7706Z" fill="#F0CEF5"/>
<path d="M6.48676 84.4836H37.8621V59.5081H6.48676L6.48676 84.4836Z" fill="#F7D163"/>
<path d="M6.48676 82.7839H37.8621V79.743H6.48676V82.7839Z" fill="#DBAD25"/>
<path d="M23.2235 82.8129H34.9463V64.9404H23.2235V82.8129Z" fill="#8B3D99"/>
<path d="M40.0772 82.7839H4.2702C3.99571 82.7839 3.77319 83.0064 3.77319 83.2809V83.9858C3.77319 84.2603 3.99571 84.4828 4.2702 84.4828H40.0772C40.3517 84.4828 40.5742 84.2603 40.5742 83.9858V83.2809C40.5742 83.0064 40.3517 82.7839 40.0772 82.7839Z" fill="#CE92D6"/>
<path d="M40.9999 58.1182H3.33325L5.90632 52.8333L38.4277 52.8333L40.9999 58.1182Z" fill="white"/>
<path d="M24.8572 52.8333V58.1182H30.2381L29.5946 52.8333H24.8572Z" fill="#A35AAD"/>
<path d="M15.3877 52.8333L14.0952 58.1182H19.503L20.1488 52.8333H15.3877Z" fill="#A35AAD"/>
<path d="M10.636 52.8333L8.70937 58.1182H3.33325L5.90362 52.8333H10.636Z" fill="#A35AAD"/>
<path d="M33.697 52.8333L35.6236 58.1182H40.9998L38.4294 52.8333H33.697Z" fill="#A35AAD"/>
<path d="M8.7142 58.1182V61.5885C8.62335 62.5899 7.46596 63.3797 6.08902 63.4025C4.66477 63.4271 3.42883 62.6251 3.33325 61.5885C3.33325 60.4314 3.33325 59.2753 3.33325 58.1182H8.7142Z" fill="#8B3D99"/>
<path d="M14.0951 58.1182V61.5885C14.0042 62.5899 12.8468 63.3797 11.4699 63.4025C10.0456 63.4271 8.80969 62.6251 8.71411 61.5885C8.71411 60.4314 8.71411 59.2753 8.71411 58.1182H14.0951Z" fill="#E2DFE8"/>
<path d="M19.4762 58.1182V61.5885C19.3853 62.5899 18.2279 63.3797 16.851 63.4025C15.4267 63.4271 14.1908 62.6251 14.0952 61.5885C14.0952 60.4314 14.0952 59.2753 14.0952 58.1182H19.4762Z" fill="#8B3D99"/>
<path d="M24.857 58.1182V61.5885C24.7662 62.5899 23.6088 63.3797 22.2318 63.4025C20.8076 63.4271 19.5717 62.6251 19.4761 61.5885C19.4761 60.4314 19.4761 59.2753 19.4761 58.1182H24.857Z" fill="#E2DFE8"/>
<path d="M30.2381 58.1182V61.5885C30.1473 62.5899 28.9899 63.3797 27.6129 63.4025C26.1887 63.4271 24.9528 62.6251 24.8572 61.5885C24.8572 60.4314 24.8572 59.2753 24.8572 58.1182H30.2381Z" fill="#8B3D99"/>
<path d="M35.619 58.1182V61.5885C35.5281 62.5899 34.3707 63.3797 32.9938 63.4025C31.5695 63.4271 30.3336 62.6251 30.238 61.5885C30.238 60.4314 30.238 59.2753 30.238 58.1182H35.619Z" fill="#E2DFE8"/>
<path d="M40.9998 58.1182V61.5885C40.909 62.5899 39.7516 63.3797 38.3747 63.4025C36.9504 63.4271 35.7145 62.6251 35.6189 61.5885C35.6189 60.4314 35.6189 59.2753 35.6189 58.1182H40.9998Z" fill="#8B3D99"/>
<path d="M9.38672 76.5671H20.533V64.9405H9.38672L9.38672 76.5671Z" fill="#8B3D99"/>
<path d="M23.7039 70.0331H34.4658V65.4209H23.7039V70.0331Z" fill="#AFDDFD"/>
<path d="M34.4659 70.4175H29.2771V82.8129H34.4659V70.4175Z" fill="#AFDDFD"/>
<path d="M23.7038 82.8129H28.8926V70.4175H23.7038V82.8129Z" fill="#AFDDFD"/>
<path d="M9.77129 76.0867H20.0527V65.4209H9.77129L9.77129 76.0867Z" fill="#AFDDFD"/>
<path d="M30.0459 70.4175L34.466 75.5102V72.9406L32.2757 70.4175H30.0459Z" fill="#D6EDFF"/>
<path d="M24.4727 70.4175L28.8927 75.5102V72.9406L26.7025 70.4175H24.4727Z" fill="#D6EDFF"/>
<path d="M23.7039 70.4175V70.5655L28.8926 76.5671V76.05L24.0237 70.4175H23.7039Z" fill="#D6EDFF"/>
<path d="M29.2771 70.4175V70.5655L34.4659 76.5671V76.05L29.5969 70.4175H29.2771Z" fill="#D6EDFF"/>
<path d="M28.1239 77.3622C28.1239 77.4538 28.21 77.528 28.3161 77.528C28.4223 77.528 28.5083 77.4538 28.5083 77.3622V76.4447C28.5083 76.3532 28.4223 76.2789 28.3161 76.2789C28.21 76.2789 28.1239 76.3532 28.1239 76.4447V77.3622Z" fill="#8B3D99"/>
<path d="M28.124 65.4209L32.236 70.0331H34.4658L30.3531 65.4209H28.124Z" fill="#D6EDFF"/>
<path d="M27.1631 65.4209L31.321 70.0331H31.7753L27.6182 65.4209H27.1631Z" fill="#D6EDFF"/>
<path d="M29.6615 77.3622C29.6615 77.4538 29.7476 77.528 29.8537 77.528C29.9599 77.528 30.0459 77.4538 30.0459 77.3622V76.4447C30.0459 76.3532 29.9599 76.2789 29.8537 76.2789C29.7476 76.2789 29.6615 76.3532 29.6615 76.4447V77.3622Z" fill="#8B3D99"/>
<path d="M12.8459 65.4209L20.0526 73.5884V71.0619L15.0749 65.4209H12.8459Z" fill="#D6EDFF"/>
<path d="M11.9812 65.4209L20.0526 74.6454V74.135L12.428 65.4209H11.9812Z" fill="#D6EDFF"/>
<path d="M9.77124 71.2823V72.1969L13.2721 76.0867H14.0952L9.77124 71.2823Z" fill="#D6EDFF"/>
<path d="M17.7051 78.2798C17.3629 78.2798 17.0531 78.4159 16.8219 78.6352C16.6867 78.4678 16.4812 78.3601 16.2507 78.3601C16.1004 78.3601 15.9613 78.4059 15.845 78.4839C15.6281 77.764 14.967 77.2397 14.1843 77.2397C13.4476 77.2397 12.8205 77.7044 12.5682 78.3585C12.4284 78.3066 12.278 78.276 12.1209 78.276C11.4069 78.276 10.8281 78.8614 10.8281 79.5836C10.8281 80.3057 11.4069 80.8911 12.1209 80.8911H17.6727V80.8865C17.684 80.8865 17.6946 80.888 17.7059 80.888C18.4184 80.888 18.9956 80.3042 18.9956 79.5836C18.9956 78.8629 18.4184 78.2791 17.7059 78.2791L17.7051 78.2798Z" fill="#10CBB4"/>
<path d="M11.4794 82.8129H18.3439L19.0919 80.4106H10.7322L11.4794 82.8129Z" fill="#742384"/>
<path fill-rule="evenodd" clip-rule="evenodd" d="M45.6667 87.4634L76.5713 95.7111C76.5713 95.7111 95.2794 98.6961 99.8766 93.0533C102.828 89.4308 51.9135 86 51.9135 86L45.6667 87.4634Z" fill="#F6F4FB"/>
<path d="M22.587 39C22.6008 38.9303 22.6128 38.8601 22.6231 38.789C22.9565 36.4852 21.3415 34.3502 19.0163 34.0199C17.8167 33.8496 16.6633 34.1935 15.7812 34.8819C15.3134 32.5962 13.4419 30.7416 10.9783 30.3915C7.8464 29.9468 4.94357 32.1013 4.49465 35.2039C4.4712 35.366 4.45519 35.5271 4.44604 35.6878C4.43918 35.6866 4.43231 35.6852 4.42516 35.6844C2.2895 35.381 0.310242 36.8503 0.00400312 38.9657C0.0022875 38.9771 0.00142969 38.9887 0 39H22.587Z" fill="#F0CEF5"/>
<g clip-path="url(#clip1_707_26493)">
<path d="M56.3816 36.0077L59.3439 36.9063L59.2533 37.2042L59.0723 37.791L58.8916 38.3658C58.8314 38.5554 58.7713 38.743 58.7112 38.9286L58.5311 39.4793C58.5011 39.5701 58.4711 39.6604 58.4411 39.7502L58.2613 40.2829C58.2014 40.4585 58.1415 40.632 58.0816 40.8036L57.902 41.3123C57.8721 41.3961 57.8422 41.4794 57.8123 41.5621L57.6328 42.0528C57.4832 42.4567 57.3336 42.8481 57.184 43.227L57.0043 43.6757C54.7875 49.1352 52.5375 51.8569 49.9009 51.8569C47.0816 51.8569 44.9808 49.0224 43.2206 43.4276L43.0859 42.9918C42.8624 42.2564 42.6444 41.4757 42.431 40.6497L42.3035 40.1487C42.2823 40.0643 42.2612 39.9795 42.2402 39.8942L42.1143 39.377L41.9894 38.8489L41.8655 38.31L41.804 38.0365L44.8246 37.3599L44.9345 37.8448L45.0451 38.3197C45.0635 38.3979 45.0821 38.4758 45.1006 38.5533L45.2121 39.013L45.3242 39.4626C45.3429 39.5367 45.3617 39.6104 45.3804 39.6836L45.4935 40.1181L45.6071 40.5424L45.7213 40.9566L45.836 41.3607C45.8552 41.4272 45.8744 41.4933 45.8936 41.5589L46.0092 41.9477C46.0672 42.1396 46.1253 42.3277 46.1837 42.5119L46.3006 42.8753C46.3983 43.1739 46.4966 43.4619 46.5953 43.7392L46.7141 44.0668C46.7736 44.2281 46.8333 44.3856 46.8932 44.5392L47.0132 44.8412C47.2336 45.3857 47.4564 45.8784 47.6813 46.3191L47.7426 46.438C47.7817 46.5128 47.8206 46.5855 47.8592 46.6563L47.9744 46.8628L48.0882 47.0577C48.8044 48.2549 49.4328 48.7591 49.9009 48.7591C50.106 48.7591 50.3618 48.645 50.6582 48.4035L50.7585 48.3183C50.8943 48.1983 51.0378 48.0529 51.1883 47.8808L51.3024 47.7468L51.4191 47.6026C51.4387 47.5777 51.4585 47.5525 51.4783 47.5267L51.5986 47.3672C51.6795 47.2575 51.7621 47.1408 51.846 47.017L51.9729 46.8261C51.9943 46.7934 52.0157 46.7602 52.0372 46.7266L52.1672 46.5196L52.2992 46.3017L52.433 46.0729C52.5754 45.8251 52.7187 45.5624 52.8627 45.2846L53.007 45.0018L53.1519 44.7089L53.2973 44.4061C53.3458 44.3035 53.3944 44.1993 53.4431 44.0933L53.5895 43.7706C53.614 43.7159 53.6385 43.6609 53.6629 43.6054L53.8101 43.2677L53.9577 42.92L54.1059 42.5623L54.2545 42.1947L54.4036 41.8171L54.5531 41.4296L54.7032 41.0322L54.8536 40.6249L55.0045 40.2077L55.1559 39.7805C55.1811 39.7085 55.2064 39.6361 55.2317 39.5632L55.3837 39.1212C55.4091 39.0467 55.4345 38.9718 55.4599 38.8965L55.6125 38.4397L55.7655 37.973L55.919 37.4965L56.0728 37.01L56.227 36.5138L56.3816 36.0077Z" fill="#DE4A65"/>
<path fill-rule="evenodd" clip-rule="evenodd" d="M42.5403 34.0998C42.6563 33.2692 42.313 32.1202 43.4105 32.1202C44.9336 32.1202 44.8763 36.6318 44.8956 37.4559C44.9322 39.0146 44.4003 39.176 42.8263 39.2247C42.7054 39.2284 41.7455 39.2422 41.6514 39.2451C40.4277 39.2829 40.064 37.5269 40.0275 35.9681C39.9919 34.452 41.0758 34.2028 42.2515 34.0998H42.5403Z" fill="#DE4A65"/>
<path d="M82.1097 88.3637C81.6629 88.3637 81.2225 88.1606 80.9345 87.7739C80.1991 86.7859 79.6 84.5539 78.6047 80.6947C78.1137 78.7884 77.6048 76.8176 77.0684 75.096C75.0221 68.5335 72.724 63.2064 72.701 63.1534C72.3778 62.4077 72.7205 61.5406 73.4657 61.2172C74.208 60.8932 75.0762 61.2356 75.4004 61.9819C75.4965 62.204 77.7814 67.4983 79.8771 74.2185C80.4354 76.0103 80.9534 78.0179 81.4536 79.9587C82.0487 82.2673 82.864 85.4285 83.2941 86.0149C83.7736 86.6685 83.6379 87.5915 82.9859 88.0737C82.7214 88.2693 82.4144 88.3637 82.1097 88.3637Z" fill="#DE4A65"/>
<path d="M76.5973 64.8716C76.292 64.1173 75.4324 63.7536 74.6821 64.0586C73.9289 64.3635 73.5523 65.2105 73.8564 65.9637C73.8679 65.9913 75.295 69.8143 75.295 69.8143L78.8718 71.1245C77.6466 67.4828 76.6582 65.0218 76.5973 64.8716Z" fill="#973043"/>
<path d="M78.8288 81.5612C78.8288 81.5612 79.382 85.5781 80.2007 88.9356C80.8286 91.51 82.3689 91.9306 84.7055 91.8167C87.1112 91.6993 87.0382 90.5145 85.3121 88.0288C84.4801 86.8314 82.9151 85.6875 81.8554 83.593C81.0373 81.9732 79.3262 79.3701 78.8288 81.5612Z" fill="#DE4A65"/>
<path d="M58.2711 86.3555C58.1929 86.3555 58.1136 86.3492 58.0343 86.3366C57.2322 86.2065 56.6877 85.451 56.8171 84.6477C56.8636 84.3589 57.9727 77.5375 58.9237 74.0574C59.8753 70.5745 62.3287 64.3578 62.4327 64.0954C62.7323 63.3399 63.5867 62.9699 64.3416 63.268C65.0971 63.5672 65.4674 64.4228 65.1678 65.1783C65.1431 65.241 62.6702 71.5072 61.7612 74.8336C60.8516 78.1629 59.7327 85.0494 59.7212 85.119C59.6039 85.8417 58.9801 86.3561 58.2711 86.3561V86.3555Z" fill="#DE4A65"/>
<path d="M65.1671 65.1783C65.4666 64.4222 65.0964 63.5672 64.3409 63.268C63.5859 62.9699 62.7315 63.3399 62.432 64.0954C62.4021 64.1708 62.179 64.7364 61.8542 65.5851L63.7044 69.0301C64.4777 66.9258 65.1544 65.2117 65.1671 65.1789V65.1783Z" fill="#973043"/>
<path d="M80.2184 61.902C80.5094 57.2872 80.5094 41.375 80.9458 32.6225C81.3827 23.8705 83.3658 17.1711 79.3365 17.5664H79.3353C74.2969 18.0722 62.7614 19.1269 59.6963 19.7673C59.6963 19.7673 57.5137 20.2104 57.3677 22.7566C57.2895 24.1226 56.3213 32.7686 56.1327 41.2668C55.97 48.6044 56.5725 55.8585 56.6398 57.9236C56.7853 62.379 57.0768 65.7209 61.5879 65.7209C64.9837 65.7209 72.0902 66.3516 76.7008 66.1882C76.4961 66.1957 76.2874 66.2014 76.0747 66.206C77.2378 66.1203 79.9879 65.5322 80.2179 61.9014L80.2184 61.902Z" fill="#DE4A65"/>
<path d="M78.7271 57.1761C78.9754 53.272 78.9386 42.2593 79.0352 34.8458C79.1359 27.1463 80.9987 22.1075 77.6582 22.1075C73.3299 22.1075 63.5469 23.1426 60.9262 23.6858C60.9262 23.6858 59.0599 24.0604 58.9351 26.2142C58.8638 27.4501 58.1003 34.2399 57.9358 41.8658C57.8386 46.3896 57.8956 51.0538 57.9692 55.5731C58.0111 58.1244 58.0589 60.571 61.3655 60.571C64.269 60.571 71.7781 60.941 75.72 60.8029C75.5452 60.8087 75.3664 60.8139 75.1847 60.8179C76.1794 60.7454 78.5304 60.2482 78.7271 57.1761Z" fill="#742384"/>
<path d="M84.8878 24.2952C84.9884 22.7105 85.3581 21.0269 84.6492 19.5326C83.7839 17.7045 80.9947 17.4001 79.3359 17.567C83.3653 17.1717 81.3822 23.8711 80.9453 32.623C80.5089 41.3755 80.5089 57.2878 80.2179 61.9031C80.0546 64.4884 78.37 65.9396 76.1317 66.2049C78.2527 65.9534 80.7711 66.2394 82.3924 64.3757C83.7505 62.8146 83.8563 60.5912 83.8563 58.5612C83.8563 54.7422 83.923 39.4594 84.8878 24.2958V24.2952Z" fill="#973043"/>
<path d="M84.1283 41.1183C84.1904 39.0013 84.2669 36.7809 84.3606 34.4977L82.1395 35.6122C82.1395 35.6122 82.6139 40.7805 84.1283 41.1183Z" fill="#6B222F"/>
<path d="M68.2249 62.8709C68.2249 63.455 67.7517 63.9285 67.1675 63.9285C66.5845 63.9285 66.1113 63.4555 66.1113 62.8709C66.1113 62.2875 66.5839 61.8133 67.1675 61.8133C67.7511 61.8133 68.2249 62.2869 68.2249 62.8709Z" fill="#973043"/>
<path d="M60.1472 82.6149C60.1472 82.6149 59.808 85.6738 59.4596 86.0742C58.7978 86.8349 52.4784 88.0013 51.4676 87.9633C50.1492 87.9144 51.2721 85.0782 53.6007 83.8169C55.9299 82.5562 58.1113 82.1241 60.1472 82.6149Z" fill="#DE4A65"/>
<path d="M66.5068 21.8014C66.2607 21.8014 66.048 21.6173 66.0192 21.3664C65.9876 21.0965 66.1808 20.852 66.4504 20.8203L71.9258 20.1776C72.1966 20.1436 72.4398 20.3393 72.4715 20.6092C72.5031 20.879 72.3099 21.1236 72.0402 21.1552L66.5649 21.7979C66.5453 21.8002 66.5263 21.8014 66.5068 21.8014Z" fill="#973043"/>
<path d="M99.2215 38.8823C97.2011 34.8671 91.7056 33.1749 83.7602 34.1162C83.6624 34.1277 83.5888 34.1369 83.5417 34.141C82.7615 34.1766 82.1399 34.8217 82.1399 35.6117C82.1399 36.4248 82.7983 37.0836 83.6107 37.0836C83.667 37.0836 83.8384 37.0715 84.1052 37.0399C90.6396 36.2665 95.1916 37.4202 96.5939 40.2063C99.0456 45.0788 89.5777 50.25 86.0135 52.1966C86.0135 52.1966 82.0106 53.3238 81.3896 55.2618C80.7692 57.2003 80.6019 59.3834 81.9042 60.2667C83.6118 61.4244 87.126 56.6434 86.6942 55.1807C86.9093 55.061 87.1559 54.9258 87.4227 54.7808C92.0707 52.2432 102.953 46.2993 99.2215 38.8823Z" fill="#DE4A65"/>
<path d="M83.6108 37.0842C83.6671 37.0842 83.8385 37.0721 84.1052 37.0404C89.4794 36.4046 93.5076 37.0744 95.551 38.8811C95.5246 38.712 95.474 38.544 95.3642 38.3817C94.1337 36.5559 89.6766 36.1261 86.5385 36.2607C83.4003 36.3954 84.6629 34.0092 84.6629 34.0092C84.3605 34.0397 83.5883 34.1375 83.5412 34.1415C82.761 34.1772 82.1394 34.8222 82.1394 35.6123C82.1394 36.4253 82.7978 37.0842 83.6102 37.0842H83.6108Z" fill="#973043"/>
<path d="M73.0963 48.6195C71.9428 48.6459 70.6341 48.7766 69.4247 48.9343C69.558 48.4459 69.6906 47.9637 69.6906 47.9637C69.6906 47.9637 69.8305 48.2618 70.221 48.2298C70.7755 48.1842 71.4483 47.6397 71.7707 46.6461C72.1134 45.5906 72.077 44.3938 71.3677 44.2965C70.7946 44.2179 70.5235 44.7266 70.4844 44.8279C70.4844 44.8279 70.6041 44.3664 70.2405 44.4485C69.8922 44.5272 69.8291 44.6832 69.7441 44.962C69.7291 45.011 69.4404 46.1075 69.138 47.263C69.1334 47.2706 69.1297 47.2793 69.1269 47.289C69.0522 47.5503 68.9022 47.6383 68.7936 47.6457C68.4422 47.67 69.1874 45.3418 69.2438 45.1652C69.3185 44.9324 69.3628 44.7558 69.1062 44.6599C68.9331 44.5951 68.6963 44.6199 68.6277 44.8062C68.5988 44.8844 68.5779 44.9419 68.5779 44.9419C68.5779 44.9419 68.3792 44.6488 67.943 44.6907C67.5064 44.7326 66.9575 45.2678 66.5968 46.2042C66.2362 47.1406 66.0837 48.4821 66.9497 48.6118C67.3893 48.6775 67.7567 48.424 67.9478 48.0084C67.9478 48.0084 67.9155 48.2863 68.2053 48.4211C68.3191 48.4742 68.6017 48.4521 68.8672 48.3001C68.7983 48.5639 68.7334 48.8138 68.6756 49.0366C66.8084 49.304 65.3391 49.5999 65.3391 49.5999C65.3394 49.5987 66.3478 46.1229 66.575 45.3579C66.7652 44.7175 66.4019 44.8583 66.1333 44.9379C65.8469 45.0225 65.7123 45.2653 65.5708 45.7057C64.9521 47.6291 64.461 48.2293 64.1025 48.102C63.7735 47.9852 64.7973 45.941 64.5483 45.6728C64.3325 45.4403 63.8899 45.4548 63.8061 45.5928C63.7224 45.7308 63.8484 45.856 63.7954 46.051C63.7424 46.246 63.3334 47.3021 63.2909 47.5386C63.2484 47.7747 62.8953 49.085 63.8448 49.0242C64.4059 48.9883 64.7885 48.5609 64.8287 48.4424C64.6557 48.9516 64.4088 49.7732 64.4088 49.7732C64.4088 49.7732 63.2611 50.0665 62.3496 51.0315C61.6258 51.7975 61.1189 53.443 62.2062 53.7C63.8961 54.0995 64.6827 51.5123 65.0877 50.5389C66.4551 50.2273 67.498 50.0197 68.4626 49.8643C68.4486 49.9209 68.4391 49.9593 68.4357 49.9753C68.3497 50.3801 68.3701 50.542 68.6849 50.5016C69.0244 50.458 69.0662 50.283 69.1755 49.8596C69.1828 49.8305 69.1923 49.7946 69.2033 49.753C70.3466 49.5931 71.4693 49.491 73.0143 49.3549C73.4945 49.3125 73.4888 49.232 73.5345 48.9444C73.586 48.618 73.2103 48.6172 73.0963 48.6195ZM70.1397 46.4034C70.3673 45.6455 70.5782 45.3415 70.7774 45.2551C71.2524 45.0485 71.3454 45.6471 70.9821 46.5579C70.5616 47.6119 70.065 47.59 69.8739 47.3833C69.8736 47.3833 69.8992 47.2035 70.1397 46.4034ZM68.0162 46.8695C67.8142 47.3645 67.6246 47.713 67.3616 47.7161C66.9847 47.7205 66.9918 47.1522 67.2569 46.4359C67.4799 45.8338 67.8897 45.4534 68.1118 45.4093C68.3336 45.3656 68.5924 45.4578 68.0162 46.8695ZM63.0541 52.6404C62.1602 53.4474 62.3816 52.3466 62.7132 51.8701C63.3426 50.9653 64.1239 50.7336 64.1239 50.7336C63.7316 51.9011 63.2373 52.4748 63.0541 52.6404Z" fill="white"/>
<path d="M74.2768 45.7061C74.6141 45.311 74.7651 44.4717 74.1949 44.1656C73.5053 43.7954 72.6095 44.3693 72.2442 45.5991C71.9194 46.6926 71.8022 48.0361 72.9204 47.9815C73.4713 47.9547 73.9449 47.5549 74.1157 47.2589C74.1985 47.1153 74.2308 46.8895 74.2157 46.7894C74.1737 46.5083 74.002 46.4682 73.7125 46.8387C73.641 46.9205 73.0693 47.4349 72.7871 47.1322C72.5832 46.9134 72.7518 46.4813 72.7599 46.481C73.1271 46.4525 73.7693 46.3007 74.2768 45.7061ZM73.4495 44.7563C73.757 44.4656 74.054 44.8104 73.6992 45.3101C73.3409 45.8142 72.9188 45.8033 72.9154 45.8192C72.9578 45.6224 73.1141 45.0737 73.4495 44.7563Z" fill="white"/>
<path d="M68.1718 41.3966C68.1044 41.3535 68.0034 41.3324 67.8696 41.333L67.4692 41.3348L67.4717 41.891L67.8851 41.8892C68.145 41.888 68.2747 41.7935 68.2739 41.6056C68.2735 41.5091 68.2395 41.4397 68.1718 41.3966Z" fill="#10CBB4"/>
<path d="M68.3743 38.8071C67.1648 38.8684 66.1815 39.8469 66.1128 41.0591C66.0663 41.8798 66.432 42.6157 67.0202 43.0806C67.0808 43.1284 67.1163 43.2009 67.1167 43.2783L67.119 43.8067C67.1192 43.8473 67.1421 43.8847 67.178 43.9032L67.1926 43.911C67.2273 43.9289 67.2687 43.9256 67.3 43.9027L67.7509 43.5739C67.8098 43.5309 67.8845 43.5155 67.9555 43.5321C68.1331 43.5737 68.3181 43.5954 68.5083 43.5945C69.8279 43.5886 70.8927 42.5115 70.8868 41.1885C70.8807 39.8283 69.7449 38.7376 68.3743 38.8071ZM68.584 41.9204C68.5299 42.0058 68.4567 42.0692 68.3644 42.1105C68.3066 42.1351 68.2401 42.1522 68.1651 42.1626C68.0901 42.1729 68.0024 42.1783 67.9021 42.1787L67.3216 42.1813C67.2378 42.1817 67.178 42.1632 67.1417 42.1256C67.1057 42.088 67.0874 42.0282 67.0871 41.9458L67.0807 40.5139C67.0803 40.4299 67.0984 40.3693 67.135 40.3323C67.1715 40.2953 67.2309 40.2766 67.3128 40.2763L67.9282 40.2735C68.0188 40.2731 68.0976 40.2784 68.1642 40.2893C68.2309 40.3002 68.2904 40.3218 68.3432 40.3534C68.3881 40.3801 68.4281 40.4139 68.4629 40.4549C68.4976 40.496 68.5243 40.5414 68.5426 40.591C68.5608 40.6408 68.5701 40.6932 68.5703 40.7488C68.5712 40.9395 68.4769 41.0791 68.2871 41.1686C68.5371 41.247 68.6626 41.4016 68.6636 41.6319C68.6647 41.7387 68.6381 41.8346 68.584 41.9204ZM69.9359 41.9895C69.8886 42.0593 69.8188 42.1127 69.7259 42.149C69.6333 42.1853 69.5204 42.2039 69.3872 42.2045C69.2601 42.2051 69.1511 42.1862 69.0603 42.1476C68.9696 42.109 68.9021 42.0606 68.8589 42.0025C68.8154 41.9443 68.7936 41.8857 68.7934 41.8267C68.7932 41.7877 68.8067 41.7543 68.8343 41.7264C68.8619 41.6985 68.8967 41.6846 68.9391 41.6844C68.9761 41.6842 69.0048 41.6931 69.0248 41.7112C69.0448 41.7292 69.0639 41.7547 69.0821 41.7877C69.1188 41.8509 69.1623 41.8978 69.2128 41.9288C69.2634 41.9598 69.3326 41.9751 69.4197 41.9747C69.4907 41.9744 69.5485 41.9582 69.5939 41.9265C69.6392 41.8947 69.6614 41.8584 69.6612 41.8175C69.661 41.7551 69.6371 41.7097 69.59 41.6815C69.5428 41.653 69.4652 41.6262 69.3571 41.6007C69.2352 41.571 69.1358 41.5396 69.0594 41.5066C68.9826 41.4735 68.9214 41.4298 68.8754 41.3754C68.8294 41.321 68.8061 41.254 68.8057 41.1744C68.8054 41.1032 68.8263 41.036 68.8683 40.9728C68.9104 40.9092 68.9727 40.8587 69.055 40.8206C69.1374 40.7824 69.2369 40.7633 69.3533 40.7627C69.4448 40.7623 69.5274 40.7716 69.6003 40.7904C69.6735 40.8091 69.7344 40.8344 69.7834 40.8663C69.8324 40.8982 69.8696 40.9333 69.8953 40.9722C69.921 41.0111 69.9339 41.0492 69.9341 41.0863C69.9343 41.1269 69.9207 41.1603 69.8938 41.1867C69.8668 41.2127 69.8279 41.226 69.7778 41.2262C69.7414 41.2264 69.7105 41.2162 69.6849 41.1954C69.6593 41.1746 69.6299 41.1435 69.597 41.1022C69.5701 41.0676 69.5385 41.04 69.502 41.0196C69.4655 40.9988 69.4163 40.9887 69.354 40.989C69.2902 40.9893 69.237 41.0033 69.1948 41.0306C69.1526 41.058 69.1316 41.0921 69.1318 41.133C69.1319 41.1701 69.1476 41.2006 69.1789 41.2245C69.2101 41.2481 69.2519 41.2676 69.3049 41.2829C69.3576 41.2983 69.4302 41.317 69.5228 41.3391C69.6324 41.3654 69.7222 41.3972 69.7921 41.434C69.8617 41.4708 69.9148 41.5146 69.9509 41.5653C69.9869 41.6157 70.0052 41.6737 70.0055 41.7386C70.0065 41.8357 69.9833 41.9197 69.9359 41.9895Z" fill="#10CBB4"/>
<path d="M68.0425 41.0283C68.0948 41.0099 68.1345 40.9751 68.1619 40.9238C68.1832 40.8872 68.194 40.8466 68.1938 40.8016C68.1933 40.7055 68.1588 40.6417 68.0905 40.6105C68.0222 40.5793 67.9178 40.5638 67.778 40.5644L67.4658 40.5658L67.468 41.0583L67.8204 41.0567C67.9163 41.056 67.9903 41.0466 68.0425 41.0283Z" fill="#10CBB4"/>
<path d="M62.5592 29.5832C62.6834 29.5774 62.7869 29.4802 62.7978 29.3536C62.8012 29.3156 62.8915 28.4162 63.651 28.3622C63.6597 28.361 63.6683 28.361 63.6763 28.3604C64.4301 28.3253 64.6561 29.1528 64.6664 29.189C64.7021 29.3225 64.8378 29.4025 64.9729 29.3674C65.1063 29.3323 65.1856 29.1953 65.1511 29.0613C65.0338 28.6165 64.5624 27.7965 63.6165 27.8616C62.6638 27.9289 62.3378 28.8397 62.2987 29.3116C62.2872 29.4497 62.3901 29.5711 62.5281 29.5814C62.5385 29.5832 62.55 29.5832 62.5598 29.5826L62.5592 29.5832Z" fill="#DE4A65"/>
<path d="M73.7106 29.0641C73.7215 29.0641 73.7318 29.0624 73.7428 29.0601C73.879 29.0365 73.9699 28.9059 73.9452 28.7695C73.8629 28.3029 73.4536 27.4265 72.4997 27.4484C72.4859 27.4484 72.4733 27.4496 72.4612 27.4501C71.5395 27.4927 71.156 28.3386 71.0818 28.7856C71.0594 28.922 71.1508 29.0515 71.2877 29.0739C71.4262 29.0969 71.5527 29.0049 71.5757 28.8685C71.5826 28.8317 71.7379 27.9858 72.4853 27.9507C72.4934 27.9507 72.5014 27.9507 72.5112 27.9496C73.2788 27.9335 73.4449 28.8196 73.4518 28.8576C73.4743 28.9836 73.5858 29.071 73.7106 29.0641Z" fill="#DE4A65"/>
<path fill-rule="evenodd" clip-rule="evenodd" d="M66.4877 29.891C66.2353 29.7437 65.3602 29.4404 65.5919 30.5993C65.8242 31.7588 67.0506 32.1667 68.1149 32.203C69.1809 32.2386 70.4492 30.8997 70.4354 30.2506C70.4234 29.6021 69.7259 29.662 69.274 29.8616C68.8514 30.0492 66.8891 30.1269 66.4877 29.891Z" fill="#3F0D4A"/>
<path fill-rule="evenodd" clip-rule="evenodd" d="M66.4878 29.891C66.4246 29.8547 66.3205 29.807 66.205 29.7765C66.2257 29.9405 66.3217 30.2115 66.7115 30.334C67.2899 30.5159 68.4094 30.4894 68.9625 30.3352C69.3805 30.2178 69.5443 29.9899 69.5725 29.7621C69.4679 29.7868 69.3667 29.8219 69.2741 29.8616C68.8515 30.0492 66.8892 30.1269 66.4878 29.891Z" fill="white"/>
<path fill-rule="evenodd" clip-rule="evenodd" d="M66.1417 31.5493C66.6528 31.997 67.4187 32.18 68.115 32.2036C68.6204 32.2203 69.1717 31.928 69.6099 31.5465C69.166 31.0741 68.6405 30.7127 67.9402 30.6851C67.2462 30.658 66.5741 30.9791 66.1423 31.5493H66.1417Z" fill="#DE4A65"/>
</g>
</g>
<defs>
<clipPath id="clip0_707_26493">
<rect width="100" height="100" fill="white"/>
</clipPath>
<clipPath id="clip1_707_26493">
<rect width="74.3333" height="74.3333" fill="white" transform="matrix(-1 0 0 1 107.167 17.5)"/>
</clipPath>
</defs>
</svg>
