<svg width="100" height="100" viewBox="0 0 100 100" fill="none" xmlns="http://www.w3.org/2000/svg">
<g clip-path="url(#clip0_707_26477)">
<path d="M50.4723 90.1054C86.9554 90.1054 106.614 57.5246 92.7786 37.1874C78.9433 16.8501 59.3365 48.7703 46.66 34.1947C27.5538 12.8567 4.97046 33.1852 4.97046 53.4368C4.97046 73.6883 13.9893 90.1054 50.4723 90.1054Z" fill="#94FFF2"/>
<path d="M29.5983 43.2542L34.921 44.866L34.7581 45.4004L34.4329 46.4529L34.1083 47.4838C34.0002 47.8239 33.8921 48.1603 33.7842 48.4932L33.4605 49.481C33.4066 49.6439 33.3527 49.8058 33.2988 49.9669L32.9757 50.9224C32.8681 51.2373 32.7605 51.5486 32.6529 51.8563L32.3302 52.7687C32.2764 52.919 32.2227 53.0684 32.1689 53.2169L31.8464 54.097C31.5777 54.8214 31.3089 55.5234 31.04 56.203L30.7171 57.0078C26.734 66.8002 22.6912 71.6819 17.9536 71.6819C12.8879 71.6819 9.11308 66.5979 5.95023 56.5629L5.70813 55.7812C5.3066 54.4622 4.91485 53.0618 4.53143 51.5803L4.30237 50.6818C4.26436 50.5304 4.22643 50.3782 4.18857 50.2252L3.96239 49.2974L3.73804 48.3503L3.51544 47.3838L3.40479 46.8932L8.83242 45.6796L9.02988 46.5493L9.2285 47.401C9.2617 47.5415 9.29495 47.6812 9.32824 47.8201L9.52856 48.6446L9.72999 49.4511C9.76365 49.584 9.79736 49.7161 9.83111 49.8475L10.0342 50.6268L10.2383 51.3879L10.4435 52.1308L10.6497 52.8555C10.6842 52.9748 10.7186 53.0933 10.7532 53.2111L10.9609 53.9085C11.065 54.2527 11.1695 54.59 11.2744 54.9204L11.4845 55.5722C11.6601 56.1078 11.8366 56.6243 12.0141 57.1217L12.2275 57.7094C12.3344 57.9987 12.4417 58.2811 12.5493 58.5566L12.7649 59.0984C13.1609 60.0749 13.5612 60.9586 13.9653 61.7491L14.0756 61.9624C14.1458 62.0965 14.2156 62.227 14.285 62.354L14.492 62.7244L14.6964 63.0739C15.9834 65.2213 17.1124 66.1256 17.9536 66.1256C18.3221 66.1256 18.7817 65.921 19.3143 65.4878L19.4946 65.335C19.7385 65.1198 19.9964 64.8589 20.2667 64.5503L20.4718 64.3099L20.6814 64.0513C20.7167 64.0067 20.7522 63.9613 20.7879 63.9152L21.004 63.6291C21.1495 63.4322 21.2977 63.2229 21.4485 63.001L21.6767 62.6585C21.715 62.5998 21.7535 62.5404 21.7921 62.4801L22.0258 62.1088L22.2629 61.718L22.5033 61.3075C22.7592 60.8632 23.0166 60.3918 23.2754 59.8936L23.5347 59.3863L23.795 58.8611L24.0562 58.318C24.1434 58.1339 24.2308 57.9469 24.3184 57.7569L24.5814 57.178C24.6253 57.08 24.6693 56.9813 24.7133 56.8818L24.9777 56.276L25.243 55.6523L25.5092 55.0108L25.7762 54.3514L26.0441 53.6743L26.3128 52.9792L26.5824 52.2664L26.8527 51.5358L27.1239 50.7874L27.3959 50.0213C27.4412 49.8921 27.4867 49.7622 27.5321 49.6315L27.8052 48.8388C27.8508 48.7052 27.8964 48.5708 27.9421 48.4357L28.2163 47.6164L28.4913 46.7793L28.767 45.9245L29.0434 45.0521L29.3205 44.1619L29.5983 43.2542Z" fill="#DE4A65"/>
<mask id="mask0_707_26477" style="mask-type:alpha" maskUnits="userSpaceOnUse" x="4" y="25" width="94" height="66">
<path d="M50.4723 90.1057C86.9554 90.1057 106.614 57.5249 92.7786 37.1876C78.9433 16.8504 59.3365 48.7705 46.66 34.195C27.5538 12.8569 4.97046 33.1855 4.97046 53.437C4.97046 73.6886 13.9893 90.1057 50.4723 90.1057Z" fill="#A8FFF4"/>
</mask>
<g mask="url(#mask0_707_26477)">
<path fill-rule="evenodd" clip-rule="evenodd" d="M69.605 84.6042C70.0957 76.8596 70.0957 50.1524 70.8323 35.4628C71.569 20.7743 74.9153 9.53015 68.1171 10.194H68.1151C59.6146 11.0434 40.153 12.8131 34.981 13.8883C34.981 13.8883 31.2982 14.6314 31.0523 18.9048C30.9204 21.1978 29.2867 35.7088 28.9689 49.9722C28.6946 62.2875 29.7105 74.4619 29.8249 77.9279C30.0705 85.4051 30.562 91.0142 38.1736 91.0142C43.9024 91.0142 55.892 92.0729 63.6716 91.7989C63.3262 91.8114 62.9744 91.8211 62.6148 91.8288C64.5767 91.685 69.2174 90.6978 69.605 84.6042Z" fill="#DE4A65"/>
</g>
<path d="M29.5979 43.2543L34.9206 44.8661L34.7578 45.4005L34.4325 46.453L34.1079 47.4839C33.9998 47.824 33.8918 48.1604 33.7838 48.4933L33.4601 49.4812C33.4062 49.644 33.3523 49.8059 33.2985 49.967L32.9754 50.9225C32.8677 51.2374 32.7601 51.5487 32.6525 51.8564L32.3298 52.7689C32.2761 52.9191 32.2223 53.0685 32.1686 53.217L31.8461 54.0971C31.5773 54.8215 31.3085 55.5236 31.0396 56.2031L30.7168 57.0079C26.7336 66.8004 22.6908 71.682 17.9532 71.682C12.8875 71.682 9.11271 66.598 5.94986 56.563L5.70776 55.7813C5.30624 54.4623 4.91448 53.0619 4.53107 51.5805L4.30201 50.6819C4.26399 50.5305 4.22606 50.3783 4.18821 50.2253L3.96202 49.2976L3.73767 48.3504L3.51508 47.3839L3.40442 46.8933L8.83205 45.6797L9.02952 46.5495L9.22814 47.4011C9.26134 47.5416 9.29458 47.6813 9.32788 47.8202L9.52819 48.6448L9.72962 49.4512C9.76329 49.5841 9.79699 49.7163 9.83075 49.8476L10.0338 50.6269L10.2379 51.388L10.4431 52.1309L10.6493 52.8557C10.6838 52.9749 10.7183 53.0935 10.7528 53.2112L10.9605 53.9086C11.0647 54.2528 11.1691 54.5901 11.274 54.9206L11.4842 55.5724C11.6597 56.1079 11.8362 56.6244 12.0137 57.1218L12.2271 57.7095C12.334 57.9988 12.4413 58.2812 12.5489 58.5567L12.7645 59.0985C13.1605 60.075 13.5608 60.9587 13.9649 61.7492L14.0752 61.9625C14.1454 62.0966 14.2152 62.2272 14.2846 62.3541L14.4916 62.7245L14.6961 63.074C15.983 65.2214 17.1121 66.1257 17.9532 66.1257C18.3217 66.1257 18.7813 65.9211 19.314 65.488L19.4942 65.3351C19.7381 65.1199 19.996 64.859 20.2664 64.5504L20.4715 64.31L20.6811 64.0514C20.7164 64.0068 20.7519 63.9615 20.7875 63.9153L21.0036 63.6292C21.1491 63.4323 21.2974 63.223 21.4482 63.0011L21.6763 62.6586C21.7146 62.6 21.7531 62.5405 21.7918 62.4802L22.0254 62.1089L22.2625 61.7181L22.503 61.3076C22.7589 60.8633 23.0162 60.392 23.2751 59.8937L23.5344 59.3864L23.7946 58.8612L24.0559 58.3181C24.1431 58.1341 24.2305 57.947 24.318 57.757L24.5811 57.1781C24.625 57.0801 24.6689 56.9814 24.7129 56.8819L24.9773 56.2761L25.2426 55.6525L25.5088 55.0109L25.7759 54.3516L26.0437 53.6744L26.3125 52.9794L26.582 52.2665L26.8524 51.5359L27.1235 50.7875L27.3955 50.0214C27.4409 49.8922 27.4863 49.7623 27.5318 49.6317L27.8049 48.8389C27.8504 48.7053 27.8961 48.5709 27.9417 48.4359L28.2159 47.6165L28.4909 46.7794L28.7666 45.9246L29.043 45.0522L29.3201 44.1621L29.5979 43.2543Z" fill="#BE3C54"/>
<path fill-rule="evenodd" clip-rule="evenodd" d="M70.8322 35.4628C71.5688 20.7744 74.9152 9.53021 68.117 10.1941C59.6145 11.0434 40.1528 12.8132 34.9809 13.8884C34.9809 13.8884 31.2981 14.6315 31.0521 18.9048C30.9202 21.1979 29.2866 35.7089 28.9688 49.9722C28.6945 62.2876 29.7103 74.4619 29.8248 77.928C30.0703 85.4051 69.2173 90.6979 69.6049 84.6043C70.0955 76.8596 70.0955 50.1524 70.8322 35.4628Z" fill="#DE4A65"/>
<path fill-rule="evenodd" clip-rule="evenodd" d="M67.9423 39.5119C68.1115 26.4759 71.2548 17.9449 65.6193 17.9449C58.317 17.9449 41.8123 19.698 37.3911 20.6171C37.3911 20.6171 34.2426 21.2509 34.0328 24.8977C33.9122 26.9898 32.6237 38.4856 32.3465 51.3965C32.1821 59.0552 32.2783 66.9523 32.4033 74.6032C32.4735 78.9225 32.5551 83.0652 38.1334 83.0652C43.031 83.0652 55.6997 83.6913 62.3502 83.4573C62.0556 83.4671 61.7541 83.4757 61.4468 83.4826C63.1246 83.3599 67.0917 82.5178 67.4228 77.3174C67.8417 70.707 67.7796 52.0629 67.9423 39.5119Z" fill="#742384"/>
<path fill-rule="evenodd" clip-rule="evenodd" d="M76.7335 13.6061C75.2747 10.5333 70.5727 10.0221 67.7764 10.3022C74.5694 9.63727 71.2256 20.8991 70.4895 35.6109C69.862 48.154 69.7695 73.386 69.452 85.3614C69.4339 86.0438 69.3174 86.6988 68.8333 87C71.3333 86.25 74.0833 85.1667 75.3969 84.25C75.4015 77.0574 75.5394 46.6277 77.1354 21.6126C77.3049 18.9485 77.9279 16.1184 76.7335 13.6061Z" fill="#973043"/>
<path fill-rule="evenodd" clip-rule="evenodd" d="M76.199 39.0591L72.8618 40.93C72.8618 40.93 73.5749 49.6044 75.8498 50.1718C75.9434 46.6191 76.058 42.891 76.199 39.0591Z" fill="#973043"/>
<path fill-rule="evenodd" clip-rule="evenodd" d="M47.8317 88.5104C46.9112 88.5104 46.1643 87.7644 46.1643 86.8435C46.1643 85.9237 46.9112 85.1766 47.8317 85.1766C48.7538 85.1766 49.5015 85.9237 49.5015 86.8435C49.5015 87.7644 48.7538 88.5104 47.8317 88.5104Z" fill="#973043"/>
<path fill-rule="evenodd" clip-rule="evenodd" d="M45.6137 16.6468C45.559 16.186 45.8921 15.7692 46.3557 15.715L55.7857 14.6175C56.2522 14.5599 56.6711 14.8937 56.7258 15.3545C56.7804 15.8149 56.4473 16.2325 55.9833 16.2863L46.5533 17.3838C46.5193 17.3875 46.4866 17.3892 46.4535 17.3892C46.03 17.3892 45.6638 17.0743 45.6137 16.6468Z" fill="#973043"/>
<path d="M59.045 62.0627C56.9503 62.1014 54.5731 62.3291 52.3761 62.6069C52.622 61.7171 52.8667 60.8388 52.8667 60.8388C52.8667 60.8388 53.1183 61.3835 53.8276 61.3283C54.8348 61.2498 56.0607 60.2621 56.6542 58.4524C57.2849 56.53 57.2284 54.3469 55.9415 54.1636C54.9015 54.0156 54.4052 54.9412 54.3334 55.1257C54.3334 55.1257 54.5544 54.2849 53.8937 54.4317C53.2607 54.5723 53.1448 54.8564 52.9883 55.3642C52.9606 55.4535 52.4276 57.4511 51.8692 59.5562C51.8607 59.5699 51.8539 59.5858 51.8488 59.6035C51.7109 60.0794 51.4379 60.2388 51.2406 60.2513C50.6025 60.2928 51.9743 56.0524 52.0783 55.7308C52.2156 55.3067 52.2976 54.985 51.8324 54.808C51.5187 54.6885 51.0886 54.7317 50.9626 55.071C50.9094 55.2133 50.871 55.3181 50.871 55.3181C50.871 55.3181 50.5127 54.7818 49.7202 54.8547C48.9273 54.9275 47.9263 55.8993 47.2639 57.6042C46.6014 59.3092 46.3138 61.7547 47.885 61.9983C48.6825 62.1219 49.3517 61.6625 49.7022 60.9059C49.7022 60.9059 49.6411 61.4126 50.1662 61.6608C50.3725 61.7587 50.8857 61.7205 51.369 61.4456C51.2418 61.926 51.122 62.3815 51.0151 62.7873C47.6228 63.2598 44.9527 63.7875 44.9527 63.7875C44.9533 63.7852 46.8123 57.4539 47.2311 56.0604C47.5815 54.894 46.9208 55.1479 46.4325 55.2907C45.9119 55.4427 45.6655 55.8845 45.4049 56.6866C44.266 60.1898 43.3696 61.2805 42.7196 61.0454C42.1233 60.8296 43.9987 57.1095 43.5488 56.6183C43.1588 56.1924 42.3551 56.2152 42.2019 56.4663C42.0487 56.7173 42.2765 56.9467 42.1787 57.3019C42.0809 57.6572 41.3298 59.5801 41.2507 60.011C41.1715 60.4414 40.5198 62.8283 42.2443 62.7253C43.2634 62.6644 43.9614 61.8879 44.0354 61.6722C43.7172 62.5995 43.2622 64.0961 43.2622 64.0961C43.2622 64.0961 41.176 64.6215 39.5132 66.3742C38.1929 67.7655 37.2592 70.7627 39.2312 71.2403C42.2963 71.9826 43.7455 67.2703 44.4887 65.4982C46.9739 64.9408 48.8691 64.5708 50.6218 64.2953C50.5958 64.3983 50.5782 64.4684 50.572 64.4974C50.4126 65.2352 50.4482 65.5306 51.0202 65.4594C51.6369 65.3826 51.7143 65.0638 51.9161 64.2925C51.9296 64.2395 51.9472 64.1741 51.9675 64.0983C54.0446 63.816 56.0839 63.639 58.8901 63.4033C59.7622 63.3298 59.7526 63.183 59.838 62.6587C59.9341 62.0638 59.2519 62.0593 59.045 62.0627ZM53.6948 57.9964C54.1141 56.616 54.4996 56.0632 54.8619 55.9072C55.7261 55.5344 55.89 56.6268 55.2231 58.2851C54.451 60.204 53.5495 60.1602 53.2042 59.7816C53.2036 59.7816 53.2516 59.4537 53.6948 57.9964ZM49.8356 58.8293C49.4648 59.7304 49.1177 60.3646 48.6401 60.368C47.9557 60.3731 47.9732 59.3365 48.4604 58.0323C48.8702 56.9359 49.6174 56.2454 50.0209 56.1668C50.4239 56.0888 50.893 56.2591 49.8356 58.8293ZM40.7793 69.3145C39.1498 70.7792 39.5607 68.7731 40.1666 67.9067C41.3168 66.2615 42.7371 65.8454 42.7371 65.8454C42.0154 67.9716 41.1133 69.0139 40.7793 69.3145Z" fill="white"/>
<path d="M61.2119 56.7583C61.8274 56.0405 62.1083 54.5109 61.0757 53.9479C59.8266 53.267 58.1954 54.3065 57.5222 56.5466C56.9237 58.5384 56.6998 60.9879 58.7306 60.8974C59.731 60.853 60.5941 60.1278 60.9067 59.5893C61.0581 59.328 61.1186 58.9164 61.092 58.7337C61.018 58.2208 60.7066 58.1462 60.1781 58.8196C60.0475 58.9682 59.0053 59.9018 58.4955 59.3473C58.127 58.9466 58.4367 58.1598 58.4514 58.1593C59.1183 58.1103 60.2855 57.8388 61.2119 56.7583ZM59.7175 55.0192C60.2781 54.4915 60.8145 55.1228 60.1662 56.0314C59.5117 56.9479 58.7453 56.9246 58.7391 56.9536C58.8177 56.5949 59.1059 55.5953 59.7175 55.0192Z" fill="white"/>
<path d="M50.1622 48.8484C50.0401 48.7693 49.857 48.73 49.6139 48.73L48.8871 48.73L48.8871 49.7445L49.6377 49.7445C50.1096 49.7445 50.3459 49.5731 50.3459 49.2304C50.3459 49.0545 50.2848 48.9276 50.1622 48.8484Z" fill="#10CBB4"/>
<path d="M50.5506 44.127C48.3543 44.2289 46.5609 46.0055 46.4263 48.216C46.3353 49.7126 46.9932 51.0577 48.0575 51.9105C48.1672 51.9981 48.231 52.1308 48.231 52.2719L48.231 53.2357C48.231 53.3097 48.2723 53.378 48.3373 53.4122L48.3639 53.4264C48.4266 53.4594 48.5018 53.4537 48.5589 53.4122L49.3801 52.8162C49.4875 52.7382 49.6231 52.7108 49.752 52.7416C50.0742 52.819 50.4099 52.86 50.7552 52.86C53.1511 52.86 55.0932 50.904 55.0932 48.4909C55.0932 46.0101 53.0398 44.0114 50.5506 44.127ZM50.9062 49.807C50.8072 49.9625 50.6739 50.0774 50.506 50.152C50.4009 50.1964 50.2799 50.2272 50.1437 50.2454C50.0075 50.2636 49.8481 50.2727 49.6661 50.2727L48.612 50.2727C48.4599 50.2727 48.3514 50.2385 48.2859 50.1697C48.2209 50.1008 48.1881 49.9915 48.1881 49.8412L48.1881 47.2294C48.1881 47.0763 48.2214 46.9659 48.2881 46.8987C48.3548 46.8315 48.4628 46.7979 48.6114 46.7979L49.7288 46.7979C49.8933 46.7979 50.0363 46.8082 50.1573 46.8287C50.2782 46.8492 50.3862 46.889 50.4817 46.9471C50.5631 46.996 50.6354 47.0581 50.6982 47.1332C50.7609 47.2084 50.8089 47.2915 50.8417 47.382C50.8745 47.4731 50.8909 47.5687 50.8909 47.67C50.8909 48.0179 50.7185 48.2718 50.3732 48.4334C50.8265 48.5786 51.0531 48.8615 51.0531 49.2816C51.0542 49.4763 51.0051 49.6511 50.9062 49.807ZM53.3603 49.9442C53.2738 50.0712 53.1466 50.168 52.9776 50.2334C52.8092 50.2989 52.604 50.3319 52.3621 50.3319C52.1315 50.3319 51.9337 50.2966 51.7692 50.2255C51.6047 50.1543 51.4827 50.0655 51.4047 49.959C51.3261 49.8526 51.2871 49.7456 51.2871 49.638C51.2871 49.5668 51.312 49.5059 51.3623 49.4552C51.4126 49.4046 51.4759 49.3795 51.5527 49.3795C51.62 49.3795 51.672 49.396 51.7082 49.4291C51.7444 49.4621 51.7788 49.5088 51.8116 49.5691C51.8777 49.6847 51.9563 49.7706 52.0479 49.8275C52.1394 49.8845 52.2649 49.9129 52.4232 49.9129C52.552 49.9129 52.6572 49.8839 52.7397 49.8264C52.8222 49.7689 52.8629 49.7029 52.8629 49.6283C52.8629 49.5144 52.8199 49.4313 52.7346 49.3795C52.6492 49.3272 52.5085 49.2776 52.3124 49.2304C52.0914 49.1752 51.9111 49.1171 51.7726 49.0562C51.6336 48.9953 51.5228 48.915 51.4397 48.8154C51.3566 48.7158 51.3148 48.5934 51.3148 48.4482C51.3148 48.3184 51.3532 48.196 51.4301 48.081C51.507 47.9655 51.6206 47.8738 51.7704 47.805C51.9201 47.7361 52.101 47.7019 52.3124 47.7019C52.4785 47.7019 52.6283 47.7196 52.7606 47.7543C52.8934 47.789 53.0036 47.8357 53.0924 47.8943C53.1811 47.953 53.2484 48.0173 53.2947 48.0885C53.3411 48.1596 53.3642 48.2291 53.3642 48.2968C53.3642 48.3708 53.3394 48.4317 53.2902 48.4795C53.241 48.5268 53.1704 48.5507 53.0794 48.5507C53.0132 48.5507 52.9573 48.5319 52.9109 48.4938C52.8646 48.4556 52.8115 48.3987 52.7521 48.323C52.7035 48.2598 52.6464 48.2091 52.5803 48.1716C52.5142 48.1334 52.4249 48.1146 52.3118 48.1146C52.1959 48.1146 52.0993 48.1397 52.0224 48.1892C51.9456 48.2387 51.9071 48.3008 51.9071 48.3754C51.9071 48.4431 51.9354 48.4989 51.9919 48.5427C52.0484 48.586 52.1242 48.6218 52.2203 48.6503C52.3158 48.6788 52.4475 48.7135 52.6153 48.7545C52.8143 48.8034 52.9771 48.8621 53.1037 48.9298C53.2297 48.9976 53.3258 49.0778 53.3908 49.1706C53.4558 49.2628 53.4886 49.3687 53.4886 49.4871C53.4897 49.6642 53.4467 49.8173 53.3603 49.9442Z" fill="#10CBB4"/>
<path d="M49.9305 48.1755C50.0254 48.1425 50.0978 48.0793 50.1481 47.986C50.1871 47.9194 50.2068 47.8454 50.2068 47.7634C50.2068 47.5881 50.1447 47.4714 50.0209 47.4139C49.8971 47.3564 49.7078 47.3273 49.454 47.3273L48.8871 47.3273L48.8871 48.2256L49.5269 48.2256C49.701 48.2251 49.8355 48.2085 49.9305 48.1755Z" fill="#10CBB4"/>
<path fill-rule="evenodd" clip-rule="evenodd" d="M77.0867 75.748C76.1446 74.644 76.3002 72.9899 77.4349 72.0533C84.3599 66.3334 94.0891 55.4594 94.3441 49.9191C94.394 48.8363 94.0432 48.3521 93.7317 48.051C90.8606 45.2747 86.0469 44.1615 82.5142 43.7167C78.4629 43.2064 75.1036 43.4404 75.07 43.4428C73.5994 43.5491 72.331 42.467 72.237 41.0242C72.1431 39.5818 73.2561 38.3248 74.7266 38.2151C75.3518 38.1688 90.1187 37.1588 97.4992 44.297C99.0309 45.7778 99.7844 47.7843 99.6782 50.0992C99.2702 58.9649 85.9458 71.8377 80.8463 76.0499C80.5487 76.2951 80.2138 76.4672 79.8642 76.5674C78.8805 76.8495 77.7817 76.5621 77.0867 75.748Z" fill="#DE4A65"/>
<path fill-rule="evenodd" clip-rule="evenodd" d="M75.1878 43.4466C84.33 43.1854 90.4834 45.0005 93.8571 48.1847C93.849 47.9038 93.7559 47.5973 93.607 47.3133C91.9333 44.1212 84.7555 42.8053 79.4674 42.4692C74.1792 42.1327 76.8679 38.1441 76.8679 38.1441C76.3542 38.1398 74.9811 38.1981 74.9014 38.1968C73.5857 38.1169 72.3387 39.3109 72.1707 40.5981C71.9978 41.9226 72.9951 43.2964 74.3592 43.4234C74.7211 43.4453 74.7118 43.4601 75.1878 43.4466Z" fill="#BE3C54"/>
<path fill-rule="evenodd" clip-rule="evenodd" d="M72.3501 72.6125C71.1023 74.4287 69.916 76.9813 71.5182 80.4658C73.121 83.9505 77.0799 80.6864 78.4523 79.2128C79.8251 77.7391 83.1542 74.0887 83.4942 73.1771C83.8651 72.1843 80.2486 70.7366 79.4565 70.9739C79.4565 70.9739 74.1522 69.99 72.3501 72.6125Z" fill="#DE4A65"/>
<path fill-rule="evenodd" clip-rule="evenodd" d="M54.3683 30.0777C54.7888 30.0459 54.9858 30.2697 55.0648 30.7199C54.9511 32.6175 53.1298 34.2358 50.775 34.4337C48.4202 34.6319 46.3599 33.3403 45.9381 31.488C45.8622 31.0858 46.0215 30.741 46.5203 30.7379C46.5203 30.7379 49.2555 31.1794 50.552 31.0663C51.8483 30.9532 54.3683 30.0777 54.3683 30.0777Z" fill="#3F0D4A"/>
<path fill-rule="evenodd" clip-rule="evenodd" d="M53.8333 33.0833C53.8333 33.0833 53.0324 31.8486 50.6601 32.0615C48.2877 32.2742 47.75 33.8333 47.75 33.8333C47.75 33.8333 48.8333 34.6666 51.1666 34.4167C53.1666 34.0093 53.8333 33.0833 53.8333 33.0833Z" fill="#DE4A65"/>
<path d="M58.8259 25.4C57.3811 25.4494 56.2432 26.652 56.2846 28.0859C56.2883 28.2161 56.3043 28.3284 56.3379 28.5027C56.377 28.7053 56.5743 28.8371 56.7787 28.7972C56.983 28.7572 57.117 28.5605 57.0779 28.3579L57.0637 28.2817L57.0452 28.16L57.0377 28.0603C57.0082 27.0391 57.8185 26.1826 58.8474 26.1474C59.8765 26.1124 60.7345 26.9119 60.764 27.9325C60.7653 27.9808 60.7634 28.029 60.7577 28.0902L60.741 28.2335C60.7139 28.4385 60.8592 28.6254 61.0654 28.6511C61.2717 28.6768 61.4609 28.5314 61.4879 28.3265C61.5112 28.15 61.5206 28.0377 61.5171 27.9074C61.4756 26.4733 60.2709 25.3508 58.8259 25.4Z" fill="#DE4A65"/>
<path d="M42.5244 26.8861C41.0796 26.9353 39.9417 28.1381 39.9831 29.5721C39.9868 29.702 40.0027 29.8141 40.0364 29.9887C40.0754 30.1913 40.2727 30.3232 40.477 30.2833C40.6814 30.2434 40.8154 30.0468 40.7764 29.8441L40.7514 29.7027C40.7421 29.6422 40.7375 29.5944 40.7361 29.5464C40.7066 28.5252 41.5171 27.6686 42.546 27.6336C43.575 27.5984 44.433 28.3978 44.4623 29.4196C44.4637 29.4673 44.462 29.5147 44.4563 29.5756L44.4394 29.7195C44.4124 29.9244 44.5576 30.1114 44.7639 30.137C44.9702 30.1627 45.1593 30.0174 45.1864 29.8125C45.21 29.6336 45.2193 29.5228 45.2153 29.3934C45.1742 27.9593 43.9693 26.8367 42.5244 26.8861Z" fill="#DE4A65"/>
<mask id="mask1_707_26477" style="mask-type:alpha" maskUnits="userSpaceOnUse" x="0" y="36" width="10" height="14">
<path d="M0 36.2812H9.45527V49.0608H0V36.2812Z" fill="#F34A5A"/>
</mask>
<g mask="url(#mask1_707_26477)">
<path fill-rule="evenodd" clip-rule="evenodd" d="M4.72779 39.8319C4.93613 38.3421 4.31938 36.2812 6.29123 36.2812C9.02803 36.2812 8.92509 44.3734 8.9598 45.8515C9.02552 48.6473 8.06977 48.9368 5.2416 49.0241C5.02435 49.0308 3.29956 49.0555 3.13059 49.0608C0.931685 49.1285 0.278313 45.9788 0.212592 43.1829C0.14863 40.4637 2.09622 40.0167 4.20881 39.8319H4.72779Z" fill="#DE4A65"/>
</g>
</g>
<defs>
<clipPath id="clip0_707_26477">
<rect width="100" height="100" fill="white"/>
</clipPath>
</defs>
</svg>
